<svg xmlns="http://www.w3.org/2000/svg" width="293.325" height="63.459"><path fill="#231f20" d="m173.073 38.46-.463.419-7.887 7.728c-.649.648-1.372.515-2.113.439-.147-.016-.329-.229-.393-.392l-.791-2.188-.887-2.379-.879-2.439-.497-1.312a2 2 0 0 0-.491.816l-.98 2.963-.419 1.256-1.38 4.169c-.088.268-.145.553-.277.797-.399.745-1.108 1.063-1.879 1.248-.323.076-.668.079-1.004.079l-12.592.007c-.508 0-1.024.029-1.483-.295-.607-.428-.751-.845-.513-1.555l1.021-3.116.905-2.656.859-2.725.903-2.655.415-1.257 1.4-4.276 1.185-3.731c.287-.876.971-1.325 1.812-1.544.389-.1.805-.133 1.211-.133l12.856.036c.453.001.908.027 1.319.312.459.319.639.791.821 1.267l.969 2.631.864 2.388 1.275 3.365.459 1.183c.029.075.096.135.18.248l1.54-1.488 8.236-8.055.953-.924c.579-.523 1.236-.881 2.037-.908l1.008-.035 12.168.027a7 7 0 0 1 .952.064c.933.135 1.336.831 1.039 1.709l-.872 2.776-.905 2.655-.836 2.621-.905 2.709-.436 1.305-1.396 4.277-1.187 3.787c-.347 1.143-1.144 1.748-2.283 1.936-.381.064-.776.068-1.164.069l-12.115.007a12 12 0 0 1-1.113-.06c-.773-.073-1.412-.795-1.095-1.615.399-1.035.693-2.109 1.028-3.169l.852-2.728.907-2.709c.088-.263.191-.524.06-.949m-46.441 1.017c.179.072.28.131.389.156a7.1 7.1 0 0 1 4.496 3.197l1.012 1.675c.72 1.343 2.375 1.74 3.632 1.412.407-.105.795-.283 1.195-.429.251.431.119.905-.388 1.22a21 21 0 0 1-3.945 1.899c-1.105.4-2.239.661-3.381.869-.745.135-1.516.168-2.275.172l-8.769.001c-.72-.004-1.432-.049-2.147-.267-1.243-.379-1.743-1.237-1.839-2.435l-.154-2.227c-.068-.852-.347-1.648-.634-2.448-.267-.745-.634-1.419-1.167-1.996-.463-.501-.999-.884-1.702-.997-.489-.079-.586-.231-.453-.687l.627-1.967c.118-.384.357-.508.754-.5l2.761-.036c.628-.047 1.257-.191 1.862-.371.389-.116.683-.415.815-.844l1.107-3.536c.08-.252.204-.493.262-.749.143-.633-.029-.964-.66-1.112s-1.289-.277-1.938-.3L112 29.164c-.552.001-.569.012-.748.548l-1.426 4.324-.898 2.657-.85 2.728-.897 2.657-.858 2.671-.88 2.663c-.022.068-.068.128-.083.196-.319 1.415-1.371 1.875-2.649 2.013-.456.049-.92.035-1.38.035l-12.382-.012c-.495-.001-.985.001-1.421-.32s-.624-.712-.462-1.232l1.089-3.375.84-2.677.9-2.655.488-1.567.534-1.607.458-1.353 1.191-3.789 1.278-3.757c.268-.808.89-1.228 1.635-1.447.518-.151 1.082-.2 1.626-.201l20.779-.004 13.07.105c1.325.012 2.603.271 3.808.823.859.392 1.572.963 1.912 1.884.189.512.16 1.047-.005 1.565l-.969 2.969-.96 2.515c-.424.94-1.231 1.536-2.096 2.039a11.4 11.4 0 0 1-4.544 1.493c-.385.041-.765.145-1.144.235-.089.021-.168.096-.32.189m117.46 6.012c-.071.563-.128 1.023-.62 1.325a20.6 20.6 0 0 1-3.755 1.813c-1.812.657-3.663 1.067-5.592 1.072-3.171.005-6.34-.007-9.511-.011-.909-.001-1.805-.121-2.651-.455-1.293-.511-2.241-1.319-2.225-3.007l-.016-1.187-.591-.055c-2.587-.003-5.172.003-7.759-.007-.427-.001-.704.124-.943.516l-1.625 2.419c-.433.661-1.044 1.065-1.756 1.385-.769.347-1.568.407-2.385.407l-13.975-.013a5 5 0 0 1-.531-.021c-.929-.099-1.289-.907-.711-1.656l1.943-2.384 5.648-6.816 6.727-8.129 2.616-3.133c.993-1.177 2.263-1.78 3.805-1.781l11.796-.007 10.415.027a12 12 0 0 1 1.113.049c1.028.1 1.711.673 1.917 1.677l.648 3.603.539 2.921.38 2.141.477 2.88.568 3.131.355 2.036c.089.743.585 1.128 1.185 1.367a6.5 6.5 0 0 0 1.688.424c1.192.127 1.416.055 2.824-.532zm-30.849-4.149h6.341c.213-.497.183-9.221-.037-9.704l-.461.587-3.408 5.172-2.184 3.317c-.101.155-.141.348-.251.628m59.689-15.496 14.188.004a10 10 0 0 1 4.592 1.131c.721.369 1.301.928 1.541 1.74a1.7 1.7 0 0 1 .039.781c-.077.415-.22.819-.348 1.224l-.975 3.077c-.283.939-.635 1.827-1.66 2.171-.464.155-.963.212-1.449.289-.225.036-.46.02-.689.02l-12.011.001a7 7 0 0 1-1.212-.12c-.853-.151-1.227-.783-.967-1.604l.799-2.467c.319-.863-.135-1.855-.899-2.276-1.209-.668-2.483-.587-3.753-.191-.928.289-1.752.769-2.348 1.552a4.3 4.3 0 0 0-.588 1.109l-.924 2.704-.852 2.672-.904 2.768-.448 1.357-.559 1.879c-.239.616.208 1.648.825 2.017.44.263.903.4 1.401.448 1.805.176 3.393-.28 4.685-1.612.552-.569.777-1.289 1.007-2.015L272 40.8c.357-.929 1.155-1.296 2.048-1.484.343-.071.707-.059 1.06-.059l12.595.025c.512.001 1.023.001 1.471.336.353.265.587.672.475 1.087a41 41 0 0 1-.625 2.08l-.895 2.66c-.267.863-.767 1.524-1.491 2.057-1.056.779-2.249 1.255-3.479 1.637-.688.215-1.409.38-2.125.435l-4.72.211a4692 4692 0 0 1-23.329-.024c-1.167-.004-2.345-.041-3.496-.215-1.236-.188-2.444-.56-3.464-1.356-.472-.369-.848-.811-.989-1.404-.056-.235-.104-.504-.045-.728l.719-2.384.888-2.66.975-2.965.829-2.624.849-2.617.576-1.761.508-1.447c.4-.917 1.156-1.508 1.991-1.992 1.277-.741 2.663-1.181 4.108-1.492 1.261-.271 2.528-.316 3.801-.32l12.701-.005v.051M12.315 30.608l-.753-.036c-3.064-.003-6.128 0-9.193-.004l-1.166-.061C.18 30.362-.254 29.546.147 28.595l.508-1.389c.183-.669.663-1.064 1.243-1.287.535-.207 1.129-.359 1.697-.359l38.578.024a3.7 3.7 0 0 1 1.438.304c.655.283.802.755.639 1.283l-.694 2c-.178.432-.545.721-.951.964-.769.461-1.627.475-2.471.481l-8.555.016-.584.004a.47.47 0 0 0-.517.359l-.712 2.104-.902 2.656-.44 1.303-1.393 4.277-1.194 3.788-1.012 2.953c-.197.556-.655.891-1.156 1.109-.529.232-1.081.409-1.689.408-4.428-.012-8.856.004-13.284-.011a3.3 3.3 0 0 1-1.174-.253c-.92-.368-.899-.989-.695-1.632l1.394-4.279 1.258-3.709c.292-.887.548-1.787.836-2.676l.896-2.657.825-2.572c.065-.201.141-.401.19-.607.042-.175.053-.356.085-.589"/><g fill="#ec1c24"><path d="M83.074 18.942c-2.785 0-5.571.021-8.357-.012a17 17 0 0 1-2.764-.272c-.699-.125-1.374-.397-1.944-.868-.55-.453-.67-.981-.401-1.715.17-.463.357-.925.463-1.404.273-1.235.846-1.355 1.758-1.503.187-.029.383-.012.575-.012h8.213l.336.003c.51.028.637.192.605.696-.03.489-.206.963-.087 1.475.086.365.251.66.513.895.42.377.896.628 1.485.701.663.083 1.323.085 1.957-.057 1.204-.275 2.237-.86 2.842-1.996a3.4 3.4 0 0 0 .348-1.088c.109-.728-.255-1.308-.752-1.783a3.9 3.9 0 0 0-1.955-1.04c-1.538-.307-3.098-.427-4.652-.608l-3.651-.525-2.106-.432c-.778-.197-1.518-.512-2.119-1.059-.559-.508-.897-1.483-.54-2.279.226-.503.346-1.057.476-1.599.262-1.091.946-1.805 1.92-2.301.847-.431 1.752-.696 2.667-.888.746-.157 1.525-.193 2.291-.201l7.54-.019 3.17-.001 6.577-.057a24 24 0 0 1 3.06.212 4.6 4.6 0 0 1 2.269.949c.467.373.619 1.019.409 1.604l-.575 1.771c-.168.507-.438.933-1.002 1.059-.387.087-.782.192-1.174.195l-8.309.023c-.096 0-.192.001-.289-.005-.514-.033-.685-.219-.65-.732.017-.256.061-.509.096-.763.178-1.304-.728-2.067-1.807-2.303a4.85 4.85 0 0 0-2.192.027c-1.199.297-2.248.895-2.813 2.044-.383.779-.629 1.632-.111 2.476.148.24.314.489.529.663.438.352.943.575 1.507.687 1.648.328 3.317.472 4.984.651l4.89.665c.947.169 1.915.357 2.762.891 1.001.629 1.246 1.589.912 2.667l-.522 1.736c-.261 1.037-.917 1.728-1.837 2.205-1.399.725-2.902 1.083-4.466 1.115l-10.083.137v-.023m149.797-1.907-1.491.696-2.728.873a2.5 2.5 0 0 1-.567.096c-2.189.136-4.38.187-6.572.036-.473-.032-.879-.187-1.168-.559a1.3 1.3 0 0 1-.264-.593l-.325-2.759c-.273-1.397-.773-2.704-1.976-3.601-.163-.121-.363-.191-.548-.281-.349-.168-.444-.307-.355-.673.085-.351.224-.689.345-1.051l2.052-.076c.6-.06 1.208-.152 1.783-.331.46-.143.819-.487.973-.984l1.08-3.469c.136-.443-.031-.801-.436-1.053-.685-.424-1.465-.457-2.221-.495l-3.457-.015c-.624.004-.711.065-.92.675l-.615 1.909-.493 1.392-.348 1.091-.747 2.469-.493 1.444-.375 1.135-.744 2.467-.876 2.577a1.06 1.06 0 0 1-.899.764l-2.051.175-6.099.003a2.3 2.3 0 0 1-.745-.143c-.361-.128-.424-.317-.308-.675l.905-2.817.828-2.443.433-1.464.355-1.14.817-2.393.424-1.421.501-1.489.369-1.133.427-1.469c.189-.583.48-1.085 1.167-1.187.347-.051.693-.133 1.041-.135l14.937-.024 5.521.021c.921.025 1.852.155 2.704.551a3.7 3.7 0 0 1 .984.663c.553.536.516 1.268.281 1.919l-.517 1.585-.849 2.325c-.38.843-1.145 1.311-1.945 1.692-1.452.691-2.993.988-4.597.965a4 4 0 0 0-.288.007c-.267.013-.407.176-.453.419-.049.253.128.385.319.475.144.065.308.083.463.119l1.391.331c1.048.285 1.836.945 2.455 1.809.343.477.648.984.936 1.497.533.947 1.361 1.393 2.411 1.501l.545.075.023.119M124.007 10.914c-.148-.28-.384-.263-.605-.263l-4.995.005-1.49.008c-.491.004-.659.127-.801.587l-1.068 3.468-.832 2.437-.31.899a1.11 1.11 0 0 1-.973.675l-1.675.1-6.869.003c-.237-.001-.476-.045-.712-.08-.301-.044-.391-.249-.364-.521.018-.175.035-.355.09-.52l.806-2.397.439-1.464.367-1.187.819-2.395.753-2.464.821-2.444.433-1.417.709-2.129c.097-.241.355-.48.598-.583.36-.152.77-.251 1.16-.256l7.926-.031a1.44 1.44 0 0 1 1 .36c-.007.139.019.307-.027.449l-.793 2.353-.421 1.369-.509 1.591c-.158.643-.544 1.233-.475 1.993.157.031.319.091.482.091l6.581.003c.46-.003.608-.157.736-.597l.559-1.723.745-2.421.507-1.492c.133-.391.231-.8.415-1.164.112-.224.328-.467.552-.545.461-.161.957-.297 1.441-.303l7.685-.011c.159 0 .324.012.472.064.317.111.468.34.411.668s-.16.648-.259.967l-.379 1.131-.748 2.468-.824 2.445-.351 1.091-.745 2.468-.828 2.44-.427 1.419-.685 1.987c-.159.377-.515.612-.939.664-.316.04-.637.048-.957.049-1.729.004-3.459-.004-5.188.004l-2.352.051a3.6 3.6 0 0 1-.808-.091c-.361-.083-.471-.339-.359-.691l.871-2.781.824-2.441zm44.729-9.738c.021.239.069.375.036.488l-.475 1.496c-.215.507-.66.761-1.201.817a9 9 0 0 1-.96.041l-12.104.015c-.176 0-.359-.027-.525.015-.139.036-.312.124-.371.24-.152.295-.257.616-.364.932l-.452 1.409-.469 1.404c-.159.592.008.781.636.784l4.42-.003 2.399-.049c.268-.001.54.053.805.104.216.041.376.216.317.413-.157.539-.18 1.164-.683 1.532-.449.328-.987.435-1.543.435h-5.859l-1.009.001c-.269-.004-.465.093-.559.359l-.539 1.532-.569 1.72-.431 1.416-.665 1.892a.94.94 0 0 1-.503.475c-.416.147-.861.263-1.299.284l-2.737.015-4.609.044a3.7 3.7 0 0 1-.859-.076c-.463-.107-.616-.359-.488-.805l.613-1.959.332-1.047.756-2.467.82-2.444.371-1.133.745-2.468.807-2.399.463-1.507c.188-.511.252-1.136.852-1.367.364-.14.772-.171 1.163-.237.14-.024.288-.011.432-.011l22.143-.012c.375 0 .749.076 1.163.12M249.1 18.76q-5.524.001-11.049-.001c-.24 0-.484.004-.719-.036-.368-.065-.507-.36-.391-.719l.867-2.732.825-2.444c.153-.469.277-.948.428-1.419l.501-1.493.372-1.133.749-2.468c.257-.803.545-1.596.813-2.395.147-.437.275-.881.417-1.32.104-.317.179-.655.344-.939.12-.203.345-.376.563-.483.465-.227.972-.287 1.493-.288l20.321-.029a14 14 0 0 1 3.233.363c.667.153 1.295.437 1.816.917.296.273.447.6.401.983a7 7 0 0 1-.248 1.115c-.109.383-.263.752-.38 1.131l-.763 2.513c-.261.819-.551 1.628-.824 2.443l-.347 1.091-.744 2.471c-.216.7-.419 1.407-.679 2.091-.241.636-.737 1.079-1.312 1.416-.841.493-1.756.791-2.701 1.049-1.343.367-2.699.291-4.053.3l-8.936.008zm-1.079-1.969c.26.041.471.101.684.107.592.013 1.185-.02 1.777.009 1.253.063 2.46-.135 3.579-.695.491-.245.936-.603 1.351-.967.525-.461.664-1.153.881-1.779.287-.827.504-1.679.757-2.516.116-.381.245-.757.371-1.135l.825-2.492c.183-.559.392-1.115.517-1.687.08-.36.135-.791.011-1.119-.308-.815-.997-1.281-1.815-1.492a10 10 0 0 0-1.889-.284c-.732-.043-1.471 0-2.205.009a.45.45 0 0 0-.468.335l-.596 1.715-.753 2.516c-.12.395-.26.785-.392 1.177l-.481 1.448c-.148.469-.267.949-.42 1.417l-.827 2.441-.907 2.989M187.783.945l7.543.012c.988.013 1.984.097 2.959.259a4.23 4.23 0 0 1 2.095.988c.332.291.451.659.413 1.075a4 4 0 0 1-.168.845l-.808 2.399-.748 2.465-.507 1.44-.351 1.091-.757 2.516-.813 2.284c-.308.712-.977 1.076-1.632 1.411-1.661.847-3.453 1.084-5.289 1.088l-12.105.023-2.925.056-3.592-.211c-.875-.097-1.711-.419-2.392-1.005-.504-.435-.745-.971-.405-1.665.173-.353.264-.748.381-1.129l.749-2.467.829-2.492.432-1.417.428-1.367.543-1.679c.217-.651.368-1.336.685-1.933.331-.624.929-1.036 1.561-1.372.78-.413 1.623-.656 2.465-.881.489-.131 1.011-.149 1.52-.191l2.06-.117 7.829-.005zm-5.349 15.972c.649.019 1.265-.065 1.876-.315.881-.363 1.655-.848 2.117-1.693.256-.469.411-.996.589-1.505l.457-1.455.499-1.544.451-1.459.508-1.541.528-1.631c.248-.767.185-1.527-.496-2.141-.483-.436-1.047-.636-1.684-.717a5.01 5.01 0 0 0-4.115 1.252c-.595.519-.82 1.239-1.045 1.956l-.415 1.369-.824 2.489-.756 2.513-.375 1.132c-.113.444-.228.896-.259 1.352-.037.54.216.971.653 1.312.683.535 1.459.681 2.289.625"/></g><path fill="#231f20" d="M87.12 45.489c-.072.563-.128 1.023-.62 1.325a20.6 20.6 0 0 1-3.755 1.813c-1.811.657-3.663 1.067-5.591 1.072q-2.37.004-4.741-.003c2.043-9.753-17.76-15.491-2.657-19.909-22.538 1.184-7.146 11.084-26.53 19.916l-9.509-.011a6 6 0 0 1-.531-.021c-.929-.099-1.29-.908-.711-1.656.626-.811 1.289-1.595 1.943-2.383l5.65-6.817 6.726-8.129 2.617-3.132c.992-1.179 2.262-1.781 3.804-1.783l11.797-.007 10.415.027c.371.001.744.013 1.114.049 1.027.1 1.711.673 1.916 1.677.245 1.196.431 2.403.648 3.604l.539 2.92.379 2.141.478 2.879.568 3.132c.122.679.273 1.353.355 2.037.089.741.584 1.127 1.184 1.365a6.5 6.5 0 0 0 1.688.424c1.193.127 1.416.055 2.824-.532"/><g fill="#fff"><path d="M83.292 19.705c-3.313 0-6.629.044-9.941-.023-1.374-.027-2.716-.369-3.91-1.141-1.215-.787-1.282-1.649-.895-2.908l.515-1.541c.186-.703.676-1.115 1.282-1.395.57-.264 1.187-.343 1.823-.341l8.357-.021c.542-.001 1.081.001 1.589.271s.765.792.621 1.36c-.07.277-.148.56-.164.843a1.27 1.27 0 0 0 1.055 1.339c1.233.201 2.318-.113 3.185-1.036.296-.316.481-.697.565-1.143.161-.851-.216-1.425-.885-1.852a2.8 2.8 0 0 0-1.201-.445l-5.19-.635-4.261-.676c-1.039-.223-2.069-.553-2.957-1.192-1.282-.923-1.537-2.007-1.108-3.549.132-.476.359-.929.458-1.409.233-1.125.934-1.872 1.873-2.427 1.239-.733 2.595-1.113 4.012-1.347 1.386-.229 2.773-.229 4.165-.23L98.225.195c1.374-.003 2.717.179 4.003.649.716.261 1.405.605 1.876 1.265.279.391.397.821.303 1.268-.141.668-.346 1.325-.542 1.981-.095.319-.192.648-.355.933-.432.756-1.18 1.039-1.978 1.201-.311.063-.637.064-.957.064l-8.693.007c-.436 0-.854-.041-1.249-.268-.527-.303-.752-.823-.572-1.416a3.5 3.5 0 0 0 .133-.559c.117-.905-.431-1.541-1.342-1.609-1.122-.084-2.081.255-2.856 1.072-.654.691-.782 1.531-.546 2.412.159.593.715.817 1.242.929.796.169 1.611.249 2.419.355l4.141.523.761.1 2.99.423c1.083.241 2.181.493 3.104 1.191.711.537 1.13 1.208 1.105 2.117-.017.576-.061 1.144-.296 1.691a6.3 6.3 0 0 0-.373 1.184c-.225 1.08-.881 1.831-1.791 2.377-1.177.708-2.461 1.103-3.807 1.365-1.397.273-2.8.264-4.208.264l-7.445.001zm-.219-.763v.023l10.083-.137c1.563-.032 3.066-.389 4.466-1.115.92-.477 1.576-1.168 1.837-2.205l.522-1.736c.334-1.077.089-2.037-.912-2.667-.847-.533-1.815-.721-2.762-.891l-4.89-.665-4.984-.651a3.4 3.4 0 0 1-1.507-.687c-.215-.173-.381-.423-.529-.663-.519-.844-.272-1.697.111-2.476.565-1.149 1.614-1.747 2.813-2.044a4.85 4.85 0 0 1 2.192-.027c1.079.236 1.984.999 1.807 2.303l-.096.763c-.035.513.136.699.65.732.096.007.193.005.289.005l8.309-.023c.392-.003.787-.108 1.174-.195.564-.125.834-.552 1.002-1.059l.575-1.771s.058-1.231-.409-1.604a4.6 4.6 0 0 0-2.269-.949 24 24 0 0 0-3.06-.212c-2.192-.012-4.384.04-6.577.057l-3.17.001c-2.513.003-5.027-.008-7.54.019-.766.008-1.545.044-2.291.201-.915.192-1.82.457-2.667.888-.975.496-1.658 1.211-1.92 2.301-.13.541-.25 1.096-.476 1.599-.357.796-.019 1.771.54 2.279.601.547 1.341.861 2.119 1.059l2.106.432 3.651.525 4.652.608A3.9 3.9 0 0 1 87.867 12c.497.475.86 1.055.752 1.783a3.4 3.4 0 0 1-.348 1.088c-.604 1.136-1.638 1.721-2.842 1.996-.633.143-1.294.14-1.957.057-.589-.073-1.065-.324-1.485-.701a1.67 1.67 0 0 1-.513-.895c-.119-.512.057-.985.087-1.475.032-.504-.095-.668-.605-.696-.112-.008-.224-.003-.336-.003h-8.213c-.192 0-.388-.017-.575.012-.912.148-1.485.268-1.758 1.503-.106.479-.294.941-.463 1.404-.268.733-.149 1.261.401 1.715.57.471 1.245.743 1.944.868a17 17 0 0 0 2.764.272l8.357.012m132.248-7.631.844-2.597c.063-.199.196-.287.388-.296l.959-.032c.88-.005 1.757.009 2.629-.175.468-.099.712-.341.843-.792l.844-2.693c.044-.137.089-.277.104-.419.035-.313-.084-.489-.397-.551a4.5 4.5 0 0 0-.811-.084l-3.073-.013c-.291-.004-.485.072-.579.376l-.567 1.725-.816 2.501-.387 1.183-.748 2.472-.808 2.403-.78 2.513-.395 1.229c-.211.619-.676 1.021-1.248 1.252-.468.189-.983.355-1.479.361l-7.973.012c-.412-.005-.849-.173-1.224-.364-.408-.208-.636-.607-.529-1.087.123-.559.291-1.109.455-1.659l.568-1.776.799-2.407.416-1.272 1.241-3.871.759-2.471.821-2.449c.085-.257.14-.528.249-.773.215-.476.628-.78 1.08-.98.491-.217 1.003-.395 1.569-.389l5.092-.005 14.841-.015c1.096-.004 2.181.068 3.233.349 1.039.277 2.048.653 2.687 1.613.277.415.409.891.309 1.371-.141.685-.352 1.359-.553 2.031l-.496 1.497c-.339 1.435-1.185 2.436-2.471 3.121-.837.447-1.695.812-2.633.983-.2.036-.423.079-.412.397l1.021.661c.796.589 1.389 1.357 1.884 2.207l.401.708c.659 1.143 2.123 1.148 2.925.539l1.379-1.083c.021.191.063.297.037.384l-.556 1.784c-.133.416-.543.529-.856.723a14.3 14.3 0 0 1-3.445 1.529c-.824.244-1.683.379-2.535.511-2.004.311-4.023.233-6.036.127-.611-.032-1.231-.145-1.808-.427-.864-.421-1.201-1.151-1.285-2.041l-.075-1.44c-.137-1.255-.503-2.435-1.284-3.451a2.03 2.03 0 0 0-1.508-.823c-.181-.013-.36-.075-.612-.129zm17.541 5.728-.023-.119-.545-.075c-1.049-.108-1.877-.555-2.411-1.501l-.936-1.497c-.619-.864-1.407-1.524-2.455-1.809l-1.391-.331c-.155-.036-.319-.053-.463-.119-.191-.089-.368-.221-.319-.475.047-.243.187-.405.453-.419a4 4 0 0 1 .288-.007c1.604.023 3.145-.275 4.597-.965.8-.381 1.565-.849 1.945-1.692.337-.751.577-1.545.849-2.325l.517-1.585c.235-.651.272-1.383-.281-1.919a3.7 3.7 0 0 0-.984-.663c-.852-.396-1.783-.525-2.704-.551l-5.521-.021-14.937.024c-.348.001-.695.084-1.041.135-.687.101-.977.604-1.167 1.187l-.427 1.469-.369 1.133-.501 1.489-.424 1.421-.817 2.393-.355 1.14-.433 1.464-.828 2.443-.905 2.817c-.116.357-.053.547.308.675.236.084.495.141.745.143l6.099-.003c.685-.007 1.372-.085 2.051-.175a1.06 1.06 0 0 0 .899-.764l.876-2.577.744-2.467.375-1.135.493-1.444.747-2.469.348-1.091.493-1.392.615-1.909c.209-.609.296-.671.92-.675l3.457.015c.756.037 1.536.071 2.221.495.405.252.572.611.436 1.053l-1.08 3.469a1.46 1.46 0 0 1-.973.984c-.575.179-1.183.271-1.783.331-.664.067-1.336.053-2.052.076l-.345 1.051c-.089.367.005.505.355.673.185.091.385.16.548.281 1.203.897 1.703 2.204 1.976 3.601.176.905.204 1.84.325 2.759.027.208.133.427.264.593.289.372.695.527 1.168.559 2.192.151 4.383.1 6.572-.036a2.5 2.5 0 0 0 .567-.096l2.728-.873c.513-.185.995-.46 1.491-.696M122.598 11.477l-.575-.063q-2.09-.002-4.179.008c-.547.003-.598.075-.758.596l-.837 2.543-.397 1.229-.729 2.327c-.244.68-.799 1.065-1.465 1.273a6.6 6.6 0 0 1-2.032.304 500 500 0 0 0-7.348.005c-.515.004-.982-.137-1.441-.316-.592-.229-.849-.927-.645-1.541l.804-2.557.823-2.499.767-2.467.363-1.14 1.159-3.496.756-2.471.627-1.756c.19-.481.632-.728 1.066-.917.494-.216 1.016-.363 1.578-.361l8.309-.005c.485-.003.928.121 1.327.352.454.263.687.547.568 1.153-.116.593-.31 1.171-.485 1.752l-.531 1.637-.806 2.455c-.085.256-.227.504-.013.799.106.012.23.037.353.039l4.034-.007c.191-.001.389-.019.567-.08a.53.53 0 0 0 .304-.264l.687-2.14.745-2.323.496-1.499c.208-.82.731-1.295 1.495-1.604.6-.243 1.207-.283 1.833-.283l7.637-.001c.512 0 1.009.02 1.485.289.599.339.857.936.584 1.571-.213.496-.333 1.031-.499 1.547l-.509 1.545-.393 1.18-1.257 3.916-.759 2.469-.831 2.496-.757 2.471c-.277.965-.88 1.589-1.868 1.78-.577.111-1.171.188-1.757.197l-7.107.044c-.533-.004-1.099-.087-1.593-.279-.836-.325-.995-.839-.727-1.76l.931-2.915.824-2.448c.073-.224.104-.463.176-.787zm1.409-.563-.565 1.895-.824 2.441-.871 2.781c-.112.352-.003.608.359.691.263.06.539.092.808.091l2.352-.051 5.188-.004.957-.049c.424-.052.78-.287.939-.664.272-.645.469-1.32.685-1.987l.427-1.419.828-2.44.745-2.468.351-1.091.824-2.445.748-2.468.379-1.131.259-.967c.057-.328-.093-.557-.411-.668a1.4 1.4 0 0 0-.472-.064c-2.561-.004-5.124-.017-7.685.011-.484.005-.98.141-1.441.303-.224.079-.44.321-.552.545-.184.364-.281.773-.415 1.164l-.507 1.492-.745 2.421-.559 1.723c-.128.44-.276.595-.736.597a1354 1354 0 0 1-6.581-.003c-.163 0-.325-.06-.482-.091-.069-.76.317-1.351.475-1.993.132-.54.341-1.06.509-1.591l.421-1.369.793-2.353c.046-.143.02-.311.027-.449a1.44 1.44 0 0 0-1-.36l-7.926.031c-.39.005-.8.104-1.16.256-.243.103-.501.341-.598.583-.279.692-.482 1.416-.709 2.129l-.433 1.417-.821 2.444-.753 2.464-.819 2.395-.367 1.187-.439 1.464-.806 2.397c-.055.165-.072.345-.09.52-.027.272.063.477.364.521.236.035.475.079.712.08l6.869-.003c.558-.003 1.118-.053 1.675-.1a1.11 1.11 0 0 0 .973-.675c.131-.287.207-.599.31-.899l.832-2.437 1.068-3.468c.142-.46.31-.583.801-.587l1.49-.008 4.995-.005c.221 0 .457-.017.605.263M156.529.201l10.949-.004c.551 0 1.077.067 1.597.264.623.236.921.641.796 1.288-.109.563-.233 1.136-.46 1.657-.32.74-.985 1.099-1.745 1.288-1.007.252-2.036.199-3.057.203l-9.797.005c-.729 0-.825.096-1.017.801a19 19 0 0 1-.511 1.543c-.204.549-.119.707.455.703l3.84-.037 2.064.044c.408.032.821.135 1.207.275.5.183.74.591.672 1.151-.143 1.133-.569 2.024-1.793 2.404-.5.155-.991.24-1.504.241l-5.763.008c-.632.001-.715.093-.899.696l-.847 2.541c-.247.743-.561 1.471-.72 2.231-.323 1.549-1.397 2.087-2.797 2.196-.892.069-1.792.028-2.688.029l-5.716.005a2.6 2.6 0 0 1-1.245-.281c-.655-.336-.881-.903-.644-1.596l.889-2.777.804-2.401.409-1.276.423-1.421 1.271-3.961 1.14-3.4.303-.905c.241-.689.812-1.037 1.448-1.208a7.8 7.8 0 0 1 1.94-.271L156.53.224V.201zm12.205.976-1.163-.12c-7.381-.001-14.761.007-22.143.012-.144 0-.292-.013-.432.011-.391.067-.799.097-1.163.237-.6.231-.664.856-.852 1.367-.181.492-.3 1.008-.463 1.507l-.807 2.399c-.261.817-.495 1.645-.745 2.468a47 47 0 0 1-.371 1.133l-.82 2.444-.756 2.467-.332 1.047-.613 1.959c-.128.447.025.699.488.805.277.064.572.079.859.076l4.609-.044c.912-.008 1.827.027 2.737-.015.437-.021.883-.137 1.299-.284a.94.94 0 0 0 .503-.475c.256-.617.456-1.257.665-1.892.153-.469.281-.945.431-1.416l.569-1.72.539-1.532c.093-.265.289-.363.559-.359.336.005.672 0 1.009-.001h5.859c.556 0 1.093-.107 1.543-.435.503-.368.525-.993.683-1.532.059-.197-.101-.372-.317-.413-.265-.051-.537-.105-.805-.104-.8.003-1.6.045-2.399.049l-4.42.003c-.628-.003-.795-.192-.636-.784.128-.476.315-.936.469-1.404l.452-1.409c.107-.316.212-.637.364-.932.059-.116.232-.204.371-.24.167-.041.349-.015.525-.015l12.104-.015c.321 0 .641-.008.96-.041.541-.056.987-.311 1.201-.817.204-.48.333-.992.475-1.496.033-.113-.015-.249-.036-.488m86.31-1.051 9.031.003 2.401.055c1.379.121 2.712.424 3.86 1.276.427.316.744.715.891 1.216.073.249.065.541.02.8-.065.36-.196.708-.307 1.057l-.92 2.871-1.144 3.452-.772 2.517-.976 2.953c-.237.623-.728 1.08-1.284 1.451-.992.661-2.079 1.079-3.237 1.372-1.427.363-2.875.451-4.328.456l-20.127.021a5.1 5.1 0 0 1-1.321-.175c-1.143-.304-1.213-1.032-.971-1.825l1.251-3.92 1.151-3.447.757-2.471.821-2.449.764-2.467.385-1.183c.253-.6.72-.977 1.32-1.244s1.207-.285 1.831-.285h10.904zM249.1 18.76l8.936-.017c1.355-.009 2.711.067 4.053-.3.945-.259 1.86-.556 2.701-1.049.575-.337 1.071-.78 1.312-1.416l.679-2.091.744-2.471.347-1.091.824-2.443.763-2.513.38-1.131c.104-.365.204-.739.248-1.115.045-.383-.105-.709-.401-.983-.521-.48-1.149-.764-1.816-.917a14 14 0 0 0-3.233-.363l-20.321.029c-.521.001-1.028.061-1.493.288-.217.107-.443.28-.563.483-.165.284-.24.621-.344.939l-.417 1.32-.813 2.395-.749 2.468-.372 1.133-.501 1.493-.428 1.419-.825 2.444-.867 2.732c-.116.359.023.653.391.719.235.04.479.036.719.036l11.049.001"/><path d="m187.528.192 9.076.011c1.369.013 2.699.323 3.917.969.596.317 1.103.768 1.375 1.42.161.388.132.781.009 1.175l-.865 2.736-.831 2.496-.764 2.469-.811 2.452c-.14.424-.319.841-.399 1.277-.281 1.533-1.209 2.523-2.561 3.188-.909.448-1.867.765-2.848.961-.937.187-1.903.319-2.856.323h-17.527c-1.344-.008-2.671-.305-3.877-.943-.535-.281-1.04-.643-1.337-1.201-.316-.593-.229-1.213-.045-1.82l.915-2.871.82-2.449.369-1.137 1.257-3.916.564-1.776c.323-.825.981-1.369 1.719-1.805 1.181-.699 2.469-1.072 3.817-1.323 1.4-.261 2.801-.24 4.209-.244l6.673-.001zm.255.753-7.829.024c-.688.004-1.375.061-2.06.117-.509.041-1.031.06-1.52.191-.843.225-1.685.468-2.465.881-.632.336-1.231.748-1.561 1.372-.317.597-.468 1.283-.685 1.933l-.543 1.679-.428 1.367-.432 1.417-.829 2.492-.749 2.467c-.117.381-.208.776-.381 1.129-.34.695-.099 1.231.405 1.665.681.587 1.517.908 2.392 1.005 1.189.132 2.392.181 3.592.211l2.925-.056 12.105-.023c1.836-.004 3.628-.241 5.289-1.088.655-.335 1.324-.699 1.632-1.411.319-.74.564-1.515.813-2.284l.757-2.516a35 35 0 0 1 .351-1.091l.507-1.44.748-2.465.808-2.399a4 4 0 0 0 .168-.845c.037-.416-.081-.784-.413-1.075a4.23 4.23 0 0 0-2.095-.988 20 20 0 0 0-2.959-.259l-7.543-.012m60.238 15.847.907-2.989.827-2.441.42-1.417.481-1.448.392-1.177.753-2.516.596-1.715a.45.45 0 0 1 .468-.335l2.205-.009a10 10 0 0 1 1.889.284c.817.211 1.507.677 1.815 1.492.124.328.069.759-.011 1.119-.125.572-.335 1.128-.517 1.687l-.825 2.492-.371 1.135-.757 2.516c-.217.625-.356 1.317-.881 1.779-.415.364-.86.721-1.351.967-1.119.56-2.325.757-3.579.695-.592-.029-1.185.004-1.777-.009-.213-.005-.424-.065-.684-.107zm1.523-.748c.124.052.165.084.211.087 1.328.089 2.625-.032 3.823-.657.525-.273 1.015-.633 1.229-1.229l.769-2.26 1.084-3.521.48-1.403.496-1.799a1.06 1.06 0 0 0-.505-1.196c-.343-.208-.7-.383-1.117-.397l-2.06-.092a.61.61 0 0 0-.671.424l-.164.449-.763 2.468-.804 2.405-1.088 3.52-.388 1.181-.473 1.456c-.052.176-.04.369-.059.564m-67.111.875c-.831.056-1.607-.091-2.289-.625-.437-.341-.691-.772-.653-1.312.031-.456.145-.908.259-1.352.099-.384.259-.752.375-1.132l.756-2.513.824-2.489.415-1.369c.225-.717.451-1.437 1.045-1.956a5.01 5.01 0 0 1 4.115-1.252c.637.081 1.201.281 1.684.717.681.615.744 1.375.496 2.141l-.528 1.631-.508 1.541-.451 1.459-.499 1.544-.457 1.455c-.179.509-.333 1.036-.589 1.505-.463.845-1.236 1.331-2.117 1.693-.611.249-1.227.333-1.876.315zm-.037-.668 1.293-.348c1.059-.353 1.756-1.051 2.02-2.161.104-.433.267-.852.405-1.277l.817-2.499.751-2.469.673-2.193a1.3 1.3 0 0 0-.001-.608c-.135-.584-.564-.877-1.117-.975a3.53 3.53 0 0 0-2.369.377c-.597.331-1.123.765-1.36 1.428l-.716 2.281-.407 1.275-.809 2.452-.887 2.777c-.197.579-.143 1.315.641 1.629.332.135.692.204 1.065.311"/><path fill-rule="evenodd" d="M50.871 16.202c-1.781-.001-3.561.001-5.343-.005l-1.208 1.796c-.422.644-1.005 1.052-1.699 1.364s-1.403.385-2.156.384l-7.341-.011a5 5 0 0 1-.491-.02c-1.396-.148-2.008-1.568-1.149-2.681l1.475-1.811L44.205 1.657C45.119.573 46.322.004 47.741.003l10.382.016a10 10 0 0 1 .919.04c1.155.113 1.993.825 2.228 1.972l.49 2.72.404 2.189.286 1.616.358 2.155.426 2.341.274 1.581c.021.176.178.237.33.297.326.131.679.221 1.029.26.806.085.902-.012 1.677-.336l1.43-.596-.196 1.537c-.089.697-.243 1.251-.887 1.645a16.5 16.5 0 0 1-2.977 1.437c-1.453.528-2.947.855-4.497.857-1.332.003-2.664-.005-3.995-.008-.794-.001-1.575-.111-2.316-.404-1.403-.552-2.251-1.523-2.237-3.095l.001-.027zm16.018-.52c-.053.423-.096.768-.465.993a15.5 15.5 0 0 1-2.815 1.36c-1.358.493-2.747.801-4.193.804-2.377.004-1.616-.004-3.993-.008-.681-.001-1.353-.091-1.988-.341-.969-.383-1.68-.988-1.668-2.253l-.011-.889-.443-.041c-1.94-.003-3.878.001-5.817-.007a.72.72 0 0 0-.708.388l-1.218 1.813c-.326.496-.783.799-1.317 1.039-.577.26-1.177.305-1.789.305l-7.34-.011a4 4 0 0 1-.398-.016c-.697-.073-.967-.68-.533-1.241l1.457-1.787L44.891 2.236C45.635 1.352 46.587.9 47.743.899L58.12.915l.835.036c.771.076 1.283.505 1.437 1.259l.486 2.701.404 2.189.284 1.607.358 2.157.426 2.348.267 1.528c.067.556.438.845.888 1.024.401.16.836.272 1.265.317.894.096 1.061.041 2.118-.399zm-19.992-3.111h4.754c.16-.373.137-6.915-.028-7.276l-.346.44-2.555 3.877-1.638 2.488c-.076.115-.105.26-.188.471zm1.538-.897h2.402l.008-.521.018-2.216-.007-.933-1.384 2.103-1.037 1.568"/></g><path fill="#ec1c24" d="M66.888 15.682c-.053.423-.096.768-.465.993a15.5 15.5 0 0 1-2.816 1.36c-1.357.493-2.745.801-4.192.804-2.377.004-1.616-.004-3.993-.008-.681-.001-1.353-.091-1.988-.341-.969-.383-1.68-.988-1.668-2.253l-.011-.891-.443-.04c-1.939-.003-3.878.001-5.817-.007-.321 0-.529.093-.708.388L43.57 17.5c-.326.497-.783.8-1.317 1.04-.577.26-1.177.305-1.789.305l-7.34-.011c-.133 0-.267-.001-.398-.016-.697-.073-.967-.68-.533-1.241l1.457-1.787L44.891 2.236C45.635 1.352 46.587.9 47.743.899L58.12.915a9 9 0 0 1 .835.036c.77.076 1.283.505 1.437 1.259l.486 2.701.404 2.189.284 1.607.358 2.159.426 2.347.267 1.528c.067.557.438.845.888 1.024.401.16.836.272 1.265.317.894.096 1.061.041 2.118-.399zm-19.991-3.111h4.754c.16-.373.137-6.915-.028-7.276l-.346.44-2.555 3.877-1.638 2.487c-.076.116-.105.261-.187.472"/><path fill="#231f20" d="M63.459 31.888c-2.036.748-2.78 1.796-2.86 3.052l-.956.004c.335-1.479 1.335-2.587 3.816-3.056m-2.706 4.535c.381 1.631 1.35 3.496 1.905 5.444l-2.733.012c-.037-1.923-.425-3.821-.426-5.451zm2.272 7.296c.199 2.009-.345 4.055-2.672 5.981h-4.778c2.895-1.685 3.953-3.792 4.253-5.967zm64.39 15.15c-.404-.822-1.264-1.058-2.093-1.058-.983.007-2.064.457-2.064 1.553 0 1.196 1.005 1.485 2.095 1.615.707.076 1.233.282 1.233.784 0 .579-.595.8-1.227.8-.647 0-1.264-.259-1.5-.845l-.837.434c.396.975 1.233 1.31 2.323 1.31 1.187 0 2.239-.51 2.239-1.698 0-1.271-1.036-1.561-2.148-1.698-.639-.076-1.188-.206-1.188-.67 0-.396.357-.708 1.105-.708.579 0 1.08.289 1.263.594zm1.949 4.454v-5.337h-.997v5.337zm4.447-2.028-2.612-3.309h-.813v5.337h1.004v-3.599l2.803 3.599h.624v-5.337h-1.005zm5.94.666c-.351.35-.876.541-1.34.541-1.319 0-1.828-.922-1.835-1.805-.008-.89.547-1.85 1.835-1.85.464 0 .936.16 1.287.503l.669-.647a2.75 2.75 0 0 0-1.956-.815c-1.927 0-2.833 1.416-2.825 2.809.007 1.386.845 2.749 2.825 2.749.769 0 1.477-.251 2.025-.792zm5.223.373h-2.992V61.13h2.887v-.937h-2.887v-1.234h2.992v-.974h-3.989v5.337h3.989zm2.012.99h2.536v-.853h-.74v-4.485h-1.827v.913h.829v3.571h-.799zm6.555-1.682c0 .579-.608.906-1.211.898-.571 0-1.195-.236-1.195-.708h-1.005c0 1.119 1.059 1.577 2.216 1.577 1.096 0 2.192-.556 2.192-1.744v-1.987c0-1.196-1.133-1.782-2.223-1.782-1.073 0-2.208.586-2.208 1.766 0 1.325 1.127 1.775 2.2 1.775.42 0 .997-.198 1.233-.564v.799zm-1.225-2.848c.655 0 1.219.281 1.225.868.008.594-.563.899-1.233.899s-1.203-.312-1.203-.899.579-.868 1.211-.868m4.44 4.53 2.391-4.804-.053-.533h-3.915v.959h2.597l-2.177 4.378zm6.189-1.682c0 .579-.608.906-1.211.898-.571 0-1.195-.236-1.195-.708h-1.005c0 1.119 1.059 1.577 2.216 1.577 1.096 0 2.193-.556 2.193-1.744v-1.987c0-1.196-1.136-1.782-2.224-1.782-1.073 0-2.208.586-2.208 1.766 0 1.325 1.127 1.775 2.2 1.775.42 0 .999-.198 1.233-.564v.799zm-1.225-2.848c.655 0 1.219.281 1.225.868.008.594-.564.899-1.233.899s-1.203-.312-1.203-.899.579-.868 1.211-.868"/><path fill="#ec1c24" d="M2.369 59.704h114.54v1.861H2.369zm167.684 0h114.541v1.861H170.053z"/></svg>