<svg xmlns="http://www.w3.org/2000/svg" viewBox="0 0 136.85 1000"><defs><linearGradient id="b" x2="1" gradientTransform="matrix(10.85 .59875 .59875 -10.85 938.81 2153.6)" gradientUnits="userSpaceOnUse"><stop offset="0" stop-color="#909393"/><stop offset=".09" stop-color="#909393"/><stop offset=".487" stop-color="#bfc0be"/><stop offset=".705" stop-color="#e3e4e1"/><stop offset=".843" stop-color="#e9e9e6"/><stop offset=".984" stop-color="#d9dad7"/><stop offset=".991" stop-color="#e5e5e3"/><stop offset="1" stop-color="#e5e5e3"/></linearGradient><linearGradient id="g" x2="1" gradientTransform="matrix(26.578 1.4666 1.4666 -26.578 928.59 2195.9)" gradientUnits="userSpaceOnUse"><stop offset="0" stop-color="#909393"/><stop offset=".09" stop-color="#909393"/><stop offset=".487" stop-color="#bfc0be"/><stop offset=".705" stop-color="#e3e4e1"/><stop offset=".843" stop-color="#e9e9e6"/><stop offset=".984" stop-color="#d9dad7"/><stop offset=".991" stop-color="#e5e5e3"/><stop offset="1" stop-color="#e5e5e3"/></linearGradient><linearGradient id="i" x2="1" gradientTransform="matrix(31.457 1.7359 1.7359 -31.457 921.71 2276.2)" gradientUnits="userSpaceOnUse"><stop offset="0" stop-color="#909393"/><stop offset=".09" stop-color="#909393"/><stop offset=".487" stop-color="#bfc0be"/><stop offset=".705" stop-color="#e3e4e1"/><stop offset=".843" stop-color="#e9e9e6"/><stop offset=".984" stop-color="#d9dad7"/><stop offset=".991" stop-color="#e5e5e3"/><stop offset="1" stop-color="#e5e5e3"/></linearGradient><clipPath id="a"><path d="m950.93 2131.2-2.711 49.17-10.852-.59 2.711-49.17c.043-.8.617-1.58 1.723-2.14 2.199-1.11 5.633-.93 7.676.41 1.031.67 1.507 1.51 1.453 2.32"/></clipPath><clipPath id="d"><path d="m955.86 2184.8-1.812 32.76-26.574-1.46 1.804-32.73c.106-1.98 1.52-3.88 4.223-5.25 5.371-2.73 13.789-2.28 18.805 1 2.523 1.65 3.691 3.7 3.554 5.68"/></clipPath><clipPath id="h"><path d="m956.46 2218.2-7.102 128.66-31.453-1.74 7.098-128.61c.125-2.33 1.793-4.6 4.996-6.21 6.355-3.22 16.324-2.69 22.258 1.19 2.98 1.95 4.367 4.37 4.203 6.71"/></clipPath></defs><path fill="#797d7e" d="M16.227 174.467-22 152.45"/><path fill="#6c6e6b" d="M136.841 999.997H-.009v-80l29.248 18.518 14.545 8.4L69.226 961.6"/><path fill="#797d7e" d="M29.248 936.157v2.378L0 921.703v-2.397z"/><path fill="#d6d8d5" d="m30.832 935.247-1.584.914L0 919.313v-1.82z"/><path fill="#959796" d="M30.833 937.617v-2.378l-1.585.915v2.378z"/><path fill="#797d7e" d="M69.291 961.607v-2.378l-40.043-23.067v2.378z"/><path fill="#484945" d="m85.861 971.567-19.11 11.035-66.759-38.544 10.763-6.216 5.168-2.984 3.178-1.835z"/><path fill="#3d3330" d="m59.551 956.367-40.445-23.351-1.306.754L.001 923.538v-1.842l29.248 16.836v.002l10.045 5.787 4.5 2.593 15.683 9.053z"/><path fill="#534744" d="M29.248 938.537v-.002z"/><path fill="#443b38" d="m59.471 955.947-5.401-3.111zm-20.179-11.624-10.046-5.787v-.002z"/><path fill="#2a2320" d="m58.821 957.397-41.019-23.629 1.306-.754 40.445 23.351.144.774z"/><path fill="#959796" d="M70.871 960.687v-2.378l-1.585.915v2.378z"/><path fill="#51514d" d="m51.911 955.627-5.168 2.988-35.983-20.779 5.168-2.984zM41.147 961.847l-5.168 2.988-35.983-20.778 5.168-2.984z"/><path fill="#3d3330" d="M5.858 967.997c-.302-.031-.606-.145-.987-.186-.786-.085-1.537-.158-2.31-.366-.374-.101-.76-.228-1.024-.51-1.2-1.286 1.496-2.404 2.298-2.729.432-.175.873-.329 1.318-.47.015.742.038 1.594.038 1.934a1 1 0 0 1-.007.16q0 .03.042.081l-.014.167a.2.2 0 0 0-.059.093c-.02.089-.02.257-.02.257s.136.35.134.54c0 .191.13.782.34.925a.9.9 0 0 0 .25.104m1.263-.443c.003-.092.002-.176.002-.176l-.2-.316c-.104-.272-.248-.609-.255-.677a2.6 2.6 0 0 0-.13-.395.4.4 0 0 0 .054-.05c.014-.019.337-1.662.537-2.768.34-.092.683-.183 1.035-.19h.04q.047 0 .092.002l.018.897.036.021-.002.2-.025.07a1.3 1.3 0 0 0-.021.268c.003.025.231.17.617.227.385.058.928.082 1.29.138.193.03.39.055.568.055.159 0 .303-.02.418-.073.244-.111.287-.308.287-.308l.003-.32s-.038-.166-.188-.179a.4.4 0 0 0-.131-.088c-.044-.017-.724-.139-.873-.196a14 14 0 0 1-.333-.135l.002-.015c.466.22.923.255 1.445.354.977.185 1.657.469 2.152 1.435.481.939.333 1.941-.85 2.1a1.7 1.7 0 0 1-.44.003c-.463-.05-.918-.25-1.364-.412-.336-.121-.706-.22-1.06-.22-.264 0-.52.055-.746.194-.152.094-.284.222-.446.297-.53.241-1.023.084-1.53.257"/><path fill="#241e1a" d="m8.385 963.997-.064.176a1.3 1.3 0 0 0-.02.268c.002.026.23.17.616.228.385.058.928.082 1.29.138.363.056.741.095.986-.018.244-.112.287-.308.287-.308l.003-.32s-.038-.166-.188-.179-2.91.015-2.91.015"/><path fill="#cc9f43" d="M9.799 963.497s.342.145.492.202.83.178.873.196c.044.016.263.12.202.374-.06.254-.31.315-.837.32a10 10 0 0 1-1.491-.118c-.534-.074-.693-.25-.692-.317.001-.069.003-.327.006-.367.003-.041 1.447-.29 1.447-.29"/><g clip-path="url(#a)" transform="matrix(.03528 0 0 -.03528 -22 1040.157)"><path fill="url(#b)" d="m950.93 2131.2-2.711 49.17-10.852-.59 2.711-49.17c.043-.8.617-1.58 1.723-2.14 2.199-1.11 5.633-.93 7.676.41 1.031.67 1.507 1.51 1.453 2.32"/></g><path fill="#848287" d="M11.4 963.317a.3.3 0 0 1-.27.015c-.078-.04-.082-.11-.01-.157a.3.3 0 0 1 .27-.014c.077.039.082.11.01.156"/><path fill="#191b21" d="M13.088 964.467s-.692-.117-.909 0-.38.293-.38.293l-.426.316-.428.417-.406.311-.479.353s-.43.257-.498.373.177.4.177.4l.501.324 1.587.476.906.08 1.25.204s1.397.041 1.519-.19c.122-.23.488-.406.488-.406s.122-.112.475-.164c.352-.053.949-.57.949-.57l.162-.31-.556-.597-.298-.014-.922-.311-1.261-.544-.76-.378z"/><path fill="#282930" d="m12.514 964.867-.018-.005c-.01.069-.016.15.035.196a.2.2 0 0 0 .103.044q.172.04.347.065l-.15.013c.035-.002.056.038.057.073 0 .034-.01.07.002.101.024.07.117.074.18.108l.027.023c.028.05-.07.103-.046.155a1.3 1.3 0 0 0-.396-.126c-.038.035.018.095.013.147l-.016.052c-.014.064.05.115.11.142.058.027.129.056.144.12.052.204-.38.1-.463.076.124.174.274.33.443.46l-.324.217c-.03.02-.063.042-.077.076-.037.088.067.167.155.202.198.078.407.126.619.143.005.11.014.229.082.315.083.106.228.135.36.156l.443.071-.022.122.977-.03a.14.14 0 0 0-.083-.1q.11-.108.232-.207c-.085-.042-.183-.103-.182-.198 0-.061.046-.115.1-.144s.116-.036.177-.043l.302-.037a2.3 2.3 0 0 1-.284-.374l.273-.131a1.17 1.17 0 0 0-.544-.392c.247-.033.497-.065.745-.042.31.03.606.143.897.253.058.022.12.044.179.029s.108-.084.079-.138l-.06-.053a3 3 0 0 0-.271-.139l.078-.067c-.117-.075-.19-.203-.298-.291-.155-.128-.368-.162-.568-.154-.077.003-.155.011-.229-.01-.052-.014-.1-.042-.15-.066a1.8 1.8 0 0 0-.505-.129c.03-.028-.015-.074-.053-.091l-.623-.272c-.033-.014-.068-.03-.084-.062l-.016-.093c-.019-.094-.124-.139-.215-.168-.153-.05-.295-.12-.457-.12a3.5 3.5 0 0 0-.575.042l.098.045c.032.015.067.032.08.064.02.041-.003.09-.034.122-.106.113-.284.107-.438.092q.061.001.122.005a2 2 0 0 1-.278-.047"/><g clip-path="url(#d)" transform="matrix(.03528 0 0 -.03528 -22 1040.157)"><path fill="url(#g)" d="m955.86 2184.8-1.812 32.76-26.574-1.46 1.804-32.73c.106-1.98 1.52-3.88 4.223-5.25 5.371-2.73 13.789-2.28 18.805 1 2.523 1.65 3.691 3.7 3.554 5.68"/></g><path fill="#848287" d="M11.532 962.117a.73.73 0 0 1-.663.036c-.19-.096-.2-.268-.023-.383a.73.73 0 0 1 .663-.036c.19.096.2.268.023.383"/><path fill="#241e1a" d="M5.268 966.037s-.094.042-.115.132c-.02.088-.02.256-.02.256s.136.351.134.541c0 .19.13.781.34.925.211.143.803.226 1.046.132s.4-.182.438-.256.03-.392.03-.392l-.2-.316z"/><path fill="#cc9f43" d="M6.484 965.847s.171.422.183.531.377.914.36 1.029c-.015.114-.115.315-.628.333-.514.019-.848-.125-.923-.322-.075-.196-.161-.71-.175-.82s-.109-.295-.102-.376c.006-.081.033-.37.033-.432.001-.064 1.252.057 1.252.057"/><path fill="#3256a2" d="M9.941 963.707c-.028.116-.447.373-.847.396a1.2 1.2 0 0 1-.437-.065c-.202-.067-.344-.16-.344-.16s-.015-.726-.029-1.48c-.013-.754.063-1.256.068-1.319s-.062-.485-.092-.896a49 49 0 0 1-.065-1.311l-.004-.118s-.582-1.705-.12-2.04c.461-.336 1.208-1.06 1.42-.732.213.327.463 1.351.526 1.812.063.46.21 1.7.23 2.038.018.337-.278 3.76-.306 3.875"/><path fill="#263b74" d="M8.657 964.037c-.202-.067-.344-.16-.344-.16s-.015-.726-.029-1.48l-.002-.176c0-.655.065-1.084.07-1.142v-.008c0-.085-.063-.493-.093-.888a28 28 0 0 1-.04-.726 1 1 0 0 0 .04-.09c.094-.252.301-.64.389-.954l.277.561.385.176-.382.278s-.074 1.173-.045 1.593c.017.232-.061.715-.113 1.442-.033.455.015 1.078-.113 1.574"/><path fill="#3c60ae" d="M8.686 958.217c-.026.333-.311.846-.427 1.154s-.57.808-.643.91c-.071.104-.29 1.501-.335 1.96s-.67 3.675-.69 3.7-.277.287-.736.25a1.1 1.1 0 0 1-.353-.084c-.224-.097-.333-.242-.317-.286.024-.061-.042-2.107-.046-2.978-.004-.87.148-1.829.148-2.25-.001-.422-.406-2.1-.434-2.708-.026-.607.096-1.217.096-1.217s.234-.075.566-.177c.726-.224 1.924-.579 2.19-.564.389.02.857.52.981.784.125.264.026 1.172 0 1.506"/><path fill="#274081" d="M5.502 966.107c-.209-.09-.317-.223-.318-.276q0-.006.002-.01c.003-.009.005-.063.005-.15 0-.497-.048-2.087-.051-2.828v-.036c0-.86.147-1.795.147-2.212v-.002c0-.422-.406-2.1-.433-2.708a4 4 0 0 1-.004-.177c0-.346.04-.674.07-.865q0 .007.003.013c.055.215.052.289.243.362l.168.064c-.036.25-.122.917-.052 1.175.086.32.298 1.451.326 1.862.028.41-.178 1.673-.184 2.339-.004.507.082 2.242.078 3.45"/><path fill="#fab597" d="M10.957 953.357a.7.7 0 0 1-.258.1c-.12.012-.167-.06-.232-.095l-.046-.047c-.166-.207-.632-1.012-.734-1.198-.082-.153.463-.549.761-.75.11-.074.185-.121.185-.121s.652 1.14.715 1.294-.056.623-.391.817"/><g clip-path="url(#h)" transform="matrix(.03528 0 0 -.03528 -22 1040.157)"><path fill="url(#i)" d="m956.46 2218.2-7.102 128.66-31.453-1.74 7.098-128.61c.125-2.33 1.793-4.6 4.996-6.21 6.355-3.22 16.324-2.69 22.258 1.19 2.98 1.95 4.367 4.37 4.203 6.71"/></g><path fill="#a6ac96" d="M11.802 955.897a1.3 1.3 0 0 0-.352.149l-.024.012c-.542.232-1.198.593-1.312.773-.038.059-.028.146.026.234.088.14.291.278.606.247.504-.053.682-.323.799-.606l.025-.06c.196-.457.232-.661.232-.749m-1.15 1.962c-.481 0-.815-.254-.973-.509-.163-.264-.172-.575-.023-.81.258-.406 1.303-.872 1.544-.976.293-.16.709-.34.98-.094.308.278.128.833-.111 1.39l-.022.053c-.086.208-.349.845-1.245.938a2 2 0 0 1-.15.008"/><path fill="#fab597" d="M12.091 956.187zc-.01.04-.019.074-.02.09-.009.064-.087.062-.087.062s-.006.026-.055.087c-.048.06-.094.034-.094.034l-.076.054s-.027.043-.152.08c-.126.038-.11-.066-.11-.066l-.035.003-.057-.01c-.05-.017-.034-.176-.034-.176s-.055-.123-.067-.23c-.011-.106-.225-.426-.225-.426s-.017-.038-.081.004c-.065.043-.206.232-.206.232s-.13-.078-.116-.118.119-.258.119-.258l.03-.03.042-.045.062-.078.019-.067c.013-.074.02-.195.016-.335-.005-.198-.228-.74-.307-.93-.081-.19-.254-.665-.236-.748s.261-.27.35-.44l.053-.089a2 2 0 0 1 .13-.168.32.32 0 0 1 .261-.11c.056.004.11.013.133.032.053.048.178.352.282.87.105.519.134 1.608.179 1.737.044.13.203.176.262.252s.089.429.092.474c.002.032-.044.2-.072.312"/><g fill="#f7916e"><path d="M10.421 953.317c-.104-.13-.326-.494-.503-.794l-.008-.434c.1-.036.208-.08.279-.121.125-.073.274-.193.355-.28-.096.135-.225.309-.304.37-.135.108-.185.144-.185.144l.456.802.313-.217v.001l-.054.09c-.088.17-.331.356-.35.439"/><path d="M10.948 955.327a1.7 1.7 0 0 0 .016-.336c-.005-.197-.227-.738-.307-.928-.077-.18-.237-.619-.237-.733v-.016c.019-.082.262-.27.35-.44l.054-.089c-.01.025-.175.42-.181.499a.7.7 0 0 0 .056.173c.108.267.33.762.359 1.002.038.32.07.604.048.657-.014.033-.094.121-.158.211M10.631 951.567q.016-.026.035-.053z"/></g><path fill="#f14636" d="M9.663 952.177s.362-.108.526-.204.368-.27.408-.348c.04-.079.246-.355.247-.375s-.555-.976-.715-1.28c-.16-.306-.569-.896-.914-1.092-.345-.198-.283.657-.227 1.076s.675 2.223.675 2.223"/><path fill="#ee2730" d="M9.538 955.397c-.019.23.193.756.202.805.01.048-.172.367-.243.409a2 2 0 0 0-.186.178c-.172.177-.407.425-.491.476a1.5 1.5 0 0 1-.278.114 4.2 4.2 0 0 1-1.945.127 6 6 0 0 1-1.226-.319l-.023-.01c-.359-.144-.377-.272-.373-.328.008-.102.036-.542.042-.71a.46.46 0 0 0-.054-.216c.002-.174-.005-.348-.003-.522l.008-.092c.007-.088.091-.3.189-.502.097-.204.005-.666 0-.952q0-.038-.007-.113c-.017-.214-.063-.64-.116-1.113l-.004-.034-.067-.603a55 55 0 0 1-.132-1.257c-.049-.596.11-.882.252-1.049.142-.165.518-.455.947-.803.429-.347.702-.366.702-.366s1.343.228 1.485.205c.143-.022.715.016.998.147.224.256.542 1.07.644 1.58.102.512.04 1.48-.037 1.671-.057.145-.1.627-.131 1.123l-.029.477c-.035.623-.107 1.446-.125 1.676"/><path fill="#3c60ae" d="M9.692 955.207c-.039.265-.076.544.02.793.027.073.066.143.073.22.01.12-.057.233-.126.335a4 4 0 0 1-.175.24 2 2 0 0 1-.267.28c-.177.151-.383.26-.595.358q-.085.04-.172.078c-.13.058-.261.117-.4.146-.171.037-.348.027-.524.027q-.13 0-.26.004c-.209.005-.417.01-.623-.016a3.6 3.6 0 0 1-.65-.162 16 16 0 0 1-.643-.224q-.093-.034-.184-.069c-.19-.073-.188-.146-.243-.362-.04-.163-.015-.335.01-.501q.032-.211.03-.424c.003-.174-.004-.348-.002-.521q-.002-.227.03-.452c.06-.389.12-.782.092-1.175-.003-.032.03-.037.067-.033.039.004.084.016.108.018l.262.025.534.053c.212.021.381.027.516.013a.8.8 0 0 0 .233-.055.4.4 0 0 0 .16-.118c.13-.166-.025-.76.722-.759.339 0 .693-.15 1.022-.228q.202-.048.4-.107c.105-.032.21-.087.32-.085l.026.005.023.031c.025.052.065.096.09.148.05.104.02.318.013.434-.003.048.003.108.048.124l.065.002.054.014.018.045.037.212v.922q-.054.382-.11.763"/><path fill="#4a70c0" d="M7.464 953.597s-.08.92-.01 1.007c.037.046.914.307.914.307l.629-.582c.053-.05.13-1.077.095-1.156-.035-.08-1.632.223-1.628.424"/><path fill="#688dd0" d="M7.654 953.417s-.22.071-.233.156c-.011.085-.007.224.025.275.032.05.893.12.915.1.02-.02.75-.41.755-.487.006-.076.054-.326.017-.34s-.438.036-1.479.296"/><path fill="#4a70c0" d="M9.348 952.857s.375-2.52-.184-3.45c-.56-.929-1.393-1.16-1.393-1.16l-.359.265s.84.316 1.269.932c.516.742.21 3.487.21 3.487z"/><path fill="#f5782d" d="M9.311 952.587c-.004.076-.072.145-.15.155-.08.01-.141-.045-.137-.12a.174.174 0 0 1 .15-.154c.08-.01.141.043.137.119"/><path fill="#acd91e" d="M8.855 949.517c.173.712-.182.95-.194 1.12-.015.174-.108 4.643-.102 4.862.006.218 1.037.148 1.242-.272a1 1 0 0 0 .031-.097c.024-.104.042-.262.057-.454.076-1.074.004-3.232.004-3.232s-.217-1.534-.447-2.052c-.213-.475-.39-.612-.418-.63l-.004-.005-.602-.2-.1-.034-.105.205s.465.076.638.79"/><path fill="#8fc0d1" d="M8.406 948.577c.034.025.494.363.583 1.174l.012.132c.016.202.023.424-.045.62-.047.135-.163.22-.165.376q-.012.915-.021 1.832l-.011 1.232q-.003.376-.002.753-.002.2.007.397c.002.053 0 .11.015.162l.023.05c.05.065.125.074.167.074h.025c.15-.008.507-.085.838-.254.023-.103.042-.262.057-.454-.24.18-.578.285-.772.325-.004-.373 0-.747.002-1.121l.015-1.671.008-.679.004-.327.002-.163c0-.053-.004-.123.018-.173l.054-.077a.8.8 0 0 0 .085-.195c.07-.233.071-.484.054-.724l-.015-.155a2.3 2.3 0 0 0-.32-.959l-.602-.2z"/><path fill="#4a70c0" d="M7.75 953.257s.184-2.238-.375-3.167a2.75 2.75 0 0 0-1.099-1.039c-.176-.09-.447-.023-.447-.023l-.133.085-.185.186s.273-.045.49.075c.278.154.65.406.89.752.517.743.402 3.205.402 3.205z"/><path fill="#f5782d" d="M7.7 952.967a.174.174 0 0 1-.15.154c-.08.01-.141-.043-.137-.12.004-.075.071-.144.15-.154.08-.01.141.044.137.12"/><path fill="#acd91e" d="M5.041 954.097c-.017.306-.027.56-.019.66.025.33.654.362 1.364.577.709.215 1.522.279 1.61-.327.087-.608.22-3.044.19-3.755-.03-.712-.27-.942-.629-1.275-.36-.336-.952-.494-1.176-.775-.223-.28 0-.46 0-.46s.638-.57.013-.157q-.152.102-.314.222-.144.106-.288.217c-.468.361-.89.727-.89.727s.289 2.503.27 2.607c-.008.059-.063.717-.106 1.336z"/><path fill="#8fc0d1" d="M5.041 954.097c1.165.67 2.434.768 2.504.773l.173.012.016-.175c.013-.114.283-2.814.224-3.47-.063-.701-.53-1.307-1.281-1.662-.549-.26-.55-.745-.55-.766l-.048-.002q-.143.106-.287.217c.057.245.224.636.73.874.634.302 1.027.8 1.077 1.37.049.53-.143 2.598-.204 3.224-.4-.053-1.427-.237-2.329-.798z"/><path fill="#263b74" d="m8.744 957.497-.004-.002.005-.128c.168-.083.33-.177.471-.299q.095-.081.177-.174l.189.237a1 1 0 0 0 .097.217l.014.021z"/><path fill="#274081" d="m8.74 957.497-.118-.07.123-.058q-.001.063-.005.128"/><path fill="#46617b" d="m9.693 957.377-.014-.021a1 1 0 0 1-.097-.217l.182.228z"/><path fill="#274081" d="m8.622 957.427-.08-.047-.571-.337-.62-.233-.732-.268-.619-.204-.64-.222s-.026.255.075.394c.101.137-.008.295-.04.435-.018.08-.013.163-.024.243l-.022.093-.015-.006q-.084-.03-.168-.064c-.19-.073-.188-.146-.243-.362q0-.007-.003-.013a.8.8 0 0 1-.018-.177c0-.104.015-.209.031-.311a3 3 0 0 0 .031-.497q-.001-.192-.003-.383v-.065q-.002-.228.031-.452l.03-.2v.001c.011.138.127.223.31.292a.3.3 0 0 0 .04.066c.073.197.772.557 1.75.839.977.28 1.742.32 1.875.446l.315.395.083.105q-.082.092-.177.174a2.3 2.3 0 0 1-.472.298zm-.062-2.09c-.191-.087-.39-.179-.578-.267a1 1 0 0 0 .014-.069l.009-.068c.152.062.367.165.557.259z"/><path fill="#4b9735" d="M9.066 955.567c-.15-.065-.324-.142-.505-.224q0-.062.002-.145l.251.127a.2.2 0 0 0 .112.057l.054.028z"/><path fill="#466daa" d="M8.925 955.377a.2.2 0 0 1-.112-.057z"/><path fill="#5b0f1c" d="m5.051 952.777-.016-.148-.004-.035-.068-.603q.085-.062.172-.113c.026.26.041.446.036.472-.004.026-.016.165-.032.365a1 1 0 0 0-.088.062"/><path fill="#4b9735" d="M7.982 955.077a21 21 0 0 1-.425-.205l.16.012.006-.061q.08.046.155.07.05.015.127.046l-.01.07zm-2.651-.026c-.183-.069-.299-.155-.31-.292v-.002c.024-.163.046-.328.058-.492.068.321.185.647.252.786m1.969-.571a7 7 0 0 1-.61-.122c-.13-.082-.25-.156-.306-.188.029-.123.05-.23.06-.297a5 5 0 0 0 .033-.61c.263-.834-.43-.856-.502-.856H5.97l-.12.046a2.5 2.5 0 0 0-.703.267q-.004 0-.007.004c.016-.2.029-.339.033-.365a5 5 0 0 0-.037-.472c.198-.115.4-.185.602-.185.275 0 .547.129.802.446l.089 1 .332-.097-.157.753-.015.073-.011.311.521.29z"/><path fill="#466daa" d="m7.717 954.877-.16-.012a5 5 0 0 1-.381-.204l-.486-.31c.245.061.456.1.61.122.02.02.22.224.423.343z"/><path fill="#fab597" d="M6.444 953.867c-.01.067-.031.174-.06.297-.075.323-.207.755-.352.843-.092.055-.23.089-.356.107-.148.02-.28.017-.305-.003-.044-.038-.214-.468-.298-.882-.083-.413-.194-.905-.168-1.23.009-.106.107-.202.24-.285.23-.142.561-.24.704-.267l.059-.007c.108.002.57.772.57.772v.044c-.001.112-.004.416-.034.61"/><path fill="#fab597" d="M11.15 956.297c-.002.027-.03.218-.05.312l-.01.037c-.018.062-.098.105-.098.105s-.115.127-.162.16c-.049.032-.109.046-.109.046s-.058.054-.133.085c-.075.03-.073-.051-.073-.051s-.025.025-.072.048l-.051.01c-.033 0-.066-.013-.089-.02-.035-.012-.038-.153-.038-.153l-.154-.22-.054-.077s-.115-.037-.186-.047c-.037-.005-.095.017-.163.04a.6.6 0 0 1-.211.041.86.86 0 0 1-.5-.216c-.133-.126-.898-.166-1.876-.447-.978-.28-1.677-.642-1.75-.838a.4.4 0 0 1-.001-.266 1 1 0 0 1 .223-.349c.19-.203.691-.354.691-.354l.068.005.032.016c.154.088.793.498.793.498.363.232 2.262 1.083 2.37 1.092.108.008.28-.056.428-.08.147-.025.442-.033.57.013.128.047.377.225.45.28.072.056.157.298.155.33"/><path fill="#fddf86" d="m10.824 955.517.043-.045z"/><path fill="#f7916e" d="M11.558 956.607c-.056 0-.063-.044-.062-.065v-.01l-.035.003.138-.277-.081-.523-.056-.236.175.658-.022.284.057.068.083-.07.077-.398-.063-.418.11.453-.07.303s.01.002.024.002c.032 0 .09-.013.102-.1.02-.126.022-.28.022-.28l-.042-.38.088.438-.016.203.103-.07c-.01.04-.018.073-.02.09-.008.059-.074.061-.085.061h-.002s-.006.027-.054.088c-.026.031-.05.039-.068.039-.016 0-.027-.006-.027-.006l-.075.055s-.028.042-.153.08l-.016.004z"/><path fill="#46772d" d="M6.477 953.257v-.044s-.461-.77-.57-.772l-.058.007.12-.046h.006c.073 0 .764.022.502.855"/><path fill="#f7916e" d="M5.371 955.117a.2.2 0 0 1-.04-.066 4 4 0 0 1-.258-.816c-.075-.373-.172-.81-.172-1.13q0-.052.004-.1c.01-.106.108-.203.24-.286h.001l.703-.267.059-.007c.109.002.57.773.57.773v.044l-.033.093s-1.038-.088-1.257-.088q-.032 0-.039.003c-.043.022-.053.264-.027.352.022.074.144.92.248 1.228a.4.4 0 0 0 0 .267"/><path fill="#f7916e" d="m10.111 956.657-.054-.077s-.115-.036-.187-.046l-.01-.001c-.037 0-.09.02-.152.041a.7.7 0 0 1-.2.041h-.011a.86.86 0 0 1-.5-.216c-.134-.126-.899-.166-1.876-.447-.978-.28-1.677-.642-1.75-.838a.4.4 0 0 1-.001-.266q.029.087.055.107c.04.027.12.085.251.162.23.135.611.327 1.178.515.888.295 2.2.636 2.227.651s.206.234.286.255a.3.3 0 0 0 .068.006c.085 0 .199-.021.283-.04.05-.012.129-.04.203-.04.09 0 .172.04.19.193"/><path fill="#fddf86" d="m10.392 957.047.123-.06s-.025.026-.072.05z"/><path fill="#f7916e" d="M10.558 957.047c-.042 0-.043-.051-.043-.057l-.025-.252-.188-.328.234.301.026.24.124-.028.06-.063-.026-.407-.333-.352.353.306.075.39s.072-.004.1-.087c.026-.083-.017-.522-.017-.522l-.359-.246.42.234s.011.474.048.477h.002c.018 0 .056-.022.09-.046l-.008.038c-.019.061-.1.105-.1.105s-.114.127-.161.16c-.048.032-.108.046-.108.046s-.059.054-.134.084a.1.1 0 0 1-.03.007"/><path fill="#f14636" d="M6.567 950.627s-.002 1.414-.04 1.636-.026 1.113-.026 1.113-.667-.256-.926-.256c-.258 0-.692.068-.692.068l-.25.041s.021-.678.061-1.532-.04-1.284.264-1.75c.303-.465.801-.458.919-.401s.697.246.69 1.081"/><path fill="#fab597" d="M8.291 949.467c-.082.18-.293.39-.983.168s-1.11-.708-1.083-.766c.027-.056.344-.218.475-.529.13-.312.065-.34.083-.574q.006-.07.007-.185c.004-.3-.01-.75-.01-.75s.377-.287.68-.562c.302-.276.782.197.782.197l-.024 2.256s.155.566.073.745"/><path fill="#ee242b" d="M8.544 949.747c-.095 0-.199-.03-.293-.036a.4.4 0 0 1-.143-.04.4.4 0 0 0 .182-.202.3.3 0 0 0 .02-.08c.159 0 .222-.037.269-.08q.054.064.102.133a1 1 0 0 1 .091.17c-.055.107-.137.135-.228.135"/><path fill="#42619d" d="M8.773 949.617a1 1 0 0 0-.092-.17 2 2 0 0 0-.102-.134l.016-.015c.02-.02.06-.09.106-.175q.076.125.132.31a1 1 0 0 1-.06.184"/><path fill="#aada2d" d="M8.832 949.427a1.4 1.4 0 0 0-.132-.309l.06-.113q.05.09.095.2a1.2 1.2 0 0 1-.023.222"/><path fill="#889894" d="M8.855 949.207a2 2 0 0 0-.095-.2l.028-.056.051.027s.018.096.016.229"/><path fill="#f7916e" d="M8.108 949.667c-.19-.087-.427-.292-.58-.448-.19-.195-.355-.679-.362-.698a1 1 0 0 0 .063.096c.156.207.685.743.96.765q.064.005.114.005h.008a.3.3 0 0 1-.02.08.4.4 0 0 1-.183.2"/><path fill="#fab597" d="M9.279 946.417s.132.224.097.665c-.034.442-.082.647-.135.774s-.245.715-.307.82c-.063.103-.28.562-.34.62-.059.06-.13.113-.406.091-.275-.021-.804-.557-.96-.764-.156-.208-.159-.403-.144-.479s-.281-.453-.267-.692c.014-.24.154-1.444.821-1.504s1.641.47 1.641.47"/><path fill="#f7916e" d="M6.225 948.877c.027-.056.344-.218.475-.529a.8.8 0 0 0 .084-.335c0-.047-.004-.091-.004-.149q-.001-.039.004-.09c.004-.046.006-.111.007-.185q.026.006.05.019c.03.099.084.204.134.297-.002.005-.131.426-.24.62-.112.195-.51.352-.51.352"/><path fill="#f7916e" d="M6.974 947.897a1.7 1.7 0 0 1-.134-.297c.08.041.134.131.134.297"/><path fill="#3d1d21" d="M7.896 947.107s-.185.221-.189.266-.05.187-.05.187l-.21.062c-.014.015-.12.143-.123.188l-.015.194-.133-.16s.14-.515-.15-.51c-.29.004-.122.433-.122.433l-.124.041s-.14-.129-.14-.696c-.001-.567-.016-.89.122-1.214.14-.325.434-.501.854-.595s1.149.158 1.42.461c.27.302.398.815.408.97s-.078.466-.078.466-.078-.142-.116-.123c-.038.02-.214.174-.571.169-.358-.006-.688-.195-.783-.139"/><g fill="#fbc6ae"><path d="M7.138 947.527s-.09-.248-.248-.302c-.16-.053-.253.017-.229.222.025.205.187.545.283.558s.15-.017.154-.097c.003-.081.077-.298.04-.381M8.931 947.297s-.032.229-.03.392c0 .163-.028.27-.028.27s-.338-.04-.528-.042c-.19 0-.399-.031-.436.007s-.107.155-.107.155.265.34.366.362.14.01.14.01-.142.287-.325.264c-.183-.024-.426-.288-.502-.457-.075-.17-.025-.363-.022-.403s.248-.266.276-.285l.101-.274.167-.133s.307.092.475.112.453.022.453.022"/><path d="m8.756 947.837-.041.524-.173.16c-.002.03.092.132.172.156s.148.053.15-.015.001-.67.01-.707c.007-.036-.118-.118-.118-.118"/></g><path fill="#7c4523" d="m114.051 987.477-1.268-.732c.489-.121.674-.43.684-.458.012-.032.321-.395.455-.467a.95.95 0 0 0 .29-.3c.002-.02-.023-.178-.032-.295a.16.16 0 0 0-.043-.098c-.02-.074-.075-.172-.097-.234l-.018-.05.015-.01a.36.36 0 0 0 .175-.317v-.022q-.002-.053-.002-.122 0-.14.007-.342c1.566.572 2.057 1.76 1.084 2.712-.316.31-.75.557-1.25.735m-2.33-1.346-2.565-1.481q-.005-.08-.012-.154.045-.019.064-.029c.1-.05.157-.097.157-.097s.009-.252.035-.635c.408.033.81.108 1.189.227a6 6 0 0 1 1.946-.244c.063.559.11.98.154 1.098l.018.043a3.2 3.2 0 0 1-.555.682c-.279.255-.394.448-.432.59"/><path fill="#3d3330" d="M112.101 987.797c-.58 0-1.163-.08-1.699-.248a6 6 0 0 1-1.73.248 5.7 5.7 0 0 1-1.716-.254c-1.415-.451-2.044-1.38-1.647-2.247l-1.109.385.584.527c.144.128.007.338-.248.39 0 0-1.747.423-2.33.466a6 6 0 0 1-.46.018c-.288 0-.52-.024-.71-.062a2 2 0 0 1-.54-.186.34.34 0 0 1-.16-.277q.093.01.2.01c.286 0 .641-.06 1.099-.233.518-.195 1.945-1.139 1.945-1.139l.046-.031.174.156.927-.352h.034l1.196-.424c.45-.333 1.05-.575 1.709-.709l-.002.607s.004.05.06.107a1 1 0 0 1-.254.119c-.253.063-.869.222-1.044.315-.175.094-.431.266-.44.38-.01.166.146.462.56.462a1 1 0 0 0 .081-.004c.474-.041.915-.184 1.204-.351.287-.167 1.045-.08 1.205-.167.159-.086.152-.208.139-.4-.004-.064-.01-.158-.018-.254l2.565 1.481-.007.03c-.11.088-.065.351-.065.351s.095.282.705.282q.058 0 .123-.004.17-.01.307-.046l1.268.732c-.588.21-1.267.321-1.952.321"/><path fill="#fab494" d="M106.771 978.977s.055.42-.009.923c-.008.064.955-.594.958-.692a12 12 0 0 0-.057-.637l-.48-.004-.274.066z"/><path fill="#f14436" d="M106.831 978.617s.017.037.142.07c.068.017.168.033.315.042q.16.008.266.009c.207 0 .278-.015.278-.015s.321-2.121.331-2.452.043-1.15-.219-2.01c-.061-.2-.12-.463-.174-.748-.178-.936-.306-2.112-.306-2.112l-.204-.391s-.518.04-.805.563a.9.9 0 0 0-.087.397v.001c-.018.65.325 1.673.372 2.217.058.675-.079 1.534-.034 1.943s.125 2.486.125 2.486"/><path fill="#b22622" d="M107.581 978.737h-.024c.035-.333.12-1.08.22-1.512.132-.566.271-1.543.144-2.05a8 8 0 0 0-.306-.951q.076.107.15.203c.144.191.25.355.335.5.06.38.073.725.073.988 0 .147-.004.268-.007.355-.01.33-.33 2.451-.33 2.451s-.066.016-.255.016m0-4.56c-.14-.185-.724-.964-.809-1.265l-.005-.02q.076.144.18.283l.06.08c.173.323.38.645.575.922M106.971 978.687c-.125-.032-.142-.07-.142-.07s-.08-2.076-.125-2.485a2 2 0 0 1-.009-.207c0-.354.057-.87.058-1.355 0-.13-.004-.26-.015-.382-.045-.53-.372-1.514-.372-2.166v-.05c.014.057.478 1.993.489 2.093.01.101.18.809.14 1.11-.027.214.056.245.105.245.02 0 .035-.005.035-.005l-.263.264s.132 2.102.152 2.284c.01.09-.02.417-.053.724"/><path fill="#302a26" d="M109.031 984.787s.167.048.195.224.01.367.009.42-.057.215-.545.207-.477-.108-.73-.044c-.255.064-.268.239-.584.328-.315.088-.965.108-1.16.022a.375.375 0 0 1-.24-.37c.012-.11-.06-.335.266-.412.327-.076 1.235-.19 1.235-.19z"/><path fill="#da9c3a" d="M108.051 984.297s-.33.31-.585.374c-.254.063-.87.222-1.044.315s-.431.266-.44.38c-.012.176.167.5.64.458.475-.041.916-.184 1.205-.35.287-.168 1.045-.082 1.205-.168.159-.086.151-.208.139-.4a16 16 0 0 0-.051-.645z"/><path fill="#3256a0" d="M107.661 984.447s.012.15.287.22v.002q.074.018.176.03c.173.018.678-.075.801-.115.06-.019.24-.09.282-.112.1-.05.156-.098.156-.098s.036-1.013.179-2.076c.142-1.063.113-1.694.12-2.121a.4.4 0 0 0-.106-.247c-.266-.306-1.186-.586-1.327-.59-.132-.006-.34-.148-.453.149-.028.073-.05.175-.061.316l-.01.128c-.035.844-.044 4.513-.044 4.513"/><path fill="#3256a0" d="M107.801 979.807s.267.444.624.494c.224.032.731.083.942.028a.7.7 0 0 0 .301-.15c.19-.185 1.454-1.729 1.454-1.729s.994-1.218 1.126-1.449l.015-.03c.018-.107-1.042-1.352-1.773-1.376-.731-.025-1.024.507-1.24.828-.217.321-1.417 2.855-1.466 3.064l-.001.003c-.048.206.018.317.018.317"/><path fill="#403222" d="M109.661 980.857c.006-.277.003-.498.006-.682-.003.184 0 .405-.006.682"/><path fill="#263a72" d="M109.211 984.467c.045-.579-.025-1.34.055-1.817.152-.902.135-1.612.11-1.735a9 9 0 0 1-.048-.584l.037-.008a.7.7 0 0 0 .301-.15l.001-.002v.001c-.003.184 0 .405-.006.682-.008.368-.034.833-.115 1.44-.142 1.063-.178 2.076-.178 2.076s-.057.047-.157.097"/><path fill="#263a72" d="M109.331 980.337c-.007-.109-.01-.189-.01-.189.051-.075.356-.37.43-.456.345-.393.653-1.104.85-1.63l.021-.026a3 3 0 0 0 .186.02h.014l.088.005a.25.25 0 0 0 .126.034c.046 0 .09-.012.13-.027h.03l.173-.002.006.026.008.035c-.152.189-.262.323-.262.323s-.502.614-.92 1.114c-.245.292-.461.545-.532.614a.7.7 0 0 1-.338.16"/><path fill="#947934" d="M107.951 984.667v-.001"/><path fill="#27498f" d="M107.951 984.667v-.001a.6.6 0 0 1-.172-.07c-.109-.071-.116-.15-.116-.15s.01-3.67.046-4.515l.002-.043.044-.038c.053.06.12.118.204.164.055.06.123.124.2.176-.02.148-.049.54-.074.83-.033.364-.177 2.829-.15 2.951.022.106.035.477.016.696"/><path fill="#27498f" d="M108.161 980.187a1.2 1.2 0 0 1-.2-.176h.001l.23.127-.01-.005-.01-.005q-.005.005-.012.059"/><path fill="#302a26" d="M114.061 985.077s.114.03.124.148.034.276.032.295a.95.95 0 0 1-.29.3c-.134.072-.443.436-.455.467s-.271.464-.991.503c-.72.041-.828-.277-.828-.277s-.044-.264.065-.352c.109-.09 1.44-.574 1.44-.574z"/><path fill="#da9c3a" d="M112.821 984.657s-.227.485-.67.89-.473.653-.435.79c.038.139.257.352.676.31s.736-.229.93-.42c.194-.189.386-.432.576-.66s.216-.127.246-.376c.01-.071-.076-.211-.105-.293-.07-.202-.144-.34-.144-.34z"/><path fill="#3c60ac" d="M110.791 977.947c.208.268.407.077.522.058l.05.036s.274 1.167.68 2.636c.405 1.47.536 3.833.65 4.138.054.14.124.2.217.218.108.023.295.03.474 0 .17-.029.542-.123.659-.2a.36.36 0 0 0 .174-.34c-.015-.324.046-1.148.032-2.21-.013-1.061-.318-1.51-.325-1.67-.007-.163.08-3.016.027-3.88s-.438-1.199-.438-1.199l-.231.053c-.691.16-2.701.64-2.697.767.004.153-.043 1.272.206 1.593"/><path fill="#1e284e" d="M111.371 978.087"/><path fill="#263f7d" d="M112.911 985.037c-.093-.018-.163-.078-.216-.218-.115-.305-.246-2.67-.651-4.138a82 82 0 0 1-.675-2.618l.046-.001c.21.357.53 1.77.605 2.126.083.394.274.88.398 1.633.027.166.336 1.302.356 1.532.044.509.018 1.185.137 1.684M114.041 984.837c-.026-.27.007-1.005.021-1.532.022-.853-.086-1.86-.297-2.62-.091-.673-.051-1.325 0-1.985.023-.307.045-.708.057-1.085l.056-.02.012-.03c.016-.04.045-.12.076-.225v.281c0 1.116-.044 2.695-.044 2.963v.032c.007.162.312.61.325 1.671a18 18 0 0 1 0 .663c-.008.635-.035 1.137-.035 1.426l.002.121v.023a.36.36 0 0 1-.174.317"/><path fill="#ee2630" d="M108.491 970.037s.72.06 1.503.35 1.026.34 1.304.778c.278.437 1.017 2.435 1.34 2.936.323.502 1.035 1.337 1.118 1.466s.206.507.218.614c.011.105.235.655-.44 1.143-.676.488-1.278.73-2.728.727-.837-.078-1.283-.727-1.296-.772-.012-.044-.38-.51-.384-.504-.004.005.103-.669-.034-.907s-.314-.31-.393-.41c-.08-.098-.319-.317-.39-.678-.53-.517-.959-1.069-1.363-1.607a2.13 2.13 0 0 1-.383-1.684c.3-1.496 1.928-1.452 1.928-1.452"/><path fill="#3c60ac" d="M106.761 971.897c.2.41 1.471 2.21 1.471 2.21s-.19.544-.064.651c.126.11.605.966.74 1.01.138.046.155.874.155.874s.185 1.305 1.739 1.407 3.072-.458 3.072-.458l.012-.03c.045-.117.206-.566.192-1.038-.019-.548-.294-1.14-.318-1.198s-1.523-1.753-1.523-1.753l-.024.076-.258.816s-.871.531-1.296 0c-.427-.536-.894-1.765-.878-2.714s.878-1.113.878-1.113l-.669-.251s-.712.415-.754 1.482.797 2.551.797 2.551l-1.241-.377s-1.281-1.73-1.328-2.23c-.048-.503.253-.843.253-.843l-.465-.223s-.693.743-.491 1.151"/><path fill="#f5782d" d="M108.251 974.027c-.012.086.05.179.138.207.087.028.168-.02.18-.106a.2.2 0 0 0-.139-.207c-.088-.028-.168.02-.179.106M110.151 974.377a.2.2 0 0 0 .138.207c.088.027.168-.02.18-.106a.2.2 0 0 0-.138-.207c-.088-.028-.169.02-.18.106"/><path fill="#263f7d" d="M113.821 977.617s.064-.655 0-1.21c-.061-.553-.429-1.136-.48-1.196a3 3 0 0 0-.164-.15l.1-.088a.4.4 0 0 0 .088-.114c.223.256.391.454.4.473.023.057.298.65.317 1.198l.001.061c0 .45-.15.865-.193.976z"/><path fill="#263f7d" d="M113.761 977.127s-.264-.071-.61-.091-.894-.583-.894-.583l.752.255z"/><path fill="#4a70c0" d="M110.321 974.977s.36.92.318 1.004c-.023.045-.807.263-.807.263l-.798-.611c-.067-.052-.456-1.079-.446-1.156s1.675.3 1.733.5"/><path fill="#688dd0" d="M110.081 974.787s.239.082.277.167c.037.085.075.224.059.272s-.843.078-.87.057c-.027-.022-.864-.445-.893-.522-.029-.076-.153-.328-.12-.34.032-.012.442.057 1.547.366"/><path fill="#502818" d="m112.811 974.477-9.906 8.803-.6 1.385 10.97-9.697a.4.4 0 0 0 .127-.234v-.006a.296.296 0 0 0-.287-.348l-.04-.001a.38.38 0 0 0-.264.099"/><path fill="#823f21" d="m109.121 977.847-6.037 5.366-.367.844 6.687-5.911a.24.24 0 0 0 .077-.142V978a.18.18 0 0 0-.175-.213h-.025a.23.23 0 0 0-.16.06"/><path fill="#fab494" d="M106.771 978.977s-.112.152-.132.294-.038.232-.078.334c-.051.13-.163.496-.159.555s0 .204.078.279c.077.075.201-.124.195-.138l-.015-.249.389-.58s-.237-.49-.278-.495"/><path fill="#acd91e" d="M109.431 970.297s.267.243-.164.89-.578.823-.571 1.22 1.323 4.138 1.616 4.25c.294.111 1.522.14 2.198-.5s.492-1.705.492-1.705-.638-1.25-1.057-2.265c-.42-1.014-.941-1.522-.941-1.522s-2.004-.75-2.534-.661c.09.141.167.141.3.14.137 0 .333 0 .661.153"/><path fill="#1e262f" d="M109.571 977.357c-.04-.045-.064-.076-.064-.076l-.244-.333.507-.14.347-.413c.082.154.148.25.191.267h.003l-.073.103z"/><path fill="#371412" d="m109.701 977.497-.128-.143.667-.593c-.27.372-.493.674-.539.736"/><path fill="#7b711c" d="m110.311 976.667-.003-.001c-.043-.016-.11-.113-.19-.267l.021-.026s.782-1.304.773-1.388-.211-.606-.213-.628l-.14-.764q.118.268.248.492c.33.57.573 1.033.573 1.033-.09.185-.625.936-1.07 1.55"/><g fill="#fab494"><path d="m108.451 978.137.074.055c.068.027.147.023.147.023s.34-.062.413.084c.072.144-.17.6-.17.6l-.15.456-.073.085s.03.016.072.03h.003l.085.019c.082.006.244-.098.244-.098l.117-.197s-.023.064.189.04c.212-.022.257-.13.257-.13s.13-.024.176-.116l.043-.063c.087-.11.26-.282.306-.389.056-.13.401-.641.401-.641l-.698-.303s-.107.105-.183.148c-.077.044-.687.075-.687.075l-.433.108s-.041.028-.08.066c-.043.044-.084.102-.053.148M107.631 979.897s-.024-.099.024-.171.14-.084.198.024.119.172.049.22c-.071.048-.25.073-.25.073s.07.076-.04.172c-.108.095-.226.093-.226.093s-.007.14-.135.209c-.127.069-.255-.096-.255-.096s-.016-.116.076-.137l.227-.056s-.016-.176.06-.225c.077-.049.223-.018.223-.018zM106.781 980.447s.13-.102.181-.054c.05.05.047.16.047.16s-.065.18-.117.182l-.145-.001.03-.14zM108.291 969.357s.13.405.34.633c.209.227.623.141.723.402.1.26-.33 1.048-.872 1.326-.542.28-.718-.115-.89-.429-.173-.313-.281-.977-.281-.977s-.257-2.267.98-.955"/></g><path fill="#acd91e" d="M107.891 970.257s-.398.652-.452 1.28c-.026.305.352.672.414.771.062.1 1.508 3.642 1.51 3.79 0 .146-.532.049-.8-.327-.27-.376-.321-.706-.804-1.346-.514-.679-1.23-1.837-1.163-2.456.066-.62.386-1.281.386-1.281z"/><path fill="#ee2329" d="M107.601 971.987a1 1 0 0 1-.143-.283c.001-.184.047-.342.1-.463l.027.053c.129.234.26.514.545.524-.166.072-.396.16-.485.164z"/><path fill="#334d7a" d="M107.461 971.697a.5.5 0 0 1-.019-.162c.012-.136.04-.272.076-.403q.02.053.043.101a1.2 1.2 0 0 0-.1.464"/><path fill="#f58d6b" d="M108.131 971.817c-.285-.009-.416-.29-.545-.524a1 1 0 0 1-.07-.154q.017-.065.038-.126l.336-.036s.179.289.179.36.248.372.25.388c0 .006-.08.045-.188.092"/><path fill="#a9d92c" d="M107.371 972.017a.6.6 0 0 1-.36-.135c-.317-.226-.209-.457-.209-.457l.67-.408.08-.008-.037.125q-.057.199-.076.403a.4.4 0 0 0 .019.162c.028.097.083.195.143.283-.067.01-.14.035-.23.035"/><g fill="#fab494"><path d="M105.441 969.267s-.034.3.175.666c.208.366.383.51.4.534.019.023.037.568.042.61.004.04.307-.034.307-.034l.189.27s.297.331.462.349.792-.47.868-.662c.077-.193-.292-.664-.39-.855-.097-.191.295-.674.196-.883-.1-.21-1.5-1.565-2.25.005M109.091 979.387l.117-.197s-.024.064.188.04c.213-.022.257-.13.257-.13s.13-.024.176-.116l.043-.063-.09.032-.032.004-.134.03-.117.14-.167.08-.07-.033.151-.312-.137.111zM108.891 978.157l-.371.04c.068.027.146.024.146.024s.341-.063.413.083c.072.145-.17.6-.17.6l-.15.457-.072.084s.03.017.072.031h.003c.042.017.104-.283.104-.283l.323-.627.047-.28zM108.451 978.137l.074.055a5 5 0 0 0-.02-.203c-.044.044-.085.102-.054.148"/></g><path fill="#3d1d21" d="M105.731 969.617s.519-.26.618-.103.307.524.422.588.34.03.417.075.151.078.151.078l.097-.105s-.236-.192.148-.275c.385-.082.261.093.533.059.273-.034.307-.132.343-.18.036-.05-.196-1.333-.617-1.727s-1.608-.443-2.061.133c-.454.576-.593 1.46-.505 1.604s-.048-.297.454-.147"/><path fill="#f14436" d="M109.681 977.987c.121.319.428.407.555.423l.049.002c.06-.006.44-.57 1.294-1.421.853-.853 1.252-1.602 1.236-1.745-.015-.145-.564-2.362-.813-3.033-.25-.67-.744-1.406-1.036-1.407-.292 0-.853.256-.819 1.072.036.817.332 1.636.663 2.206.33.57.573 1.034.573 1.034-.157.324-1.69 2.398-1.69 2.398s-.155.096-.012.471"/><path fill="#b22622" d="m110.281 978.407-.03-.001h-.02c.185-.204.58-.646.805-.94.303-.393 1.48-1.756 1.605-2.093.127-.338-.33-1.766-.454-2.197-.123-.431-.746-2.143-1.225-2.375.292 0 .786.737 1.036 1.407.25.671.798 2.888.813 3.033v.009c0 .129-.246.61-.757 1.216q-.21.249-.479.52c-.437.437-.75.797-.96 1.046l-.021.026c-.186.22-.284.346-.313.35"/><g fill="#fbc4ac"><path d="M107.571 970.027s-.104-.283.1-.277c.206.006.259.281.266.35s-.008.371-.178.333-.188-.26-.186-.268zM105.591 969.737s.368.002.451-.049.114-.181.357.11c.243.292.161.259.27.35.108.092.38.013.51.087s.228.4.166.603c-.063.204-.592.164-.716.043-.125-.12-.025-.142.099-.194.123-.052.27-.118.134-.233s-.546-.186-.693-.167c-.148.02-.217.016-.271-.028-.055-.043-.307-.522-.307-.522M106.091 970.577s.025.354.043.388.29.027.303-.032-.163-.188-.194-.229c-.03-.04-.128-.177-.153-.194z"/></g><path fill="#7b8e96" d="M99.961 986.477a1.8 1.8 0 0 0 .58.092c.285 0 .64-.06 1.098-.233.519-.195 1.945-1.139 1.945-1.139.213-.124.247-.414.06-.534l-1.993-1.29-.03-.02c-.13-.06-.299-.017-.4.112 0 0-1.176 1.017-1.461 1.698-.227.54-.173 1.144.201 1.314"/><path fill="#b7c1c4" d="m101.951 984.977-.647.065.097-.37 1.703-1.59s.11-.065.33.13c.22.196.058.407.058.407z"/><path fill="#cad2d3" d="M103.141 983.117s.297.104.326.207c.03.105-1.72 1.543-1.72 1.543l-.29.08.038-.214z"/><path fill="#b7c1c4" d="M99.961 986.477a1.8 1.8 0 0 0 .58.092c.285 0 .64-.06 1.098-.233.519-.195 1.945-1.139 1.945-1.139.213-.124.247-.414.06-.534 0 0-1.414.924-1.948 1.126-.534.2-1.504.484-1.49-.324.013-.807 1.415-2.111 1.415-2.111-.13-.061-.299-.018-.4.111 0 0-1.176 1.017-1.461 1.698-.227.54-.173 1.144.201 1.314"/><path fill="#414b51" d="M101.591 985.827c-.437-.276-.884-.804-1.12-1.103q.078-.13.168-.256l.43.126.189.183.094.107-.043.16.196-.02.41.173.242.08.15.152.028.036a5 5 0 0 1-.643.325z"/><path fill="#5e666b" d="m101.311 985.047.042-.16.106.12.048.02zM102.091 986.007c-.155 0-.326-.07-.499-.178l.101-.037c.158-.06.392-.182.644-.325.03.036.075.09.096.113.033.034-.082.242-.082.242l-.168.176a.5.5 0 0 1-.092.01m-1.618-1.282c-.106-.135-.168-.224-.168-.224l.114-.096.221.064a4 4 0 0 0-.167.256"/><path fill="#262525" d="M100.331 984.307s.031.076.186.158c.075.04.242-.014.328.109l.265.375.405.208.406.109.305.294s-.019.375-.049.43c-.03.057-.677.225-.724.264s-.284.13-.284.13l-.524.048-.365-.01s-.1.09-.317-.089c-.217-.178-.217-.099-.217-.099v-.533l-.01-.316.015-.397.194-.294z"/><path fill="#333436" d="M100.371 984.447s.064.04.257.144l.193.103.119.153.158.228.261.148.361.089-.45.025-.375.02.267.217s.123.04.07.114c-.056.074-.535.103-.535.103l.579.134.672-.247-.015.217s-.751.173-.79.218c-.04.044.3.123-.194.109-.494-.015-.454.005-.454.005l-.435-.213-.075-.232s-.316-.203-.103-.203h.37l-.045-.202.127-.213s.442-.143.086-.163-.306-.08-.356-.02a6 6 0 0 0-.217.326l-.039-.326.306-.318.188-.166z"/><path fill="#3d3330" d="M106.191 991.407h-2.382l-.829-.12-.883-.504-1.743-.603-.308-.846.645-.9.297-.282 1.488-.221 2.332-.303 2.355.524z"/><path fill="#262525" d="M105.621 986.057q-.127.006-.255.016l-.067.02c-.034.029-.024.081-.025.125-.002.168-.18.27-.335.335-.154.065-.334.16-.344.328-.006.095.05.188.035.282-.025.163-.285.276-.395.394-.125.136-.238.29-.409.374-.06.03-.125.05-.186.078a.79.79 0 0 0-.442.721c0 .043.004.09-.016.127s-.059.059-.095.08a7 7 0 0 0-.771.52c-.194.15-.195.375-.382.528-.033.028-.07.053-.086.093-.024.064.024.136.084.169s.13.04.195.061c.18.057.31.21.457.328.28.225.638.333.994.374.357.04.718.019 1.077.013a1.8 1.8 0 0 1 .552.052c.251.074.492.195.74.276.277.09.58.055.867.074.222.014.444.058.664.025s.444-.167.498-.382c.025-.097.013-.203.052-.297.062-.147.232-.216.39-.244.157-.027.325-.03.465-.107.217-.119.313-.385.514-.53.13-.093.29-.129.434-.197.143-.069.282-.194.282-.353 0-.233-.253-.3-.362-.463-.165-.246-.297-.529-.446-.785a.6.6 0 0 0-.115-.159.6.6 0 0 0-.168-.096c-.513-.213-1.144-.22-1.526-.623-.168-.178-.266-.416-.442-.587-.105-.103-.235-.177-.362-.25-.208-.12-.42-.24-.654-.291a1.7 1.7 0 0 0-.417-.03"/><path fill="#333436" d="M106.621 991.257c.158.077.344.074.515.082.115.004.21-.061.317-.092.102-.03.21.01.296-.068l.027-.045.003-.038.016-.02a.13.13 0 0 0 .028-.127l-.02-.03-.044-.01-.12-.002-.042-.072c-.04-.058-.101-.097-.155-.14-.105-.082-.21-.253-.21-.39 0-.093.044-.176.095-.22a.34.34 0 0 1 .167-.067c.094-.019.447.272.542.253q-.15-.265-.267-.576l.257-.2c-.13-.279-.31-.491-.512-.605.232-.05.467-.1.701-.064.292.044.57.22.843.39.055.033.113.067.169.044.055-.023.102-.13.075-.213a.2.2 0 0 0-.058-.081 3 3 0 0 0-.254-.214l.074-.104c-.111-.114-.18-.311-.281-.448a.59.59 0 0 0-.535-.237c-.072.005-.145.018-.214-.013-.05-.023-.095-.066-.141-.103-.148-.117-.313-.158-.476-.198.028-.045-.014-.115-.05-.14l-.586-.42a.18.18 0 0 1-.078-.096c-.014-.043-.01-.095-.015-.143-.018-.144-.117-.213-.203-.259-.144-.076-.278-.183-.43-.185a2 2 0 0 0-.54.067l.091.069a.18.18 0 0 1 .076.098.26.26 0 0 1-.032.188c-.1.174-.268.163-.412.14l.115.008a1.1 1.1 0 0 1-.262-.073l-.017-.007c-.009.106-.015.23.033.303.026.04.062.055.097.067q.162.06.327.1l-.141.02c.033-.003.052.059.053.112 0 .052-.008.107.002.157.022.105.11.112.17.165l.024.035c.026.077-.066.16-.043.239a.9.9 0 0 0-.372-.194c-.036.053.017.147.011.226l-.015.081c-.013.097.048.177.103.218.056.042.122.087.137.183.048.316-.358.157-.436.119.117.268.258.508.417.709l-.305.332a.26.26 0 0 0-.072.118c-.035.135.062.258.146.311q.28.181.582.22c.005.17.013.352.077.486.078.163.214.207.338.24q.05.01.063-.02c.175-.018.37-.034.545-.027a.9.9 0 0 1-.195.16"/><path fill="#262525" d="m104.511 991.217-.078.034.025.067a.75.75 0 0 0 .42.213c.118.021.239.026.358.03l.401.015c-.016-.099-.25-.329-.321-.357-.202-.081-.586-.002-.805-.002"/><path fill="#333436" d="M110.281 989.687c-.07.004-.12.044-.187.076-.061.031-.262.07-.24.172.01.048.07.062.118.065q.11.007.22.004c.126-.005.347-.288.129-.315z"/><path fill="#262525" d="M111.501 989.947c-.064-.113-.336-.092-.429-.03-.125.083-.144.238.03.255q.194.019.386-.014l.023-.008.012-.027a.27.27 0 0 0-.022-.176M107.961 991.467l-.06.045c-.018.034.003.08.036.1s.074.022.113.023c.166.002.33-.014.495-.03l.066-.02.027-.063c.089-.45-.501-.135-.677-.055"/><path fill="#d6d8d5" d="m69.291 959.227 1.585-.915-40.043-23.067-1.585.915z"/></svg>