<svg xmlns="http://www.w3.org/2000/svg" width="293.325" height="62.599" xmlns:v="https://vecta.io/nano"><path d="M173.073 37.6l-.463.417-7.887 7.729c-.649.648-1.372.515-2.113.437-.147-.016-.329-.229-.393-.392l-.791-2.188-.887-2.377-.879-2.44-.497-1.312a2.03 2.03 0 0 0-.491.817l-.98 2.963-.419 1.255-1.379 4.171c-.089.267-.147.552-.277.797-.4.744-1.109 1.063-1.88 1.247-.323.077-.668.079-1.004.08l-12.592.007c-.507-.001-1.024.028-1.483-.296-.607-.427-.751-.844-.512-1.553l1.02-3.116.905-2.656.859-2.725.903-2.656.416-1.256 1.4-4.276 1.185-3.731c.285-.877.969-1.327 1.811-1.544.389-.101.807-.133 1.211-.133l12.856.035c.453.003.908.028 1.319.313.459.317.639.791.821 1.267l.971 2.631.863 2.388 1.275 3.365.459 1.181c.031.075.096.135.18.249l1.54-1.488 8.236-8.056.953-.923c.579-.524 1.236-.881 2.037-.908l1.008-.036 12.168.028a6.91 6.91 0 0 1 .953.063c.933.135 1.335.831 1.037 1.709l-.872 2.776-.905 2.655-.835 2.623-.905 2.709-.437 1.305-1.395 4.276-1.188 3.788c-.347 1.143-1.144 1.747-2.281 1.936-.381.064-.776.068-1.165.068l-12.115.008c-.371 0-.743-.025-1.113-.06-.773-.073-1.412-.796-1.095-1.616.4-1.035.693-2.109 1.028-3.168l.852-2.728.907-2.709c.089-.264.191-.524.06-.949m-46.441 1.015c.177.073.279.131.388.157 1.935.455 3.428 1.531 4.497 3.196l1.012 1.675c.719 1.343 2.373 1.74 3.631 1.413.407-.105.795-.284 1.196-.429.249.431.117.904-.389 1.219-1.245.776-2.561 1.4-3.945 1.9-1.104.4-2.237.66-3.381.868-.745.135-1.515.168-2.273.173l-8.769.001c-.721-.004-1.432-.051-2.147-.268-1.243-.377-1.743-1.236-1.839-2.435l-.155-2.227c-.068-.852-.347-1.648-.634-2.448-.267-.744-.633-1.419-1.167-1.996-.463-.5-.999-.883-1.702-.996-.489-.08-.586-.231-.453-.688l.627-1.967c.118-.383.357-.508.754-.5l2.761-.036c.627-.045 1.257-.189 1.861-.371.389-.116.684-.415.815-.843l1.107-3.537c.08-.252.204-.493.262-.749.143-.632-.029-.963-.66-1.112s-1.289-.277-1.937-.299L112 28.304c-.552 0-.57.012-.748.548l-1.426 4.324-.899 2.657-.85 2.727-.897 2.659-.858 2.669-.88 2.664c-.022.067-.068.127-.083.195-.318 1.416-1.371 1.876-2.649 2.015-.456.049-.92.035-1.38.035l-12.382-.013c-.494 0-.985.001-1.421-.32s-.624-.711-.461-1.232l1.088-3.375.84-2.676.899-2.656.488-1.567.533-1.605.458-1.353 1.191-3.789 1.278-3.757c.268-.808.89-1.229 1.635-1.447.518-.152 1.082-.201 1.626-.203l20.779-.004 13.071.105c1.324.013 2.601.272 3.808.823.857.392 1.572.964 1.911 1.884.191.513.161 1.047-.005 1.565l-.969 2.971-.96 2.515c-.424.94-1.231 1.536-2.095 2.037-1.408.816-2.923 1.319-4.544 1.495-.387.041-.767.145-1.145.233-.089.021-.167.096-.319.189m117.462 6.011c-.071.564-.127 1.024-.62 1.325a20.56 20.56 0 0 1-3.755 1.813c-1.812.659-3.663 1.068-5.591 1.072-3.171.007-6.341-.005-9.512-.011-.909-.001-1.804-.121-2.651-.455-1.293-.509-2.241-1.317-2.225-3.005l-.015-1.188-.592-.053c-2.585-.004-5.172.003-7.757-.008-.428-.001-.705.125-.944.517l-1.625 2.417c-.433.663-1.044 1.065-1.756 1.387-.769.345-1.568.407-2.385.407l-13.975-.015a4.96 4.96 0 0 1-.531-.02c-.929-.099-1.289-.908-.711-1.657l1.943-2.383 5.649-6.817 6.725-8.129 2.616-3.132c.993-1.179 2.264-1.78 3.805-1.783l11.796-.005 10.415.027 1.115.048c1.027.1 1.711.675 1.916 1.679l.648 3.603.539 2.92.38 2.143.477 2.879.568 3.131.356 2.037c.088.743.584 1.127 1.184 1.367.535.212 1.115.363 1.688.423 1.193.128 1.416.056 2.824-.532zm-30.848-4.149h0 6.34c.213-.496.184-9.22-.037-9.704l-.461.588-3.408 5.171-2.184 3.317c-.101.155-.141.348-.249.628m59.687-15.495l14.188.004c1.619.003 3.157.395 4.593 1.131.721.369 1.301.928 1.54 1.74.073.244.087.529.04.78-.079.416-.221.82-.349 1.224l-.975 3.077c-.283.94-.635 1.828-1.66 2.171-.463.155-.963.212-1.449.291-.224.036-.459.02-.689.02l-12.011.001c-.404-.001-.813-.051-1.212-.121-.853-.149-1.227-.781-.967-1.604l.8-2.467c.317-.863-.136-1.853-.9-2.276-1.209-.668-2.483-.585-3.753-.191-.928.289-1.751.769-2.348 1.552a4.32 4.32 0 0 0-.588 1.109l-.924 2.704-.852 2.672-.904 2.768-.448 1.357-.559 1.879c-.239.616.208 1.648.827 2.017.439.264.903.4 1.4.448 1.807.176 3.393-.279 4.685-1.612.553-.569.779-1.288 1.007-2.015l.573-1.703c.359-.929 1.155-1.295 2.049-1.483.343-.072.705-.06 1.059-.059l12.595.025c.513.001 1.023 0 1.471.336.355.264.587.672.476 1.085l-.627 2.081-.895 2.659c-.267.863-.767 1.524-1.491 2.059-1.055.777-2.248 1.253-3.479 1.636-.688.216-1.409.38-2.125.435l-4.72.212c-7.776.012-15.552.001-23.329-.024-1.165-.004-2.345-.043-3.495-.216-1.237-.187-2.445-.56-3.465-1.356-.472-.368-.847-.811-.989-1.404-.056-.233-.104-.504-.045-.728a48.46 48.46 0 0 1 .719-2.384l.888-2.66.975-2.964.829-2.624.849-2.619.576-1.76c.163-.485.304-.98.508-1.447.4-.917 1.157-1.509 1.991-1.993 1.277-.74 2.663-1.18 4.108-1.491 1.263-.272 2.529-.317 3.803-.321l12.7-.004v.051M12.316 29.747l-.753-.035c-3.065-.003-6.129 0-9.193-.005-.389 0-.782-.007-1.166-.061-1.022-.145-1.456-.96-1.056-1.911l.509-1.391c.183-.669.664-1.063 1.243-1.285.535-.207 1.129-.359 1.697-.359l38.578.023a3.77 3.77 0 0 1 1.438.305c.656.281.803.753.64 1.283l-.694 2c-.177.431-.545.72-.951.963-.769.461-1.627.475-2.471.481l-8.555.016-.584.004a.47.47 0 0 0-.517.36l-.712 2.104-.902 2.655-.439 1.304-1.393 4.277-1.194 3.787-1.012 2.955c-.197.555-.655.889-1.156 1.109-.529.232-1.081.408-1.689.407-4.428-.011-8.856.004-13.284-.009-.393-.001-.806-.107-1.174-.253-.92-.369-.899-.991-.695-1.633l1.394-4.277 1.258-3.711c.293-.887.549-1.787.837-2.675l.897-2.659.825-2.572c.065-.201.141-.4.19-.605.042-.176.053-.357.086-.591" fill="#231f20"/><g fill="#fff"><path d="M83.073 18.083c-2.785 0-5.571.021-8.357-.013-.923-.011-1.855-.109-2.764-.271-.699-.125-1.374-.397-1.944-.868-.55-.453-.67-.981-.401-1.715l.463-1.405c.274-1.233.847-1.353 1.758-1.501.187-.031.384-.013.575-.013h8.214l.336.003c.51.029.637.193.605.696-.03.491-.206.963-.087 1.475.085.367.251.66.513.895.421.379.897.628 1.486.701.662.083 1.323.087 1.956-.057 1.204-.273 2.238-.859 2.842-1.996.177-.332.292-.715.347-1.087.109-.729-.255-1.308-.751-1.784a3.88 3.88 0 0 0-1.955-1.039c-1.538-.308-3.098-.427-4.651-.608l-3.651-.527-2.107-.431c-.778-.197-1.518-.512-2.119-1.059-.559-.508-.897-1.484-.54-2.279.226-.503.346-1.059.476-1.6.262-1.089.946-1.805 1.92-2.3.847-.431 1.752-.697 2.667-.888.746-.157 1.525-.195 2.291-.203l7.541-.017 3.17-.003 6.576-.056c1.021.005 2.049.071 3.06.211.821.113 1.603.416 2.269.949.467.373.619 1.02.41 1.605l-.575 1.769c-.168.508-.438.935-1.002 1.06-.387.087-.782.191-1.174.195l-8.309.021c-.096 0-.193.001-.289-.004-.514-.033-.685-.22-.651-.733.017-.255.061-.508.096-.761.177-1.305-.729-2.068-1.807-2.303-.728-.159-1.479-.151-2.192.025-1.199.297-2.248.896-2.813 2.045-.383.779-.629 1.632-.11 2.475.148.24.314.491.53.663.438.352.943.575 1.506.688 1.649.327 3.318.471 4.984.651l4.89.665c.947.169 1.915.356 2.762.889 1.002.629 1.246 1.591.912 2.667l-.522 1.736c-.261 1.037-.917 1.729-1.837 2.205-1.4.725-2.902 1.083-4.466 1.115l-10.082.137-.001-.021m149.796-1.905l-1.491.695-2.727.875c-.183.056-.377.084-.568.096-2.189.135-4.379.185-6.571.036-.475-.033-.88-.187-1.169-.56a1.29 1.29 0 0 1-.264-.593l-.325-2.759c-.273-1.396-.773-2.703-1.976-3.6-.161-.121-.363-.192-.548-.281-.349-.169-.444-.307-.355-.673.085-.351.224-.689.345-1.051l2.052-.076c.601-.06 1.208-.153 1.783-.331a1.46 1.46 0 0 0 .973-.985l1.08-3.469c.136-.441-.031-.801-.436-1.052-.684-.424-1.465-.457-2.221-.496l-3.457-.013c-.623.004-.711.065-.92.675l-.615 1.909-.493 1.391-.347 1.091-.748 2.469-.493 1.445-.373 1.133-.745 2.468-.876 2.577a1.06 1.06 0 0 1-.897.763l-2.051.176-6.1.001a2.31 2.31 0 0 1-.745-.143c-.361-.128-.424-.316-.308-.673l.905-2.819.829-2.441.433-1.464.355-1.14.816-2.395.424-1.42.501-1.491.371-1.133.427-1.468c.189-.584.479-1.087 1.165-1.187.347-.051.695-.133 1.041-.135l14.937-.025 5.521.021c.921.025 1.853.155 2.704.552.356.165.704.389.984.661.553.536.517 1.268.281 1.919l-.517 1.587-.849 2.325c-.379.841-1.145 1.311-1.945 1.692-1.452.691-2.992.988-4.597.964-.096-.001-.192.003-.288.007-.267.013-.405.176-.453.419-.049.253.128.387.32.475.143.067.307.084.463.12l1.389.329c1.048.287 1.837.945 2.455 1.811.343.477.648.984.936 1.496.533.947 1.363 1.393 2.411 1.501l.545.076.023.119"/><path d="M124.007 10.055c-.148-.281-.383-.263-.605-.263l-4.995.005-1.489.007c-.491.005-.659.128-.801.588l-1.068 3.468-.832 2.437-.31.897c-.185.408-.526.639-.974.676l-1.675.1-6.869.001c-.237-.001-.476-.045-.712-.08-.301-.044-.392-.249-.364-.521.017-.175.035-.355.09-.52l.806-2.396.439-1.464.367-1.187.819-2.395.753-2.465.821-2.444.432-1.417.709-2.129c.097-.24.355-.479.598-.583.36-.152.77-.251 1.16-.255l7.926-.031c.369-.003.691.095 1.001.36-.007.139.019.305-.028.449l-.793 2.352-.421 1.369-.509 1.591c-.158.644-.544 1.233-.474 1.993.157.031.319.091.482.092l6.581.001c.461-.001.608-.156.737-.596l.557-1.724.747-2.421.505-1.491c.133-.391.231-.8.415-1.165.112-.223.329-.467.552-.544.461-.161.957-.297 1.441-.303l7.687-.012a1.49 1.49 0 0 1 .471.064c.317.112.468.34.411.668s-.159.649-.257.968l-.38 1.131-.748 2.468-.824 2.444-.351 1.091-.745 2.469-.828 2.44-.425 1.419-.685 1.985c-.159.377-.516.612-.939.665-.317.039-.639.048-.959.048-1.729.004-3.459-.004-5.188.005l-2.351.049a3.45 3.45 0 0 1-.809-.091c-.361-.083-.469-.339-.357-.689l.869-2.783.824-2.441.565-1.893M168.735.316c.021.239.069.375.037.488l-.476 1.497c-.215.507-.66.76-1.201.817a9.91 9.91 0 0 1-.959.041l-12.104.013c-.177 0-.36-.027-.527.016-.137.035-.312.124-.371.239-.151.296-.256.616-.364.932l-.452 1.409-.468 1.404c-.16.593.007.783.635.784l4.42-.001 2.4-.049c.268-.003.539.053.804.104.216.041.376.215.317.412-.157.54-.179 1.164-.683 1.532-.448.329-.985.436-1.541.436a4292.45 4292.45 0 0 0-5.86 0l-1.009.001c-.269-.004-.465.093-.559.359l-.539 1.531-.568 1.72-.432 1.416-.664 1.892c-.083.199-.3.405-.503.476-.417.145-.863.263-1.3.283l-2.737.015-4.609.045c-.287.001-.581-.012-.859-.076-.461-.107-.615-.36-.488-.807l.613-1.957.333-1.048.755-2.465.82-2.444.371-1.135.747-2.468.805-2.399.463-1.505c.188-.512.252-1.137.852-1.368.365-.139.772-.171 1.163-.236.141-.024.288-.011.432-.011l22.143-.013c.376 0 .751.076 1.163.12M249.1 17.9c-3.683 0-7.365 0-11.049-.001-.239-.001-.483.004-.717-.037-.369-.064-.507-.36-.392-.717l.868-2.733.824-2.443c.155-.469.279-.949.428-1.42l.501-1.493.373-1.133.748-2.468.813-2.395c.147-.437.275-.881.419-1.319.103-.319.179-.656.344-.939.119-.203.344-.377.561-.483.465-.227.972-.288 1.493-.288L264.637 0c1.099-.004 2.172.119 3.232.363.668.153 1.295.437 1.816.919.296.273.447.599.401.981-.044.377-.144.749-.248 1.116-.109.381-.263.751-.38 1.131l-.761 2.513c-.261.819-.552 1.627-.824 2.441a38.4 38.4 0 0 0-.348 1.091l-.744 2.472c-.216.7-.417 1.407-.679 2.089-.24.636-.737 1.079-1.311 1.416-.843.495-1.756.792-2.703 1.051-1.343.367-2.699.289-4.053.3l-8.936.007zm-1.079-1.971h0c.26.043.472.101.685.107.591.013 1.185-.02 1.776.011 1.253.063 2.46-.136 3.58-.695.489-.245.935-.603 1.349-.967.527-.461.665-1.153.881-1.78.287-.827.504-1.677.757-2.516.116-.38.245-.756.371-1.135l.827-2.491c.183-.56.391-1.115.516-1.687.08-.361.136-.792.012-1.119-.309-.816-.997-1.283-1.816-1.492-.613-.159-1.255-.247-1.888-.284-.733-.044-1.471 0-2.207.009-.228.003-.389.097-.468.333l-.595 1.715-.755 2.516c-.12.396-.26.785-.391 1.177l-.483 1.448-.42 1.419-.827 2.44-.907 2.989"/><path d="M187.784.085l7.541.012a19.64 19.64 0 0 1 2.959.259 4.21 4.21 0 0 1 2.095.988c.333.289.451.657.415 1.073a3.89 3.89 0 0 1-.169.847l-.808 2.397-.748 2.465-.505 1.441-.351 1.091-.759 2.516-.813 2.284c-.307.711-.977 1.076-1.632 1.409-1.661.848-3.453 1.084-5.289 1.088l-12.104.023-2.927.056-3.592-.209c-.875-.097-1.711-.419-2.391-1.005-.505-.436-.747-.972-.407-1.665.173-.355.265-.749.381-1.129l.751-2.468.828-2.492.432-1.416.428-1.367.544-1.68c.216-.649.367-1.336.684-1.933.331-.623.929-1.036 1.561-1.372.78-.413 1.623-.655 2.465-.88.489-.132 1.012-.151 1.521-.192l2.059-.116 7.831-.005zm-5.351 15.971h0c.649.019 1.267-.064 1.876-.315.881-.361 1.655-.847 2.117-1.693.257-.468.412-.996.591-1.505l.457-1.455.497-1.543.451-1.459.508-1.541.529-1.631c.247-.768.184-1.527-.497-2.141-.483-.436-1.047-.636-1.683-.719-1.565-.2-2.932.219-4.116 1.252-.595.52-.82 1.24-1.045 1.957l-.413 1.368-.825 2.491-.756 2.513-.373 1.131c-.115.444-.228.897-.26 1.352-.037.54.216.971.653 1.313.683.533 1.459.681 2.289.624"/></g><path d="M87.12 44.628c-.071.564-.128 1.024-.62 1.327-1.192.729-2.438 1.333-3.755 1.813-1.811.657-3.663 1.067-5.592 1.071-1.58.003-3.161.001-4.74-.001 2.043-9.755-17.76-15.491-2.657-19.909-22.537 1.183-7.146 11.084-26.53 19.915l-9.509-.011c-.177-.001-.355-.001-.531-.02-.929-.099-1.29-.908-.711-1.657.626-.811 1.289-1.593 1.943-2.383l5.649-6.817 6.726-8.129 2.617-3.132c.992-1.179 2.263-1.78 3.804-1.783l11.796-.005 10.415.027a11.94 11.94 0 0 1 1.114.048c1.027.1 1.711.673 1.916 1.679.245 1.196.432 2.401.648 3.603l.539 2.92.379 2.143.478 2.877.568 3.132c.122.679.274 1.355.355 2.037.089.743.585 1.127 1.184 1.367a6.42 6.42 0 0 0 1.689.423c1.193.128 1.415.056 2.824-.532" fill="#231f20"/><path d="M66.889 14.823c-.054.421-.096.767-.465.993-.894.548-1.828 1-2.816 1.36-1.358.492-2.746.8-4.192.803-2.377.004-1.616-.004-3.993-.008-.682 0-1.353-.091-1.987-.34-.969-.383-1.68-.989-1.668-2.255l-.011-.891-.443-.04c-1.939-.003-3.878.003-5.817-.005a.72.72 0 0 0-.707.388L43.57 16.64c-.326.497-.783.8-1.317 1.04-.577.259-1.176.305-1.789.304l-7.34-.011c-.133 0-.267 0-.398-.015-.697-.073-.968-.68-.534-1.243l1.457-1.785L44.891 1.375A3.58 3.58 0 0 1 47.743.037L58.12.055a9.17 9.17 0 0 1 .835.035c.77.077 1.283.505 1.437 1.26l.486 2.7.404 2.191.285 1.605.358 2.159.425 2.348.267 1.527c.067.557.438.845.888 1.025a4.88 4.88 0 0 0 1.265.317c.895.095 1.062.041 2.118-.399zm-19.992-3.111h0 4.754c.16-.373.137-6.915-.028-7.277l-.346.441-2.555 3.877-1.638 2.487c-.075.116-.105.261-.187.472" fill="#fff"/><path d="M63.459 31.027c-2.036.748-2.78 1.796-2.86 3.053l-.956.004c.334-1.479 1.335-2.587 3.816-3.057zm-2.706 4.536c.381 1.631 1.35 3.495 1.905 5.444l-2.732.012c-.038-1.924-.426-3.821-.427-5.451zm2.273 7.296c.2 2.008-.345 4.055-2.673 5.981h-4.778c2.895-1.685 3.953-3.793 4.253-5.968l3.198-.013m64.39 15.148c-.404-.822-1.265-1.058-2.095-1.058-.983.008-2.064.457-2.064 1.554 0 1.195 1.005 1.485 2.095 1.614.708.077 1.233.282 1.233.784 0 .579-.595.8-1.225.8-.648 0-1.264-.259-1.5-.845l-.839.434c.396.975 1.233 1.31 2.323 1.31 1.188 0 2.239-.51 2.239-1.698 0-1.272-1.035-1.561-2.147-1.698-.64-.076-1.188-.206-1.188-.67 0-.396.357-.708 1.104-.708.579 0 1.081.29 1.264.594zm1.948 4.455v-5.338h-.997v5.338zm4.448-2.028l-2.612-3.31h-.815v5.338h1.004v-3.599l2.803 3.599h0 .625v-5.338h-1.005zm5.939.665c-.351.351-.876.541-1.34.541-1.317 0-1.827-.922-1.835-1.805-.008-.891.548-1.85 1.835-1.85.464 0 .936.16 1.287.503l.669-.647c-.548-.541-1.233-.815-1.956-.815-1.927 0-2.832 1.416-2.825 2.809.008 1.386.845 2.749 2.825 2.749.769 0 1.477-.251 2.025-.792zm5.224.373h-2.993v-1.203h2.887v-.937h-2.887v-1.233h2.993v-.975h-3.991v5.338h3.991zm2.011.99h2.536v-.853h-.74v-4.485h-1.827v.914h.829v3.571h-.799zm6.555-1.683c0 .579-.608.907-1.211.898-.569 0-1.195-.236-1.195-.708h-1.005c0 1.12 1.059 1.577 2.216 1.577 1.096 0 2.193-.556 2.193-1.744v-1.987c0-1.195-1.135-1.782-2.224-1.782-1.073 0-2.208.587-2.208 1.767 0 1.325 1.127 1.775 2.201 1.775.419 0 .997-.198 1.232-.564v.799zm-1.225-2.848c.655 0 1.219.282 1.225.868.008.594-.563.899-1.232.899s-1.204-.312-1.204-.899.58-.868 1.211-.868zm4.44 4.531l2.391-4.805-.053-.533h-3.913v.96h2.596l-2.177 4.378zm6.191-1.683c0 .579-.609.907-1.212.898-.571 0-1.195-.236-1.195-.708h-1.005c0 1.12 1.059 1.577 2.216 1.577 1.096 0 2.193-.556 2.193-1.744v-1.987c0-1.195-1.135-1.782-2.224-1.782-1.073 0-2.208.587-2.208 1.767 0 1.325 1.128 1.775 2.201 1.775.419 0 .997-.198 1.233-.564v.799zm-1.227-2.848c.655 0 1.219.282 1.227.868.007.594-.564.899-1.233.899s-1.204-.312-1.204-.899.579-.868 1.211-.868" fill="#231f20"/><path d="M2.369 58.844h114.541v1.861H2.369zm167.686 0h114.541v1.861H170.055v-1.861" fill="#fff"/></svg>