<svg xmlns="http://www.w3.org/2000/svg" width="228.453" height="209.728" xmlns:v="https://vecta.io/nano"><path d="M121.835.001c28.956 0 55.173 11.739 74.149 30.715 9.721 9.721 17.543 21.344 22.86 34.261l-8.56-.013c-4.859-10.752-11.619-20.461-19.853-28.696-17.553-17.555-41.807-28.412-68.596-28.412S70.793 18.714 53.239 36.267C41.088 48.418 32.147 63.779 27.792 80.97l-.43.519-9.756 11.791c2.674-24.328 13.67-46.155 30.081-62.564C66.663 11.739 92.879.001 121.835.001zM226.49 98.18a105.7 105.7 0 0 1 .209 6.684c0 28.956-11.737 55.172-30.715 74.149s-45.193 30.715-74.149 30.715-55.172-11.738-74.149-30.715c-9.365-9.364-16.967-20.494-22.264-32.844l4.03.005.025-.011h4.556a97.23 97.23 0 0 0 19.206 27.298c17.554 17.554 41.808 28.412 68.596 28.412s51.043-10.858 68.596-28.412 28.413-41.808 28.413-68.596a99.33 99.33 0 0 0-.157-5.547c2.792-.04 5.317-.285 7.803-1.137"/><path d="M149.919 88.311l-1.849-.089c-7.521-.005-15.043.001-22.563-.009-.955-.001-1.919-.019-2.86-.152-2.511-.357-3.576-2.357-2.593-4.689.471-1.116.929-2.249 1.248-3.415.449-1.641 1.628-2.608 3.051-3.156 1.312-.505 2.771-.88 4.165-.88l94.686.057c1.183.003 2.443.281 3.529.749 1.608.691 1.969 1.849 1.569 3.148-.509 1.655-1.045 3.308-1.704 4.908-.436 1.059-1.336 1.769-2.331 2.365-1.889 1.132-3.993 1.164-6.065 1.181l-20.997.04c-.479 0-.957.023-1.435.008-.652-.023-1.061.253-1.269.883l-1.748 5.164-2.212 6.517-1.08 3.2-3.419 10.496-2.929 9.296c-.789 2.431-1.629 4.844-2.484 7.252-.484 1.361-1.607 2.182-2.837 2.722-1.299.569-2.655 1.002-4.144.998-10.868-.028-21.737.011-32.605-.025-.965-.004-1.98-.26-2.881-.621-2.257-.904-2.208-2.431-1.707-4.007l3.421-10.499 3.087-9.105c.719-2.177 1.345-4.385 2.053-6.567l2.2-6.524 2.025-6.312c.157-.495.345-.984.467-1.488.103-.429.131-.876.211-1.447m-15.114 36.524c-2.493 8.619-18.759 10.324-24.463 10.334-3.879.007-7.757.004-11.635-.003 5.013-23.942-43.59-38.021-6.521-48.866-55.315 2.903-17.54 27.203-65.113 48.879l-23.34-.027c-.433-.001-.871-.004-1.303-.049-2.279-.242-3.165-2.228-1.745-4.066 1.538-1.99 3.165-3.911 4.769-5.849l13.864-16.733 16.509-19.951 6.421-7.688c2.437-2.892 5.553-4.371 9.337-4.376l28.953-.013 25.561.064c.912.004 1.827.032 2.735.12 2.521.245 4.197 1.653 4.703 4.12.601 2.933 1.059 5.893 1.592 8.843l1.321 7.168.931 5.256 1.175 7.067 1.393 7.684c.301 1.665.672 3.324.872 5.001.705 5.898 10.504 4.537 13.983 3.085M76.73 91.451c-4.997 1.836-6.822 4.409-7.019 7.493l-2.346.009c.822-3.629 3.278-6.348 9.365-7.503zm-6.642 11.131c.936 4.004 3.314 8.581 4.675 13.363l-6.707.031c-.092-4.721-1.044-9.381-1.046-13.379zm5.578 17.908c.49 4.931-.847 9.952-6.559 14.68H57.38c7.107-4.135 9.702-9.308 10.439-14.645l7.848-.035" fill="#ed1c24"/></svg>