<svg width="231" height="46" viewBox="0 0 231 46" fill="none" xmlns="http://www.w3.org/2000/svg">
<rect width="231" height="46" rx="23" fill="#ED1C24"/>
<path d="M28.5107 22.0439V25.6875C28.3877 25.8698 28.1917 26.0749 27.9229 26.3027C27.654 26.526 27.2826 26.722 26.8086 26.8906C26.3392 27.0547 25.7331 27.1367 24.9902 27.1367C24.3841 27.1367 23.8258 27.0319 23.3154 26.8223C22.8096 26.6081 22.3698 26.2982 21.9961 25.8926C21.627 25.4824 21.3398 24.9857 21.1348 24.4023C20.9342 23.8145 20.834 23.1491 20.834 22.4062V21.6338C20.834 20.891 20.9206 20.2279 21.0938 19.6445C21.2715 19.0612 21.5312 18.5667 21.873 18.1611C22.2148 17.751 22.6341 17.4411 23.1309 17.2314C23.6276 17.0173 24.1973 16.9102 24.8398 16.9102C25.6009 16.9102 26.2367 17.0423 26.7471 17.3066C27.262 17.5664 27.6631 17.9264 27.9502 18.3867C28.2419 18.847 28.4287 19.3711 28.5107 19.959H27.1914C27.1322 19.599 27.0137 19.2708 26.8359 18.9746C26.6628 18.6784 26.4144 18.4414 26.0908 18.2637C25.7673 18.0814 25.3503 17.9902 24.8398 17.9902C24.3796 17.9902 23.9808 18.0745 23.6436 18.2432C23.3063 18.4118 23.0283 18.6533 22.8096 18.9678C22.5908 19.2822 22.4268 19.6628 22.3174 20.1094C22.2126 20.556 22.1602 21.0596 22.1602 21.6201V22.4062C22.1602 22.9805 22.2262 23.4932 22.3584 23.9443C22.4951 24.3955 22.6888 24.7806 22.9395 25.0996C23.1901 25.4141 23.4886 25.6533 23.835 25.8174C24.1859 25.9814 24.5732 26.0635 24.9971 26.0635C25.4665 26.0635 25.847 26.0247 26.1387 25.9473C26.4303 25.8652 26.6582 25.7695 26.8223 25.6602C26.9863 25.5462 27.1117 25.4391 27.1982 25.3389V23.1104H24.8945V22.0439H28.5107ZM33.5762 27.1367C33.0612 27.1367 32.5941 27.0501 32.1748 26.877C31.7601 26.6992 31.4023 26.4508 31.1016 26.1318C30.8053 25.8128 30.5775 25.4346 30.418 24.9971C30.2585 24.5596 30.1787 24.0811 30.1787 23.5615V23.2744C30.1787 22.6729 30.2676 22.1374 30.4453 21.668C30.623 21.194 30.8646 20.793 31.1699 20.4648C31.4753 20.1367 31.8216 19.8883 32.209 19.7197C32.5964 19.5511 32.9974 19.4668 33.4121 19.4668C33.9408 19.4668 34.3965 19.5579 34.7793 19.7402C35.1667 19.9225 35.4834 20.1777 35.7295 20.5059C35.9756 20.8294 36.1579 21.2122 36.2764 21.6543C36.3949 22.0918 36.4541 22.5703 36.4541 23.0898V23.6572H30.9307V22.625H35.1895V22.5293C35.1712 22.2012 35.1029 21.8822 34.9844 21.5723C34.8704 21.2624 34.6882 21.0072 34.4375 20.8066C34.1868 20.6061 33.8451 20.5059 33.4121 20.5059C33.125 20.5059 32.8607 20.5674 32.6191 20.6904C32.3776 20.8089 32.1702 20.9867 31.9971 21.2236C31.8239 21.4606 31.6895 21.75 31.5938 22.0918C31.498 22.4336 31.4502 22.8278 31.4502 23.2744V23.5615C31.4502 23.9124 31.498 24.2428 31.5938 24.5527C31.694 24.8581 31.8376 25.127 32.0244 25.3594C32.2158 25.5918 32.446 25.7741 32.7148 25.9062C32.9883 26.0384 33.2982 26.1045 33.6445 26.1045C34.0911 26.1045 34.4694 26.0133 34.7793 25.8311C35.0892 25.6488 35.3604 25.4049 35.5928 25.0996L36.3584 25.708C36.1989 25.9495 35.9961 26.1797 35.75 26.3984C35.5039 26.6172 35.2008 26.7949 34.8408 26.9316C34.4854 27.0684 34.0638 27.1367 33.5762 27.1367ZM41.0273 19.6035V20.5742H37.0283V19.6035H41.0273ZM38.3818 17.8057H39.6465V25.168C39.6465 25.4186 39.6852 25.6077 39.7627 25.7354C39.8402 25.863 39.9404 25.9473 40.0635 25.9883C40.1865 26.0293 40.3187 26.0498 40.46 26.0498C40.5648 26.0498 40.6742 26.0407 40.7881 26.0225C40.9066 25.9997 40.9954 25.9814 41.0547 25.9678L41.0615 27C40.9613 27.0319 40.8291 27.0615 40.665 27.0889C40.5055 27.1208 40.3118 27.1367 40.084 27.1367C39.7741 27.1367 39.4893 27.0752 39.2295 26.9521C38.9697 26.8291 38.7624 26.624 38.6074 26.3369C38.457 26.0452 38.3818 25.6533 38.3818 25.1611V17.8057ZM49.5791 17.0469V27H48.2803V17.0469H49.5791ZM52.7783 17.0469V18.127H45.0879V17.0469H52.7783ZM57.6455 25.7354V21.9277C57.6455 21.6361 57.5863 21.3831 57.4678 21.1689C57.3538 20.9502 57.1807 20.7816 56.9482 20.6631C56.7158 20.5446 56.4287 20.4854 56.0869 20.4854C55.7679 20.4854 55.4876 20.54 55.2461 20.6494C55.0091 20.7588 54.8223 20.9023 54.6855 21.0801C54.5534 21.2578 54.4873 21.4492 54.4873 21.6543H53.2227C53.2227 21.39 53.291 21.1279 53.4277 20.8682C53.5645 20.6084 53.7604 20.3737 54.0156 20.1641C54.2754 19.9499 54.5853 19.7812 54.9453 19.6582C55.3099 19.5306 55.7155 19.4668 56.1621 19.4668C56.6999 19.4668 57.1738 19.5579 57.584 19.7402C57.9987 19.9225 58.3223 20.1982 58.5547 20.5674C58.7917 20.932 58.9102 21.39 58.9102 21.9414V25.3867C58.9102 25.6328 58.9307 25.8949 58.9717 26.1729C59.0173 26.4508 59.0833 26.6901 59.1699 26.8906V27H57.8506C57.7868 26.8542 57.7367 26.6605 57.7002 26.4189C57.6637 26.1729 57.6455 25.945 57.6455 25.7354ZM57.8643 22.5156L57.8779 23.4043H56.5996C56.2396 23.4043 55.9183 23.4339 55.6357 23.4932C55.3532 23.5479 55.1162 23.6322 54.9248 23.7461C54.7334 23.86 54.5876 24.0036 54.4873 24.1768C54.387 24.3454 54.3369 24.5436 54.3369 24.7715C54.3369 25.0039 54.3893 25.2158 54.4941 25.4072C54.599 25.5986 54.7562 25.7513 54.9658 25.8652C55.18 25.9746 55.4421 26.0293 55.752 26.0293C56.1393 26.0293 56.4811 25.9473 56.7773 25.7832C57.0736 25.6191 57.3083 25.4186 57.4814 25.1816C57.6592 24.9447 57.7549 24.7145 57.7686 24.4912L58.3086 25.0996C58.2767 25.291 58.1901 25.5029 58.0488 25.7354C57.9076 25.9678 57.7184 26.1911 57.4814 26.4053C57.249 26.6149 56.971 26.7904 56.6475 26.9316C56.3285 27.0684 55.9684 27.1367 55.5674 27.1367C55.0661 27.1367 54.6263 27.0387 54.248 26.8428C53.8743 26.6468 53.5827 26.3848 53.373 26.0566C53.168 25.724 53.0654 25.3525 53.0654 24.9424C53.0654 24.5459 53.1429 24.1973 53.2979 23.8965C53.4528 23.5911 53.6761 23.3382 53.9678 23.1377C54.2594 22.9326 54.6104 22.7777 55.0205 22.6729C55.4307 22.568 55.8887 22.5156 56.3945 22.5156H57.8643ZM62.1641 20.7656V27H60.8994V19.6035H62.1299L62.1641 20.7656ZM64.4746 19.5625L64.4678 20.7383C64.363 20.7155 64.2627 20.7018 64.167 20.6973C64.0758 20.6882 63.971 20.6836 63.8525 20.6836C63.5609 20.6836 63.3034 20.7292 63.0801 20.8203C62.8568 20.9115 62.6676 21.0391 62.5127 21.2031C62.3577 21.3672 62.2347 21.5632 62.1436 21.791C62.057 22.0143 62 22.2604 61.9727 22.5293L61.6172 22.7344C61.6172 22.2878 61.6605 21.8685 61.7471 21.4766C61.8382 21.0846 61.9772 20.7383 62.1641 20.4375C62.3509 20.1322 62.5879 19.8952 62.875 19.7266C63.1667 19.5534 63.513 19.4668 63.9141 19.4668C64.0052 19.4668 64.11 19.4782 64.2285 19.501C64.347 19.5192 64.429 19.5397 64.4746 19.5625ZM66.9014 21.0732V27H65.6299V19.6035H66.833L66.9014 21.0732ZM66.6416 23.0215L66.0537 23.001C66.0583 22.4951 66.1243 22.028 66.252 21.5996C66.3796 21.1667 66.5687 20.7907 66.8193 20.4717C67.07 20.1527 67.3822 19.9066 67.7559 19.7334C68.1296 19.5557 68.5625 19.4668 69.0547 19.4668C69.401 19.4668 69.7201 19.5169 70.0117 19.6172C70.3034 19.7129 70.5563 19.8656 70.7705 20.0752C70.9847 20.2848 71.151 20.5537 71.2695 20.8818C71.388 21.21 71.4473 21.6064 71.4473 22.0713V27H70.1826V22.1328C70.1826 21.7454 70.1165 21.4355 69.9844 21.2031C69.8568 20.9707 69.6745 20.8021 69.4375 20.6973C69.2005 20.5879 68.9225 20.5332 68.6035 20.5332C68.2298 20.5332 67.9176 20.5993 67.667 20.7314C67.4163 20.8636 67.2158 21.0459 67.0654 21.2783C66.915 21.5107 66.8057 21.7773 66.7373 22.0781C66.6735 22.3743 66.6416 22.6888 66.6416 23.0215ZM71.4336 22.3242L70.5859 22.584C70.5905 22.1784 70.6566 21.7887 70.7842 21.415C70.9163 21.0413 71.1055 20.7087 71.3516 20.417C71.6022 20.1253 71.9098 19.8952 72.2744 19.7266C72.639 19.5534 73.056 19.4668 73.5254 19.4668C73.9219 19.4668 74.2728 19.5192 74.5781 19.624C74.888 19.7288 75.1478 19.8906 75.3574 20.1094C75.5716 20.3236 75.7334 20.5993 75.8428 20.9365C75.9521 21.2738 76.0068 21.6748 76.0068 22.1396V27H74.7354V22.126C74.7354 21.7113 74.6693 21.39 74.5371 21.1621C74.4095 20.9297 74.2272 20.7679 73.9902 20.6768C73.7578 20.5811 73.4798 20.5332 73.1562 20.5332C72.8783 20.5332 72.6322 20.5811 72.418 20.6768C72.2038 20.7725 72.0238 20.9046 71.8779 21.0732C71.7321 21.2373 71.6204 21.4264 71.543 21.6406C71.4701 21.8548 71.4336 22.0827 71.4336 22.3242ZM82.2822 25.7354V21.9277C82.2822 21.6361 82.223 21.3831 82.1045 21.1689C81.9906 20.9502 81.8174 20.7816 81.585 20.6631C81.3525 20.5446 81.0654 20.4854 80.7236 20.4854C80.4046 20.4854 80.1243 20.54 79.8828 20.6494C79.6458 20.7588 79.459 20.9023 79.3223 21.0801C79.1901 21.2578 79.124 21.4492 79.124 21.6543H77.8594C77.8594 21.39 77.9277 21.1279 78.0645 20.8682C78.2012 20.6084 78.3971 20.3737 78.6523 20.1641C78.9121 19.9499 79.222 19.7812 79.582 19.6582C79.9466 19.5306 80.3522 19.4668 80.7988 19.4668C81.3366 19.4668 81.8105 19.5579 82.2207 19.7402C82.6354 19.9225 82.959 20.1982 83.1914 20.5674C83.4284 20.932 83.5469 21.39 83.5469 21.9414V25.3867C83.5469 25.6328 83.5674 25.8949 83.6084 26.1729C83.654 26.4508 83.7201 26.6901 83.8066 26.8906V27H82.4873C82.4235 26.8542 82.3734 26.6605 82.3369 26.4189C82.3005 26.1729 82.2822 25.945 82.2822 25.7354ZM82.501 22.5156L82.5146 23.4043H81.2363C80.8763 23.4043 80.555 23.4339 80.2725 23.4932C79.9899 23.5479 79.7529 23.6322 79.5615 23.7461C79.3701 23.86 79.2243 24.0036 79.124 24.1768C79.0238 24.3454 78.9736 24.5436 78.9736 24.7715C78.9736 25.0039 79.026 25.2158 79.1309 25.4072C79.2357 25.5986 79.3929 25.7513 79.6025 25.8652C79.8167 25.9746 80.0788 26.0293 80.3887 26.0293C80.776 26.0293 81.1178 25.9473 81.4141 25.7832C81.7103 25.6191 81.945 25.4186 82.1182 25.1816C82.2959 24.9447 82.3916 24.7145 82.4053 24.4912L82.9453 25.0996C82.9134 25.291 82.8268 25.5029 82.6855 25.7354C82.5443 25.9678 82.3551 26.1911 82.1182 26.4053C81.8857 26.6149 81.6077 26.7904 81.2842 26.9316C80.9652 27.0684 80.6051 27.1367 80.2041 27.1367C79.7028 27.1367 79.263 27.0387 78.8848 26.8428C78.5111 26.6468 78.2194 26.3848 78.0098 26.0566C77.8047 25.724 77.7021 25.3525 77.7021 24.9424C77.7021 24.5459 77.7796 24.1973 77.9346 23.8965C78.0895 23.5911 78.3128 23.3382 78.6045 23.1377C78.8962 22.9326 79.2471 22.7777 79.6572 22.6729C80.0674 22.568 80.5254 22.5156 81.0312 22.5156H82.501ZM88.4961 26.0977C88.7969 26.0977 89.0749 26.0361 89.3301 25.9131C89.5853 25.79 89.7949 25.6214 89.959 25.4072C90.123 25.1885 90.2165 24.9401 90.2393 24.6621H91.4424C91.4196 25.0996 91.2715 25.5075 90.998 25.8857C90.7292 26.2594 90.376 26.5625 89.9385 26.7949C89.501 27.0228 89.0202 27.1367 88.4961 27.1367C87.9401 27.1367 87.4548 27.0387 87.04 26.8428C86.6299 26.6468 86.2881 26.3779 86.0146 26.0361C85.7458 25.6943 85.543 25.3024 85.4062 24.8604C85.2741 24.4137 85.208 23.9421 85.208 23.4453V23.1582C85.208 22.6615 85.2741 22.1921 85.4062 21.75C85.543 21.3034 85.7458 20.9092 86.0146 20.5674C86.2881 20.2256 86.6299 19.9567 87.04 19.7607C87.4548 19.5648 87.9401 19.4668 88.4961 19.4668C89.0749 19.4668 89.5807 19.5853 90.0137 19.8223C90.4466 20.0547 90.7861 20.3737 91.0322 20.7793C91.2829 21.1803 91.4196 21.6361 91.4424 22.1465H90.2393C90.2165 21.8411 90.1299 21.5654 89.9795 21.3193C89.8337 21.0732 89.6331 20.8773 89.3779 20.7314C89.1273 20.5811 88.8333 20.5059 88.4961 20.5059C88.1087 20.5059 87.7829 20.5833 87.5186 20.7383C87.2588 20.8887 87.0514 21.0938 86.8965 21.3535C86.7461 21.6087 86.6367 21.8936 86.5684 22.208C86.5046 22.5179 86.4727 22.8346 86.4727 23.1582V23.4453C86.4727 23.7689 86.5046 24.0879 86.5684 24.4023C86.6322 24.7168 86.7393 25.0016 86.8896 25.2568C87.0446 25.512 87.252 25.7171 87.5117 25.8721C87.776 26.0225 88.1042 26.0977 88.4961 26.0977ZM102.852 25.9268V27H97.5811V25.9268H102.852ZM97.8477 17.0469V27H96.5283V17.0469H97.8477ZM102.154 21.3262V22.3994H97.5811V21.3262H102.154ZM102.783 17.0469V18.127H97.5811V17.0469H102.783ZM108.601 25.0381C108.601 24.8558 108.56 24.6872 108.478 24.5322C108.4 24.3727 108.238 24.2292 107.992 24.1016C107.751 23.9694 107.386 23.8555 106.898 23.7598C106.488 23.6732 106.117 23.5706 105.784 23.4521C105.456 23.3337 105.176 23.1901 104.943 23.0215C104.715 22.8529 104.54 22.6546 104.417 22.4268C104.294 22.1989 104.232 21.9323 104.232 21.627C104.232 21.3353 104.296 21.0596 104.424 20.7998C104.556 20.54 104.741 20.3099 104.978 20.1094C105.219 19.9089 105.508 19.7516 105.846 19.6377C106.183 19.5238 106.559 19.4668 106.974 19.4668C107.566 19.4668 108.072 19.5716 108.491 19.7812C108.91 19.9909 109.232 20.2712 109.455 20.6221C109.678 20.9684 109.79 21.3535 109.79 21.7773H108.525C108.525 21.5723 108.464 21.374 108.341 21.1826C108.222 20.9867 108.047 20.8249 107.814 20.6973C107.587 20.5697 107.306 20.5059 106.974 20.5059C106.623 20.5059 106.338 20.5605 106.119 20.6699C105.905 20.7747 105.748 20.9092 105.647 21.0732C105.552 21.2373 105.504 21.4105 105.504 21.5928C105.504 21.7295 105.527 21.8525 105.572 21.9619C105.622 22.0667 105.709 22.1647 105.832 22.2559C105.955 22.3424 106.128 22.4245 106.352 22.502C106.575 22.5794 106.86 22.6569 107.206 22.7344C107.812 22.8711 108.311 23.0352 108.703 23.2266C109.095 23.418 109.387 23.6527 109.578 23.9307C109.77 24.2087 109.865 24.5459 109.865 24.9424C109.865 25.266 109.797 25.5622 109.66 25.8311C109.528 26.0999 109.334 26.3324 109.079 26.5283C108.828 26.7197 108.528 26.8701 108.177 26.9795C107.83 27.0843 107.441 27.1367 107.008 27.1367C106.356 27.1367 105.805 27.0205 105.354 26.7881C104.902 26.5557 104.561 26.2549 104.328 25.8857C104.096 25.5166 103.979 25.127 103.979 24.7168H105.251C105.269 25.0632 105.369 25.3389 105.552 25.5439C105.734 25.7445 105.957 25.888 106.222 25.9746C106.486 26.0566 106.748 26.0977 107.008 26.0977C107.354 26.0977 107.644 26.0521 107.876 25.9609C108.113 25.8698 108.293 25.7445 108.416 25.585C108.539 25.4255 108.601 25.2432 108.601 25.0381ZM114.623 19.6035V20.5742H110.624V19.6035H114.623ZM111.978 17.8057H113.242V25.168C113.242 25.4186 113.281 25.6077 113.358 25.7354C113.436 25.863 113.536 25.9473 113.659 25.9883C113.782 26.0293 113.914 26.0498 114.056 26.0498C114.16 26.0498 114.27 26.0407 114.384 26.0225C114.502 25.9997 114.591 25.9814 114.65 25.9678L114.657 27C114.557 27.0319 114.425 27.0615 114.261 27.0889C114.101 27.1208 113.908 27.1367 113.68 27.1367C113.37 27.1367 113.085 27.0752 112.825 26.9521C112.565 26.8291 112.358 26.624 112.203 26.3369C112.053 26.0452 111.978 25.6533 111.978 25.1611V17.8057ZM117.48 19.6035V27H116.209V19.6035H117.48ZM116.113 17.6416C116.113 17.4365 116.175 17.2633 116.298 17.1221C116.425 16.9808 116.612 16.9102 116.858 16.9102C117.1 16.9102 117.285 16.9808 117.412 17.1221C117.544 17.2633 117.61 17.4365 117.61 17.6416C117.61 17.8376 117.544 18.0062 117.412 18.1475C117.285 18.2842 117.1 18.3525 116.858 18.3525C116.612 18.3525 116.425 18.2842 116.298 18.1475C116.175 18.0062 116.113 17.8376 116.113 17.6416ZM120.769 21.0732V27H119.497V19.6035H120.7L120.769 21.0732ZM120.509 23.0215L119.921 23.001C119.925 22.4951 119.992 22.028 120.119 21.5996C120.247 21.1667 120.436 20.7907 120.687 20.4717C120.937 20.1527 121.249 19.9066 121.623 19.7334C121.997 19.5557 122.43 19.4668 122.922 19.4668C123.268 19.4668 123.587 19.5169 123.879 19.6172C124.171 19.7129 124.424 19.8656 124.638 20.0752C124.852 20.2848 125.018 20.5537 125.137 20.8818C125.255 21.21 125.314 21.6064 125.314 22.0713V27H124.05V22.1328C124.05 21.7454 123.984 21.4355 123.852 21.2031C123.724 20.9707 123.542 20.8021 123.305 20.6973C123.068 20.5879 122.79 20.5332 122.471 20.5332C122.097 20.5332 121.785 20.5993 121.534 20.7314C121.284 20.8636 121.083 21.0459 120.933 21.2783C120.782 21.5107 120.673 21.7773 120.604 22.0781C120.541 22.3743 120.509 22.6888 120.509 23.0215ZM125.301 22.3242L124.453 22.584C124.458 22.1784 124.524 21.7887 124.651 21.415C124.784 21.0413 124.973 20.7087 125.219 20.417C125.469 20.1253 125.777 19.8952 126.142 19.7266C126.506 19.5534 126.923 19.4668 127.393 19.4668C127.789 19.4668 128.14 19.5192 128.445 19.624C128.755 19.7288 129.015 19.8906 129.225 20.1094C129.439 20.3236 129.601 20.5993 129.71 20.9365C129.819 21.2738 129.874 21.6748 129.874 22.1396V27H128.603V22.126C128.603 21.7113 128.536 21.39 128.404 21.1621C128.277 20.9297 128.094 20.7679 127.857 20.6768C127.625 20.5811 127.347 20.5332 127.023 20.5332C126.745 20.5332 126.499 20.5811 126.285 20.6768C126.071 20.7725 125.891 20.9046 125.745 21.0732C125.599 21.2373 125.488 21.4264 125.41 21.6406C125.337 21.8548 125.301 22.0827 125.301 22.3242ZM136.149 25.7354V21.9277C136.149 21.6361 136.09 21.3831 135.972 21.1689C135.858 20.9502 135.685 20.7816 135.452 20.6631C135.22 20.5446 134.933 20.4854 134.591 20.4854C134.272 20.4854 133.992 20.54 133.75 20.6494C133.513 20.7588 133.326 20.9023 133.189 21.0801C133.057 21.2578 132.991 21.4492 132.991 21.6543H131.727C131.727 21.39 131.795 21.1279 131.932 20.8682C132.068 20.6084 132.264 20.3737 132.52 20.1641C132.779 19.9499 133.089 19.7812 133.449 19.6582C133.814 19.5306 134.219 19.4668 134.666 19.4668C135.204 19.4668 135.678 19.5579 136.088 19.7402C136.503 19.9225 136.826 20.1982 137.059 20.5674C137.296 20.932 137.414 21.39 137.414 21.9414V25.3867C137.414 25.6328 137.435 25.8949 137.476 26.1729C137.521 26.4508 137.587 26.6901 137.674 26.8906V27H136.354C136.291 26.8542 136.241 26.6605 136.204 26.4189C136.168 26.1729 136.149 25.945 136.149 25.7354ZM136.368 22.5156L136.382 23.4043H135.104C134.743 23.4043 134.422 23.4339 134.14 23.4932C133.857 23.5479 133.62 23.6322 133.429 23.7461C133.237 23.86 133.091 24.0036 132.991 24.1768C132.891 24.3454 132.841 24.5436 132.841 24.7715C132.841 25.0039 132.893 25.2158 132.998 25.4072C133.103 25.5986 133.26 25.7513 133.47 25.8652C133.684 25.9746 133.946 26.0293 134.256 26.0293C134.643 26.0293 134.985 25.9473 135.281 25.7832C135.577 25.6191 135.812 25.4186 135.985 25.1816C136.163 24.9447 136.259 24.7145 136.272 24.4912L136.812 25.0996C136.781 25.291 136.694 25.5029 136.553 25.7354C136.411 25.9678 136.222 26.1911 135.985 26.4053C135.753 26.6149 135.475 26.7904 135.151 26.9316C134.832 27.0684 134.472 27.1367 134.071 27.1367C133.57 27.1367 133.13 27.0387 132.752 26.8428C132.378 26.6468 132.087 26.3848 131.877 26.0566C131.672 25.724 131.569 25.3525 131.569 24.9424C131.569 24.5459 131.647 24.1973 131.802 23.8965C131.957 23.5911 132.18 23.3382 132.472 23.1377C132.763 22.9326 133.114 22.7777 133.524 22.6729C133.935 22.568 134.393 22.5156 134.898 22.5156H136.368ZM142.5 19.6035V20.5742H138.501V19.6035H142.5ZM139.854 17.8057H141.119V25.168C141.119 25.4186 141.158 25.6077 141.235 25.7354C141.313 25.863 141.413 25.9473 141.536 25.9883C141.659 26.0293 141.791 26.0498 141.933 26.0498C142.037 26.0498 142.147 26.0407 142.261 26.0225C142.379 25.9997 142.468 25.9814 142.527 25.9678L142.534 27C142.434 27.0319 142.302 27.0615 142.138 27.0889C141.978 27.1208 141.785 27.1367 141.557 27.1367C141.247 27.1367 140.962 27.0752 140.702 26.9521C140.442 26.8291 140.235 26.624 140.08 26.3369C139.93 26.0452 139.854 25.6533 139.854 25.1611V17.8057ZM147.053 27.1367C146.538 27.1367 146.071 27.0501 145.651 26.877C145.237 26.6992 144.879 26.4508 144.578 26.1318C144.282 25.8128 144.054 25.4346 143.895 24.9971C143.735 24.5596 143.655 24.0811 143.655 23.5615V23.2744C143.655 22.6729 143.744 22.1374 143.922 21.668C144.1 21.194 144.341 20.793 144.646 20.4648C144.952 20.1367 145.298 19.8883 145.686 19.7197C146.073 19.5511 146.474 19.4668 146.889 19.4668C147.417 19.4668 147.873 19.5579 148.256 19.7402C148.643 19.9225 148.96 20.1777 149.206 20.5059C149.452 20.8294 149.634 21.2122 149.753 21.6543C149.871 22.0918 149.931 22.5703 149.931 23.0898V23.6572H144.407V22.625H148.666V22.5293C148.648 22.2012 148.579 21.8822 148.461 21.5723C148.347 21.2624 148.165 21.0072 147.914 20.8066C147.663 20.6061 147.322 20.5059 146.889 20.5059C146.602 20.5059 146.337 20.5674 146.096 20.6904C145.854 20.8089 145.647 20.9867 145.474 21.2236C145.3 21.4606 145.166 21.75 145.07 22.0918C144.975 22.4336 144.927 22.8278 144.927 23.2744V23.5615C144.927 23.9124 144.975 24.2428 145.07 24.5527C145.171 24.8581 145.314 25.127 145.501 25.3594C145.692 25.5918 145.923 25.7741 146.191 25.9062C146.465 26.0384 146.775 26.1045 147.121 26.1045C147.568 26.1045 147.946 26.0133 148.256 25.8311C148.566 25.6488 148.837 25.4049 149.069 25.0996L149.835 25.708C149.675 25.9495 149.473 26.1797 149.227 26.3984C148.98 26.6172 148.677 26.7949 148.317 26.9316C147.962 27.0684 147.54 27.1367 147.053 27.1367Z" fill="white"/>
<circle cx="206.5" cy="23.5" r="18.5" fill="black"/>
<path d="M213.707 24.7071C214.098 24.3166 214.098 23.6834 213.707 23.2929L207.343 16.9289C206.953 16.5384 206.319 16.5384 205.929 16.9289C205.538 17.3195 205.538 17.9526 205.929 18.3431L211.586 24L205.929 29.6569C205.538 30.0474 205.538 30.6805 205.929 31.0711C206.319 31.4616 206.953 31.4616 207.343 31.0711L213.707 24.7071ZM199 25L213 25V23L199 23V25Z" fill="white"/>
</svg>
