<svg xmlns="http://www.w3.org/2000/svg" xmlns:xlink="http://www.w3.org/1999/xlink">
<symbol id="abc" viewBox="0 0 3835.9365 3855.0588"><defs><clipPath id="y"><path transform="scale(1,-1)" d="m0 0h97v77h-97z"/></clipPath><clipPath id="n"><path transform="scale(1,-1)" d="m0 0h97v77h-97z"/></clipPath><clipPath id="c"><path d="m0 0h97v77h-97z"/></clipPath><clipPath id="b"><path transform="scale(1,-1)" d="m0 0h97v77h-97z"/></clipPath><clipPath id="a"><path d="m0 0h97v77h-97z"/></clipPath><clipPath id="x"><path d="m0 0h97v77h-97z"/></clipPath><clipPath id="w"><path d="m0 0h97v77h-97z"/></clipPath><clipPath id="v"><path d="m0 0h97v77h-97z"/></clipPath><clipPath id="u"><path d="m0 0h97v77h-97z"/></clipPath><clipPath id="t"><path d="m0 0h97v77h-97z"/></clipPath><clipPath id="s"><path d="m0 0h97v77h-97z"/></clipPath><clipPath id="r"><path d="m0 0h97v77h-97z"/></clipPath><clipPath id="q"><path d="m0 0h97v77h-97z"/></clipPath><clipPath id="p"><path d="m0 0h97v77h-97z"/></clipPath><clipPath id="o"><path d="m0 0h97v77h-97z"/></clipPath><clipPath id="m"><path d="m0 0h97v77h-97z"/></clipPath><clipPath id="l"><path d="m0 0h97v77h-97z"/></clipPath><clipPath id="k"><path d="m0 0h97v77h-97z"/></clipPath><clipPath id="j"><path d="m0 0h97v77h-97z"/></clipPath><clipPath id="i"><path d="m0 0h97v77h-97z"/></clipPath><clipPath id="h"><path d="m0 0h97v77h-97z"/></clipPath><clipPath id="g"><path d="m0 0h97v77h-97z"/></clipPath><clipPath id="f"><path d="m0 0h97v77h-97z"/></clipPath><clipPath id="e"><path d="m0 0h97v77h-97z"/></clipPath><clipPath id="d"><path d="m0 0h97v77h-97z"/></clipPath></defs><title>The University of Kent</title><g transform="matrix(30.12 0 0 30.12 -9.561 400.4)"><path transform="scale(1.333 -1.333)" d="m27.74-.188h37.96l-.027-21.73c-.082-1.648-.211-2.586-.582-4.191-.324-1.391-.614-2.149-1.106-3.493-.414-1.128-.64-1.769-1.164-2.851-.504-1.031-.84-1.59-1.457-2.559-.609-.961-.976-1.496-1.683-2.386-.704-.879-1.157-1.329-1.922-2.153-.625-.668-.969-1.054-1.629-1.687-.699-.664-1.113-1.02-1.863-1.629-.856-.696-1.372-1.051-2.27-1.688-.762-.539-1.242-.918-1.98-1.336-.61-.351-1.086-.562-1.801-.875-.559-.242-.883-.371-1.457-.582l-1.512.641-2.27 1.281-2.558 1.625-2.5 2.039-2.215 2.27-1.742 2.094-1.516 2.386-1.57 2.852-1.281 3.023-.989 3.199-.523 2.68-.231 2.27-.117 3.023z" clip-path="url(#y)" style="stroke-miterlimit:3.864;stroke-width:.3766;stroke:#000"/><path transform="scale(1.333 -1.333)" d="m27.7-14.23c2.977.219 2.91-1.648 6.074-1.648 2.293 0 2.399 2.738 5.934.988 1.035-.508 1.957-1.051 3.121-.761.535.265.863.488 1.422.789.816.433 1.117.652 1.922.754 1.629.203 1.976-.215 2.777-.625 1.078-.583 1.324-.977 2.43-.977.887 0 1.281.324 1.98.848.375.273 1.496 1.046 2.207 1.105.918.07 1.793-.48 2.594-.816.695-.348 1.074-.668 1.859-.813.7-.133 1.442.317 1.747.465.699.348.96.742 1.746 1.047.539.203 1.269.039 2.16.039m-24.24-1.75c1.52.098 2.559 1.059 3.426 1.496.848.418 1.153.566 1.922.625 1.613.129 2.035-.309 2.676-.672.265-.148.918-.551 1.223-.64.406-.114 1.367-.215 1.949.164.742.48 1.105.812 1.949 1.148.711.277 1.191.352 1.863.059.332-.145.438-.219.696-.379.523-.321.972-.629 1.437-.977m-26.43-.914c2.153.098 2.52.59 3.45 1.172.656.41 1.195.801 2.386.742" clip-path="url(#n)" style="stroke-miterlimit:3.864;stroke-width:.1504;stroke:#000"/><path transform="scale(1.333)" d="m45.28 40.49c-.359.36-.586.614-1.078.801.34.524 1.531.027 1.688-.414.281.398.379.117.398-.207m-1.754-.375-1.34 1.105c.305.305.875.372 1.16 0m-.746-1.105c-.246.484-.675.512-1.105.828.168.207.387.305.801.305m-.856-.953c-.351.254-.715.593-1.16.648.149.27 1.086.274 1.27 0m-1.645-.703-.883.109c.258.457 1.145.473 1.602.473m.512-1.633c-.336-.254-.594-.301-.993-.387-.476-.101-.453-.257-.57.36m2.059-.539c-.371-.278-.778-.254-1.215-.305 0 .363.168.524.441.719m1.992-.551c-.453-.453-.976-.582-1.601-.582-.004.449.347.731.715.91m10.45-.023c.348-.469 1.144-.211 1.406-.746.266.687-.473 1.191-1.051 1.324l.582-.246c-2.046.996-3.914-.965-6.148.109m-2.488-.418c-.16-.32-.149-.754-.481-.965-.238-.152-.762-.359-.941-.027m1.851 1.645c0-.969-.109-1.508-.886-1.754m6.718.386c.207.098.422.039.637 0 .067.411-.359.426-.5.719m-2.402-1.246c.386-.289.847-.059 1.269 0-.125.465-.449.66-.883.801m-2.875.773.637.125m-.625-4.586c.321.43.098 1.825.223 2.625l-.125 1.813m-5.543-4.274-.219.446c.805 0 1.266-.047 1.852-.637m-2.266-.441c-.402-.028-.629.128-.855.441.238.059.421.227.66.277.773.157.961-.343 1.605-.441m2.582 4.074c-.23-.183-.398-.433-.636-.609-.305-.227-.684-.246-1.02-.414-.199.41.035.707.359.941m7.059-.703h1.078c.004.543-.414.629-.828.801m-3.387.676c.055-.836.367-1.075 1.024-1.493.308-.199.515-.488.855-.636.281.55-.242.906-.633 1.187m-2.625 1.16c.094-.261.192-.273.442-.332l-.082-3.867-.305-.137c-.137-.293-.223-.472-.168-.8m-.359.109c-.828.098-3.629-.176-4.364-.5l-1.921-.856c0 .672.335 1.055.91 1.34m4.175 1.231c.032.25.055.414 0 .664.461-.231.954-.5.993-1.078l.125.855.5-.566.011-.207m-2.847.265c0 .207-.168.496 0 .661.508-.168 1.105-.211 1.301-.801m-2.211-.278c-.059.149-.157.266-.196.418.762.301 1.074.012 1.66-.418m-2.5-1.699c-.675-.441-.371.008-.996-.828-.148.285-.179.516-.082.828m1.961-.25.621.442m3.594-1.575-.07 1.383c0 .36-.137.582-.028.735m-2.996-.844c-.304-.301-.851-.371-1.23-.551-.078.207-.008.344.164.469-.422-.215-.91-.211-1.301-.5v.5m3.402.551c-.281-.676-.703-1.161-1.492-1.161.145.289.348.59.567.829m1.699.234c-.305-.414-.691-.895-1.547-.895m.918.164c.207-.414.809.149.996.317-.226-.824.133-.594.469-.153.16.211-.063.657.055.899m-.809-5.836c-.523-.125-.715.109-.164.703.281.305.387.539.719.789m.121-2.324-1.047-.922c-.067.445.015.734.332.992m.273 2.785c.028.485.293.442.625.61m.274-4.465c-.313-.426-.578-.625-.578-1.219-.317.422-.348.824.179 1.5-.066-.144-.687-.601-.816-.711-.02.36.051.633.219.953m.156 2.559-.539-.289c-.004.504.176 1.176.801 1.172m.011.359c.664.332.567.828.664 1.453m-.953-4.547-.703-.386c-.109.246.055.773.289.941.36.254.75.344.969.774m5.109 5.07c.496.055.61.027 1.051.027m-5.015.278 1.007-.086c.469-.082.692-.246 1.215-.36l1.742.141m1.192-.555c.226-.308.746-.519 1.078-.719-.027.211-.098.481-.25.637m-3.942 1.824c.004.539-.414.36-.703.168-.437-.293-.507-.777-1.16-.773m3.176.66c.121.09.098.254.195.359-.593.446-1.519-.527-1.965-.855m2.516.164.332.445c-.957.071-1.101-.039-1.797-.679m2.293.015c.004.379-.472.317-.715.25-.339-.101-.57-.383-.914-.472m2.668-.485c-.152.942-.98.844-1.601.387m1.754-1.231c.347-.132.609-.273.828-.578.199 1.184-1.028 1.438-1.934 1.465m-.828-.496c-.004-.715.711-.742 1.242-.805.004.293-.027.536-.273.719m-3.981.086c.094-.461.774-1.176 1.356-.746m-1.895-3.277c.164.07.399.121.539.226-.078.418-.226.551-.57.797m-.383-5.391c.074-.054.348-.351.348-.351.207.387.109 1.211.094 1.402-.024.289-.204.785-.442.969m-.414.496c-.375.633-1.043 2.418-.191 2.902l-.028.719m0-4.762c.067 1.118.067 1.165-.156 2.063m.375-4.527c.027.757.082 1.64-.344 2.281m1.461 3.965c.188.668-1.062.789-1.078 1.351-.023.766-.019 1.532-.027 2.297.664-.008.82-1.359 1.879-1.187m-1.395-3.817c.262-.125.664-.097.926-.215.004.239-.172.414-.301.582-.273.348-.469.274-.847.461m3.304 3.153c.457-.184.789-.196 1.188 0m-2.293.523c-.004-.797.523-.805 1.16-.801-.016.27-.223.434-.332.664m-2.016-6.027c.145-.07.293-.125.442-.191 0 1.418-.743 1.363-1.633 2.14m.75-3.011c.109-.114.234-.207.355-.305.34.437.309.863.11 1.355-.242.61-.602.532-.961 1.016m-.364-4.305c.094-.086.145-.297.278-.32.004 0 .012.035.015.059.016.066.032.211.04.281.039.254.167.308.167.566 0 .379-.058.871-.183 1.242m-.305-1.664c-.012-.445-.222-.843-.371-1.257 0 .617-.168.859-.414 1.382-.137.289-.16.633.152.817-.296.062-.39.277-.511.523m9.984-7.168c-.398-.304-.144-.894-.789-1.015-.309.945.262 1.254.848 1.832m.281 5.218v.422m-2.227-1.89c-.215-.434-1.086-.942-1.578-.52m3.696-1.39c-.129.832.699 1.757-.004 2.222m-.871-3.918c-.258.11-.063.817.05.985.203.3.477.558.696.843m-.555-2.465-.535-.437c-.11.754.457 1.484.961 1.859m-1.973 3.637c.223-.453 1.168-.125 1.551-.098m-3.129-.097c.144-.293.551-.227.816-.227.344 0 .598.094.903.238m-3.075.071c.579.281.946-.227 1.481-.227m-.211-.418c-.563-.414-1.125-.644-1.805-.312l.676.453m1.805-.227c-.141-.422-1.594-1.168-1.059-.168m3.09.422c-.254-.761-1.227-1.129-1.723-.875m3.063 1.172h-.453c-.012-.281-.207-.441-.379-.633-.313-.347-.633-.3-1.059-.324m-3.058.746c-.395-.297-.789-.34-1.012 0m4.621.817c0 .195-.051.57-.172.734.797.055.82-.633 1.328-1.016l.082.422m-2.027-.113c-.168.293-.234.641-.383.945.371-.062.793.016 1.043-.324m-1.676-.734c-.25.332-.371.609-.453 1.015.606.074 1.074-.086 1.328-.59m-1.863-.394c-.504.082-.43.527-.789.703.445.848 1.039-.18 1.41 0m-1.832-.594c-.187.129-.32.344-.535.422.383.027.883.211 1.227-.043m-1.114-1.027c-.285-.516-1.043.222-1.582-.098.348.731 1.059.918 1.805.918m3.469 5.637c.32.683.797-.344.972-.594.2.106.485.242.61-.039m-2.539.734c-.004.399.507.387.734.125.23-.269.391-.55.59-.82m-2.199 0c-.434.024-.774.008-1.129.34.105.148.636.207.808.246m3.395-1.344c.281-.043.406-.015.508.196.195-.438.027-.352.336-.336l-.055-.735v-2.875m-3.328 4.711c-.547.039-.629.418-1.223.516 1 .445 1.754.176 2.156-.629m-2.539-.496c-.281 0-.691.219-.886.555.265.242.972-.211 1.199-.012m-.453-.953c-.676-.336-1.188.078-1.184.793.211-.075.488-.192.676 0m1.297-1.016c-.211-.285-.649-.566-1.016-.48-.433.101-.273.324-.199.648m2.285-.059c-.367-.265-1.227-1.125-1.578-.476m3.242.379c-.043-.844-.566-.828-.973-.692m-2.269.973c.437.211 1.621.324 2.113.355.746.055 1.184-.015 1.719-.281m-1.66-.367c-.145-.207-.914-1.098-1.184-.875-.117.094-.16.238-.226.367m2.027.477c-.32-.703-.734-.942-1.152-.563m1.406 0c.332 0 .5-.015.762.196.203.168.336.144.41.437m2.508.945c.418.168.621.512.988.735.246.148.875.246.988-.113m-2.793-.942c.567.039.387.547.692.906.214.262.875.645 1.097.196m.989-1.09c.367.265 1.14 1.164 1.605.543m-.887-.762c.297.395.903.906 1.594.852m-.09-.309c-1.015-2.242-2.738-.293-4.762-.605m1.918-.539c.61-1.286 3.618-1.293 3.016 1.593-.047-.152-.105-.304-.172-.449m-3.504-1.234c.094-.297.196-.637.52-.707.269-.055.637-.125.789.183m-.731 1.574c.196.336 1.227 1.528 1.692.598m-4.903-.504c0 .367.059.485.34.594l-.504 4.293c.286-.086.774-.371 1.082-.188.27-.535-.226-1.781-.183-2.382.055-.68.262-1.051.09-1.727.496 0 .613-.293.613-.715m1.59-4.183c0 .125.07.355.012.464-1.012-.492-.774-.41-1.34-1.199m3.527.504.254.449c-.922 0-1.121-.382-1.777-.875m.179-1.332c.746-.363 1-.507 1.864-.507l-.665.492c.313-.157.805-.285 1.145-.153-.203.098-.309.313-.508.411.199-.047 1.305-.266 1.27.132m-3.949-.515c.312-.797 1.292-.867 1.972-.535-.094.199-.336.363-.551.406m-2.324.156c.145-.383.313-.672.735-.785.199-.059.761-.133.902.055m-1.789 2.543c-.024.148.027.984-.156.578-.188-.422-.668-.887-1.168-.957.058 1.453.113 2.906.195 4.363l2.027-1.043m1.578-2.75c.004.148.055.305 0 .449-.359 0-.722.004-1.082 0-.371-.004-.48-.883-.605-1.14m-2.188-2.918v2.171c.274-.543.797-.429 1.129-.847.184-.231.817-.981 1.071-.438m-2.016-2.383c-.34.34-.59.719-.59 1.497m.195-5.047-.043 3.058m.762.289c.238-.183 1.168-.746.594-1.324m-.973 3.399c.211-.508 1.196-.692.985-1.582m-.703.453c.421-.157.675-.383.875-.789.085-.18.238-.731 0-.844m-.692-.242c.5-.192.617-.762.617-1.243-.285-.039-.363.09-.59.2m-1.972.054c-.25-.347-.028-.8 0-1.183l.59.621c-.067-.832.347-1.231.789-1.859.168.507.222 1.015.144 1.546.094-.183.278-.289.407-.449.468.469-.004 1.082-.055 1.61m-.637.964c-.25.336-.25.817 0 1.153m.567 3.863c.292-.297.605-.406 1.367-.578.929-.223 1.523.473 3.48.461.891-.172 1.133-.399 1.75-1.016-.144.891-.805 1.348-1.637 1.551l.286.59c-.473.23-1.059-.074-1.329-.477m-25.37 5.778c-.461-.231-.773.554-1.105.691-.469.191-.801-.035-1.246-.137.183-.566.718-.656 1.218-.8m8.254-.239c.082-.097.387-.277.704-.293m-8.618 1.332c.774.379 1.121-.5 1.715-.691.098.195.34.547.555.25-.035.445-.164.875-.141 1.324.028.453.196.867.196 1.328 0 .426-.278.789-.278 1.215 0 .547.59.418.969.414-.141-.844-.133-1.348.055-2.183.183-.813-.418-1.317-.223-2.098.824-.426.117 1.133 1.992 1.133-.078-.418-.437-.637-.719-.914.489.488 1.477.714 1.879 0-.308-.114-.515-.36-.773-.551.539.355 1.363.66 1.961.273-.363-.242-.715-.508-1.117-.691.339.152.777.383 1.148.433.441.067.586-.113.793-.39m-11.02-.219c-.086.094-.683.613-.664.676.02.066.575.191.664.191.278 0 .575-.078.844-.152m-.289-2c.399-.801 1.133-.109 1.465.555m-.152.961c-.618.05-.981.25-1.219.832.293.113.906.152 1.148-.082m2.598-.844c-2.859.004-1.906-1.625-5.32.32-.184-.848 1.05-2.078 1.89-1.672m2.723.141c.531-.262.941.508 1.062.914.204-.305.321-.215.567-.027m-2.598-1.231c.039-.601.27-.402.582-.07.289.308.442.664.442 1.051m-2.157-.981c.137-.535.7-.332.996-.07.309.273.332.594.497.941m1.343-11.91c0-.312-.168-.773.141-.996l.219.508c-.27-.555.465-.82.593-1.203.211.152.161.453.168.676m-.98 4.113c-.387-.004-.563.066-.332.441.176.289.371.418.687.524m-.41-1.774c-1.437-.285-.168.746.301.981m-.273-1.989-.719-.722c-.16.261-.125.601-.055.879.149.578.516.863 1.106 1.004m-.168-2.082-.528-.692c-.152.223-.195 1.09.032 1.274m-1.657 4.957c-.004-.414.102-.493.457-.266.352.234.543.684.637 1.082m-2.109-1.082c.035-.391.484-.145.664-.023.383.25.531.539.664.964m-3.453-.195c.359-.18.925-.016 1.078.359m4.262-2.746c-.633.207.195.606.527 1.051l-.113 2.211c-.039-.625-.563-1.453-.895-.789m-.945-.566c.304-.559 1.078.789 1.16 1.05m-3.578-.882c-.094-.539 1.047-.661 1.09.402m-1.864-.031c-.113-.114-.191-.254-.277-.387.402-.301 1.305.07 1.508.48m-1.949.887c-.524-.254-.719-.836-.719-1.383.629.18.742.442 1.105.926m5.387.813c-.395-.539-2.672-1.063-3.332-.938-.957.176-1.699.652-2.75.301m.168.062-.168-.062c.699.812 1.508.75 2.434.43l-.981.402c.641.644 1.363-.059 1.961-.359-.371.226-1.363.8-.305.8.586 0 .844-.664 1.203-.574-.375-.101-1.136.879-.511.879.676 0 .976-.437 1.492-.746-.207.203-.328.379-.414.664.473.074.918-.469 1.355-.25 0 1.336-.367 2.273-.027 3.648m-.086-11.53.141 4.203m.8 2.68c1.09-1.473 4.731-.477 5.555-.91.238-.125.524-.59.414-.86l-1.019.575c.523-.762-.219-.372-.746-.243l.468-.273c-.351-.352-1.207.043-1.574.219l.469-.36c-.336-.34-1.262.094-1.574.223l.136-.258c-.39.004-.808.32-1.05.617-.039-.14-.204-.164-.289-.093-.293.246-.61 1.004-.79 1.363zm-.027 5.387c.961.828 1.887-.661 2.844-.735.578-.043.98.164 1.523.266.848.156.95-.391 1.621.535.008-1.285-.371-1.008-1.351-1.187.25-.125.375-.368.414-.637-.465.277-1.024.304-1.508.539.25-.242.535-.453.457-.844-.484.363-1.035.617-1.547.942.274-.161.828-.586.524-.942l-1.41 1.16c.414-.586-.051-.414-.274-.691-.183.629-.414 1.144-1.133 1.246-.715.102-.351-3.371-.359-3.953-.008-.383.379-.59.156-1.02.317.43.852 1.516 1.535 1.004l-.648-.949c.371.184 1.094 1.5 1.793.582l-.992-.637c.406.309 1.867.989 2.129.098-.262.035-.934-.246-1.192-.293.528.195 1.215.344 1.774.262l-.614-.426c.399.289.871.277 1.328.164l-.468-.273c.222.031 1.293.023 1.023-.446m-5.918-4.48c.117-.317.449-.715.828-.524.223.114.043.27.442.332-.203.422-.59.606-.996.801m-.336-1.566c.289-.727.57-.543 1.16-.305-.047.316-.145.449-.332.691m-1.043-1.074c.238-.601.535-.804 1.09-1.078.004.473-.035.797-.246 1.227m.179 1.871c0 .551-.113.855-.5 1.051.332-.082.364.054.692.054l-.965 1.078v.36c.027.164.039.468.055.636.039.622.386 1.157-.055 1.602m-.594-6.469c.043-.547.09-1.984.746-2.144.094.301.395.746.18 1.051m17.99-6.43.539.168h2.871v-.813l.961-.011-.012 1.066 1.715.008c-.062-.961.18-1.746.664-2.578-.113-.282-.449-.5-.98-.508l.566-1.156c-1.847-.012-1.953 1.289-1.941 2.472l-1.383.024m-12.36.3 8.906.012c2.168 0 3.961-1.703 4.008-3.89m-12.91 2.89 8.984.02c1.672-.012 2.91-1.321 2.981-2.91m-11.96 1.906 8.91.012c1.105 0 2.031-.778 2.074-1.911m-2.367-.043 6.664.039v-2.191h-1.527l-.004 1.047h-.946v-1.031h-1.679l.004 1.031h-1l-.004-1.031-1.508.004zm5.32.036c-.054 2.746-2.304 4.925-5.043 4.91l-8.894-.012v-3.918l8.914.008c.574 0 1.039-.379 1.082-.965m-24.91 6.57c-.149.289.019.66.367.645.117-.004.254-.074.336-.149.387-.351.133-.777.711-.753m-1.707-1.383c-.059.363-.426.254-.367.64.015.129.117.18.183.278m1.274 1.148c.039.059.062.09.105.152m8.856-2.996c-.219.262-.305.629-.055.891.609.645 1.695-.164 2.41-.164h2.77m-7.465 1.582c.175.508 1.019.109 1.519.394-.058-.242-.043-.5.039-.73.52.168.215.844 1.469.676-.137-.481.09-.422.047-.774-.031-.304-.504-.191-.434-.769m-8.543 2.328c.414.176 1.051-.172.907-.664.164-.078.355.094.3.266.371-.149.618-.161 1-.036l.211-.382c.469.464 1.285.019 1.797.511.035-.176.035-.355-.055-.515.524-.098 1.129.203 1.532.523.051-.289.187-.98.39-1.187m-6.535.886c-.531.586-.222 1.114.137 1.289-.082-.257-.102-.554.176-.636.121-.039.195-.086.261-.203.055-.094.059-.188.024-.29-.078-.226-.305-.343-.598-.16zm-1.219-.761c-.718-.442-1.316.589-.664 1.207-.07-.246.012-.625.286-.7.144-.043.414.016.503.168m.547-1.218c-.242-.254-.679-.289-.937.043-.094.121-.078.218-.047.375m5.887-3.414c-.332.632.132 1.746.59 2.269-.887-.199-1.555.344-2.379.496-.403.078-1.473-.035-1.774-.324-.43-.414.059-1.656-.64-1.668-.137-.004-.266.043-.348.156-.129-.715-1.258-.328-1.352.457.196-.285.66-.488.907-.148-.504.301-.36.98.199 1.035m1.398-7.578c.547.055.551.703.281 1.012m.415 3.871c.132.164.191.281.238.488.062.289.043.484-.082.754.16.062.269.074.441.043.215-.043.344-.121.477-.297.051.168.058.277.031.453-.039.231-.109.371-.273.535.242.082.418.078.652-.023.242-.102.371-.227.48-.465.012.148-.004.242-.058.383-.067.156-.129.238-.262.34.156-.043.254-.051.414-.036.203.024.281.184.485.188.187.008.308-.027.464-.133m-4.015-3.086.312.508c.047.086.071.137.098.234.066.223.062.375-.008.598.106-.191.207-.289.399-.395.222-.121.394-.144.648-.097m-3.172-2.281c.09.203.207.312.418.386.316.114.621.024.82-.246-.043.215-.05.344-.027.563.039.383.133.613.367.914l.403-.434c.031-.027.046-.047.066-.082.039-.082.047-.148.019-.234m-2.089-2.043c-.246.105-.106.476-.098.629m-.805-.321c-.09.7.489 1.047 1.2.774.132-.227 0-.551-.243-.641-.218.305-.73.336-.957-.133zm.992-.875c-.355.692.165.911.981.813m1.641-.828c.543-.004.429-.906-.157-1.102.731-.023 1.262.731.918 1.317m-.976-.731c.265 1.043.746.848.98.727.68.586-.656.82-.719 1.175-.027.141.094.235.145.352 0 0 .949.91 1.566 1.484.172.157.27.247.442.403m-3.531-4.375c-.426.164-.5.746-.098.984m-.641-.82c.055-.102.336-.211.477.004m-2 .597c.109-.738.672-1.062 1.18-.855.652.262.25.949-.204.91-.089-.523-.75-.48-.976-.055zm9.515.7c.008-.071.071-.121.141-.114.07.004.121.067.113.137-.004.07-.066.125-.136.117-.071-.008-.121-.07-.118-.14zm-2.136 5.242c-.063.547.304 1.051.836 1.183-.106-.593.679-.382.488-1.07.348.664.801.566 1.242.887-.105-.887.461-1.281.063-1.985.285.063.586.082.836-.125.109-.406-.086-.691-.305-1.011.211.07.883-.067 1.105-.219-.332-.242-.609-.406-.609-.844m-2.512 1.098c.641.144 1.157.07 1.196-.453m-2.235-.621c-.047.222-.023.382.098.578.117.191.211.273.465.347m.8-.652c.145.059.309.043.415.031.539-.066.496-.355.507-.691.008-.152-.011-.356.047-.496m-1.359.539c-.11-.016-.176-.043-.266-.109-.097-.071-.187-.247-.187-.247-.215.344-.078.766.343.868m.239-1.051c-.074.707-.254 1.515-.649 2.008-.113.136-.855.797-.605.964.238.161.488-.117.582-.183.191-.141.391-.399.535-.613.469-.7.414-1.348.512-1.602.101-.277.078-.527.176-.644m-.887-.672c-.34.207-.5.504-.141.687.274.141.621-.082.981-.039.519.066.465.492.066.613-.055.016-.148 0-.199-.004m-.281-2.699-.067-.121m-.097.731c.003-.071.066-.125.136-.118.071.004.125.067.117.137-.007.074-.07.125-.136.117-.074-.004-.125-.066-.117-.136zm.285.429c-.125.133-.254.274-.231.45.114.175.254.011.395.066.074.031.176.144.265.137.352-.032.059-.727.293-.868.2-.128.524-.054.786-.097-.204.547-.836.57-.872.312m.129-.554.996-.2m-2.562-.336c.09-.23.266-.335.492-.273m-.266.676c.208.367.266.57.543.433.133-.062.11-.265.071-.379-.031-.101-.09-.21-.121-.312m2.683 2.266c.235.699.524.629 1.207.683l3.203-.035m-8.839 1.262c-.278.32-.778.445-1.18.195-.027-.668-.047-1.348.957-1.82-.496.113-.633-.281-.828-.59.402-.164.887-.332 1.105-.703-.156.14-.586-.106-.765-.215.179-.477.632-.598 1.129-.711-.391-.582-.321-1.621.23-2.059.203.094.656.356.727.571.015-.258-.063-.633.336-1.094.464.148.593.594.648.953.129-.387.516-.805 1.039-.762.168.188.07.719.004.942.371-.18.75-.11.953.101-.074.297-.297.563-.578.68.293.043.562.313.777.512-.136.312-.398.578-.703.722.57.36.66.543.051.84.242.129.703.563.601.922-.55.395-.875.438-1.164-.047" clip-path="url(#c)" style="stroke-miterlimit:3.864;stroke-width:.1314;stroke:#000"/><path transform="scale(1.333 -1.333)" d="m47.35-41.01c-.012-.418.031-3.183.25-3.523.293-.461-.004-.613-.442-.692-.496-.089-.629-.054-.555.469.043.301.145.586.196.887.172 1.039.027 2.051.027 3.094-.234.109-.441.289-.555.527m1.348.488c.25-.511.043-.801-.441-.914m.886.844c.672-.055.805-.645 1.188-1.066.207-.231.797-.297.812.14m1.758.086c.004-.617-.836-.461-1.219-.391-.609.122-.953.485-1.214 1.024m3.406-.406c.004-.582-.192-.559-.664-.387-.567.207-.992.734-1.602.828m3.555.43c.652-.367-.254-.594-.539-.664.371-.848-1.074-.028-1.274.113m.29 1.422c.582.137.664.121.968-.25m-12.62-1.465c-1.023 0-1.457 1.082-1.176 1.949.196-.605.684-.781 1.246-.926m-.207-.441c1.559-.469 2.797.688 4.133.426.442-.086.766-.707 1.133-.524m-13.32 37.71c.566.426 1.617.149 1.406-.796-.211-.133-.43-.102-.711.109.297.324-.262.836-.695.687zm-.539-7.562c-.203.117-.457-.031-.446-.266-.539.313-1.281.094-1.093-1.215.132.54.699.801.968.575" clip-path="url(#b)" style="stroke-miterlimit:3.864;stroke-width:.1883;stroke:#000"/><path transform="scale(1.333)" d="m10.09 62.73c.738.02 1.262.032 1.582.032.094 0 .906-.012 2.437-.032l-2.003-4.816zm2.094-7.25h.508c.73 1.879 1.628 4.012 2.695 6.395l1.89 4.141c.086.144.18.25.282.316.07.051.468.176 1.191.383v.496c-.98-.066-1.707-.098-2.172-.098-.476 0-1.285.032-2.429.098v-.496c.652-.133 1.035-.238 1.14-.32.11-.079.164-.176.164-.282 0-.113-.058-.3-.172-.57l-.828-1.992c-1.144-.008-1.972-.016-2.496-.016l-2.211.016-.863 2.066c-.141.324-.211.531-.211.61 0 .07.031.128.098.171.07.047.386.129.949.247.058.015.14.039.25.07v.496c-.926-.066-1.578-.098-1.953-.098-.485 0-1.098.032-1.852.098v-.496c.492-.106.828-.227 1.016-.36.133-.101.273-.269.422-.511.308-.535 1.09-2.262 2.351-5.18z" clip-path="url(#a)"/><path transform="scale(1.333)" d="m26.64 58.81h-.625c-.141-.692-.301-1.196-.477-1.516s-.449-.566-.812-.75c-.364-.18-.77-.273-1.223-.273-.641 0-1.152.179-1.531.535-.379.359-.571.789-.571 1.297 0 .449.153.839.461 1.175.305.332 1.055.758 2.254 1.274 1.196.515 2.012 1.047 2.442 1.59.429.55.644 1.168.644 1.851 0 .613-.16 1.184-.484 1.711-.321.527-.805.949-1.449 1.266-.645.312-1.34.472-2.086.472-.508 0-1.02-.05-1.528-.148-.511-.098-1.121-.27-1.836-.512.09-.761.133-1.769.133-3.031h.625c.176.816.363 1.387.555 1.715.187.328.476.598.863.805.387.21.813.316 1.274.316.632 0 1.187-.18 1.668-.535.476-.356.714-.856.714-1.5 0-.524-.172-.988-.515-1.395-.348-.398-1.106-.851-2.278-1.355-1.171-.504-1.953-.988-2.347-1.453-.395-.457-.594-1.004-.594-1.641 0-.555.16-1.086.48-1.59.321-.504.79-.902 1.411-1.195.617-.293 1.261-.442 1.925-.442.801 0 1.77.188 2.907.559-.028.793-.039 1.27-.039 1.43 0 .332.011.777.039 1.34" clip-path="url(#x)"/><path transform="scale(1.333)" d="m37.72 60.92-.008-.578-.008-1.742-.015-1.516c-.008-.227-.039-.367-.098-.422-.086-.094-.297-.164-.629-.211l-1.086-.242v-.496c1.223.066 2.106.098 2.652.098.598 0 1.426-.032 2.489-.098v.496c-.883.18-1.379.297-1.492.344-.114.051-.188.105-.227.164-.059.098-.09.394-.094.887-.011.808-.015 2.195-.015 4.152l.046 3.832v.227c0 .25.047.414.137.484.153.113.711.254 1.676.418v.496c-1.469-.066-2.402-.098-2.801-.098-.66 0-1.461.032-2.406.098v-.496l1.48-.332c.094-.035.164-.09.211-.16.075-.114.118-.328.121-.641l.043-3.809c-1.433-.023-2.531-.031-3.293-.031-.82 0-1.691.008-2.605.031l.023 3.915c0 .281.028.457.082.535.055.074.192.144.418.211.051.015.489.109 1.313.281v.496c-1.305-.066-2.231-.098-2.77-.098-.671 0-1.48.032-2.437.098v-.496c.578-.129 1.004-.219 1.285-.274.215-.039.352-.093.41-.16.078-.093.117-.285.117-.574.02-1.031.028-2.5.028-4.414l-.059-3.996v-.262c0-.187-.031-.316-.094-.39-.058-.071-.187-.133-.386-.18l-1.332-.258v-.496c1.097.066 2.007.098 2.742.098.769 0 1.613-.032 2.531-.098v.496l-1.359.266c-.172.043-.293.105-.36.183-.062.078-.093.219-.093.418l-.043 3.844c.839.02 1.726.031 2.66.031 1.203 0 2.289-.011 3.246-.031" clip-path="url(#w)"/><path transform="scale(1.333)" d="m41.77 56.21v-.496c1.253.066 2.636.098 4.14.098 1.582 0 3.317-.032 5.207-.098l.176 3.031h-.527c-.231-.847-.403-1.387-.52-1.621-.074-.16-.199-.273-.367-.348-.168-.07-.539-.105-1.121-.105h-3.594c-.031.703-.059 2.066-.082 4.082h2.281c.438 0 .723-.023.852-.07.133-.047.242-.137.328-.278.086-.136.18-.449.285-.933.016-.09.047-.223.094-.399h.527c-.023 1.125-.035 1.856-.035 2.196 0 .109.012.793.035 2.058h-.527c-.027-.152-.047-.265-.059-.344-.117-.699-.246-1.113-.39-1.242-.145-.129-.516-.195-1.114-.195h-2.269c-.004.539-.008.902-.008 1.086 0 2.152.02 3.309.051 3.473.019.105.078.187.176.242.125.074.734.199 1.832.371v.496c-1.207-.066-2.071-.098-2.602-.098l-2.801.098v-.496c.215-.043.375-.07.481-.09.648-.094 1.031-.203 1.152-.32.121-.121.18-.367.18-.746l.058-2.301c.004-.356.008-1.035.008-2.035 0-2.442-.012-3.821-.035-4.137-.016-.211-.066-.352-.156-.43-.117-.101-.528-.222-1.227-.363-.097-.016-.238-.043-.429-.086" clip-path="url(#v)"/><path transform="scale(1.333)" d="m54.32 61.31c0 1.777.391 3.113 1.168 4.004.781.89 1.766 1.335 2.957 1.335.789 0 1.489-.207 2.094-.621.609-.414 1.07-1.023 1.383-1.824.312-.797.472-1.683.472-2.652 0-1.219-.203-2.231-.601-3.031-.399-.805-.891-1.379-1.481-1.727-.586-.348-1.246-.52-1.98-.52-.805 0-1.523.211-2.16.633-.633.422-1.102 1.035-1.403 1.836-.3.797-.449 1.656-.449 2.567m-1.777.23c0-1.769.566-3.223 1.707-4.355 1.141-1.137 2.605-1.704 4.398-1.704 1.664 0 2.993.5 3.977 1.504.988 1.004 1.48 2.383 1.48 4.141 0 1.953-.554 3.492-1.664 4.621-1.113 1.129-2.574 1.695-4.382 1.695-1.7 0-3.043-.511-4.032-1.535-.992-1.027-1.484-2.48-1.484-4.367" clip-path="url(#u)"/><path transform="scale(1.333)" d="m68.6 61.16c.57.059 1.007.09 1.32.09.996 0 1.73-.223 2.211-.664.48-.445.719-1.059.719-1.848 0-.687-.211-1.234-.637-1.632-.426-.399-1.039-.602-1.848-.602-.293 0-.863.035-1.715.102zm-3.328-4.953v-.492c1.421.066 2.566.098 3.425.098.496 0 .957-.008 1.387-.032.57-.043.965-.066 1.188-.066 1.046 0 1.835.25 2.367.75.527.504.793 1.184.793 2.039 0 .574-.121 1.082-.36 1.523-.242.442-.586.813-1.039 1.118-.328.218-.797.41-1.406.578l2.676 3.527c.336.438.547.692.633.77.136.113.312.207.527.289.305.117.816.254 1.539.41v.496c-.855-.063-1.477-.09-1.867-.09-.449 0-.91.027-1.379.09-.246-.406-.574-.918-.992-1.531-.418-.614-.672-.977-.762-1.09-.055-.063-.109-.133-.156-.203l-1.785-2.449c-.481-.008-.969-.043-1.461-.106l.066 4.074c.008.164.059.285.145.364.129.109.535.226 1.218.351.098.016.246.047.45.094v.496c-.969-.066-1.821-.102-2.555-.102-.793 0-1.676.036-2.652.102v-.496l.339-.07c.758-.145 1.192-.266 1.293-.36.106-.094.164-.262.18-.504.008-.16.023-1.543.039-4.156l-.031-3.797c-.008-.582-.02-.914-.043-1-.027-.086-.078-.152-.156-.195-.258-.141-.672-.254-1.231-.348-.086-.015-.219-.043-.39-.082" clip-path="url(#t)"/><path transform="scale(1.333)" d="m80.71 66.22c.871.109 1.602.164 2.191.164.922 0 1.68-.149 2.278-.446.855-.433 1.504-1.07 1.949-1.906.441-.832.664-1.859.664-3.074 0-.637-.074-1.215-.223-1.742-.148-.524-.343-.942-.589-1.254-.364-.465-.832-.817-1.414-1.063-.583-.246-1.422-.367-2.516-.367-.664 0-1.442.043-2.34.133-.023 1.41-.035 3.016-.035 4.805 0 1.89.012 3.476.035 4.75m-3.43-10.02v-.496c1.067.066 2.223.098 3.473.098l3.598-.063c1.218 0 2.191.176 2.922.527.726.356 1.293.918 1.695 1.688.402.773.605 1.672.605 2.695 0 1.887-.644 3.446-1.925 4.676-1.282 1.231-3.004 1.844-5.165 1.844-.121 0-.613-.016-1.476-.047-.863-.035-1.371-.051-1.52-.051-.523 0-1.269.043-2.238.133v-.496c.883-.164 1.375-.266 1.473-.297.101-.035.172-.07.215-.113s.074-.102.093-.18c.024-.113.039-.57.051-1.371.031-1.75.047-3.027.047-3.824l-.043-3.535.008-.278c0-.269-.074-.441-.231-.515-.089-.055-.617-.188-1.582-.395" clip-path="url(#s)"/><path transform="scale(1.333)" d="m1.844 75.44c.328.047.621.071.879.071.582 0 1.015-.129 1.3-.395.282-.265.422-.629.422-1.09 0-.32-.078-.578-.234-.777-.16-.199-.352-.332-.578-.402-.223-.067-.578-.102-1.07-.102-.29 0-.528.004-.719.008zm-.012-3.078c.281.004.434.004.465.004.523 0 .902-.043 1.144-.125.243-.086.438-.234.586-.445.149-.211.223-.457.223-.734 0-.399-.145-.7-.437-.903-.208-.144-.547-.215-1.02-.215-.27 0-.563.024-.883.067-.055.453-.082 1.074-.082 1.863 0 .113 0 .273.004.488m-1.832-2.566v-.266c.551.035 1.063.051 1.531.051.305 0 .625-.008.957-.023.332-.016.586-.028.77-.028.617 0 1.082.129 1.383.391.3.262.449.594.449.996 0 .23-.055.457-.168.684-.113.226-.274.418-.477.57-.152.113-.379.219-.687.32.324.02.574.071.746.137.266.109.476.273.633.492.156.219.234.496.234.824 0 .668-.316 1.196-.941 1.582-.43.266-1.063.399-1.903.399-.191 0-.488-.012-.89-.031-.282-.012-.438-.02-.469-.02-.055 0-.445.016-1.168.051v-.266c.094-.019.168-.035.215-.043.441-.086.687-.148.738-.191.035-.028.059-.106.067-.231.023-.277.031-1.07.031-2.375l-.008-1.992c-.004-.414-.023-.656-.059-.73-.019-.035-.05-.067-.097-.086-.043-.024-.278-.082-.696-.168-.043-.012-.105-.028-.191-.047" clip-path="url(#r)"/><path transform="scale(1.333)" d="m7.18 72.64c0 .988.218 1.73.652 2.226.438.492.988.742 1.652.742.442 0 .832-.117 1.172-.347.34-.231.598-.567.774-1.012.175-.445.261-.938.261-1.477 0-.675-.109-1.234-.332-1.683-.226-.446-.5-.766-.828-.957-.332-.196-.699-.289-1.109-.289-.449 0-.852.113-1.207.351-.356.235-.617.574-.785 1.02-.168.445-.25.918-.25 1.426m-.989.128c0-.984.317-1.793.954-2.425.636-.629 1.457-.946 2.453-.946.933 0 1.672.278 2.222.836.551.559.828 1.325.828 2.305 0 1.086-.308 1.941-.929 2.57s-1.438.942-2.449.942c-.95 0-1.7-.282-2.25-.852-.555-.57-.829-1.379-.829-2.43" clip-path="url(#q)"/><path transform="scale(1.333)" d="m15.12 72.55c.316.035.559.051.734.051.551 0 .961-.121 1.227-.368.266-.242.398-.578.398-1.011 0-.379-.117-.676-.351-.895-.238-.219-.582-.332-1.028-.332-.164 0-.48.02-.953.055zm-1.859-2.75v-.262c.793.031 1.425.047 1.906.047.273 0 .531-.004.769-.012.317-.015.536-.019.661-.019.582 0 1.019.137 1.316.414.293.277.437.656.437 1.129 0 .32-.066.601-.199.844-.133.246-.328.453-.578.621-.18.117-.441.226-.781.316l1.492 1.965c.188.246.305.387.356.43.074.062.171.117.293.164.167.062.453.14.851.226v.266c-.473-.035-.82-.051-1.035-.051-.25 0-.504.016-.766.051-.136-.227-.32-.508-.55-.852-.231-.34-.372-.543-.426-.605-.028-.035-.059-.074-.082-.114l-.992-1.363c-.27-.004-.54-.023-.813-.058l.035 2.277c.008.09.035.156.082.203.074.059.305.125.688.195.054.008.14.028.254.051v.266c-.543-.035-1.02-.051-1.434-.051-.441 0-.937.016-1.484.051v-.266l.191-.039c.43-.082.672-.148.731-.199.058-.055.089-.149.101-.281.004-.09.012-.864.02-2.321l-.016-2.117c-.004-.324-.012-.512-.027-.558-.012-.051-.039-.086-.086-.11-.145-.078-.379-.144-.696-.195-.046-.008-.121-.024-.218-.043" clip-path="url(#p)"/><path transform="scale(1.333)" d="m20.66 72.64c0 .988.219 1.73.653 2.226.437.492.988.742 1.656.742.441 0 .828-.117 1.172-.347.339-.231.597-.567.773-1.012s.262-.938.262-1.477c0-.675-.113-1.234-.336-1.683-.223-.446-.5-.766-.828-.957-.328-.196-.696-.289-1.106-.289-.453 0-.855.113-1.211.351-.355.235-.617.574-.785 1.02-.164.445-.25.918-.25 1.426m-.988.128c0-.984.32-1.793.957-2.425.637-.629 1.453-.946 2.453-.946.93 0 1.672.278 2.223.836.55.559.828 1.325.828 2.305 0 1.086-.313 1.941-.934 2.57-.617.629-1.433.942-2.445.942-.949 0-1.699-.282-2.254-.852-.551-.57-.828-1.379-.828-2.43" clip-path="url(#o)"/><path transform="scale(1.333)" d="m26.67 69.8v-.266c.559.035 1.043.051 1.449.051.422 0 .91-.016 1.465-.051v.266c-.094.019-.164.035-.211.043-.426.066-.668.125-.719.172-.054.047-.086.148-.093.301-.008.41-.016 1.179-.016 2.308 0 .75.02 1.262.062 1.535.04.27.141.5.297.692.157.191.371.34.649.445.277.102.57.152.883.152.468 0 .851-.097 1.144-.293.293-.191.488-.453.578-.777.098-.328.145-.965.145-1.914 0-1.254-.012-1.992-.031-2.219-.012-.097-.04-.168-.086-.207-.051-.043-.274-.105-.68-.195-.039-.008-.106-.024-.191-.043v-.266c.585.035 1.035.051 1.339.051.344 0 .739-.016 1.18-.051v.266c-.082.023-.144.039-.187.051-.395.082-.618.14-.668.187-.055.047-.09.121-.098.235-.039.238-.063.937-.066 2.097-.004.899-.02 1.469-.051 1.711-.039.336-.11.61-.211.817-.102.203-.262.398-.473.582-.211.187-.453.324-.726.41-.36.113-.739.168-1.129.168-.438 0-.828-.051-1.172-.16-.348-.11-.61-.254-.801-.442-.187-.183-.328-.402-.422-.652s-.14-.613-.14-1.09l.027-2.047c0-.758-.004-1.187-.012-1.281-.012-.149-.035-.246-.066-.297-.028-.043-.063-.074-.11-.098-.039-.015-.25-.062-.636-.136-.051-.012-.125-.028-.223-.055" clip-path="url(#m)"/><path transform="scale(1.333)" d="m41.41 72.63v.266l-.691.164c-.074.019-.125.043-.16.078-.032.035-.055.086-.067.152-.027.133-.035.469-.035 1.008 0 .32.008.758.035 1.312-.133.02-.418.079-.851.18-.571.125-.93.195-1.082.215-.289.035-.602.051-.926.051-1.059 0-1.871-.278-2.438-.836-.57-.563-.851-1.324-.851-2.289 0-1.047.332-1.899 1-2.551.664-.652 1.551-.977 2.656-.977.277 0 .539.016.793.047.059.008.57.098 1.543.274-.004.164-.004.297-.004.394 0 .403.02.856.059 1.36h-.348c-.137-.512-.27-.848-.391-1.012s-.316-.293-.593-.395c-.36-.14-.75-.207-1.168-.207-.934 0-1.633.352-2.102 1.055-.328.492-.492 1.102-.492 1.824 0 .926.262 1.629.777 2.106.52.476 1.176.715 1.965.715.5 0 1.024-.106 1.574-.313.012-.324.02-.797.02-1.418 0-.336-.012-.535-.028-.594-.019-.058-.054-.105-.109-.136-.07-.043-.273-.098-.613-.168l-.172-.039v-.266l1.539.051c.34 0 .727-.016 1.16-.051" clip-path="url(#l)"/><path transform="scale(1.333)" d="m46.91 72.43-.004-.325-.004-.976-.008-.848c-.003-.125-.023-.203-.054-.234-.051-.051-.168-.09-.356-.117l-.613-.137v-.262c.688.031 1.184.047 1.488.047.336 0 .801-.016 1.395-.047v.262c-.496.101-.778.164-.84.191-.063.028-.105.059-.125.094-.035.051-.055.219-.055.496-.008.449-.011 1.223-.011 2.317l.027 2.136v.125c0 .141.023.231.078.27.082.062.398.14.941.234v.266c-.824-.035-1.343-.051-1.566-.051-.371 0-.82.016-1.348.051v-.266l.836-.183c.051-.02.09-.051.118-.09.042-.063.062-.184.07-.356l.019-2.121c-.797-.012-1.406-.015-1.832-.015-.457 0-.937.003-1.449.015l.016 2.18c0 .156.011.254.043.297.031.043.109.082.234.117.031.008.277.062.742.156v.266c-.73-.035-1.25-.051-1.551-.051-.375 0-.832.016-1.367.051v-.266c.325-.07.567-.121.727-.152.121-.02.195-.051.23-.09.043-.051.067-.156.067-.32.008-.575.011-1.395.011-2.461l-.027-2.231v-.144c0-.106-.019-.18-.051-.219-.035-.039-.109-.074-.222-.102l-.75-.144v-.262c.613.031 1.125.047 1.535.047.43 0 .902-.016 1.414-.047v.262l-.766.148c-.097.028-.164.059-.199.102-.039.047-.055.125-.055.234l-.023 2.153c.465.007.961.015 1.48.015.668 0 1.274-.008 1.805-.015" clip-path="url(#k)"/><path transform="scale(1.333)" d="m57.44 74.82.188.344c-.481.305-.945.531-1.391.676-.445.144-.902.219-1.379.219-.605 0-1.152-.141-1.644-.414-.492-.274-.864-.661-1.117-1.165-.258-.503-.383-1.058-.383-1.671 0-1 .328-1.817.98-2.454.653-.636 1.52-.953 2.594-.953.66 0 1.398.137 2.207.411-.004.261-.008.46-.008.589 0 .383.028.786.074 1.207h-.378c-.11-.523-.231-.882-.356-1.082-.129-.195-.332-.355-.617-.472-.281-.117-.633-.176-1.047-.176-.875 0-1.535.309-1.977.93-.343.48-.515 1.089-.515 1.82 0 .871.238 1.559.722 2.062.485.504 1.118.754 1.899.754.336 0 .664-.043.984-.132.317-.09.707-.254 1.164-.493" clip-path="url(#j)"/><path transform="scale(1.333)" d="m59.34 72.64c0 .988.219 1.73.652 2.226.438.492.988.742 1.656.742.438 0 .828-.117 1.168-.347.344-.231.598-.567.778-1.012.172-.445.257-.938.257-1.477 0-.675-.109-1.234-.332-1.683-.222-.446-.5-.766-.828-.957-.328-.196-.699-.289-1.109-.289-.449 0-.852.113-1.207.351-.356.235-.617.574-.785 1.02-.168.445-.25.918-.25 1.426m-.989.128c0-.984.317-1.793.954-2.425.636-.629 1.457-.946 2.457-.946.929 0 1.672.278 2.218.836.555.559.829 1.325.829 2.305 0 1.086-.309 1.941-.93 2.57s-1.438.942-2.449.942c-.946 0-1.7-.282-2.25-.852-.555-.57-.829-1.379-.829-2.43" clip-path="url(#i)"/><path transform="scale(1.333)" d="m65.35 69.8v-.266c.558.035 1.043.051 1.449.051.426 0 .914-.016 1.469-.051v.266c-.094.019-.164.035-.215.043-.422.066-.664.125-.719.172s-.082.148-.09.301c-.012.41-.015 1.179-.015 2.308 0 .75.019 1.262.058 1.535.043.27.141.5.297.692.16.191.375.34.652.445.278.102.571.152.883.152.469 0 .852-.097 1.145-.293.293-.191.484-.453.578-.777.094-.328.144-.965.144-1.914 0-1.254-.011-1.992-.035-2.219-.008-.097-.035-.168-.086-.207-.047-.043-.273-.105-.675-.195-.043-.008-.106-.024-.196-.043v-.266c.59.035 1.039.051 1.344.051.344 0 .738-.016 1.18-.051v.266c-.082.023-.145.039-.188.051-.394.082-.617.14-.672.187-.054.047-.086.121-.097.235-.036.238-.059.937-.067 2.097 0 .899-.019 1.469-.047 1.711-.039.336-.113.61-.215.817-.101.203-.257.398-.468.582-.211.187-.453.324-.727.41-.359.113-.738.168-1.129.168-.441 0-.832-.051-1.176-.16-.343-.11-.609-.254-.796-.442-.192-.183-.332-.402-.426-.652-.09-.25-.137-.613-.137-1.09l.024-2.047c0-.758 0-1.187-.008-1.281-.012-.149-.035-.246-.067-.297-.027-.043-.062-.074-.113-.098-.035-.015-.246-.062-.637-.136-.047-.012-.121-.028-.222-.055" clip-path="url(#h)"/><path transform="scale(1.333)" d="m72.64 69.8v-.266c.382.035.683.051.902.051.176 0 .492-.016.945-.051l1.274 1.59c.117.141 1.019 1.231 2.703 3.266v-.91c0-.446-.016-1.258-.039-2.438-.012-.555-.028-.855-.043-.902-.016-.047-.051-.09-.106-.129-.051-.039-.261-.094-.629-.164-.047-.008-.117-.024-.211-.047v-.266c.539.035.969.051 1.286.051.312 0 .738-.016 1.285-.051v.266c-.086.019-.145.035-.188.039-.41.086-.64.141-.687.168-.035.016-.063.043-.082.082-.032.047-.055.137-.067.269 0 .059-.004.465-.008 1.227-.003.762-.007 1.5-.007 2.211 0 .844.011 1.551.031 2.133l-.293.133-1.871-2.325-2.453-2.957.023 2.657c.012 1.16.031 1.781.047 1.859.012.055.043.102.082.141.066.058.289.121.672.187.047.004.113.02.203.039v.266c-.461-.035-.848-.051-1.168-.051-.262 0-.726.016-1.387.051v-.266c.106-.023.188-.043.243-.055.363-.062.57-.121.628-.171.036-.028.059-.079.075-.141.031-.141.05-.66.07-1.57.016-1.285.023-2.047.023-2.282 0-.753-.011-1.171-.031-1.257-.015-.059-.054-.11-.121-.149-.066-.043-.351-.105-.855-.187-.055-.012-.137-.028-.246-.051" clip-path="url(#g)"/><path transform="scale(1.333)" d="m86.28 74.82.188.344c-.485.305-.95.531-1.391.676-.445.144-.906.219-1.379.219-.605 0-1.152-.141-1.644-.414-.493-.274-.868-.661-1.118-1.165-.257-.503-.382-1.058-.382-1.671 0-1 .328-1.817.98-2.454.652-.636 1.52-.953 2.594-.953.66 0 1.394.137 2.207.411-.004.261-.008.46-.008.589 0 .383.023.786.074 1.207h-.379c-.109-.523-.23-.882-.355-1.082-.129-.195-.332-.355-.617-.472-.282-.117-.633-.176-1.047-.176-.875 0-1.535.309-1.977.93-.343.48-.515 1.089-.515 1.82 0 .871.238 1.559.722 2.062.485.504 1.117.754 1.899.754.336 0 .664-.043.984-.132.317-.09.703-.254 1.164-.493" clip-path="url(#f)"/><path transform="scale(1.333)" d="m89.93 69.53v.266c-.106.023-.184.039-.235.051-.398.066-.629.132-.691.195-.066.059-.098.195-.098.41v.156l-.027 1.813.012 2.629c0 .207.031.344.093.398.059.059.27.11.629.149.067.007.168.031.301.062v.266c-.484-.035-.949-.051-1.398-.051-.461 0-.965.016-1.52.051v-.266c.09-.023.152-.043.199-.047.426-.07.668-.133.731-.191.062-.059.09-.207.09-.445l-.016-.223.023-1.652c0-1.696-.007-2.637-.023-2.817-.004-.097-.035-.176-.098-.23-.058-.055-.285-.117-.683-.192-.055-.011-.133-.035-.239-.066v-.266c.657.035 1.172.051 1.543.051.411 0 .883-.016 1.407-.051" clip-path="url(#e)"/><path transform="scale(1.333)" d="m90.35 69.8v-.266c.73.035 1.226.051 1.484.051.16 0 .676-.016 1.547-.051v.266c-.539.094-.852.152-.945.183-.067.024-.114.055-.145.102-.043.063-.063.191-.07.391-.004.199-.008 1.312-.008 3.34 0 .398.004.933.012 1.601h1.992c.297 0 .492-.016.582-.055.09-.035.183-.113.281-.238.094-.121.273-.43.539-.926h.379l-.359 1c-.063.184-.141.426-.231.731-1.246-.035-2.332-.051-3.258-.051-.652 0-1.257.016-1.82.051v-.266c.461-.082.734-.14.813-.172.082-.031.136-.074.168-.129.027-.054.042-.211.042-.472l.028-2.766-.012-1.777c0-.156-.023-.25-.066-.289-.071-.063-.293-.125-.664-.192-.067-.011-.164-.031-.289-.066" clip-path="url(#d)"/></g></symbol>
<symbol id="ekc" viewBox="0 0 3835.9365 3855.0588"><defs><linearGradient id="a" x1="59.19" x2="93.65" y1="12.97" y2="12.97" gradientUnits="userSpaceOnUse"><stop stop-color="#006D69" offset="0"/><stop stop-color="#009A95" offset=".48"/><stop stop-color="#00B5AF" offset=".8"/><stop stop-color="#00B5AF" offset="1"/></linearGradient><mask id="b" x="59" y="2" width="35" height="22" maskUnits="userSpaceOnUse"><path d="m59.19 23.06 34.47-14.27-14.28-5.915z" /></mask></defs><title>The University of Kent</title><g transform="matrix(39.97 0 0 39.97 45.23 -114.9)"><g><path d="m10.8 56.67v2.386h-9.947v-12.85h9.706v2.386h-6.754v2.79h5.967v2.312h-5.967v2.973h6.99z"/><path d="m20.31 50.13c.818.7288 1.227 1.825 1.227 3.293v5.637h-2.679v-1.232c-.54.9176-1.542 1.374-3.01 1.374-.7603 0-1.416-.1258-1.972-.3827-.5558-.257-.9806-.6135-1.274-1.064-.2936-.451-.4404-.9648-.4404-1.542 0-.9176.346-1.641 1.038-2.166.6921-.5243 1.756-.7865 3.204-.7865h2.276c0-.624-.1888-1.106-.5663-1.442-.3776-.3356-.9491-.5034-1.704-.5034-.5244 0-1.044.0839-1.552.2464-.5086.1626-.9386.388-1.295.6712l-1.028-1.998c.5401-.3775 1.185-.6711 1.935-.8809.7498-.2097 1.526-.3093 2.323-.3093 1.531 0 2.706.3618 3.524 1.091zm-2.444 6.806c.3776-.2255.6502-.5611.8075-1.002v-1.007h-1.966c-1.174 0-1.762.3828-1.762 1.159 0 .3671.1416.6555.43.8704.2884.215.6816.3199 1.185.3199s.9229-.1154 1.3-.3408z" style=""/><path d="m24.88 58.9c-.7813-.2045-1.405-.4562-1.872-.7603l.9543-2.055c.4405.2831.9753.5086 1.599.6869.6239.1782 1.237.2674 1.835.2674 1.211 0 1.814-.2989 1.814-.8967 0-.2831-.1678-.4824-.4981-.6082-.3304-.1206-.839-.2255-1.526-.3094-.8075-.1206-1.473-.2621-1.998-.4247-.5244-.1573-.9805-.4404-1.369-.8442-.388-.4037-.5767-.9805-.5767-1.725 0-.6239.1782-1.18.54-1.662.3618-.4824.8862-.86 1.578-1.127.6922-.2674 1.51-.4037 2.449-.4037.6974 0 1.39.0786 2.082.2307.6921.152 1.264.3618 1.715.6344l-.9543 2.034c-.8705-.4876-1.814-.7341-2.842-.7341-.6135 0-1.07.0839-1.374.2569-.3041.1731-.4614.3933-.4614.6607 0 .3041.1625.5191.4981.645.3304.1206.8547.2412 1.578.3513.8075.1363 1.468.2779 1.982.4299.5139.1521.9596.43 1.337.8337.3775.4038.5663.9648.5663 1.688 0 .6135-.1835 1.159-.5506 1.636-.367.4771-.9018.8494-1.604 1.112-.7026.2622-1.536.3933-2.506.3933-.818 0-1.62-.0997-2.407-.3042z" style=""/><path d="m39.91 58.58c-.2831.2097-.6292.3618-1.038.4667-.409.1048-.8389.1573-1.295.1573-1.175 0-2.082-.2989-2.727-.8967-.6397-.5977-.9648-1.479-.9648-2.643v-4.053h-1.521v-2.202h1.521v-2.402h2.863v2.402h2.459v2.202h-2.459v4.022c0 .4142.1049.7393.3199.9648.2149.2255.5191.3408.9071.3408.4509 0 .8389-.1206 1.159-.367l.7708 2.019z" style=""/><path d="m51.26 54.01-1.725 1.798v3.246h-2.952v-12.85h2.952v5.998l5.689-5.998h3.303l-5.322 5.726 5.637 7.121h-3.471z" style=""/><path d="m69.42 54.93h-7.472c.1363.6135.451 1.096.9543 1.452.5034.3566 1.127.5296 1.872.5296.5139 0 .9701-.0786 1.369-.2307.3985-.152.7655-.3932 1.112-.7236l1.521 1.652c-.9281 1.064-2.286 1.594-4.074 1.594-1.112 0-2.097-.215-2.952-.6502-.8547-.4352-1.515-1.038-1.982-1.809-.4666-.7707-.6973-1.646-.6973-2.622s.2307-1.84.6869-2.616c.4614-.776 1.091-1.384 1.888-1.82.8022-.4352 1.699-.6501 2.69-.6501s1.84.2097 2.622.6239c.7813.4143 1.4 1.012 1.846 1.788.4457.7761.6712 1.678.6712 2.706 0 .0367-.021.2936-.0525.7708zm-6.701-3.178c-.4404.367-.7079.8704-.8075 1.505h4.866c-.0996-.6239-.367-1.122-.8075-1.494-.4404-.3723-.9805-.5611-1.615-.5611-.6345 0-1.196.1835-1.636.5506z" style=""/><path d="m80.16 50.13c.7551.7341 1.127 1.825 1.127 3.267v5.652h-2.863v-5.212c0-.7813-.173-1.369-.5138-1.751-.3408-.3828-.839-.5768-1.484-.5768-.7236 0-1.295.2254-1.725.6711s-.6397 1.112-.6397 1.992v4.882h-2.863v-9.873h2.737v1.159c.3775-.4143.8494-.7393 1.41-.9648.5611-.2255 1.18-.3408 1.856-.3408 1.222 0 2.213.367 2.963 1.101z" style=""/><path d="m90.08 58.58c-.2831.2097-.6292.3618-1.038.4667-.409.1048-.839.1573-1.295.1573-1.175 0-2.082-.2989-2.727-.8967-.6397-.5977-.9648-1.479-.9648-2.643v-4.053h-1.521v-2.202h1.521v-2.402h2.863v2.402h2.459v2.202h-2.459v4.022c0 .4142.1049.7393.3199.9648.2149.2255.5191.3408.9071.3408.4509 0 .8389-.1206 1.159-.367l.7708 2.019z" style=""/><path d="m3.451 76.78c-1.059-.5663-1.888-1.358-2.496-2.37-.6082-1.007-.9071-2.15-.9071-3.424 0-1.274.3041-2.412.9071-3.424.6082-1.012 1.437-1.798 2.496-2.37 1.059-.5663 2.249-.8547 3.571-.8547 1.112 0 2.118.194 3.02.5873.8966.3933 1.657.9543 2.265 1.688l-1.909 1.762c-.8704-1.002-1.945-1.505-3.23-1.505-.797 0-1.505.1731-2.129.5244-.624.346-1.112.8337-1.458 1.458-.3461.6239-.5244 1.332-.5244 2.129s.173 1.505.5244 2.129c.3513.624.8337 1.112 1.458 1.458.624.3513 1.332.5244 2.129.5244 1.285 0 2.36-.5086 3.23-1.521l1.909 1.762c-.6134.7445-1.368 1.316-2.276 1.704-.9071.3932-1.914.5873-3.031.5873-1.311 0-2.491-.2832-3.55-.8547z" style=""/><path d="m15.84 76.9c-.8285-.4352-1.473-1.038-1.935-1.809-.4667-.7708-.6974-1.646-.6974-2.622s.2307-1.856.6974-2.622c.4666-.7708 1.112-1.374 1.935-1.809.8285-.4352 1.757-.6502 2.8-.6502s1.972.215 2.79.6502 1.463 1.038 1.924 1.809c.4666.7708.6973 1.646.6973 2.622s-.2307 1.856-.6973 2.622c-.4667.7707-1.106 1.374-1.924 1.809-.818.4353-1.751.6502-2.79.6502s-1.972-.2149-2.8-.6502zm4.609-2.443c.4719-.4929.7079-1.159.7079-1.992s-.236-1.494-.7079-1.992c-.4719-.4982-1.075-.7446-1.809-.7446s-1.342.2464-1.82.7446c-.4771.4929-.7131 1.159-.7131 1.992s.2412 1.494.7131 1.992c.4772.4981 1.085.7446 1.82.7446s1.337-.2465 1.809-.7446z" style=""/><path d="m25.78 63.79h2.863v13.62h-2.863z" style=""/><path d="m31.12 63.79h2.863v13.62h-2.863z" style=""/><path d="m46.08 73.28h-7.472c.1363.6135.4509 1.096.9543 1.452.5033.3566 1.127.5296 1.872.5296.5138 0 .97-.0787 1.368-.2307.3985-.1521.7656-.3933 1.112-.7236l1.521 1.652c-.9281 1.064-2.286 1.594-4.074 1.594-1.112 0-2.097-.215-2.952-.6502s-1.515-1.038-1.982-1.809-.6974-1.646-.6974-2.622.2307-1.84.6869-2.616c.4614-.776 1.091-1.384 1.888-1.82.8023-.4352 1.699-.6502 2.69-.6502s1.84.2098 2.622.624c.7812.4142 1.4 1.012 1.846 1.788.4456.776.6711 1.678.6711 2.706 0 .0367-.021.2937-.0524.7708zm-6.701-3.178c-.4404.3671-.7078.8704-.8074 1.505h4.866c-.0996-.624-.3671-1.122-.8075-1.494-.4405-.3723-.9805-.561-1.615-.561-.6344 0-1.196.1835-1.636.5505z" style=""/><path d="m58.06 67.53v8.222c0 1.809-.4719 3.156-1.416 4.037-.9439.8809-2.318 1.321-4.132 1.321-.9543 0-1.861-.1154-2.716-.3513-.8547-.2307-1.568-.5663-2.129-1.007l1.138-2.055c.4142.3408.9438.6135 1.578.818.6344.1992 1.274.3041 1.909.3041.991 0 1.72-.2255 2.192-.6712.4719-.4457.7078-1.122.7078-2.029v-.4195c-.7445.818-1.788 1.227-3.12 1.227-.9071 0-1.736-.1992-2.485-.5977-.7551-.3985-1.348-.9596-1.788-1.678-.4405-.7235-.6607-1.552-.6607-2.496 0-.9439.2202-1.772.6607-2.496.4404-.7236 1.038-1.279 1.788-1.678s1.578-.5978 2.485-.5978c1.431 0 2.522.4719 3.267 1.41v-1.269h2.716zm-3.55 6.376c.4824-.4457.7236-1.033.7236-1.751 0-.7184-.2412-1.306-.7236-1.751-.4824-.4456-1.106-.6711-1.861-.6711-.7551 0-1.384.2255-1.872.6711-.4876.4457-.734 1.033-.734 1.751 0 .7183.2464 1.306.734 1.751.4877.4457 1.112.6711 1.872.6711s1.379-.2254 1.861-.6711z" style=""/><path d="m70.17 73.28h-7.472c.1363.6135.451 1.096.9543 1.452.5034.3566 1.127.5296 1.872.5296.5139 0 .9701-.0787 1.369-.2307.3985-.1521.7655-.3933 1.112-.7236l1.521 1.652c-.9281 1.064-2.286 1.594-4.074 1.594-1.112 0-2.097-.215-2.952-.6502-.8547-.4352-1.515-1.038-1.982-1.809-.4666-.7708-.6973-1.646-.6973-2.622s.2307-1.84.6869-2.616c.4614-.776 1.091-1.384 1.888-1.82.8022-.4352 1.699-.6502 2.69-.6502s1.84.2098 2.622.624 1.4 1.012 1.846 1.788.6712 1.678.6712 2.706c0 .0367-.021.2937-.0525.7708zm-6.701-3.178c-.4404.3671-.7079.8704-.8075 1.505h4.866c-.0996-.624-.367-1.122-.8075-1.494-.4404-.3723-.9805-.561-1.615-.561-.6345 0-1.196.1835-1.636.5505z" style=""/><path d="m72.87 77.25c-.7813-.2045-1.405-.4562-1.872-.7603l.9543-2.056c.4404.2832.9753.5086 1.599.6869.624.1783 1.238.2674 1.835.2674 1.211 0 1.814-.2988 1.814-.8966 0-.2831-.1678-.4824-.4982-.6082-.3303-.1206-.8389-.2255-1.526-.3094-.8075-.1206-1.473-.2622-1.998-.4247-.5243-.1573-.9805-.4405-1.368-.8442-.388-.4038-.5768-.9805-.5768-1.725 0-.624.1783-1.18.5401-1.662s.8861-.8599 1.578-1.127c.6921-.2674 1.51-.4038 2.449-.4038.6974 0 1.39.0787 2.082.2307.6922.1521 1.264.3618 1.715.6345l-.9543 2.034c-.8704-.4877-1.814-.7341-2.842-.7341-.6135 0-1.07.0839-1.374.2569s-.4614.3933-.4614.6607c0 .3041.1625.5191.4981.6449.3303.1206.8547.2412 1.578.3513.8075.1364 1.468.2779 1.982.43s.9595.43 1.337.8337c.3775.4037.5663.9648.5663 1.688 0 .6135-.1836 1.159-.5506 1.636-.367.4771-.9019.8494-1.604 1.112-.7026.2621-1.536.3932-2.506.3932-.8179 0-1.62-.0996-2.407-.3041z" style=""/><path d="m10.47 89.34h1.306v4.903c-.5978.5244-1.311.9281-2.129 1.211-.818.2831-1.683.4247-2.585.4247-1.285 0-2.443-.2832-3.471-.8442-1.028-.5611-1.835-1.342-2.422-2.339-.5873-.9963-.8809-2.113-.8809-3.351 0-1.237.2936-2.354.8809-3.35.5873-.9963 1.395-1.778 2.422-2.339 1.028-.5611 2.192-.8442 3.487-.8442.9805 0 1.877.1573 2.7.4667.818.3093 1.51.776 2.076 1.384l-.8442.8652c-1.017-1.002-2.307-1.505-3.87-1.505-1.038 0-1.977.2307-2.816.6869-.839.4614-1.494 1.096-1.972 1.909-.4772.8128-.7184 1.72-.7184 2.727 0 1.007.2412 1.909.7184 2.716.4772.8075 1.133 1.442 1.966 1.909.8337.4666 1.767.6973 2.805.6973 1.321 0 2.443-.3303 3.361-.991v-4.331z" style=""/><path d="m17.49 86.53c.6082-.3303 1.353-.4928 2.249-.4928v1.269l-.3146-.021c-1.017 0-1.809.3094-2.386.9386-.5768.624-.8599 1.5-.8599 2.622v4.918h-1.306v-9.653h1.248v1.888c.3041-.6502.7603-1.138 1.369-1.468z" style=""/><path d="m23.22 95.22c-.7446-.4194-1.332-1.007-1.762-1.751-.43-.7445-.6397-1.589-.6397-2.533 0-.9438.2149-1.788.6397-2.532.4299-.7446 1.017-1.327 1.762-1.741.7445-.4142 1.584-.6239 2.512-.6239s1.767.2097 2.512.6239c.7446.4143 1.332.9963 1.751 1.741.4195.7445.6345 1.589.6345 2.532 0 .9439-.2098 1.788-.6345 2.533-.4247.7446-1.007 1.332-1.751 1.751-.7446.4248-1.584.6345-2.512.6345s-1.767-.2097-2.512-.6345zm4.357-.991c.5453-.3146.97-.755 1.274-1.332.3042-.5768.4615-1.232.4615-1.966s-.1521-1.39-.4615-1.966c-.3041-.5768-.7288-1.017-1.274-1.332s-1.159-.4667-1.846-.4667-1.3.1573-1.846.4667c-.5453.3093-.9753.755-1.285 1.332-.3093.5768-.4666 1.232-.4666 1.966s.1573 1.39.4666 1.966c.3094.5768.7394 1.017 1.285 1.332.5453.3094 1.159.4667 1.846.4667s1.3-.1573 1.846-.4667z" style=""/><path d="m41.56 86.11v9.653h-1.248v-1.762c-.3408.5873-.8127 1.044-1.41 1.368-.5978.3251-1.285.4877-2.056.4877-1.258 0-2.255-.3513-2.984-1.054-.7288-.7027-1.091-1.736-1.091-3.094v-5.6h1.306v5.469c0 1.017.2517 1.788.7498 2.312.5034.5243 1.216.7865 2.145.7865 1.017 0 1.814-.3094 2.402-.9281.5872-.6187.8809-1.479.8809-2.58v-5.065h1.3z" style=""/><path d="m52.2 86.65c.7341.409 1.311.9858 1.725 1.736.4143.7498.624 1.594.624 2.548s-.2097 1.825-.624 2.569c-.4142.7445-.9857 1.327-1.715 1.736-.7288.4089-1.552.6134-2.47.6134-.7813 0-1.489-.1625-2.118-.4876s-1.148-.797-1.552-1.421v5.375h-1.306v-13.21h1.248v1.909c.3932-.6345.9071-1.127 1.552-1.468.6397-.3408 1.369-.5139 2.176-.5139.9071 0 1.725.2045 2.459.6135zm-.7131 7.582c.5506-.3146.9806-.755 1.295-1.332s.4666-1.232.4666-1.966-.1573-1.384-.4666-1.956c-.3094-.5663-.7446-1.012-1.295-1.332-.5505-.3198-1.164-.4771-1.835-.4771-.6711 0-1.3.1573-1.846.4771-.5453.3199-.9753.7603-1.285 1.332-.3094.5715-.4667 1.222-.4667 1.956s.1573 1.39.4667 1.966c.3093.5768.7393 1.017 1.285 1.332.5453.3094 1.159.4667 1.846.4667s1.285-.1573 1.835-.4667z" style=""/><path d="m6.413 14.92v5.626h12.52v4.85h-12.52v5.742h14.29v4.85h-20.15v-25.92h19.74v4.85z" style=""/><path d="m33.27 25.43-3.739 4.148v6.408h-5.852v-25.92h5.852v11.77l10.78-11.77h6.774l-9.737 10.81 10.4 15.11h-7.037z" style=""/><path d="m63.1 29.85c-3.744 2.16-8.526.8809-10.69-2.863-2.16-3.744-.8809-8.526 2.863-10.69 1.872-1.08 4.001-1.3 5.936-.7813l1.39-5.186c-3.262-.8704-6.853-.5033-10.01 1.316-6.308 3.644-8.468 11.71-4.829 18.02 3.644 6.308 11.71 8.468 18.02 4.829 3.157-1.82 5.27-4.751 6.145-8.007l-5.186-1.39c-.5191 1.935-1.772 3.67-3.644 4.751" style=""/></g><g mask="url(#b)"><path d="m93.65 2.875h-34.47v20.19h34.47z" fill="url(#a)" style=""/></g></g></symbol>
<symbol id="lc" viewBox="0 0 3835.9365 3855.0588"><g transform="matrix(28.14 0 0 28.14 -9.94 1241)"><path d="m69.74 26.64h-8.871v-17.03l-.569-.964h2.792v16.36h7.266zm15.21 0h-9.886v-17.03l-.569-.964h11.07l-.616 1.656h-7.663v6.174h8.278l-.615 1.66h-7.663v6.84h8.278zm16.52 0h-9.884v-17.03l-.569-.964h11.07l-.618 1.656h-7.661v6.174h8.278l-.618 1.656h-7.66v6.844h8.278z"/><path d="m118.1 24.88c-.321.2-.667.371-.99.57a9.07 9.07 0 01-4.449 1.185h-5.286v-17.03l-.569-.963h6.821a8.743 8.743 0 018.822 8.723 8.6 8.6 0 01-4.349 7.511m-5.561-14.58h-2.941v14.7h3.93a6.267 6.267 0 003.336-.79 7.353 7.353 0 003.336-6.277 7.616 7.616 0 00-7.661-7.636m21.63 15.47-.989.569a5.419 5.419 0 01-2.694.691 7.823 7.823 0 01-4.918-1.656l.742-1.976a7.565 7.565 0 005.066 2 3.24 3.24 0 001.532-.348 3.5 3.5 0 001.482-2.94c0-5.535-8.648-2.4-8.648-8.575a4.661 4.661 0 012.347-4.052l.988-.569a4.883 4.883 0 012.472-.667 7.6 7.6 0 014.572 1.532l-.767 2a7.305 7.305 0 00-4.671-1.9 3.223 3.223 0 00-1.358.321 3.557 3.557 0 00-.446.42 3.25 3.25 0 00-.889 2.225c0 5.337 8.673 2.175 8.673 8.6a4.942 4.942 0 01-2.5 4.325m-66.59 20.64a7.249 7.249 0 01-7.307-7.208 7.135 7.135 0 013.605-6.229c.273-.156.529-.293.8-.45a7.648 7.648 0 013.682-1 8.735 8.735 0 013.859.863l-.604 1.587a7.167 7.167 0 00-3.976-1.136 5.252 5.252 0 00-2.762.665 6.141 6.141 0 00-2.8 5.25 6.364 6.364 0 006.345 6.367 7.326 7.326 0 003.841-1.02l.137.9a7.878 7.878 0 01-4.819 1.411m19.7-.313-2.077-4.681h-6.326l-1.745 3.918.276.763h-2.116l6.012-13.5-.353-.764h1.9l6.347 14.26zm-5.23-11.81-2.606 5.857h5.191zm16.53 11.13-.784.45a4.294 4.294 0 01-2.135.548 6.2 6.2 0 01-3.9-1.312l.588-1.567a5.991 5.991 0 004.014 1.588 2.566 2.566 0 001.214-.277 2.777 2.777 0 001.176-2.33c0-4.387-6.857-1.9-6.857-6.8a3.7 3.7 0 011.861-3.212l.784-.45a3.87 3.87 0 011.959-.529 6.017 6.017 0 013.623 1.214l-.607 1.587a5.789 5.789 0 00-3.7-1.508 2.568 2.568 0 00-1.078.255 3 3 0 00-.353.332 2.58 2.58 0 00-.705 1.764c0 4.231 6.876 1.724 6.876 6.816a3.918 3.918 0 01-1.976 3.431m14.59-12.26h-3.623v12.95h-1.784v-12.95h-4.112l.509-1.312h9.5zm11.38 12.95h-7.032v-13.5l-.451-.763h2.214v12.97h5.759zm11.93 0h-7.837v-13.5l-.451-.763h8.778l-.491 1.312h-6.072v4.9h6.563l-.491 1.313h-6.072v5.424h6.563zm-116.9-24.46a.557.557 0 00-.161-.047l.416.187c-.085-.05-.165-.1-.255-.14m-5.092 3.977c.171-.175.351-.347.523-.51a5.89 5.89 0 00-.523.51m24.29.91-.253 2.923-.807-1.664-1.377 3.288 1.731-.51a3.728 3.728 0 01-2.073 2.163 1.942 1.942 0 01-2.529-1.863c0-.9.55-2.027 1.183-1.63.576.366.011 1.316.011 1.316a2 2 0 001.568-2.264 1.213 1.213 0 00-1.942-.88 3.857 3.857 0 00.818-4.09c-2.139.969-1.568 3.861-1.568 3.861-1.078-1.7-2.214-.816-2.618.211a2.106 2.106 0 00.584 2.254c-.1-.572.114-1.395.838-1.144.606.212.445 1.243-.218 2.192a2.213 2.213 0 01-3.437.335 4.329 4.329 0 01-.84-3.2l2.09 2.076.317-4.864-2.185 1.349 1.607-3.584h-4.908l1.608 3.584-2.18-1.349.316 4.864 2.09-2.076a4.345 4.345 0 01-.838 3.2 2.216 2.216 0 01-3.44-.335c-.669-.95-.827-1.981-.217-2.192.72-.251.938.572.838 1.144a2.11 2.11 0 00.584-2.254c-.406-1.027-1.54-1.914-2.618-.211 0 0 .57-2.892-1.568-3.861a3.85 3.85 0 00.817 4.09 1.212 1.212 0 00-1.94.88c-.359 1.793 1.568 2.266 1.568 2.266s-.565-.951.009-1.316c.635-.4 1.183.731 1.183 1.63a1.941 1.941 0 01-2.528 1.863 3.706 3.706 0 01-2.066-2.163l1.721.51-1.378-3.29-.81 1.659-.243-2.918a7.091 7.091 0 00-1.58 1.914s2 1.995 3.168 6.945c1.28-1.537 4.646-2.687 8.741-2.9.391-.022.8-.03 1.213-.03h.015c.343 0 .673 0 1 .018h.174l.152.009c3.989.2 7.3 1.282 8.66 2.765 1.169-4.85 3.141-6.813 3.141-6.813a7.147 7.147 0 00-1.584-1.908"/><path d="m22.18 9.585a.561.561 0 01-.557-.56.713.713 0 01.021-.142c0-.008.011-.013.011-.02a.461.461 0 01.049-.119.492.492 0 01.189-.191c.01 0 .014-.01.021-.012.029-.017.066-.03.1-.046a.147.147 0 01.031-.007.457.457 0 01.132-.022.605.605 0 01.107.013.582.582 0 01.1.03.7.7 0 01.133.078.067.067 0 01.018.012.61.61 0 01.168.249c0 .005 0 .014.005.026a.5.5 0 01.026.15.559.559 0 01-.558.56m1.482-2.55a42.43 42.43 0 00-4.1-5.489 5.885 5.885 0 00-3.763-1.544 5.451 5.451 0 00-1.619.249 5.508 5.508 0 00-3.815 5.951c.441 2.993 1.94 4.773 3.948 7.472 4.3 5.779 1.276 7.847 1.276 7.847s-4.18-8.856-14.01-19.71c0 0-.741 4.232 1.153 7.4l-2.052-2.335a10.16 10.16 0 001.541 7.724l-2.204-1.947a10.75 10.75 0 002.751 7.565l-2.533-1.973s.4 4.452 3.4 6.643l-2.594-.823s1.369 4.047 4.621 5.729l-1.376.3a5.867 5.867 0 004.8 2.558c-2.779 1.13-5.36 4.435-6.534 7.548l.855-.067a9.655 9.655 0 00-1.824 3.746l1.133-.673a7.529 7.529 0 00-.738 2.147c.329-.183 1.058-.5 1.058-.5a6.107 6.107 0 00-.208 1.347 58.08 58.08 0 017.175-4.113 6.729 6.729 0 01.026 1.635 2.332 2.332 0 01-1.226 1.719 1.907 1.907 0 01-.24 1.843c-.538.459-1.174.244-1.779.018-.3-.111-.763-.413-1.013-.228a4.576 4.576 0 00-1.17 1.72h12.62v-.005s-1.02-2.321-2.15-2.109c-1.071.2-1.591.727-3.237.832-1.622.1-1.048-2.125-.207-3.935a11.59 11.59 0 014.719-5c.012-.009.022-.009.033-.018a32.24 32.24 0 00-1.15-4.843 10.5 10.5 0 00-3.053-4.961 17.2 17.2 0 012.095-2.869 3.82 3.82 0 01.25-.258c.211-.229.394-.4.522-.515.812-.773 1.605-1.413 1.605-1.413l.771 1.881a5.53 5.53 0 01.475-2.9l.654-1.482.9.406a.564.564 0 01.162.047c.091.043.17.092.255.14l.166.073a4.261 4.261 0 012.362 2.769c.094.012.683.025.919.043a3.492 3.492 0 00-.037-.189c-1.193-5.348-4.5-9.077-6.378-11.33-.88-1.049-4.941-5.542-3.894-8.85a3.068 3.068 0 012.84-1.912 3.343 3.343 0 012.665 1.558 4.331 4.331 0 01.882 2.19c0 .086.011.171.015.263.077 1.074-.4 2.311.766 3.635 1.09 1.255 1.832 3.645 2.334 5.864.291-.075.794-.379.767-1.593-.011-.585-.061-1.04-.1-1.439a2.8 2.8 0 01.252-2l.017-.035a3.547 3.547 0 00.216-3.809m8.124 1.995a.854.854 0 01.026-.156c.005-.009.005-.021.012-.03a.542.542 0 01.162-.244.083.083 0 01.021-.012.547.547 0 01.129-.078.626.626 0 01.1-.03.6.6 0 01.109-.01.471.471 0 01.13.018.125.125 0 01.03.007.713.713 0 01.1.046c.009.007.015.007.02.012a.557.557 0 01.191.186v.005a.533.533 0 01.052.122.037.037 0 01.008.016.521.521 0 01.023.149.558.558 0 01-1.116 0m-.708 1.813.022.031a2.817 2.817 0 01.249 2c-.039.4-.086.858-.1 1.439-.026 1.217.48 1.517.775 1.59.495-2.216 1.238-4.6 2.328-5.86 1.16-1.324.69-2.561.765-3.636.005-.09.013-.176.021-.263a4.319 4.319 0 01.877-2.19 3.351 3.351 0 012.667-1.555 3.065 3.065 0 012.843 1.915c1.047 3.306-3.013 7.8-3.9 8.849-1.879 2.249-5.181 5.973-6.374 11.33a9.157 9.157 0 01-.037.19c.237-.02.829-.031.922-.044a4.215 4.215 0 012.362-2.773l.166-.075a2.6 2.6 0 01.256-.14.581.581 0 01.16-.047l.9-.407.652 1.484a5.511 5.511 0 01.476 2.9l.777-1.883s.788.641 1.6 1.415a6.908 6.908 0 01.521.515 3.26 3.26 0 01.245.258 17.31 17.31 0 012.1 2.869 10.47 10.47 0 00-3.057 4.96 32.26 32.26 0 00-1.15 4.845c.011.01.026.014.034.024a11.52 11.52 0 014.717 5c.841 1.81 1.416 4.032-.206 3.93-1.653-.1-2.161-.624-3.237-.827-1.128-.216-2.152 2.109-2.152 2.109h12.64a4.632 4.632 0 00-1.179-1.72c-.247-.186-.707.118-1.008.229-.6.226-1.239.445-1.778-.02a1.886 1.886 0 01-.237-1.843 2.31 2.31 0 01-1.23-1.718 6.528 6.528 0 01.023-1.638 57.6 57.6 0 017.177 4.12 6.091 6.091 0 00-.207-1.355s.733.321 1.058.513a7.724 7.724 0 00-.74-2.155l1.133.676a9.653 9.653 0 00-1.822-3.748l.855.068c-1.176-3.112-3.753-6.418-6.535-7.548a5.887 5.887 0 004.806-2.554l-1.378-.3c3.249-1.686 4.624-5.733 4.624-5.733l-2.6.823c3-2.191 3.4-6.643 3.4-6.643l-2.533 1.978a10.75 10.75 0 002.751-7.572l-2.21 1.947a10.14 10.14 0 001.546-7.725l-2.055 2.34c1.9-3.172 1.154-7.4 1.154-7.4-9.825 10.85-14 19.71-14 19.71s-3.018-2.068 1.273-7.846c2.006-2.7 3.505-4.48 3.95-7.47a5.509 5.509 0 00-5.436-6.207 5.867 5.867 0 00-3.773 1.545 42.13 42.13 0 00-4.1 5.489 3.549 3.549 0 00.216 3.809"/><path d="m37.04 37.2a4.317 4.317 0 00-1.137-1.013c-2.458-1.584-6.827-1.857-8.6-1.857h-.049c-.011 0-.021.005-.028.005-1.973 0-6.132.28-8.506 1.875a4.546 4.546 0 00-1.1 1 .04.04 0 000 .016s.014.054.035.154c0 .024.011.048.011.065 0 0 .268 2.154.272 2.149.008.12.008.239.008.349l.007-.011v.025a2.5 2.5 0 01.84-.981c1.064-.832 3.4-1.9 8.467-1.975h.073c5.523.067 7.84 1.311 8.776 2.157a2.124 2.124 0 01.611.789v-.028.009-.056l.015-.218c-.005 0-.005-.005-.01-.005a13.33 13.33 0 01.155-1.515c.051-.323.094-.589.124-.754v-.012l.031-.153v-.015z"/><path d="m27.31 43.93c-5.186 0-8.013-1.334-8.013-2.013 0-.144.12-.31.353-.486a7.638 7.638 0 001.535.618 22.16 22.16 0 006.126.772 22.16 22.16 0 006.122-.772 7.8 7.8 0 001.537-.618c.232.176.352.342.352.486 0 .679-2.828 2.013-8.01 2.013m0-4.033a19.3 19.3 0 016.449.921 19.29 19.29 0 01-6.449.924 19.28 19.28 0 01-6.45-.924 19.29 19.29 0 016.45-.921m8.492.921a3.21 3.21 0 00-.475-.386c-.025-.016-.05-.031-.074-.049-.092-.06-.178-.119-.284-.177a8.207 8.207 0 00-1.537-.621 22.27 22.27 0 00-6.122-.763 22.27 22.27 0 00-6.126.763 8.032 8.032 0 00-1.535.621 2.685 2.685 0 00-.353.221 2.88 2.88 0 00-.482.391 1.556 1.556 0 00-.474 1.1c0 .97.954 1.756 2.843 2.324a22.24 22.24 0 006.126.76 22.24 22.24 0 006.122-.76c1.891-.568 2.844-1.353 2.844-2.324a1.569 1.569 0 00-.474-1.1"/></g></symbol>
<symbol id="nt" viewBox="0 0 3835.9365 3855.0588"><g transform="matrix(9.094 0 0 9.094 632.5 -3.165e-6)"><path d="m195.4 99.9c2.7-4.8 6.4-9.6 10.5-13.6 6.4-6.2 14.3-9.7 19.6-9.7 5.4 0 7.5 1.9 8.5 1.9.9 0 1.7-1.3 3-1.7.5-.1.4-.3.9-.3.6 0 1.8 1.1 1.8 1.7 0 .5-.2.5-.3.9-.3 1.4-1.5 2.1-1.5 3s2.7 2.5 2.7 9.2c0 6.4-4.1 16.1-9.9 23-3.5 4.2-6.5 6.1-7.7 7.2-.7.7-1 2-1.8 2.7-.9.8-1.3.1-1.6.7s-1.2.8-1.8.6-.1.3-.7.6-.7.2-1.4.4-.3.6-2.2 1c.6.3 3.6-.1 4.3-.1s2.7-.6 3.4-.6.7-.2 1.4-.2.6.1 1 .1 1.7-.6 2.5 0c.3-.3 1.7-.2 2-.2.4 0 .5.4 1 .5s1.4 0 2.1.2c.2.1.4.1.8.5 1.4-.1 2.6.7 2.8 1.1.6.7 1 .2 1.3.5s1.3.6 1.5 1.2c.1.3-.1.5.1.7s.9.2 1.1.3.4.4.6.6c.2.3.9.5.7 1.3 1.1 0 2 1.3 2 2v.7s.3.3.7.4 1.1 1.7.9 2.4c-.2.6.1.5.1.9 0 6.1-11.4 11-26.8 11-5.9 0-8.2-2.4-8.5-3.2-.2-.5-.2-.7-.2-1.1-.2-.3-.8-1.2-.3-2.1 0 0-.3-.5-.3-1.2.1-1.4.6-1.3.6-1.8 0-.3-.1-.5-.1-.8 0-.7.3-.8.5-1.8.2-.8.3-.2.7-.9s.4-.2.4-1.1.2-1 1.1-1.3c0 0 .2-1.3 1.2-1.4.4 0 .2-.5.4-1s.8-.1 1-.6c.1-.3 1.1-1.2 2.2-1.4-3.8-.1-6.1.9-7.7.8-1.2-.1-1.6-.3-6.6.8-6.2 1.4-17.4 7.1-23 10.6-7 4.3-25.1 16.9-31 27.9-1 1.7-3 12-5.5 21.3-2.8 10.7-6.2 21-6.4 22.8 1.6-2.2 3.2-3.8 5-3.8 3.1 0 2.4 3.8 2.7 4.1.5.3.5-.8.5-1.8s.2-3.2 1.7-5.6c1.7-2.6 4.6-5.4 8.2-8.2 3.5-2.8 5.9-9.9 7.7-15.2 1.9-5.3 5.3-11.1 10-11.1 3.3 0 5.3 2.9 6 4.1.8 1.5 1.8 4.6 2.9 4.4 2.7-.5 9.3-15.1 14.9-20.9 2.6-2.7 5.5-6.1 10.5-6.1 8.8 0 7.5 12.3 11 12.3 2.3 0 3.9-3.5 5-5 2.3-3.2 9.4-9 13.6-9 4.1 0 4.8 3.3 4.8 6.3 0 2.4-.6 4.5 1.8 4.5 1.5 0 5.8-7.6 11.2-7.6 2.1 0 4.4 1.4 4.4 4.1 0 2.5-.4 3.9-.4 4.7s.7 1.3 1.7 1.3c1.2 0 2.3-.3 3.3-.3 2.3 0 4.4 1.5 4.4 4.6 0 3.6-1.9 6.2-4.3 8.9-1 1.1-1.3 1.9-.5 3.2 1.3 2.1 3.3 2.5 3.3 4.3 0 4.3-2.8 5.8-5.4 6.4-2.5.6-7.2.8-7.2 4.1 0 2.9 3.8 4.8 3.8 9.8 0 2.2-.8 4-3.7 5.6-3.2 1.8-9.6 2-10.6 2-2.9 0-7-.6-9.3-.6-2.4 0-4.5.1-4.5 1.5 0 2.6 5.4 4.6 5.4 10.1 0 5.7-8.7 6.7-13.8 6.7-6.1 0-10.8-1.1-15.8-2.8-2.6-.9-7.9-3.6-11.9-3.6-2.3 0-3.5.8-3.5 1.8 0 1.7 4.1 4.7 4.1 8.8 0 3.5-2.9 4.9-5.7 4.9-9.9 0-16.5-11.7-30.8-11.7-3.6 0-5.1 1.5-9.4 1.5-5.5 0-7.1-1.9-7-5.1-3.5 1.6-7.8 5.1-7.8 9.8 0 3.7.4 5.7 1.8 7.1 1.4 1.5 3.1 2 3.4 3.2 1 1-.4 3.6.2 8.3.5 3.6 1.6 8.4 2.2 9.6.5 1.1-3.5 1.5-4.6 1.5-1.8 0-7.9.1-8.1-1.5-.6-4.7-4.6-22-6-26-2-5.2-2.8-4.7-6.1-7.2-2.8-2.3-16-11.3-23-11.3-1.9 0-.9-.3-2.4-.3-1 0-.2-.2-.8-.2s-.5.5-1.5.5c-.6 0-.2 1.7-.6 1.7-.6 0-.4.6-.5 1.3s-.7 1.1-.8 1.7-.8 0-.8.7.3.7 0 1.1c-.6.8-.5 1.2-1 1.2s-.5.2-.5.4c0 .9.4.8-.2 1.3s-1.4.5-1.4 1.3c0 .3-.2.5-.3.8-.4 0-.8.4-1 .7s-.1-.2-.5.5-.3.6-.8.6c-1.4 0-.9.7-2.8.7-6.6 0-14.4-11.4-14.4-20.5 0-6.3.9-6.2 1.1-7.4.2-1.3 1.2-2.5 1.9-2.6.8-.1.5-.4 1.4-.3-.1-.5.7-.6 1.1-.8.6-.3 1-.3 1.8.2.3-.2.5-.5 1.1-.5s.8.6 1.2.6c.7 0 .5-.2 1.1-.2s.9.1 1.6.5c.3-.1.5-.3.9-.2.3.1.9.3 1 .7.4 0 .9-.1 1.7.5.3.2.6.6.7.9.6.1.3-.4 1.2.1s.9.6 1.4 1.3.4.1 1.1.5c1.1.7.6 1.1 1.1 1.5.3 0 .4 0 .8.3.5.4.1.7.5.9.2.1.4 0 .5.7.1.5.8.8 1.4 1.6.4.5 1.4 1.5 1.7 1.5.4 0 .3-.4-.3-1.2-.8-1.1-.8-.6-1.4-2.2-.2-.5-.7-.3-.7-1.1 0-.6-.9-1.3-.9-1.8s0-.7-.3-.9-.4-.3-.5-.6c-.3-.8.1-.8.1-1.3s-.5.1-.6-.3 0-.9 0-1.3-.4-.2-.4-.9c0-.6.1-.4.1-1.1s-.4-.5-.5-1.1.2-.5.2-1.2-.2-.1-.2-.7c0-.7.3-.5.3-1.4 0-.3.2-.7.3-1 .1-.4-.3-.4 0-.8 1-1.5 2.6-3.9 10.7-3.9 10 0 19 2.5 22.8 7.6.3.4.7.4.8 1.3.1.7.4.8.4 1.9 0 .6-.4 1.2-.5 1.9-.2 1.2.2 2.4-.5 2.4-.6 0-.2 2-.8 2-.4 0-.1.7-1 .7-.7 0 0 2-1 2.2-.3.1-1-.2-1.2.8-.1.4-.5 1.4-1.2 1.5-1 .2-.6.2-1.1.6-1.3 1.2-.4 1.4-.8 1.8-1 1-1.2-1.1-1.9-.3-.3.4-.5.4-.5.8 0 .9-.2.6-.9.4-.8-.3-1.5.7-1.2 1 .4.5-.1.6-.6.2-.2-.2-.6-.1-.9-.2-.5-.2-1.1 0-1.1.5 0 .8.1.8-.2.8s-.2-.8-.7-.8-1 .1-1 .1c.2.6 7.6 4.2 9.5 5.1 4.4 2.5 7.7 5.1 9.9 5.1 2.9 0 10.9-19.8 10.4-29-.2-2.8-.3-3.5-.2-3.9.2-.9-1.9-.8-1.9-4.7 0-.9.2-2.7.9-3.6.4-.5 1.5-1.1 2.1-1.1.7 0 2.4 1.4 2.6 2.2.8-1.2 2.9-11 2.9-14 0-1.1-.4-2.4-.8-2.8s-3.9-1.1-6.9-5c-.2-.3-.6-.5-.8-.3s0 .3 0 1c0 1-1.6 3.6-4.2 3.6-4.4 0-5.6-2-10.5-2-2.4 0-4 .9-5.3 2-2.4 1.9-6.5 3.8-8.3 3.8-4.5 0-2.3-6.3-5-6.3-2.1 0-2.1 3.3-2.8 5.5-1.3 3.5-9.4 13.1-13.9 13.1-4.4 0-2.7-7.7-5.3-7.7-1.6 0-2.6 2.3-3.1 3.8-2 6.5-4.6 11.1-7.2 14.2-2.6 3-6.2 8.5-10.2 8.5-3.9 0-2.9-6.2-4.8-7.6-.9-.7-2.6-1.5-3.6.4-2 4-4.3 11.7-10.1 11.7-3.6 0-4.4-2.6-4.5-4.5s-.1-2.3-.4-3.3c-.3-1.1-.6-2.1-1.7-2.1-.8 0-1.7.5-2.4 2.4-.8 2-3.5 6.2-8.5 6.2-4.4 0-6-1.8-6.1-3.1-.1-1.8.4-4.3-3.1-3.4-3.8 1-6.1-4.7-6.1-6.9 0-4.1 2.8-7.1 2.8-8.5 0-1.8-4-2.7-4-7.1 0-9.7 10.3-7.1 10.3-11.6 0-4.1-7.3-6-7.3-10.3 0-8.7 11.5-10.3 13.6-10.3s4.6.7 5.8.7 4.3-.6 4.3-2-1.3-3.3-2.4-4.9c-1.2-1.6-2.7-3-2.7-4.9 0-6.1 6.4-8.3 10.8-8.3 8.8 0 14.9 1.8 17.2 2.8 2.5 1.1 4.6 2.9 6.8 2.9 1.1 0 1.8-.4 1.8-1.4 0-2-3.4-4.6-3.4-8.5 0-3 2.7-6.3 7.4-6.3s11.4 2.7 15 4.9c3.5 2.2 9.6 8 12.4 8 3 0-.4-9.3 6.3-9.3 5.8 0 13 6.3 17.8 15.3.9 1.7 3.4 5.3 5.6 6.5 3.5 1.9 7.7 8.4 8.3 13.2.2 1.5 1.1 2.3 1.4 2.3-.3-1.5-.5-4.4 1.5-4.8 1.9-.4 4.9 2 5.7 3 .6-1.2-1-5.4-1.5-6.6-.4-1-3.1-10.2-3.8-11.8-.7-1.7-3.7-9-4.7-10.9-1.7-3.2-5.1-4.5-6.7-5.4-2.5-1.4-5.1-4.6-5.8-5.2s-.7-.5-1.1-.5c-.3 0-.9 2.3-4.2 2.3-3.4 0-7.5-5.3-11.7-7.5-5.9-3.2-13.6-4.2-16.5-4.6-2.1-.3-8.9-1.8-12.1-3.8-2.2-1.4-2.9-3.3-2.9-4.9 0-3.3 4.1-5.3 5.1-5.7s2-1 2-1.7c0-1-1.8-1.8-3-2.5-1.7-1-4.2-1.3-7.6-1.4s-8.9-1-12-2.4-9.9-6.2-9.9-10.2c0-2.8 1.5-4.9 3.8-6.1s6.2-2.4 6.2-4.2c0-1.3-1.4-1.6-2.3-2.3-1.1-.8-7-1.9-8.9-2.3-2.9-.6-15-2.9-15-10.4 0-7.1 10.6-7.3 10.6-8.8 0-1.6-3.1-2.6-6.5-4.6-3.9-2.5-8.1-5.9-8.1-9.2 0-6.7 9.5-4.7 9.5-7.1 0-.5-.6-1.5-1-1.9l-2.6-3.1c-1-1-2.1-3-2.1-3.9 0-2.7 2.8-2.7 2.8-3.9 0-.8-.3-1-.3-1.7 0-1.8 2-3.7 5.8-2.8 1.3.3 2 .4 3.2.2s1.9-1.9 4.4-1.9c3.3 0 4.8 3.5 5.6 4.5.7.9 1 1.7 1.7 1.7 1 0 1.2-2.5 2.2-3.8.6-.9 2.5-2.4 4.2-2.4 5.3 0 9.5 4.4 11.7 9.2.4 1 1.1 2.2 1.8 2.2 2.1 0 3.9-8.7 10.2-8.7 3.9 0 5.7 1.4 7.1 2.7 2.3 2.1 2.7 6.7 3.8 9.8 1 2.8.4 10.9.4 12.5s.4 6.2 1.8 6.2c2.5 0 4.9-6.4 10.9-6.4 2.6 0 6.7 3.6 6.7 12 0 9.1-4 12.1-4 18.7 0 1.3.2 2.6 1.4 2.6s1.9-2 2.6-2.8c1.1-1.2 3-2 5.8-2 3.2 0 4.7 3 4.7 7.1 0 2.8-1.7 14-1.7 19.7s2 8.6 2 15.4c0 5.3-2.5 8.6-2.5 10.9 0 1 1.3 2.7 2.3 2.4-1.1-1.4 0-4.9.9-5.4.7-.4 1.9-.1 2.5.1-.7-4.5 1.1-8.7 2.6-9 2.2-.5 6.5 3.7 6.8 4.4.6-.6 1.2-1.2 2.1-1.2 1.3 0 2.6 1 3.8 2.3.3-.5.4-.9.4-1.6 0-1.1-2.1-6.7-2.1-11.4 0-5.7 2.7-11 2.7-15.4 0-8.4-2.7-13.5-2.7-17.5 0-8.4 2.5-12.8 6.5-12.8 3.8 0 6 3.8 8.4 3.8 1.8 0 2.8-3.4 3.1-5.5 1.4-9.6 2.1-30.3 12.6-35.2 2.2-1.1 4.9-.3 6.7 1.7 3.7 3.8 4.4 8.3 7.2 8.3 2 0 4.6-4.9 5.6-7 1.5-3.3 6.7-8.8 11.9-8.8 9 0 5.8 9.8 10.2 9.8 4.6 0 8.1-8.4 15.6-8.4 2.2 0 4.6 2.3 4.6 5 0 1.8-.2 3.1-.2 4s0 2 1 2 3.9-3.1 6.1-3.1c3.8 0 2.9 3.7 4.7 4.9 1 .7 4.8 1 4.8 4.9 0 5-4.8 4.9-4.8 7.2 0 1.6 4.1 2.8 4.1 5.6 0 2.9-2.9 6.2-5.4 6.5-1.9.2-8.2 0-8.2 2.7 0 .6 1.6 1.5 2.9 2.7 1.7 1.5 3.5 3.1 3.5 5.7 0 3.5-3.9 6.9-16.1 6.9-2 0-2.5-.2-4.6-.2-.9 0-2.6.1-4.1.5-2.2.6-4.2 1.4-4.2 2.5 0 3.5 6.9 3.4 6.9 7.7 0 3.2-2.3 5.4-5.2 7-2 1.2-9.6 4.1-14.1 4.1-9.1 0-10.3-1.1-12.9-1.1-2.3 0-4 .8-4 2.1 0 1.4 1.4 2.2 3.4 3.3 1.3.7 6.5 2.5 6.5 6.8 0 4.5-7.5 6.9-10.7 7.5-8.3 1.7-13 4-18.7 9.5-2.9 2.8-9.1 10.4-15.3 7.4-2.6 3.8-6.5 7.6-7 10.9-.9 5.6 7.4 31.7 11.1 31.7 2.3 0 5.5-2.9 10.2-6.1 3.1-2 6.4-4.3 10.1-6.9 16.2-11.1 29.7-16.7 29.7-18.9 0-1.7-1.4-3.1-1.9-4-.4-.8-.9-1.1-1.3-1.8s-.3-.9-.6-1.5-.7-1-.9-1.8c-.2-.7-.2-.8-.1-1.4-.6-.2-.6-.7-.6-1.3s.1-.6.1-1.2-.4-.2-.4-1.1c0-1.2.4-1.1.4-1.8 0-.2-.7-.6-.7-1.1 0-.9.7-1.1.7-1.7s-.5-.4-.5-1c0-2 .6-1.7.8-2.2-.1-.4.1-1.7.8-2.1.7-.5 1.5-1.5 2.1-1.4-.3.4 0-.3.8-.2" style=""/><polygon points="48.8 373 29.6 373 29.6 423 19 423 19 373 0 373 0 367.3 48.8 367.3" style=""/><path d="m97.6 415.5c-.8 3.7-3.9 8.2-10.3 8.2-7.4 0-11-5.8-11-13.1v-23.6l10.4-.8v25.8c0 4.9 2.2 7.2 5.5 7.2 2.5 0 4.3-1.8 5.4-3.7" style=""/><path d="m109.2 415.9c0 3.7.5 5.8 3.1 5.8-1.5 1-3.9 1.6-5.9 1.6-4.3 0-7.6-2.2-7.6-7.7v-28.6l10.4-.8z" style=""/><path d="m146.3 389.6c5-2.5 10.2-7.8 13-12.5h1.3v9.5h8.9v4h-8.9v22.9c0 3.5 2 6.4 6.2 6.4 2 0 4.1-.9 5.4-2.9-1 3.1-4 6.7-10.4 6.7-7.6 0-11.5-5.7-11.5-13.1v-20.1h-4.1v-.9z" style=""/><path d="m56.6 394.1c1.6-4.7 5-8.7 10.4-8.7 1.2 0 2.3.3 3.2.6l-.9 7.1c-4.9-3.3-10.6 0-11.9 5.9v24h-10.1v-36.1l9.4-.8z" style=""/><path d="m128.1 420.3c-4.5 0-7.9-3-9.8-6.3l-.9 6.6c2.7 1.7 6.8 3.3 11.3 3.3 8.9 0 14.2-5.5 14.2-11.3 0-6.9-5-9.6-9.4-12.1-4.1-2.2-8.1-3.5-8.1-7.2 0-1.8 1.6-4.2 5.3-4.2 3 0 5.6 2 7.8 4.9l1.2-6.1c-2.2-1.1-5.3-2.3-9.3-2.3-8.5 0-12.9 5.3-12.9 11 0 5.8 4.1 9.2 8.4 11.5 4.3 2.4 8.6 3.7 8.6 7.3-.1 2.8-2.7 4.9-6.4 4.9" style=""/><polygon points="272.7 295.2 282.9 294.4 282.9 351.2 272.7 351.2" style=""/><path d="m98.3 317.5c5-2.5 10.2-7.8 13-12.5h1.3v9.5h8.9v4h-8.9v22.9c0 3.5 2 6.4 6.2 6.4 2 0 4.1-.9 5.4-2.9-1 3.1-4 6.7-10.4 6.7-7.5 0-11.5-5.7-11.5-13.1v-20.1h-4.1v-.9z" style=""/><path d="m131.5 298.3c0 2.3 1.8 4 4.1 4 2.2 0 4.1-1.7 4.1-4 0-2.2-1.8-4-4.1-4s-4.1 1.8-4.1 4" style=""/><polygon points="140.7 314.3 130.4 315.2 130.4 351.2 140.7 351.2" style=""/><path d="m226.6 344.4c0 3.7.5 5.8 3.1 5.8-1.5 1-3.9 1.6-5.9 1.6-4.3 0-7.6-2.2-7.6-7.7v-19.5c0-4.1-2.3-6.4-5.3-6.4-2.1 0-4.3 1-5.6 2.8 1.2-3.5 4.5-7.3 10.6-7.3 6.8 0 10.7 5.1 10.7 11.6z" style=""/><polygon points="193.6 351.2 193.6 315.1 204 314.3 204 351.2" style=""/><path d="m167.1 348.7c-5 0-8.1-4.7-8.1-15.7 0-10.9 3.1-15.7 8.1-15.7s8.1 4.8 8.1 15.7-3.1 15.7-8.1 15.7m0-35c-9.6 0-18.9 7.5-18.9 19.2 0 11.8 9.3 19.2 18.9 19.2 9.5 0 18.9-7.5 18.9-19.2-.1-11.6-9.4-19.2-18.9-19.2" style=""/><path d="m263.1 344.4c0 3.7.5 5.8 2.9 5.8-1.3 1-3.6 1.6-5.5 1.6-4 0-7-2.2-7-7.7v-12.8c-7 3.6-9.4 6.5-9.4 11.1 0 5.9 5.9 6.7 8.2 3.6-1.2 3.3-4.3 5.7-8.1 5.7-5.3 0-9.6-3.6-9.6-8.9 0-8.7 10.9-11.1 18.9-15v-3.7c0-3.7-2-5.7-6.4-5.7-2.6 0-5.9.8-8.2 1.7v-4.4c1.7-.7 5.9-1.6 9.7-1.6 6.8 0 14.4 2.5 14.4 13.3v17z" style=""/><path d="m92.1 344.4c0 3.7.5 5.8 2.9 5.8-1.3 1-3.6 1.6-5.5 1.6-4 0-7-2.2-7-7.7v-12.8c-7 3.6-9.4 6.5-9.4 11.1 0 5.9 5.9 6.7 8.1 3.6-1.2 3.3-4.3 5.7-8.1 5.7-5.3 0-9.6-3.6-9.6-8.9 0-8.7 10.9-11.1 18.9-15v-3.7c0-3.7-2-5.7-6.4-5.7-2.6 0-5.9.8-8.1 1.7v-4.4c1.7-.7 5.9-1.6 9.7-1.6 6.8 0 14.4 2.5 14.4 13.3v17z" style=""/><polygon points="49.8 333.8 49.8 295.2 56 295.2 56 351.9 53.7 351.9 12.7 312.9 12.7 351.2 6.1 351.2 6.1 294.6 8.7 294.6" style=""/></g></symbol>
<symbol id="uk" viewBox="0 0 3835.9365 3855.0588"><g transform="matrix(9.094 0 0 9.094 632.5 -3.165e-6)"><path d="m195.4 99.9c2.7-4.8 6.4-9.6 10.5-13.6 6.4-6.2 14.3-9.7 19.6-9.7 5.4 0 7.5 1.9 8.5 1.9.9 0 1.7-1.3 3-1.7.5-.1.4-.3.9-.3.6 0 1.8 1.1 1.8 1.7 0 .5-.2.5-.3.9-.3 1.4-1.5 2.1-1.5 3s2.7 2.5 2.7 9.2c0 6.4-4.1 16.1-9.9 23-3.5 4.2-6.5 6.1-7.7 7.2-.7.7-1 2-1.8 2.7-.9.8-1.3.1-1.6.7s-1.2.8-1.8.6-.1.3-.7.6-.7.2-1.4.4-.3.6-2.2 1c.6.3 3.6-.1 4.3-.1s2.7-.6 3.4-.6.7-.2 1.4-.2.6.1 1 .1 1.7-.6 2.5 0c.3-.3 1.7-.2 2-.2.4 0 .5.4 1 .5s1.4 0 2.1.2c.2.1.4.1.8.5 1.4-.1 2.6.7 2.8 1.1.6.7 1 .2 1.3.5s1.3.6 1.5 1.2c.1.3-.1.5.1.7s.9.2 1.1.3.4.4.6.6c.2.3.9.5.7 1.3 1.1 0 2 1.3 2 2v.7s.3.3.7.4 1.1 1.7.9 2.4c-.2.6.1.5.1.9 0 6.1-11.4 11-26.8 11-5.9 0-8.2-2.4-8.5-3.2-.2-.5-.2-.7-.2-1.1-.2-.3-.8-1.2-.3-2.1 0 0-.3-.5-.3-1.2.1-1.4.6-1.3.6-1.8 0-.3-.1-.5-.1-.8 0-.7.3-.8.5-1.8.2-.8.3-.2.7-.9s.4-.2.4-1.1.2-1 1.1-1.3c0 0 .2-1.3 1.2-1.4.4 0 .2-.5.4-1s.8-.1 1-.6c.1-.3 1.1-1.2 2.2-1.4-3.8-.1-6.1.9-7.7.8-1.2-.1-1.6-.3-6.6.8-6.2 1.4-17.4 7.1-23 10.6-7 4.3-25.1 16.9-31 27.9-1 1.7-3 12-5.5 21.3-2.8 10.7-6.2 21-6.4 22.8 1.6-2.2 3.2-3.8 5-3.8 3.1 0 2.4 3.8 2.7 4.1.5.3.5-.8.5-1.8s.2-3.2 1.7-5.6c1.7-2.6 4.6-5.4 8.2-8.2 3.5-2.8 5.9-9.9 7.7-15.2 1.9-5.3 5.3-11.1 10-11.1 3.3 0 5.3 2.9 6 4.1.8 1.5 1.8 4.6 2.9 4.4 2.7-.5 9.3-15.1 14.9-20.9 2.6-2.7 5.5-6.1 10.5-6.1 8.8 0 7.5 12.3 11 12.3 2.3 0 3.9-3.5 5-5 2.3-3.2 9.4-9 13.6-9 4.1 0 4.8 3.3 4.8 6.3 0 2.4-.6 4.5 1.8 4.5 1.5 0 5.8-7.6 11.2-7.6 2.1 0 4.4 1.4 4.4 4.1 0 2.5-.4 3.9-.4 4.7s.7 1.3 1.7 1.3c1.2 0 2.3-.3 3.3-.3 2.3 0 4.4 1.5 4.4 4.6 0 3.6-1.9 6.2-4.3 8.9-1 1.1-1.3 1.9-.5 3.2 1.3 2.1 3.3 2.5 3.3 4.3 0 4.3-2.8 5.8-5.4 6.4-2.5.6-7.2.8-7.2 4.1 0 2.9 3.8 4.8 3.8 9.8 0 2.2-.8 4-3.7 5.6-3.2 1.8-9.6 2-10.6 2-2.9 0-7-.6-9.3-.6-2.4 0-4.5.1-4.5 1.5 0 2.6 5.4 4.6 5.4 10.1 0 5.7-8.7 6.7-13.8 6.7-6.1 0-10.8-1.1-15.8-2.8-2.6-.9-7.9-3.6-11.9-3.6-2.3 0-3.5.8-3.5 1.8 0 1.7 4.1 4.7 4.1 8.8 0 3.5-2.9 4.9-5.7 4.9-9.9 0-16.5-11.7-30.8-11.7-3.6 0-5.1 1.5-9.4 1.5-5.5 0-7.1-1.9-7-5.1-3.5 1.6-7.8 5.1-7.8 9.8 0 3.7.4 5.7 1.8 7.1 1.4 1.5 3.1 2 3.4 3.2 1 1-.4 3.6.2 8.3.5 3.6 1.6 8.4 2.2 9.6.5 1.1-3.5 1.5-4.6 1.5-1.8 0-7.9.1-8.1-1.5-.6-4.7-4.6-22-6-26-2-5.2-2.8-4.7-6.1-7.2-2.8-2.3-16-11.3-23-11.3-1.9 0-.9-.3-2.4-.3-1 0-.2-.2-.8-.2s-.5.5-1.5.5c-.6 0-.2 1.7-.6 1.7-.6 0-.4.6-.5 1.3s-.7 1.1-.8 1.7-.8 0-.8.7.3.7 0 1.1c-.6.8-.5 1.2-1 1.2s-.5.2-.5.4c0 .9.4.8-.2 1.3s-1.4.5-1.4 1.3c0 .3-.2.5-.3.8-.4 0-.8.4-1 .7s-.1-.2-.5.5-.3.6-.8.6c-1.4 0-.9.7-2.8.7-6.6 0-14.4-11.4-14.4-20.5 0-6.3.9-6.2 1.1-7.4.2-1.3 1.2-2.5 1.9-2.6.8-.1.5-.4 1.4-.3-.1-.5.7-.6 1.1-.8.6-.3 1-.3 1.8.2.3-.2.5-.5 1.1-.5s.8.6 1.2.6c.7 0 .5-.2 1.1-.2s.9.1 1.6.5c.3-.1.5-.3.9-.2.3.1.9.3 1 .7.4 0 .9-.1 1.7.5.3.2.6.6.7.9.6.1.3-.4 1.2.1s.9.6 1.4 1.3.4.1 1.1.5c1.1.7.6 1.1 1.1 1.5.3 0 .4 0 .8.3.5.4.1.7.5.9.2.1.4 0 .5.7.1.5.8.8 1.4 1.6.4.5 1.4 1.5 1.7 1.5.4 0 .3-.4-.3-1.2-.8-1.1-.8-.6-1.4-2.2-.2-.5-.7-.3-.7-1.1 0-.6-.9-1.3-.9-1.8s0-.7-.3-.9-.4-.3-.5-.6c-.3-.8.1-.8.1-1.3s-.5.1-.6-.3 0-.9 0-1.3-.4-.2-.4-.9c0-.6.1-.4.1-1.1s-.4-.5-.5-1.1.2-.5.2-1.2-.2-.1-.2-.7c0-.7.3-.5.3-1.4 0-.3.2-.7.3-1 .1-.4-.3-.4 0-.8 1-1.5 2.6-3.9 10.7-3.9 10 0 19 2.5 22.8 7.6.3.4.7.4.8 1.3.1.7.4.8.4 1.9 0 .6-.4 1.2-.5 1.9-.2 1.2.2 2.4-.5 2.4-.6 0-.2 2-.8 2-.4 0-.1.7-1 .7-.7 0 0 2-1 2.2-.3.1-1-.2-1.2.8-.1.4-.5 1.4-1.2 1.5-1 .2-.6.2-1.1.6-1.3 1.2-.4 1.4-.8 1.8-1 1-1.2-1.1-1.9-.3-.3.4-.5.4-.5.8 0 .9-.2.6-.9.4-.8-.3-1.5.7-1.2 1 .4.5-.1.6-.6.2-.2-.2-.6-.1-.9-.2-.5-.2-1.1 0-1.1.5 0 .8.1.8-.2.8s-.2-.8-.7-.8-1 .1-1 .1c.2.6 7.6 4.2 9.5 5.1 4.4 2.5 7.7 5.1 9.9 5.1 2.9 0 10.9-19.8 10.4-29-.2-2.8-.3-3.5-.2-3.9.2-.9-1.9-.8-1.9-4.7 0-.9.2-2.7.9-3.6.4-.5 1.5-1.1 2.1-1.1.7 0 2.4 1.4 2.6 2.2.8-1.2 2.9-11 2.9-14 0-1.1-.4-2.4-.8-2.8s-3.9-1.1-6.9-5c-.2-.3-.6-.5-.8-.3s0 .3 0 1c0 1-1.6 3.6-4.2 3.6-4.4 0-5.6-2-10.5-2-2.4 0-4 .9-5.3 2-2.4 1.9-6.5 3.8-8.3 3.8-4.5 0-2.3-6.3-5-6.3-2.1 0-2.1 3.3-2.8 5.5-1.3 3.5-9.4 13.1-13.9 13.1-4.4 0-2.7-7.7-5.3-7.7-1.6 0-2.6 2.3-3.1 3.8-2 6.5-4.6 11.1-7.2 14.2-2.6 3-6.2 8.5-10.2 8.5-3.9 0-2.9-6.2-4.8-7.6-.9-.7-2.6-1.5-3.6.4-2 4-4.3 11.7-10.1 11.7-3.6 0-4.4-2.6-4.5-4.5s-.1-2.3-.4-3.3c-.3-1.1-.6-2.1-1.7-2.1-.8 0-1.7.5-2.4 2.4-.8 2-3.5 6.2-8.5 6.2-4.4 0-6-1.8-6.1-3.1-.1-1.8.4-4.3-3.1-3.4-3.8 1-6.1-4.7-6.1-6.9 0-4.1 2.8-7.1 2.8-8.5 0-1.8-4-2.7-4-7.1 0-9.7 10.3-7.1 10.3-11.6 0-4.1-7.3-6-7.3-10.3 0-8.7 11.5-10.3 13.6-10.3s4.6.7 5.8.7 4.3-.6 4.3-2-1.3-3.3-2.4-4.9c-1.2-1.6-2.7-3-2.7-4.9 0-6.1 6.4-8.3 10.8-8.3 8.8 0 14.9 1.8 17.2 2.8 2.5 1.1 4.6 2.9 6.8 2.9 1.1 0 1.8-.4 1.8-1.4 0-2-3.4-4.6-3.4-8.5 0-3 2.7-6.3 7.4-6.3s11.4 2.7 15 4.9c3.5 2.2 9.6 8 12.4 8 3 0-.4-9.3 6.3-9.3 5.8 0 13 6.3 17.8 15.3.9 1.7 3.4 5.3 5.6 6.5 3.5 1.9 7.7 8.4 8.3 13.2.2 1.5 1.1 2.3 1.4 2.3-.3-1.5-.5-4.4 1.5-4.8 1.9-.4 4.9 2 5.7 3 .6-1.2-1-5.4-1.5-6.6-.4-1-3.1-10.2-3.8-11.8-.7-1.7-3.7-9-4.7-10.9-1.7-3.2-5.1-4.5-6.7-5.4-2.5-1.4-5.1-4.6-5.8-5.2s-.7-.5-1.1-.5c-.3 0-.9 2.3-4.2 2.3-3.4 0-7.5-5.3-11.7-7.5-5.9-3.2-13.6-4.2-16.5-4.6-2.1-.3-8.9-1.8-12.1-3.8-2.2-1.4-2.9-3.3-2.9-4.9 0-3.3 4.1-5.3 5.1-5.7s2-1 2-1.7c0-1-1.8-1.8-3-2.5-1.7-1-4.2-1.3-7.6-1.4s-8.9-1-12-2.4-9.9-6.2-9.9-10.2c0-2.8 1.5-4.9 3.8-6.1s6.2-2.4 6.2-4.2c0-1.3-1.4-1.6-2.3-2.3-1.1-.8-7-1.9-8.9-2.3-2.9-.6-15-2.9-15-10.4 0-7.1 10.6-7.3 10.6-8.8 0-1.6-3.1-2.6-6.5-4.6-3.9-2.5-8.1-5.9-8.1-9.2 0-6.7 9.5-4.7 9.5-7.1 0-.5-.6-1.5-1-1.9l-2.6-3.1c-1-1-2.1-3-2.1-3.9 0-2.7 2.8-2.7 2.8-3.9 0-.8-.3-1-.3-1.7 0-1.8 2-3.7 5.8-2.8 1.3.3 2 .4 3.2.2s1.9-1.9 4.4-1.9c3.3 0 4.8 3.5 5.6 4.5.7.9 1 1.7 1.7 1.7 1 0 1.2-2.5 2.2-3.8.6-.9 2.5-2.4 4.2-2.4 5.3 0 9.5 4.4 11.7 9.2.4 1 1.1 2.2 1.8 2.2 2.1 0 3.9-8.7 10.2-8.7 3.9 0 5.7 1.4 7.1 2.7 2.3 2.1 2.7 6.7 3.8 9.8 1 2.8.4 10.9.4 12.5s.4 6.2 1.8 6.2c2.5 0 4.9-6.4 10.9-6.4 2.6 0 6.7 3.6 6.7 12 0 9.1-4 12.1-4 18.7 0 1.3.2 2.6 1.4 2.6s1.9-2 2.6-2.8c1.1-1.2 3-2 5.8-2 3.2 0 4.7 3 4.7 7.1 0 2.8-1.7 14-1.7 19.7s2 8.6 2 15.4c0 5.3-2.5 8.6-2.5 10.9 0 1 1.3 2.7 2.3 2.4-1.1-1.4 0-4.9.9-5.4.7-.4 1.9-.1 2.5.1-.7-4.5 1.1-8.7 2.6-9 2.2-.5 6.5 3.7 6.8 4.4.6-.6 1.2-1.2 2.1-1.2 1.3 0 2.6 1 3.8 2.3.3-.5.4-.9.4-1.6 0-1.1-2.1-6.7-2.1-11.4 0-5.7 2.7-11 2.7-15.4 0-8.4-2.7-13.5-2.7-17.5 0-8.4 2.5-12.8 6.5-12.8 3.8 0 6 3.8 8.4 3.8 1.8 0 2.8-3.4 3.1-5.5 1.4-9.6 2.1-30.3 12.6-35.2 2.2-1.1 4.9-.3 6.7 1.7 3.7 3.8 4.4 8.3 7.2 8.3 2 0 4.6-4.9 5.6-7 1.5-3.3 6.7-8.8 11.9-8.8 9 0 5.8 9.8 10.2 9.8 4.6 0 8.1-8.4 15.6-8.4 2.2 0 4.6 2.3 4.6 5 0 1.8-.2 3.1-.2 4s0 2 1 2 3.9-3.1 6.1-3.1c3.8 0 2.9 3.7 4.7 4.9 1 .7 4.8 1 4.8 4.9 0 5-4.8 4.9-4.8 7.2 0 1.6 4.1 2.8 4.1 5.6 0 2.9-2.9 6.2-5.4 6.5-1.9.2-8.2 0-8.2 2.7 0 .6 1.6 1.5 2.9 2.7 1.7 1.5 3.5 3.1 3.5 5.7 0 3.5-3.9 6.9-16.1 6.9-2 0-2.5-.2-4.6-.2-.9 0-2.6.1-4.1.5-2.2.6-4.2 1.4-4.2 2.5 0 3.5 6.9 3.4 6.9 7.7 0 3.2-2.3 5.4-5.2 7-2 1.2-9.6 4.1-14.1 4.1-9.1 0-10.3-1.1-12.9-1.1-2.3 0-4 .8-4 2.1 0 1.4 1.4 2.2 3.4 3.3 1.3.7 6.5 2.5 6.5 6.8 0 4.5-7.5 6.9-10.7 7.5-8.3 1.7-13 4-18.7 9.5-2.9 2.8-9.1 10.4-15.3 7.4-2.6 3.8-6.5 7.6-7 10.9-.9 5.6 7.4 31.7 11.1 31.7 2.3 0 5.5-2.9 10.2-6.1 3.1-2 6.4-4.3 10.1-6.9 16.2-11.1 29.7-16.7 29.7-18.9 0-1.7-1.4-3.1-1.9-4-.4-.8-.9-1.1-1.3-1.8s-.3-.9-.6-1.5-.7-1-.9-1.8c-.2-.7-.2-.8-.1-1.4-.6-.2-.6-.7-.6-1.3s.1-.6.1-1.2-.4-.2-.4-1.1c0-1.2.4-1.1.4-1.8 0-.2-.7-.6-.7-1.1 0-.9.7-1.1.7-1.7s-.5-.4-.5-1c0-2 .6-1.7.8-2.2-.1-.4.1-1.7.8-2.1.7-.5 1.5-1.5 2.1-1.4-.3.4 0-.3.8-.2" style=""/><polygon points="48.8 373 29.6 373 29.6 423 19 423 19 373 0 373 0 367.3 48.8 367.3" style=""/><path d="m97.6 415.5c-.8 3.7-3.9 8.2-10.3 8.2-7.4 0-11-5.8-11-13.1v-23.6l10.4-.8v25.8c0 4.9 2.2 7.2 5.5 7.2 2.5 0 4.3-1.8 5.4-3.7" style=""/><path d="m109.2 415.9c0 3.7.5 5.8 3.1 5.8-1.5 1-3.9 1.6-5.9 1.6-4.3 0-7.6-2.2-7.6-7.7v-28.6l10.4-.8z" style=""/><path d="m146.3 389.6c5-2.5 10.2-7.8 13-12.5h1.3v9.5h8.9v4h-8.9v22.9c0 3.5 2 6.4 6.2 6.4 2 0 4.1-.9 5.4-2.9-1 3.1-4 6.7-10.4 6.7-7.6 0-11.5-5.7-11.5-13.1v-20.1h-4.1v-.9z" style=""/><path d="m56.6 394.1c1.6-4.7 5-8.7 10.4-8.7 1.2 0 2.3.3 3.2.6l-.9 7.1c-4.9-3.3-10.6 0-11.9 5.9v24h-10.1v-36.1l9.4-.8z" style=""/><path d="m128.1 420.3c-4.5 0-7.9-3-9.8-6.3l-.9 6.6c2.7 1.7 6.8 3.3 11.3 3.3 8.9 0 14.2-5.5 14.2-11.3 0-6.9-5-9.6-9.4-12.1-4.1-2.2-8.1-3.5-8.1-7.2 0-1.8 1.6-4.2 5.3-4.2 3 0 5.6 2 7.8 4.9l1.2-6.1c-2.2-1.1-5.3-2.3-9.3-2.3-8.5 0-12.9 5.3-12.9 11 0 5.8 4.1 9.2 8.4 11.5 4.3 2.4 8.6 3.7 8.6 7.3-.1 2.8-2.7 4.9-6.4 4.9" style=""/><polygon points="272.7 295.2 282.9 294.4 282.9 351.2 272.7 351.2" style=""/><path d="m98.3 317.5c5-2.5 10.2-7.8 13-12.5h1.3v9.5h8.9v4h-8.9v22.9c0 3.5 2 6.4 6.2 6.4 2 0 4.1-.9 5.4-2.9-1 3.1-4 6.7-10.4 6.7-7.5 0-11.5-5.7-11.5-13.1v-20.1h-4.1v-.9z" style=""/><path d="m131.5 298.3c0 2.3 1.8 4 4.1 4 2.2 0 4.1-1.7 4.1-4 0-2.2-1.8-4-4.1-4s-4.1 1.8-4.1 4" style=""/><polygon points="140.7 314.3 130.4 315.2 130.4 351.2 140.7 351.2" style=""/><path d="m226.6 344.4c0 3.7.5 5.8 3.1 5.8-1.5 1-3.9 1.6-5.9 1.6-4.3 0-7.6-2.2-7.6-7.7v-19.5c0-4.1-2.3-6.4-5.3-6.4-2.1 0-4.3 1-5.6 2.8 1.2-3.5 4.5-7.3 10.6-7.3 6.8 0 10.7 5.1 10.7 11.6z" style=""/><polygon points="193.6 351.2 193.6 315.1 204 314.3 204 351.2" style=""/><path d="m167.1 348.7c-5 0-8.1-4.7-8.1-15.7 0-10.9 3.1-15.7 8.1-15.7s8.1 4.8 8.1 15.7-3.1 15.7-8.1 15.7m0-35c-9.6 0-18.9 7.5-18.9 19.2 0 11.8 9.3 19.2 18.9 19.2 9.5 0 18.9-7.5 18.9-19.2-.1-11.6-9.4-19.2-18.9-19.2" style=""/><path d="m263.1 344.4c0 3.7.5 5.8 2.9 5.8-1.3 1-3.6 1.6-5.5 1.6-4 0-7-2.2-7-7.7v-12.8c-7 3.6-9.4 6.5-9.4 11.1 0 5.9 5.9 6.7 8.2 3.6-1.2 3.3-4.3 5.7-8.1 5.7-5.3 0-9.6-3.6-9.6-8.9 0-8.7 10.9-11.1 18.9-15v-3.7c0-3.7-2-5.7-6.4-5.7-2.6 0-5.9.8-8.2 1.7v-4.4c1.7-.7 5.9-1.6 9.7-1.6 6.8 0 14.4 2.5 14.4 13.3v17z" style=""/><path d="m92.1 344.4c0 3.7.5 5.8 2.9 5.8-1.3 1-3.6 1.6-5.5 1.6-4 0-7-2.2-7-7.7v-12.8c-7 3.6-9.4 6.5-9.4 11.1 0 5.9 5.9 6.7 8.1 3.6-1.2 3.3-4.3 5.7-8.1 5.7-5.3 0-9.6-3.6-9.6-8.9 0-8.7 10.9-11.1 18.9-15v-3.7c0-3.7-2-5.7-6.4-5.7-2.6 0-5.9.8-8.1 1.7v-4.4c1.7-.7 5.9-1.6 9.7-1.6 6.8 0 14.4 2.5 14.4 13.3v17z" style=""/><polygon points="49.8 333.8 49.8 295.2 56 295.2 56 351.9 53.7 351.9 12.7 312.9 12.7 351.2 6.1 351.2 6.1 294.6 8.7 294.6" style=""/></g></symbol>
</svg>
