<svg xmlns="http://www.w3.org/2000/svg" fill="#0a0a0a" viewBox="0 450 3300 2186"><path d="M1888.8 1259c8.9 5.6-9.2 36.7-2 10.5zm-862.2-326.9c-6.9 5.7-42.9-5.6-20.7-3.6 6.6 4.2 14.3.3 20.7 3.6m-62-12.7c-21.6 1.1 15.4-6.8 11 3-3.9.9-7.5-2-11-3m-39.8-11.2c7.5-5.7 21.5 11.1 6.8 2.4-1.8-2-7.8 2-6.8-2.4m1249.9 678.6c-7.6-4-23.3-31.9-8.9-14.7q5.7 6.5 8.9 14.7M790 1786.2c-9-21.2-26.3-76 1.1-4.7-.6.9 1.9 6-1 4.7M1801 789.4c10.5-13.4 24.9 21 5.8 12.5-6.4-1.2-6.1-7.8-5.8-12.5m4.7 18.9c10-3.5 10 13.5 4.3 18.4-14.3 13.2-4-13-4.3-18.4m-566.1-101.7c13.6 14.3-6.3 33.8-17.5 17.7-5.4-12.1 5.3-26.2 17.5-17.7m-11.5 17.7c24 10.5 7.4-32.3-2.4-10.9 0 3.8 1.9 7.2 2.4 10.9m-.6 28.4c-14.6-13 8-28.7 15.8-14.2 2.9 11.5-5.1 20.8-15.8 14.2m3.1-4.2c19.5 5 5.7-24.4-3-8.5-.3 3.1 1.1 6.1 3 8.5m20.7-31c5.8 9.4-5.8 18.2-6 2.7-1.5-5.8 3.9-2.4 6-2.8m-2 30.9c-11.8-9.3 12.1-22.2 0 0m-72-11c4.6-11.1 9.8-23.1 18-32-4.4 11-9.7 23.3-18 32M932.7 973c14.4 2.1 44.7-10 53.5 2.4-17.5-1.5-35.2-.6-51.6-.3zm-31 24.1c-8.7.4-19.4 6.4-27 1.5 8-2.9 37.4-9.8 39.1 2.5-4.5 1.2-8-3-12-4m-75 29.6c5.1-7.1 47 4.2 26.4 4.2zm153.3-70.8 24 6.6c-.1 7.2-25.3-.4-24-6.6m-60.5 70.8c-3.9-10 36.7-18.2 13.5-7zm67.9-35c-3.9 10-32.1 10.4-11.6 3.7zM291 1428.5c-5.8 5-2.8 18.5-12.7 6.8 1.7-3.3 9.8-9.4 12.7-6.8m1945.8 307.1c8.8-6 30.5-3.6 11.4-.6-3.7 0-8 2.6-11.4.6m-9-26.6c6.4 8.4 4.2 23 .4 6l-.2-2.7zM1012.9 791.3c-12.3-.8-36.3 1.9-42.7-8.5-1-13 9.6-24.5 22.3-19.9 12.1 4 15.3 18.3 20.4 28.4m-19.5-9.8c2.9-5.7-1.1-22.8-4.5-11.4 3.8 8.8-11.9 16.3 4.1 16.6 6 2.6 4.8-16 .4-5.2m-8.6-4c4-20.3-14.3-10.1 0 0M1889 1259c-13.5-5-14-25.5-26.5-33.3-8.2-6-14.7-19.2-4.2-8.3 11.3 9.4 19 21.7 26 34.5zm33-3.5c-7 .3-37.5 5.6-16.3-1.3 4.5.1 13.6-3 16.2 1.2M1455 1604.7c-.8 9.2-15.1 26.3-6.4 8.3q2.4-4.7 6.4-8.3m481.7-543.5c14.6 7 25.4 20.3 38 30.4q40.8 34.7 80.8 70.6 57.8 48.7 114.4 98.8 51 43.7 101.3 88c26.2 22.8 52.9 45.1 78.6 68.5 5.4 10-14.5-7.6-19.4-12.4q-60.9-52.5-121.5-105.4c-35.2-29.8-69.5-60.5-104.7-90.3l-165-144.1c.1 1.5-3.2-5.6-2.5-4.1m-622.3 387.2c-3.3 15.4-3 31.4-3.9 47-9.8-4 1.1-32.6-.6-45.5-7.8 4-26.5-3.3-8.3-3.2 16-1.4 32.3-11.7 46.2-14.4-8.7 9.5-22 11.2-33.4 16.1m-110.5-74.2c-10.4-.8-21 3.2-21.8 15.3.2 5.8 5 16.4-4.3 5.6-4-13.6 12.8-32.3 26.1-20.9m29.3 37c-2.2-16.4 31-26.3 30.7-20.2-12 2.1-30.7 10.8-24.4 25.3 8 11.4-7.3 1.6-6.3-5.1m-99.5 22.2c-8.6-19 30.8-34.6 31.7-22.8-8.5-3-19 1.8-24.1 8.8-9.6 3.6 4.2 27.2-7.6 14m.6-114c-5.3 5.6-16.3 26.6-10.7 6.6 1.1-13.3 35.5-16.8 29.9-8.2-6.6-2-12.8.4-19.2 1.6m-40 51.5c6.5-9.9 34.8-4.5 14-2.5-7.7 1.2-12 6.4-14.4 13.5 3.4 6.1 2.8 14.9-2.7 5.4-4.3-6 1-10.9 3-16.4m90-80.4c-12.6-3.4-28.2-1.5-30.4 13.4-13.8-11.3 22-29.8 30.3-13.4m-93.4 17.6c6.8-2.4 17.1-12.5 21.6-1.7-10.2-3-22.6 5.5-21.2 17.1-4.8 12.3-6.7-12.6-.4-15.4m-59.3 67c2.3-15.4 24-26.6 36.6-17.2-17.2-1-25.2 6.6-36.6 17.2m281.9 29c-12.7-9.7 17-36.6 19-25.4-12.3 2.5-14.5 16-19 25.4m-183.1-14.3c-17.3-6.5 19.5-30.3 17.2-17-9.3.1-18.7 6.8-17.2 17m108.8-73.2c-9-17.3 39.3-12.4 26.4-7.2-8.7-3-20-2.2-25.5 6.2l-.7.8zm19.4 146.6c10.2 4.1 27.4-15.8 31-8.3-7.1 4.4-24.6 17.4-31 8.3M1085 1356.5c-8-13 30.6-22.5 21.2-13.6-9.7-.8-14.8 8-21.2 13.6m237.1-23.5c-.4 8.7-21.8-1-27.8 10.3-3.4-11.1 20.2-10.9 27.8-10.3m-262.1 3.4c0-9.2 11.9-16.2 19.7-11.2-7.6 1.7-13.3 7.4-19.7 11.2m130.3-34.7c6.6-6.5 21.9 4.9 6.2 2-4.6 3.3-13.5 12.6-6.2-2m47.5 47.4c-2.4-10.9 23.2-21 0 0m1236.3 385.4c-11.7 0-24.3-25.2-6.7-8.2q3.5 4 6.7 8.2M1839.9 975c-42-5.3-83.4-14.9-125.5-19.8-27.5 3.7 35-68.6-3.4-48.7 2.5-17.6 2.9-35.5 4.3-53.2-10-15.5 23.6-2.3 32.1-3.2 35.2 5.8 70.7 9 105.8 15.5 5 25.3-5.6 51.4-7.1 77-2 10.9-2 22.1-6.2 32.4m-71.4-79.1c-6.2 10.6-4.2 24.1-6.6 36.1-3.3 10.6 11.7 9.2 18.5 10.6 6.3-.5 18 6.2 19.9-1.9l6.4-39.2c-10.9-6.1-26-5.5-38.2-5.6m69 54.4c3.7-13.8 5.3-28.3 7.2-42.5-9.3-10-34.9-9.3-30.9 11.2-2.2 14.1-7.4 33.5 14.5 31q4.6.7 9.2.3m-110-16.5 22.8 3.9c2.4-14.2 10.2-33.4 2.9-45-12.3-3.5-25.5-4.5-22.6 11.3zm81.9-69a202 202 0 0 0-34.7-5c-8.6 6.3-9.4 29.8 7.4 26.5 8.6.3 18.2 5 26.2 1 .9-7.4 4.6-15.1 1-22.5m26.6 91.6c-23.8-8.5-51.1-6.7-76-13-12.5-2.4-42.5 1.4-36.2-19.2 1.1-11 3.6-21.8 2.9-32.8-5 16.4-4.8 33.8-5 50.8 34.2 6.7 68.7 12.3 103 17.9.2 2.7 14.6 2.2 11.3-3.7m-100.5-76c13.9 6.3 29.7 2.4 26.2-15.7 3.1-13-34-15-27 3.3-.7 4-2.8 9 .8 12.4m85.9-14.5c-3.6 14.2-4.8 30 14.7 27.2 15.8 4.4 18.7-29.3.6-25zm-105.7 84.5c36.7 7.7 74 11.4 110.7 18.5 23-1.4-14-7.9-20.8-8.6-30-3.6-59.5-12-89.8-13.5zm3.6-76.8c-.2 21.8-5 43.3-3.3 65.2 2.6-17 1.8-34.6 4.9-51.6q.1-7-1.6-13.6m10.3-19.2c-5.8 6.3-3.4 46.1-.4 18.2-.2-6 4.3-12.5.4-18.2m112.8 43.8c-9.8-3.7-34.3-2.5-11.7.8q6 .2 11.7-.8m-48-6c-8.3-2.3-39.1-3.8-16.4 0a39 39 0 0 0 16.4 0m5-126.4c20 10.8 36.7 39.2 21.5 60.2a37.3 37.3 0 0 1-56.4 4.1c-23-15.7-7.8-51.3 12.6-62a30 30 0 0 1 22.3-2.3m1.5 23.5c-2.9 6.2-4.7 14.2-13.2 10.5-9.5 2.4-23.3-12.3-27-.5 13.6-4.4 12.3 21.9 3.2 17.5-10.8-2.4 32.1 35 10.5-12.6 13.4-2.2 33.2 2.7 23.2 18.5.9 9-20.4 13.6-2.1 14 22.2-2.1 35-30.1 21.3-48.4-5.8-21.1-40-24.9-45.7-5.9 8-4.6 20.5-15.6 27.7-3.7 3.7 2.4 1.5 7 2.1 10.6m-10.4 39.8c11.9-12.6 0-28.2-11.3-18.4-4.6 12-.3 17.5 11.3 18.4m-4-50.3c-12.4 10.6 6.3 24.8 9 9.6 3.4-5.8-3-12.2-9-9.6M1586 1638.6c-4.2 9.4-14.3 34.3-17 31.7a129 129 0 0 1 17-31.7m-25.3 50.5c-3.1 8.4-15 28-7.2 8.3 2.2-1.2 4-13 7.2-8.3M1291.1 788c-2.5 11.5 1.2 23.4.2 35.2.8 20.3 2.7 40.4 2.3 60.7-30.2-2.3-60.2-8.7-90.3-13.2-22.7-2-10.8-35.2-16.3-51.6.5-15.8-11.7-51.5 16-41.8 29.3 3.9 58.9 6 88.1 10.7m-23.1 72.1c11.4 9 25.3 2.3 17.4-12-1.9-10.7 3.5-24.1-5.5-32.3-23.9-5.3-12.6 28-12.4 42zm-31.2-4.2c-1.2-16.3 2.4-58.8-20.8-39.9l4 35.6c4.8 3.6 11 3.7 16.8 4.3m5.4-41.5c1.1 13.9-5.6 40.6 9.8 44.8 13.8-.7 5.6-28.6 5.6-39.9-1.2-3.4-14.8-56.7-15.4-5m-28.4 38.9c-7.2-13.7 4.6-36.9-11.1-44-9.6 7.4-1.7 28.6-1.5 40.9zm68.6-45c7.7-27.8-37.3-5.7-9.6-.9zm-66.1-20c-10.5 20.3 25.2 18.8 16 2.2a21 21 0 0 0-16-2.1m27 3.7c-11.8 21 28.5 12.4 8.7-.3a23 23 0 0 0-8.7.3m-44.7 6.6c19.5 10.3 6-27.4-2.8-8-.6 3 1.5 5.7 2.8 8m32.6 61.1c-5.6-2.1-26.6-4-14.5-.6 4.8.5 9.8 2.5 14.5.6m37.6 6.6c-7.6-2.7-30.5-3-11.3.3q5.7 1 11.3-.3m-47.2-168.9c27.5-6.5 45 27.7 35.7 50.5-5.2 10.4-16 19.7-28.2 17.5-19.5-3-29.4-27.5-24-45.4a38 38 0 0 1 16.5-22.6m29.6 20c-.7-18.8-37-24.7-35.3-4.3 9.7 11-4 34.5 4.7 43.5 13.3 11.5 33.7-1 34.7-17 .3-7 .6-16.8-4-22.2m-40.2 0c-7.1 8.4 1.6 40.5.5 17.4.8-5.8-.9-11.6-.5-17.4m-61.7 70c5.7-15.9 20-42.2 27.5-47.6a231 231 0 0 1-27.5 47.6m-82 867.3c8.6-.6 30.7 7.4 11 4.3q-5.8-1.5-11-4.3m616.2-531.9c-16-5.5-13.6-12.6-.8-2.3zM276 2026.3c7.3 1.7 10.3-8.3 16-9.1 9.5 1.9 11.6 13 17.6 19.3 8.2 13.8 28.1 21.3 28.7.3 4.4-11.3 4-27.6 17.3-32.4 14.9-2.5 14.8 54.6 8.4 22.9 2-21.3-22.7-26-21.7 5.5-.8 17.6-13.3 32.6-28.9 12-11-8.6-18.5-35-33-15-1.9.2-4.1-1.7-4.4-3.5m383.7-433.6c-6.5 3.4-14.5-9.3-17.5-4.7 10.6 19-16.5 14.7-18.4 5.3 9.8 2.4 18.5 8 13.8-6.6-2.7-26.3 12.8 3.8 22.1 6m-231.8-231.2c-.1 9.3 23.8 17.6 3.8 12-15-8.4 8.8-42-18.3-30-13 7.4-10.9-9.5-1-3 21.1-7.6 21.5 4.1 15.5 21m177.9 720.9c14.4 6.7 10.8 21.4-6 18.8-10.6.2-21 6.7-30.2-.7-6-5.3 28.3 5 28.1-1.3 17.2-1.7 17.4-4 8-16.8m-119.9-12.7c-5.8.3-23 4.5-20.6-.8 7.6 5.5 11.7-5.4 17.6-2.5 1.2 1 4.9.9 3 3.3m-40.2-9c0 6.6-1 15.4-9 15.7a33 33 0 0 0 7.8-15.6zm50.5 14c5.2 2.8 25.5 11.4 8.4 7-3.3-1.7-6-4.4-8.4-7m-362.7-636c6.4-10.5 15.8 18 26 19.2 16.7 12.6-6.5 11.5-14.5 9.5 7.9 12.6 23.2 16.7 35.5 23.8.5 11.7-29 2.7-16.1 19.6 2.4 18.7-20.6-21.6 2.5-16 10.1-6.5-19.6-11.5-22.2-20-17.5-12 4.6-13.8 14.8-10.7a206 206 0 0 1-26-25.4m-19 213.3c-13.1 1-35.7-8-40-17 10.9 5.2 32.8 11.3 40 17m1294.8 34.5a111 111 0 0 1-21.4 37.8 166 166 0 0 1 21.4-37.8m28-50a106 106 0 0 1-18 32.4c4.6-11.2 9.6-23.5 18-32.3m34-60c-1.6 7.7-18 36.6-13.8 21.8 4.6-7.1 7.3-16.2 13.7-21.7M1035.3 1273l-16 15.8c1.7-6.3 9.6-13 15.9-15.9zm75.4-300.1c3-9.1 24.3-8 8.2-2.4zm62.2 38c7.5-4.7 25.4.5 8.3 1.6l-4.2-1.1zm-12.1-27.1c8.9-.5 30.9 8.1 7.5 4-3 0-5.9-1.6-7.5-4m270.5 49.3c-11.5-4.6-1-31.8-2-9.5.3 3.2 1.3 6.3 2 9.5m-481 627.9c1.2-6.9 18.6-18.5 7.6-5.8a38 38 0 0 1-7.5 5.8m394.4-433.3c2.4-10 19.9-19.8 5.6-5.4l-2.8 2.7zM917.4 1205c4.2-8.2 26-16.5 9.6-5-3 2-6.3 4-9.6 5m-207.8 136-8.3 7-9.7 5-.1-.1 8-7.5 10-4.6zm357.8 313.7c-8.6.7-30.7-7.5-10.9-4.2a46 46 0 0 1 10.9 4.2m66.2 18.8c10.7-.8 24.4 7.9 6.3 2.6q-3.2-1-6.3-2.6M1822 1545c0-5.3 8.2-26.7 5-9.3-1.1 3.4-3.1 6.4-5 9.3m-19.3-396.8c4-7 22.4-5 7.2-1l-3.6.5zM1321 1038.9c-8.8 1.5-20.9-2-4.3-2.6l2 1zm-337.5 585.9c4.8 11.5-7.3 5.7-13.9 16.6-9.3 6.1 7.5-15.8 13.9-16.6m230.6-591.5c-2.6-4.5-8.6-34.6-1.7-22.7.3 7.6 3.2 15.1 1.6 22.7m-166.4 87.5 10.9-9.7 12.6-7.2c.3 4.5-9.4 6.7-12.6 10.3-3.5 2.3-6.8 5.1-11 6.6m343-79.2c1.3 10.2 1 40.7-1.8 16.6-.1-5.6-4.6-12.5 1.9-16.6m-603 248.2c-5 8-36.6 23.7-15.7 8.8a92 92 0 0 1 15.6-8.8m982.3 389c-.7 10.8-15.4 41-7 15a93 93 0 0 1 7-15M1653 1509c.8-8.2 19.3-38 10.4-16.7-3.3 5.5-5.3 12.6-10.4 16.7m-447.7 143.5c.6 7.7-30.1 38.8-9.1 9.9zm540.3-513c-11-2.6-21.1-25.1-6.6-8.4zm-720.1-5.4c-6.4 9-30 17.2-10.1 5a41 41 0 0 1 10-5m-28.2 172.8 16.7-16.2c-1.6 6.7-10.4 14.2-16.7 16.2m-58 53.1c4.4-11.9 32.5-25.4 0 0m96-87 16-15.8c-.5 5.2-10.4 14.5-16 15.8m470.8-236.7c-10.9 3.6-28-13.6-7.8-3.5l3.8 1.7zm-612.6 688.4c-8 14.4-22.3 25.2-32.2 38.8-6.5 10.4-21.7 17.8-8 3.9s25.7-30.2 40.2-42.7m645.7-355.7c-23.2-3.8-46-11.3-68.5-17.9-4.8-5.4 17.7 3 25.7 4.6 14.3 4.5 29.5 6.6 42.8 13.3m-555.8 255.7c6.4-12.1 18.1-20.7 26.9-31.3 4.9-6.8 19.1-17.6 7.3-3.8-11.5 11.5-21.8 25-34.3 35m14-317.6c-14.6 8-23.5 28.6-39.3 35a199 199 0 0 1 39.4-35m-63.6 57c-9.1 11.6-24.4 26.9-34.7 30.7 10.7-11 22.1-21.8 34.7-30.7m689.3 203a297 297 0 0 1 20.5-41.5c8-9.4-2.5 10.8-5.4 15.9-5.1 8.4-8 18.8-15.1 25.6m-536.7-338.2c-7 3.3-5 12.4-11.2 12.5-7 2.7-25.3 20.3-12.2 5 6.3-6.4 15.7-16.6 23.4-17.5M709.5 1341c10.7-9.3 27.3-22 38.4-24-12.1 8.9-24.6 18.3-38.4 24m414-146.8c-8.1 9.6-20.9 24.3-30.5 26.7 9.3-9.8 19.5-19 30.6-26.7m277.6-125c5-9.5 23.8-27.5 28-25-9.7 7.9-18.5 17.6-28 25m-483.6 136c-6.5 5.1-31 23.9-30.3 18.3 10-6 19.1-14.8 30.3-18.3m-78 50.4c-8.3 7-22 19.6-30 19 10-6.2 19.3-14.2 30-19m331-101.1c-8 9.2-18 16.4-27.2 24.5 3.8-9.6 18-20.5 27.2-24.5m-216 25c10.2-5.6 20.5-17.9 31.8-18.7-10 5.5-20.9 18.2-31.8 18.8m206.8-74.3q-19.3-1.3-37.8-7.5c12.5-.2 26.3 3.3 37.8 7.5m58.7-111.7c7.2-6.4 13.5-.6 2.5 2.2-5.3 5.2-14.4 4.4-12.6-2.2zm393.1 49.9c-5.3 14.4-19 26.6-30.7 34-20.8-7.2-43.8-6.6-64.5-14.8a690 690 0 0 0-70.6-15.6c-5.5-1.6-23.9-4.2.8-3 27.2 5.9 55.1 9.6 81.4 19.1 19.4 1.5 41 14.2 59.2 5.5 11.5-4 15.5-20 24.4-25.2m-451.8 61.9c42.2 6.3 83.8 17 125.6 25.9 9.3 5.6-17.1-1.5-22.8-2.5q-50.1-11.3-100.2-21.8zM1577 1391c11.9-15.8-37.2-15.8-16.3-17.4 13.3 3.7 25.5 6.2 38.3 11 15.3 4.8 31.7 7.2 46 14.3-20.8-2.7-40.2-11.2-60.6-15.6zm-683.6 333.6c8-13.6 20.8-23.8 30.9-36 6.5-6.8 12.3-14.4 19.3-20.8 1.1 6.1-8.7 11-12.1 16.6-13 13.1-24.2 28.5-38.1 40.2m-183.8 591.6c1-9.2 18.4-22.8 7.4-7q-3 4.3-7.4 7m129.9-169.6c-2.2-5.7 23.3-28.9 7-7.3zM1291.2 1133c22.6 2.4 44.4 9.5 66.6 14q46.4 10 92.4 22c118.1 28.8 235.4 61 352.1 95 8.7 1.5 35.8 13 15.2 7.8q-124.1-37.2-249.5-70.2c-18.3-4.8-36.6-8.9-54.8-14.3a11667 11667 0 0 0-156-37.6l-63.5-15-2.4-1.7zm405.8 289.8c5-9-5.3-8.9-11.4-11.2-13.5-4.5-27.8-6.7-40.6-12.8 22.7 4 45 10.8 66.7 17.7 107 30.5 213.8 61.6 320 94.9 11 1.3 24.8 11.4 5.3 4.4-60-18.4-119.9-37.3-180.2-54.5-3.8 8-7.1-6.6-14.7-4.3-46.1-13.4-92.2-27.1-138.4-40.2zm-84.1-379.8c-19.4-9.1-42-7.6-62.7-12.7-33.4-7.6-67.7-10.6-101-19.2-15.7-8-31-2.6-42 10-7.8 5.5-13.1 16.8-24.5 14a678 678 0 0 1-82-15.5c27 .2 52.8 9 79.7 11.6 14 2.8 22.6-12.1 32.5-20.1 13-14.8 30.7-3.3 46-1 34.4 7.1 69.1 11.7 103.4 18.6 20 3 40 6.2 59.3 11.9 10 4-6.6 2-8.7 2.4m691.9 522.4c-1.9 13.6-10 35.5-21.7 14.5-12-19-40.5-32-43.4-53.2-.3-12.3 10.7-27.3 18.4-9.9 16.3 15.5 30.1 33.3 46.7 48.6m-59.2-31.2q22 25.5 46.6 48.7c9-3-2.3-11.5-5.8-15.9l-31.3-34.5c-2.6-2.8-8.3-2.1-9.5 1.7m54.9 34a2183 2183 0 0 0-41.5-45.5c-8.8 9.3 19 24.2 24 35 5 2.5 14 24 17.5 10.4m-56.1-39.6c15.2.2 5.3-27.2.9-8.3l-.8 4zm-454.7 97.4c14.5 8.7 31.8 11.2 47.5 17l94.4 29.5c10.9-1.2 25 11.6 38.7 12.8 7.6.6 23 10 6 4.8a435 435 0 0 0-45.6-13.7c-45.4-16.5-91.9-29.9-137.9-44.5-7.6-.9-12.1 33-14.8 23.3l8.4-22.6c-11.9-9.3-29.7-10.2-43.9-16-14.8-8.1 15.4 2 21 3.6 8.8 1.7 17 7.4 26.2 5.8m-1061-71c25.4-27.5 53.7-52.2 80.4-78.4 19.4-18.8 39.6-36.7 59.5-54.9 8-3.8 23.7-27 24.7-19.9-16.6 17.7-35.8 32.5-52.9 49.5-37.5 34.3-72.7 70.9-110.2 105l-.8-.7zm454.6 127.4c2.2 7 28.6 11.5 9 8.9-4.6-3.3-23.1.6-13.9-7zm153.8 136c.6-7.6 20-38.6 10.5-16.4-3.4 5.3-5.3 13-10.5 16.4m-203.8-67.7c.5-8.6 28.8-37.3 9-9.8zm183.8-24.2c8.3-1.1 37.7 11.6 16 6.4a72 72 0 0 1-16-6.4M721.6 2300c.1-7.2 21.2-26.7 10.2-10q-4.2 6-10.3 10m158 170c-2.3 10.8-17.1 21.9-5.8 5.5 1.6-1.6 4-5 5.8-5.5M86 955.2c-8.1 2-28 12.2-10.8.6 3.1-2 8-4.2 10.8-.6m995.3 865.4c1.2-9.2 18.4-22.9 7.5-7q-3 4.3-7.5 7m-345.8 461.6c6.1-12.7 16.8-23 24.9-34.6 5.2-8.6 13.8-11 3.7.1-9 11.9-17.1 24.7-28.6 34.5m235.9-311.7a179 179 0 0 1 32.2-44.4c-.6 6.8-18.8 27.1-26.6 39l-2.7 2.7zm229.8-277.8c18.5 2.8 36.3 9.2 54.2 14.4-6.7 2.9-30.2-7-43.7-10.2-3.6-1.2-7.3-2-10.5-4.3m150 99.9c7.1-15 13-31.3 24-44a201 201 0 0 1-24 44m-910.4-517.4c-5.6 6.7-15.7 8.8-23.2 13.6-6.8 5-15.9 4.4-3.7-1.3 8.4-4.4 16.8-13 27-12.3m652.5 529.4c5.4-11.7 21.7-35 27.5-35.4-8.4 12.1-16.6 25.3-27.5 35.4m56-76c7.5-13.3 17-27 28-38-6.4 13.8-17 27.5-28 38m-341.8 459.7.4-2 22.5-29.9c7.4-1.4-10.8 18.1-15 24.4a35 35 0 0 1-7.9 7.5m139.9-185.6c4-10.2 18.2-30.1 23.3-29.9-7 10.3-14 21.5-23.3 29.9m112-152.1c3.5-8.3 18.1-30.4 21.3-27-7.1 8.8-11.5 20.8-21.4 27m244.4 546.4c-15.4 2-2.4-17.1 1.4-4l-.3 2zm-26.6-682.5c8.7 1.3 32.5 6.7 31.7 10.2-10.3-2-20.2-6-30.3-8.8zM151.9 1251.1c5.9 14.9 13.8 28.9 19.3 43.9 9.9 3 26.2 39.7 7.8 16.4-15.6-16.7-20.7-39.2-30.8-59.6-5-7.4-18.6-40.4-6.5-19.2q5.2 9.2 10.2 18.5m1427.8 1278c-10.7 5-20-14-28.4 1.6-11.4.7-2.5-10.6 1.4-15 6.9-6.8 17.3-1.1 22.5 5.2 2.2 2.2 4 5 4.5 8.2m-1224-1268c8.4 2 14.3 7.9 20.5 6.1-6.9 12.3-21.3-8.7-32.7 1.3-11.9 4-27.1 8.7-36.7-2.4 8.5.7 26.1 5.5 38-2.6q5.4-1.4 11-2.4m72.6-26.8c4.1-1.4 16.6-13.1 14.5-5.5-7.8 14.6-19.5 12-22.4 0-10.7-12-29.2 0-38-5.3 13.7-8.2 38-6.3 45.2 9.6l.6 1zm914.9 500.3c15.8 1.1 36.6 17.3 42.3-6.9 4.5 0-8.3 13.8-3 17.5 14.3 4.7 29 8.4 43 13.9-2 3.9-17.8-3.9-25.8-5.7-7.1-1.7-14.4-5.6-21.5-6-4.5.7-11-5.4-17.8-6.1-5.8-2.2-12-3.4-17.3-6.7m-337.8 190c5.3-13.8 16.5-24.5 24.5-36.7 9.9-12.4 18-26.6 29.5-37.4-5.7 13-16.2 23.7-24 35.6-9.9 12.9-18.3 27.4-30 38.4m-235.9 313.7c-9.2-7.8 7.3-5.4 9.1-14.8 9.8-11.7 17.6-25.2 29-35.2-6 12.6-16.5 22.8-24.5 34.3-18.3 11 6.4 12.4 4.7 15.4-6 .7-12.5-4.3-18.3.3m-304.3-1051c13.8-13.5 36.9 3.4 49.3 5.1 11.6-4.3-9 14-12 .6-9.7-8.9-25.7-6.1-37.3-5.8M539.7 2532c11.1-19 27-36 40.9-53.6 11.8-7.7-12.6 19.5-18.1 27.4-7.3 9-13.4 19.2-22.8 26.2m-284-1230c-7-5-35.8.5-28.3-6.9 13.7.7 32.8-1.1 37.3 15 17.1 10.9-12.7 2.2-9-8M0 1882.6c28.5 1.4 58 17.2 85.9 4.5 6.4-11.9-22.4-39.4-6.4-42.5 13 9 14.5-5.3 16.3-16 3.5-20 9.3-39.5 11.7-59.5 3.6-19.5-40.7-26.7-11.4-40.1 11.6-2.2 21.2-10.6 5.8-16-13.8-8.5 9.5-16.6 16.7-22.4 14.9-5.8 23.9-23.6 6.6-33.9-4.8-16.4 29-25 18.8-46-6-19.5 8.1 1.1 5.1 10.8-1.5 20.5-38.2 29.6-9.5 49.6-.2 19.2-26 21.8-36.9 34.8-2 4.9 21.4 14.7 6 23.3-11.5 1.4-30.9 9.6-9.7 17.3 14.4 5.9 14.5 22 10.4 34.4-5.8 29-13.2 57.8-17.5 87-3.8 21.2 16.7 18.9 29 13.8-.1 13-5 30.2 15.4 31.2 20.6 2 16.3 25 14.4 39.5-6.8 15.9-2.3 36.8 19 36 15.7 3.3 30.2 4.3 45.1-8.5 18.4-14.9 18 12.5 17.1 24.8-5 20.7 21.8 18 34.7 11.7 8.3 2 12.2 17.4 2.7 5-13.4-.8-43.4 11.4-41.4-14.8 4.2-11.2 2.5-38.3-14.5-21.9-18.4 14.6-46 12-64.1-1.6-14.7-18.3 10-43.8-3.3-62.9-15.7-4.1-37-11.5-28.3-31.8-4.5-2-19.8.9-26.6-.1-23.7 13.1-52 4.3-76.9 0-4.2-3-16.4 2.2-14.2-5.7m87-13.3c8.4-8.3-3.7-28-6.9-16.5 2.2 5.6 4.2 11.2 6.9 16.5M20 2550c.6-6.9 9.5-9 13.6-13.8 136-107.1 274.4-211.5 406-324.1 30.8-25.3 60.6-51.8 90.2-78.6 10.7-7.5 23-27.2 33-26.2-16.3 17.6-35.3 32.7-52.6 49.6-32.8 28.2-65.3 56.9-98.7 84.4a10259 10259 0 0 1-294 235c-31.6 24.5-64.1 48.8-94.6 73.7zM0 1670.7c12 6.4 36.8 20.1 26.8-2.5-3.8-13.2-12.1-28.9-2.7-41.3 11.3 6.5 29 17.2 37.2 23.7-15 7.4-27.3-24.6-37.1-12.8 1.8 14.7 7.8 28.5 11.7 42.7-4.7 15.8-31.4-.6-36-7.2zm0-126c7 1.2 13.5 3.2 18.3 8.7 7.9-13 33.8-13.9 41-3.7-16.2-4.6-30.8-2.6-41.2 11.1-3-11.6-20.7-5.5-18.1-16M525.7 2550c1.2-10.6 22.6-25.5 7.8-8-2.8 2.2-3.3 9.1-7.8 8m1094.6-53.6c-10 8.3 2.8 37-14.8 31.9 2.8-12.1-.5-25 5.6-36.4 2.2-12.2 14.9-5 22.7-4 22 1.2 44 5.6 66 6 9.2-2.6-4.6-14-7.2-20.4-6.8-12.3-21.5-24.6-16-39.6 13.9 1.4 29.6-7.3 18.6-22-6.6-14.6-25-42.9 3.1-42.5-8.3-14-27.6-28.9-25.2-45.2 13.5 6.5 23.2 31 36 44 6.1 15.4-27.2 8.2-11.9 25.2 3.5 13.5 14.2 27 7.2 41.2.5 13.4-22 1.6-18.1 13.6 4.7 18.6 29.6 30.8 31.2 48.2-12 10.6-30.2 3.5-44.8 3.2-17.4-1.5-34.9-4.8-52.4-3.2M136 1223c-6.3-9-9.8-27.4-10.8-6.8-11.8 8.9-24.3-14.3-37.2-6L46.3 1223c-10.4-1.8-16.4-16-13.1-25.6 6 11.3 9 34.3 30 16 10.9-3.7 22-6.5 33-10 9.6 5.1 31.8 18.4 24.6-2.4-13.7-28.5-17.7-60.2-23-91-2.5-7.4 0-30.6 3-11.2a461 461 0 0 0 12.5 73.1c6 17.8 21.5 31.4 22.6 51.1m449.7 1251c10.3-19 26.8-34.5 39.5-52.2q18.7-23.6 37-47.5c-18.7-6.5-42.1-3.4-62.5-6.9 21.6-3.1 43.3 1.8 64.9 2.7 15.2-16 27-35.1 42-51.4 6.7-1-14.6 21-19.5 28.7-7.3 10.4-25.8 26.2-2.2 23.8 21.6 1.4 43.2 2.1 64.8 4.2 10.4.6 29.3 2.8 10.9 2.7-15.5.8-30.6-3.1-46.1-2.1-18.2 1-44.1-12.7-55.3 7-23.3 28.9-45.4 58.6-68.8 87.3l-2.2 2zM193.3 1394.8c-4-8 18-7.7 20.9-18.3 11.4-10.7 30.5-4 36.9-21.7 9.6-6.7 16.4-3.5 4.2 2.1-20.9 16.3 29.4-6 11 6.3-14.4 3.1-23 16.2-38 9.8-13.5 3-18.6 18.8-32.7 20.9zM86 955.3c10.3 9.2-2.9 24.7-1 36.5-1.3 31 7.6 61.3 12.9 91.6-4 3.7-4.8-10.6-6.4-14.6-4.5-16.8-7.5-34-8-51.5-7.6-18.4.2-37 4.2-55.2-.5-2.2-1-4.8-1.7-6.8m765.6 1175c7.8-17.4 23.2-31 33.6-47.3 17-23.7 35.2-46.2 52.6-69.7 9.7-5.6-9 16.4-12 21.2q-35 46.6-70.5 92.6l-1.9 1.6zm-245.9-48c-8.2-14.2-16.3 2.4-24.4 4.8 1.3-9.9 22.4-16.9 8.2-29.3-8.7-10.5-11-28.7 1.5-12.6 4.6 4.4 14 14.5 1.4 4.9-8.8-4.9 2.2 10 3.7 14.2 13 5 1.1-14.7 8.3-8.5 19.8 7.6 56.1 30.7 68.8 6.2 3.8-10.8-21.4-28 .4-24.8 23.3-2.7 46-14.3 54.7-36.5-3.3-16.4 28.9-23.8 25.3-36.1-12.2 5.6-38 .4-15.1-15.8 6.8-11.6 41.2-29.7 21.6-42.2-10.5-4.5-25.9-10.7-12-21.5 11.5-8 7-12-3.8-15.2-2-9.3 19.7-34.5 1.2-31.8-3.6-7.7 3.2-16.1 4.6-24 4.6-16.6-13.4-2.1-13.6 7.2-1.5 8.2-11.7 1.7-17.5 2.8-12.9-5 1.3 22.3-16.3 13.7-23 3.3-1.4 47.5-29.1 43-11.7 3.5-25.9-17.7-30.7-1.6-11.2 5.4-33.1-36.4-33.4-11-3 11.6 19.5 23.2 11 29.3-9.8-7.6-27-38.8-8.7-43.3 15.8.9 23 29.8 34.5 12.4 14.7 8.9 42.7 17.6 39-9.4 1-12.1 7.4-30.8 23.3-22.9-10.4-26.1 27.3-6.5 28-27.4 1.8-8.3 5.8-16.7 6.5-25-4.8-13.5-19.5-36.1 11.8-33 9-3.3 16.3-9.4 23.9-15-12.8-10.9-33.4-16.2-45.5-30.4-6.7-6.1-6-16-9.7-23.7-3-13.5 20.6-25.8 4-34.6-7.7-7.4-20-15.7-14.8-28q-16.9-15-33.5-30.3c-13.3-1.8 0 16.5-14 9.8-11.7-4.7 6.8-4.2-6.1-11.8.7-5.3 15.5 2.4 20.7-6.7 6.3-5.6-32.3-12.7-9.5-15.5 16.7-1.1 32.3-1.6 48.2-7.2-8.5-6-17.8-10.3-25-18.3-12.3-14.6 6.5-30.4 16-40.7-3-12.7-36.9 19.4-39 2.2 3.7-11.2 26.7-23.7 20.7-31.3-9.6 7.7-32.8 1-11.8-6.2 4-3 25.9-6.5 14.6-9.6-24-9.7-56-13.3-68-39.1-4.6-17.9 9.6 13.2 18.9 14 13 11.8-2.4-16.5 16-12 7.6-8.7-20.2-12-21-25-9.4 4.4-17.2 11.5-26.4 16.3 4.3-12.2 28.5-15.3 33.8-28.5 12.5-2.9 23.1-13.3 34.6-20 17.9-10.8.8 4-6.6 7.7q-10.5 6.9-20.8 14.2c14.2 17.6-24.8 10 5.4 24.7l8.7 7.7c-5.3 8.5-21.4 11-6.9 19.7 11 13.5 41.6 11.1 45 24.8-11.4 2 1.5 14-11.9 20.5-6.2 6.5-13.2 12.4-18.7 19.6 9.2 7.5 37-21 37.2 1-14.7 11.7-30.6 38.6-3.2 46 14 3.4 20.5 21.6.4 19.5-12.1 4.5-34.7 1.3-40.2 4.7 13.2.7 28.5 1.5 13.6 16.3 4.7 9.4 15.5 14.7 22.8 22.2 27.3 23 60.6 37.7 85.9 63.3 34.8 33.5 47.1 83 45 130 2 67.8-32.1 130.3-69.2 185.5-33.5 53.1-76.6 99.5-121.3 143.2-50.7 51-101.2 102-156.3 148.2a3201 3201 0 0 0-82.6 74.6 1735 1735 0 0 0-67 62.8c-46.3 44-92.7 88-138.2 132.7-15.6 12.2 3.1-13.2 9.8-15.8 29.4-26.9 57-55.8 86.5-82.5 31.6-29.8 62.3-60.4 94.1-89.9q57-51.5 114.7-102.2c44.8-39.2 87-81.3 129.3-123.1 26-27.4 53.4-53.8 77.8-82.8 7.3-11.7 31.4-31.3 26-39.6-19.5-9.6-8.2 19.3-25.4 18-10 8.1-16.8 19.7-26 28.8a1558 1558 0 0 1-109.2 112c-28.1 26-55.9 52.3-84.7 77.6a6084 6084 0 0 1-98.3 87.7 3540 3540 0 0 1-155.6 129c-34.9 28.5-71.8 54.5-106.7 83-13.7 10.8-1.4-7.8 6.1-10.3 63-48 125.2-96.7 186.3-147q55-46.2 108.4-94.1c38.3-33.3 75.5-67.6 113.2-101.4 38-36.1 76-72.5 112-110.7 13-16.3-26.6-4.2-34.9-14.4-11.7-10.9-33-1.3-21 13.1l.3.9Zm126-414.6c30.8 26.8 62.2 59.5 66.6 102.2 3.6 37.7-15 73.2-34 104.6l-18 20.7c13.5 2.8 32.6 15.8 18.6 31.1-7.3 11.4-30.4 27.8-26.3 36a30 30 0 0 0 33-18.5c20.2-31.3 38.4-64.2 48.7-100.3 24-61.6 11-141-42.8-182.6-15.8-11.8-31.4-24-48.5-33.8-9.7-4.5-17.2-1.4-6.7 7.4 13 11.6 23.1 16.8 9.4 33.2m51.6 67.6c-12.4 12-28.7 18.6-43.5 26 10.3 12 5.8 29 5.9 40.3 18.2-7.5 8.7 15.9 5.3 25.4-3.5 9 16 1 7 13.6-5 12.6-9.8 26.5 6.6 22.4 13.6-16.5 21.6-38.6 26.5-59.7 4.4-22.6 4-47.6-7.8-68m-32.8 269c38.7-55.8 76.4-115.5 83-185.1-1.6-10.2-5.6 22-10 28.2-11.4 39.1-32.8 74.3-54.3 108.5 14 9-22.9 15.7-20.3 28.2-8.8 10.8-15 16.1 1.6 20.3m-21.8-323.2c18 6.4 24.6 27.3 37.5 39.7 19.8 12.1 1-13.8-6.4-20.3l-28.6-28.6a11 11 0 0 0-2.5 9.2M702.4 2036c-5.3-2.7-13.2 2.8-19.5 3.4-18.7-1.3-2 34 6.6 11.7 4.4-5 8.3-10.4 13-15.1m51.8-322.7c-2.7-7.1-22.9-33.4-21.1-16.7 5.4 5.1 13.3 15.5 21 16.7M633.8 1363c-26.2-23.7-40.8-57-53.1-89.7-8.2-22.9-10-46.8-11.4-70.7-9.9-8.3 4.9-20.7-3.2-31.6 4.3-9.9-.2-37.4-10.7-17.6-7.4 20-18.2 39-25.9 58.3q-14 29-35.2 53.1c-8.1 17.8-24 28.8-40.3 38.5-14.4 8.9-27 20.3-40 31-12.5-12.2-36.9 4.6-52.4-7.3-30 5.6 27.4 37.8-2 50-10.3 2.8 7.2 15.1-5 21.9-4.7 12.3-40 30-16.4 38.6 11.7 1.6 32-4.7 21.6 14.7-4.1 7.6-15.3 23.9 2 16 20.1-10.9-2.7 56.8-17.6 27.2 11.1-.2 12.8 9.7 9 18.3l-5.2 21.8c10.6 21.5 31.3-7.6 42-16 12.3-12 12.5 11.2 9.4 19.5-5 13.4 1.5 28.4 16.2 15.7 13.8-11.2 26.6 0 22.2 14.9-1.8 20.6 21.6 30.2 30 42-25.3-6.8-33-35.4-37-56.3-12.8.6-41.5 21.6-37.5-5.9 2.3-8.6 6.6-38.6-7.5-19.7-9 11.8-34.2 30.5-41.9 8 1.2-14.7 14.8-44.7-10.8-32.2-2.3-12 16.2-20 23.4-29-30.6-.4 22.6-44.6-13.5-29.5-15 12.6-38.1-8.2-48.3 1.7-1.8 16.9-7 42.7-29.1 30.4-6.2 6.2 12.3 35-23 17.1-12.4-1.6-28.7-5.9-18.8 11.4 7 17 .3 40.6-22.2 32.6-15.5 28.5 23.9 43.3 46.5 41.1-.2 14.5-35.2 19-42.7 29 13.4 17.6-29.3 43.4-.5 49.1 9.7 6.9 40 2.4 37.5 15.5-12.4 9.6-27.2 15.5-41 23 3.3 6.6 13 8.1 19 12.5 24.8 13 51 29.5 80.5 22.5 13.8-3.2 28.2 1.2 20.9 17.8 3.6 13.8-23.1 30.6-11.5 41.6 12-2.6 23.8-9.3 35.8-9.3 12.4 8.8-7 29.1 5.8 40.7 16.7 3.3 27.5 14.7 40.3 25.1 12.9 10 12.5-5.4 22-8 9.5 3.4 27.9 34 9 14.4-10.2-17.8-21.3 13.2-36.4-4.2-11.2-9.8-20-20.2-35.6-22-19.6-9.5 8.5-52.6-21.4-38.2-16 10.5-38.5 6.1-23.4-15 4.9-9.7 10.5-18.9 10-30.1-3.5-19.3-44.2 3.3-56.5-11-22.2-7.4-41.6-21.3-62.5-31.6-8.5-9.7 10-12.9 16.2-17 8.3-4.3 17-7.8 25-12.5-11-7.1-29.4-5.4-42.2-12.5-23.8-7 7.6-25.9 5.2-41.4-5.7-9.4-6.1-16.9 8.2-19.4 13-3.4 34-14.5 11.8-18-12.8.1-22.9-18.6-28.9-17.5-11.6 16.3-50.3 1.6-54.8 25.8 8.3 14-3 8.2-5.7-2.4 10.7-21.5 43-14.5 55.3-28.1-2.7-11-6.6-28.5 6.3-19.1 5.2-12.8 33.3 5 28-18.4 1.7-20-18.1-42.6 2.8-56.7-8.6-10.4-24.9-.5-33.4-8 9.6-1.7 18-10.1 3.6-11.7-20.4-3.5 23-13.7.6-15.5-17.8-2.4 14.6-12-6.5-12.9-14.6-.5-18-8.6-14.6-21-19-14.2-16 17.7-31.4 21.6-17.1 18.3-47-15.4-53.9 17.3-11.5 23.2-20.4-4.2-34.4-6.5-8.2 15.3-22.3 34.8-41.8 16.4-12.7 2.1-18.7-13.3-4.6-5.8l23.3 8.2c13.2-8 23.5-37.2 40.7-13.5 15.3 16.4 21.1-35.8 42.6-17.2 18.6 10 37-8.4 42.4-25.3 3.9-6.1 14 1 20.6.9 4-17.5 15.3-14.7.6 6.7-5 20.3 19 14.3 27.7 5.4q39.8-21.4 79.7-42.6l12.8-15.1 17.3-9.6c.3 6.8-11 9-15.9 13.6-15.6 12.3 10.3-1.9 18-5.9 9.2-6 23.8-8 26.6-19.8 16.6-6.6 35.5-9.7 51.3-21.4 34.7-18.8 70.8-35.2 104.5-55.8 9.3-6.3 20-26.5 18.6-31.5-6.9 3.7-13.3 9.5-20.4 11.9-15.3-6.6-20.6 18-36.4 13.7-9.6 2.7-16.7 16.7-27.8 12.8-21.4 7.4-36.2 30.8-57.1 36.3-7.6-3.4-12 2.6-17 7.4-4.6 5.4-9.6 9.7-17 7.7-15.3-.8-18.3 21.8-34.2 21.7-13.8-1.4-17.5 21.3-29 16.6a34 34 0 0 1 25-19.5c10.9-2 18.1-8.3 24.2-17.3 10.1-7 24-3 31.2-14.8 4-6.6 10.6-7 17.7-6.3 18.3-8.4 35-25 53.3-35.8 14 4.1 21.3-12.9 34.4-14.2 9.4.7 14.9-9 22.3-13.4 14.7 3.6 28-10 38-19.1 10.5-21.6 17.8-45.1 30.4-65.4 5.9-10.4 25.2-6.4 14.5 11.4 4.8 12 .1 25.5 5.7 37 17.2-4.7 32.2-17.8 47.5-27.7 23-15-15-12.2-25.2-12.7-11.2 2.5-31.3-17.4-12.4-7.6 15.6 7.1 63.6 30.4 51.1 6.7 12.9-2.8 26.5-4.5 36.8-13.3 9.8-1.8 30-8.2 10.3-12.3-14.7-8.6-33-6.9-48.1-15.6-11.4-.2-20.4-6.7-31.8-6.2-20.4 4.2-33.4 22.9-53.8 28-21.3 0-33.6 17.5-52.8 23-20.3-1.2-36.2 11.6-54 19.3-21.2 8.2-40.9 20.1-61 30.8-17.3 15-41.2 17.2-58.5 32-17.4 17-40.9 20.4-63.1 26.4-14.9 10-31.8 16.3-46.1 26.8-3.5 4.4-15 7.8-13.3 12.8 5 7.8 5.3 13.7 11.4 21.6-16 9.5 4.5 23.4 2.4 35.3-14.3-.8-33.7 12.8-33.2 16.7-9-24.7 49.7-7.2 24.9-31.3-9-7.5-5.1-17.4 3.7-22-9.9-9-27.4-18.7-15.2-20.3-11.5-5.6-23.1-16.4-5.8-7.4 7.5 1.3 13.7-1.5 19.1-6.5 13.6-11.1 30.4-16.4 44.3-27 18.2-10.8 41.7-6.9 57.8-21.7 14.8-9.9 29-21.6 47-25.3 28.7-16 55.8-35.8 87.4-46 13-5.8 24.7-16.3 39.3-17.2 19.5 2.6 30.7-15.3 47.1-21 10.2 0 19.3-3.7 28.4-8.2 15.5-5.2 25.4-20.1 41.8-24 16.2-4.4 38.4-10.8 36.5-31.3 5.4-9.1 17.3-10.7 25.9-16l75.7-36.9 33.3 9c10.3-9 26-6.2 36.5-15.9 22.5-9.7 45-19.6 66.7-31 24 1.3 36.9-22.8 59.9-24 10-2 36.7-12.2 13.3-15.9-15.2-3-31.2-10.1-46.7-7.1-102.8 45.8-206 90.2-309 135.4-104.4 46-209.2 91-313.4 137.2-41.6 18-83 36.7-124.8 54.3-11.4-1.4 8.7-8 13-10.2l152.8-67c68-30 136.5-59.1 204.3-89.5q136.4-58.9 272-119c35.4-15.5 71-30.2 106-46.6 3.6-7.8-5.2-11.8-5-18.7 1.9-19.7 27.8-8.4 38.3-19.6 5.4-10 2.7-37.2-6-42.4-7.6 2.7-14.8 9.5-22.8 4.6-17.5-.7-.6-16.2 2.9-24.3l71-118 151.8-48.5 14.4-19.9c18-4.3 42.3 6.8 58-2q12.3-16.9 17.6-37.1l19.2-58.2c3-27.6 36.7-10.1 55-11.8 22.2 1.4 44.5 2.5 66.6 4.2 20.6.9 41 3 61.4 4q27.8 1.5 55.4 4.2c25.7.2 51.2 3.6 77 5.1 17.4.6 34.5 2.2 51.9 3 25.3 1.8 50.5 3.3 75.8 5.4 16.3.2 32.3 2.4 48.6 3.3 16.6 1 33.4 2.5 50.1 3 28.5 3 57.3 3.3 85.7 6 16.3.2 32.4 2 48.7 3.1 23 2.3 46.3 2.4 69.3 4.9q25.5.9 51 3.6c19 .3 37.9 2.4 56.9 3.3 16.6 1.1 33.2 2.6 50 3.2q29.5 2.9 59.4 3.9c26.4 3.5 53.3 2.9 79.8 6.1 19.1 1.3 38.4.8 57.2 4.8-8.4 40.9-20.1 81-28.4 122 2 9-6.6 14.5-6.5 24l-29.4 125.2c4.7 7.6 16 9.8 23.8 14.7q318.3 161.7 636.2 324.3c39.8 21 80.3 40.7 120.5 61 12-3 7.4 11.6 9.9 19.1a55071 55071 0 0 1 42.8 353.3c13.9 11.3-13.1 8.8-20.2 12.3-12.4 5-19.4-1.9-4.6-4.7-4.7-.8-13.2-10.3-16.3-2.7-37 52-74.2 104-110.7 156.4-4.7 5.3-7 14-13.4 16.9-86.7 18.3-173.6 35.8-260.5 53.8-58.9 12.5-118 23.4-176.9 36.3-7.4-6.1-13.1-15-21.7-19.3-29.4-8.7-19.4 32.1.4 36.8 8.2 5 17.4 8.5 24.7 14.6-3.2 7.4-29.8 12.2-10.5 24.6 15.6 5 22.8 25.7-4.2 21.4-19.6-3.7 12.6 24.1-11.8 20.2-15.6-4.8-19.3 1.4-11.6 15.1 9 16.1.5 39.5-19.3 16.4-22-12.6-54.4-5.6-58.7 22 2.3 11-8.9 13.6-17.5 12.3-13 2-24.3-3.6-35.3-9.4.6 14.5-4.6 38.1-21.3 14.6-8.5-10.7-19.3-20.5-26.9-3.4-17.5 8-20.1-17-35.8-10.2-19.5.7-29.7-20.9-49.7-14.4-14.7-4-.5-35-23-25.8-19 9.1-27.8-17.2-39-26 7.6-13.7-8-11-16.3-13-3.3 11-1.5 43.6-26.6 35.6-26-9.8-16.7 28.5-11.2 42.3 14.2 17 34 29.6 48 44.8-8.9 8.4-42.4 9.5-24.7 31 3.1 10.6 17.9 15.9 22.6 25.5 3 12.6-14 14.9-23.4 13.1-5.8 1-17.6-4.9-19.3.7 7.5 11 13.2 37.1-8.9 29.5-11.6-4.2-30.4-11-21.6 8.2a175 175 0 0 1 1.3 50.3c-10.5 20-24-15.5-37.5-19-14-8-30.7-16-47.2-13.7-25.2 8.2-30.9 40.7-44.4 56.8-22-.8-46.6-5.6-58.8-26.3-8-8-6.9 10.8-9.2 16.6 1.2 17.4-17.5 27.4-23.6 6.8-10.2-11.8-16-49.6-31.8-24.7-17.3 11.7-31.8-3.2-32.5-19.4-4.4-5.3-13-1.2-19.2-2.5-19.6-2.2-18.5-31-35.4-32.2-11.3 5-25.7-5.2-22.3-18 12.6-14.5 4.6-34.7-14.2-28.9-10.7.2-6.9 16.1-17.8 15.3-6.3 7.5-1.6 26.1-2 36.6 8.4 10.2 32.6 13.2 18.7 30.6-12.1 13-9.9 28.6 7.5 34.7 7.3 3.1 32 7.7 13.4 15.8-19.6 18.4 38.3 10.6 28.1 34.6-.3 13.4-18.3 26-12.5 37.5 8 14-12 37.8-22.8 39.2 1.7-6.2 8.2-12.2 11.7-18.2 9.6-8.2 5.6-17.8 1.9-27.4 5-11.5 19.1-25.6 14-39-7.4-10-38.3-6.5-32.6-23 15.3-11.6-4-9-13.3-14.2-19.1-12.9-22.5-38-32.3-57.4-3.9-15.8-7.4-2.1-13.6 4.3-8 4.3-7.1 14.7-10.4 22.3-10 26.5-31.9-6.9-42.5-16.8-12.6-9.6-17.2-41-28.8-40.5-15.7 21.2-23.3 47-34 70.7-9.9 9.4-18.3-6.4-25.5-12.2-11.8-10.7-17-26.3-24.5-40-5.8-23.8-33.5 2.8-49.3 5.4-14.4 6.2-27.2 16-41.5 22.2-23.1-4-3.4-35.4-4.1-51.4 6.5-23.9 3.8-48.7 4.4-73.2-13.2-18.5-38.6.7-55.5 6.1-6.8 4.8-17.2 1-17.7-7.7 3.5-14.6 18.1-31.9-6.2-33-16-6.5-28.7-19.4-42.6-29.4-16.7-16.7 28.2-36.8 3.7-47.3l-35.2 26.1c-13-4.2-27.6 19.6-32 14.5-7.4.7-29.5 28.2-37.5 13.2 0-11.3-1.2-84.2 32.3-18.9-8.7-2-17-4.2-26.5-5.8l-26-4c-5.4 9.4 10.5 18 8.8 29.5-5.4 23.5-37.3 18.9-55.4 15.7-30.1-1.2 1.6 30 11 40 6.2 20.4-30.4 3-34.4 21.2 4.9 13.3 15.8 6.2 21.3 18.9 19.3 0 14.4 17.4 1.1 19.6-20.9 11.7-44.4 22-58.5 42.7 29.6 4.2 62.8 16.3 81.2 42.3 14.6 18.1 4.5 41.5-.6 61.2-2.5 16-16.5 26.9-20.9 40.5v1.7c9.4 13.2 24.4 35.8 44.5 36.6 15.3-.4 51.4 6 23 26.7-6.6 9.3-40.6 34.3-13.3 34.3 22.2 2.3 46-11 66.5-3.2 10 12.2-7.3 30 .4 43.2 10.2 15.3 31.1 3.8 42.3.4 8.6 8.1 26.4 22.2 22.9 31.9-17.3 8.1-21.8-34-41.2-13.7-18.3 11-35.7-15-35-31.9 6.4-12.8 6.8-31.6-12.7-22.3-19.4 2.8-39 5.2-58.7 3.3-13.3-7.7.2-23 7.2-30.9l19.4-22c-8.8-11.5-33.8-3-45.3-16-10-12.4-23.5-22.8-30.1-37.4 3.7-20.2 28.3-32.1 27.3-56 16-29.9-9.9-56.5-34.7-68.3-11.2-3-21.8-9.7-34-7.9-36 44.2-66 93-97.2 140.6-19.1 30.7-39 60.9-58.7 91.1l-8.6 9.5c6-15.5 17.8-29.2 26.5-43.8 42.9-65.8 82.7-134 131.4-195.8 1.2-6.9-19-8-20.4 2-42.6 59.1-85.7 118-124.8 179.5q-27.2 43.3-55 86.2c-6 1 6-13.1 9-19.4a3279 3279 0 0 1 161.3-239.5c16.9-25.3 37.7-47.6 56-71.8 6.7-7.8 17-17.2 4.2-25.6-12.7-16.9 19.3-22.7 29.6-26.6-6.8-10.8-20.8-17.6-22-31.6-4-6.3.4-13.5 7-15.4 10.7-4.3 22.2 2.5 33.5 0 11.5 1.7 26.3-5.6 23.4-18.8-2-8-8.8-15.7-7-24.2 18.3-10.3 45.8 14.8 62.3-2.4 13.3-13.2 28.6-24 42.8-36-1-8.5-10-23 3.2-30.8 10.2-10 28.5-18.4 7.5-28-9-9.9 21.9-30.8.8-22-30.6 18.6-57.7 42.2-85.5 64.5-25.6 22.8-51.4 45.2-75.4 69.6-33 31.7-67.6 62-97.9 96.6a1175 1175 0 0 0-104.7 131.8 2632 2632 0 0 0-113 165.4c-12.8 19.8-26 39.5-38.6 59.5l-6.5 7.3c3.6-14.2 17.3-28.2 24.6-42.2 22.4-35 44.4-70.3 68-104.5a4094 4094 0 0 1 116.6-161.6c28.2-33.4 57.9-65.4 87.6-97.4 57.3-54.6 113.3-111 176.1-159.4 15.7-13.9 35-23.3 50.7-36.9-11.4-7.2-23-22.5-.8-23.4 22.2-6 44.3-15.4 66-20.7 6.4-11.6 12.4-23.4 19-34.7 5-.9-4.9 12.4-6.6 17.3-3.9 6.8-13.8 22.9 2.5 14.1q39.1-14.5 75.5-34.6c7.5-6.4-5.4-12-8.7-17.2-5.2-16.6 19.1-13.4 29.4-18.6 9.2-2.9 40.2-8.4 15.7-14.2-7.7-1.4-22.7-9.2-6.8-5l25.4 8.4c14.2-6.5 26.9-14.4 40.5-22a476 476 0 0 0 76.2-48c11.3-8.3 24.7-12.8 34.8-22.7 21.5-17.2 39.6-38 60.5-55.9 8.9-9.1 25.6-23.8 3.6-25.6-19.5-4-41.8-16.4-59.8-15-5.6 9.8-10 20.2-15.7 29.9-5.3-8.4 25.4-33 4.5-36-35.3-11-71-20.9-106.6-31-11.9-6-13.4 17.6-19.9 17.9l8.8-20c-20-8.4-42.1-12.5-63-19.2-28.7-11.6-48 32.6-77.2 33.8-29.4 11.2-58.8 23.1-89.7 29-6.5 8-7.1 1-14.9 3.2a407 407 0 0 1-114.9 4 337 337 0 0 1-95.7-20.7c-10.3 14-1-10.3-16.9-9a237 237 0 0 1-49.2-37.5c-16.8-16.3-37.8-34-33.4-60.8-.3-17.3-4.6-34.4-3.3-51.7 4.7-9.3 4.6-22.9 6.5-26.3 13-10.4 18.5-29.5 32.1-40.4 29.4-28.4 65.8-48.3 102.5-65.7 20.5-7.9 42-14.5 61.6-24.1 14.4 1.3 32-2 47.8-5.2 29.2-4.6 59-9.1 88.5-4.5 18.2 0 35.9 6.3 53.5 9 9.2 4 13.7 7-.2 4-29.5-5.6-59-13-89.2-10.7-19.8 0-39.3 4.9-59 6.7-21.7 2 11.3 17.6 19.6 7 18.3-11 37.6-2.2 55.4 1.9 9.3-6.5 41.4-1 34 6.7-17.1-14.6-40.7 7-57.4-9.4-24.5-5.8-47.2 22-69.1-.2-13.2 8.2-30.6-4.4-42.8 8.9-10 6.7-16.8 15.4-27.4 20.2-4.4 6.3-11 6.9-18 6-19.7.8-25.8 21.8-46 23.5-16.3 8.7-16.1 36.4-13.7 49.4 2.5 6 1.6 18.6 11.5 24.1-6.8 14.7 16 21.2 21.1 32.7 6.6 10.3 22.8 7.3 29.5 16 14.5-3.4 23.4 15.1 37.3 16.7-7.1 2.8-24-10-20.8 5.7.2 17.8-1 35.6 2.9 53.1 8.9 6.5 35.1 16 29-4.3.8-16.7-2-33.3-1.6-50 3.6-9.9 13.3 2.5 20 4 6.8 2.1 15.6 10.4 1 5.6-7.6-1.7-22.9-19-17.8 0 1.2 17.2-.6 37.3 4.3 52.5 10-.7 19.3 11.4 29.5 4.4 12.2-.5 8.6-13.3 6.8-21.3.5-14-10.4-43.5 15.8-32.3 6-5.5 32.2.9 12.3 2.3-14 1-31.2-3.6-25.2 14.9 1.5 12.8-.2 27.3 7 38.4 18.8-3.3 39 2.4 55-10 15.2-3.3.8-26.1 4-38.2-8.8 1.3-26.8-14.2-10.6-7 9.8 6.2 20.1-11.2 26.5-7.5-1.5 5.9-11.5 8.5-12.7 15 4 13.3-2.8 37.1 13.4 41.8 12.2-2 20-12.5 32.4-9.6 12.7-19.8 42.5.8 49.7-24.5 12.5-10.9 32.5-13.8 39.5-29 6.1-7 2-14.6 6.1-20.8 21.8-6 31.8-31.2 26.6-52 2.7-22.4-11.6 9.4-19.8 14.1a36 36 0 0 1-20.4 18c-12-3.4 16.3-7.5 15.6-18.1 17.5-14.2 24.7-40.6 24-59.8-11.4-12.5-19.4-29.4-37.4-34.3-17 3-1.2-17.8-19-19.5-13-12.8-33.2-11.7-47.4-16.8 12.9-2 26.6 0 38 6.4 8 3.3 15.1 8.5 22.4 13-1.2 13.6 10 15 20.1 18 9.8 12.5 26.4 22.9 30.6 37.5-5.4 10.5 2.4 22.5-.2 34 1.8 22.3-4 44.6-19 61.4-14.3 11.6-12.3 32.6-33 37.1-19.5 5.6-26.7 30-47.4 29.6-15.5-5.5-24.4 14.5-39.3 10.3-11.7 8.4-27.1 13.5-40.8 4.2-8.3 8.9-20 12.9-31.2 8-9.5.3-19.4 4.5-28.7 4.3-11.8-10.3-26 5.4-38.7-6.6-10.7 5.3-19.5-7.2-30-2.8-9.3-3.6-17.7-10.9-28.2-9.6-17.8-.5-26.4-19.6-41.7-24-16-3.3-14.4-24.7-21.5-35.9-18.5-13.5-15.6-38-22.4-57.4-2.6-18.1 13.6-30 17.5-45.8-4-18.9 7-37.5 25.4-43.5 18.2-1.5 26.5-26 48.2-19.6 4.5-7 32.2-19.5 11.3-14.1a349 349 0 0 0-119.7 72.7c-21 24.7-39.5 56.7-32.5 90.2 3.6 29.3 23.9 53 45 72 34.3 31 81 39.8 124.7 49.4 32 4.7 64.3 3.8 96.5 3.4 28-2 55.9-5.7 83-12.8 16-7.1 33.5-11.3 48.9-20.3 27.3-13.9 56.2-25.9 78.3-47.8 27.3-25.1 54.2-58.7 52.6-97.8a86 86 0 0 0-24.6-62.2c-26.7-29.3-63.4-46.6-100.1-59.8-14.5-10.7 23.5 3.8 31.8 7.7 27.2 11.3 51 29 72.7 48.8 5.7.3 3.2 10.6 9.5 14.3.8 6.2 13.5 10.9 11 13.3.5 14 6.2 32.3 4 48.4-2.4 20.7-5.9 41.3-8.4 62a160 160 0 0 1-44.3 55.1c10.6 7.8 27.3 8.4 40.2 13.5 12.1 1.4 26 11.7 37.3 6.6.8 3.5 8.2 7.2 14.7 8l107.6 31.5c6-8.9 12.7 10.1 25 7.8 18.2 4.2 37.7 15 55.4 13.3 5.3-8.4 13.8-9.9 8.6 2.3 2.3 7.2 13.4 6.5 19.6 10.2-5.5 6.5-26.1-11.7-27.4 7.2-16.3 36.2-21.6 76.3-24 115.6 4 17-.8 40.3 10.9 53 16.4-3 33.9-1.4 49.8-6 10.8 3.9 23.2 1.1 34.8 2l125-.1c5.9-4.5 10.9-9.2 7.6-17-.8-9.1-4.1-18.5.7-27 11.4-3.6 35.4-4 29.2-21.8 9.8-8.3 22.7 1.2 33.6-5.2a159 159 0 0 0 40-13c12.4-.5-9.7-12.9 6.7-14.3 46-28 83.7-70 107.6-118 12-8.9.5 21.9 2.2 29.4-4.5 27-6 54.4-3.6 81.6 2.6 17.4 1.2 35.1 6.7 52.2 4 16.7 5 35.5 12.4 50.5 20.3 2.1 41 2.8 61.5 3.3 12 3.4 19.7-8.7 31.8-10.8-5.5-4-6.3-10.9-9.4-16.1-7-6-15.4-10.8-16.8-20.8-18.8-27-35.5-56-58-80.4 1.5-19.3 8-45.3 21.6-58.5-3.8-14.3-21.6-30.1-30.9-45q-43.4-57.4-87.3-114.5c-5.5-9.1-24.6 6.6-17.3-11.3 9.7-36.2 21.8-71.8 30.7-108.3 9.6-13.8 22.3 16.7 32 23q46.8 51.3 93.3 103.3c15.5 16 30 33 45.5 49 13 3.2 2.7 16.7 1.3 25.5-7.7 25.6-16.6 51-23.8 76.6-.5 17.2 17 28.2 24.5 42.8 13.1 9 22.7 36.6 35.8 37.5l39.3-107.1c-13.6-18.5-31.2-34.2-46.4-51.6-42.5-46.3-86.4-91.1-127.8-138.4a9490 9490 0 0 1-99-105c-21.3-22-40.3-46.7-63.3-66.2 1.3 5.9 8.9 10.4 12.6 15.7l47.5 51.8c-9.4 17.5 13.7 23.2 16.5 39 3 25.8-10.6 49.1-15.6 73.8-15.4 16.1-9.2 44.7-29.7 55.7-11.7 2.5-21.8-4.2-28.6-13-7-14.9 3.8-28.6 9.7-39.5 0-7 4.8-15.2 1.4-21.5-17.3-22.9-35.6-45-54-67.2-5.3-9.3-13.6 2.9-21.5 1.3l-30 3.6c-7.4-11.4-17.2-21-24.7-32.3-6.7-10.4-14-20.5-19.9-31.4 6.4-12.5-1.1-35.5 15.8-39.5 14.7-3 40.3 2.2 47.6-10.9-10.2-8.8-31.9-8.6-46.8-10.3-37.2-9.4-74.3-19-112.4-23.5-26.2-5.2-52.1-11.3-78.6-14.8-20.5-4.2-40-12.4-61-13.7-27.8 5-20.7-32-16.4-42.4 1.9 11.3-.7 23.1-.4 34.7 34.7 4.8 68.9 18.4 104.3 22.5 25.2 3 49.3 11.8 74.6 13.8 29.2 4 57.4 12.6 86 19 17-.3 38 9.2 52 5.9.8-11.8 13.3-33.6 1-40-27.8-6-56-10-83.5-17.7-23.4-2.8-46.2-8.3-69.3-12.7-20-4-40.2-7.9-60.6-8.8a748 748 0 0 1-89.3-16.1c-34-15.6 81.9 15.4 47.9 6.1 21.6 4.6 43.5 6.4 65.1 9.2 20.3 2.3 39.8 7.7 60 10.8 30.2 7.7 61.5 10 91.7 17.8 14 2.5 27.8 7.6 42 8.7 7.1-6.3-7.5-13-11.3-18.6-4.6-5.8-10.8-6.1-15.1-11.1-9.3-1.5-18.6-7.8-28-4-14-6.5-29.3-7.7-44.2-10.8-38.3-5.3-75.7-18.3-115-21.8-19.3-5-50.5 1-60.9-16.3-2.8-12.7 6.2-25.8-5.5-30.2-29.7-5.5-58.8-13.5-88.4-19.7-22.7-4.5-45.4-9.8-68-14.8-5.4 7.7-10.1-3.5-17.7-3.5l-41.6-7.9c2.9 12.4-9.7-4.2-15.3 8.7-12 4.6-22.7 23.5-29.5 24.6-4-6.7-14-5-20.7-7.8-14.9-4-32.3-8.4-45 3.4-17.4 5.8-6.2 24-6.5 36.7-1.6 15.4 17.7 13.5 28 16.6 18.2 4 36.7 6.7 55 9.4 4.9 11.4 30.3-10 18.2 2.6-24.4 5.5-51.4-7.6-77.2-10.5l-24-4.8c-5.6-12-1.6-29.8-20.5-29-19.2-2.6-40.3-16-54.3 10.3-14.2 1.2-28.7-3.7-42.6-6.9-20.3-4.7-40.4-11-61-14.2-11.3 3.8-37.8-12.2-8.5-4 32.2 1.6 61.3 16.8 93.2 20 10.8 4.6 21 1.2 29.4-6 11.9-3.8 11.2-16.4 9.3-26.8 4-21.8-18.3-18.4-33.3-20.2-16.3-1.5-37-12.9-49.6-7-.2 11-8.9.2-14-1.6.8-2.5 10.6-.6 4.6-5.8 14.1-14-24.4-20.5-27-6.5-8.3 6-44.3 16-19.6 19.5 27.9 5.5 55.5 12.5 83.3 18.2 11.3-2.2 21.5 5.9 4.8 3.1-21.9-1.7-42.7-8.7-64.1-12.9-12.4-1.6-31.8-9.4-39.3-5 1.4 12.4 15.5 7.2 5.6 17.5 1.6 15.8-8.5-5-16 7.4-23.4 14.8-48.1 28-70.7 44 9.6 3.2 13.4 11.2-.3 15.2-66.8 38.2-134 76-200.5 114.6q-16 9-31.6 18.3c9 4.6 23.4-11.2 34.5-15q86.5-49.1 173.2-97.9c12.4-6.8 24.3-14.7 37.1-20.6 5.6 3-10 8-14.1 11.5-72 41.3-144.6 81.5-216.7 122.5-6.1 2.9-11.4 6.7-13.8 13.2-12.7-7-27.7-12.7-42.5-10.8-9.7 2.3-17.9 9.7-27 14l-111 63.3c.3 22.6 20.7 38 26.8 58.5 2.1 9.4 12.8 13.9 14.7 23.2m1505.1 174c-15.5-16.5-28.6-35.5-43.5-52.7-2.9-7-15-25.3-17.5-18.5 31 41.7 63 82.7 94 124.6 7.8 12.3 2.7-3.8 4.5-2 10.7 14.6 16-4 2.1-10.9-16.7-22.5-32.3-46.2-50.3-67.4-10 5.6 11 18.8 10.7 26.9M1041.4 775.4c4.6 13.9 14.7-10.4.8-.3 1.3-6 12-10 18.2-14.9 5.7-8 30-35.6 6.7-23.9-9.6 8.4-38.2 8.4-39.2 20.8 4.3 6.2 8 13 13.5 18.3m-26-20c8.3 11 15.1 23.4 25 33.2 5-5.3-5.5-11.1-7.3-16.7-4.3-5-7.2-12.5-12.3-16.1-9.6 1.5 1.6-8.6-7.5-13-9-11.7-16-25.4-25.9-36.2-9.2 6.2-13.1 19.7-20 29.2q-30.2 50.2-60.2 100.7c3.7 8.9 11.7.3 13.5-6.5l60.9-106.7c10.5-10 19.7 18.6 28.7 26.2-2.6.2 7.7 5.9 5 5.9m1203.2 745.5q19-1.6 4.7-13.3c-18.5-21.7-38.4-42.3-57.4-63.4-8.2 10.1-4.7 21 5 28.3 15.5 16.6 30.9 33.2 47.8 48.3-4.3 9.4-11.8 20.3-15 32-5.5 15.2-13.7 29.9-17 45.7-.5 18.3 22 21 22.3 3 7.7-25.5 16.8-50.6 23.8-76.3 2.5-7.6-10-2.8-14.2-4.4M971.4 759.3c2.4-12 13.4-20.6 15.8-32.5-12.8 10-23.9 40.2-36 57.7-9 18-23.5 36.5-29.2 54.2 17.5-.1 9.4-13.7 14.6-22.6 11-18 20.9-36.7 32.5-54.3 4.8-2.3-6 14.5-9.2 20.2q-11.5 19.3-22.2 38.7c4.7 23 6.4 46.3 10.7 69.2 5.6 7 5.3-4.8 3.8-8.5-1.8-16.9-5.6-33.5-6.4-50.5 3.7-6.1 9.6-34 15.8-26.8 1.4 8.4 2.7-12.6 12.4-4.6 14.5 3.7 32.8-1.2 44.9 7.2l7.5 64.3c2.5-11.4-2.2-23.7-1.7-35.4-1.4-10-6.7-42.6 7-20.4 9.2 12.4 15.7 25.3 15 41 1.7 18.2 2 36.4 6.2 54.2 7.8.8 16.9 7.3 23.7 2.5l-11.6-97.6c-8.2-9-42.8-.7-30.3-17.2 5.8-11.7-12.1-21.6-16.7-32.1-9.5-11.5-17-25.4-27.7-35.4-6.4 9.5-10.9 20.5-18.9 28.7m178 28c-3.2 11.4-13 20.4-8.8 32.9 2.7 33.6 7.9 67 10.3 100.5 2.1 15.8 2.1 32 6.1 47.4 19.2 8.6 28.3-.8 20-19.4-1.7-15.3-5.2-30.6-5.6-46 3.5-12.8 38.8-12 36.3 4.9 2.7 23.7 3.9 47.6 8.7 71 11.3 4.7 27.6 7.6 22.8-9.3-2.7-17.3-1.5-34.8-4-52.1-4.2-25.7 30.6-8.4 45.2-8.1 19.9 1 41.4 6.3 35 30.6 2.3 16.8 1 34 3.5 50.8 2.2 17.5 29.2 8.1 42 14.6 13-8.2 3.2-33.9 6.2-49.4 0-23 .3-45.9-1.9-68.6 1-10.6-.2-20.9-8-29-42.1-66.3-84.4-132.4-126-199-6.9-11-10.3 6.4-14.7 11.3-6.6 11-12 23-19.3 33.5-3-1.7 6.5-15.4 10-22.3 5.7-10.5 12.1-20.7 17.3-31.5-13.5 5.8-19.7 31.5-30.2 45.2-25.5 45.4-52.1 90.2-77.4 135.7 9.5 4.4 26.2-7.9 19-21.3 3.5-7.6 7.3-16.7 13.4-22.4m1449 475.6c12.4 4.2 22 14.3 33.4 20.8 78 52 154.5 106.2 233.2 157 14.6-9.6 26.7-23 40-34.5 22-20.4 45.2-39.8 67-60.5 1.9-9-15.6-12.3-23-18.2-96.7-53.6-192.9-108.3-289.6-161.9q-153.4-86.4-307.3-172-113.8-63.4-227.4-127.5c-18-16.1-28.1 14-41 24.2-16 18.5-32 36.7-47.7 55.5 10.4 5.1 7.2 8.6-4.3 6-9.8 8-17.2 19.1-26 28.3-21.8 24.5-42.6 50-64.7 74.2-7.4 8.3-23.4 23.6-4.6 28.4-13.5-.7-20.4 13.5-28.5 22.1-13.6 5.8-2.6 23.8 4.7 20.5 1.3-4.7 1.9-24 6.3-14.8-9.4 22.3 10.1 37.4 23.8 51.8q60 64.5 120.2 128.8c56.7 61.8 114.7 122.4 171.2 184.3 34 36.6 68.3 73 102 109.7 17.2 16.4 31.3 35.9 49.7 50.9a266 266 0 0 0 39.9-53.9c6.6-7.6 10.5-34.9 16.4-32 5 31.5-.7 64.3 10 95a331 331 0 0 0 18.1 57.6c.3 22.2 29 34.5 27 55.6 7.4 9 17.4-.6 23.3-6.6 31.7-29.4 64.3-57.8 96.5-86.7 10.7-12.6-17-22-24.8-32.8q-62.7-54.7-126-109c-35.8-32.2-72.4-63.4-109-94.8-3.6-10 12 5.3 16.1 9l87.2 76c27 22.4 53 46 79.7 69 27.3 24 55.4 47 82.5 71.3 16-.2 28.8-23.8 43.4-33.6q38.4-33.3 75.6-67.9c12-13.3-21-22.3-28.3-33.5-58.6-45.2-116.4-91.5-174.8-137-10.6-7.7-20.7-16.2-31.1-24.3-19.3 18.6-37.3 38.9-56 58-4.7 18.5-14.6-3.3-23.2-8a1892 1892 0 0 1-47.1-38c-9.2-.8-14 10.1-22 14-6.4 7.3-29.7-11.2-18-22-.3-9 12-16 4.4-22.5-39.8-34.5-81.2-66.8-121-101-17.2-12.9-33.6-31-51.6-40-9.7 7.1-19.1 28.2-29.7-.2 4.7-13.8 13.7-26.3-4.6-34-15.4-4.5-14-13.4-7-24.4 3-12 19.4-28.9 6.9-36.8-48.5-32.5-98-63.6-146-96.7 2.3-7.3 22 12.6 30.1 15.8 40 26 79.7 52.8 119.7 78.8 13.2 1.4 15.8-27.6-1-30.4-7-5.5 1.9-11.6-1.8-18.4-.4-11.9 16.8-13.8 24.5-20 7-7.8 39-14.3 28.9-24.8q-67.8-38-136-75.6c-7.7-9.1 14 3.4 20 7l126.4 70.2 38.6-23.7c19 8.1 36.2 20.1 54.4 30q135.6 78 271 156.3c23.5 12.6 46 27.2 69.7 39.4 6 0 20.5-13.7 12.7 1-10.8 11-27 17.7-35.2 31.8-19 23.7-40.8 45.3-62.3 66.8-13 14.5-29 26.8-40.4 42.5-.6 7.1 10.5 10 15 15.3l130.7 102.8c31.6 23.7 61.8 49.2 93.6 72.5q37.3-31.6 73-65l33.6-29.8c7.7-7.2-8-10.6-12-15.4-81.2-56-163.8-109.8-245-165.8l-1.3-2zm-926.3 866c6.1 4.5 6.3 19.9 14 6.3 10.3-11.4 43.2-5 44.7-20-21.3-25.7-30-59.1-49.8-85.9-6.3-14.1-12-30-7-45.4 1.2-6.8 5.4-16.8-5-11-10 1.4-22.2 2-12 13.3 9.8 22.8-18.3 8-27.3 10.9-14.8 5.9-15.5 37-32.8 30.8-17.4-5-9.4-47.7-29.7-24.5-11.7 8.6-21.7 37.2-37.6 18.1-16.4-13.5-17.8-42.9-33-52.2-14 15-38.6 8.5-48.7-5.8 5-5 16.9 6.2 26 3.8 16-7.1 40.4-26.2 41.8 9.8l9.3 20 14.1 17c12.2-8 21.2-22 35.1-29.1 16.5-10.1 17.7 9.3 19.8 19.7 2 21 14.3-.2 20.6-8.6 6-10.6 16.5-13 25.7-13.9-8.5-6.6-20-34.7-.1-21.8 12.3 8.5 23.4 2.1 36-1 15.3-8.2 43.8-17 46.6-32-12.5-12-17.4-33.4-35.5-30.4-12.6-11.8 13.7-10.9 19.9-17 11.2-10.9-17.3-21.5-20-33.5-10.6-15.5-39-38-27.8-57.5 10 1.7 23 2.1 14.7-10.9-6.9-18.2-4.8-38.3-7-57.4 3.5-30.9 5.6-62.4 17.6-91.5-7.2-3.4-20.3 19-32.5 22-21.7 22.3-46.6 41.2-70.8 60.7-12.7 6.3-21.4 18-34.5 21.9-15.4 8.4-29.4 19.8-46.6 23.8-29 19-63.8 26-96.5 36.5 2.3 17.6 22.1 8.2 31 19.1-6.7 28.4-51.3 32.8-57.7 60.6 12.2 3.7 34-4.6 39.7 10.3 14.3 8.6-15 19.8-24.7 18-15.1-2.9 6-14.2-3.2-17.4-14 3.6-34.8-4.4-20.9-21 11.7-14 35-20.1 41.6-36.6-27.6 12.3-54.8 26-83.6 35-18.3 2-36.3 5.6-53 13.4-9.6 4.6-39.3 7.3-16.9 17.1 7.4 3.3 13.8-5.6 21-7.8 11.3-5.5 35.7-19.9 39-15.2-15.3 9.7-33.3 14.6-48 25.1 17.1 11-28.4 21.9-5 32.6 10.4 1.6 39.5 10.6 18.6 19-14.3.7-39.5 14.4-34.8 28.5 7.9 10.7 19.9 18.8 29.7 8 8.8.2 4 12-2 14.4 12.6 4.7 28.5 19.3 3.3 33.8-16.2 17.2 15.1 25.2 25.5 35.1 9.2 9 31.9 3.8 31.9 20.5-6.5 12-14.4 29.6 3.3 18.6 15.5-6.4 33.2-13.1 49.5-6.4 16.2 22 9.1 54.6 5.5 80.5l-7.2 41c3.6 11.8 23.4-10.6 33-12 15.5-6.7 32-10.9 47-18.3-2.6-15.8 15.8-12.3 16.9 1.2 0 15.3 9.6 28.7 16.7 41.7 6 12 24.1 25.3 24.9 2.8 8.9-20.6 17.6-42.4 33.3-59 24.5.8 23.2 39.3 41.5 52.8 9 9.8 22.7 27.7 29.5 6 14-14.2-1.9-48.3 23.5-47.3 23.1 13.8.6-24 19.7-29.4 4-6.5-5.5-20-.3-30m1412.2-512.3c-1.6-31.6-5.8-63.1-10.1-94.5-3.5-37.5-9.3-74.8-12.8-112.4-4.7-32.1-6.9-64.6-11.8-96.8-18.4 8-33.4 30.3-51.4 42.7-46.7 42.5-94 84.4-140.3 127.4-43 39-86.2 77.6-128.8 116.9-30 26.2-58.4 54.2-88.8 80a1507 1507 0 0 1-44.5 40.8c-11.5 18.2-18.6 38.9-28.2 58.1-16.7 38.3-34.4 76.2-51.5 114.3-6.5 12.6 12.9 3.6 20.1 3.2q130.5-27 261.2-53.7 74-15.6 148-30.5zM1774.8 1939c3.5-5.8 8-10.9 8.8-17 9.8-16-5.5-8.5-15.8-4-10.8 4-23.6 10.2-32.9-.2-2.3 3.9 1.7 20.7-7.2 27.5-1.6 13-29.1 3-27.4 20-13.9 7-12.5 25.7-14.9 39.4 8 13.7 40.4 12.5 23.1 33.2-13 13.2 11.5-18.2-8.6-17.6-26-12.7 13.5 38.6 5.4 39.2 7.8 20.9 28.7 43.2 35.7 61.4-7.3 10.4-17.1 13.2-28.5 13.3-11.4 1.5-24.1 4.5-29 16.3 6.6 8.8 31-4.1 31.7 13.2 2.7 15-11.7 45.3 16.3 36.6 18.7-2.7 13.1 24.6 28.6 29.2 10.8 1.4 24.6-2 32.3 6.5 1 6.6-.9 14.6 6 18.4 13.6 15.5 23.5-24 36.4-8.1 7.5 13.7 14.2 28 22.5 41.3 15.9 4.3 4.5-54 27.3-30.9 8.8 8.2 15.9 20.6 29.1 20.7l22.1 4.2c11.8-14.2 9.2-39.2 31.1-48.6 17.2-15.8 43.6-7.2 61.5 2.8 12.5 4.2 23.6 22.6 33.1 22.7a134 134 0 0 0-.7-44.2c-1.4-7.6-11.1-29 3.1-25 8.7 7.6 44.5 20.7 32-2.8-13.3-10.9-6-24.9 7.2-18.4 25.6 9 55.6-12.8 4.9-33.5-11-10-3.2-24.7 9.3-27.5 27.9 4.6 10-27-13-30-18-14.6 12.2 37-10.8 24.2-2.5-23-4-45.5-12.6-66.8 4.7-12.2-3.2-35.2-13.8-15.6-1.3 11.6-11.2 24.5-23.8 17.2-16 .9-34.1-14.9-46.5-13-2.6 19.5-28.6 22.7-26.6-1-1.6-18.4-19.6-32.5-32.6-13.2-19.5 13.6-33.5 33.3-50.1 49.8-9.4 4.1-9.9-9-10.6-15.5-3.5-17-4.9-35.5-13.4-51-15.7 6.6-37.3 13-52.4 4.9-2.4-13.6 14.9-28.8 18.4-44.1 9-13.7-7.3-8.9-14.6-6.6-10.3.2-41 10-40.1-7.4m354.7-162c-5-18.1-11-36-14.3-54.7-7.3-19-3.4-39.4-4.4-59.4-1-24.9 3-50.2 1-74.5-18.3 20.7-34.8 45.8-56.6 64.6-10.2 14.4-35.6 22.6-40.3 35.7 15.5 12.8-20 20.1-29.5 22.2-11 5.8-50.1-3.6-40.7 16.9 8.4 8-2.5 18-8 7-17.5-1.6-38 6.7-28.3 27.6 3.4 12.4 6 32.2 22.2 32.6 6 7.7-7.8 8-13 9.2-13.7.3 10.5 10 .1 18.7-3.4 10.5-7.1 25.9 7.6 13.6 17.4-16.3 21.4 13 15.5 24.8.2 20.7 30.1 0 42.4-2.4 13.2-7.3 12.6 10.4 14.3 19 5-3 6 10.5 13.2 9 11 10.4-29.5.1-23.8-14.4-8.2-13.5-31 11.2-46.8 5.8-24 2 7.2-40-12.7-34.7-9.1 8.4-32.7 6.2-20.3-10 8.1-13 0-20.3-8.9-28.4 8.6-6.6 19.9-9.7 6.9-20.3-16.7 23.4-46.2 29.1-71.8 38.3-7.3 4.5-32.2 4.8-20.7 10.8-7 8 12.2 24-1 34.8-7 7-3 19.4-15 23.6 2.8 4.5 11.2 13.2 1.8 19.5-10.4 7-24.8 33.9-.7 28.6 14 4.5 32.3-14.5 43-4.9 3.5 13.8-8.1 28.5-14.5 41.6-8.2 9.7-5.8 18.5 9 14.6 13.3 3.8 36.2-21 40-5.4-6 15.5 11 35.8 10 53.9 3.9 19.3 22.3-21.8 30-23.3 14.5-8 35.8-42.5 53.4-20.3 8.1 8.1 10.2 28.4 15.4 30.6 4.1-15.4 17.3-22 29.2-9 12.6 2.1 37.5 19.6 43.7 1.6 2.9-13.5 12.8-23.3 24.9-17.3.2-9 11-10.1 9.4-.3 5 15.5 39.6 7.8 28.9-13.4-3-8.3-16-30 3-22.8 9.3 4.7 21.6-38.5 20-13.9-11.7 8-7.1 24.4 4 12 1-6 3-16 10.6-9.9 8.7 9 25.2 6.8 12-7.2-19.8-34.3-30.8-75-46.4-109.5 1 16.9 6 39.4-7.5 52.5-12.5 6.5-20.3-19.9-26.8-2.2-12.6 4.9-21.2-30.5-6-23 13.4-3.2 33.4 30.7 32.1 1.1 3.4-15.3-8.2-41.7 8.3-49 9.5.5 14 11.2 24.4 7 8.7-2.9-3.3-12.7-4.6-18.8-4.3-7.2-7.3-15.7-12.4-22-5.5-2.6-8-1.7-1.3-6.2m-13.6-923c14.2 15.4 37.3 21.6 54.8 33.6 50.9 28.3 101.3 57.3 152.3 85.4l214 120c91.8 50.7 183 102.6 274.6 153.5 54.9 30.3 109.2 61.8 164.2 91.8 8.3 1 12.8-8.7 19.2-12.8l57.3-51.8c5.4-11.7-24.6-15.4-33.4-23.6q-335.7-171.5-671.9-342-94.5-49.4-190.2-96.5c-7.1-2.4-10.8 9.7-16.4 13.9zm-733.1-211.2c24.2 3.8 48.7 1.7 73 4.4 22.5 2.8 45.4 2.6 68 3.9a1252 1252 0 0 0 72.2 4q34.5 2.9 69 4c19.6 2.4 39.4 1.4 59 3.9 20-.1 39.6 2.6 59.5 3 24.7 8.4 42.5-12.6 61.7-24.4 13.7-8.7 26.4-19.3 41-26.4 7.6 12.8 7.6 28.5 11.8 42.6 2.7 11 2.6 26.6 19.6 23.5q58.8 5.3 117.5 12.2c25.4 1.7 50.5 5.4 75.8 7.7 25.8 3.3 51.7 4.5 77.3 8.3 37.7 3 75.2 7.4 112.7 11.8 12.5.6 9.6-15.7 13.4-24.2 3.3-15.2 8-30.1 10.5-45.5-3.3-7-14.1-3.4-20.8-5.6q-38.4-2.6-76.7-6.5-35.5-2.6-71.1-5.7c-48.7-5-97.7-7.3-146.4-12.5-34.4-1.8-68.5-6.3-102.8-8-29.4-3.5-59.1-4.2-88.5-7.9-26.4-1.3-52.7-5-79.1-6-20.7-3-41.6-3.6-62.3-5.8-19.7-1.2-39.2-3.7-58.9-4.5-17.7-2.5-35.8-2.3-53.5-5.4-22.6-1.5-45.4-2.8-68-5.3q-41-3-82.2-6.7c-22.2-2.8-44.8-2.7-67-6.3-27.2-1.1-54.4-4.3-81.7-5.8-12.8-2.2-27.4-4.8-28.5 11.4a326 326 0 0 0-12.8 41.2c8.5 1.6 17.6-3.6 26.4-5 40-10.7 79.8-22.6 119.8-33 .3 22.6 7.5 46 12 68.6m942.8 1136.5c-10.3 10-30.3 9.7-22-8.5 5.4-12-24.4-14.5-4.5-21.8 5.3-8.1-12-13-13.5-.5-15.5 16.4-39.3 19.1-58.8 28.6-9.8 1.2-8.7 4.2-4.2 7.5-4.4 8.4 13 14.4 5.5 25.2 5.4 9.3-14.4 18.3-3.3 22 11.3 8.4-12.3 19.3-6.8 31.6 15.8 5.8 37.7-14.2 48.7-5.3 5.5 13.7-21 42.6 4.4 37.2 9.6 1.2 32.2-21.3 30-2.8 9.6 6.6 12.6 36.5 23.5 31.7 11-15.2 21.2-33.1 38.9-41.2 18.4-7.4 25 39 34.1 11.7 13.4-3.6 43.4 16.8 48.3-4.8-1.3-15.4 16.6-2.9 16.4-14.3 7.3 2 17.7 15 26 3 5-10.2-20.3-30.4 1.7-24.2 9.9 10 20.4.1 15.8-11.4 9.5 2.6 27.3 6.7 14-7.9-9-16.7-25.1-28.1-32.5-45.9-3.7-8.6-15.9-35-10.2-11 7.6 18-7 28.4-20.5 21-9 14-24.9-21-4.7-13 10.4 5.8 23 14.4 18.7-4.9-5.3-13.3-7.5-40.2 11.8-28.2 7.2 3.2-10.7-19 3.6-8.8-.2-6.8-17.7-25.3-20.8-38.8-7.5-10.7-8.1-26.2-16.3-35.2-1.5-24.9-8.3-49.1-9-74-3.3-6.9-1.4-35.5-9.4-16a227 227 0 0 1-45.7 61.2c-7.3 7.3-23.2 12.6-10.7 21.6-13.5 15-35.9 15.4-54.5 18.9-15 .5 11.3 27.9-6.5 17.5-13.2-4.9-34.7 5.3-21 21.7 4.7 12.7 13.7 23.5 26.3 27-10.4 5-16.7 5.3-8 13.7-1.1 12.5-2.7 26 11.3 12.7 20.7-10.2 3.9 34 24 24.4 13.5-2.5 33.8-23.2 36.8 2 4.7 4.7 27.4 11.1 4 8.3-12.9-.7-12-23-26.8-10.1-17.5 12.6-37.5 7.2-32.4-16.8zM2148 1878c6.5 1 25.2-8.6 21.8-1.1-18.5 2-26.2 11.3-9.6 29.3 12.4 16.7 17 37.4 27.8 55 2.4 23-38.8-8.4-29.5 18-5.3 12-7.7 22.2 7 27.1 5 22.6 23.4 6.7 37.3 12.5 11.2 4.1-.1 23 10.1 25.5 14-4.4 24.8 1.3 34.7 11.5 9.4 4.4 20.4-4 29.8.3.6 12.2 17.7 16.4 22.4 4.5 7.4-10.4 15.8 1.9 21.6 7.3 6.2 8 20.6 19 17.2-.6-1.6-25.3 19.5 2.3 32.5-1.5 6.7-1.6 19.4 3.9 20.7-5 2.1-24 27-42.1 50.7-33.5 13.5.8 37 22.7 29.4-3.6-3.1-10.2-16.3-34.3 5-23.7 15.2 3.7 18-5 8.1-15.1 4.3-10.2 40.2.8 20-15.7-15.5-5.2-24.1-27.3-.5-27.9 6.8-5.4-9.5-8.1-13.5-12.2-8.7-6.5-14.4-5.4-6.3 5.2 5.9 20.4-14.4-3.4-10.6-12.7-3.4-10.7-11.1-18.7-11.6-30.4.4-12-25.9 3-14 12.3-18.8 10-47.6-18.7-53.6 9.3-16.5 6-16.3-34.2-34-21.3-16.3 12.3-25.7 31.5-40.4 44.6-12.4-8.3-12.3-29.4-23.9-40.4-12.9-3-32.5 14.3-47 3.7 3.7-11.6 8.6-23.2 10.7-35.2-7.3-7.6-29.6 11-42.5 5.5-13.2-1.5-.5-12.7-2-19.8 0-18.2-24.7 12.2-36.5 4.9-9-5.5-7.8 9.5-15.7 4-11.2-7.4-21 .4-18 13.9l1 2.6zM1243.7 551.8c13.8 6 29.6 3.7 44.5 5.6 24.8 2.8 49.8 3.7 74.6 6.5 41.5 2.7 82.8 7.4 124.3 10 19.6 2.8 39.8 2.4 59.4 5.5 19.4 1.7 39 2.9 58.6 4.5q32.7 3.7 65.7 5.4c48.7 4.8 97.6 8 146.4 12.6 24.5 1.4 49 4.4 73.5 6 16.6 2.3 33.8 2.7 50.6 4.2 31.4 2.4 62.8 5.7 94.2 7.9 21.4 2.6 43 2.8 64.4 5.4q60.2 5.4 120.6 10.4 36.2 2.8 72.6 6c16.8 1.8 40.4 8.1 38.5-16.5 1.2-15 20.2-43.6-19.6-29.7-20.3-1.6-40.5-3.6-61-4-21.8-.8-43.4-4.3-65.3-4.4-17.1-2.1-34.4-2.1-51.7-3.6-32.4-2.4-64.9-4.2-97.3-6.4-25-2.7-50.1-2.8-75-5.5q-47.4-2.8-94.8-6.2c-15.7-.5-31.2-2.2-47-2.8-17.1-1.5-34.2-3.4-51.4-3.4-16.4-2.2-33-1.8-49.4-3.6-21.1-1-42.2-3.9-63.5-3.9-17.8-2.5-35.8-1.9-53.6-4q-29.2-1.2-58.3-4c-24 .5-47.5-4.7-71.4-4.4-18.1-2.3-36.4-2.2-54.6-3.7-22.2-1.8-44.5-3-66.7-4.5-24.5-2.7-49.6-1.7-74.1-5.4-13-1-29-3.1-29.3 13.6zm679.5 414.5c-10.8-11.4-15.5-27.6-23-41.4-27.2-55-52.5-110.7-79.7-165.6-7.9-15.7-14.9-32-22.8-47.7-13.4 8.1-23 28.6-34.7 41.6-40.4 54.2-81.2 108-120.2 163.3-.6 14.2-2.3 28.5-1.8 42.9 0 17.6-2.8 35-2 52.8 1.4 16.2-5 32.6-.4 48.4 11 1.6 22 3.4 32.6 6.6 12-8.5 5.8-31.6 10-46 5-12-5.4-42.2 12.4-39.8 24.5 4.2 49.7 9.4 74.6 13.1 21.5 4 43.6 6.8 64.6 10.6 17 3 45 2.7 34.7 28-1.9 21-5.7 41.8-6.6 62.8 1.3 8.1 13.7 6.2 20.1 9.6 15.3 1.9 24.9-17.6 25-30.7 5.7-36.2 12-72.2 17.2-108.5M1904 684.1c2.8 21.4 9.2 42.5 13.2 63.8 4 10.9 21.3 5.7 32.4 9.3 74.8 10.9 149.3 23.4 224.1 34.1q55.2 8.6 110.6 16.4c6.7-1 4.7-13.5 7.7-19.5l14.1-59.4c-13.6-10.3-36.7-4.7-53.5-9.4-35.4-2.4-70.7-8-106.2-10.6-43.7-5.2-87.5-8.4-131.2-14.1q-51-4.6-101.9-10.6-4.7-.2-9.3 0m-107.5-12.7c-23.6-4-48.7-1.5-72.6-5.3-20.7.3-41-3.2-61.6-2.4-21.1-2.3-42.3-3-63.4-4.1-38-2-76-5-114.1-6.1-18.8-2.2-37.6-1.9-56.4-3.8-13.7 2.5-37-7.9-43.6 2.8 5.5 19.3 2.8 47.2 16.5 60.7 32.9 1 65.7 3.4 98.4 6 20.7.7 41.4 2.9 62 4 26 .4 51.7 4 77.6 4.5 21.3 2.8 43 2.5 64.5 4.5 17-2.3 41.8 11.4 52.7-5.2 13.6-18.3 26.6-37 40-55.6m385.3 400.2c30.2 23.4 63.4 42.9 94.4 65.3 69.7 48 140.3 94.9 210.1 142.7 7.4 5.2 15.2-4.1 22.8-6 14.5-7.5 30.6-13.2 44.1-22-3.1-7.7-13.5-11-20.3-16.3-36.1-23.2-72-46.8-108.2-69.9-57.4-38.1-115.9-74.4-173.3-112.6-17.5-11-34.5-23.2-52.7-33-17.2 4.1-33.2 17.5-48.8 26.9-1 9.1 22.8 18.2 31.9 24.8m-1208.2-23c19-7.7 36-19.8 54.3-29.4 17.7-10 35.1-20.6 52.7-30.9-2.6-17 22.4-18.6 29.3-26.7l-28.3-6c-16.4 6.1-29.1 16.8-45.3 22.3-48.3 25.8-97.4 50-146 75.3-2.5 11.7 13.8 11 21.3 15.6 14 2.4 5 10.7-3.4 13.4-36.5 19.9-73.6 38.8-109.7 59.3-13 8.5-31.2-5.8-46.4-6.6-12.2-.8-44.3-20.3-37 3.5 12-7.7 13.6.3 2.4 4.1-37.3 21.2-76.1 40-113.3 61.4-7.7 5.6-17 8.2-25.6 12.2-.5 14.6 3.6 29.1 5.3 43.7 11.5 3.3 26.1-11.5 38.7-17.1q51-29.6 102-58.2c8.5-2 17.5 3 26.1 4.1l24.2 5.6c76.7-43.9 153.7-87.3 230.2-131.6 7.1-7.7-26-7.4-31.5-14m772.1-310c-19.7-.9-39.5-2.8-59.2-3.4-18.2-2.1-36.4-2.7-54.7-3.7-27.5-3.2-55.5-2.7-83-5.9-25.3 0-50.3-4.3-75.6-4-18.4-3.2-37.2-1.9-55.7-4.5-12.2-2.3-25.1-1.7-17.8 13 5 20.5 6.8 41.8 12.9 62 25 6.3 51.2.8 76.5 5.7 18.5 1.5 37 2.2 55.5 3.5 21.6 2 43.5 2.6 65.2 4 28.8.8 57.5 4 86.3 4.6 16.2-23.1 34-45.2 49.5-68.8q.2-1.2.1-2.6m459.4 277.2q61.9 39.6 123.3 80.2 66.4 42.4 132.6 85.5c34.3 21.3 67.6 44.1 101.8 65.5 21.6-5.8 41.6-17.6 61.1-28.5 5.1-6.6-14.6-10.8-19.5-15.8-24.7-17.7-51.9-31.8-78-47.4-66.1-37.7-132-75.9-198-113.8-27.1-16.3-54.8-31.8-82.3-47.5-15 3.5-29.2 12.1-41 21.8m80.8-203.4c-43.9-8-88.1-13.4-132-20.6-53.1-7.9-106-16.8-159-24-22.8-4-45.5-8-68.4-10.4-11 3.3-1.2 18.3-1 27.2 4 15.7 5.9 32 11.2 47.3 21.4 7.1 46.6 6.5 69.5 10l91.7 11.2c25.5-.1 36.2-33.3 53.6-49.2 41 19.7 80.6 42.3 122 61q6.7-26.1 12.4-52.5m774.6 459.8c-33.8 31.7-69 62-103.1 93.3-28 24.2-54.8 49.9-83 74-29.8 28.3-61.2 55-91.5 82.8-8.6 8.3-20 14.8-25.8 25-1 6.7-15.3 7-20.2 15.5-36.6 33.5-74 66.2-110.3 100-35 29.6-67.8 61.6-102.7 91.3-12.6 10.8 7.2 2.8 13.4 2.5a40 40 0 0 0 27.7-14.4c36.6-33.8 73.7-66.8 110.3-100.5 35.9-31.2 69.7-64.7 106-95.5 29.4-27.2 59.5-53.7 88.8-81 31.3-28 62.2-56.6 93.6-84.6 27.6-26.3 57-50.8 84.8-77 10.6-1.7 4.4 24.1 8.8 33.5 4.2 40.4 9.6 80.8 14 121.3q6.7 52.5 12.5 105.3c2.2 26 7 52 8.8 78.1 24.2 10.3 10.5-26.8 10-39.9-1.8-23-6.5-45.5-8-68.5-5.3-40.6-9.6-81.2-15.2-121.8-4.1-34-7.3-68.2-12.2-102.2-2.4-12.3-.7-26-6.7-37.2M1423.6 850c16.8 6.7 35.7 7.2 53.5 10.8l150.3 24.8c24.4 5.6 29.8-30.7 45.6-43.5 7-9.7 30.2-33.6 4.8-28.6-18.8-3-37.9-2-56.8-4q-33.2-1.7-66.3-4c-26.3-.5-52.3-4.5-78.6-4-17.4-2.6-35-2.2-52.3-4-14.7-3.8-8.6 9.4-7.2 17.7zm-534.3 198q76.4-39 153-77.7c18.1-3 7.8-25.2-3.7-9.2a473 473 0 0 1-75.6 33c-21.4 6.3-36 26.5-58.8 28.8-5.7 1.9-23.2 26.4-22.9 14.9 10.7-18.6 31.7-18.3 47-29.7a205 205 0 0 1 68.9-29.7c10.4-12.9 32-9.4 39.8-23.8-12-15.7-38.4-8.8-56-18.9-.7 9.8-19.3.8-26.6 10.8-28.4 3.3-48.2 25.7-76 29.3-27 13.7-54.5 26.7-82.6 38-10.6 1-21.3 7.2-3.9 9.2 29.5 7.6 59 16.5 88.4 23.3 3.4-1.2 6.3-1.1 9 1.7M2104 858.2c-19.8-4.8-40.6-4.6-60.8-8-32.5-3.4-64.7-8.8-97.2-11-14.3-5.2-3.4 16-3.1 23.7 5.8 24 9.6 48.4 16.7 71.9 22.5 5 45.3 8 68 12.1 26.6-27.3 50.3-57.2 75.7-85.7zm-645.7 577.4a220 220 0 0 1-41.5 50.6c-36.2 35.2-84.5 53.4-131 70.7-32.1 9.5-65.8 11.7-99 13.7-24.9 1.4-49.5-1.6-74.3-3.4-52.8-9.7-109.5-22-147.4-63.5-11.6-11.5-38.7-51.7-17.8-6.2 11.3 17.6 28 30.7 43.8 43.9 30.1 23.5 66.2 39 104.3 43.6a418 418 0 0 0 80.5 5.9c36 .4 71.7-5.4 106-15.6 63-16 126.9-46 166-99.6 8.4-10.2 9.8-23.3 11-36zm-82-789.3c-1-21.8-6.8-44.1-11.9-65.6q-69.6 19.5-139.3 38.5c-4 10.5 14.7 24 19.2 36.2 9 8.4 12.7 32.6 26.9 27.6 34.9-12.7 70.2-24 105.1-36.7m-1029.5 691c-15.3 4.9-29.4 13.6-43.7 21-34.5 18.4-68.7 37.2-103.4 55.1-8 4 14.4 8 .4 12.4 12.2 6.8 36.1 15.3 53.8 22.2 15 3.7 37.5 22.2 37.1-3.7 5.2-11.7 22-1.9 32.5-1.6 7.5 2.6 18.7 2 5.2-4.2-18.5-13.9 25.8-35 17.3-40-14.8 5.9-27.7 21.6-44 20.5 17-10.4 35.4-19.3 51-31.2-1.7-7-22.1-11.9-3.2-14 19.5-2 11.9-15.3 3.5-23.5zM649 1060.7c42 9.5 84.5 17.9 126.7 26.6 8 .6 16.8 6.4 24 .7 23.9-12.2 48.4-23.7 71.6-36.7-2.8-5.4-15.2-5.4-22.4-8.2l-100-26.4c-15.7-2-28.5 9.2-42.5 14.7l-56.5 27.3zm1780.2 215a980 980 0 0 0-45.8 87.3 895 895 0 0 0 60.5 49.3c15.8-17.2 26.4-38.3 39.4-57.6 11-17.8 23-35.1 34.2-52.8-4-4-12.4 4.3-18 5.3-7.6 6.5-12.8 14.7-22.2 3-16.5-10.8-32.1-23.2-48.1-34.5m-1109.1-505c22.2-15.2 43.3-32 64.8-48.2 13.6-12.9-1.5-33.2-1.3-49.4-1.8-13.2-4.3-29-20.5-17.8a2577 2577 0 0 0-96.8 33.7zm571.4 1013q-27.4-1.5-55 .1c-34.6 1.9-69.4.5-104.1 1-15.3 0-30.5 2-45.7 3-1.5 11.1-12.2 6.6-19.1 11.7-1.2 13.8 15.5 16.8 16.7 24.9 3.5 18 27.3 6.8 41 7.4 24.4-3 49-1.4 73.5-1.6 9.6-21.8 51.6-1.6 56-29 7.8-23.4 29.6 10.6 36.7-17.5m-255-891.7q-103-17.8-206.3-34.2c-13.7-2.2-23.7 9.1-35.2 14.5-8.7 9.9-31.2-.9-25.6 18 3.4 31.3.7 63 1.7 94.6.3 10.3-2.5 28.3 9.2 12.8 16.5-11.3 33.5-21.4 26.6-44.5 0-21.2.5-42.5-2-63.6-2.1-8.5 3.3-29.3 4.2-9.7-.5 22.9 2.8 45.6 2 68.5.6 8.8-1.3 18.2 1.3 26.7 13.5 10.7 20.2-.5 16.6-13-.6-27.5 1-55-2-82.3-2.3-24.8 31.2-4.8 45.7-7.7 35.9 4.7 71.9 9.2 107.7 14.8 18 .7 35.3 6 53 8.9zm473 595 11.2 19.6c5.6-.3 6.5-12.4 10.2-17.5 9.3-21.2 18.8-42.4 27.3-63.8-2.2-11.3-28.2-3.8-32.5-20.4-15.3-18.6-29.8-38-45.5-56-4.5 4.3-5 13.1-7.9 19.2-6 17-11.1 34.5-18.1 51.1-11.4.2-1.4 5 3.9 7 15.9 18.4 29.8 38.7 47 55.7 6-6.2 8-16 11.8-23.8 5-11.2 8-23.9 15-33.7 3.5 3.4-4 12.9-5.1 18.7zm39.2 164c16.5 20.7 33.5 41.2 46.7 64.5 11.8 10.6 12.6 29.2 28 35.6 2.2 21.4 35 22.4 32.8-3 6.6-.2 15.3-6.7 8.2-12.6-9.5-13-18-27-28.1-39.3-9.3-5.6-14.6-16.5-22.1-24.2-11-24.5-29-43.6-45.5-64.6-8.5-5.7-10.6 21.2-16 29.3-1.4 4.7-4.4 9.2-4 14.2m-344-975.4c10.3 28.1 24.6 54.7 36.7 82.1 14.1-9.2 24.3-31.3 36.4-45.5 16-17.2 24.3-36.6 13.9-59.1-3.5-12-3.8-41.6-20.7-23.2-22.3 15-44.8 29.7-66.3 45.7m125.4 287.8c-23.1-49.9-45.4-100.1-68.9-149.9-19.8-43.4-38.3-87.4-59.6-130-8-8.7-13.4 10.6-19.4 15.9-36 50.1-72.6 99.9-108.6 150a1612 1612 0 0 0-39.6 55.4c0 19.4-.7 39.9-3.2 59.7.5 18.8-1 38 .8 56.7 8.1-12.2-.5-43.3 5.1-60 0-15.6.2-31.2 2-46.8 49.2-67.8 100.6-134 150-201.6 8.8-17.2 14.3 2 19 11.2 37.7 78.9 75.2 157.8 113.6 236.4zm384.6 606c-13.7 35-26 70.6-39.3 105.9 5 9.1 28.4-1.9 40.5-.2 15.7-.8 43.7-1.5 48.1-14.9-14.3-9.5 31.6-15.1 9.4-28.8q-29.1-31.5-58.7-62m-415.3-880.6c-17.6 23.7-34.4 48-51.9 71.8-5.4 7.5 3.6 15 5.6 22.6l31.3 67.9c10.9-28 20.3-56.5 30-84.8 1.2-16.7-6.3-32.6-8.8-49zm-728.8 8.4c-14.2-6.7-31.4-5.5-45.8-11 1.3-5.8 25.7 3.6 36.1 4.3 19.6 8.6 21.4-19.2 30.9-30.3 6.8-10 16-26.3-4.4-22.5-17.2-.2-37.3-6.6-45 13-6 9.5-13.9 18-17.4 28.7a227 227 0 0 0-33.8 47.7c-12.7 10.8 17.1 7 23.4 9.5 14.4-.2 35.4 12.3 40.2-8 4.6-10.8 11.2-20.6 15.8-31.4M886 1072.4q-43.5 22.5-86.1 46.6a6606 6606 0 0 0-157-38c-8.7 4-33.8 15.3-10.8 17.2l158.7 42.4c40.1-23.3 82-43.6 122.4-66.1-6.2-1.2-13.6-8.1-19.1-5.4-2.4 3-4.3 4-8.1 3.3M2212.6 1503a530 530 0 0 0-55.3-57.1c-6.8 21.3-22.8 44-22.5 65.3 15.6 20.3 29.8 41.7 45.5 61.9 7.2 1 6.8-11.9 10.7-17zm-315.4-292.3c7-21.7-23-6.3-35.6-6-19.6-4.7-22.2 29.2-16.6 42 7.9 13.7 15.3 28.4 28.2 38 9 7.4 8.6 19.5 23.9 14.6 24.3 4.5 24.8-16.2 28.2-33.4 3.7-12.8-8.6-19.6-14.6-28.9-8.5-6.6-17.6-23.7-20.3-26.8zm392.5 520c-7.5-14-12.4-34.8 9.9-34.9 17.8-23.2-25.2-10-32.3-14-13.7-7.9-16.9-29.7-31.4-39-15.3-11.5-17-35-34-43.7-7.6 1-6.1 5.6-12.8.4-.7 9 .7 7.7-7.6 1.6-8.5-1.7-19.4-4.8-7.7 6.5a1259 1259 0 0 1 51 69c17.3 18.9 31 40.5 46.3 61 7.4 3.2 13.5-2.6 18.6-7M1083.9 737.1c-17 21.5-31.8 44.9-47.7 67.3l69 12.5c11.4-14.5 17.8-32.3 27.3-48 3.9-8.4 10-15.9 12-25-20.1-2.4-40.3-5.4-60.6-6.8M2024 952.4c-11.6-5-25.1-4.9-37.5-7.8-9.1-1.2-18-4-27.3-3.2-9 9.4-17.7 20.3-17.6 33.8-3.5 28.2-8.7 56.2-12.4 84.4 6.8-3.8 11.2-12.3 17-17.9zM1322.7 775a2186 2186 0 0 1 30.9 46.8c17.2.5 36.9-20 53-31-4.3-22.7-7.4-46.4-14.5-68.2-20.3 13-39.2 29.1-59 43.3l-3.2 2.3Zm1167.4 519c-50.4-36-101.5-70.9-152.3-106.3-64.6-44.3-128.6-89.5-193.6-133.3 5 20 33.8 29 49.2 43.8q139.7 100.5 279.6 200.6c9.5 7.7 15.6 10.8 17-4.8m-685.6 555.2c-25.4-3-51-3.5-76.4 0-9 .7-31.3 1.2-11.7 6 19 8-2.2 1.9-11 .4 6.6 10.8 28.4 14 25 29.6-5.7 3.7-12.4 6.6-12.5 14.3-.7 6 7 10.7 9.5 16.2 2.6-16.7 22.2 13 28.5-4 3.8-6.2 4.8-15.2 13-16.9 11.3 9.6 18.7-2.7 26.9-8.5 3.5-5.8 0-13.5 8-18 4.5-4.8 6.3-14.3.6-19.1M2481 1758c8.5 32.5 31 58.6 49.8 85.7 8.5-9.6 11.7-23.1 17.7-34.6 10.4-24.3 22.6-48 32.7-72.4-8.5-3.9-21.1 25.5-36.6 23.1-14 2.5-30.7 6.4-42.5 9.2-5.3-3.5-9.2-12-15.4-12.1zM1217.5 625c-9.5 10.5-13.7 25-21.3 37-13 26.2-28.7 51-41.8 77.3 5.8 7-8.2 6.1-8 14.1-14.3 26.2-28.7 52.3-42 79 8 5.2 9.3-6.1 13.2-11 34.4-59 67.4-119 102.3-177.8 8.4-3 11.3 11.5 16.6 17 45.4 70.3 89 141.7 134.9 211.6 19 4.1-1.6-13.8-4-21q-60.8-93.6-123-186.5c-8.6-13.4-17-27.1-26.9-39.7m351 315.3A549 549 0 0 0 1507 929c-3.8 9-1.2 19.9-2 29.7-.7 14-6.5 32.7 14.6 31.5 17.3.2 54.3 22 47.4-9.8-.7-13.4 4.2-26.6 1.3-40m467.8 354.6c-10.5-1.7-2 8-11 10.9-10.3 10.7-8.8 28.3-13.2 42-1.8 13.1-10.9 23.6-8.8 37.1 2.9 6 10.7 15.8-1.4 7.5-10.6-13.8 4-26.1 3-40.7 0-7.9 8-12.6 5.4-21.3.2-8 16.4-32.8 8.7-30.3-14 15.2-20.3 37.2-24 56.8.9 12.1-5.4 23.5-3.8 35.6 14.4 23.3 42.8 4.1 43-19 5.4-23.2 19-47 9.2-71zm101.3 488.2c3.8 14.7 23.3 30.1 17.4 43.6-5.8 4.2-16-1-20.6 4.2 8.6 8.1 31.2 1.3 45 3.4 12.5-3.7 28.5 5.3 36.2-7.8 7.4-3.7-.3-12.3 6.5-16.5 5-5.3 1.2-13-3.4-17.3a20 20 0 0 0-20.2-8c-20.4.8-40.6-3.8-61-1.6m41.8-592.8c44.7 41.5 93.3 78.7 139.4 118.7 11.9 7.2 24.7 26.7 36.2 24.6 9.6-12.3-8.5-19-15.9-26.3q-63.5-51.7-127.2-103.3c-8.7-9-31.6-17.2-21-32 6.6-16.5 13.7-33 19.4-50-5.6-.7-6.7 12-10 17.3zM1445.6 919a470 470 0 0 0 .2 55.3c15.7 1 37.4 13.5 49.5 6.6 3.5-14.5.8-29.9 1.7-44.7 3.4-12-7.9-11.6-16.3-12.9l-32.6-5.6zm461-18.7c10.1 20.5 17.5 42.5 29.5 61.8 9.2-10.4 22.4-23 15.5-37.6l-18-81.1a597 597 0 0 0-27 57m-326.2 41c-2.1 17-1.8 34.6-3.3 51.9-2.8 12.1 11.3 9.5 18.7 12.3l24.6 5.3c9.3-14.7 2-37 4.5-54.6 1-10.7-13.6-6.9-20.5-10.1zM991.6 703.3c6.5 14.4 16.7 27.3 31.6 16.2l93.7-40.7c5-7 20-25.2.5-16.2-41.8 13.7-84.4 25.8-125.8 40.6m895.8 154.9c6.3 8.7 10.8 35.2 19.2 31 8.1-16.3 16.3-32.8 23.5-49.6 1.7-16.3-5.3-32-8-48-1.8-4.2-2.3-19.4-5.1-16.6q-17.1 40.8-29.6 83.2m-479.3-61.4c-15 11.1-41.1 21.2-48.2 34.5 12 10.5 17 44.1 34.7 35.8 7.9-5.3 18.5-9 24-16zm-832 400.5c3 10.7.6 32.4 23.2 2.8 6.4-11.2-19.2 4.5-7.5-7.8 11.2 1.4 16.9-.8 25.7-9 19.4-6.8-16.5 14.3 1.9 6.7 13.5-10.6 41.8-12.4 37.1-34.5 7.8-7.4 27-5.3 7.6-.2-11.2 10 0 14.9 8.3 6.3l37.9-20.2c-.4-7.2-.1-22-11.2-13-12.1 5.5-24.7 9.8-36.2 16l-23.4 6.6c-11.5 13.6-27.9 22.5-42.5 32.4-7 4.5-17 6-21 13.9m1371-24.2-31-32.1c-8.4 16.9-6.2 37-11 54.9-10.2 21.4 4 38.4 20.5 50.8 6-24 8-48.8 14.7-72.5zm320.2 40.9c13.9 8.6 31.7 31.8 45.8 27.5 7.5-17.4 27.4-39.7 0-48.6-12.3-6.4-29.4-28.4-33.9-6zm-1218-286.6c-22.3-6.8-46-7-68.7-12-20.4-2.9-40-10.7-60.3-14.3-11.3-2-20.6-3-11 9 9.3 21.5 41.4 11 58 22.6 17-3.8 33.1 8.7 50.3 7.5 12.1 4 20 6 22.7-6.6zm61-240c-18.6 4.4-36.6 15.2-55 22.2-14.4 11.8-66.8 12.7-32.5 39.7a288 288 0 0 0 63.7-26.4c7.7-11.8 17.3-23.6 23.8-35.5m458.6 316.1c-44.4-8-88.4-19-132.9-26.8-.8 7.5 11.5 4.2 16.5 6.9a1826 1826 0 0 1 99.4 20.8c24 3.4 48.1 11.5 71.9 13.2-13-8.6-32.7-6.8-47.7-13.2-7.3-11.4.5-25-1-37.5.2-9.4-.7-18.8.9-28 14.3-2.6 37.6 10.8 47.8 3.4-3.3-5.2-12.8-3-18.5-5.3l-27.6-5c-1.5-7.6 0-36.1-2-30.3.5 14.7-1.1 35.2-19.4 27q-55.2-10.2-110.4-19.7c-8.5-5.5-3.2-18.3-4.8-27.3-.5-13.8-5.5 0-3.5 6.7.2 15.8-1.1 31.7 1.6 47.2.3 11.8-.7 23.7.7 35.4 3.2-18.7-.4-38 2.3-56.6 17.8 0 35.8 5.5 53.6 8.2 24.8 4.3 49.5 9.6 74.2 13.7 7.7 13.5-1.2 32.3.9 48.2q-.1 9.6-2 19m774.7 366.8c17 21.4 20.8-15.8 30.5-25.4 13.2-24.9 27.7-49.2 39.8-74.6 0-14-20-15.8-20.9.7-7 17-18 31.9-23.7 49.3a356 356 0 0 0-25.7 50m239.7-100c-8.9.9-17 7.1-25.7 10.1-13.8 6-29 11.7-36 26.2l-53.5 82c4.5 2.6 21.9-19.2 29.3-27.4 11.2-13.7 24.4-24.7 36.7-37.6 15.3-18.7 35.4-33.5 49.2-53.2m-1940-194.7c47.7 13.1 96.3 23.7 144.5 35.5 10 3 3.5-19.3-5-17.8-46.7-9.4-93.3-20-140.3-28.7zM1508 916c20.7 3.3 41.2 9.8 62.2 9.7.8-16 7.4-38.4-16.2-35.4-15.4-1-30.4-5.4-45.7-6a108 108 0 0 0-.4 31.7m712.9 210.7c-5.4 17-27.5 40.2-13.7 55.7 33 27.2 65.8 54.8 99.4 81.5l58.6 48c12-12.1-15-20-21.7-29-9-8.9-25.3-15.8-29.7-25.9 3.5-9.1 13.4-25.2 10.5-29-6 12.3-12.5 38-27.5 18.3-11.5-10.5-27.7-18.8-36-30.9 5.9-14.7 13-29 19-43.7-5.8-2.4-7.6 12-11.2 17-4.5 8.3-6.8 18.2-12.8 25.3-8.6-10.8-35.8-17.8-33.5-34.2 3.3-10.2 13.4-30 10.4-32.2-8.3 11.7-11.7 50-27.8 25.6 3-16.1 14.6-30 16-46.5m-67.4 41.6c10-19.5 16.7-40.7 25.4-60.8 6-11-7.9-14.3-14.1-19.8-7.1-8.5-7.8 4.7-10.9 9.7l-20.6 49.5c-1.3 9.7 14 15.8 20.2 21.4m-1103.8 334c8.4 4.3 16 13.1 26 11.7-4-14.2 4-3 9 .2-4.4-21 2.8-44.8-4-64.4-5.4-5.4-14.9-5-21.6-8.3-1.1 12.3-12 29-2.3 39.8-10.2 3-7 12.5-7.1 21m1291.6-288.7-20.4 41c11.7 6.9 32 34.1 40 13.3 2.4-11 23.2-29 7-35.9zM374.6 1323.4c14.3 6.6 32.1 2.3 45.8-4.3 23.7-16.4 51-29.6 68.3-53.6-17.6-1.2-37 18-55.1 24.4-19.3 11.4-42.3 20-59 33.5M943 884.6c-8.4 9.3-26.4 1.8-32.7 11.6a296 296 0 0 1 46 10.5c28.6 9 58.8 8.8 88 15.7 9.1 3.2 33.2-.4 12.4 6.6-25 8.8 13 8 13.3 8.1-10.9 2.6 13.6 10.4 9-.6 2-29.4-37.1-21.2-57.5-27-10 2.4-22.2 2.5-20.4-4.2-14-1.3-36.6-11-45.5-4.3-6.6.8-14.9-1.9-12.6-10zm-216.4 304.1c-43 22.8-84.6 48.3-127.2 72-14.9 1-15.7 25-1.6 13.3 43.3-25.5 87.7-49.3 130.8-75.2 1.3-3.4 1-7.6-2-10m1221 71.2c18.4 16.3 36.7 44.2 56.6 52 14.6-9.2 2.1-20.5-6-28.7l-46-49c-2.8 8.2-5.2 17-4.6 25.7m-169.8-218.5c.2 13.4-9.7 31-1.7 42a24 24 0 0 0 18.7 5.7c10.7 2 19.2 1.1 16.8-12.8 3.7-16.4 9.1-36.4-14.6-33a126 126 0 0 0-19.2-2m-979 71.2c25-9.3 47.3-24.7 71-36.8 13.7-1.4 22.8-21.1 6.6-22.2-26.8 15-55.3 27-81.6 42.9zm697.4-198.1c.6-11.5 10-34.5-8.8-33.8-13.1-1.5-26.2-5-39.3-4.9-4 8.3-8.5 33.4 8 31.8zm761.2 290.1 17-37.7c-11.9-10.8-36-35.5-39-6.1-10.4 14.7-8.6 28.6 8.7 35.9q6.2 4.7 13.3 8m-304 25.2c19.4 21.4 39.4 42 58.7 63.4 13.4 7.9 16-13.1 4.2-18.6q-29.3-31.5-57.7-64c-6.1-1.2-6 15-5.1 19.2m663.9 3.3c-6-1.9-14.3 5.9-21.2 8.2-10.2 4.5-19.6 10.8-29.3 15.8-21.5 6-40.8 17.3-61 26.4-6.6 0-16.4 17.2-7.5 15.4 11.1-5.8 23.6-6.7 34.4-13.2 21.5-9.7 43.5-19 64.3-29.8zm-993.7-318c-4.1-3.8 11-14.5-1.2-13.8-13.6-1.4-27-6.5-40.7-4.8l-1.7 31.4c13.8 5 28.7 6 43 9 10.1-10.1-1.6-18.3 7.4-23.3 1.8-8-4.3 1.1-6.8 1.5m-479.5 9.5c1.7-17.6-2.2-35.8-3.2-53.6-.3-13.5-34.2-16.1-25.6 3.2 1.8 15 2.7 30.2 5.4 44.9a68 68 0 0 0 23.4 5.5m706 172.9c.8-20.7 21.8-61.7-22.6-48.6-3.9 12.9-4 26.6-6.3 39.9 4.3 8.5 20.4 7 29 8.7m6.6-52c-19.9-7.7-42.4-6.9-63.2-12.3-18.6-7.1-46.7-.5-60.1-13.4 1-5.5 3.8-31.9-2.3-17 .8 12.8-3 25.6-18.1 17.3-16 3.4-17.3-9.1-14.5-21.4 2.4-7.5-4.6-10.4-3.5-.7-.8 22-5.3 43.4-5.5 65.2 2.8 5.1 3.7-19 5.4-26.3-4.4-21 25-8.8 33.2-7-.7 13.3-4.8 26.8-4.7 40.3 9.6-.6-.4-40.1 13.6-40.3 25.8 5.5 52 7 78 12.3 13.7.1 28.4 7.6 41.7 3.3m-821.4 445.6c11 13.2 10.5-1.4 11.6-10.4-11.7-13.8 9.3-22.1 6.2-36.3-2.4-9.9-18.2-10.5-23.2-20.1-2 10.6-8 36 2.6 17.4 14.2-4.3-9.7 13.8-1.8 22-10.1-9.7-6.3 4-7.7 12-2.4 8.4 4.7 13.7 12.3 15.4m888.6-424.5c4.7-29.5 9.9-59 12.8-88.7-3.3-9.1-12.2-13.8-11 1.1-5.3 33.7-11.5 67.3-16 101.1.4 6.9 12.2-10.8 14.2-13.5m19.8 215.5c16.8 17.9 32.2 37.1 49.7 54.3 4 1.7 6.1-13 6.3-17.4-18.7-17.8-34-39.2-54.6-54.9.6 6-3.6 12-1.4 18m213.1 134.5c0-6-8.5-10.6-11.8-16-20.6-23.7-42.5-46-63.2-69.4-5.6 1.2-3 13.4 2.4 16.5 18.6 21.7 35.8 44.6 54.1 66.5zm-213-237.2c-4 24.8-10.1 49.3-13 74.3 2 13.6-14.2 24.6-6.1 38.8 17.5-.8 9.7-24.6 15.8-36.3 4.2-21.3 9.8-42.7 12.2-64.3-1.5-4.6-6.2-8.4-8.9-12.5m-186-98.4c2.5-13.2 9.6-30.1 4.2-42-16-8.8-31.8-2.5-28.4 17.1-6.7 14-.3 21.4 13.3 22zM229.4 1467.7c-19.2 8.7-8.9 26.2 8.4 17.8 9.8-.5 31 15.8 19.1-5.1-1.2-11.6 36.9-.1 14-8.4l-60.9-20c-9.8 9 20.8 4.2 19.4 15.7M1700.5 1847c30.6.3 60.6-7.4 91.3-3.2 15.5 5 9.1-13.2-2-9.7-28.5-3.8-57 1.6-85.5 3-9.6-1.4-9.2 6.2-3.8 9.9M1069.7 814.2c.6 23 6.3 45.8 7 69 3.1 16.4 2.9 43.2 9.4 50.9 1.2-16.4-2-33-3-49.7-.5-19.4-6.5-38.7-2.7-58 9.2 5.5 32.8-4.2 14.2-7.7zm1117 288.8q-20.5 46.5-37.6 94.4c7.7 9.7 11.1-1.9 13.5-9.2l30.3-79.2zm-406.7-76.3 34.8 6.2c12.8-7.3 9.3-30.5-9.4-26.4-19.5-6.3-26.6-.9-25.4 20.2m-62.3 45.1c1.3-12 4.8-24.2 4.7-36.3-7.6-8-27-9.7-23.7 5.8l-2.9 28.2c7.1 1.7 14.5 4.7 22 2.3m776.7 811.6c.1 4.1 10.9 15.4 15.7 10.6l17.8-40c-2.5-4.2-18.4-8.5-17.4 1-1 13.4-24.8.7-16.2 17.6q.3 5.4.1 10.8m-504.6-525.1c0-6.8 6-15.4-1-20-15.6-16.6-29.7-34.7-45.3-51-5.6 1.4-5.3 13.6 1.3 17 15.5 17.6 29.3 36.6 45 54m-877-439.4c-.4-17.4-2.6-34.6-3.6-52 4.2-15-27.8-12.2-14.8 4.8 2 13.8.9 28.5 4.6 41.9 4 3.3 9 4.2 13.9 5.3m-115 133.6 87-53.4c1.1-13.7-14.5 2-21 4.3-24.9 14.8-50.3 28.6-74.8 43.8-2.7 4.9 6.3 3.7 8.8 5.3m3-166 21.6 3.7c.7-16.8.8-42.9-23-38.4-5.6 3-.9 14.1-2 20.6-.1 4.9.8 10 3.4 14.1M2037.7 1427c9-1.9 8.4-16 12-23.6 8.1-26.7 17.1-53.2 24.1-80.2-11.6-12.8-12 23.9-17.2 32.6-6 23.8-14.5 47.4-19 71.2m-1751.8 38c-25.4-10.4-51-21-77.5-28-16.4 2.6-13.4 6.9-1 9.4 25.6 8 50.7 17.9 76.8 24.3q.7-2.9 1.7-5.7M1770 1002c-14-5.4-36.3-11.5-32.6 11.4-.6 12.6 21.5 8.5 30.7 10.7 1.1-7.3 4.1-14.7 1.9-22.1M996 841.5c11.5 7.8 27.6 4.6 20.8-12 6-15-17.3-30.6-23.3-16.3-.8 9.5 2.4 18.8 2.4 28.3m270 105.9c.1 12.7-4.2 30.8 5.3 40 8.1 9.3 16 7.2 13.8-6.7-1.4-15 3-34.7-19.2-33.3m-23 1041.6c-16.3 11.4-32.9 23-46 37.8-3 8.2 43-4.5 35.7-15.1 5.5-7.6 27.5-16 10.3-22.7m588.8-977.3c-7.1 17.3 1.6 29.4 20.8 26.9 12.6-3 11.3-30.4-6.7-25a83 83 0 0 0-14.1-2m330.8 189.3c17.6-13.7 21.1-36.6 30.1-55.8 3.8-10 8.3-19.6 11.3-29.8-7.6-8.7-10 4.3-12.4 10.2zm223.1 44.2-22.8 42.3c13.3 19 18.1-5.5 24.7-16.5 5.2-9.3 13-20.5-.7-25l-1-.6zm-195 595c-16.9-.8-42.4-5-54.6 2.4-.1 10.8 5.8 22.8 11.5 8.3 9.8 1 19 6.9 20-5.2 10 3.4 22.5 9.7 23-5.5M2029 1275.4c-17.2-22.4-38-41.8-56-63.6-3.8-6.2-18.4-20-14.6-6.6 22.3 23 42.3 48.3 64.9 71.2 3 5.5 4 .6 5.7-1m-13 142.9c-12.4 5.7-30.9-8-37.2-4.9-5.9 15 14 27.5 27.4 22.5 5.6-4.4 11-9.9 9.8-17.6m-948.5-461.5c6.3-2.3 12.3-7.8 19-3.6 12.5.6 26.4 10.2 37.6 1.4-20.5-6-42.9-6.6-63.6-13.2-8.4-4.5-28.4-4.7-13.8 5.5 7.8.8 14.9 4.9 20.8 9.9m-97.5-150c-3.6 13.7 1.5 44.7 19 30.8.2-9.1-.3-26.5-1.6-30.1-5.9.2-11.7-3.5-17.4-.7m22.1 77.6c-1-13 5.1-42.8-18-35.5 1.3 13.9-5 41 18 35.5m26.2 575.3c2.3-15.4 15.3-38.2-.7-49.7-9.5-10.3-4.2 6.6-3 8.7-2.5 11.3-5.9 19.6-6.7 30.2-.6 5.6 6.7 8.4 10.5 10.8m230-469.7q-3.1-22.2-3.6-44.5c-6.9-11.6 5.3-28.2-.7-35-6.8 9.5-.5 33.8-.7 48.9a727 727 0 0 0 3 55.5c4.4 6.3 14 5 20.8 7.7 6 0 18.2 8.1 19.2.2-11-8.5-35.4-1.8-38.8-18.5-8.8-17 26-5.2 7.6-12.5l-3.5-.7zm480.1 4.5c-15.4-8.2-31.6-2.3-24.8 17.2 7.4 9.3 29.4 6 23.6-11.6-.6-2 1.2-3.7 1.2-5.6m-424.2 6.2c3-15.3-2.2-30.6-1.6-46-16.7-13-8 23-9.3 33.4-1.2 7 6.9 8.6 11 12.6m386.5 1229.6c-6.8-5.2-19.2-11.9-27-11.9 6 12.1 10.6 45.3 23.6 20.3a17 17 0 0 0 3.5-8.4m-598.5-67.1c-14-17.7-25.3 8.3-34.3 17.6-21.5 26.1 52.3-42.2 26.8-10.3zm205-1243.6c12.9 12 8.2 31.8 10.4 47.6l2.2 31.4c8.3-13.3-.8-42.2 1.3-61.8 1.4-11.3-3.3-16.7-13.9-17.2M2371 1362.3c12-4.8 14.5-19.4 21.2-29.3 10.1-20 20.6-39.7 29.9-60-11.3 13.6-19.3 33.9-29.4 50zm-1373.3 58.3c-1.3 9 4.2 33 6.1 13l7.2-41c-8.6-12.5-8.2 6.7-10.2 12.8zm294.5-411.5a168 168 0 0 0-36-9.3c-13.3 10 22 11.8 31.2 15.2 2-1.2 5.1-3 4.8-5.9m-525.8 187.3c-10.4-2-20.6-6.5-31-6.4-5 13.4 24.2 14 33.5 15.5zm517.2-257.8c5.8-13.8-12.6-29.2-20.1-16.3-4.1 13.5 10.3 12.8 18.7 15.9l1 .3zm943.6 193c-3 12.1-21.6 32.2-10.8 40.8 5-10.4 19-28 12.6-39zm-209 276.6c-13.9 2.8-23.9-10.4-35.7-9-.7 10.3 9.8 15.9 19.1 15.7 6.1.1 14.8 1.2 16.7-6.7m-903.9-560c8.6 6.5 33 8.5 21.8-8.2-7.9-.2-27.2-8.5-21.8 8.2m-70.2 46.8c-1.8-10.2 4.9-34.8-11.8-34-.8 6.6 2 13.5 1.2 20.4l3.3 11.2zm104.2 47.8c-15-4.9-42.3-15.7-54.1-10 5.2 7.3 18.6 4.5 27.2 7.8 8.6 1 17.7 5 26 3.7zm-52.4-19c15.6 6.2 32.5 8.2 48.8 12 5.7-10.4-25.2-9.3-33.8-13.7-4.4.3-15.3-7-15 1.7m100.5-13.4c1.5 13.6-1.3 40.5 8.5 46 0-14.5.3-32.3-5.1-44.5zm-167.1-89.1c-3.3 4 .5 13.2 0 19.3-3.3 13.7 18.6 20.4 11.7 1.4-2.5-7.6-7.7-14-11.7-20.7M954 846.5c-5.5 10.3 7.7 46.4 9.5 20-1-7 .9-20.4-9.5-20m302.6 140c1.2-14.7-.8-29.4-1.2-44-10.9 1-.8 27.6-3.8 38.1-.1 5.1 0 6.3 5 5.8m819.6 348.1a506 506 0 0 0-20.9 68.2c8-19.1 14.5-38.8 21-58.5q.8-4.8-.1-9.7m-883.2-380c.5-13.3.6-35.4-7-43.2 1.7 12.9-.5 34 7 43.2m-86.2-116.2c-15.1-17-25 17 0 9.9zm-112.4 573.2c2.8-10.9 9.3-34.7 6-37.8-7.1 11-12.3 25.1-6 37.8M960.7 840c.6-10.4-2.2-32.8-8-13.2-4.8 6.1-.5 14.4 7.4 13zm806.1 1058.7c-8.1 8.9-4.5 19.6 7.2 10.1 15.3-3.4-1.8-6.7-7.2-10m-678-1057c-6.4 16 4.8 11.1 15.7 12.7 11 6.1 47.2-.5.2-2.5-7.1-.2-16.4-1.4-15.9-10.2m-84.6 61c6.4-.7 16 3.2 20.2-.7-2.9-5.3-34.4-11.1-20.2.7m296.7 27.7c-10.9-20.5-14.8 16.4 0 8zm464.4 148.5 7.5-35.6c-5.3-5-6.8 28.4-7.5 35.6M977 890.4c.5 7.7 9.8 8.1 15.7 8.2 15.2-2.8-12-8.7-15.7-8.2m2100.3 745.1c12.9 9.7 9.8-4.3 7.8-12.6-2.8 4-6.5 7.8-7.8 12.6M1907 1100.4c4-4.2 19.5-18.7 10.2-18.3-4.3 5.2-11 11-10.2 18.3m-652.2-184c-12.6 7-.1 30.2.4 9.2q0-4.6-.4-9.1m618.4 884.6c-3.7-10-22 3.2-9.5 4zm407-57.3c-1.7-6.4-18.5 3.4-9.2 5.6 4.1 2.8 6.2-3.9 9.2-5.6m-84.3 102.5 13.4-6.5c-5.8-1-17.4-3-13.4 6.5M968.3 865c3.3-8.8-4.2-45-2.2-19.5.7 6.5 2.3 13 2.2 19.5m805 161.6c6.4-7.2 4-33.9.6-12q-1.1 6-.6 12M1036 903.3c.2 8.2 12.8 6.8 8.3-1l-4.4-.4zm934.5 297.3c-3.8-11.2-24.9-22.1-6.8-5.9l3 3zM964.6 892.3c1.3-14.7-14.6-1.6 0 0m538.1-2.8c-2.7 5.4-.4 32.9.2 16q.5-8-.2-16"/></svg>