<svg xmlns="http://www.w3.org/2000/svg" fill="#0a0a0a" viewBox="0 450 3300 2186"><path d="M577.7 941.3c-9.8.8-8.8 17.6-13.6 5 3.2-4.2 8.7-5.2 13.6-5M2654.4 1195c-.1-5 5-15.3 3.8-15 4 1 6.1 20-3.8 15m-1551-351.6-1.7-20.6c3.3 8.9 6 30.2 17.2 13.9 2.8-11-2.3-23-14.5-17.7 19.3-18 31.2 27 10 27.2-3.6 1.7-9 .6-11-2.8m-.1-58c16.8-16.3 28.2 31.9 5 24.9-16.6 7.2-4.3-43.8-5-14.5-1.8 17.4 22.5 8 11.2-5.7l-5-3.6zm-9.7.3c9.5 15-2 36.6-17.9 24.3-1.6-10.4 7-23.5 18-24.3m-2.6 20c3.7-13.3-5-20.7-10.8-5.9-4 9.3 4.8 12 10.8 5.8m-9.6 19.7c.4-15.6 22.9-.2 15.4 12-6.6 13.3-23.7-22.9-8.3-5.9 11.7 8-2.2-21.1-7.1-6.1m47.9-38c9 6 9.9 28.5-3.2 16.3.7-5.4-7-19.3 3.2-16.3m3 41c10.7-10.1-11.4-14.3 3.7-14.7 13.7 7.3-13.4 39.1-5.6 8zm607-77.6c-14.6-2-33.2 12.3-43.6 1.5-1-16 13-15.4 9.9-.8 6.3-2.5-1.3-26.9 16.5-22 5.1 9.4 23.4 5.2 17.2 21.3m-12.6-3c3.5-16.6-21-19-15.5-1 .2 9 11.3 1.5 15.5 1M1703 774c-7.7-4.5-5-19.4 1.8-7.1l-.4 3.2zM611.6 953.3c7.5-7.8 22 2 6.3 4.3-7 1.5-12 3.7-6.3-4.3m-42-2c6.4 1.3 12.9 6 15.5 3.9 6.2 16.6-14.1 1.8-15.5-4m1505.2 109.9c-10 1-32-9.4-10.7-4.4q5.7 1.3 10.7 4.4m-141.9 42.6c9.6.8 7.7-9.3-.8-3.7-5.3.3-12.4-4.6-15.7-8.2 8.4 6.7 27.7-2.4 27.6 11.6-3.3 2.5-7.5 1.5-11 .3m449.6-136.5c-11.7 5.4-35.6-1.7-23.8-18.4 7-10.1 0 7.2 2 9.7 7.2 2.2 14.9 3.2 21.9 6.4zm-854.8 118.3c-2.8-6.1-.7-27.8 2-10.3.5 3 3.3 9.8-2 10.3m413.4-37.2c16.2-8-3.3 6.8-3.5 15.4-5.8 8-3.9-5.3.2-9zm-1219.6-17.2 3.6 22.4c-13.7 8.5-28.8 5.8-28.3-12.7-5.4-11.7 8.2-9.5 15.2-11.7zm-21.1 3c-3.3 13.8 14.2 28 20.4 12.5-1.8-14.4-5.4-18.2-20.4-12.5m-1.7 24.8c-16.7 10.2-24.3-7.8-25-22 12.4-13.2 22.3 1.4 23 13.8zm-5.5-5.8c5.3-12.5-17.5-27-13.7-9.2 2 7.6 4.2 18.7 13.7 9.2m-81.5-100c-10.8 9.8-26.2 10-24-8.6-.6-14.5 37-4.3 25.8 6.2zm0-8.1c-11.5-9.3-27.2-.6-13.7 11.7zm503.7 82c-15.7-3.6 12-19.6 1.6-3.3l-1.7 3.4zm54-13.9c7.2 6.9 1.2 27-.3 9l.2-9m1281.3 233c1.8-5 28 15 11 16.5-3.7-3.5 9.3-6.6-3.5-10-2.8-1.8-6-3.2-7.5-6.4m-64.2-25.9c-.4 8.3-6.6 21.1-3.6 4.5l1.6-2.1zm-460.7-247.2c8-3.7 3.8-11.1-1.1-15.4-3.2-10 5.6.1 7.4 5.1 5 4.6.4 13-6.3 10.3m-69.5-8.5c6.2 4.1 12.1 20.2 5.1 17.4 6-8.8-11.3-8.9-5.1-17.4m47.3 7c0-9-16.4-22.2-.6-10.9 4.4 1.7 4.6 8.9.6 11m-588.7 154c-11.3-1.1-8-12.9.2-9.3-7.4 5.8 12.6 10.7-1.2 18zm-22.9 6.6c-1.4 8.4-7.6 10.7-3.7.8-4.7-1.3-16.2-12.5-8-11.1-.8 5.2 10.8 4.7 11.8 10.3m1140.2 75.8c11.3 8.8 3.7 10.2-4 1.9-6.1-5-26.5-2.7-24.1-11.3zm99.9 4c-8.4 2.3-31.4-3.4-11-3q5.8.2 11 3m-434.7-101.7c-5.4-16.1 28.7-40.4 3.7-4.7 6.5 11 8.7 21.5-3.6 4.7m-72.6-13.2c-11.2-.6-21.8-6-32.7-8.6 1.3-3.6 13.6 2.5 19.6 3.7 4.3 1.8 9.6 2 13.1 5m-20-32c9.2-.7 43.3 11.1 18.4 6.3-6.4-1.2-12.7-3-18.4-6.3m-327.6-241.5c14.5-8.4 43-10.7 32.2 14.1-3.6 12.7 4 38.8-12 41.7-11.9 1.6-32.4 7.7-23.1-11.4.2-15 3-29.5 3-44.4m4.5 1.2c-.8 15.3-8.5 39-1 49.2 23.3 3.7 18-21.3 20.2-36.5 6.8-17.6-6-19.5-19.2-12.7m50.5 50c-11.4 3.2-26.3 4.6-21.4-12.3 4.6-14.6-4-39 10.6-47 11-4.3 22.4-1.3 16.9 12.8-2.5 15.4-2.6 31.2-6.1 46.5m-11.6-56.8c-6.8 14.9-3.8 33.2-6.3 49.6.3 5.5 23.3.2 14.7-11.3-2.2-11.5 15-44-8.4-38.3m-828.1 194.1c12.2-1.4 24.4-5 36.7-4.6 4.6 16.8 11 36.8 10.1 53q-18 3-36 6.4a236 236 0 0 1-10.8-54.8m42.3 43.6c-3.3-14.4-4.9-29.4-9.2-43.5-4.6-5.3-13.9.8-20.5.6-16-1.6-5.5 16.3-4.6 25.2 2.3 12.3 3.4 29.3 20.5 20.8q7-.7 13.8-3m-38.2 12.3-34.9 6a425 425 0 0 1-12.8-53.4c11-3 34.3-13.2 39.5-.3 2 16 9.3 31.8 8.2 47.8m-4.9-5.5c-1.2-13.5-5-27-7.2-40.5-4.5-8.7-35.6-6.2-29.4 7.3 3.7 12.9 5.5 26.4 10.5 38.8 8.7-1.7 17.8-2 26.1-5.6m-34.6 12c-11.5 1.2-22.9 5.4-34.5 4.1-2-17.1-15.8-39.7-9.2-53.8 9.5-2.2 19.3-2.9 29-4.6 5.7 13.2 7.8 28 11.8 42zM826 1072c13.3 1.2 35 1.8 23.6-16.9-5.4-9.7-1.8-35.7-18.1-30.8-7.4.5-20.8 1.2-14.8 11.4zm73.6 1.1a152 152 0 0 1-48.9 7c16-2.6 32.6-5.8 48.9-7m1105.3-52c17.7 1.6 35.2 7.1 52.2 12.2 7.2 4.2-14.8-1.9-21-3.3-10.3-3.1-21.6-4-31.2-8.8m48 34c-15-1.9-30.2-5.7-44-12a176 176 0 0 1 44 12m587.6 138c8-2.6 23.3 3.6 21.4 7.9-7.2-2.3-15-3.8-21.4-8m-1285-248.9c18.1-5.6 37.4-6 56-9.4 5.4 13.6 3 34.5 5.6 50.7q1 12-.3 24.1c-17 3.3-42.5 12.4-55.3 5.8-4-21.2-4.8-43.1-6.3-64.6l.2-3.2zm53.6 62.1c-.5-21.6 2.3-49.4-5.7-66.8a170 170 0 0 0-43.8 7.2c.4 21.2 2.8 42.5 4.3 63.8 4.5 4.4 13.6-.8 20.1-.5zm76.2-6.8c-19 3.9-40.2 8.5-59.3 8.2-1.2-16-1.1-32-2.8-48l-.2-26.6c19.9-3.4 40-6.2 59.8-10 4.6 16.4 1.5 33.6 2.5 50.4zm-8.6-5.3q1-30 .1-60.1c-1.4-11.2-12.8-3.4-19.8-3.6-12.8 2.8-35-.5-29.7 19.6 0 17.3.6 34.6 3 51.7 15.7-1.6 31-4.5 46.4-7.6m3.5-62.3a445 445 0 0 0 0 59 410 410 0 0 0 0-59m718.8 211.2c-14.4-9-32.6-8.9-48.2-15.7 12.6-7 40.2 19.4 48 2.4 0-12.1 17.5-34 2-38.8-10.9-1.3-32.7-16.4-35 1.8-3.7 10.8-4.8 22.7-11 32.4 1.5-14.4 4.5-37.2 15.4-44.5 12.6 5.1 43.9 1.7 39.5 21-3.1 13.7-8.2 28.3-10.9 41zm-42.2-88 1.6 1 11.5 19.5c-6.3-1.5-11-14.1-13.1-20.4m85.7 26.6c-6.8 6.8-28.5 8.5-9.5 2.4q4.7-1.3 9.5-2.4m-798.8-8c-13.4 4.2 15.8 14.8-3 19 7.8-8.3-6.3-9.8-4-16.4.8-3 4.8-2.3 7-2.7m-58 14c4.6-13.3 3.6 1.1 11.9 4 3.5 10.6-4.5-.3-10-2.7zm103.6-19.6c10-7.2 3 29.7 2.8 10.8 1-3.7-2-7.3-2.8-10.8m-561.7 63.7c.3-10.4 10.4-12.3 2.8-1.5 14.7 8 10 10-2.8 1.5m-155.9 13.1c3.7-14.4 3.5 1.7 7.4 6.6a15 15 0 0 1-7.4-6.6m421.7-107.7c7.4 8.8 4.6 27 6 39.6-3.6 15-21.8 5.8-17.2-8.2 0-8.4-1.6-42.5-7-17.2 3.3 15 6.9 37.8-16 35.2-16.1 8.4-23-4.7-19.9-19.2-6-14.1 1-26.9 16.3-25.2 7.6.2 14.3-2.6 21-4 7.2-2.9 23.3-3.4 10.9 4.2 3 11.5-7.9 36.8 9.1 36.8-1-13.8-2-28.1-3.2-42m-44.8 43.2c12.6 1.3 36.7-.6 21-17.7 3-15.5-9-15.8-19.7-13.3-9.1 3.6-3.3 23.2-1.3 31m22.8-49.2c-15 7.5-45.6 11.6-37.4-14.7 8-4 35-5.7 32.2-3.3-2.5.2 3.4 10 1.7 14.9-.6 2.6 2.2 2.3 3.5 3m-28.5-12.5c-10.5 27.1 47 1.5 10.1-1.6zm35.8-5c12 1.3 20.5 20 4 17.3-4.9-1.8-6-12.7-4-17.3m-63.3 13.5c6.8-8.8 17.8-12 14 4.6.1 8.5-7-11-6.2 1.5 3.2 5.8-10-.3-9.6 4.4-1-3.6 1.5-7.4 1.8-10.5m1197.4 89.8c9.5-1 33 10 10.5 4.5-3.6-1-7.8-2.3-10.5-4.5m-1751-175.7c-3.6 3.8-18.3 22.3-5 12.6l7 3.4c-12-2.9-17.8 18.3-2 9.4 7.8 1.3 14-11 13.2-.3-14.4 6.3 23.5-2.4 31.5-3.6q14.2-2.3 28.6-4.3c-4.4-6.1-11.7-19.2-1-7.7 8.5 13.6 6.4 11-5.6 11.7l-87 14.5c-2.3-11.6 8.7-31.7 20.3-35.7m50-6c-8-2.5-44.7-1.3-18.6-4.3 6.4 0 13 1.3 18.7 4.3m385.8 238.2c14-8.7 18.3 4.4 10.8 15.1-5-7.4 6-19-10.8-15m103.6-23.4c6.5-6.2 11 20.6 3.5 12.5 2.8-4-2.5-8.5-3.5-12.5m1539.3 43c6.6-9.5-.2-7.5-7.4-5.5 2.4-11.5 27-16.8 26.4-7-10.5-6.2-12.8 6.5-5 10.4.2 6.5-10.3-1.1-14 2m20-12c12.3-8.5 4.6 32 4 9.5.2-3.7 0-7.9-4-9.5M1819 1912.6c-7.4 6.8-29 9.5-9.9 2q4.9-1.5 9.9-2m-104 37.8c5.6-5.6 30.3-11.4 12.4-3q-6.2 2.4-12.5 3m-80.3 29c2.2-3.7 33.5-11.1 9.6-1.6zm126.3-45.7c6.2-5.7 26.8-8.6 9.4-2.2q-4.6 1.3-9.4 2.2m-68 24.8c-5.5 5.6-30.2 11.4-12.6 3.1q6.2-2.4 12.6-3m-437-860.6c13.2-13.8 34.2-10.8 48.3-3.8 6.6-7.4 23.6-3.3 8-1.3-9.5 12-17.4-1.2-28.8-1.9-10.2-1.9-18.2 9.5-27.5 7m162.3-42.6c-16.1 3-46.1 11.5-55.4 7.5 12.3-7.3 29.5 1.8 42.7-8.6 2.7-1.2 10.2-2.8 12.7 1m96.7-15.8c-16.1 2-31.8 6-47.8 9.1 11.4-9.9 34.8-12.9 47.8-9.1m133.8 51.6c-15.7 10.8 2.3-7-7-14.8-6-16.4 7.7 3.9 6.4 10.8zm171.4-54c9 1 9.1 15 3.3 9.8 0-3.8-12.4-16.4-4.3-14.1zm22-6.4c14.7-.6 5 25.2 3.6 16 5.7-6.2-1-10.3-3.6-16m-57.6 6.2c-10.7 3.9 11 18.3-4.8 9.5-9.3-4.3-1.3-9.1 4.8-9.5m-113.3 47.7 5-10.8c-3.8 7 9.2 23.3-5 10.8m-971.7 40.5c-20 18.8 23.9 16.9 12.2 35.8-6.2 2.5 1.3-16-11.4-14.7-13.2-2.1-14.8-17.5-.8-21.1m-57.3 34.8c-8.3-2.7-21-9.6-10-18.8 4.2-1.2-3.8 15.2 9.5 14.1 11.7 2.8 1.4 26.3 1.5 8zm-67.5 22.1c-7 .7 0-15.6-12.4-15.4-11-6.6 8.5-22 .6-6.5 5.3 7.1 17.5 9.8 11.8 21.9m1737.9-64.8c-14.5.2-13.2 22.2-18.9 32.3-8.1 19 24.6 13.8 36.2 20.4 11 1 27.5 10.5 8.7 4.6l-52-12.8 12.3-45.2c-10-16.1 5.2-2.2 13.6.7m34.8 53.5c1.2-11.6 3.6-29 10.3-35.4-2.2 12-4.7 24.4-10.3 35.4m-12.8-47.7c8.4-1.7 36.2 11 15 5.4-4.6-2-11.6-2-15-5.4m-106-325.6c-20.4-1-40.4-6.8-60.6-10.1-5.8-1.9-9.5-10.1 10.5-.5 16.5 4.1 34.5 4.9 50 10.6m170 31.9c7.5-.4 32.5 3.6 29 6.2-9.4-1-21-2.2-29-6.2M1027.8 879c12.3-7.3 28.5-2.9 42.2-7.1 24.3-1.5 48.2-6 72.5-7 13.7-1.6 43-7.5 47.3-1.6-11.7 4.4-5 18.7-4.4 27.9a1316 1316 0 0 0 7 72.2c7.6 14.8-20 5-27.4 10.4-38.4 6.1-77 12.1-115.1 19.1-7.2-3.9-5.3-15.7-7.8-23.5q-6.7-38.1-13.8-76.3Zm80.4 81.4c-.7-17.6-3.2-35-5.6-52.4-12.3-6.6-38.5 0-27.1 19.5 5.3 10.1-.3 34.8 12.6 36zm57.9-67.1c3.1 19.5 11 46.9 6 62.5-30.6 3-60.5 10.3-91 14.2-2.7-14.3-6.7 5.8-18.2 1.1-12-1.1-18 10.9-3 6.6 38.4-7 77.3-11.4 115.5-18.8 8-12.3-2.2-32.9-2.4-48.4-2.5-13.6-2-27.9-6.2-41-5.3-2 .3 11.6-.2 16.4-2.7 9.5-19.4 5.3-28.2 8.1q-45.8 5.7-91.3 13c-15 6.4 20.7-.8 22.1 2.1 2.7-5.6 12.2-3 17.7-5 24.8-3.3 49.6-7.4 74.3-11l2.4.1zm-94.8 71.2c-6.4-16.3-.3-45-16-52.9-27-2-7.5 31.6-8 47.8-.1 14.7 16 3.9 24 5.1m70-10.2c-4.6-17.8-3-36.8-9.2-54.1-11.5-.8-23.7 2.6-18.2 16 2 12.5 2 25.4 5 37.7 4.2 7 15.8-.5 22.4.4m27.1-4c-2.6-17.5-2.7-35.5-7.4-52.4-3.2-3-18.5-2.3-16.8 4.9 2.2 15.4 3.3 31 6.3 46.3 3.3 7.3 12.2 1 18 1.1m-115.7 37 131-21.4c1.1-8.7-13.2-1.3-19-1.6-36.9 6.8-74.1 11-111 17.6-4.2-.2 1.1 5.4-1 5.4m45.7-111.3c-14.3-1.6-39 .2-27 19.8 8.7 2.4 35.5 4.1 28-12.4zm-38 21.6c5-17.7-19.3-23.5-24.8-9.7-1.7 18.7 11.6 15.3 24.8 9.7m52.8-4.6c15.5.1 24-4.8 16.7-20.9-15.6-2.8-27.6 5.3-16.7 20.9m45.4-24.8c-10.2 1-23.2.3-16.8 14.4 4.2 14 27.8 2.2 17.5-11zm19.7 51.8c0-15.3.9-42-6.7-50 1.7 16.8 4.4 33.4 6.7 50m-51.6-65.6c-14.4 5-30.8 2-42.1-8.2a38 38 0 0 1-16.3-45.7c5.4-15.7 18.3-31.6 35.9-32.4 32.8 2.1 57.1 42 38.3 69.8a64 64 0 0 1-15.8 16.5m2.6-67.1c-11-16.1-35-14.8-47-.8-19.1 14.2-15.9 46.3 4.8 57.5a40 40 0 0 0 45-1.5c13-13.3 13.6-44.4-2.8-55.2m605.8 1117c-15.2 8.4-32.6 11.8-48.7 18-7.4 3.2-12 1.3-1.7-2.1l45.5-15.3zm57.9-19.9c-13.5 7.8-29.3 10.7-43.8 16.3-15.2 4.4 1-4.2 8.4-5.5 11.8-3.4 23.3-9 35.4-10.8m693.7-503.5c-12.2-3.6-21.3-13.5-32.2-19.8-9.8-5.6-18.2-16-30.6-14.2 7.7-6.8-10.5-11.2-15-16.5-45.2-31-91-61.2-134.1-94.8-1.2-6 17.5 9.9 23 13.7 39 28 78.9 54.5 118.3 81.8 12.5 8 25.2 15.8 37.2 24.7 11.3 8 23.8 14.9 33.3 25.1m-216-150c-10-8.5-30.9 4.2-34-1 3.6-.2 32.3-13.4 33.9-.4v1zm-1611.2-3.5c11.1-12.2 30.7-19.8 45.6-9.8 10 4.4 19.6-.2 27.7-6.2s19 1.1 28-2.6c11 .3 28.2-18.8 33.3-11.9-15.3 10.1-33.3 19.8-52.2 16-15.5 7-32.4 16-49.7 4.4-12.8-4.7-21.6 10.8-32.7 10.1m124.7 21.4c-11 1.7-22.2-3.5-32.7.1-12.8 9-30 25.6-43.7 8.6-15.4-4.5-28.5 5.2-42 10.9-9.8-7-11.2-11.6 19.7-13.2 11.1-3.7 25-5 33.1 4.9 20.4 2.6 32-26 54.5-15.4 3.8.6 10.1-1.3 11 4m-43.2 48.5c5.3-2.7 9-11.8 15.6-8.7l19.6 5.2c-11 2.6-23.1-4.4-32 5.5-16.8-5.8-37-3.7-50.2 14-3.2 5.2-24.5 18.2-29.4 7 16.8 3.5 32-16 47.5-24.6a23 23 0 0 1 28.9 1.7m1621.7 63.9c16.8-3.2 34-10.8 50.6-11.1-16.2 4.1-35.8 12.9-50.6 11m-20.2 6.4c-7.1 6-28.4 5.9-9.4 1.4q4.5-1.2 9.4-1.4m-1397-47.7c7-4.2 29-7 11-.9a37 37 0 0 1-11 .9m778.2-532.6c-16.2-.4-35.6-8.2-37.8-26.3-2.3-17.2 11.6-32.7 25-41.4 24-10.6 42.6 17.9 37.6 39a36 36 0 0 1-24.8 28.7m.3-67.5c-17.7 3.7-33.7 19.7-34.9 38-3.6 10.8 23.2 33.1 20.6 16.2-3.5-9.7 15.4 14 17-3.1-1.5-8.3-3-17 4-7-1 7.6 0 21.5 2.7 8-4-12 17.2-11 9.3-26.2.8-13.6-10.2-18.4-18.8-25.9m498.6 677.2c8.8-5.7 20.4-5.8 30.5-9 9.1-2 18.2-4.8 27.6-5.2-18.2 7.7-38.7 10.9-58 14.2M1919 1187c-9.3-2.7-26-21.3-7.9-8.6q4.5 3.8 7.9 8.6m-895.6-61.7c7 6 15.5.1 23.4-.4 7.6-4 17.6 2 2.9 2.1a51 51 0 0 1-32.9 1.5c-8-2.3-30.7 13-21.3 2.7a53 53 0 0 1 27.9-5.9m-287-32.2c-12.6-2.8-24.7 10.6-37.1 8.7a18 18 0 0 0-21 3.9c2.8-16.8 24.4-1.8 34.5-10.2 7.1-3.3 16.3-7.2 23.7-2.4m-200.2 35.4c5.1-6.1 33.5-2.5 21-.6-18.2 5-35.7-.8-54 6.4 6.2-10.2 22.6-7.1 33-5.8m74.9-11.2c10.2-5.2 25.2-10.8 35.1-2.6-15.4-4.6-45.8 11.3-51.8 3.5 5-2.1 11.3-.3 16.7-.9m189 2.1c-8.1 1-27.8 3.3-29.4-.6a51 51 0 0 1 29.5.6m1018.8 793c12.1-7.2 26.4-10.1 39.4-15.5 8.7 1-9.8 5.9-14.8 8-8.2 2.5-16.2 6.6-24.6 7.4m-103.8 38c-7 7-34 11-11.6 2.6 3.7-1.2 7.8-2.4 11.6-2.6m715.6-1115.2c18.1.7 35.9 6.1 53.8 9l49.7 9.3c1.6 5.2-19-1.6-26.7-2.4l-74.5-14.1zm-138-25.8c-21.4-3.2-43.5-5.8-64-12 20.8 2 41.8 6.4 62.4 10.8l1.7 1zM1389.1 1147c6.9-5.5 39.5-7.3 17.4-2.6a64 64 0 0 1-17.4 2.6m1147.3-291.8c18.1.7 35.9 6.1 53.9 9q24.7 4.5 49.6 9.5c-6.7 3.7-15.5-1.5-23.2-1.8l-76.9-14.8-3.6-1.8Zm-243.8-46c18.1.8 35.8 6.2 53.8 9 17 3.5 34.2 5.9 51 10-4 2.7-19.8-2-28.4-3.1-25-4.7-50.2-9-75-14.5l-1.6-1.3zM1143.3 1127c13.6-5.5 29.3-7.7 44-8-13.7 5-29.4 6-44 8m245.8 20c-6 3.3-13.8 3.5-20.5 5.6-21 1.2 17.6-8 20.5-5.6m977.5 581.6c6.8-5.8 39.9-10.8 17.5-3.7a59 59 0 0 1-17.5 3.7m-75 19.2c8.8-5.1 27.9-6.4 8.7-.7q-4.3.6-8.8.7m-1059.5-54c-11.8 11.6-34 12.5-49.3 20.7-45.2 18.6-91 36.3-135 57.7 10.7-12 33.4-17.6 49-25.8 35-15 69.8-30 105.8-42.4 9.8-3.4 19.4-7.5 29.5-10.2m-276.8-84.4c-6.1 6.7-42.6 20.1-13.5 5.2zM568 2116c12.4-28 54.2-37.4 83.2-35.2 21.6 3.4 42.4 20.3 64.9 11 22.6-9.5 42.3-32 69-27 22 18.7 48.5-14.2 69.8-3.1-3.6 4.2-20.6-.7-28.2 7.8-22.8 16.4-48.2-13.3-70.8 4.8-18.4 10-35.9 26-58.3 24.1-30.8-9.1-64.2-21.4-95.2-5.8-13.1 5-25 13-34.4 23.4m188.9-179.6c7 1.5 10 8.1 14 13.3 20.5 4.7 35.6-14.1 54.6-17.5 8-7.7 32.8 4 22.8 6.3-24.5-15.8-48.4 19-73.9 16.5-8.3.3-10.6-8.4-15.2-13.7-24.6.6-44.4 34.3-69.2 20-12.1-19.5-35.6-24.5-55.7-13.2-10.9 2.5-22.2 18-32.4 14.6-6.5-8.8 4.5-3.7 9.2-7.3 18.3-8.5 36.8-22 58.2-16.5 14.6 7.7 29.6 33 49 16.8a146 146 0 0 1 38.6-19.3m4-117.5c3.9 10.5 16.3 15.9 26 8.7 9.6-4 34.2-29.4 35-6.5 3.4 8 2.8 17.7-3.3 5-3-24.3-27 11-41.9 8.7-14 3.8-16.5-19.9-28.7-6.2-17.2 10.5-37.7 27-58 15.5a38.5 38.5 0 0 0-46.3.2c-8.6 5.3-16.8 11.3-25.8 15.9 12.2-19.5 49.6-38.1 72.3-20.1 18.5 11.7 37.7-3.8 53.3-13.3 5.5-3.2 10.9-7 17.4-7.9m-24.9-99c25.5 0 48.4-14.3 72.8-20.7 11.5-8.5 15.3 23 5.4 7.5-12.5-7.9-33.3 9.3-49 11.5-12.3 5.6-30.1 11-39.2-2.5-16 2-27.6 30.9-46 19.9-5.9-14.5-21-16.2-34.5-10-13.5 1.7-29.4 15-37.7 17.4 13.6-16.6 41.4-25.3 63-22.8 8.2 16 24.9 17 35.5 3.5 7-5 17.8-19.1 24.8-8.9zm-9.5-99.2c-16.4 7.8-31.4 23.9-51.4 19.5-17.6-5-39-6.6-51.9 9.2-17 11.3 8.6-16.4 17.3-15.2 18.5-6.5 38.3 9.7 56.3-1.1 15.6-8.2 29.3-22 47-10.7 20.7 2.5 38-11.4 56.2-19 5.4 4 17.6-12.2 24.5-5.1-21.7 6.6-42.5 19.5-64.3 27.3-11.4 3-23.3 0-33.7-5m1429.4 264.8c9.2 0 15.4 13.8 5.2 12.6.6 14.5-14 14-25 10.8-.4 8.3-7.7 24-16.9 14.8-10.6-17-11.2 15-24 7-3.9-20.3-27 17-30.6-5.2-1.2-6.7 1.5-29.8 5.8-17.6l-1 18.3c11.9 2.8 24.2-16.6 31 .9 4.5-11.5 12.9-19.2 21.4-7.2 10.7 5 6.4-27.8 24.8-13.5 13.4 2.6 6.9-14.7 9.3-21M1930.7 2067c4.7-2.5 28.9-22.4 16.8-6.1-13.3 10 18.2 7.1 24.1 11.7-.7 10-12 22.5 4.8 17.2 8.7-4.6 20.7-7 12.8 7.7 4.8 13.1-8.2.6-5.2-5.5-7.2.9-15 4.3-21.9 3.7-8.6-5.6 12.4-18.7.2-20.9-10.6-2.3-21.6-3.4-31.7-7.8m258.3 53c-12 2-9-35.2-4.6-19.6.2 4.8.5 19.2 6.4 11.3 4.1-17.4 17.3-16.3 27.5-6 8.8-5 12-16.4 22.8-3.9 10.6 10.7-15.1-7.8-16 7.2-4.9 1.9-12.9 2.1-16-3.6-9.5-14.1-12.6 11-20.1 14.6m-51.3-104.4c1 14.5-11.4 32.3-19.7 11.7-10-22-23.3 27.4-18 .6 7.1-21.8 23.7.4 28.7 2.6 2.6-6 7.7-29.3 11.5-17.8l-1.4 1.2zm89.5-169.7c11-2-2.6-6.4-6.1-9.8-12.7-9.2.8-7.5 8 0 5 4.2 19.8 6 11.5 13.5 11-1.2 20.3 5 1.2 5-4.9-1.1-13.7-2-14.6-8.7m-206.4-27.3 32.8-.9c-3.7-11.3 19.3-10.8 18.1-5.6-10.7-2.7-7.7 7.7-15.3 8.9-8.5.1-35.1 6.5-35.6-2.4m55.6 216.2c8.4-2.9 20.7 9.4 5.8 4.4-11.8.8-25.4 28-34.9 6-3.1-7.2-2.2-18.5 1.3-5 6.8 20.8 18.9 1.7 27.8-5.4m104.8-16.7c.7-8.6 5.1-25.9 5.7-6.5 2.6 11.3-9 12.7-15.3 6.6-9.3-2.8-11.5-9.8.6-3.8zm-388.8-462.4c-9.3 1.8-36.7-22.7-17-19 5.4 7.3 20.9 13.9 22 .5 5.8-4.3 22.1-24 10.4-2.3-10.3 12.4-3.8 9.5 5.8 3.9 5.6 11-26.3 15.2-19.9 32.8-4 21.3-6.3-5.1-1.4-12.5zm71.1-24.9c-6.3-17 23.4 9.3 30-7.8 4-9.7 17.4-18.1 9-3.7-7.5 7.2 16.5 6.6-1.6 11.8-7.4 6-38.3.7-25.9 13.8-.4 9.1-11.8-14.4-20.3-9.2-8.7-6 5.3-5 8.8-4.9m-181-139.7c6.8-.5 13.4-.6 18.1 5 14.7 10.4-4.9 6-12.8 3.2-4.8 2-9.6 11.8-7.5 17.2 7.3 9.5-16.3 7.8-7.5-3.2.4-8.3 2.7-17.2 9.8-22.2m33.2-39.3c10.1-4.2 36-8.3 36.6 6-9-4.3-11.4 5.7-20.5-2.5-8.5-.6-16.7 3.4-19 11.4-10.4 5-2.1-14 2.9-15m-99 25.9c8.1-14.8 36-11.5 32.5 6.6-10.7-15.9-27-6.2-33.5 8.8-9.8 3.5 2.6-12.3 1-15.4m218.8-12.8c-9.2 9.4-13.4 1.2-1.8-3.8 18-3.2 34.4 15.5 32.4 32.9-8.8.5-4.4-23.5-18.4-25.6a26 26 0 0 0-12.2-3.5m-153 8.5c-2.7 11.2-14.4 15.2-9.2 2.1 2.1-11.3 22.2-16.7 29-7.3 4.5 11-14.1-1.3-19.9 5.2m15.4-46.1c-6.5 4.6-21.2 21.8-12.9 2.8 3.2-11.2 16.4-13.7 26-8 16.4 11.3-6.5 4.2-13.1 5.2m15.4 145c7 20.5-20.8-2.6 0-12 2.3-13.8 32-4.4 21.4 2-8.3-6.3-18-1.3-20.3 7.9zm168-60.7c-5.6-19.3 30.3-8.2 24.1 8-1.7 13.7-7.8 6.7-4.8-2.8-.2-6.2-7.4-11-13.6-9.7-2 1-3.8 3.1-5.7 4.5m-116 38.6c-11-.2-7.3-16-4.4-22.5-1.4-16.5 36.4-8.9 13.2-6-11.5 3-12.9 19.5-8.8 28.5m58 144.3c-5.3-10.5 4.3-21.8 3.5-33.2-1.5-7.9 4-22.1 4.1-5.8 1.5 13.6-3.6 26.4-7.7 39m7.3-197c-6 5.6-11.7 15-8.4.4 6.5-10.9 34.6-3.7 27.7 8.6-4.2-6.6-11.1-10.9-19.3-9m-57.3-46.6c1.3-6.6 7.7-9.9 13.9-9.3 12-2.7 25.7 19 6.9 7.1-9.2-8.2-14.2 5.2-20.8 2.2m120.4 114.7c14.4-3 9.5 6 0 7.6-2.3 8-13.6 19.9-8.4 4.2q3.2-6.6 8.4-11.8m-74-7.2c10 3.6-2.8 7.2-4.4 12.1.3 7.9-.8 24.7-6.1 6 0-7.4 4.2-14.3 10.5-18.1M1187.2 1119c17.6-12.1 26.2 8.2 32 21.7 7.4 15.9-26.3 10.1-37.1 15-10.8.9-21.4 4.8-32.2 4.6 6-7.3 18-5.5 27-8 13.3-2.7 27.2-3.7 40-8.7-5.5-11-10.2-28.6-25.5-24.4-1.4-.1-3 .2-4.2-.2m296.2 9.7c9-2.8 35-8.3 34.2-5.7-5.4 2.3-15 .6-13.6 9-5.4-8.2-12.4-1.9-20.6-3.3m1135 693.8c5-6.1 35.5-13.4 14.7-4.5-4.6 2-9.8 4.2-14.7 4.5m107.2 47.1c-6.5 4.7-33 13.8-14 3.8 4.3-2.1 9.1-3.8 14-3.8m44.4-18.5c-5.9 6-32.7 12.7-13.3 3.6 4.6-.9 8.5-4.7 13.3-3.6m-161.6-44.6c6-6.9 28.5-10.4 10.7-3-3.3 1.5-7.1 3.4-10.7 3m-241.8-77.9c-10.1 4.3-32.7 11.3-36.4 9.2 10.3-4 21.5-7.1 32.4-9.1zm16-761.3c8 1.6 42.6 10.5 10.5 6.3l-12.7-4zm319.4 830.1c-17 8.6-35.2 15-53 21.8 15.2-11 34.8-17.4 53-21.8m-50.2 73.7c7.9 3.6 12.9 11.8 19.9 17 7.8-1.2 28.2-9.3 11.2-.2-12 11.7-23.1-7.9-31.1-16.8m212.3-70.5c9.2 9.7 19-.3 27.4-.8-5 7.2-32.4 16.6-30.8 12.8 8.1-4.2 10.6-4.2 3.4-12m-183.6-22.7c-11.6 6-29.8 15.5-39.5 14.6 13-5.3 25.9-11 39.5-14.6m-10.1 144.6c3.5-6.5 2.7-12-3.2-16.7-6.4-10.4 12 12 19.5 4.1 11.7-3.7-2 2.8-6 5.4a30 30 0 0 0-10.3 7.2m-51.9-99.8c-10.4 4.9-7.6 7.6-2.7 10.6 7.4 15-6.4 2-12.7-5.6 5-1.7 10-5.8 15.4-5m164 23.3c8.4-5 22.2-12.7 29.5-11.5-9.4 5-19.5 8.3-29.6 11.5m24 12.5c-7.5 4.9-28.3 15.6-30.4 12.6 9.6-4.8 19.7-11 30.4-12.6m77.8-34c-7.4 5-28.2 15.6-30.3 12.6 9.6-4.7 19.6-10.8 30.3-12.5m-277.8 24.3c-9.9-4.9-16-15.1-24.3-22.3 9.7 3.8 17.5 14.3 24.3 22.3m24 22c-6.6-2.3-24.6-20.7-18.6-19.2 6.5 6 13.6 11.7 18.6 19.1m28 26c-6.7-2-25.3-20.4-18.5-19.1 6.4 6 13.6 11.5 18.4 19m-32.5-49.1c8.8 2.3 24 23.8 8.2 9.8q-4.6-4.5-8.2-9.8m63.3-54c-7.7 6.5-31.8 11.4-11.4 3 3.7-.7 7.7-5.3 11.4-3m163.2-21c-4.8-1.5-25.3-11.7-10.2-12.1.7 5.6 7 8 10.2 12m-254.2 523.6c-8.6-5.2-18.4-26.2-5.1-9.4 1.8 2.8 4.7 6.4 5 9.4m45 56.1c-7.2-3.3-19.3-23.2-6-9.3q3.2 4.6 6 9.3m113-461.7c5.1-7 33.3-14 13.5-4.7a39 39 0 0 1-13.5 4.7m-248.5 289.6c-9.1-3.1-16.1-22.8-4.9-7.5q2.3 3.8 4.9 7.5m11.6 76.2c-7-2.7-18.1-23-5.6-9.2 2.2 2.9 4.4 5.8 5.6 9.2m296.8 10.7c-5.6 6.3-26.1 8.5-9.3 2q4.5-1.7 9.3-2m-252.6-15.3c7 2.7 18.1 23 5.5 9.2a35 35 0 0 1-5.5-9.2m-38.2-47.7c9.5 3.8 15.5 22 4.5 7zm120.1 216c-6.6-1.5-17.7-23.6-6.5-10.1 2.5 3.2 4.2 6.9 6.5 10.1m-75-68.1c8.9 4.6 15.5 21.8 3.8 7.4-1.3-2.2-3.5-5.1-3.7-7.4m-31.9-1159.3c14.3 5 15.3-15.1 21.9-23.7 3.3-10.1 19-26 1.6-29-2.3-3.7 19 1.6 12.3 11.1a1180 1180 0 0 0-22.7 43c-.8 8.5-25.6 2.6-13-1.4m-156-227.8 13.3 1.8 12.7 4.2c-3.4 2.4-25.2-.5-26-6m97.7 1241.4c-6-5.8-20.3-20.8-16.5-23.6 5.7 7.4 13.8 15 16.5 23.6m78.5 102.8c-6.6-5.3-26.6-33.7-10.3-17 4 5.3 7 11.2 10.3 17m-82.1-83c8.3 3.8 24.6 33.7 9.7 14.8-2.8-5-9.2-9.6-9.7-14.9m121.9 69.8c8.6 4.2 21 28.9 7.4 11.7-2.3-3.8-7.4-7.1-7.4-11.7m165.7-9.8c8.4-7.2 30.3-10.3 10.6-2q-5.3 1.3-10.6 2m-95 99.8c9.5 3.7 15.5 22 4.5 7zm-88.7-49.6c-7.2-4.2-20.9-25-6-10.2q3.4 4.9 6 10.2m19.2 25c-6.8-3.7-19.9-23.3-6.2-10.5q3.8 4.8 6.2 10.5m-922.8-241c-5.4-5.6-10.5-11.5-18.3-13.4-5-11.3-28.5-1.7-25-13.7 14.3 7.7 29.8.1 43.7-4.7 8 7.6-20.7 11.2-3.6 19 9.5.8 33-1.5 15.4 10.7-14 8.6-2.9 24.9 11 20.6 5.4 11.2-17.4 22.2-15 36.5 1.4 7.8 13 .8 19.3 1.6 10 10.5-29.2 37.4-2.5 31 17.6-8.3 14.4 10.1 4.8 18.4-2.5 10-27.4 30.4-13.8 34.5 10 12-30.3 18.5-16 25.8 18 10.3-.3 27-7.4 36 8.2 19.2-25.1 23-21.7 35.4 6.2 17-25.8 8.3-35.1 8.7 5 7 16.6 14.4 1.8 19-10.2 10.1-31 9.6-37.9 16.5.4 9.3 2 19-.8 28-10.6 7.6-58.3-9.7-37.4 4.9 0 20.7-25.2-7.2-30.8 7-1 9.9-4.3 24.5-18 19.2-20.3-1.8-36.4-18.6-56.8-18.9-10.1 6.4 2 15.5 7 20.8-17.3 4.4-38-2.7-55.3-8.8-17.3-8.8-39.1-19.8-49.5 3-11 10.9-36.3-3.6-30.9-13 4.2 8.5 14.2 15.8 23.7 12 12.2-9.6 23.4-27.7 41.5-13 18.5 7.8 38 16.9 58.5 16.4-.6-7.1-8.4-17.1 1.2-21.1 13.2-3.6 24.5 6 36.5 10 14 7 41.4 16.7 35.8-7.6 2.6-12 19.7-7.5 28.1-3.2 4.3-3 12.1-12.9 23.3-9.8 14.9 3.2 24.8-3 19.7-19.2-5.5-12.3 2-20.7 14-15 15-4.7 41.1-14.4 18.2-27.6.3-11.9 23.1 1.3 32-2.5 16.6 2.1-7.1-15.9 9.7-16.6 14.3-4 20.6-17.2 18.7-30.2 13.2-6.6 24.1-25.2 1.6-30.5-15.5-9.2 27-7.6 14.5-23.2 5.9-17.4 17.8-31.9 27-47.6-4.8-8.8-27.7 8.3-20.3-11.2 3.7-8.7 20-27.3 1.2-20.7-27-1.6 10-34.8 3.4-41.2-19 3.7-20.5-23.8-6.5-29.3-7-2.3-12.4-.8-9 7m-306.6-87.4c8.4 7.6-5.7 42 8.8 21.8 5.8-13.4 24-29.7 20.2-4.6 14.8 15.7 17.7-21.6 27.3-22.3 5.3 18.3 29.2 23 26 .5-3.6-20.7 29.6 11.6 20-12.7-12.7-20.2 29 6 14.5-15.9-5.5-8.5-7.8-24 1-8.5 11 13.6 5.7 27-10.1 24.1 7.1 15.3-10.2 18.5-20.6 10.5 4.3 17.6-13 31.2-26.1 15.7-11.8-16.4-12 26-30.6 16.8-9.6-2.2-3.6-24-14.3-7.8-3.6 10-24.2 32.2-18.5 4.7 3.6-9.3.6-25.8-12.6-15.4-10.7 18.8-9.5-26.6-8-22.2 4.2 10.1 3.3 23.7 18 15.7l2.5-.3zm1576.8 242.1c-13.9-7.4-24.4-23.2-37-34-68.5-68.4-137.2-136.6-205-205.7 12.8 6 21.4 20.2 32.5 29.3q104.3 104 208.2 208.2zm-172.1-146q103 101.2 204.3 204.1c-8.3-.9-19.8-18.5-29.3-26L2775.5 2132Zm-208.5-206.3q-9.7-11.3-20.1-22c12.6 6.2 20.5 19 31.2 28 43 43.3 86.6 86.2 129.3 129.9-.5 5.8-12.4-9.7-17.9-14.2-39.5-39.4-78.5-79.2-118.4-118.2l-2-1.7zM1270 2430.8c6.7 9.7 6.7 27.2 22.4 23.3 21.2-.3-23.5 12.7-19.6-5.5-1.3-10.5-10.2-24.1-18-8.5-.8 12.1-14.5 22.5-19 6.7-6-6.5-4.7-23.4.6-7.9 3 9.4 10.9 17 12.7 2.4 4.4-6.4 12-18.6 20.9-10.5m1671.8-212.4c-13-7-23.1-21.5-34.8-31.5-21.7-22.1-44-43.8-64.4-67.2 18.6 13.3 33.4 32.8 50.5 48.4l47.8 48zm22.8 26.1c33.3 29 64.2 60.9 95.1 92.3 3.7 9.9-13.1-10.5-17-13.5-26-26.4-53-51.7-78-78.8m-242-249.2 90 90.6c-1.9 5.7-16.7-15.2-23.2-19.7l-67.2-67.3c-3-2-.8-2.7.3-3.6m-758 233.2c4.9-2.2 6-13.5 8.2-13.2 9 3 3.8 15 16.2 6.8 12.5-7 11.2-.5-.3 3-12 .7 0 17.7-11.1 5.8-9.7.4-4.6 10.4-.9 15.6 1.6 10.4-10.8-21-20-7.2-13.6.9 13.3-6.2 7.8-10.8M3097 2454.3c-12.7-9.3-23.3-22.7-35.1-33.6-7.4-9.4-24.5-20.2-25.5-29l60.6 60.9zm-421 37.7c-10.6-7.3-18.5-22.3-27.5-33-7-11.2-19.6-23-22.3-33.4q26.3 32.2 49.8 66.4m220.2-663.2c10.4-3.2 21-18.3 5-9.9-6.1 2.8-24.6 9.7-10.1 1 6.2-3.7 18.3-6.2 22-10.7-6.2-6.2-9.3-13.1 1.8-3.7 11.4 4.9-3.7 10.7-4 20-1.6 7.2-7.8-2.3-14.5 3.2zm-298 33.7c19.5 13.1 35.7 33.1 52.2 50.2-12-6.7-20.3-18.7-30.6-27.8-7-7.5-15.3-14.2-21.6-22.4m-121.9 364c-14-15.4-26-33-38-50-4.1-11.2 12 12.3 14.7 15.7 7.2 11.4 19 22 23.3 34.2m94 125.8c-14.2-14.8-25.3-32.7-37.8-49.1-3.2-10.5 12.5 12.8 16 17.2 7 10.6 17.1 20.2 21.8 31.9m482 26.8c-9.4-7.2-25.1-20-26.7-28a238 238 0 0 1 26.7 28m35-11.4c7.9 6.8 23 18.4 23.4 25.5-8.5-7.6-17.8-15.3-23.5-25.5m-423.1-441.2c6.2-7.1 7.4 1.6 14.7-2.7 11.5-3.7-2.5 3.1-6.2 5.6 4.2 8.2-9.1 4.2-8.5-2.5zm178-73.7c7.8-6.7 32.9-17.2 33.5-14.6a126 126 0 0 1-33.5 14.6m-142.6 571c6.6 5 19.8 22.3 18.1 23-8.3-5.5-12.8-15-18.1-23m-219-217.7c6.5 7.5 17 15 18.4 25-6.9-7-15.4-16-18.3-25m106-355.3c-11.7-3.4 2.3 8.8 5.3 12 33 33.2 66.2 66 98.9 99.4-.8 6.2-15.3-12.7-21.2-17.4-43.5-44.2-88.6-87.1-130.4-133a742 742 0 0 1-71.8-113.3 282 282 0 0 1-26.3-137.2 160 160 0 0 1 47.2-102.8c11.1-7.8 13.4-22.3 24.8-29 1.6-2.6-16.8-7.9-10-19.4 3-5.3 3.3-16.5-1-20.4-12.5 6.8-21.9 24.8-33 35.9-7 13.4-32.4 29.4-25.2 41.7 15.8 10.8-3 1.4-8.9 1.7a199 199 0 0 0-23.4 48c-3.4 14.4-10.2 29-9 44.7-7 40.8 7.3 81.3 17.8 120.3 17.8 53.7 51.4 100.4 84 145.8a862 862 0 0 0 70.1 75.5c14.3 14.4 28.9 28.5 42.9 43.1-7.7-2-20.4-14.6-26-21-7.9-10.5-18.8-19.2-27.8-29a671 671 0 0 1-64-70 594 594 0 0 1-71.9-115.6 437 437 0 0 1-31.4-129.5c-2.2-13.3-1.3 8.7-1.6 14.3-.2 73.9 27.5 146 71.1 205.2a740 740 0 0 0 72.6 90.9c25 23.7-95.7-59.5-32.7-31.9-31-42.6-66.1-83-86.7-132.1a361 361 0 0 1-28.5-119c-2-26.9 3-53.5 8.6-79.4-10 .4 6.1-4.7 4.7-10.9 5.5-12.4 12-24.8 16-37.7 4-7.7 18.2-17.5 1.3-22.4-39-22.2-76.1-47.9-113.9-72.3-6.1-9.4-38.8 1.2-16.8-7 7.4-3.2-8.5-8.3-12-12.4l-162-111.1c-29 5.9-58.3 10.5-86.9 17.7 29.2 25.7 59.5 50 89.2 75 21.5 19 42.5 38.5 64.3 57 8-1.2 15.7-4.3 23.9-4.2-5.9 5.7-33.4 3.9-12.2 15q38.2 38.3 78.4 74.2c16.3 15.9 35 29 52 44 8.6 16.5 21.7 2.8 33.7 4.7-9 4.4-23.5 6.7-8.8 14.6 8.2 4.6 30.4 26.5 10.3 12.5-13-9.4-25.8-23.9-42.5-15.4a7147 7147 0 0 1-130.9 32c-18.6 4.8-37.9 8.5-56 14-.2 7.2 12.3 13 16 20 15.8 18.7 31.8 37.8 49.9 53.7 6-.1 14.2 1.9 14 9.2a18 18 0 0 0 6.7 16.9c16.3 17.6 31 36.5 47.7 53.8 8.6 7.4 15.1 18.6 24 27.7q40.6 46.3 81.7 92.2c25.6 26.4 48.5 55.3 74.2 81.6 15.7.9 30.6-7.4 46-10.2 18.5-4.3 36.6-10.6 55.6-12.9-17.6 7.7-36.9 10.8-55.2 16.4-13.4 3.8-27 6.7-40.2 11.2 5.5 10 15.2 17.4 22.5 26.4 26.9 28.8 53.5 58 81.3 85.9 15 18 33 33.4 48 51.4 5.3 9.7 14.2 9 23 5.5l91.4-22.8c-1.4 4.4-12.5 4.3-18 6.7l-81.2 21.8c-.8 7.1 8.3 11.6 12 17.5q37.2 39.9 73.7 80.5c17.1 19.4 34.5 38.6 51.1 58.4 16.2-4-1.7 4 10 11.8 19 24.4 40.5 47 60 71 14.8 15.6 27 33.4 42 48.7 19.3-5.3 37.2-14.5 55.7-21.8 6.3 2.5-17 9.5-23.3 13-9.6 7.4-41 7.2-20.2 23.8 25.8 30 50.8 60.5 76.7 90.3 6.5 5.4 20.4 32.4 6 15.3-18.5-25.3-40-48.3-59.6-72.7-12.7-14-24.3-28.8-37.4-42.2-21.3 8.3-42.5 16.7-64 24.2 17.3-12.4 40-15.6 58.6-26.3 2.6-9.3-16.2-20.5-21.4-31.1-28.4-31-54.2-64.5-82-96.2-6.1-4.4-14 2.9-21 3.8-5.7 3-23.3 6.8-8.2.7 13-2.8 30.4-10.6 14-22.2q-41.2-46.7-83.2-92.8a972 972 0 0 0-47.7-51c-31.5 7-62.6 16-94 23.6 2.7-5.4 12.8-4.5 18.5-7.2 23-6.7 46.4-11.4 69-19.3-2.8-13.5-22.4-26.5-32.5-39q-63.7-66.9-126.8-134.2c-20 5-39.3 12.5-59.7 15 12.4-5.5 26.5-8 39.5-12.5 4.6-2.7 20.2-2.6 14.8-9.6-30.2-33.2-61.3-65.4-90.6-99.3-28.4-30.3-54.3-63-82.6-93.5-7.9-3.7-11.4-16.8-20.3-23.5a653 653 0 0 0-36.1-40.2q.7 10.4-7.2 16.8c14.3 12-11.1 22.3 3.4 31.9 5.3 9.1-18.5 9-3.9 16.1 1.4 7.2-13.9 9.5-3.4 19 .1 9.4 26 13 16.8 18a50 50 0 0 0 36.5 9.9c7.2.9 25.2 4.4 24.5 8.3-9 9.4 23.3 8.5 25.1 14.4-5.6 4.5 1.7 14.7-7.2 7-10.6 4.6 1.2 6.6.1 12.6 11.5 1.5-8.8 21.4 9.7 16.8 9.8-3.4 20.2 3.7 9 11.9-3.4 15.4 23.9.7 20.1 19.8 5.3 7 12.8 11.2 12.2 20.4 11.2.8 25.7 6.6 12.6 16.8 10.2 11.2 21.5 20.8 15.7 37.6 4.9 3.7 12.8 14.5 11.9 21.8-15.8 8 12.1 26.4 7.6 38 9.5 23.2 30.8 39 45.1 59.4 11.5 13.7 24.9 25.6 32.7 41.5-12.6-4.8-18.7-23-29.6-32.5-15.4-15.7-28.9-32.9-42.6-49.9-10.3-16.6-24.6-.7-16.2 13.3 4.8 11.4 7.3 23.2 16 31.8 8.8 9.6 14.6 21.6 22.1 32.2-10.4-4.2-14.8-16-22-24q-11-14-22.2-27.9c-12.1 7 8.7 25 15.7 34.8 14.8 20 30.3 39.8 44.4 60.3-3.3.7-16.8-11.6-21-20-12.6-19-25.3-38.3-41-54.6-3.9 10.1-2.6 24.9-15.6 14.3-5.4 6.1 2.5 30.8-10.5 33.6-7.7-12.9-8.2 5-10.1 11.5-3 9.3-1.6 22.3-12 27.1-9.2-2.8-19-25.7-25-6.3-13.5 14.8-32.8 33.3-51.7 34.5 2.9-19.1-21.4 4.3-30 9-14.3 15.4-14-19.5-31.6-7.6-11 0-21.8 19.9-30.4 10.1-2.8-5.2-12-8-14-8.7 10.9-2.8-9.8-16.1-4.5-1.2-3.4 20.6-16-10.7-23.6 2.1l-24 .4c-9.4 7.1-24 31.6-29 7 3.5-20.4-35-1.8-21-24.3-12.4 3.8-25.1-1.3-36.1-1.6-8.7 8-23-.5-22.6-7.2 3.3-8.5-16-11.6-15.2-.2-9.2 7.3.5 16.5 3.3 26.2-9.6-11.7-16.2-25.6-24.4-38.3-11.5-1.4-2.3 12.6 1.2 18.3 5.8 9.3 10 20 17 28.5 5.7 11.3-9-1.5-9.5-8.7-6.8-12.8-13.5-25.8-22-37.4-15.2 6.5-27.3-4.7-27.2-19.3-12.7-6.5-31.1-18.2-33-31.3 7.3 1 14.4 1.5 4.5-6.4-8.8-9-17.9-17.7-26.5-26.8-7.1-14.6 19.5-4.1 6.3-18.2-8.3-16.7-13.7-33.7-24.1-48.8 4.8-7.4 17.3-6.5 11.9-20.2-4.4-13.7-5.7-29.8 14-23.6-4.4-6.5-19.7-25-1.3-20 4.5-1.6-7.7-11.7.2-15.4 7.3-3.4 17.5-1.7 10.1-14.4-4.9-8.8 18.9-4 6.7-9.2-45 11.7-88 30.1-132 45.3-42 15.8-84.2 31-125.9 47.3-6.6 4.3 1.3 14 1.5 20.7-1.4 6.8-2.2 11.2 5.4 15.6 4.4 11.8 27.5 0 24.9 11.7-16 10 11.7 11.8 12.6 24-.2 10.9-13.4-15-22.8-10.8-14.7 1.7-.7-16-16.8-16.5-11.6 0-8.3-23.3-17.5-17.5q4.7 20 8.3 40c3.8 13.6 21.2 21 27.2 30.4-17.4-2.3-26.2-25.2-41.5-34.3-22.6-3.7.7 23.4-5.5 32.7-13.7 11.3-45.3 4.6-33.2 30.5 1.7 6.8 5 19.4-5.8 19.8-10.3-1.9-18.6-16.2-23.3.3-3 16-27 32.6-32.1 8.6-9-2.6-13.4 40-23.8 16.2-1-13.3-10.6-28-15.7-7.7l-10 11.9c-10.6-.4-11.8-6.1-1.1-5.5 7.8-7.7 18.9-37.7 27.7-13.7.6 8.8 6.8 23.5 10 7.2.3-15.3 18.2-21 20.2-3.3 18.6 15 21-47 40.3-21.9 20.3 11.3 4.5-19.3 6.2-28.6.3-20.1 45.1-1.5 35.2-26.5-12.4-13.8-2.9-29.9 12.7-25.4-3.4-11.9 6.3-16.7-1-30-4.7-17.4 22.4 2.9 12.2-16.9-1.7-11.5-28.5-31.5-4.5-32.4 14.3-1-3-4.4 6-11.4-5.4-21.8-25.8-36-37-52.6 11.6 3 17.4 24.3 31.3 17 7.7-2.4 17.4-4 4.2 1.9-20.2 4.3 8 22.3 8.4 33.9 13.2-1.9-1 1.6 1.3 8.5-3.3 6.2-5.6 19.4 6 14.9 10-1 18.4-8 26.8-9.3 7.3-5.2 18.3-5.7 26.7-10 37-13.7 73.8-27.8 111.2-40.4 29.7-11.7 61.3-21.5 90.8-31.2 6.6-1.9 11.3-8.9 17.1-12.8-6-11.4 8.6-20.3 17.7-24 14.3-3.2 15.3-17.8-.7-18.5-6.2-6 11-12.6-4.5-13.3-38.2 10.3-75 25.2-113.1 35.7 9.4-6.6 21.8-8.4 32.5-12.8 26.2-9.2 53-17 79-26.9-14-18.3-33.1-32.7-48.5-50.2a2231 2231 0 0 1-84.4-89.6c-20.4 3.6-40 12.9-60 19-48.2 17-96 35.2-143.8 53.3-6.7 5.5 5 14.2 7.9 21.1 22.3 34 45.6 67.5 66.2 102.6 6 9 10.8 18.8 17.6 27.2 6.4-1 16.6-3.4 5.5 2-4 7.4-6.5 1.5-13.4 4.4-12.8 4-25.2 9.3-38.3 11.8 9.9-6.7 22.5-8.5 33.6-13 12-1.5 5.7-9.9.9-16l-88.1-135.6c-17.3 3.6-35 10.3-49.7 19-4 13.8-31.1 10.5-16.3 30.7 6.6 10 4.3 23.5-9 26 2.8 8.3 8.6 15.4 12.7 23.2 11.4 8.9 23.8 20.4 40.4 21.4 11.6 0 37 1.4 20.4 16.9 7.2 3.1 37.4 11.2 13.8 8.8-10.2.7-27.6-7.8-15.5-17.8-14.6-4.9-30.6-5.7-45-11 12 14 29.2 22.9 44 33.3 7.3 16.4-98.7-68-33-17.4-20.3-11.6-31.5-50-46.8-54.6 3.4 15.4-3.9 27.8-23.9 22-7.9 1.6-24.7-.7-21.2-12.4 8.8 8.9 34.5 10.7 40.8.6-2.4-7.1-2.5-21 6.4-20.9 9.8 6.8 18.7-6 12.2-15.4-11.7-15.3.3-27.5 12.8-31-14.2 3 7.2-8-4.9-15.3-5.2-6.8-17.1-10.8-3.6-19.2 10.8-11.9-17.8-21-28.4-23.1-12.4.6-8.4-8.3-4.7-14.4-21.4-3.5-41.4-22.6-56.5-28.3 7.1-5.6 28.6 1.9 11-10.8-26.4-22.6-45.7-51.7-64.7-80.5-18.4-29.2-23.8-64.8-46.8-91.5-4.3 21.3-7.8 43-15 63.5-10 32.7-22 65.1-39.4 94.7-2.6 7.5-22.7 26.7-5.4 23.6 2.3 13.2-16.6 29.6-23.9 42.7-4.6 5.4-20.9 31-22.5 20.9 10.7-6 3.6-18-5.8-6-3 8.4-25 13.4-19.2 17.4 24.7 6.6-9.8 14.9-14.1 16.7 6 7.2 10.8 13.7 4.8 20 3.7 4.1 3.4 14.6 10 14.2 16.4-4-7.1 18.9 12.8 12.2 7.6-3 15.5 6.5 9.7 13 10-1 23.2 1.2 14.9 13.5-8.6 18.4 39.6-12.5 23 11.4-13 16.6 15 2.8 20.8-4.8 6 4.2-21.6 17.6-1.4 15.4 12.9-.6 27.1-36.4 28.5-8.4 2.4 13 19.6-15.9 22.4 4 6.7 11.6-2.4 19-4 4.5-.8-20-19 16.3-22.8-4-.7-21.1-17.6 18.2-32.2 7.4-8.2-3.2-32.5 1.5-17.8-13.1.7-7.4-33.7 3.5-20.6-15.4 5.7-8.5-7.5-4.6-12.2-4.2-9 13.6-12.7 31.3-21.4 45.5a113 113 0 0 1-48.4 23.5c12.5-8-2.3-4.5-9.4-4-6.6-.6-13.8 4.5-15 10.7 4.7 7.4 36.4 2.5 19.1 11.4-1.3 5.4-9 9-12.7 13.7-15.1 10.2 3.6 6.3 11.1 10.2-.5 17.9-33.6 29.7-29.5 51 11.6 7.6 34-22.8 28 1.4-6.2 9.4-27.6 18.4-6.5 19.4 12.6-3.2 32.8-2.4 15.7 17-3.2 7.3-22 27.4-5 17.7 14.4-10.9 14.5 7.8 5.8 17-8.7 23 20.3-12.2 18.1 9.6-1 12.2 8.5 36 16.3 14.4 3.9-13.6 12-7 3.8 2.4-12.4 15.5 11.5 14.5 16 2.6-1.7 14.9-5.3 45.6 12.8 49.2 12.7-3.1 19-28.5 25.4-29.8.9 13.1 2 31.7 16.3 38 16.8 10.7 31.3-24 39.5 2 2.7 5.6 7.8 13 13.8 8.4 4.1-17 2.8 8.8 8.7 7.6 11.7-20.3 5.4 12.7-4.8 6.2-.9-9.6-10.5-6.4-15.7-11-5.9-12.3-12.2-19.7-23.6-8.6-19 12.5-35.8-19.1-37.6-22-3.2-2.8-8.2 2.2-12 7.7-14 18.2-33.3-6.4-27.9-23 2.7-13-18.2-13-23-5.5-11.2 15.4-16.5 34.4-31.5 47.4-7.2-1.3 4.3-9.8 5.3-14.2q12.7-19.7 25.2-39.6c-4.5-10.8-11.4-16.3-16.2-3-10.8 15.4-20 33.7-36.7 43.5-13.9 1.5-33.6 13.1-25.7 27.6 14-5 12.5 5.4 0 8.2-10.5 2.2-19 12.1-2.9 4.6 16-4.4 33.3-17 48.6-16.5-4.9 5.4-13.9 6.5-20.4 10.2l-43.5 16.8c-2.2 7.3 23.9-.6 20.4 12.3-12.8 8-41.1 18.7-24.3 36 5.9 13.8 21.6 9.8 33.6 11.4 6.5 10-2.2 20.3-4.9 30.2-8 12 .6 13.6 6.6 21 7.6 14.4 34.2-9 31.5 10.5.3 12.8-1.4 25.7 3 38.1 9 4.6 22.4-7.7 20 8.2 1 18.1 21.2 17.6 30.3 6.2 6.2-7.5 14.7-10.6 13.2 3.5 1.1 15.5 15.2 21.5 28.7 21-14.8 9.4-33.4-5-33.9-21.3-6.3-3.4-26.7 20.6-36.6 4.9-2.8-12-8.2-20.6-21.2-17.3-15.2-7.3-3.6-35.2-12-45-12.6 4.9-24.1-3.3-33-10.4-15.9-8.7 10.1-30.7 4.3-45-21.9 3.7-45.3-12.7-38.5-36.7 9.5-4.6 39.8-20.5 13.8-20.3-9.3-5.4-17.6-.9-26.6 2.9-36.5 14-72.6 29.3-109.4 42.4 1.8-10.9 25.4-11.7 35.4-18.5 29.7-12.2 59.7-23.6 89.7-35.2 8.8-12.4 25.2-14 22.2-32 5.1-12-10.2-1-15.6 0-37.9 13.5-75.4 28.5-113.8 40.5-11.2 6.3-23 9.5-30.3 7.2-9 .6-15.1 15.5-19.5.7 1-11.2 3.3-22.5 3.4-33.6-2.5-7.9-8-15.5-4-23.8 1.6-16.2-9.6-31.3-5.2-47.4-10.8-16.8 5-38.7-3.7-56.8 4-12.1-4.4-22.9-.8-35.1-3.2-15.8-.6-31.8-3.8-47.5 1.3-15-.4-29.6-1.4-44.7-.8-11.4 3-22.5-2.6-33 1.1-9.5-5.5-18-5.3-27 1.9-9.7 3.5-19.4-.4-29-2.5-16.8-8-33.5-4-50.4.6-7 3.8-14.7-1.6-20.7-1.4-13.5.5-27 2.5-40.5.7-14.8-6.8-29.4-2-44.4-2-28.2-10.2-56.5-11.4-85-2-6.7-5.2-12.5-2-20-1.4-17.7-4.2-35.4-5.8-53.2l-1-22.5c-9.3-.6 2 16.7-2.9 24 5.2 7.5-4.3 15.4 1 22.5-2.5 8.6 8.7 14.2 2.7 22.6-5.4 11.5 2.8 25 2.4 38.2-.7 19 .7 37.3 1.6 56-5.8 10 3 17.1 2.2 26.7a106 106 0 0 0 4 36.8 147 147 0 0 0-4 57.7c-2.6 6.9-2.1 13 4 17.7 7 11.4-10.4 30.6 4.5 38.5 3.5 14.6 2.4 30.9 2.2 46.3 9 15 0 33.7 5 50 2.2 15.4-7.1 32.5 2.2 46.4-1.9 17.2.3 39.4-4.3 53.6 9.6 2-3.6 10.8 3.2 15.2 8 9.7-2.3 24.7 4.1 35 2.6 6.4-1.2 14.1-1.2 21-2.6 8.8 9.6 13 0 22.3 3.5 11.8-1 27.7 8.2 37.4.2 8-1.5 16.4 4 23 6.6 11.5 1.9 30.7-6.8 39.6-5.4 12.3 3.7 30.7 7.5 44.8-1-7.2 1.3-20.2 5.6-6.3 9.2 6.1-1.6 7.7-1.3 16.1-18.4 5.7-1.8-40-22.4-39.2-20.5-12.3-46.7-22-69.8-11.8-17 8-32.5 19.6-51 23.9-29.3 3.2-60.3 5.8-86.1 21.5-37.4 8.9-74.8 25.2-114 18.4-16.4.9-47.3 5.8-41.6-18.5.4-19 2.5-38.3 7.2-56.8 7-8.8 4.4-18.5 6.6-28 6.8-12.6 1.6-26 3.1-39.3 3.4-14.8-.3-32.1 8-48.9 6.4-25.4.3-52 6-77.7 1-23.8 8.4-46.4 10.1-70.2-2-21.5 4.2-41.6 9.2-61.8-5-22.9 3.5-45.7 2.1-68.8 2.5-10.6-.7-21.2 3.2-31.6 4.4-9.3-.8-18.4 2.1-27.7 7.5-17.5-.3-36 4.3-53.8-8.2-13.8 2.5-28.5 1.5-42.5-7.8-12.6 8.6-23 3.4-36.6 6-15 4.7-31.8 5.3-47.6 6-10.6-.3-22.7 2.6-34 1-18.6 14.3-40 2.8-57.3-15.8-14.5.4-34-1.8-52 2.4-17.7 2.4-35.5 4.3-53.3 1.5-15.1-4-40.3 18.3-36.2.7-10.5.8-20.3 8.7-29-10-16.5 3.1-33.2 2-50.5 6-12.4-.4-24.4 5.2-38-1.9-8.7 6-15.2 3.9-24-.1-13.3-.3-26.5 2-39.5 2.2-14-6.1-17.1-18-13.5-33.7 4.6-67.2 10.3-100.9 15 .5 7-3.9 10.1-5.6 19.2-18.8 92.3-38.7 184.5-58.3 276.8-29.4 133.7-56.3 268-85 401.8-18.2 87.4-37.9 174.5-55.7 262l-31.2 146.7c-8.8 7.5-2.5-12.5-1.7-17.4 23-104.6 43.9-209.6 66.7-314.2 18.3-84.4 35-169.2 53.8-253.5 22.4-104.6 43.4-209.4 66.4-313.8q20.7-97.5 41.1-195.2c-1.6-1.1-15.1 5.6-10.7-4.3-8-15.1-11.3-33.2-22.4-46.6-10.1-21.6 13.3-42.5 13.4-64.7 1.4-10.1 8.1-21.8-.2-30.6-9.5 7.3-9 28-23.8 26.5l-20.3 1.6c-2.9-7 2.8-14.7 3.9-22 16-54.3 31.2-109 47-163.3 14.6-13.7 18.6-37.9 30-50.8 10.5-10.7 16.9-27.6 25.8-40.7 17.9-30.6 36.2-61 53.8-91.7 12-15.2 27.8 12.2 41.2 17.4 18.8 13.8 37.5 28 56.8 41 3.7-6-1-14.2-1.1-21.2-1.9-15.2-7-30.5-4.1-45.8 10 7.2 25 .2 37.2.8 26.2-2.3 52.3-5.2 78.5-6.6 15.2-2.7 31-2 46-4.8 2.9-12.5-1.6-25.6-2.3-38.4-3.7-34.6-10-69-12.3-103.7 7.5-9.7 7.6 14.4 10.2 21.2 4 16.9 6.8 34.1 11.5 50.7 4.2 5.7 13.2.6 19.6 1.2 35.1-3.8 70.4-6.2 105.4-10.2 16.3-3 33.2-1.6 49.3-5.6 5.8-9 9.3-33.1 18.6-14.5 4.5 4 6.5 13.4 14 10.7 37.5-2.3 74.6-8.3 112.2-10.4 32-4.1 64.4-6 96.6-9.6 36.6-3.9 73.4-6.2 110-10.6 30.5-2 60.8-6.5 91.4-8.2 35-4.4 70-6.3 105-10.5 5.8-1.7 15.7 2 16.3-6.3.4-6.2 6.6-13.4 12.4-7.6 7.6 3.2 14 11.5 22.9 9 38.4-3.1 76.6-8.5 115.1-10.6 22.3-3.6 45.2-3.2 67.6-7 32-2 63.7-7 95.7-8.7 10.9-.4 20.4-2.8 12.6-15.8-3.1-16.6-7-36.7-28.7-29.3-18.6 2-37.4 2.7-56 3.7-19.4 1.5-38.7 2.4-58 4.3-22.6.1-45 2.5-67.4 3.7-17 .7-34 2.2-51 3.6-29.4 1.1-58.9 4-88.4 5.4-17 1-34 2.7-51.2 3-17.6 2-35.3 2.7-52.9 4-16 1.3-32 1.5-48 3.5-17.5.2-34.8 2.6-52.2 3-20.4 1.4-40.8 3.3-61.3 4-18 1.6-36.2 3.2-54.3 3.6-19.3 2.2-38.5 2.6-57.8 4-22.5 2.3-45.1 3-67.7 4.7-18 1.3-36 3-54.2 3.2-18.4 2.3-37 3.2-55.6 3.9-18.4 2-37 2.6-55.5 4-18.4 1.8-36.9 2.2-55.2 4-20.9-.5-43.1 5.6-63.1 2-10.2-9.6 18.7-4.8 24.4-7.2 20-1.1 40-3 60-3.2 25.2-2.6 50.5-3.7 75.9-6 18 1.2 35.5-2.8 53.5-2.9l68-4.2c19.8-.7 39.3-3.3 59.2-3.2 21.5-3.5 43.4-3.2 65.1-4 14.6-2 29.6-2.2 44.3-3.5a686 686 0 0 0 55.2-4c19.8.5 39.2-2.2 59-3 17-.8 34.3-3.4 51.5-3 19.8-1.3 39.5-3 59.2-4 17.6-1.4 35.2-1.6 52.6-4 17.7.4 35.2-2.6 52.8-2.7 19-1 38-2.7 57-3.4 16.9-2 34-1.5 50.9-3.8 20.7-1 41.3-2.8 62-4 18.1.1 35.9-2 53.8-3 16.1-1.5 32.4-1.8 48.6-3 6.7.1 13.5.7 19.2-3.6 8.7 1.6 2 9.9 5.9 15.4 11.9 43.6 24.3 87.1 35.6 130.8 10 36 19.6 72.1 29.8 108 7.4 18.6 7.6 40.5 18.2 58.1-15.8 8.7-46.5-.8-42.1 27.1-3.8 25.9-9.8 51.4-13.2 77.3-.7 8.8 11.8 8.4 17.7 12.7 6.3.8 6.1-11.8 9.3-16.9 7.4-19.9 13-40.2 20.7-60 17.2-49 34-98.4 51.3-147.6 5.2-10.5 18.4-3.2 27.4-2.8 48.8 8.7 98 15.5 146.8 24 79 12.7 157.7 26.1 236.6 39.1C2526.5 762 2597 775 2668 785.8c70.3 11.4 140.5 23.2 210.9 34.5 8.6 1.8 27.3.9 18.7 13.7q-44.6 111.9-88.9 223.9c-6 15.2-13 30-17.7 45.8 5.5 7.7-12 12-9.3 23.6-7 15.2-12 50.6-37.3 30.9-3.8 7.7-23.8 27.8-6.2 29.6 5.2 2.3 13.7-1.9 14.7-7.2 2-5.6 4.4-11.6 7.8-15.2 10.9-4.4 31.2-1.7 33-17.6 16.5-12.2 27.1-31.3 40.5-47.2 5.9-6.7 9.8-15.7 17-20.8 5.8 16.5-3.4 34.5-2.4 51.7 2.5 14.8-10.2 25.3-6 39.4-1.6 14.2 12.6 29.3 11.7 39.4-13.2-6.7-3.5 35.7-23.4 19.5-7.5 8.5-1.4 20.2-1 30.2 6.5 8.8 10.2 23-.4 29.9-11-2.2-13.7 14.2-11.2 22.4-1.4 16.6 10.2 34.5 5.1 49.4l9.2 19.1c-5 6-.2 20.9-10.7 11.2.1 2.5-8 19-16.5 6.8-6.3-6.8-18.5-23.6-12.3-4.1 6.7 10 4.1 17.9-1.5 24.3 2.5 5 10.5 5.8 11.8 12.8 5.4 6.9 7.4 17.4 16.4 20.4 2.3 12.3 15.9 19.6 25.8 26.2l16.3 9.8c-3.9 7.8-33-15.8-22.6.1l18.8 21c-4 12.4-22.5 0-18 15.9-5.6 2.5-19.6-8-13 7 3 11 11 18 17.9 15.3 13.7 17 32.6 36.6 56.7 33.7-8.5 5.1-10.7 2.4-6.8 9-6.8 1.7-25.6-2.4-11.7 7.8 10.4 7.7 41.4 20.5-4.6 17.1 8.2 6.8 1.9 15 7.5 22-3.5 7 3.1 12.4 9.7 12.5 7.3.3 11.8 4.7 14.9 11 7.8 6.7 2.1 9.8 0 11.3 5.4 2 13.5 6.9 8.6 13-8 4.3-3.9 9.4-.7 15.3.6 8.5-5.4 15.5-8 23.3-10 4.6-29.1-3.8-18 12.5 2 15.8-23.8-1.9-24 10.8 1 7.2-9 9.3-9.9 14 10.4 13.3-7.5-3.3-15.2 0 .9-10.1-23.5 5.7-12 11.7 8.7 11.6-8.8-8-13.8 0-10 .6-13.1 1.4-9-5.5-11.4-15-8 35.6-30 13.8l-11.1-6.7c11 1 26.2 11.2 28.6-6 2.2-12.1 13.3-17 17.7-2.5 12 4.5 21.2-22 35.5-11.3 11.5-1.8 17.2-8.4 15.7-20.4 3.2-8.6 8.4 4.4 15 4.6 22 2.6-16.4-23.6 6.1-18.4 13.8 5.5 22.8-7.5 27.7-17-7-8.6-2.9-18 1-23.6-6.5-2.2-10.8-5.6-10.7-12.2l-22.5-16.7c-.2-14.4-24.3-12-13 1 4.6 25.8-50-11.4-21.3-.5 8.3 9 25.8 3 11.2-6.4-17.7-14.2 16-4.3 16-11.1-11.3-6.6 13.2-8.3 0-13.7-15.2-11.7 31.6-5.4 10.3-15.5-9.4-6-21.4-18.2-8-22.8-6.3-4.3-12-10-20.3-9.2-12.6-9-23.4-22.7-33.7-34-8.8.2-24.7-5.6-23.9-12.5 8.1 4.2 24.4 14.2 19.8-3.5-2.2-8-.3-30.4 4.5-12.4-1 10.2 14.7 13.5 10.8 1.7 8.2-.9 23.6 1.3 11.2-9.3-3.1-8.6-29.4-22.3-13-27.2-13.2-14.3-30.6-24.6-38.3-43.1-10.8-18.1-22.8-37.4-21.5-59.3-6.2-3-13.5 19.4-10.7 27.7-12-5.7-16.7 15.8-24.1 24.7-3 8.7-13.4 20.4-9.7 4.9-9.5 3.7-14.5 8.8-3.5 10.5 5.3 6.1-3.7 11.3-6 16.8 8.4-.4 18.6.8 10.4 10.7 20.3-2.3-8.1 12.7-5.8-3.3-6.5-5-18.3 1.8-25.6 5-27.6 1.9 27.8 21.6-.1 27-12.4.3 10.1 10.2-6 10.1-20.7-4-6.2 19.1 7.5 16.7 8.2-2 12.2 7.1 17.5 6.8 17.1-12.4-3.8 22.5 12 9.5 8.2-9.4 14.8-1.3 16 8.3 13.7-5 20.2-20.1 36.4-13.3 12.9 2.8-9 7.9-15.1 2.5-6.2 11.6-30.5 24-29.5 3.3-6.2 6.7-25.5 13.3-20.4-3.5-16.2 3.6-11.6 32.5-29 38.4-10 10.9-25.6 18.9-34.5 26.2 12.4-1 20.5 3 14.8 13 6.7 4.3-11.2 19 6 14.2 10 1.8-13.3 18 4.8 17.3 12.3-1.1 16.4 8.3 16.8 18.4-4.8 26.6 41-19.6 30.7 12.6 11.7 17 22.2-20.4 31-2-10.9-4.2-10.9 10.4-21.4 9.6-13.6 5.6-13.2-9.7-18.6-13-14 8.2-34.7 10-28.3-12.4-4-14.8-27.3-11.4-32.5 2.5-5.2 6.7-26.2 13.4-10 1.6 10.1-3.2 24.5-24.7 5.1-17-9.1-1.8-13.2-.6-9.3 8.5-11.2 3.7-16.2 5.1-13.8 13.7-11.8-2.1-13 15.2-7 16 4.3-2.3 11.4-14.6 12.2-4.3-3.3 5.4-10.6 9.8-15.4 14.8-20.2 6.6 8.1 20 11 24-9.9 16.8 8.1 11.6 20.4 11.2 18.2-5.2-3 23.8 18.6 16.1 11.6-4.5 21.7-1.4 19.4 12 4.1 11.4 18.7 3 25.7 2 2.9 2.3.4 10 6.5 13.5 12.3 3.7 18-25 28.5-11.2 1.2 7.9 2.3 16 9.3 11 4.5 4 11.9 1.6 6 11.2-5.2 15-11 30-15.9 45.1 12.4 7.9-15.3 11.2-18 .2-9.3-6.3-7.1-22.3.5-6.9 6.5 14.6 18.7 5.5 15-7.7 3.9-14.3 7.9-29-.6-40.8 3.6-17-10.9-4.9-5.9 6-2.4 8.7-1.8 32.6-11.5 30.5 5.3-12.1 13.4-40.6-7.9-33.7-6.4-6.7-12.5-13.8-22.7-9-19.8 4.4-7.2-28.5-26.5-18.3-12.4 3.6-23.3-1.8-18.2-15.2l-23.8.8c-13-2.8.8-18-13.3-20.7-8-6-15.3-19.8-1.4-22.6 2.5-10.2-4.4-23.8 7.9-28.3-3.6-13.7 21.1-5.8 13.7-20.3 4.1-6.2 30.4 2.3 26-9.8-9.5-2.6 3.5-11.2-1-15.4-7.7-4.8 14.2-15.2-5-12.2-21-.9-3-13.2 2.1-18.7-3-7.2 2.5-14.5 3.3-21.8 8-1.5 9.5-11.2 1.6-13.5-17.4-8 14.5-8.8 20.2-13 .1-5.9 13.8-12.2 4.8-14.7-8.4-2.2-17.3-17.7-7.5-21.7 12 .3-7.5-8.7 7-9 13.8.5 16-5.2 5.6-11.8-8-5.1-17.5-18.8.4-15.9 16.2-.1 15.7-16.3 26.8-22.9-9.5-.6-17 4.1-23.6 1.5-9.6 18.8-29-5.1-21-10.8 4.4 8 9.9 20.2 18 6.8 12.5-4 27.5-8 37.2-20.2 9.5-10.5 19-21.9 24.5-34.8 7.5-25.6-28.2-15-29.9-38.5-4.2-4.2-23.6 17.6-21-2.3-2.7-5.4-6.8-11.7 3.7-8.3 3.8 6.4-2.2 17.3 8.9 7.2 12.5-13.4 16.6 20.9 24.3 1.8 4.8-9 12.6 10.7 18.6-2.4 4.2-6.7 12.9 2.6 15.6.2 7.7-2.2 16.5-1.7 9-12.7-3-3.3-8.8-1.9-11-10-3.9-8.7-15.7-1-18.4-15-4-15.3 5.8-2.4 7.9 4.3 4.6 1.1 8.5-7.7 12.4.6-.1-19.6-1-39.5 6-58.2 3.8-14.8 8.5-29.4 11.9-44.3-12.3-.4-26.7 17.6-39.5 25.2-14.5 12.7-34.1 13.5-52.1 17.3-3 8.5-12.9-.6-18.6 4.3-2.2-9-19.7-3-22.3 5.8l-4.7 19.2c14.2 10.3-.2 12.5-8.9 14.5 6.6 9 36 24.3 5.7 12.3-16-5.2-15-22.2 1.7-19.9-9.5-4.6-20.5 3.6-31 3.5-12.6 1.8-25.1 5.6-37.9 2.8-1.3 9.3-4.9 8.3-10 4.8-3.3 5.5 1 12.8.8 19 5.8 3.2 14.2 8.7 4.2 12.4 2.2 11.3 17.7 5.7 17.3 9.4-3 9.3-20.5 13.4-1.6 17.4 15.7-.7 9.2 13.3 9.8 15.9 18.2-1.2-7.5 37.8 17 29.7 13-7 9.9 5.5 10 11.7 6.8-.1 21.2 3.2 6 5-12.4 5.8-12-7.2-15-11.8-17.6 4.4-22.3-15.1-17.2-29.5-7-.4-27.8-.4-11.2-8 16.2-6.9-7.7-10-14.2-15-13.3 4.3-25.1 14-39.8 15.7-10.3 6.6-35.8-3.5-32.5 14.9 15.3.5 7.6 12.3 3.6 20-.7 5.9-6.7 18.5 3.7 17.4 19.6-.8 1 11.2-4.6 16.7 9.4 10 33 12.6 24.2 31.4 7.1 7.2 30.9-.4 21.3 18.1-2.2 10.7 19.7.3 14.4 14.5-1.1 10.1 7.6 17.4 17 13.6 2 5.1 12.1 5.6 10.4 11.8-.3 12.7 6.7-8.2 11.7-2.8 5.1 3.8.3 14.8 8.3 16.8-2 8.3 9.5 4.6 14.4 6.3 3.7 5.5 10.4 10.3 16.7 5.6 16.5-9.8 2.8 10.2-7.8 5.7-7.3 1.2-10-9.5-17.6-7.7-16-6-16.5 16.8-19.9 26.8 19-8.7-3.6 14.5-13 2.3-20.3-14.2 5.7-37-2.6-55.2-2.5-9.5-20.5.5-21.2-14 5.9-18.6-25.4-9.8-14.7-29.1 1.2-11-23.6 2.4-23.6-13 7.7-13.9-16.4-28-25-23.6-21.3 25.8-46.9 50.6-54 84.6a209 209 0 0 0-2.5 81c3.9 45 22 87.5 46.6 125 21 34.1 40.4 70 71.5 96.3 5.4-8.5 7.5-18.7 19.5-19.8 7.5-3.2 35.8-13 14-2.4-10.1 4-20.9 7.6-26.2 15.5-6.1 10.5 10.3 15 14.1 23.7m-180-877.6c4.6-4.6 12.6.6 18.7.2 13.4-2.7 5.6-19.1-7.2-17.3-19.7-4.6-40-7.5-59.5-12.3-3.3 10.5-7.2 25.5-22 16.4-24.1-6-48.6-10.5-72.3-17.5 1.9-10.1 1.6-16.1-2.6-4.3-12 7.8-34-6.7-49.6-7.5-5.6-2.7.8-18.9-5.6-5-3.6 6-28.5 1-21-9.9 5.3-22.6-18.7 20.9 5.2 15.1 90.6 20.4 181.2 40.5 271.7 61.4 12.3 1.2 16.3-39.2 4-18.8.5 15.3-16.8 15.3-27 10.3-6-4.1-1.7-19.2-7-5.2-3.6 4.8-24.7-.2-25.9-5.6m-439.8 116c-8.6-1.2-3.6 10.2-7.9 14.6-8.4 13 13.6 2.5 11.4-7.3-1.2-7.1-4.8-6.8 3.2-11.3 7.9-19.6-15.3-.1-6.7 4m593.7 49.8c-9.6 10.3-13.4 25.1-20.6 37.2a16 16 0 0 0-3.1 17.7c-8.9 1.5-15.8.8-2.7 5.4 12.4 7.6 68.1 18.8 18.7 2.3 7.8-17.3 14-35.5 23-52 3.8-5 13.6-6.4 2-8.9-7.8-2-15.5-5.9-23.4-6.9-3 2.9 4.7 3.7 6.1 5.2m-1839-107.9c1.6-15.6-21.4 1.2-30.5-3.4-8.5 3.8-20.4 6.2-22.8-5.3a275 275 0 0 0 16.5 61.1c-3-11.1-1.9-18.9 11.4-18.2l29.9-5.5c1.6 9.4 9.7 22.5 5.8 6.2-3.5-11.6-4.8-24-10.3-34.9m775.5-24c-11.5-3.7-23.3 1.9-35 2.8q-53.3 8.5-106.7 16.4c-19.7 3.6-39.6 6.3-59.4 9.4-1.3 6.2 16.8-.4 24.8-.2q61-8.8 121.8-18.2c16-2.2 31.7-5 47.7-6.6 19-11.3 3.9-41.6 8.6-60.6 1.7-10-2.3-31.4-2.1-10zm455.8 78c-16.3-4-32.7-4.3-48.4-10.3-1.9 12.9-10.7 38 10 33.8-19.1 4.7 8.9 3.6 13.1 9 13.5 7 25.6 2 24.5-13 9.5-11.1-5.5-21.7 10.9-24.9 11.4-7.4 9.6-12.7-2.5-13.2-4.6 8.6-28.2-1-12.5.2 10.6 1.7 6.7-12.5 9.7-19.2 2.9-8.8 3.4-19-7.8-8.6-14 9.6-31.4 23-42.3 31 15.2 5.4 31.5 6.8 45.3 15.2m52-64c-8.8-1-7.8 7.7-9.3 14 .5 5.8 21.9 8.9 4.9 7.1-9.4-5-14.6 18.3-5.5 18.9 18.2 5.8.4.8-7 4.2-.3 5.9-6 14-2.4 18.5 11.7 4.4-9.4 4-5.5 15.3 9 9.7 31.4 9.7 45.3 15.6 18.2 4.4 36 11.6 54.5 14 13.7-10.9-5.6-17-15.2-18.8-13.3-4.5-27.5-6.8-39.9-12.8 20.1 3.1 39.3 10.6 59 15.6-1.4-12.4 7-28.2-11-28.1-12.6-4-26.3-5.6-38-11.5 18.8-1.2 39.4 16.8 56.6 8.5 12.5-5.7 7-17.8-6.7-16.4-23-9.3 12.6 4 17.3-1.7.2-6.5 8.9-17.7-3-17.6-10-3.2-21-4-30.3-8.7 12.7-4 39.1 18.7 40.8-3.3-33-9.5-66.8-16.8-100.1-25.4-8.5-4.8-13.6 10.8-4.5 12.6m-1155.3 60c-6 4.6-29.9 3.3-26.8 7.5 32.5-3.6 64.5-10.5 96.9-15.1 7.3-1 25.2-4.7 8.3-3.7-9 3.6-40.4 4-17.7.5 11.6-2 23.5-2.7 34.9-6.3-4.5-24.9-8.8-49.8-15-74.4-5.6 2.3 2.9 19.1-12.3 15.7-14.4 2.7-32.8 8.1-32.2-12.8-6 8.6 12.7 45.2-33.6 22.5-9.8 1.5-5.5-13.3-10.5-16.8-9.7-.3 9.4 24.2-9.3 19.6-15.1 5-28.5 4.5-28.6-13.9-9 2.4 4.7 26.7 4.8 37 5.5 13.5 4.4 36 15.6 43 8.4-1 17-3.6 25.5-2.8M1603 851.3c14.7-20.6 26.2-43.3 39.7-64.8 25.4-43 52.6-85.3 76.4-129.1 7.5-4.8 16.1-14.9 16.5 13.3 30.6 60 60.3 120.4 91.6 180 12.8-8-11-27-12.2-39-29-57.4-57.3-115.3-86.7-172.4-9.9 8.6-16.2 26.3-25 38.1-34.1 56.3-68.7 112.3-102.2 168.8 4.5 7.9-11.7 9.1-12.5 20-6.2 5.6-14.4 27-2.5 14.7 5.5-9.9 12-19.5 16.9-29.6m-479.7 197.9c-1 14 3.1 27.8 1.6 42 13.7-6.8 1.1-30.2 2.5-41.2-9.7-2 8.1-6.4 4.1 3.8 2.5 12.3.6 25 3.6 37-12.8.2-12.4 11.9 4.7 5.8 21-2.4 41.6-8 62.6-8.8 10.6 13.6-18.5 18.5-16.7 13.7 11.8 3.8 18.9-12.4 6.5-8.2-20 3.2-40.3 5.4-60 10-1.2 14 26 .7 35.3 1.2l15.8-1.3c-13.9 8.5-37 1.4-47.5 12.9 15.6 1.3 31.3-4.4 47-6 13.6-2.7 37.3-2 27-23.6-4-27.2-5-54.9-9.7-82-13.8-2.1-27.7 2.6-41.6 3.8q-26.1 3.8-52.4 6.6c3.9 24.4 8.2 48.7 11.6 73.2 6.7-1.5-2.6-27.6-1.7-38.2zM2210.5 1151c7.2 3.4 16.8 9.3 17.7-3.6 8.3-21.8 15.2-44.2 23.2-66-.3-7-12.6-5.2-18.2-8.2l-74-19.7c-12.2 16.5-16.6 38.9-23.5 58.5-6.6 9.6-3 20.2-9.5 24.5 16.2 6.2 35.2 9.1 52.4 14 12 1.8 34.8 11.4 40.6 8.2zm485.9 80c-5.8 9.2-3.7 20.4 9.6 14.7 14.4 1.6-4.2-15-5-18.6-6.7 8.8-6.8-4.4-.6-7.3 2.2-5.9 1-13.2 2-19.6-5.1-3.7-.6-15.8 4.6-13.4 5.5 1.3 8.4-8.5 16.3-6.7 4.5-8.7 22.6-27 3.2-26.6-59.3-13.7-118.2-29.7-177.7-42.6-6 1.2-6.3 12-9.8 17.2-8.7 21-18.4 42-26 63.3 7.9 5.7 13.6-21.7 19.6-28.7 9.9-9.2 8.2-36.2 23-35.8l53.8 19.8c.7 17.3-14.8 32.2-20.7 48.4-3 8.7-19.5 26.1-1.7 25.7 7.6-3 9-13 13.4-19.3 9.4-16.2 16.5-34 26.6-49.6 10.5 1.2 21 6.2 31.6 8.9 13.2 3.7 26.2 8.8 39.4 11.7 14.7-1.5-7.8 19.6-8.5 26.2-2.4 12-26.4 30.7-11.8 39.5 10.2 10.2 10.7-.1 18.7-7.2m-449.7-56c26.3 4.1 51.8 13 77.9 18.5 11.4.8 40.2 16.7 36.1-.7 6.2 4.7 11.2-3.5 16.7-5.8 5-21.7 12-43 16-64.8-8.8 2.7-22 3-6.6-1.5 20.8-7.9-20.6-11-28.9-15.1q-39.8-9.9-79.9-19.3a1328 1328 0 0 0-27.9 79.4c5.8 1.7-6.4 12.5-7 6.7l31.9-90.9q57.3 14.9 114.7 29.3c18.5-.9 6.4 13.6 5.8 22.4q-6.6 23.5-12.5 47c10.7 4.8 9.2-22.2 14.6-30.2 1.3-14 18.2-36 6.5-44.4-82.7-21.2-165.6-41.9-248.2-63.5-14.4-4-8 36.6-4 10.9 11-6.2 34.2 6.7 50 8.8 18.2 4.9 36.5 9.3 54.4 15.2-1.9 16.3-11 31.4-15.5 47.2-7 12.8-7.3 34-18 41.6-30.7-9-62-15.7-92.8-24.3-15 1.6-.4 11 7.4 11q108.3 30 216.7 60.4c9.7-13-24.3-11.6-33.6-16.8-23.6-6.6-48-10.5-71-19l-2.8-2zm-861.6 44c15.7 14.9 25.3 35.2 39 51.9 5.1 4.5 7.6 16 14.2 17l146.1-31.3c10-1.2 24.7-4.8 10.8-14.8-17.7-20.5-34.8-41.7-52.8-62-6-3.6-14 1.8-21 2.2l-137.6 29.7c5.3 15.3-10.5-6.6-18.4 4.3-41.1 9.5-82.6 18.3-123 29.9 12 25.1 26 49.4 39.6 73.8 4.6 8.8 14.4.8 21.8.5 40.9-9.5 81.2-21 122.3-29.5 9.3-5.4-6.8-17.1-10.3-25.2-9.7-14.7-20.5-28.7-29.6-43.7zm453.9-95.8c-33.6 2-66.6 10.6-99.8 15.9l-15.8 3.4c16.9 21.2 37.4 39.2 54.6 60.2l14.5 14.3c21.8-1.2 43-7.2 64.8-9.4 21-6.4 49-3.6 66.2-14-11.4-15.4 10.7 8.7 18.6-.5 19.6-.4 39-9.6 58.3-6.5-20.1 4.5-40.8 5.9-61 10.7-3.8 6.4-16.8-.4-26.7 3.4-38 6-75.9 12.8-114 18.9-5.5 4 6.8 10.3 9.3 15.3 19.6 22.4 40.7 43.6 60.3 66 6.3 3.8 14.4-1.7 21.5-2a2841 2841 0 0 1 115.3-24l14.7-4.8a2643 2643 0 0 0-77.8-63c-11-12.4 7.7 1.8 12.6 6 24 18 46.2 38.4 70.8 55.8 26.8-2.5 52.9-11.2 79.7-14.4 9.8-7-15.9-16.6-21.6-23.6-20.5-14.6-38.9-32.7-59-47.3-10.5-3-15.4-21-29-26.6-8.4-6.6-8.6-14.4.7-3.7 15.8 12.3 29.3 34.6 51.9 23.8 20.2 2.8-33 2-9.4 13.3 26 20.2 51.2 41.6 78 60.6 18.8-2.2 37.1-7.5 55.8-10.1 19.9-3.3 39.6-8 59.6-10 2.3 2.5-13 3.8-19.3 5.4-29 5.8-58.2 10.4-87 17.1 1.4 10.1 24 19.4 34.7 28.8q69 47.9 139.3 94c9.8-2 10.5-1.4 7 4.4 40.2 27.7 81.7 53.4 123.4 78.6 11.4-7.6 22.7-24 34.6-34.7 8-12.5 22.9-24.4 27.7-36.1-10.4-11 11.3 3.5 4.6-11.2 9-10.3 23-14.5 31.7-26.4-9.7 14.6 20.8 11.6 27.1 7.7 9.5 0 34.2-13.1 24.3-21.8-11.7-4-4-28-15.5-26.5-15.2 12.1 8.8-10.3 4-19 3.4-3.1 10.3-3.8 13.8-9.5 3.9-7.5-13.7-10.4-3.4-10.4 4.6-.2 17 3.2 13.7-3.8-6.1-1.4-12.8-7-17.7-.4-5 1.1-10.2-5-16 3-.2-6.8-8.3-7.7-14.2-10.2-14-5.7-28.3-10.5-42.6-15.2-7.6 10-19.5 19-23.2 30.7-.3 7.8-9.1 7.6-10.6-.2a149 149 0 0 1-40.9-11.4c-25.2-8.6-51.6-13.2-77-20.7 6.5-12.8 7.4-27-10.1-27.2q-88-25.1-176.2-49.9c-15.2-.2-28.4-12-43.7-11-1.3 8.2-12.7 3.7-12.4 12.2 6.6 5.4-7.3 5-11.4 7.5-12-2-34 5.4-40.3 1.4 7.4-3.3 34.4.3 20.1-11.7-4-5 5.2-11.5.7-17.7 4.8-11.4-.1-17-13-17.7-30-7.6-59.6-17.6-89.9-23.4-7.5 7.5-18.8 12.2-21 23.5-12-2.2-29.5-9.8-42.7-11.8-7.8 1.6-13.2-5.8-21-4.2-10 .8-7.3-.6-3.2-3.6l-21.8-6.8c13.7 0 35.5 13.8 32.2-9.6.9-10.1 5-23.4-8-25.8 5 2 18.2-2.7 25.7-7.4 15-11 28.2-24.8 45.5-32.4 4.9-4.6 3.3-13.6 5.4-20 .4-10.8 10.3-30.3 2.6-34.4-20.6 4.4-40.4 11.5-61.2 15.1-10.8-.2-27.8.7-33.7 7.3 7.6 13.3-4.7 28.3 2 42q-3.3 10.9-7 21.8c-4.3-3.8-10.5-1.8-16.8 1.6-6.3 5.3-14-2.4-20.4 2.5-16 3.7-33.4 5-49.8 9.5-12.1 6-25.9 3.7-38.3 8.8-21.1 7.2-44.2 7.2-64.5 16.7-17.9 1-36.4 5.9-54.6 8.3-23.8 6.4-48.1 13-72.5 17.3-6.1 5.2-11.5-5.7-16.9-8l-24-23.9c-14 .7-27.8 1.3-41.3 5.1-18.6 3.4-37.3 6.2-56 9.6-19 3.8-38.8 4.9-57.3 11.8-.9 7.3 1.7 17.5-6.2 21.2-25.3 0-48.8 10.4-73.1 15.4-14.4-5-28.3 9-25.3 14.3-6.8-11.6-15.5-22.4-22.8-33.2-2.4-10.8-10.8-18.3-17.2-27-24 2.8-47.7 8.2-71.3 13.3a88 88 0 0 1 8.2 22.7c-.2 10.6 5.4 28.6-5.3 32.4-16.2-19.4-95.6-118.2-79.6 11-1.4 8-12.5-3.6-20 3.7-22.7 3.9-45.2 9.2-68.2 9.8-26.3 9.5-18-27.8-26.6-41.9 4.2-16-26-4.8-29.7.2 7.3 42.2 14 84.5 22.1 126.5 9.3 8 25.6-2.2 37.5-2.7 8-.8 31.2-11 28.8-4-10.6 4.5-.8 30.5 11.5 18.7 22-5.7 44-12 66-17.4 5.1-5.9-2.4-13.8-3.3-20.6l-18-56-1.7-11.8c5.8 7.5 5.1 18.2 9.3 26.8 6.6 19.4 12.7 39 20.1 58.2 18.7 0 36.9-8.9 55.4-12.3 28.2-7.6 56.7-14.3 85.1-21.2 7.7-5.7-4.1-16-6.1-23.9-1.8-9.5 5.8 5.3 7.7 8.6 4.1 9.5 9.2 17.3 20.7 10 39.9-10.1 80-19 120.1-28.4 11.6-4.6 24.6-4.4 36.6-8 40.6-9.2 81.4-17.5 122-26.8 15.3-4.6 32.5-5.4 48.5-9.7 40.8-8.8 81.9-15.4 122.8-23.4 21.2-1.5-.5-15-5.8-22.2-14.7-16.5 9.3 2.6 13.9 10.4 7.9 13 22.8 5.3 34.5 4.2l81.1-14.5c15.6-2.3 41.8-9 52-6.7-13 4.1-28.4 2.5-40.5 8.9m-985.5 16c17.7-7 38.4-4.4 56.5-11.4 9.6 7.3-1.5 33.6 22.5 22.2 23 .6 14-25.9 13.4-39.8-11-.7-21.9 0-31.6 4.7-10.4-3-20.3 4-31.2 3.7-6 2.3-12 5.5-18.3 3.3-5.9 1.7-14.2-.5-18.4 3.7a36 36 0 0 1-20.8 3.8c-13.6 4.8-29.3 1.3-43.6 5.3-15.5.9-47.7-1.5-34.1 22.3 2.1 13.6 20.3-7 30 1.3 8.9-11.5 18 2.1 26.3-2 4.8-4.5 11.4-1 15.5-6.7-3.2-12 33.6-11.3 31.5-8.9-11.2 2.2-39.6 1.4-24 18.3-3.6 10.9-.3 20.4.7 30.7-6.4 18.7 1.2 38.4-.3 57.7 3.2 16 1.5 32.4 4 48.5 3.4 12.9-2.6 34.5 6.5 42.1 16.3 1.2 43.9-18.3 45 8.1 16.1.1 32.8-3 49.1-4.4 6.9-1.5 39-4.1 19.5 2.3-3 16 5.4 36.6 6 54.5-.8 11 7 25.2 7.6 28.9-3.4 17.9 3.2 38.7 8 56.7 14 2-3.2 5.6-1.3 12.8-4.6 3.2-15.6-.7-23.1 3.5q-49.5 11.6-98.8 23.9c-3.3 23.7 6.4 45 4.5 67.7q1.8 33.7 8.6 66.7c-2.8 19.9 8.8 38.7 4.6 58.3a141 141 0 0 1 1.8 49c1 9.9-2.7 21 3 29.7.2 14.4-7.8 30.4.7 43.6-2.4 18.6 7.3 36.8 2.2 55.3 5 10.7 1.7 23.4 9.4 32.8-.4 7.4-4 15.2-2.3 22.2 5.3 16 .3 34.6 3.2 51.8 2.1 15.6.2 31.1 4.4 46.9 4.1 13-1.2 27-1.1 38.4 8.4 14.2-6.7 30 1 43.6 6.4 12-1.8 27.7 7.7 40 6.8 9.8-5.4 19.8 1 28.1 9.2 11.4-6.5 35.4 5.4 39.9 48.4-15.9 96.1-33.8 144.5-49.8 9.7-3.4 19.5-6.4 29-10.3.8-12.7 22.3-18.3 22.2-24-8.2-1-31.6-6.7-16-16 13.8-1.8 37.3-24.9 50-18.6-15.4 9-38.2 10.7-49.2 24.6 5 5.4 18.3 2.3 22.4 10.2-.3 10-21.6 9.2-19.6 19.3 19.7-.9 31.6-17.5 41.5-32.4 7.4-10.6 23.2-32.5 13.1-40.5-8 7.4-25 9.1-15.8-6.4 6.7-10.8 10.3-22.5-4.7-12.2-6.9 5.2-24.3 10.5-11.7-2 6.3-10.7 26.2-29.2 18.4-37.2-11.7 6.9-45.4-5.6-20-13.6 10.2-3.2 13.2-16.7 0-7.2-16.8 10-27.1-6.3-14.7-19 5.3-12.5 23-22.6 25.2-32.6-6.3-2.5-32.4 3.4-16.4-9 12.4-9.7-2-4.5-8.3-1.5-6.1 4.2-19 4-6.5-.6 9.8-5.2 21.5-7.4 29.8-14.6-1.7-5.3-24.5-6.1-12.8-18.8 11.5-13.2 32-6.2 47-13.6 20-11.4 30.8-33.9 40.6-54-8.6-6.5 11.8-17.6-5.4-15.7-13.7 5.3-8.5-7.7-10.6-12.1-7.3-5.5-15-21.6-16.8-25.4 11 .3 3.4-7 .3-12.5-4.1-14 36.1-5.7 15-15-18-2.3-10.2-15.4 8.1-12.2 6.6-8.5 16.4-19.2 28.3-17.4 12.2-2.3 28.3-29.6 29.6-40-5 5.5-15.6 3.7-8.3-4 17.1-26.6 34.2-53.5 44.6-83.6 6.5-20.3 14.3-40.3 19.2-61 0-14.4 7.9-27 7.3-41-3.1-11.7 7.2-16.6 11.3-2.7 6.5 19.2 23.1 28.7 27.2 48.6 2.2 11 9.2-1 12 11.6 6 6-7.7 9.6 1.6 15.5a61 61 0 0 0 16.3 32.7c8 25.2 31.4 10.4 49 5.6 9.2-6.6 40.6-6 32-20.3-32-50.5-62.8-101.6-94.2-152.5-8.4-13-24.5 2.8-36.8 4.7a5801 5801 0 0 0-140.4 52.8c-6.7 13.7 11.2 35 14.1 51.6 14.4 39.8 30.3 79.3 43.3 119.7-8.2-3.8-10-21.6-15-32-16-42.2-31-84.7-46.5-127-8-18.3-32.6 6.2-47.4 8-48 19.7-96.2 38.7-142.3 62.4 1 21.2 6.9 42 9.8 63 10 62.5 21.3 124.6 31.3 187 12.4 70.4 23.6 141 35.8 211.3 4.2 23.5 7 47.3 12.4 70.4 16-1.8-10.6 11.6-4.3-3.6-6.5-8.7-8.1-22.3-10.2-34.5q-16.2-99-33.8-197.9c-6.3-40-13.8-79.9-20.5-119.8-7.1-50.2-17.6-99.8-25.3-150-2.3-6.4-.4-22-7.9-21-13.2 4.7-3.1-1.5 2-5.7 3.4-10-9-25 0-30.7 24.1-5.7 48.9-9.8 72.3-17.4 3.4-5.8-1.8-13.8-2.1-20.5l-25-120.1c-12 .9-23.1 7.4-34.9 10.4-20.5 6 3.9-5.1 12-7.5 7.3-3.3 15.5-4.6 21.7-9.7l-18.3-88.3c-1-12.8-38.1 8-21.9-3.2 15.7.4 25.4-10 14.2-23.8-19.3 4.2-39.5 5.5-58 13-7-28-9.7-57-15.5-85.2-5-27-7.9-54.6-14.7-81.2-17.8 2-35.6 6.4-53.3 6.9m1311.1-353.7c-18.8-2.6-19.4 23-28 34.6-1 5.3 12.2 4 17.3 6.6 68.9 14.6 138 28.7 206.9 43.4 88 17.7 175.6 36.7 263.6 54.6 9-1.5 8-15.5 12-22.8 2.8-7.5 4.5-15.7 8.3-22.7 12 2.3-13.6 28.3 1.7 29.8 66.1 13 132.2 26.6 198.4 39.3a738 738 0 0 0 28-72.5c-21.2-6-43.4-8-65-12.5-90-15.2-179.8-32-269.9-47.5-79.6-13.7-159-28.6-238.7-42.1-46.6-8-93.2-16-139.6-24.9l-121.1-20.9c-8.5 13.8-12 30.3-17.8 45.4-9.7 14 4.7 16.4 15.7 17.4q46.8 7.7 93.5 16.3c17.5.9 11.9-38.5 34.7-21.5M1643 1480.8c.4 19.4-11.3 38-7 57.3 11 7-4 20 15.6 20.2 6.5-16.7 8.7-35.4 13.4-52.9-5.4-6.7-31.9-27.8-15-29.9 8.8 11.7 18.3 25.1 34.1 26.5 5.3 15.8-24.4-6.2-18.4 14.4-.3 16.2-19.5 50.4 5 52.7 5.8-3 14.2 9.3 14.5-5.7 3.5-12.3 5-25.2 10.3-36.8 1.3 16.8-7 32.4-8.1 48.9 5.4 6.8 23.2 14.3 26.4 1.5l6.6-38.2-24.7-20.6c3-14.4 19.9 11 29.2 9.7 7-.8 16.3 1.3 17 9.3-6.1 5-21.6-4.1-19.3 9-1.5 13.6-4.9 27.2-5 41 8.8 9 22.8 6.3 21.4-7.6 3.8-16 6.6-32.7 12-48.1 3.6 3.4-1.7 13.2-1.9 19.2-1.8 12.1-6.3 24-6 36.2 3 5 10.5 8.3 16.2 9 6.5-12 .9-28.4 7.8-40.5 3.5 5.5-.8 16.5-1.2 24.5-3 9.7.6 26.7 6.5 9 7.4-13.2 2 6.3 11.3 6.6 8.3 10 17.6.5 23.5-.2a48 48 0 0 0 31.9.8c4.5-9.3 14.2 2.6 20.7-2.5 9.3-3.5 21.2-2.6 27.8-11 14.5 1 27.6-11.7 40.2-18.6 4.9-8.5 5.3-19 18.2-19.8 8.8-4.9 14.6-13.8 20.4-21.8 4.4-7.7 8.5-15.4 4.6-24.3 1.9-14.7-9.1-.9-14.7 2.3-9.1 6.8-15.6 26.3-29.7 20.4-9.2-5.4 4-4.4 8.2-5.4 11.1-5.8 14.6-20.4 27.1-24.7 9.6-6 9.6-18 12.3-27.6 1.2-20.6-.8-39.1-15.8-55.4-2-12.5-24-8.2-22-19 4.4-18.4-20.3-22.9-30.1-34.8-18-2-27.1-13.7-38.4-25.4-15.4-10-34.3 7.5-42.6-13.2-15-16-33.1-3.3-48.7-2.8-13.5-21.4-41-26.2-63.7-18.1-13.3-2.6-19 19-25.8 17.7-11.3-1-32.7-3.4-43.9 7.8-3.9 6.3-10.7 5.3-17.2 5.1-6.2-.4-13.1 3-16.7 8a53 53 0 0 0-10.1 34.9c-5.8 19-7.7 42.8 5.6 59.3 7.8 5.2 27.7-3.3 11 6.4a25.4 25.4 0 0 0 20.3 31.3c.5 9.9 22.5-12.8 13.4 2.5-8.8 13.2-31.8-6-30.4 16a31 31 0 0 0 4 31.5c-10.4 7.1 13 22.8 8.8 4.9 4.7-12.7 3.8-27.4 11.1-39m203.8 551.6c.4 10 8.7 13 14.8 16.6-15.7 2.8-2 17.3 1.1 26.2 4 6.6 20 22.7 1.7 13.8-17.7-2 9.2 17 12.7 23.7l24 20.3c-3.5 6.2-11.5-.3-17.1 0 4.2 11.6 16.7 16.5 26.3 19.9 2 6 2 14 5.3 18.6 5.5 1.9 15.7 4.3 13.8-5 1.4-2.5 10.4 11.4 15.5 1 12.3.5 16 6 18.1 17.1 9.7-22.9 25.6 2 33.5 8.9 10.5-7.6 19.6 1.4 29.8.1 7.9-1.4 27.5-4.2 19 8.5-1.9 9 25.5-2 20.9 16 4.6 21.4 12.3-7 23.9-7.6 10.9-2 22.8-.3 32.4-6.7 3 4.3 12.4 13.1 11.7 2.8-1.7-16.1 16.5-3.1 20.4 4.6 3.9 11.3 11.8 7.9 16.5 1.2 14-3 38.2-18.9 41.2 5.5 15.9-8 39-31.8 55.4-27-5.4 8-28.8 28.1 11.4-.9 6-9 18.8-14.1 23-26 8.6-15.4 24.5 29.6 28.3 3.8 5-13.8 4-29.5 10.5-42.6 5.9 5.8 10 14.9 10.9.5-2-11.3-1.8-28.3 14.6-19.2 5.6-17-7.3-30.5-14-40.7 4.2 2.2 12.1 15.5 14.2 7.2 6.7-7.5-14.6-26.5-2.5-18.1 3.7 2.3 13 16.4 13 8.1-.3-6.4-2.7-13.5-1.8-19.6 12.3-8.6 22.6-13.1 4.2-33.8-4.8-6.6-10.7-17.1.4-19.8-7.9-9.6-14.2-16-11.7-29.3 1.3-8.6-4.5-13-11.5-16.2-11.2-2.2.1-21.5-14.4-16.4-5.5-8-9-16.8-15.8-23.2-.9-5.3-12.5-12-15-5.6 4 7.2 7 17.1-3.5 22.9-1.8 6.5-15.7 7.2-12.4 11.9 16.2 15.6-24 14.5-13.3 32.8-4 13.5-30.7-11.8-27.6 11-1.1 7.8 2.5 17.6-3.2 23.8-7.1 1.3-37.8-6.6-17-6.3 27.4 13 7-24.6 22.2-32.5 5.8 0 12 2.4 18.1 3.2-3-15.8 14-18 20-26-8.7-6-12.3-13.3.8-15.8 11-5.4 25.6-16.6 5-23.4 7.7-4.2 9.6-11.8-1.8-14.9 10.1-5.6 14.8-23.6.7-14-1.4 10.2-6.7-2-10.4-4.7 2.4-10.5.9-13.4-5.8-17.8-8.2-9.6.1-15.3 6-18.6-14.2-2-23.2-18.3-38-14.2-12.6.8-24.5-8.9-37-8.8 6 3.3 23.2 13.8 6.4 8.9-25.3-5.3-24.1-30.3-33.4-49.1-17.2-1.2-2.5 4.8.7 12.1-8.1 4-30 2.7-33.5-3 6.7-3.3 32.6 6.7 16.9-6.9 1.4-10 19.8-3.7 16.5-17.6 5.4-4.3 23.7-7.2 4.5-16.3-11.4 11.5 0-14 7.8-9.3 5.6-4.6-3.7-10.5-5.2-15.7 9.4-6.6 5.6-16.6 5.5-25.4-2.1-12.4-23.5-11.3-9-2.3 2.3 11.7-3 3.8-7.1-1.4-4.8-10.4-16-8.4-24.3-14.2a242 242 0 0 1-63.6-47.3c-10-18.8-32-3.8-43.5-6q13.5-4.5 27.4-8.8c-15.9-28.4-24.4-72.2-37.6-94.6-.7 7.6 2.1 16-3 22.6-2.8 27.6-15.2 52.7-21.3 79.6-.2 9.9-14.5 31.3-10.2 32.5 9.4-2.6-2.8 13.2-5.4 18.5-5.4 6.8-7.4 15.3 4 6.8 16-5-10.2 10.7-7.2 18.9-5.8 14.7-18.2 25.1-28.3 36.9-5.5 1.6-19.7-4-17.3 4.5.2 6.6-20.5 4.8-7 15.6 7.2 3.6 15.7 6.4 5 11.6 6.6 6.6 21.4 14 3.7 18-7.9 12 11.8 12.1 19.2 11.3-5.8 10.4.9 25 15 21 7 .6 14.8-1 21 1 3 14.1 34.2-9.5 24.5 2.4-8.5 4-16.7 8.2-26.3 7.8-6.6-2.8-10-9.4-20.3-6.5-23.5-8.2-17.6 24.4-30.4 36.9-6.3 9.7-13.7 34.5-25 31.2 9-10.6 24.7-31.4 21.8-41.8-7.2 6.7-29.8 9-21 22.4 3.8 6.7-2.6 15.2-9 17.4-12.2 4-32.7 18.8-14.7 26.7 8.8-.6 22.1 2.2 4.6 4.5-9 5.5-18.2 13.1-8 24 4 11.6 3.9 26.3 9.3 35.5 10.4-1.1 24.2-7.2 20.5 9.5 3.8 12.5 27.5-4.7 27.7 14.6-1 12 6.2 15.6 15.2 12.4 6.2 10 13.4 9.5 23.8 5.7 10-6.1 19 11.5 20.2 15.1-10.2.7-13-20-26.3-9.2-12.2 9-13.8-7.5-22.8-7-17.7 4.2-9-30-28.9-22.7-18.7 6-7.5-24.4-27.4-14.2-17.2 2.2-7.9-20.5-14.3-31.3-2.6-11-6.4-34-20.9-20.2.6 6.8-1.5 13.7-9.4 10.8 5.6 12 .3 16.8-11.6 16-9 12 14.5 7.5 15.4 15.5-7.1.5-24.9 4.6-13.1 14 14.6 14.6-34.1 1-11 14.8 2.7 7.8-2.7 19.2 5.4 24.6-7.1-.1-11.3 13.4-13.1 12-5.5-14-13.2 3.2.2 6.9-1.6 0 2.5-5 .7-5m-965.6 190.3c-6-15.8-9.3-32-11.8-48.4 2-7-7.2-12.4-2.5-19 6.3-9.6-6.3-13.7.3-25 2.4-15.6-4-29.2-.5-45.3a26 26 0 0 1-5.2-17c-7.7-4.4-.4-11.1 1.5-17 5-8.8-3.1-18.9-.2-28.3a30 30 0 0 0-1.8-21.2c-1.9-15.8 3-32.7-.8-48.9 0-16.3 1.4-32.4-4-47.3 5.2-10.6 1.7-21-.2-31 .8-9.3-13.4-15.3-5.1-27.5 5.2-11.8-5.1-20-5.3-30.3 5.8-11-4-21.4-.5-32 4-15.7 9.6-32 2.8-48.1 4.1-13.7-3.3-25.4-4.2-37.6 1.4-12.8.6-26 .1-38.2-3-16.8.7-31.6-2.5-49.2-2.6-6.6-5.4-12.3.4-18.5 5.2-5.8-7-10-3.3-16.6-4-10 2.5-20.2 0-31.1 4.8-13-5.3-25-16.5-15-11.1-8-18.4 5.7-29.8 6.1-12.6-10-22 7.8-34.9 4-12-5.4-17.7 14.3-30.9 4.5-12.7 2.1-21.6 14-35.6 9.5a23 23 0 0 1-27.5 7.2c-5.6 11.5-15.8 1.1-23.7 6.7-12.7 4-25.2 11.7-38.8 8.6-11.7-2.1-23.7 1.3-17.4 15.6-1.8 21-5 40.2-5.4 61-6.4 8-1 17.8-3.7 25.6-10.5 9.1.3 19.3-3.6 30.6-5.6 18-.1 35.5-1.5 54 1.1 8.3-1.3 16.5-.5 24.4-3.6 7.8-6 15.3-2.8 23.7-3.9 16-3.8 32.6-5.9 49 2.9 20.3-6.5 40.9-2 61-.2 17-12 32-8.1 49.8.7 30-9 58.6-11.4 88.2q-3 26.2-2.6 52.7c.3 14.2-4.6 28-7.9 41.7-6.4 8.5 5.6 16.1-1.7 24.1-7 20.2 10.7 41.6-5.5 62-.7 15.2 8.6 31.4-7.4 43.7-6.8 9.4-12.5 38.5 7.8 35.9 29.5-3.2 60 5.9 88.5-6.1 34.3-4.7 63.9-23 97.6-29.5 38.2 4.3 67.3-21.7 101-32 16 0 33.3-1.8 46.8 9 5 2.6 18.8 13.4 15-1.3a53 53 0 0 0 11.2-37.2m143.6-1201 41.2-6.2c7.3 26.6 10.6 54.3 15.9 81.5 3.6 10 36.8 9.2 29-6.4-3-24.1-7.2-48.2-9.8-72.3 7.4-14.2 29.6-8.4 44-13q30.5-5 61.2-8.5c15.1-1 5.8 21.3 9.4 31.3 2 22 4.5 44 6.4 66 5.4 12.3 1-18 15.6-11.7 11.8-6.4 48.4 2.3 45.8-18.7-.6-17.6-4.6-35-4.6-52.6-1-25.9-7.3-51.3-8.1-77.2-4-13.1 2.4-30-10.8-38.7-33.8-36.2-69-71-102.5-107.5-19.4-21.3-40.8-40.8-59.8-62.6-8.3-7.1-11.3 13.8-17.1 18.6-38 65.9-75 132.4-113.5 198a36 36 0 0 0-4.8 33.7c10.6 45.6 20 91.5 30.9 137 4.6 7.7 19.1-2.9 28 2.5 24.1 1.6 13-21.6 10.2-35.5-3.7-17-8.2-34-11.3-51.3zm1757.2 86.7c-42-11.3-84.5-20.7-126.7-31.3l-677.6-164.3-5.1-.6c2.1 15.4-18.2 36-14.5 49 89.2 22.2 178.7 43.2 268 65.3 162.3 39.8 324.8 78.9 487 119.1 16.7 4 33.5 7.8 50.1 12.2zm-1194.7-534c-19.3-1-38.7 3.4-58 4.3q-45.7 4.8-91.6 9c-35.5 3.5-71 6.3-106.3 10.2-23.5 1.8-46.8 4.8-70.2 6.5-33.4 3-66.5 7.5-100 9.5-19.7 2.8-39.7 3.5-59.3 5.9-13.9.7-27.6 3-41.4 4.6 4 9.3 13 15.9 19 24l49.6 57c30.5-1.7 60.5-8.5 91-11 49.5-7.8 99.3-12.5 148.9-19.8 31.2-4.2 62.4-9.1 93.7-12.8 37.4-6 75.1-10 112.6-15.6 6.8-22 9.2-45.5 13.4-68.2a7 7 0 0 0-1.4-3.6m287.5 750.5c11.4 16.9 31 20 47.7 29.3 2 14 21.8 11.8 22.3 27 .7 15.7 24 18.2 27 36 13.8 13.3 8 32.9 13 47.5 11.5 16-4.1 31-5.1 46.7-.5 18.4-15.3 30.7-28.9 40.5-11.8 10.2-21.2 24.3-34.7 31.7-11.2 0-25.4 5.8-31.6 15.1-3.2 13-17.3 4.5-26.2 4.4-19.7 2.8-36.6 9.4-56.9 6.4-10.5 1.3-21.6-2-32.5-2-12.5-1.6-25.2-2-37.2-4.8-24.4-7.3-49.3-13.5-71.5-26.4a139 139 0 0 1-52.4-37.8c-30.4-23.7-45.8-65.9-41-103.8q-3-26.2 6.6-51c4-15.8 24.2-20.6 22.7-39.2 3.2-23.2 24.4-26.2 41.3-27.3 3.1-4.2 18.5-13.1 6.7-13.5-28 10-54 25-79.5 40.4a122 122 0 0 0-38.4 45.1c5 1.8 17.3-.7 5.4 4.6-17.4-4.5-1 20-13.8 12.6-22.1 58 12 121.3 56.8 158.5 51 45.4 118.8 68.9 185.8 78 14.9.7 29.7 2.3 44.7 2.7 71.5 0 149.7-18.2 199.2-73.2 17.6-10.4 5.8-39.8 10.7-46.8 4.3 7-1.2 26 4.5 25.4 5.7-7.4-1.8-27.6 2.5-27.6-.2 8.4 2.9 24.4 7.3 8.2 3-17.4 9.7-36.3 5.7-55-3.7-39.3-28.2-73.3-55.8-100.1a297 297 0 0 0-71.5-47.3 386 386 0 0 0-109-33.6c-8.7-.5-18-4.8-26.4-.8 4.4 4.3 7.1 13.4 14.5 9 14.1-4.8 28.7-2 42.2 3.4 7.3 2.9 10.6 14.1 19.8 11.4 9 .1 18.5 1 26 6.3M2891.6 829c-14-6.2-29.9-6-44.7-9.3q-80.7-12.5-161.2-26.4c-28.6-5-57.5-8.6-86-13.9-59-9.6-117.9-19-176.7-29.2-64.3-10.2-128.5-21.1-192.7-31.5q-67.3-11.1-134.6-21.8c-14.1-2.1-28.1-5.6-42.3-6.7-7 5.5-19 30.7-8.2 35q191.6 33.7 383 67.9 96.8 16.7 193.5 34c84.7 14.5 169.1 30 253.7 44.6 5.3-14.3 11.8-28.2 16.2-42.7M804 1162.6a35 35 0 0 0-27.8-.6c-7-1.1-13.9-1-20 3.3q-8.7 6.6-15.5.5c-8.5 1.6-5.1 10.8-12.3 8.5-6.8.2-14.8-3.6-20 2.5-9.3 6.4-19.5-4.6-28.7 3.9-5.9 0-12.1-2.6-17.7 1.8-6.5-2.6-12.1 2.5-17.5 3.6-7.5-9.2-17.2 4-16.5 10.7 1 10.4-2.5 21.9-1.2 33 1 10.4-1 20.2-4.8 30 2.6 6.5.5 12.3-2.7 18 .8 11.6 3.2 23.3-5.4 34.6q5.4 9-.4 17.8c-7.7 11.6 10 25.7-6 34.8.6 10.6 3.5 19.4 16.5 12.7q45.4-8.7 91-17c33.6-6.5 67.8-10.9 101-19.2 0-11 .9-23.6-4-34.2-1-10 1.8-19.7-2.3-29.3 2.2-15.2 2.7-31.6 1.8-45.8-6.7-11.4 5-23.7.8-35.7-3-12 10.9-30.4-2.7-37.8zm1661.9-163c-17.6-6.2-36.5-8.7-54.7-13.5-58.3-13.5-116.5-27.3-175-39.9-19.1-4.1-38-9.3-57.3-12.8-8.8 5.6-8 18.3-22 10.8-11.7-2.2 11.5-22.2-10.3-18.9-14.7-5-36.1-5-46.2-14 .9-6.7 5.6-13.6 3.7-20-9.4 1.2-15.5-7.8-25.3-7.8-28.9-6.3-58-13-87-17.6-7.8 8.8-19.7 33-13 43.2 65.7 15.9 131.3 32.6 197.2 47.8 114.2 27.6 228.1 56 342.4 83.1 87.7 21.2 175.4 42.9 263.2 63.6 9-7.3 11.6-26 17.8-38 2.3-13.4 23.6-37.7-.4-38.2l-185-40c-7.4 7.3 5.4 6.6 10.2 9-6.9-.1-17.2 2.5-24.3-2.7-4.3 11.5-6.7 23.8-11.5 35-4 2.2-11.3-6.2-18.4-5.1-24.6-5.5-49.2-11.3-74-15.5-7.3 2.3-7.6 15.3-17.6 7-9.7-.5-16.3-5.3-12.5-15.4m-135.5 544.2c-15-14-32.2-25.7-47.5-39.5-34.5-30-65.6-63.5-100-93.5-22.7-1.8-46.9 11.3-70.2 14.9q-36.7 9.4-73.2 19.3c-9.6 8.8 5.1 27.4 3.4 40.3 4.4 12.7 6.4 26.3 17.5 35.4 21.8 24.7 43.6 49.4 66.6 73 52.2-12.5 104.3-25.6 156.7-37.5 15.4-4.9 31.9-6.1 46.7-12.4M1196 781.2c33.8-2.2 67-10.1 100.7-13.9 36.4-5 72.6-11.2 109-16q55-8 110-17c15.4-2.7 31.4-2.9 46.4-7.8 4.5-23.8 10.2-47.5 12.7-71.6-1.4-8.4-13.9-1.2-20.6-1.8-60.4 8.6-121.2 15.4-181.5 24.9-44 5.2-87.6 12.6-131.5 17.5-34.5 4.8-69 9.2-103.3 14.7-3.4 5.5 7 10.8 9.6 16.2 16.4 18.1 31.4 37.4 48.5 54.8m-578.8 601.6a39 39 0 0 1-22 7.5c-9.4-.3-.1 14-4.7 20.1-3.4 21.2-4 42.7-6.4 64-2.8 17-4.3 35.2 17.3 24.6 92.8-21.6 186-41.4 278.5-64.4 6.4-3.9.6-14 1.3-20.8l-8-74c-5-4-13.7 1.5-20.2 1.5a49898 49898 0 0 0-226 43.3zm1991-400.6c4.5-16.6 18.5-38.3 14.6-52.9-64.3-14.9-129.4-27.4-194-41.2-96.3-19.5-192.2-40.7-288.5-59.9-17.2 2.6-20 30.7-29.3 44.4 2 13.5 31.2 8.7 43.2 15 110.2 23 220.3 46.5 330.4 69.5a13021 13021 0 0 0 118 25zM1751.8 1675c-43.9-8.5-88-18.6-127.4-40.3a305 305 0 0 1-61.5-43c-16.1-5.6-34.7 9.2-51.7 12-14 6.6-37.9 8-45.7 18 31.6 49.9 64.7 98.8 98.2 147.4 5.5 9.2 16.4-1.2 24.5-2.7 56.5-21.6 113.7-41.5 170.7-62 16.7-1.2 12-11.2 3-18.1zM1579 889.2c-7.7 17.7-2.2 38.3-4 57.2-.3 13.8-2.6 27.4-2 41.3a664 664 0 0 1-1.6 53.4c6.5 8.8 28.1-1 35.3-5.7 3.6-33 1-66.3 2.5-99.4 10.2-5 22.4-4.2 33.5-6.7 39.4-5.8 78.7-12.6 118-19.4 15.3-12 7.6 11.3 6.8 20.4-2.8 23.2-4.7 46.6-8.1 69.8 4.8 3.8 12.2-.3 17.8-1.3 5.3-3 18.6 0 17.5-8 6-23.6 5.8-48.5 9.9-72.7 1-23 5.2-45.7 5.9-68.6-4.3-18.1-15.4-33.7-23-50.5l-66-129.6c-3.9-6-7.7 9.4-11.6 13.2q-34.6 57-68.7 114.2c5.1 10.5 29.6-3 42.3-.2 24.5-3.2 49-6.9 73.5-9.2 9.3 11-1.5 29.9-.5 44.2-2.2 18.2-3.2 36.7-7.1 54.6-12.9.3-31.8 3.3-46.9 5.9a796 796 0 0 0-66 12.4c-5.7-15-.3-33.3-1.6-49.6a281 281 0 0 0 1.6-49c-17.9 26.3-32.7 54.5-50 81.2-2.8 4-5.5 11.7-7.5 2M1560.5 733c-17-1-35 4.8-52.5 6.4L1203.8 786c5.9 17.2 28.7 34.6 41.5 51.6 5.7 10.9 15 18.9 27.3 14 44-6.8 88-12.7 132-19.5 38.6-4.8 76.9-12.1 115.5-17.2 11-3 31 1 29.4-15.3 3.6-21.5 8.4-43 11.2-64.6l-.2-1.8m-209.4 714.4c-7.4-20.5-22.2-37.7-32-57.1-12-19.5-22.5-39.9-35-59-5.9-4.8-14.2 2.3-21.2 2.7a3085 3085 0 0 0-132.3 37c-6.2 1.8-64 46.8 2.3 26 13 35.4 25.3 71 39.5 106 6.4 18.3 30.6-4.5 45-6 42-15.8 83.9-32 126.3-46.6l3.6-1.5zm-512.6 73c12.3-1.1 21.1-10.6 33.4-11.7q44.4-10.2 88.6-21.4c8.6-2.4 3.4-12.6 3.3-18.7-2.9-19.6-7-38.8-9.2-58.3-3.9-21.5-5.2-43.7-11.3-64.7-17.4 1.5-35.2 2.7-52.3 6.6-8.1 17 .6 39.8-1 59.3 2.6 14.8.7 31 7.8 44.5 5.6-2.6 31-5.5 7 .9q-130.5 29.9-260.6 61.4l-49 11.2c-9.4 10.6-8.3 25.2-11.2 38.2 5.3 8.7 23.3 3.5 33.3 3.4 11.9-2.1 22.9-12 35.1-9 7.7-7 18.2-2.7 26.7-4 6-3.6 10.8-12 18.7-8.8 11.9 5.9 16.7-13.5 28.2-9.5 8.7 5 15.6 1.2 21.7-5.4 8.2.1 17.3 4.8 24-1.8 8.3-9.2 18.3 3 27.4-2.3a25 25 0 0 1 25.7-6c5.4-2.8 6.7-7.6 13.7-3.9M2178 1406.3c-24.8-25.2-52.9-47.3-79.5-70.6-24.2-19.6-47-41.2-72.3-59.6-8.3-3.3-18 1.6-26.7 2.6q-59.7 12-119 25.7c-15 4.8 16.5 9.8 22.2 15.2 21.1 8.9 40 22 59 34.6 28.3 21.8 53.7 48.6 67.6 82 11.5 14 35.3-4.9 52-5.4q48.5-12 96.7-24.5m-217.2 316c-3.7-16.5 20-16.5 22.8-31.5 5.2-13.6 18.6-31.3-1.9-39.8-16.5-21.2-40.4.8-59.5 6.6-32.8 12.6-68.2 16-100.9 28.7-10.8 6.4-35.7 5.8-37.9 17.4 29.4 35.4 63.3 67 94.2 101 14.4 11.2 25.1 30.8 42 36.4 6.9.5 12-3.8 17.5-6.6 11.3.9 25.6-.7 29.5-13.3 4.5-14.4 1.6-28.8-12.8-32.6-9.7-5.8-6.1-16 3.6-18.8-12.9-8-12.5-19.2-20-30.4-3.9-9.8 14.4-5.6 10-15.8 4-3.6 8.7-1.5 13.4-1.3m185-688.5c81.2 22.4 163.2 41.8 244.7 62.8 8.4 3.5 30.5 2 23.2 16-6.8 23.8-14.5 47.3-20.6 71.3a1082 1082 0 0 1 90.2 24.5c7.3.3 7.2-11.8 11.2-17.1l19.6-44.7c-13.8-6.7-29.7-8.3-44.5-12.8-15.3-3.2-30.3-9.4-46-10-11.8 3.5-1.3-30.9 12.6-15.7q40.6 10.6 81.3 20.8c-1.5 12.8 4.6.5 6.3-5.3 3.6-8.2 11.2-20.6-3.8-20.4q-231.2-56-462.2-112.8-39.6-9.3-79-19c-6.7 15-7 32.7-11.3 48.7.6 12.5-12.5 33.7-2 41 14.4 8 15.2-6.7 17.5-18.3 5.6-13 2.2-35 13.4-42.6 39 9.7 78.2 18.5 116.8 29.8 5.1 4-8.2 33.7 2.7 13.7 3.3-8.4 8-17.4 13.6-24 6.4-4 13.6-.4 14.8 6.8q.9 3.7 1.5 7.3M1460 1613.7c16.7.8 32.5-9.2 48.8-13 13.8-6.4 38.2-8.2 44.4-18.2-31.4-31.8-51-75.8-48.4-121a169 169 0 0 1 8.4-59c-10.4-3.2-34.5 9-50.1 12.4a1643 1643 0 0 0-100.6 33.6c-3.9 11.2 13 25.6 18.3 38 26.5 42.3 51.8 85.6 79.2 127.2m-173.3-285.8c22.1 39.3 45.5 77.8 69 116.3 14.7-1.1 28.9-8.8 43.3-12.4l110-35.5c.8-6.8-8-12.7-11.8-19-21.2-26.3-39.6-54.6-60.2-81.2-6.9-6.1-16 .6-23.9 1.2a4947 4947 0 0 0-126.4 30.6M483 1085.3c-1.7 19.7-12.6 37-15.2 56.2-10 11.8 1.8 15.4 11 10.4 19.2 2.6 41-10.2 57-5.6 5.6 0 12.2-4.9 18.1-6.8 5.7-4 12.5 1.5 18.4-2.3 6.6-1.4 13-5.3 19.8-2.8 6.2-.9 12.9-6 18.6-4.1 5.6 2.3 11.9-4 17.7-5 14-.1 27.8-5.3 42.4-7.8 16.1 3.5 31.9-12.5 46-7.3 11.3-1 36-10.7 29.8 9.4-3.1 9.7-3 20.4 10.2 11.8 26.5-.9 52.5-6.9 78.7-10.4q28.3-6 56.5-8.7c11.3-2.8 22.6-3.2 33-7.9 9.3 5.6 39-10.3 14.8-7.3-8.8 1.2-33.9-2.1-13-2.1 10.5.3 29.1-7.7 27.2 9.4 2 8 1.3 15.8-.6 23.7-1.6 13.5-.8 26.6 14 24.8 18.8 1 38.8-9.7 57.6-7 14.8-5 31.3-3.2 47.1-6 16.7-5 52-3.6 60.3-12.8-7-8.6-2-27.1-21.3-21.8-10.2 2.4-19.7 2.3-29.4 5.2-5.6 4.6-11.8.8-17.8 2.2-12.1 4.2-25 3.9-37.2 7.5-16.2-.3-29.4 2.3-43.2 6-14.5-10.6 5.4-46.7-17-46-16.7 4.3-36.5 1.7-53.9 9-12 9.1-24.2 2.6-36.5 3-14.8 5.3-30 9.7-45.4 9.1-9 4.9-18.7 1-28 6.2-20.5 8.5-27.4-10-23.8-27 .6-9.6-11.3-6.5-17-3.8-6.3 1.8-11.8-.7-17.8 4-12.3 2.4-25.7 1.5-35.7 6.9-7.7-1.4-13.9 1.8-20.8 3.8-16 1.3-32.8 2.7-46.8 9.8-10.3-5.7-16 8.5-25.8 4.6-11.4-4.1-22.7 1.6-34 3.5-10.4 1.6-22.4 1.3-29.2 6-6.6-4.5-14.1 7.4-20.5 0-10 2.3-16.1 9.5-27.2 4.5-11 9.4-20.5-2.8-14.3-12.8 2.8-7.4 7.3-14.7-6.8-21.7m433.7-126q-8.1-41-18.5-81.5c-5.9-3-13.8.5-20.6.6-32.5 4-65.1 7.4-97.6 11.9-21.1 2.4-42.4 4.6-63.4 8-5.2 5.2.3 14 0 20.7 3.2 22.2 6.3 44.5 10.4 66.5 9.5 1.7 19.8-1.5 29.6-2.2q78-10.7 156.2-21c-.2-.3 5.1-1.8 3.9-3m-19.1-87-19.7-85.6c-7.6-6.4-19.9-.7-29.5-.7-38.4 4.5-76.8 9.4-115.3 13.2-11 1.8-22.8 1.2-33 6 4.1 29 6.7 58.2 12.7 86.8 4 5.1 13.7-.3 20.1.2zm129.8 532c6.8 35.9 14.8 71.5 21.6 107.3 2.6 12.1 4.3 24.5 8 36.3 21.8-4 43-12 65-14.5 16-5.7 32.4-11.5 47.5-19.1-.5-19.5-13.9-38.6-18.9-58.2q-14.3-39.8-29-79.5c-9.2-3-18.4 3.6-27.5 5.4-22.3 7.4-45 13.4-66.7 22.3m894.5-862.2c-25.2 0-50.2 5.2-75.5 5.8-32.5 4.7-65.3 5.5-97.7 10q-36 2.8-71.7 6.8c-15.2 2.1-39.1 1-47 7l91.7 53.8c35.9-3.4 71.5-9.2 107.4-12.5 30.7-3.2 61.1-8 91.8-10.9 9.9-.2 21.5-2.7 14.1-14.4q-5.9-23-13.1-45.6m921.6 410.7c-17.6-7.2-38-8.3-56.8-13-48.4-9.5-96.6-20.4-145.2-28.9-8.9 8.1-10.8 27-16.5 39.5-.6 11.3-19.3 32.6-.6 35 63.3 13.1 126.1 28.6 189.6 40.8 8.9-17.5 14.6-36.6 22.3-54.7zM1786 1218.7c-7-13.7-20.2-22.6-29-35-14.1-13-24.5-29.7-40.7-40.5-55.5 10.4-111 21.6-166.4 32.2-8.6 5.3 6.8 14.5 10.5 20.7a1676 1676 0 0 1 42.8 50c10.3 10.7 26.1 0 39.2-.8 34-6.4 68-13.5 102.2-18.7 14-.9 27.7-5 41.4-8m108.9-277c20.3 2.8 43.9-8.2 65.4-10.2 8-11-16.5-23.7-16.7-12.7-16.4 4.8-32.4 10.9-49.7 11-20.3 2.6-40.5 7.2-60.5 10.8-14.7 1.7-32.9 2-28.4 22.3-3.6 9.5-3 29.2 11.5 25.3-1.4 14.6-33.2 9.4-44.7 16.9-12.2.9-15.3 11.3-26.8 5.3-20.3 5.5-41.2 9-61.2 15.5-21.3 5.2-41.4 9-63 11.2-23.2 12-56 25.8-72.5-2-5.6-10-14.7-7-23.4-4.1-13.9 3.4-28.7.9-42.4 5.6-9.2 1.6-18.3 4.8-27.6 3.6-33.2 2.2-65.2 14-98.5 15.8-19.3 7-46.3 3.4-62 13 15.2 7.3-3.7 11.2-13.2 10.5-9.3.1-17.4 6-27.4 4.2-9-.8-17.3 9.8-13.9 9-11.5-9.3.1 7 3.7 11.5 11.9 20.5 38.6-.8 57 0 12.8-5 37.3-1.9 42.8-13-2-5.8-21.7-20-9.8-19.5 8.7 14 28.2-14.1 39-.5 21.3-1.8 41-10.3 62.2-10.6 15.2-8 32.7-2.9 48.5-8.2 12.3 1.8 22-8.7 35.2-4.6 7.8-6.5 15.9 2.2 21.9 6.4 5.6 17 22.4 13.4 36 9.1 27.5-3 54-11.2 80.7-16.2 12.6-2.3 25.6-3.1 37.7-7.6 12.6 1.1 23-7.5 35.2-5.6 8-3 16-5.2 24.4-5.2 12.5-6.7 28.2-1 39.8-10.1 7-3.3 14.7 3 21-2.7 10.2-3.7 22-.2 32.3-6.6 6-6.4 17.2 3.4 22.4-5-18.2-11.2-34.1-25.4-50.5-39-6.3-3.3-15.7-15.7-4.3-9 8.6-12.3 21.2 1.3 33-4.8 21.9 0-1.5-12.7 27.8-7.2 5.8-1.4 26.5-10.7 30.9-6zm43-26.6 18.1-106.8c-17.5-1.5-34.9 3.5-52.4 4.5-25.7 2.8-51.3 6.5-77 9.2-1.5 11.5 23.3 27.4 8.3 31.8-9 .7-1.8 16.3-10.3 2.5-14.9-8.2-8 25-12.2 35.1-1.2 15.5-4.3 31-4.3 46.4 12 2.5 24.3-3 36.4-4.4 29.3-5.8 59-9.1 88-15.8 1.8-.8 3.9-1.3 5.4-2.5m-137-142.6c59-8.7 118-16.9 176.8-26.3-5.8-22.9-9.5-51-21.5-70.4-27.8 1-55.4 7.2-83.2 9.6-35.7 4-71 10-106.6 14.8 3 13.7 12.3 25 17.5 38 5.6 11.4 10.7 23.2 17 34.2M1956.5 667c-4-19.5-10.8-38.5-15.5-57.8-4.2-10.4-18.1-2.5-27-2.7-50.8 5.2-101.3 12.5-151.9 18.6-12 2.2-39.7 1-25.3 17.7l25.6 51.4c14 2.4 28.3-2.5 42.5-3.4 31.5-5 63.4-7.3 94.9-12.7 17.7-2.7 35.6-4.4 53-8l2-1.2zm-718.8 580.2c-19.9 3-39.2 9.6-59 13.7-26.9 6.3-53.5 13.6-80.4 20.3-9 14 10.2 37.8 12.7 55.3 6.7 10.7 6 38.9 23.8 29.7q68.1-20 136.8-37.9c17-5.5-5-24.1-7.8-35.1-8.6-15.4-16.4-31.3-26.1-46m-211-619.5c-53.1 5.1-106.2 11.5-159.4 16.5-22.9 1.5-1.7 30.6-2.8 45.1 4.9 15.7 4.8 35.6 13 48.6q54.6-6.3 109.1-13.2c16.1-8.8 14.8-34 23.8-49.6q8.7-23.6 16.3-47.4m412.5 664c14.9 24.1 33.4 46 49.8 69 10 8.8 17.8 29.3 28.1 31.3 10-18 22.1-34.6 37.7-48.2 22-24.5 64-31.7 84.9-49-8.5-12.8-20.8-23-29.7-35.5-7.8-8.4-19.6 1.8-29.7 1.6-45 9-90 18-134.6 29q-3.2 1-6.5 1.8m1377.5 79.3c4.9-12.9-9.2-26.8-2.6-41-4-12.8 4-31.4-7.9-40.1-1.8 8.4-12.6 28.3-16.9 11.4-2.1-8.1-8.5-16.8-5.8-25 6.9 3.1 9.5 38.5 15.9 16 1-12.7 11.5-10 16-1.8-.5-13.2 3.9-10 11.7-5 2.2-14.5-4.7-29.6-5.1-44.6-3.3-5.8-9.3-10.3-10.4-17.7-.6 2.3-7 11.2-5.4-1.6 2-16.4 13-6.2 11.7 5.2 2.2 8 14.6-8 21.5.2q3.7-17.2-.5-34.3c-3.9-23.2.5-46 1.2-69.1-1.7-8.5 7.7-13.2 6.5-21.8 4.7-13.6-7.8-30.2-17.4 11.8-3.5 14.5-25.8 26.7-27.3 41.2 14-1.4 13.3 19.2 1 14.2 8.5-6.4 1.7-8.4-5.7-10.3-6-1.6-11.7 4.7-17.6 6.4-6.7 1.4-26.3 5.6-8.5 6.3 6.7 11.5-2.3 13.2-9.5 19.2 2.6 7.4 23.4 13 5.6 11.5-7.6-12.1-16.6-12.9-28.1-10.5-6.3 1-16.4-3.8-19 3.7-2.7 6.8 9.6 15.5-6.7 14-20 12.6 12.4 53.9 30 23.4 16.7-11.5 33.8-23.7 51-33.6 4.7 15-3.2 30-6.3 44.7l-9.5 34.6c2 17.3 4.2 34.6 8.7 51.5 7 10.8 6.6 17.2-5.8 19.3-13.3 8.6-2.7 27.3-2.2 40.6-.7 9.5 16.1 29.6 10.2 9.7-7-10.8-2.2-32.4 8.8-15 4.8 3 10.6 16.2 15.4 11.3-3.6-5.5-11.4-17.4 3.5-11.6 11.7 6.6.8-7.8-.4-13.2zm-1023.4-304.3c19.6-12 42.5-5.5 64-13.6 14.7-6.4 7.7-29.3 10.7-42.8-15.2-2.4-29.5 12-44 8.9-18.8 1.2-36 10.4-54.6 10.8-7.7-3-14 7.8-22.3 4.8-7.9-2.4-13.5 8.9-21.2 5.5-17.3-.2-33 8.2-51 9.1-12.4 2.8-23.3 3.5-35.6 6-16 3.1-31.4 12-48.3 12.6-6.3 2.4-13-2.8-18.5 1.9-5.3 3.1-13-1.1-16.8 5-6.9 4-4 13.3-6 20 5 9.2-12.6 25.3 6.7 19 16.9-2 33.4-7.6 50.2-8 15.8-3.7 33.3-8.3 50.2-10.8 21.5-3.5 42.6-8.5 63.9-12.6 6.5-4.8-1.2-12.3 3-18.7 5-6.2-11.7-9.5-2.4-11.9 7.2 3.5 7.7 9.5 5.1 16.4-2.6 11.8 6.1 13.2 14.8 8.7 15.3-3.1 30.6-8.3 44.8-11.4zM703 798.8c21.8-.8 43.4-4.8 65.1-6.9 33.7-4.6 67.7-6.6 101.4-11.7 13.1-9-3.1-31.4-3.3-45.9 1.6-29.2-32-15.7-51.6-16.6-21.1.6-42 3-63.2 4-19.5 1.8-39.6 2.3-58.9 5.5-5 19.9 4.3 45 6.7 66.2zm-236.4 361.3c9.6 16 15.8 33.4 23.9 50 7.6-1.3 7-9.3 9.1-15.2.6-4.8 14.3 6.9 12-3 0-11.5-8.4-17.3-13.3-25.2 5.2-15.5 3.8 8.6 15 9 .9 6.1-1.2 13.8 5.6 17 5 4 12.7-.8 18.8-.5L623 1180c4.1-5.9 10.3 1.4 16.5-2.6 5.5 5.9 11.2-.3 17.2 0 9.3.3 18-1.3 27.4-2.7 5.5-5.3 11.2-.6 16.8.2 7.4-3.3 14.7-7.5 23.1-6 6.8-.1 12-6 18-8.6-6-15.9-4.6-29.3-1-45.2-11.6-4.6-37.7.6-53 6.2-8.8 3.4-18.1 0-27.2 3-9.8.8-18 9.8-28.2 5.1-11.4 3.5-22.2 7.1-33.5 8-9.1 2.3-17.9-.6-26.5 4.8-10.9 3.7-22.2-.1-32.5 8.2-16.7-1.1-33 5.6-50.6 4.9-7.6 1.6-15.8 1.5-23 4.8m1079.2-342.3c-7.6-4.7-17.1.4-25.6.8-56.7 8.7-113.6 15.9-170.2 25.4l-83.3 12c-9.8 2.8 4.1 11 6.4 16.4l17.5 22.2q75.7-11 151.4-20.8c31.2-4.5 62.6-8.3 93.7-13.7 8.4-10.2 7.2-28.8 10.1-42.3m38-168.6c31 20.5 61.6 41.7 93 61.5 15.7-23.2 29.2-48 44.3-71.6 4.8-11.4-12.3-14-19.3-19.8-28.5-15.8-56-33.5-84.5-49.2l-19.4 2.4c-5.8 15.4-6.6 32.6-10.4 48.8-.9 9.2-5 18.6-3.6 28m-21.6 1127c-8.2-16.3-20.4-30.4-30-46-22.6-34.3-45.7-68.3-68-102.9-9.3-13.6-28.2 4.3-41.7 5.3-11 4.2-23 6.7-33.4 12-3.1 5.3 7.6 11 10.4 16.5 10.3 14.2 24.7 24.6 35.9 38-17.4 8.6 13.6 18.8 21.2 23.5 8.6 1.2 29.9 2 13.3 12.5-2 6.9 12.5 3.2 16.8 8.2 7.3 5.3 18.1 7.4 22 16.1 1 9.3-16.7 15.7-2.3 21.8 2.4 13.9 12.1 13.7 22 8zm49.4-520.3c15.1 11.5 23.2 40 43.8 38.9 23-6.4 47-8.8 70.6-12.1 45.5 2.1 91.3 6.2 134.8 20.4 5.9-5-16.6-19.6-21.4-27.7-17-17.6-32.2-37-49.8-54.1a16041 16041 0 0 0-174.5 32.2l-1.6 1zm400.6 316.7c-11.5 6.2-18.8 19.7-30.3 27.2-53.2 40-121.4 52.7-186.5 51.2q-23.7-1-47.2-3.7c-37.9-7.9-76.2-16.2-110.7-34.6a216 216 0 0 1-61.6-38c-18.7-13.5-31.3-33.1-46.3-50.3-7.8-11.1-11.4-24.7-18.6-35.9 5.7 27.8 17 55.5 37.3 75.8a150 150 0 0 0 45.4 41.6 249 249 0 0 0 67.7 37.2 294 294 0 0 0 75.4 21.9c35 7.8 71.2 6.3 106.9 4.7 28-1 54-13 80.7-20a184 184 0 0 0 88.2-64.8c0-4.1.8-8.3-.4-12.3M528.3 996.2c8.2 17.3 9.9 37.6 15.5 56.1 5.3 17.5 7.4 38.5 14.8 53.9 12.5-1.3-3.3-22.2-2.7-31a5728 5728 0 0 1-22-80c4.5-6.6 14-4.1 20.7-6.5 28.5-4.5 56.5-11.4 85-15.7 10.6 1.7 6.2 17.1 10.4 24.8 6.6 28.6 11.8 57.6 19.4 86 7.2 8.7 9.4-3.1 5.1-9.4L648 974.1c4.8-8 11.8 1 17.3 3.5l57.8 36.9c6.2 19.8 9.8 40.3 17.3 59.7 22.4 2.9 6.8-22.7 5.8-34.3-3.5-12.5-5.5-26.1-10.7-37.7-49.6-33.8-100.8-65.1-151-98-9.8-11-14-1.6-18.1 7.3C538 959 510.5 1007.4 482 1055c-3.3 20 15.3 41.8 22.1 59.6 10.2.5 0-12.1-.2-18.1-3.4-14-11.2-27.4-9.7-41.9 11-18.8 21-38.4 32.7-56.7zm1605.4-183.9c-37.2-7.5-74.6-13.4-111.9-20.4-10.7-2.9-9.6 10.7-13.5 17.1-2.7 16.2-19 39.4-13.6 52.4 33.1 8.5 67 13.8 100.2 21.4 11.7-5.1 14.9-24.7 22.2-36.3q8.5-17 16.6-34.2m-597 54.8c-8.2-2.5-17.4 1.5-26 1.8-14.5-1.3-5 18.3-7.6 28 .5 34.3-1 68.8 1.1 103l3.5 12.3c-71.7 11.4-143.7 20.9-215.3 32.8-11.3-5-4 27.7 8.7 15.9 20-3.6 40.3-6.6 60.3-10.5a479 479 0 0 0 67.3-11.4c33.6-3.8 67-9.5 100.5-14.5 9.3-2.1 4.4-13.4 5.7-20.3.2-23.6-.6-47.2 1.2-70.6q1.4-33.2.6-66.5m-418 501.9c-8.2-26.2-18.8-51.6-27-77.8-4.1-11.8-17.5-2.6-26-1.6-18.4 5.4-37.2 9.9-55.5 15.8-6.5 3.7.8 13.8.6 20.4 5.3 24.9 9.4 50.1 16.1 74.7 29.8-9.8 59.7-19 89.2-29.1zm-80-758.1c-13.8 36.6-25.9 73.9-39.4 110.6 9 25.5 20.3 50.3 31 75l56.2-99.1c-14.1-28-28.1-56.1-44.6-82.7 1 .3-4.6-4.6-3.1-3.8M677.5 940.6c4-12.7 3-26.7 5.1-40 3.5-34.8 10.6-69.4 10.9-104.5-14.5-9.4-32.8-31.5-47.1-30.5l-21.7 139c16.8 13 34 26.2 52.8 36m1314.4-144.3c-5.6-15.3-3-50.5-27-44-36.9 5.6-73.8 10.6-110.6 16.4-16.8 2.6-33.8 3.6-50.3 7.8 7.1 12.5 10.5 36.4 24.1 40.3zm-1231.3 192q15.3 56.2 32.6 111.7c13.2 3.9 31.3-4.2 46.3-4.9 18.4 0 35.2-10.3 53.9-8.1 24.6-3.9 49-8.6 73.5-12 11.3 0 12-9.5 8.7-17.7-6.7-29.7-12.4-59.9-20.4-89.2l-1.4-1.7c-2.4 6.5-6 21.5-15.5 19-5.3-2 .1 11.8.3 16.2l13.5 69.8c-25.2 6-51.2 9.5-76.8 13.9-20.7 2.8-41 8-61.6 10.5-6.6-30.6-15-60.7-22-91.1 8.4-14.4 35-7.7 50.9-13.3 24.7-2.2 49.3-6.3 74.1-8.7 18.9-5.4-6.4-22.4-17.5-13.8-43.9 6.3-88 11.4-131.9 18.3zm198.9-172c11.7-26.1 19.3-54.1 29.3-81 6-12-9.7-5-16-5.2l-96.6 12c6.5 28.1 11.8 56.4 19.1 84.2 21.4-3.5 43.2-4.7 64.2-10m-358.8-89.4c-6 17-7.5 35.4-11.8 53-5.6 28.2-11.7 56.2-16.8 84.4 10 15.4 33.6 28.7 48.8 35.7L643 758zm1036.2 48a386 386 0 0 0 37.3-61c-21.7-9.1-39.2-26-59.3-38.1-10.9-3.7-25.8-25.3-34.5-17-3 22.4-10.2 44.2-11.2 66.8 20.8 16.7 42.9 31.8 64.2 47.8zM1138 1138.1c-14.6-6.2-31.4 4.5-46.6 2.8-10 3.1-21.2 3.5-30.4 10 2 5 20.6 12.6 8 22.2 3.4-14.7-13.7-16.6-18.7-27.6-17.8 2.6-36.3 10.1-53.7 8-5.4 2.5-10.9 4.6-17 2a29 29 0 0 1-20.2 1.6c-6.5 5.8-.5 14.3 0 21.5l3.3 19.3c10.5 1.2 21.1-1.8 31.7-3.1l62-10.5c9.1-5.8 24-2.8 36-8a379 379 0 0 1 47.8-8.7 51 51 0 0 0-2.2-29.5m1519.6 106.6q17-31.8 33.5-63.8c2.7-8.6-11-6.8-16.5-10.2-13-3.8-25.8-8.7-39-11.6-10 1.2-10.7 14.2-15.9 21.3-11.8 23.1-24.3 45.9-36.4 68.9-.8 13 25 13.2 36.1 19.4 14.4 7.1 21.3 4.3 17.6-9.3 4.6-8.2 14.4-7.5 20.5-14.7m-1175-334.3L1422 920c-3.1-9.7 1.2-30.9-7.2-33.4-10.8 6.7 8.2 33-7.7 35.8-17.7 1-35 6.3-52.5 7.5-1.7-10.9-.8-22-2.9-32.6-21.8-6.6.2 31.9-10.7 35.8-18.5 1.7-39 5-55.7 9.4-2 9.1 2.4 13.1 11.2 9.7 16.2-2.1 32.1-6.3 48.4-7.2 1 22.4 4.2 44.5 5.3 66.8 4.9 12.3-9.5 9.5-16.8 11.7l-39 6.5-2-22.3c-3.6 12.5-1.7 32.6 16.1 23.2 61-9.7 122.2-18.5 183-28.8 3.7-14-1.5-30-.3-45 0-13.8-.8-27.6 2-41-6.8-10.7 6.1-37.5-9.2-37.7-1.6 10.3.3 21.6-1.4 32.1M568 873.6l-128.2 213.6c3.9 10 22.5 0 24.7-10.9 34.7-60 70.7-119.2 105.2-179.3 4-9.3 12.2 3 18 4.8 44 27.7 86.8 56.9 131.1 83.8 4.6-3.9-3.4-12-8.6-14.2-27.7-18.5-54.6-38.4-82-57.5-10.3-1-14.2-13-24.7-17.2-11.8-7.6-23.3-16-35.5-23m374 103.4q31.8-54.4 63-109.5c28.6-49 55.8-99 84.7-147.8 7.3-8.3 14.4 11.5 21.9 15 26.8 26.7 51.9 55 78.7 81.6 21.6 24.7 47 46 68.1 71 13.7 12.7 26 25.8 39.1 39 11.4 9.7 13.8-5.5 3.8-10.4-23.3-26.8-50.5-49.8-73.7-76.7-8.2 10.9-14.4-25-25.3-25.8-16.3-15.7-31.8-32.2-47.6-48.4-16.3-17-32.9-34.3-49.8-51-7.6-9.6-17.1-18-21-1-33.8 61-69.3 120.8-102.5 182-13.6 24.4-28.2 48.5-42 72.8-3 6.2-5.8 9.3 2.5 9.2m692.8-197c-22-17-44.7-33.1-67-49.7-6.9 24.2-9.2 49.5-14.3 74.2-4 21.3 27.7 27.6 41.8 38.5 9.6-11.3 15.9-25.3 24.1-37.6zM589.2 1524c16.9.4 32.8-7.1 49.3-10 82-20 164-40.7 246.1-60.5 8.1-2.4-1.3-20.7-9.7-13-54.4 12.9-108.7 25.9-163.2 38-42.3 10.2-84.7 20.5-127.1 30-5.4 4 3.4 11 4.6 15.6m765.7-429c1.7 5.5-4.1 20.3 4.7 16.8 15.8-3.2 31-7.9 47-8.2 29.3-5.9 58.4-12.9 88.1-14.8 11.5.3 21.2-7 18.5-18.8 5-12.7-.6-21.5-14.3-15.7-12 3.6-24.8 6.8-37.4 6-13.1-.7-25.2 8-38 5.7-10.5 2.7-22.2 2.6-31.3 9.4-13 .7-26.3 3.6-39.2 2.8-16-3.2-5.8 7.5-1.8 13.7zM964.3 821c3.6 23 6.5 46.1 12 68.7 10.4-13.5 18-30.7 27.2-45.6 6.9-15.3 20.6-29.8 23-45.7-9.9-22.3-18.7-45.4-29.3-67.1-4.3 3.4-4.8 12.3-7.7 17.9zm577 199.5c8.8 7.5 15.7 17.6 25.6 23.7 0-18.5-.2-37 2-55.3 0-26 .3-51.9 2-77.7 2.6-11.5-2.6-20.4-11.6-26.7-3.8-4.6-15.2-6.8-15.8-11.3q-2.8 32.3-2.3 64.8c0 27.5-.4 55 0 82.5m880.2 231.5a71 71 0 0 0 50.4 16.8c5-4 13.4-26.6 6.8-31.2-21.9-9.3-46.2-11-68.2-20.4-14.6-1.5-35.4-16.6-46.2-7.5-5.6 15.7-11.3 34.3 11.8 33.7 13.7.7 30 10.5 42.3 5 11.3-7-21-12.9-3.5-20.7-5.1 7.8 3.5 10 9 13.6 5.8 2.7.6 8.1-2.4 10.7m-561.6-261.3c34.9-8 70.8-11.3 105-22.4-21 0-11.2-16.7-7.4-29.7-15.1-3.3-29.8 7.1-44.9 8.8-14.7 2-29.7 2-44 6.7-13.8 2.3-27.8 7.4-41.8 3.3-1 13.2 17.5 17.5 24.3 27.4q4.2 3.3 8.8 6m-1378 14c8.9-9.3 14-22 21.2-32.6 10.2-16.6 21.4-33 23.7-52.9 7.5-35.5 16-71 22.5-106.6-4-.7-7.1 10.7-10.8 15l-29.3 49.8c-9.4 27.8-12.5 57.3-19.2 85.8-2.7 13.9-5.8 27.7-8 41.5m810.3-48.6c2.3 20.6-1.4 50.8 9.6 66.9 12.3-4.4 37.3.8 41.6-11.3q-2.3-27.6-5.3-55c-4.2-15.6-33 1.1-45.8-.6m58.3 143.3c-18.9-4.4-36.4 11.8-55.4 12.8-14.7 4.8-47.5-2.5-43.8 20.5-1.5 12.5-2 25.1 12.8 18.8q21.8-2.5 42.5-10c14.2-5.4 51 .2 40-24-2-3.2 5.2-10 3.6-16zM934.9 900.2c1.5-26.8 15.2-50.8 22-76.1-16-2.4-33.7 4.6-50.5 5.2-14.3-2.2-8.8 10.3-7 18.4l5.2 22.5c10.8 1.4-5.6 10.7 3.9 17.7-.2 20 11.2 19.5 26.4 12.3M2506 1213.8c19.9 4.8 42 7 58.6 20.7 12.4 7.4 23.3-12.2 6.8-12.8-19-6.6-37.8-14.2-57-20-16.4-1-26.4 21.7-43.5 7.9q-41-12.5-83.1-20.1c-11.6 1.5-23 11.3-5.4 13.9 19.7 2.2 37 12.6 56.2 17 17 2.1 32.4 9.7 48.9 14 6-7 14.7-11.8 18.5-20.6M532 922.6c12-17 21.6-35.8 32.7-53.6 8.4-30 13-61 19.9-91.5.9-10 9.4-34.1 4.7-35.3-10 15.5-19 31.7-28.5 47.5-9.3 23.9-11.7 49.7-17.6 74.6-3.6 19.4-8.9 38.7-11.2 58.3m1603.7 99.2c-10.6 4-11.5 17.1-16.7 26-6.5 16-12.6 32.5-26.6 43.6-12.5 16 5.4 55.2 26.4 38.5 19.2-12.7 5.8-39.8 19.6-56.4 3-15.6 7-37.5-2.7-51.7m358-19.9c28.2 7.5 57.2 12.6 85.8 18.5 11-.6 22.3-33.5 2-30.6-26.5-5.7-53-11.9-79.9-15.3-4.6 8.5-5 18.4-8 27.4M696.4 820l-14.3 124.5c10.5 6.1 25.6 22.5 35.1 19-1.8-24-7-47.6-9.6-71.5-3.3-24-6.3-48.2-11.2-72m264 12c-7.7 24.3-19.4 47.7-20.5 73.6q-4.8 30.3-8.2 60.8c5.2 1 7.1-10.4 11-14.5 9.5-17.6 20.5-34.5 28.9-52.6.5-13.4-3.6-27-5.3-40.3-2.3-9-1.7-18.6-5.9-27m686.5 102.6c-4 11.6 1.1 31.3-16 30.2-6 2.7-18.4 0-17.3 9.6 6.3 5.9 16.5-1.3 24.3-1.8 8-1.5 2 11.2 3.4 16.2 1.2 12.6-5.4 31 .7 39.3 7-3.5.7-18.1 3-25.6 2.5-10.8-6.6-31.6 8.8-34.1 10-1.8 19.7-5.2 29.8-6 2.6 16.5-3.4 34.4-2.9 51.6 2.4 18.4 8.3-15.7 7-22.5 3.2-10.9-5.4-32.9 10.7-33.5 6-.5 16.3-6.1 20-2.4 0 18-4.3 35.9-5.1 54 4.8 5.7 3.1-10.5 4.6-14.6 1.7-14.3 1.3-29 4.5-42.9 9.2-1 25.1-9.9 29-2.7 0 18-4.1 35.8-4 53.8 6.8-21.5 5.2-44.6 9.4-66.7.1-6.4 3-13.2 1-19.4-6.4 7.7-1.4 28.5-20.6 25.8-14.2 1-37.4 12-46 5.4-1-4.6 1.7-24.4-3.9-16.3 1.3 12.1.4 25.6-14.5 24.5-7.8 1.2-15.5 4-23.3 4.3-6.2-6.3 0-18.2-2.6-26.2M2106 886c37.7 9.7 76.3 16.4 114.5 24.2 46.4 9.1 92.4 20.2 138.9 28.9 79.6 16.6 159.4 32.3 238.8 49.6 18.5.2-12.8-7.5-20.4-8.2-84.8-17.6-169.3-36.1-254.2-53.2-71.8-15.1-143.5-30.5-215.5-44.8-2.3-2.3-2.1 5.2-2.1 3.5m-465.4 7.5c32.7-4.2 65.2-9.8 97.5-15.7l10-82.8c-11.7-4.5-3.8 20.2-19.8 15.5-12 4.3-11.4-4.6-13.8-12.8.8 14-8.2 17.1-19.8 17-5-1-16.3 6-15.5-2.3 1.9-11.8-8.9-13.7-6.5.3 1.3 12.7-32.9 3.3-25.6 12.4 12.7-3.7 29.4-5.8 23.7 12-3 15-.5 30.7-5.2 45.5-6.3 4.6-29.8-1-25 10.9m540.2 768.6c-18.3-21.5-37.5-42.2-56.3-63.3-8.7 2.8-36 2.7-32.1 12.2 16.4 14.5 31.6 30.4 50.7 41.4 11.5 11 22.8 10.4 37.7 9.7M445.5 1065.8c8.9-12.7 16.3-26.5 24.5-39.6 8-21.8 10.6-45.2 16-67.8l11.2-56.3c-14.4 10.4-17 36.1-23.3 54.7-9.9 35.6-20.7 71-30 106.7l.4 1.2zM1543.2 864c9 5.9 23.7 29.5 31.6 15.5 7.8-14.4 28.3-33.1 3-41.6-8.7-4.4-28.6-25.8-28.7-5.5zm510.2 655.9c10.2 27.8 16.8 57.3 32.5 82.7 12 0 47-4.5 24.8-19.6-17.9-21.3-37.2-41.4-55.4-62.4zM552 1041c14.5-2 43.9-18.2 47 4.2-1 9.4 15.4 29 1.4 30.4l-36.3 6.8c5.5 11 27.2-4 38.7-2.1 11.2-4.1 4.6 15.3 13.7 16.3 3.4-8-5.4-22.8 11.2-20.8l31.1-5.8c-5-11.7-27.2 3.1-38.9 1.6-10.1 2.7-8.3-12-11.5-18.5-1.3-7.2-5.7-14.1-4-21.5 14.9-2.4 30-3.4 44.4-7.7-2.5-12.5-27.7 2-38.8.7-17.6 4.9-12.8-24.5-20-35.7-10.6-2-2.2 11.8-1.7 17.4l5.2 19c-11.5 8.6-36.4 3-42.5 12zm90.3-27c.7-15.8-1.7-43.7-23.6-32-14.2 1.2-29.8 4.9-19.3 22 .8 13 7.4 19.5 19.5 14.2zm715.1-91.6c15.4.1 36.8-.5 47.4-9.2 2.2-13.6 1.4-31.2-17-23.4-14.3 2.6-40.2-.7-30.8 21.2zm116.7-42.5c-16.4 4.5-54.6-6.4-50.3 20.2-.6 23.1 27.5 6 41.8 7.7 15.6 1.7 8-18.7 8.5-28m177.5 92.7a213 213 0 0 0-2 52.8c13.4 4.5 28.6-4 23.9-20.2.5-12.8 4.8-25.7 2.7-38.6-8.2 1.8-17 2.2-24.6 6M1142.1 743c-1-18.8-13.3-32.8-25.6-45.6q-26.7-30.1-53-60.5c-10-5.7 7.1 16.1 9 21.8 8.3 14 14.8 29.2 26.8 40.4 13.5 15.4 28.4 29.4 42.8 43.9m-533.9 291.8c3.7 10.7 4.5 22.7 10.7 32.2 11.5-2.8 23.8-3.8 34.9-7.7.4-14.4-3.5-39.5-23.9-28.8-7.3 1-15 1-21.7 4.3m912 17.3c-12 22-4.5 46.4 16.4 58.6 9.6 5.3 5.8-10.5 8.3-16.2l3.3-23c-8.3-7.6-14.8-21.8-28-19.4m-961.4-9.6c3.7 10.5 4.7 22.2 10.3 31.8 14.2-.5 42.2 1.2 29.5-19.6.4-22.2-17-19.1-33.6-15.3q-3.6.7-6.2 3.1m1946.5 197.6c17.9 5.1 34 14.8 52.2 18.1 11.8-2.9 15-23.2-1.3-22.7-9-4.4-19.3-11-28.6-4-3.9 2.4 9.5 4.5 12.4 6.7-3.1 11.7-5.6-1.9-13.5-1.7-12-2.2-3.4-8.5 4.2-10.5-18.5-11-23.4-5.9-25.4 14.1m-1916.2-218-8.8-32c-14.4 2-42.6 1-29.3 22.3 4.1 15.4 7 39.4 38 9.8zm1681.6-82a917 917 0 0 0 73 15c7.2 1 12.6-16.1 2-14l-75-15.5c-.2 1.4 2.5 8.9 0 14.5m-637.7 89.7c-1.2-18 4-35.6 1.4-53.6-11.5 1.3-25.3 4.8-21.2 18.8.4 13-1 26 .7 38.8zm92.6-75.6c0 18-7.9 42.9-2.4 56.7 21.5 1.7 16.8-23.3 19.2-37.3-.2-8 2.6-15.6 1.9-23.4zm-65.4-77.2c.2-16.5 4.5-32.8 4-49.2-13.8-7.8-26.3 6.1-23 20.8.5 10-1.4 20.2 1 30 6 1 11.9-2.3 18-1.6m453.4 17.3c-9.7 11-4.8 21.5 10 21.1 15 2.5 39.6 16.3 39.4-8.7-11.5-9.2-33.7-9.8-49.4-12.5zm-1299.3 383c3.7 14.4 1.6 28 5.1 41.8-3.1 12.5 10.5 31.7 8.1 9.3 3.3-13-5.5-24.2-3.5-36.7 2-8 0-16-2.2-23.8 3.3-14.4-2.1-29.4-2.1-44 4.5-11.4-1.8-29.6-4.3-10.1-5.3 12.9 6.7 25.4-1 38.2 3.2 6.8 2.6 13.8.7 20.8zm-70.4-269.2c5.2 20 10.2 40.2 16 60 11.8 7.6 20.9-2.6 13.4-13.3-4-11.5-6.4-24-11.4-34.8zm960.2 6.2c4-16.8 3.2-34.2 6.4-51.1 1.8-8.3-14.9-2.4-16.8 1.1-2.9 17-2.3 34.4-4.2 51.3-.4 7.2 10.8-1.4 14.6-1.3m-717.3 577.9c22-7.6 42.5-19 63.8-28.1 9-7.8-9-2.6-13.9-1.6l-47 10c-17.8-13.1-1.8 15.3-2.9 19.7m1594.7-444.1c-8.4 16.3-17.3 33.1-23.3 50.3 21.3 12.4 23.2-23.9 33.3-36.1 8-11.2.6-12.8-10-14.2m84.4 420.7c-.6 5.7-6.8 12.8-3.8 17.6 11.7-.6 27.2-21 33.3-33.3 8.8-13.3-5.6-20.4-13.6-8.9-10.4 2.7-17.7 5.1-9.7 16.3.5 4.3-3.6 5.9-6.2 8.3M1298.5 902.4c1.7 5.9 8.7 10.2 12.5 15.5 5.9 8.5 15 15.8 25.6 9.2.7-12.8 1.7-36.8-17.6-28.1-6.8 1.2-13.9 1.3-20.5 3.4m460.8 773.8c8.6 14.5 21.7 27.3 38.6 15 12.9-4.7 26.5-8 38.7-14.5-19.6-.3-38.9 3.5-58.4.1-6.3 1-13-2.5-19-.6m-609.4-926.7c10.4 16.4 26.9 27.9 39.4 42.5 4.7 6.2 21 21.7 11.8 5-12-20.4-30-36.7-45-55-8-12.5-13.3-8.7-7 3.7zM926.7 967c2.2-20.5 5.3-40.9 7.6-61.4-11.3.8-25.6 3.8-18.2 17.2 3.7 14.7 5.5 30 10.6 44.2m-268.1 107c-12.1 2.6-49.6-2.2-33 20 11.9-1 46.3 1.4 33-20m1559-158c-11 18.5 25 14 36.2 19.3 12.8 2.5 11.2-16.8-2-13.7-11.4-1.6-22.7-6-34.1-5.6m379.7 662c4.2-13.2 20.5-32.6 7.7-43.7-6.3 3.7-13.3 7.5-13 15.9-1.2 8.6-9.6 28.8 5.3 27.8m-780.6-732c.6-10.2-11.3-24.1-15.5-35.6-25-48.8-49.4-97.9-74.5-146.6-7.3-9 3.5 12.3 6.4 17.6 27.8 54 54.8 108.4 82.4 162.4zM574.9 1103.3c10.2-2.4 36.4 1.6 33.5-13-4-13.4-32.6-4.7-36.2 2.9zm1910.2-93.8c1.6-11.6 14.1-30 7.5-37.8-13.6-6.8-12.6 12.9-17.6 21.2-4.5 9.5-4.9 22 10 16.6m-1253.6 84c.8 18.5-2.8 37.9 10.3 53.1 7.6 4 2.5-19 5.6-26-.2-10.2-11.9-17.4-15.9-27m1265 106.8c13.4-4 14.2-20.2 20-31 8-19.8 17-39.5 23-59.8-13.5 11.6-20 42.1-30.4 61zm-843.9-247c13.7-1.8 32.8-4.3 25.7-22.5-16.7-3.2-34.3 2.1-25.7 22.4M665 984.2c1.2 12.6 2.8 39.1 16 42 11-4.3.3-27.7-5-35.6zm1438.2 183.5c12.4-15-4.8-25.9-18.2-21.7 3.5 6-10.5 13.8-.3 20.7 6 4.4 12.1 4 18.5 1m-93.9 431.4c-11.6 13.2-26.8 24.6-38.9 36 12-2.7 29-3.8 37.4-12.4.2-7.7 4-16.2 1.5-23.6m-1088.9-611c-13.1-.6-40-2.3-27.2 18.2 10.7-4 39 1.9 27.2-18.2m679.1 507.9c5 6.4 11.8 13.6 9.8-.5 1.6-9.7 13.5-19.5 7.5-29.7-10-29-14.4 25.2-17.3 30.2m35.8-560.2c-15.5-1.4-26.3 9.7-18.5 25 11-1 24-3.9 20-17.3-.2-2.6.6-5.4-1.5-7.7m-757 55.9L847 996c-2.5 14.9 8.5 14.9 18.6 11.5 15-.3 16.3-3.5 12.7-15.8M1607 1438c-8-9-10.4 2.3-11.6 9.7-2 12.3-7.8 24.7-5 37 16.2-2.9 9-34.4 16.6-46.7m-550.3-365c15.3-1.7-.7-25.3 2-35.8 5-11.6-16.5-17-11.3-5 3.2 13.6 4.3 27.9 9.3 40.8m-521-24.8c-4.5-9.3-3.3-35.7-13-33.6-8 8.4-6.4 38.7 8.3 34.4zm1052.8 372.3c-3.3 16.7-9 33.4-8.8 50.5 7.4 8 7.8-10 9.8-15.2 1.7-9.2 5.4-19 5-28zm386.2 217.3c6.6 10.5 23.1 27 26.5 5.8 9.3-14.1 2.4-14.2-9.2-10zM808.2 1001.6c.8 12.9 10.5 16.5 22.3 11.4 15-3 1.8-21.4-10.3-14-4 .7-8.5-.1-12 2.6M2429.3 1116c16.2 6.3 33.9 8 50.8 12.4 10 1.8 20 5 30.2 6-15-10.3-44.4-12-64.8-19.1-5 .2-16.2-7.8-16.2.6zm-676.4-321.4c-5.4 27.5-7.9 55.4-11.4 83.2 9.7-5.6 4.5-19.6 7.7-29 1.7-16.8 5.5-33.5 5.2-50.4zm-39.2 146.1c10.8-18.6-19-23.8-18-4.8-4.4 14.8 11.5 4.9 18 4.8m32.6-22.4c-14.3-9.2-27.5 18.5-13.8 19.3 12.1-2.1 18-3.5 13.8-19.3m698 43.5c-17.3 13 14.4 28.5 16.7 11.4 5.6-10.3-11-10-16.7-11.4M525 1060.5c1.4 9.2 8.7 35.3 18.1 19.8-1.8-10.3-3.2-28.1-17-20zm519.6 13.8-7.9-46c-9.7.1-5.6 8.4-4.6 14.8l6 33q3.3-.8 6.5-1.8m165.8-269.1c6.2 21.6 25.7 34.3 40 50.2 14 12-6.4-13.3-11.5-18.7q-14.1-15.9-28.5-31.5m-480.3 187c7.6 6.8 19.8 17.3 29.2 18.2-1.7-11.3-5.8-25.8-19.5-19.5zm328 566.4c16.2-5.1 34.1-9.8 47.6-19.7-13.9 5-38.1 5.5-45.4 14.4 3.9 2.6-.3 3.1-2.2 5.3M2165.6 940c4-7.5 15.2-38 3.1-33.3-1 9.7-13.6 27.7-5 32.8l1 .3zm-1472.1 61.8c-4 14 14.4 31.5 20 14.9-2.6-6.3-11-8-16-12.3zm-171.3 84.7c2.6-10.9-12-35.4-14.7-17.2 2.5 5.3 2.8 13.6 6.5 17.3zm533.6-3.3 4.5 24.7c15.2 5 6.7-35.2-4.5-24.7m639.3 211.6c-10 .2-35.2 1.6-39.5 9.5 8.5-5.6 17.5 5.7 24.7.4zM1664.5 804c-9.2-2.8-30.5 5-17.3 12.3 8.5-.8 20.3-.5 17.3-12.3m-459 198.3L1216 1103c3-17.3-3.3-34.6-2.9-52-2.9-15.4-1.8-31.3-5.5-46.4zm1544 354.3c-7.5-17-18.6 12.7.4 6 5.7-10.8 18.5 2.4 15.7-13.9-6.3-4.7-10 7.3-16 8M725 1064.4c-13.8-7.1-22.3 9.8-7.7 13 12.3 5.2 10.2-4.6 7.7-13M1704.4 800c-8.4-5.3-30.2 4.6-16.5 10.2 5-2.1 16.5 1.5 16.5-5.2zm488.8 109.8c-15.5 16.5 19.2 19.8 14 2.3zm-1652 201c18.9-.3-1-32-4.8-11.6a27 27 0 0 0 4.8 11.6m1958.8 119c-9.6 3.4-20.2 28.6-14.4 26.4 5.2-8.4 16.5-15.5 14.4-26.4m-898.8 770.3c1.2 12.2 22 19.4 13.4 1.7-.8-5.7-10.2-3-13.4-1.7m391.2-317.7c-2.5 7.2-17.2 31.3-4 19.1 2.8-3 18.3-25.1 4-19M1051 1110.3l-4.6-23.7c-10.8-7.5-2.7 29.3 4.6 23.7m-355.3-42.6c-18.5 1.9 9.2 28 3.8 6.5 3.6-1.1-6.5-6.5-3.8-6.5M1719.8 805c13.3 7.2 20.2-16.3 3.2-8.9-5.2.5-2.6 5.8-3.2 8.9m-121.6 696.5c-7.9 6.8 3 20.8 10.2 14-.8-6.2-5.8-10.3-10.2-14m15.2 25.1c4.3 4.3 6.4 16 12.8 14.2-.2-8.3-5.7-14.1-10.8-20-3.7-1.3-1.3 4.1-2 5.9M523.1 1111c13.4-1.5-4.9-26.8-5.4-9q1.4 5.3 5.4 9m-8.4 1142.2c-5.8 9.8-2 33.4 4 11.6 2.3-5-2-7.7-4-11.6M510.3 1039c-9.2 5.2-11 24 3.2 12zm2083 250c11 4.2 27-2 8.8-5-4.7-2.6-8.2-1.4-8.8 5m-613.7 201.7c12.1-5.2-1.8-36.3.4-15.4 1.1 5 0 10.4-.4 15.4M1052.8 1089c1.7-8-2.9-33.7-5.3-30.5 3.3 10.4-1.3 21.9 5.3 30.5m-536.3-32.5c-9.7 1.7-17.2 5.7-1.9 3.3 8-.8 34.1-8 13.3-5-5.2 3.2-9.5-5.1-11.4 1.7m1069.7 321.4c-9.4 4.3-11.7 28.6-2 12.4 1-4 3.6-8 2-12.4m-512-280.7c-.3-10-2-40-7.4-20.4-7.2 2.2 8.7 4.2 5.4 12.2zm201.5-183c-.3 9.5.7 38.8 3.7 36.9-.1-12.3-1.4-25-3.7-37M1598 568c14.2 8 13.2-10 .9-5.7a6 6 0 0 0-.9 5.7m-778 611c-9.4 5.9-1 29 1.3 9.8a23 23 0 0 0-1.3-9.9m766.9 230.1c-11.6 6.7-6.3 30.8-2.4 11.1q1.1-5.7 2.4-11m391.7 303c-6.9-1-19 2.9-8.7 10 2.7-3.5 6.6-6 8.7-10m647.2-434.2c-9.2-2.4-18.4-6.2-27.7-7.7 3 5.4 20 8.9 27.7 7.7m-691 566.5c-17.6-7.5-11 13.3-1.2.8l.9-.6zm822-665.9c-.7 15.4 20.2-5.3 0 0m-1181 278.4c5-8.5 5.6-32.8.1-11.4a22 22 0 0 0-.2 11.4m12.1 33.3c-3.2 11.4 8 17 3.5 3 1.2-.4-5.2-3-3.5-3m-705.7-112c4-10.5-5.5-34-1.5-12.5zm104.6-263.5c.6-4.7-.3-14.3-3-14.3-1.6 5-2.8 11.6 3 14.3m672.9-234.8c-7.3-1.6-29.5 5.1-10.7 3.2q5.9 0 10.7-3.2m429 252c2 10.3 16 9 3.5 1.1z"/></svg>