<svg xmlns="http://www.w3.org/2000/svg" fill="#0a0a0a" viewBox="0 450 3300 2186"><path d="M903.6 1484.9c-1.4 9.3-23.5 23.2-9.6 9 3.2-3 6.4-6.7 9.6-9M1229 751.3c-9.8 22.5-30-18-17.3-10.6-2.3 21.5 24 6.3 9-1-15.5-3.6 19-4.4 8.3 11.6m-15.7-22.1c9 2.7 14-11.4 14-4.5-2.5 16.4-29.5 5.9-21.8-11 8.6-8.7 15-6.8 4.6-.3a17 17 0 0 0 3.2 15.8m-14 22.2c-8.6-9.6 3.2-25.2 4.5-7.1.4 6.4 3.3 11-4.4 7m3.3-18.6c-16.1.4 1.8-29.3.6-4.7l-.2 2.3zm32.9.2c-13.8-6.4 1.8-20 1-3zm-2.1 5.4c11.1 2.8-6 20.4-1.5 3.1zM1806 795c-4.3-4-1.5-15.5 4.4-13.7 4 6.6 11.8 7.6 6.6 15.3-3.5 1.1-7.4-1.3-11-1.6m8.4 8.8c12 5.3-5.8 34.9-5.4 13 2.2-1.7-.6-13.1 5.5-13M1089.9 907c.3-22.2-5.3 13.4-4-12.6 2.1-29.2 7.7 11.8 4 12.6m21.9 9.1c9.4 1 4.3-24 7.7-6.2 4.7 9.4-3.1 8-7.7 6.2m898.6 320.6c20.5-9.5-8.8 10.8-7.3 22-3.5 16.3-11.7 31.2-17.8 46.4-3.4 6.3 5.3 16.5 1.9 17-7.4-3-8.6-15-5.4-21.5 6.3-10.2 6.7-22.3 14.2-31.8.5-11.8 8.9-22 14.4-32M995.8 919.5c-8.5 3.3-28.6-8.3-9.2-4q5 1 9.2 4m93.7 31.7c-16.8-9.4 27.4.6 6.7-.5 1.6 1.2-8.6-1-6.7.5m-176.6-52.7c-10.3 3.8-19.2-6.4-3.7-2.1zm33.5 36c7.8-6.9 22 1.7 5.8.6l-2.5-.2zm342.8 124.3c9.1-8.9 23.6-7.2 32.6.9 16.9-.3-6.7 7.6-11.4-3.7-7.1-2.7-14.2 1.8-21.2 2.8m79.8 16.3c1.8-13.7-35.2-5.3-14-11.9 7.1 1 22.2.6 14 11.9m-241-81.2c-15 5-2-7.6 4.9 0 6.8 10.2-2 1.2-4.9 0m9.2 24.3c-8-2.5-30 6.2-12-3.2 8.9-7.9 30.2 15.2 12 3.2m1141.6 676.4c1.7-6.6 13.4-.3 14.9 4.8-.2 8.4-12-4-15-4.8m-890-239c-1.6 13.3-27 13.5-37.9 19.5-8 5-25.8-3.4-8.3-2.6 16-3.5 32-8.5 46.1-16.8m-209 6c-16.6-2.2-2-30.1 11.6-30.7 7.9-6.8 25.9 5.2 7.2 2.2-13 .8-28.8 16.1-18.7 28.6m98.4-27.3c1.1 4.1 9.8 21-1.5 8.5-14.3-17.5 25.4-38.7 28-28.4-11.6 1.2-24 7.4-26.5 19.9m-53.4-10.4c-24.1-8.2 12.7-45.2 17-27.3-15.4-2.8-24.7 14-17 27.3m157.1-103.3c-23-4.2-46-10-67.6-19.2 21.8 3.5 45.8 12 67.6 19.2m-244.6 73.8c-7.7 5.5 2.7 30.8-8 12.6-3.3-14.4 20-29.6 28.9-17.5q-11.4-1.6-20.9 4.9m34.2-53.9c-4.4 3.7-13.2 24.7-10 8.6-1.4-16.3 34.8-20.5 31.3-12.3-7.1.7-15.1-1-21.3 3.7m-101.4 55.7c-2.4-17.1 35-26.8 32.9-16.6-16-5.4-23.3 9.4-33 16.6m151.9-88.4c-11.6-2.5-26.5 0-29.1 14-13.1-9.5 20.4-27.6 29.1-14m-72.3 13.6c-2.8 6.9-24.8 5.4-20.8 21.8-11.5 6 1.7-29.6 20.8-21.8m203.7 108c-3.3-11.7 8-34.8 22.8-29.2-14.6 3.2-16.7 18-22.8 29.1m-72.8-92.4c-13.4-13 34-18.2 25.5-8-9.4-2.8-21.6-2.6-25.5 8m-101.4 54.1c15.4-1.8 9 4.5-2.1 6-6.6 4.5-12.7 24.4-10.5 5 2.4-5.4 8-8 12.6-11m173.1 90.9c2.5 13 1 32-2.8 45-.8-15-.5-30.3 2.8-45m-53.3 8.6c12-1 50-24.3 18.6-1.7a14.5 14.5 0 0 1-18.6 1.7m35.8-126.2c-2.1-18.3 47.3-7.7 18.6-7.3-7.1-.5-12.8 4-18.6 7.3m-184.6-2.1c-12.5-3-22.5 13.2-27.7 14.3 1.9-9.8 18.5-23.4 27.7-14.3m76.4-32.4c-1.7-20 29-5.1 12.6-3.7 1.2-8.9-10.4 2.7-12.6 3.7m-107.4 16.3c-7.1.3-14 1.3-17.3 8.5-12 .9 11.7-20.5 17.3-8.5m171.1 13.8c-4.7 4.7-18.2 12-9.6.7 2.7-2.3 6.5-1 9.6-.7m392.8 226.7c-2 7.4-14.4 33.2-14.7 26.3 4.2-8.8 7.6-19.6 14.7-26.3m-779.7-102c4.7-8.2 16-25.2 23.1-24.6-7.7 8-14.3 18.3-23 24.6m70-713.3c-8.7-4.4-20.8-17.5-4.6-7.2.3.3 7 5.3 4.7 7.2m527 281.9c-6.6-10.7-32.6-4.7-33-10 8.5-5.4 32.8-.7 33 10m-67.1-15.5c6.6-11.8 32.3 2.7 10-2.1-3.5.1-6.7 1.2-10 2M1069 891.5c-3.4 13 9.5 17.8 16.6 20.8-14.8 2.6-21.8-7.2-16.6-20.8m146.3-190c10.6-6 28.7 23.8 13 7.8-3.5-4-9-5-13-7.9m303.2 322.2c6.2-6.3 23.6 7.4 7.4 2.1l-3.7-1.1zm198-172.6c-15.7-7.8 30.7-1.3 19-1.6 23.5 2 46.7 6.5 70.2 8.7 16.6 4.2 36.2 1.8 50.8 9.9-1 23.8-6.9 47.6-9 71.5 2.2 31.8-20.2 51.4-56 27.2-24-3.7-48-8.6-72-11.6-16.7 3.7-9.8-11.3-9.6-20.2 2.8-25.7 3.8-51.7 6.9-77.4l-.2-3.2zm92.2 50.3c-14.8-7.1-47.8-14.3-44.5 12.2-4.1 14.2-5.5 32.2 14.4 29 17.7 6 28.2-1.2 26.2-20.3zm3 44.3c7.7 1.6 28.5 12.5 29.5-1.9.4-13.1 11.4-34-.4-40.5-11.7-4.5-27.7-3.4-25.5 12.1-1 10-4.4 20.3-3.6 30.3m34.9-45.4c-8.9-11.4-40.1 3.7-29.6-20 3.3-10.6-.3-18.4-1.2-4.4l-12 73.2c-18.6-2.3-37.1-5.7-55.8-7.5-13.6-1.3-29.7-3.4-22.4-22.3 2.3-8.3 4.2-43.2-1.8-18.6 2.2 13.7-12 40 6.5 43.7 33.4 6.1 67 10.7 100.5 16.8 20-4.8-8-10.3-16-10.5-14.4-8.4.2-34.5.2-50 3.8-6.2 14.6-.4 21.5-1.3zm-95.3 38c3.8-13 4.7-27.5 7.4-41.2-1-9-13.7-4.5-20.4-6.8-13.9 1.4-4.8 25.2-9.8 35.5-5.1 14.7 14.5 9.6 22.8 12.6m60.9-73.3c-11.7-3.4-24.4-4.1-36.5-5.6-10 7.6-9.6 33.3 10 28 16.7-.1 29 12.9 26.5-22.4m-98.2 85.3c22.2 5.3 45 7.7 67.3 11.4 16.6-.3 43.6 13 54 3.5-15.4-5-32.5-4.8-48.3-9-21.6-2.4-42.9-7.2-64.5-9.7-12-15.2 1.7-42.2-.1-62.1.7-7.6 3.8-44.2-1.4-20.1-1 28.7-6.1 57.4-7 86m45.6-67.8c9-15.6 4.3-30.7-15.8-27.2-12.2-2-7.7 12-9.8 19.3-3.8 11 20 8.4 25.6 8m59.7 7.2c16.8 9.8 38.9 1.5 30.3-19.9-8.8.1-24.3-9.4-27.9.9-1 6.3-2.3 12.6-2.5 19m-92.8-3.4c7.3-5.3 6-25.5 3.7-31.7-5.6 8.5-3.3 22.1-3.7 31.7m82 8.8c-11.4-2.5-30.5-10.7-40-4.2 13 3.1 26.9 3.3 40 4.2m-45.8 4.3c-2.7 12-7.7 28.7-5.2 38.5 3-12.5 5.2-25.8 5.2-38.5m-29.2-12.8c9.7 2.6 45.6 4.5 18.4-.7-6-1-12.3-.4-18.4.7M1759 805c-.9-21.9 14.6-47.4 38.8-45.7a51 51 0 0 1 32.7 43.6c-.3 25-29 46.2-52.3 32.2-12.7-5-20.7-16.2-19.2-30m34.6 28.7c20 6.3 38.1-19.8 32.4-38.3-4.5-15.4-19.8-37.2-37.7-30.4-12.3 1-25.5 29.3-10 12.5 5-5.1 10-9.7 17.5-7.7 9 6.8 9 29.9-5.8 27.6-12.2 5-9.8-14-16-2.2-11.4-4.4-14.1 14.7-.9 7.3.6 5.4 3.2 24-5.6 10.5-8.7.4 15.5 26.2 11.2 5.5-2.9-14.5 7-18.6 20.2-14.9 10.1 3 6.3 25.2-4.3 29.4zm-7-27.6c-14.7 13.4 12 32.2 13.3 12.3 4.2-12 1.8-15.3-13.3-12.3m-2.6-13.7c18.9 9 19.1-27 3.7-17.6a51 51 0 0 0-3.7 17.6m-1235.9 391c6.7 6.8 31.8 21.8 5.6 10.8-5-18.1-40.3 12.2-32.7-10.4 3.7 15.9 17.4-4 27.1-.3m-85.2 64c-8 12.7 23.7 16.8 2.6 15.6-9.8-3.3-7-16.7-19.4-17.4-8-1.4-17.5-11.8-3.7-4.6 6.3 4.2 14.5 2.6 20.5 6.4m56-13c-6.8-17.7-33-8.8-42.6-21.5 14.4 5 34.5 3.3 44 16.3 1.6 3.3 2.2 3.7-1.4 5.2m47.2-73.5c9.7 9.5 22-3.2 31.8-.2 2.7 5.8 21.7 3 15 6-12.7 1.2-20.1-6.8-32.2.7-4.6 0-15 .2-14.6-6.5m267-133.2c8.5 12 18.6.2 28.6 3.4 9 5 .9 13.1-2.3 3-10 2.6-19.8 7.1-28.6-2.6-6.6 4.3-22.6-3.6-7-2.4q4.7-.6 9.3-1.4m50.5-25.1c-6.5-1.5-33.2 2.8-14.5-3.4 12.3-1.8 22.2 2.3 33.4-1.2 4.4 5-12.1 9.1-17.3 5.2l-1-.4zm59.4-33.4c11.1-.2 25 13.7 6.5 5.2-8.4-2.6-34.5 6.6-29-.6 7.8.2 15.2-2 22.5-4.6m624.2-22.8c6.7 3 .8 12.7 1.9 18.7l-3.7 44-68.6-10.8c-2.6-12 1.5-25.8.3-38.8.6-13-1.5-37 17.6-28.3 17.6 3.5 35.3 6 52.9 8.9-.3 6.4-25.8-2.4-35.5-2.8-17.7-6-37.2-6.7-31.4 17.1-.5 12.9-6.2 34 2.4 42.2 18.8 2.6 37.5 6.6 56.2 8.3 8.9-14.8 5.6-39.8 7.9-58.5m565.6 420.6c-8 19.8-19.6 37.7-29.8 56.3.9 12.4 7.2 5 10-2.5 8.2-13.7 14.8-28.5 23.6-41.9 2.7 4.5-11.9 25.5-17.5 36.9-4.6 10.8-19.4 24.3-5 33.4 13.4 10.7 13.7 19.2 2 5.9-5-6.3-14.6-10.5-13.3-20 1.8-17.6-18.7-7.2-24.2-19.4-8.6-6.6-19.6-23.5-5.6-9.3 7 9.2 15.2 11.8 18.7-1 8.5-14.8 15.9-30.6 25.2-44.9 1.5 7.2-13.4 28.2-19.5 40.6-1.6 5.8-14.6 19.3-5 19.2 10.1 2.8 13.7-8.2 17.7-15.2 7.7-12.6 13-27 22.7-38.1m21.7 8c10.9 5 17.7 16 26.7 23.7 10.8 10-2.4 3-6.7-3.5zm40 38c9.2 4 26.7 22 26 25.4-9.4-7.4-17.3-17.2-26-25.5M2157 1497c-8.3-8.8-18-16.5-25.5-25.9 2.5-2.4 11.8 9.8 17.3 14.6 3 3.5 8 6.2 8.2 11.3m-72-188.3c8.8 4.1 27 23.7 25.3 25.3a179 179 0 0 1-25.4-25.3m-27.9 82.4c-7.6-8-16.7-15.1-23.4-23.9.8-3 13.8 11.8 18.2 15.6l2.3 2.3zm238.3 252.8c11.8-.1 27 31.8 14.3 27 3.3-7.1-3.2-11.5-7.2-16.5-2.9-3.1-6.7-6-7.1-10.5m-35.2-26.2c9.9-3 24 15.5 15.3 20a41 41 0 0 0-15.3-20m49.7 61.4c-10.8 5.9-26.9-22.9-9.9-8.7 3.5 2.6 7.3 5 9.9 8.7M973.5 771.3c8.1 6.8 14 21.3-2.3 15.9-14.8-1-50.8-1.3-32.3-23.9 5.4-8.5 15.7-6 3.6.6-19.4 17 17.6 23.5 29.8 15.9 5.3-1 .3-5.9 1.2-8.5m607.7 1003.3c-1.4 8.5-13.2 25.9-6 8.1q2.2-4.5 6-8.1M1410 2427.5c18.5-5.3 1.5 17 0 0M1184.1 873.7c-16 5-7.6-23.9-11.5-33q-4.8-30.3-6.2-61c18.1-3.3 39.2 2.7 58.3 3.8 16.7 5.5 48-2.7 55 12 1.4 25.8 3.6 51.3 4.3 77 9.7 30.9-27.6 9.6-44.2 9.6-18.6-2.8-37.2-6.1-55.7-8.4m16.2-58.2c7.9 17.5-6.1 54 24.5 48.9 3.9-17.4-7.5-38.2 4-52.9-15.8 1-31.5-5-47-.8 12.2 1.7 36.6 1.3 40 4.8zm73.7 4.4c-25.7-8.6-17.6 20.4-18.7 35.8-4.9 20.6 33.3 21.2 22.3-1.4-2.1-11.4-1-23.1-3.6-34.4m-23.2 49c-5.7-17 8-57.3-20.7-50.3 0 18.6-8 53.2 19.5 50.1l1.1.2zm-64.5-10c23.5 7.5 7.9-29.2 8.4-42.3-11-12.5-17.3 9.6-11.4 19.8.4 7.6.7 15.2 3 22.4m94 20.1c-14.7-9.7-35.8-5.6-53.1-10.2a176 176 0 0 0-44.2-4.2c15.5 5.5 33 5.4 49.5 8.1 16 1.4 31.8 6.1 47.9 6.3m-79.7-88.7c-10.6 27.5 40.4 15.3 12.3 0-4-1.4-8.3-.5-12.3 0m72 7.3c-12.2-6.8-30.8 2.5-15.1 13.4 11.5.7 20.2 5 15-13.4m-28.3-3.2c-12.5-6-24 3.6-12.6 14.8 13 2.7 16-3.9 12.6-14.8m-51.3-4.2c-15.8-14.2-20.3 13.4-5.8 14.5 9.9 2 4.4-9 5.8-14.5m86.3 93.1c-22.3-4.8-45.2-7-67.8-10-16.6 1 5.4 2.7 11 4 17.9 2.2 35.6 6.3 53.6 6.6zm-44-168c10.9 11 11.8 33 1.2 44.5-8.4 12.8-25.6 10.5-35 .6-17.4-14.7-17.4-48.2 3.4-59.8 24.2-3.5-16.3 7.8-11.4 22.3-5.2 15.8 5 37 21.1 40 6.9-.7 15.5 2.8 19.5-4.8 12-11 6.8-29.8 1.3-42.7m416 376.7c4.2-22.6 47.5 12.2 18.9-.2-6.5-5.4-12.7-.1-19 .2m-66.4-59.3c-13-1.2-34.5.1-41-4.7 10.5-5.7 21.5 5.9 33 1.3q4.6.5 8 3.4m122.6 65.4c-7 11.6-11.3-6.4.5-5 15-1 14 7.3-.5 5m101.7 24c.1-17.5 34.4-.7 10-3.2-3.5 0-7.3.7-10 3.3m-195.4-36.5c2.3-13.8 32 7.5 9.2 1.2q-4.7-.5-9.2-1.2m260 38.8c-6.3 7.3-24.9 1.2-8.1-3.3 3 .3 5.6 1.8 8.1 3.3m-479.8-99c4.5 6.3-15.4 7-18.3 14.6-4-7 13.3-13.3 18.3-14.5m-68.6 14c-6.7-4.7-23.5-4.8-22.4-7.4 7.5-2.7 18.1.4 22.4 7.3m138.1-16c-5-5.5-11.5-7-18.7-6.6 3.4-7.6 21-1.6 18.7 6.7m437.8 111c-8.9 4.1-23.3-7.7-6-4.7l3.2 1.8zm-468-121.5c-7.5-11-36.6 1.5-11.4-8.7 5.1.4 10.1 3.5 11.3 8.7m344.6 100.6c4-10.9 22.3 1.1 3.3.4zm-295.2-91.3c3.4-14.5 29.2.4 9-2.8-3.1.4-6 1.9-9 2.8M1604 1040c10-8.4 24.5 12.4 6.2 1.4l-5.7-.1zM801.7 2464c-.5 8-17.6 32.7-8.7 12.4 2.2-4.5 5-9.1 8.7-12.4m1083.6-1310c-8.2 3.4-20.7-3.7-5.7-4.6l2.8 1.6zm-861.8 766.4c-7.5.6-36.7-14.6-10.7-5.5zm834.3-199.3c-9.5 1.1-22-11.4-6-4l2.7 1.7zm-266.5 35.4c-1 9.1-15 26.1-6.3 8.3q2.2-4.7 6.3-8.3M789.7 2486c-.6 8.5-18.7 33.3-8 11.4 2.6-3.7 3.9-9.1 8-11.4M0 1840.5c10.7 3.3 29.7 27 28.3 2.7-2.1-14 14.7-23.8 20.3-1.8 8.4 8 19.2 36.4 29.1 27.8.7-15.3 11-12.5 18.1-3.5 15.6 10.7 34.1 16.4 51 24.8 13.4 11 22.3 4.2 19.1-9.5 1-10.1-2.8-21.7 3-30.4 9.7-2.6 19.6 6.2 29.1 9.4 21.8 9 42.5 22.4 66.5 24.5 20.8 4.1 7.3-15 6.1-24.8-1.2-7-10.8-25.9 2.5-21.3 11 4.3 22.3 16.9 34.5 8.9 9.6-6.7 20.7-12.2 29.5-19.6 9.6-14.1-21.7-27 .2-38.6-5.5-6-16.5-37.8-3.4-19.7 3 9 12.9 21.2 18 6 4.8-11.7 3.9-25.2-5.6-34.5-4.2-20.2 29.9-25.6 45.8-28.4 24.6 3.8 11.2-18 12.4-29.3 7 .2 12 1.5 19-4.4 11 .8 11.3-15.4 22.8-15.6 1-13.4-7.6-28-3.8-34.5-24-7.5-46.4-20.9-49-47.7-5.2-9.7-35.3-1.7-34.3-13.8 11.4 8.3 34.3 5 39.4-2.3-15.9-2.9 15.7-13.5 20.4-16.4 12.8-3.4-29.6-13.2-8.6-11.7 8 6.4 28.7 7.7 16-6.5-8-3.9-17.6-11.7-6-18.6-4 13.7 21.2 17.1 13.8 32.4 8.4 6 19.6 8 29.2 12.2 24.7 8.1 48.4 19.4 73.9 24.5 12 3.1 39.5.2 41 9.7-15-2.9-29.6-.8-44-4.3-14.2 3-6.8 30.1-19.6 37.7-13.3-1.3-24-5.9-19.2 12-1.6 9.1-11 4.5-17.5 5-10-1.2-30.6-6.7-22.5 11-2.7 13-3.1 34.5-21 33.8 2.6 7.6 4.5 23.2-3.6 8-7.2-20.5-16.1 5.9-10.1 15.3a39 39 0 0 0 20.4 12.4c8.9 4.8 43.7.1 20.6 12.6-10.4 10.7-37 11.1-39.9 23.6 3.9 14.7-11 27.8-17.1 40.3 7.7 15.6 46.5 6.8 54 20.5-11 10.8-27 14.8-40 22.6-23.8 7.7 13.4 15.5 20.4 21.8 28.8 22.3 64.5 17 97.6 16.2-2 9.1-1.4 22.3-3.3 30.5-8.4 3.5-21.8 27-14.6 30.6 14.1-.4 33.5-18.4 44.6-5.5-2.4 13.2-13 42.9 11.4 41.7 15.1 1 30.3 35.5 45.2 17.5 4.3-15.5 37.5 10.4 26.7 14.3-7.3 4.7-19-28.6-25-7.3-9 8.3-25-.4-32.4-9-8-14.7-26.7-6.3-34.4-22.1-6.6-16.3 16.5-50.6-19.3-30.1l-20.6 6.1c-11-3.3-.4-15.6 2.3-22.2 6.7-12 13.6-24.8 13.6-38.8-13.5-3-30.2 1.1-45.1.6-29.8-6-62.1-19-83.8-38.5 6.3-9.4 19.1-11.8 28.8-17.3 6.1-3.2 28-11.3 13-13.2-16.4-3.4-34.7-4-48-15.2 8-13 19.8-24.9 21-40.4-13.7-11.9 12.5-15.9 20.8-19.8l2.4-.9 16-9.6c-17.4-3.3-45-10.2-42.6-34-5-14 5.1 25.4-13.4 20-15.8 2.1-59.9 7.2-44.5 30 12.9 17.5-5.9 42.9-13.2 52-9.7-8.1-7.8 9-1.4 13.5 6.1 5.8 3.4 12.5.6 19.2-10.7 7.2-21.8 13.9-32.2 21.5 9 1 45.2 9.8 16.7 8.7-8.1-.9-17-4.3-24.7-3.5 2.7 5.5 21.6 19.8 2 24.4-11 1.7-31.4 10-12.7 17.2 18.9 7.2 13.3 29.3 8 44-9 29.8-19.9 59-26.9 89.2-4.4 21.4 19 17 30.4 10 6.6 9.6-11 32.6 11.7 33.5 10.9 2.3 23.3 8.5 20 21.7.3 16.9-8.7 32.2-10 48.8 8 13.7 25.4 12 37.8 11.4 19.6 13 43.5-32.8 55.7-9.3 1.6 17-9.7 51.7 19.1 39.7 11-5.3 21.8-8.4 27.4 4.5 8.7 2 18.3-18.9 26.3-3.8 5.5 11.8 30.8 44.8 37.8 20 5-15.7 12.3-50.5 32.8-40.6.6 11 7.3 28.4 3 35.6-8-9.9-2-49.1-19.9-24.4-10.3 13.4-7 39.4-23.3 44.8-21-1.5-26.4-31-41.8-34.1-6.5 10.6-18.1 9.9-23.8 0-5-4.3-13 2.7-19.2 3.1-6.9 3.3-15 1.6-21.6-.9-12.9-11.6 4.2-30.7-2.8-45.3-7.3-2.5-16 7.7-23.8 11-18.6 11.6-42.5 8.4-61.2-1.3-25-19 29.6-71.3-15.2-76.7-15.8-1.7-19.4-15.6-14.3-28.5-11.5 4.2-30 3.8-30.5-12.3 0-18.4 9.2-35.9 13.5-53.6 6.9-22.1 14.9-44 19.5-66.7 0-16.1-22.9-15.4-24.2-30.5-24.4 5.3-46.4-10.4-68.1-19l-32.7-14.5c-11.1 9 2.5 28.6-3.7 41.4-7 10-20-.1-28.8-3.2-19.2-9.3-40.4-15.3-56.6-29.7-2.5 13.5-12.8 21.7-21.5 6.5-10.5-7.7-19-36.3-29.8-31.6.3 15.6-7.6 33.2-21.4 15.2-4.8-4.6-15.3-5.2-12.6-13.3m525-258a6714 6714 0 0 0-94.1-34c-4.6 3.8-15.9 3.1-15.5 10.2-3 9.5 7.5 10.5 14 13 29.2 10.3 57.8 22.2 87.3 31.3 7.6.6 5-13.3 8-19.2-.4 3.3.2-1.9.2-1.3m-126.4-2.2c3 32.5 39 37.5 58.8 53.3 13-4.4 43.7 9 29.5-13.2 3.9-9.2 34.5 6.1 12.3-4.5a3961 3961 0 0 0-98.4-36.3zm118 27.3-106.9-38.9c-21 4-.3 9.9 8.9 12.9 31.7 11.1 62.9 23.6 94.8 34.3 4.4.2 4.7-5.7 3.2-8.3m-244 237c4.4 11.4 3.5 34.8 14.1 38.2 6.2-3.8 22-3.6 19-12.8-10.7-2.6-11.7-11.6-14.4-16.5zM435 1680.2c16.2.1 10-22 0 0m-435-611c18.7-3.1 34.3-10.1 52-16.3 12.4-6.3 26.8-11.9 35.6-24.5 13.9-14.8 28.6-29 41.1-45.3 7.1-21.9 37.7-29.2 45.6-53a1026 1026 0 0 1 39.4-46.8c-1-30.7 32.5-39 46.7-61.2 8-15.4 17-34 34-39.9-9.6 15.1-24.6 26.9-30.3 44.8-11 18.2-36.5 23-43.6 43.9 4 15.3-12.4 25.3-20.6 35.8-10.5 14-21.5 27.4-31.4 41.6 9.5 14-32.7 20.6-18.2 25.7 11 1.3-6.4 12.8-10 17.8-4.6 6.2-14.8 11.5-14.7 18.6 2.3 12.8-18.6 20.5-27.5 28.1-19 13.4-41.7 20.7-63.7 26.7-11.4 3.2-22.3 8.5-34.4 8zm116.4-56.5c3.4-10.3 27.6-26.7 22.9-30.7-16.4 14.4-29.1 32.8-45.3 47.8-18.4 18 19.7-4.3 21.7-12.4zM1617 2550c1.4-22.7 35.1-14.7 31.8 0-11.5 4.8-12.8-10.2-21.9-2.7-1.2 4.7-6.6 2-9.9 2.7M0 1576.7c4.8-5.8 16.3-17.6 20.3-10.8-9.6-.1-19.2 27-20.3 13.2zm0-143.9c9.2-1.6 18.8 5.1 3.1 4-4.7 2.4-2.7-2-3.1-4M801.5 2464c4-14.6 13.7-27.2 19.9-41 2.6-13.4 29.6-36.6 10.5-42-37.2-10.6-75.6-16.2-113.4-24 10.1-3 21.5 2 32.1 3.5 28.5 6 57.2 11.1 85.4 18.7 15-.2 17.8-22.3 25.8-33.8 28.4-56 56.1-112.5 85.6-168-2 16.4-16.3 34-22.8 50.8-23.4 47.8-49 94.6-72.4 142.5-11 12 4.8 14.8 13.9 16.8 33 9.4 66.7 17.3 98.3 30.2-23.4-4.1-46-12.9-69-19.3q-24.6-7-49.4-13.6c-14.2 20.3-23.2 44.1-35.5 65.7-3 4.2-3.9 11.2-9 13.5m-635.3-971c15.2-.5 16.2 16 21.2 24.7 9.3-12.9 31.6-26.4 40.9-6 6.4-17.2 32.7-9.1 37.4.5-14.2-5.2-28.5-11-36 6.1-8.4-6.4-19.7-23.3-31-3.8l-14.1 11.5c-6-8.3-5.4-35.4-24.5-25.3-12.5 5-34.6 40.1-42 15.4 3-12.8-3-25.7-10.6-30.6 18.7-7.2 14 25.2 18.7 34.1 15-4.1 23.8-23 40-26.6m461-24.4c17.7-18 38.2-33 56.3-50.6q42.1-35.7 83.7-71.9c1.4-7.4-12.7-6.2-18.5-9.5q-41.5-12.1-83-24.6c-6.5-6.2 12.6 1.6 19 3 29.2 8.6 58.4 17.5 88 25.1 16.2 2-15.8 14.9-19.4 22.7a2567 2567 0 0 0-84 72q-19.1 16.4-37.9 32.9zm-392 194.1c-24.5-11-44.6-36.6-59.6-55.6 22.2 12 32.2 39.3 56.2 49 6-18-16.7-47.7.2-60.7 9.8 10.6 21.6 21 32.5 30.2-15 2.7-25.9-25.3-33.6-21.3-3 17.8 8.2 34.7 7 52.6l-1 2.6zm104.8-71.2c6.8-5 26.4 9.4 26.7-7 18.4 25.5-44.5-1-13.1 29 20.8 21.9-22.6 35.3-38.9 25.7-12.2-8.8-31.7-14.1-40.5-27.4 21.4 10.2 48.7 37.9 75.1 19 11.6-10.2-11-26.2-9.3-39.4m31.8-161.6c-4.2 5.8-12.5-1.6-18.5-1.5-4.1 7.6 16.4 20.4 24 27 23.4 14-17.6 8.3-11.5 19.9 4 6.1 4.2 23-2.8 7.4-7.8-12.5-.2-20.3 12.4-20.1.2-7.9-28.8-20-31.4-36.3 3-10.6 29.4 8.2 16-6.8-10.5-6.6-27.3-50.4-8.2-17.7 5.9 9.7 16.8 16.8 20 28.1m125.8 63c16.8 0 32.3 8.5 48.3 13 9.5 2.6 19.3 7.6 28.7 8.2 4-1.5 15.5-14.8 13.7-7.3-16.3 10.2-30.4 35.8-45.6 39.1 6.7-9.5 28-19.3 25.4-30-23.5-7.8-47.2-14.8-70.5-23m480 683.7c17.2 3.4 32.7 14 49.2 20.2 10.6 6.5 34.4 12 36.9 19.2-27.8-12.4-55.9-24.5-83.3-37.6zm169.9-206.2c17 4.4 32.5 13.5 48.9 19.9 8.8 2.6 10.4 9-1 2.6-15.1-7-31.2-12.4-45.9-20.4zm677.7-803.3c-6.3-20.6 40.9-8.3 18.4-7.5-7-1.2-13.4 3.2-18.4 7.5m-186 501.6c-5.8 15.6-14.7 29.7-22.8 44.1 4-15 13.4-31.4 22.8-44.1m20-541.5c9.4 3.3 5.6 10.7-2.3 4.4-9.2 2-29.9-4.1-11-4.4zm-68 629.4c4.3-12.2 15.8-35.7 21.4-38.1a274 274 0 0 1-19.7 37zm113.7-620.2c-4-12.2-26.6 6.2-18.4-6.4 4.1-4.6 13.6-3.9 17.4 1 3 1.4 1.7 3 1 5.4m-89.6-21.6c5-11.2 29.5 2 19.5 4.4-5.4-6.4-13.6 0-19.5-4.4m187.2 38.9c-6.2-.8-15 1.5-19.7-1.1-.2-6.1 18.8-6.5 19.7 1M777.6 2508c-5.5 10.6-8.6 23-17.7 31.2 4-10.9 9.8-23 17.7-31.2M1754 1135.5c-7 .4-27.4 5.4-10.6-3.6 3.7-1.3 9.8-1.7 10.6 3.5m130.4 33.7c4.2-5.6 14-2.9 17.1.1 0 7.8-12.7-.2-17 0m-861 751.3c16.7-1 36.5 21.5 48.8 10.3 36-67.4 69.5-136 106.5-203-.2-13-27.6-14.5-39.3-22.4-38-15-76.6-28-115-42-12.4 15.3-21.5 33-32.8 49-4.2 11.4-13.7 14.3-3.5.9q15-24.2 30.7-48c-1.6-8-14.1-6.7-20.5-10.3q-24.5-7.7-48.8-15.9c-19.6 9.3-18 34.3 4.1 38.4 13.4 3.8 14.3 19-2.3 16.7-11.8 2.9-37.4 3.3-39.3 5.8 10.3 1.6 27-.8 11.6 12-.6 14.5 21.9 22.9 32.2 32.8 12.8 5.4 12.3 14.3-1.9 11.5 5.4 14.9 34.5 22.5 15.2 38.8-12.5 11 3.3 17.4-1.4 28.5 8.6 22 41.4 24 52.4 38.4a109 109 0 0 1-37.3 24.5c-20.6 4.2 7.3 27.4-5.8 40.8-6 13 18.4-5.2 12.4 11.5-3.3 11-12.9 25.6 1.8 27-2.2 13.8-18 36.7 3.5 29.7 11.6 5-3.3 15.4-7.7 21.4-7.3 7-17 16.1 1.1 17.3 27 9.6-1 37-12.7 49.4-9.7 6.2-18.3 22 .5 15.7 9-1.3 17.7-5.2 26.7-4.5-11.5 14.7-38.7 27.7-41.6 44.1 14-.1 22 16.8 3 12-17.5-9.4-6.4 22-22.8 21.7-13.3 8.5-40.4 8-45.5 21 3.7 9.4 5.1 24-5.5 29.2-18 8-38.2 1.9-55.7-4.3-10.8-1.2-25.4-15.7-29.8-15.1 3.5 18.7 24.6 33.7 26.3 49.9-12.6 1-35.1 14.8-44 11-13.3-5.2-28.5-13.3-43.4-13.6-10.2-2.7-15.4 7-21 13.7-35.6 45-72.5 88.8-108 133.8-39.7 49.2-79.9 98.1-119.2 147.7-9.9 12.3-5.2-4.7 2.1-9.7 71-86.9 141.2-174.4 211.6-261.7 5.8-8.4 15.4-15 17.6-25.2-10.5-7.1-15.8 6.7-22 13.3-41.6 52-85 102.2-126.4 154.1q-33.2 39.5-65.8 79.5c-13.8 17.3-28.7 33.8-41.9 51.5-14.2 8.8 6-13.4 10.1-18.6 40.3-49.9 81.2-99.2 121.9-148.8q52.2-64 105-127.6c12.4-9.7-6.7-12.2-12.3-17.8-12.8-11-27.9 7-37 16.1-19.6 23.3-41.3 44.9-61 68.2-42.3 45.5-83.4 92.2-125.3 138.2-22.4 23-42.6 48.1-65.4 70.8-6.7-1.2 13.6-18.2 18.4-25.4 28.3-32.4 58.6-63.1 86.6-95.9 42-45.1 82.1-92.1 124.6-136.9 10-12 21.7-22.8 30.5-35.5-9.5-2.4-20.7-25-19-5-5.5 22.4-32.7 6.3-44.9-1.8l-10.7-10.4-7.6-12.9c11.8 7 25.3 31 45.8 31.3 17.3 8.1 11-18.5 14.8-26.7 9.1 8.6 18.9 25.3 34.5 19.5 10.4-11.6 25 14.2 39 11.8 6.3 12.7 25.5-9.6 20.6 4.8 18.6-1.7 35.1 13.6 54.9 12.7 10.5-2.6 44-2.9 25-18.2a251 251 0 0 1-24.6-48.2c12.4-1.5 25.3 22.3 42.5 23 17.5 5.2 46.8 17.7 57.5-4.7 5.4-10-20.8-22.6-6.8-25 20.8-2.3 39.6-12.3 59-19.5-2.8-9.8 7.8-20.6 9-23.2-8.6-11.3 19.3-23.6 25.5-34.2 11.1-9.7-9.3-3.1-14.8-3-21.9 4 1-21.2 9-27.5 11.8-11.1 34.1-35 6.3-40.2-30-6 25.2-33.6-5.9-32-4.6-5.6 3.1-12.6 4-18.7 7.3-12.3 6.2-16.9-4-19 0-10.2 6.7-19.3 8.5-29.5-10.3-3.7-13.6 10.2-17.2 17.3-4.6 3.6-13.4.5-19.7 1.6-7.2 1.6-.2 22.4-15.2 14.7-20.3 3.3-6.4 38.2-23.3 45.4-12.6 4.6-24.2-3.8-35.9-7.4-3.6 14.1-16.2 5-22.4-3-7.2-11.1-23-11.4-16 5-2.6 9 20.2 24.5 8.9 25.3-11.2-9.8-20.1-33.1-9-44.4 14.5-3.8 25.8 30.9 35.5 12.8 10.2-3 26.2 14.6 39.7 6.5 6.5-16 3-49.2 27.7-45.1.9-6.6 0-20.7 12.5-15.2 6.6 2.2 14-1.5 17-7.3 3.6-14.6 14-30.4 4.2-44.9-10.3-20.9 25.9-16.7 34.6-30.7 19.7-12.4-18.2-15-25.4-25-13.6-4.8-15.4-18.6-20.3-29.4-5.1-16 23.7-32.7.5-42-16.6-11.4-5-29.4-24.6-37-7.5-5.2-17.5-21.9-26-13 6.4 18.4-28.2-.3-30-2.3 9 19.6-15.8 16.1-20.9 6.5 9.4 1.5 20.3 5.8 16.3-9.4.8-18 13.5 6.5 23.6 6 8.2 2.8-13.5-13.3 1.6-9 10 8.6 29.5-11.1 9.4-9.8-26.7-6.7 15.9-17.4 22.9-10.7l25.9-5.8c-15.2-8.7-41.4-24.6-21.6-44.3 7-5.2 21.9-22.5 2.6-14.1-9 2.8-17.7 9.3-27.3 8.8-4.8-13.8 20.5-25.2 27.4-37.7-6.9 4.3-39.7 10.3-22.7-2.6 9.5-3.2 34.9-11 10.9-13.8-20.1-7.4-55.4-13.1-57-38.2a53 53 0 0 0 22.6 20.6c11.4 7.3-9.2-14.9 7.5-14 21.7-5.4-27.3-15-10.9-25.6 16-2.8-10.5-17.6-14.9-25.8-10.5-16.7-26.9-30.1-31.4-50.1-7.8-18.5-16.7-36.8-18.8-57.1-3.9-20.7-2.4-42.1-4.6-62.8 1-9.4 4.4-19-.6-28-16.9 10.2-20.9 37.6-34.2 54.2-5.6 11-10.8 22-19.6 30.9-18.5 17.5-29.5 43.6-53.1 55.3-18.5 12-39.9 21.5-53.9 38.7 12.3-4.6 24.5 3.2 15.8 16.5-9 13.7 9.7 15.5 11 17-16.1 11.1-19.9-17.6-12.7-28.4-7.8-2.6-17 3.2-25.3 2-3.7-4.4 21.8-22.6-3.2-13-14.8 5.2-40.3-12.3-50 .2 1.7 14.3 24.7 25.8 14 40.3-18 5.4-6.4 29.8-25.8 37.3-13.2 6.5-24.7 25.8-1.7 26 6.7 2.8 15-7.2 20.4.2-3.6 9-5.6 19-13.3 25.8-4.2 12 26.8-6.8 13.4 10-8 7.6-18 13.2-25.1 21.8 12-1.8 13.2 9.3 8.4 18-5.5 11.1-8.5 37.2 10.3 26.1 13.1-4 26.8-30 38.1-24 4.4 7-1.5 15.3-1.8 22.8-5.2 12-2.6 25.1 13.6 14.2 7.1-4.2 23.1-11 26 .5a41.4 41.4 0 0 0 22 47c15.8 15.3-13.7-3.5-18-9.4-15.8-8.5-1.3-38.5-17.2-38.8-12.2 8.8-41.3 15.2-32-8 .6-6 9.4-31-2.4-20.2-11 12.7-45.5 37.4-49 9l9.2-30.7c-6.8-3-26.7 10-16.2-6.1 4.3-7.4 37-23.2 16.6-23.7-12.7-7 28-35.7-1.1-30.2-16.4 2.3-32.3-15-13.2-25.4 8.3-7.4 35.2-24.2 17.4-34.2-15.9-6.1 2.4-7.6 9.1-7.7 4.5-4 14.7-12 5.6-17.1-13.7-10.1-20.5-39.3 5.2-33.3 13.9 0 27 8.8 40.9 4.2 24.4-5.6 41.6-24.8 64-34.4 9.5-6.5 17.6-14.8 26.5-22.2-3.3-9.3 9.3-6 10.9-13.5 14.7-14.1 24.3-32.5 33-51.1 9.7-18 18.9-36.2 28.5-54.2 10.4-12.8 18.9 4.6 27.3-7.4 33.9-28 69-54.6 102.9-82.7-15.7-7-33.9-8.6-50.7-12.8-7.6-1.3-34.1-6.3-14.5-5.7 22.6 4.7 45.3 10 68 14.2 9-2 15.3-10.8 23-15.8l123.3-97.2c-11.9-7.7-30-7.9-44.2-12.7-18.1-5.3 2.9-3.2 9.7-.3 14.2 2.7 28.4 9.1 42.8 7l22.7-17.7c2.2 6-9.8 9.7-13.7 14.6-13.6 13 21.8 10.7 29.5 15.8 32.2 7.8 64.6 14.7 96.8 22.2 10.1-3 27.8-28.6 30.6-21.9-10.9 9.3-32.4 26.5-7.2 27.7q52.3 13 104.5 26.3c8.2-.5 10.7-10.8 16.2-16l34.2-45c3.2 5.2-7 12-9.3 17.6-10.5 15-23.2 28.5-32.5 44.2 10.1 5.7 22.6 6.8 33.7 10.7l95.4 26.7c17.2-23.3 31.7-48.4 47.8-72.4-2.7 17.8-22.6 36.8-31.9 55-8 9.8-16.4 22.3 2.2 22.8l153.4 44.2c8.3-3.6 11.4-14.8 16.9-22.2 5-7.3 8.3-15.9 15-21.7-3.4 15.2-17.4 27.1-23.3 42-.3 9.2 16.5 8 24.1 12 30.1 9.1 60.5 17.7 90 28.4 3.2 6.2-12.3-2.1-17.1-2.8-33.1-11.5-67.1-20.3-100.7-30.6-13.8 17.3-23.9 37.7-36.2 56.2-16.5 27.5-34.3 54.3-49.8 82.3 10 7.3 23.8 8.4 35.5 12.9 45.8 13.1 90.1 31 136 43.7 23.7-41.2 45-84 71.8-123.2-6.8 16-17 30.8-25.1 46.2q-21 37.3-41.7 74.5c1.6 9.4 17 8.5 25 12.9 37.4 12.3 74.7 25.1 112 37.2 4-6 23.7-31.3 12.3-11.2-20.2 20.3 22 19.7 34.6 28.5 29 11 58.2 21.3 86.8 33-5.1 3.5-13.5-3.8-19.8-4.9-37.3-12.8-73.6-28.2-111-40.7-27 36.6-48.6 77.2-71.9 116.5-14 26.5-29 52.8-42.8 79.4 6 14.5 33.3 14.9 41.9 26-8.1-.5-16-6.7-24-9.6-8.7-2.5-21.3-15.6-26-1.3-10.7 20.8-20.8 42-32.2 62.5 4.5-24.3 23.7-47.3 33-71.4-13.2-10.3-31.6-15.4-47-23.5-25.7-11.4-51-23.7-77.4-33.7-6.6 7.5-16.4 36.6-20.1 30.8 5.1-14 28.6-35 1.9-39a2059 2059 0 0 0-156.5-61.8 20766 20766 0 0 0-93.2 169c-9.8 19.4-20.9 38.2-30.3 57.8 20 10.5 41.6 17.7 62.3 26.8 15.8 6.9 33 11 47.5 20.5-23.5-6.6-46-17.6-69-26.4-18-3.2-43.8-30.6-52-1.5a5319 5319 0 0 0-102.7 202.8c-7-2.1 3.7-12 4.9-17.3q47.5-99 99.9-195.4c7-11.3-11.4-11.6-18.6-16-47.4-17.5-93.4-38.3-140.3-56.8-19-5.5-22 29-33 41.3-28.7 55.3-58 110.6-86.2 166.1 1.7 8 13.7 8.2 20.4 12.2 17.4 7.8 36.6 13.4 52.5 23.3-25.8-7.7-50-20.1-75.5-29.1-25.7 45.6-48 93.2-73 139.3-2.9-7 5.5-14.3 7.8-21.3q29.1-57.3 58.5-114.5c4.1-10.6-14.4-10.9-21.5-15.3-6.8-2.9-14.2-4.7-20.2-9.1m-122-543.6c25.9 4.5 50.9 13 76.3 19.3 27.6-29 52.8-60.2 80.6-89 15.8-17.3 30.8-35.4 47.2-52.1 12.7-15.5-22.2-12.8-31.2-18.7-42.2-11.1-84.8-20.2-126.9-31.4-39.8 31.9-80.7 62.4-119.3 95.7 1 17.9-3.4 42.7 6 56.2 22.5 6.6 45.9 11 67.4 20-24-4-47-12.7-70.8-17.6 2.2 36.3 4.8 76 28 105.8 6.7 13.3 13.6 28.7 26 39.5 8.7 9 27.7 24.2 9.8 29.2 15.4 7 25.8 20.7 4.2 26.9 9.5 20.7 42.3 14.7 51.3 29.7-9 4.7-3 16.7-14.7 21.4-11 9.5-25.2 26.7-2.2 15.3 12-8.1 31.2-4.8 19.4 9.5 21 8.1 43 14.1 64.3 21.4 15-2.2 19.1-24.6 29.4-35.4 4.7-8.8 12.3-16.5 15-26.2-32.5-20-63.3-44.3-84.8-76.2-7-12.9-3.2-27.8-6.8-41.4-1-22.6-6.7-47 5.8-67.8 8.3-19-10.1 5.4-15.6 11.2q-12.9 14-25 28.4c-9.2 1.8 12.3-16.4 15.5-22.1 6-10.6 36.4-30 13.5-33.3-19.5-6.2-39.8-9.7-59.2-16.2l-3.1-2.1Zm765.7 239.8c-8 11.5-3.7 16.6 8 19.8q54.4 24.8 109 49.3c9.1-5 11.6-19 18-27.8 30.5-54.8 59.6-110.3 94.8-162.2 8.4-16.3-25.5-14.8-36.2-22.2-32.4-11-64.6-23.2-97.8-31.7-15.6 23.7-27.5 49.7-41.4 74.4l-35 67c-8.6 4.9 5-15.7 8.2-22.4 21.4-38.9 41.3-78.7 63-117.4-7.7-11.5-32.4-12.6-46.9-19.7-40.2-13.3-80.7-25.8-121-38.8-10.9 8.6-15 22.8-22.6 34.1-26.1 46-53.2 91.7-78.2 138.3-1.5 7.4 11.8 7 17.2 10.7 49.6 18.2 98.2 39.1 147.2 59.1 9 4.5 7.1-8.2 13.7-10.5m-532.4-322c-14 1-30.1 10.5-44.2 16.5-32 17.6-64 37.5-88.8 64.8-19.8 24.9-35.5 57.4-28.6 89.8 3.2 30.7 25 54.4 46.2 75 37 31.4 85.1 43.6 131.7 52.7 30.8 4.7 62 2.7 93.1 3.1 28.2-2.6 56.8-4.8 83.9-13.8 16.4-7.4 34-12.1 50-21 38.1-17 74.7-39.7 100.2-73.5 15-19 29.7-41.5 29.2-66.7 1.8-24.7-.7-56.7-24.8-70.4 3.1-8-8.7-11.8-13-17.5-29-27.4-66.9-42.6-104-55.6a368 368 0 0 0-80.1-12.4c-17.9-1.1-35.7 2.8-53.5 4.5-10.3.3-11.4 7.5-22.5 3.4-12.8 2 4.8 7.6 8.6 11.2 21.7-8 46-13.7 66.8-2.1 11.8-4 42-5.7 39.3 7.3-5.8-3-11-9.3-18.1-6.3-9.1.6-18.7 3.2-27.5 2.6-20.4-19.8-45 7.4-66 .4-8-9.7-18-5.9-27.6-5.1-9.1-.6-19.4-4.8-26.7 3.1-9.2 3.7-16 9.4-21.7 17.6-13.5 7.7-24.3 15.4-41 14.7-10.2 1.7-9.2 16.8-20 16.7-28.3 1.8-32 32.4-30.7 55.4 8.4 3.6-.2 20.2 12.4 24.4-3.4 12.8 9.3 23.8 20.2 32.1 3.3 12.9 19.2 12.2 28.2 17.6 4.1 6.7 12.8-.9 16.8 6.8 4.8 8.6 25.5 9.8 23 14.7-14.8-5.9-21.6 0-17.9 16 2.5 16-6.6 39.4 7.5 49.7 13 2.4 30.3 7.4 23.6-13a464 464 0 0 1-1.5-50.2c9.3-4.5 25.2 8.5 31.5 15-11.7.1-35-24-27.7.3 4.6 16.2-7.7 47.8 11.6 52.5a25 25 0 0 0 27.5 1.3c8.9-8.8-1.4-26.6 0-38.7-8-23.4 16.4-14 30.2-16.5 21.5 2-15.4 8.2-21.4 5-11.7 5.7.8 34.8-.9 48.1 6 18.4 30.8.6 44.6 4.9 7.1-4.3 13.9-9.5 22.5-9.7a590 590 0 0 0-4.6-39.8c-10.1 1.9-27.8-14.7-9.5-6.2 8.4 7.1 25.6-16.4 24.5-5.7a24 24 0 0 0-9.7 26.3c-2.5 16.6 7.9 43 26.7 24.7 8.3-8.3 21.5 3.7 28-11 13.5-8.5 35.4 3.8 40.8-17.7 17.3-13 38.8-18.8 45-41-7.3-15.8 24.7-17 25.8-34.3 5.8-14.2 2.2-29.7 2.7-44.5-10.2 14.7-20.2 29.8-32.3 42.9-5.2 6.2-22 4.6-6.5-.8 12-13 28-26.2 32.8-43.9 2-10 2-20.3 6.9-29.6-11.7-7.4-11.2-24.5-25.4-28-2.4-12.7-24.3-7-25-15.2 5.6-10-8.5-15-14.9-19.6a63 63 0 0 0-35.5-10.7c-18.7-2.8 9.5-6 16.8-2.1 8.7.5 15.8 8 23.9 11.4 11.8 3.3 15.5 13.7 19.7 22.4a51 51 0 0 1 33 26.8c6 9.1 15.3 14.3 10.3 26.1 2.7 22 3.5 45-1.8 66.5-6.6 15.7-20.8 27.5-28.9 41.5.2 18.7-25 18.5-35 30.4-12.5 13.7-25.8 25-46.3 21.3-17 9.8-32 12-49.4 20.3-11.2-4-21.1-9.3-29.5 2.9a1717 1717 0 0 0-50 3c-11.7-8-26.4 3.9-39.7-6.8-10.4 4-19.6-6.6-30-2.8-8.7-4.4-16.7-10.7-27-10-16.2-2-27-14.6-38.5-24.6-8.6 3-12.5-7-18.4-11.3-3.2-9.6-1.6-21.7-10.3-28.3-14.7-16.2-15-39.4-20.2-59.6-1.7-22.4 22-37.3 18-60.1-1.1-21.4 21.7-30.8 38.1-35.8 5.6-18 25.7-12.2 38-18.3 5.4-4.8 13.5-7.5 17-13.5m53 426.5c29 13 58.8 24.1 87.8 36.8 26.5 10 52.4 21.5 79.3 30 8.7-1.3 10.5-13.9 15.5-20.8 35.2-67.5 72.8-133.8 109-200.7 3.5-8.3-11-7.7-16.3-11.5-20-14.8-33 24.4-52.2 21.9a463 463 0 0 1-170.5 48.7c-18.4 29.6-35 60.5-51 91.5zm483-480.3c-20.2-7.8-41.7-12.6-62.3-19.1-35.9-9.8-71.3-21.7-107.5-30q-33 52.5-64.6 105.6c1.6 15 29.4 21.4 40 35.5 9.8 10.7 18.8 22.8 34 25 25.2 7.5 50.2 15.5 75.6 22.5 24.3-40.1 48-80.6 73.8-119.8 3.9-6.4 8.5-12.6 11-19.7m-719-37.8 163 41c35.2-37.4 70.3-75 106.7-111.3 9.1-7.6 13.8-16-1.5-16.4-41.3-8.3-82-19.2-123-28.7-48.8 37.8-98.4 75.2-145.1 115.4m333.7 56.7c24.2-35.4 51.2-69.1 75-104.7-2-6.7-14.2-5.7-21-8.7-34-8.7-68-18.2-102.5-25.2-34.5 37.3-71 72.8-105.4 110.2-7 6.3-16 15.9-1.4 16.8q36.3 9.5 72.4 19.6c27.7 1.6 55.3-7 82.9-8m144 40.8c19-26.9 34.5-56.2 52.2-84 4.8-9 12.3-17 15-27-43.4-11.9-86.7-24.5-130.1-36q-37.3 50.6-74 101.6c-8.4 14.7 22 4.3 31.1 10 36.4 7.2 73.6 17.1 105.8 35.4m-246.6 419.7c17.7-30.8 34.1-62.2 51.8-93-22-1.9-44.5 1.6-66.1-4.4-19.7-.7-39.2-5-58.6-8.7-15.5-2-31-14-45.3-13.5-12.7 19.6-26.5 38.6-38 58.9 13.4 7.6 30 11.3 44.6 17.4a1918 1918 0 0 1 111.6 43.3m318.8-260.3c-8.6 19.7-24.9 33.8-37.4 50.8-41.4 40-96 62.8-150.4 79.6a493 493 0 0 1-155 7.4 355 355 0 0 1-111.2-33.2c-30.4-15.6-53.6-42-72.3-70.1.4 28.2 24 46.7 42 65.2a231 231 0 0 0 141.4 58.7c29.6 4.2 59.8 6 89.5 1.8 39.8-2 78-14.8 115.7-26.5 18.5-8.4 37.6-15.6 55.2-26 25.6-15.7 50.4-34.1 67.3-59.3 13-13 15.5-30.8 15.2-48.4m81-74.8c-12-9.7-31-10.3-45.7-16.4-12-2-30-12.1-38-8.8a84 84 0 0 1 13 44.3c3.4 19.8-4.4 39.4-4.8 59.3a86 86 0 0 1-21.5 53.8c-7 11.6-30 22.8-28 32.6 9 2.3 17.4 8.7 26.7 8zm-552.2-42.1c11-5 21.2-13.3 32-19.5a350 350 0 0 1 80.2-37.8c13.6-6 27.5-13 42.6-10.5 6.3-.6 19.6-5.4 6.8-7.4-25.1-6.7-50.2-13.7-75.4-20.1-29.8 29.6-55.8 62.6-85.4 92.5-1.3-.8-.2 3.7-.8 2.8m65.6 123c2.6 13.7-11.6 29.8-.8 41-15.1 5.6-5.9 30 8.8 32.5 9.7 6.1 15 1.2 8.5-7.4 10.7 12 11.6 3.3 10.5-7.5v-47c-4-7.7-12-6-18.6-8.8-2-2.3-5.3-4.5-8.4-2.7m-34.2 16.3-.8 25.1c6 7.9 26.3 24.4 24 4-2.4-11.5-3.8-21 4.2-30.2 5.8-11.3.6-21.3-11-23.9-3.2-6.5-12.6-18.8-11.4-4-1.3 6.4-6.8 35.4.6 17.6 18.3-15.7-5.8 8.7 2 17-4.5 2-5.2-3.6-7.6-5.6m-16-7.2c16.4 21.7 17.2-20.3 17.4-32.6-1.5-10.8-21.8-19.9-11.3-2-1.6 7.3-5.8 14.5-2.7 22-5.7 2.1-2.7 8-3.4 12.6m-3.3-68.3c-2.6 19.5-12.4 40.6-3.5 59.6 3.9-13.8 8.2-36.6 9.2-53.2zm-10 29.4c1.7-12.5 9.9-40.5 6.3-43.2-8.4 12.7-12.5 28.9-6.3 43.2M1867 1203c1.6-15.9 25.2-4.2 35.9-8.3 9.2 4.9 23.4-9.4 3.8-9.7-26.8 3.3-52.8-6.3-79-10.7-16.3-6.5-34-4.5-50.7-9.9-23.8-7-48.6-6.6-72.5-12.8-22-1.8-43.6-6.8-65.6-9.3-14-4.8-40.3.5-47.3-7.6 15.3 2.5 31.6 1.5 47.7 4.4 30 4.7 60.4 7.3 90.2 14 17.4 2.2 35 3.3 51.8 9a923 923 0 0 1 101.2 20.7c10.6-3 27.4 1.5 35.5-3.6q3-14.2 5.7-28.6c-17.8-3.4-36-10-55-7.5-16.4-8.6-36.5-11-56-11.5-26.9-2.5-52.5-11.4-79.5-14.3-35.2-9.6-73-14.5-109-16.6-9.8-1.7-38.4-12-33.1 5.6.7 8 2.8 16-1 23.6-5.9-6.2-.8-23-8.5-26 0-11.7 10.5-16.5 15-24.7-7.6-11.6-31-4.6-44.5-11.2-24.2-7.3-50.4-4.9-74.6-12.2-18.5 2.1-35.4-6.8-53.3-6.3-9.1 5.2-13.7 18-22.7 24.4-4.8 11.4-12.4 9-22.7 11.4-33.5-5.4-68.1-9.3-100.9-15.4-8.2-14.6 4.4-41.6-18.8-40.2-8.4-1.1-16.9-3.9-25.4-4l-21.6 19c-22.7-4-46-3.6-69-6.9-22.4-3.5-51.9-.3-48.2-30.9 1.3-29.3-25.2 3.4-37.9 8.2l-73 48.7c-.2 16.3 28.8-7.3 20.6 8.9 3 14.2-14.1 13.4-22 21.9-63.5 43.2-127.2 86.4-190.2 130.5-11 2-14.9 19-25.7 12.8l-41.3-12.5c-85.2 54.3-169.1 110.5-254.3 164.8-16.8 11.4-34 22-50.5 33.9 11.2 4.2 22 17.7 4.7 22.9-18.2 25 47.2 5.3 21.4 29.3-5.1 8-32 16.8-19.5 23.9-19.1 4.7-8.6-9.3.7-14.3 6.5-5.8 14.4-10.4 20-17-8.8-3.7-39 1.3-28.9-20.6 10.1-10.1 17.7-19.7-9.7-21.4-18.7.5-6.7-9.6-4.3-16.2-21.7-7 1-11.7 7.3-16.6-9.6-2.7-23.7-8.7-7.8-15.3-12.1-5-23.3-12.6-24.5-23 1.5-4.1 6.4-14.1-6.9-14.6-7.2 22.2-32.3 44.7-55 25.8-17.3-7.9-15.9 33.6-33.6 25.2-5.1-13-21.3-29.1-26.2-6.2-15.3 27.8-33-9.8-52.3-6.6-11.5 5.1-21.9 3-29.3-8-17.2-14.8 11.6.4 15.8 6.5 14-6.4 28.8-1.8 40.4 7.6 10.1 11 22.3 2.9 25.1-10.5 12.3-22.6 24.9 13.2 32 12 10-12.2 18.4-39 37.3-20.3 22.1 13 34.7-16.2 43.4-31.3 6.6 6 27.6 7.4 16.5-1.6 9.8-8-1.2-35.8 21.1-34.2 10-.3 26 .2 15.1-13.2-9.5-12.3-6.6-24.7 1.8-33.7-3.2-8.9-26.7-22.6-13.3-26.1-10-6.4-23.4-21-6.4-20.6 14.1-3.9 30.4-7.6 42.7-19.2 15.7-2.6 28.4-13.2 43-19 17.7-14.2 35.1-30.6 57.3-33.3 19.1-12.2 39-22 59.2-32.5 11.7-8.5-4.3-28.8 16.2-31l88-44.4c13.8-.7 30.4 12.8 40.7-1a93 93 0 0 0 31.3-13.7c9.6.1 17-5 24.8-10.1 9.6-6.7 20.2-12 30.8-15.9 20.3-8.6 37.3-31 58.8-33 8.3.4 19-9.5 26.3-13.7-18-4.2-38.1-14.2-56.2-9.8-163.6 82.5-327.8 164-491.6 246.2 2 5 21.4 22.3 11.3 21.9-5.4-12.1-12.4-12.7-6.9-.2 3.4 9.6 3.4 20.8 10.8 28.5 5.3 8.9 8.3 18.8 12.9 28-12.7-4.8-11.2-22-20.2-31-10.8-18-10.2-40.7-18.9-60-7.1-17.3-12.8-49.2-17.7-55-2.2 29-23.6-6.8-36.5-.8a215 215 0 0 0-37.4 11.8c-17.2 6-26.3-22.6-17.8-32.8 3.5 15.4 5.6 41.3 28.5 23.3 18.4-6.3 38-15.7 51.9 3.6 15.7-6.7-2.2-35.9-4.5-51.1a666 666 0 0 1-8.8-107.4c-2.7-16.9-4.4-33.9-7.6-50.8-.7-17-3-34-2.5-51.2a129 129 0 0 1 4.9-58.6c5.7-12.7 1.1-32.4-12.1-14.4-20.1 5.6 19.3-28 19.2-3.7a380 380 0 0 0-7 97c3 24.1 4.2 48.5 9 72.4q.4 42 6 84c.2 8.8 1.9 38.7 6.8 33 10.3 8.3 8.8 30.5 13.4 44.8 4.5 22.3 12.6 43.6 20.2 64.9 19.5-6.8 37.5-18.4 56.4-27q211.9-105.6 423.5-212c9.5-5.2 24.8-7 19.6-21-8.6-12 2.7-21 15-24.1 24.6-4.6 10.2-32 5.5-47.5-10.7 7-43.4 8-26.2-11.5l79.1-131 150.5-53.5c6.2-12.2 15.2-22.6 29.8-17.4 16.8 1.7 33.7 4.5 50.6 4.3 10.1-26.6 17.1-54.5 26-81.6 5.9-18.5 7.5-45.3 33.4-36 26.1 1.7 52.2 4 78.4 5.7 17 1.8 34.3 1.7 51.3 4.2 17-.4 33.7 2.1 50.7 3 19.1 1.3 38.3 2.9 57.5 3.6q27.8 2.6 55.7 3.8c17 2 34.2 2.8 51.3 3.8 20 1.6 40 3.5 60.2 4 17.4 2 35 2.9 52.4 3.9 16.1 1.6 32.3 1.6 48.4 4 23 .6 46 3 69 4.5 22.7 1.2 45.4 3.3 68 4.4 18.6 1.8 37.3 2.7 55.9 4 18.5 1.2 36.9 2.8 55.4 3.7 15.7 1.7 31.3 1.8 47 3.6 24.6 1.3 49.1 3.2 73.7 4.7 17.8 1.3 35.6 2.8 53.5 3.6 18.2 1.6 36.5 3.3 54.8 3.7a779 779 0 0 0 55.6 4c14.8 4 40.4-1.2 48 5.6-4.4 25.7-10.8 51.2-15.6 77-12.2 63.3-26.6 126.3-38 189.8 37.9 20.8 77 39 115.3 59q127.4 63 253.9 127.7c86.2 43.4 172.7 86.2 258.7 130 69.1 35.4 138.8 69.5 208 104.6 16.3-.7 5.6 12.9 7.4 23 0 17.3-.5 34.6 2 51.7-.1 22-.4 44 2 65.6.3 22.3-.8 44.7 2 66.7.3 22-.9 44 2 65.6v50.8c9.3 4.3-3 28-3 8-11.2-10.7-8.3 21.5-13.1 6 1.2-10.4-16.2-20.4-19.5-6q-62.4 82.7-123.5 166.4c-113.5 31.4-227.3 61.6-340.8 92.8l-30 8c5.7 15.9-31.7 11.8-13.2 26.8 13.4 5.1 26.2 23.9 3.3 24.7-11 .3-16 2.6-6.3 13.3.2 19-37.6-5-22.6 17.8 9.4 18.2 1.4 41-18.6 21.5-22-11-54.8-10.3-59.8 21.4 1.8 17.3-22 13.7-33.2 12.3-10.5-5-23-13.2-19.5 5-9.9 32.7-34-32.2-46.5-5.1-18.1 13-24.8-17.5-43.5-9-16.9-2.2-24.6-21.1-42.8-14-11.8-1.5-8.4-13.8-9.4-22-7.9-11.4-34.9 8-38.9-14-7.3-9-23-14-11.7-29 10.1-15.7-17-12.1-7.9 2.8-2.5 22.6 15 36.8 31.5 48.8 6.8 6.4 16.2 10.9 21.4 18.4 1.6 17.8-29.3 5.9-30.4 21.8 1.4 20 46.5 34.2 19.3 51.8-9.2 6.8-39.7-9-28.8 10.2 2.9 6.6 5.3 13.2 1.3 20-5 4.7-12.3 1-18.5 1-5.7-3.4-26-11.3-18.1 3.8 1.6 18.9 10.4 49.5-6 62-21.7-14.5-41-40.2-71.2-40.7-13.5-.7-22.9 9.5-30.6 19.5-13 12.9-8.6 46.8-35.4 36.6a54 54 0 0 1-41.4-21.2c-16.5-16.1-3.8 45.6-28.2 30.7-12.6-12.9-17.3-31-27.1-45.8-7.6 4.3-14.3 15.4-24.6 14-13.8 1.2-20.8-10.2-21.5-23-13.3-6-32.5-4.2-39.9-21-3.5-14.3-13.4-16.5-26.3-15-21.1-7.4-4.8-30.4-7.2-44-16.6-9.7-50.6-5.5-48.8 19.1-8.9 13-5.2 28.1 10.4 31.6 21.1 10-18.5 29.7-.2 45.8 7.7 15.7 14.3 32.3 26.3 45.3-12 14.2-30.3 12.6-46.5 16.4-15.8 6-4.7 24.3-17.4 31.1-9.1 4.7-6.5 23.2-7.4 31.4 15 5.3 26.2 19.4 10 31.7-18.3 17.9 15.6 24 24.5 30.8 1.8 7.3-20 13.2-2.9 17 12.6 1.6 26.8 14.4 15.4 26.8-8.6 12.3-13.4 22.3-11 36.3-4.2 12.8-20.5 20-25.4 29 3.3 12.5-1.8 30.4-17.2 28-4.7 13.6 23.9 27.7 23 42.6-11 12.3-29.4 4.2-43.7 4.1-14.3-.8-28.6-4-42.8-2.5-7.4 6.3-.7 25-9.7 27-8.5-.2-21.2 3-2.7-19.5l8-18.3c17.6.5 35 3.2 52.6 4.1 10 2.7 30.5 5.2 17.1-9.3-8.5-14.4-28.9-45.1 4.7-42.3 11.8-13.8-17.6-35.9-1.8-48.1 17.7-6-11-24.3-10.4-38 12.5-7.6 15.4 24 27.4 30.5 13 15.6-22 11-10.3 24.5 3.4 17.8 26-12.5 22.7-20.5-6.2-16 32.8-41.6-.2-47-13-1.1-20.5-13.6-6.8-21-12.2.4-21.2-9.7-26.4-19.7-7-11-7.6-42.4-17.7-41.5-2 9-12.8 11.7-14.2 21-3.4 6.2-3.5 15.5-12 16.6-16.9-7-30-27-37.3-44.5-2.8-17.7-15.3-18.4-21.3-2.4-10.3 15.4-17.1 32.7-26 49-16.7 2.7-25.3-18-32.6-30-5.5-14.3-9.5-36.2-28.5-22.2-21.6 7.1-41.2 19.6-62.5 27-32-6.8 45.9-78 8.3-75 1.2-11.2 3.1-22.9 2.2-34-15.4-19-41.2 7.8-59 5.5-19.8-8.7 21.5-36.1-7.3-36.2-20.2-9.7-56.6-30.7-30.3-53.2 14.6-15.3-9.1-17-16.7-6-17.6 12.5-40.2 15.4-57 29.5-4.8 5.9-31.4 16.2-23.3 1.5 7.3-2.5 33.2-14.8 11.2-14.3-12-.7-38.2-13.5-25.7 8.8 7.5 18-14.7 27.7-29.3 27.2-8.8 1.9-27.3-9.2-29.7 1.3-2.2 16.2 35.2 31.7 6.3 41.2-17.4-1.2-25.6 12.1-7.4 19.2 15 3.6 22.4 20.8 3.5 24.4-18 9.3-38.1 17.5-51.1 33.3 14.2 3.7 31.3 7.3 44.7 15.9 16.2 10.3 32.5 27.1 28.4 48.1-5 21.8-12 44.6-28.4 60.6-2.4 8.1 8.2 14.2 12.3 21.2 5.7 9.5 16 13.6 26.7 14.3 8.1 2.3 25.3.3 24.9 11.8-.2 9.5-12.8 13.8-17.2 21.5-8.5 6.6-24.4 23-2.6 19 18.7 2.8 42.2-13 56.7 0 6.1 14-17.6 39 9.2 41.8 11.8-1 24.4-15.7 32.6 1.9 7 8 22.9 26.4 2.6 22.3-11.1.8-11.7-25.2-27-12.7-25.6 16.2-42-24.5-28.3-43.2-10.9-7.8-33.4 2.9-49.1 2-19.5 5-29.7-16.1-13-27.4 8.2-9.6 32.2-28 5.4-25.2-23.7-2.5-36.7-26.5-48.5-44.1 14.2-21.6 33.3-43 33.2-70.9-1.4-14.9-15-24.7-26.4-32.4-15.3-6.8-43.4-22.3-53.6-2.6-42.7 81.7-86 163-128.3 245-1.6 11.8-15.6 18.1-4.5.3 43.3-82.5 86-165.5 129.8-247.8 5.7-6.1 1.4-15.3 5.6-21.6 14.8-10.2 19.6-28.7 28.7-43.5 4.7-8.9 10.4-17.4 10-27.8 6.9-4 23.3-27 14.7-27.7a767 767 0 0 0-48.2 82.7c-52.4 99-105.1 197.8-157.2 297-8.5 1 3-10.3 3.8-14.9 53.9-102.5 108.4-204.7 162.2-307.3 10.7-20.3 21.1-40.8 35.3-59 6.2-6.8-.3-17.5 4.5-24 5.1-7.3 16.6-1.9 20-11.9a1047 1047 0 0 1 100-121.2c12.2-11.5 26.8-20.6 37.5-33.4 7.5-7.8 20.7-10.7 29.4-19.1 52-38.4 107.7-72.9 169.6-92.6 22.7-7.7 46-13.6 69-20 2.9 6.5-24.7 7.7-33.4 12.6-48 14.1-95.4 31.7-137.8 58.9a863 863 0 0 0-72.6 49.1c25.5-2 42.5-23.2 64.3-34 18.8-13.2 41.2-19.9 61.2-30.3 5.5-12 21.6-9 32.2-13.4 35.5-7 67-25.6 99.1-41.3 29-17.8 60.7-32.2 86.3-55-30.2.2-59.8 8.3-89.4 13.6a857 857 0 0 0-129.5 36.8c-46.2 20.7-93 41-134.6 70.3a687 687 0 0 0-122 97c-34.5 31.1-59.7 70.8-87.1 107.8-24.4 39.9-48.6 79.8-73.6 119.3-60.4 101.1-120.5 202.5-181.2 303.5-3 13.9-13.2 8.1-3.5-1.3 31-54.5 64.5-107.5 96.2-161.6q54.2-91.5 109-182.6c28.4-37.4 46.3-81.9 77.2-117.7a607 607 0 0 1 117.8-121.2c27.4-23 58-41.6 87.9-61 32.4-21.4 69-35.1 103.8-52.1a866 866 0 0 1 193.7-50.7c29.9-6.4 61.3-5 80.4-36.3 12.7-11.8 24.4-24.6 37.3-36.3-4.3 23.7-20.9 43.8-27.8 67.1-3.6 14.5-20 45.8 8.2 38.4 8.2.4 10.2-11.1 15.6-16.3 11.5-5.3 23.7 13.9 24.4-5.8 10.4 3.2 27 14.7 28.5-3.3 7.5-10.3-4.1-11.3-12.3-10.3q-27 .2-54 0c-5.2-7.2 22.8-3 30.8-4.1h65.6c11-7.6 9.6-21 19.3-30-2-15.9-21.3-42 8-39.7 19.8-3.2 38-9.4 44.9-29.3 13.1 1.7 27.3 5 33.2-12.1 17.8-10.3-4.4-35.7 12.8-46.1 6.6-2.2 14.5-2.5 20.4-5.8 7.2-7.8 0-22.8 18.4-18.5 22.5-1.6 44-7 63.8-14.9-5.6-5.7-8.9-11 1-13.7 12.2-13.3 13.2-38 36.9-33 15.6-2.7-2-12.7-6.3-19.3a26630 26630 0 0 1-133.2-142.5c-10.8-6.3-16.4-28.9-31.2-22.5-11 3.5-3.4-11.8-2.1-17.2 5.9-11.4-1.2-22.8-4.1 2.4-3.2 21-31.8 27.6-43.7 9.7-6.6-13.6 2.5-28.3 11.4-37 3.3-14.9-16.2-23.3-23.3-34.7-8-13.7-22.1-5.5-34.8-7.2h-21.4c-10.8-10.2-28.5-19.3-31.3-34.2 2.4-10.5 1.4-22.3 8.2-31.3-1-15.4 11.9 7.2-1.8 8.3l-3.2 25.6c13.4 22.7 34.3 35.5 60.6 28.4 4-12.6 17.7-38.6-6.6-32-12-4.8-19.3 3.8-20.7 14.5-1.4 12.9-20.2 32.5-.7-7.8 6.7-13.5-13-10.7-15.4-21.1-7.4-8.2-9.5-20.4 0-5.9 3.6 10.8 15 12.6 23.8 17.4 8.2-.6 17 1.2 24.9-1-9-9.1-18.7-20.4-11.3-35.3-8.7-8.3-31-.3-43.2-1.1-.7 1.5-1.6 4-3.9 3.5m429.8 16c5.8 9.9 32.3 20.8 11.5 6.5-12.5-7-22.7-16.9-34.8-25-18.5-12.9-36.3-27-55.2-39.2-2.4 5.7 10.6 10 15.4 14.7 20.4 13.7 39.7 29.3 60.7 42.2zm-18 475.6c-1.8 19.9 27 31.4 30.8 15.4-6.8-12.4-19.7-13.6-26.4-25.7-5.2-4.2-21.4-29.7-16-9.7a60 60 0 0 0 11.6 20m-292-455.7c8.1 7.8 23.5-6.8 11.4-12-13-10.6-24.9-22.3-38.4-31.9-12.2 1-3 19.5.4 21.6-8-6.6-10.5-1.8-11.3 6.8-4 7.2 25 25.6 6.7 15.1-10-16.5-18.9 11.4-10.5 18.7-19.3 1.5 2.7 25.9 10.5 32.7 6.7 10.7 19.3 19.6 19 1.1.6-9.8-26-23.7-18-25 6.4 3.2 13.9 18.5 19.2 13 3-6.9 10.7-15.3 1.5-20.6-7.3-6.4-10.2-14 .3-4 7.2 12.5 10.1-2.8 14.3-8.8zm148 124.1c2.6-7.8 8.5-18-6-13.3-7.1 4.3-12 13.7-7 .7-6.9-16.2 22.3 6.3 12.5-11-26-23.6-51-48.1-77.3-71.4-7-3.8-4 13.4 2.9 15.3 4.7 5.2 16.8 14.4 15.1 17.4-8.3-5.2-13.6-14-21.9-19.2-9.8 20-17 41.4-25.7 62l-2.4 13.6c-17.6-8.3 9.3 16.2 13.4 21 41.7 44.9 83.2 90 125.4 134.6 6.5 6 29.4 34.9 18.6 12.7-5.8-7-14.5-12-17.8-20.7 7.7 6.3 14.1 14.6 22.7 19.4 13.6-20.4 24.2-42.8 36.6-64 8-5.7.8-22.6 14.4-13.3 20.3-1.4-13.9-20.5-20.8-30q-34.9-32.7-70-65c-1.4 11.3 4.2 19.4-8.7 25.1 2.8-7.1 6.5-14.2 3.5-22-1.2-1-5.6 6.5-7.5 8.1M985.6 893.3c-6.1-.7-24-2.1-10.3 5.2 12.4 6.2 33.2 6 23.6-4 0-5.4-13.3-3.7-18.8-6 11-1.5 24.8 2.9 18.2-14 4-20.2-16.6-31.2-32.2-25-1.3 18.4-6.7-8 6.8-4.8-10.3-1.4-21-7.3-12 3.4 1.6 8.2-6.8-9.3-15.2-4.6-15.5-2.3-6.7 28.8-1 36.1 8.5 1.5 30 5.4 10 5.7-25.5-.6 4.8 17.4 12.7 8.4.9-9.1 13.4-1.5 18.2-.4m1259.2 259.8c2-12.8 10.8-23.9 12.4-36.5-14-8.4-15.4 20.5-21.5 28.9-6.2 13.4 20 4.2 4.8 17.2-25.7-11.1 5.4-35.7 3.5-53.5-9.8 9.8-16 32.8-21.3 48.5 60.2 43 119.2 87.8 180.1 129.8 16.3-10.1-17.2-21-24-28.7-9.6-7.6-20.7-13-29.7-21.2 3.3-13 10.1-25.4 14.6-38.2-8.2-3.8-11.5 40-25 31.7-15.7-11.8-33.3-21.2-47.9-34.5 2.2-15.2 21.4-35.2 15.8-46.5-7.8 12.4-13.5 28-19.8 41.8-4.6 4.8-12.2-6.8-18-9.2-11.2-8.5-30.4-14.2-18-29.4l11.5-31.2c-7.4 1.3-10.2 23.6-17.5 31M1089.5 951.2c13.3 5.5 29 3.8 43.5 6.6-1.3-13.8-19.1-9.7-29-13-17.6-1.4-35.2-2.5-52.6-5.8 2-23.6-22.2-22.4-40-25.2-34.6-9-70-14.2-104.6-22.3-3-17-17.8 9.8-28.8 7 15.5 4 31.5 4.5 46 10.8 6.3 1.1 29 6.6 15.8 0 3.5-6.5 27 7.7 36.2 11 9.8 1.4 19.6 4.5 29.4 4.3 3.3-5.7 15.4-3.4 5.4 1.5 10.2-1 30.6-4.1 13.2 4-8.5 3.7-19.2 5.6-3 10.1 17.4 5.2 36 4.6 53.7 9.2zm-.1-30c10.9-3.4 41 12.9 36-5 3-5.4-1.3-13.4-1.1-19.8-1.8-8.4-1-17.8-4.5-25.6-3 20.1 1.4-13-4-8.2-6.7-4.5-30.4-12.7-32-.2-.2 6.8 8 3.7 1.5 16.2-2.6 9.1-2.5-10.2-3.8-14.6 1.8-14.5-21-10-16.5 3.6-1 3-5-15.6 1.1-16 13 0 42.9 6.3 46 2.2-14.5-2.2-29.3-2.8-43.5-5.5 2.5.5 17.7-4.4 8.5-14-16-7.6-16 7.5-10.8 13.2-9.2 4.1-5.1-26.5-10.7-6.2-.8 6 .4 10.8 3.2 3.5 4 14.1 1.3 28.1 1.4 42.3 5.6-22.3-.3 20 3.2 11.8 6-10-5.2 21.2 4.8 15.7 11.3 6.2 3.8 2.5-1.7 7.8 10.4 9.4 31 4 45.1 9.5 10.4 5.5 24.8-4 7.8-5-9.8-2.2-21-1.4-30-5.7m226-139.9a304 304 0 0 0 33.8 51.5c14.7-11.3 47.1-14 47.4-34.3-4.3-16.3-7.5-33-12.3-49-6.6-.5-13.1 6-19.6 8.3-15.7 7.6-30.7 17-46.8 23.3-3.8-3.5 13.3-9.1 19-13 15.3-8.3 31.3-15.4 46.1-24.6-4.8-26.5-12-52.5-18-78.8-12.9-10.1-35 10.8-51.5 13.2-17.3 7.9-38.1 12.4-53.4 22.4q25.4 39.7 52 78.6l3.2 2.5Zm76.5 1276.6c4 13.6 16.8 21.8 28 12.6 11 2.5-6.9 14 6.3 17.3 8.6 14.8-28.7 34-4 44.6 8.6 7 16.4 15.3 27.7 17.4 14.5 1.1 20.3 15.3 8.8 26.2-7 17.3 21-5.3 29.6-3 26.8-9.5 36.2 20.6 29 41-2.2 23.3-9.6 45.7-15.8 68.1 3.4 6.7 13-3.5 19.1-4.5 17.6-9 36.7-14.2 55.2-21-3.5-18 19.7-5.4 13.7 7.8 4.3 14.5 12.8 46.8 29.1 42.2 9.7-21.7 21-43.6 38.2-60.3 19.6-2.4 16.7 28 27 39.4 8.7 15.6 27.9 30.9 34.7 5.4 6-14.1 4.2-40.2 27.3-33.7a65 65 0 0 1 37.2-51.4c13.7-1.2 38.3-4.8 21.5-21-14-33-37.3-66.8-30.8-103.4 8-14-.9-13.6-12-11.2-14.6.2 8.4 20-6 23.3-20.6-13.6-34.3 8.6-45 23.5-24.5 7.6-10.3-45.7-32.6-22.8-7.6 7.1-14.4 15.3-22.8 21.6-24.3-5.9-22.2-40.1-36.3-53.2-12 14.2-43 4.3-42.2-7.8 14.8 8.8 32 5 45.5-4.7 19.2 7.9 11.3 51.2 33.8 51.8 10.7-10.6 37.9-39.6 45-14.3-2.4 11.8 6.1 23.8 13 8.8 6.4-12.6 24.5-18.9 30.7-20.3-8.4-6-13.4-28.8 1.5-18.7 16.5 10.5 35.4-2.6 51.3-8.3 17.4-6.4 35.5-18.4 15.2-33.9-2.4-13-11.5-11-20-13.6-5.9-12.8 39.8-11.3 17.3-26-4.5 17.4-10.8 0-8.8-7.2 1-15.7-23.9-31.1-25.3-50.4-10.5-19.2 23.8-8 14-24-2.2-28 .8-56.1 7.2-83.4 2.3-18.2 12.4-34.3 17.1-51.7-20.5 9-41.4 31.4-62 45.6-22.1 14.7-42.6 35.9-67 45-35.7 19.7-72 39.5-112.3 48.1-9.7 3.4-37.8 5-12.5 16.3 22.3 1.2 8.7 23.2-5.8 27.8-12.6 7.6-23.5 17.5-34.8 26.7.7 11.9 30 1.9 36 17.2 10.6 4.9-16.3 14.3-22.4 14.4-18.5 1.4 2.2-15-4.5-15.6-13 3.4-31.4-6.2-18.8-19 9.4-13.5 34.2-23.7 39.3-32.3-23.7 11.3-48.8 19.1-73.3 28.3-25.5 4.6-50 12.7-74.7 20 8.7 8 35.2 9.8 13.9 22.6-23 11.5 12.2 21.1 19.4 25.7-9 12.2-35.5 9.2-43 28zm1153-224 7.7 25.7c12.8 7 26.4 21 41.6 13.2 105.3-28.5 210.6-57.5 316-86 16.1-5 33.6-7.5 48.8-14.4l143.1-192.9c-.1-19.2.2-38.5-.2-57.8-3.2-23.3-.5-47.2-2.1-70.8-3.5-25.3.7-51.3-3.3-76.6-.2-16.6.2-33.2-.6-49.8-9.4 4.7-16.6 13.8-25.1 20.3-37 32.6-73.3 66.2-109.8 99.4-43.6 37.7-85.8 77-128.6 115.6-36.9 33-74 66-110.4 99.5-24.5 20.6-47.4 43-71.4 64.2-20.4-.7-44.5 26.7-58.6 7.6-8-3.6-17.3 17.3-6.6 23.4 8.5 11.9 17.5 23.8 24.7 36.4-4 9.2-20.8-2-22.1 8.6-.3 8.7-11.3 7-17.5 7.5 4.8 16.1-4.4 30-22.3 26zm-716.9 15.8c12.5 21.8-37.6 12.7-21.3 35.7-10.6 7.5-4.5 19.1-6.2 28-14.5-4.9-13.4 4.9-5.2 11.7 4.3 5.4 11 10.6 4.4 17 7 18.9 27.8 31.2 34.5 48.8-12.8 7.5-24 25.3-1.5 37.4 2.4 13.6-22.4 22.6 0 19.9 25.9 2.5 6.6 31.5 12.7 45 10.6 5.8 30.6-4.4 32.5 16.1 3.9 21.4 29.5 10.2 43 18.5-2.2 14.5 14.6 34.3 25.3 15.2 19.1-21.6 27 19 36.4 30.9 13.2 23.7 10.5-21.3 18.1-29.4 18.9 3.6 29.3 31.1 53.3 28.5 22.8 7.5 15-28.4 31.7-36.6 17.9-27.4 55.2-19.6 78.6-3.3 9 5.1 15.6 13.3 23.4 19.9 7.7-20.6-1.6-42.3-2.8-63 0-12.9 13.4-3.6 19.9-1.3 10.2 6.2 30.3 6.8 16.6-9.2-10.1-10.2.4-28 16-18.1 16 5.3 31.5-3.4 11.8-15.4-16.9-11-25.6-43.5 2-45 16-.7-.2-9.5-5-14l-16.8-13.7c.4 7.8 7.2 37.1-7.3 21.8-4.5-19.2-1.9-40.9-11.2-58.3 3.5-11.5-7.9-46.4-15.3-20.7-6.1 30.6-46.2 9.4-63.3 2.2-8.5-6.8-10 9-14.5 13.8-14.1 15.3-24.2-22.1-23.7-28.8-13.6-25-36.4 11.5-50.4 21.2-11.2 7.1-24.8 41.6-36.6 23.3-2.7-19-5.3-38.4-12.2-56.4-6.6-5.5-17.8 2.2-26.6 3.1-8.7 3-37 3-27.4-11.8 6.7-14.9 17.2-28.5 20.8-44.3-15.7.7-34.4 9.6-51.7 4.3-11.4-.4-5.2-11.2-.9-16.5 4.4-5.6 4.4-13 6.4-19.6-17.3 3.4-34.5 18.9-52.3 8.6-6.8 18.5-29-14.1-31 10.6 10 1.4 32.3-.6 34.5 2.3-17.4 1-35.7-.2-48.7 12.6 6.9 11.3 41.5-8 35 5.1-7.8 4-16.8 1.9-25 4m414.5-337.7c-6.7-6.5 6.1-33.8-4.3-25.8a298 298 0 0 1-70.9 77.8l-23.7 17c13.9 14.2-13.5 22.6-25 24.3-17.5 6-59.4-2-41.3 27.4-7.9 8-13.3-10.2-23.7-.5-26.4-3.7-16 27.6-11.3 42.8-1.1 14.2 32.4 16.2 11.2 23.4-10.8.6-10.7 3.6-5.5 10.1 1.3 10-13.3 35 4.4 24.2 20.2-18.3 21.9 13.5 16.8 26.5 2.8 14 27.8.2 37.7-3.6 22.5-13.6 13.8 16 27.4 23.7 18.1 5.4.7 9.4-8.7 2.7-9.7-1.3-7.8-12.9-10.7-19.5-6.3-1.4-13.2 4.3-19.7 5.9-14.2 6.6-46.4 9.4-33-15.1 3.5-11.4 0-23.2-12.2-12-19 11.3-18.4-11.5-10.7-22.8 6.4-11.4-24-16-5.3-23.4 14.6 2 .4-23-3.6-11.7-18.5 23.6-49.7 26.7-75.8 37.3-11.8 2-25.2 5-14.3 18.5 2.4 6.7 8.7 23.7 4.4 24.6-11.8 4.5-6.5 23.6-13.4 25.4.2 5.3 2 15.4-6 19.8-12.9 10.3-19.3 33 4.7 27.5 13.1-.1 25.5-8.6 38.3-7 6.2 15.4-9 31.9-15 46.4-12.5 14.7 12.9 12.6 21.3 9.2 7.4-1.5 36.6-16.8 28.4-2.2-4.3 5.3 2.6 13 3.1 19.4 5.2 13.3 5.4 27.8 9.9 41.3 19.3-21.9 38.4-46.4 65.5-59 22.3-4.1 22.7 35.7 31.7 36.5 4.5-4.3 5.6-14.7 12.6-14.4 12.6 0 21.7 13.3 35.2 13 12.8 4.2 26.6 6.6 27.2-12 1.2-15.1 17-7.9 22.9-13.2 11.4-16.2 6.8 16.5 22.7 10 27.7 2.3 8.5-31.5 8.7-44 10.7-1.5 36.7 22.3 34.3-1.9-2.1-20.8 16.7-1 27.5-4.3-8.3-17.7-14.6-36.6-26-52.5-10.8-21.3-16.6-44.6-23.8-67.3-5.3 15.5 3.2 34-6.7 48-9.8 15.6-23-16.6-27.6-1.8-11.2 15.1-22.6-23.5-13.5-22.5 14.2-1.5 23.3 18.4 35.3 15.3 6-19-.7-39.5 4.7-58.2 5.9-6.2 14.1-.9 19.2 3.1 8.6 2 15.3-2.2 8-10.2a213 213 0 0 1-26-71.8c-2.5-10.1-3.3-21.4-7-30.8-1-13.4-2.3-29-2-43.6.1-16.7-1.2-33.7 3.6-50m791.2-161c-13.4-9.7-29-16.5-43.3-25-51.8-27.3-102.9-55.7-154.6-83.2q-106.8-57.7-213.4-115.8c-68.4-37-136.4-74.5-205-110.9-57.6-31.8-116-62.2-173.4-94.2a7118 7118 0 0 1-114.4-61.9c-11.4-6.8-16.5 10-23.8 16.3-13 16.6-27.8 32-40 49 0 6.6 11.6 8.3 16.6 12.9 37.7 22 75 44.6 112.9 66 8.1-.2 15.2-6.8 22.9-9.6l45.3-22.6c46 25 91.4 50.8 137.5 75.6q128.3 70.4 256.2 141.2c7 8.1 20.9-16 12.5 3-24.3 16.5-37.6 43.9-58 64.3-13.6 9 3.5 15.3 11.2 20.2q143.3 89.3 286.8 178.3c8.7 5.3 13.8-6.7 20.5-10.6 33.7-29.5 66.7-59.8 100.8-88.9.7 2 2.7-6 2.7-4.2m-650.8-23.8c7.3-2 9.9-11.2 1.2-13.4L2198 1179.2c-12-4.6-20.9 22.6-32.6 3.6-15.7-7.8 14.1-27-5.1-33.7-6.5-6.6-16.5-9.5-22.1-15.3 10.9-15.2 17.8-34.5-5-41.4-43.9-29.9-87.7-60-132.6-88.5-13 17-38.4 36.8-40.8 55.4 37.2 29.3 75.2 57.6 112.2 87 80.9 62 161 124.8 242 186.5 45.7 35.4 91.8 70.4 137.2 106.1 21 16 41.4 32.4 62.6 47.9 14.9 10.3 30.5 25.7 47 36.9q74.4 57 148.6 114.3c28.8-21.6 53.5-48.2 81.5-70.8 24.3-13.6-15.7-24.6-24.7-36-81-59-160.7-119.4-241.7-178.3a224 224 0 0 0-30.5 34.3c-4.5 12.1-8.8-3.7-15.4-5.2-18.2-12.6-36.6-25.2-54.3-38.3-13.5-4.3-19.2 22-32.9 14.2-12.6-4.9-16.4-13.9-8.2-24.3 1.2-1.9-.3-4.4-.2-6.4m724.6-41c-44.8-23.6-90.4-45.6-135.3-68.9-41.4-20.7-83-41-124.1-62.3q-111.1-55.6-222-111.9c-104.7-52.7-209.8-104.6-314.1-158-50.2-25-100.1-50.7-150.7-75l-35.7 42.5c29.2 18.6 60.7 33.8 91.1 50.6 73.4 39 146 79.1 219.1 118.4 52.5 28 104.2 57.3 157 85 47.3 26.2 95.4 51.2 142.6 77.9 91.9 48.5 182.4 99.4 274.2 148 15 10 33 21.2 45.3 1 17.7-15.6 36.4-30.3 52.6-47.4M1943 1089.7c-19.7-6.6-38.1 22.4-14.3 31.4 35 30.9 68.6 63.1 103.6 94 35.3 33.7 72.2 65.5 107.7 99 35.4 31.3 69.5 64 104.9 95.4 32.7 31.3 67.4 60.5 100 92 34.5 29.3 66.2 61.9 101.2 90.7 32.1-25 61.2-63.4 65.8-101.8l-197-152.3q-79.7-61.4-159-123.1c-66.5-50.2-131.9-102-198-152.5-9-4.4-24.6 18.8-22.6 24.4 2.7.1 5.9.3 7.7 2.8m343.9-365.6c-15.5 2.5-31.8-.6-47.5-1.5-26-1.7-52-4.9-78-5.6-16.6-1.9-33.6-2.9-50.4-3.9-19.1-2-38.6-3-58-4.3-34.7-2.3-69.3-5.5-104-7.8-14.9 1.7-39.7-10.4-47.6 1.9 6 25 11.7 50.1 18 75 15.3 13 41 5.5 60.5 10.2 27.1 1.6 54.4 4.5 81.4 6 41.5 3.2 83 6.7 124.7 9.2 29.3 2.2 58.4 5.8 87.8 6.5 10.5-52.8 21.8-105.6 32-158.4-17.7-4.9-38-4-56.8-6-27.6-2.6-55.4-4-83-6.8-16.3-1.9-32.7-1.9-49-4.1-38.9-2.8-78-5.2-116.7-8.9-20.9-.7-41.4-4.1-62.2-4.5-16.3-2-32.7-2.9-49.1-3.9-17.9-2.5 1 26 0 36.6 4.8 20 6 49.9 35.2 41.5 17.9 1.4 35.7 3 53.6 4 17.3 1.4 34.6 3 52 3.9 19.3 1.3 38.4 3.4 57.7 4.1 29 3 57.8 4.1 87 6.4 21.4 3 43.2 2.9 65 5.2 15.6 2.2 32.3.4 47.4 5.2m31.5-132c-39-1.3-78-5.1-117-7.5-30-2.5-60.3-2.9-90.1-6.9-17.4.2-34.6-2.1-51.8-3.1-18-1-35.7-2.8-53.7-3.4-18.4-2.2-37-2.6-55.6-4-17-2.4-34.5-1.6-51.7-3.6-18.7-1.7-37.4-2.7-56.2-4-18.6-1.6-37.3-2.4-55.9-4-17.3-1.7-34.7-1.7-52-3.8-18.1-.6-36.2-2.2-54.3-3.7-28.5-1-57-3.4-85.3-6-17.1-.6-34-2.8-51.2-3-16-1.9-32-2.1-48-3.5-20.2-1-40.2-3.4-60.3-4-16.9-1.9-33.8-2.3-50.7-4q-27.2-1.4-54.4-4-28.3-1-56.4-3.8c-17-.6-33.8-2.6-50.8-3-13.8 1.8-11.6 27-16.8 38.3 9.9 11.2 38 4.7 54.8 8.6 18.5 2.3 37 3 55.7 4.3 20.4 1.6 39.3 2.9 59.8 5q27.3 2.3 54.6 4.3 28.2 2.7 56.4 4c19.5 3.2 39.4 2.4 58.8 5.5q25.1 1.1 49.9 4 31 1.3 61.8 4.4c20.8 1.3 41.5 4 62.3 4.6 19.5 2.5 39.3 2.9 59 5 22.4 1.3 44.6 4 67 5 20.5 2.8 41.4 2.5 62 5.3 18.7.3 37.1 3.3 55.8 4.1 19.4 1.4 38.7 3.6 58.2 4.5 39 3.8 78.1 5.2 117 9.3l63.3 4.7c18.4 2.5 37.2 2.5 55.6 5 15.1-3 41.2 10.7 50.4-2.9zm222.8 1226c6.3 18.1 36.4 4.2 18.4-12.1-14.7-21.5 25.5 7 21-14.4 0-13 26.8 4 13.8-11.8-10.6-18-26.3-32.5-33.8-52.4-2.6-7-12.4-26.3-8-7.7 6.9 14-2 36.1-18.6 21.7-9.2 18.4-27.3-21.2-4.3-11.2 11.9 11.1 21.2 9.4 16.7-8-.4-9.6-7.6-21 .2-29 12.4 6.6 26.9 2.3 13-9.7-15.8-19.6-22.8-44.5-32-67.2-6.5-14.4-5.6-34.8-9.6-51.2-1.2-15.7-2-31-5.2-46.4-12.4 7-22.7 47.2-41.2 56.3-5 11.1-32.6 18.7-20.8 32-13.7 16.9-42 13.7-59 23 5.3 8.6 6.5 23-4.8 11.8-8 2.5-16.4 3.5-23.8 7.5 4.7 16 10.8 38.2 29.5 41 4.8 6.2-21.3 6.7-7 12.7 3.1 9.8-5.6 31 10.1 17 20.9-15 7.5 28.5 23.4 23.5 15-1.2 35.8-24.8 39.7 1.9 5.1 4.2 26.8 10.8 3.7 8-12.8-.8-12.4-22.6-26.8-10.3-8.5 5-33 14.5-31-2.7 2.5-11.8-3.8-21.8-14.5-10.8-14.8 6.4-11.8-8.8-10.6-17.6 4-10.1-24.2-11.7-4.8-18.5 4.6-9-11.5-13-13.1-.6-16.7 19.4-53.6 20.4-66.5 36a29 29 0 0 1 5.8 40.5c-7.7 5.6 8 6.6 2.6 14.8-15.3 10.9-8 32.4 11 21.6 16-9.6 37-8.9 25.9 14.4-8 13.8-6 25.3 11.6 18 7.6-.5 26.4-18.5 25.2-3.6 6.6 10.3 13 33.1 22.7 35 13.2-15.5 30-55.1 53.3-37.7 8.9 7.3 13.9 26 20.4 6.7 13.8-5.4 45.3 18.2 49-6 .3-10 11.4-6.9 16.4-13zm-613-690.4c-4.8-5.6-20.8-25-21.3-8.7-26.6-3-53.6-5.5-80.2-9-26.5-5.4-53.5-7.5-79.7-14.3-22.2-4.3-44-10-66.2-14.2-14.8-4.6-38.2.4-48.1-11.1-.5-12.3 10-35.3-4.8-39.8-49-9.4-97.9-17.2-147.1-25-20.2-2.6-40.7-3.8-60.4-8-13.3 2.6-27.4 5-36.6 16.2-11.6 6.3-14.8 27.8-30.3 21-13.8-2.3-27.4-5.5-41.3-7.4-12.3-7.6 10.6-2.4 17-1.4 10.3 1.3 21 5.5 31.3 1.8q.1-31.5-2.8-62.9c.1-22.1-2.8-44-2.6-66.1-4-13.1 2.6-29-7.3-39.8-44.8-65.5-88.6-131.6-133.3-197.1-5.8-12.2-10 7.6-14.8 12.3-26.5 45.3-52 91.2-78.8 136.4-6.3 10 .6 21.7.3 32.8 6 38.6 10.3 77.5 16.6 116-.4 15.3 2.4 38.7 25 28.2 1.4-28.5-6.9-56.7-5-85.1 11.5-6 40.4-1.8 34.7 19 2.4 24 4 48 7.5 72 18.1 10.6 33.8-2.2 25.3-21.6-.5-20-2.8-39.7-3.9-59.4 11.8-11.6 38.8 4.1 56.7 2.5 15.9-2.3 28.9 4.4 26.4 20.5 1.3 17.6 1.3 35 3 52.6-1.9 13.8 9.5 34.4-12 36-11.2 4-21.4 17.5-2.2 16.7 29.1-.5 58 4.8 86.2 11.7 18-7.1 24.9-38 48.2-31.8 20 .2 39.6 3.6 59.2 6.4 25.3 6 51.7 5.3 77 11.6 18.4 6.5 51.9.1 58.6 16-10.8 6.9-20.1 15.3-22.5 28.4-2.3 4-15.6 12-4.1 10 18.3 0 36 4.3 54.2 6.3a802 802 0 0 1 57.2 8.5c15.7.5 29.7 7.9 45.4 8.3 20.9 4.4 41.2 11.3 62.9 11.4 16.5 3.9 37.2-.2 49.5 13.6a70 70 0 0 1 43 2.5c7 3.8 19.6 2.8 18.7-7.9 1.7 1-1.2-9.4 1.4-8m599.4 222c36.6 28.7 75 55.4 112 83.8 53.3 39.9 107.3 78.8 160.7 118.5 8 5.5 13-7 19.4-10.5 29.4-26.7 59.7-52.4 89.3-78.8 5.3-5.8-10.1-9-14.3-13.7-95.9-59.4-191.5-119.3-287.6-178.4-17.3-2.9-27.1 25.7-41.8 35.8-12.3 14.6-27 27.6-37.7 43.3M2414.3 2000c15-1 39.6 22 52 5 4.1-20.7 21.6-41.8 44.9-35.6 12.3-3 32.7 16.7 36.5 7.4.6-12.7-20.6-43.1 6.6-33.3l13.4.2c-7.5-7.6-13.7-23 3.9-19.2 18.7 1.8 16.3-9.7 1.7-15-12-7.1-9.6-21.7 3.6-24 12.6-4.3-11.5-4.6-12.4-11.6-15-7 4.3 9.8-4.7 14-9.6-4.1-6.4-18.6-11.9-26.3-7.8-6.4-7.8-42.4-19.2-25.3-2 30.2-43-.6-52.1 10.7-7.6 25.2-21.7-.7-27.9-11.2-17.2-6.9-29.3 21-40.6 31.9-2.8 12.8-17.8 17.9-19.3 3.3-6.6-9.6-9.5-36.2-24.4-31-12.3 3.6-26.8 11.3-38.8 3.9 3.6-11.7 8.5-23.3 10.7-35.3-5.5-6.3-23.6 6.5-34.7 5.5-5.7 15.7 18.2 34.4 14.8 49.3-7.4 10.9-30-10.4-31.6 7.2-.6 8.7-10.5 8.3-17 7.9-20.3-4 1.2 31.8-19.3 34.7-10.8 2.6-26.5 1.4-18.5 23.5.8 10.9 18.2 16.2 23 27.4 10.5-1.4 24.1-7.9 31.1 3.8-2.9 16.6 7 24.9 22.9 18.7 9 1.5 12.5 15.5 22.2 13.3 12.6-1.3 24.7-2.6 30.2 9.7 6 5.4 13.5 1 15.8-5.6 12.7-15.3 25.4 16.6 36.5 19.6 2.6-7.7-.7-16.1 2.6-23.6M768.6 1223l219.7-146.4c5.8-10.3-42.7-10-21.6-20.1 44.8-29.4 90.2-57.8 134.4-88-17-1.6-36.6-11-52.2-6.8-16 8.6-32.6 17.1-48.3 26.7-41.8 24.9-84.7 48-126 73.6-7.7 10.4 3.9 21.2 14.8 21.6 6.5 2.1 12.9 4.4 19.6 2.2-5.5 5 1.2 14.1-7 16.5-37.3 24.4-73.8 50.1-111.2 74.3-18.8-10.5-41.7-10.7-62.3-16.3-10.4-5.8-16 13.8-17.7 2-84.8 49.5-169 100-254.1 149.3-22.3 14.2-45.9 26.3-67.8 41-5.4 10.2 3.6 15.8 12.2 19.1 4.6 3 19 6.8 10.5 12.8-18.6 2.6 26.6 8.2 5 15-15.5.5-9.3 13.7 1.6 6.6q150-94.4 298.6-190.6c13-13 30.3 5.3 46.3 5.6 0 1.8 5.5 0 5.5 1.9m1033.2-515.6-153.6 202.5c-5 22.8-2.6 47.1-5 70.6-1.8 16.7-1.5 33.7-3.5 50.5 3.8 15-13 47.1 12.7 43 13 4 33.5 7.9 29.2-12.8 1.7-25.1 3-50.2 4.7-75.3 1.4-12.2 21.9-1 31.9-1.6 36.8 4.8 73.3 11 110.2 14.7l29.4 4.3c11.7-.4 9.2 12.4 8.8 20-3.9 25.2-4.3 50.9-7.8 76.1 1 18.9 29.5 12 43 14.9q12.7-71.8 22.9-144c.8-11-7.6-19.8-11-29.7-37-77.8-73.6-156-112-233.2m66-90.6a817 817 0 0 0-74.7-7.1c-20.6-2.1-41.2-3.3-61.9-5-24.6-2.3-49.4-3.7-74-5.5-20-2.8-40.2-2.5-60-5.3-19-.4-37.8-3.5-56.7-4.2-20.5-1.2-40.7-3.9-61.3-4.7-37.7-3.6-75.7-4.8-113.3-9.3-30-6.8-8.5 28.2-7.7 43.9 4.6 18.3 3.8 45 30.2 39 25.5 1.6 51 2.7 76.5 4.7 28.3 2.3 56.8 3.4 85 6 17.5 1.2 35.2 1.6 52.6 3.8 20.5.3 41 2.5 61.3 4.2 25.4 1.2 50.8 3 76.3 4.5q26.9 3 53.9 3.3c23-24.5 49.3-45.7 73.8-68.3M1388 742.3c30.7 4.5 61.8 4.4 92.6 7.4q40.2 3.4 80.4 6c21.3 2.9 43 3.3 64.5 5.5 23 1.8 46.2 2.8 69.2 5.1 17.8-.6 39.8 11 48.3-10.9 16-21.2 32.6-42.3 47.2-64.5-21.7-7-47.3-2.2-70.2-7.2-18.4-.9-36.8-1.8-55.2-3.6-28.8-.9-57.6-4-86.5-5.2-17-1.5-33.9-1.9-50.9-3.4-19.8-1.1-39.4-3.4-59.3-4-16.4-2.4-33-1.6-49.4-3.9-15 3-40.8-9.7-49.2 3.3 7 25 11.4 50.5 18.5 75.4m770.3 287.2L2527 1255a602 602 0 0 0 57.8-27.8c1.4-6.7-10.3-8-14.8-12.5-48.5-29.7-97.7-58.5-146.3-88.1q-101.7-61.7-203.5-122.8c-7.8-5.1-15 4-22.6 6.2zm283.4 565.7c-24.6-24.3-51.4-46.3-76.2-70.4-36.7-32.8-72.6-66.5-109.4-99.3-38.3-36.5-79-70.2-117-107-31-28.1-62.3-56-92.9-84.5-31.2-27-61-55.7-91.8-83.2-6.9-4.3-23.1-29.4-24.4-10.5l-14.8 75.7c3.8 15.7 20 17.9 19.7.8 3.6-17.1 9.2-34.1 11.3-51.3 6-4.8 21.7 17.1 31.2 24.2 12.4 11.6 24.2 24 37.1 35 19.8-3.7 21.1 19.9 35.1 28q48.2 44.5 96 89.4c38 35 76.4 69.7 113 106.2a339 339 0 0 0-11.9 84.2c-2.7 20.9 0 42 18.5 55 14 20.6 32.9 36.1 51.4 51.7 12.8 7.7 14.8 24.7 28 32 5.3 2 11.7 14.5 15.8 6.8 11-10-15.6-32 6-36.3 15.2 1.2 11-11.7 15.3-18 9.2-8-17.8-19.2-22-27.6-33.8-30.6-66-63.1-100-93.4-14-7-4.7-17.4.5-26.2 4.1-8.2 10-20 18.2-7.6 21.3 18.4 40.6 39 62 57.4 29.7 28.4 59 57.3 89.8 84.7 7.4 2.7 16.4-5.4 5.5-9.8-1.5-2 4.7-4.1 6-6m-176.6-615.8c-15 4.2-29 11.5-42.1 19.7 30.7 20 62.8 38 93.8 57.8q74 44.5 148 88.6c41.3 24.8 82.3 50.1 123.7 74.7 21.3 1.7 42.4-17.5 62.7-25.9-14.7-10.3-31.5-17.8-46.2-28.3-65.7-34.7-129.9-72.3-195.6-107.1-48.3-26.2-95.6-54-144.3-79.5m303.5 724q16.8 14.5 32.5 30.3c22.4-17.4 42.7-37.7 64.5-56 13.3-12.5 28.7-23 40.4-36.9-43.4-35-88.3-68.2-132-102.9-16.5-12.4-32.3-26-49.3-37.5-7 1.5-2.9 17-4 25.2-1.4 30.7 7.3 60.5 14.4 89.9 9.4 23.4 15.8 48.8 32.9 68.2 7 7.7 12 13.1.6 19.7m-840.5-928.9c-17.5-6.5-39.5-2.8-58.5-6.9-22-.8-44-3.4-66.2-4.5-32.3-3-64.9-4.3-97.1-7.8-20-1-39.9-3.5-59.9-4.2-17.9-1.8-36-4-54-3.3-5.6 12.5 6.9 33.5 7.9 49.4 1.6 22.1 29 11.2 43.4 16.4q54 4.2 107.8 9.7c27.7 1.8 55.2 4.7 82.8 7.2 17-.6 38.4 8.5 52-.3 13.8-18.7 28.9-36.4 41.8-55.7M460 1285.2c12.4 3.7 21.4-10 31-15.7 25.6-25 56.8-42.6 84.2-65.2 10.1-6.6 23.4-14.9 35.5-8.4 19-10.5 35.1-27 56.9-32.2 4.8-7.3 34-14.4 13.8-17.8a240 240 0 0 0-47.4-11.7c-12.4-1.1-23-8-35.6-8.1-11-1.3-22.7-4.6-32.7 2.5-10.3 10.1-24 9.8-35.2 15.5a243 243 0 0 1-79.7 46.5c-5 .6-10.3 9.2-16.5 10.3-8.5-.7-13.5 10.9-22 7-18.5 4.8 9.4 17.2 11.4 27.6-7.7 9.8 19.4 18 .8 27.3-12.5 10 25.5 42.3-6.4 40.7-13.2-3.3-27.5 9.2-18 19 11.8 3.9 14.4-19.2 26-11 6.4 2.3 10.3-8.2 15.6-11.4 6-5.1 10.4-12.7 18.3-15m1462.4-497.3q7.8 39.1 18.7 77.3c16 8.9 38.4 4.7 57 7 28.3 2.3 56.4 3.6 84.6 5.5 14.7 6.6 21.2-8.2 29.2-16.7 14.7-17.7 30.1-35.3 44-53.3-21.4-6.4-46.2-5.4-69.2-8.2q-30.3-2.1-60.7-4.5c-21.6-1-43-3.5-64.5-5.5-13.2 1-26.1-3.6-39.1-1.6m246.4 278.5c-8.6-11.2-21-19.7-17-35.8 3.2-9.3 15.7-11.1 23.8-15.7 10.1-3 20.9-10.1 4-15.9-39.6-22.4-78.6-45.7-117.9-68.6-9.3 7.5-13.9 15.7 0 17.7-6.1 3.6-16.2-3.8-19.8 4.7-12.8 16-26.5 31.3-39.2 47.4 50.3 33.5 100 68 150.7 100.7 5-11.5 10.6-22.9 15.4-34.6M1414.6 854c17.7 5.8 36.8 5.7 55.2 9.1 40.2 5.4 80.2 12 120.4 16.9 17.1 2 34.1 6.2 51.3 6.8 7.4-4 11.1-13.3 17-19.5 7.1-9.9 15.3-19 21.7-29.4-43.1-3.4-86.1-8-129.4-10.8-18.7-2.1-37.4-3.7-56.1-5.8-19-1.4-37.9-3.5-56.9-4.5-14.1-1.7-41.5-9.3-29.5 14q2.5 11.8 6.3 23.2M749 1033.8c35.2 7.2 70.3 15.4 105.6 21.6 9-.2 15.8-7.2 23.7-10.7 8.7-13.6 29-11.9 38.9-25.3 7-11.6 19.7-17.4 31.4-23.2 23.7-4 39.9-25 62.5-30.7-3.2-8.6-17.3-10.6-28-14.3-13.3-3.8-26.7-5.6-39.6-10.2-11.3-2.7-21.4 6.7-31.4 10.4-5.5 3.3-10.4 11.4-17 5.4-6.4.2-10.7 9.7-17.7 10.3-15.4 8-29 20.2-45.5 26.3-11 3.8-20.2 12.1-30.4 17.7-5 6.7-13.1.5-18 6-4.6 5.8-11.7 5.6-17.6 8.4-4.8 6-13 .4-16.8 8.2zm2358 259.5c-18.1 13.5-33.5 30.6-51.3 44.7-34.1 31.1-69.6 61-103.6 92.4-45.2 38.4-88.3 79-133.5 117.4-32.7 30.8-67.9 59-100.7 89.7-30.3 25.8-59 53.3-89.5 78.8-10.4 6.7-12.8 15.8 1.3 9.2 26.3-5.2 41.1-29.7 61.5-44.6a7885 7885 0 0 1 123.6-111.3c30-28.1 61.2-54.7 91.2-82.7 30-25.8 58.5-53.4 88.5-79.2 30.4-28.4 61.7-55.6 92.4-83.6 15.7-18.2 15.7 10.9 15.4 22 .3 29-.6 58 2 86.8.2 30.7-.5 61.4 2 92 .8 26.8-1.7 54.3 3.3 80.7 17.2-2 3-25.4 6.7-37.4-.3-19 .7-38.1-2-57-.4-21.2 1-42.7-2-63.8-.3-21 .9-42.2-2-63 0-26 .1-51.8-2-77.6-.2-4.5.4-9.3-1.3-13.5M1208.7 622.5c14.3 24.2 30.8 47 46.1 70.7 13.7 3 28.2-9.5 42.4-12.4q33-12.4 65.2-26.5c-6.4-26.3-11.4-53.2-19.5-78.9-17.4.9-35.6 11.3-53.2 16.4-27 10-54.4 19.4-81 30.7M865 1062l-153.1-32c-29 16.8-60 30.2-89.3 46.2 15.4 7.1 33.9 8 50.5 12.6 34.7 7.3 69.3 15.3 104 22.1 11-1.4 19.6-10 29.5-14.7zm710.5-128.4c-1.8-9.9 4.6-36.4.3-35-2.5 9.3-4.5 29.7-4.5 9 4-18.3-18.3-14.7-30.2-17.7-11.7-1.2-23.4-4.7-35-4-5 5-1.9 14.6-3.4 21.6-6.1 16.9 14 14.7 25.3 17.2 13 .7 39.2 11.5 43.1-.3 1.7 19.5-28.4 1-40.4 3.2-18.1-1-39.9-3.7-30.3-26.8 3.4-10.2-1.7-22.6-3-5.6 2.8 15.4-.5 33.4-19.7 24-14-7.7-46.2 3.2-46.4-17.9-.4-9.5 1-19.1-1.3-28.4-10.4 9-1.9 37.3-4.6 53.6 3.4 17.3-.4 34.6 1.6 51.9 5.4 13.6 4.1-11.8 4.2-17.9.3-13.4-.3-26.9.5-40.2 18.7-2.4 43.9 5.7 64.2 8.9-1.5 22.4 1.1 45.4-4 67.3-18.4-.5-36.6-5.2-55-7-10 .4-16-5-13.6-15-.2-34 .4-68-.3-102-7.4-3.1-.9 16-1.6 23.5.2 30.7-.5 61.5.6 92 10.2 8.6 27.9 6.7 41.3 9.6 31.7 5.3 63.7 8.2 95 15.1 20-1.2 40.3 8.5 59.3 7-9.7-9.3-36-1.9-46-13.3-2-16 2-31.8 1.7-47.8l3.2-16.5c14.7 2 29.4 6.2 44.1 6.6 5.8-13.4-39.3-6.8-45-15.1m912 448.4c11.6-9.1 16.3-24.2 24.5-36.2 14-24.2 29-47.9 43-72-2.9-4.3-11.9 4.4-17.2 5.7-8.1 6.6-14.4 13.8-24.2 1.5-15.9-9.2-32.3-23.2-48.3-28.5-14.1 27.9-29 55.6-41.4 84.2 20.7 15.8 42 30.6 63.6 45.3m-534.7-329.7c28.3-34 57-67.7 85-101.9-8.8-10-30.1-5.4-43.7-9.2-14.1.6-36.4-13.4-42.9 4.8-5.5 8.9-12.8 17-12.7 28q-9.4 57-17 114.3c8.5-10.2 27.7-22.7 24.3-36-.8-4.2 5.3.2 7 0M2093.3 882c-23.7-1.7-47.6-2-71.2-4.7-19.4-1.1-39-1.6-58.3-3.9-14-3.2-24.4 2-17.4 16 3.7 13.5 5.8 27.7 10.5 40.9 5.2 5 14.7 2.7 21.7 4.5 21.1 2.2 42 7.2 63.1 8 8.3-4.5 12.7-14.2 19.4-21 10.6-13.3 22.6-25.6 32.2-39.8M785.7 1137.2c-37.2-6.1-74-15.6-111-23.5l-52.1-11.6c-5.1 11-10.1-3.9-19.3 6.3-13.5 5.5-20.2 11.9-3.2 12.8l186.1 41.3c36.2-23.3 72.7-46.2 108.7-69.8 1.2-6.6-12.2-5.7-17.3-9-6.7 1.3-12.9 7.3-19.4 10.4zm303-316.7c14.6-23 27.1-47.5 40.6-71.3-1-12.1-27.9-2.2-39.6-6.8-15.2-1.3-30.6-1-45.9-.3-11.4 15.6-21 32.5-30.6 49.2-11 9.4-11 21.8 6 20 22.3 3.3 44.5 7.6 66.8 9.6zM1876 618.1c-16.9 7.8-28.7 24.9-43.7 36.2-8.5 11.6-33.2 19.5-19.3 35.5 9.3 17.6 15.4 37 26.3 53.6 17.5-17.6 37-33.2 54-51.4-3-22.8-10.3-44.8-15.6-67.2zm-474.7 1376.6c-38.2 29.8-75.4 62-104.5 101-1 9.7 26.4 8.7 37.3 11.9 23.4 7.3 50.6-8.9 64.3-24.6-9.5-9.3-26-23.9-10.6-36 8-11 30.7-15.3 10.6-26.4-14.4-11.3 19.3-20.2 2.9-25.9m-1007.1-652c8.3-.6 14.8-8.2 22.5-11.6 56.4-33 112.2-67 169-99.4 40.5-24.4 81.7-47.8 122-72.5 4.3-8.7-12.4-14.3-17.3-4.5-15.5 8.2-30.2 16-46.2 23.6-16.7 10.9-31 25.8-52.2 21.5-21 8.2-33.3 29.2-54.8 37a476 476 0 0 0-50.3 41.4c-8.3 10.9-22.2 9.3-31.5 14.3-9.2 8-16.5 18.2-26.7 24.5-7-5.2-12-1.2-16.5 4.7-8.5 8.4-18.5 3.4-18 21m1484.2-516.2c10-6.5 16.9-17.8 25.7-26.4 3.9-6.4 14.7-10.6 11.4-19.3-5.6-24.8-11.2-49.6-17.8-74.2-5.2-19-24.1 13.8-33.6 18.8-9.6 9.7-31 19.2-17.6 35 10.3 22.1 19.4 45.1 31.9 66.1m-74.1-122.9c16 30.3 29.7 62 45.1 92.6 26.3 55 51 110.7 79.1 164.7 13.1 0-1-15.6-3-22.8-19.4-39.1-37.3-79-56-118.4-20.8-44.4-42.1-88.7-63-133.1-5.7-8.5-12 9.7-17.9 14.8-50 67.2-101.3 133.4-151 200.6l-6 11.2c13.4 7.5 21.1-21.3 31.7-29.3l136.3-179.8zm354 332.5c-4.3 11.2 12.7 15.2 19.4 21.2 67.7 44.5 136.1 88 204 132.4q69.4 44.2 138.7 89c16.5-3 .2-20.6-10.5-23.3-61.2-39-122.8-77.2-184.3-115.8a15312 15312 0 0 0-167.3-103.5M1135.1 738.8c7.7-15.1 18.5-29 23.5-45.3-2.4-10-23.6-3.9-32-6-16.4.8-40.1-11.4-51.7 2l-28.4 46.8c16 5.2 33.3 2 50 3 12.8-.2 25.7.4 38.6-.5m1114 839.1c2.8 31.4 3.7 68.2 27.7 91.4 13 15.8 28.8 28.4 43.1 40.5 13-2.3 8.3-26.5 25.3-17.3 16.7-2.7-4-17.8-11.5-22.6-11.5-28.2-40.8-38.8-58.7-61.1-8.6-10-15.3-23.1-25.9-30.9M937.4 890.7c-.7-22.7-5.7-45.2-8-67.9-1.4-8.7-2.2-17.5-3.3-26.2a146 146 0 0 1 62.7 4.7c6 6.8 3.7 18 6.5 26.6l12.7 74.9c6 3.9-.2-11.9.2-16.8l-12-82.6c11-1.8 9.4-13.7 1.8-19-14.2-17.2-27.7-35.2-42.5-52-13.6 4.1-20.6 30.8-31.2 44.1-8.7 17-21.9 32.8-26.7 51.2 6.4 17.8 4.9 50.7 16.7 59.5-.7-22-11-44.5-8.3-65.7 4.9-8.1 9-16.8 14.3-24.6 6 3.1 3.2 14.6 5.1 21.4 2.5 21 6 42 8.3 63zm420.6-13.2c0 12 1.9 24.3 1.4 36.5q1.7 26.1 2.5 52.2c2.7 17.8.3 36.6 4.9 53.8 13.5-12.5 35-19.9 28.4-42.2.2-18.9-2.7-37.5-2.3-56.4-2.7-14.3.9-37.3-4.3-46.3-6 3.9-12.2 7.3-19.4 4.3zm-31.6-302.8c-14.4-5-32.3-4.5-48.2-5.3-22.3-2.6-44.7-4-67-6-15.8 4.6-13.8 30.2-21 44-5 10.3-8 24.6 6.8 20.4 4.5-5.7 9-11.4 16.6-12.5zM1092 650.8a2456 2456 0 0 0-139.9 49c-3.4 9.2 13.2 26.6 22.2 28.8 34-15.2 68-32 101.3-48l16.9-28zm522.4 402.6c-16-5.2-33.5-5.1-49.8-9.6-22.5-2.6-44.6-9.5-67.7-9.7-26.5-1-52.3-9-78.9-10-8.7 30 36.3 23 52 27.7 42.1 7.5 85 10 126.6 19.1 3.9-6.3 10.4-10.7 17.8-17.5m-521.3-218.5c36-63.6 72.6-126.8 108.7-190.2 11.3-.6 18.7 23.3 28.2 33.2 45 66.1 89 133 134.8 198.7 12.5-4.2-11.5-23.1-14.6-33.1l-143.4-215.2c-7.4-1.8-10.2 12.4-15.1 18.5-29.6 51.6-57.4 104.1-87.4 155.4-.8 6.4-25 33.9-11.2 32.7m82.8-198.8c-20.4-2.3-40.9-4.8-61.2-6.3-13.8 12.4-22 32.7-32.1 48.7 7.3 6.4 26.6.7 38 4.6 14-3 38.5 11.7 43.6-7 4.4-13.1 8.6-26.4 11.7-40m240.3 229.1c18.4 2.3 36.8 6.1 55.5 8 33.5 5.7 67.4 7.4 100.7 14.2a513 513 0 0 1 53 9c7.7 14.5 20.6-10.2 3-7.3-54.7-6.6-109-15-163.6-22.7-21-.5-44.5-11.2-63.8-1-12.7 14.7-2.3 37.7-3.9 56-.2 20.3 3 40.3 2.4 60.6-5.9 16.5 20.6 16.4 17.7 1.1-.5-22.8 1.3-45.7-1.2-68.4-1-16.3-1.1-33.1.2-49.5m75.5 65.4c-17.2-3.6-34.8-5.7-52-9-10.7 15.4-7.7 44-4.5 64.2 17.6 1.3 41.8 12.2 55.8 5-1.4-20.2 5-40.1.7-60.2m707.4 241.1q94.5 70.7 190.3 139.6c9.3 1.2 12.3-15.9 1-18-58.9-41.7-117.4-84.2-176.6-125.7-10-6.2 1.5-16.8 3.4-25.2 5.2-13 12.2-25.7 15-39.1-9.5 4-12.4 24.8-19.2 35.4q-7.1 16.5-13.9 33m-185.3 57.6c-10.5 9.6-20.8 20-24.6 34.3-11.7 10-8.5 24.4-12.8 36.8-16.8 19.4 13 41.1 28.5 23 12-15 14.6-35.1 21.2-52.8l8.3-26.9c-1-12.2-10-16-20.6-14.4m-102.3-333.6c7.4-10.4 24.8-17.6 24.6-31.2-6-23.2-10.9-46.7-17.3-69.7-3.8-5.8-10.4 8.4-15.5 11.5-9.4 12-30.6 23.9-16.7 40 8.6 16.3 14.7 34.2 24.9 49.4m362.4 594.7c35.2 34.4 72.2 67 107 101.7a330 330 0 0 0 29.5 26.4c13.6-.6 16.3-9.8 4-16.7-38.7-36-77-72.5-115.7-108.5-9.9-8.3-18.4-25.3-24.8-2.9M1620.5 952c-13.6-1.7-27.3-5.3-41-6-7.7 12.6-1.6 29.6-6 43.8-5 14.8 4 21.3 17 20.7l26.1 4.2c5.3-18.4 4.9-40.3 4.1-60zm-841.8 166c-10-7.3-23.5-6.8-35.2-10.4-40.6-8.4-81-17.9-121.7-26-15.4 5.7 3.2 21.7 15.1 19.6 46.7 10.9 93.7 20.4 140.4 31.2 7.8 1 .8-10.2 1.4-14.4m1566 107c6.3-13.4 14.4-26 17.9-40.6l-43.7-28c-14.9-.7-11.2 32.2-21.8 37.8 14 12.2 31.4 21.6 47.7 30.8M1070.4 689c-5.4-1.6-12.4 5.2-18.4 6.8-26 12.4-52.5 23.8-77.5 38 8.8 13.9 21.5 30.9 37.2 14.6 12.9-8.4 31.5-11.6 38.8-26.5zm-652.8 730.7c14.6-7.1 28.2-17.9 42.4-26.4a40190 40190 0 0 0 261.6-170.8c4.7-12-18 7.4-23 9.4q-109 69.8-218.3 139.2c-21.1 14-42.8 27-63.8 41.2-.3 2.3-1.3 5.7 1 7.4m586.4-487.2a223 223 0 0 0-75.7-15.2c-12.8-9-25.1-8.8-39.5-12.5-18-7.7-8.8 5.4-8.4 17.6 21 4.8 41.6 11.4 63 14 19.8 2.7 42 18.8 59.7 12.2 4.2-5.8-4.2-10.6.9-16.1m1161.7-127c30.4 17.5 62.8 31.8 94 48 8.7-3.3 15.7-32.6 8.4-40-31.3-2-62.6-4.7-93.8-7.2q-4.3-1.3-8.6-.7M1693 1079.4c6.7-11.4-1.6-44 10.1-47.9 14 2 32.1 0 24 19.7 1.5 10.2-7.5 31.5 1 35 7-15.3-3.6-45.3 12.7-50.8 8.7 4.4 26.6-.9 30.8 6.4-2.2 17-5.5 34.4-5.8 51.3 8.4-10.4 3-42.3 13-52.6 13 4.2 46-3.9 40.6 16.6-2.3 10.3 8.4 32.6 4.4-10.4 6.5-3.5 35.4 6.2 29.1-4.9-21.2-3-42.8-3.9-63.8-8.4-13.8 3.4-13.5-7.2-12-17 4.6-9-1.6-22.7-2.2-6.8 1.6 17.8-7.4 26.7-24.6 18.5-19.7 3.8-16.2-13.1-13.5-26.6 1.2-8-5-7.6-4.4.8-2.1 12.6.8 30.2-18 21.9-27.4 6.6-5.7-25.1-16.3-35.6-6.1 17.2-1.8 36.6-4.7 54.6-.9 11.6-4.3 25.3-.4 36.2m-397.1-32.5c-16.3-10.5-22 10-10.7 17.8 24.9 7 50.7 7.3 76.1 11.5 15 5.7 34.2 2.3 24.7-17.1 3.3-11-17.9 0-26-7.7-21-3-42.6-6.9-64.1-4.5m874.9 104a1568 1568 0 0 0 29.3-70.2c-12-11-30.3-21.8-33 2-4.9 17.3-18.9 35.4-19.5 51.3zm-819.3-314c8 12.8 17.2 32.8 28.5 38.5 8.6-8.5 29.1-12.7 28-26.4l-7.8-34.1c-9-2.4-16.7 5.9-25 8.8-7.7 4.5-17 7.3-23.7 13.1m143.2 48c-9.7-5.3-21.8-4.5-32.5-7.1l-25-4.1c-1.5 11-9.1 37 7.6 37.8 15.8 1.8 31.4 5.2 47.3 7.2a91 91 0 0 0 2.6-33.8m945.7 350.6c-12.7 16.4-18.2 37.9-29.1 55.7-7.6 18.2-24.9 40.8-25 56.7 16.3 16.7 20.6-21.4 30.1-31.7 11.9-24.4 26-47.8 36.4-72.7a30 30 0 0 0-12.5-8m-49.6 21.6c9.8-17.2 33.7-43.9 3.2-52.4-10.5-9.6-23-15.7-26.6 2.4-3 10.7-20.3 27.6-3.5 33zm-617.2-163.8c14.3 5.8 42.7 19.3 38.4-7.8 1.5-17.3 12.3-44.4-15.4-40.1-27.6-8-19.5 32.1-23 47.9M993 843.2c-2.8-12.2-3.4-25.1-7.8-37-17.6-1.5-35.5-7.4-52.9-3.6-1.8 17-1 39.5 22 35 5.8-2 2.3-20 5.2-3.3.2 7.5 3.7-18 3.7-2.9-2.4 13 11.4 7.3 17.4 12.6 3.4 2.3 9.1 1.6 12.4-.7M2511 1357c7.4-2 11.5-10.8 17.5-15.9 10.5-11.5 22-22.3 30.3-35.6 16.6-13 28.6-31.8 44-46.4 8.7-6.9 15.8-22 1.7-12-16.2 9.8-38.6 13.4-47.4 32a1288 1288 0 0 1-36.5 61.2zm-107 262.2c-40.2-39.4-82.6-76.7-122.4-116.5l-14-11c-19.5 2.9 2 12.5 8.2 20.8q58.3 53.9 116.4 108.3c3.5 3 8.9 1.4 11.7-1.6m-136.6-495.1-16.3 39.5c13.2 5.3 34.7 35.3 40.7 10.6 6.8-13.6 17.3-30.7-2.9-37.1q-10.6-7-21.5-13M1100 994.7c26.2 13.4 56.7 15.2 85.7 16.8 8.4 7.5 40.3-13 19.4-12.7-10.7 2.2-37.5-11.6-36.8 4.2-1.6 4.3-25-5.8-8.2-2.8 14.1-13.6-33.8-1.5-25.4-17.2 3.9-34.3-25.8 6.2-34.7 11.7m-60.4-176.4c5 38.6 10.3 77.1 14.9 115.8 24.7 4 49.9 6.5 74.5 10.2 2.8-15.6-27.4-8.5-38.5-13.2-11.7-.5-32.6.5-30.3-16.2-3-26.2-7.2-52.4-8.9-78.7-2-13.7 13.3-6.8 21.2-6.9 12.4 5 15.4-8.1.4-6.4-11.1-1.7-22.1-3.8-33.3-4.6m217.8 1322.1a668 668 0 0 1 130.8-140.3c17.1-9.1-4.3-19.2-10.8-5.6-36.9 28.2-64.5 66-95 100.5-7.9 13.6-30 33.6-26.8 45.1l1.1.2zm-59.2-1118.3c-23.1-6.8-47.2-9.3-71-12.2-11.5-1.3-32.3-16.4-25.6 3.2-3.3 23.6 30.5 9.3 42.4 17.9 18.2 3.2 34.1 3.4 52 7.3 2.5-5 4.3-10.8 2.2-16.2m623.5 81.5c14.3 8 34.8 8.7 30.9-13-.2-14.8 11.3-45-14.2-39.8-20.7-6.8-12.5 23.7-16.4 36-.7 5.6-2.7 11-.3 16.8m-242.2-205-1.2 32.5 3 1.8 37 6.2c5.8-2 8.3-13 7.5-18.4-6-7 7.9-19.8-8.6-18.4-12.4-1.2-25.3-7.2-37.7-3.7m373.4 35.2c-5-18.8-8.9-38.1-14.8-56.5-14.7 8.6-33.7 25.8-16.4 43.4 8 10 14 49.1 26.4 22.4q2.7-4.5 4.8-9.3M871.4 1082c-.3-15.6-8.1-17.4-18.1-8.6l-65.8 38.3c-7.7 7.2-2.2 25.4 8.2 14.4zm76.1-365.4c20.4 23.7 39 49 59.4 72.7 9.2-2.2-1.7-11.6-5.3-16-18-20.7-34-43.3-52.8-63.3-10.6.8-15.8 22.6-23.9 32.1-19.4 32.6-39.4 64.8-58.8 97.4 15 5.7 17-19.5 25.3-27.8 17.3-29 33.4-59 51-88q2.7-3.5 5.1-7.1m592 1192c-30 7.4-55.8 25.4-82 41.2-30.5 19.4 71.9-10.5 45.3-7.3 12.3-9.9 46.5-9.4 45.5-25.8a56 56 0 0 0-8.9-8.2M2600 1231.7c-20.3 3.3-37.7 16.3-56.6 24-13.1 3.4-13.7 24.2 1 13.7 18.7-6 35.5-16.8 53.5-24.5s35.6-18 45.8-35.3c-5.4-3.3-13.8 5.4-20.4 7.6-7.9 4.6-17 7.6-23.3 14.5M997.3 1075.4l-223 148c5.8 10.9 14.2-2.5 21-5.2 67.3-46.2 134.2-92.8 201.8-138.4 2-1 1.1-3.2.2-4.4m-131.8-16.3c18.2-4.5 33.4-17 49.9-25.8q53.8-31.6 108.1-62.3l9.9-7.3c-25.5 1.4-44.3 18.9-66.2 30-20 6.4-38.7 15.6-51.5 32.3-14.1 10-29.1 15.8-41.8 25.5-4.8-.1-5.7 4.8-8.4 7.7m894.6 35c2-16 9.7-38 3-51.2-16-6-30.8-3.7-27.3 16.4-.4 11.3-9.1 31.8 8.4 32 5.3.9 10.6 4.4 16 2.9M1010 815.6c5.4 10.2 16.2 16.7 15.1 29.4 3.5 21 5 42.2 9 63.1 16 14.7 12.3-7.4 10.4-16.6-3.2-24.3-5.6-48.7-10-72.8-7.2-3-17.6-5.3-24.5-3.1m1179.5 719.8c22.8-18.8 53.7-58.4 59.5-84.1-11.4-3.3-20.5 1.5-23.8 12.5l-36.2 65.5zM978.1 1062.7c44.2-28 87-58.3 131-86.4 11.1-2.5 30.2-19.1 6.3-14.8-9.5-1.6 5.6 12.2-7.9 8-45.5 29-90.4 59-135.6 88.3-8.7 3.7 3.5 6.2 6.2 4.9m1322.2 682.9-16.3-21.1c-10 3.1-28.1-3.3-17.8 13.7 5.7 11.3 4 38 18.5 39 2.8-5.3 13.6-9.4 9-16-.2-5.4 9.4-8.4 6.6-15.6m-478.1-739.7c-15.6-2.8-45.8-16.2-41.3 11.8-3.8 14 10.3 11.6 19 13.7 14.4 5.6 25.3-2.5 23-18.7l-.1-3.3zm-191-84.5c.4 23.8-4.9 47.3-4.5 71.2-2.2 9.7-1.2 19.7-1.4 29.7 20.8 7.7 8-26.9 12.9-39 1-18.6 3.2-37.2 3-56 1-6.5-4.1-10.3-10-6m66.3 158.4c11.4 5.6 28.3 11 24.8-8.4 1.2-15.2 8.8-39.1-15.5-35.3-12.7 3.2-4.6 32.6-9.3 43.7m507.9 5.3c-13.3 30.9-28 61.2-40 92.6 16.2 15.7 17.9-23.4 26.1-33.2 5.4-18.4 19.6-40.3 18.5-57.3zM1203.9 648.7c-33.8 59.7-68.5 119-102 178.7-1.4 10.7 17.1-2.7 12.4-12.7 29.4-52.4 60.8-103.8 90.3-156.2 2.5-2.3 4-9-.7-9.8M1740 1024c14.2 3 35.6 7 32-14.7 8.3-16.2-30-21.5-31.8-8.8a56 56 0 0 0-.2 23.5m-952.6 142c-24.3-3.2-47.9-10.8-72.1-14.6 2 6.4 27.4 6 38 10.3 15.3.8 32.5 13.2 46.3 4.5 33.1-23.3 67.9-44.3 100.6-68.1-5-6.5-24 13.3-34.2 17.5-26.3 16.7-52 34.3-78.6 50.4m1039.9-132.3c15.6 6.1 37.1 8.7 32-14.5.3-12 5.4-27.7-27.4-12.4-5 8.2-1.9 18-4.6 26.9m-573.2-44.4c13.1 2.7-3.2 6.5 12.2 7.6 13.4-4.5 5.3-29.6 5.3-42.2-10.9-5.1-24.9-6.4-19.4 8.8zm-17.7 3.2c-3.3-22.3-9-47.6-4.5-69.3 10-6.4-3.7-12.2-6.1-6.6 2.2 19.3 2.2 39 3.6 58.4 3 15.3-5.5 46.7 16.7 47.4 11.3 2.1 23 7.4 34.2 5.6 3.4-7.7-11.9-5.2-17.2-8l-26.9-5.7c-8.8-27.9 21.7-11.6 35.9-11.5 4.9-1-12-3.7-16.6-5.4zm949.5 184.8c15-10.5 17.6-31.7 26.1-47.2 1.4-11.4 20.9-29.1 7.1-37.2-10.1 13.2-15.3 35.5-22.7 52.5-3.7 10.5-7.8 21-10.5 32m-276.7-76.2c14.3-17.6 9.8-44 15.6-65.6 3.4-23 7.3-46 10-69-7.4-3.4-6 13-7.7 19-6 38.5-12.4 77-18 115.6m130.7 150.4c-6 23-18 44-24.7 67-3.6 12.4-9.8 24.4-11.7 37.2 12.1-3.7 11.7-18.7 16.4-28.5l24.4-71zm-336.1-233.3c15.8 8 30.1-.3 25.3-18.5 1.3-13-28.7-15.9-24.5.8-.5 5.9-2.4 11.8-.8 17.7m707.4 255c8.7-12.5 14.7-27.2 21-41-14-21.2-22.9 17-29.9 27.6-5.8 7.3 5 10 8.9 13.4M1013.7 780.9c7.2-12.3 23.7-32.6 23-41.3-12.9 7.4-27.5 12.3-39.2 21.6 5 7 10 13.9 16.2 19.7m399 246.9c-16 8.5-29.5 29-17.5 44.6 6.8.8 29.3-25.3 16.6-25.4-7.3.7-14.7 16.6-8.6 1.2 11.1-4.4 11.7-10 9.4-20.4m581.8 316.5c-12.6 4.2-30.1-9.6-37-5.3-11.4 23.7 36.5 30.8 37 5.3m-797.6 907c14.1-7 28-15.7 42-23-10.6-10-23-24.7-28.5-2.2-4.3 8.5-8.2 17.3-13.5 25.2m94.3-1324c4.3 24.4 7.6 49.5 5.7 74.3-3.6 6.3-17.9 3.3-2.6 6.3 15 17 7.1-21.6 7.8-30.6-2.9-17 2.3-35.3-4.3-51.4-3.6-3.6-17-2-6.6 1.4m-9.5 68.4c11.1 12.7 14.2 2.6 11.8-8.5-.9-10.2.9-20.7-1.8-30.6-22-9.3-7.7 24-10 36.9v1.1zm668 176.3a1537 1537 0 0 1-23.1 96c8.5.7 9.5-27.8 14.7-38.9 4.2-18.1 11.3-36 13.1-54.4-.5-2-3-2.7-4.7-2.7M1242 1009.3c12.3 4.8 26 6 39 9.4 15.2 4.9 16.9-9.4 2.5-8.8-14-2.4-27.8-8.8-42-7.4zm48 1127c3.8-12.8-7.9-32-15.9-12.2-6 6.9-18.6 22.3-.1 18.1 5.7-.4 11.4-2.3 16-6m-341.7-1411Q912 781 880.7 839.6c17 1 7.1-11.8 13.7-19.5 17.5-30 36-59.6 52.3-90.3.2 1.6 1.6-6.2 1.6-4.5m65.4 164c19.1 14 11.4-23 5.6-30-19.6-11-5.6 22.3-5.6 30m213.1 130.9c3.1-12.3-3.9-23.8-13-10.9a13.5 13.5 0 0 0-5.8 20.1c6 7 12.3-6.1 18.4-9zm732.5 168.2c15.3 11.6 32.8 35 48.7 37.2-4.5-9.1-16.3-15.4-23.4-23.9-6.6-6.2-12.6-13.1-19.8-18.5zM1021 851.9c1-12-5-22.4-12.8-30.9-7.6-13-5.2 2.1-3.9 9.3 1 9.8 2.3 26.6 16.7 21.6m1563.7 872.6c-8.2-7-15.3-15.8-24.4-21.4-2.2 9.5 9.3 26.8 15.8 36.2zM1271 923.9c-11.9-3.7-29.3-5.6-19.6 12.7 5.3 4.4 13.8 3.6 20.4 6zm1184.3 332c-15.2 26.8-29.3 54.3-43.6 81.7 12.4-4.2 18.2-28 26.6-41.7 5.1-13.3 16.4-26.4 17-40m-1275-339.5c-1.8 13.2 2.6 26.6 2.7 40-3.2 8.5 9 22.6 7.8 6.2-5.7-12.6 4.7-41.3-10.5-46.2M927 873.5c-.1-11.4 2.8-32.3-12.4-31.6-4.7 3.8 1.1 14.1.8 20.7-.2 6.4 4.5 12.1 11.6 11m1124 403c-6.2-13.7-10.3 20-15 25.1-4 13-17.4 40.9-13.4 45.8zm-868.3-643.2c-3 10.5-15.2 39-10.3 39.8 7-13.4 15.3-26.6 21.4-40.2-2.2-2.8-8.2-1-11 .4m-3.7 335c-3.7-17.1 1-40.9-8.6-53.8-1.3 15.5-1.2 41 6.2 54zm817.7 365.3c-7.5-1.3-16.6 1.6-21.9-5.4-2-3.4-13.2-5.6-11.4 0-3.5 14 29.8 17.5 33.3 5.4m-909.1-484.3c11.1.9 32.2 2.7 18.2-11.8l-23.3 2.6c-3.5 8.3 2.9 2.3 5.1 9.2m149.9 96.2c.7 14.6-2 29.7 2.5 43.8 13-.7-.6-29.9 2.9-40.7 1.5-4-3.6-2.2-5.5-3M728 1221.8c11.6 2.4 32.3 14.4 38.7 8.4-8-8.3-31.8-16.3-38.4-11.6zm1038.2 1073.7c-6.9-8.5-25.8-15.7-16.6 2.2 4 20.3 11 12 16.6-2.2M1106.2 964c-11.9-8.7-34-9.7-50-13.9-18-1.8 13.1 11.8 17.4 9.2 10.8 1.3 21.8 5.3 32.6 4.7m1172.6 510.6c-12-22.3-31.2 33-7 10.4zM910.4 832.3c14.5 9.8 13.3-4 11.1-14 .5-20.7-14.3 6.9-11 14m897.4 1015.2c-15.1-9.3-15 31.2-3 17.5 5-2.1 3-12.4 3-17.5m3-6c5.8-8.5 16.7-12.5.5-11-15.2-4.2-16.7 17.6-.5 11m-529.4-916c-12.8 13 17.4 27.7 7.8 7.4a24 24 0 0 0-7.8-7.3m505.8 1185.2 5 21.2c11.3-10.8 7.4-17.7-5-21.2m109.1-315.9c-12.4 10.8-.8 17.6 9.5 7.5 6.8-4-8-5.6-9.5-7.5m-861.1-845.7c-7.2-6.5-37.3-5.4-19.7 2.6 6.5-1.2 13.8.8 19.7-2.6m779.5 910.9c18.8 5.7 1.5-25.3-1.3-6.7v3.2zM1232.4 2186c13.8 6.8 14.5-14 3.7-8.3a29 29 0 0 0-3.7 8.3m8.8-1266.6c-10 5.8-3.8 30.4.3 12.5.2-4.1-.2-8.3-.3-12.5m-225.4-18.7c-2.5 7.1 13 11.4 11.2 3.6.8-4.3-8.8-5.5-11.3-3.6m2086.1 687c-13.9 5.4 3.6 25.2 1.8 8.1-.4-2.7-1.8-5.4-1.8-8.2m-2173.5-707c-24.5-3.7 5.9 20.4 0 0M1992 1691.2c-10.4 11 3.2 13.6 7.7 3.2zm-806.8-778.4c-1.5-7.4-29.6-8.3-20.4 3.7 0-10.3 8.9-5.5 15.5-4.6zM2285 1790c2.7 18.6 11 3.6 5.4-2.5zm-599.4-714.4c7.6-5.9 2.1-43.9 1.7-19.4 0 6.5-1.2 13-1.7 19.4m-499.4-93.4c-.8 22.7 17 2.2 0 0m-12.3-2.3c-1.4 14.2 13.6 10.7 3 0zm1159.7 723.7c13-2.1 5.7-15.2 0-3.2zM1012.2 959.1c9 7.2 15.7-9.4 2.5-2.3zM2177 1549.5c-9.3-1.5-19.8 1.7-8.4 6zM1029.4 960c10.6 5 20-6 3.2-2zm1130.4 595.2c-15 16.8 8.3 12 0 0"/></svg>