<svg xmlns="http://www.w3.org/2000/svg" fill="#0a0a0a" viewBox="0 450 3300 2186"><path d="M2167.5 775.6c26.8.2 53 7 79.8 8.6 32 3.2 63.8 9 95.9 11.8-1.7 4.6-26.5-2.8-37-2.1q-65-8.5-130.1-16.1c-3-.4-6.5.4-8.6-2.2m414 305.8c-13.9-1.7-26.4-1.8-36.2-10.4-2.5-18.8 39-22 34 1-1.6 3.4 1.2 6.4 2.1 9.3m-16-18c-.3-10.2-8-3-8 3.4 3.2 5.6 24 1.4 15.4-4.1zm-31 32c14.6 9.5-21.6 15 0 0M2067 988l-4.1 19c-6.7-6 .4-13.7 4-19m-970.6-190.3c7-8.8 12.5 6 19.3 3.6 18.2 14.4-16.3 26-21 13.2-2.5-6.7-1-23 1.8-6.3 2.8 23.8 16-11.3 2-10.8zm25.2 29.5c2 9.3-11.1 24.2-9.5 6.3-1.4-5-.1 24.7-13.2 14.3-10.7-17.5 7.2-26.5 22.7-20.6m-22.8 5.7c-4.6 15.2 11.8 13 7.2-.7-1.4-4-4.9.3-7.2.7m-8.4-2.2c6.3 9.7 1.7 31-8 12.3-4.3-6.8.4-12.4 8-12.3m-9-7.7c-6.3-10 11.8-28.4 9.2-8.8 1.4 6.7-3.2 9.6-9.2 8.8m573.7-97c12.6 5.2-2.9 21.8-.7 3.4zm948.4 181.5c-19.7.4-38.9-3.8-58.6-4.7-9.3-2.2-27.6-1.3-8.5-3.3 21.4 2 42.7 5 64.2 6.2 0 .3 3.6.8 2.9 1.8m-333.8-183.9c19.2.2 38.1 3.4 57.1 5.5 4.6 1.1 25.9.4 6 2.5Q2302 728 2271 725zm165.9 18c-19.5-.4-39-3.2-58.3-5.4-4.5-1.2-24.4-.4-4.9-2.5 20.6 2.2 41.3 5 61.8 6.7zm257.2 26.6c-18.2 3.8-36.3-3.5-54.7-3.2 18.1-3.8 36.4 3.6 54.7 3.2m-713 115.3c-16-.3-37.7-2.8-48.5-7.8 16 3 33.5 2.6 48.6 7.8m148 20c-14.6-.3-30.4-1.9-44-6 14.4.4 30.6 2 44 6m325.8 44c14.6.3 30.4 1.9 44 6-14.6-.4-30.1-2-44-6m-441.7-251.8c-9.2.5-33-1.1-34-4.2 11.1.4 23.9.6 34 4.2m515.6 261.8c-7.7 1.6-43.7-5-19.5-3.8 6 1.9 14.4.3 19.5 3.8m-221.8-30c8.7-1.4 39.7 4 17 3.8-5.5-1.5-12.6-.4-17-3.8M2810 1162c-3 4.8-15.8-9.6-8.4-11.3 5 1 5.6 7.8 8.4 11.3m-481-162.3 90.3 12.6c6.6 3.5.7 14.7-2.3 19.3-20.3-.7-41-3.7-61.4-5.6-9.8-.5-20.2-3.6-29.8-1.8-11.6 8.5-5.5-20.7 1-22.6zm-.5 13.8c19.8 5.8 41.5 4.2 62 7.7 7.8 4.7 28.6-1.3 13.5-7.3a1496 1496 0 0 0-71.6-9.8c-4.8-.8-5.1 6.6-4 9.4m17.1-216c25.3 0 49.9 6.7 75 8.1q50.9 7 101.6 12.8c-9.6 3.2-32.9-3.3-47.8-3.6-39.5-6-79.4-9.5-119-15-3.2-.5-7.4.7-9.8-2.2m90-55.9c20 .3 39.9 3.7 59.8 5.3 6.5 2.4 33.5 1.9 29.2 4.7-20-1-40-3.6-60-5.7-9.2-2.9-20.7-.1-29-4.3m168 165.9c20.8 0 41.5 3.8 62.3 5 8.8.8 21.3 2.9 5.7 3.1-22.3-3.5-46.8-3.3-68-8.1m-1753-161.8c7.3-3 29.7-8.7 29.8-4.4-10 1-19.7 5.2-29.9 4.4m-305 451c-5 14.7-23.1 7.1-33.3 14.3-18 9-46 6.8-63.3 14 9.6-19.7 47.6-9.5 64.5-20a90 90 0 0 0 32-8.2m167-13.4c-10.7 2.6-25.8 19.8-6.3 20.4 12.3-1.2 4.4 28.8 0 8.4-11.3-3.2-18.1-13.5-17-20.4.6 0-114.6-13.9 9.9-5.9zm-163 64.5c-1.3-5.8-11.3-16.6-.9-18 2.4 5.3 10.6 10.1 6 16.3-.5 4.2-2.2 2.5-5 1.7m359.3-136.7c-6.8 7-33 10.4-12.2 3 4-1.5 8-2.8 12.2-3m-89.1 46.8c7.4 12.3-43 13.6-15.6 3.9 5.1-1.6 10.4-2.6 15.6-4m109-28.8c-7.5 7-26.5 10.2-32 9.4 7.7-6 21.9-4 32-9.4m651.7-343.7c-8.3.8-37.4-17.8-16.6-9.1a70 70 0 0 1 16.6 9.1m-34-16c-8.8.6-32-15.5-12.1-7 4.2 2 8.7 3.8 12.1 7m-575.7 102c-8.2-1.8-28-27.5-11.7-12.3zm577.8-40c-9.4-.8-33.2-18-11.7-8 3.9 2.6 9.2 3.9 11.7 8m-374 249.7c-2 9.7 8 27.4-7.4 28.3-6.7 1-13.8 6.5-20.2 1.9 4.6-23.1-26.7-66.9 20-59.8 5.9 8.8 3.6 21.2 7.6 29.6m-5.3 24.2c3.7-9.9-5.4-18.6-.7-28.6-9.7 9.4 5-17.1-9.4-9.4-12.6 2.7-3 23.5-1.1 32.4 20.3 1.1-13.7 8.5 2.7 7.9q4.3-1 8.5-2.3m-5-49c-7-3.4-27.7 5.9-10.5 7 6.5.2 9.2-.8 10.5-7m-11.7 46.4c.5-9.8-1.7-32-5.4-32.9-1.2 11.3 3.4 22.1 5.4 33m15.2-84.9 2.6 21.7c-14.4 8.8-41 13.4-35.6-12 4.1-9.3 23.6-9.2 33-9.6m-7.6 17.6c-1.4 4.8-13.3 1.3-13.9 8 10 6 30.7-13.8 15-22.4-8.6-.9-26.2 8.4-8.8 4 16.9-2.6 1.5 2.2-5.2 6.3-2.5 7.8 8.9 2.6 13 4.1m-18.4-6c-9 6.3 5.5 18.7.6 3.3zm-33 3.8c0-13.6 28.4-13.5 23.6 3.4 4.8 12.2-5 16.3-14.2 19.5-5.9-6.6-1.7-17.2-9.5-22.9m18.8 15.5c5.8-10.1-5.5-27.1-2.2-6.9-.7 2.4-.3 5.6 2.2 6.9m48-13.3c0-6.5-9-25.1 5.8-16.8 11.7 5.4 12 25.7-5.8 16.8m13.8-27.5c9 14.8-12.2 9.2-7.7 2.2 2.3-1.6 5.1-1.6 7.7-2.2m-363.8 92.5-8.9-46.4c14.4-4.5 36.3-14.3 48.2-9.2q4 21.7 5.4 43.7c-13.9 6.9-29.6 9-44.7 11.9m1.9-9.1c12.3-3.6 39.2-2.4 33.3-20.9-2.8-8 2.5-30-11.1-22.5-9 2.8-18.6 4.6-27.3 8-2.3 5.4 1.8 13 2.1 19.3zm-258.6 50c-13.4-4-8.7-25.9-14.2-37-1.4-13.6 22.8-13.6 33.5-14.1 3.3 13.6 10.4 28.8 9 42.1-8.8 2.3-19.8 3.5-28.3 9m-.6-8.4c11.2-2.2 29.8-5.8 21.7-20.4q-2.1-9.6-4.6-19.2c-11 1.4-32.2 3.3-23 18.2zm1094.7-289.6c-12.9 9.5-28.2 4-24.5-13.5-1.4-15.5-3.6-37.6 19.1-33.9 10.2.8 5.5 14.5 6.5 21.7-.6 8.5 1 17.5-1 25.7m-8.3-42.2c-20-2-10.8 23.6-9.6 35.4 7.9 6.4 15-6.1 11.2-15.7 0-6.6 0-13.2-1.6-19.7m35 30.9c-3.2 15-27.6 15.8-19.4-3 1.2-14.3-6.3-39.4 15.7-38.8 6.6 8.6-.2 29 3.7 41.8m-8.4-.8c-.6-9 7-36-5.8-33.7.8 9.3-6.1 37.4 4.7 34.3l.9-.5zm-1029.6 251c16-9.8 28.2-1 29.2 15.2 4.4 12.5 8.8 28.7-10.3 28.6-16.9 3.2-11-26.5-17.6-38l-.6-2.8zm22.4 1.7c-14.2-5.1-20.8 4-13.5 16.6.9 12.3 9.5 30.7 19.6 14.4-1.4-10.4-5.7-20.4-6.1-31m272.1 79c-9.5-7.3-7-23.4-.8-8.3 9.3 3.4.4 22.6.8 8.3m1323.5-439.5c-20-.2-39.6-4-59.4-5.3-22.4-2.4-44.7-5.7-67.1-7.1-23.7-2.9-47-6.2-70.8-7.7-20-3.3-41.6-3.4-60.6-8 20 .3 39.6 4 59.4 5.4q57.3 6.6 114.7 12.4 41.5 4.8 82.6 9.2zm36 203.8c-24-1-47.6-6-71.4-8.8q-52-7-104.1-13.5c2.9-4.5 28.8 3 40.5 2.8 40.7 6.3 81.7 11 122.5 16.7 4.2.6 8.8.3 12.5 2.8m-221.9-30c-24.9-.7-49.3-6.4-74-8.9-7.3-1-42.4-4.9-20.5-4.8 30.7 3.8 61.3 8.6 92 12.1.4.6 2.5.7 2.5 1.6m443.8 60c22.2.8 44.3 5.3 66.4 8q17.6 2.4 35 4.4c-17.8 3.5-39.8-5.2-59-5.4-13.3-2.5-27-3.4-40.3-5.9zm-74-10c-24-1.1-47.7-5.9-71.6-9-12.9-1.5-44.9-4.5-14.3-4q42.3 5.6 84.2 11.9zm74-195.9c20.2.3 40.2 3.8 60.4 5.6q15.4 1.7 31 3c-17.6 3.7-35.1-3.1-52.7-3.1q-18.8-2.5-37.4-4.2zm-1825 80c6.9-2.9 30.6-9 29.8-4.3-10 1-19.6 5.3-29.7 4.3m971.4-85c-15.7 9.9-34.2-8.6-26.4-24.9 1.3-13 14.4-34.1 29.4-25 6.9 1.6 11.2 9 13 15.2 1.8 13.6-5.9 26.3-16 34.7m-23.2-23c-5.2 14.4 13.6 30.3 23 14.2-17.3 5.7-12.8-18.5 1.6-15.2 1.2-10.2-15.6 2.4-11.4-12.8-2.5-10.6 21.7-7.2 6-11.5-20.5 2.9 3.8 24.6-19.2 25.3m-488.4 453.7c8.9 4.1 17.3-2.4 26-4.4 7.5-3.2 28.8-8.3 11.4-1l-32.8 11c-2.6-.5-3.6-3.6-4.6-5.6m150.5-88.9c-9.5 1.7-31.3 9.6-34 5.3 9-9.3 22.7-5.2 34-5.3m115-70c6.2-7.7 31 6.5 11.4 1-3.6-1.7-7.6-1-11.4-1m228.4-20.5 23-1.3c-5 4.7-18.7 3.3-23 1.3m-260.9 29.9c-6 6.7-13.8 9.4-3.3-.4 3.8-6 14 4.5 3.3.4m156.8-328.1c-9-1.3-27-10.4-28.2-14 9.9 3.3 19.6 8 28.2 14m42 20c-8 .6-32.3-15.1-12.7-7.2q6.4 3.5 12.6 7.2m-48.1-96c-9.7-.5-32.4-10.4-10.7-5.2q5.8 1.9 10.7 5.2m58.1 20.8c10 .1 26 11.3 6.8 3.8l-3.6-1.5zm-58-20.8c9 .7 31 10.2 10.5 5.3q-5.7-1.8-10.5-5.3m46.9 18c-7.3-1.3-27.9-10.7-10.2-6 .7 2.1 15 2.4 10.2 6M581.6 1003.3c-25 5-51.1 20.8-75.9 22.2-11.6-13-2.2-36 11.4-44.7 18.2-11.3 43.3-5.7 58.4 8.5 2.4 4.5 5.3 8.8 6.1 14m-76.9-1.6c14-3.8 25.7 11 37.7 7 4.8-2.8 15.9-1.2 13-9.2 6.2-6 7.3-26.3-2.4-13-3.6 10.8-11.4 18-15 4.5-1.8-8-13-18.2-6.6-2.6 5.6 8.9 9.6 20-5.5 12.8-6.5-.5-19-9.9-21.2.5m9-9.5c8.8 4.8 24.5 7.5 13.3-5.9-3-7.7-11.3 3-13.3 6m29-1.3c10.2-6.7 3.2-15.9-5.5-9.7 1.1 3.5 2.6 7.4 5.5 9.7m-20 18c-6.4-8.9-20.8 3.1-8.6 2.8zm818-91.1c20.2-2.8 45.6-10.7 62.7-9 2.8 23.5 2 47.4 4.2 71 2.5 11.4 4.8 20.9-10 21.9-15 4.6-31.1 9.1-46.7 6-7.6-17.6-1.7-39.8-7.4-58.5-1.1-10.5-.7-21.1-2.8-31.4m49.3-3.6c-13.9 4-36.1 1.2-44.4 10 3.9 22.9 3.5 46.2 7.7 69 11 6 33.9-1.7 44.5-7.7-1.6-21.2-6.2-42.5-5.8-64q-.2-3.8-2-7.3m-34.9 89.6c12.5-1.3 24.5-5 36.8-7.3-11.4-1-22.6 2.4-34 3.5-2 0-3 2-2.8 3.8m41.1-69c4.7-7-2.3-32.6-.1-14.6.3 4.7.1 10 .1 14.6m18.1-29.9 26.9-3c5.8 12.3 2 29.9 4.9 44.3l.4 42c-15.3 8-30.2 5.5-28.5-14.4a371 371 0 0 1-3.7-68.9m4 6.3q2.5 34.8 6.9 69.3c22.5 9.2 10.6-22.2 12.3-34.8-4.6-13.3 6.8-47.1-17.2-36zM882.4 739.7c16.4-6 34.4-7.5 51.6-11.2 9.5-2.6 16.7.7 2.7 2.3-18 3-36 8.5-54.3 8.9m-147.9 85.8c6.8-2.8 30.5-8.9 29.8-4.2-10 1-19.7 5.3-29.8 4.2m22 449.7c-4.8 5.8-31.5 14.9-14.3 5q6.7-4 14.4-5m65.8 93.4c-6.2-2.4-12.4-3.9-18.9-1.6 5-6.6 14.1-3.6 19 1.6m-45.5 13.6c-7.6 1.8-15.6.4-23.5.9a48 48 0 0 1 23.5-1m57.8-482.7c-17.7 6.4-37.5 7.1-56.1 10.1 17.4-6.5 37.6-7.2 56-10.1m-78 14c-8 3.4-31 8.3-31.9 4.3 10.7-1.2 21.1-5 32-4.3m-54-82c-8 3.6-27 7.4-29 4.4 9.7-1.5 19.1-5 29-4.3m63.9-12c8-3.4 28-7.5 29.5-4.3-9.8 1.4-19.5 5.1-29.5 4.3m1109.4 463.7c-9.9-1.1-19.7-1.8-29.5-3.2 9.6-1.3 20.8-2 29.4 3.2m174 65.9c10.4 4.5 18.8 29.2 7.3 10.8-2.6-3.5-6.6-6.1-7.4-10.8m-1.4 16.3c-8.6-4-19-21.5-5.5-7.9q3.3 3.6 5.5 7.9m-43-36.7-15.7-10c4.3-3.7 13.5 6 15.7 10M1042.2 1005l-19.7-110.7c5-9.3 20.5-6.5 30.1-10.6 28.6-3.4 56.7-10 85.2-14.4 14.4-.5 37.2-16.2 33.4 9.2 3.1 28.8 6.6 57.6 9.2 86.4-4.4 17.5-32 11.3-46 17.8a4219 4219 0 0 0-79.9 20.5c-4 .7-8.2 1-12.3 1.8m126.1-105.5a378 378 0 0 0 5.9 56c0-17.9-3.2-35.6-4.4-53.5-1.4-10.1-.6-20.4-13.5-15-6.7 1.5-14.4 1.1-20.4 4 6.5 5.8 18.5-3.3 28-1.6 5-1.1.5 8.7 4.4 10m-134.9 21.3c-1.6 19.5 8.1 38.4 9 58-1.5 14.9 11.7 7.6 19.2 5 8-.6 1-10.3 1.5-15.4-3.5-16.6-5.7-33.6-10-49.9-4.7-3.6-13.1 2-19.3 2.2zm132 39.7c2.8-17.3-3.8-34.6-3.1-52 6.6-22.7-35.3-15.6-23.9 3 6.1 15.8-.3 45.1 16.1 51.7 3.8-.3 7.2-2 10.9-2.7m-85.8 19.4c6.4 3.3 18.8-.1 16.3-8.7-3.8-18.8-6.4-37.8-11-56.3-10.2-9-25.3 1.2-16.4 14.1 3.4 17 6.7 34.2 11.1 51m41.8-84c-9.5-5.4-28.9 9.2-27.4-9.7-9.2-13.8-.4 10.5-7.2 13.1l-25.5 6.7c-5.7-4.4-19.2 8.9-29.4 7 1 12.5 28.7-13 26.9 9 5.8 21.9 9.2 44.4 15 66.5 6-.3-1-11.2-.5-16-4.6-20.2-8-40.6-11.8-61 12.1-4.2 34.4-13.9 31.8 8.2 2.7 19.6 7.6 39 9 58.7-12 11 17.2-.5 23.2-1 11.6-4.1-19.5 5.6-17.4-6.8-6.3-18.1-7.5-37.5-11.5-56.2-7.1-19.7 16-12 24.8-18.5m-8.4 74.3c16.5 1.2 19-9.5 13.8-22.9-2.4-15.5-4.5-31.2-7.6-46.6-5.8 2.4-15.1.7-18.5 6.2 3.6 21.2 7.4 42.3 12.3 63.3m16.3-96c-11 9.6-.6 29.2-.3 42.5 2.2 18.6 6.6 37 7 55.8.3 5.4 17.2-1.6 7.9-9.5-6.9-29.2-10.4-59.2-14.6-88.8m-79.7 30c9.3-18-25.8-18-21.9-4-.7 15 13 6.4 22 4m33.7-7.8c6.7-22.5-37-11-18.5 4.3zm72.4-26.3c-10.3.2-28.4 1.5-20.1 15.1 13.4-.3 22.8-1.3 20.1-15.1m-59 10.9c-5.1 18.3 26.6 13 21.3-1.7-1.6-6.2-17.1 1.8-21.2 1.7m-26.3-49.1c.7-19 9-37.3 25.3-47.9 20.6-4.6 39.7 16 37 37 3.3 25.5-23.7 50.8-48 33.6-9.8-3.2-12.8-13.5-14.3-22.7m51-32.7c-8-5.7-17.5-16.3-27.6-8.2-18.3 13-27 45.9-7.2 61.4 28.2 13.6 47.6-23 36.7-45.9zm-355 446c9-.3 17.7-1.2 23.3 7-2.2 7.3-23.4-8-29.2 7.8-5 7.7-15.2-2.7-21 3.6-8.8 8.6-22-2.6-32.6 3-6.8 7.4-15 1.5-23 5-9.2 2-18.2 7.7-27.7 3.8-8.7-2.5-28.6 23.6-17 3.6 10.8-3.3-6.3-10 7.1-7.7 16.4 2.3 31-4.1 46.3-8.5 9.4-4.2 20.8.7 30.6-2.9 5.3-3 12.2-3.8 5.7 2.1 8.3-2.4 16.4-6.6 26.2-3.3 3.4-3.9 11.7-7.4 11.6-12.7zm-9.9 30c12.5-5.4 27 1.5 40.4 0 14.3 1 6.4 3-.5 3.2 0 11.9-18.8-4.3-25.6 7.4-6 10.9-15.7 3.3-23.6 7.3-5.4 5.1-11.4 3-17.5.4-8.5 5-18.6 4.4-27 8.5-5.4 3-10 9.8-16.7 6-9.3-3.1-22-5-26.4 6-8.6 3.3 9.5-25.4 19-11.9 9.3 6 16.9-.2 24.5-5.3 7-2.2 20.3-3.9 5.8-6.4 15.8-5 29.9 3 45.9-3.3 7.7 1 14-5.1 20.2-9-.1-6-14.2-1.4-18.5-2.9m-7 85.4c-9.5-2.6-19-3.7-25.4 5.5a33.3 33.3 0 0 0-42.3 21c-3.9-16.7 17.6-27.7 32.5-26.4 12.1.5 23.6-11.7 34.8-6.1 6.8-14.9 20.2-2.7 29.3-11.2 4.8-6 26.7-8 24.5-.1-15.7-7.3-26.6 16.3-40 6.8-4.6.3-9.1 7.8-13.4 10.5M1728 599.7c-6.4 2.8-29.3 6.4-27.6 2.4 9.2-.3 18.3-3.5 27.6-2.4m-248 48c7.2-4.9 38.8-5 15.5-1.2a53 53 0 0 1-15.4 1.2m-65.9 10c7.2-4.9 38.7-5 15.4-1.2-5 1-10.3 1.7-15.4 1.2M1864 1451c9-4.3 24.3 18.2 29.6 1.3 4.6-4 21.3-18.6 11.3-3.2-5.7 3.9-12 17.3-1 7.3 18-5.2-7.3 10.7-11.4 14.7-1 9.3-7.9 27.2-6 8 9.1-16-18.5-13-22.5-28.1m-72-127.5c3.6 3.5 19.2 9.8 9 12-10.6-10-29.4 1.5-20.1 14-21 11.6-6-36 11.2-26m-9.3-53c10.3-15.4 39.7-3.2 46.8-3.4-11.2-3.3-10.3 11-21.3 3-11.6-4.8-20 8-27.4 9 3.8-10.3-20.5-1.4-4.7-7.8l2.8-.4zm28 21.2c12.4-5 30.3-8 40.1 2.6-9.3 6.9-21.6-4.4-35.2 2.6-4.3 12.2-15.6 8-4.9-5.2m65.1-8.5c11.6.6 38.2 1 40.3 7.6-6.4-1.7-13-2.6-15.4 3-5-7.4-13 7.8-13.2.4.4-6.2-9-1-12.3-2.7-6.4 2.7-.7-7.3.6-8.3m84.8 48.4c-3-13.5-13.2-29.9-29.3-25.8-18.5 6.4 4.3-12.1 12.2-3.6 7.7 1 11.7 8.3 17.3 12.8.1 5.4 6 12.7-.2 16.6m-186.3-12c-7.8-2.4-1.1-15.3 5-16.2 7-3.4 23.6-6.8 20.4 5-9.3-1.8-23.8-2.2-25.3 10.7zm32.3 70c6.3-7.8 15.2-15.4 25.8-8.7 7 11-16.8-4.3-20 9.2 3 13-7.1 17.7-5.8-.4m192.8-47c8 4.7-.4 24.2-2.2 13.2 4-9.8-11.4-19.7-17.6-10.4-12.4-8.5 15.4-11.5 19.8-2.8m-83.6 160.5c4-12.6 4.6-31.8 10.9-40.2 3 8.3-.7 18-2.4 26.4a29 29 0 0 1-8.4 13.8m-57.2-147.3c1-10.9 30.3-9.3 17.3-4-14.2-2.2-16.4 16.1-16.3 24.3-7.3-1.4-3-15-1-20.3m39.1 49.5c12.3-.8 7-22.7 20.7-18.8.7 2.6-7.8 9.1-5.6 16.2-1 10-8.4-.3-14.6 4.1h-.1zm83.5 6.5c-3-11.3 12.3-28.1 23-18.4a36 36 0 0 0-23 18.4m-52.2-80c-6 2.2-13 16.6-9.6 2.6a13.4 13.4 0 0 1 17.7-4.8c10.3-1.3 15 17 3.3 5.1-3.5-1.8-7.5-2.2-11.4-2.8m5.7-50.5-36.7-9c10.4-3.1 27.4 3.4 36.7 9m-162.3 4.3c11-1.3 21.9-5.2 33-3.7a76 76 0 0 1-33 3.7m206.4 11c-8.8-1.6-29.4-10.5-30-12.4 11 .4 20.8 6.8 30 12.5m-89.5-25.7c-9 0-23.6 3.6-27.6-4.9 9.2-1 18.6 2.5 27.8 3.4v1zm76 36.2-23.1-8.3c8.5-3.6 16.5 4 23.2 8.3m-867-681.3c-19.4 6-40.5 4.7-60.4 9.1l-15.3-.6c25.3-2.5 50.4-8.2 75.7-8.5m705.6-36c-7.7 3.8-17.5 2.5-26 4.3-16.7 1.7-33.1 6.2-50 5.7 7.7-4 17.5-2.6 26-4.4 16.7-1.7 33.2-6.2 50-5.7m-613.6 101.9c-18.4 6.4-39.1 5.6-58.3 10-9.2 3.3-16.9 0-3.4-2 20.7-1.7 41-7.9 61.7-8m157.8-24c8.4-4 18.7-3.3 27.9-5.3 12.7-1.5 25.3-5.4 38.1-4.7-14.6 5.6-31.5 4.6-47 8.5a85 85 0 0 1-19 1.5m-65.9 10c11.6-4.7 25-4.6 37.4-7 9.4-1.4 19-3.5 28.5-3-13.7 5.6-29.6 4.6-44.2 7.6-7 1-15.5 3.3-21.7 2.4m201.9-102c-8 4-18 2.6-27 4.6-11.6 1.5-23.2 3.8-35 3.5 15.4-5.1 32.2-4.7 48.2-7.6zm-215.9 28c12.7-4.4 36.8-6.7 44.3-5a237 237 0 0 1-44.3 5m171.9 50c10.9-3.2 32.3-7.6 38.5-4.8-12.8 1.7-25.5 5.1-38.5 4.8m-275.9 491.7c-4.2 2-13.6 6.4-12-2 3-3.8 23.3-5.4 12 2m931.5 357.7c-.5-8.7 24.1-21.4 10.3-8-3.1 3-5.6 7.3-10.3 8m-62.6 484.5c-1.2-8.5-6.9-17.4-3.5-25.8 8.3 7.3 19 8.3 29 11.8-9.4 5.8-30.3-9.8-21.5 8.6 4 21.2-36.5 5.8-34-.2 9 5.1 19.7 8.2 30 5.6m-778.9-1234c19.4-6.3 40.4-7.9 60.6-11.5q91-14.8 181.8-30.3c12 2.4-8.3 3-12.8 4.5l-223 37.2c-1.9-1.1-4.8 1.4-6.6.1m-156-127.9c12.4-4.8 26.7-4.1 40-6.1 30.7-4.7 61.6-8 92.4-12.4 12.6-.7 25-5 37.6-3.5-17 5.4-35.5 4.8-53.1 8-29 4.5-58.2 6.7-87.1 11.5-10 .6-19.8 3.6-29.7 2.5m669.6-88.4c-31.9 3.6-63.6 8.6-95.4 12-8.6 2.2-37.2 3-15.8-.6 35.7-3.7 71.1-8.8 106.7-12.9l4.5.5zM1422.5 584c-17 5.4-35.5 4.8-53.1 7.8-18.2 2.7-36.4 6.1-54.8 6.2 17.3-5.4 36-5 53.9-7.9 17.8-2.6 36-6.2 54-6.1m-231.9 108c8.4-4.1 18.7-3.3 27.8-5.4 21.4-3 42.6-8.3 64.2-8.6-11.5 4.9-25 4.4-37.4 6.7-18.3 1.8-36.2 7.4-54.6 7.3m158 127.9c-21 6.8-44 9.2-65.8 14-16 3.9-18.1 0-2.8-1.8 22.9-4 45.5-10.2 68.7-12.2m102-20c-21.2 6.8-44 9.3-65.9 14-15.9 4-18.1 0-2.8-1.8 21.7-4 43.4-9 65.2-12.2zM933 647.9c-11.9 5.1-25.8 4.6-38.6 6.9-14.5 1.3-28.8 5.3-43.5 5.3 7.2-4 16.6-2.9 24.8-4.8 19-2.2 38-7 57.3-7.3m851.4 84c-7.2 4.1-16.6 3.1-24.7 5.1-16.6 1.9 18.3-7.9 24.7-5zm36-73.9c-6.4 2.8-29.2 6.4-27.6 2.4 9.3-.3 18.3-3.5 27.6-2.4m1308.4 1671.5c-7.6-2.8-20.4-21.4-6-8.7q3.8 3.8 6 8.7m-237-212.6-12.2-14c3.2-.4 22.2 17.2 12.1 14m254.5 146.3 12.9 12.8c-6.2-1.9-11-6.7-12.9-12.8m-29 14.6c10.2 3 14 17.1 3.2 4.7l-1.5-2.1zM1214.5 1143.4c-10.6-7.4-21.7-4.8-32.9-.2-6.7 1.1-17.6 8.4-21.4 4.1 13.4-4.8 27.3-8.4 40.7-13.3 5.5-2.5 8.9 7.7 13.6 9.3m1350.9 699.5c9.8-6.5 15.6 8.8 25.1 10.3 30.6 24.5 63.7 45.6 92.2 72.6 28.9 22.6 54.5 48.9 81.5 73.7a1404 1404 0 0 0 72.1 63.5c19.3 14.3 33.7 34.2 50.4 51.6 11.5 9.7 24.6 20 35.7 31.5 11 7.8 19.7 20.8 32.8 24.5a504 504 0 0 0 48 39.4c26.7 25 56.5 48.6 82.3 75.7 4.4 6.3 25 21.1 19.1 23-22-22.8-47.4-41.7-70.9-62.8-47.2-39.4-93.7-79.8-140.4-120a5335 5335 0 0 0-133.3-124.7 1304 1304 0 0 0-137.8-117c-17.8-14-37.3-25.7-55.4-39.2zm-1549.1 293.6c12 2.6 23.1 5.4 34-2.4 22.7-10.4 49.4 4.9 70.4-3.2 3-11.9 7.1-18.7 19.8-11.3 13 5.5 16.5-14.3 29-12.8 9.4-1 13.6 9.3 20.3 14.3 8.1 6.3-.4 7.6-5.5 2.6-11-6.8-22.7-17.4-30.5.1-6.3 2-12.5 3.5-18.5-.2-8 4.5-13.9 21.5-27.3 15.6-15.8 7.8-33.5-10.7-47.5-.4-8.8 6.1-21 4-30.7 8-8 .8-17.4-2.6-23.6 4-8.2 9.5-10 25.2-27 21.8-13.8-.7-27.2 8.9-34.7 19.7-4.2 11.9-15 1.2-3.2-6.2 10.4-9.5 25.6-19.6 39.9-19.5 20 3.2 15-33.2 35.2-24.3 10.8-1.2 17.5 2.8-.1-5.8m36.1-108c-8 4-18 1.3-26.9 2.1-10.3 10.2-23.4 2.3-35.6.6-15.3 19.9-39.6-.6-58 10-8.6 7.4-9.4 20.9-25.1 15.4a26 26 0 0 0-26.8 15c-10.6 14.9.6-15.8 9.3-16.3 10.3-12 32.4 6.5 33.8-15.1 17-16.7 42.8 1.1 62-12.7 10.7-2.6 21.4.5 32 1.3 15.7-11.8 35.2-3.7 47.7-19.4 12.7-1.5 25.3 8.4 33.5-7.7 11.6-9.3 35-5.4 43.3 6-17-4-36.7-13.9-46.7 6.7-13.8 7.9-30.7-8.5-38.2 10.7-5.7 1.4-14.2-.2-21.4.3-12.7 1.2-6.3 4.8 3.1 3.2zm22.3-153.4c-7.4-1.2-8 12.3-12.7 3.9-32.8-7-46.7 52.4-77.8 27.7-20.3-10-45-1.3-60.5 13.5-11.1 7.1-27.3 11.6-39.3 6.7-13.1-11.6-35.6-11.1-44 6-3.3 4.6-9 20.6-7 5.7 4.6-14.8 21.3-30 37.4-23.7 13.5 5.3 29 14.8 42.7 5 19-10.6 38.7-28.8 62.1-22.1 14.7 9.5 30.9 11 43.6-3.3 15-14.6 33.8-25.4 55.5-21.6zm-244.3-186c14.4 3 18.8-19.4 34.9-14.9 10.9-.3 38.7-6.6 37.9-1.2-4.8 10.2 29.1-2.7 21.1-9.8 6.4-3.6 20.2-23.2 22.4-17.8 1.5 6.4 31 9.6 25.8 19.5-11.9-5.6-27-22-37.5-2-8.7 14-27.5 26-41.7 13-15.5 6.6-39 1.3-49.4 16.8-14.7 5.2-35.4 5.3-48.1 13.4-13.2-11.7-29 17.4-33.8 14 1.4-11 21.3-28.2 32.9-19 10-3.4 23-10 36-8.7zm147.9 58c8.4-4.7 31.4-6.7 31.3 6.5-13.4-9.5-33.1-.3-43.4 10.9-7 22.7-35 9.4-48.2 26-7 8-18.3 5.7-27.6 5.1-10.6.6-20.9 5.4-25.9 15-8.5 7.6-21.9 0-32 4.2-8.9-1.2-22.5 23.6-23 12.8 4.6-5.7 24.5-20 6.5-14.7 12.3-11.7 33.5 4 44.7-7.2 11.6-17.5 30-16.4 47.3-15.9 11.5-11.4 28-14 43.2-17.4 6-7.1 8.5-16.6 15.5-14.7 4-3.3 9.8-5.3 11.6-10.7m2196.5 625.9c10.4.4 12.9 17.6 1.4 5a424 424 0 0 1-39.6-40.2c5.8 1.3 9.8 8.8 15 12.6zm-1341-1649.1c-14 4.7-39.1 8-48.2 6.9a323 323 0 0 1 48.3-7m1047.4 537.5c15.8 18 34.6 32.9 51 50 5.8 6.3-2 11.8 1.5 14.6 7.3 12-18.6 9.7-25.2 4-2.8 7.8 21.4 28.2 5.6 23.7-9.8-4-8.5 15.5.5 18.3 9.2 8.5 18.5 16.6 25.5 25.8 15 7.5 0 7.4-9.3 9.3 3.7 12.1 4 25.2 16.7 33.4 7.6 5.8 12.3 12.5 8.2 17.6 5 3.1 8 14-.7 12-11.2-5-2.3 13.8-16.1 9-16.4 1.6 5.8 32.1-20.8 24 3.4 9.8-3.5 16-13.7 15.5-5.7 3.8-5.9 13.1 2.6 14.3 13.6 7.2 27.8 13.4 40.8 21.4 2.5 4.8-8.1 9.5-8.2 16.4-3 8.9-13.2 12-19.6 18.3a5060 5060 0 0 0-113 87.5c-9 5.4-19.8 13.2-5.8 18a1535 1535 0 0 1 92.7 58.4c43.5 28.3 87 56.4 131.6 82.9 35.4 22.9 72 43.7 108.4 65-8.7 1.5-19.3-3.8-27.3-9.3-10-6.4-20.6-12-29.5-19.5q-49.8-30.3-99.4-61c-18-5-33.2-16.8-49.2-26.3-1.1-7-32.5-29.3-23.2-15.5-13-3.4-19.1-17.8-32-21.3-9-11.2-23.8-15.3-35.1-23.8a1088 1088 0 0 0-58.6-33.9c-22.2-17-46.3-31.3-69.6-46.9-11.7-4.9-20.7-20.2-31.8-22.6-7.2 3.8-4.3-9-11.4-10.4-39.4-34.7-83.7-64.2-114.8-107.6-20.3-21.3-34.2-47.5-52.4-70.5a143 143 0 0 1-18.3-54.7c2-14.4.2-29.7 6.2-43.1 10.6-23.2 16.2-48.6 25.8-72.3-11.6-10.7 9.3-20.1 6.8-30.2-4.7-11.4 17-17.4 14.7-31.9 9.7-11.6-19.8-6.6-4.5-17.7 15.7-4.7 13.4-19 20.3-29.2 8-12-9.6-6.8-16.8-11.8q-10.5-6.1-12.4 5.9c-7.9 19.3-14.9 39-24.7 57.3-6.9 19.7-14.8 39-22.6 58.2-10 8 1-15.2 3.1-21 14-34.4 26.4-69.4 40.9-103.5-6.9-13.6-14.6 9-18.4 15.1-6.7 8.8-8-1.1-16-1.5-10.8-2.1-21.4 2.5-33-2-10.4-1.5-25.4-5.9-23.1 7.3 9.6 0 14.2 2.1.3 2.7-6.8 3-8.2 13.3-13.3 2.2-13.7-10-29.4-2.5-43.5-8.4-24 0-47.3-9.7-71.6-8-9.4 2-15.2-5.1-17.1-13.4-6.5-7.4.5-24.1-12.5-19.8-4.2-6.3-.6-22-16.3-18.6-17.3-2.1-34.4-6.2-51.8-8.6-9.8-7.1-23.6-2.1-34.8-6.9-33.2-6.3-66.9-10.1-100-16.1-5.8.6-8 10.4-12.4 14.8-3.6 9.4-18.3 12-24.4 4-4.7-4.9-2.7-13.2-4.5-19.5-3.8-4.4-8.6 14.5-8.9 2.2 9.1-19.8-22.3-11.6-33.6-16.8-20.3-3-40.7-8.2-61.4-6.8 8 5-.4 11-4.2 17.5-4 4.8-6.9 12-11.7 15.4-11.3.1-22.7 1.2-33.7-1.5-19 6-40.1-11.4-28.9-32.3 3.6-11-11.4-21.5 1.9-28.9 10-17.7 27-28.8 38-45.9 11.6-17.3 23.7-43 37.5-50.9-12-2-16.3-2.7-10-13.2 19.5-85.7 40.3-171 59.2-256.9 10.3-9.4 33 3 49.1.2q48.3 5.8 96.9 9c19.7 3 39.7 3.5 59.4 6 17 2.2 34 2.8 51 4.7 24.4 2.7 48.9 4 73.1 6.8 37.4 2.6 74.4 7.6 111.8 10.2 25.9 3 52 3.8 77.8 7.4 39.6 3 79.2 7.8 118.9 10.5 34.7 4.1 69.6 6 104.3 10.2 7.4 1 15.6.4 22.5 2.5 9.3 5.7 1.7 17 1.1 25.5-18.1 78.6-35 157.4-53.8 235.9-.6 10.5-12.1 35.4-5.3 37.3 11.2-14.4 25.2-26.4 36.8-40.4 3-12.3 12.8-6.4 18.5-15.2 5.4-8.4 11.7-.7 8 6.5-5.9 39.2-9.7 78.8-16.2 117.8 3.9 5.6 11-7 15.9-10.5 13.6-13.4 27.3-26.7 38.8-42.1 5.4-4.8 16.2-23.9 16.7-5.3-2.5 18.9 3.4 37.7 5.4 56.4 3.7 23 6.6 46.3 13.7 68.7 5.7 33.3 18.3 65 45.4 87.2-4.2 10.6 11.4 17.4 15.3 27.2a9 9 0 0 0 6.2 1.5m-719.5-203.9c7.2-12.1 28.4-12.3 29-28.6 9.3-14.3-11.4-33-19.8-34.6q-8 29.8-12.8 60.4c3.3 5.8 9.4 7 16.2 7.3 12.4 2.5 25.8 1.6 37 8 13.4 1.9 25.5 2.7 38 2.5 4.2-.7 16.1 4 15.5-.2-3.6-8.7-7-18-18.4-17.8-17.9-4.5-35.5-13.2-54.2-12.1-11 3.7-18.8 13.2-30.5 15.2m419.7 24.1c6.2-9.1 16.2-26-.7-25.2-10.4-2-20.6-6.5-31.1-6.3-15 17.2-21.1 42.1-31.4 62.8-15.7 23 21 20 34.8 23 12.6.6 12.3-14.7 17-23 3.7-10.5 9.4-20.8 11.4-31.3m-669.6-130c3.4-3.5 6.1-9 5-15.3-5.8-12.4-11.9 14-18.4 16-5.6-.9-8.6 12.5-2.2 9.5-2.8 4.3-20.2 22-16 29.2-4-8.2-20.5 4.5-20.7 12.7-15.2 17 20.6 16 32.3 17.5 14.4 3.2-6 4.6-11.8 2.8-11.4 3.1-37.5-15.3-32.5 5.2 2.9 10.3-3.3 20.2-.2 30.3 16.5 8.6 46 15 62.3 2.3-9.4-1.1-3-12.8-4.3-19.4-1.6-11.7 7.3-10 4.5 2.1-2.6 11-.7 15.2 5 2.7 7.7-13-1-17.4-10.1-20.4 6.8-1.8 13.7-8.2 11.6-15.8-2.3-10.7 5-19.5 5.7-30.2 3.6-14 6-28.4 10.5-42 11.9.4 28 3.5 42.2 5.1 26 3.2 52.2 8.5 77.6 14.2 9.7 2.3-3.9 27.2 7 12.6 3-10.5 11.8-32.9 22-12.8 13.6 9.5 34.2 5.5 50.7 9 36.2 4.3 72.3 10.6 108.3 16.2 22 6 45.2 7.3 67.1 13.8-.9 12.2-6.4 23.8-9.2 35.8-9.5 22.9-15.2 47.3-24 70.4 18.6 18.5 9.7-51.3 41.3-25.2 23.6 8 48.3 3.8 72.1 10.3l20.8 3c8.4-20 12.7-41.6 19.6-62.1-1-13.6 21.3-37.7 3.2-41.6-52-7-104-15-155.9-22.6-49-7.3-98.3-13.9-147.3-21.6-62.2-8.1-124-18.4-186-27.5-29-9.5-11.6 45-25.7 55-4 9.4-4.6 31.8-3.2 30.9-28-.1-18.2-17.3-2.2-42.2l.6-3.9zm224-179.7c-15.6.3-35.5-7-39.9 13.7-4.7 10-20 29.5 2.1 27.5 40 2.9 79.4 10.2 119.4 12.5 22.7 1.7 45 7 67.9 6.9 37 5.8 74.5 8.6 111.6 13.7 36 3 71.6 10.6 107.8 12.8 14 2 27.8 5 41.8 6.2 5-4.3-1.3-13.4-1.5-19.8-2.3-7.8-2.4-16.4-7-23.3-10.4.8-19.9-3.8-3.5-2.5 7.3-7.6-2.3-26-4.6-37.6-30.2-6.2-61.2-7.5-91.8-11.4q-27-2.3-53.7-4.8c-18 .1-36 .6-53.5-3.6-21.9-2.6-43.7-4-65.2-8.8-29.3-4.7-58.5-9.9-88-12.4-19-1.1-46.4-16.4-59.6.6-4.5 9.3-19 29-.3 27 6 1.1 13-.2 18 3.3m617.5 705.4c-2.4-11.8-16.7-6.6-7.6 1.9-3.9 5.8-29.8 10.6-11.2 11.2 7.5-4.1 28.7-1.1 15 7.4-12.5 9 18.5-1 5.9 13.8 9.5-.2 16.7 5.8 12.3 16.7 5.6 6 17-14.2 21.5-3.6 1.2 5.8 9 10 13.8 5.3 6.3-7.4 9.3 3.7 16 1.9 11.3-1.2 21.7-8.4 32.7.3 13.4 4-4.8-21.8 18.2-9 8-1.2 17.9-4.3 22-11.5 5.6-4.8 24 5 15.4-10.2-7.3-15.3 19.8-6.2 12-22 7.4-4.8-9.8-14 5.6-11.6 7-4.2 10.1 9.5 16.7 6.5-4-6.8-13.8-28-22.6-15.5-9.2.4-18.7-.7-27.7.5-5.6 10.4-16.6 15-29 10-6.2 5.3-32.4 4.5-24.6-2.8 9.6 3.6 17.7-.9 27-1.3 18.3 10.4 21.5-20.4 40.5-10.2 17.7 5.6 6.6-18.4 20.5-21.1-11-8.4-1-11 2.7-17.6-11-6.7-1-12.4 1.4-16.7-5.9-3.6-3.6-11.4-9.4-15q-13.2-14.8-26-29.6c-4.8 2 10.2 24.5-7.3 15.2-8-5.3-33.8-7-29.5-19 20.4-7-47 63.6 32.8 15.6-6.7-7.7-13-37.6 3.2-24.5 6.6-3.4 16.5-.4 8.8-10.1-6.4-6.6-4.3-18 5.7-8.6 6.4 6.2 29.2 9.9 13.8 0-12.5 2.9-15.6-5.7-5-8 16.8 4.3.4-8.8-4.8-14.4-14.4-14.9-29.8-28.7-44.4-43.2-14.8-18.5-30.2-36.6-41.3-57.8-9.8-2.5-3.2 22.3-8.2 30.1-7.8 10.6 2.9 32.8-7.8 37-5-2.6-9.2 9.9-5.9 12.6 6.3 5.3-8.6 13.7 4.7 14.1-10 14.3-24.3 26.7-34.5 41.5-2.3 4-13.8 13.7-7.2 14 4.5-1.5 15.2-10.8 15-1.6-.6 13.6-29.5 43.8-3 38.3 9.7-4.1 23.7-3.9 16-17-5.3-10.8 6.1-10 4.3.6 2.2 6.4 11.2 6.5 14.6 14.5 3.5-6.1 3-17 11.6-7 4.8 16 6.8-.3 7.5-7.4.4-7.4 7.7-19.8 9.6-6 12.7 12.7-8.6-3-5.5 13 1.8 13-8.3 21.6-13.5 9.5l-12.2 17c-9.2-1.2-17.1-12-26.6-6.7-8 10.1-18.8-7.9-22 9.4-9.4.8-24.3 12.6-19.9 21 19.9-5.2 3 14 5.4 16.8 8.4-3 8.8 5.6 5.7 11.2 1.5 3.7 9.5 4.3 1.5 11.4 4.8-2.8 10.8-4.4 14.3 2.5 4.2 5.4 12.2-.5 17.9-.9.6 3.7-.2 10.7 6.2 3 6.8-5.2 15.1-3.5 20-13.1l7.7 8c-9.3-4.8-10.8 5-18 9.2-9.4 11-22.2 2.3-34.4 3.2-9.7 2.4-22.5-2.4-7.2-1.8 15.4-1.4-9.8-12.9-9.2.6M2024 765.7c-24.2-.4-48.2-5.9-72.2-7.8-9.2 13.3-9.9 33.6-14.7 50-1.2 9.7-10 26.7 6.2 24l143.1 17.1c3.6-9.7 1.9-20.1-7.6-25.1 1.3-5.5-4.9-12 1-18.4 6.5-14 21.6-35.8-4.6-32.8-11.3-1.6-23.2-1.7-34.3-4.1 12.1-6 41.2 9.6 54.7.7-14-4.6 7.6-2 6.3-11.8 3.7-9.7 20.1-21 7.4-29.5 23-1.3 45.8 4.3 68.7 6a651 651 0 0 0 63.3 6.4c24 5 48.6 6.1 72.9 10.3 30.3 3 60.8 4.7 90.8 10.7 27.3 4.4 54.8 6.1 82.3 7.1 15 .7 30.7 8.7 45.2 2.6 4.4 5 8.9 9.9 16.1 8.6 18 .9-30.4 2.4-5 19.3 3.6 22.6 5.8 46.5 13.8 67.8 13.6 4.2-13.6 12.2 4.3 15.7-8.3-3-15.6 9.2-21.2-.3-20.2-7-16.2 17.2-18.8 29.6 3.7 8.7-.4 8.3-9.3 10.4-15-5-31.3-5.3-47-8.2-10 .9-8.6 14.8-20.2 15-6.8 4-.8-10.1-5.8-12.7-9.2-9.4-26.3-5.2-38.5-8.2-23.7 1.3-44.5-5.3-68-8.8-27-4.1-54.2-7-80.8-13.3-26.2-4.7-52.4-9.6-78.8-12.6-11.5-1.6-5.8 25.3-19.9 11.1-16.4 4-1.9-18-15.3-14.7-15.9-1-31.2-8.2-47-7.4-8.5 2-.8-16.9-15-12.7-46.2-4.9-92-11.4-138.2-16.3-10.7-1.5-7.9 11.6-10.9 18.3l-12.4 54.3c24.4 5.3 49.3 8.4 74 12.2 34.5 4 68.7 10.9 103.3 14.8 34.6 5.7 69.4 9.8 104 15.5q56.7 7.5 113 16.4l111.3 16c33.5 5.6 67.4 9.4 100.9 15.1q72.5 9.5 144.8 21c5-11.5 6-24.5 9.1-36.7-4-5.4-32.2-3.7-23.8-7 13.2 2 30 5.3 29-13l26.7-118.4c-7.2-14.6-36-6.1-52-10.4-17-1.1-34-2.7-51-4-17-.3-33.7-4-50.8-5 18.2-.8 36.3 2.6 54.6 3 15.6 1.3 31.4 2.2 47 3.9 17.4.3 34.8 3.2 52.2 3.4 8-13.4 8.3-32 12.9-47.6 4.3-23.2 12.7-45.7 15.1-69-5.7-4.5-14.6-2.3-21.8-3.8-13.6-1.2-27-3-40.6-3.7-41.3-2.6-82.4-8.9-123.8-11-31-3.2-62.1-7.2-93.1-8.9-24.2-2.2-48.5-4.2-72.7-7.3-22-1.3-43.6-4-65.5-5.6-31-3.2-62.2-5.3-93.2-8.8-17.6-1.9-35.2-3-52.8-5-16.5-1.3-32.8-3.4-49.4-4.4-17.8-3-35.8-1.8-53.6-5.3-27.7-1.3-55.2-6.2-83-6.7-12-5.9-12 7.2-14 15-2.2 9.4-5.2 18.7-6.3 28.4 10 0 14 3.9 2.3 2.8-10.7 12.6-9.6 34.8-15.5 51.3-7 12.6 6 13.3 14.6 13.7 18.3 2.2 36.6 5.3 55 7l1.3.8zm652.6 395.2c-7 .9-7 12.4-14.4 8.3-9.6-3.4-32.8 20.5-11.5 12.7 8.9-8.9 21.3-.8 8.8 8.4-16.5 17.1 9.7-.3 17.4-2.8 7.2 2.2.6 20.3 9.3 6 9-14.2 14 1.9 14.9 11.1 6-15 17.2-15.4 8.2-1.3-5.3 5.5-15 22-13.9 3.8 2.4-27.2-22.3 17-23-1.7 9.2-22.3-12.5-1.3-21.8-.4-17.2-2.6-32.1 12-47.9 17.7 3.7 14.5 13.8-3 19.5-1.1 0 11.5-28.7 20.7-11.5 25.8-6.4 7.6-8.9 12.3 4 8.6 12.3-.7 2.6 9.3-1.9 13.5-5.4 12.3 8.5 8.1 15.2 6.6 5.7-.4 14.4-5.8 14.1 3.6.5 8.3 4.7 10 11.9 6.3.4 6.2 3.2 18.8 12.3 14.4 6 7.9 9.2 13.2 20.4 7.3 4 10 7.6 19 20.9 16.2 13.2 7 5-4 7.2-10.9 4.2 10.5 9.6 10.4 14-1 10.5 6.2 17.3 3.5 23.3-4 7 1.7 17 10.2 3 6.1-5.7 4.7 16 10.4 14-2.2 4.6-12.5 13.7 9.5 3 5-1.7 14.5-15.5 2.6-21 6.2-8.4 4-13.7 13.5-23.8 14.2-12.7-4.7-27.3-7-38.6-11.6-5.5-11-10.4-4.6-16.9-1-5.5-4.3-13.2 0-18.6-2.3-7.1-6.5-12.4-10.3-7.1-21.6-5-8.2-14.8 5-19.7-2.5-.1-9.9 15.2-23.4-3.2-17-12.2 6.4-36.5-2.6-16.4-13.2 14.9-12.7-16.6-6.3-18 4.4-10.8 4.5-14.8 9.8-3.2 14.5 2.6 15.9-26 23.5-26.1 29.8 8.7-7.2 20-1.6 10.8 7 4.4 10-19.9 21.8-5.5 19.5 6.6-5.9 19.7-6.5 7.3.9-14.4 7.8-.3 5 3.8 2 3 7 10.8 6.7 2.6 16.2 9.6-3.5 19.8 5.8 11.7 14-.7 5.3 29-8 26.8 5.8-11 11.7-2.6 18.5 11 14.2 4-3.3 6.5-17 7.8-3 6.5 9.7 21.7-12 23 7.8 11.9-6.7 18.3 20 31 11.3 5-3.5 5-20.6 13-7.4 6.2 10.4 10.8 5.6 13.4-3.3 5.2-1.6 13.1 10.5 15.6 3.7-1.9-7-3.2-11.8 8-13.8 13.5-3.4 4-11 3.9-15.4 13.8-4.7-15.4-12.5.7-15.9 5.5-2 21.7-5 6-5.6.1-12.7 23.2-20.3 29.5-34 4.5-4.9 8.8-9.9 7.7-17 .4-6.5 11.7-14.3.3-16.2 7.5-15 23.2-27.9 16.2-46.4.4-16.3-8.7-26.9-19.5-37.1-5.7 3.8 1 29-10.6 13.8-4.1-4.5-12.2-26.3-2.2-12.2 11 19-1.4-33 14.6-11.8 3.5-4.1-2-15 9.7-16.1-.1-19 27.8 17.6 19.5-6.2-4.2-18.5-9.3-37-16.4-54.5-5.4-22.4-7-45.3-10.7-68 0-10.7-1.2-25.4-10.5-10.8-12.4 14-24 29-39.6 39.9a131 131 0 0 1-36.3 28.6 55 55 0 0 0-23.6 26.2c11.7 7.8-29.6 31.8-1.9 27.9m-156.1 96.8c-11 27.9-19.8 56.7-29.8 85-10.3 41.1 9.6 81.3 33 114a520 520 0 0 0 67.2 82.2c14.3 12.2 27.3 26 42.5 37.2 14 10.8 26.7 23.8 41.6 33.2 3-4 6.9-10 13.3-12.3 28.1-18.3 55.7-37.5 83.5-56.2l2.3-2.7c-9.4-1.3-32.6-5.2-18.3-16.4-6.8 1-10.8-5.8-16.7-6.6-11.8 2.6-24.7-5.4-8.3-13.5 17.6-12.3-29.4 5.4-14.2-16.8 14.1-1.2 10.3-7.6 7.6-14.2 11.5-7.9-5.3-16.4 5.9-21.8 8-7.7-2.7-25.3-3.9-28.9-7 .1-14.3-1.2-20.2 3.5-15.4-.4-29.5-6-44-7-3 12.2-5.1 25.3-5.8 37.5 4.3 9.5-10.3 13.8-15.3 6-9.7 4.2-15.5-6.6-11.8-15 1.4-10.7 4.6-21.8 5-32.5-2.2-6.3-5.3-11.5-12.9-9.4-6.1-.6-13.6 1.9-17.2-4.6-5-5.6 2.5-17.6-11.9-13.2-12 1.3-15.4-11-27.7-11-2.5-10.3 6.6-22.4-9.5-19-7.3 2.4-9.7-8.2-16.8-5-9.8-1.7 3-8.4 7.4-10 10-1.6 25.8-17.4 7.2-18.9-26-8.3 24.7-10.8 23.4-22.7-3.8-8.5-7.3-17.4-18.5-17.3-8.2-.4-20.6-5.3-12.6-15a47 47 0 0 1-24.5-8.6m128.2-69.4c-9.6-1-32.6 3-14.7-8.5 5.8-4.8 13-8.3 17.6-14.2-.7-1-29-.4-19-4 14.8 4.7 34.7-8.2 39.5-20.7-5.6 5.5-33 9.3-16.2-1.8 5.5-6.5 27.7-13.4 10.8-20.6 11.8-13 41.2-14.6 48.8-32.8q.3-31.6 6-62.6c2.2-19.3 8.7-38 9.8-57.4-18.7 24.4-42.4 44.2-63 66.8a234 234 0 0 1-52.8 43.6c-11.1 5.4-3.6 21-13.3 27.7-7.6 7.3 10.4 11-3.2 19-8.4 7.3 10.2 13 4 24 8.3 3.8 12 5 .2 4.1-9-2.5 3.3-24.7-16.1-14.9-11.2 11.2-16.7 28.2-31.1 37-13.4 9.1-1 4.2 3 10.2-7.6 7.2-8 14.6 4.9 12.7 10.4 6.2-19.8 31 2.2 22.2 18.8-4.7-2.3 11.5 6.8 16.6 10.6-1.5 13.8 18.2 20.6 7.7 9.7-3 15-10.7 4-16.2 1-15.3 27.2-12 36.9-24 5.4-3.9 10.7-8 14.3-13.9m150.5 367c-22.8 14.5-43.4 32.4-65.5 48-13.7 5.9-8.3 13.9 2.2 17.8 16.2 9.5 31.7 20.5 48.5 29 7.1 1 12-7.4 18-10.7 30.5-23.5 60.7-47.2 91.5-70.3 10-7.5-7.4-10.7-12.7-15.3-13-7.1-25.6-16.8-41.3-15-13-4.5-7.1 12.8-8.5 20.7-.5 10.6 2.1 24.4-6.6 31.6-9-.4-21.1 4.5-25.3-6.6zM2517 1024.2c-9 22.3-23.5 42.7-32.4 64.9 7.8 4.8 23.1 7.1 25-6 9.2-18.2 16.3-37.5 26-55.5 24 3.7 58.4 8.1 79.3 22.2l-7.7 19.7 29-19.9c9.7-14.2 19.4-36.5-6.3-33.4-42.4-5.3-84.5-13.2-126.9-18.3-18.8-2-37.3-6-56-7.9-6.1 2.3-5 12.6-7.9 18.3-1.6 11.2 24.7 4 33.7 8 14.7 2.4 29.9 3.4 44.2 8m423 531.4c-15.7-9.7-32.7-17.2-48.8-26-17.8-2.8-3.8 5.5 3.3 8.8 6 5.6 30 9.3 20.8 18.5-14.2 13.9-32 23.4-46.8 36.6-27.3 21-54 42.8-81.5 63.6l-79.2-48.3c16.3-15 35.8-26.6 54-39.2 12.4-8.7 26-15.8 37.3-25.6-1.4-7.6-18.5-6.7-24.4.3-28.1 19.7-57.2 38.3-85.2 58-.4 7.8 12.4 10 18 15 25.9 15.3 51.3 31.4 77 47 12 6.6 20.6-8.8 30.4-14q60-45.1 120.6-89.6c2.4-.1 2.2-5.2 4.4-5.1m-617.4-446c-6.2 4.4-14.8.3-16.8 4.6-2.2 11.1-17.9 32.2 4 26.1 14.3.6 28.8 3.4 42.8 6.6 7.3 4.5 15-1.8 22.4 2.4 15.2-.7 34 9.1 46.5 2.6 3.1-11.7 14.4-27.8-5-28.4-25.3-7-51.3-9-77.4-11.2zm88-8.2c-18.7-9-40.9-8.1-61-13.9-14.7 2-40.6-9.8-47.7-1.7 7.5 8.4 4.1 25.6 20.8 18.8 34 1 66.6 10.7 100.4 15.9 1-3.4-6.2-20.1 7.2-15.1 9.9 3.5 21-5.4 29.7 5 11.5-1 34.9 12.7 38.5-2.4 7.7-14.2-15.4-12.2-23.5-13.4-18.7-2.7-37.8.4-56.3-5.4 1.4 7.5 1 13.7-8 12.2M2087.2 820c22.1 7.2 46 5.6 68.7 10.3 24.5 3.6 49.5 2.7 73.7 8.4 18.9 3.6 38.2 2 56.9 6.3 27.5 5.1 55.5 5.8 82.8 11.9 12.2 3.5 25.7 1 37.5 4 14 3.8 30.7 2.4 45.9 7 29.2 4 58.5 7 87.6 11.5 16.2-.5 2.8-12.6-6.8-10.4-30.5-3.5-61-6.6-91.6-10.2-26.1-2.1-51.9-7.3-78-9.3-37.2-4.8-74.5-8.6-111.8-13.2-30.4-4.3-61-6.5-91.5-11.3-22-2.3-44.1-5.2-66.1-7.3q-3.9.3-7.3 2.3m83.2 47.7c12.5 3.8 26.4 4.8 39.4 7.6 63.5 9.5 127 18.5 190.4 28.2 8.3-1.7 37.7 10.3 31.4-5-11.2-4.7-36.7 2.4-33.8-15.7 3.6-8.7 1.6-23.6-.6-7.1-3.4 9.5-3.2 23.7-17.4 17-16.1-1.1-43.2-.6-33.4-21.9 4.7-8.4-1.6-19.3-4.4-4-1.5 11.8-2.1 27-18.2 20.3q-25.8-4.2-51.4-8.1c-1.4-6.9 7.9-37-2-24.3-1 13.9-2 28.8-19 20.6-11.6-2.1-24-1.5-34.9-6.3-5.3-6.4.4-16.2.6-24.2-14.8-10.4.2 32-21 23-25 4.5-10-22.9-21.3-31.6zm-242.9 145c23.3 4.7 47.4 5.2 71 8.7 16.5 7.8 42.2-1.2 31.6-19.4-32.4-2.2-64.6-7.6-97-10-8 3.5-3.6 13.7-5.6 20.8m141.1 46c24.7 4.7 49.7 7.1 74.3 12.3 36.3-1.3 71 12.4 107 15 6.3 1.4 12.6 4.8 19 1.8-3.6-14.6-27.3-9.7-39.9-13-24.5-5-51.5-7.8-75.3-11.5-3.7-6.4 1.7-13.8 2.2-20.6 3.6-17.3 8.5-34.4 11.2-51.8-9.3-6.8-10 16-12.6 23q-5 22.5-10.2 44.8c-18.2 2-36.7-4.8-55.2-4.8-5.4.3-28-6.9-20.5 4.7m-29.4-75.3c-20.4-5.2-42-6.2-62.7-10.7-13.8 1.5-36.6-11.3-43.5 4.5-8.8 19.8 22.5 10.8 34.3 15.8 20.6 2.3 41.4 3 61.8 6.7 8.9.8 7.2-10.8 10.1-16.3m-14 42.7c-32.8 0-65.1-7.1-97.8-8.1-11.5 8.6-3.8 21.2 9 18.7 28 3.3 55.9 8.6 84 11.4 2.5-7 5-14.4 4.8-22m535.6 211.8c-2.4-7.1-11.3-4.7-14-10.2-.4-7.2 5-14.5 5.7-22-7.7 1.2-24.3 16-19.3 27.6-2 4-13.4 14.8-3.5 13 7.7-3 10.3 4.9 7.1 10.8 6.3 1.8 13.8 2 19.4 4.9 9.8 6.2-.2 22.8 14 15.4 10.7-2.4 22.2-10 23.6-20.9 8.4-3.4 7.8-10-1-5.4-2 6-11.6 10.8-10 1.4 3.3-11.2-16-10-22-14.6m-484.2-270.8c-2.3 9.5-8.9 9.6-4.6.4 5.3-3 2.7-16.5-1.2-6.9-10.8 18.3-25.5 35.5-27 57.6-2 7-2.6 17.8 2.8 22.8 7.6 2.4 7.6 14.6 18 4.3 8.8-4.9 8.4-15 8.1-22.5 4.3-17 7.8-36 4.8-53.4zm-31.8-2.4c-13.8-6-29.5-6.3-44.2-9.7-16.7-4.2-33.9-4-50.4-9-10.6-3.7-19.8 23.3-5 20q38.8 5 77.6 10.9l18-.1zm37.4 7.6c18.3 5.9 38 7 57 9.6 27 1.4 52.9 9.7 79.3 14.6l72.6 14.8c1.6 8 2.5 24 7.3-10.7-21.1-6.2-43.6-6.8-65.2-11.1q-75.1-11.9-150.4-23.3zm436.6-91.4c-17-2-37-8.5-52.7-5l-6 32.4c14.6.1 44.7 17.5 52-.1zm-24.1 268.1c10.5-11.2 11-27.8-8.1-27.1-14.1-5.5-30-4.3-43.4-11.4-8.7-.4-19.4-1.7-9.6 10.1 8.9 7 9.5 12-1.6 15.9 10.7 11.9 39 2 55 11.4-2.5.5 10.4 1.2 7.7 1.1m-400.1-291c11.3 3.6 24 4 35.9 6.3 18 7.5 15-13 16.8-25 1.3-10.1-11.2-6.6-17.6-8.8-11.6 0-34-10.4-35.3 7.4-.5 6.7 0 13.4.2 20m188.6 155.6c-12.4-4.1-26-4.7-38.7-8.2-21.5-5-43.2-8.4-64.6-13-.6 4.5 8.4 9.6 11.6 14.3 6.1 9.3 16.5 11.5 27 11.2 15.1 2.2 29.5 7.8 44.6 9.7 5.9-5.8 14.1-8.4 20-14m-89.5 22.8c15.6 6.6 34 5.9 50.2 11.9 13.8 14.4 29-17.6 12.4-19l-56.7-11.4c-5 5-3.6 12.5-6 18.5m591 634-100.5-61.5c-8.4 9.5 17.4 19.4 24.1 26.4 24 16 47.4 33.4 73 46.6 6 2.8 3.3-9.2 3.4-11.5m-658-666.3-6.4 28.4c7.1 8.6 24.7 28.4 25 5.5 3.7-14.7 7.5-29.5 9.6-44.5a100 100 0 0 0-28.2 10.6m443.8 132.4c11.5-21.2 19.6-44.3 31.3-65.5 12-14.5 1.3-20.7-13.5-22.1-15.5-3-31.7-10.2-47-9.5-10.1 18-15.6 38.2-26.2 56.1-5.6 4.5-5.7 22.8 1.4 9.8 8.9-19 16.8-38.4 27.1-56.6 16.2-7.3 37.3 4.4 54 8.5-1.8 16.2-10.5 35.3-17.3 52-2.8 9-9.6 17.9-9.8 27.3m-287-263.4c15.3.7 30.5 4.5 45.8 4 8.1-6.4 9.2-26.6-7-22-11.4 1.8-38.7-13.7-38.3 4zm-202.7 151.2c11.5.2 33 14.5 36.9-1 5.4-15.3.5-26.7-17.5-25.4-12-5.8-18.4.7-17.4 12.3zm356.6-3.4c-6.8 14.1-8.9 30-13.5 44.9 23.4 13 26-25.3 34.2-39.6 2-7-15.5-7.1-20.7-5.3m61.6 7.6c-25.7-15-27.8 25.1-36.2 40.7-6.9 15.6 19 7.2 18.8-4.6a282 282 0 0 0 17.4-36.1m436 541.3c-6.3-1-13.5 8.2-20 11.9-34 24.3-64.9 52.4-100 75-9 7.4-23.8 11.8-25 24.9 3.6 3 11.4-7.2 16.9-10.3q52-40.7 104-81c8.1-6.8 17.2-12.5 24.1-20.5m-849.9-577c14.1 1.8 28.4 5.2 42.4 6l22.4-9.7c-7-7-27-5.5-39-7.6-10.5.9-32.5-11-26.7 7.5zm267.7-131c.4 7-7.6 18.7 3.9 19.4 16.9 6 35.4 6.2 31.4-16.8-10.8-2.3-24.9-7-35.3-2.5m-96.6 5c7.3-9.9 3.3-23.9-10-21.6-10.5-2-25.3-4.5-24 10.7-.8 13.9 24.3 7.8 34 11m-175.2 181.8c13.8-5.9 41.4 5.8 47.2 2.3-10.7-4-9.9-19-24.8-18-10-2-27-10-27.8 5.8-4 6.5.4 6.7 5.4 10m785.3 493c15 3.2 30.1 25.4 44.7 14.5 1.2-6.9-11.4-9.1-17-13.6-9-5.1-18-10.5-27.6-14.5-2.2 3.3 5 8.6 0 13.6m-58.8 6.8c.5 11.4-1.2 23 1.4 34 19.7 4.3 12.4-25 14-37.6 2.1-6.7-13.6 1.6-15.4 3.6m-543-503.2c-5.6 11.7 7.7 34.8 10.5 11.7 2.8-12 23.4-52.8-3.8-28.8-1.9 5.3-1.5 14-4.7 17.4l-1-.2zM2402 886.9c11.8-.4 29.2 7.6 27.2-11.2 1.5-12.6-27.9-15-25 1zm-253.9-8.9c12.3 7 12.1-7.6 12.5-15.6l2.5-26.6c-12.2-7.8-11.6 7.2-12.2 15zm297.6 200.5c-6.5-1.5-37.4-1.4-17.4 4.6 11.8-1.8 29.5 7.8 24.7-8.2 4.1-16 23.5-42.4 17.5-52.8-9 18.5-15.3 38.4-24.8 56.4m-145 28.3c2.2-6.5-.7-11.2-6-15 1.9 10.4-11.2 16.6-7.2 27.5-1.3 4.5 3.3 17.2 7.1 11.7 2.3-6.6 6.5-13 7.6-19.6zm449.3 271.3c13 9.8 18.4-6.3 23.2-16.8 6.4-7.6 5.5-19.9-3.9-7.2-3.3 6.8-12.9 6.5-19 10-4.8 2.9 21.3 12.4 3.8 13.3zm-548.8-517.6 1.3-20.2c-10-4.6-22-3.2-18.8 9.8-3.4 8.7 6 7.5 11.7 9.1zm615.4 343.9c-.5-5.2-12-13.1-13-7.4-1.3 12 3.3 34.8 7.5 39 4.4-10 3.7-21 5.5-31.6m-782.1-151.5c-3 10.1-.6 20 11 20.7 11.6 4 14.4-17.3.2-16.4a24 24 0 0 0-11.2-4.3m615 358.3c-10.7 8.1-7.6 26.1-11.8 38.6 8.2 15.7 11-17.5 11.5-25q.5-6.7.4-13.6m-195.3-539c-1.4 11.4-9 29.7-2.5 37 6.1-7.6 10.4-28.5 5.2-36.7zm-11.6 34.4c1.5-9.8 9-32.1.8-34.4-2.9 10.5-3.3 22-5.2 32.9.3 2.8 2.8 1.2 4.4 1.5m-119-150.3c10.2 7.1 46.2 8 48.6 5.6zm343.3 562c6.4-16-12.8-12.2-8.8.6 1.5 4.4 6-.4 8.8-.6m89.6 66.3c-7.6 3.4-23.2 20-7.9 15.2 3-4.8 8.2-8.9 7.9-15.2M2648 1037.2c5.2-.4 9-8.3 13.7-11.6 2.6-11.4-12.4-.8-12 7.6zm306.1 427c-3.4-8.5-24-20.6-13.7-5.6 3.6 3.7 8.7 5.3 13.7 5.6m-223.3-149-5.1 14.4c9 8.8 11.2-9.7 5.1-14.4m-15.5 293.2c19-2.2 60.3-51.1 0 0m217-160c9.3-15-20.4-6.1-5.5-.6zm-172.3-54.2c-.6 11 4 9.8 6.6-1.2-2-2-5 0-6.6 1.2m38.7-186.9c4.2-7.2-5.4-27-2.7-9zm-71.3 205.1c-12.5-11-13.2 8.4 0 0m-227-367c8.5-5.4 12.1-35 0 0m151.1 352.3c-11.9 6.3 7.7 14.1 0 0M1000.4 1625c-8.1-8.2.9-28.4-15-30-12.4-.4-1-16.8-4.2-24.3-5.4-27-32.9 10-48.2 2.4-12.7-5.9-16.4 11.2-27.6 9.7-9-3.9-16.5 4.5-24.7 7.2-4.6 10.3-17.5 7.3-26 8.5-7.4 3-14.5 7-22.8 7-6 3.5-11.6 9-17.9 11.3-6.8-3-14.2.1-18.9 5.4-5.9 13.5-23.2-2.8-27.2 14-8.8 1.3-19.5-6.6-26.8 1.5-5 11.5-13.4 11.5-24.8 9.9-11.6 1.8-11.1 13.4-5 17.6.3 6-3.2 13.6 4 16.6 12.4 5 4.3 18 11 27.2 3.5 12.2-1 27.4 7.7 31.6.9-13 3.4 6 2.4 10.9-3.9 9.7 12.2 9.5 7.1 19.6-3.5 16.9 5.9 34.5 8.5 51.4 5.7 9 8 20.4 13 30.6-2.5 17.1 9 30.5 9.4 46.1-3 7.4 11.8 26.7 2.6 23.1-4 10.5 7.7 14.8 3.3 2.4 6.3 8 5.3 19.4 8 29 0 12.2 1 24.7 7.4 35.2 4.9 16.2 15.6 28.3 18.2 45.6 3.2 5.8 13.3 8.5 5.4 16.8-4 10.8 7.2 18.7 6 29.6.8 6.1.8 12.5 4.7 17.6-3 13.5 6.3 27 5.9 40 6.3 7.4 7.5 16.1 6.6 25.5 0 10.1 6.5 18.1 7 27.9 7.3 10-5.5 2.5.4 14.5-1 9.7 9.6 11.9 6.4 3.5 8.4 1.3 2.6 22.7 9.9 29 12 10.2 8 29 8.2 43.1-6.8 14.2 13 11.4 11.5 21.8-1 18.3-9 28-7.8 46.3 2 9.4 0 16.4-1.7 2.3.7-16.6-2.6-33.9 3.2-49.9-13.4-.9-11.2-13.8-11.2-23.7-1-9.3 2.4-20.2-3-28.2-11.5-3.1-12.5-14-14.8-23.9-10.9-29.4-15-60.7-24.6-90.5q-23.1-87.7-46.8-175.5c-7.8-33-18.3-65.4-26.3-98-5.9-18.3-8.6-37.2-14.9-55.4-16.2-62.1-33.6-124-49.5-186.3-19.6-47.3-31.3-97.3-40.9-147.4-5-5.2-7.3-14.4 2.2-16.5-.3-10-4.8-19.9-6.8-29.8q-24.3-89.2-49.1-178.3c-7.7-3-16 2.7-24 3.8-36 10.2-72.5 18.8-108 30.3-2.4 9.5 6.6 17.7 5.7 22.2-4.8 5.4.7 13 .7 19.5 4 21.8 5.2 44 11.3 65.4 5.9 20.6 5.3 42 8.7 63 6.2 31.3 6.7 63.3 10.8 95 1 20.3 6.6 40 9.5 60.2.7 28.4 7.7 56.2 9.5 84.6a1135 1135 0 0 1 10.8 77.8c3.4 20.1 8.4 40 8.6 60.4 5.8 36 12 71.8 16.4 108 1.8 30.9 7.9 61.4 11.9 92q6.5 38 10.8 76.2c6.3 29.3 7.2 59.7 13.8 89 3.2 18.8 3.3 38.1 5.4 57 1 20.5 5.6 40.8 7.8 61.3.7 8.8 4.3 17.8 2 26.5-7.2-12.4-6-29.2-9.1-43.5l-12.7-93.4c-10.4-2.5-5-25.6-9.5-36.2-2-20-3.2-40.2-6.2-60.1-3.4-24.3-4-48.8-8.7-73-3-30.2-8.1-60.2-11.5-90.4-6.3-45.1-13.6-90-19.5-135.3q-6.7-49.2-14-98.4-6.4-51.3-13.8-102.4c-5.5-35-9.8-70.2-15-105.3-6.3-46.5-13.5-93-19.4-139.5-2-15.1-4.7-30.2-6.2-45.4-11.3 2-14.8 11.2-22.4 0-5.2-3.6-1.3-12.2-5.3-17.3a382 382 0 0 0-17.8-38.4c-9.2-7-7.3-18.3-3.3-27.6 2.7-14.6 9.5-30.3 5.5-45.1 1.2-12.4 14.8-22 5.9-33.8-3.2-4.1-4.5-21.7-9.8-11-10.4 13.7-13.8 37.3-35.9 32.5-22.5-.7-9.8-31-15.7-45.5 0-15.7-2.6-31-2.7-46.8-2.3-23.4-3.4-47-4.7-70.5.7-13.5-7.6-29.5 1.4-41.3 40.7-67.3 79.3-135.8 120-203 11.1-9.7 27.7 13.3 40.9 17.9 9.8 8.6 24.5 13.2 29.2 16 12.4 13.2 30.1 20.2 44.7 30.8l33.7 21.5-4-23.3c.3 13.1-7 12-7.2-.2-3.8-23.4-7.8-46.9-11-70.4 17.3-7.4 39.3-5.5 58.2-10.5 35.3-5.6 70.8-9.6 106-15.6 4.5-18-.8-40.7-1.2-60.1 0-14.7 0-29.3-2-43.9 1.7-18.6-3.8-37-1.6-55.4 18-5 37-5.5 55.6-8.1 24.8-1.8 49.5-5.6 74.3-7.5 44-5.4 88.4-9 132.4-14.7 26.8-1.9 53.4-6 80.2-8.2q59-6.8 118-12.5c48.4-5.9 96.9-10.4 145.3-15.6 36.6-3.4 73-8.4 109.6-11.9 29.3-4 58.8-5 88-9.4 33-2.6 65.7-7.2 98.6-10.6 28.7-2.6 57.4-5.2 86-9.1 13 1.7 25.8-6.3 37-4 5.7 2.1-1 12.3 5.3 18.4q45.9 109 90.8 218c-1.7 9.9 14.3 12.3 13.5 12.8-14.8.6 1.3 16.9 2.2 24.8 6.5 8.2 2.5 22-2.5 6.4-6.3-13.2-9.3-36.2-29-26.2-8.3.3-30.3 7-29.7 2.1 15.1-2.4 30.5-3.7 45.3-7.6l-25-60.2c-9.7-.4-33.2 6.8-34.2 1.9 12-3.5 41.2 1.3 28-17.4-7.4-16.8-13.7-34.1-21.7-50.6-7.4 1.6-36.5 2.3-14.9-.5 13.2.5 15.1-5.4 8.7-15.3-14.2-33.4-26.7-67.5-42.3-100.3-35.5 1-70.5 8.2-106 10.1-33.8 4.8-67.9 6.8-101.7 11.3-38.7 3.7-77.2 8.3-115.7 12.5-28.5 1.7-56.7 6.6-85.2 8.8-28 3.8-56.1 5.2-84.1 9-39.6 3.9-79.1 9.4-118.8 12.2-23 3.5-46.3 4.7-69.3 8.2-28.7 2.1-57.3 6.3-86 8.6-26.6 2.7-53.1 6.4-79.8 8.6-27.6 3.3-55.3 5.4-82.9 9-26.4 2-52.6 6-79 8.3-7.7 5.2 2.2 16.3 3.5 24 7.7 20.6 13.6 41.8 22.2 61.9 6.7.5 37.6-2 15.5 2-22.5-2.5-7.4 18.8-4.4 31.2 6.1 16.6 10.6 34 18.2 50 7.7-.6 21.4.3 4.6 2.7-6.9 5.6 2.3 15.9 3.6 23.5 14.1 37.6 25.7 76.1 40 113.6 1.6 5 22.6 1.1 7.8 4.5-10.9 4.9.2 13.7 7.8 8.5 11.8-2.7-1.7 2.4-6 4.7-5.7 3.8 2.3 13.1 3 19.3 8.1 21 12 44.2 27.7 61.5 8.3 10.8 5.2-11.2 4-16.4-.3-12.9-1.6-25.5-3-38.3 3-13.8-8.5-29.7-2.2-40.7 6-5.2-2.7-15.1 5.1-19.4 3.6-11.9 7-24.6 8.1-36.9-2.7-5.5 5.6-9.8 4.6-16.6-3.8-6 3.7-8.7 3.5-15.3 2-12.6 6.8-25.1 6.2-37.8 1.5-8 10.5-23.4 8.8-36.5-7.2.2 9.6-10.5 5.7-18.5 4.4-21.3 10-42.6 13.6-63.9-6.3-2.7-13.6-2.2-.6-5 5.6-4.3 4-13.1 6.4-19.5-.8-19.2 15.2-5.2 24 1.8q42.4 30.5 84 62c7.9-6.8 6 4.3 11.4 7.6l70.5 74.5c28.6-4.7 57-10.3 85.8-13.7 3.1 2.5-16 3.8-23.3 5.6-19 3.8-38.4 5.5-57 9.9-2.9 4.5 7.6 10.3 10.4 15.3 15.2 17.1 31.9 33 47 50.2 3.7 9.2 28.9 2 9.2 8.6 13 15.2 28 34.5 44 43.7l210.2-43.7c14.2-2.8 8.7-19.6 10-31.8.2-9.4 2.7-23.6-11.8-19.5 10.6-1.1 16-8 13.6-18.7-.5-6.9.9-14.4-.7-20.9-6.7-4.9 6.2-5.6 2.2-13.8.7-17.4 1.2-34.7 2.7-52-3.4-7.6-.4-10.1.1-18l1.4-23.3c-6.5-1.7 4.7-8.4.7-14.4-.9-18.2 4-36.4 1.3-54.6-3.7-4.2-39.3 2.7-18.8-2.7l18.8-2.4c3.6-11.8-2.2-37 16.5-22.8 18.2 5.1 36.2 15.7 55.5 10 5.3-2.3 38.5-2.7 19.5 0l-32.6 4.4 104.8 36.8c7.3-4.3 9.6 6.7 16.8 4.4 16-1.8-15.3 5.5.1 14.8 13.2 16.7 12.7 58.5 41.6 49.9 17.7-1.5 42-8.3 55.2-5.7-21.8 3.8-44.2 5.4-66.2 9.1-8.8 3.4 2.5 14.8 4.4 21.9 14.2 29 26.9 58.6 41 87.6 10.7 6.3 28-3.8 41.3-4.5 33.5-7.2 67-14.7 100.9-20.8-9.1 9.6-24.3 8.2-36.5 11.8-13.5 5.1-6.8 25.1-11.6 36.6-4 23.6-5 47.7-9.8 71.3 9 11.8 30.8 8.7 39.6 19a69 69 0 0 0-3.9 30.3c-2.5 8.2 1.5 25.2-9.9 23.7-4-5.9-11.7 1.1-17.4 1.3-15.6 4.7-31.8 7.9-47 13.7-8.5 11.3 10.7 25.7-2.3 37.4 6 11.3.2 19.2-10 22.1-5 4.5-4.1 9.5-7.6 1.5-18.8 5.8-36.6 16.8-55.5 20.6-32 12.7-63.5 27.9-95.9 38.3-17.2 5.2-35 8.7-51 17.2-9.2.2-26 8.8-27.3 8.3-1.2-11.2-10.3-15.1-19.9-18.4-14.5-8.3-29.5 7-43.7 10.2-18.8 6.7-38.1 12-56.7 19.1 10.7 12.1 25 32.3 42.3 29.5 38-16.2 78.4-25.5 117.3-38.9 46.7-12.8 92.7-28 138.9-42.4 29-10 57.7-22.5 88.3-26.8 10 5-17.2 5.8-22 8.6-14.4 4.8-39.2 9-45.4 19 26.3 12.5 52.8 25.7 80.9 34 37.7-7.4 72.7-26.7 109.1-39.5 20-4.3-5.3 7.3-13 10a723 723 0 0 1-75.4 28.8c-11.4 1.5-4.3 7 3.4 7.2 44 10.6 88.3 20.4 133 27.4 20.9 8.8 41 0 60-8.1 20.4-7.7 40.5-16 61.2-22.6 12.8 0-11.6 8.3-16.1 10.3-22.5 9.2-45.6 17.1-68.4 25.6 53.5 8.8 107.9 13.4 159.8 29.7 8.9 2 17.8 5.7 26.6 6.7 27.8-11 57.3-17.5 84.8-29 9 5-59.8 28.5-43.8 19.6-9.6 3.9-27 6.3-31 13 29.8 12.5 60.7 22.6 90.3 35.3l21 7.6c24.4-7.4 46.8-20.1 71.3-27.4 10.3 3.4-15.4 8-20.7 11.8-11.6 7.6-34.6 11-39.7 19.5a2319 2319 0 0 1 98.3 45.3c6.7 8 21.5 3.6 24.7 6.7-4.4 5.2-11 5.9-16.3 8.6-15 4.3-33 9.5-49 15-18.3 3.2-2.5 25.8.5 37.3 9.6 15.9 18.8 41.3 30.8 50.4-7.4-19-6.2-39.6-5-59.4 2.6-11.5 10.3-20.9 16-31 2.1 17.3-15.6 32-9.8 50.3 3.4 19 5.2 39.7 14.7 56.3 7.6 1.3-1.4 12 7.2 18.4a401 401 0 0 0 75.4 105.3c17.2 19.3 36.7 36.2 54.9 54.5 37.3 36.8 82.1 64.6 124.4 95.2 35.2 23 68.6 48.9 103.9 71.8a23 23 0 0 0 16.4 5.8c-5.6 5.6 7.6 7.4 11 11.1 35.2 20.6 69.2 43.2 104.2 64.2 28.2 16.6 54.6 35.8 81.4 54.4 20.8 14.8 44.2 25.3 66.3 38-21.7-3.6-42.8-18.8-62.8-29.4-55.5-41-114.9-76.2-173.6-112.2-14.8-9.7-31.8-16.9-45.2-27.5-30.7-20.5-60-42.9-91-62.7a1129 1129 0 0 1-88.7-63.4c-28.7-20.2-53.4-45-78.3-69.5a635 635 0 0 1-78.3-89.2c-9.7-12.6-15.4-29.7-26.5-40.2 14.3 27.6 27.4 56.1 46 81 21.5 26.2 47 48.8 70.7 73 32.9 31.6 69 59.9 106.4 86 26 16.4 52.2 32.6 76.5 51.6 18.5 13.1 37.7 25.3 56.3 38.1 16.2 9 32.5 22.1 48.5 33.3 29.5 21.5 60 41.4 89 63.5 37.5 27.6 77.8 51 117.8 74.6 15.6 14-15.5-3.3-21.9-7-23-11.8-43.6-27.4-65.3-41.2-49.2-34-97.4-69.4-147-102.9-9.6-8.1-23.4-15.8-32.5-9.7 18-9.4-13.2-18.3-21.2-24.9-28.8-17.7-54.2-40.7-83.7-57.5a963 963 0 0 1-114.4-89.4c-27.8-27.1-55.9-54.2-82.3-82.8-.8 6 4.3 12.2 5.9 18.2 2.3 6 6.2 12 2.5 18.2-2.1 15.5-38.8-13.5-27.8 8.2 7.3 17.4 14.3 35.4 27.9 49.2 10-.3 22.8 2.4 17.4 12.2 5.6 2.6 13.5 2.9 17.7 7-10.4 13.4 13.1 2.2 16.1 12.5 6.6 11.6-4.7 16-9.2 15.2 3.4 9.2 23.9 18.2 17.2 28.3-10.3-.5-32.7-1.6-15 7.3 8.1 3 10.5 10.2 17.2 14.5 13 5.4 8.4 16.9-1 5.8-16.2-7.6 37 34.8 18 21.5 10.1 9.8-25 9.6-7.3 20.2 9.5 4.3 15.4 13.5 22.3 22-6.3 6-36.7-8-19.6 6.3 9.1 7.6 21.4 16 20.4 28-22.1 0 10.4.1 30.3 25 27.8 21.7 57 41.5 83 65.1 41 31 79.8 64.7 120.6 95.7 28.7 23 56.7 47.1 85 70.8 28 25.4 57.6 49.1 86.6 73.5 22 20 46.1 37.8 68 58 12.7 11 25.6 22 37.2 34.1 8.6 16.2-12.3-7.1-16.4-10.6-31.2-25.7-62-51.9-93.4-77.5-25.8-21.7-51-44.2-76.7-66-35-30.8-71.2-60-107.3-89.5-40.8-33.4-82.6-65.6-123.4-99a943 943 0 0 0-89.7-67.1c-11.2-6.4-20.9-17.8-34.9-15.8 9 7.1 3 11.8-1.6 17a5271 5271 0 0 1 123.4 87c34.2 25.7 66.4 53.9 99.6 80.9 33 30.8 68.9 58.4 102 89.1 51.6 42.6 100.6 88.3 151.2 132 10 10 20.6 19.5 29.8 30.2-8.2-1.9-13.1-10.4-19.8-15.2-33.7-29.6-66.9-59.8-101.4-88.4-24-21.7-49.2-42.1-72.7-64.3-31.9-27.2-63-55.1-95.5-81.5a590 590 0 0 0-48.7-39.4 540 540 0 0 0-45.2-35.3c-40.5-35.1-86-63.3-128.9-95.3-13.3-6.6-16.5 7.6-2.3 11 5.8 5.9-14.2 13.9-20.5 17-23-1.9 21.4 19.3-2.9 16.4-3.4 13.8-16.2 17.8-26.3 26-53.5 40.7-105.9 82.7-159.5 123.2q-23.6 18.1-46.7 36.7c.4 12.6-13.7 1.1-16.5-4.6q-27.2-25.1-54-50.7c-13.8-13-27.3-26.8-42.3-38-5.4.5-6.3-11.7-3.4-13.7 5-9.3 12.4-18.1 22.3-23.5 20.2-13.3 39.5-28.2 60.4-40.3 10-2-7.6 10-12.3 12.9-18.8 13-38 25.4-56.2 39.2 23 22.2 46.7 43.9 69.5 66.5 12 11 22.7 23.2 35.2 33.6 24.7-16.5 47.8-35.7 71.8-53.2l151.2-113.9c5.7-6.7-.4-10.3-6-14-8.1-7-19.7 1.2-14.5 11 .6 13.1-27.9 10.9-36.2 23-45.5 33.6-92 65.8-137.2 99.9-9.8 7.5-20.1 14.2-29.5 22.2 5.5 12.1-12 .4-15.3-4.9-22.1-20.2-43-41.7-64-63-1-8.5 15-11.3 21.1-18.4q21.7-15.6 43-31.8c-3.2-3-11.1-3.1-13.2-9.7-3.5-5.6-15.8-3-14.5-12.6 17.6-24.8-32.8-14.4-20.8-39.7 1-16-39.5 4-28.4-17.4 10.7-10.3 13.6-19.6-2.8-22.3-2.9-5.9 5.8-11.2-2-16.6 6.4-8.4 19-11.4 19.2-23.6 4.4-6.8-4-10-8-14.3-39 2.1-80.7 12.5-108.7 41.5 5.2 9.9.2 17.5-8.9 8-14.2-5.4 13.6 20 19.1 26.7 7 13.5 28.2 23.4 26.7 38.2-8 4.5 6.2 9.3-7 11.4-15.3 7.8-31.8.1-47.6 3 .8 12.2 14.8 20.8 20.6 30.7 8 12.8-24.3 1-7 12 13.6 3.7 4.6 18.3-5.4 18.1-19.3 5.3 10 28.7 12.3 40.3 10.6 20 21.1 40 36.5 56.8 14.2 26.5 50.4 47.4 59.5 74-3.7 7.3-10.5 2.4-16.4 1.2-8.4-2.6-20-7-8 5 10 9 23.4 24.6 10.4 35.2 6 16.8-7 26.9-23 24.5 15.4 16.6-8 33.8-24.8 27.2-5.8 5.6 6 31.9-14.4 25.8-11.6.5 1 26.1-23 13.3-16.5 3.5-38.2-3.8-51 1.4 5 8 11.7 25.9-8.4 18.4q-25.2-7.8-50.8-14.7c-1.8 11.6-1.2 36.8-22.8 33.4-15 4.8-40.4-31-33.7-.1-.6 11.1-1.5 22.2-1.5 33.4-12.9 9-31.5 4.4-46.9 6.7-20.6-2.5 1.1-29.4-9-38.5-5.4-10.7.1-25.1-2.8-37-13.5 15.4-26.5 32.5-42.6 45-6.8 5-18 0-13.2-9.3.4-13.3 16.1-39 6.6-45.3-17.9 9-42.8 25.7-54.1-3.3-8.2-5.3-8.3-13-7.4-20.6-15.6 4.6-29.8 20.8-46.4 14.6-5.7-1.8 8-6 4-13 1.8-9.4-1.9-18.6-13.3-10.7-15.7 6-35.9 4-49.5 11.8-7 17.4-25.9-48.2 5.5-27 3.9-8.5 18.5-39 3-21-5.2 6.4-17.8 16.5-18.7 1.7-5.5-21.6 12.4-20.5 10.8-40-1.8-9.3 14-31.3 3.6-33.9-12.3 7-33 6.2-23.1-12.4-1-14.1-22.7 9.4-32.2 11.5a1857 1857 0 0 0-148.9 91.6c-34.5 23.6-70 45.7-104.1 70-17.6 11.7-34.3 24.9-52.5 35.4-.5-5.9 9.8-8.6 13.8-13a5311 5311 0 0 1 210.7-141.5c38.5-24.3 78.4-46.3 118-68.7 9.7-8.8-10.8-15.5-17-5.7-70.5 43.8-141.8 86.1-212.5 129.4-43.5 26.8-87.3 53.1-130.7 80-2.1 4.6 2 15.7-5.1 14.6 3.2-22-19.5 5.6-28.5 3.6 2.5-8.7 33-16.3 11.3-22.2-5-3.6-.4-13.3-6.6-17.5-2.2-9.7-4.2-18.9-12.8-26-4.7-12.8-4.3-26.8-17.1-34.5 1.2-16-12.2-25.4-14.4-40.5-16.3-5.7-2.8-26-19-33.8 5-8-6-10.4-5.3-16.8 3.8-17-22.4-26.6-13.8-44.6-.7-5.6-10.5-8-10.6-15.7-2.8-7-5.3-14.3-11.9-18.7-7-4.8-4.7-14.7-7.1-22-12-4.7-13.9-12.8-9.6-24a19 19 0 0 0-11.2-14c1.5-10.7-8-14.6-12.3-21.7 2.8-10.8-7.6-19.8-7.2-30.7 1.5-10.5-5.8-17.3-13.2-23.1-9.6-6-1.4-19-11.5-24.6-5.2-6.3-4.6-15.8-7.8-23.3-2.4-16.8-15.9-29-24.5-41.8-5.1-8.8 3.2-20.2-4.7-27-10-11.2-11.6-28.4-21.7-40.2-8.5-5.8-1.5-15.6-9.3-21.7-8.6-6.4 2-19.7-10-23.3-8.2-13.1-5.7-33.2-16.7-46.2 4.1 2.4 14 16.9 13.1 5-4-1-9.5-8.4-13-5m1107.3-136a170 170 0 0 1-70.5 41.8c-10.4 7.6-36 4.6-36.6 16.3 5.6 20.7 33-1.5 47-4 28-12.6 56.2-30.9 71.6-58-1.5-5.2 7.8-17.9-2-7zM716.5 1702.9c-.2-6 3.8-14.3-4.4-16.3 1.8 7.4 7 36.3 10 35.2.5-6.6 1.3-15.2-5.6-18.9m88 329.8c-.9-7.7 2-16.7-4.5-22.5 1.7 2.5-99.6-140 1 14.3 5.2 9.6 6.3 31.5 11.1 34.6 6.9-11-2.5-18-7.6-26.4m433.8 113.9c-7.4 4 12.8 14.5 8 24 5.2 22.7 5.2-10.8-2-16.9-9.1-4.3-5-32.8-1.7-11.9 4.7 9 10 16.3 12.2 26a64 64 0 0 1 6.2 36.9 82 82 0 0 1 20.3 41.3c10.8 14.2 25.1 7.8 36.6-1 101.9-62 203.5-124.5 305.5-186.3 9.5-8.2 32.6-12 21.5-27 5.3-7.8 21.6-5.4 11.4-17-4.4-15.4 36.7-11 15.6-19.1-8.2-6.5-15.2 3-22.7 6-65.4 39.5-131.5 77.7-196.7 117.4-8 7.5-18.1 4.2-5.6-2q99.3-59.6 199-118.5c4-3.8 16.3-6 12-12.5-13.2-19.5 25.2-14.5 34.3-17.9 14.4-1.6 11-12.2 2.1-18.4 5.1-7 15.5-6.3 23-9.5 11.6-3.5 23.3-6.7 34.6-11 2.5-12-15.4-11.3-19.7-17.6 0-10.4 11-21-6.2-17.7-.8-13.9 31.7-26.3 21.3-41a34 34 0 0 1-10.7-24.8c-4.6 7.1-12.8 2-4.6-2.6 7-3.2 0-10 8.2-13.5-2-11-15.9-30.4-28.9-15.5-35 21.1-70 42.5-105.7 62.5-11.2 8.5-26.5 12.3-35.3 22.8 16.2 30 39.8 56.2 57 85.2-16.1-8.8-27-32.5-39.3-48.3-7.5-10.8-13.4-23.2-22.5-32.7-28.1 7.2-53.7 28.5-80.7 42.3-5 3.6-28.8 13.9-14.2 3.2 28.7-19 60.9-33.4 89.3-52.5-17.9-25.3-37.4-49.5-54.3-75.5-12-16.3-25.6-31.1-39-46.3-23.6 12.7-46.7 26.7-71.7 36.7-7.1 5-30.9 12.5-12 2.6a622 622 0 0 0 80.3-42.6 604 604 0 0 0-66-83.8c-11-11.2-18.3-33.1-34.7-16.2q-45.4 19.2-89.2 41.6c11.2-13.3 32.4-19 48-28.1 18-8.7 38-14 53.9-26-21-28.6-45.9-54-70.6-79.3-8 1.7-31.3 4.7-12.4-1.5 18.6-3.1-6.2-20.5-12.2-28.6l-68-68.7c-18.7 4-35.7 14.5-53.5 21.6 15.3 26.3 33.3 51 49 77.1 0 9.1-10.2-7-15.4 3-18 9.1-37.4 15.6-55.3 25.2 20.8 37.4 42.6 74.2 63.3 111.6 65 112.1 129 224.7 193.4 337.1 15 26.4 31 52.2 44.8 79.1-10.6-.2-14.8-21.5-22.4-30.4-36-63.9-73-127-109-190.9-53.8-92.8-106.5-186.3-160.2-279.2-5.3-9.6-11.6-18.6-16-28.6 11.2-8.3 25.3-12 37.9-18.1q14.9-6.3 29.3-13.6c-13.6-24.6-29.6-47.9-45-71.4-8.5 3.7-36.9 3-15.8 0 10.7-1.1 15.2-8.3 25.9-7.4 14.9-6.1 31.9-11.5 44.3-21.1-20.9-24.1-48.9-40.7-68.4-66.1-10.6 2.6-38.5 10.5-25 24.3 3.7 4.7 14.4 26.5.7 10.1-24.3-37.8-48-76.1-72.7-113.8-19.8-6-45.6 20.1-63 9.1-26.5-43.6-51.4-88.2-77.1-132.3-5.6-19.8-28.4-2.4-43.2.1-14.7 5-29.5 10.2-45.2 11-15.3 1.6 3.5 8.6 6.6 14.5 1.7 16.5 7.8 30.1 13.9 46.3 3.6 18.5 16 33.5 19.8 51.8 2.6 7.4 10.6 11.4 9.2 20 5.4 3.8 4.6 10.7 8.4 15.2 8.3 8 6.2 21.8 14.4 29.6 10.6 22.2 85.2-57 53-10.2 9-13.4 10.5 27.8 25.8 16.1l45.8-12.5c6.2-12 13.4 16.7 18.4 21.9 19.3 37.6 40.4 74.2 60 111.6 2.1 10.1-13.7 10-20.6 14-28.1 10.7-56.7 20.3-84.9 30.9-1 8.5 11.3 17.1 15 24.9-7 11 2.1 18.1 9.2 26 3 7.7-11 18.5 1.1 22.2 15.1 2.4 9 13.8 7.4 21 4.2 12.6 12.5 23.8 14.2 37-1.7 11.3 8.7 20.5 8.8 32 11.8 16.5 26.1 34 29.4 54.3-5.2 10.6 11 10.8 8.8 19.3 3.4 9.3 12.9 20 13.2 33 1 7.9 11.6 10.7 11 19.4 1.9 13.2 10 25.6 15 36.7 14.7 7 2.9 25.4 13.8 35 4.3 10.7 1.6 19.6 11.7 25.5-1.8 6.6 6.2 20.1 6 5.8 1-9.2-16.7-23-.7-12.3 2 11.7 4.5 19.3 12.8 26.6-4 11.5 5 21.7 8 32.7-4.8 18.3 17.3 17.7 17.1 36.4 12.3 12.2 8.2 30 18.3 43.1 1 4.6 12.8 9 9 11.8-10.7 1 4.8 22.6 3 10.8-2.4-8 .5-17 2.9-3.3 1.6 14.5 10.9 27 15 40.8 11.1 8.5-5.4-.6-.9 8.6.2 4.3 3.8 7 6 10.4m493.6-1151c10.3-9.9-27.4 2.4-7-6a64 64 0 0 0 30.5-3.4c14.4-4.6 29.5-8.8 41.9-17.5 2.4-16-17.1-23-24.6-33.9-18.4-13.8 18.3-14.4 28.5-17.9 18.1-3.2 35.7-6.4 53.4-10.7 1.6-1.5 32.4-6.2 27.6-12.3-10 1.8-29-17.9-31.7-4.6 8.5 6.2 3.2 4.7-2.1 9.4-2.3 13.5-1.4-9.5-10.9 1.2-14.8 6.5-32 5.3-46.7 9.8-5.1 4.4-11 4.3-17 2a44 44 0 0 0-21 7.3c-2.4 11.4-4.7 29.8 1.9 34.7-6.2 9.9-17.2 1.7-27 7.2-16.4 3.4-31.7 13-48.9 11.2-3.4 5-10 4.6-14.3 8-6.7-1.6-12.4.7-17.8 4.7-4.9 2.5-11.1-2.4-16.7 2.2-10.5 8.2-26.3 3.5-36.8 12.5-11.2 1.4-36.2 1.9-35.6 13.7-6.6-5.1-12 4-14.6.3a16 16 0 0 0-14-10.3c-7.5-3.2-14.3-9-22.1-10.7-8 .5-7.2 3.8-14.3.9-8.7 0-15.9 3.5-24.6 5.2-2.2 8.4-10.3.9-15.2 5.8-9.5 7.8-20.7 1.2-31.3 6-10.2 5-21.8 4.8-31.5 10.9-19.1-1.2-35.5 9.8-53.4 13.5-11.3 6.3-24.9 5.5-36 10.4-9.4-3.4-26.6.5-24.4 13.2 1 10.9 11.1 23.8-.6 26.8-2.1-7.9-10.2-6-14-.3-6.2 9.3-43.3 2.6-21.6 15.6 15.3 3.6 31 16.5 46.6 10.3 5.4-1.4 26-9.4 14.8-1.5-6.4 6.4-16.4 6.1-24.5 9.2-2.1 12.3-6.8 26.2-4.2 37.5 14 3 29.5-12.2 44.6-15.2 11-6.3 29.3-8 34.6-20.5.7-14.9-3.7 8.3-4-5.8-5-8.3 6.5-20.3-6.2-17.3-9.5-.8-34.4 11.3-32.8 5.8 8-5.8 43.5-7.3 27.7-19.2-6.8-6.2-14.8-11.5-20.8-18.4 2-2.6 12.1-1 17.3-3.4 8.8-2 18.5-2 25.3-8.6 6.5 2.3 12.5.5 18.2-3 8.5-3.3 19.2.4 26.5-7.8a188 188 0 0 0 44.3-15.3c18.4-2.8 34.1-13.8 51.4-19.1 7.2 5.2 16.7 13.8 27.7 18 9.2 10.4 29.8 9.5 36.4 17l.2 1c26.6-15 63.8-9.2 89.7-27 8.5-4.7 21.7-.7 31.2-6.2 8.5-1.5 27.1-18.1 28-13.2-5.1 4.4 6 3-2.7 7.2 7 1.6 40.6-11.6 26.2-10.1zm-571.7 151.8c-3 6.2-16.3 9.6-6.6 20.3 5.3 5.7 13.1 13.6.3 5.6-4 4.1 1 13-1.3 18.5-10.5 7.5-29.2 5.9-42.5 11.1-23.6 5-46.8 12-70.1 18.2-9.2-4-17 2.3-25.3 5.3-4.5 4.6-23.2 5.4-16.1-2-14.4-13.6-26.3-30-40.5-43.7-5-1-9-6-16.2-2-9.6 2.6-21.1 1.1-28.5 9-10 8 10.9 22.4 12.6 32.9q29.1 50.8 58.5 101.4c18.3-6 37-11 54.9-18 9.7-.3 10.1 15.3 17 21.7 16.8 25.7 32.4 52.3 50.3 77.2 9-8.7 39-12 21.2-26.3-25.8-37.8-59.3-69.6-83.8-108.3-11.7-5.3-28.1 5-38.7 10.4 5.2 7.5 11.8 14.2 16 22.2-.4 4.1-28.8 11.2-13.2-9.7-9.3-11-20.2-16.9-27-30.4-11.7-18.5-25.3-36-34.8-55.8 11.4-.8 16.2 24.8 25 33.8 14.5 22 33.6 57.8 65.5 21.7-.9-4.4-6-22.3 3-8 5.7 11 17.5.4 26.1-1.2 25.8-10.3 53.2-15.3 78.8-26.2-3-12 15 1.2 21.7-8 28.8-10 66.1-11 88.7-30.8-9.2-3.4-23.4-18.7-7-10.3 7.5 4.2 14.6 13 24 7.7 25.7-9 50.3-20.9 75-32 28.3-9.7 57.9-17 83.9-32.2-3.1-8.1-24.2-17.2-18.7-23.6 8.4 6.8 16.6 14.3 25.2 21.2a968 968 0 0 0 93-32.8c-12-1.7-15.7-12.5-24.7-19.1-5.2-5.2-14.8-6.7-21-2-12.5 6.5-28.4 2.2-41.4 10.1-7.4 5.7-18.6-1.7-24.9 7.1-10.7 12.5-28.4 3.4-41.3 11.5-7.5 3-15.4 5.5-22.7 9.3 1.7 13.4 8.5 25.6-2.5 34.3-10.3-5.1-35.4 15.3-49.4 18.6-10.5 5.7-32.2 4.3-31.2 20-7.7-17-24.2-28.3-39.4-38-15.7-5.2-8.1-28-10.5-42-2-11 7.6-1.2 14.7-7.2a115 115 0 0 0 26.3-9.6c13 1 10.2-9.4 9.6-18.3-2.3-25.8-5.1-51.6-7-77.5-3.2-28.3-4.8-56.7-7.5-85-18.6-23.1-40.8-42.8-60.3-65.1a8580 8580 0 0 1-71.2-74.5c-11-9.3-23.6-31-35.5-29.4-35.5 65.3-68.9 131.6-103.7 197.2-8.5 16.9-18.2 33-26.9 49.8-.2 25.5 8.3 50.8 12.2 76.2 4.4 11.5 2 30.5 11.6 36.7 18.3-.6-7 1.1-1.6 11.3 3.5 12.7 3.6 26.8 10.6 38.3 4 11.7 13.3 16.3 24.2 11 7.3-1.8 13.8-1.4 19.5-6.2-6.2-18.3-2.3-45.7-15.6-58.2-7.7 1-24.8 6.6-27 2.6 13.7-3 38.1-1.4 28.2-22-2.6-12-10.4-30.1 7.8-28.8l35.3-5.8c6.3 11.2 5.8 25.2 8.3 37.8 2.7 22.1 7.4 44 10 66 10.2 4.8 41.2-7 30.2-25.3l-13-84.3c.9-12.7 28.5-25 36-12.7 19.2-6.1 39.1-9 58.5-14.2 13.4-6 8.7 19.5 11.8 28.8 3.5 33.5 8.5 66.9 12.6 100.3-1.5 13-12.2-6.1-19 4.7-7.7 3.5-24.1 6.4-7.8 0 5.7.1 17.6-9.9 7.1-8.7-16.5 7.7-45.3 8.5-54.7 18.7 11.7 1.8 3.2 10.9 15 6.7m535.8 243.7c-7 5-18 7.8-7.3 22.5 7.8 9.5 3.9-15.5 10.3-21.4-7-1.4 9.8-8.5 3-15.8 5.4-6 2.2-25.1-4-14.2.7 7.2-13.5 28.8-2 29m-663.6-311.7c-10 10.6 9.1 21.5 6.7 7.1 1.2-8.3-11.6-6-1.6-10.9.9-9.9-5.4-43.8-13.7-23.3l5.2 25.9zm933.4 417.7c6.6-4.2.3-11-.4-16.8-1.6-8.7-6.6-20.2-10-4-3.8 11.5-23.8 37.9 0 24.9 3.2.7-3 7 7.7 2.7 8 1 11.9-7 2.7-6.8M922.4 1153.3c-3.4 5.8 15.8 12.1 10 2 8.1 1.6 0 10.6 9.1 14 0 9 18.6-1.2 12-8.3 3.6-16.6-8.6-31-21.8-17-3 6-12.6-4.1-19.4 4.7-11.8 7.4-26.8 7.3-34.9 20-5 2.4-6.5-9.9-14.5-2.6-8.4-1.1-31.8 1.4-22.5 12.6 13.7 10.2 26.4-6.6 41.7-5 6.6-4 22.7-.3 24 2.3 5.4 8.2 33.7-17.8 9.3-16.2-6.7-4.6 3.4-7.5 7-6.5m883.4 290-9.2-7.3c-4.3 5.8 1.5 11.1-4.2 15-2.7 14.7-16.9 36.5 7.3 38.2 8.9 4.5 12.4-6.3 12.7-13.2l5.1-25.4zm-1237-302c16.3-.9 35.5-10.5 37.7 13 3.8-6.6-2.3-15-3.3-22.3-4.8-17-9-34-15-50.6-12 .9-35.6 17.6-38.8 1.4 0-11-17.4-32-3.8-36.8l29.8-10c-.3-9.5-8.3-3.6-14-2.5-22.2 7-45.2 12.2-66.6 21.4 3.5 10.1 24.2-6.5 35.3-4.2 5 1.8 4.4 12.2 7.1 17.5l7.1 24.3c-9.3 8-46.9 3.7-34 9.7-7.5-6.3 0 8.3.5 12.5 2.2 4.6.9-15.2 10.6-9.6 13.8-6.3 28.3-8 28.3 9.6 1.5 8.6 5.5 17 4.7 25.8-6.4 10.1-32.8 4.1-31.3 14.7 14-3.2 38.2-19.7 38.7 5.4 3.1 16 10.4 1.7 5.3-5.8-1.8-5.1-3-9.7 1.7-13.6M1686 1493c6-10.3-18.7-14.3-23.3-24.3-10.7-15.4-27.9-25.6-35.9-43.1-14.3-3.5 11.5 23 8.6 26.8.6 10.7 17.8 12.6 19.3 22.6-.4 17.4-33.4-35.9-25.3-21.3-7.3-7.3-9.5-31-22.6-20.2a323 323 0 0 1-68 29.5c-28.8 9.7-55.6 24-84 34.7-7.6 4.3 6.7 9.4 9.7 13.7 21 16.5 40.5 34.8 61 51.8 7.4 7.4 14.9-1.3 22.1-4l121.7-63c-4.7-6.3-21.5-22.3 4.6-4.2 18.8 10.9 37.1 26.8 58.3 35.8 34 13.4 67.9 28.3 104.6 32.2 4.9-.2 27.3-8.5 14.6.6-3.5 4.7 20 4.3 27.6 6 16 6.4 25.1-16.2 4.6-13-18.7 0-36.7-6-55-8.1-12.8-2-27.6-4.7-30.2-11.1-6.5-1.4-6.2 4.9-15.8-1.1-19.2-7.4-38.5-14.5-57.2-22.6-10.6-6-20.7-14-31.5-18.9zm137.8-271.6a182 182 0 0 0-46.8 13c24.3-1.3 48-4.8 73.4-1.6 20.3 1 40.4 4.6 60.5 7.1a479 479 0 0 1 91.7 26.6c6.4-4.9 19.7-10.3-10.1-12.6-34-14.6-68.6-27-103.6-38.5-8-2.2-16.1-6.3-24.1-7.4-13.5 5.1-27.6 8.2-41 13.4m-1143.3 9.9c11.7-.8 24-2 34.8-8.4q12.1-1.2 22-8.3c8.3 1.3-1.3-22.8.1-31 .2-14-24.3 3.8-23-2 6-4 16.4-4.5 20.9-9 .7-19.8-24.6-6.5-35.5-2-20.8 7.8-43.5 10.2-63.3 20.7-20.3 16-49.8 8-68 27-24.7-2.2-44.2 15.9-68.6 15.8a81 81 0 0 1-25.4 8.6c-14.5-1.6-25.8 12-41 7.1-13 3.8-11.2 17-5 25.5 3.5 4.1 3.3 14.8 9.7 14 2.8 7.3 5.3 15.3 8 22.8 24.8-1.8-4.5-36 19.6-34.8 9.2-3.1 19.5-4 28-8.6 4.7-6.2-22.2-21.5-3-25-2.3 7.4 3.5 10.2 8 14.3 1.4 7.8 5.1 11.2 12.6 7 30.3-7.6 60-18 90.7-23.5-9.7 7 3.8 21.3 7.2 8 5.8-12-11.9-15-11.2-25.4-1.7-6.2 5.7-12 8.7-10.2-5.6 7.2 0 11-1.9 16.1 10.7 7.3 5.9-4.3 2.8-4.6 15.5-1.6 1.2 21.7 9.3 25.6 11.5-1.4 23.5-8.2 35.4-7.7 5.4-3.5 6.2-12.3 2.7-15.9-2.5-3.3-10-6.2-12-10.4 2.8-6.2-7.8-13.1-.8-14.5 11.2-6 24-6.7 36.3-9.1-7.5 4.8-37.4 7.5-25 19.7 8 6.1 5 29.6 19.9 22.4 8-7 1.5 9.4 11.9.3 5.5-6.2-1.8-3.4-4.9-4.5m493.7-150c0-13.4-8.8-40.5 15.3-30.7 5 17 5.2 35.2 5.5 52.7-3.5 4.2-16.7 5.1-3.4 6.4 4 11.2 14.1 6 10.2-6.6-3.3-30.8-5.2-61.7-8.8-92.4-.4-12.1-13-3.8-20-3.3l-65 15.4c-1 15.4 3.5 32.5 4.3 48.8 3.8 16.3 10.6-1.6 3.3-9.1 21.8-17.4 19.3 17.8 22.2 31.4 4.2 10.4 3 31.7-11 24.7-.6-10.1-5.4-24-8.4-9 .3 7.4 4.1 20 12.3 17.5 4.8-10 21.5-7.1 31-12 5.5-2.4 14-2.8 17.5-6.4-1.8-9-1.4-18.9-5-27.4m340-267.6c-14.2-5.4-9.6 28-2 31.7 14 7.4 34.7 26.2 39.9 0 7.8-15.8 17.5-31.4 25-48 4.8-6.7 2-12.2 8.2-16.6 7.1-17.8 23-34.8 24.7-53.3 6.2-1.6 6.6-10 10.3-14.7q26.2-49.9 51.7-100c-4.6-6.5 2.8-7.2 1.4-9.1-50.7-17.9-101.2-36.1-152.1-53-5.9 15.4-4 38.6-4.9 57.2 1.8 10.3-6.6 26.3.8 32.4 11.3-2.2 4 2.7-2.4 4.6-.7 10.2-1 21.3-2 31.8 6.6 7.7 2.1 5 0 12.2-1.1 20.7-4.7 42-1.3 62.3 10.9 5.5-8.7 6.8-3.2 18.4 2.9 14.1-6 33.5 5.9 44.1m-571.7 32c-7.3-6.1-13.2-4.6-13.3 5.3-2.9 16-10.3 32.6-3.3 48.6 5.7 19 12.3 37.7 18.2 56.5-4.2 2-5-10.4-7.4-14.5-5.1-14.7-9.4-29.8-15.1-44.2-7 8.5 1 29.3 0 42.9 1 20 4.7 40 5.1 60 14.6-23.8 25.5-50 38.6-74.8 2.8-14.5 24.3-30 14.9-44 13.2 2.2 13.9-21 21.6-29 3.2-12.2 18.7-25.5 13.2-37.7 7 .6 13.3-16.7 18.2-25.6 16.4-32.5 33.2-64.8 48.4-98-15.2-15-34.3-26.4-51.3-39.8-16.4-10-31.1-26.6-48.7-32.6-5.2 18.6-8.6 37.8-13 56.6-.5 10.4-5.9 20.1-7.2 30.7l-12.9 57.6c8.9 8-6.7 7.2-4.2 18.7-.2 18.2-16 40.4-7.8 56.2zM590.6 973.3c19.3 13 40.2 23.4 59.5 36.3 18 9 34 21.6 52.5 29.7 10.5 6 36 28.4 23.2 1.6-17.3-12.6-37.5-22-56-34.4-25.5-14.6-50.6-30-76.6-43.6-2.7 2.9-.8 16.7-4.7 3.6-.3-11-11-13-19-17.8-15.1-8.7-29.9-18-45.2-26.3-13.3-5.4-15.5 12.3-21.9 20.6-40.6 72-81 144.1-122.2 215.8-7.7 8.5-6.7 18.5 6 13.5 24-17.3 31.3-53.7 49.2-79 26.3-45.3 56-88.6 80.9-134.7 6-8.1 11.2-26.6 22.3-14.9 17.3 10 34.3 20.9 52 29.6m28-65.9c-8.2-14.8-11.4-31.8-17.4-47.7-2-9.4-6.3-17.7-15.9-21.5-11-4.9-28.1-23.1-35.8-19.3 12.5 45 25.7 90 38.4 135 16.5 7.5 39 27.5 52.2 26.2-5.2-23.5-15.7-46-21.5-69.4 1.5-4.8 6.3 13.4 8.5 19.3 6.7 19.3 12.4 39 20 58.1 14 8.4 27.7 17.6 42.6 24.4 5-4-2.9-12.4-3.5-18.2-13.7-37.8-26.6-75.8-40.2-113.6-6.4-11.8-20.4-16-30.8-23.8-5.3-3.1-17.5-13-12-.7 5 17.1 12.7 33.7 15.4 51.2m309.8 221.8c5.1-5.2 10.1 5 16.4 2.3 14.3-4 19.2 10.1 30 16.6 20.4 7.2 18.4 47.6 44.3 31.6 12.7-5.7 25.9-7 38.4-12.1 7-5.4 16.5 0 23.5-5.8 7-4.6 16-1 22.5-7.3 10.5-.3 34-1.5 33.9-11.6-10.6.4-9.2-14.6-18.2-11.9-15.4-2.2-28 14.6-44.6 12.2-13.9-.3-26.9 8-40.4 5.2q-13.4 4.5-26.8 8.7c-15-6.2-22.4-22.6-34.2-31.7-10.2-.2-4.2-21.3-21.1-9a574 574 0 0 1-62.8 14.7c-42.2 7.7-81.3 25.8-123.1 34.3-15.2 6.6 4.6-6.6-7-13.8-6.8-15-14.5-34.8-33.8-22.2-11.1 1.8-20.6 3-26.6 10.7-8.7-.9-18.7-6-27.4 2a607 607 0 0 1-49.6 16c-4 13.4-17.3 0-27 9.7a338 338 0 0 0-56.8 14.6c-8.1-.6-13 3.6-21 5.8-14.6 5.5-38.6 5.7-50.8 16.2-6-8.7-25.2 6.5-31.4.7-.5-10.2 2.4-22.3-5.8-30-4 16.5-6 33.4-9.1 50-7.5 14.2 1.6 23.1 12.3 17.4 15.3 2.4 29.6-6.6 44.2-10.4 9 1 14.8-4 23.9-5.6 27-6.5 54-13.2 79-25.4 16.2-6.8 34.4-8.4 49.4-17.8 16.1-1.3 30.5-8.2 45.1-14.2a74 74 0 0 0-47.7 10.8c-2.8-7.7 19.7-15.9 29.5-17 11.8 6.7 29.4-10.7 32.6-7.7-3.9 7.4-16.2 18.3-.2 11.2 16.9-3 35.8-13.1 51.5-10.8.1 9.8 9.2 14.9 11.9 15-6.5 5.2 6.9 7.4 6.8 13.8 8.6 11.3 29.7-9.5 42.8-9.1 41.6-12.6 83.7-23.5 124.3-39 3.7-1 15.1-4.7 3.1-7m-67.9 0c17.3 3.8 35.4-7 53.2-8.7 14.9-2.5 28.8-9.9 44.2-9.5 14-1 1.3-21-8.5-10.8-8 4-30.5 7.2-11.5.8 14.9-1.6 28.9-8.4 19.2-25.2-5.5-24-9.4-48.3-16-72-14.7-.5-10.2 13.9-7.8 23.8 4 19.3 6.2 39 11.7 57.9 2 14-24.7 10.1-35.1 15.9-43 10.6-86.1 21.9-128.9 32.3-5-1.3 1.2-10.1-3-15.2-6-28.9-13.4-57.4-19-86.3 50.5-9.8 100.7-21.7 151.3-31.4 18-2.9-7-18.9-15.2-10.3-43.4 6.9-86.4 16.1-129.5 24.7-13.8 3.2-39.5 2.3-26.9 23 10 37.2 18.9 74.8 29.8 111.7 7.9 12.8 27-3.4 40-2.7 16.3-5.4 32.1-12.2 48.5-17.7zM2019.7 1629c7.6-4.5 1.8-10.5-1.2-16.2-8.3-15.2-15.7-30.9-23.1-46.4-5.1-4.2-13.6.7-20.2.5l-23.3 3.2c8.8-7.4 29.1-2.3 40.8-10.4-2.1-10.2-7.3-19-18.5-14.4-7.3 1.2-21.5 2.2-5.5-2.2 14.5 2.8 18-6.4 11.8-17.5-.9-15.5-11.7-25.7-26.3-16.5-11.6-6.6-13.6 11-21.5 7.9-7.4 9-11 27.7-11.9 32-7 .4-7.6 9.6-11.5 14.2-8 7.7 15.8 5.7-.5 7.9-11.6 3.7-18.5 19.2-5.8 25.7 7.7 13.6-16.2-8.6-17.7 7-20.1 35.2-39.3 72-68.7 100.4-19 12.4 10.2 14 15.7 4 7.7-.8 19.6-7.7 18 6 7.7 8.6-13.4 18.2-5.4 28.4 8.1 6.1 19.4-29.3 20-8.4-.7 20.8 18.6-5.5 23.8-10.8 9.8 10.5-6.4 26.7-7.6 39.2-6.2 10.4-9 25.1 1.9 10.2 7.2-6.7 12.3-17.2 22.5-19.5 6.3 5.4 7.4 28.6 17.5 21-.5-9.2 3.7-24.4 11.3-10.8 4.4 4.3 7.7 11 12.7 13.8 8.9-4.5 23.5 13.2 8.9 5.2-6.4-5.4-4 18.4-11 6-1.7-8-15.7-31-17.2-14.3-6.5 16.8-23.2-2.3-25.5-12.4-14 13.4-25.5 30.3-41 41.5-21.5 3.8 6-27.5 9-38.3 3.8-8 20.8-36.8 3.7-19.5-4.8 7.8-33 24-22.5 5.7.8-3.7-34.4 4.9-18.4-12 7.1-8.5 7.3-15.5 6.5-23.5-11.3 10.3-13.8 31-25.8 45.2-12.5 17.1-24.5 35.9-43.8 46.1-10.4 4.9-22.7 17.2-4.4 21.2 3.2 9.2-29.3 9.6-12.4 22.3 22.7 8-15.2 25-6.2 31.1 21.9-8-4.2 14.3 2.2 16.5 9-2.9 27.8-5.9 14.6 7.5-3.1 13.4 6.7.3 7.8-5.5 11-12.5-6.4 12.8 1.5 17 9 10 2 20.7-3.3 28.8 11.8 1 28-23.9 36.2-10 3.3 12.6 3.5 26.1 8.9 38 4.4-4.6 6.7-13.8 13.3-14.6 7.4 3.8 10-8.8 17.4-6.3 10.4 5.3 13.5 20.7 20 30.9 3.1 8.4 10.3 20.5 14 4.4 8-1.7 18-2.3 23 6 7.1 4.7 31.4 28.4 29.7 9.9-3.8-9.4 1.6-33.1 13.2-16.9 1.9 5.8-3.2 13.3-2.6 20.5-.5 6-.9 17-9.6 13.5-16.5-3.8-34-29.3-48.2-21.2-6 8.3 12.2 19.6-9.4 8.1-12.8-11.8-22.6-26.5-32.4-40.8-1.3-11.5 18.2 19.4 8 .6-4-17.3-13.9-5.6-18.5 4-4.9 7.4-8.9 17.2-19 17.4-12.5 7.5-17.2-5.2-15-16.7-1.2-12 3.8-39.7-14.9-24-10 7.8-29.3 3.9-18.6-11.8.6-12.7-14.7-4.9-15.9 5.3-20.5 8-32.8 29-54.5 33.7-11.3 3.2-19.3 11.1-5.5 14.2 9.6 2.2 9.3 8.1 8 13.4 1.1 5.5-12 2.2-15.5 5.8-7.9 4.4-12.6 6.6-4.8 15.5 11.9-6.4 11.7-1 2 5.2-12.5 4.5 11 14.6-3.5 23 3.8 9.9-17.3 24.3-4.8 9.5-.2-11.6-9.1 7.9-8.1 14-3.6 6.7 8.7 6.1 12.4 3.2 7.1-6 21-6 14.9 5.7-4.6 20.6-10.6 40.7-16 61 2.6 13.7 26.8-22 31.1-7.7-.7 10.8-7.7-4.4-7.8 8.6-2.5 5.7 2.8 12-2.3 17-3.5 9.2-11.4 17.4-9.9 27.8 15 4.3 42-1.2 50.2-11.5 7.4 3.5 34.7-4.1 18.6 3.8-19.1-2.7-14.5 37 3 18.6 10.2-6.4 22.1-15 32-6.3 5.8 2.9-9.2 8.2 0 15.2 6.3 23.8 33.9 21.6 48.7 7.7 9.2-7 28.7-10.3 21.5 6.6-2.4 15.6-14.3 31-14.3 45.6 18.5-9.9 29.4-29.7 45.5-42.5 13.3-3.3 2.7 17 8.7 24.4-1.3 7.4-1.7 13.7 7 8 12 5.2 21.7-7.1 32.2-13.5 4.3-4.5 2-12.6 8.7-17.2 8.1.4 11.1 8.7 5.3 14 7.5 14.5 27 15.5 41.5 16.2 13.8-4.9-10.8-40.8 13.8-30.9 15.1 1.2 43.2 11.5 53 6.2-6.3-20.9 28.1-7.4 40.8-11.8 8.6.7 15.3-.4 13.1-10.5 7.4-8.2 19.7-1.8 28.3-4 15.7-8-12.4-21.4-3.2-29 10.9 2.6 44.3 10.6 30.2-11.7-13-24 24.8-1.4 28-17.2 1-10-14-8.7-13.6-18-3.7-13 33 3.8 11-17.2-7-5.8-28.7-27.7-13-29.1 8.3 4.5 35 13.2 17.3-.5-11.9-11.9-20.3-26.6-32.9-37.9-19.2-21.8-33.4-47.4-50.5-70.9-2-17.5-22.6-32-20.5-49.4-6.8.2-14.3-3.6-20.6-.5-6.7-7.6-7.5-14.7 4.7-8.8 11 0 22.8 5.2 33.6 1.2-3-14.2-37.6-9.5-30.7-24.9 9-3.7 38 8.7 22.6-7.8-5-7.8-17.3-18.9-8.4-27.6 16.6.2 48.7 4.6 52.4-13-16.3-14-28.4-32-42.8-48-6.4-10-19.4-22-28.9-17 9.5-4.5 2.4-7.6-3.8-10.8-4.3-3.3 13.8.6 7.7-9.2 1.4 2.3 18.8 13.9 14 2.3-5.2-5-8.6-13-15-16.2-9.9 4.7-23.7 8.1-33.2 15.4-8.6-7.8-27.3-13.3-26.5-26.7 8.4 11.6 16.5 8.6 6.5-3.1-1.4-14 42.2 1.5 21.7-14.1-10.4-5.7-17.7-29.8.9-24.5 25.4 6.2.1-21-1.9-32.9-10-9.3-12.6-36.2-27.5-34.2zm-673.5-605.6c-8.6 2.6-20.6 10.4-4.3 6.5 10-2.5 19-8.3 4.2-6.5 15.3-5.6 31.5-12.7 48-14-6.8 3.4-24.8 8-6.6 7.9 9-5.5 32.9-6 32.7-13.7-7 2.4-37.2 10-17 2 15.3-8.7 30.4 2.8 45.4-3.6s-4.3-6-5.7-5c14.2-4 9.6-15 9-27 .6-11.6-3.3-22.8-1.9-34.6-.1-15.5.5-31-1.9-46.3-1-7.3 1.5-15.9-1.8-22.4-4 5.3-1.1 14-2 20.7 1.8 10.4-10.8 7.7-17.2 10.5-6.6.8-13.8 5.8-19.5.3-17.4 2.3-43.4 14-64.8 10.4-2.2-7.4-7-34-13.9-16.4 4 10.9 6.2 22.8-9 19.6-12.1-.5-18.5 19.2-25.1.1-20.5-22.4-42-44-62.7-66.3-10.7-11.3-21.6-24-32.8-35.5q-45.9-48.9-91.9-97.5c-7-8.8-22.7-28-27.1-6.6-29.7 60-60.5 119.6-89.5 180 7.9 13.5-5.5.7-6.9 12.6l-49.4 99c-1.2 7.2 12.2-.7 12.1-6.8 9.7-21.1 23.1-40.3 33.2-61.4 34.4-67.9 71.5-134.3 105.8-202.2 5.6-23.6 20.2 6.9 30.9 13.6 20.7 20.9 42.4 41 60.4 64.3 23.2 26.9 50.8 49.4 74 76.4 15.2 13.2 27.2 29.4 42.7 42.2-1.6 8-10.3-1.8-14.5-4.3-7.3-11-21.7-23.1-14.3-1.7 3.7 27 3.3 54.3 6.8 81.2-.9 6 2.7 27 4.4 9.9 1.5-15.6-5.6-30.4-4-46 .9-10.6-2.1-22.1 3.3-31.8 19-1 37.4-7.9 56.5-8.1 5.7 17-.5 36.8 4.3 54.6-3.1 13.5 9.3 37.2-10.4 38.6-15.8 7.6-40 5.6-51 16.6-1.3 20.7 24.1.2 36.7 1.8 11.7-2.9 22-11.3 34.8-11.1M938.5 1563c-18.4 6.8 4.3 7.1 12.5 2.9 15.6-7.2-.9-8.4-7.8-4.5-12.6 1.6 11.9-6 15.2-7.5 32.7-14.3 67.1-24.7 100.5-37.2 14.5-3.6 31.7-9.6 18.1-24.7-21.1-38-41.3-76.7-62-115-4.4-5.3-13.3 2-19.7 2.2-11.7 3.8-24.5 5.2-35.3 10.8 2.6 15 14 29.5 20.7 44 8.4 16 18.7 30.9 20.3 49 5.9 16.5-18.2 14-27.3 20.5q-57.9 21.3-116.2 41.3a10926 10926 0 0 1-160.2 58c-11.9 3.8-3.2 17.7-1.8 26.2 3.2 6.3 3 27.4 11.2 17.1 5-5.8 13.7-2.2 20.5-3.5 10-8 21.7-19.8 38-12.3 8.5-6.7 15-17.8 27.3-17.3 21.9 3 34.4-18 55.6-18.3 11.9-2.3 25.5 0 33.6-12 17.7-3.5 32-15.7 49.2-18.6zm-82.1-667.4c7.1-1.6 9-6.6 4.6-12.9-15.4-46.5-32.2-92.4-47.6-138.9-5-18.8-31.3 1.8-38-2.7-10.7 3.2-22.9 1-34.1 4.1-40 6-79.8 12.5-119.9 18-13.4-1.7-5.6 8.9-3.6 16.1 17.5 49.2 34 98.7 52.6 147.4 14.7.2-.6 1.2 3 9 9.7 29.2 19.8 58.3 31.6 86.6 65.4-12.7 131-24.4 196.1-37.9-15.8-15.1-16.2-41.3-26.5-61.1-6.3-8.6-3.7-30-18.2-27.7M1979.8 1491c.7 7.8 18.2 1.2 23-2.5 7.5.7 35-16 17.5-15.8-3.8-1.3 11-6.5 15.5-9 6.6-3.5 15.5-4.4 18-12.5 9.7-7.1 20-30.4 10.3-33-15.5 4.9-28 34-44.9 19.7 14.2 3.3 23.6-14.3 36-19.8 14.8-4.6 9.6-18.6 15.8-27.8-8.4-8.2 8.6-17.4-1-23.5-8-9.9-11.8-24.2-23.9-29.5-8.2 1.7-17-4.9-20.9-11.7 4.4-1 14.5 1.3 8.7-8.9-7.4-5.3-16.7-6.6-21-15.8-5.5-5-14.3-5.4-21-8.6a27 27 0 0 1-20.5-14.7c-10.8-13.3-29.4-4-40.7-8-7-13.6-26.5-17.7-40.6-14.8-20.6 12.3-31.8-22.8-55-15.6-16.6-.5-37.1 1.5-46.1 17.5-4.5-4.2-10.7.5-17.5-.5-8-2-17.8-3.8-24 2.7-11.2 15.8-37.4-1.8-43.5 22.5-7.4 11.1-2 25-1.7 33.8l31.9-13.6c10.5-1.5 21.8 22.6 8 11-6.2-7.3-17.7-1.9-21.9 5.2-8.8 13.8-5.2 0-7.3-3.8-27.1 2.1-17 49.8 6.2 39.3 9 2.6-11.3 6.1-2.8 15.2-1.2 13.6 14.6 12 19.3 18.1 2.2 6.4 22.5-11.3 10.3 2.9-8.8 11-28.5-9.6-27 11.2-5.6 10.4-1.1 22.7 2.6 27.8-12-7.6-11.6 10.5-4 15.2 4.8 7.2 10.2 11.9 8.2 2.9 8.8-9 6.6-29 13.3-41.6 2.2-15.1 12.4-10.5 18.4-1.6 6.3 9.7 19.8 12 26.1 18.5-6 7.8-19.5-6.8-19.2 8-5 9.4-7.1 23.4-5.2 33-9 10.7 9.4 12.5 16 13.5 11.6 4.7 9.4-21.7 14.6-29.9 6.6-5-.4-21 10.5-17 9.4 10 19.5 6.3 26.3 13.3 11.5-2.3 17.1 13 1 8.2-14.2 4.1-8 28.9-12.6 41.8 9.3 7.1 21.7 4.9 21.5-7.8 4.2-13.5 6.8-27.5 12.3-40.6.5 11.5-4.5 23.4-6.8 35-4.3 10.6-1.7 19 9.2 20.2 7.5 4.7 7.1-6.4 7.7-11.3 1.2-8.3 1.4-16.8 6.2-24.3 2.1 11.4-7.4 32.6-.8 38.2 3.8-8.1 13.7-17.3 7.3-1.7 1.8 11.3 3.6-8.3 10.9 2.4 8.3 9.6 15.6-1.3 21-.8 6.9 2.2 16.7 3.5 21.7-.8 8.6-15.9 18.9-33.2 22.1-50.4 2.2-6 9.5-21.4 15.7-9 12.7 12.9 29-.3 38.2-10-.6 7.2-6.3 13 2.3 14-6.5 9.7-29.3 2-35.2 11.6 1.8 10 3.5 26.2 11.5 33.5m536.6 137.3c1-15.8-18.9-6.9-21-15.8 7.6-10.3-10-22.9-11.7-34.2-19.7-7.2 2.3 29.8-21 24.5-9.6-.5-22.5-16-6-13 14 2.7-8.4-16.9 5.8-19.7 4.7-6.5 20.9-.4 9.7-11.3a8.6 8.6 0 0 1 7.4-14.9c4 2 19.3 9.7 6.8-2-4.3-15.6 24.6 4.4 13-12.2-8-17.6-14.5-36-23.2-53.3q-11.6-22.5-24.6-44.5c-2.2-19.4-15.2-35.5-23.2-52.9-13.6-10.8-16.8-32.3-24.8-47.8-5.1-15.3-8.1 13.6-11.7 20.4-14.2 39-24.8 79.4-40.8 117.8-11 27.3-30.3 49.8-48.7 72.3 6.5-.4 25.8-12 18.8 7.6-3.8 7.9-9.4 14.9-12.7 23 5.1 3 19.3-1.3 9.7 11.7-8.3 12.6-1.5 20.4 5.9 5.8 3.1-11.3 14-19 5.8-4.8 3 7.1 3.2 14.5 13.4 11.6 8.5 10-14.8 32.6-9 36.3 9.7-5.4 19-27.3 29.7-21 4.3 5.5 4.5-8.5 7-11.4 9.1-10.9 24.2 9.5 32.5-1.2 15.6-5.6-5.7 20-13.2 7.1-19-18.2-20.4 40.7-32.7 16.9-8.6.5-20.7 23-29 33.2-12 30-52-36.9 1-40.5-9.2 12.2-19.3-11.9-19 3.5-3.8 21.2-30.4 33.3-36 48.5 23.1 5.9-11.1 18-3.4 27.8-8.1 12-10.7 20.5-6.8 34-3 7.2-19 10.2-14.7 18.8 4.2 6.3 4.2 15.4 14.9 6.6 9.9-9.1 18.1.1 13.3 10.7-.5 8 5.8-14.5 7-.3 13-10.9 8.5 4.6 7.5 10.6 6.4-10 18.9-6.9 7.4 3.7-2.6 8.7 9.5-2.6 13.7-4 7.9-4 15-10.2 23.4-12.9 7.8 1.9 3.5 12.4 5.3 18.5 12.8 4 25.3 3.2 34.1 15.1 9.9-.5 3.3-24.1 17.8-20.9 12.7 1 26 3.5 38.4 1.7-8.9-10.1-.7-9.8 7.5-8.9 11-3.7 42.6 8.3 38-9.6-12.4-9-10.8-21 3.8-13.2 6.2 2 31 8.3 21.3 4-10.7-6-21.7-31.5-2.2-24.6 8.6 3 25.2-.1 12.2-9.5-15-12.3 1.6-19.4 12.6-17.5-6-7.7 7.6-9 3.7-13.6-14-14.4 15-11 22.6-11.2-.6-6-8-10.5-11.4-16q-4.1-9.4-12.6-16.9zM765.8 1230.4c-3.8-18.3-17.4-5.6-21.5-.6a45 45 0 0 0-37 3.6c-19.6 7-38.7 9-57.3 16-14.5-5.6-22.5 11.2-35.7 6.2-4.9 2.9-5.3 12.4-4.4 17.7 2.5 5.8 8.9 8.4 13.2 12.7-4 5.4-4.2 13.3-3 19.7-.4 13.3 14.7 21.4 10.7 33.5 1.5 5.5 5.6 10.7 4 17.2-2.3 7.4 5.9 12.4 4.2 19.7-1.5 6.5 2.3 11.2 6.1 16 0 6.3-1.3 13 4.3 17.5 2.7 5.5 2.1 12.2 8.2 16.2 2.6 5.4-1.1 13 3.9 18-8.7 39.8 65.3-34.8 65.4-7.8 35.4-11.3 70.5-23.7 106-34.8 13.6-10.6 41.7-8.7 48.6-21.6-11.4-9.9-16.4-26.6-21.5-40.7-6-4-2.5-11.2-6.6-15-7.7-4.6-3.7-15.4-9.1-21.8-9.1-17.6-14.6-38-22.6-56.3-3-11-8.6-20.7-10.2-30.9-8 2.2-13.8-7-22-2.7-10.3 5-26.3.5-23.7 18.2m-88.2 343.7c18.2-1.2 35.2-11.3 52.9-16 80.2-27.9 159.9-57 240.3-84.3 10.3-4 27.6-6.3 15-19.4-14.5-27-28.3-54.7-43.2-81.4-13.5.6-27 7.9-40.5 11.4-15 6-30 9.9-45.6 15q-97.2 31.7-194.2 64.2c1.7 8.6-12.5-3.3-9.3 7.4l22.2 96.6zm1626.2-9c-10.7-9.8-23-14.7-34.7-23.5-12.2-6.3-24.4-14.3-37-18.3-44 19.5-86.3 42.2-129.3 63.5-22.1 12-45 23-66.6 35.6.8 18 21 38.2 29 57.1 11.7 7.6 21 30.9-.8 26.2-6.7-2-22.8-4.9-11.1 6.4 2.2 7.9 21.5 18.8 7.6 24.3 7.5 13.2 21.6 5.5 11.8-5.6-7-7-3.6-19.6 2.2-5.7 3 13 11 14.4 20.6 6.9 45.4-23.8 97.2-34 148.2-33.2 4-9.7 29.3-12.5 23.2-22-7.9 1.8-26.7 6.3-13.8-5.1-3.7-18.1 34-11 32.5-31 11.9-6.8 23.6-22 18.2-36.1 3.2-8.5 6-20.7-5.8-13.7-13.9-4-4.4-13 1-19.5zM2102.3 1331c14.3 22.7 33.7 46.1 37.6 74.5 1 18.1 1 36.1-4.8 53.9-1.6 16 24.4 15.2 35.3 23.5 21.5 8.7 41.2 20.8 61.5 31.9 20.2-5.2 38.4-18.4 58.4-25.5 17.2-6.8 33.9-17.7 51-22.8 8.1-18.6 17.4-36.8 23.7-56-13.6-14.2-38.6-18.7-57-28.7-13.2-5.8-25.9-12.6-39-18.3a731 731 0 0 0-99.8 40.4c-5.6 3.8-36 13.8-18.3 2.4 30.3-11.9 59.2-27.2 90.3-37.2l19.9-8c-33.5-20.3-71.6-31.4-107.7-45.9-14.2-5.7-27 5.4-40 9.6-3.9 1.8-8.4 2.7-11 6.2m276.6 475.8c-11.2-3.4-17-17-30-13.8-8.3 2-15.5-4.8-13.4-13.4-3-18.8-23.6 11.2-36 11.7-8.8 6.4-32.9 11.8-23.5-6 .5-8-6-20-15.8-18.5-9.4-4.8-30.3 10.6-19 18.8 8.9 5.7 16.2 13.7 1.3 22.1-6.2 12.3 29.6 4.4 17 22.6-6.8 17.5 31.2 20.5 17.8 40.7-.3 13.4 29.6-7.5 20.1 11.8 5.5 5.9 16.5-2.8 23.4-6 3.3-2.8 17-6.7 13.4-8.8-7.5-3.2-35.3 19-20.3 2.6 9.2-7.9 22.3-9 31.3-5 5.7-1.5 11.3-7.2 17-6 8.8 5 19.5 1.8 27.7 8.5 10.6 5.6 20.3 13 31.6 16.8 12.3-.4 7-20 21.2-8.8 7.4 5.2 37.2 11.7 21.9-2 10.8-5.1 40 5 39.2-11.8-5.9-3.8-4-11.6.3-15.9-12.2-11.3 11.5 1.3 18.2-.9 8.1 8.5 43.7 1.2 21.4-9.3-16.1-12.4-4.7-19.8 8-22.6 8.5 8.1 20.2 4 9.3-4.9-5.8-13.6 10.7-12 18.4-7.1 6.6 4.2 23 4.3 10.1-5.6-7.8-9.8-25.4-19.5-24-32.1 7.9 6.5 24 5 11.4-5.4a646 646 0 0 1-35.2-48c9.9-5 18 20.2 26.8 27.2 3.4 13.3 29.6 1.9 12.1-5a183 183 0 0 1-29-24.5c-2.8-5.4-13-9.1-13.3-.6-6.4 2.7-27.5-5-13.6 8.2 10.7 9.6 4.6 19.3-9.1 15.4-14.7-3-17.9 2.9-9.2 12.8 9.6 13.6-9.5 9.2-17.1 12.5-8-2.2 4.3 24.8-15.3 18.5-7.2 1-18.5-2.2-22.4 2.3-7.3-1-18 7.8-28.7 5.6-9.1-1.7-30.3.4-10.9 8.4 7.5 7.3-16.4.5-17-7.7-5.8 8.3-3.1 22-16.1 23.2m-814 69.6c17-7 30.8-20.8 47.9-28.4 28-15 56.2-29.9 82.1-48.5 11.7-7.9 36.2-13.5 16.9-27.7-19.7-26.6-44.6-49.1-63-76.8-10.8-11.6-20.2-29.1-36.9-12.8-30.5 17.5-63.8 29.8-93.9 48.1-12.4 10.6-41 14.2-43.6 28.1 16.3 19.4 33.4 38.3 46.8 59.8a559 559 0 0 1 43.7 58.2m236.5-171.8c21.4-17.1 33.6-42.6 50.5-63.6 7.6-15.8 34.1-38.3 27-56.1-11.4-8.2-22.9-18.7-38.1-17.7-14.8 3.8-26.2 15.6-40.1 21.8-23 10.7-46.1 21.1-68.1 33.9-30.5 18.8-64.2 31.4-96.4 46.8 7.1 16.3 25.8 33.4 37.2 50 14.3 16.6 30.1 31.8 43.4 49.2 6.7 13 18.4 13.2 29.6 3.8 23.2-12.5 44-29 67.7-40.6 6.5 4.6 8.4-6.4 12.5-9.8-5.2-8.3-40.1 3.1-25.2-17.7m-128-205c-26.4 12.9-52 27.3-78.5 39.7-18.7 10.6-38.3 19.7-57 29.9 3.2 11.1 21 20.4 29 32 19 21.7 36.8 44.7 59.4 63 6.3 6 14-2.7 20.8-4.3 30.1-13.4 60.3-26.8 89-43.3 30.7-17 63.6-30.2 92.9-49.6-11-6.4-31.6-7.8-46-13.5a360 360 0 0 1-109.6-53.8m-203.5 251c30.6-15 60.5-31.7 90.9-47.3 21.6-11.1 44.5-20.4 64.8-33.6-18.2-17.4-36.6-34.5-52.4-54a782 782 0 0 0-41.4-41.3c-8.1-1.6-15.6 5.7-23.3 8.4-36 18.1-73.1 33.8-109.5 51-11.4 4.3-20.8 11.6-8.3 21.5 12.7 11.2 22.3 25 33.2 38 16.7 16.6 27.2 38.2 43 55.4zm-22.7-255.1c53.9-26 119.1-37.6 166.1-74l-4.6-18.3c-31.1-16.7-64.9-28-95.1-46.4-18-17.5-38-2-56.1 6.8-33.6 17-71.5 24-104.4 42.9-12-2.3-20.7 22.7 8.8 21.4 24.5 23.2 52.8 41.6 78.1 63.6 2.2 1.7 4.8 2.7 7.2 4m300-579c5-10.2 1.6-22.2 2.8-33.2 1.2-21.4 5.5-42.6 7.4-64-6.3-19.2-17.8-36.3-25.8-54.8-15.5-32.8-31.8-65.2-47.6-97.8-3.9-5.7-4.7-15-11-17.8-22.8 41.6-43.8 84.2-66 126 5.1 4.2 15.7-2.9 22.8-2.6 21.5-4.1 43.7-9.9 64.5-14.6 2.6-5.6 6.8-.5 9.8-2.5 8.6 15.2-1 34.2.7 50.8-8.2 17.3 9.2 48.8-18.1 51-18.3 5-37.4 7.5-55.5 13.5-12.6 3.6-42 14.1-33.5-8.7.2-22.2 0-44.5 1.9-66.7-1.8-7.3-7 9-10 13-5.9 12.6-14.3 24-17.7 37.4-10.6 11-11.9 25-25.3 26.3-.8 43.2-.9 86.5.5 129.7 7 8.1 25.4-1.9 26.9-10-.3-15 0-29.9 1.9-44.7 2.5-14.4-8.8-42.6 13.5-41.8 38.3-9.5 76.9-18.2 115-28.6 15.3-7 19 1.8 14.7 15.7-1.5 12.2-.9 24.5-3 36.7.9 10.9-9.4 39.4 9.2 27.5 5.3-4.7 12.7 0 17.5-3 5.2-8.5 4.2-20.6 5-30.7q-.2-3.1-.7-6.1m469.2 265.5c-59.5-19.9-122-26.5-183.7-36.1-24.4 6-46.3 20.3-70.7 27.3-29.3 10-58.2 20.9-87.3 31.3 9.3 6.3 21.3 8.3 31.8 12.8a738 738 0 0 1 103.9 40.5c16.6 4.1 31.4-10 46.7-14.8 36.7-14.4 74.2-26.7 110.1-43 16.3-6.3 32.9-12 49.2-18m-194 80.7c22.3 11.4 46.4 18.6 69.9 27l52.8 17.6a1079 1079 0 0 0 80-32c31.5-11.7 63.8-21.7 93.5-37.7 15.3-5.3 23.7-11.4 5.5-15.5-33.5-13.1-66.5-27.3-100.8-38a1255 1255 0 0 0-104.5 41.2c-32.5 11.8-65.1 22.8-96.4 37.4M2461 1283c-19.6-10.9-40.6-19.3-60.7-29.5-17.5-8-34.9-16.8-53.3-22-14.6 1-26.9 10.9-40.2 16.2-25.6 13.7-54.1 20.1-80.4 32-12.6 8.7-28.4 11.7-42.4 17.7-9.6 4-20.2 6.5-29 11.5 17.4 11 41.3 16.6 61 25.7 21 4.2 40.1 26.4 61 21 33-13.5 66.4-25.4 98.6-40.6 26.4-15 58.7-18.2 85.4-32m-658.5-311c-21 12.1-44.5 19-65.7 30.9-19.5 4.5-39.1 11.5-57.6 15.5-16.7 1.4-31 13.2-48.5 13a821 821 0 0 0-64.3 20c-8.9 0-7.1 16.5-8.6 1.4-7-14.7-29-13.5-40.4-24.5-13.1-11.5-23-14-39.3-6.8-12.6 9.7-29.5 7.2-41.8 15.8-10 9-24.5 5.2-34.5 12.5-8.2 8.4-20 1.3-28.8 8.2-6.4 3.5-15.3-1-20.3 5.6-5.6 6.8-23.2-2.5-20.2 8.2 3.7 12 19 10 23.7 21.6 21.5-5.7 44-9.9 64-19.8 15.9-1.5 29-9.4 44.8-12.7 7.1-1.7 13.9.2 21.2-3.3 5.1-2.4 14.7-.5 14.2-8.4.1 3.6 8.8 15.4 17.9 17.6 2.3 9.2 11.3 13.1 20.3 13.3 5.5 1 16.1-.1 8.2 7 10.3 1.5 16.6 7.1 25 10.3 6.3.4 13.4 4.3 17.9-1.9 4.7-5 10.8-7.3 17.6-7.8 21.1-2.9 40.2-13.2 60.2-19.9 16.1-5.4 30.7-14.3 47.1-18.7 10.4 0 15.3-13.5 18.8-15.5-1.1 9.7 11 1.2 16.6 1.4 16.1-4 30.5-12.6 45.8-18.6 2.3-8.8 12.8-.4 9-13.7-.4-11.2 7.1-22.1-2.3-30.7m-308.1 369.1c39.2-11.8 74.9-32.1 111.8-49.3 26.5-9.9 50.7-25.2 77.8-33.3.1-5.1-11-4.3-15.6-7-19.7-5.3-39-12-57.1-21.6-19.4-5-38.6-26.8-58-12.6-29.6 11.3-59.5 21.7-87.5 36.5-23.6 11-49 17.3-72.5 28.4 14 10.7 31 16.6 45.8 25.7 17.6 12.4 36.5 22.8 55.2 33.2m423.5 176.4c-17.7-6-40-2.7-59.7-6.8-33.6-4.6-67-13-97.3-28.4a142 142 0 0 1-54.3-35.4 104 104 0 0 1-35.1-50.3c-7.8-16.1-.5-34.2-5.5-50.5a82 82 0 0 1 26.2-52.3c4.3-21.8 23.5-38 44.9-35 9.8-7.9 24.5-14.5 36.4-8 9 0 29.7-15.7 10.6-9.5-19.2 4.6-39.5 3.3-57.6 12-31 12.4-66.8 24.6-88.6 52a91 91 0 0 0-22 78.5c6.7 40 38.8 70 69.8 94 5.8 8.7 21.2 7 21.5 7.4-10 8 17 11.9 22.2 18a440 440 0 0 0 162.7 41.9c11.9 3.6 16.5-5.6 20.2-14.7 4.5-5.2-1.2-9.2 5.6-13m-611.3 37c19.8-4.2 37.7-17 57.4-23.1a1084 1084 0 0 0 75.7-33.5c-21.8-21.7-49-37.2-71.2-58.6-14.4-6.6-21.7-34.2-39-25a4953 4953 0 0 1-105.4 42.1c-15.4 7.9 13 22.5 18.7 32.3 13.8 15.5 30.5 28.3 44.4 43.6 6.6 7.2 12.2 15.8 19.4 22.2m-626-506c5.7 25.2 13.3 50 18.3 75.5 5.3 10 34.3 2 23.2-12.7-5.8-21.2-10-42.9-16.6-63.8-56.6-33.4-112.8-67.4-169.3-100.8-8.9-6.5-10.3 8.7-15.2 13.6q-51.4 87-102.4 174a856 856 0 0 0 24 60.7c4 5 17.6 5.8 17.2-3l-20.4-65.5c12-20.6 22-42.3 34.4-62.6 12.8 7.5 10.7 31.9 17.8 45.4 7.4 23.6 13 47.8 21 71.1 18.3 8.8 8.2-19.2 3.9-28.3-10.2-31.6-16.8-64.3-27.2-95.9 12.6-19 44.9-16.7 65.8-26 11.8-5.2 32.3-13.4 29.7 7.1 11.4 36 19 73 30 109 5.5 14 28.8-1.7 16.2-14.3-10-36-19.5-72.2-29.8-108 8.7.7 23.2 6 34.6 8.9q22.6 7.2 44.8 15.5m628.2 173.7c15.5 21.6 44.5 27.5 62.6 44.1 1.1 6.9 11.3 8 16.4 12.2 33.3-13.5 68.8-22.4 100.3-40.5 23.7-10.7 48.7-18.5 72.7-28.4.8-5.8-11.8-9.4-17.3-14-21.9-12.8-42.7-28-66.2-37.6-13.8 8.3-32.5 7.7-47.4 16-31.9 14.3-65.6 23.9-98 36.6-7.8 3.6-15.6 7.8-23 11.6m1.7 337.2c21 28.1 48.7 51 69 79.6 40.8-21 83.4-37.9 124.3-58.5 6.5-3.8 14.5-5.6 20-11-5.7-8.6-15.4-14-22.8-21.3-19-15.5-36.6-32.7-56.9-46.6-32 12-62.2 28.7-94.7 39.8-13 6-26.5 11.2-38.9 18m708.5-415c-18.2-5-36.9-5.8-54.7-8-38.5-11.2-78.3-17.5-117.3-27-29.4 10.3-58.7 21.1-88.2 31.3-15.1 7-31.3 11.6-46.5 18 2.8 5.4 14.9 6.2 22 9.4a605 605 0 0 0 95 25.4c20 7.2 40.8 10 60.4.2 32.2-10.4 63.6-23.4 96.1-33.2 11.4-4.5 22.3-10.3 33.2-16m-88.3 111.4c6.8 8.6 17.7 8 27.6 9.8 19.9.9 25.3 25 45.9 24 14.5 6.4 25.5 16.9 37.1 27.6-4.2 15.5 12.6 13 18.8 21.5 6.3 11.1 16.1 20.6 19.4 33.2 1.6 8.4-2.6 18.2 4 25.2 6.9 18.2-8.6 36.5-12.8 53.7-4.6 4.6-8.3 10.6-15.3 11.1-18.6 15.4-35.5 34.3-60.3 37-22.2 1.6-7.8 23.2-1.3 34 5.3 23.1 115-68.3 46.4-8.1 45-15.9 95-53.6 92.5-105.9 3.8-26.9-11-53.3-27.7-73.6a218 218 0 0 0-47.4-42c-36.4-25.6-79-41.2-121.8-52.2-21.6-6-43.9-7.7-66-11 5.6 5.6 10.2 15.8 19.7 10 13.7-6 28 2.2 41.2 5.7m-666 80.6c19.3 25.6 46 44.6 70.8 64.4 25.3 10 53.7-25.3 80.6-24.7 24.6-8.8 47.9-20.6 71.3-32-15.1-12.7-33.9-20.4-49.8-32.2-16.6-8.8-33-18.3-50-26.7-17.9 4.4-34 14.3-51.7 19.7-23.3 9.2-47 18.1-69.2 29.7zm309.4-128.2q32 14.8 64.4 29c21.9 7.2 44.6 17.9 68.2 15.3 31-9.5 61-22 92.7-30 15-6.3 43.7-10.6 49.5-19-26.7-9.4-55.5-11.5-82.4-20.9-22-6.3-43.5-13.9-65-21.5-40.5 12.2-78 31.8-118.7 43.4zm821.9 671.3c-4.4 13.8 6.6 46.4-14 43.3-16.7 5.4-20.5-8.7-18.5-21.5-.2-9 .5-18.2-.7-27.2-16.3-1.7-28.3 12.2-41 20.4-25 18.2-50.3 36.2-75 54.7a684 684 0 0 0 60.8 61.2c50-34 98-71 147.2-106.3 7.7-5.3 27.5-17.5 6-15.7-10.5-2.3-27.2-13.1-26.6 4.5-14 4.6-26.3-7.7-38.2-13.4m-265.5-405.3c-13.6 34.7-46.4 58-79.3 73-14.5 6.5-29.8 10.7-44.8 15.6.7 6.8 4.8 11.2 10.3 14.8-10.3 6.5 7.8 26.9 11.8 37.1 15.3 3.3 33.3-16.4 49.7-22.1 26.4-13.2 54.3-23.4 79.1-39.6 21.3-12.8 45.3-20 67.2-31.6-1.2-4.7-17-14.5-24.8-18.4-19-5.7-34-19.9-52.9-26.1-5-2.4-10.8-5-16.3-2.7m-872-136.3c-39.6 13.1-74.8 37-113.6 52 15.5 23.8 41.8 38.1 60.5 59.2 14.9 15.3 38.1-8.9 56.4-11.5q35.3-14.4 70.5-29.2c.4-7.4-10.5-11.7-15.8-17.3a473 473 0 0 1-58-53.2M1842.8 893c7.8-9.4 5.6-22.9 8.1-34.3 3.4-28.3 8.1-56.6 11.9-84.7-1.3-7.2-12.3.3-18 0-23.6 5.2-47.7 9.4-71 15.4-.7 6 4.5 12.5 6.2 18.7 5.7 13.3-24.8 3.8-19.3 21.1.2 10.2-2.5 20-2.7 30.1 1 15.4-10.8 43.4.2 50.6 6-1.5 12-8.9 18-3.8 6 2 12.7-2.3 19-2.7zm-587.6 440.6c-20.6-22.4-43.5-42.7-65.8-63.4-36.7 7.4-67.3 32.1-103.6 40.4-.4 14.6 23.2 27.8 30.6 43.3 13.6 17.9 28.5 51.5 56.6 19.5q40.5-21.4 82.2-39.8m5.1-2.1c28.3-11.4 55.7-24.7 84.6-34.5 9.2-6.4 36.5-8.9 33.3-18.9-25-17.3-52.3-31.5-74.2-52.9-21.1 6.7-41.8 15.5-62.6 23.4-15 6.4-30.3 12.3-45.2 19-.8 6.1 8.5 9.6 12 14.5q26.3 24.5 52.1 49.4m308-125.8c31.7-12.9 65.2-20.8 95.9-36 7.2-4.8 31.1-8 28.7-12.6-26.7-12.1-54.4-23.4-77.9-41.4-7.3-5.6-17.2 2-25.3 3.6-33.3 11.5-67.7 19.5-100.1 33.2-6.8 6.5 8.1 8.7 12.2 13 22.4 13 43.8 27.8 66.5 40.2m134.4-48.8c24-8 47.5-17.2 71.2-26 21-7.8 43-14 63.3-23.3-13.6-9.9-37-14.7-53.3-24.6-10.8-4.4-22.3-14-33.9-12.5-28.8 10-58.4 17.3-87.2 27.5-14.8 4.8-30.6 8.1-44.9 13.4 12 12.9 31.7 20.7 48.2 29zM470.5 989.8c-5.8-35.3-10.8-70.7-17.6-105.8-4.3-15.6-1.7-35.7-9.9-48.5-11.4 17.6-22 36-32.3 54.3-5 23.4 5.4 47.4 6.4 71 4.5 32.5 6.7 65.3 11.9 97.6 8.3-3.7 13.1-21.3 20.1-30.3 7.1-12.8 15-25.1 21.4-38.3m47.2-78.3c19 14.7 41.3 25.3 62.2 37 5.3-4-1.6-14.7-2.5-21.6-11-37.2-21-74.6-32.3-111.7-3.4-7.2-12.7-9.3-18.8-14.3-13.3-8.2-26.1-17.1-39.8-24.6-.5 12.4 4.9 26.1 7 39 7.6 32.1 16.3 64 24.2 96.2M473.9 984c12.6-22.4 26.3-44.3 37.8-67.2 1.8-16.5-7.5-32-10.5-48.1-6.9-29.3-13.2-58.7-20.3-87.9-5.3-11.1-12.9 15.6-18.6 21-5.4 11.8-18.3 22.8-13.4 36.7 7 45.7 15.3 91 21.6 136.8q.8 4.7 3.4 8.7m963.7 139c-27.2 10.5-53.8 22.5-82 30.3-29 10.2-54.7 27.5-84 36.8 10.7 8.5 23.4 27 36.4 27 39.3-19.3 82-30 122-48 14.4-5 29-9.4 43.2-15.2zM993 1471.5c-18 4.2-35 12-52.8 17.4-46.4 15.9-92.3 33.3-138.8 48.9-39.5 13.8-79.2 27-118.5 41.5-6.4 6.3 6.4 29.4 18.1 17.7 60.5-22.1 121.2-43.3 181.5-65.8 36.7-12.4 73-26.1 109.4-39.2 8.8-3.2 1.7-14.2 1.1-20.5m507.6-127.3a567 567 0 0 0 94.2 46c5.6-3.2 13.6 9 13.6-1.3.6-13.9-.8-28.4 2.8-42.5a113 113 0 0 1 39.2-61c5-5 25.3-14.7 22.3-17.6-26.2 10.2-51.8 22.8-77.8 34-29 15.3-59 28.3-89.6 40-1.7 0-2.9 2.4-4.7 2.4m-1122-400c1.1 24.7 5 49 6.5 73.6 3.6 32.7 7.7 65 9.8 97.8 9.4 1.2 16.2-24.4 23.8-33.8 11.6-11.9 6.6-25.1 5.7-39.5-7.6-47.6-11.2-95.8-18.6-143.4-9.9 14.6-17.9 30.4-27.2 45.4m772.5 285.5c-20.4 3-39.7 12.7-59.5 18.8-13.3 6.5-34.3 7.4-42.9 15.7a195 195 0 0 0 31.3 44c16.2-3.4 31.3-9.9 46-17.3 19.5-10 40.5-16.3 60.3-25.2-13.4-10.3-22-25.4-35.2-36m350-383c-3.4 17.1 2.7 34 1 51.4-3.4 21.1 1.2 42.2-1.8 63.4-.1 11.2-2.5 25.8 11.5 28.3 8.8 2.9 21.7 15.3 28.3 5.7 3.8-11.9-2.2-24.2-.2-36.5 2.8-27.8 1.3-55.8 1.9-83.6.1-8.2-5.6-13-12.7-15.6l-25.4-13.6zM1276.5 1201c-10.3-10.7-24.7-6.8-36.2 0-26.5 11-56.2 12.2-82.3 24.2-6.3 10.7 17.7 13.2 17.9 24.7 8.6 15.3 22.7 16 36.4 6.8 26.5-13 54.9-21.5 82-33.3 10.2-10-20-12-17.8-22.4M2368 1400c5.7-16 11-32.3 17-48.2 3.4-13 11-32 11.7-40.9-29.2 12-57.8 25.5-87.5 36.3-11 4.6-22.5 7.8-32.9 13.7 13.3 9.6 29.9 15 44.7 22.3 16.3.4 25.7 16 42.2 16.8.1 1.8 4.9-1.7 4.8 0m-1358.1-179c12-.5 18.5-8.9 30.1-8.3 26.6-5.3 53.6-8.8 79-18.4 6-13 1.5 6.4 12.5-1.7 21.1 1.8 13.8-23.6 12.3-36.2-16.8-1.6-34.2 4-50.6 8.6-9.5 2.3-18.7 7.9-28.5 4.5-7.6 10.4-24 8.3-34.6 13.8-7.9-2.3-12.2 5.9-19.3 6-12.7-1.8-5.3 11.8-6 19 .6 4.4 3.5 8.5 5 12.7m-617.5-93.9c.9-17.5-3.2-34.9-4.2-52.4-3.3-30.8-5.5-61.7-9.7-92.5-1-8.6.1-42.7-9.3-22-5.6 10.1-14.4 19.5-12.4 32 1.9 16.5 2.5 33 4 49.6 1.3 18.4 1.9 36.9 3.8 55.2.6 22.7 3.2 45.3 4.7 67.9 9.3-9 16.5-25.2 23.1-37.8m1101.1-278.4c-17.8 2.4-39.4 4.2-54.8 12.1l25.4-4.4c3.7 17.7-1.7 36.9.2 55.2.2 26.8-.6 53.7.4 80.5 8.7 3.5 29.1 1.6 31-8.5 0-20 .5-40.2-1.5-60.1-.3-25 .4-50-.7-74.8M1764 789c-4.2-19.2-15.3-36.2-22.8-54.3-20.1-41.9-39.6-84-60-125.7-8.2 7-10.4 19.4-16.4 28.6-24.4 46.4-47.5 93.5-72.4 139.7-8.7 20.6-21 39.5-29.5 60 6.3 4.4 7.4-8 11.2-11.6 15.9-28 32.1-55.6 45.7-84.7 18-35.8 38.6-70.2 55.4-106.6 6.8-12.5 9.4 5 13 10.2 26.2 55.3 52.3 110.7 80.2 165.2 16 14.3 1.2-17.9-4.4-20.8m-483.5 223.4c15.2.3 30.7-5.5 45.4-9.2 2.4-13.9-.3-31.8-1.7-47.2-3.1-11 5.5-33.3-12.6-26-16.5 1.5-41 3-33.4 26-.5 18.9 3.2 37.6 2.3 56.4m349-28.8c.5-15.6.4-31.4 1.8-46.9-5.7.3-12.3 4.4-17-.6 12.9-8.2 29.3-8 23.7 11.2.4 10-1 20.5.7 30.2 9.9-10.8 2.3-34.7 6-50.4 6.7-2.7 28.4-15.8 25.4-.7 1 14.3-3.1 28.4-1.7 42.6 10.1 3.5 2.4-18 6.9-23.2-1.1-15.1 2.8-46 22.7-34.3 3 16.2-7.8 43.1 1.7 52.2 4.9-12.9.7-30.4 3.1-45-.7-11.8 6.2-25.8.8-36.5-3.7 10.3-1.6 25.4-16.6 23.8-14.6 6.3-6.1-11.2-11.3-17.9 1.5 17.6-7.6 28.8-25.9 29.2-3.4-2.8-1.3-34-7.4-13.7 1.5 9.4-2.1 19-12.8 18.5-8.5 2.6-21.7 5.9-14.3-8.3 5.4-18.3-13.4-7.8-9 4.7 2.2 16.6-32.3 4.6-24.6 22.2 11-1.6 26.8-10.8 22.3 7 .3 13.4-.7 26.8.6 40 10.6 4.4 6.5-10.6 7.3-16.7.4-9.1-1-18.9 1.2-27.6 5.5 7.7-4.4 36.4 3.8 44.6zm472 780.8c27.1-13 53.5-31.3 84.5-35.6 19.5-5.1 39.7-5.9 59.5-8.7-5.3-8.8 18.1-15.1.4-16-29-3.5-58.4 2.3-86.3 9.9-23 7.4-46 15.5-67.2 26.2-13.5 5.5 3.5 19 9 24.2m-246.8-852.7q-7.2 8-16.6 3.1c-17.4 12.3-44.6 6.2-60.2 16.2 7.4 6.8 13.5 8.5 22.1 13.2 4.3 10.7 15.2 2.3 14.7-6 6 3.4-5 12.5 3.1 15 20-5.7 44.9-5 61.3-15.7l4.1-34.3zm482.6 561.5c-31.7 14.2-64.2 27.5-94.2 44.8 11.6 11 30 20.8 44 27.2 15.6-16.7 33.6-32 42.3-53.7q4.5-9 7.9-18.3M929 1080.8c-2.7-25-7.4-49.7-12-74.4-8.8-1.5 7.3 20.7-8.9 19.6-14.9.3-43.6 21.7-40.8-5-6.7-12.6-5.3 2.8-4.1 8.3 5 12.2-9 9.8-17 13-9.4 2-18.5 6.7-28.2 6.6-3.5-6.2-9.7-31.7-9.2-13.8-.3 5.3 5.8 16 .2 17.4-11 4.3-34.4 3.2-37.2 14 12-1 35.7-18 41.2-3.8 1.5 12.6 5.5 25.2 5 37.9-8.9 8.2-32.9 2.6-36.3 14 6.7 5.3 16.3-1.6 24.2-2.3 37.1-9.7 74.4-18.9 111.5-28.5 12-7.7-15.7.5-21 1.2-12.3 5.6-22.5 4.6-21.5-10-1.3-11-5-21.9-4.1-32.9a91 91 0 0 1 45.8-11.8c5.9 15.7 2 39 11.6 50.4zM1603.3 864c29.9-3.3 58.7-12.7 87.9-19.5 4.5-23.6 1.8-47.7 2.7-71.5-1.8-20.6 2 10.2-8.3 11.3-11.9 5.8-17.7.9-15.7-11-5.9-11.8 1.2 21.7-11.7 16-13.6 7.9-25.7 6-22.7-10.8-5.7-7.4-5.6 7.3-5.1 12.2 5.5 13.9-36.7 9-21 17.4 9.4-2.7 24.8-5.4 20.9 9.9-1.5 15.9 7.6 38.8-16 41.3q-5.7 1.8-11 4.7m403 404.6c35.4 9.8 64.5 39.8 93.4 57.5 11-5 30-10.2 35-17.3-36.8-13.7-74.8-24.2-110.6-40.6-5.7-3-12.5-4.1-17.8.4m303.3 773.3c-29.5-29.3-60.4-57.2-90-86.4-6-8.6-19.5-19.4-19.4-.7 7.8 10 19.1 17 27.8 26.6 24.2 22.8 47.8 46.4 72.5 68.8 5 6.6 7.4-5.8 9-8.3M932.3 1082.6c-35.5 10.4-71.6 18-107 28.5-13.7 3-30.5 5.8-41.4 12 .1 9.6 8.3 3.9 14 2.9 46.5-12.6 93.7-22.6 139.8-36.6.4-17.5-5.7-34.6-7.2-52.1-1.7-9.4-4.8-30.2-9.5-31.3 3.3 23.9 8.6 47.5 11.4 71.4v2.5zm814.2 724.9c19.6-15.7 38.6-32 56-50.2 6.6-5.6 24.8-25.7 6-15.6-24.8 14.2-49 29.5-74 43.2-10.5 5.4 12.3 18.3 12 22.6m-867-728.9c10.3-3 39.4 1.1 35.2-15.2l-5.2-31.1c-11.7 4-24.3 5.6-35.7 10.4a317 317 0 0 0 5.7 36M777.1 638.2c-.9 25.8 2.3 51.5 1.6 77.3-1.3 11.4.3 24.3 15.6 17.5 23.8 2 5.8-21.1 3-33.4-8.5-20-10.6-42-20.2-61.4m490.6 511.7 1.6-30.1c-7.3-14.3-27.3-15.8-41.3-19.9.6 11 .1 28 11.6 35 8.3 6.7 16.7 14.4 28 15m-494.3-79.6c2.3 10 0 34.2 12.2 33.4 9-2.7 19-2.7 26.8-8.2-5.5-10 1-37.5-15.5-32.3-7.8 2.5-16.2 3.1-23.5 7.1M1744 1402c-6.4 17.6-16.8 42.8-3.9 59.8 17.3 16.6 14.5-18.6 20.3-29.3 10.8-18.3-10.2-15.6-16.4-30.5M645.2 1081.6c6.8 15 10.3 31.7 13.2 47.9-2.8 12.7 6.3 8.4 9.6 2 6.3 0 14-6.2 19.2-1.1 6.7 2 1.9-11.2 1.2-15.7-5-21-10.5-41.8-12.5-63.3-15.3-5.2 12.2 33-10.5 22.3-12.1 6.9-17.9-2.2-19.4-12.7l-7.5-23.1c-8.4 7.7 6 24.1 5.5 35.3-1 5.5-12 4.8-17.3 7.6-8-7-5.2-.6-3.3 6.7 0 8.8 22-34.8 21.8-5.9m67.3-29.5c4.6 22.8 10 45.6 17.2 67.8 9.3 6 21-5 13.5-15.5-4.2-13.5-6-28-12-40.8-4.9-5.6-12.6-7.6-18.7-11.5m967-415.7c-2.5 15.4 9.4 29.7 14.9 44 20.9 42.6 40.7 85.7 63.6 127.2 11 13.1 2.3-6.9-1-12-16.2-33-30.7-66.8-48.5-99-9.5-20.1-17.5-41.1-29-60.2M1913 2297.3c15.6 2 35.3-2 28.3-22.5-.4-9.8-1.5-27.8-14.1-14-5.8 6-19.3 6.6-17.4 17.1-.3 6.6.5 13.4 3.1 19.3M776 1206c7.5-2.2 31-3 25.2-14.1-11.8-6.7 9-11.9 7.6.7 9.4 3.5 33.5-3.8 19.8-17.5l-.8-2.1c-16.5 12-50.8 7.3-62.8 24.9-6.6 12.7 15.3 14.2 14.1 9.7zm199.6-117.7c-6.5-32.5-13-65-20.4-97.3-15.4 4.2-3 32.1-1.6 45.9 4.4 17 8.8 34 12.2 51 1.2 4.6 7.7 3.5 9.8.4m1137.4 689c14.3-15.2 33.2-24.7 52.2-32.7a223 223 0 0 1 75.6-10c20.1 1.1-16.6-28.2-18.1-7.7-38 4.5-89.2 16.6-113.6 44.2q1.5 3.4 3.9 6.3m-1609.7-717 8.5 31.6c8.2.1 30 2.5 25.5-11l-8-27.7c-8.7 2.7-18 2.6-26 7m41.4-10.5c3.7 10.4 5.8 21.6 10.4 31.6 5.2 3.4 13-2.8 19.4-3.4 11-4-1.7-22.3-1.9-31.7-3-10.2-4.5-23.3-27.9 3.5m-3.2 53.9c-7.3 3.7-24.8 1-22.5 11.5 5 7.9 2.4 31 13.7 28 5.3-3.2 17.8-1.7 17.2-9-2.5-10.3-3.8-21-8.4-30.5m803.3-205.9c11.4 3.3 23.3-1.4 35-2 17.4 3.3 16.8-31.3-1.4-19.6-10 5.5-36.1 0-34.6 14.4zM1079 1136.2c-.6-18.4-6-36.7-7.7-55.2-2-8.3-3.8-31.6-6.7-30.8-.2 12.8 4.6 25.3 5.2 38-7.1 7.5-24.7 8.3-21.1-8.4-6-11.7 1.2-39.3-11.7-41.8.2 4.7 8 27.4 7.4 39.1 2.1 20.6 5.5 40.5 8.7 61.3 5.7 8.2 5.6-6.5 3.7-10.4-1.2-9.4-4.4-18.7-4-28.1 11.7-13.2 23-1.4 20 13.3 2.3 6.9-1.6 19.7 6.2 23m513.5-141.7c1.6-16.1 3-34.8-.5-50.3-21-1.8-11.8 29.2-13.3 43.8-4 12.7 6.8 6 13.8 6.5M461.2 1099.1c-5.8 7.6 5.7 25.8 2.8 37.3-5.6 1.8-10.1 7-15.6 4.7 1.5 15.6 23.8-8 23.6 12 3.8 12.4 5.2 25.8 11.1 37.4 12.3-7.9-7.5-28-6.2-41-6.9-11.6 6.8-10.7 14.1-13.7 3.7-13.7-14.2 1.8-19.2-3.2-4.2-10.9-6.9-22.5-10.6-33.5m991.4-234.8c-.6 15.7 2.4 31.2 1.5 47-.5 18 2.8 35.7 2 53.8.7 8.8-1 18.4 1.3 26.7 5.8-18.7 1-46.2 2.6-68.2-2.8-18.5 5.5-49-4.2-60.3zm-683.2 191c10-5.3 30.4-2 34.2-12.5-.3-8.6-2.6-16.7-12.7-11.7-8.5 2.7-18.5 2.2-26 7.5zM993.9 1185c-.3-16.4-33.4-29.9-17.6-5-9 14.8 13.4 25.8 21.6 36.1 1.2-8.3-1.5-16.5-2-24.7-2.3-2.2-5-3.3-2-6.4M1663 925c-25.8-.7-10.5 31.6-17.3 47.3 4.1 16.3 16.5-5.2 12.7-14 3-8.3-1.2-34.5 5.3-22.6-.2-3.6.5-7.3-.7-10.7m15.2 43c15.5 3.3 10.9-12.4 11.7-21.7 4.3-10 3.4-45.4-9.7-25.1.2 15.7-3.9 31.1-2 46.8m-71.4-153.4c-1.7 11.4-10.7 44.7 9 34.8 7-1.5 3.3-11.3 4.2-16.9-2.2-9.8 9.7-33.6-13.2-18zm-963.2 271.7c-23.5-2.9-5.8 23.8-4.7 36.2 4.7 15 20.5 1.7 11.8-9zm173.3-60c-3.7 23.2 20 11.4 32.5 9.3 6.3-.5 4.5-19.6-2.3-16.2a307 307 0 0 0-30.2 6.8m1426.7 920.3c26-19.4 52.9-38 78.2-58-9.4-2.7-19.1 8.6-27.2 13.7-18 14-37.6 26-54.4 41.3zM1412.9 892.1l22.6-5.8c3.6-13.4-.5-24.4-15.9-18.4-13.3-.5-7.4 12-7.2 20zm974 1015c-1.7-13.6 11.3-42-12.3-32.6 1 10-9 50.5 12.3 32.6m-1174.3-782.4c3.9-11.5-1-24.1-1.8-36q-6.2-42.2-11-84.5c-5.2 2.6 2.5 27.6 1 39.1 3.5 19.2 4 38.7 5.5 58 4.7 8.4-4 22 6.3 23.4m-339.2-96.1c10.8-5.2 41.5-1 32.8-18-7.8-4.8-30.2-.5-35 7.4zm829 401.4c13.6-4 2.4-23 12.8-30.4 11-15-13-18.2-11.6-2-1.3 9.9-14.3 25-2.1 31.6l.8.7zM484.2 1124c-1.2-15.5-7.1-30.4-10.8-45.5-9.5.4-10.2 19-4.9 26.7 4.4 7.8 2.5 28.2 15.7 18.8m147.8-81.5-13.4-4.5c-.6 10.4 2.6 32.6 12.8 36 9.1.5 9-4.6 5.9-11.7zm-95.9 135c13.4-3.8 30.2-10.5 17.5-26.6-11 .4-27.5 3-19.7 16.7zm600.6-53c-3.3 18.3 24.5.4 34.3-.1 7 0 27.5-9.8 14.8-12-16.5 3.5-32.8 8-49 12m-536.4 33.1c1.2-15.4-8.9-21.2-22.3-13.3-12 6.2 2 26.2 14.3 16q4.2-.8 8-2.7m461.8-70.5c-3-13.8 1.6-42-12.5-46.1-4.6 13.3 1.7 34.1 6.3 47.8zM772.6 732.9c4-15 1.5-39.4.6-57.8-1.8-17.1-.4-34.4-1.4-51.6 4.8-8.5 12.6-16.7-4.9-27 .9 22.5 1.5 45.1 3.4 67.6-.3 18.2 1.5 36 2.3 54zm544.7 157.5c-10.7 0-41.4 3.2-21 16 9.6 5 30-2.4 21-16m736.7 845c-11.4-2.7-26.3.1-12.2 12.4 5.5 13.8 16 8.3 23.2 0zM743.7 1180.2c-.2 10.6-1.1 36 13.4 33.7 5.1-3 4.7-13.9 0-17.8-4.6-5.2-3-16.3-13.4-15.9M653 1071c12.2 0 23.7-6.5 12-20.2-10.3-5.5-24.6-8-16.2 6.3zm416.8 67.1-4.1-39.1c-17.4-.6-4.5 24.9-4 35.6 0 6.6 4 5.7 8 3.5m619.6 209c-3.4 14.3-10.3 28.4-8.5 43.3 11.2.1 10.3-25.8 15.3-36.3zm16.8-384.3c5.3-19 4-40.7 7.5-60.7 3.2-6.3-.1-32.3-3.6-15.4-3.6 20-1.1 40.6-4 60.8q-.3 7.6.1 15.3m-526.9 94.2c.8 5 1 15.5 2 17.3 5.6-19.3-1.3 16.8 3.9 11.7 2 2.7.3 12.3.8 17.6 12.2-7 0-28.2 2.2-40.6 0-8.2-1.1-11.3-8.9-6M640.6 867c-5.8-16.5-14.6-43-19.1-53 3.5 15.7 1 37.4 12.2 49.2zm315.6 291.3c0 6.4.7 21.8 9.4 14.3 0-9.1 13-12.9 1.4-20.6-4.6-9-7.3-5-9.4 2.8zm26.3-30.8c-4.1-10 1.1-38.6-14.8-31.8.9 12.1 3.3 25.2 14.8 31.8m636.2-207.2c10.2 1 18.2-4.6 15-16.2 1.6-13.4-19.1.1-15.6 9.2q-.1 3.5.6 7m-583.6 186c2.3 11.2-.4 33 11.5 36.3-1.7-11.3-.6-32.5-8-37.2zm-539 62.8-8.1-27.7c-14.7-3.3-1.4 29.5 5.1 28.8zm1100.9-248c9.7-22.3-29-10.3-14.3 3.7zm-474.2 141.5 10.1 50.7c5.6-.6-.1-12.4.4-17.8l-4-29c-1-2.6-3.7-4.5-6.5-4m530.4-151c18.3 3 15.6-30.1-1-16 0 5.3-.8 10.8 1 16M1607 780.3c-10.1 18 20.4 19.3 15 1.8-.5-6.2-10.8-1-15-1.8m48.4 2.5c5.7-13.3-7.5-12.7-16.7-7.7-3.9 14.6 8.3 9.3 16.7 7.7m-1196 365.8c-1.6 7.3 9 39.3 12.4 24-3-8.2-3.3-18-9.2-24.7zm872-140.3c-16.7 0-37.5 3.7-50.5 12 15.2 1.2 34.9-6.7 50.5-12m363.2-124c-16-3.9-15.4 26.6-1 13.6a15 15 0 0 0 1-13.6m42 1058.5c-4.3-5-39.2 9.1-21.5 12.4 8.2 2.2 15-8.9 21.5-12.4M454.8 1133.4c8.5-2.6 4.2-9.8 2.7-16-3.7-19.5-13.5 11.4-2.7 16m284.1-72.3c-1.6 16.8 8.3 33.3 12.2 49.6 5.7 15-1.6-15.3-3.5-21.6q-3.7-14.2-8.7-28m821.2-221-11 22.3c10 4 10.8-9.7 15.3-15.6 3.5-4.7-1.5-5-4.3-6.7m980.1 803.6c-.2 11 27.4 13.3 18.1.5-4.6-1.7-12.8-.9-18-.5M1404.6 872.2c-12.4-.6 1.6 33.6 3.3 15 .3-5.2.5-11-3.3-15M1740 1905.7c-6.2 6.8 7 9.8 10.7 7 12.2-9.7-.2-10.6-8.5-7.4zm-65.6-1128.2c15.8 9.2 8.6-26.6 0-7.3zm819.1 763.3c-1 10.7 20.8 20.5 13.5 5.3zm-794.1-725.5c1.1-17-.4-34.3 1.8-51-6.5 9-2 35.6-1.8 51M506.2 1184.5c4.4-2.4 56.9-30.4-4.2-19.6 5 9.8-17.3 11.4-9.7 14.6 7.6-3 9.9-2 13.9 5m1169.2 857.1c-6.3-7-19.8-2-7.3 5.6 3.6 3.5 8.5-1.7 7.3-5.6m196.6-469.4c3.8 7.3 20.4 9.7 14.6.9-4.5-2.6-9.8-1.4-14.6-.9m-68 386.5c-1.1 8.3.4 42.3 4 19.5q.2-10.2-4-19.5m719.5-331.3c3.8 8.3 19.3 16.3 15.3 4.4-5-1.5-10.2-3.7-15.4-4.4m-1538.8-44.8c11.5-1.7 4.7-21-.2-10 .3 3.2-1.4 7.2.2 10m845.3 381c-8 3.3-20.8 29-6.4 13.4q4.8-6 6.4-13.4m-429-1097c18 3 71-17.6 0 0m-670 161.4c2.1-10.5-28.1-2-14 1.6 11 10.9 2.5-9 14-1.5m1064.5 748.4c-8.4 2.4-25.7 29.6-10.2 14a49 49 0 0 0 10.2-14m65.5-229c9.3 5 35.7 4.5 34.3 2-11.5-.1-22.9-2.2-34.3-2M886.5 937c-3.6-9.8-5.8-20.4-10.7-29.4-.5 8.7 5.8 20.8 10.7 29.4m792.2 392c6.5-4.5 13.5-27.5 3-12.7q-3.2 6-3 12.7m-899.4 293.3c6.9 3.7 11.2.8 14-6-5.2.1-11.4.8-14 6m1299.4-206.5c9.6-8-5-28.4-1-10.2.2 3.4-.5 7 1 10.2M993 1592.3c4.5 5.9 7.8 27 9.2 9.8-.3-4.7-5.6-7.6-9.2-9.8m-340.8-455c-6.4-.7-13.6 9.1-4.1 6.5 3.6-1.2 11.5-2.6 4.1-6.5m-4.2 285.3c-1.3 8.6 9.7 32 5 12.1-.2-4.8-1.7-8.5-5-12m1462.6 358.5c-2-8-18.6-10-7-1.3 0 3.5 7-1.1 7 1.3M816.7 2082.3c9.3-2.1-3.6-22.6-3.2-12zm1653.2-490c5.1-14.6-17.2-25.5 0 0m95.5 90.2c-2.1-6.8-15.3.2-22.3-2.7 7 3 14.8 3.6 22.3 2.7m-442.8 541.3c18.5 4.4-1.2-13.1-2.2-2.6zM735 1778.4c10.1-5.7-4.6-22.4-1.4-7.2l1 3.3zm948.5-437.7c-5.8 6-2.4 22.2 1.2 6.8l.2-3.3zm223.5 964.8c-6.8-3.6-5.7-22.4-7.6-7.3-2.7 5.8 2 8.2 7.6 7.3m-979.8-1133c16.8 3.2 5-13.7.1-.1zm229.3 797c-12.5 9.2 12.3 11.4 0 0m520.1-590.7c1.7-6 7.7-21.5 3.4-19a29 29 0 0 0-3.4 19m710.4 535c-8.9 3.5-28 3-8.7 4.9 3.4-.2 8.7-.3 8.7-5m-1484.5-833c-11.3-2.3-27.1 7.3-8.7 1.9zm783.2 917.3c-5.7-13-18-7.6-3.3-2zm-65.4-576.5c4-6.8-8.6-23.8-3.6-7.9a28 28 0 0 0 3.6 7.9m443.1 826.6c-12.5-7.8-23-4.1-6.7-1.7z"/></svg>