<svg xmlns="http://www.w3.org/2000/svg" fill="#0a0a0a" viewBox="0 450 3300 2186"><path d="M649.7 893.3c-4.8.3-20.7-.2-8.3-2.2 15.5 2.8-13.4-22.8 1.4-14.8 3 4.6 10.3 11.5 6.9 17m2040.6 882.1c3.8 11.7-9 10-4.8-.2 1.5-8 22.8.5 15.7-14.7-5.8-9.7-3.4-14.4 3-2.1 7.3 13.2-1.4 17.7-13.9 17m-1674 407c-7-8.1-14.8-29-28-14-10.8 6.5-19 36.3-33 23.6-1.3-13-9.1-23-18.8-24.7 20.5-16.7 19 44.8 35.6 14.4 6.6-13.6 24.7-30.7 38-16 5.4 9.8 7.4 15.5 13.8 2 5.8-16.7 23-9.6 31.6-8.5 2.7-15.9 31.3-10.7 30.7-7-14-1.8-24.8 1-30.9 14.2-20.6-20-24.5 6.3-39 16M700.8 2252c-22.4 6.4-20.4-54.4-26.2-40 10-1.7 11.8 32.1 21.4 36.7 11.6-5.2 16.8-20.6 30.3-22.4 14 1.4 7.7 38.8 23.3 20 6-16 22-20 24.2 0 7.2 18.5 25.8 7.6 38.8 9-19.6 15-44 1-49.3-19.2-6.4 10.8-27.6 33.5-30.8 8 1.6-13.5-11.3-17.4-17.3-6.4q-7.3 7-14.4 14.3m394.4 31.4c-5.5-17-19.3-31-21.6-49.1 11.3-9.1 26.5 14.4 41.1 13.7-3 9-29.1-12.5-34.8-9 .5 16.4 16.2 28.6 19.4 44.7-8.4 9.4-24-3.8-33.8-7.3-10.3-7.2-29.7-16-34.9-22 16 4.4 30 15 44.7 22.7a47 47 0 0 0 19.9 6.3m27.9-48.9c21.4 4.3 43.4 18.7 65.2 7.4 10.5-4.5 22.6-20.3.5-25.6l-9.9-13.6c11.5-1.9 24.7-4.5 26.8-10 9.7 18.5-34.8 5.1-12 22.6 10.2 7.9 20.5 20.5.7 27.2-21 15.1-47 3.3-68.4-4.3-1.7-.1-3.4-1.8-2.9-3.7m44-141.6c4.1-6.6 23.5-8.7 7-12.6-11-4.2-30.6-11.4-30.6-21.2 13.8-1.6 20.7-4.8 4.7-11.9-9.7-2-25.7-27-8.7-10.3 8.9 8 21.2 12.1 29.2 21-3.3 7-18.7-2.2-18.9 5.5 7.6 14.7 31.4 8.6 39.3 21.3-7.2 6.5-25.2 7.5-10.5 19.7 6 15.5-13-8.6-11.4-11.5m-326.9 54.6c-17.8 4.5-33.6 15.7-52 18.5-8.3-7.9 11.1-43.8-10.1-26.1-10.2 4.5-32.8-9.8-29.2-14.6 12.2 9.6 26.6 16.3 39.3 5.3 10 2 3.1 15.1 2.8 22-2.5 8.2.2 23 16.8 3.5 9.8-2.6 24.2-15 32.4-8.6m-307.1-24.8c-2.3-8.9 12.5-38.5 7.3-16.5-.6 21.9-18.3 37.6-24.5 57.1 2.6 9.5 3.8 25.1-2.9 8.4-4.2-14.9 8.6-26.6 14.4-39.2zm1324.1 106.1c-7.5-14.7-13.7 15.5-20 20.5-15.1 5.3 6-22.8 4.3-29.2.1-13.8 19.4 2 15.7 8.7M870 2253.1c16.5-4.7-7.3 10.5-4.8 20.1-6.4 10.8-10-7-13.7-11.8-10.4-18.7 5.3.8 10.1 6.9 3.5-4.4 3.8-11.2 8.4-15.2m277.4-1160c2.9-7.8 15.3-2.5 22.1-4.1 16.1 3.7 47.7-13.9 51 9.6 4.8 14.7-2.2 27.2-18.5 22.6-21.3.1-43.2 6.7-64.2 2.5 1.7-10 3.4-20.7 8-29.7 5.8 4.1-13.4 31.6 8.7 25 20.8-2 41.7-1.4 62.2-5 4-14.4-1.7-32.1-19.9-23.8-16.4 2.8-33.1-.9-49.4 2.9m1091.4 267.8c-8.7-4.2-15-23.1-4-8.3q2.5 3.9 4 8.3M355.5 2044c14.8-1.7 26.3-14 39.7-3.8 22.7 3.5 45.4-11.2 67.6-3.3 7.9 11.9-16.5-4.8-22.2 2.7-17.7 1.2-38.1 10.2-54.7 2-10.9-6.8-25.5 15.9-37.7 3-8.5-5.6-17.2-11.2-27.8-6.6-11.8.5-35.7 9-40.3 2.6 17.7-3 35.8-6.8 53.8-7.6 8.1 1.8 14.6 7 21.6 11m213.6-262.2c-20.5 4.5-37.3-14.4-54.8-18.2-15.9 7.4-35.8 18.8-45.3-2.4-13.8-14.9-31.6 0-46.4 2.4 18.4-21 47.6-14 61.4 6.8 17.3-4 34.5-18.7 50.4-2.4 12.5 8.7 41.6 16.7 35.5-7.3-3.4-10.4.7-15.3 3.7-1.4 1 7.6 1.5 16.6-4.5 22.4m-170.3 100.5c4.2 12.5 17 15.5 28.5 9.6l27.2-9.3c10.5 15 26.4 23.3 44.1 11.8 7.9-2.8 28-8.8 13.6 2-18.2.2-42.6 19.8-53.7-4-12.3-14.1-35.5 15.7-52.2 5.9-11.5-24-31.7 8.7-48.9-2.8 14.9.7 27.6-9 41.4-13.2m202.2-336c17.3-3.4 32.3-16.7 50.4-14.6 8 13-9.6 23-3.4 6-4.3-6.8-15.5 2.5-22.3 4.1-12.5 5-27.6 15-37.2-.3-15.5 2.1-34 18.6-45.8-.3-7.2 0-33.2 8.5-26.7 0 12 1 28.8-11.5 36.3 2.7 16.9 11.8 34.4-23.2 48.8 2.4m-95.6 101.3c-13.2-8.5-29 16-34.3 9.3 12.3-13.2 34.1-21.3 47.3-4.5 26.3 20.5 60.3-23.6 84.3 6.8 2.3 15.4 11.8-7.5 8.8 8.7-8.3 14.2-18-25.8-37.7-15.2-19.6 4.9-42.9 18.1-60.7 1.1zm1228.2-8.7c-.7-21.1 7.1-41.3 11-61.9-6 1.2-26.8-9-12.7-7.1 16.5 6.2 43.6-7.9 52.9-3.6-14 11.3-42.8.9-40.1 27.5-5.2 14.3-3.4 32.7-11 45.1m-120.3-144c-15-6-42 2-36.3 22.3 5.9 16.2-14.8-9.9-2-16.2 7.5-12.3 27.6-17.1 38.3-6.1m97.7 1.7c-14.8-3-37 8.6-29.7 25.7 4.3 17-14.8-13.3-2.2-18.4 6.4-8.7 25-16.4 31.9-7.3m-153.3-64.8c-6.7 2-13 4.5-14.8 12-.3 6.7.9 22.3-5.6 4.2-5.9-20.6 36.8-23.2 29.3-13.8zm76.8 25.4c9.5-5.6 29 8 8.7 2.7-17.5-1.9-12.5 24-16.8 28.6-8.3-9.6-.3-24.5 8.1-31.3m-16.5-74.2c-11.4 1.8-29.4-6.7-34.2 9.8-10.3 18.4-3.8-16 9-14.6 8.5-2.5 17.7 1 25.2 4.8m13-33.5c11-.9 24.4 17.8 6.1 6.9-12.3-15.4-27.7 27.8-23 4.3 3.2-7.4 9.5-10.2 16.9-11.1m-55.7 10.8c-13.6-6.2-25.5 6-26.7 18.8-14.2-7 16.8-37 26.7-18.8m-53 49.3c-13.2-1-31-1.5-39.8 12.6 1.7-17.8 27.5-22.5 39.7-12.6m231.9 116.4c-10-15.8 23.4-39.7 26.8-27.8-16-.6-19.2 17.3-26.8 27.8m-54.3-119.7c-14.6-11.2 19.7-19.1 27.1-8.1 8.6 13.2-29-15-27.1 8m-107.2 39.3c-12-2-19.8 29.6-18.4 7.7-1.6-16.4 44.3-8.9 18.4-7.7m132.5 127c-1.7 12.5-35.3 16.8-32.5 7.4 11.6 3 22.2-3.2 32.5-7.4m-159-170.7c-10.9-3.2-21.8 3.6-28.5 12.4-5.7-10.3 23-24.4 28.5-12.4m179 45.5c6.3-11 32-11.4 32.3 2-10-11-21-3.5-32.3-2m-220.7-69.3c-10.8 16.3-5.8-13.6 8.2-5.3 15 5-1.3 3.9-8.2 5.3m131.5-.5c-9.7 15-10.6-6.3 3.3-3 13.7 8.2 4.5 9.2-3.3 3m35.3 62.6c-7.6-11 25-12 5.7-5zm-494.8-600.5c-4.8 8.2-.2 18.1-.6 27.1l6 74.8c-19.9 2.4-40.5 1.6-60.5 4.1-21 0-42 1.7-62.9 3.7-17.1 6.1-22.3-7.6-22.1-22-3.5-27-7-54-12-80.8 5.1-6 17.1-2.9 25.6-4.2 37-2.1 74.2 0 111.2-3.6 5-.2 10.3-.6 15.3.9m-4.1 83.3c-2-16.2-1-33-5.3-48.7-8.8-5.7-39.3-6.6-25.1 16.2 1.6 14.2-2 41.2 20 34.7a33 33 0 0 0 10.4-2.2m-94.2 2.8c13.5 3.4 36.2 4.3 25.8-17.2-2.2-10.7-.8-22.3-4.4-32.5-12.1-2.2-33.5-2.3-26 14.7zm31.9-51.6c.6 15.3-2.3 40 7.3 51 6.2-1.3 20.9 3.5 19.6-6l-4.3-43-1.3-2zm-45.3 4.7c-12.8-5.1-24.8.5-18.5 14.2 2.1 11 1.7 22.7 6.3 33 14.2 5.4 21.1-2 16.2-14.8zm-18.8 67.6c21.9-.6 44-2.9 66-3.1 19.5-1.7 39.2-1.8 58.7-4.2 16.7-5-13.2-8.2-19.6-5.1-24.2 3.3-48.9-.9-73 3.2-10.5.8-21.3-1.2-31.6 1.6l-.2 3.6zm.7-11.7c22.8.9 45.5-2.7 68.3-1.6 17.4 1 34.4-2.8 51.9-2 18.3-3.2-15.2-4.4-22-3.2-27.6 1.5-55.5 1.5-83.3 1.5-12.2 5.5-15.7-2.4-15.5-13.1l-10-68.2c-5 5.5.4 14.8.1 21.9 3 21.6 6.2 43.3 10.5 64.7m51.7-68.1c8-20.4-23.9-21.9-29.5-12.7-3.2 22.6 16 13 29.5 12.7m66.2-18.1c-11.6-2-32.8-4.5-24.8 12.6 2 7.4 39.8 4.3 24.8-12.6m-123.8 4c-6.8 17.5 18.6 25.2 22 10.6 1.6-15.2-11-16.5-22-10.5m88.7-2.5c-11.5-1.8-29.3-3.1-21.7 12.7 2.9 8.4 30.6 4.3 22.8-9.6l-1-3.1m12.3 18.7c7.7-.4 15.7.9 23.2-.7-1-7.3-17.8 2.4-23.2.7m-68.2 3.5c4.8 2 13.4.3 19.6.9 17.2-6-17-1.3-19.6-1m56.6-3.3c-7.3-2.8-30.5 3-10.4 2q5.3-.2 10.4-2m-4.5-113.5c-8.7-3.1-16-9.8-25.7-7.8-16.2 1.2-25.8 19-29.3 33.2-6 17.6 4.6 38.9 22.9 43.3 9.1 5.8 41.6-12.3 21.8 3.2-17 7-37.1-1.5-45.7-17.4-11.5-22.6-.8-54.7 22.7-64.3 11.7-.7 26.2-1.7 33.3 9.8m-2.2 63.8c12-12.6 18.3-30.2 11.8-47.2-4.9-7.8-8.1-18.2.7-5.6 10.3 16.4 5.7 44.5-12.5 52.8M764 1105.7c-18 11.2-34 2.7-52.5 1.4-6.2 3.7-27.6 2.7-11.8-1.4 16.2-9.5 31.2 6.5 46.3 1 14.9-7 29.6-3.7 45.4-1.7 17.6 5.5-26.2 4.9-27.4.7m-100.1 103c11.4-5 24-15 33.8-2 9 9.7 21.5-3 31-6.2 12.2-15 21.3 22.8 8.4 2.9-4.6-3.8-12.5 4.8-18.6 6.3-8.5 5.8-19.7 6.2-26.7-2-10.7-14.2-25 17-35 0zm90.9-60c4 4.2 15.7 5.1 13.2 12.2-12.4-10.2-23.8-2-37.7 2-13-11.5-30-19.4-44.6-4.1 5.6-17.4 33.4-17.6 42.6-.8 9.2 2 18-6.2 26.5-9.3m911.5-232q1.9-31.1 4.4-62c.8-13.3-.5-30.7 7-41.1 19-1 38.1-.6 57-2.4 23.7-.1 47.3.1 70.7-3.1 11.6.3-6.1 15.6-1.8 25.9-3 25.3-7.4 50.4-10 75.8-20.1 1.5-40.5 1.6-60.8 3.5-21 .3-41.7 2.6-62.8 2.8zm43.6-23c15-3 42.2 7.3 39-17 0-13.6 6.9-33.4-14.4-27.4-14.2-3-28.2 1.8-23.1 18.8.9 8.7-1.8 17.1-1.5 25.6m-34-41.1c.4 14-4.7 28.1-1 42h22.7a83 83 0 0 0 3.3-45.2c-8.3 1-17.6-2.3-25 3.2m106.5-4.7c-20-7.3-28.5 9.5-25 27.1-6.5 17.2 3.9 18.8 18.5 15.7 6.2-3 3-14 5.2-20.5.4-7.4 3-15 1.3-22.3m-68.6-27.8c-4.7 16 4 24.6 20 21 21.5 9.3 28.8-32.7 4.4-25.5-8 1-18.8-2.7-24.4 4.5m72.6 80.8c-17.5 3-35.2 1.6-52.7 4.3-19.5 1.9-45.6-1.6-61 5.9 16.7 5.2 40.8-1.2 60.5-.4 18.2-3.3 39.4.7 55.9-6 3.8-29 8.8-57.8 12-86.9-4.6-2.4-3.6 18.8-6 27-3.7 18.6-3.2 38-8.7 56.1m-114.7 4c20 2 39.7-2.8 59.7-2 14.3-7.5 47.6 6.7 53.6-11.3 2-14 4.7-28.1 5.5-42.2-9.8 7.4.1 35.6-12.4 43.6-32.8 4-65.9 3.4-99.1 4.7-4.8-1.3-5.1 4.6-7.3 7.2m115-90.3c-17-3.9-29.1 2.4-27.2 20 1.6 12.2 30 8.3 26.5-6.6.7-4.5 1.7-9 .7-13.4m-82 3.6c-15.6-4.4-34 0-26.4 19.8 10.2 9.3 34.7 2.2 26.6-16.8zm8 27.2c9.3 2.7 36 2.8 35-1.5-11.6-.7-23.5-1.3-35 1.5m80.6-32.5c-5.7 8.5-5.6 46.3-.2 20.2.1-6.6 3.6-14.1.2-20.2m-90.1 32.9c-10.6-7-36.2 3.5-13.2 1.3 4.4-.3 9 .8 13.2-1.3m.4 49.7c6.4-6.3 3.4-35 2.4-30.2-.8 10-1.2 20.2-2.4 30.2m79.4-52c-9.9-1.2-31.7 1.7-10.6 1.5q5.5-.1 10.6-1.4m-38-107.9c10.7-21 40-8.8 42.1 11.7 7.3 21.6-3.3 49.7-27.2 54.4-19.3 6.9-38.8-13.7-34.8-32.8-2.2-9.7 13.5-33 14.9-26-26.8 13.3-5.7 66.6 11.2 53.1-5.3-5.8 17.2-2.8 12.9-15 4.5-16-23-11.5-15.2 3.4 1.3 12.5-2.1 6.4-2.4-2.4-6.5-14.6 12.1-14.5 21.8-11.2 3 8.3-5.3 30 8.3 15.9 7-10.6 2-5-4.5-2.5-.5-13.2 4-15.8 11.7-19.8-4.4-9.5-20 3.1-28.9-1.5-8.4-5.7-2.5-29.3 10.8-27.4 9.2 3.1 2.4 14.2 11.2 10.7 10.8 18.3 5.2-10.3-5.2-13.4-8.4-10-18.2-2.5-26.7 2.8m10.5 21.6c12.7 8 13.1-7.7 11-16-8.8-10-12.7 9.1-11 16m131 236.5c5.6-5.4 34.1-2.7 31 1-10-.2-21.5 1.7-31-1m-27.1 28.2c-9.1 10.5-35.9-6.5-10.9-1.2zm-215.5 12c-6.6 5.3-38.2 5.4-15.8-.5 5.2-.8 10.6 0 15.8.5m-278.1 1.1c7.7-12.5 33.7 0 1.3 1.7zm52.1-10.7c4.8-8.7 29.1-3.4 10-2.2-3.3 1-6.3 3.5-10 2.2m76.1-11.6c-5.3 6.9-24 2.3-6.5.2l2.8-.1zm51.6-1 14.4 4.6c-5.2.6-12.8 2.6-14.4-4.6m218.3 10.4c-8.5 8.8-21.2.3-3.8-.8zm772.4 246.4-8.4 19.5c-9.6.7-18.4-5.8-27.7-8.4-23.1-9-46.7-17.1-69.6-26.9-6.2-6.7 3-15 4.5-22.3 9.1-4 18 4.3 26.9 6.7 23.8 10 47.9 19.2 71.6 29.2zm-90-32.7c-9.1 18.5 26.5 18.3 37.4 27.1 14.2 2 37.2 23.1 45.9 9.6-9.8-11.3-30.9-14-45.2-21.8q-19-7.7-38.1-15m78.7 47.8c-6.6-5.6-16.6-7.2-24.5-11.2l-58-23.6c-11.9 2.5-2.9 4.8 3.6 7 25.5 9.7 50.7 20 76.3 29-.3.8 3.6-1.3 2.6-1.2m-91.4-37c10.2 1.3 7.3-22.9 2.5-6.8 2.3.1-5 6.9-2.5 6.9m294 334.9c11.6-3 5.7 16.8 8.2 20.4-3.1-10.8-7-13.4-14.7-16-1-10.3 8.6-26.5 5.7-7zm-990.3-522v21c-7.2-3-4.9-16.8 0-21m-128.3 11.3c.5 8.3 2 26-3.8 8.5.1-3-.8-7.9 3.8-8.5m49.4-2.4c3.3 8.9-1 25.9-3.2 8.1-.3-3 .1-6.5 3.2-8.1m129.4 3c-11.8 1.4 3.1-25.6-.6-6.9l.2 3.3zm54.6-5.3c-7.8-8 9.9-21.6 1.6-5zM247.7 2170.7c10.3 2.9 20.8 10 31.4 3.7 8.8-6.4 21.2-13.3 22.7 3.5 18.8 8.2-8.1 7.2-8.3-6.6-11.8 6.8-26 13.6-39.4 5.8-3.6-.4-5.2-3.6-6.4-6.4m470-1129.5c-6.5 5.2-52.3 6.8-15.8-.1zm336.2 30c8.1-.2 16 1.9 24.1 2.8-3 7.9-19-.3-24-2.8m-197-13.9c8.3-5 29.3-1.1 9.7 1.6q-5 .3-9.7-1.6m-200.2-11c-9 4.3-31.3-4-9.1-2.6q4.6 1 9.1 2.6m90-4.9c8.1-8.7 25-1 5.6.1h-2.6zM622.1 899.1c3.9-16.3 11.2-35.4 29.8-39 24-5 46.8 9.5 60.9 28.2 15.9 1.2-6.2 8.2-12 5-20.5 1.3-41 4-61.6 4.7a51 51 0 0 1-17.1 1.1m15.3-21.6c-10.5-.6-13.5 22.8.4 17.2 8 1 14.7-2.6 22.8-2.1 15.1-1.3 30.5-.6 45.4-4.3-5.5-4.9-9.2-17.5-18.7-16-5.1-11.6-42.2-17.4-28.3 4.8-1 24.4-1.6-28-15.8-9.5-4.3 1.3-3 7-5.8 10m1626 390.2a564 564 0 0 1 28.9-80.4c13.4 1.7 25.5 9.1 38.3 13.3 25.3 9.8 50.8 19.3 76 29.7-7.8 24-19.8 46.6-29.3 70-6.6 25.6-34.4-3.1-51-5.6q-31.5-13.4-62.9-27m20.4-8.5c24.8 11 49.3 23.1 74.3 33.3 12.4-13.3 15.6-36 24.2-53-3-7.6-15-7.8-22.2-11.8-18-6.4-35.4-14.7-53.6-19.8-6 3.9-6.5 13.2-10.1 19.4-4 10.7-9.7 21-12.6 32m86.3 48.4c9.9-23.3 21-46.1 30-69.6-9.5-9.5-16.8 6.6-19 15.2-5.7 15.1-13 29.6-17.4 45zm-65.8-105.1c23.7 10.2 48.1 18.8 72.1 28.4 11.1 6.5 27.3-1.8 8.9-5.4l-85.5-33.5c-5.5.8 3.6 8.3 4.5 10.5m54.9 94.1q-35.8-15.5-71.1-31.9c-10.3-6.7-24 4.6-7.5 7 27.4 11.3 54.6 23.8 82 34.3 2.1-2-2.8-6.7-3.4-9.4m-66.9-101.4a956 956 0 0 0-23.1 64.4c16.6 3 18.5-27.6 26.9-40.7 4.4-8.4 7-18.7-3.8-23.7m-10.4-13.8c.3 14.6-8.6 28.3-12.4 42.4l-14.1 38.2c-18.8-4.3-36.8-15.2-55-22.7-13.3-9.2-39-12-44.8-25.4l24.5-69.3c16.4-4.7 37.6 12.7 55.9 17.3 15.1 6.7 31.4 11.5 45.9 19.5m-41 57.5c6.7-15.7 19.5-36.1 16.7-51.2-20.4-9.3-41.4-18-63-24-5.9 14.6-23.9 37-16.2 49 20.7 8.9 41.4 18.2 62.4 26.2m8 17.2c-5.4-16-22.7-18.9-36-25.2l-43-18c-19.5 5.7 16.5 13.8 22 19 18.8 8.4 37.3 17.7 57 24.2m4.6.1c8.6-23 18.5-45.8 24.1-69.9-22.8 4-21.4 35.9-31.1 53.1-2.6 5.7 5 11.6 7 16.8m-58.2-98c22.5 9.8 45.2 20 68.8 26.8 17.4-.7 8-6.3-1.7-9l-73.2-29.4c-4.4 1.3 5.2 8.7 6 11.6m-25 49.8 20.4-48c-5.7-18.7-12.6-1.3-15 8.3-4.5 14-10.7 28-14.1 42 .7 3.7 6.4-2 8.8-2.3m-702-140.5c-14.5.8 3.7-38.9-1-13.4q-.5 6.8 1 13.4m-69.9 5c-12.9 0 3-25.5-.9-7.6zm1166.2 297.8c7.8 1 25 15.1 7.7 7.3-3.4-1.7-7.4-2.8-7.7-7.3m-105.3-9.6c-13.5 2.4-19.2-11.1-5-2.2zm-57.6-25.9c8-2.2 20.2 13.3 6 4.7l-3.2-2zm84.5 42.6c6.3 2.3 21.2 5.6 6.4 7-3.1-1.2-4.4-4.6-6.4-7m-93.9-31.8c14.9-3.6 17.8 12.2 0 0m-1294-244c5.5 7.2 7.2 29.7-.4 9.9q-1-5 .4-10m-98 9.3c3.7 8.5.7 24-3 6.3l.5-3.4zm1656.2 258c13.5-14.4 13.4 15.3 1.3 4.6-1.4 1.1-.2-6-1.3-4.6m-283.7-8c-11.2 3.6-30.2-15.2-11.8-5.7zm14.5 5c7.5 3.6 34 13.5 10.8 8.8-5-.8-9.8-3.5-10.8-8.9m76.4 41.9c4.3 4.6 20.5 19.3 3.6 9a6.7 6.7 0 0 1-3.6-9m-44-12.2c7-7.4 26.4 6.5 8.6 1.7zm-1134.9-305.3c1.6 6.7-2 26.7-3.6 8.3 0-3.1 1.9-5.9 3.6-8.3m806.3 96.3c.7 6.9-2.5 15.3 4.4 19.8 5.7 9.3-14.5-5.2-9.6-13.3 6.8-11 4.1-26.6 10.9-37.4 3.4-5.4 0-13 4.1-18.7 2.2-9 9.9-27.3 17.8-21.8-20.7 13.5-14.8 43.5-23.3 64.3l-1.9 3.6zm-210-38.6c10.7-7.2 30.3 12.4 10.5 2.8zm49-30-11.9 1.6c2.7-3.8 8.8-7 11.9-1.7m-980-31c1-11.3 17.7-6.4 3.5-1.2zm1622.9 321.3c-11 2.1-16-10.2-2.3-3l2.3 1.7zm-47.3 6.4c-6.9 6.4-21.6 16.7-7.1 1.4l3.2-1.4zm-1405.3-600c-13.5-11.4-7.9-29.7 11.3-25.7 20.5-.4 5 33.8-11.3 25.7m6-3.4c11.6-1 17.6-20.6 3-19.8-15.4-.7-14.2 14-3 19.8m-4.7-56.1c-11.6 3.4-10 23.7-.6 25.5 7.4-1.2 19.6-.7 16.4-11.6 13.6 17.4-32.4 24.6-27.4 3.3-2.6-8.5.6-18.3 11.6-17.2m-17.2 37c3.7 9.3 4.2 35.6-7 12.6-7.9-8 1.1-13.2 7-12.6m-3.3-25.5c10.1 7.3 1.7 33.3-5.7 16.1a20 20 0 0 1 5.7-16.1m48 1.9c4.7 5 4.8 15.9-4 11-3-6.5-7.2-21.5 4-11m-2.6 35.3c-7.8-10.3 8.7-25.2 4.6-7.4q-1.2 4.3-4.6 7.4m593.3-12.6c-16.4-7.1 3.5-35.8 1.5-10.8q0 5.5-1.5 10.8m-3.7-28.7c-.5-3.6 15.5-15.6 2.3-8.8 4.4-20.2 23 10.2-2.3 8.8M2310.8 2550l-55.6-117c-1.6-14-39-.2-12.8-9 11.9-2.3 0-13.5-1.5-20.1q-24.7-51.3-49.6-102.5c-4.3-4.9-33.6 5.7-13.4-3.2 18.9 1.7 2.9-30.8-6.2-11.6-5.4 6-24.4 20.8-6.2 15.6 8.8.8-34 10.4-11.7 15 17.6-.5 12.5 14.7-4.4 9-11 3.2-.9 21.9-17.5 22.7-11.4 7.4-35 13.5-39.9 19 5.9 2 24.3 0 17.8 9.2-12.4.8-17.4-1.2-13.3 13-16.9 26-59 8.3-82.2 2.8-22.7-11.6 8.3 23.2 15.8 27.2 28.9 15.6-51.3 24.9-34.6 20.6-25-5-49.4-5.1-74.4-8.2-14.4-4.3-26.8-13-39.7-4.6-11.3 3.2-28-20.4-25.3-.7-13.4 22.6-52.3-4.6-62.5-18.6 12.7 5.5 38.4 32.9 57.5 20.3 4.2-5.6-3.2-13.6-1-19.2 10.7-1.1 23.8 24 36.9 11.3 14-5.8 31 11.9 47.4 10.6 14.9-1.3 26.7-2.3 41.4 3.7 19.1 6 39.5.6 57-7.9-15.8-13.5-35.8-31.6-40-50.8 15.1 9.8 32.6 19.2 51.6 20.5 12.6 2.6 34.2 8 32.4-10 4.8 20.5 24.4-1 10.6-10.9-9.6-2.9-18.9-10.5-3.2-12.2 19.8-4 37.6-14 55.2-23.6-3.9-11.6 2.6-21 14.7-18.9-25.5 1.1-5-33.3 11-34.6 10.9-11.4-11-2.5-17.2-1.2-17.7 2.1-2.3-16.5 3.7-22.7 4-6.6 13-11.8 12.3-19.7-3.9-11.2-8.6-22.4-21.5-24.2 9.1-15.7-6.5-32.3-12.2-47.8-.9-14-20.4-23.9-26.5-10.4 2.6 15.2-28.5 9.7-20.4 33.7 6 19.6-15.4 26-30.7 19.8-12.3-10.2-12.4 9.1-22 4.7-10-7.4-39.2-23-25.6 2 3 5.3 23.4 24.6 7 15.4-20-11-19.3-49.7 8-27.7 7.7 7.3 15.5 8.9 18.6-2.6 16.2 8.2 47.9 11 40.4-15.5 0-11.8 5.4-28.9 20.6-22.7-6-13.4 2.9-17.5 15.4-17.4 8.5-5.8-6.7-20.8 5.4-29.2 13-13.1-15-30.5 9.4-35.3 8-4.2 34.7-18 24.7-24-17.9-4-38.2-7.4-51-21.3-5-8.5-11.1-17.4-5-27.4 20.2-19.8-23.1-17-20.9-36.3.4-7-10.9-7.3-15.6-11.2-7.6-3.1-15.1-8.7-22.7-10.2-6.6 2.9.5 15.7-13 10.2-8.8 0-29.8-13-19.9 4.8-4.4 11.3-33.7-5.2-9 .2 10.6 3.8-8.1-27.3 8.7-15 7.3 6.1 31.4 8.6 12 0 6.3-3.9 17.7-.4 23.4-9.7 10.8-8.2-30.5 1.3-18.7-9.3 18.2-4.6 37.3-7.5 54-16-10.7-6.4-26.4-5.3-33.4-16.8-5-12.5 21.9-28 13-32.7-10.7.8-30.3 23.8-34.4 9.3 4.1-10 22.1-22.3 19.3-29-6 5.5-33.7 10.8-16.6-.5 6.3-4.2 31.8-14 10.4-12.6-19.9-1.7-41-2.5-58.9-12-10.2-7-8.5-16.9 0-5.9 5.5 7.4 15.5 7 23.5 10.1-18.1-9.7 18.6-18.8-2.8-22-11.7-.3-19-14-4.7-13.2-13.8-12.8-33-22.1-47.3-35.8 2 24-18.6-18.8-25-20.7-9-22-19-43.6-22.4-67.3-7.6-22.9-.2 27.5-10.2 4 1.5-11.5 4.7-24.2-3.5-34a29 29 0 0 0-13.2 16.4c-7.3 20.5-16.9 40.4-24.9 60.8-14.3 5.6-17.1 25.4-29.4 34-16.6 15.2-36.2 27.2-50.2 45 5.8 3 22.5-5 15.7 10.6-6.2 11.7 9.4 13.5 11.4 15.4-14.7 10.3-17.6-13.3-15.6-22.2-7.2-.9-18 10.4-22.2 4.3 7.7-8.8 11.2-20.2-9-6.6-12.8 1-40.5-2.6-28.5 19.2 16.6 8.3 3.2 19.9-1.2 28 4.3 14.1-10 22.7-17.1 32.6-15.5 18.4 15.6 11 25 10.4 4.8 9.3-16.5 34.3 4.6 22.5 16.2 1.7-33.5 29.8-7.6 27.6 5.7 10.6-12.6 43.8 11.4 33.9 13-3.6 23.1-35.5 34.2-23.4 2.6 10.7-8.5 41.5 11.9 26.9 11.1-11.7 29-10.8 27.3 8.3.1 16.7 28.4 20.6 29.9 28a47.5 47.5 0 0 1-38.7-40.8c-10.8 3.8-39.4 23.6-35.5-1.4 3.7-11 .9-27.7-9.8-10.8-9 13.7-39.9 32.8-36.1 2.6 3.6-10 5.6-27.7-8.6-15.2-17-2.7 20.9-25.1 13.6-27.9-23.4 2.5 16.5-35.2-11-24.2-21.4 6.6-24.8-14.8-9.2-23.8 12.7-9.1 17.7-26-.2-28 11.4-2.6 20.6-9 12.8-21-11.3-9-12.6-19-6.5-30.1-8.4-9.7-24-1-35.6-.6a5592 5592 0 0 1-158.5 22.3c-14.1 3-28.6 4-42.7 7 3.2 23.2 10 45.8 14.5 68.8-9 .5-7.5-16-10.4-23.1l-9.4-43.6c-18.7-.9-37.6 4.3-56.4 6.5-44.8 6.3-89.6 13-134.4 19-11 2.6-34-1.7-26.1 15.2 3.7 21.8 6.6 43.8 9.8 65.6-3.6 12.9-5.5-7.5-6.6-12.7-4-20.3-5-41.2-10.3-61.2-9-3.4-19.3.9-28.8 1.3-21.7 3.2-43.6 5.7-65.3 8.4-7.7 7.9 29.2 6.6 20.6 20 12.1 2.1 19.5 13.8 6.3 21.4 9 11.2 31.7 30.8 4.3 33.8-19.6-.5-16.7 29.5 2.7 20.8 68.4-9.5 136.9-17.9 205.2-27.6 47-5.3 93.7-13.1 140.7-18.5 18.7-4.1 37.8-2.9 56.6-5.3 25 0 50-1.4 74.8 1.5 4.5-21 34.3-10.5 50.5-13.3-1.7 7.6-37-.6-44.1 9.4 6.7 8.2-3.7 18.7-7.2 29-5.7 4-6 10.3-12.8 11.6 4.7 12-15.3 6.2-22.4 8.5l-21.2 1.8c11.4 18.5 8.2 42.9-16.6 42-7.8 12 32.8 11.8 19.8 16.4-9.8-3.2-29.3-9-13.2 5.2 11 4.4 23.4 6.5 35 2.8 15.3 1.5-15.8 17.8-21.2 22-7.6 4.5-17.8 6.6-9.6 15.5 3 12.4-23 32.7-3.6 34.3 13 4 31.2-3.8 41 4.6-6.8 12.6-35 19-37.5 31 23.8 6.8 47.7 18.8 73.1 16.2 12.8.7 42-17.7 40.8 3.6.6 9.7 2 16.3-6.2 23.2-2.8 7-14.2 30.3 5.5 16 11-8.4 39.1-17.8 29.4 5.4-3.4 20 13.7 21.7 28.4 23.2 8.4 9.1 30.7 21.6 34.8 3.5 10.5-9 33.2 25 14.4 8.3-10.6-14.7-13.2 9.3-25.6 4.4-16.6-4.6-29-16.7-47-16.1-18.9-7 3.6-49.1-23.2-30.2-10.9 9-36 13.8-23.8-7.3 5-9.8 18.4-42.6-3.3-35-24.8 7.2-51.6 6-75.5-4.7-10.9-3.2-42.6-8.4-20.3-20 6.8-6.1 43.8-23 17.3-20.8-12.7-1.3-47 1.9-31-18.9 11.2-9 2.8-23.4 3.5-30.4 9.6-7 29.6-13.7 31.8-22.5-14 3-30.6-7.2-39-9-13.8 13-40 10.3-49 29.4 10 8.5 16 23.2 8.4 35.3-5.8 10-21.4 17.1-6 26.2 10.8 18.8-17.2 27-26.6 39-5 6.2 18.3 10.6 6 18.5-10.5 3.3-28.6 14.6-8.6 18.8 15 5.6 10.7 22.8 8.6 34.8-4 24.2-8.9 48.2-12 72.5.2 21.5 20.8 5.4 29.3 6.4-5.1 14.4 1.8 26.8 18.3 25.4 21.7 3.2 10 30.6 10.3 45.3-3.5 22.7 24.6 14.6 36.4 18.3 15.9-1 23.8-16 37.4-21.3 16.6 9.5-2.4 51.8 28.8 37.5 9.9-7.7 18.4-4 27.1 2 18.2-27 30.7 19.5 52.6 17.2 8.3-14.4 3-36.5 18.9-47.1 8.2-5.3 12.1 5.6 13.5 12.2 1.6 8.2 9.4 25.7-2.2 11.7-.7-9.4-7-33.4-15.5-12.4-8.1 12.8-.8 49-26 36.4-11.8-5.4-19.5-15.4-28.6-24-6.6 9-17.9 14.1-25.6 2.8-12.4 7-41.8 15.5-39.2-8.7 1.2-11-1-32.1-14.4-16.3-16.4 15.7-41.3 17.5-61.3 8.7-20-10.4 10.3-50.4-11.6-58.2-8.8-2.3-25.3-1.7-24.3-14 5.4-21.7-18.7 4.9-25.4-12.6-6.2-12.7.8-26.7 1.9-39.9 3-20.2 8.2-40.3 9.3-60.8 2.5-14.6-22.6-12-21.2-23.9 12.8-10.3 31.9-17 8.2-26 11.6-13 49.3-29.4 26.2-46.8-7.4-8.1 7.3-15.8 12-22.2 16.1-19.4-25-34.7 1.5-47.6 8.5-12.5 44.9-7 36.2-26.3-5.7-11 0-11.5 7.6-12.9 7.7-7.9 29-2.6 22.8-20.6-.7-19.7-17.1-22.6-33-18.4-17.5 2.7-35.3 1.6-52.6 4-36.8 4.3-73.1 11.4-109.8 15.8-48.8 7.3-97.7 13.7-146.5 21.3-22.8 3.2-45.7 6-68.4 10-8 6.3 28.8-1 11 10-6 4.3-16.7 9-3 9.7 9.2 4.5 6 15.6 20.6 13 14.2.4 10.2 11.6 3.1 17.4 4.3 17 46.3-3.5 25.6 20.9-8.8 7.7-14.1 21-17.6 24.8-13-.8 11-20.9 15.1-27.7 11.7-20.9-32.8 11.4-31.7-15.4-7.5-5.2-12.9-14.6-22.3-16.1-2.3-12.3-15.3-31.1-30.3-34.2 6-3.9 2.2-10.4-2-15.9-3.5-5.7-7.6-9.8-.2-10.7-12.8-12.3-16.3 4.4-17.8 14.2-6.8 19.2-28.7 23.3-45.6 15.4-7 8.8-9.5 43.4-24.8 26-9.7-15-21-6.6-20.8 5.6-9 28.7-43.3-8.2-60.6 13-7.3 2-14.2-5.2-21.3-7.4-11.7-5.7 15.6-.6 18.1 4 17-19.1 42.3 6.1 58-6.3 1.4-11.2 6.6-26 20-18.7 6 1.8 13.5 15.7 17.5 6 3.1-15.5 10.8-32.6 29.6-22.9 23.6 5.3 25.5-25.1 33.2-37.1 12.2 6 24-3.9 16-16.2-12.5-20.1 12.7-24 26-29.8-4.3-16.8-21.7-13-31.2-22-10.5-18.5-30-29.5-40.3-48.2-15.6-23.4-33.7-45-48.8-68.7 6.4 16.3-13.9 13.5-23.5 8.2-14-1.4-28.2 11.3-39.5 19.6-7.2 4.5-18 6-21.3-4.2-7.8-6.6-7.1-27.7.2-9 6.6 27.3 32.8-.9 47-8 13.5-11 51 17.6 24.1-21.4-18.6-20.1-24-47.1-35.8-71-10.1 11.5-2.5-20.4-8.9-26.4-12.7-31.7-29-62.1-38.7-95-8-17-3.5-36.4-7.7-54-15.2-9.6-15.4 25.4-21.6 34.8-12.4 24.4-18.6 51.9-35.4 74-5.2 16.4-9.3 33.5-19.5 47.8a177 177 0 0 1-37 48c-5 6.5 18.7-7.7 9 5.2-5.3 8.8-11.5 17-15.4 26.5 9.4-6.6 31.3-42 15-10.4-9.7 9.3-6.3 12.8-1.2 13.9-24 13.2-35.5 40.2-60 53-12.9 7.5-24.7 18-39 25-16.5 4-30.6 17-48 16.2-16.4-11.4-24.3 12.2-14 22.5-11.3 8.5 3.7 25.9 8.2 35.6 14.7 12.6-20.9 7.3-6.2 23.4 0 11.7 24.3 6.3 16.4 17.3-13 13.2-.9 22.7 10.7 24.8 5.8 2.4 11.4 7 16.8 11-16.4-6.4-14.6 30.6 1.6 18.5 6-.8 12.9-8.3 18.3-3 2.4 8-1 22.4 13.8 17.6 5.8-4.1 11-10.7 17.1-13.2 1.6 15.2-37.5 27.3-34 3-3.3-12.8-38.7 14.6-31.6-14 5-16.6-7.7-15-13-3.4-11.4 14.3-27.5 23.7-41.5 35.2 2.2 7.5-2.3 13-6.7 18.4-11 12.6 13.4 4.7 20.6 8.5 6.9 9.4-32-1.5-21.4 3.6-21.8-.9 13.1-28.3-7.2-18-15.2 11.5-38 14.5-51.5 21.7 15.9-3.1-.7 9.6-9.6 7.3 15 3.7 29.8 11.8 13.6 27-14 11.8-6.8 27.5 4.3 36.7-8.2 19 20.6 12.2 22.2 21.6-5.5 16 30-8.3 17.3 6.9-16-5.7-30.4 11.8-20 21.2 7.8-9.8 10-17.8 19.9-11.6.3 12.4-5.8 32.6 5.8 35.4-19.8 4.7-9.2-22.4-11.6-28.4-16.5 14.2-32.4 29.6-52 39.7-7.3 4.9-16.9 7.3-20.2 16.1-9.3 4.6-7.5 5.8 1.2 7.8a382 382 0 0 0-37.7 73c9.2-2.7 39.3-24.3 34 .2-6 14.6-12 42 18.5 20.7 24.2-5.2 2.2 28.1-.9 39.8-10.2 26.3 42.5-3.2 32.3 26-1.5 10.8-14.8 26.7 4.8 20.5 12.1-.8 33.4-5.4 34.7 10.5 12.8 19.8 36.2 10.3 48.1-4.3 10.1 5.1 12 17.7 17.9 26.5 3.5 12.7 9.7 8.2 17.8 3.8 15 5 27.7 16.2 44.2 17.1 4.4-7.5 7.4-20.3 19.3-14.8 20.4 13.2 41.9 26.5 66.2 31 9.7-5.8-1.2-40.3 21-30.4 16 9.8 33.6 15.6 51 21.7 1-12-1.9-42.2 21.2-15.4 9.2 8.3 35.8 32.5 31.8 4.8 11.5 1 27.7 10.6 42.6 10.8 14.3 1.9 28.5 6.4 42.8 6 4.3-10.8-5-22.6-7.3-33.7-2.2-11.3 14.5-7.5 21.6-6 24.4 3.5 48.5 10.2 73.1 10.3 16.4 1.7 18.4-10 8.8-19.1-4.6-7.5-10.2-14.3-13.6-22.4 29 1.4 65.4 9.3 96-2.5 10-5.6-12.5-16.5-15.6-25.4-11.5-18.3-26.5-33.6-41-49 10.6-1.5 22.7 20.1 37.3 22.3 10 4.5 19.5 10.6 29.8 13.8-.5-16.5-26.3-26.2-38-38.3 17.2-1.6 32.6 28 55.2 18.8 12.7-.9 36-5 37.7-16a124 124 0 0 0-41.3-25c-2-12.2 19.5-22.9 3.4-29.7 7.1-10.5 32.5.5 35.1-11.2-15.4-6.5-35.2-10.3-41.2-28.4-2.3-17 25.8-25.4 7.9-43-4-7.9-11.2-7-14.7-2.7-1.1-7.2-11.6-7-3.6-1.1-30 2.1-43.8-39.3-71.7-32.6-11.4 1-20-5.8-3.5-3.7 15-1 25.3-7.9 36.3-17.5-6.4 1.4-24.1 12-10.1-1.4 8.5-7.5 21.2-12 24.6-23.7-4.7-6.6-29.8-11-16-17 1.8 9.9 32.7 12.7 15 28-12.3 6.8-8.4 22.5-23.8 28.1 3.4 14 34.2 25 29.4 3.6 7.6-9.8-1.2 21.4 14.4 15.6 9.2 6.1 18.8 13.4 29 19.4 14 4.8 12.3 9 2 10 17.4 17.9-22.3 25.5-7.6 43.1 7 16.7 37 11.3 39.5 27.8-4.5 9.5-42.5 2-27.7 8.9 4.3 5.2-12.8 14.3-11 22.2 7.2 11.7 45 17.3 38.6 36.7a76 76 0 0 1-58.5 12.3c-3.2 5.5 21.4 25.9-1.3 20.2-11 0-31.6-20.4-34.8-12.4 9.7 15.8 22.7 29.2 35 42.8-8.4 18-39.6 10.2-57.5 14.8-13.7 1.2-27.3-2.4-40.7-5.2 6.4 11 13.8 21.4 20 32.4-14.8 19.9-45.7 6.5-66.9 5q-21.8-3.8-43.5-7c-4 14 23 44.3-4.5 42.1-23-4.1-46.3-6.6-68.6-13.5-13-11.2-1.8 25.5-20.8 9.4-13.4-4.4-27.2-28.4-38.4-23.4 4.5 15.2-.2 28.8-16.8 17-16.5-1.8-36.9-23.6-49-15.5-1.3 15.1-1 38.7-22.4 25.5-20-6.8-39.2-16-56.2-28.5-13.3-1.6-12.9 24.4-29.6 13-15.5-3.5-30.5-22.8-43.8-7.6-9-4.9-10.8-16.7-16.2-25-3.9-13.6-13.2-13.6-21.3-.5-21.7 15.2-37.6-12-52.3-20.1-15.2 2.3-47.2 7.9-28.7-15.1 12.3-21-9.9-18.8-23.6-18.4-21.6-7.2 7.3-34.6 5.3-49-6.9-8.5-35.5 15.1-35.6-6.3 9.3-15.4 11-42.6-13.3-20.3-11.6 12.2-19.5-1.3-10-11.8 7.6-20.4 19.8-38.6 29.8-58-16.2-2.2-8.8-8.2 2.8-13.7 7.4-14.5-7.5-32 7-43.5-1.5-10.3 0-28.3 13.8-16.9 2.9-10.8-14.8-41 11.7-31.8 9.2-1.1 2.2-11.7-3.3-15.2-11.8-9.7 1.2-25.7 8-34.5 8.2-13.3-10.4-7.4-17.4-6.4-13.4 1.8-26.9 5.4-40.5 4.5-4.7-10-12.1-19-6.1-30 21-70.3 43-140.4 64.6-210.6q35.7-117.1 71.9-234.2c18.9-63.7 40.2-126.7 57.9-190.7-7.1-16.4-34.9-8-24.6 8.4-3.3 6.6 1.3 14.6-4.3 20.7a109 109 0 0 0-12.5 40.6c-5.8 16.8-8.8 33.3-19.3 48 1.8 16.5-11.7 29.4-10.7 45.7-9.3 20.2-20.7 40-29 61-8 12.2-3 28.6-12.4 40.8.9 6.7 5.3 14-.4 19.7-7.1 7 .6 16.7-7.7 23.5-6.6 14.7-.1 31.9-12.8 45.3-10.5 16.4-14.8 34.8-22 52.8-6.2 12.5-18.9 22.5-18.3 37.6-7.5 19.3-16.1 35.5-17.2 56.6a69 69 0 0 0-4.2 35.2c1.8 16.4-9.4 27.7-16.8 41-8.8 9.3-1.6 22.2-11.6 30.9a107 107 0 0 0-8.7 36.8c7.6 10.5-3.7 20.6-9.6 29-14.6 9.8 1.8 23.8-15.6 32.9 5.2 3.6 26.7 5.6 10 7.1-13.8-9-16.5 13.1-25 10.1 12.7-20.4-18.7 1-28.3.4-10.7-4.1-21-4.8-30.8 3.2-16.9 8.3-39.3 14-55.7 2-12.6-10.1-28.3-5.2-42.6-2-20 7.7-28.4-20.6-47.4-17.3-21.4 4.8-43.2 0-64.7.9 4.8 11 14.8 19.4 16.6 31.7 3.6 9.6.7 18 14.4 15.5 13 7 28.4-2 41.8 4 18.7 6.5 38.7 13.6 58.4 6.6 23-6.8 39.5 19.5 63.4 7.1 22.5.8 45-.6 66.6-8 12.8.8 22-2.7 32.7-8.3 16.7 1 5-15.2-2.7-21-5.9-5.8-4.6-15.4-12.2-20.6 14.1.1 9 15.3 18.2 20 6.6 3.9 4.8 14.4 13.3 16.4 4.3 9-22 8.2-26.7 15.7-7.3 4.6-15.5-3.5-22.4 2.7a180 180 0 0 1-54 7.2c-18.4-1.7-38.9 8.3-54.4-5.5-20.6-9.3-43.8 11.7-64.8-3.4-12.7-3.6-25-9.3-38.7-7-10.8-.5-31.4.7-36.5-6.9 8.8-19-23.5-30.9-25-50-16.5-11.8-37.5 1.3-55.7 1.5-43.6 7.6-87.4 13.6-131 21.2 1.6-8.3 19-3.7 27.4-7.3 49-7.3 97.8-16.5 147-23.4 12-13.8 22.8-28.3 22.4-47.9 3.8-20.4 13-39 25.5-55.4a427 427 0 0 0 28.2-51.4c3.7-27.5 23.5-48.8 32.5-74.4 2.7-25.3 22-44.1 31.1-66.9 16-39 44-72.7 57-113.2 4.9-17.4 22.2-28.8 24.7-46.2 5.4-14 17.1-26.4 16.2-42.5 1.8-18.8 21.8-30.7 17.4-49.9 12.2-14 24.7-27.8 34.7-43.6 10-16.4 8.1-36.8 17.5-53.4-.6-16.6 13.7-28.5 16-42.7 16-9.7 23-30.1 28.9-46.7-2.4-7.3-7.1-14.8-8-22.1l48.5-103.7 22.6-3.4c9.2-16.3 7-36.4 20.2-51-.9-22 22-35.2 30.3-54.2 14.8-21 21.9-46.8 32.2-69.4-.1-17-22.7-4.3-33.7-5.8a906 906 0 0 0-67 6.6c-5.4 10.3-12.6 19.2-18.2 30-89.8 157.6-180.3 315-270.5 472.5-37.4 64.9-74 130.2-111.3 195-44.2 78-89.5 155.4-133.3 233.6-11.5 19-21.3 39.1-33.7 57.4-12 2.9 2-11.6 4.2-17.4 33.5-58.6 67.7-116.9 100.4-176 49.7-87.7 100.5-175 149.9-262.9 30.4-52.2 59.7-105.1 89.9-157.5 43.6-77.8 88.7-154.6 132-232.5 26-45.4 52.4-90.6 78-136.3 2.3-19.8-23.7-36.6-3.5-51.1 13-19.6 36.6-36.4 20.1-59.6-4.8-9.4-9.4-38-18.4-15.5-3.5 13.7-26.3 27.3-34.8 14 35.7-57.7 74.4-114 110.7-171.5 3.7-7.6 11.6-13.9 11.9-22.7 15-15.4 24.9-35.5 38-52.7 19.8-28 37.6-57.5 59.3-84 14.8 7.2 26.5 19.7 40 29.2-2.2-16.8 11.5-21 25.3-19 40.6.4 81.2-2.5 121.8-2.1 13-9 .6-34.8 3-50.6-2-21.1-2.3-42.6-4.4-63.7-.8-9.4-.8-19-1.3-28.4 18-2 36.4-1.4 54.4-3 36.1 0 72.2-.3 108.2-2.1 27.9-.3 55.8.4 83.6-.8q37.6-1.4 75.3-1.3c18.7.1 37.5-.2 56-1.8 36.7-.5 73.4.6 109.9-2 34.3-.5 68.6.5 102.8-2 65.5.4 131-2.5 196.6-2.3 42.3-4 85 0 127.5-3.6 35.7-.7 71.5.7 107.1-2q48.2-.4 96.4-.3c5.4 2.2-3.4 13.3 1.6 21.5 2.7 17.2 4.2 34.8 8 51.6 4.2 42 12 83.6 17 125.6 1 12.5 5.2 25 5 36.9 2.2 11.2 2.6 47.8 13 20.7 10.3-12.7 11.7-40.2 30-41.5 140.4 35 280.8 70.8 421.3 105.7 46 11.6 92 23.7 138 34.8 116.6 29.6 233.5 58.2 350 88.2 9.2 2.8 19.6 1.5 25.4 9.6 18.8 7.7-12-2.6-11.5 9.1-13.8 24-28.8 47.4-42 71.7 11.6 6.8 6.4 7.5-3.5 5.9-40 65.6-78.6 132-117.1 198.4 13.6 10-10.5 1.4-9.6 15.4-5.5 15.8-25 32.7-23.7 46.7 19.6 11.3-10.2-2.8-10.8 12.5-4.3 13-27.5 31.7-16.7 42.1 32.7 5.7 40.4-38.3 57.6-53.3-4.7 17.4-16 34-28 47.8-6.3 12-39 5.3-21.5 19.2 2.6 17.2-33.8 2-36.4 12.7 4.8 13-7.6 2.5-14.8 4.8-8.8 5.6-3.5 28.5 6.7 33.8 3.9 5.7-13 1.6-5.7 11.2-2.3 9.8 0 13 9.5 9.2 6.5 8.4-4 27.5 14.7 19.6 10.2-9.2 18 7.1 13.2 12.8-3.3-19.8-26.2 2.3-31-14.5 4.7-11.3.2-15-10-11-9-4 5.3-15.6-3.2-20.1-10.7-5.5 8.3-7.4.3-14.3-3.6-3.6-12.4 13.9-22.8 10.7-15.8 3.2-35.6 2-23.7 22.2-5 6.9 7.5 12.9-3.6 14.6-5 5.5-6.5 17.4-10.7 25.9 9.2 7.2 32.8-7.4 28.2 10-3.6 8.3-14.1 21.9 3.1 19.2 13.7-6.4 15.8-1.2 17.2 11 2.7 7.2 3.3 24.5 12.5 10.4 10.4-17.3 33.1-20.8 36.2.2 8.6-15 29 15.6 34.3-4.9 9-13 15.2 10.3 23.5-.8-6.8-19 3.5-11.8 11.7-12-1.3-20 30.3 17.5 5.4-24.1-5-11.6-6.3-24-9.6-36.1 1.2 10.4-3.1 29.6-14.4 18.3-12.3 4.1-7.5-21.6 3.1-5.5 13.6 8.2-.7-39.1 20-20.8-1-17.8-9.8-37.7-8.8-57.2 1.8-23-.2-46.4 4.4-69.3 3.3-16.3 6.5.5 3.5 7.8-5 38.9-6.2 79.7 7 117.1-2.1 7.8-15 4.2-8.5 16.6 0 18.2 18.7 40.1 11.2 54.7-8.2-3.7-12.3 6.2-20.6 5.7 2.3 12.3-8.7 13-16.5 12.6-11.3 17.5 18 26.2 15.6 38.2-24.5 1.8 14.7 26.2-10 26-6.3 3.8-6.3 16.3-18.3 9.5-1.2 7.8 1 36.7-12.7 20-15.1-18.6-35.5-4.6-41.5 12.2-10.9 6.6-22.3-13.1-27.1-6.6-4.3 25.2-16-7.6-24.5-5.1-11 10.8-14.2-9.5-23.7-6.8-5.2 2-18-1.8-13.8 7.2 8.9 16-19 7.4-16.5 14.7 9.7 3 21.1 13.5 27.5 18.6-12.4 5.6-3 17.5 5.5 22 3.5 5.7-14.8 8.6-2 15.9 6.5 9.3-4.9 16.3 4.7 26.1 1.6 7.4-18 3-2.8 11.6 14.9 9.7-7 7.7-8.8-1.6-13.6-1.3-14-8-11.4-8.5-11.3-6.3-22.6-31.4-32.4-27.7-6.6 1-1-18.3-10.7-21.3 7.1-12-12.7-29.7-10.2-46-3.7-19.5 3.6-39.1.4-58.4 8-10.1 4.5 14.8 6 21.5-1.2 25.5-5.2 55.3 12.7 76 14 10.1-12 22.8 15.7 32 11.5 8.1 21.2 30.4 37.4 21.6-1.8-5.6-10.2-12.2-3.1-17 2.3-7.7-14.5-18.7.8-23-10.1-2.9-18.7-19-6.4-24.4-13.1-5-18.4-13.8-30.4-10.8-2.5 13.7-12.7 13.2-21.4 3-4.5-7.2 11 3.7 13.3 3 .4-7.9 5.1-12.4 10.5-12.1-10.5-17.7 28.3 1 15-19.3-1-9.9 30-5.2 12.7-19.2-17.7-10.5 5.7-5.2 5.6-8.2-13-7.4-13.2-29.6-26.7-33.3 5.3 24-45.8 2.3-16.9 6.3 12.2 6.6 12.4-5.5 14.5-14 5.9-.5 12 7 13-5.7 19.8 9.6 4-21.7.5-32-4.2-25-.7-52.5-13-76.1 1.4-11.1-13-18.7-12-2.8-4.9 24-30.4 34.8-52.2 34.6.8 13.3 8.2 18.8 20.2 18-8.5 6.7-24 1-22-11-2.6-7-10.5-9-2-14.5 14.4-7.5-19.7-10-18.5-8.7-2.7 9.4 8.4 19.9 8 18.7-4 6-25.9-2-15.4 7.3 5.7 3.8-17 14.2-.9 19.4 3.5 8-19.2 19.6 0 20 .5 13.8-2.3 34 19.2 31.3 4.9 7.5 14.4-3.3 17.4 2 3.8 10.8-2.7 18.7-5.3 4.3-8.1 1.6-14-5.2-21.9-4.4-22.8 2-5.1-26.4-17.5-31-10 0-2.4-10.8-12.5-9.9-15.2-3.4-30.5-6.6-44.9-12.3-8.4 1.4 1.2 15.3 2.3 22.8 8.8 13.4-14.3 9.4-8.2 18.7 11.5 14.3-15.7 11-11 22.9 3.4 9 10.9 15.1 18 21.2-3.4 16.8 17.8 16.3 26 22.3-12.9 17.3 30.8 2.5 14.7 12.2-8.6 3.6-29 1-20.7-11.6a25.6 25.6 0 0 1-26.3-23.5c-18.2-9.8-24.2-33.8-2.5-37-4-14.1-22 2.3-32.4-5.4-17.4-6.4 8.4 16.1-12.7 14-13.4-.4-24.9 0-30.4 12.4-10-14.8-9.6 22-10.2 30.2-2 12.1 9.3 16.6 11.7 23.4-15.3 12.3-6.3 21.6 3 31.6-8.1 17.8 21 9.7 14.2 26.5-2.7 19.5 34 10.2 26.6 34.4 10.3 6 38.5 8.4 36.4-7.9-6.3-17.1 19.2-19.2 16.1-37.1 2.8-9.7 14.5-2.6 21.8-3.5 38.6-1.6 40.4-57 61.6-80.5.7-10.1 30.8-25.6 14-10.8-19.8 21.3-26.8 51-43.3 74.7-8 16-25 21.7-40 28 3 9.4-2.1 20.6 14.2 18 13.9 8.1-26 5.8-17.7-6.3-2.5-8.4-2.5-14.5 6.3-18.2-20.6-13.3-9.6 23-28 24.5-.9 11.6 2.5 26.7-14.4 29.8 4 12.8-12.2 19.3-5.7 30-12.6 17.4 8.6 22.4 20.4 16.2 1 7.9-.7 19.2 11.1 11 21.1-13 3.1 15.2 11.5 17.3 9.3 2.5 19.5-16.3 24.6-2.5 8-11.6 20.4-26.8 30-7.3 10.8 8.8 29.6 10.6 24.4-8.5 9.4-16 6.3 40.1-14.7 17.3-13.2-3.8-24.9-23.7-33.4-2.2-8.3 16.6-16.6-13.1-27.7 7.5-17.8 4.6-7-14.3-8.6-20-13.2 10.8-24.8 4.4-22.8-7.5-14.2.6-20 14.8-31 21.8 7-11.5-7-4.2-13.8-4-13.4 2.7 7.1 14.1 0 23.7 3.6 11.2-21.3 10.9-12.6 20.3 11.6 1.3 13.8-1.1 22.2 4.3 12.4 4.6 1.2 21.2 7.2 30-.3 6.6-3.5 14.4-2 20.2 8 9.5 26-14.6 25.5 3.5 8.1 5.8-5.2 20.2 12.4 14.5l11.5-7.9c10.8-11.4 3 20.8 11.4 6 12.8-5.7 27.3.8 38.1-3.8 17.2-17.1 13.2 18 6.6 15.8 3.1-14.5.4-17.2-11-8.3-10.5 8.2-22.1 4.3-31.6 2-12 13.5-9.9-8.3-15.6-5-6 2.8-11.4 8.8-18.2 5.1-14.4-2.3-1.8-31-21.2-16.7-21.4 2-8.6-25.2-13-38 4-15.5-9.8-2-17-.4-9.5 6-38 2.9-37 10.3 10.4.7 21.7-1.7 31.2 3.5-2.8 10.4-33.3 2-20.1 19.4 11.9 2.4 12.5 15.8-5.1 8.5-10.3-4.2-20 1.5-6.5 8.2 9.3 4.2-18 16.9.5 21.6 19.8 7.2-18 2.1-3.3 12.1 10.8 15 28.2 15.9 44.4 19.8 15.7-1.2 0 19.4 13.7 9.8 8.5-7 31.1-7 18 7.4-11.2 12 2 22 9 8.8 8.1-4.4 0 11-1.5 15.2l-7.6 19.5c17.8.5 50-41.1 60.7-11-4 20.4 11.7-3.5 20.6-6.8l19.2-13.2c20-9 6.6 25.1 14.2 18.5 5.3-16 28-24 30-2 7.4 17 9.7-14 5.8-21.3 7-5.3 40.8 20.3 27.3-6.8-.9-9-13.5-33 5.2-19.5 14.6.7 18 25.3 37 21 21.2 10 17-13.2 11.8-23.4-8-9.2-8.6-18.1 3.3-10.3l25.4 12.4c4.4-7-26-38-2-27.4 20.3 2.4-.2-9.7 2.6-15.7 2.1-10.3-23.6-19.7-25.6-34.8-5.6-8.4-3.7-24.6-13.3-13.7-20.8-16.3-.4 33.1-25.3 25-11.4-9.7-20.3 17.6-23.2 8.8 6-12.6 14.5-18.6 28-11.9 14.1-5.8-4.8-42.5 17.7-28.2 5.8 1.5-1.9-26.4 15.6-25 15 .5.2-13.8-2.9-21-5.4-7.4-9.8-17.4-1.6-24.4-5.3-5-17.5-8.7-11.3-18.3 12.6-12-22.9-13.7-5.8-15 22.9 1.2-1 26.6 20.2 30.4-.3 9.3-7.7 19.4 3.8 28.3 7.6 10.8 19 24.8-2.6 24.1-16.4 4.5 2.2 22.4 1.4 33.2 6.2 18.3 21.2 31.9 37.7 41 5.6 5-15 2.7-3.5 10 9.8 15-25.4 7.2-9.3 23 8.5 9.7 10.8 24.1-4.6 13.7-10.2-5.5-27-14-17.2 4.5 6 11.6-5.1 25.2-17.4 18.8-4.3 0-19.4-6.9-13.6 1.5l58.4 81.2c-7.4 10.5-12.4 20-24.9 15.8-78.6 14-157.3 27.5-235.9 41.9q-43.2 7.4-86.4 15.3c0 17.4-12.7-13-16.5-17.3-21.5-36.5-42-73.6-63.5-110.1 4.9-10 11.4-19.4 23.8-18.5l100-16.1c10.4-8 9.6-16.3-5.9-16.2-10.8-2.3-22-3.5-32.7-6.7 8.3-8-18.8-16.2-6-26.1-13.5-10.6 16.3-16.9-2-25.6-10.8-18.9 31.9 1.9 14.9-17.7-8.8-16.2 28.4-10.4 7.7-15.6-12.3 3-37-5-8.8-10.2 15.2-2.7 38.9-3.5 47.1-15.5-8.2-6.4-36.4-2.2-19.8-17.6 6.3-5 7.5-13.8 11.3-20.6-15.4-10.2-1.7-24.1 13.3-20 12.8-2 21.6-9.9 11.7-18.4 1.5-9.2 2.8-17.6-.4-23.8 17.2-9.4 8.2-29.5-9.8-25.7-17.5 0-.2-23.9-19.4-23-17.6 0-13.5-17.9-18.6-26.1-6.9-.5-14.5-5-11-12.7 3.6-7.9-5.4-10.3-10.1-14.5-6-6.3-.8-11.8 3.3-17.3 6.7-7.1-7.7-12-8.3-20-20.5 13.3-41.8 26.2-60.2 42.3-12.5 14.8-26.5 28.6-38 44.2-16.7 28.6-31.1 59.1-36.3 92q-3 26.4.4 52.5a690 690 0 0 0 20.7 120c15.6 50 40.3 96.3 60.4 144.4a653 653 0 0 0 38.4 62.8A2896 2896 0 0 1 2471 2294c30 54.2 60.8 108.1 87 164.4 6 9.6 1.4 18.3-2.8 4-29.8-65-66.5-126.4-100.1-189.4-22-41.5-47-81.5-72-121.2-26.4-42.6-43.2-90-64.5-135-25.4-64.7-36.6-134-39.9-203.2 2.4-20.3 4.7-41 13.2-60a315 315 0 0 1 35.2-67.4c14-19.2 28.6-39.1 48.5-52.5 16.2-7.2 30-18.9 45.1-28.3 4.2-14 3.8-29.2 8.8-43 6.2.6 5.6 19.6 10.3 3 10.1 1.8 21.6 5.7 30.4-1.8-9-11.8-1.4-18.6 15.6-10 12.9 5.3 18.5-9.5 29.7-11.9 4.8-10.4-17.4-41.7 9.5-30.3 17 11.8 36.3 4.5 48-10.6 11.3-2.6-2-23.4 15.4-16.3 5.9-4.7-6.8-25.8 11.2-26 6.7 11.5 26.7 11.5 35.9 2.6 11.2-11 49.7-21.5 1.4-30-19.4-5.3-33.4 13.8-49.5 21.8q-130.3 85.5-260.8 170.6c-14 5.2-20.7 18.9-30 29.5a276 276 0 0 0-50.1 100.7 300 300 0 0 0-5.6 103.1c-.6 21.1 3.8 41.9 6.3 62.8 12.4 54.8 34.4 106.8 52.8 159.8 18.8 53.2 48 101.8 77.7 149.5 41.4 73.5 89.8 143.2 126.7 219.2-6.2-1.7-7.8-11.7-12-16.9-36.8-66.2-77.5-130.2-115.8-195.5-33-53.3-66-107.2-85.2-167.4-11.6-34.1-25.8-67.3-37.3-101.5-13.6-38-15.6-78.3-19-118q-.3-22.8-.3-45.8c-5.1 18.9-3.8 39-5 58.5 3.4 48 15.8 94.8 27.2 141.4 16 53.6 40.8 104 65.2 154.2 24 42.9 53.2 82.7 75.8 126.4 27.4 46.9 51 95.8 75 144.3 6.8 14.3 16.7 27.3 21.6 42.2-8.8-6.2-12.4-18.3-18-27.5-17.6-33-32.4-67.3-50.3-100-22.1-43.1-45-85.8-72.4-125.8-16.9-27.9-36.3-54.4-48.1-85a1135 1135 0 0 1-49.8-114.5c-7.3-2.3-31.9-3.4-21 10.3 30.3 72.7 62.4 144.5 93 217 5.8 9.4 6.2 28.4 23 20.8 10.4-2.5 20.8 1.3 6 1.9-7.6.7-22 1.7-14 11.7q25 59.2 52.4 117.1c10.2 10.2 28.3-4 41 1.4-9.7 6.3-31.4 0-36.4 8.3 10.8 24.5 22.7 48.7 33.3 73.4 10.9 22.6 22.9 44.9 31.5 68.5-7.5-6.2-9.3-17.1-14.3-25.4-19.5-39-37-79-57.2-117.6-19.1 1.8-38 6.1-57.2 8.4a314 314 0 0 1-52.6 7.3l-26 4.8c7.4 19.8 18.6 38.3 27.2 57.7 10 22.4 23.3 43.7 30 67.2zm64-907.3c12.8-3.8 22.5-14 33.9-20.7 6.1-2.8 19-15 4.1-6.5-16.7 11.2-33.2 22.9-49.4 34.3-8.5 9.3 10.6-3.5 11.4-7.1m-837.6-715.5c-3.5 14.3-1.3 29.7-2 44.5-1.4 8.3 3.7 20.3-4.6 25.3-20.5.8-41 1.8-61.4 4.2-27-.6-53.5 4.4-80.4 4.2-18.3 2.4-36.7 2.8-55.1 4-16-1.4-5.4 11.2 6.4 5.6 25.3.3 50.4-4.3 75.7-4.2q33.1-4.7 67-5.6c17.3-4.7 54.7 9.2 54-17.2 1-22.4-1.7-45.7 2-67.3-.2-10.8 1.1-40.4-.5-38.2a513 513 0 0 0-1 44.7m92-66c45.3-62 88.4-125.6 134.3-187.2 10.3-2.3 12.6 14.3 17.5 21.7 29.7 62 61.2 123 91 184.8 15.5 8.6 6.7-9.6 2.5-16.5-16.5-34.8-33.8-69-50-103.8-18-34.9-34.2-70.5-52-105.4-6.5-6.5-9.8 8.4-14.5 12.1l-96.5 137.8c1.2 9.6-12.1 12.2-15.2 21.4-6.5 9.8-15 18.7-18.4 29.9 11.4 23.3-74.4-46.4-26.6 35.6 5.6 8 8.8-5.5 13.2-9zm1027.5 507.6c-10.8 14.8-18.2 31.5-27.5 47.1 12.3 1.4 32.5 23.1 38.9 8.8 9.7-1.3 15.8 28.5 24 6.6 17.2-30.6 35.4-60.7 52-91.6 2-8.3-33-18.2-16.6-1.5 5 13.6-4.2 40.8-18.9 21.5-14-6-45.2-18-18.6-31.7 7.2-9.1 36.6.2 13.8-8.5-12.4-9.3-21.4-3.2-25.8 9.3-7 13.4-15.8 26-21.3 40m-2125 32c11.4-8.2 28.9-3.4 42.7-7.5q48.6-4.5 97.3-9.7c27-1.9 53.6-6.5 80.6-8q26.5-3.2 53-5.6c-1.8-19.2-23.9-13.6-38.1-13-22.5 4.2-45.6 4.8-68.2 7-34.3 3.6-68.7 6.3-103 10-21.4 1.6-43 4-64.4 6.3-21-.2 9 19.7-3.1 30.2-6.6 13-16.2 22-1.2 27.8 4.6 4.8 12.6-1.5 18.6-1.5 12.4 3.3 25-2.4 37.3-1.7 15-3.3 31-1.3 46.6-4.6 28.2-.2 55.6-8.7 83.5-12.1 14 1.4 27.2 3 37.7-3.6 22 .2 43.9-3.2 66-2.1 11.8-4.8 34.7 4.8 38.9-9.5q18.7-61.8 34.6-124.1c-14.9 1.7-40-5.2-50.4 7.8-8.7 29-15.3 58.4-24.7 87.2-13.3 1.5-33.5.6-49 4-42.7 3.6-85.2 9-127.8 12.8-32.8 3.8-65.7 6-98.3 10zm1707.1-40c14 13.3 23.4 30.7 35.4 45.6l34.2 48c24.3-.6 48.4-5.7 72.8-6.4 28.8-4.1 58.5-3.4 86.8-10.2-11.7-11-29.7-9.5-41.3-21q-48.6-22.6-97.6-44.5c-9.2 6.7-4.8-2.5-13-6.4 8.4-1.4 11-9.3 14-17.3-4.7-14.6 12.2-20.1 20.9-25.2l-220.2-98.2c-7.3 3.7-14.1 9.3-21.4 4 2.5 24.5-29.9 34.5-42.5 14.6-8.4-8.7-2-23.2.9-33.4 3.6-7 6.4-14.2-4-12.8-25.3-10.6-50.3-22.2-76-32.2-10 2.3-17.4 9-27.8 12l-28.1 15c-22.6-9.4-44.1-21.5-66.2-31.8-3.3 6.3-6.3 12.8-6.8 1-5.2-12.2 5-25 3.2-38.8 6.2-11.7 20.4-9.5 31.2-13.5 18.7-5 37.6-9 56.5-13.5 7.4-16.8 8.8-35.7 13.7-53.3-4.2-9.2-24.5-3.1-35.6-2.7-18-1.3-24 13-25 28.5 2.4 20.7-18.5 15.3-31.5 15.2-18.2 2.6-36.6 2.7-55 4-33.7 2.5-67 8.1-100.7 8-22 2.4-43.7 2.7-65.2 5.9-10.6 3-21-5-31.4 1.4-16.3-4.3-40.8 8.4-52.8-3.4-6.5-10.6-14.5-20.7-16.4-33.2-33 3-66.9 14.3-100.7 14.1-20-1.8-39.1 6.5-59.2 4.8-16.9 2.8-34-1.9-50.8 1.1-12 .5-6.6 13.1-7.8 21 5.5 18-15.4 13.2-27.4 14.2-23.7 2-47.5 3.3-71.2 5.3-10-13.5 1.4-41.8-12.5-47-16.6 2.6-33.4.4-49.9 3.5-11 1.2-24-3-33.5 3.7a80 80 0 0 1-5 26.1l-5.8 19.2c-21.4 3.6-43.4 3.2-65 5-21 1-42 4.8-63 5.8-9.7-.3-19.5.8-29-.6-2-10.4-5.2-41.7-18.1-26.5 1 7.8 3.2 26.1-4 10.5q-12.2 47.5-22.1 95.4c13 8.1 34.6-10.2 49.2.3-10.4 7 6.4 23.7-1.5 34.5-11 57.5-21.4 115.2-32.3 172.7-3.5 22.2-8.7 44.1-11.1 66.4 13.4 2-6.2 5.2-.2 11.8 6.8 10.3-6.9 3-8-3-4.6-7.9-18.8.8-27.7-.8-9.5 1.6-20.6-1-28.8 4.5-22.5 102.2-45.9 204.2-68 306.5 2.5 12.4 20.8-11.6 27-16.4 13.9-9.4 10.8-24 18.8-37 4.7-7.8 13.9-19-.5-16 4.3-19.8 37.9-31.8 40.3-56.8 16-34.6 33-68.7 47.4-104.2 10-13.9 12-38 16-50 8.9-6.1 22-15 23.5 3.2-2.8 28.6 8.7 54.5 18.1 80.5 9.5 20 16.8 41.7 27.6 60.6 1.7-25.1 5.3-50.2 4.9-75.4 7.4-20.1-31.8-.5-32.5-8.2 15.4-4 41.7.4 34.4-24.3 3-21.1 2.7-42.6 4.9-63.7.9-18.2 1.6-36.3 3-54.4 2.7-23.5 2.5-48.2 5-71 1.1-10.7 1.2-21.5 3-32.1 1.8-24.6 3.3-49 5.9-73.5-1.7-12.7 11-41.3-12.6-32.1-5.5 2-27 0-2.7-2.9 18.9 4.2 21-13.4 19.8-26.7 3.4-9.6-.9-38 7.4-35.2 0 19.2-4.8 38.2-3.7 57.4 29.3-2.8 58.3-10.4 87.8-12.7 11.6-2.3 23.5-3.2 34.9-6.5.9-22.1-7.6-46.4-1.6-67 2.8 21.9 3 44 5.8 65.9 24.5.2 48.6-7.1 73.2-9 36.5-4 72.6-10.7 109.1-14.8 5.7-15.9-1.3-36.4-1.4-54-2.5-8.7 4.3-20 4-4.9.8 19 2.4 38.6 5.8 57 23.2-1.3 46.3-4.8 69.5-7.1 31.4-4.3 63-5.7 94.4-9.4 8-4.6-.7-14.3-1.4-21.2-4-6.4-.4-18.3 2.6-4.2 2.1 17.6 11 29.8 29.4 22.6l65.3-5.3c17-1 34.1-3.3 51.3-3 26.9 1-6.6-33.8 2.3-39.4 8.2 17.6 10.6 46.4 36.7 36.5 18.5-.7 36.7-2.8 55.2-3.1 11.1 1 27.3-6.7 35.4 1-18 3.9-36.7 1.9-55 4.6-18.3.8-36.7 1.4-55 3.3 11.7 33.3 24.2 66.4 36.6 99.4 7.4 14.5 28.4 2.4 42.2 4.6 16.2-1.3 32.3-3.2 48.5-3.5 17.3-1.9 34.9-2.1 52.2-3.5 11.6 2.3 15.7-4.9 9-14.3-2.1-6.7-7.7-13.3-7.6-20 13.8 8.2 10.4 43.3 35.9 32.4 19.7 0 39.5 0 59.2-2 46.5.2 93.1-.5 139.7.2 7.5-.7 31.7 3.9 11.8 5.4-24.7.5-49.1-2.1-74-1.5-17.4.2-35-.4-52.4.4-1.7 12.5-13.2-9.3-21.5 1-24.5 1.8-49.5-1.4-73.8 2-5.3 7.6 6.3 20.6 9.5 30.4 27.3 57 52.9 115 79.3 172.5 8.4 21.4 38 4.2 56.2 7.4l60-5c11.7-1 32.9.6 17.5-14.7-40.3-59.3-80.3-118.7-121.8-177.2-10.4-15.1 6.8 1.7 9.6 8 32.7 44.2 62.9 90.2 94.3 135.3 11 15.1 19.6 32.1 32.6 45.5 20.8-.4 41.5-3.5 62.3-4.5 18.4-1.6 37-2.7 55.4-5.3 10.9-4.6 42.6 5.2 39-10.3l-59.9-85.2-.4-2.5Zm-1839.3 328c-7 10-15.6 17.1-19.4 29-8.9 11.6-9 27.4-16.8 39.2-15.3 18.7-21.3 42.7-35.5 62.1-8.6 28.6-29.3 51-38.8 78.9-4.6 28.5-27.8 49-33.1 77.3a310 310 0 0 1-39.1 72 116 116 0 0 0-17 50.5c1 15.9-23.9 40.3 2.3 44.9 24.5 5.2 49.5-1.1 73.5 1.4 12.5 6.6 22.6 22.4 38.7 14.2 19.7-7.8 37 2.5 54.9 9.5 23.9 6.2 43.9-22 66.5-12.1 16.3-2 35-7.2 47.5-18.6 11.5-5.6-3.3-15.8 7.4-22.8 4.8-10 22.1-20 13.6-31.8-2.8-20.1 10.8-37.5 15.5-55.4.6-18.6 21.4-29.6 21.3-48.4 1.2-10.8-3.7-21.8 2-32.2 4-9.1 10.8-39.7-.6-18.8-5 12.1-11.8 8-3.5-2.4 8.2-14.7 20-27.9 24.5-44.4-2.8-22 21.2-35.3 24.5-56.3.6-9.7 4.5-17.8 10.5-25.4 5.1-15.5 18.7-28.2 13.4-45.3-.6-9.6 12.3-14.7 8.2-24.3-1.4-7.4 10.3-12.2 5.8-20-5.3-11.3 7-20.9 5.7-32.3 1-18.6 15-33.8 18.2-52.1l15.7-22.5c-2-16.8 11.3-30.4 10.5-46.7 1.3-13.8 16.3-22.5 14-37.1 8.4-15 6.8-32.4 14.3-47.5 9-8.9 3.8-19.7 8.3-29.5-4.6-9 .8-18.8-14.9-12.5-12.6-3.6-23.3 7.8-34.8 1.8-18.2 5.2-35.5 1.9-53.4 8.5-11.7.1-22.2-1.1-33.6.2-23.1 3.9-47.7 1.6-70.4 8-11.4 3.3-3.4 20-15 26.1-5.1 17.4-11.4 35-14.6 53.4-5 22.4-23.2 38.4-38.2 54.4-7.4 15.4-3.6 32.7-19 46.4 4 23.6-19 38.7-19 60.4zm1277.9-36.6 22.4-13.5c7.9 5-21.7 15-2.5 11.8 12.9-5 26.4-15.6 39.2-5.4 6.1 1 13-1.5 15.6-7.8 5.6-11.6 22.3-8.3 29-18.9 11.7 0 20-7 22.9-18.5 5.4-2.9 19.4-18 7.1-10.2-10.2 8 1.2-13.5 10.3-8.4 22-14.4 23.8-40.2 26.3-63.8 1.8-11.8-14.7 18.8-24.4 22.2-1.9 10-29.1 22.7-26 13 13.7-.1 20-14.8 29.7-22 18.2-11.5 16.4-33.7 26.5-50.3-4.5-10.4-8-27.4-17-36.3-5-9.7-12.3-20.7-25.8-21.8 12.9-18.2-13.5-30-23.6-41.7-7.7-5.6-18.6-6.1-26.5-11.2 12.2-3.5 32.4 7.6 42 19.5 8.7 7.5 19.1 16.1 16.3 28.8.8 6.3 10.4 7.8 14.8 12.2 4.6 4.2 5.5 11.8 10.9 16.3 6.5 10.3 10.4 24.3 14 34.7-6.4 13.7-1.5 29.5-5.4 44-1.5 12.2-5.2 24.2-8 36.2-10.5 23-35.1 34.2-43.9 57.6-12.1 4.6-24.6 8.6-36.3 14.9-12.6 10-25.4 22.4-43 11.2-18.6 10.3-38 10.8-58 12.4-8.3-9.2-18.5-13.1-28.2-3.1a226 226 0 0 0-49-7c-6.2-15-24.1-.3-32.6-14.4-16.7-9-38.9-12.7-51.1-29.7-24-.8-31-29-47-40.5-20.7-10.2-6.1-38.1-18-53-10-14.2-5.8-31-6.6-46.6a62 62 0 0 1 18-57.6c8.4-6.6 6.3-18.6 9.3-28 2.6-22 27.4-30.3 44.9-30.6 7-13.5 25.6-15.4 37.8-8.7 4.2-7.2 36.1-14.7 12.8-14.7a313 313 0 0 0-132 56.5c-28.1 23.5-50.7 57.6-49 95.3-4.4 33.8 10.3 66.5 28 94.8 17.2 26.8 41 49.2 69 64.6a325 325 0 0 0 94.4 43.2c46 12.7 94.4 20.4 142.2 15.8a595 595 0 0 0 103.6-31.4 231 231 0 0 0 59.5-43.8c6.5-10-8-21.8-8.8-32.8-1.9-16 9.5 9.5 12.4 15.7 3.9.4 5.6.8 7.2 4 20.6-22.6 29-53.2 28.6-83.3 2.3-30-12.4-58.2-28.9-82.2-34.7-47.2-84.5-80.8-137.6-104-31.6-12.7-65.9-16.8-99.6-17.2-17.5-5.1-6.2 4.9.6 11 19.2 6.5 49.2-8.5 64.1 14.7 15 3.9 42.7-.5 43 20-6.7-8.5-15.5-14.7-27.2-13.7-7.7-1.8-17.6 1.2-22.5-6.4-11.8-14.5-32.4-12-48.1-6.8-14.3 2.7-18.7-21.4-33.3-14.4-17.2-6.2-39.5-5.2-53.2 7.3-12.6 5.2-24.6 16.8-39.1 8.8-12.3-4-16.5 9.8-24.8 13.6-10.8 2.4-24.2 0-31.1 10.6-8.9 12.8-7.8 29.7-14.7 43.5 6.2 2.9 3.6 9.6 1.1 17.2-.9 6.2 8 11.2 8 17-9.4 12.9 7.3 26.2 12.3 37.7 1.6 10.3 8 15.8 17 20.2 8 2 7.8 9.4 13.5 12.4 11.5-4.8 11.2 14.9 21.8 19.2 8.7 1.7 17.3 14 3.4 7.2-17.8-17-13.6 15.4-17.6 26.7-1 14.3-5.9 30.2-3 43.6 7.4 4.5 20 13 27.2 12.2 1.7-19.4 4.4-38.6 7-57.9 2-6.6-1.7-17.9 6.1-20.6 6.5 7.8 27.8 21.7 23 26-10-2.8-19.7-21.2-25.4-18.6 3.2 24.7-8.9 51.3-4 74 9.7.8 16 18.7 28.1 11.3 7.5-1.2 11.5 6.1 9.5-6.1a295 295 0 0 1 5.2-55.6c9.3 0 28.5 4.3 38.1 9-13 5.2-39.3-16-36 7 1 19.2-16.4 61.7 16.8 55.7 13.2.2 26 8.3 38-1.6 19.7 1.4 4.5-28 11.4-39.3 5-7.6-26.5-19.6-13.6-20.3 5.4 4 12.7 11.2 17.7 2.7-.5 8.6 23.3-11.3 10.6 1.8-11.3 6.5-12 19-12 31 1.3 12.7-6.8 39.6 16.2 33.6m822.7-537.7c-18-12.1-41.7-15.5-61.8-24.3q-91.2-32.3-182-65.5c-3.2-7 15.5 2.6 21.3 4q109.1 39.6 218.4 78.3c18.9.3-5.3-12-14.1-12.7-75.3-26.2-149.6-55-225-80.7-11.2 9.2-20 19.7-33.2 8.1-13.8-.3-1.9-17.4-19.2-15.7-62.7-21.9-124.8-45.4-187.6-67.2-16.7-10 8.6-1.4 15 1.5q88.5 31.9 177 63.5c11.6 8 18.9-9 2.4-9.4-10-7.5-43-4.5-25.8-22 6.2-15.8 14.3-31.2 18.8-47.5-31.8-17.9-67.7-26.8-102-38.9-15.3-5.6-31.7-9.4-46.2-16.3 7.4-3.4 20 6 29.4 7.3 30 9.7 59.7 20.4 89.9 29.7 5.2-3.4-5.2-13.5 8.5-14.4 34.2-11.4 67.6-25 101.3-37.7-9.7-8.3 14.7-4 20.7-2.8 136.6 42.4 273 85.6 409.5 128.6 8.5 4.1 16.3 5.4 21.7-3.2-11.7 24-32.4 47.4-48.9 70.4-2.8 8.6-27.2 25.2-11.2 29.1 76.3 26.8 153.3 51.7 229.8 78 25.8 12.3 29.3-29.6 43.6-43.7 12.8-23 28-45 39.3-68.6-35.8-12-72.2-22.3-108.4-33.4-53.4-16.4-107-32-160.4-48.5-112.6-33.7-225-68-337.6-101.8-94.8-28.2-189.4-57.2-284.2-85.4-18.2-7.7-10.6 16.9-21.2 20.8q-28.5 54.4-56.5 109a2484 2484 0 0 0-35.3 68.7c10.5 8 0 5.5-5.3 10.2-6.8 12.7 20.1 11.2 27.6 17.5 126.4 46.5 253.1 92.3 379.5 139.1 102.6 36.9 204.7 75.2 307.3 112.2 47.3 17.3 94.1 35.8 141.9 51.7 9.5-18.2 29.7-40.4 30-57.6q-117.8-43-235.8-85c-33.4-12-66.6-25-100.3-36-6.6 5-11.9 17.2-20.5 8-11-3.6-16.6-5.3-10.4-17.4M748.9 1433c-32.7 102.4-62.6 205.7-95 308.1-17 54.5-33.4 109-50.4 163.5-17.3 58.6-36.4 116.7-53.5 175.3 2.6 7 13.6.3 20 1.1 14.3-.6 26.7-8.5 40.5-11.5 12.6-4.2 26-6.8 37.6-13.7-2.7-9.8 10.6-10 15.8-15.3 13.4-3.8 22.9-25.1 32.1-24.7 7.4 2 34-25.5 12-28.3-12.8-9 13.4-27-4.8-28.9-9-3.5-19.7-23.9-5.8-27 8.7-4.5 21.3-7.8-6.4-23.8-2.6-14.2-10.6-45.8 9.5-47.2 10 5.3 19.8 2 29.1-2.6 12-5.8 26.8-8 35.6-18.4q22.6-96.4 44.2-193.2c12.4-52.3 23.7-104.8 36.4-157 11.2-7.3 31-3.3 46.3-6.8l20.6-2.8c11-64.9 25.4-129 37-193.8 3.3-19.3 8.1-38.5 10.6-57.9-18.8-5.2-42 10.6-58.3 1.1-.9-17.8 7.2-35 10.1-52.6 7.7-33.7 16.8-67 24.4-100.8-4.6-4-13.5.3-20-.4l-53.2 4.2c-10.8 12.3-12 29.1-17.6 44q-20.8 63.7-40.3 127.8c5.4 5.6 28.6-4.2 28.4 15.1 2.2 10.4 42.4 51.1 33.7 8l29.1-2.9c8.8 2.7 1.7 11.2 1.2 17.3-12.1 44.8-23.6 89.8-37 134.2-9.2-8.6-30.4.1-44.4.2-22.2 3.5-47.6-.9-67.5 9.7M2114 1740.3c5 16 13 31.5 19.2 47.3 31.8 73 60.9 147.1 93.3 219.8 3.7 6.3 28.6 55.4 24.7 4.3 5.2-4.7-1.4-13.7-1.6-20.2-10.7-45.6-22.9-91.3-24-138.2a523 523 0 0 1 8.4-80c8.1-40.3 27.3-78 50.2-111.8 14.9-19.8 29.2-42.7 53.5-52 37.7-21.4 72.5-47.5 109-70.9 50.6-34.4 102.6-67 152.9-101.8 14.5-8.5-12-12-16-1.5-14.8.4-31.6-17.4-47.8-16.4-3.2 7.5-22 12.8-4 11.3 23.4 1.7-20 3.3-24.7 11.7-10.9 7.2-11.5 12.5-21.8 1.7-26-1.2-52 4.5-78 6.4-30.4 2.9-60.7 6.3-91.2 9.1-2.7 11.3 14 23 19.1 34.2q19.9 29.1 38.9 59c-9.4 2.2-12.9-15.8-19-21.7-12.8-19.8-27.4-38.3-39.7-58.5-5.4-15.1-22.2-11.4-35-9.8-21.3 1.1-42.4 4.9-63.8 4.8-21.6 5.5-56.5 1.2-70.1 9.8 36 52.6 69.8 106.8 110 156.5 8.1 6.1 8.3 19.2-.9 6.1-40.7-51.2-76.6-106.1-113.5-160.1-21.2-7.8-48-.4-71.5 1q-33.1 1.4-66.2 4.9c-5.3 2.6 4.2 12.9 5.2 18.8 33 75 65.4 150.4 98.7 225.2 14.4 10.7 40.1-1.2 59 .7q29-3 58.1-4.5c8.3-4.5 21.8 3.1 5.6 4.8-38.7.8-77 5.9-115.6 8.8zm-77.4-1230.2q-33.2-.6-66.3.7c-39.7 2-79.6-.4-119.3 2.7-34.7.7-69.4-1-104 2-38.3.2-76.7-.2-115 2-36.5 0-73 0-109.5 2-31 .3-62.2-.2-93.2.7-34.7 2.9-69.7.3-104.5 2.2-43.9 2.6-87.9-.2-131.7 3-34.9.3-69.7 0-104.5 2-36.8.5-73.8-.6-110.6 2-14.7.5-29.6-.4-44.2.9-3.5 15.3 2.1 34 1.6 51 1.2 7.3-3 20.4 7 22 33.4 1.1 66.5-2.8 99.8-2 19.5.8 38.6-2.5 58.1-2.3 5.1-13.6 16.9-31.4 26.2-12 6 18.8 25 8.3 39.4 10.4 21.3.1 42.6 0 63.9-2 22.7-.3 45.5 1 68-2 25.1-.3 50.3 1 75.1-2 23.4-.2 47 .8 70.1-2 25 0 50.1.3 75-1.9 23.3-.5 46.6.9 69.5-2 24-.4 48 .8 71.8-2 17.9 5.2 22.4-8.2 28.4-21.7 13.3 9.8 23.7 27 42.8 19.9 25.8-1 51.7 1 77.2-2.3 23.5 0 47 .2 70.2-1.9 24.3-.4 48.7.9 72.8-2 22-.3 44 .6 66-2 10-.5 20.2 1 30-1.3-2-20.9-4.7-41.8-10.1-62.1m57 256.9c20.3 8.2 42 12.9 62.9 19.9 116.8 35.5 233.8 70.5 350.6 106q90.7 27.2 181.3 54.7l288.9 87c12.9 8.6 20-.8 25-12 11.7-20.2 23.9-40 35.3-60.3-.2-8.7-13-6.3-19.2-9.5q-234.5-60.3-469.5-119-217.4-55-435-109c-7.2 12.9-14.5 26-20.3 39.7zm-724.8 783.6c-20.4-2.4-41.6 3.6-62.1 5.8-29 2.4-58 7.4-87 10.8-15.1 13 2.4 40.3-.6 59 4.9 42.8 10 85.5 14.3 128.3 4.5 29.3 6.3 59 11.6 88 3.6 12.2 20 1.5 30.2 2.5 38-4.5 75.5-11.5 113.5-16.2 24.6-4.3 49.7-6.3 74.2-11.6q-11.7-52-21.2-104.3c-4.3-24.3-9.8-48.3-12.4-72.8-25.8-25.4-44.8-57.3-60.5-89.5M1175 1224.4c-13.8-3-27.8 2.9-41.8 3.6-22.6 3.6-45.3 5.9-67.7 10.6-16.4-3.3-16.6 11-16.5 22.2-1.4 28-5 55.6-6.4 83.4-2.7 22.1-3.2 44.3-5.3 66.5-.8 15-1.6 30-3.3 45-.1 18.5-3 36.9-2.5 55.6-2 19.8-4 39.5-4 59.5-2.6 10.4-2.8 22.7 11.8 16.9 28-3.7 56-8.3 84.2-11.5 27.7-5.5 56.3-6.3 83.8-13a965 965 0 0 1-5.3-54.8c-4.7-36.4-7.6-72.9-11.5-109.4-3.3-15 3.6-47.7-21.6-34.7-32.3 4.8-64.3 11.7-96.7 16l-11.6-.2q39-6.2 77.7-14.3c14.8-5.2 39.4-.4 47.2-14 1.2-16.6-3.7-33-3.6-49.7-3-21.7-3.7-43.4-5.9-65.2zM1026.4 1593c-2.5 30.4-3.4 60.7-6.8 90.9-1.1 20.2 11 37.5 17.5 55.9 3.6 5.3 4 15 9.6 17.3 15.8 5.5 18.3 28.2 28.6 40.5 9.8 17.2 22.8 32.2 34.8 47.8 15.3 1 22.6 23.3 38.7 17 29.2-4.6 58.7-7.3 87.9-12.1 11.6-5.7-4.3-27.3-.5-38-5-36-8.7-72-13.3-107.9-2.8-21.9-3.9-43.9-7.5-65.6-.3-22-6.3-43.3-6.7-65.2-3.9-8.9-14.9-1.8-22.2-2.3-44.4 5.8-88.8 11.2-133.1 17.3zm198-623.1c4 25.2 3.4 51 7.3 76.1 11.9.5 27.5.7 40.8-1 10-.3 25.8 2.5 21-13.2q-1.4-36.4-4.1-72.6c0-19.2-2.7-38.2-2.6-57.4 0-8.3-3.7-15.4-10-20.6-39.6-42.8-78.3-86.5-118.3-129-16-17.4-31.2-35.5-47.7-52.3-15.1 2.1-21.2 31.2-32.7 43.8L981.5 903c8.5 50.3 18.8 100.3 27.5 150.6 3.6 13.8 21.5 8.5 32.4 7.8 19.2.2 3.9-26.1 4.6-38-1.9-13.7-5.5-27.2-6.2-41 2.3-6.8 14-2.4 20.6-4.3 7.5.2 15.2-2.2 22.5.1 4.9 26.1 8 52.6 14 78.5 16.5 1.8 38.5-.6 28.4-22-2.2-19.6-6-39-7.6-58.5 8-6.7 23-2 33.7-5.2 18.2-.1 36.4.3 54.4-2 6.1.5 12.6-.9 18.6.9M2330 1170c24.4 12.5 51 20.2 76.4 30.7q102.3 38.9 204.5 78.3c26 9.2 51.1 21 77.8 28.2 17.5 9.6 37.3 14.8 55.8 22.5l63.3 24c7.9-15 17.5-29.1 25.1-44.2-11.9-14.2-43.5-17.6-63-27.4q-214.3-78.7-428.8-156.7c-98.8-36.6-197.9-72.2-296.6-108.8-22.5-7.9-44.6-16.7-67.2-24-8.1 3.6 6.2 11.8-7.3 11.5-10.7 12-17.5 28.2 2.7 30.6q176.1 67.6 352.4 134.6l2.6.5zM1195.3 689c24.4 1.4 48.6-2.7 73-2 19.7-2.7 39.7-1.1 59.4-3.7 23.5.6 46.8-2.8 70.3-2.4 22-2.6 44.1-1.3 66-3.7 22 .2 44-2.3 66-3 17.3-2.2 35.2.4 52.5-3 21.2.8 42.7-1.6 63.7-3.1 11-25.5 19.7-52.5 29.6-78.7-14-4.3-32.6-.6-48.3-1.8-25.3 3.4-51.3 1-76.9 2.2-27.4 3.8-55.4-.5-82.9 3.4q-42.7-.1-85.3 2.1c-21.5 0-43-.1-64.4 2-23.5.6-47.1-1.1-70.4 2-23.6.2-47.4-.6-70.9 2-12.3.3-24.9-.4-37 .7 6.6 19 23.6 37.8 34.4 56.4 7 10.3 13.8 20.7 21.2 30.6m17.2 873c21 .7 41.8-5 62.7-6.5l78-10c16 1.6 7.8-16.6 10-26 2.5-25.6 6-51.3 8.6-77-.3-16.3 19.7-25 17.3-41.2-4.5-23-4.5-46.7-10.2-69.4-6.2-6-18 .8-26.7 1.1-52.6 8.9-105.4 17-157.9 26.8-6.2 18.8 2.7 42 3 62.2 2.3 36.5 8.2 72.7 10.8 109.2q2 15.4 4.4 30.8m783.5-76.5c-17.6 1.1-35.3 4-53.2 4-16.2-.2-37 2-27.8 23 1.2 34.5-11.1 67.2-18.6 100.5 6.6 6.8 1.3 16.2 1.4 24.4 5.4 21 7.2 43.7 18.2 63.1 2.1 20 34.8 21.7 35 38.4-6.6 1.8-21.4 5.4-2.1 13.2a8649 8649 0 0 1 143.2-15.7c20.7 3 6.2-17.4 2.2-28-26.3-60.4-53.1-120.5-79.1-181q-9.4-21-19.2-41.9m226.3 526.8c-7.5-22.6-18.7-44-27.5-66.2-29-66.5-55.6-134-84.6-200.6-14.7-12-39 2-57.7-.9-29.4 4.3-59 5.8-88.5 10l-12.7 3.5c13 16 34.3 24.5 46.9 37.8-6.3 3.7-14.4 4.7-1.9 8.7 13.7.1 18.8 12.3 3.8 16.7.1 12.4 39.7 14.6 51 15.2 6.6 3.3-7 7-1.3 13.6-6.7 11-18 19.1-21.7 31.6 10.8-5.5 20.8-13.6 33-15.3 11.2 11.1-30.3 34.6-3.3 43.2 8.7 2.1 37.7 11.6 15.2 17.4-11.4 4.8-36.9 9.3-39.8 13 9-.9 24.8-5.4 12.3 8.4 4.1 16.5 41.7 18.3 49 30.5-6.9.3-19.7-.6-7.3 7.6 11.5 6.6 31 12 15 27.5-8.3 19.4 14.4 10.6 25.3 9.9 28.4-4.4 57-6.7 85.7-9.6 3.1 0 6.7.4 9.1-2m-48.7 214c-.6 15.8-2.4 32.8 12.2 45.2-1.2 20.3 10.6 25 25 18.7 38.6-8 77.2-16.8 116.2-22.7 7.5-12.3-11.3-31.6-14.4-46.5-27-63.5-55.7-126.3-81.7-190.3-5.5-23.4-35-8-52.3-9-24.4 3.5-49.3 4.5-73 12 7.9 22.6 44 17.4 59.8 26.5-6 14.2-22.6 23.5-36.5 30.5-14.4 6.8 9.3 17.5 4.1 29.5-4.3 12.5 3.8 9.3 12.3 12 1.3 8.2-3 17-4 25.5 21.2-3 3.6 22.8 7.1 30.8 6.4-1.4 13.3-6.8 18.5-.3-4 10.2-19.6 19-8.6 30.2 5 2.6 11.3 3.6 15.3 8M779.4 1257c15.6-15.1 19-38.8 21.3-59.3-4-13 18.2-20.1 10.8-33.7 1.7-7.3 12-12.9 8.5-21.1 3.2-12.3 1.7-25.7 9.8-36.3 2.5-12 16-32.6-5.3-28.5-16.9 5-44.3-6.5-46.4 17.9-1.1-25.3-33.1-10.2-50.6-14.3-11.7 1.1-23.4 4.9-35 1.7-16.9.4-13.8 13.5-19.7 23.2-6 15-12.4 30.5-18.7 45.7-8.5 15.5-19.1 29.1-29 43.5-13.1 15-16 35-24.6 52.3 1 12-10 29.5 9 23.7 37.2-4.3 74.6-6.6 112-9.7 19.2-2.2 38.5-4.4 57.9-5.1m839-510.4c8.2-24 18.5-47.4 25.1-71.7-24-4.1-50.2 2.7-75 .7-17.8 2.3-36 1.5-53.8 2.9-16.9 2.3-34.1-.3-51 3-24.3-.7-48.5 2.8-73 2.3-20.6 2.3-41.4 1.7-62 3.8-20.4-1-40.4 3-60.7 2-23 3.5-46.8 0-69.8 4.8l43 64.2a268 268 0 0 0 53-1.2c23.1-.2 46.2.6 69-2 21.6-.3 43.3.8 64.6-2 19.5-.1 39.1.6 58.5-2 22.6-.2 45.4.7 68-2 21.3-.6 43 1.3 64-2.8m245.8 129.7c-30.2-64-62.8-126.8-93.3-190.6-6.1-15.4-11.7 4.4-17.3 9.2-47.2 65.1-93.2 131.2-140.2 196.5-3.4 10.2-13.6 12.4-10 24.8-.6 30.8-3.8 61.5-4.6 92.3-7.7 22.3 21.4 13.2 33.7 12 9.2-18.7 5.4-47.3 8.7-69.7.8-12.4 16.7-6 25.5-7.7 14.5-.2 27.6-3.6 42.5-2.3q52.6-2.9 105.3-5c4.1 4.3-1.1 14-.9 20.5-1.7 16.2-5.6 32.5-5.7 48.7 10.9 1.3 33.2 4 39.6-5.3 6.3-41 11.5-82.3 16.7-123.5M944.4 830c-45.9 2.5-92-.2-137.8 3.4-10 2.3-33-3.3-11.4-4.2 31.3 0 62.7 0 94-2 17.7-.3 35.5.3 53.2-.5 8-9-1.3-24 1-35.1-3.8-17 3.2-43.2-9-54.1-25 .1-49.7-3-74.7-2.3-21.6-3.4-43.6 0-65-4-15.3 8.3-5.2 35.7-10.2 52.2-.4 12-1 24-2.7 35.8.4 16.3-2.6 32.4-2.5 48.7.2 15.2-7.2 34.3 0 47.2 16.6 3.8 35.6-2.1 53.2-.3 22.2-3 44.8-.5 67-3.6 15.4-1 31.3.3 46.4-3.3 8-21 1.2-43.7 1-65.4q-.9-6.3-2.5-12.5m1049.8 649.5c-26.7-55-50.5-111.2-76.6-166.5-7.4-15.3-13.5-31.2-22-46-22.4-.2-44.7 1.6-67 3-28.5 2.4-56.8 4.3-85.1 7.4-3.4 5.5 4 13.6 5.3 20.2l16.9 43.3c35.9 19.7 71.6 41.3 99 72.3 24.8 16.7 32.4 55.4 49.5 73.9 26.7-1.8 53.5-3.5 80-7.6m-629.5-281.2c-16-.9-32.2 3-48.3 4.3q-64 8.5-127.7 17.3c-19.8 2.3-5.8 28.8-6.3 43.6 1.7 21.6 3.3 43 6 64.6 2 12.6-3.5 34.8 16.5 25.8 57.7-11 116-18.8 173.5-30.2-3.9-41.8-10.2-83.4-13.7-125.4m1508 44.1c15.5-25.8 32-51.3 45.4-78.3-18.9-11.4-42.2-15-62.8-23.4-62.8-21-125.2-43.1-188.2-63.3-15.6 19-29.1 39.7-44 59.3-6.4 18.5-29.2-8-43.2-6.6-13.7-3.7-26.7-10.5-40.8-12.6-7.2 6 10.9 8 15.8 11a78380 78380 0 0 0 275.6 99.4q21 7.8 42.2 14.5M823 1260.2c-19.2-.6-38.7 2.1-58 3.7-44.5 3.5-89 6.6-133.4 10.5-20.2 1.4-40.4 4-60.7 5.4-8.1 9.5-11.8 22.9-17.8 34.1-9.3 20.8-20.5 40.8-29 61.7 5.1 4 16.2.2 23.2.2 33-2.8 65.8-6.3 98.8-9.4 22-1.3 44.1-4.8 66.2-5.6 18.3-2.8 37-3.6 55.3-6 9.4-1.5 23 .3 30.1-4.6 8-29 18-57.6 24.9-87zm645.4 555.7c24.6-.3 48.7-7.4 73.2-9.6 52.3-7.2 104.6-15.5 157-22 10-10.6-3.9-30.9-4.8-45.2 1-22.5-24.4-11.7-38.3-13.9-52 1.2-102.3-13.4-149.3-34.2-26.1-9-48.6-29.7-70.9-41.8 6.2 33.7 11.8 67.7 18 101.4 4.9 21.8 8.8 44 15 65.3M1714.9 586c11.9 16.5 29 29.8 42.9 45 12.7 8 18.7 21.2 27.3 30.6 20.6 0 41 0 61.4-2.2 20.2.9 40-3 60-2.1 22.1-3.1 44.4-.8 66.5-3.9 23.5.5 46.8-2.8 70.3-2.3 15.3 1.8 13.7-10.3 11.2-21-3.4-17.2-3-35.2-8.5-51.9-26.4-1.5-53-.6-79.5 1.3-22.7.4-45.6-.9-68.1 2-23.5.4-47.1-.9-70.5 2-21.5.3-43-.3-64.5.6-16 3-32.4.6-48.5 2M1385 1323c29.8-5 59.6-9.6 89.4-14.8 30.6-4.7 61.2-9.8 92-13.7 14.5-9.8-5.9-34.4-6.4-49.8-6.7-22.1-13.8-44.1-20.3-66.3a3148 3148 0 0 0-90.8 7.8c-25.4 4-51.2 4.8-76.6 9.3-8.7 20.7 4.6 48 3.5 71.5 3.6 18.4 1.5 38.8 9.2 56m230.7-571.3c-19.9-1.5-39.6 2.7-59.6 1.7q-26-.4-51.6 2c-19.8 0-39.5-.4-59.1 2-20.7.3-41.6-.9-62.1 2-22.2.3-44.5-1-66.4 2-23.4.2-47.7-1.1-70.4 3.4 12.7 20.6 26.1 43.4 41.8 61 19.8-.4 39.7-.5 59.4-2.6 21 .9 41.7-3.2 62.8-2 18.2-3.6 37-.7 55.2-4 27 0 53.8-3 80.8-3.9 16-3.7 41.5 6.2 50.5-9.8 6.8-17 13.6-34.3 18.7-51.8m442.2-96.4c-17.4-4.7-35.6 1.5-53.5.2-19 1-38 2.5-57.1 2.5-17 3.5-34.5-.6-51.5 3-16.6.4-33.2.2-49.6 2.5-20.3-1.1-40.3 2.2-60.5 2.6 10.9 25.8 23.4 53.8 39 74.9q26.7 1 53-1.7c22-.3 44 1 65.7-2 21.7-.2 43.5.8 65-2 20-1 40.4 2.4 59.9-3.1zm189.5 218.2c-20 7.7-40.3 15-60.2 23 7.8 8.9 29.3 10 41.7 15.8q194 63 387.8 127c10.4 5.1 18.7-4.6 27.7-8.3 8.8-5.4 19.6-9 27-15.9-20.6-8.8-43.7-14.9-65.2-22.6-117.2-38.9-234-78.9-351.4-116.9l-3.7-1zm141.8 1528c.8-15.7-11.8-30.2-17.2-45.3-13.2-27.1-24.2-55.3-37.1-82.6-15.2-4-30.8 3.5-46 5.2-29 6.2-58.3 10.8-87.1 17.6-7.6 12.8 12 33.1 16.3 48.7 12.4 25.5 24.3 51.2 38.1 76zm171-330c-11-5.8-32.7-4.3-20.9-21.6 3.8-10.4 13.3-39-6.2-23.6-11 4.1-28.6 25.4-36.3 15.2 1.6-8.9 6.2-18.6-8-13.6-32.3 4.6-64.7 9.3-97 13-7.9 11.3 15 29.7 19.6 43.2 10.3 10.4 14.5 36.6 32.8 31l265-47.2c-4.1-10.8-13.3-19.4-19.5-29.3l-19.8-27.2c-7.3-7.1-17.5-6.8-11.3 5.1 3.6 14.3-16.3 28.8-17 7.7-7-26.8-20.8 7-30.5 12.7-8.6-5.6 6.5-32.2-10.7-24.7l-19.7 15.4c-4 11.8-6.8 24.4-11.7 35.7zM1979.4 971.6c22.1-40.8 43-82.4 63.9-123.8-12.2-1.8-31.8-1-46.7.9q-54.4 1.8-108.7 4.7c-28-4 19.4 35.8-11 33.7-12.4-1.4-9.3 13.7-11.3 21.8-2.4 23-7.4 46-8.3 69 16 6.3 36.6 1.6 54.1.8 14.8-2.3 29.5 1.3 43.9-3.8q12.4 1 24.1-3.3m-435.3 205.7c7.7 25.4 15.8 50.8 23 76.4 7.7 11 2.9 40.8 20.8 37.4 36.3-4.1 72.4-9.3 108.7-13.3 10-5 44.4 4.2 34.2-15-11.1-29.8-22.7-59.5-32.7-89.7-14.9-14.8-41.9-.4-61.7-3.9q-46 4.9-92.3 8.1m-245.5-129c-22 1.5-44.3 1.3-66 4.4-5.6 13.2.6 27.1 15.3 21.4 18.1-2.1 37.2-5.7 55.8-3.9 8.9-4.8 25.5 1.4 17.7-15.1-5.8-10 11.8-31.6 5.6-12.7 18.9-2.3 37.8-4.3 57-3.7a572 572 0 0 1 54.7-4l66.4-5.3c15.2-1 39-8.2 46.6-7.6 7 10 12.5 31.2 27.3 30.5 19.2-2 39.2-.7 58-6.3 16.3-.4 33.3-3.5 49-3.1 25.8 3.5 53.1-3.3 79.4-3.2 21-2 42.2-2.3 63.3-3.3 24.9-1.8 51-2 74.8-7.1-3-9.8-33.7-22.3-19.8-26.3 19.5.6 38.4-4.4 57.9-3.6 10.9 1.5 37.4-1.7 22.7-14.7 7.7 3.8 16-6 2-5.3-14.8 0-29 4.9-43.7 2.8-9 .9-18.2 3.6-27.1 1.6-9.7 1.4-19.3 4.5-29 1.4-20.9-5-4 32.5-28.3 24.9-20.8 1.2-41 4-61.8 4.3-14.6 3-30.2-.6-44.6 4-16.6 1-39.4 5-58.2 3.7-15-1.3-29.5 5-44.4 3-11 .3-39 9.3-39.4-2 4.3-4.1-5.6-11.6-8.6-15a138 138 0 0 0-39.7-1 1041 1041 0 0 1-71.4 2.4c-26.9 3.7-54.2 3.6-81 7.5-29 2-64.7 1.4-89.6 8.5-.7 7.6.9 15.4-.9 22.8m855 70.4c82.8 31.6 165 64.7 247.7 96.7 17 4.1 32.7 12 21 29.6-7.6 21-15.8 41.9-22.8 63 6.3 15.2 32.6 16 46.8 26.2 17.2 6.7 35.3 12 50.8 22 7.9 3 13.2 1.5 14.3-7.5l31.7-84.3c-1.2-13.5-25.8-12.3-36.4-19.8-178.2-68-356.3-136.6-534.6-204.2-7 15.3-12.4 38-12.8 54.1 3.5 3.9-14.5 16.9-3.2 24.2 8.5 2.2 16.5 7.6 25.3 7.6 8-20.9 10.7-43.5 17.8-64.6 17.2-.7 38.7 13.7 57.4 19.2 20.5 7.4 41 17.3 61.4 23 22.5 2.9 24.7 32 18.6 49.4q-6 19.3-11.2 38.8c5.7-3.8 9.5-22.4 13.7-33 5-13.5 8.2-27.6 14.5-40.4m568.6-130.4c-45.2-16.8-91.7-30.3-137.7-44.8-60-19.3-120.5-37.5-180.6-56.7l-101.3-31.3c-13.7 3-38.8 7.5-43.2 17.3l419.6 139.8c14.5-7.9 29.1-15.7 43.2-24.3m-15 577.8c-12-.6-13.8 12.8-8.5 22.5 1.8 9.6 31.2 25.3 11.1 26.9.8 7.5 6.5 11.6 11.4 16.3 6.5 14 18.5-12.1 23.5 7.7 6.4 14.3 8.6 6.3 11.5-3.3 9.2-1.7 15.3 15.3 27.4 9.3 7-23.4 35.2-26.3 49.6-8 4.3-9.4-7.3-32.9 12.2-21.8 8.3 1.6-5-16 9.6-11.3 18.3 3.3-13.7-22.5 7.8-24.2 2.8-3.2-10.8-13.6-10.4-1-3.5-11.1-8.5-22-5.6-33.7-.2-18-12 21.8-22.5 2-8.8-7.8-12.9-2.3-20.7.7-5-9.6-9.3-26.6-21.4-12.6-9.6 5-24 32.8-26 7 0-15-8-23-22.8-17.8-26.4 2.1 15-31-7.7-28-7-.7-23.3 3.2-21.6-7.2 11.2-19-16.9-4.8-9.2 8.7 7 8.6 5.4 19.3 7.2 29-1 11.7 2.5 24.2 5.2 38.8zm-805-530c-17.5-3.4-34 8.2-51.5 4.5-15.2-1.7-30.3 1.3-45.6 1.3-23 .4-45.9 2.7-68.7 3.7-19.2 1.7-38.4 2.2-57.6 3.5-25 1.5-50.6 1.7-74.9 7.5-8.7-.5-32.4-4.5-30 7.2-3.9 15.1-7.7 46.3 16.4 35.2 27-.7 53.4-3.4 80.5-4.2 23.3-2.8 46.8-2.9 70.2-5 25.3-1 50.6-4 75.8-7 23.1-2.5 46.3-4.4 69.4-3.8 17.2 1.7 15.5-31.8 16-43m-579.9-159.5c21.6.9 43-3 64.6-1.8 19.8-3.4 40.2-.6 60.2-3.5 27.5.4 54.8-3.2 82.3-2.5 15-4.3 31.6 1.5 46-5.2 4-14.8 18.8-37 13.5-48-21.4-.6-42.8 2.8-64.3 2.6-34.9 3-70 3-105 5.6l-64 2.8c-17.4 1.1-34.9 1.1-52.3 2.7-17.6-4.4-10.2 7.6-4 15.1 7.6 10.7 13.5 23.1 23 32.2m-377-175.6c20.3.8 40.5-2.6 60.9-2 15.4-3.7 34 1.3 47.5-4.6 14.5-28.7 29.5-57.4 42.8-86.7-16-9.7-48.1-2.1-70.4-2.5q-44 0-87.7 3.2c-1.5 16.7 2.3 33.4 2.1 50.2 1.3 14.2-.4 28.9 4.7 42.4m1130.2 84.7c-3.6-15.1.8-39.4-11.4-48.2-26.2-.6-52.5 2.8-78.8 2-23.6 2.8-47.5 1.4-71.2 2.2-28.2 2.7-56.6.9-84.8 3.6-10.5.7 1.8 12.2 2.9 18.3 7.5 11.6 9 30.6 21.8 35.5 19.5-4 39.5 0 59-3.7 21.8 0 43.5-2.3 65.3-2.6 17.9-2.7 36.1-.4 54-3.6 14.4-.5 29.3 1.4 43.2-3.5m-203.8 838.1c-26.7 24.3-57.3 45-92.2 55.1-42 14-86.8 24.7-131.2 17.8a418 418 0 0 1-143.4-37.2 735 735 0 0 1-58-35.5 201 201 0 0 1-66.6-85.4c-5-6.8-11.2-37.5-11.7-15.3.5 31 21.4 56.4 36.8 81.5 29.6 45.7 76.9 75.6 127.6 92.3 41.5 17.6 86.6 22 131 24.8 32.8-3.2 66.1-4.5 98.1-13.4 37.5-10.8 79-26 103-57.3l7.5-26.1zm-902-532.7c20.7 0 41.1-2.6 61.7-3 27.6-2.6 55-6.7 82.6-7.7 5.2-3.6 12.8-15.5 7.7-20.6-17.8.2-35.8 5.7-54 4.3-19.7 1.8-44.6 5.4-61 .1 2.1-31.5-31.4-14.3-49.2-13.3-10.2-9.2-41 2.5-57.3.1-20.3 0-40.5 1-60.7 2-1.4-19-7-36.2-28.7-27.8-14.6.8-30 .7-43.7 4.8-7.4-3.4-16.5 0-24.6-.8-14.5.7-29.2 4.3-43.7 2.6-19.9 1.9-40.2.6-60 4.5-14-4-24.1 1.6-36 6.5-15 4.9-6-2.7 2.2-5.5-14.6 3-19.8-1.3-17.9-14.5-7-7.7-15.6 18.3-22.9 24.6-7.9 9.1-10.2 19 4.8 13.7 25 .2 48.1-3.2 72.6-4.2 19.7-1.8 39.4-2.2 59-4 29.6-.5 59-3.6 88.4-5.8 15 3.2-18 25-4.8 24.6 31.8-5.5 62.9-3 95.2-6.8 15.7-2.4 31.6-3 47.5-4 18.7-2.8 39.2-.9 56.5-8.7 10.6-5.6 2.1 11.3-1 15.7zm196.4 904c48.5-4.7 96.4-14.5 144.8-20 40.8-5.6 81.4-12 122.1-18 39.2-6 78.4-10.8 117.5-16.4a623 623 0 0 1 71-2c11-4.8 30.1 3.5 35.6-9.7 4.5-13.8-7.6-22.1-28.4-12.4-20.3-3-40.7.3-61.1.2-15.6 3-31.7 1.5-47.3 5.1-31 2.6-61.7 9-92.8 11.8-56.8 8-113.7 15.1-170.4 23.3-27.7 2.5-55 8-82.6 10.3-12.3.8-5 21.5-8.4 27.8m1189.5 22.6q33.6 59.3 69 117.4c18.9 3.1 38-5 57-6.6q136.5-22.7 273-44.5c12.9-7.5-13.2-23.6-16-34l-40.2-55.8-13.8-12.8c-10.5 0 6.7 26.8 13.1 33.7 11.7 16 22.9 32.3 35.2 47.7 10.4 6.2 0 10.2-7.3 7-67 10.8-133.8 24-200.9 35-31 5.8-62 11.2-93 17.3-15.2-19.6-26.8-42.2-40.6-63-5.6-11.3-29-33.8-3.5-33 33.5-4.9 67.1-8.8 100.3-15 7.8-2.4 12-24.1-3-15.5-41.5 6.1-82.8 13.8-124.4 19.7l-2.2 1zM1681.7 590.1a1367 1367 0 0 0-30.2 83.7c16.3 21.6 30.6 44.5 46.5 66.3 8.1-6.6 12.9-17.2 19.6-25.4 16-22.4 32.5-44.8 47-68-14-16.8-30.8-32.2-46-48.2-10.1-6.7-22.2-30.4-31.2-24.5-8.9 10 .6 17.3 7 24.4 17.8 20.1 35.2 40.7 53.1 60.8.2 8.3-8.8-6.5-12.2-9zm170 212.1c4.7 14.1 12.6 27 18.6 40.7 3.9 10.5 15.5 4.7 23.8 5.7q32.3-1.5 64.4-3.4c15.2.4 30.3-1.1 45.3-2 15-1.7 33.8 2 46.2-6.5 6.6-15.3 16-29.3 21.8-45-24.3 1.4-48.8 1.3-73 3.7-24.8-.5-49.4 2.8-74.2 3.3-16.4 1-33 .4-49.3 2.5-7.9.7-15.8-.6-23.5 1m-899.8-31c21.3-10.6 54.3 6.3 69.1-12 10-18.8 20-37.8 28.8-57.2-12.3-3.4-32.4 1.3-47.7.2-19.1 2.5-38.6.4-57.6 4.3.2 19.6 1 39.4 3.4 59 .5 23.9 3.9 47.6 3.9 71.6 11.6 16.8 38.5-2 41.7-20.3 5.2-14.6 22.6-35.2 17.4-47q-29.4 2.5-59 1.4M603.2 920.5c8.1 5.5 7.9 24.1 12.8 35.1 7.8 24.8 12.9 50.5 22.5 74.5 9.9-1.3-2.3-18.6-2.6-27-7.3-27.3-15.7-54.5-22.4-81.9 3.3-6.7 14-3.6 20.5-5.8 31.6-1.7 62.9-7.2 94.5-9 9.7 37.4 18.5 75.1 27.8 112.7 12.3 14.6 4-13 2.5-19-6.4-30.8-14.2-61.4-19.9-92.3 12.4-3.7 32.2 22.4 46.4 29.6 4.3 26.6 7.9 53.5 13.9 79.8 10.2 11.7 15.6-3.1 10.4-13.4-4.4-23.5-7.4-48-14-70.7-5.4-3.3-9.5-10.7-15.8-11.3-14.7 4.4-9.9-19.1-25-21.2Q706.4 863 658 826c-7.4 2.2-9.9 12.4-14.9 18.3-23.7 38-49.5 74.8-72.3 113.3-.5 14.4 10.9 28.9 14.5 43.6 6.6 9 5.3 31.3 18 31-8.2-22.7-17.5-46-26.1-68.8zm98.7-83c17.3-27.4 31-56.9 47.4-84.8 10-18.5 21.2-36.3 30-55.4-10.2-10-26-27.3-37.8-27.1-24.5 36.6-50.4 72.3-75 108.8-8.7 10-18.9 24-.8 30.5zm1008.8 944.8c22.4-3 45-5.3 67.3-9 16-6.5 28.8-19.5 40.7-31.6a229 229 0 0 0 29.4-43.2c4.7-7.8 14.2-32.2 6-29.4a253 253 0 0 1-90.1 43.4c-21.8 7-52.2 3.5-68 12.6 4.5 18.3 7.9 37 13.2 55.1zm-923-1053.9c21.8 1.7 43.7 0 65.4 2.8 18-1 35.7 2 53.6 2 10.3.2 20.7-.1 31 .5 3-16.4-1-35.8-1.3-53.4-1.1-11.5-14-4.7-21.7-5.9-40.2 2.7-80.9-.8-121 3.8-8 7.8.4 21.1-1.5 27.6-4.6 4.4-2.2 13-4 19zM2169 1128.8c-13.4 27.2-20.2 57-31.5 85.2-4 19 30 18 42.1 28.2l184.2 80 30-13.5c9.4-26.8 19.1-53.5 28.2-80.5zm-621.9-99c-21 .8-41.8 6.2-62.7 6.6-17.7-1.6-35.9 3.8-54 2.8-16.8 1.4-33.7 2.4-50.4 4-17.6.5-42.4-2-53.6 7.9-4.7 11 14.5 19 3.1 24.4-2.5 17.2 20 .6 30 5.6 41.5 2.4 82.7-6.3 123.7-9.8 15.4-3.6 32.1.6 46-4.9l20.8-6.4c-.7-9.6.3-21-2.9-30.2m-411.8-332.3c35.5 42.5 74 82.3 109.8 124.5 12.8 10.2-1-19.7.2-27.6-1-24.5-15.6-44.3-29.2-63.6-4.6-7-20.6-34.5-15-10.8.1 15.4 3.5 30.7 3.9 46-8.5-6.8-5.5-38-9-53.8.3-18.8-15.2-32-23.7-47.3-12.4-18.1-24.3-36.7-36.9-54.6-4.7 10.4 2 33-.1 48.5zm1210.8 636.7c8 6.3 18.8 9.3 28 13.9 45.4 16.7 94 37.2 137 51.6 10.7-5.4 22.7-9.4 32.6-15.6 1.2-10.7 5-11.5 13.9-5.4a148 148 0 0 1 26.6 14.7c9.2 8.4 43.3-3.4 19-9.6-18.1-6-36.9-20.4-56.8-19.4-12.4-2-9.2-3 1.2-5-8.2-13-41.8 1-22.3 12.4-22-5-42.6-19.8-64.8-27.5-11-3-22.5-3.3-30.3-12.7-18-6.6-37.1-21.8-56-7.6-9 4.7-20.6 3-28.1 10.2m-952.5 67.2c21.5-22.7 46.4-45.8 77.7-55.9a307 307 0 0 1 104.9-29.5c6.2-3 1.4-21-7.4-18l-171.6 27.3c-22.2-2-8.4 23.7-9 37 1.9 13 4 26 5.4 39.1m1259.1-351.7c-11 0-16 15-23.6 15l-63-21a920 920 0 0 0-23.1 66c13.2 11 34 14 50.5 20.8 12 6.3 27.2 10 29.2-8.2 10.6-24 22-47.7 30-72.7M1016.6 1136c19.9.2 39.4-4.5 59.3-5 14.1-.9 29.3 2.3 42.3-4.8 1.1-15.8 3.3-48.9-21.3-39-25.4-1.2-50.7 7-75.3 6.1-16.9 2.7-34.6-.6-51.2 4.2-6.9 9.2 5.5 10.6-.4 19.9 1.6 12.7 3.6 34.7 26.1 21.3zM782.2 700.8l-76.5 139.3c15.5 11.6 30 24.8 46.6 34.8a499 499 0 0 0 23-57.6c3.3-30.1 3.7-60.4 6.2-90.5-.6-8.6 1.4-18 .7-26m51.3 229c18.6-3.6 37.5-2 56.1-4.6 16.9-2.6 42.5 2.6 53.1-7.7-6.9-4-16.9-1.2-25.1-2-17.4.2-34.5 3-52 2-14.8 4.8-38.5-3.7-47.7 7q11.5 58.5 25.2 116.8c7 14.6 30.8 3 46.2 5.7 15.4.8 30.2-3.2 45.6-2 19.2-3 38.6-2 57.8-4.6 19-.1-.6-29.3 1.6-41.3L978.8 915c-9.4-5.5-2.5 14.2-1.4 21 5.3 28 11.6 55.9 16.3 84-7.9 15.8-35.8 1.7-49.7 9.2-28 .7-56 4.3-84.2 4.6-8.4-9.5-8-23.5-12-35.3-5.3-21.6-11.1-43.2-16-64.9-.7.5 1.7-5.3 1.7-3.8m1664.4 504.5c13-15 3.7-28.8-13-32.4-44.5-19.7-88.4-40.7-133.5-58.7-15.8-18.4-32.6 28.8-10 29.4 8.3 1.7 24.9 14 20.9-.4 11.2 6.3 13.5 11.9 22.2 17 20.9 9.7 42.3 18.4 61 32.3 17.8 4 33.3 22.5 52.4 12.8M694.2 1080c13.9 4.2 27.5-5.2 41-1.2 16-5.9 40.3 7.4 44-16.4 9-7.5 7-14-4.4-9.6-23.4 1.9-46.9 2.7-70.1 6-10-.6-19.6-1.6-29.5 1-15 1-30.2.5-45.5 2.5-17.4.8-34.5 3.3-52 3-12.6-1.9-30.7 1-19.5 16.8.5 18.4 12.3 4 18.2 6 7.4 5.6 23-1 33.7.4q33-1.9 65.7-5c6-1.8 12.2-2.3 18.4-3.5m94.1 745.6c17.2-69.6 30.9-140.2 46.8-210.1q11.5-52.8 22.6-105.6c4.1-15.9 29.2-5.7 42.8-11.1 14.3 5.5 26.2-12.4 8.5-15.7a1426 1426 0 0 1-56.4 6.4c-6 16.5-8.4 34.3-13 51.3-17.4 75.1-34.3 150.3-51.6 225.4-4.3 21.7-10.7 43.3-13.9 65.2-1 11 14.3-12.3 14.2-5.8m947.9-546.2c-28.2-1.2-56 6.4-84.1 8.2-22.3 1.7-44.4 6.4-66.7 8.4-12 12 6.5 19.4 17.4 14.8a38 38 0 0 0 21.2 3.8c44.4-.9 90.3 2.6 131 22 7.8.1-2.2-12-2.8-17.2-5.6-13.3-9.8-27.2-16-40m-629.9-603.6c-32 48.5-61 98.8-92.1 147.8-8.3 13.9-15.4 27.9-25.8 40.5-7.6 16.4-19.2 30.2-28.2 45.8-5.9 8.5-11.2 15.3 1.8 10.8 7.4-1.5 9.2-11.8 14-17.3 42-68.7 83.4-138 125.2-206.8 11.6-14.1 21.8 13.5 31.5 20.5q44.8 49 89.5 98.3 38.9 41.4 76.8 83.6c4.8-9-11.6-20.8-18-29.4-31.7-34.5-62.1-70-93.3-104.9-25.4-28.9-51.5-57.1-76.6-86.3l-2-1.5zm544.1 2.7c-8.1 15-12.4 32.2-19 48-6 15.5-16.2 33 1 45.2 8.5 6 20.4 38.1 29.8 22.6 11.2-16.8 24.2-32.5 34.1-50.1zm-196.8 320c4.8-19.6-1-40.2-.6-60.2-10.4-10.7-34.5-.5-50.3-2.3-11 1.2-29-.9-20.3 17.6 2.4 15.4 1.5 31.2 4 46.5 19.4 8 45.8-1.8 67.2-1.6M1580.8 883c-4.9-19.9-45.4-16.2-36.1 8.3-3 25.9.3 52-3.2 77.8.5 15-6.5 41 17.8 31.2 13.7 1.3 20.6-3.6 17.8-16.8.7-23.6 2.6-47 2-70.7-1-10 1.6-19.8 1.7-29.8m602.6 24.8c68.3 25 137.5 47.2 206.1 71.3 78.5 26.7 156.8 53.7 235.7 79.2 9.6-12.9-15-14.2-23.8-18.4-123.5-40.5-246.7-82-370.1-122.6-15.9-5.1-31.8-9.7-47.5-15.3-4 .2.5 4.2-.4 5.8m-547.2 1038.3c-39.1-9.4-79.6 1-119.2 3.5-37 5.9-74 10.8-111 16.4-58.8 7.8-117.3 17.4-176 25.2-18.4 3.6-37.5 4.6-55.4 8.9 14.5 3 29.3 5.4 44 2.2 61.8-9.4 123.7-17.9 185.6-27.3 58-7.8 115.8-17.8 174.2-23.6 17.8-4 45.5 4 57.8-5.3m-170-948.5c18.9-.1 37.4-2 56.1-3.6 1.3-21.2 1.8-43-.2-64-17.2 4.5-43.7-4.7-58.4 5.4-.3 20.6-2 41.9 2.5 62.2m-229.5 122.6c26.7 1.4 53.9-5.8 79.4-5.3 14.2 3.7 9.8-9.4 9.3-18 3-15-3.4-30.3-21.5-22.3-20.9-.6-41.9 2.2-62.7 4-19 .5-5.6 31-4.5 41.7M655.2 819c17.5 9.5 32.2 24.3 48.5 36 21 16.4 41.6 33.1 62.8 49.1 11.4-8.3-16-20.1-23.4-28.4-30.6-23.6-60.9-47.6-92.4-69.9-19.4 24.4-34.4 52.2-52 78C576 919.6 552.5 955 529.9 991c16 8.5 23-18.3 32-28.7 31.1-47.8 61.4-96.2 93.4-143.3M2116 1206.7q11.1-31.2 18.8-63.4c1.2-11.7.9-25.9-9.9-33-10.3-4.5-19.7 3.4-24.6 12.7-6.6 15.2-16.1 31.8-17 48.8 1.6 14.4-12.3 33.5 4.6 42.5 9.7 8.9 21 .6 28.1-7.6m-745.6-268.6c-16.2 5.4-53.7-8.5-48.9 18.2 1 16.6 1.2 33.5 3.7 49.8 14.1-3 41.8 4.6 50-6.5a714 714 0 0 1-4-55.4l-.3-3zm915.4 13.5c-10.2 17-17.1 38-22.5 57.5 77.5 29.3 155.4 57.6 233.3 86 12 9.8 18-12.3 3.3-11.4-75-26.9-149.7-54.5-224.9-80.7-5.7-14 15.9-36.5 11.1-51.3zm480 392c-17.5 26.6-33.5 54.1-50 81.3 9 9.2 30.4.1 42.1-4.6 17.1-9-1.7-36.3 23.5-35 1-11.7 26.2-26 8.8-32.5-8-3.3-16.5-5.8-24.5-9.2m-1314.2-423c-1.4-17.6 9.3-56.8-30.2-36.6-14.3 3.2-29.2-.6-43.3 2.7 4.2 13.1-7.4 47.3 19 37.8 18-1 36.5-2 54.5-4m1306.9 1166.3-330.8 54.1c-14.7 13 4 10.3 13.2 7.6 88.4-16.2 177.2-30.6 265.6-46.9l47.8-8zM1653.9 806.6a334 334 0 0 0-33.4-43.2c-5.9 1.9-5.7 12.8-9.1 18.5l-12.4 34.2c7.7 12.1 23.1 48 34.4 19.7 6.8-9.8 13.1-19.8 20.5-29.2M1489 1593.4c15.2 11 7.6-2 10-7.4 4 6.6 9 12.5 9 0 3.2-20 7-39.9 10.5-59.8-2.5-10.5-20-17.2-24.7-19-1.6 16.1-16 31.6-8 47-13.4-4.3-14 28.4-1 32.6q2.9 2.7 4.2 6.6m722.7-668.5c-9.1 16.2-15.3 33.8-22.7 50.9.2 11 27.7 17.5 36.3 15.4l20.7-55zM890.3 954c3.7 19.1 6.2 38.7 13.5 57 12.2-2.1 24.8-.9 36.9-3.3-.5-14.1-5.4-28-7.6-42.1-1.3-7.6-2.7-19.5-13-15.6-9.4 1.1-19.2.7-28.3 2.7zm571.4-33.6c19.8-1.8 41.1 0 60.6-5 .6-15 7.7-44.3-17.4-34-13.4.8-27.2-1.4-40.2 2-6.1 4.6-1.7 14.8-3 22zm981.8 125.4c3-13 7.7-25.5 10.4-38.5-9.9 9.7-6.5 40.2-24 33.8-17-9.3-47.5-10.4-56.9-24.5l11.3-32c-6-6-7.6 10.7-10.3 15.1-3.2 5.4-5.8 26.6-13.1 17-14-6.8-35.9-8.8-45-18.7 3.1-11.4 7.5-22.4 10.2-33.8-7.2 3.5-7 13.9-10.6 20.6.8 18-29.4 14.1-20.4-2.8 2.8-8.7 6.7-17 8.5-26-7.4-3.2-6.3 10.5-9.5 15-2 8-7 15.5-6.4 23.8 40.4 16.6 82 30.6 123 46 33.4 11.8 66.2 25.7 100.1 36.1 9.5-4.5-4.4-9.2-9.4-10.9-5.4-5.4-9.5-2.6-16.6-5.7zm-1698.2-38.3c-6.3-12.7-1.8-40-19.8-40.2-15.6 3.2-49.6-5.4-36.7 20.9 1.8 14.5 3.7 30.9 21.9 23 11.6-.5 23.4-.3 34.6-3.7m-24.7-93.1c-13.8 1.9-36.7-2.7-44.8 8.5 4.2 18.5 2 47 28.5 38.3 15.6 0 36 .5 24.1-19.4-3-9-4.1-18.7-7.8-27.4m1670.6 71.4c-6.5 14.3-20.7 36.9 4.7 37.5 15.2 1.2 41.3 23.7 46.2 1 6.2-11.4 9.4-23.7-7.9-24.8a597 597 0 0 0-43-13.8m-1099.4-87.9c3.3 34 3 68.4 5.7 102.4-5.4 16.8 9 22 20.4 15-1-24.3-3.3-48.4-5.2-72.6-2-11.6 1.3-25.4-9.8-32.9zm641 258c-18.6-13.6-40.9-20.8-61.6-30.5-9.8 1.2-10.2 32.3 5.2 34l50.6 25.1c10.5-11.4-.5-21.8-11.9-24.8 6.7-2.7 18.9 10 17.7-3.9m14.7-54c-23.5 4.4-46.5 13.1-70 16.6 6.3 8.4 24.7 9.3 34.8 17.6 7.4 3.2 13.7 12 22.3 8.3 13.5-1.4 25.2-9 38.7-10.5 3.1-5.6-11-6.8-15.3-10.5-16.7-1-8.1-8.5-10.5-21.5M941.1 948.3c-.2 19.4 5.6 44.5 14.6 60.5 12.5-2.7 35.2 2.2 25-17.9-3.5-14.6-5.2-29.6-9-44.1-9.3-4.7-21-1.7-30.6 1.5M1059.8 699c-8.1 8.5-7.2 21.8-10.7 32.7-2 10.4-5.1 21-6.5 31.4 4.8-1.2 7.7-11.3 11.8-16l30.4-48.9c1.1-20.5 10.7-51.6 6.4-65.6-10 22.3-24 43.3-31.4 66.4M673.2 962.4l-8.5-42.3c-14-2.3-28.5 1.9-42.2 4.6 5.5 13.9 2.7 43.3 23.6 40.5 9-.3 18-2.4 27.1-2.8m1334 139c7.4 6.1 18.2 7.3 27 11.3l55.2 20c6.6-9.4 15-20-1.3-21.7q-35.9-13.3-72.1-25.5c-6-1.4-19.5 15.8-8.7 15.9zm-1083 389c13-63.9 23.7-128.3 35.4-192.5l9.2-53.7c-8.7-10-6.8 20.2-10.3 26.5l-40.3 209c1.6 3.8 2 8.5 6 10.7m1163.5-353.8c-13.7-8.6-30.7-11.7-45.9-18-11.8-.5-32.4-20-38.4-5.7-7.3 21.4 28.2 19.5 41.1 28.7 12.1.4 35.7 21.6 40.5 4.7zm-760.2-225c-14.7 6-6.4 24 8.4 15.5 10.2-1.1 21.1 1.8 30.8-1.9 3.8-13.3 6-43.7-16.3-37.9-14-1.3-31.6-.3-24.3 18.4-2.2.1 3.4 6 1.3 6M2517 1129c12-24.8 20.1-51.6 30.5-77.2 14.6-14.8-18.3-26.6-17.8-6.7-9.2 25.4-17.5 51-26.5 76.5.3 5.9 9.7 5.6 13.8 7.4m-517.4-1c-16 24.2 21.5 24.6 35.4 33.5 13.7 2.3 34.3 20.8 44.3 13.1-1.4-6.4 3.8-17.3-5-19zm-1192.5 73.2c-3.5 17.7-14.4 43.3-17.9 55 15.2.3 12.6-19 18-29 14.9-49.1 31-98 45.8-147-12.8-10.8-16.8 25-22 32.3-1.2 10.6-7.9 21.6-6.2 32.4-.4 11.3-12.4 19.1-8.5 31.6-4.8 7.2-17.2 15.8-9.2 24.7m1100.6-160.6c13-2.4 25.7-5.8 38.6-7.5 12.1 5.4 1.2-14.8 12.1-20.4 9.6-18.6-25.8-5.3-37.2-7.7-10.8.4-42 .4-19.6 14q10 9.1 6.1 21.6m711.4 345.9c10.4-12.1 16.5-28 25.3-41.6 6.2-13 17.8-27 20.3-39.6-8.1-2.8-18.2-11-20.7 2.9-12.9 23.7-26.6 47-39 70.8zm-1489-782c-3.8-11.3-14.7-25.2-13.6-6.1-2.9 23.1-7 46.1-9 69.4l23.3 24.4q1.3-32.6 0-65.1a58 58 0 0 1-.7-22.6m1246.7 376.9c-16.3-5.9-47.4-28.2-50.2 1-12.7 22.2 19.5 21.5 33 28.5 9.5 3.7 8.4-11 12.4-16.7zm-1740.6-7c5.8 12.6 3 37 17.8 40.5 13.7.5 36.7 1.5 26-18.2-.1-17.6-7.6-31.5-27.2-24.9q-8.3 1.1-16.6 2.5m1815.2 67c15 5.2 44.6 25.5 47.8-.9 16.6-23-18.4-23.8-32.8-29.8-9.8.6-11.4 22-15 30.8m-988.3 475.7c4.8 12.7-3.5 5.2-7.7 9.3-10.2 17.7 4.3 33.6 15 42.3 1.4-9.3 8.2-18.8 3.2-28-.7-11.7 13.8-16 13.9-28.3 7.6-10.2-3-14.4-10-19.6-2.7-13.4-9.9-22-11-4.4-2.4 9.4-9.6 26.5 2.9 11.5 13.5-3.1-8.5 12.7-6.3 17.2M1587 895c-3.3 12.7-3.3 30.9-3.5 45.9-.3 19 .5 38.1-1.6 57.1 4.2 10.7 17.3 21.9 13.2 3 .2-18 3.4-35.8 2.8-53.9.6-14 3.9-34.1.7-45-5.7-1-11 .3-11.6-7.1m-300-58c-12-18.8-24-37.8-37-55.6-3.1 11.8 4.4 39 8.9 55.2 11.7 12.7 22.6 26.6 34.8 38.7 3-5.4-2.2-13.7-2.7-20.3zm-80.3 141.2c6.8 14 5.6 30.4 8.5 45.6.4 8.3 3.7 17 .9 25.2-13.4 4.4-28.6 2.9-42.7 2-13.4-3.6-40.2 13.2-37.2-11.2.4-18-11.2-38.7-3.4-55.2-15.6-8 .9 29-1.2 40.3 3.4 12.8-1.6 39.6 19.3 30 22.2 1.4 47.5-3 68 2.3 2.2 9.2 2.7 17.6-10.2 14-16.8-.3-33.4.1-50 2-7.2-2.3-29 1.6-11 3.6 23.2 1.1 46-3.2 69-2 16.4-2.5 2.6-27.6 5.6-39.4-.8-16.2-3-32.2-3.1-48.4 8.5-16.7-30.3-11.9-12.5-8.8m479.2-.6c2.2 14.3-12.9 43.8 12.3 39.6 20.7 3.3 25-12.8 24.4-29.3 5.7-15.7-13-13.7-23-11.3-4.6.6-9.2 1.2-13.7 1m-93.4-84.2L1620 854c-5.5-10.5-14-19.3-20.8-29.1-7.3.2-7.1 15.8-11.5 21.6-6.6 12-8.5 26 0 37.4zm-651 193.8c-8.6 21-11.8 48.3-18.3 71.6-2 21-16.9 48.2-11.5 65.9 15.3-2.7 10.7-27 16.5-39.3 6-26.6 12.4-53.3 17.1-80zm1592 260.5c9.6-27 21.2-53.4 29-81-11.5-11.5-15.7 1.7-18.5 11.2l-29.8 78.5c4.2 2.7 12.3-6 18-8l1-.6zM856 956c8.1 20.6 3.8 69.2 35.9 51.5-5.6-17-2.6-46.2-18-54.2zm1494.8 1065.7c-7.7 11 4 21 8.4 30.7 18.4 31 35.9 62.5 54.1 93.6 12.8 3.8 2.7-21.6-4.1-27.4l-56.4-95.7zm311.6-978.2c-11 23.5-20.3 47.7-31.2 71.3 2.5 5.4 9.2-9.3 13.4-13.4 17.2-24.4 36.5-47.4 53-72.3 3.2-11-10.4 2.2-15.7 3.6zm-1806.7 28.2c5.6 5 14.5.4 21.6 1.2 21 .2 42-4.9 62.9-3.6 9.5 8.8 2.2 33 12.8 40 16.3.7.7-18.6 14.6-24.4 8.4-9 19.5-34.7-3-23.2a469 469 0 0 1-64 6.4c-14.8 1.4-30 1-44.9 3.6M2641.1 1296c-12.8 18.1-21.1 39.2-32.8 58-19 .3-18.7-14.9-9.5-27.4l18.4-37.6c-6-10.6-11.9 4.7-14.3 10.7-6.7 13.6-12.2 28-19.7 41.2-4.6 1.6-23.8-2.5-17.3-10.7 5-8.7 12.3-32.6 2.4-12.5-4.2 11.1-17.8 26.2 2 28.2 13 .9 34.3 24.8 41.9 9.4 10.2-19 21.7-37.6 31-57 .4-1.5-1.1-1.5-2.1-2.3m-85.7 87.5c-4.1 9.3-22.9 26.6-6.6 33.2 5.6 4.2 13.5-1.7 18.2 5 13 15.3 21.3-7.3 21.8-19.6a177 177 0 0 0-33.4-18.6m-304.3-445.2-29.4 76.8c17.4 18 20.4-17.5 26.5-29.1.1-13.4 26-45.6 3-47.7m-600.8 39.4c-6.5 14-13.9 52.4 12.7 39.5 20.8.8 8-26 13.7-38.8-8.7-1.8-17.6-1-26.4-.7m423.1 217c10.3-12.2-1.5-16-11.3-19l-64.2-25.9c-8-2.3-11.9 13.6-1.3 12.8zM843.2 932.8c7 27.9 12.8 56.3 20 84.2 16.8 10 41.6.3 61.7 2 17.2.2 34.1-3 51.4-2.1 19.1.9 5.7-12.8-6.8-7.5-19.4 4-39.4-.3-58.8 3.8-14.5-4.2-41.2 8.9-46.3-6.5-6.2-24.2-11.3-48.7-17.8-72.7l-1.2-.9zm-40.8 420.7c5.2 11.7 12.1 20.2 13.4 3.8l19.7-72.4c-3.1-10.9-9.5-20.3-11.3-3.8zm1802.1 16.7c-17.2-10.8-45.3-15.1-56.5-28 9.3-23.2 18.8-46.2 27.4-69.6-10.5-10.9-13.7 22.2-19.3 28.8-2 15.4-22.5 36.4-12 49.1a145 145 0 0 0 42.8 20c7.7-3.4 14 13.5 17.6-.3M1187.1 1048c-3.2-15.7 6.8-47.9-18.6-40.6-19.3-2.4-5 23.3-6.1 35 3.5 3.8 17.4 3.7 3.2 5.3 7 1.3 14.4 1.8 21.5.3m780 121c4-11.1 16.6-40.5-5.6-27.5-20.7-.8-31.2 29.2-23.8 40.1a113 113 0 0 1 29.4-12.6m-233.3-193.1c1 11.4-5.7 32.2 2.5 36 21.1 4 27.3-13 25.8-31 2.7-11.3-12.4-4-19-5.5zM599.4 2197.2c-22 3.2-1 20.3-8.4 32.2 13.4-6.6 32.4-14.6 37-29.1 0-10.7 0-20.4-12.3-9.4-6.3 3.6-13.2-1.8-16.3 6.3m231.6-1179c-2.4-23.3-8.8-46.4-14.8-69.1-7.2-12-15.2-8-10 4 3.8 22.4 7.4 45 13.2 67.1zm1551.9 1019c21.8-.3 43.8-5.4 65.7-7.7 12.8-4.7 38.1 1 42.6-10.7-5.5-7.2-17.8.3-26.6-.2q-41.5 5.7-83 12.3c-3.5 1.5.8 4.3 1.3 6.3m250.5-983c13-8.2 27.8-13.1 41-21.4 14.9-9 34-14 41.5-31.3-.8-7.3-21.2 10.6-28.8 13.9a739 739 0 0 0-50.3 25.8c-8.2 3.2-4.4 8.3-3.4 13M758.7 967.7c5.8 12.7 0 38.5 17.7 39.2 14.5 3.6 12.2-8 9.6-17.2-2.5-6.6 0-17-6.3-20.7-6.7-2.6-14-1.7-21-1.3M1008 819.2c4.6-2 7.1-11 11-15.5a117 117 0 0 0 21.6-50.5c1.4-6.8 10.8-41.8 1.7-22.6-10 21-22 41-29.2 63.2q-2.3 12.8-5.1 25.4m147.9 1058.1c-15.6-1.6-30-23.8-40.4-23.9 12 21.4 29.7 38.8 48.6 54.1 5 3.7 19-14.3 5.6-15.8l-18.5-10.1c-2.3-3 3.3-3 4.7-4.3M2241 1020.5c21-10 22.9-36.1 31.4-55.2 7.2-8 5.7-26.1-5.2-19.3-9.9 24.4-16.9 49.8-26.2 74.5M777.2 939.7c-9-6-34.7-31.3-27.2-8.5 2.7 9.6 3.4 21.1 8.4 29 7.6.3 15.6 4.2 23 1.3zm946.6 23.7c3.6-11.1 2.1-23.8-11.7-18.5-12 .4-31.6-2.7-26.7 16 .5 10.3 13.9 3.7 20.9 4.8 5.8-.7 12 .2 17.5-2.3m-735.1 57c-23.4-3.3-46.8 2.6-70.3.7-16.4 6.6-47.5-6-55 9.6 19 1.9 37.9-2.6 57-2.2 17-1.6 34-2.4 51-3.5 4.6-1.2 19.2 3.1 17.3-4.6M2607.8 1348c10.3-15.3 17-32.9 26.5-48.7 3-14.2-18-6-17.4 5.7-4 12.4-20.6 30.2-15.6 40.4zm-593-269.5c11.1 7.6 25.3 9.9 37.8 15q24 8.5 48 16.1c10.2-9.7-21-11.7-26.7-17-18.5-2.8-42.2-24.7-57.9-16zm-1392-64.7c-1.1-18-6.1-43.1-30-34 6.7 13 6 40.7 27 34.5zm523.6 55.2c22.8 1 45.4-4.8 68.1-.5 7.6-17.6-25.4-9.4-36.3-11.3-8.6 2.8-41.3-5.4-31.8 11.8m643.5-60.1c3.6-16 10.2-44.8-15.6-34-3.1 15.7-10.2 41 15.6 34m936.5 1053.4L2690 2012c-6 5.7-14.3 3.7-4.8 12.9l29.6 40.4c4.2.8 8.9 1.1 11.6-2.9M1452.6 1518c3.4-18.4 19.1-38.6 9.4-56.8-3.4-15.4-13.4 1-4 5-9.5 10.8-6.1 24.4-14.6 29.9a19.6 19.6 0 0 0 9.2 22m677.3-296.6 32.1-94c-8.6-4.3-9 10.6-12.3 16.3-9.6 26.8-19.5 53.4-27.9 80.6 1.6 3.9 5.6-2.3 8.1-3M1208.5 1004c-25.5-7-9.9 28.6-10 42.2 24 10.2 11-21.5 11.5-34.7zM620 2172.7c13.8-.9 8.1-4.8-1.7-6.5-8.5-7.6-36-21-21 6l5.8 15.2c7.7 5.3 35.4-10.6 16.9-14.7m1977.5-893.4a393 393 0 0 0-24.1 52.5c15.3 11 17-22 25.4-31.3 3.4-8.3 12.7-19-1.3-21.2m-595-213.6c-7.1 31-15.3 61.8-22.9 92.8 3.8 8.8 7.5-7.3 8.6-12.1l22.3-78zm62.6 168.8c4 21.6 42.2 21.6 38.4-2-12.3 5.4-30.4-8-36.6-5zM956 895.6c7.5-15.3 12.9-31.7 19.7-47.4-8.1-7.8-29.2-3-22.2 13.5.2 11.3 1.8 22.6 2.5 34m155.1-300.4c-9.4 10.3-11.9 25.3-13.6 39 0 13.6-9.9 43-3.2 47.5 9.8-14 8-32.1 11.6-48.2q3-19.1 5.2-38.3m568 350c-12 4.4-33.4-3.7-30.7 15.4-4.8 14.1 28.2 9 28.7.5zm85.1-2.4c-16.2-4-40.4 5.4-25.4 21.4 9.8-2.5 26.7 3.3 26.1-11.8q.5-4.9-.7-9.6M1528 880.4c-1 37-.4 74-.3 111 5.8 4.5 2.7-14.3 3.6-20-.7-18.7 2.8-37 2-55.8-.6-11.7 1.4-24.1-1.5-35.4zm-641.4 49.3c-4.4 21.3 23 12.2 35.6 11.5 15.7-16-17.2-15-28.5-11.7zm434.2-24.4c4.5-18.5-9.2-32-18.4-46.2-14.1-22.7-3.3 11.1-1.1 21.1 3 9.7 12.4 17.9 19.5 25.1m1211.9 510.2c3.3-7.8 8-15.4 10.5-23.3-16.3 2.3-44.7 29-34.4 41.5 8.4-5.4 15.7-12.4 23.9-18.2m70.5 10.5c8-2.5 9.5-13 14.3-19.4 17.8-32.4 38.3-63.4 54.9-96.4-5.3-5-8 9.5-11.7 13.4zm-85.7-398.6c-5.3 11.9-24 37.4.3 37 2.2-12.3 22.6-36-.3-37m-1906.6-57c-1-16-11.3-62.2-24.8-6.7 5 7.8 8 19.3 24.8 6.7m771.3-35.5c19-1.2 38.2-2 57.3-3.9 13.4 5 18.1-12.1 2-6.6-19.3 2.6-43-.7-59.6 6zm-611-44c1.8-18.7 1.9-37.5 4-56-3.2-3.2-5.6 11.7-8.4 16.1L756 878c3.7 5.6 10.1 8.5 15 13m1373 1391.2c13.3-2.8 42.8-4.8 27.6-23.3-4-16.2-13 3.5-18.8 9.4-3 4.6-8.1 8.2-8.8 13.9M1159.1 996.7c13.6 1.5 32 2.3 22.8-16.8h-27.3c1.5 5.6.1 12.3 4.5 16.8m1521.3 315c-21 32.2-39.1 66.6-59 99.7-8 19 11-7 12.8-14 15.5-28.3 32.6-55.8 47-84.6zM1138.3 1006c5.5 12.8-4.7 41.6 12.2 42.7 2.5-11.1 1.2-33.4-4.7-42.7zm-397.5 423.4c29.5-5 59.5-6.3 89-10.6 19.1-2.5-22.2-2.2-29.6-.9-22 .8-43.5 5-65.4 5.7zM2560.7 2063c3.1-8.7 10.8-27.8-4.3-20.1 0-8-.7-28.4-4.6-10.5l-6.5 26.7c4.4 2.8 9.9 6.9 15.4 4m-419.4 119.8c5-2 11.4-26.2-2.8-18.7.3-12.2 4.5-44.4-9.7-19-4.5 8.7 3.4 16.2 6.2 24.3q3 6.8 6.3 13.4m-689-755.2c-6 20.4-17 40.6-15.4 62.3 3.1 6.7 5.1-11 7.8-15.4l12.4-37.5zm342.5-467.2c9.3-15.6-5.4-24.4-19.5-17.2-3.7 14.4 1.6 23 15.5 17.7zm-1046.2 59c-12.2-3.3-25.5 1.3-38.4.1-9-3.2-21.7 5.8-6.2 7.6 11.7-2.2 41.7 4.2 44.6-7.7m713.3-90.5c19.6 2 38.9-2.4 58.5-2.2 7.4-14-20.6-2.7-29-5.3-7 2-29.8-2.3-29.5 7.5m92.7 109c-5 10.5 6.6 21.4 1.2 30.3 1.2 13 14.6 27.1 10.5 7.3a39 39 0 0 0-11.7-37.7m-998 1059.8c11.7-3.7 38.8-1.5 40.2-9-9.8-7.9-22.4-1.7-33.7-1.8-10 1.6-9.3 2.8-6.5 10.8M2707.8 1474c-2-7.8 12.4-14.2-2.6-16-22.9-8.8-16.8 34.8.5 17 .5-.1 1.7-1 2.1-1M850.6 931.7c-4.5 18.7 24.1 17.8 27 8.6 1.4-17.5-17.8-5.5-27-8.6m911.6 849.5c-15.7 2.7-42.3-1.5-50.4 11.6 10.8 9.2 36.1-7.5 50.4-11.6m537-794c13.8 12.7 20.3-20.5 18.1-27.2-10.5-6.8-10 8.7-13.6 14.9zm-979-48.5c14.4-4.2 41.2 3.3 48.6-7.3-13.7-3.6-39-3.6-48.8 4zm1239.7 104c-10.3 9.7-13.4 31.4-20.6 46-3.9 7.2-13 35.8-.8 18 7-21.4 15.2-42.6 21.4-64m-1476.4-18.5c-2.7-12.1-2.5-25.2-7.7-36.7-10.6-2.4-5.6 7.3-4.9 13.6 2.2 8 1.2 17 6.3 23.8zM2793.6 1378c3.7-2.7 21.4 5.3 27.9-2-4.6-4.3-7.1-13-13.2-14.7-8.4.2-11 10.6-14.7 16.7M2395 1040c-35.4-14.6-72.3-26.4-108.3-39.9-13.2-.8 19.2 8.6 24.7 11.3 27.3 9.9 54.4 20 81.9 29.2zM982 861.2c10-11 28.1-42.1 20.7-50-6.4 14-15.6 27.2-19.5 42.1zm1097.5 352c-11.7-4.4-10 11-.6 13 9 9 36.3-2.8 15.5-5.2-6.9.9-10-3.8-14.9-7.8M685.3 1028c-1.3-12.8-28.1-6.6-34.8-2.9 3 10.5 17.8 1 25.8 3.8q4.5 0 9-.9M2585 1430.4c11.6-6.7 24.7-16.4 23.8-31.3-10.3 1.1-11.5 8-16.6 15.2-3.3 5-5 10.6-7.2 16m-1458.3-358c-10.1 9.4-4.9 35.6-.8 39.3 8.5-12.2 3-26 .8-39.3m-59.8-48c-2.4-9-.7-41.4-12.5-34.8l6.1 34.8zm369.9 434.1 16.3-48.8c-12.7 12.2-20.5 31.4-16.3 48.8m-54.6-456.2q-1.7-25-3.1-50.3l-4.4-14.7c.8 14.2.4 28.5 2.7 42.5.8 7.2-2.3 17.6 3.3 22.1l1 .3zM2711.5 1432c-4.3 9-21.6 24.8 5 23.6 5.6-7.8-2.5-16.1-5-23.6M936.6 939c9 2.3 42.6.8 29.1-9.5-1 11.9-24.4 11.4-24.8-1.3-8.6-8-6.2 6.4-4.3 10.8m1768.8 403.3c18.8 1.4 17.3-17.2.7-15-7 1.4-.4 10.9-.7 15M770.6 1021.8l19.2.5c7.9-12.6-24.9-13.6-19.2-.5m421.4-41.4c-6.7 14.3 18.5 21 14.6 5.3-4.4-2.8-9-8-14.6-5.3m-113.8 53.5c-5.4 10.4 13 39 9 14.9-1.8-5.6.2-18.1-9-15M2688 1346c11.1 3.3 22.2 13.2 32.2 15.3 1.8-5.1-12.4-5-12.5-11.8-9-2.6-10-32.2-10.7-13.7 4.1 10.2-1.2 11-9 10.2m-740.4 389.3c-7.4-8.2-29-20.2-16.6-1.5 3.4 7.8 11 5.8 16.6 1.5m-261.3-760.5c12-1.7 24-1.5 35.9-2.4-3.3-10.5-27.4-1.2-35.9-1.3zm-542.6 5.3c-2.9 6.5-10.2 12.2-7.1 19.8 13.9 5.6 13-13 7-19.8m83 1071c-10.1-9.4-31-4-12.2 6.5 5.4 5.3 8.2-4 12.2-6.5M609 1021.6c-3.8 12.4 20.4 13.3 18.7 4-2.4-7.4-12.7-2.6-18.7-4m453.7 11.8 3.8 26.8c12.4-1 5.4-26-3.2-26.8zM812.3 940c1.8-11.7-12.2-21.5-23.4-18 8 5.8 15.4 12.3 23.4 18m-117 76.2c16.5 1.5 36.5 1.5 51.3-3.7-16.4-1.4-34.9 1-51.3 3.7m1067.2-45.5c-.5-10.3-28.6-5.2-28.3 1.6 9.5 2.4 18.8-2.4 28.3-1.6M582.7 2208.9c-17.3 6 6.9 30.7 5.2 9.3q-1.3-5.4-5.2-9.3m1313.7-614c-5 1.3-8.4 10-12.8 14-9 9.7 1.5 8.2 7.4 2 3.4-4.1 3.4-11 5.4-16m721.6-116.5c9.5 2.7 31.1-4.8 26.7-10.4-8.7 7.2-15.3 2.8-23.7 7.5zM946.7 1008.2a245 245 0 0 0-11-51.6c2 17.3 6.1 35 11 51.6m846.8-44.4c-6 1.5-15.3.4-19.5 3.5-2 6.2 27.5 6.2 19.5-3.5M670.3 918.9c-2.2 23.6 21.3 86.7 0 0m977.2 54.7c8.4 5.7 43.7-2.9 19.2-3.3-6.2 1.9-13.8-.8-19.2 3.3m-915.2-9.5c-11.8-3.3-33.4-1.3-48.2 2.8 14.8 1 29-2.9 43.8-2zm511.2 1228.6c3.3 12 35.3 12.6 14.9 2.6-4.9-1.3-10-1.3-14.9-2.7M681 971c-3 6.3 1.7 15.6 2.5 23.1 2 4 1.3 19.3 5.8 15.3-2.9-12.7-4-26-8.3-38.4m1045 40.7c3.9-8 4-35 1.2-30.4a66 66 0 0 0-1.1 30.4m38-4c5-2.2 2.3-13 4.2-18.7q1.2-7 .4-14.2c-6.4 6.1-3.4 23.8-4.6 32.9M597.2 2192c-8.5-7.4-17.8-7.2-12 7.2 4-2.4 9.3-3.2 12-7.2M926.5 944c-11.3 1.6-23.3 0-34 3.2 3 4 31.1.8 34.4-2.7zM633 968c11.8 5.5 27.3 0 40.3-.2-12.1-3-26 .6-39.1.1zm1495.4 1149.7c-9.9 3.4-10.2 31.3-2 13.7.9-4.6 2.3-9 2-13.7m33.7 71.2c-11.1-3.6-19.2 15.2-7.4 10.3a23 23 0 0 0 7.4-10.3m-426.3-393.3c7.8 4.3 34.5-9.5 26.5-9.4-9 2.5-17.6 6.7-26.5 9.4M964 924.5c-6.3 1-14.6-.8-16.6 7.1 6 2.7 13.6.8 16-6.3zm834 48.8c-1.4 9.5-4.3 45.2.7 19.6-.3-6 5.8-15.6-.7-19.6m-614.1 1043.9c1.8 17.7 25.8-5.4 4.6 0zM1372.2 887c-2 9.8.3 34.1 3 33.6q.8-17-3-33.6m1351 458.5c-11.9.7-13 9.3-.7 10.1a9 9 0 0 0 .8-10m-1419-440.8c3.3 7.8 17.8 10.1 8.2.5-5-4.7-5.8-12-8.2-.5m-449.4 45.4c4.4 6.9 36.3-3.2 15-2zm116.4-8c-7.7-2.3-35.4 1-28.9 2.7 9.7.9 19.4-1 28.9-2.7m707.3 75.6c4-11.6 2.1-24.3 2.2-36.4a198 198 0 0 0-2.2 36.4m674 643c-6.5 7.4-23 29.4-6.2 12.7.7-2.7 13.3-12 6.2-12.6m284.2-194.7c10.6 0 29.4-20.4 10-7.8q-5.4 3.3-10 7.8M820.3 1074c-8-5-17.8 4.2-26.2 0 8.8.6 18 5.6 26.2 0M1457 919.9c1.8-6.6-.8-43.7-1.2-28.4v27zm664 287.4c-9.7 4.1-11.4 25.2-2.5 9.7q2-4.6 2.5-9.7M682.9 1017c-11.6-.8-58.5 1.7-7.1 2l5.8-.7zm1118.5-56.2c7.1-7 1.4-28.3-.6-9.4-.4 3.1-.6 6.4.6 9.4m368.7 1268c-16-13.6 1 22.1.5 2.8zM1769.3 963c4.2-8.3 2-31.7-1-10.4-1.1 3.4-1.5 7.4 1 10.4m925.3 379.7c1.7-12.5-14.6-12-5.3-1.7zM1457.4 935.6q-.1 15.6.1 31.3 2.6-15.7-.1-31.3M2646.6 1430c6.3 9 27.5 9 9 2.4a27 27 0 0 0-9-2.4m-1598-444.8 28.5-.4c-9-1.1-20.3-3.2-28.4.4M2556 1519.8c12.8 2.6 30.3-27.7 0 0m11.4 2c16.2 2.5 17.7-16.4 0 0M1729.8 966c1.5-4.7 1.8-26.2-.3-16-1.2 5.3-2.6 11 .3 16m-879.2 15.4c-1.7 10 8.3 31.5 3.1 10.5zm1720.3 945.2c-12.4-8.9-14.5 9.7 0 0m-1424.8-847.4 23 1c-7.1-2.2-15.5-.5-23-1m63-.9c-6.4-3.4-43.6 1-3.6.5zM975.6 865.2c-2.6 5.8-8.8 21.7 0 7.7.8-2.5.3-5.1 0-7.6m1656.8 981.3c11.3 3.5 24.1 17.6 29.4-1.8 4.5-15.4 16 5 19.6-11.2 6.4 8.3-9.3 15.5-14.9 11.9-4.5 4.4-6.5 12.9-12.5 14.7-6.9 1.3-11-7-16.7-9.8z"/></svg>