<svg xmlns="http://www.w3.org/2000/svg" width="1200" height="795" fill="#0a141e"><path d="M710.7 308.7c-2.7-.6-12.1-3.2-10.6-3.9q5.3 1 10.2 3.2zm84.9-101.2c-2 2-4.8 3.7-5.3 6.8-.2 4-3.1 8.5-1.6 2.1 1.8-7.8-11-3.4-15.7-5.1-4.1.5-13.2-.7-4.9-.8q9-.2 18 .7c4.2 1.3 6.1-3.6 9.5-3.7m-86.5 105.8a54 54 0 0 1 12.8 5.6c-2.1.6-9.4-3.2-12.8-5.6m28 16.4c2.2 1.2 8.5 9 3 4-1.1-1.2-2.8-2.2-3-4M699 304.8a260 260 0 0 0-31-5.5c-4.2.2-8.6-.3-12.7.2-4 3-10.8-3.6-13.9 2.9-.8.5-3.9-3-3.4-2.9 4.3-1.1 7.8-4.3 12.7-1.9 4.4.3 8.9 0 13.2 1 9.4-.6 18.8 1.6 28 3.6 2.4.8 5 1.1 7.1 2.6m-69.4 2.3c5.1-1.8.6-8.6 7.8-7-4.3.6-4.9 6.4.7 4 4.3-.5 8.6.3 2 1-3.8-.3-7 1.4-10.5 2m74.3 17.8c-3.6-4-9.9-1.2-11.6-.3.3-5.5 10.9-4.3 11.6.3M690 348.5c-3.5-2.2-1.4-8.6 2.5-7.7-.5 1.2-2.8 4.5-2.5 7.7m33.7-3.9c-3 .8-10 8.2-6.2 1.6 1-2 4.3-3.4 6.2-1.6m-19.4-32.1c-4 0-10.6-5.2-2.3-2.3 3 1 11.8 4.5 2.3 2.3m-59.9-8.5c4.3-1 9.3-2.3 13.8-1 2.9.5 14-.3 12.2 1zm72.9 21.8c-5.5 2.7 1.3-4.7 4.4-.3 6.4 1-.3 11.8 1.2 4.4-.3-3-3.4-3.2-5.6-4.1m33.1-84.9c-1.9 2.8-14 8-6 2.8a20 20 0 0 1 6-2.8m-418.5 58.3c1.8 2.3 4.5 6.5 2 9-1.3-.8-1.7-6.8-3.4-9.3.8-5.6 4.9-5.3 1.7-.5l-.2.4zm16.2-.1c1.2 4.6-2.8 7.6-1.8 1.2-2-2-5.9-8.5-1.8-7-.5 2.6 2.4 3.9 3.6 5.8m-25.4 13.5c.3-4-4.9-12.1-1-12.7-1 4.4 3.9 7.6 1.8 11.7zm470.9-84.7c-7.8 1.2-16-.6-24-.9-7.1 0-14.3-1.4-21.5-.8-4 1.5 1.4-2 .8-4 1.9-6.7 3.4-13.6 5.5-20.4 3.3-4.4 9.1-.8 13.7-1 10.3.7 20.5 2.4 30.9 2.9 3.8 1 .8 5.5.2 8zm1.9-20.3c3-3.6-4-2.9-6.7-3.4-9.7-.5-19.3-2.4-29-2.9-7 .4 6 8.3 1.7 13.5-4 8.3 7.8 4.2 12.4 5.2 3.8.3 13.6 1.5 4.4 1.6-6.7-1.2-13.5-.7-20.3-.5-2 1.2-8.6 3.6-2.6 3.7 6 1 12.2 0 18.1 1.3 5.3-1.3 13.7 3.7 17-.9 5.6-1.4 5.7-12.8 8.5-18.2-.2-1.6-2.6.6-3.5.6m-34.4 3c-2.1-3.9-6.4-11.6-6.7-3-.9 4.7-5.1 13.6-3 15.5 3.4-1.8 8.8-2.6 8.6-7.3zm-127.9 7.7c-1.3.3-10.3-2.2-5.2-2.2 2 0 3.7 1 5.2 2.2M123 195c3.6 2.2 10.4 12.7 3.4 5.3-1-1.8-3.2-3.1-3.4-5.3m386.5-45.1c-3.6.3-16.9-4.3-7.2-2.4q3.8.6 7.2 2.4M363.3 252.3c2.8-.7 5.6-2.3 8.3-2.5 3.4.8 2.2 5 3.2 7.7.2 3.4 2 6.9.9 10.2-6 1.1-13.3 6.5-12.3-3.5q-1-6-.1-11.9m9.9 12.7c0-4.3 0-8.7-1.3-12.8-8.4-1.7-7.8 7.3-5.8 12.8 0 4.8 5 .4 7.1 0m-12.1-29.2 10.7-2.5c4 6 2.6 14.5-6.2 13.9-6.7 6.3-4.9-7.9-4.5-11.4m1.3 1.7c-2.2 7 3.3 9.6 8.5 5.9 1.7-2.7 1-9.8-4.1-7-1.5.2-3.1.1-4.4 1.1m16 26.7c-1.6-3.9-3.9-15 1.4-14.9 2 2 1 5.6 1.7 8.3.1 2.6 2 7-2.5 6.6h-.4zm-18.1-15.9c-8.4 7.3-6.7-10.3-1.4-10.3q.9 5.2 1.4 10.3m19.5-4.6c-6 2-6.7-9-3.6-11 3.7 1.7 4.2 7.5 3.6 11m496.5-33.1c4.5-1 7.5 8.5 2 7.4-4.3.8-13.5-.7-6.6-5.7q2.2-1 4.6-1.7m.1 2.4h.1zm-.2 3.5c4.3 2 5.3-4.7.7-3.7-1.1.4-.3 2.7-.7 3.7m.1-3.5c-3.7-3.8-7.8 5.8-3.7 2.6-.3-3 2.6 3.3 3.2-1.8zm-10.2 13.9c-3.4-.3 1-6.3 2.1-2.7-.3 1.1-.9 2.3-2.1 2.7m-155-9.3c3.5-2.3 4.8-5 4.9-9.4 3.4-2.7-4.3-10.2.4-7.5 7.3 1.9 14.9 2.5 22.3 4 1 3.3 0 10.4-.3 11.8-3.6-2.5-8 .2-12-.4-5.2.2-10.5-.8-15.3 1.5m6-2.3c5.1 0 10.3.3 15.3-.8 5.4 2 7.4-7.7 4.2-9.2-5.8.2-15.3-5.3-18.9-.7.7 3-4.5 10.7-.6 10.7m-79.8 17.2c-3.9-.7-3.1-6.8-.9-2.4 3.7 1.2 1.4 9.9.9 2.4m111.8 155.7c9.4-1-10.8 6.1-3 .9l1.4-.5zm-68.3-12c-.5-4.5 1.5-8.3-4.7-9.8-3.4-1-6-7.1-.7-3.4 3.3 3.9 7 1.8 8.7-.4 1.5-1 6.7-5.3 3.4-.5-4.5 4-2.9 4.2 1.6 2 2 3.1-7.5 2.8-6.8 7.8zm22.6-13.5c5 1 3.2-4 7.4-1 5.4 3.2 9.9-2.8 13.2-3.7-4 3.4 3.5 4.6-2.1 5.8-6 0-13.5 2.9-18.5-1.1M671.1 304q13 .8 25.1 4.9c-.6 1.6-7-1.3-10-1.9-.3 4.3-3.7-.6-5.6 2.6-.6-1.4-1-2.4-4-1.5-6 .5 1.6-3.2-5.5-4.1m-32.5 20.3c3 3-1 3.4-2.7 2.3-.5-4 1.5-9.6 6.4-8.4 2.7-.5 4.4 2 6.6 3.1-2.1 2.6-7-3.5-9 .7l-.6.9zm27.8-14.8c-3.8-1.5-5.5 1-9.5-1.5-3.5-1.6-8 7-7 .6 3.2-3.4 14.6-4.4 16.5.9m-53.7 3.9c3.5-1.2 8.7-6 12.1-2.4 4.3 1.8 2.7 6.7-1 1.6-4-3.4-9.2 6.8-9.8 2.8 1-1.9.3-2-1.3-2m91.1-.8c2.2 2.6 5.5 5 5.3 8.7-2.4 4.3-2.7-8.3-8-7.2-2.1-2.7-11 1.9-5-2.3 3-1.7 4.8.8 7.7.8m-58.5-2.7c5.3 4.3-2 2-5 2.8-2.4 3.4-6 4-3.5-.6 1.8-2.1 5.8-2.6 8.5-2.2m4.1 32.8c-.6-6.8 12.7-6.7 9.8-3-4-2.1-9 .2-7.1 4.9-.2 1.5-3-1-2.7-1.9m43.7 37.9c-1.4-3.8 1.3-7.6 1.3-11.5 3-7.8 1.5 9.4-1.3 11.5m-21.2-53.1c1.8-2 9 1 3.9 1-3.2-.7-5.7 2.1-6 5 1.2 8-4.8-3.5 1.2-5.4zM168.3 156c-3.7 1.8-8.2 2-12.3 3.1-4-.8 7.5-2.4 9.5-2.9zM33.6 250.1c4.4 5.3 7 12 10.8 17.9 4 7.4 8.5 14.7 12.2 22.2-1.6 1-3-4.2-4.3-5.8-6.2-11.2-13-22-18.6-33.5l-.3-.7zm28.8-17.9c4.3 4 6.9 9.7 10.4 14.5 3.3 4.7-1.7.4-2.7-2.2-2.5-4.1-6-7.8-7.7-12.3m-13.2-19.5c4 3.8 6.4 9 9.7 13.4-.2 3-5.7-6.7-7.4-9-.8-1.5-2.2-2.7-2.3-4.4M283 108.4c5.4-2.2 12.4 5.4 18.3 7.1 3.4 1.2 9.6 5.8 2.7 2.6-6.7-3.1-13-6.8-19.8-9.6zm10.1 92.7c-3.2-.3-14.3-8.6-6.7-4.7 2.2 1.6 5 2.6 6.7 4.7m258.2-102c7 4 8 14 3.3 19.9-2.6 2.1-6.7.2-8.5-2.2-4.4-5.4-2.7-16.7 5.2-17.7m-5.3 12.1c3.4.9 11.3 1 5.2-1.7-1.4-3.4-1.4-9-1.8-2.4.5 2.8-1.2 3.5-3.4 4.1m6.2-7h.1zm-.3.9c.2 8.1 4-1.7 0 0m-3 11.6c3-5.8-6.3-2.4 0 0m54.3-29.3c-4.4 1.7-15.7 4.7-17 3.2 5.6-1.2 11.2-3 17-3.2M226.9 206.5c-2.4 2-17 3.3-8 1q4-1.1 8-1m219.5 41.1c.3-4.4-2.5-5.8-5.6-5.8.8-5-10.2-2.4-6.8-5.8 3 2.6 7.6.1 9.2 4.6 3.4-.7 3.7 2.3 4.5 4.8 2.7-.2 12.2-5.2 11.4-3.1zm-10.6.9c-4.9-.5-11-.5-10.9-6.4-3.2-1-2.6-5.2.3-1.8 3.4.5.5 5.6 3.5 5.7l8.1 1.3c2.5 1.7-.8 5.3-1 1.2m21.5-15.7c-4-3.7-2.3-3.9.9-1.5 3.8-2 8 7.1 4.2 4.2-.7-2.9-2.8-2.2-5.1-2.7m17.3-3.4c4.5-.6 7.7 6.6 2 2.2-3.8.4-8.6-9.9-3.4-4l.7 1zm-57.8 30.7c-1.7-1.6-9.3-3.5-3.9-3.6 1 .4 4.7 2.5 3.9 3.6M520.7 88.9c-5.4-.6-10.6-2.9-15.9-4.2.9-1.3 5.7 1 8.3 1.5 2.5 1 5.4 1.2 7.6 2.7M561.2 398c-6 5.3-13.7 8.2-20.5 12.2-3.4 1.3-11 7.5-10.5 5.4 8.9-7.3 20-11 29.5-17zm-60.8-13.9c2.1-3.7 12.7-5.9 5-2.3zm21.1-254c-5.9-.5-11.5-3-17.2-4.5-3.5-2.5 8 1.4 10 1.9 2.4.9 5 1.2 7.2 2.6m219.7 116.1c-2.2 3.2-14 7.7-5.7 2.8q2.6-1.8 5.7-2.8m-573-90.2a71 71 0 0 1 18.7-3.9 62 62 0 0 1-18.7 3.9m273.6-7c2.9-1.2 12.5-3.5 12.4-1.7-4.2.5-8.2 2-12.4 1.7m18.7-30.3c3-1.5 6.7-1.7 10-2.3 7 .4-9 2.6-10 2.3m-70.2-24.9c2.8-2 15.2-1.8 6-.4q-3 .6-6 .4m500.3 354.8c3.5 3.1-3.6 7.8-1.4 2l.7-1zm63.7-124.4c1.8 3-1.6 11.6-1.1 4.7.5-.7 0-6.5 1.1-4.7M379.6 212.7c-5.4-.6-10.4 2.2-15.6 3.4l-32.4 9.6c-3.4 5.3-5.2-3.6-4.9-6.5-1.6-12.5-4.7-25-6-37.3.9-3.3 4.8-2.5 7.4-3.5 8.6-2 17.3-3.6 25.8-6.2 6.7-2.3 13.8-3.3 20.7-5.1 4.5 4.4 2.4 12.4 3.4 18.4.8 8.5 2.2 17 2.1 25.6zm-29.3-8.7c-1.4 4.1 2.3 11.8 2 3.5q-.5-2-2-3.5m.1 9.5c-6.3 2.1-16.6 2.3-20.3 6.8 4.6 1.2 9.2-1.8 13.8-2.6 9.3-2.8 19-4.6 27.4-9.5-1-2.4-5 .7-7.3.8-4.2 1-8.2 3-12.5 3.2zm-1.6-2.6c-1.2-6.8-1-14-3.1-20.6-7-.7-9.7 4.3-7 10.3 2.3 6.4-1.8 17.5 10.1 10.3m-15.9-18c-6.3-.6-8.3 4.1-6.4 9.4 1 4.8 1 9.8 2.9 14.4 7.5.8 7.1-5.8 5.5-11 0-4.4 0-8.7-2-12.8m24.1-5.6c-10.2-.4-5 9.5-4.4 15.9-.4 6 3.4 7.4 7.9 3.8-1-6.5-1-13.6-3.5-19.7m6.4 18.6c2.9-.9 8.7.2 6.3-4.7-2.5-5.3 2.3-19.8-7.9-14.9zm6.2-33c-.4 6 .7 12 1 18 1 4.9 0 12.1 3.2 15.6 2.4-5.8-1.8-13.6.2-20-.6-4.6-.6-9-2-13.2 0-1-1.8-.1-2.4-.4m-24.4 11.5c-.3-4.1-1.5-7.7-6.4-5-5.9 1.5-2.1 10.8 3.2 6.2q1.7-.4 3.2-1.2m-19.9 5c5.7 2.6 11.2-6.7 4-7.3-5.2-.3-6.7 1-4.8 5.8q.3.8.8 1.5m24.2-5.9c4.5.2 10.1-4.6 5.2-7.3-4.9.4-8 1.8-5.2 7.3m17.6-4.4c4.5-9.2-12.5-4.3-5.2 1zm-20.2-.4c-1.3 3.3.6 17 2.5 17.5q-.3-8.9-2.5-17.5m13.8 4.2c-1.3 5.5 13.4-3.9 4.6-1.5q-2.4.4-4.6 1.5m-4.9.5c-5.6.5-7.5 4.8-1.3 3.2 2.2.3 4.1-2.3 1.3-3.2m-10.3 3.5c-3.5-1-12.8 4.3-5.3 2.8 1.7-.9 5.6-.2 5.3-2.8m-5.9 28.1c-.3-4.5-2.6-10.9-2-3.2.1 1.6-.7 4 2 3.2M329 190.9c-8.7 1.4 3.7 2.6 4.3-1.3zm45.1 18.6c-2.7.3-7.6 3.8-1.4 2 1.6-.4 5.2-1.7 1.4-2m-38.7-15.4c1.2-3.8-2-13.3-.8-4.5zm14.8-56.5c8.3-1.2 16.4 7.7 14.2 15.9.4 5.7-4.8 8.1-9.1 10-6 .2-11.2-6.8-10.2-12.9-.7-4.6 2-8.6 4.3-12.3zm-2.6 12.3c5.1-.8 3-11.6-.6-4.5-.3 4.5-1.8 10 3.9 8.1 3.4 0 5.1 12.2 5.3 4.7-2.7-5.1 3.1-5.9 3.6-9-.7-.6-4.8 0-5.3-3-1.8-2 1.7-8-2.7-5.1 2.3 3 1 12.4-4.2 8.8m5.3 9.5c-1-2.4-2.4-5.8-5.4-3.4.2 1.9 4.3 6.8 5.4 3.4m5.3-5.4c-2.2 9 4.5.6 0 0m-129 188.1c-5.1-2.7-11.5-1.3-16.3-4.9-6.2-1.9-7.4 8.2-10.9 11.8-2 4-9 10.1-11.8 3.8-.6-2.7 4.6 5.3 7-.1 5.2-4.8 7-12 11.8-17 7.5 1.3 16 3.1 23.3 6.4 2.5 1 11 4.9 3.8 3.4-6.8-6.1-7.5 4.4-11.4 7.7-4 2.3-9.2-4.8-10.6 2.5-1.7 5.9-8.8 10.5-13.8 5.2 4 1.5 9.4 1.3 11.4-3.4 1.9-2.7 3-9.4 7.5-6.2 6.5 4.1 7.9-5.2 10-9.2m5.7 33c2.8-.8 4.5 1.2 6.4 2.9-2.7 1.2-6.2-5.3-7.8 1-2.1 4.8-7.6 5.5-11.1 1.8-2 2-6.9 11.3-7.3 9 2.4-3.4 3.9-7.5 6.9-10.2 2.7.6 4.5 3 7.4 2.2 1.9-2 3.6-4.5 5.5-6.7m-89.4-98.3c-7 2.7-14.4 4.2-20.7 8.3-2.7-1.3-2.8-5.3-4.2-8-3.2-8.3-7.3-16.3-9.7-24.9 7.3-1.8 14-5.8 21.5-7.2 4.9-3 5.1 3.8 6.3 6.8 2.4 8 5.2 16 7.3 24.2zM130.2 262c-3.7-2.4-1.4-13.2-6.7-11.4 3.5 6.3 4.1 15.6-4.8 15.2q2 6.8 4.9 13.2c8 2.1 5.6-13-1.6-9.7 5.5-6.4 7.6 2.2 9.6 6-3-5.6.9-10.5 4.8-12.7-.9-2.8-4.2-.4-6.2-.6m-8.6-10.7c-2.4 1.4-7.6.6-7 4.5.2 5.9 4.2 10.9 9.6 6q-.1-5.6-2.6-10.5m9.7 8.8c7-.4 1.5-10.2-1.2-11.4-5.8.1.6 8.4 1.2 11.4m2.4 14.8c3.7-.7 7.5-2 4.8-6.5-2.3-7.6-9.3 2.6-4.8 6.5m6.1 0c-3.4-1.2-12 5.5-5.3 4.2 1.7-1.2 7-.8 5.8-3.1zm.6-7.5c0-4-2.7-15.5-3-6.3zM125 283c3.1 0 7.5-5.4 1.8-3.1-1.5.7-2.7 1.4-1.8 3.1m-14.2-37.6c1.1 6-4.1-4-1.9-6.6-.2-6.3 6.2-10.3 11.6-12.2 6.3-2.3 15 4 14.5 10.4-7.2 4.2-15.7 7-24.2 8.4m10.8-5.1c-.6-4.2-2-14.9-7.5-8.1-5.8 4.8 4.4 7 7.5 8.1m12.1-3.7c0-4-7-10.5-7.4-2.8-3.9 5.8.3 4.5 4.4 3.4zm-14.8 4.9c-3.6-2-10.2-6.9-8 1 .6 3 6.2.2 8-1m3.7-4.8c1.2-1.4 2-3.5 3-5.2.4-5.1-8.2-3.1-4 1.8zm93.9-90.6c-7.8 2.9-16.5 3.7-24.7 5.6-3 1-7.4.5-1.7-.7 8.8-1.6 17.7-3.9 26.4-4.9m212 5.2c3.2-1.3 12-3.2 12.5-1.6-4.2.3-8.4 2-12.5 1.6m-23.3 183.1c-3.9 3.3-9.2 4.6-13.7 7-2.9 1.1-5.6 3.1-8.6 3.6-.2-1.4 4.3-2.4 6-3.7 5.4-2.3 10.5-5.5 16.2-7zm10.4 369.3c1.8 3.8 6.3 13.5 4.3 14-2.3-3.7-2.9-8.2-4.5-12.2v-.6zm225.2-74.4c3-3.2 10.7-11.9 11.6-10.7-4 3.4-7 8.5-11.6 10.7M900 224.6c.7-4.3 3.8-13.2 5.3-13.9-1.4 4.7-2.6 9.8-5.3 13.9M376.4 652.2v-.1zm-.7-.9c.3-3.2-4-12.5-1.6-13.1 0 3.4 3.8 13 1.6 13.1m13.7 20.3c2.8 1.5 6 14.5 2.2 6.9q-1.6-3.3-2.2-6.9m241.1-31.3c.9-3 12-12.1 5.7-5.2q-2.6 2.8-5.7 5.2m-234.3 33.8c1.5 3 3.9 16 .7 7a13 13 0 0 1-.7-7m9-345.1c-3-1.1-9-7.4-8.8-7.8 3.8 1.4 6.3 4.8 8.8 7.8m-34.2-3.5c-2.4 1.7-11 6-10.1 4.2 3-1.7 6.6-3.8 10.1-4.2m182.4 178c-1.8 3.9-12.8 8.7-5.7 3.6 1.9-1 3.6-3.6 5.7-3.6m-67-110.6c-1.5 2.8-11 7.3-4.7 2.5 1.4-1 3-2.2 4.7-2.5m19.2 40c-2.4 2.8-10.6 6-4 1.5a15 15 0 0 1 4-1.5m91.7 239.6c-1.3 1-6.1 6.7-4.4 3.2q1.7-2.4 4.4-3.2M467.2 406c-2.3 2.6-9.4 3.7-2.9.6.9.2 2.3-2.3 2.9-.6m-32.3 37.5c2.7-3.5 10.9-4.6 2.9-1.3l-1.5.7zm587.3-150.8c.6-3.5-.7-7.7 1.6-10.6a19 19 0 0 1-1.6 10.6M462.9 315c4.1 1.7 8 4.7 11.1 7.9.1 1.1-9.4-6-11.1-7.9m-87.2 116c4-3.4 9.2-5 13.7-7.6 4.7-2.4.1 1.6-2.4 2.3-3.8 1.7-7.4 4-11.3 5.3m457.4 70c-3-5.4-6-11.5-6.1-17.7zm3.7 11.9-2.8-9.1c2.7 2.2 3.3 5.8 2.8 9.1m-59.1-150.4c-2.6 7.3-4.3 15.5-10.4 21-15 14.4-36.2 19.2-56.4 21-6 .1-12 1.4-17.9.3a188 188 0 0 1-61.6-11.7c-17.9-7-35.8-16.3-47.7-31.9-6.4-8-9.7-18.3-8.5-28.5-1.5-13.8 8.4-26 19.8-32.6 17-9.7 36.7-12.3 55.9-13.2 7.6-2 15.2 1.3 22.9 1.2 30.6 3.9 61.9 13.3 85.7 33.8 8 7.4 15.5 16.9 17.5 28 0 4.2 1.2 8.3.7 12.6m-27.9 25.7c-5.2 3.6-11.3 3.5-17.4 5.4-4 .8-7.6 1.7-1.5 1.5 3-1 13.6-3.4 6.3-.5-7.6 2-15.6 2.4-23.3 3.7-5.2.5-1.4-.8 1.2-1.4-6-.5-12.2.7-18.2.9 1.4 1.2 5 .1 7.2.5 1.7 0 9.4-.4 4.6.8-5.6 0-11.3.4-16.9-.7-7.2 0-14.5.6-21.4-1.8-12.3-2.4-24.8-4.2-36.2-9.7-12.8-3.4-24-11-35-18-6.7-6.6-15.3-12-19-21.2-1.2-5-4-3.7-1.6.3 3 6.1 5.8 13 11.8 16.9 6 7.1 13.7 12.1 21.8 16.7 11.7 7.2 25 11.6 38.1 15.4a181 181 0 0 0 80.1 2.8c14.5-3.3 29.1-9.4 38.6-21.4-.7-3.4-3.7 2.6-5.8 2.9-2.2 2-5.2 1.4-7.4 3.4zm0-48.3c4.7-3.3-4.7-10-6.4-13.3-4.7-2.9-1.3 1.4-.9 3-3-3.3-10.9-8.6-11.4-10.4 2.6 1.8 8.7 3.3 4.6-1.5-5.4-1.8-8.5-7.5-14.6-8-7.4-1.2-11-10.9-19.6-8.5-5.7 1.7-8.5-6.7-15.3-5.8-3.4-.6-6.6.8-9.9 1.3-5-5.4-12.1-8.3-19.4-7.4-5.3-.3-11.2 1.3-14.3 5.7-1.4-2.7-4.5.8-7-.6-6-2.4-10.3 4-15.9 2.8-6.2-.8-12.5 6.9-9.8 12.5 5-2.5 1.5 1.5 3.6 3.7-7.2 2-6.4 12.3 0 14.4 1.6-.1 7-1.7 3.4.8-3.5 2.4.9 9.9 5.2 9.1 1.6 2 3.2 1.9 6 .4 1.4 3.4-6.5 3.7-9.5 2-1.8 4-4.3 10-.1 13.1-4.1-2-4.3 3.6-1.6 5.3 2.4 4.8 5.7-2 5.4-4.8 1-4.9 3.5-17.4 9.5-8.8 2.3 4.2 8 3.8 10.2 6.8-3.5 1.6-8-2.6-7.7 3.7-1.1 5.1-6.2 16 3.6 14.3 4.1 3.4 4-3.2 5.3-5.6l2.7-8.2c-.3-5.4 7.3 3 10.4 2.8 4.3-1.1 10 5.6 2 3.2-4.6 2.6-7.6 19.4 2.9 15.4 1.9-5 3.7-15.6 5.8-16.7-.8 5.6-3.2 11-3.5 16.5 2 2 8 3.6 7.2-1.7.3-2.5 1-9 2.6-7.8-.8 4-2.8 18 2.3 8.8 2 0-1.5 7.3 1.3 3.3 1.5-.8 4.3 2.3 6.6 1.4 4.1-2 8 .7 12.7.8 4.3-1 6.7-1.7 11.2-.9 4.9.6 9.1-3.1 13.6-2.2 4.2-3.2 11.9-2 14-7.4 1-2.8 4.8-2.4 7.1-3.7 3.5-3.8 9.5-8.6 7.4-14.8-6.2 1-11 12-17.5 7.2-.4-1.7 6.3 1.6 7.5-2.6 2.7-4.1 12.4-5 9.2-11.4-1.4-3.7 2 2.7 2.4-1.3zm-9.8-17.3v-.1zm3.4 1.4c4.2 2.1 6.2 7 9.2 10.4 3 5.2.3 10.8 4.3 15.8-.9 3.9-3.8 7-4.3 11.1-.3 2.7-2.6 4.8-4.5 6.4-3 .2-3.9 2-6.4 3.5-4 2.7-7.7 6.2-12.2 8.2-5 .5-11 .9-14.1 5.4-8.1-2-16.5 1.1-24.6 0-6.5.2-12.9-1-19.4-1.6-6.5-1.3-13-2-19.2-4.4-5.4-1.5-11-2.2-15.6-5.3-9.2-3.5-18-8-25.1-14.9a30 30 0 0 1-11-14c-4.2-6.2-2.8-13.8-3.5-20.6-.6-9.2 7.5-14 11-20.8 2-8.2 10.3-7.2 16.2-8.6 3.8-2.8 9.3-4.1 13.5-1.5 4-.8 8.5-4.8 2.2-3.4-8.7 1-17.6 1.7-25.8 5.4-9 3.6-19.3 5.6-26.2 13.1-11 8.4-14 24.7-7 36.6 9 16.9 26.2 27.3 43 35.3 16.2 6.7 33 11.8 50.4 13.8 6.7.7 13.4 1.6 20.2 1.5 5.3 1.3 11-.8 16.5-.2 17.7-1.5 36-5.4 50.5-16.2 6.8-5 12.5-12.3 13-21 1.8-7-.9-14.3-4.2-20.3-9.8-16.4-27.2-26.1-44.1-33.8a181 181 0 0 0-52-13.6c.6 5.5 9.2 2.3 13.6 3 8.3 2 14 7.2 22.6 7.5a116 116 0 0 0 21.1 10.9c1.5 4.2 8.7 3.8 8.3 9.3-.4 2.3 2.1 2.1 3.6 3m-109 26.5c-3.4-.7-5.8-4.6-8.2-5-1.2 5.5-4.9 11.2-2.5 17 2.5 4.8 7.8 5.9 7.5-.3.8-4 2.2-8 3.2-11.7m16.1 25a19 19 0 0 0 3.3-14l-6.9-4.8c-2.2 5-3.5 10.7-4.4 16.1q3.9 1.8 8 2.7m-37.2-40c-1.5 5.5-4 10.8-4.9 16.4 1.9 2.2 5.5 2.2 4.9-1.4-1.6-4.8 6.6-9.2 1.8-13zm-3.6-6.6c-2 3.7-2.8 8.2-4.1 12.3-1.2 2.7.8 12.3 2 5.1.8-5.3 4.8-10 3.8-16q-.7-1-1.7-1.4m-6.2 11.6c1.6-4.5 6.1-10.9 2.5-15-2.3 1.8-2.5 8.3-4 11.8-.9 1.9.3 2 1.5 3.2m149.7 12.9c4.8-2.5-1.9-12 0-3.7zm-148.7-30.7c-3.5-3-2.5 10.6-1 3.8zm-.1-8.8c-1-4.8-5.1 9-1.4 2.3l.7-1.2zm76 83.4c3 .8 15.1.4 6.7-.2q-3.4-.1-6.7.2m-112.5-3.6c4.9-4.6 10.9-8 16.2-12.1 2.7-1.3 8.4-8.7 5-2.3-6.4 4.7-12.7 9.8-19.5 13.9-.4-.3-1.3 1-1.7.5m-14-36.6c1.6-2.6 15.5-9 7.7-3.8-2.4 1.4-5 3.4-7.7 3.8m133.4-81.3c-2 3.2-10.8 6.3-3.8 2zM558.6 35.5c-3.4 1.6-7.7 1-11.4 2-13 2.3-26.3 3.2-39.4 5.6-3.8 1.4-15 1-6.4-.1l34.8-4.7c7.4-1 14.9-2.8 22.4-2.8M268 111.8c-4.1 2-9 2.2-13.5 3.3l-21.5 4.5c-3.5-1 6-1.9 8.8-2.8 8.2-1.6 16.4-3.6 24.6-5zm132.4-19.5c7.3-2.4 15.6-2.3 23.3-4 7-.7 17-3.5 22.3-2.6Q432.3 88 418.6 90c-6 .6-12.1 2-18.2 2.2m60.1 26.5c-7.8 2.6-16.4 3.4-24.5 5-2.3.7-8.3.7-2.3-.6 8.9-1.4 17.7-4 26.7-4.5zm-5.5 28c6-2.2 12.8-2.5 19.2-3.7-.4 2-5.4 1.6-7.9 2.3-3.7.5-7.5 1.6-11.3 1.4M370 97c5.7-2.2 12.2-2 18.2-3.1 5 .6-6.2 1.6-8.2 2-3.3.5-6.6 1.3-10 1.1m40.5 57.6a68 68 0 0 1 18-3c-5.7 2-12 2.4-17.9 3.1zm-35.1 168.2c13.4-8.2 28-14 42.6-19.8 15.6-6.6 30.5-15 46.6-20.5 20.5-7.4 40-17 60.5-24.4a281 281 0 0 0 36-15.3 168 168 0 0 1 27.1-10.7c0 2-5.6 2.7-8 4-17.8 6.3-34 16.3-51.9 22.2-20 6.9-38.8 16.3-58.6 23.5a547 547 0 0 0-45 19.5c-16.1 6.4-32.4 13-47.6 21.6-.8 0-1.5 1.3-1.7-.1M477.8 655a28 28 0 0 0 22.4-12.6c8.9-2.3 11.3 9 11.6 15.6-2.5 3.6-1.2-8.3-4.8-8.3.8-6.4-7.2-7.5-9.2-1.3-4.7 5.3-11.6 7.3-18.1 9.1-5.7-1.2-10.6-6.3-16.8-5.4-7.4-.4-13.5 7-14.3 13.9-1 2.7.8 5 1.9 7.5-4.6-1.6-4.7-7.5-3.6-11.3 3.3-8 12.3-14.5 21-11.6q5 2.1 9.9 4.4M369.1 491.9c-1.2-7.8-8.7-6-13.3-2.7-5.6 4-2 16.7-9.3 17.3-3.6-7-15.8-11.2-19.6-2.7-4 2.9-3.3 13.5-7.1 13.4 1.2-6.7 4.4-16.8 10.4-19.5 3.6.6 8-2 10.7.3l6.9 6.6c2.8-5.3 1.6-12.6 6.6-16.7 3.7-3.3 13.9-7.3 14.9.3zM456.9 603c-6.1 1.7-7.9 8.6-13.3 11.5-5.3 3.6-10.5 8.8-17.6 8-4.3-.3-9.1-.8-9.6 4.5-2 2.1-5.5 2.6-7.1 0-.2-2.8 5.2 1.2 5.5-1.6 0-4.9 4.7-6 8.9-5.3 4.3 0 9 1 12.2-2.6 5.5-4 11.4-7.8 15.2-13.6 4.5-3.1 11.4-3.6 15.9-.5 1.4 1.1 7.1 3.5 3.8 4.6-4.4-2.4-8.7-5-13.9-5m-98.1-52.1c-2.2 1.5-13.5 4.6-9 .9 9-.1 11.6-9.5 16.7-15 2-2.8 5.9-3.3 8.8-1.7 3.8 2.3 2-5.4 6-5 6.3-2 13-4 19.5-1.4 3.8-1.3 11.8 7.6 5.2 3.3-8-3.2-17.5-3.5-25.3.6-.6 4.5-2.8 8.2-6.7 4.1-3.5-1.9-6.2 1.8-8.2 4.2zm59.6 37c-4 3.8-8.4 0-12.5-1.2-6.7-1.4-12.2 3.3-16.3 8-4.7.9 4-7.4 6.3-8 5.6-3.2 12.1-1.7 17.4 1.1 2.8.9 3.4-3.2 5-4.8 2-3 3.4-6.5 7-7.8 4.2-2.3 8.3-6.8 13.5-4.2 3.2 2 1.5 6.1-.6 1.9-8.9-1.5-15.8 6.8-19.5 13.8zm-78.7-55c.2 8-4-4.5 1.9-4.9 8-4.6 18.1-2 26.3-6 5.6-4.2 5.9-14 13.8-15.2 3.6-1.8 14.5 1.1 5.3 1.2-5.9-1.1-10.8 3-12.6 8.3-2.1 4.6-5 9-10.6 9.2-7.4 1.6-16 .3-22.2 5.2l-.9 1zm89.2 188.2c2.1 2.6 2.3 12.3 4 10.8-1.3-3.3.2-12.7.3-4.9q2.1 8.7 4.5 17.3c-3-6.3-7.1-11-8.5-17.9-.2-1.7-1-3.7-.3-5.3M601.4 668c7.4-8 15-16.3 23.2-23.4-2.4 5-9.7 10.3-14.1 15.2q-4.3 4.3-9.1 8.2M422.3 325c-3.3 3-7.7 4.6-11.5 7.1.8 2.6 10.8 8.5 3.8 5.6-1.9-3.8-7.4-4.7-9.2-3.7 4.5-1.8-3.6-7.7 2.7-3.4 5 1.3 9.3-5 14.2-5.6m130.8 178.3c5.6-6.3 12.8-11.1 19-16.9 5-2.5-4 5.2-5.7 6.6-4.4 3.4-8.3 7.8-13.2 10.4zM900 224.5c1.2 2.6 4.4-1 2.7-2.8 4.5-3.5 9.1-7.1 12.2-12.1.6-1.7 7.9-6.7 3-5.8-2.5.4-8.5 4.2-6.2-1.4 8.5-2.3 14-10.2 19.2-16.8 5-6.8 8-14.6 11.4-22.2 4.3-4.9 5.7 4.5 5.1 7.6-.5 9.9-3.7 19.5-3 29.4-.1 5.6 0 11.3 1.4 16.7-1.7 8 7.7-2.7 11.2-3.8 7.4-5.5 16.6-9 21.5-17.3 2-3.4 7-11.2 8.8-4.2-1.9 5.6.8 11.2-.7 16.7-2.6 7.3.4 14.5 3.1 21.3 1.9 4.9 3 11.4-1.8 14.8-2.2 1.6-.9 5-3.2 6.5-1.7 1.7-7.2-5-6 1.5-1 6 2.7 11.3 2 17-.4 5.2 4.4 12.9.6 16.8-1.3-6-8-.3-6.5 3.8-.1 5 .3 10.2-.3 15.2-5-2.3-2.8 7.8-7.3 3.4-2.4.3-2.1 6.7-6.5 3.9-3 .9-4.4 2.6-3.1 5.7 1.7 9.7 1 19.7 3.6 29.3 2.5 9.4-.3 20 5.4 28.5.8 3.2 4.4 13.5 8 7.3 2-5.1 10.6-9.3 9.6-14.4-1.2-4.3-11.8-7.1-7.6-11.6.4-2 .1-5.3.9-8-.7-3 2.8-3.8 2.1-6.6 2.6-2.4 8.4-8.3 11.4-8.3-2.1 4.9-8.8 6.8-9.7 12.2-1.6 1.9-3.7 6.8.7 6.3 2.2-2.2 7-6 2.4-.7q-3.6 2.5-2.6 6.7c-.8 3.1 3 2.9 3.9 5.1.7 3 4 2.8 5.3.4 5.5-4.5-3.2 4.9 2.6 3.5 4.2 3.6 8.2 5.8 14 5.7 2.5 2.3 5.5 1.2 7.9 3.3 3.4-1 6.2 1 9.7 0 3-.9 4.4-3.7 5.5-6.4.8-3 3.7-4.9 6.2-6.2 2.6 0 5.5.6 7-2 4.3-2.2 0-5-2.8-5.6-5.4-2.8.6-1.8 3.1-.5 3.4 1.4 7.3-3.1 9.1-3.8-1.8-3.9-2.5-8-3.8-12.1-2.9 1.8-5.9 5-9 1.4-3.9-1-3.5-6.4.1-2.2 4.8 3.5.3-3.5 3-5 1.8-4 10.1 4 7.4-3.8-1.2-6.5-4.6-12.5-6.2-19-2-5.9-1.7 1-4.3.2-3.5-4-2 5.5-6 .6-3.4-.6-3.2-7.9.3-5.5-3.4.6 3 7 1.3 1.8-3.4-3.8 3-.9 3.5-2.8 0-4.7 2-6.6 6.2-3.8 6.4-2.7-4.3-10-5-15-4.4-9.7-7-20.2-10.8-30.2-2.5-1-1.4 6.8-3.1 9.4-1.6 2.2-1 11.2-3.7 5.8a46 46 0 0 1-14 17.2c-2.5 4-6.1 4.4-3 8-.2 2.6 0 5.3-1.5 7.6.2 4 4.5-1.9 6.5-.4-3 1.1-1 5.8 1.5 3.4 2.7-.7 4.8 5.2 7.2.3 6.2 2.4-4.3 7-6.4 2.2-3.5 3.8-5.3-4.2-8.5-.2-3 2-6.4.4-8.2 4.7q-4 4.6-7.3 9.6c3.9-1.5 6.6 0 7.1 3.5 2-3.3 3.9-4.6 2.1-.3-4 7 9.8-1.4 6.7 3.4-1.8-1.9-5.5.6-4.6 3 1 1 3.8 2.2 5 3.5 3-.3 5 .6 7.7.4 1 2.1-4 4.3-5.5 1.8-2.3-.4-4.7.7-6.3-2.2-4.6 2.6-2.7-7.2-6.8-1.9-.6 2.5-7.8 14.3-5.7 8.6 2-3.4 3.6-7.1 4-11 5-5.7-7.1 1-4.5-3.6 2.3-2.3 3.6-4.2-.6-2.8-2.7.9-5-1.2-7.4-1.9 3.7-4.8 11.2-6 14.4-11.5l6.1-9.4c-3.8-2.8 4.8-8.4-3-5.8-3.2-3.8 5.6-6.3 7.3-9.8 6.6-9 14.7-17.4 17.8-28.5 2-3.2 4.5-13.2 8-10.8.5 10.7 6.4 20 9.8 30q5 12.7 11.9 24.5c-.5 1.8-4.3 3.3-7 2.9-.5.3 3.9 2.6 3.4 5.1 1.6 4 1.9 8.7 5.2 11.7 3.5 3.7 1.7 10.8-.7 13.8-3.1 4 8 11.2 3.6 17.4 2.8 4 .6 8-4.1 4.8q-16 20.1-31.4 40.5c-1.6 3.4-6.3 4.6-.6 5.8l153.7 66c-.8 3.5-5-.7-7.2-1-17-7.4-34-14.7-51.5-20.8l-67.7-29c-10.5-4.9-21.2-9-31.9-13.4-3.5 4.7-2-1.7-5.5-2.6-8.6-3.4-17.4-6.4-25.7-10.7-3.5-1-10-7-10.3 0 1 3.3 6.6 3.9 9.7 5.8 23.8 10.8 47.8 20.8 71.6 31.5l84.2 36.7c9.6 5 20 8.4 29.6 13.4-2 3-9.4-3-13.5-4q-38.5-16-76.5-32.8-35.6-15.5-71.3-30.7c-1.7-3-6 1.6-5.3-1 .7-2.7-4-2.4-5.6-3.8L976 400c-2.6-5.3-6.6.2-7 2.5 3.4 1.6 6.6 3.7 10.4 3.8 7.8 2.5 15.2 6.3 22.6 9.7 2.4-3.5 1.8 3.8 6 2.6q73.5 31.7 147.5 62.3l35.4 15c-1 3-4.8-.6-7-1l-43-17.9c-4.4.7-8.6 9-9.8 13 4.7 4.7 11 7.8 16.3 11.9 4.1 3.1 8.8 5.5 12.5 9.2-.4 2.5-6.2-4.2-8.7-4.9l-21.4-15c-2.8 1.7-3.9-8.2-8.3-2.8-3.7 4-15 11.3-10.8 16.4 2.3.6 4.5 4.2 6.7 2.1.1.5 1.8 3.5 4.4 4 7.6 5 16.2 8 24.5 11.5-8.5-.5-15.9-5.8-23.3-9.4-2-3.2-8-1.5-7.8-3 .1-2.6-4.1-2.9-5.8-4.4-3.2-1.1-5 10.5-4 2.2 3.1-7-10.8-12.5-13.5-4.4-4.7 2.2 7.7-7.1-.6-7.4-6.6-2-12.8-5.1-19.1-7.9-4.3 5-.4-1.6-5-2.3-9.6-4.6-19.4-9-28.5-14.7a53 53 0 0 0-13.2-5.5c-1.7-2.8-5.6-3.1-8.2-4.8a238 238 0 0 0-21.4-9c-2.8-.6-9.4-5.2-3-2.4 5.8 4.6 8.6-2.9 12.9-5.8 1.8-2 4.9-3.5 5.8-5.9-5.3-2.8-11-5.1-16-8.2 1.9-.8 9 4 13.2 5.5 3.2 2.1 6.2 2.3 8.7-.8 2-2 5.5-3.3 6.6-6.1-9.4-3.8-18.6-8.4-28.5-11-5 4-5 10.4-1.4 11.3-4-2.8-7.5-1.1-9.6 3.4-3 2.4 3.3 10.1-3.3 7.6-.5 6.5 5.2 11.4 8.4 16.8 3 5.3 9.3 6.6 14.2 9.6 17.1 8.5 33.7 18 50.7 26.7 17.3 9 34.3 18.6 51.6 27.6 2.9.5 4.2 3.3 7.3 4.3 3.7 2.3 7.8 4.2 11.3 6.7-3.9 2.2-9.3-2.1-13.1-4-1.8-2.3-5.6-1.5-6-2-.1-3-5.1-3.8-7.4-5.7q-28.8-16.3-58-31.7c-15.3-7.9-30.3-16.3-45.7-24.1-5.7-3.4-8.2 5.7-1.4 4.8 11.7 6 23.9 11.1 34.9 18.3q38 19.7 75.9 39.9c2.5-1 5 3.5 7.8 4.8-2.9 3.2-6.1 0-9-1.3-14-10.7-31.1-16.3-46-25.7-16.4-8-32.3-17.3-48.7-25.6-2 .8-3.2-3-6-3.3q-8.1-4-16.6-7.7c-1.9 1.8-6.1 1.3-2 3.2 7 3.5 13.5 7.6 20.6 10.6 2.8-1.3 5 5.1 9.5 5.5 18.3 9.6 36.8 19 55 29 10.5 5.3 20.8 11.2 31.3 16.5 2.1.2 5 3.5 8 4.4 13 7 26.3 13.5 39.2 20.8-2.5 3-11-4.8-15.1-6q-16-8.2-31.8-16.9c-3 3-2.3 2-2.6-.7q-19.5-10.3-38.9-20.9-37.9-20.3-76-40.1c-2.2 5.6-7.6-2.5-8.8 2-1.1 2.4-5 1-4 5-3.5 5.4-10.8 0-13 6.8q-18.4 25-36 50.8c-4.4 3.9-7.5 15.2-15 8q-21.8-13.1-43.9-25.9a16 16 0 0 1 3.9-9.4l28.9-33.7c-2.7-2.1 2.8-1.4 1.2-4.6.6-5.3-3.7.4-5.8 1.3 7 2.8-1.7 2.1-4-.8.1-4.1-3.3-.6-5.3-2.3-1.2-3.6 4-11-2.8-7.7-6.3 1.6 2-8-2.3-6-5.8.2 4.1-4.5 5.5-6.6 6.9-5-3.3-5.8-7.2-5.1a82 82 0 0 0-33.3 6c-11.6 2.2-1.5 13.4 1.3 19.5 3 6.8 13.3 11.1 14 17.5-2.6-1-6-2.8-2.9 2 4.4 6.4-3.8 5.4-7.4 5.2 1.2 4.3 2.7 7-.2 10 4.5 5 3.6 9.7-1.2 12.2 1.3 7.6 4.2 15 6.6 22.4a28 28 0 0 0 13.2 14c1.2 2.6-6 .7-.1 3.5 4 1.8 10.3 8.4 1.9 7.5-3.8.9 7.4 8.3-.5 7.9-2.7 1.9 2.8 4.6 4 6.6-2.4 3 1.1 4 3.2 5.6 6.4 3.8 11 10 17.3 14 2.7 2.8-2.7 5.2 2 7.5 4.2 5.6-10 4.6-13.1 2.9-3.3-1.7-8-2.4-3.4 1.7 4.3 8-8.2 4.8-11.3 1.2-1.9.5 1 5 1.3 7 .6 7.2-8.2-4.4-5.2 3q1.6 6.6 2.9 13.4c-3.6 3.7-8.5-4.1-12.1-5.7-3.6-1.9 1.9 7.6 3.2 9.9 1.1 9.8-12.3-1.7-13.9.5 3.7 3.9 6.8 12-.7 13.2-5 .6-10.6-6.2-12.9-5.8 0 4.4 8.6 13.6.3 13.2-6.4-1.3-11-6.3-16.6-9.4.9 3.5 2.7 12.4-5 8.9-4.3-1.3-10.7-9.6-9.4-.6-2.4 3.6-2.5 9.7-6.3 12-1.2 3-2.1 5.6-6.4 4.7-4.6 2.2-11.2-6-13.2-1-2.8-3.2-7.3-7.9-5.2-12.6 0-1.5 2.7-7.5 0-4.9-2.5 1.5-4.4 4.7-7.7 4-3.6-.6.6-6.1-4.8-4-2.7-.1-6 1.7-8.2-.3 2-3.2 6.5-4.4 9.6-6.8 1.6-1.7 6.6-2.5 5.4-5.2-6.7-1.6-12.5 3.2-16.5 7.6-1.6-2 1.2-7-4-4.3-4.3 1.3-9.8 4.3-13.2-.3.8-4.6.3-6.2-4.6-3.7-4.6 3-12 .8-6.3-4.8 2-4-6.8.4-7.6-4.3 0-4.2 7.6-9.3-.6-10-5.8-1.3-1.4-6.1-4-8.7-3-4.7-9.5 2.5-13.3-1.1.8-5.1 9.9-8.2 11.3-12.5-3.4 1-7.2 1.8-9.3 5-9.8 11.2-20.5 21.5-30.4 32.5L625.4 679l-25.6 27.1c-4.3 1.3 1-4.3 2.5-5.6q31.4-33.2 62.7-66.6 13.8-14.5 27.2-29.4 8.2-5.4-.3-8.9c-2.3-4.6 9-5.6 11.9-9.5 4.6-4 11.8-7.4 13.3-13.6-1.4-4.8 10.3-7.5 6.2-11.1-4.8-2 2-5.4 4.2-7-.4-1.5-5.3-1.8-6.6-4.5a38 38 0 0 0-11.5 13c-6.5 7.4-14.7 13.2-21 20.9-4.4 4.7-8.4 9.7-13.4 13.7-5 4.8-9.8 10-15.5 13.9 3.3-6.2 9.8-9.7 14.2-15 4.3-4.4 9-8.5 12.9-13.2-2.5.2-4 3.4-6 4.9q-31.5 30.3-63.2 60.5c-10.8 9.5-20.2 20.5-31 30-5.3.6-2.5 4.2-1.6 7.5.2 1.9 3.8 7.3.7 6.4-3-3.8-5.7-7.5-6.7-12.3a49 49 0 0 0-3.5-16.3c-3-3.6-7.8-5.3-10.1-9.6-5-6-6.8-14.2-14-18.3-6-4.7-13-7.8-15.6-12.3-4.6-3.7-5.4-2.8-1.4.8 1.8 2.3-7.5-3-8.7-5-4-2.9-7.2-6.8-10.2-10.7a22 22 0 0 0-10-17c-9.2-2.7-12.2-12.6-16.4-20.1-4.7-6.1-13-7.7-19.2-11.9-9.6-4.3-15.6-13.5-22-21.5-6.6-6.7-10.7-16-19.3-20.8a44 44 0 0 1-14.2-19c-2.5-8-8.5-14-14.9-19-3.9-3.4-8.3-6.8-9.4-12.2q-1.2-6-7-8.2l-11.3-6.2c-4.5-4.1-5-14.3-11-14.9.3-1.9-4.7-2.2-7-1.6q-8.3 2.1-15 7.7c-8.3 1.5-14.7 7.7-22.8 9.1-4.8 5.7-12.5 4.9-18.5 8.6-6 2.4-10.2 8.2-16.9 8.6-3.9.8-6.3 5-10.6 4q-4.3-.6-8 2c-4.5.6-5.3 8.3-1.2 9.4.3 3 4 6.7 8 7.6l9.1 3.7c3.3 4 4.3 9.2 8.2 12.8q4.4 10.2 11.7 18.6c1.6 4.5 4 10.2 9.3 13 3 4 4.6-1.3 5.1 4 1.5 7.5 10.7 10.6 13 18.1 3.4 2.1 2.2 7.3 5.8 9.6a35 35 0 0 1 11.8 21.1c3.7 8.1 13.3 11.1 17.2 19.2 3 5.9 9.5 8 13.2 13.3 1.1 1.6 6.4 6.6 3.8 5.9-3-1.4 2.9 7.7 4.2 9.4 2.5 3.7-.6-6.3 2.1-.3 1.3 5 7.8 6.4 8.7 11.7q2.6 7.2 6 14c1.7 3.6 7.5 9.5 9.9 7.2q11.2 16.3 21.9 33c3.7 6.2 9.3 11.1 13.7 16.9-.3 5.4-5-4.4-7.1-5.3-8.4-8.5-13.6-19.4-20.2-29.1-3.7-5.4-7-11.5-13.2-14.4-4.3-3.4-8.6-7.4-10.1-12.9-1.6-4.6-2.3-12.3-7-13.4 1.1 3.3 4.8 11.7.6 4.5-1.4-8.5-10.6-11.8-12.4-20.3-2.6-7.5-9.4-12.1-15.1-16.9-1.2 5.8-.9-6.8-5-7.9-6.2-6.3-15.1-11.5-15.5-21.5-.6-7.2-8.7-9.6-11.2-15.4-2.8-4.3-4.6-9.3-8.5-12.7 3.2-.2-3.7-5.7-3.6-4.4-2.7 5.9-2.3-6-5.4-7.9-3.4-4.6-9.9-6.8-12.1-13-1.6-7.1-8.7-10.9-10.6-17.7-1.9-5.5-6.4-9.4-8.5-14.8-.7-2.9-3.3-3.7-5.8-4.6l-11.5-4.7c-3.6-2.5-3.3-6.4-6.9-8.8 1.9 4 2 6 3.5 10 2.1 2.7 6.4 1.3 5.5 6.8 2.1 4.7 5.5 9 9.1 12.5 1.8-2.5 1.8 4 4.4 4 3 2 2.6 7.2 5.8 10.1 1.6 2 2.6 4.8 4.7 6.4.7-1.7-3.2-12.5-.5-9.9 1.6 6.6 2 14 7.6 18.5 3.8 4.3 4.6 10.4 8.3 15 1.8 4.7 5 3.2 3-1.5-.7-3.1.5-7.3 1-1.5 1 6.4 2.3 13 6.8 17.8 4 6.9 0-7.8 2.3-4.5 1.4 7.9 4 15.8 10.4 21.1 2.5 6 5.4 5.5 6 4.1 1.1 4.4 1.5 9 5.2 12.2 2.7 3 9.4 12.9 7.4 3a78 78 0 0 0 11.3 20c1.7 2.9 5.9 9 3.9 2-1.3-4.7-.5-8.4.8-2.1a38 38 0 0 0 10 20.2c3 4.6 6 3.3 7.3 7.9 3.2 6.8-5.2-3.4-6.4-5.4-1.4-2.4-6.4-5.6-2.7-1l56.1 78.5c2 7.4-5.7-3.5-7.2-6-12.2-17-23.8-34.3-37-50.4-11.6-17-23.9-33.7-35.6-50.6-8.8-11.8-16.9-24.1-25.7-35.9-5.4-4.6-11-9.2-14.9-15.4-5.2-6.8-4.7-17.4-12.8-22-5.7-1.3-5.9-6.2-6-10.3l-18.2-25.4c-5.3.3-4.3-9.7-9-12.5q-14.6-20.8-29.5-41.4-15.7-21.6-31-43.4c-7.2-1.6-5.9-10.4-10.6-14.6-2.7-4-9.1-4.1-9.6-10.1q-1-5.4-4.5-9.5c-1.8-2.5-3.2-5.2-6-6.5-4.3-4.3-5.2-10.7-9.5-15q-5.7-8.4-11.7-16.4c-11.4 2.9-22.5 7-34 9.7q-8.7 2.8-17.2 6.5c-1 7 6.8 13.9 9.1 20.8q15.6 28.5 31 57.2c18.9 34.7 37 69.7 56.4 104.1 14.3 28.4 30.7 55.7 45.2 84q13 23.7 25.8 47.6c7.3 14 15.2 27.7 22.5 41.8 11.1 21.4 23 42.4 34.4 63.7.4 6.3-5.6-4.3-6.5-6.8-11.9-22.5-24.4-44.7-36.2-67.2q-16.2-30.4-32.8-60.4a3344 3344 0 0 1-31.8-59.2L178 521.2q-20.6-37.5-40.7-75.3c-9-17-18.6-33.6-27.6-50.5-4.4-7.6-8-15.7-12.6-23.1-2.2-1.3.7 10.6 3 14q6.4 12.4 13.4 24.6c6.2 15.6 14 30.4 21.6 45.3q4.9 8 8.1 16.6c5.6 10.4 13.6 19.4 18.2 30.3 5.2 10.3 11.5 20 15.4 30.7 8 16.2 16.1 32.4 25.2 48 5.7 12.9 15 23.6 20.6 36.4 5 9.6 10.6 19 15 28.8 5.6 11 11.6 22 16.8 33.2q6.8 10.6 12 22c6 13 13.6 25 19.8 37.7 7.1 11 11.8 23.4 18.8 34.5.3 3.5 6.7 10.1 3.7 10.7q-4.7-9.4-9.8-18.7c-6.3-12.7-13.6-25-20.1-37.7-4-8.3-9.3-16-12.8-24.6-5.7-12.4-13.7-23.7-18.8-36.4a353 353 0 0 1-15.7-30.6q-8.6-14.8-16.2-30-9.7-14.7-17.7-30.4a357 357 0 0 1-15-28.7c-6.8-10.8-9.9-23.5-17-34.1-5.5-10-10-20.5-16.8-29.7-7-9.7-10.6-21.3-16.8-31.5-5.3-10-10-20.2-15-30.2-2.8-6.2-4.8-12.7-8.6-18.4-4.2-6.6-7.5-13.7-10.8-20.8-2.3-4.2-5.8-6.7-3.7-10.9-4.2-4.9-11 2.4-13.2-5.6-2-6-6-11-9.7-15.7 1.7-6.3-6-6.7-6.8-11.5-1.3-3.3-1.3-7.4-4.7-9.4-3-2.1-4.3-5.6-6.3-8.6-.6-7.2 4.1 3.2 5.6 5.7 7.5 3.2 4.5 13.2 11.6 16.5 3 2 1.6 11 5.7 9.7-2-6.3-4-12.5-8-18.1-3-4.8-7.6-8.8-8.6-14.6-.7-7-7-3.9-11.4-2.8-4.7-2.3-5-9.8-8-13.8Q25.2 274.5 11 244.8c0-7.2 6.2-12.8 9-19.3 13.8-25 27-50.5 41-75.5 1.7-4 5.7-3.4 8.6-.8 22.1 13 43.7 26.8 65.9 39.8.5-6.3-1.9-14.5-9.5-9.7-6 .7-10.2-5-5.7-10.4 3.7-9.8 7.4-19.8 10.3-29.8 4.8-4.7 16.2-3.8 23.6-6.3 10.8-2 21.7-3.6 32.4-6 2.6-10 2.2-20.6 4-30.8 1-7.1 1.2-14.3 2.4-21.4.8-6.4-1.5-16.1 8-14.7 8.6-.7 17-2.3 25.5-3.1 1.2-3.2 3.5-2.8 6-1.3 3.3.9 6.9-.6 10.2-.6 12.7-1.3 25.2-3.3 37.8-4.6 17.8-2.3 35.6-3.7 53.3-6.5 9.5-.7 18.9-2.6 28.4-3.2 16-2.4 32-3.8 48-6.1 2.6-4.4 7-.7 11-1.1 15.8-2 31.7-3.7 47.5-6 14-1 28-3.2 41.9-5 12.2-1.6 24.5-2.5 36.8-4.5 5.8-1 12-.6 17.6-2.5 1.8-4.6 3.4 2 4.7.8 2.8 5.7 4.7 18.2 13.2 15.1-8.8 2 0 9.6 1.8 14.6 6.8 13.4 14 26.6 20.8 40.1 4.1-1-.5 2.5 2.5 4.4 5 10 10.6 19.8 15.2 30-3.4 4.4-12.3 1.8-13.3 7.7-.9 5.3-.8 10.8-1.6 16.2q-1 9.4-1.2 19c2.5 4 15 3.7 11.9 11.3-1.6 4.7.2 13.8-4.3 15.6-2.9-2-7.5 3.2-12 1.6-7-.8-5.9 8.7-6.7 13.3-.3 5.3-2.5 8.8-7.4 9-3 4.1-7.1 4-11.2 6.5-6.8 4-14.8 5.5-21 10.4q-8.2 4.6-16.9 8.5c-6 1.4-11.1 4.6-17.2 5.9-4.5 2.8-10 5-14.3 7-1.9-4.2-6 0-6.7-5-2.3-.4-10.9-4.3-4.5-2.4 2.4.2-2-3 .8-4-1-2-3.2-3.4-1.6-6.4.3-4.9-7.2-3.6-5.5.8-.7 3 1 4.7 3.6 6 0 .5-1.9 1.4-.6 2.7-1.5 3.7-4.7-1.8-7.8.9-5 5.4-13.3 4.6-18.7 9.5-5.9 4.5-13 6-19 10-5.8 3-11.5 6-17.7 7.8-3.5 3.2-7.8 2.5-11.3 6-3.9.2-5.3 3.7-7.6 6.3-1.2 3.4-5 .2-6.5-1.4-2-6.3-10.8-3.3-13-8-1.9-1.7-4.4-5.5-6.3-3.1-1.1-3.5-4.3-.6-6.6-.3l-16.2 5.4c3.6 1.4 1.5 5.1 1.3 8.2-1.4 5.5 3.1 14.3-2.9 17.5-10.2 5-20.7 9.2-31.2 13.6-5.7 2.2-13 .4-17.5 5-4 1.2-9.6-7.2-13-10.5-2-2.7-7.2-1.6-8.1-5.4-1.6-3.8-14.2 1.3-9.4 4.2q19.6 18.8 39.6 37.2c4.4 7.5 11.7 1.5 17.5-.7 5.6-3 11.9-6.7 15.6.6 13.2 10.7 25.7 22.1 38.8 33q18.9 16.4 38 32.5 8.9 7.4 17.6 15.2c.9 4.4 1.8 10.1-4 10.6-8.7 3.3 6.5-3.1 1-6.2-6.3 3.5-12.8 6.6-18.8 10.5-1 3.2 4.1 2.4 4 5.5 13.5 12.2 26.8 24.8 40.6 36.9 16 15 32.7 29.3 48.5 44.6l37.8 34c12 11.3 24.3 22.1 36.3 33.4l24.2 22c4-1.1 6.4-5.2 9.7-7.7q26.3-25 53.1-49.8c-1-3.3-5-4.3-7.5-6.5-8.3-5.2-16-11.2-24.2-16.5-2.7-.7-4.7 3-7.2 4.3q-12.9 10.2-25.2 20.8c-4.1 4-9.4 7.4-14.8 9.2-2.3-1.6 4.7-3.2 6.3-4.5 8-5.3 14.9-12 22.5-17.9 5.2-4.5 11.1-8.6 15.9-13.5-7.9-6.6-16.8-12-24.3-19-5-2.7-10.3-13.4-16.2-7.1-11.1 9.3-23.1 17.4-34.5 26.4-2.5 3.6-8.8 5-3 1 10.3-8.5 21.4-16.1 32-24.4 2.5-2.3 6.6-4 7.5-7.3-9-6.7-18.8-12.8-28.2-19.2-1.9-1.8-4.1-2.8-6.4-1.9 2-3.1-3.4-4.5-5-6.4-9.3-6.7-18.6-13.4-25.8-22.3-3-4.7-7.3.9-10.6 2.5-10.8 6.8-21 14.6-32.4 20 5-4.8 14.5-8.8 20.9-13.7 5.3-4.5 16.3-8.3 17.5-13.8-7.3-8.2-14.6-16.3-20.6-25.5-4-7-9.4-13.2-15.4-18.7a206 206 0 0 0-17.6-16q-11-9.5-22.3-18.4c-4.2.6-7.3 4.1-11 6.1q-6.9 4.9-14.4 9c.2-3.5 7.3-4.2 9.7-7.2 4.2-3.2 8.9-5.8 13.3-8.7-1.8-4.7-9.3-8-13.6-12-5-2.5-9.8-10.4-15.7-6.3-13.7 6-25.5 15.4-38.6 22.2-1.2-2.4 7.7-4.4 10.2-7.2q14.7-9.8 30.6-17.4c-1.1-2.5-4.6-3.5-6.7-5.4-3-2.3-6.7-3.9-9-7 6.2 3.2 11.8 7.8 17.7 11.6 14.7-6.7 28.7-14.7 43-22.2.6-2.4-7-7-.5-3.3 3.3 4.3 7.8-.7 11.7-1.4 18.6-7.3 36.2-16.8 54.4-24.7.5-2.6-4.5-3.3-6.6-5l-20.6-11.4c-5-1.1-9.4 2.4-14 3.9-15.5 6-29.6 15-45 21.2-5.6 3-12 5-17.7 8-3.5 1.4-10.4 6.5-11.7 5.5 9-6 19.3-10.1 29.1-14.7 18.6-7.6 35.6-18.6 54.6-25.1 3-.7-8.5-6.7-1.9-4.1 3.3 4 7.4 2.6 11.2.7 17.6-6.5 34-15.8 52-21.1 15.9-5.3 30.8-13.1 46.5-18.9-.2-2.5.6-5.2-1-7.3 1.4-3.6 0-6.6 1.2-10.4 1.2-4.4-1.7-8.8.8-13.1-1-6.3 2.5-12.7 2.3-19.1.7-6.3-1-13 2.2-18.8 1.3-4.6-.2-13 5.4-14.4 3.1-1.5 6.5-.5 9.8-.5 2.6-7.5 2.3-15.7 3.4-23.5 1.5-14.7 3.4-29.4 4.7-44.1l1.5-13.8c1.6-3.9 5.1 1 8-.4q10.4-.2 20.7.7c11.4.2 22.8.9 34.2 1 7.1 1.3 14.4 0 21.6 1.3 7.4.2 14.8-.2 22.1.8q11.5 0 23.1.8 9.3 0 18.6.8 10.5-.2 21 .7 10.1-.1 20.1.8c7.7.1 15.4-.1 23 .8q10.8-.1 21.3.8c7 .2 13.8-.2 20.6.8 6.3.3 16-.9 20.1 1.8-2.4 5.5-1.3 11.6-2.5 17.2-1 10.6-2.7 21.1-3.3 31.8-3.3 4.8 2 9.4 3.2 9-7.3-.5-3.4 8.6-5.4 13.1q-1.2 10.4-2 20.8c2.5.4 14.8 1.9 7.2 2.1-12.5-4.7-5.5 12.5-10.5 18.4-3.6 7 1.8-5.6-4.2-3.3-3.7 6.8-5.2 14.6-8.1 21.8-3.2 9.3-6.7 18.5-9.5 27.9 3.7 1.5 5-4.4 8.9-4 5.2-3.6-2.2-5-2.8-.7a33 33 0 0 1 4.4-13.4M585.2 91.4c-4.6 2.2-10.2 1.8-14.7 4.2 3 8.8 7.3 17 10.8 25.7 1.4 2.6 2 5.8 4 8 11.2-3.1 22.8-5 33.6-9.4 2-2.2-2-6.1-3-9.1-4.4-8-8.3-16.4-13.1-24.2-4.9-10.6-10.8-20.8-16-31.3-3.7-6.8-6.9-13.8-10.8-20.4-4-3.6-16 2.8-16-.3 4.9-1.5 19 .8 12.3-7.1-2.2-5.2-5.2-12-12-8.5q-16 1.6-32 3.8c-14.9 1.8-29.7 3.9-44.6 5.2-16 2.1-32.1 3.8-48.1 6.1l-31.4 3.6c-9.8 1.4-19.5 2.2-29.2 3.7-15.5 1.3-30.8 4.3-46.3 5.5l-32.1 4c-13.5 1.7-27 2.8-40.3 4.9-15 1.7-30.1 3.8-45.2 5.3q-6.2.8-12.3 1.8c-.4 2.4 2.2 5 3 7.4q12.6 26 25 52.1c5.4 10.5 10.1 21.3 15.5 31.8.6 2 7.7-1 4 1-3.9.7-2.5 3.2-1 5.7 1.6 2.6 2 6.4 4.9 7.9-1 2.7 1.9 5 2.6 7.5 3 5.5 5 11.5 8.4 16.8 2.7-1.2 7.2-.3 7.8-3.9 1.6-8.2 1.8-16.6 3.4-24.8.1-5.2 1-10.3 1.7-15.4-3-1.5-6.5 1-9.6 1.4-5.6 1.3-11 3.6-16.7 4 5.1-2.5 11-3.3 16.6-5 3.2-1.1 7-1.2 9.7-3.1 2-8.3 2.2-17.3 3.3-25.8.6-4.5 3.1-13.3-4.3-9.4-3.6 1.2-7.3.2-1.3-.8 8.8 1 7.8-7.6 8.2-13.7.3-7.4 2.7-14.7 1.8-22.1-6.2 0-12.3 1.8-18.5 2.2-16 2.4-31.9 4.3-47.8 6.7 3.5-2.8 11.9-1.9 17.3-3.4 16.5-1.6 32.7-4.8 49.1-6.8 1.6-2 3.3-5.2 4.6-1.1 2 .8 5-.5 7.4-.5l39.6-5.5c7.8-1.1 15.6-2.8 23.4-2.8-4.8 1.8-10.2 1.6-15.3 2.6q-19.3 2.5-38.7 5.5c-3 .7-19.2 1-11.3 3.6 17.5 6.5 35.1 12.5 52.6 19 3.8-1 5.4 3 7.8 5.1 4.8-.6 16.7-3.4 16.8-1.6-5.1.8-10.5 1-15.4 2.8 3.2 5.2 8 9.8 11.9 14.8 5 5.8 9.6 11.8 14.9 17.3 6.2.3 12.4-2 18.5-2.8 10.8-1.8 21.4-4.4 32.2-5.6-2.7 1.6-6.8 1.5-10 2.3-13.2 2.5-26.5 4.7-39.5 7.6 6 7.4 12 15 18.6 21.8 3.2-.8 16.2-2.2 6.3-.1-6.1-.6-5.3 3-2 5.7 4.3 4.6 7.9 10 12.7 14.1 11.7-2.8 23-6.5 34.8-9 5.2-1.3 10.6-3.5 15.7-4.1 6.6-2 13.3-3.4 19.8-5.5 2-7.8-2-18-2-26.7-.4-10.2-1.8-20.3-2.6-30.4-1.2-6.3-.7-12.7-2.3-18.9-4.5-.4-9 1.3-13.6 1.7-6.8.8-13.5 2.5-20.3 2.6 3.4-1.7 7.6-1.5 11.3-2.4q10.8-1.3 21.5-3.2c2.2-1.5.2-5.4.6-8-.6-7.8-1.9-15.6-2.7-23.4-1.7-1.9-5.5.2-8 0q-22 2.9-43.7 6c-13 2.1-26 3.4-39 5.6-9.4.9-18.7 2.8-28.1 3.6-3-1 6.5-1.5 9.3-2q23.8-3.2 47.5-6.7c12.6-1.2 25-3.8 37.7-5 9.4-1.8 19-2.7 28.3-4.3 4.6.3 14.8-3 14.7-.8-3.1.6-6.8.1-9.6 1.5 1.4 1.6 5.2 1.2 7.5 2q24 5.1 48.1 9.7c9.2-.2 18.2-1.7 27.2-2.3 4.1-.1 13.8-2 14.4-.8C577 56 570 56 563.4 56.9c-3.9 1.4-14.7-.6-14.6 2.4 2.7.9 5.8.7 8.1 2.3-1.1 3.6 2 6.8 3 10.2l9.6 22.2c5.3-.6 10.3-2.7 15.7-2.6m-346 229.7c-3.6 2.2 3.6 4 3.1 7l-7.6-6.9c-3.7 1.7-12.6.9-4-.1 5.3-1.7 2-6.2-1.7-2.8-4.4-2.5-8.6 3.8-12.2 3.5-2.5-1.5-3.4 2.8-6.5 1-1 3.4-4 2.1-6 3.2-.8 2-3.5 5.3-5.5 3-2.5-2-3.5 2.2-5.5 2.8-4 2.3-9.3-1.5-12.5 3.6-2.4 1.1-5.2-.2-7.5 1.7a9 9 0 0 0-7.4 9.2c-3 5.5 5.4 5.5 3.9 10.8 3.7-1.7 4.4-1 3.3 3.4 2 1.2 3 3.7 5 5.1 2.2 1.2 5 2 4.3 5.2-.7 5.5 8.2 4 7.7 9-.2 4.9 7.5 3.6 7.7 8.2 2.5.4 1 4.1 3.7 5 2.8 2.3 3.7 7.8 8.3 6.5 1.1 3.2 1.7 6.6 3.1 9.6 4.3 0 4.5 5.3 8.5 2l67.6-29.9c.7-5.1-6.2-9.2-9.6-12.7-2.7-5-7.1-9.3-12.9-11.6-.2-6.4-10.8-3.8-8.8-11.4-3.2-2.4-7.5-4.1-8-9-1.5-2.8 4.8 1.9.5-2.9-.7-3.4-9-2-6-5.7-1.6-2.8-2.3-4 .3-3 1-3.1-2.2-6-5.3-3.8m270.4-171.3q4.6 1.4 5.5-3.3c2-5 4.7-9.7 6.1-14.8 1.6-3.3 3.7-7.2 5.2-11L537.6 95c-4.5-1.8-8.2-3.4-1.7-2 3.3 1.6 3.3-2.7 4.6-4.7l10.9-24.6c-.1-2.8-4.8-1.8-6.9-2.8-21-4.5-42-8.4-63-12.8-3.8-.5-.7 4.8-1.1 7.2 1 7.8.8 15.8 3.1 23.3 7 1.6 14 3.1 20.6 5.9-6.7-.6-13-3.8-19.7-4.6-1.5 1.9-.2 5.4-.5 8 .9 10.2 1.6 20.4 3 30.4-.2 2.6 8 4 2.3 3.3-4.7 1 .3 11.2-.6 15.6-1.2 7.1 4.3 7.5 9.3 9.6l-7.8-1.3c.3 4-1.3 9.8 3.4 11.5 5.8 1.5 15.4 10.5 17 .2 1.5-3.2 3.3-5.8-.9-7.3m304.7 76.3c-7.8-5.7-8.2 10.3-1.5 8.6 2-.6 6.8 1 7-1.5-1.1-3.2-9-.4-6.7-6.7 2-1 .4 5.5 4.9 3.6 3.3 1.5 6 7.5 10.2 3.3 1.2-9.3-8-5.8-13.9-7.3m167.6 159.6c-1.8-1.1-7 0-3 1 4.4 1.1 5.6 2 5-2.4-.6-2.6 2.7-4 3.8-6.2 1.7-2.2 3.9-4.3 5.2-6.6-1.4-.6-4.9-1-6 .9-2.7 3.4-6.1 6.4-8.5 10-1 1.7 2.6 2.3 3.5 3.3M550.9 207c-4.8 6.9-14.3 4.3-20.5 9-3.9.8-9.4 4.8-12.6 1.1-7 1.6-12.9 9-20.5 4.9-4.4-2.3-8.6-5-13.6-4.3-7.9 2.4-16 3.7-23.2 7.5-6.6 1.2-12.2 5-18.7 6.6-5.3 1.6-11.2-.9-16 2.3-3.4.6-6.3 4.3-8.5 4.4-3.7 3.8 12 8.6 1.9 12-1.6 4.6-5 1.7-8.5 3.7-4 1.6-8.5 2-12.1 4.2 3.7 1.2 7.7 1.9 10.3 5 8.4-.7 15.5-6 23.6-8.1 1.7-1.6 3-3.5 5.7-4 1.3-.9 7.4-3.4 4.2-1-1.7.9-7.2 3.7-2 2.3a96 96 0 0 0 18-7.1c9.1-2.4 18-6.4 25.8-11.7 2.7-2 5.1-4.9 8.8-5 2.8-6-15.4-5.5-7.1-7 8-.8 7.4 8.3 13.4 9.7l8.3 3.4c6.2-.9 13.1-8.7 3.9-10.4.6-4.3 7.2 2 7.7 4.3l12-6.1c0-3-10.5-3.6-3.1-3.6 3.5-1.4 4.6 3.3 7.2 2 2.5-2 14.3-3.6 10.2-6.6-4.9-2.2 4.4-.1 5.7 0 4.6-2.4 12-5 14.8-7.6-4 .9-3.1-3.3.2-2 2.7.9 5.2.1 7.5-1.3 2.9-1.9 12-3.1 8.7-6.4-7-3.8 2.5-.1 5.2-.3 4.2-1.4 9.3-4.4 2.8-6.9-4.5-1.8-10.6-1-11.4-7.7 1.5-1.7 3.2 5.6 5 .3 3.6-2.5 14.4-3.6 14.3-6.2-4 .3-11-.5-2.8-1.6 4.5.2 8.4 2.3 13 .9 2.5-.3 7.2-.3 6.1-4-3.2-3.6-7.8-1.1-10.7-.8-5.2-.3-10.8 2.4-15.8 4.3-6.2 1.8-12.1 3.8-10.4 11.6-2.6 4.7 5.2 6.2-.4 8.1-.4 3-2.2 8.7-1.8 2-1.4-5.1-5.6 2.3-6.7 1.8-3.5-1.1-2.7 2.6-4 4.4-2.9-1-5.4 2.8-7.7 2.7-2 1-4.1 0-6.2 1.2m159.8-17.5c6.8 2.7 14.6 1.5 21.6 3.1 10.6.8 21.1 2.6 31.7 3.2 10.8 1.6 21.7 2.3 32.5 3.8 2.4 0 12 2 9.3-1.3-12-1.6-24-2.4-36.1-3.4-8.4-1-17-2.1-25.5-2.4-10.1-1.3-20.4-1.6-30.5-3-7.2.5-1-4.5 3-1.8 11 .5 22 2.4 33 3 17.3 1.9 34.9 2.7 52.2 5 4 .1 13.5-.7 8.7 6.1-1.1 6.6-5.3 15.6-3.9 20.8 6.1 2.4 13 2.2 19.6 3.2 5.9-2 4.4-12 7-17.3 1.5-6.7 4-13.2 4.9-19.9-6-2-12.5-.7-18.6-2.1-6.2.2-12.3-1.2-18.6-.9-7-1-14.2-1-21.3-1.5-9-1-18-.8-26.8-2-8.2-.2-16.4-1.1-24.6-1.6-12.4-1.3-25-1-37.4-2.6-5.3.3-10.4-1.1-15.8-.8-10-.6-19.9-1.7-29.8-1.8-4.6 1-2.8 8.9-4 13.1-1 8.3-2.7 16.6-3.1 24.9.8 3.5 12.4 5 11.8-.5 1.5-8.7 2.3-17.5 4.2-26 3-.8 9.1 1.6 13.6 1.1 8.1-.2 16.2.4 24.3.8 4 0 10.6-1 8 4.7 2.5-.5 8.3 2.8 8.3-1 .1-1.8.4-2.6 2.3-2.9m-374.8-56.1q-4.2-2.3-5.5 2.4c-10.3 22.6-21 45-31 67.8 3.4 3.3-3 1.7-2.9 6.2-1 4.3-8.3 14-5.3 15.5 2.3-1.8 2.9-5.2 4.5-7.7 1.7-4 4.4-7.5 5.1-11.8 3.2-3 4-7.8 6-11.7 5.3-12.6 12.8-24 18.2-36.5 3.5-7.6 7.6-15 10.6-22.7q2.6-4.5 4.9-9.6l7.8-16.7c.6-4.4-1-11.7-3-4.2-4 8.8-8.6 17.3-12.3 26.2zM692.8 208c3.5-3.7 3.2-13-4.3-10-7.5-.5-14.9-1.3-22.4-1.6-5.7-1-14.7-1.7-11.3 6.7q13.1 1.4 26.2 3.2c3.7.5 7.7.5 11.3 1.3-5.2 1.2-15.3-1.3-22.3-1.9-6 .2-18.6-5.6-16.6 5 5.2 3.2 14 1.2 20.5 2.7q6.9.6 13.8 1.6c5 1.5 6.5-3 5.1-7m-492.5 47.6c-1.3-2.5-2.5-5-5.3-5.9l-48-27.1c-4-.4-8.4-5.6-13-7.2-6.6-3.5-12.9-7.8-19.6-10.6 0 6.2-.1 1.7-2.9 0q-6.6 11.9-13.1 24.1c3 3.9-3.7 1.6-4 6.8q-6.1 11.8-12.4 23.5c.3 3.6-4.9 6.4-5.8 10.9q-11.6 21-22.7 42.3c1.4 1 5.3-.7 6.5-2.4 6.8-11.6 13-23.5 19.8-35.2 6-11.6 12.6-22.9 18.8-34.4q8-14.2 15.7-28.5c-.8-5.9 2.7.7 5.7.8 26.7 14.4 53 29.6 79.6 44.3 1.1-3.3 2.6 2.7 1 4l9 33.4c3.7 3 4.3.3 2.7-3.2l-12.5-47.5c-1-.8-5.5 0-4 1.8.2 2.9 4.2 3.3 4.2 6zM320.4 241c5-1.7 10.3-4.3 15.5-4.4 2.2 2 1.3 5.7 2.2 8.4q2.3 15.3 5.3 30.4c4.1.8 8.4-3.5 12-3.2-2.5-12.5-4.3-25-7-37.4 3.6-8.6 17.7-6.4 25.5-10.7 4.4-.3 14.3-7.7 14.9.4q1.3 14.6 3 29c1.1 7.8 10.2-.9 15-.7 6.8-.8 9.6-5.6 6.8-12l-1.4-16.2c-1-13.6-2.8-27.1-3-40.8-1-6.8-7.4-11.2-11.5-16.4-6-5.3-10.9-11.5-15.8-17.8-5.8-6.3-12-12.3-17.3-19-5.1-5.3-10.4-10.4-14.8-16.4-3-1.5-3.7 5-5.4 7.4-4.8 11.3-11.3 21.7-15.8 33.1Q312 186.5 297 219q3.1 19.2 8.2 38c2 7.8 2 16 4.3 23.7 3.3 5.9 13.7 1.9 15.8-1.8-2.1-11.5-3.3-23-5-34.7zm-169.1-31.3c-8.8-7.1-15.4-16.7-24.6-23.2-5.5-3-10.6-6.8-16.4-9.2-1.2 2.4-5.1-4.3-7.3-5q-14.3-8.1-28.3-16.8c-2.4 1.8 5.7 6.6 7.2 10 7 8.3 14.4 16.2 21.3 24.5 4.8 5 8.9 11.2 15.5 14 6 3.4 12.1 7.1 18.3 10 .7-1.5-7.1-9.4-1.6-5 4.8 8.1 13.2 12 21 16.3 6.3 3.4 12.4 7.1 18.7 10.3.8-1.4-6.7-7-8.9-9.8-2.8-2.2-12-12.8-4.8-6.4 6.9 6.7 13.3 13.8 20.5 20.1 3.9 2.8 5.6 2.1 1.6-1-14.3-14-28.1-28.6-42.9-42.1-2.4-3.7-6.2-4.3-2.1-.7 4.2 4.4 8.7 8.4 12.6 13zm63.8-.9c-6 2.4-13 2.7-19.3 4.3-4.8 2-14.1.4-16 5.1 3.3 6.6 7.8 12.6 10.7 19.4-1 4.1 3 5.7 6 3.8 20.7-5.5 41.2-11.5 61.8-17 4.2-1.2 8.6-1.8 12.6-3.7-.5-3-4.8-3.6-7-5.4-3.7-1.9.5-5.2-4.1-8.3q-2.5-7.6-9.5-4.6c-7.5 1.3-15 3.1-22.4 4.2-1-1.5 7.4-1.7 10-2.7 5-2.3 15.6-.3 17.3-5.8-3.7-9.3-8.6-18.3-13-27-2.5-.7-5.5 1-8.1 1.1-4.8.8-9.5 2.4-14.3 2.4 3.2-1.8 7.3-1.7 10.9-2.7 3.5-.9 7.3-1 10.6-2.6a155 155 0 0 0-12.9-24.9c-3-.5-16.3 3-8 0 5.2-.2 8.5-1.6 4.9-6.2-2.4-4.4-3.7-9.5-6.8-13.5-6.3.6-12.5 2.3-18.8 3-4.3.4-4.1 5-7.5 1.8-17.3 2.3-34.3 5.9-51.4 9-3.8.7-8.7 1.2-4.2 5.5 8 13.6 15.6 27.5 23.9 40.9 4.4 1 8.8-1.2 13.1-1.7 12.2-2.4 24.3-5.1 36.5-7.2 4 .5-3.7 1.6-5.6 2-14.3 2.8-28.7 5.4-42.9 8.7 5.1 9.5 10.8 18.7 16.2 28.1 3 1.1 7-.9 10.3-1.2 8.7-1.6 17.3-4 26-4.9zM543.2 89.7c2.1-2 6.9-15.6 3.5-9q-2.4 5-4.2 10c-2.7 3-2 7.6 0 1.8zM240 463.5c1.2 4.8 3.2 8.4 7.8 4.5 19.7-8.8 38.9-18.8 58.2-28.4 11.4-5.6 21.8-12.9 33.5-17.7a157 157 0 0 1 17.5-8.4c3.9-4.1-.8-10.3-5.4-5.4-32.8 16-66 31.1-98.2 48.3-4.1 2.4-9.2 3.7-13 6.3-1 2-2.7-3-4-3.8-6.8-9.1-13.8-18.2-19.7-28-2.7-4.8-6.1-.8-2 2.4l25.5 35.6c1-.7-.3-4-.2-5.4m670.3 71.1q-16.6-9.8-33.9-18.3c-4.4-3.4 5.3-8.8 7.2-12.7 6-6.8 11.4-14 17.3-20.9q.9-4.6-3.8-4.9c-9.1 9.7-17.1 20.4-26 30.3-1.7 1.9-5.8 5.6-1.5 6.7l45.3 25.6c4-2.7 6-7.5 9.1-11.2q14-20 27.6-40.3c4.7-4.7-2.1-4.8-3.5-1.4-3-.5-4.5 2-6 4.1-10.7 14.3-20.9 28.9-31.8 43M746.6 232.2c-5.4 0-10.7.1-16-.7-7.5-.1-15-2.4-22.6-1.3-2 5.2-1.8 10.4 4.6 7-4.2 2-6 7-10.7 8.1q-3.9-.9-7.2 1.5c-8 4.3-16.6 7.7-24.9 11.6q14.2 4.7 28.6 8.8c2.4.3 11.8-5.6 9.3-3-3.2 2-9.8 4.6-2.3 5.5 9.8 3.5 19.6 7 29 11.6 8.5-4.4 16.6-9.7 25-14.3 3.3-3.6-7.6-4.9-10.6-7.3-6-2.5-12.3-5.4-18.7-6.3-6 2.7-11.7 6-17.9 8.5 2.7-3 7-4 10.6-6.1 4-1.3 7.7-4.6 1-5.5-3.4-.3-14.9-4.3-5.9-2.4 6.9 1.2 13.1 4 19.6 6.2 8.9 2.8 17 7.5 25.9 10.4 5-4.2 16.7-7.2 17.7-12.7-2.9-3 5.5 2.1 6.5-2.4 4-3.5 15.5-6 10-12.4-7.6-.3-15-1.8-22.5-1.6-4.8-.6-10-1.9-14.3.9-3.5 1.4-6.8 3.2-10.3 4.5 3-3.2 7.8-3.9 11.4-6.4.6-1.2-9.7-.6-5.1-1.5 5-.2 9.8.7 14.7.7 2.7-.6-4.4-1.2-6-1.8-9.8-1.9-19.7-1.7-29.5-2.4-8.3-.5-16.4-2.1-24.6-2-6.5.3 2.1 2.7 4.6 1.7 7 1.3 14.3 1.2 21.4 1.9 3 1 6.5-.5 9.2 1.2m32.7 69.3c4.8-4.2 10.8-6.8 16.2-10.3 2.2-1.8 6-2.4 6.8-5.2-9-6.3-19.3-10-29-15-4-1.4-8.5-5.9-12.5-3.4q-12 6.8-23.6 13.8c-1.1 1.6 4.3 2.5 6 3.9 7.1 3.4 14.3 6.7 21 11.2 3.9 2 7.2 5.6 11.6 6.2 4.7-2 1.9-.3 2.1 1.8a268 268 0 0 1 34 22.7c5.9 7.5 12.6-1.8 18.9-4.5q9-5.8 18.6-11.2c-12.8-7.1-26.5-12.6-39.1-20-3.3-2.6-6.9-5.3-10.3-1.7-7 3.9-13.4 8.7-20.7 11.7m127 84.9c-4-3.8-7-1.7-10 2-6 5.5-11.1 11.7-16.6 17.6-1.5 2.2-8 4.5-3 1q9.5-9.9 18.5-20c4.8-2.6 5.1-6 .3-8.2-.2-1.4 8.8 4.4 3.8-.6q-7.2-4.8-15.2-8.2c-8.5 3.9-16 9.8-23.7 14.9-4.1 2.6-11.3 6.2-3.4 9.9 6.5 6.4 12.3 14 20.9 17.9a70 70 0 0 0 17.7 6.2c3.2-3 5.5-7.1 8.3-10.6 3.8-5 6.4-10.6 9.3-16.1-2.4-1.8-5-3.4-6.9-5.8 2.8 1.3 9.4 6.4 7.9-.2 4.3-3.6-1.2-6.8 4.2-10.1 3.7-6.6-10.1-7.5-13.2-12.4a234 234 0 0 1-31.4-32.5c-9.8 5.6-19.9 10.9-29.4 16.7 3.8 4 11 5.7 16 8.9q11.5 6 23.5 11.3 6-3.4 12-7.2c3.3 2.1-10.2 5.8-9.4 8.5q8.6 4.1 16.3 9.9c2.5-1.5 8-9.7 8.6-7.2-2.8 3.5-6.2 6.5-8.6 10.3zM91.9 222.8c2.7 2.6 5.7 5.7 7.2-.2q5.7-10.2 10.7-20.5c-2.5-4.4-6.4-8-9.6-12-9.6-10.6-18.9-21.5-28.8-31.8-2.5-3.5-8.4-11.7-10.3-3.4-3.4 6.9-12.1 17.8-8 22.3-5.3-5.8-6.6 7.9-10.2 10.7-4 4.8-4.5 10.3 0 14.7 1.5 2.6 3.7 5 4.7 7.9-4-3.7-6.3-9-9.8-13.1l-16.3 30.4c4 7.5 9 14.6 11.9 22.4-4-5-6.5-11.2-9.8-16.7-3.9-9.2-7.3 4.8-10.2 8.4-.4 3.2 3.2 6.6 4.2 10 7.2 14.5 13.6 29.5 21.2 43.9l8.7 18c2.3.4 2.8-4 4.3-5.6l25.6-46c4.8-3-3.2-9.8-1-10 2.2 4.2 4.8 5.4 6.2.4 4.4-8.2 9.3-16.2 13-24.7-1.3-1.6-3.4-3-3.7-5.1m275.9 211.9c-5 3 1.8 6.5 2 10.5 2 7.8 11.6 7.5 16.7 12 6.3 4 5 13 11 17.2 5.3 7 14 10.8 17.1 19.4a67 67 0 0 0 21.7 26.8c9.3 10.2 17 21.7 26.4 31.8 5 3.8 11.1 5.6 16 9.5 6.7 3.7 14.2 7.4 17 15.1 1 8.5 8.4 12.1 15.1 15.6 3 5.2 6.9 10 8.8 15.7 1.8 4.4 5.7 7 9.7 9.1q8.4 4.7 15.5 11.3c7.6 2.8 13 9 17.3 15.8 3 3.7 4.4 9.2 8.5 11.8 6.6 2.5 8.5 9.7 10 15.8.7 5 3.5 7.7 6.8 2.4q15.2-14.3 29.7-29.2c9.3-11.9 22.2-20 32.2-31.3 10.7-11.2 23.6-20.3 33.3-32.5l21.2-22.2c11.5-10 24-18.9 34.3-30.1 3.8-4 11-8.3 3.8-12-2.2-1.7.2-5.7.7-8.1 2.3-2 10-10.1 4.2-5.7C726 522.3 705.7 542 685 561q-32.8 30.6-65.5 61.4c-5 4-1-5.3-6.3-5.5-9-9-18.9-16.8-28-25.6-10.5-10-21.5-19.3-31.9-29.4-13.6-11.4-25.9-24.2-39.5-35.6q-18-16.8-36.3-33.3c-6.1-6-12.7-11.3-19-17.3q-16.7-15.4-33.7-30.6c-4-2.6-1.3-5.1 2.1-6.2 6.3-3.4 13-6.2 19.2-10-2.2-4.6-8.8-7.8-12.7-12-27.8-23.8-55.6-47.9-83.6-71.4-3-1-6.1 2-9 2.7-4.4 2.2-9.5 3.2-13.1 6.5-5.2-2.8-8.8-8.1-13.5-11.7-10-9-19.3-18.7-29.7-27.2-4.6-4.2-8.8-10.1-14.6-12-10.8 4.1-21.3 9-32.2 12.7 1.3 2.7 6.8 1.4 8.7 4.2-.1 5.7 4.3 8 7.8 12.3 2 4.6 4.2 9 8.9 12 5.7 5.4 10.7 11.6 17 16.3 1.4 4.8 6.8 5.2 8.3 9.7 3.6 1.4 4.5 6.7 7.9 6.9l21.8-9.7c.8-4.7 3.9-1 6.8-2.7 5.6-.1-4.8 3.8 1.5 5.5 4.8 7.3 12.1-1 18-2.5 3-2.4 5 2.4 7.5 3.8 12.2 11.4 24.8 22.3 37 33.7 4 3.7 10 6.8 9.9 12.8-3.4 3-.5-3.4-4.6-.5q-15.5 8-30.8 16.2c-1.1 2.8 3.3.2 4.4.1m285.7-182.5c5.8.9 11.2 7.1 17.2 4.3q12.5-5.1 24.3-11.6c-2.1-1.8-5.5-5.3-3.3-9.5.1-2.3 2.7-7.5-1.4-7-7.7.3-15.1-2.4-22.8-1.6-4.7.3-16.6-4.3-16 3.2-.7 2.9.5 7.6-1 8.6-6.9.4-13.9-.6-20.8.5-4-1.7-7 1.2-10.6.3-11.2 4.8-22.6 9.2-33.6 14.5 3.6 7.5 12.5 12.2 19.8 16 3.9.2 7.5-2.7 11.2-4 10.2-5 21-8.9 30.6-14.8-3.7-4.7 4.8.7 7.2-3.2a162 162 0 0 1 28.3-10.2c-2.2 3.5-11 3.5-15.5 6.3-4.7 2.2-12.8 4.2-15.2 7.1 4.5 3.3-3.7-1.1-5.2 1.9q-18.7 9-37.6 17.7c.3 2.9 9 7.2 13.3 8 10-4.2 19-10.7 29-15 4.3-1.8 9-3.2 13.2-5-2.3-2.9-8.9-3.3-11.1-6.5m-488.2-42.5c-2.4-5.1-4-11-7.3-16-5.2-9.7-12.3-18.5-16.4-29-6.4 3.6-6 15-3 22 1 8.4 9.3 12.4 14.4 18.2 4.8 4.5 9.3 9.4 14.2 13.8.8-3 2 3.4 4 3.7 2.6 3 6.8 4.2 3-.6-2.8-3.7-6.4-13.8-8.8-13.3zm397.4-88.3c-.1 7.4.5 15-.8 22.3l-1 13.6c-2.7 1.6-6.5 2-9.6 3-7.7 2.2-15.3 4.7-23 6.5-6.1 0-1-5.4-2.9-8.6-.8-5.4.6-15.5-1-17.9-4 9-7.7 18.2-12 27.1-2.7.8-2.5-5.7-2.7.2 0 16.2-1.2 32.3-.6 48.5 1.8 2.7 6.1-2.8 9.7-1.4.6-10.7-.2-21.5.4-32.2.8-4.6 6.5-4.1 10-5.8 11.7-3.5 23.2-8.2 35.2-11.1 4.7 3 1 12.8 1.4 18.6.6 3.5-1.2 13 .3 12.7 1.8-3.7 8.8-2 9-6.6.4-6.6.6-13.2 1.5-19.7.4-9 .5-18 1.6-27-.3-6.8-4.4-12.7-6.7-19C565 110 559 94.9 552 80.3c-3.4-1.5-4.3 9.1-6.8 12-5 11.6-10.7 23-14.7 34.9 7.8.4 17.3-4.7 25.6-6.6 2.2.3 5-.8 6.6.9M332.9 286.8q-4.7-1.9-9.4-1c-4.8-3-9.1 3.6-14 1-1.6-3.7-5.3-4.4-8.2-5.8-1-3.7-3.3-3.1-2.9.7-2.3-7.4-8.4 2.5-12.5.5-5.2-.3-9 5.9-14.3 3.8a124 124 0 0 0-27.9 12.9c-3.1 1.3-9.2 5.4-11.2 4.3 5.4-3.9-6.2 1.2-8.3 1.4-2.8 1.4-6.3 5.8-8.1 1-.3-5.6-6.1-6.3-9.3-9.7-2.4-3.9-3.2-1.5-3.9.2-2.2-4.9-7.9-2.7-11.5-.5l-7 3.6c3.1 4.8-.8 6.7-3.7 6-.5-5.3-5.1-6.4-8.5-2.6-6 4.3 2.4.7 5 .2 5-.7-3.8 2.3-6 3-2.3 4.5-9.9.7-12.7 5.5-1.8.5-8 1-11.8 3.2-4.1-.4-7.4 5.1-9.2 4.6-1.9-2.3-4.8.9-7.1 1.2-2.5.7-4.8 1.6-6 4.1-4.4-3.2-.6 6.9-3.8.5-5.4-.2-11.8 3.2-16.6 5.8-4-3.2-10.4-.4-14.8 1-2.3 1.1-6.3 1.5-6 4.8.8 5.6-3-.8-4.7-2.3-4.2-4.1-7.9-9-11.8-13.5 1-4.2-7.7-8.9-4.5-3 .3 4.4 1.2 9 5.1 12 4.3 5.3 8.2 11 10.3 17.5 5.3 2.5 10-5 16.1-4.3 5.5-2 11-4.7 16.9-5.2q5.4-1.9 10-5.2c6.4-2.6 13.3-3.1 20-4.8 5.2 0 8.6-5 13.8-5.3 3.1-4 7.3-1.4 10.9-3.3q7.2-4 15.3-5.8 5.3-3.2 11.4-5.3c4.4-.8 7.6-3.4 11.8-3.2 3-3.7 5 2.1 2 2.6-5-1-1.5 4.9.9 6.3 2.9 1.1 2.2 7 5 6 6.4-3.4 12.6-5.8 19-9.2s13.4-6 20.2-8.2c8.8-3.6 18.6-4.4 26.7-9.6 6 .1 11.8-6.7 17.2-1.7 2.9 2.8 6.9 3.5 10.5 4.9 2 8.2 11.1-1.5 16.7-2.1a61 61 0 0 1 17.2-6.5l16.9-6.6c2.1-6.9-5.7-6-9.3-3.3-3.6 3-10.5 1-10 7.2.3 2.2-3.7-4.3-3.8 1.2zm472.3-85.5c-9.2-1.5-18.6-1.6-27.8-3.2-9.5-.7-19-2.1-28.6-2.9-8-1.3-16.3-1.4-24.4-2.6-3.6.8-14.5-4.8-13 2 9.4 1.4 19 1.7 28.3 3 4 0 7.8 1.5 11.6.1a185 185 0 0 1-7 25.7c-1.6.7-4.8-1.3-7.5-.5q-8.7.3-17.3-.7c-2.4-.5-12.8-.4-9 2.8 12.1 1.6 24.3 1.7 36.4 3.3 10.6.7 21.2 1.9 31.7 2.6 6.2-.8 17 4.6 20.3-1.2 2.3-8.8 4.9-17.5 6.9-26.4l-.1-1zM283 108.4c-2.7 2.3-1.6 6.3-2.4 9.5-1.4 10.7-2.9 21.4-3.7 32.2-1.7 11.1-2.4 22.4-3.8 33.5-1.1 4.2-2.2 7.3 2.5 5.7 1.8.2 5.2 4.9 1.6 2.6-7-3.4-4.1 5-2.1 8.7 2.8 8 5.3 16.2 8.6 24.1 6.1 2.8 6-10.3 9.6-13.7 3.4-3.3 2.7-8.4.2-9.8 2.8 1.7 4.7.5 5.4-2.5 9.8-20.8 18.9-41.9 28.6-62.7 3-3.8-.7-6.7 3.3-7.8q7-14.7 13.5-29.7c-4.5-5.8-15.6-6.2-22.6-9.8-11.6-4-23-8.6-34.6-12.5-3-.2-1.4 5.1-2.4 7.5q-1.3 12-2.9 24.2zm607.8 28.8c8.1-.1 16 2.8 24.1 2.9 1.3-1.8.7-5.2 1.2-7.7l2.3-24.4c-7.7-.7-15.5-.8-23-1.8-6.2.1-12.2-1.2-18.3-1-7.2-1.2-14.7-.9-22-1.9-6.3 0-12.6-1.2-19-1-6.2-1-12.5-1.2-18.7-1.6-8-.5-15.8-1.5-23.8-1.5-6.4-.9-12.7-1.2-19.1-1.7q-10.5-.6-21-1.5c-6-.7-12-.4-18-1.4-6.3 0-12.5-1.1-18.8-1.1-7.6-1.2-15.5-.8-23-2q-10.9-.5-21.6-1.4L657 89c-7.9-1.1-4.5 9.6-6 14.6-.7 6-1.6 12.2-1.7 18.3 3.3 2.7 10 .9 14.5 2.1q8-.2 16 .8c6.6 0 13.3-.1 20 .8 4.8 1.3 3.7-3.7 4.3-6.7.6-5.2.6-10.6 1.6-15.7 1.2-2.6-5-1.8.6-3 7.8-.6 15.7 1.4 23.5 1.2 7.2 1 14.5 1 21.7 1.7 6 .3 12.1.4 18 1.4q10 .1 20 1.3c6 0 12 1.2 18.3 1 7.6 1.1 15.4 1.3 23.1 1.7 7-.1 17.1 3.6 22.1-.2 1.9 1.3 3.2 4.2 6.4 3.2 2.4-.2 7.6.3 2.5.7-4-.3-8 .4-4.3 5.3-.6 3.6 5.5 6.1 4.9 6.6-3.3 1.2 1.2 10.4 5.7 9.4 7.4 1.2 14.9 2 22.1 3.3-6 1.4-16.4-2.7-24-2.5a27 27 0 0 1-3.8 10.3q6.2 1.2.7 1.6c-1.4 2.3-4.8 1.2-7.2 1.5-1.8 4.4-5.7 8.5-4.7 13.6.8 4-2.5 8.6-1.1 1.7-.8-3.7-5.9 7-3.8-.3-4.7-3.6-13.9-1.3-20.4-2.2-6.8-1.7-14.5-1.2-14.3 7.5 5.4.5 10.9 1.3 16.4 1.2q9.2 1.1 18.5 1.5c7 .6 14.1 1.4 21.3 1.5 6.3 1 12.8 1.2 19.2 1.6q9 .9 18.3 1.5c4.5.6 8.2 0 7.1-5.9.5-8.3 1.8-16.6 2.4-24.8 1.1-4.5-4.3-4-7.3-4.5-5.6-1-11.6-.9-16.8-2.9m84.9 321.7c-5-.8-6.4 5.4-11.3 4.1-3.7-2-8.6-9.4-12-3.5-4.8-.5 1.6-4.7 3.7-4.4 4.7-1 8 10.1 12 5.1 1.4-5.2 8.1-3.4 9-8.5-.4-4.3 4.6-6-.2-11.1-4.3 3-.8-.7-.5-3-2.7-6.6-7.7-12-10-19l-4.1-9.6c2.5-.8 7.5 9 5.3 1.2-.8-2.8-.8-5.8-2.2-8.3-2.9 3.7-11.3-.2-4.2-.7 3.4-.4 2.3-4.3 3.5-6.7-1.1-3.4-9.6-7.4-1.3-5.3-1.4-6.3-1.2-11.4-1.3-17.9-2-7-.9-14.4-2.6-21.4q-2.9-15-3.3-30.2a52 52 0 0 0-5.7 10.8c-4.9 11-10.2 21.8-15 32.7 1.5 2.6-5.6 3.6-4.5 8.2 1.4 2.3-3.7 1.2-3.9 4.7-3.5 5.8-8.4 11-10.2 17.7-.7 3 7.7.2 5 5.2-4 7.6 8.7-2.3 9.5 5.2 2.3-4.4 12.6 0 4.7 0-3.3 1-6.7 4.7-8.6-1.1-4 1.4-12.4 2.8-8.1-4.2-5.9 1.5-11.6 5-14.8 11.6-3.7 4.9-6.2 10.2-10.1 14.4 1.1 2.1.9 4.8 2.3 5.8-3.7 0-3.6 3.1 0 3-1.1 2.9-4.4 7.3-4.4 8 4.6-1.4 6 1.6 7.7 4.5 3.7-2 7-2.8 8.4 1.7 2.6-1.5 4.8-1.3 6.3 1.5 2.9-2.2 8.6-4.2 7 2-1.5.9-2.5-4.4-5.1-.2-3 1.8-5.1-3.7-8.5-.9-2.8-3.1-4-3.8-8.2-2.3-4-1-3.5-6.4-8.6-4.1-1.9 0-.9 2.8-4.3 3-1.3 2.1-4.1 3.7-4.5 6.1 1 3-3.5 4-3.8 6.7 2.7-.4 7.7-.6 5.4 4.2-2 3.8 0 6.2 2.7 1.3.3-1.2 3.6.5 3.4.3-3 4.6 0 7.1 3.5 3 2-3 5.7-.4 4.7 2.7 0 1.8 8-5.7 3.9.1-2 2.4-3.7 4.5.6 4.3 4-3.6 8.3-2.4 10.5 2.1 5 .1 10 7.6 14.5 2.4 2.4-1.1 4.4 1.4 6.2 2.7 1.1-7.2 6-1.3 10.1.1 3-2.5 8.8-7.5 7.6-1.6 5.5 4.6 6.3-6.6 12-7 3-4.4 10.2 3.3 8-3.6.5-4.4 9.4 5.3 6.4.1-6.2-2.3 3.3-1.8.4-6-.4-4.6-5.2 1.7-4.8 0 1.2-3.2 1.2-8.3 4.5-3.2 2.8.4-2.4-6.3-2.7-2.7m-407.6-65.4c-4 2.5-3.1 5.6 1 8.3a94 94 0 0 0 22 17.3 56 56 0 0 0 17.7-10.4c3.3-1.4 9.6-9.6 10.6-7.5a85 85 0 0 1-23.4 17.2c-6.2 3.4 5.8 6.5 8.3 8.7 10.2 5 20.2 10.4 30.7 14.6 13.3-7.7 24.8-18 37.8-26 2.3-2.1 14.7-9.6 7.4-3.5-13.9 9-27.1 19-40.9 28.3-5 2.4 1.5 3.7 3.6 5 10.3 4.6 20.6 9.2 30 15.4 5.3-2.9 10-6.8 15-10.2 15.1-11 30.3-21.8 46.4-31.1 2.6-2 6-3 8-5.6-2.8-2.1-15.7-8.6-5.8-4.5 6.5 5.4 12.9 1.6 18.5-3.1 8-5.8 16.2-11.2 23.8-17.3-2-2-5.2-2.7-7.3-4.5 4.7.8 10.8 5.7 15.3-.4 7.8-5 16.6-9.3 23.7-15.2-7-4-15.2-7.1-22.5-11-4.4-3.6 2.4.2 4.3 1 6.7 2.9 13.2 6.5 20.2 8.9l28-19.5q-11.4-8.7-23.9-15.5c-8.4 5-17.4 9.6-24.6 16.4-3.8.7 6.2-7 8.7-8.3 3.5-3.9 13.7-5.5 13.4-10.1q-18-15-38.7-26c-3 1.3-10.5 6.8-4.7 1.4 6.7-3.8-6.2-6.8-8.9-9.7q-13-7.8-27-13.5c-4.3 2.2-8.8 6.4-13 7.3 2.1-3.5 16.5-7 7-10.2q-14.5-6.7-29.9-11.1c-2.5 2.3-8.1 3-2.6.1-1.1-3.6-11.3-3.8-16-6-5-.6-10-5-14.8-3.4-9.2 3.2-18.4 6.9-26.9 12q-7.2 3.8-14.3 7.8c.1 2.4 2 3.8-2.7 1.8-7.8 3.2-15.5 7.2-23.3 10.6-17 7.3-30.3 20.6-45.1 31.3-9.6 8.5-22.5 11.4-33 18.3-3.6 2.3-8.1 3.5-10.8 6.8l22.3 18c2.4 1.3 5-1.8 7.4-2.5 5-2.3 9.8-5.7 15.1-7-3.8 3.4-9 4.9-13.3 7.4-3.7 1.5-9.5 4.2-3.2 7.1 8.8 7.8 17 16.6 25.8 24.3zm-54.6-16.3c5.4-3.7 11.8-5.7 17.2-9.3-3.8-4.5-9.1-7.6-13.5-11.5l-9.4-7.4c-12.8 6.4-25 14.2-38.2 20-11.1 3.1 4 9.8 7.5 14 4.7 2.9 9.6 11.3 15.1 5.4 7.7-2.5-8.2 3.7-1.2 6.4 6.5 5.8 13.2 11.5 19.2 17.8 4.2 4.4 7.4 14.4 14.3 7.4-5.2 2.8-5.4 7.4-1 11.3q8 11 17.6 20.5c5.2-2.2-1 3.1 4 4.8 9 9.8 19.6 18.3 31 25.3 2.7-.4 4.7-3.2 7-4.7q10.1-8.5 20.9-15.9c9.2-7 19.7-12.3 29.3-18.7-12.2-6-24.7-11.2-36.4-18.2-3-1.8-6.5-4.2-9.7-1-14.6 7.4-27.5 17.6-40.9 26.8-6 1.8 5.7-4.8 7.6-6.7a280 280 0 0 1 35.8-23.1c-7.8-5.6-16-11-22.2-18.4-.7-3.4-6.6-3.3-6-5-.9-3-5-5.5-7.3-8-7.3-6.8-14.4-13.8-21.9-20.1-6 2-11.7 6.1-17.8 8.3zm293.6 44.6c.6 3.3-6.7 4.8-7.2 9a225 225 0 0 1-17.7 29.7l-11.6 17.1c4-.5 8.4-8.5 13-10.9 4-2.6 3.8-8.3 7.9-10.5-1 4.6 2 .5 3.7-.8 3-2.6 5.7-5.6 8.8-7.7.4 3.9-7.6 7.8-10.5 11.5-1.6 1.8-10 8.7-5 8 3.1-.5.2 4 0 5.7 2.7 4.9 8-4.3 11.1-2.3 2.5 3.8 1.2 11.6-.8 4.1-.4-4.7-4.1.8-6.5 1-4.8 2.6-5.5-3.9-6.7-4.6-4.4.3-7.1.8-10.5 5.1-5.5 6.1-12.5 11-16.3 18.6-2.2 5.3-10.7 9-10.1 14.6 2 .2 8.5-4.2 7 .2-1.8 3.2 7.7 2.6 4.6 8 4.4-.8 3 4.7 7 3.3 6.3-3.6 6 8.7 10.9 2.2 4.7-3.3 11 11.4 5 5.4-2.2-8-8.4 3.1-11.3-2 1-6.7-10.3-4.8-8 1.2 1.7 9.9 12.4 5.7 15.8 0 .5 2.7 4 9.2 7.8 7.6 1.4-3.4-1-8 1.8-10.7 3.4.8 2.2 14 4.6 6.3.7-4 5.4-9.7 4.3-2 1 2.9 1.8 16-1.3 7.5-.6-5.8-1.4-4.6-2.3 0-1.8 4.2-4.6-5.7-5.4.4-.9 3-4.5.9-6-.6-3-2-6-5.8-9.1-1.5-7.6 5.1-12.1-5.6-14-10.3-2.7-1.5-6.2-1.8-6.5-2-3.2.5-4.7 9.2-7.4 12.7a251 251 0 0 1-21.8 34.9c2.3.7 6-.8 7.1 1.7-2.4 4.6-10.8 7-11.2 10.9 6.9 2.5 15 1.9 20.9 6.9 4.7 1.7 10.7 11.1 13.3 2.8 3.2.7 4.4 4.5 6.6 6.7 3.4 5.4 4.5-5.7 8.8.5 3.4 2.2 11.2 11.8 12.8 4.8 2-9.1 9.8 1.3 14.3 3 4.8 3.7-5-13.9 1.5-6.6 2.3 5.5.5-7.2 3.4-1.1l3.8 9.7c-1.5 2.8-4.5-2.4-6.4 1-5 .2-9.6-8-14.1-7 .2 8.2-8.4 5.9-12 1.4-2-1-4.4-4.6-6.3-3.6-.4 7.4-7.6-.6-9.5-3.3-3.5-6.9-3.2 7.1-7.4.7-2.7-3.6-1.6 2.1-2 4-.8 1-.1-9.6-5.6-9.8a29 29 0 0 0-14.9-6.4c-3.5-1-7.9-.6-10.5-3.6.3-4.9 12.4-7.5 9.7-10.6-4.2-1-7.2 1-9.2 5a59 59 0 0 1-12.9 15.4c1.8 1.6.7 3.7 0 5.7 6 3.6-4.4 9.2-6.8 12.6-8.5 6.7 6.3-1.7 9.5 0 1.6 2 3.4 4 6.1 4.7 2.3 4.4-3 11.6-1.7 3.8 1.2-3.7-1.8-2.5-4.1-1.5-4.5 2.7-.7 8 3.3 7 5.1-1 3.7 3 1.4 5.5-.8 2-5 4.9-1.5 6.1 2.2 1.2 5-1.1 7.4-1.4 5 1.3-7.2 11-1.2 9.4 5.5-1.6 10.8-3.7 16.2-5.4 5.9 1.8-12 8.3-3 9.9 5.3 1.3 10.5-4.3 15.5-2.4 2.8 1 5.5-3.5 8.9-2.8 6.8-2.5 10.4 3.5 3.9 6.9-1.2 1.7-11.5 6-7.7 5.8 5.5-.7 11.6-.9 16.2-4.1 1.3-2.2 5.3-2.2 6.6-.5 3 3 12.5 12.5 11.2 3-1-8 7-9.3 11-3.6 3.7 3 7.8 7 12.7 7.8 3-2.9-2.8-6.7-1.6-10.1 3-1.6 5.8 2 8.4 3.4 4.3 2.5 8.2 7 13.5 6.6-1.3-4.4-5.2-9-3-13.7 5-1.3 11.6 11.5 16.6 4-.1-4.7-5-7.9-5.3-12.4 4.6-2.6 9.1 5.8 14.5 5.1 1.8-2.6-4.4-9.1-4.4-13.4 1.8-8 11.5 8.6 13.4 5-.6-7.6-4.3-14.9-4.3-22.4 3.5-1 7.4 13 6 4.7-.7-3.2-6-13.4.6-7.6 2.7 2.1 11.3 10.1 11.4 4.2-1.4-4.4-11.3-6.4-9.6-10.1 6.3 2 12.2 5.4 18.8 6.2 2-.5 7 1 7-1.3L874.7 595c.2-2.8-3.4-3.4-5-5-3.3-1.4-4.8-4.6.1-4.6-1.9-2.7-4.6 0-6.8-1.8-1.8-.6-7.6-4.3-5.6-.4 1 2.9 4.6 5.6 2.6 8.8-6.5 1.1 1.8 9.1-3.5 9.1-3.9-.7-10.1-6.4-12-4.9 3.6 3.5 2.6 10-2.8 4.9-6.6-5.2-3.8 2.4-3.2 6.4-4 5.5-9.2-4.9-13-7-.3 4.8.1 9.7-.6 14.4-2.9-3.3-.5-12-1.8-16.9 2.2-3.8 5.3 2.8 7.5 4.3 1.4 2.5 7.2 6.3 5 1-3.3-3.8-1.5-12.6 3.8-6.3 7 4.3-5.5-11.8 4-6.6 2.6 1.3 12.4 9.6 11 5-4-5 5.6-4.1 2.2-8.4-2.4-3.4-8-11.5.4-9.3 6.3 2.5-3.7-8.4 4-4.9 0-1.4-2.9-4.2-3.4-6.3-.2-3.2 3-4.3-.4-7.1-1.3-2.8-3.5-5-5.7-7 1.5-2.4-.4-4.9-1.2-7.3-3.8-8.4-6-17.4-7.9-26.4-1.5-6-5.9 0-.8 2.3 3 4.3-3.9 7-7.5 6.4-2 .6-6-.8-6.6 1.3 1.4 4.6-4.1 6.2-7.4 4.1-4.2-.5.6-5.3 3-1 4.7 1-1.3-8.8 5.5-6.2 4.7.2 4.2-3.1 7.8-.5 9.9-.5-4.5-8 1.7-10.6 2.5 0 5.2-2 4.2-4.7-2-5.7 5-8.4 1.6-14-.2-5.1 4.7-1.9 7.6-2 1.8-3-4.1-7.7-2-11.7a67 67 0 0 1-17.4-28.5c-.2-7.2-6.4-5-8.3-4 .3-3 6.6-2.7 4.7-6.3-.3-5-3-6-7.2-4.9 5.1-1.6 4.5-5.1 3-9.3-1-4.1-3-6-2.6-11 0-5.5-3-3.8-6.1-2.5 8.9-6 .5-17.6.5-26.3-.7-5.5-1.5 2-2.3 4a181 181 0 0 1-10 29.7c.6 1.7 2.4-.9 3.3-1.1M353 235.6c.8-3 5.5-2.5 8-3.8 6.3-2 12.9-2.6 19.2-4.6-.6-3.5-5-.2-7.4 0L352 233c-.7 7.5 1.5 15.4 2.9 23 5.2-5.5 7.3 1.4 7.3 5.9l1.7 9.6c-1.6 1.1-4.3 5.2-.5 3.4 6.5-2.3 13.3-4.2 19.7-6.7 2.4-5.4-.5-12.8-.1-19-2.2-5.9.5-16.2-4.5-19.2q-12.8 2.4-25.5 5.6m1.6 167.8q-15.8-16.2-32-32c-2.4-1.7-5.5 1.5-8.2 2-9.3 4.4-19.1 7.6-27.9 12.9-14.4 4.4-27.7 11.6-41.7 17.2-9.7 4.4-19.8 8.2-29.2 13.1 0 5 4.3 3 4.4 1.6 1.8 6.3-5 3-6.5-.4-5.2 0 .2 4.4 1.2 6.5 3.4-.2.8 4.1 3 5.6q10.7 15.6 22.4 30.4c4-1 7.4-3.7 11.1-5.3q14.7-7 29-14.6 23.4-11 46.5-22.6c9-4.2 18.4-8.1 27-13.4zm390.3 11.3c-16.4 10.1-33 20-48.5 31.5-6.9 5.1-14.2 9.9-20.9 15.3-.4 2.6 4.6 4 6.7 6q15.4 10 30.6 20.4c2.6 1.5 4.8-2.5 7.2-3.5 13.4-10 26.6-20 41-28.5 12.3-7.7 23.6-17 35.2-25.8 4.8-5.2 6.6-12.5 9.4-18.9 4-6 1.9-10.9-5-12.6-6.7-2.8-13-6.3-19.7-8.9-11.3 7.7-22.2 16-33.6 23.6 1.5 3.2 7.5 3.8 11.2 5.3 9.1 3 18.6 5 27.3 8.8-.8 2-4.3-.8-6.1-.9-11.6-4-23.8-6.9-34.8-11.8M920 84.8c-7-.7-14 0-21-1-8.5-.2-17 0-25.5-.9-7.3.4-14.3-1-21.6-.7q-10.3 0-20.5-.8-9.6 0-19-.8c-8.3 0-16.5 0-24.7-.8q-8.9.2-17.4-.7c-7.6 0-15.1 0-22.6-.8q-10.4 0-20.6-.8c-8 .2-15.8-.6-23.7-.9-10.4-.2-20.9-.8-31.4-.8q-8.8-1.2-17.8-.4c-1.7 5.2-3.9 15.6 5 12.9q11.8 1.3 23.9 1.6c8.6 1.3 17.4 1 26 2.2q11.2.5 22.6 1.7 8.9.3 17.8 1.3 11 .4 21.7 1.6c6.5 0 12.8 1.1 19.3 1.1q8.8 1 17.6 1.4l19.7 1.6q9 .3 18.3 1.3c7.4.5 14.8.7 22.2 1.6q10 .5 20 1.5c6.7.1 13.4 1.2 20.1 1.2 5.6 1.7 12.5 1.1 11-6.5-.3-5 1.4-10 .6-15.1m-789 220c0-6.5-11-16.7.3-17.8 6.4-1 18.3-10.9 18.9.3 2.6 5.2 3.5 15.5 8.9 16.9 9.5-1.4 1.4-11.2 0-17-3.7-8.3-4.8-17.5-7.7-26.1-.8-3.7-2.2-7.2-2.5-10.9 4.2-2.1 11 4.6 15.8 7 5.2 2 8.8 6 10 11.5q4.5 13.2 8.4 26.4c5 2.2 10.4-5.1 16.4-4.1a175 175 0 0 1-8.7-31.1c-.9-2.3-.1-5.9-3-6.6q-34.7-19.6-69.4-38.7c-3-1.9-3.5 3.7-5.3 5.4q-21.8 39.8-43.4 79.8c3 8.4 6 17 11.6 24 1.7 5.9 6.2 9.1 11.7 4.9 5.3-.3 10.5-2.5 5.7-8q-5-14-9.1-28.3c3.7-9.4 7-19.1 10.9-28.4 2.4-4.7 5-.4 5.5 3q8.7 26.4 18.7 52.3c4.8-2.3 14.2-2.5 8.9-9.6q-1-2.7-2.6-4.9m583 186.1c-12 7.7-23.8 16-35.7 24q-14.7 10-28.1 21.9 15.7 12.2 32.7 22.3c2.6-.4 4.3-3.5 6.6-5l24.1-22.5q16.4-15.2 32.5-30.8c-.1-2.8-5.3-4.8 1-7 3.6-.8-6.1-2.4-.2-4q4.8-2.5 9-5.5c-6.3-2.5 5.2-4.9 7.3-6.5 10-5 14.4-15.7 20.9-24q6.3-9.8 11.2-20.3c-5 1.4-10.2 8-15.3 10.9-15.3 12-32.7 20.7-48 32.7-5.2 4-10.8 7.6-15.7 12-.5 2.4 4 3.6 5.6 5.5l6.2 4.6c-3.5 1-9.3-6.8-14.1-8.3M644.6 172c5.5 2.4 11.9.6 17.7 2 8 .2 16 1 24 1.5 7.6.6 15.2.7 22.7 1.5 9.2.2 18.3 1.8 27.6 1.6q9 .9 18.3 1.6c7.2.7 14.5.4 21.6 1.5 8.2.4 16.5.6 24.6 1.6 7 0 13.9.9 20.9 1.2q11.7.9 23.5 1.6 14.4.6 29 2c10.6.7 21.3 1.7 32 2 6 1.5 5.9-10.4 3.8-13.1q-10-1.2-19.9-1.6-9.5-1.2-19.2-1.4-10.6-1.2-21.4-1.7-9.4-1.3-19-1.4-10.6-1.2-21.6-1.7-9.4-1.2-19-1.4a266 266 0 0 0-21.5-1.7q-9.4-1.2-19-1.5c-6.8-1.5-13 .5-18.9-1.4-6 .5-11.6-1.4-17.9-1.6l-22.3-1.6q-9.3-.7-18.5-1.6A297 297 0 0 1 652 157c-9.4-2.5-6.4 8.4-7.4 14.1zm70.9-58.7q10 .6 20 1.5c8.7.1 17.2 1.5 25.8 1.5 6.1 1 12.4.7 18.5 1.6q10.3.4 20.7 1.5c5.8-.3 11.5 1.2 17.4.9 6.6 1 13.3 1 20 1.6 5.6.5 14.9 3 12.4-6.1 1.3-5.3-4-3.7-7.2-4.2-22.8-2-45.7-2.8-68.5-4.7-6-.3-12-.3-18-1.3-6.4 0-12.8-1-19.3-1-6.2-1-12.5-.7-18.7-1.5-4.5-.2-10.7-2-8.5 5 0 8 .4 16 2.3 23.7 7 2.8 15.8.9 23.4 2 8.2.8 16.5.2 24.7 1.1 7.1-.1 14.1.6 21.2 1 6.8-.3 13.4.5 20.1.7 10.1-.1 20.1 1 30.2.8 6 .6 12 1.2 17.9.4.4-4.7 1-9.7-.3-14.2-8-.3-16-1.2-23.9-1.7a646 646 0 0 1-22.7-1.7c-9-.1-17.8-1.4-26.8-1.6q-11.2-1.1-22.4-1.6c-5.5-1.2-11.2-.4-16.7-1.5-7.2-.4-14.6-.2-21.6-2.2m-42.4 349.9c-8.6 5-16.8 10.9-25.1 16.5a394 394 0 0 0-35.7 27.2 305 305 0 0 0 36.6 28.9 432 432 0 0 1 42.1-31.3q10.2-6.8 20-13.7c.4-4.4-9.5-7.8-13.3-11.6q-12.1-8.1-24.6-16m206.1-218.6c-.6 10.3 1 20.5.7 30.7-.3 8.2 1 16.3.7 24.5 0 3.9-.5 8 1.7 11.4a93 93 0 0 0 20 27.7q13 10.8 26.4 20.7c2.8 0 3.3-4.2 5-6 5-8.9 10.8-17.6 14.6-27.1.7-4.2 6.6-13.5-1.5-11.6-2.5-5.2-9.2 3.7-9.5-3.2-3.5-3.5-4.8 8.3-6.8 10.5-2.6 4.2-1.7 16.4-9.5 11.7-6-3.7 1.3-12.2 2.6-17.6 2.7-3.6 3.2-8.6.2-12-3-2.4 2.1-8-4.6-7.1-5.8-.6-6.9-4.9-8.2-8.9 3-5.3-5.7-1.4-8.2-2.8-2.8.5-7.4 14-8.7 7.3 1.1-3-3.7-4.3-.4-7.5-.1-3.7 1.7-9 1.3-12-3 1.3-3-3.7-6.3-2.7-3.1.5-3.5-2.9-3.8-5.1.5-3.7.5-7.8 1.7-11.3-2.7-1.8.3-3.4.5-6.1-.7-4.3-4.5-4.8-7.9-3.5M274.5 471.4c6.7-3.1 14-5.2 19.9-10 5.4-2.8 11.3-4.7 16-8.8 7.7-2.6 14.4-5.7 22.1-8.5 6.3-1.8 10-9.5 17.3-8.5a14 14 0 0 1 10.6-1.9c11.2-5.5 22-11.9 33.1-17.7 1.7-4-7.3-8.1-10.1-12q-18.2-16.8-36.7-33.2c-3.3 1.5-18.8 4.2-11.4 9.4a469 469 0 0 0 24 23.9c2.6 2.3-.5 4.3 1 7 5.5 2.9-4.3 4.8-7 7.1q-25.4 13-50.7 25.6c-10.8 5.4-21.8 10.5-32.4 16.2-8.8 4.2-18 7.9-26.6 12.5 2.6 3.6 7 12.7 9.6 12 .2-5 4.6-7.9 8-10.7 4.2-1.4 8.9-1.6 13.3-2.4m360.9-27.8a308 308 0 0 0-51.3 34.5c-5.3 2.8-6.3 6.8-.8 9.2 9 6 17.6 12.6 26.9 18 4-.5 7-4.5 10.3-6.8q19.1-15.3 39.8-28.7c3.6-2.5 7.5-4.6 10.8-7.4-4.8-5.4-13.2-8.1-19.9-11.7q-7.7-3.8-15.8-7.1m318.8-201.4c-5.7 5.3-5.3-8.2-8.9-2.2-4.5 4.2-9.3 9-10.1 15.3.1 5.3-3.6 3.2-5.8 3-.1 2.4 3.2 3.3.5 6 3.4-.2 6.7 3.2 5.4 6.7q3.8-2.3 6.8 1c1.8 2.4 3 3 5.6 2 1.7 1.7 3 4.5 5 5.5 2.5-1.7 4.7 2.2 6.5 1.7.4-3.3 5.6-2.5 7-.3 3.4 4.7 7.2 4.2 8.7-1.3 1.4-5 3.7-.3 5.4-.1-1.4-7.9-3.4-15.8-4.5-23.7 3.2-4-1.4-7.8-4-5.5 2.8-1-.3-6.7 2.7-4.6 3.8-1.5 11.1 1.7 9-5.7-2.2-6.6 8-4.2 3.8-10.8a31 31 0 0 1-3.4-19.4c0-4 2-14.9-1.2-15.3-6.1 10.2-17.2 15-26.5 21.8q-6.7 4.4-13.2 9.2c1 1.8 5.6 4.7 3.4 8.7-1.4 2.4 6 .6 4.5 6 1.6 1.6 5-2.7 5.9 1.6 4.6-1.1 4.7 5.7 0 2.4-1.2-.2-1.9-1.2-2.6-2M534.7 109.3c-3.9 6.7-6.6 14-9.5 21.1 4-4 6.3-13 9.3-19.3 1.4-3.1 5-11.6.7-4.3q-.5 1.2-.5 2.5m-74 96.6c-4.5 6.6 8.4 1.2 5.9-1-.7 2.5-5-.2-5.5.8 2.1-1.2 4.3-2.5 3.4-5.3-.2-6.7.3-13.5-.2-20.2-3.9-2.3-6 2.7-5 6 .2 6.1-.4 12.3.3 18.3l.5.8zm446 29.4c-1 3.9-4 6.4-.5 9.2-2.2 7 9-3.2 7 5.1-.7 5.4-2.5-4.2-5.5-.1-5.5 2.2-2.1-6.5-7.1-4-1-1.8 1-6.4-3-3.6-3.4 2-3.6 3.3-2.6 5.8-3.5 1.2-2.7 5.1-5.2 7.5 3 2-.6 4.3-1.5 6.4-2 3.3 6.3-1.7 4.1 3.9 5-3.3 5.5 1.2 4.3 4 2.6-.6 3.6 2.7 5.6 3-.4 4.2 3.9.5 5 3.3 1.8 2.7 4.4-.1 6.3-1.1 2.9-2-7-2.6-.7-5.6l10.6-10.6c-2.4-2.6-.3-4.5 1.7-6.5.9-5.8 8.8-6.6 10.9-11.7 1.7-3.8-.3-13.8 1.2-13.2 2 3.7-1.9 18 3.9 8.8-.6-2.5 1.8-5.7-.6-7.6-4.4-3.2 7.8-7.2-.6-8.2-2.5-.7-3.5 6.8-4.7.5-1.6-2.9 2.8-8.2 4.6-3.7 7.6 2.7 0-9.1 2.3-13.6.1-8.2.9-16.4.9-24.6q1.9-5.1 2.2-10.4c-1.7-3.7-3.1 3.2-4.4 4.7a106 106 0 0 1-17.5 25.7c-1.4 2 0 5.5-2.3 7.7-1.7 3.2-7.4 10.9-.3 7.4 6.2 0-7 7.4-7.8 2.3-1.7 1.8-4.4 3.3-5.4 5.3.8 4-5.1 5-4 8.4-5.7 3.6 9.8-2.2 3.6 4.6zM249.4 293q6.9-3.9 14.4-6c4.1-2 8.4-3 12.8-4 4.1.6 6.8-6 1.6-4.8q-22.2 7.2-44.2 14.9c-2.4 5.5-4.6-2.2-5.2-4.9-3.6-13.7-6.8-27.6-10.4-41.3-.6-4 4.5-3.4 7.1-4.4 5.8-1.7 12.2-2 17.5-5 5 1 11-1.8 14.7-3.4 4.1 2.4 7.8-3.3 11.7-1.8 5.6-3.2 6.5 1.2 6.6 5.6q2.3 17.7 5.7 35.3c.6 4 1 8.7 6.3 6.7 4.6-1.8 11-3.6 7-9.9-3.4-12.6-5.2-25.6-7.5-38.4-3.8-1.2-4.6-6.6-9.8-8-5.3-2-11 1.5-16.4 2.5-18.9 5.3-38 10.3-56.8 15.8-4 3.7 1.6 10.9 1.8 15.9q5.4 20.6 10.6 41.3c1.6 7 8 1.8 12.5 2.4 4.7-2.4 10-2.3 14.1-6.2 2-1.6 3.1-3.4 5.9-2.3m397.1-137.8c4.7 1.8 10.4.9 15.5 1.7l18.8 1.5c7.7.3 15.3 1.3 22.9 1.6 5.3.8 10.7.4 16 1.5 7.1 2.8 7.5-7.4.2-5.4l-18.2.2c-2.4-3-6.4-1.2-9.6-1.7-8-2.3 9 1.9 9.1-3.2q1-12.3 2.2-24.4-8.8-1-17.8-1.2-7.5.3-15-.8c-6.2 0-12.5.3-18.6-.9-6.7 2.3-2.7 13.4-5 19.4.4 4-1.6 7.9-.5 11.7M482.3 328.4q12.8 9.1 25.2 18.5c8.3-3.5 15.7-8.7 23.9-12.4 8.4-4.2 17.1-8.1 24.2-14.5 5.5-2.9 11.7-8 4.4-12.8-3.5-3.5-8.1-5.4-12.4-7.7-11.8 3.6-22.5 10-33.7 15-10.2 5.4-21.4 8.6-31.6 13.9m100.9-73.5c-10.3 3.6-20.7 6.6-30.6 11.3a634 634 0 0 1-35 14.6c4 4.7 12.6 7.9 18.5 11.5 4.7 1.5 9.7 7.2 14.8 4.2 15-5.4 29.1-13.2 43.4-20.4 3.7-2 14.3-4.5 5-7.6q-9-5.7-16.1-13.6m-406 64c-4.5-3-8.4 2.1-12.3 3.7-6.3 2.4-13.4 2.1-19 6.2-5 2.2-10.2 1.6-14.4 5.2-4-2.2-7.4.1-10.9 2-5.5 3-11.2 5.8-17.5 6.9-7.8 1.3-14.3 7.7-22.2 7.6-5.1-.5-1.2 7.1.5 9.2.9 3.5 3.2 6.5 5.2 3.7 2.7 3.4-5.5 2.6-.7 6.7 4.6.6 1.7-9.6 4-4.7-.5 5.4 5.9 2 2-1.7-3.4-7.5 7.8-9 12.7-11.8 12-4.3 24.5-7.2 36.7-10.8 2.3-1.8 9.5-3.2 8.7 1.6 5.3 1.2 10-6.7 15.7-5.5 4.9-.1 7-7 12.8-3.6 3.4-1.2 6.6-3.4 10.3-3.3 3.2-.9 6.3-3 9.5-3.6 5.6 2.6.6-6.7 1.9-9.5-2.3-2-2.3-4.7-2.4-7.5-4.5 1.8-11.6 2.5-16.1 6.3a8 8 0 0 1-4.5 2.9m650.9 115.8q14.6-4.9 30-6.3c7.2-1 14.5-.4 21.7-.4 6.7 2 12-.8 14.8-7.2-7.7-3.1-16.3-4.7-23-10-7-4.5-11.5-11.5-17.7-16.9-3.6-4.5-8.2 2.6-11.7 4.2q-9.4 6.9-19.1 13.3c.8 7.5 2.8 14.9 4.5 22.2l.3.6zm33-181.4c-2.8 3.8-7.8 4.8-11.7 7.2-5 2.7-10.4 4.7-14.9 8.1 4.4 4 11.3 5.7 17.1 7.7 5 1.7 12.2 4.2 10.3-3.4v-29.2c-4.7-3.6-13.5-2-19.5-1.8.5 5-2.6 11.2-8.2 7.9-8.7-.6-17.3 1-26 .6-3.8-.4-5.4 7.5-5.6.7l-2.6-7.4c-4.8 2.9-10.3 5.2-14.2 9.3a183 183 0 0 0 25.2 11.3c6.8 2.3 14.2 1.8 21.1 3.8zm-380.8 75.6c-14 7.3-27.8 15.1-42.1 21.9-1.9 3.1 6.5 5 8.1 7.4q8.4 6.2 16.5 12.8c14.6-7.1 29.4-14.2 43.2-22.6-2-3.6-7-6.3-10.5-9.1-4.7-3.3-9-7-14-10zm480.2-21.7c4 5.5 2.6-5.4 6.9-2.2 3.2 2 1-3.7 3-5 2-3 1.4-7.1 2.3-10.6 1.5-3.3-2.6-3.6-4.6-5-2.3-2.2-4.2 1.6-6.7-.8-3.8 6.5-5.1 3.7-6.3-1.7-2.3 1.8-4.5-.9-6-.5-1.6 3.6-3.7-.9-2.5-3 .3-3.5-4.9 2.2-5.2-3.3-2.7 1.3-4 0-4-2.7-2 1.2-5.9 2-5.2-1.6 1-2.8-3.9-3.6-5.4-2.3l-5.9 5.2c3.9 5.4-7.4 9.6-2 14.9 4.1 1.1-.2 4.6 1.4 6.1 4.6.2 6.8.6 7.9 4.5-.2 3.8 1.1 2.6 3.6 3.4.3 4 5.2-1.8 5 2.6 1.1 2 4 0 3.4 4.4 2.4 2.2 6.2-4 7.5 2 2.6 0 5.4.5 7.3-1.8 2.6-4.2 2.7 2.8 4.4-1.1zm-99.1-26.9c-9.7-2-19-5.6-28-9.8-2.7-1.4-5 2.3-7.6 3.3q-9.9 6.4-19.7 13c6.9 6.5 16.2 9.4 24.4 13.9 6.8 2.9 13 7.2 20 9.7 7-1.7 13.6-6.7 11.4-14.7 0-5.1.1-10.3-.5-15.4m-10.5 109.5c10-6.3 19.6-13.3 29.6-19.5 2.6-2-3.9-3-5.5-4.4l-33-16.3a234 234 0 0 0-26.8 18.5c-1.2 3.3 6.7 4 9.6 6.4 9 4.5 18.3 8.6 26 15.3m16.7-109.3c-.4 9.2-.9 18.7.2 27.8a81 81 0 0 0 18.8 28.3 196 196 0 0 0 31.9 27c2.8 6.6 11.3 1.5 9-3.2q-15-9.6-28.3-21.7c-7.1-8.1-15.4-16-18.9-26.6-4.1-6.8-1.9-14.5-2.3-22-1-8.3 0-16.8-1.3-25.1-.3-8.5.7-17-1.2-25.3-5-3.2-10.4.2-8.3 6 .2 11.6-.6 23.5.4 34.8m-59.1 120.6c2.3-5.4 3.6-11.2 5.4-16.8-.9-2.9 2.5-9.9 3.2-5.1-1 5.4 1.7 10.6 2.1 16 1 4.8 1.2 10 3.3 14.4 9-5 17.2-11.7 25.6-17.8 2.8-3.3-7.1-6.3-9.4-9.1-8.6-4-16.8-8.9-25.6-12.3-4.4.5-7.8 4.7-11.9 6.5-6 4-12.6 7.4-18.3 11.8.9 1.7 4.2 2.3 6.1 3.4zM503.2 221.4c2.9-1.2 3.6-3.5 3.2-6.4.2-12.4-.3-24.9.4-37.3 0-5 2.5-13.2-4.3-14.3-4-1.3-7.7-4-12-4-6 .5-3.1 7.4-3.6 11.5 0 8-.1 16 .8 23.8.2 6.3-.6 12.8.6 19 3.2 3.9 9.4 7.7 14.9 7.7m358.7 84.2c-3 2.7-13.6 5.7-4.8 8 1.7 2.8-8.4-3.6-11.3 1.5l-25.6 15.7c-.5 5 10.2 8 14.2 11.9 3.8 2 8 7.2 12 2.7 8.4-5 17.4-9.2 25.6-14.7-.7-5.2-6.3-9.8-8.1-15.2a15 15 0 0 1-2-9.9m-281.5-159c-.2 8.5-1 17-1.5 25.4-1.9 10.2 10.6-.3 15.6-.7l7.8-2.2c2-4.6 2.8-11 2.6-16.8.7-7.9 1.8-15.7 2-23.6-2.3-4.5-10.5 1.1-15.1 1.3-6.6-.3-5.6 4.5-3.2 8.6 1.2 2 3 6-1.1 4.6-1.7 2.8-5.4-2.4-6 1.2zm308.1 90c5-14.7 10.4-29.2 15.1-44-3.3-1.6-9.2 0-13.2-1.3-6.6 0-13-1.2-19.6-1.1-6-.9-12-.8-18-1.4-6-1-14.2-2.3-13.4 6.4 2.1 5.2 12.2 2.6 17.7 4.4 4.5 0 8.3 1.6 4.6 6.2-.7 6.6-9 15.7-5.5 20.8 2.2-2 3-6.9 4.4-10.2 2.2-5 2.7-11 6.7-14.9 9 1.9 18.1 2.6 27.1 4.4-3.8 10-8.2 19.8-11.3 30 1.5 1.4 3.6 1.1 5.4.7m-527.7 59.1c1.1-3.8 3.4-13 .9-14.5-6.9 2.7-14.3 4-20.9 7.5-3.2 1.2-6.3 2.8-9.7 2.4-5.1 4-13 4.9-18.8 8.6a4 4 0 0 0-.5 6.8c-.6 2.5-.8 5 .6 7.4 0 4 1.3 5 5.1 3.3 9.5-2.6 19.3-4.3 28.1-9 4.5-4.8 18.7-3.3 15.2-12.5m715.3 154c-4 .7-5.9 5.2-8.4 8-2 5.3 9.3 8.2 13.6 11.2 4.1 3.6 10.7-8.9 11.3-4.8-3.4 2.5-10.4 7.2-2.7 9 6.2 1.9 15.7 11 19.8 2.4 2-4 9.3-8.5 3.7-2.4-3 3-7.5 8.6 0 8 6.2 2.3 12.5 5.4 17.4-1.4 4.5-2.3 6-5.8.4-6.7zm-48 14.3q11.3 5.8 22.2 12.3 10.5 5.2 21.2 9.7c3.5-4.7 7.6-9 10.6-14-3.1-4.8-11.4-6.7-16.2-10.5-6.2 2.2-6.1 11.6-11.3 15.2 1.4-6 8-12.1 7.9-17-8-3.3-16.8-10-25.1-9-3.4 4-7.4 8.3-9.3 13.3M784.2 253.6c-6.4 4-13.2 7.6-19.4 11.9 13.3 6.7 27.3 12 39.8 20.3 9-4.8 17-11 25.6-16.4-6.6-2.8-14.7-1.6-21.5-4.5-8.6-2.8-16.3-7.7-24.5-11.3m-178.6 18.6c-18.6 8-36 18.6-55.1 25.7.8 4.4 13.2 7.2 15.2 14.1 6.1-4.2 11.8-9.5 18.1-13.6 11.3-7 23.9-11.7 35.6-17.8-1.6-3.1-7-4.6-10.2-6.7zm328.8 215.6c2.5 3.7-10.1.8-7.2 7.3-2 2.7-3.8-1.2-5.6 1.5-.3-2.5-3.4-4.6-4.7-1.5-2.8 3-2.2-2.4-1.5-4.2 2.4-4.6-1.8-6.7-6-4.6-4.9-1.6-8.3-1.4-10.6 3.3l-20.1 25.5c9.6 5.5 19.8 10 29.7 14.9 3.3 1.7 4.6-3 6.4-4.9l25.8-35.9c-.9-5-8.2 1-8.1-4.6-5.4-.6-.9 8.5 1.9 3.2M711.5 217.6c-2.7 5.6 7.7 2.2 10.9 3.8l19.1.1c-1.5-3-3-7.2.7-1.6 3.4.7 3.3-9 5.2-12.4 1-3 3.5-10.9-2.2-5.5-4 3.5-4 .9-.3-1.2-5.7-3-16.2-1.8-23.7-3.6-6.7-2.9-11.2 1.3-10.7 8.2-.4 3.8.4 7.7.5 11.4zm-62.7 1.3a61 61 0 0 0-13.4-1.2c-1.6-3.3 2.8-9.4-2.9-10-2.3-.4-6.8 1.1-2.1-1.6 4.2 1.5 7.2-.5 4.9-5.4-3.7-1.2-5.2-3.8-8.3-.7 1.1-5.3 4.5-3 7.2-1.6 4.5-2.1 2.7-9.8 2.6-12.8-2.8 2-5.7-1.5-8 1.2.3-5.3 6.7.6 9.1-4.2 1-2.4 2.4-10.8-2-6.5-3.5-1.1-2.7-1.8.1-1.7q4.2-1.6 4-6c1.4-4-1.1-4.6-3.6-3.4-3.3-5.2-4.5 8.5-6.5 2 3.5-.8 2.7-8.6 7.3-3.9 5.3-.7 5-9.2-1.4-7-9.6-1.5-6 11.1-9.2 16.7a53 53 0 0 0-1.2 13.6c1.5 7-.8 14-2 20.7 2.2 5.7-4.5 13 .6 17.4 5.3-1.4 10.6 1.3 16 1.1 3.6 1 8.8.1 8.5-4.5zm-99 7c-3-5.3 8.6-9.8 2-3.9-2.4 3 2.6 3 3 5.4 2.6 3.9 9.2-5.4 13.6-5.2 5-4.4-6.4-5.4-.8-10 5.5-3.2-1.8 4 3.8 5.3-.4 4.2 2.6 1.7 4.8.6 2.9-1.9 6.6-2.9 8.8-5.4-2.9-1.4-5.6-6.4-.7-7.6-5 6.6 8.4 9.2 8.4 1.4 1.5-4.2 4.2-13.7-3-8.6-5.7 3.3-11.3 6.7-17.6 8.8-.8 3.6-7.5 1-10.6 5-6.8 1.5-11 6.9-17.1 7.5-4.5 2.2-10.5 2.2-8.3 8.1-.3 2.7 3.7 3.8 3.3 6.8 1.3 5 9.2-2.6 12.7-3 3-2.2 0-4.4-2.3-5.2m523.3 223c-6.5-3.5-13.6-5.8-20.4-8.9-8.6-3.4-17-7.6-25.8-10.5-3.3 1.5-11.8 6.2-10 9.2 7.2 2.2 15 9.2 22.2 7.7 2.7-2.2 4.6-5.7 7.4-7.3-1 3.7-10.6 9.5-2.3 11.1l20.5 8.9zm-909.2-88.5c4.1 5.8 7.5 12.3 12.8 17.2 3.5 5.5 6.3 11.7 10.5 16.7 5.5 4.5 7.1 12.5 12.5 17.6 5.7-1.5 7.2 9.8 8.8 8.3-.2-4.4 5.8-5.6 2-10.5-.1-6.1-3.2-8.7-8.8-9.6-4.3-3.8-4.3-11-11.5-11.7-4.2-3.5.2-9.7-6.5-11-4.4-2.8-2-9.6-7.7-10.6a24 24 0 0 1-9-8.6c-4.4-4.7-1.8-12.9-4-16.7-5.2-.2-5.8 8-4.5 12 1.2 2.3 4.3 3.5 5.4 5.7zm324.4-126.6a203 203 0 0 1-46.7 21c-6.3 2.3-12.2 5-18.8 6.1-4.8 1.3-9 4.7-12.9 6.8-1 2.3 3.3 3.9 1 6.7-.7 3 1.5 5.2 4 2.5 3.8-2.4 8.2-4 12-6.4 1.5-3.4-4.4-5.3-.4-8.1 1.5 0 0 3.4 2.1 5 0 6.1 8-1.6 11.5-2 4.3-1.3 3.4-4.5-.4-4.9.8-4.5 6 4 8.6-.6 9.2-5.6 19.7-8.8 29-14.4 7-1.4 10.5-4 11-11.7m-2.9-20.2q.4-17.6-.6-35.2c-.2-5.6.2-11.3-.4-16.8-5.5-1-13 2.1-10.5 9.4 1.3 11.8.5 23.6.9 35.4 2 3.5 12.8-1.5 5.8 2.6-7-.2-7.1 13.2 0 6.7q2.3-1.3 4.8-2.1M850 140.8c-5-1.8-10.5-.8-15.8-1.2-7.7-1-15.7-.1-23.4-1-9.9-.5-19.7-.4-29.4-1.2-8.7.2-17.3-1-26-.9-7 .2-13.8-1.3-20.7-.6-7.3-.4-14.7-1.3-22-.7-1.9 4.4 9.3 1.8 12.3 2.9 6.3-.1 12.6 1 18.9.8 7.1 1.4 14.4 0 21.6 1.5 7.5 0 15.1.7 22.7 1.2 12.2.5 24.3 1.5 36.5 1.9 8.3 0 16.4 1 24.7 1 1.2-.6.3-2.5.6-3.7M289.2 302.3c-1.3-4.1 2.8-9.8 2.5-2 1.7 6 9.6 7.5 12.6 12.5 3.2 3.5 7.2 6.2 4.7 0a14 14 0 0 0-1.3-11.4c-4.5-.4-5-7.3-10.7-6.8-5.8-7.4-14.3.6-21 2.6q-9.9 4.4-20.4 6.6c-7 .6-12 5.8-18.3 8.3-6 5.1 7.3-.3 9.9-1.1 7.7-3.2 15.8-5.8 23.1-9.9 2.9-1.7 5.6.3 4.4 2.4 3.2 4.2 7.8 1.6 10.8-1.6zm724.9 136.4c-4.4 3-14 9-12.5 13.7 8.4 3.3 16.7 7.5 25 10.8q4.7-7.3 10.2-14c-1-2-4.8-2.3-6.9-3.6zm91.4 42.3c-8-.4-16.7-11.5-23.3-6.4-2.6 4.3-13.8 12.3-4.3 14.5 6 2.5 11.9 5.5 18.2 6.9q5.2-7.2 9.4-15M815.6 158.1c4 1.7 8.5.6 12.8 1 6.4-.3 12.8 1.3 19.2.5 2.7-3.2 5.4-13.4-1-12.9-7.7-1.2-15.7-.3-23.5-1.7-5.3.2-6 9.2-7.5 13.1m71.9 274.1c-3.2-2.4-7.3-1-10.9-2q-10.5-.3-21.1.7c-8.8 1.3-18 2-26.1 6.1-.3 5.7 3.3 9.7 8.5 5.2 11.8-5 25-3.8 37.5-5.7 4 .3 13.6 1.8 14.1-.4-2.3-1.3 2.1-5.3-2-3.9M232.6 141.6C223 120.5 212.2 100 202.4 79c-1.8-3.2-6.2-14.6-6.3-5.7-1.9 13.9-3 27.9-5 41.8.5 3.5-3.6 14 2.7 11 1.6-7.2 1.4-14.7 2.7-21.8.8-6.4.4-13 1.4-19.3-1.3-5.3 2.2-6.3 3.5-.9 5.6 12 12 23.7 17.5 35.7 4.1 2.3 1.3 5.5 4.1 8.9l6.6 13c.7 1.7 2 .1 3-.1m504.9 20c7 2.7 15.7 1.3 23.4 2.7 13.2.6 26.5 2.6 39.8 2.9 6.1-9-6.5-9.4-12-7.7-2.3 4.2-1.6 0-2.8 1-2.5 4.7-.1-4.4-5.4-2-5.7-.6-11.2.7-16.9-.1-5.2-1-10.7-.4-15.6-.4-3.7-.3-10.1-2.2-10.5 3.6M305.7 278.5c1-5.6-1.7-11.3-2.2-17-2.2-11.5-6-22.6-7.6-34.3-4-3-9.2 3.2-6.1 8 2.7 12.7 4.4 25.7 7.7 38.3.7 2.7 5 1.2 6.9 3.7.4.3.5 1.5 1.3 1.3m110.4-99.3L356.9 109c-2.4-3.7-9.8-12.2-7.6-2.4 3.4 6.3 9.7 10.8 13.9 16.8 9.4 9.2 17.6 19.4 26 29.4 6.9 7.1 12.9 15 19.8 22 2 2.5 4 5.2 6.6 7.1.9-.6.4-1.8.5-2.7m470.6 30.4c-7.4-1.1-18.9-4.8-19.6 6.3-2 6-4.3 12-5.6 18.1 4.6 1 11.6 2.7 15 1 3.7-8.3 7.7-16.6 10.2-25.4m107.5 165.7c-2.1 3-5 5.7-6.4 9.2q13.1 6 27 9.6c3.8-3.3 6.6-7.8 10-11.6 2-2.3 4.8-5.1-.6-3.2-5.1-.9-8.8 2.5-6.6 6-3.8-.2-10.4 8.8-9.2.5.7-4.2 1.8-12.4-5-10.6q-4.7.5-9.2.1M200 85.5c-2.4 5.6-.4 12.1-2 18 1.1 7.4-3 16.2-1.4 22.7l11.1-2.5a49 49 0 0 0 2.5-17zm317.4 152.7c.2-2.3 3.4-7.2 2.5-2.3-1 2.2 1.2 6.1 3.1 6 5-2.3 16-1.3 14.1-9.3-4.3-2.8-1-11.4-8.4-7-2.2 1.5-5.4 2-7 4.2-4.4 2.3-13.5 4.7-10.6 12.4-2.8 6.6 6.7 1.2 8.7-.3zm464.8 193.4c4-4.5 11.3-10.6 11-16.2q-11-5.3-22.2-9.8c-3.1 2.7 2.6 11.6 5 16zM692.4 216.2l-31.6-2.9c-3.2-.6-9-2.1-8.9 2.7.5 5 4.6 6 9.1 5.2q10.5.9 21.1 1c4 .7 10.9 2 10-4zm19-76.4c-2.4 4.6-11.3 15.3-1 14.5 4.8-.2 9.7.5 14.4-.5 1.8-5.4 7.5-15.7-2.7-14q-5.3-.4-10.7 0M1107 481.6c-3.1 5.2-6.8 10.2-9.5 15.6l10 5.1a69 69 0 0 1 13.5-15.4c.8-4-8.5-4.5-12-5.2h-1zM622 226c.3 3.4-2.1 9.3 2 10.5 2 .3 5.9-.2 5.5-3-3.4-1.2-1.4-9.3-.5-3.8 1.3 2.2 2.6 4.2 1.8 7 5.5-.7 16.2 3.4 17.8-3.4 2.6-7.8-5.2-5.7-10-6.4-5.4-.4-10.7-2.3-16.1-1zm-149.8-13.2c-13.1 4.5-26.4 8.7-39.1 14-5.4 3-11.6 4-16.7 7.4-3 4.6 7.4-1.8 9.5-2.7 8-2.1 16.5-1.7 24.3-5.6 6-2 11.2-5.6 17.5-6.5 3.8-.8 8.4-1.5 4.5-6.6M696 191.2c-8.5-1-17.2-1-25.9-1-4.8 0-16.6-3.6-14.1 4.5q11.1 1 22.2 1.7c5.8-.1 11.5 1.9 17.2.4zm11.4 25.8c-1.2-2.3-3-4.6-1.8-7.3.3-3.8 2.3-7.7 1.3-11.5-2.7-2-3.8 3-3.8 5.1 1.2 2.9-.6 5.3-1.7 7.9.6 3.2-2 5.2-2.4 8 2.2 7.9-4.5-1.6.5-4.5q-.2-4.5 2.5-8c-1-3 2.4-13.8-1-7-2.7 6.5-4.3 13.4-6 20.3.4 2.7 1.8 5.3 1.5 8.4 6.7 3.7 12-3.4 10.5-10.1zm-288.7-21.9c-.9 8.1.7 16.2.8 24.3 2.6 2.6 12.1-1.7 8.3-7.2-.2-6.4.2-13-.4-19.3-2-1.7-6.4 1-8.7 2.2m166.2-10.6c4.5-.1 10.8 10.5 8.3 1.5 1-6.9 2.7-1.6 2.5 2.6 2.7 5.4 8.3-3 13.4-1.2 4.4.6 4-3.8 4.7-6.8 1.8-3.7-.6-5-4-3.6a62 62 0 0 0-24.9 7.5m-131.1-.7-9.7 3.2c0 5 1 10 .7 15 0 3-.2 5.9.3 8.7 8.8-.8 10.1-8.4 9.1-15.8q.1-5.5-.4-11.1m383.6 52.8c-6.4-.6-13-.2-19.3-.2-3 0-2.4 4-3.7 5.9-2.6 3.3 2.3 7 5.6 5.5 5.4-1.4-3-5.3.7-7.9 4.7-6.4-1 3 2.4 4.9 1 7 4.4.1 5.2-3.2 1.8-4.8 3.6-3 1 1-5.4 7.8 9.9 6.6 7.4-1q.7-2.4.7-5m-51.9 436.7c4-6.4 2.1-14.5 3.8-21.5-1.1-5.7-3 3.9-2.3 6.3 1.2 4.7-3.2 5.6-6 2.3-2-1-6-6-7-2.2l-1.6 11.2c2.8 3.6 8.8 7.2 13.1 3.9M406.8 282.2c-.1-4.8 3.9-9.4 1-13.3 2.6-4.5-3.4-7-6.8-8.2-8.1-5.1-7.2 7.4-4.9 10.3 6-1-4.3 3.1 2.3 5.3 3.5.8 6.3 3.1 8.4 5.9m427 167.4c9-4.4 19.4-4.4 29.1-6.5 8-1.8 16.4.6 24.3-.2 4.2-5.5-6.6-3.8-10-4.2-10.6 1-21.5.2-31.8 3.5-3.1 1.5-16.8 2.4-11.6 7.4m-80.5-294.1c7.2 1.2 16.6 2 17.7-7.5 6-7.8-9.5-7-12.9-4.7a64 64 0 0 0-4.8 12.2m-501.9 97.3c-1 6 1.6 12.2 1.1 18.4 1 15 32.3-15 6.4-19-2.5-.8-5 .7-7.5.6M865 517.5c6 5 13.4 8.4 20 12.7 8.9 5.2 17.5 10.8 26.6 15.5 6.2-3.6-5.6-7-8.3-9.1-12.3-6.8-24.4-14.2-36.9-20.5-.7-.4-1 1-1.4 1.4M231.9 284.3c5.9-.3 8.7-4 5.9-9.4-2.8-4.8.8-17-6-16.2-6.4-.2-4 5-3.3 8.9q1.1 8.5 3.4 16.7m558.5-140.5c-7-1.3-15.5-2.6-16.1 7-6.4 7.3 10 7.5 12 4 1.4-3.6 3.4-7.1 4.1-11m228.3 256.6c4.2-4.4 6-10.3 10-14.9 4-5.7 8.7-11 12.2-17.1-4.1-2.5-5 5.9-8.2 7.6-3 4.8-7.4 9-10.8 13.6-3 2-5 9.1-9.5 6.2-6.8-2.1-13.6-5-20.3-6.7 3.1 1.5 5.4 4.8 9.7 5.8 4.4 1.5 8.7 3.6 13.1 4.7q2.1-.7 3.8.8m-95.3-31.7c-11-7.2-22.4-14.4-31.5-24.2q-7.6-7.4-14.9-15.3c-.3 4.3 6.3 8.8 9 12.9a154 154 0 0 0 35.3 29.6zm-491.3-178c-1.2 7.8.7 15.4.4 23.2 1.2 3.5 8.5-1 6.1-4.7-1.3-5.9 2.8-17.6-2.1-20q-2.4.3-4.4 1.5m363-46.8c-.5 3.7-9.4 13.2-2 12.8 3 .2 5.9 1 8.8.5 1-3.4 7.6-12.8 2-13q-4.5 0-8.8-.3m56 76.5c2.1-6 5.2-11.8 6.5-18.1-8.9-5.9-9.6 6-12 12-2.6 5.7-.4 7 5.5 6.1m-711.5-59.5c-1.5-2.4-2.2-5.6-4.3-7.5-2.7 4.1-4.2 9-6.4 13.5-1.1 2.9-6.1 11.8.4 9q4.4 0 5.4-4.4zm414.1-86.4c-2.8 5.8 5.4 12 6.4 18.1 6.2 16 13.3 31.7 20.3 47.4 4 3 .8-3.2 0-5-5-11.8-10.6-23.4-15.2-35.5a390 390 0 0 0-11.5-25m-380.1 222c7.5-3.9-4.2.2-3.2-5.6a221 221 0 0 1-4.9-17.6c-.7-3.5 5.4-2.3 3.7-4.6-2.8-1.9-7.5-1.8-7.2-6.9-.4-3.7-2.8-4.8-1.2-.4 2.3 4.2 0 7-3.2 9.1 0 5.1 6-1.2 5.5 5 1.8 6.8 4.7 13.4 5.9 20.3-4.2 3.6 1.9 3.4 4 3zm-73.9.1c5.3 4.4 5.3 11.9 7.5 18 .5 2.6-9.4 8.2-1.9 5.3 3.3-2.6 6.5 7.2 5.1-.4.9-3.8 11.1-5.9 2-4.2-5.5-.3-4.2-8.1-6.5-11.8-2-3.3-3.2-7.5.8-9.6 3.7-2.7-.4-6-3.3-2.7-2.7-.2-2.6-4.8-4-7-3.4-6.3.5 5.2.4 7.8-.3 2-9.3 8.8-2.6 5.6l1.1-.7zm179-78.1c-2.5-6.4-3.8-15.9-8.3-20-7.7-.8-5.6 5-2.5 9.4 2.7 3.7 4 15 10.8 10.6m180.1-6.3c-7.9 2-15.4 5.5-23.2 8.2-5.8 2.4-11.9 4.4-17.5 7-.3 3.5 4.8.3 6.7-.1q17.7-6.2 35.1-13.4c3.4.4 11.3-5 4.7-4.6-2 .8-4.6.9-5.8 2.9m-219.1 44.6c-.5 6.7 2.5 13.4 3.2 20.1 2 6.8 7.7-1 5-5.1-1.3-5.3-.9-11-3.1-15.9-1.8-.6-3.5.2-5.1.9m101.5 20.1-5.5-32.8c-1.4-6.3-5.2-.4-3 3 1.7 9.6 2.6 19.4 4 29-.4 3.5 2.8.8 4.5.8m497.6-57.1c1.4-6.3 7-15 4.3-20.2-8.2-2-6.4 10.8-9.1 16-2.3 3.7.9 4.8 4 4.2h.4zM586 141.2c-.9-6.9-5.6-14-8-20.9-7.7-17.9-15-36-23.1-53.7-2.5 2.6 1.4 8.5 2.9 11.7q11.2 24.7 22 49.4c2.1 4.5 3.6 9.3 6.2 13.5m-115.4 24c-2.6 1.7-.8 6-1.4 8.8-1.1 10-.7 20.2-.6 30.3 1.2 4.7 5-.1 3.7-3 .3-8.5-1.2-16.8-.8-25.3 0-3.6-.6-7.2-.9-10.8m264.3-24.3c-2.4 4.3-3.4 9.3-5.2 13.9 7.3 3 9.6-3.6 12-9 3.8-6-2.4-5.6-6.8-4.9M278.1 273.3c.3-7.9-2-15.7-2.9-23.5-1.1-5.2-.8-10.6-2.6-15.6-4.7.6-1.2 6.8-1.4 10.2 1.4 9 2 18.4 4.6 27zm270.4-66.4c1-7.8-.3-17.9 3.2-24.3 3.9 0 5.2-5.3.2-2.4-3.4 1.2-15.7 3.8-12 6 2-.2 4.8-.3 7.1-1.7 3.7-1 1.3 4.4 1.7 6.5-.7 5-.5 10-1.2 14.8-3.9 3-11.3 5.1-9-2.8 0-3.8 1.5-13 0-13.4-1.1 6.7-1 13.6-1.3 20.4-4 .5-7.8 4.6-1.5 1.8 4.3-2 9.8-.4 12.8-4.9m-343.1 85c0-6.2-2.8-12.3-4-18.4-2.5-5.4-1.5-13.6-7-16.6-2 1.4.7 5 .8 7.4 2.6 8.3 4.5 16.9 7 25.2zm547.8-150.5c-8.1-3-10.4 4.4-12 10.8-2.2 6.3 9.6 3.8 8.7-2a39 39 0 0 0 3.3-8.8m-207.1 63.7c.3-5.1 1-10.3 1-15.4-.4-7.2-9-.3-6.1 4.7.7 4-3.4 15.5 4 11.1zm-402.6 90.8c3.3.4 5.6-3.7 1.2-2.7-4.3 3-5.8-8.5-7.4-4.8 2.9 5.1-1.2 8.6-4.3 11.8 2.6 1.5 6-4.5 8.1-1.3 1.5 3.7 6.5 11.4-.4 12.8-7.4 4.6 5.2.6 7.5-1.6 6.9-2.7-4.3-.6-3.6-6.7-.8-2.4-2.8-5-1.1-7.5m688.4-68c-2.9 1.6-1.9 4.1-.9 6.6 1.7 0 9.9.6 5.4-.9-3.8-2.3-1.4-10.1-.3-2.6 4 4.9 1.4-5.7 7.4-2.6 3.6-.3 7.5.4 11-.5-2.9-2.2-10.8-2-15.6-2.6-2.2.6-8-1.5-7 2.6m-268.3-29c-.7-7.5 0-15.1.7-22.6.9-3-.1-13.3-1.7-5.2-1.3 10.4-2.1 20.8-3.3 31.2 1.9-.4 3.2-2 4.3-3.4M132.2 144c-3.6 10-7.8 20-10.3 30.3 2.8 3.6 4.3-7.3 6-9.4 1.6-6.7 7.7-14 4.3-20.9m834.5 271.1c2.3 7.2 6.5 16.7 12.1 20.5 4.1-1.9-.5-5.4-1.4-8-2.1-3.3-3.8-7.1-6.2-10.2zM524.8 193c-.1 6.1-.7 12.3-.8 18.4 6.6 3.8 4-9.4 5.4-13.5.1-4.6.5-6.9-4.6-4.9M95.7 301.2c2.7 4.5 2.5 16.5 8.3 15.5 4.4-4.6-4.8-10.5-2.5-16-1.9-3.5-3.4-.5-5.8.5m716.8-143c1-4.6 9.4-14.3.2-13.6-3.5 1.7-4.4 9-5.6 13.3 1.8.3 3.6 1 5.4.3m-118.4 81.3c3.3 2.3 9.4 1.8 11-2.3 2.7-6.2-7.7-4.6-11.1-4 0 2.1-.3 4.2.1 6.3m-150-110.3c2.7 0 15.6-4.2 9.4-5.4-7.7 1.9-15.5 3.5-22.8 6.2-5.5 5.2 5.4 2.3 8 .4 3.7 1.7 3.8-4.4 5.4-1.2m-283.4 69.7c-2.9-7-6.9-13.4-9.9-20.3 0-3.5-7.7-12.4-5.2-5.2 4.1 8.3 8.4 16.5 11.8 25 .2 2.2 2.2.5 3.3.5m430.5 25.9c-9.5-1.5-19.1-1-28.7-1.8-2.4-.5-13.4.1-6.7 1.4 7.9 1 16 .2 23.8 1.6 3-.1 11 2.9 11.6-1.2m-157.4-34.9c-2 6.3-.9 12.9-1.1 19.3 2.5 1.5 4.7-2 3.8-4.7-.4-5.2 1.6-10.3.6-15.5zm191.6 357.6a25 25 0 0 0 17-11.4c3.2-2.7 5.5-10.8 0-4.6-5 4.7-9.3 10.5-15.4 13.8l-.8 1zm-455-277.8c-1.3-6.6-.8-13.4-2.1-20.1-6.5-2.4-2.6 9.5-2.2 13.3.8 2.3.3 10.3 4.3 6.8m275.8-126.1c-.7-3.4 3.3-13.2-1.1-12.4-3.4 2.9-.4 9.5-1.5 13.6-2.1 3.4 0 12.5 3.4 6.5.6-2.5.8-5.4-.8-7.7m322.5 60.6c-3.4 9.7-6.3 19.7-10 29.3 4.6-4.2 6-16.7 9.2-24 .6-7.8 8.5-.8 13.4-2.3 2.4-.4 13.2 3.6 10-.5zm-456-18.5c-2 5.3.4 11.4 0 17.1.9 6.8.8 13.6 2 20.4 0 4 1 9 1 2.5a328 328 0 0 0-2.6-39.4zm87.8 53.6c-1.2 2.8 1.6 7.8 2.4 2.8.2-4.8 1.2-1.4 1 1.4-.4 4.8 5.3 5 4.3 0 1-2.5.7-5.8-2.7-5.4-2.8-1-7.5-7.8-7.7-1.3.4 1 1.9 1.7 2.7 2.5m352-115.1c-1 5.5-1.7 18.2 6.5 13.2-2.2-3.3-1.1-14-6.5-13.2M333.8 276.9c-2.6-11.3-3.3-22.9-5.8-34.2-4.4-5-1.4 5.6-.5 7.9 1.7 8.5 2.1 17.4 4.6 25.8zM554.4 202c-.3-5.6.6-11.2.8-16.7-3-5.4-4.6 4-4 6.9-.1 3.1-3 13.8 3.2 9.8m-170 22.9c2.7 8 2.2 16.8 3.8 25q.1 10.3 2.9 20.2c.6-6.6-1.3-13.1-1.6-19.7q-1.4-13-3.2-25.8c-2.2-3.4-6.8 3.1-1.9.3m-138.9-56.3c-1.1-5.7-5.2-10.4-7.1-16-1.2-2.5-5.8-13.6-6.9-7.5q6.2 12 12.5 23.7zm-12.7 122.3q18-5.7 35.9-12.3c-4.5-3.8-7.6 4.6-13 2.7-5.8 1-10.8 4.4-16.7 5.5-1.7 1.5-6.9 1-6.2 4.1m213-119.8c-2.5 3.7-1.6 10.3 3.4 6.4 4.7-.4 7.2-4.6 3.7-8.2zm468.3 309.3c-3.7-1.1-5.6-8.3-6.6-1.8-8 7 6.1 7.3 10.3 4.6 1-2.1-1.9-3.7-3.7-2.8m-688-228.1c7 3 9.5-6.6 4.8-8.8-7 .6-8.3 2.6-4.8 8.8M174 292.8c4.8-3.3-1.9-11.1-2.1-16 .6-5.4-7.6-6.2-3.4-.3 2.2 5.3 3.2 11.2 5.5 16.3M115.4 312c-2.3-5.1-3.7-10.6-5.8-15.7-8-.3 1.5 8.3.7 13.2.5 3.1 2.3 6.1 5.1 2.5m323.3-130.9c1.6-5.6-.7-9.5-6.4-6-2.8 3.5-1.1 11.8 4.7 7l.9-.5zM106.9 286l-4.5-12.9c-1.5-.2-3 4.6-2.9 6.5 1.6 3 2.3 6.7 4.4 9.3 1.4-.4 2.2-1.7 3-2.9m430-129.5c3-4.6 2-10.8 2.7-16.2-.3-2.4 1.4-6-.5-7.5-4.2 2-1.8 10.2-2.7 14.7q-.1 4.5.5 9m14.3-26.5c.5 7.3-1.7 14.6-.4 21.8 3-.3 1.4-4.5 2.2-6.7 0-5.2 2-10.2 1.1-15.4-.6-1.5-2 .2-2.9.3m180.5 422.8c.3 3-11 7.2-4.5 6.4 6-2.4 11-13 11.7-16.3-3.2 2.3-7.2 3.8-9.5 7-5.3 2.7-.5-.2 2.3 2.9M257 238.2c-6.2-3-11 5.8-6 7.8 4.9.2 7.9-2 6.1-6.8zm300.8-83.1c3.8-4.7.6-11.7 2.4-17.3q.6-7.2.1-14.5c-2.2 5.1-.8 11-2.5 16.3-.5 5-.8 10.4 0 15.5m-25.7-20.6c-2.3 6.4-.4 13.4-2 20 1.6 9.4 4.3-5.7 3-9.1-1-3.3 2.6-9.1-1-10.9m280 109.9c2.6-3.6 3.6-11.5-1.6-6-4.4 1.6-5.5 12.9 2.2 9 1.8 0-.5-2-.6-3m-6.8-16.5a19 19 0 0 0-2.8 11.8c1 1.5.5 7.7 2.2 5.5 1.3-4.8 4.2-10 1.4-14.8l-.3-1.1zm-388.5-32.1c-1.4 8.4.8 16.8.4 25.2-2 8 9.4 2.5 11.4-.5-2.6-2.3-12.5 7.2-10.7-1.7.2-7.2-.9-14.2-1-21.4zm-288.6 94.8c1.5 4.5 6.1 9.8 8.1 2.3.3-6.3-4.5-5.3-8.1-2.3m421-118.1c-5.4-.7-10.1 5.2-6.2 8.6 5.4.6 6.1-3.8 6.1-7.9v-.4zM918.1 272c4.4-1.7 7.8-10.7 5.7-11.1-2.2 2.5-12.8 9.6-6.2 11zM152 252.3c-.2 2.5 1.7 5.1 2.2 7.7 1 2.4 1.4 5.3 3 7.4 3.3-1.1.9-4.4.7-6.8-.8-2.4-.4-5.7-3.3-6.6zm575.6-91c3 0 9 2.6 9.2-2.4-.2-5.6-10.6-3-9.2 2.4m-286 51.7c2.2-3 .8-7.1 1.2-10.6l-.1-15c-3.5 0-.7 9.7-2 13zm-241.7 96.9c-.6 4.7 3.3 8.3 2.6 13.2 1.3 1.3 7.3 1 5.7-1.6l-5.9-6.2c-.3-2 0-4.7-2.4-5.4m-63 .2c4.8-.2 6.5-2.7 3.4-7-1.4-4-9.4 2.2-4.3 5.5l.4.7zm715.8-78.7c-3.4-1.7-11.8-3.4-10.3 2.7-.4 1.8 1.9 6.8 2.2 2.6-.4-2 1.7-5 2.9-5-.2 3 4.7 3 5 .4v-.4zm-588.5-32.1c3.7-.6 10.5-3.5 4.3-6.6-5-.3-8.3 2-4.5 6.1zm273.5-14.1c-4.2 2.4-15.3 1.4-15 7.5 5-2 7.4-3 11.5-4.1 1.4-1 4.5-1 3.5-3.4m587.6 300.4c4.3 5 7-1.8 9.6-4.7 3-3.6 3-6.1-.8-2.3zM556.7 202.7c3-5.4 1.4-13.5 3-19.9.4-4.3 1.6-8.7 1.4-13-2.6-.5-1.3 8.9-2.5 12.4-.7 6.8-2 13.7-1.9 20.5m-129.7-26c-5.2.5-9.4 2.4-3.7 6.6 3.6 5 4.3-1.8 3.9-4.8zm425 62.8c3.1 3.2 13.6 1 9.3-3-4 1.2-8.4-2-9.3 3m-528.7 6.1q1.2 13.7 4.7 27c-1-8.9-.7-19-4.7-27m542.3 62.2c-1 4.8 2.5 10.6 5.2 14.6 1 1.7 5.4 8 4.2 3.4q-5.6-8.6-9.4-18M212.5 112.3l-1.4 10.8c4.3-.4 8.5-1 4.2-6.1q-1.2-2.5-2.8-4.7m26.8 136.9c5.1.5 5-6.1 2-8.2-4.8.1-4 5.2-2 8.2M525 187c5 .3 6-4.8 4.9-8.3-5.3.2-6 3.8-4.9 8.3m-80.4-2.3 9.4-3.4c2.4-5.8-11.4-1.9-9.4 3zM167.3 295.1c-3.4-6.5-3.3-14.5-6.8-20.6-1.8 5.7 3.8 14.2 5.5 20.6zm289.9-112.8c-2 3.6-.7 8-1.1 12 .1 3.8-.3 7.7.3 11.4 2.6-3.2.6-12 1.1-17.3q0-3-.3-6.1M851.9 145c2.4-.7 6 .8 7.5-1.4 2.2-5.3-11.4-4.1-7.5 1.4M303 561.1c.1 5 4.4 9.2 7.3 13.2 2.2 3.2 7.2 6.5 2.7 1q-4.8-7.3-10-14.2m576.4-319.3c4.2 5 12.8-3.4 4.4-4-2 2.3-5.5.3-4.4 4m-345.1-64.4c-2.3 3.8-1.2 9 3.3 5.3 1.1-4.8 2.4-8.5-3.3-5.3m163.4 418.4c2.6-1.9 11.8-9.1 8.8-9-2.6 3.5-11 4.6-11 8.7q1 .8 2.2.3M444.5 215.5c2.6-1.3 13.4-2.6 9.2-6.4-2.6 2.2-10 1.9-9.2 6.4m-183.3-14.6c-5.2 1 3.5 9 5 12.4 3.6 2.3-3.3-8.8-4.5-11.6zm202.1-28.3c2.9-4.3 0-8.6-4-4.1-.8 4.1 0 6.2 4 4.1m516.5 283.9c-1 3.4 6.8 12.8 6.6 7.1-1-3.8-3-5.8-6.6-7.1M377.1 141.6c-3.6-6.2-9.3-10.8-13.8-16.3-3.4-4.1-6-3.9-1.8-.1q7.3 7.8 14.4 15.8zM262.4 242.2c8.6 2.8 2.9-11.4-.4-4.1q-.4 2.1.4 4.1m667.5 11c3.4-.7 8.8-11.1 3.1-7-2.5 1.2-6.3 4.3-3.1 7m37.6 221.1c-6.4.8-4.9 11.6.6 5 1-1.5-.4-3.4-.6-5M555.4 177.6c.1-2.7 2.6-9.2-2.3-6.3-2 1.7-2.4 9.3 2.3 6.3m373.1 136.5c-2.2 4.2-8.4 15.7-5.6 16.8 1.8-5.5 4.5-10.7 6-16.2zm-76.3-90.7c1.7 1.8 2.2-4 3.3-5.4 1.5-4.2 3.5-8.3 4.4-12.5-3 1.5-3.7 8.4-5.7 12.4zm-731.3 96.9a96 96 0 0 0-7.8-23.1c2 7.8 4.2 15.8 7.8 23.1m25.1-30.2c.7-5.5-7.6-7-4.8-.7 1 3.6 3 2.6 4.8.7m630.3-55.9c6.9.6 16.4 2.8 21.9.9-6.9-1.7-14-.6-21-1zm-622.1 72.4c-1.3-4-3-14.5-5.5-14.2-.8 4.4 4.2 8.9 3.7 14-.2 2 1 .7 1.8.2m104.2-60q-4.5 1-8.8 2.2c-.8 4.3 7.6 1.4 9-.2zm604.6-108c2.7-3.9-2.4-8.9-3.5-13-2.8-2 2.5 11.2 3.5 13m101.7 245.1c-3.1 4.4 6.4 13 3.7 5.3-.5-2.2-1.2-4.7-3.7-5.3M248.2 253.3c-.7 6.4 1.3 13.3 2 19.9 1.4 8.7 1.3-3.5.1-6.5q-.9-6.8-2.1-13.4m455.9-106.1c3.2-5.5 1.6-12.1 1.9-18.2-1-3.2-.7 6.8-1.3 8.2-.3 3.3-1.6 6.7-.6 10M172.5 213c-2.3-5.5-8.3-17-10.6-17.8q4.7 9.1 10.6 17.8m-22.9 92.7c1.6-3.4-4.4-11.9-4-5 1 1.5 1.5 6.8 4 5m375.2-173.5c-2.1 2-2.6 5.5-4.1 8-1.4 3.5-3.4 6.8-4.3 10.3a62 62 0 0 0 8.4-18.3M438 183.5c-1.6.9-9 2.9-5.7 5 2.5-.1 8.6-1.4 5.7-5m-194.3 66.8c-5-1-8 5.8-2 4 2.2-.2 4-2 2-4m-53.8 133.4c-2.3 6.7 11.7 5.2 3.4 1.3q-1.5-.9-3.4-1.3m365.5-229.1c.4-2.2-.2-14.4-.4-8.4-.2 2.7.3 5.8-2.2 7.5-2.8.7-6.2 3.7-.5 2.3q1.5-1 3.1-1.4m-128.3 35.9c1.8-3.6-3.2-.4-4.8 0-6.7-3-4.2 5.1.7 1.3zm-200.7 66.6c2.6-.5 5.5-.5 7.9-1.4 1.5-4.4-9.6-1.1-7.9 1.4m826.2 68.2c-3.4-2.9-4.1-15.2-6.7-14 1.9 4.4 3 12.5 6.2 14.4l.3-.3zm-887-18.7c-.2-5.2-6.5 0-7.7 1.4.8 2.7 6-1.2 7.7-1.4m777.7 179.1-6.4-4.5c-2.5 5.7 1.5 5.5 6.4 4.5M850.9 236c-5.3-4.5-7.2 6.5-.9 2.4zM96.3 287.6c-2 .9-4 5.2-3.1 7.6 2-1.6 4.8-3 3.3-6zm955.7 53.1c.3 2.5 2.8 14 4.6 9.9-.2-3.8-2.6-7-4.6-9.9m-934.7-23.1c-6-2.4-5.6 6.8-.2 3.3 2-.2.2-2.3.2-3.3m802.9 64.7c2-1.7 5.5-10.2 1-6.5-1.5 2.1-3.8 4.3-1 6.4zM809.1 166.5c4.2-7-11.4-.3-2.9.5l1.4-.2zm-657 178.2c1.6 4.3 6 6.5 4.3.1.7-2.7-3.5-.8-4.3-.1m817.8 42 2.2 7.4c3.8-.7 1.8-6.7-2.2-7.4M459.8 176c-3.3 7.5 9.9-1 2-.8l-1 .4zm288.8 337.1c-2.5-4-9.5 3.7-4.4 3a9 9 0 0 0 4.4-3M466.4 201.8q.8-11.1.1-22.3a141 141 0 0 0-.1 22.3m-26.9 15.8c-1-3.7-4-.6-6.4 0-4.7 3.6 5.3 1.1 6.4 0m497.4 27.9c4.2-.6 8.5-10.7 3-5a8 8 0 0 0-3 5M810.8 162c1.3-6.3-10.6.6-3.9.5zm-427.4 66c-2.3 3.3 1.7 15.6 1.5 15.4 0-5.1-1-10.3-1.5-15.4m519.2 55.2c3.1 2.1 5-3.6 4.8-3.9-4.4-2.5-3.4.8-4.8 3.9m-514.5-13.9c-.3-4-1.6-13.9-2-14-.3 4.6-.5 10 2 14m151.8-111c-3.2 1-12.1 2-11.3 3.7 3-.8 9.9-.8 11.3-3.7m187.3-4.1c2-.3 2-4.7 3-6.6.2-2 3.3-6.1 1.2-6.5q-2.5 6.5-4.2 13.1M168.4 264.5c0-4.4-6.7-6.3-3.1-.3 0 2.7 2 .5 3.1.3M915 276.2c.9 4.5 7.5 1.2 4.3-1.6-1.3-.2-3 1.2-4.3 1.6M756 513.6c-4.5 4.2 2.5 7.5 2.1 1-.5-.6-1.2-1.2-2.1-1M441.6 180.7c2.8-2.2 0-12.4-1.2-5zm402.6 332.1c5.7 2 1.5-3.4.1-5.6-2.1-4.3.2 5-.1 5.6m6.2-288.9c-2-2.4-14.9-2-7.3-.3 2.4 0 5.1 1.1 7.3.3m-605.1 16.2c-2 4.3 2.7 11.2 1.8 3.3q0-2.1-1.8-3.3m16.9 5.2c1 6.2 9.1-2.8 2.2-1.1l-1.2.5zm602.5 55.2c.3-4.8.6-16.6 0-17q-.8 8.6 0 17m-435.2-92c.6-4.7 1.4-14.8 0-16.4zM260.6 345.9c.7 4.6 10.7 7 3.6 2q-1.5-1.5-3.6-2m1.8-71.7c-1.8 1-7.8 2-6.2 3.3 2-.4 6.6-.3 6.2-3.3M851.3 153c3-2 2.6-9.4-.2-4.6q-.1 2.4.2 4.6m-340 9.4c2.8-2.2 6.7-15 2.4-6.5q-1.4 3.1-2.4 6.5m-152.7 93c-2 2 1 11.2 1 9.7 0-3.2.2-6.7-1-9.7m521 339.7c1.6 3.2 12.4 7.2 5.4 2.4-1.7-1-3.3-2.6-5.4-2.4m-27.2-479.6c-3.7 3.8 3.8 11.3 1.3 4.3q-.5-2.2-1.3-4.3M528 134.9c-.6 4.1-.7 13.4.2 14.2q.6-7.1-.2-14.2m435.6 240.5c-3 3.6 4.3 9 1.7 2.6l-.8-1.3zM545 155.8c-3.8 0-5.3 4.6-.2 2.3 3.4-1.3 4.3-1.8.2-2.3M175.8 280.6c-.2 3.4 2.6 11.2 3.5 11.1-1-3.7-2-7.9-3.5-11.1m754.8-25.7c1.9 7.6 6-6.5.7-1zm-824 66.3c-7.2 2.4.1 6.5.8 1.4v-.1Zm500-154.1c2.2 2 11.7 2.4 4.6 0-1.4.1-3.7-1.9-4.6 0M915.9 290c-5.4 3.7 5.7 4 1.3.5zM539.7 182.8c2.9-2.5-.3-11.2-.4-3.7q0 2 .4 3.7m442.5 266c-2.3 4.2 5 8 1.5 2l-.6-1zM522.3 194.2v13.7q1-6.9 0-13.7m-318.7 205c-.5-2.3-4.8-8.5-3.4-2.4q1.5 1.4 3.4 2.4m218.1-212.6c-.8-4.2-6.6-4.8-2.3-.6.5.6 1.6 1.3 2.3.6m330 328.6c-6.3-.4-5.5 7.2-1.4 1.8q.9-.8 1.4-1.8M102.9 267.4c-.3 4 4.8 11.6 2 3.6q-.6-2-2-3.6m419.8-51.6c4.1 1.8 9.2-5 2.9-1.7l-1.5.8zm322.1-4.7c-1.6-.7-1.9 4.4-3 6-1.3 4.6 1.8-.3 1.9-2.5zm78.3 273.2c-3.5-3-3.7 1.7-1.4 2.4 1.8.2 1.7-1.1 1.4-2.4M456.7 169c-2 2.6.2 9.7.7 3.2l-.2-1.6zm-302.5 13c.3-4.2-7.2-12-2.7-4.8zm274.9 2.3c1.8-3-1-11.6-.6-4q0 2 .6 4m433.7 378.8c5 .4-1.6-3.3-3.3-4-.4 1.2 2.7 2.8 3.3 4M466.1 172.6c3-3.1-.4-10.4-.1-2.9zm295.6 347.9c-5-3.4-5.2 5.3 0 0m-10.2-26.4c-4-.3-7.3 5-1.6 2.3q1.1-1 1.6-2.3M213.2 411c-1.7 5.8 6.2 1.3 1.1.1zm227.4-228.9c-2.2 5.7 4 3 1.3 0zm-24 8.4c-3.4-1-1.9 5.6 0 2.8zM749.1 156c4.3-1.9 5.2-11.7 2-3.8zm-47.5 408.3c3.6-1.4 6.8-7.9 1.8-2.6l-1 1.2zM522.5 180.7c-1 3.6-.5 12 .7 3.9q.3-2-.7-3.9M708.7 122c-1.3 3 .6 14.9.3 6.1q0-3-.3-6.1m-473 128.3c.8-4-2.8-10-1.3-3.2.4 1 0 3 1.3 3.2m777.9 134.3c-1.9-2.6 1-5.3 1.8-5.8-3.4-.2-4.4 3.9-1.8 5.8M289.9 545.1c1.6-1.5-3.8-6.6-2.3-2 0 1.1 1.6 1.3 2.3 2m127.2-296.7c6 1-2.2-6.3 0-.7v.4zm95.2-.4c2.7-.2 9-3.8 2.7-1.8q-1.6.4-2.7 1.8m392.8 229.5c-4.1.5-3.6 6.5-.5 1.2zM762.4 657.3c-6.6 1.4-4 5.9 0 0M180.3 390.6c0 4.3 5.2 5 .8 1zm89.6-119.2c-5.8 1 .1 5.7 0 0m700.1 125c-4-4.7-6.8-.7 0 0"/></svg>