<svg xmlns="http://www.w3.org/2000/svg" fill="#0a0a0a" viewBox="0 450 3300 2186"><path d="M779.6 821.3c-6.3 9.7 11.2 16.6-5.6 11.4 1-4 1.2-9.4 5.6-11.4m1661.1 531.6c9.2.7 26.1 15.1 8.3 6.4a25 25 0 0 1-8.3-6.4m-17.2 108.4c-12.9 1.1-18.4-23.4-34.9-23.2 10.3-9.4 27.7 13.8 35 23.2m34 10c9 7.7 5.9 18.8-2.8 4.6-9.6-5.1-7.2-9.7 2.7-4.6m-8.1-13.6c9.8-8.8 26.6 15.4 14.8 8.7-2-5.9-10-6-14.8-8.7m111.3 44.5 16.6 12.3c-2.5 5.2-20.3-6.2-16.6-12.3m-50.6-16.2c6.4-10.3 27 5.7 7.8 1l-3.9-.5zM746.7 999.4c10.2-8.5 36.3-4 39.5 7a72 72 0 0 0-39.5-7m58.3 3.9c7-2.9 34.3 2.8 14.6 3.3-4.7-2.3-13 4-14.6-3.3m-128.2-7.7c8.7-7.7 32.3-4 9.6 0a14 14 0 0 1-9.6 0M2412.3 1513c-7.3-4.1-17.4-5.1-22.5-11.7 1-2.9 27.2 5 22.4 11.7m-74.7-44c9.1-1.7 19.7 18 5 6.5l-2.6-3.1zm42.5 9.2c-10.3.5-17.7-12-4-4.2l1.8 1.8zm59.1 35.2c-12.3-.2-12.7-13.2-1.9-2zm-1642-677.8c13.2 5.6-8.6 4.1-14.3 4.2-19-.3-38-.1-56.8-.3 0-27.1 35.8-40.1 56-22 7 4 11.4 11 15 18m-43.4-16.2c-5.4-13.5-19.3 3.4-6 9.9.5 14.8-15-18.6-17 3.6 1.6 7.4 6 3 4.8.6 9.1 1.2 17.5 4.8 26.9 3.5 10-.8 20.7 1.7 30.3-1.3-5.4-11.3-23.1-27.7-38.6-21.2zm1390.6 452.4c-5.4-13.5 2.6-36.3 5.8-51.2 2.5-8 15.3-18.3 7.1-5.3-12.1 16.7-6.3 37.9-13 56.5m-735.1-210c-.2-7.2 23.1-5.8 28.7-4.6a73 73 0 0 1-28.7 4.5m118.3-2.2c7-1.3 41.8 4 18.3 5.8-6-1-14.2-.5-18.3-5.8m-58.2-2.4c9.6 1.2 36 3 13.1 6l-13.6-3.8zm520 99.9c-14.7 0-49-29.8 0 0m-934.4-113.8c9-6.4 31.9 1.4 9.3 2q-4.9-.2-9.3-2m213.7 42.8c6.4-6.8 20-2.4 5 .5l-2.3-.2zm818.6 150.9c-7.8-1.8-34-16.1-23-14.3 7.5 4.8 17 7.6 23 14.3m-2.4-36c8.4 1 35.4 20.2 14.5 10a62 62 0 0 1-14.6-10m-198.2-19.4c8.8-3 35.4-2.5 11.9 3-2-.2-14.3 2.6-12-3m16 12c10-3.6 27.4 2.8 8 3.7-2.5-.5-8 .3-8-3.7m-897.1-184.1c-7.2 8-30.5.5-9.5-.5q4.8.1 9.5.5m-70 2c-6.1 9.9-19.4-6.9-3.6-.5zM1942.8 1151c-6.1 6.3-28.4 3.6-10.3-.2 3.3-1.2 7.2-2 10.3.2m12.4 67.7c-5-9 27.4-19.3 7.9-5.5-2.6 1.9-5.5 3.4-7.9 5.5m121.5-67.3c-.7-10.8 31 10.6 25.4 13-8.6 6.1-18.5-12.8-25.4-13m-21.6 9.8c-8.2-.2-35.7-20.5-14.4-10a64 64 0 0 1 14.4 10m44 26c-10.3-1.6-36-21.3-12.8-9.1 4.2 3 9.8 4.5 12.7 9m470.8 358.2c7.4-11.1 20.2-1.6 0 0m-57-160.4c-8.9-.9-39-20-15.9-10a53 53 0 0 1 15.8 10m-30-16c-8-.5-38.6-19.5-16.7-10.4 5.5 3.3 12.6 5.3 16.7 10.4M2301 1253c-5.9-3-36.8-14.8-20.5-14.2 10.7 6.2 23.6 9.8 32.6 18.3zm261.7 331.7c7.3-7.2 32.7-10.4 11.5-2.5q-5.7 1.8-11.5 2.5m-300-325.8c9.2.6 26.2 15.2 8.3 6.4a26 26 0 0 1-8.4-6.4M1138 732c16.3-18 35.8 5.5 27.9 22.7-13.8 3.7-32 9.2-28.6-12.3q0-5.2.7-10.5m6 20c18.2 8 27.2-12.6 12.3-22.8-15.2-6-17 12.3-12.3 22.8m21.4 10.1c8.3 12.4-6.1 35.1-19.4 24.4-14.3-12.4-3-28.3 14-24.4l2.7-.1zm-2.5 18c4-13.3-2.6-18.9-16.8-13.9-6.7 6.2 5.3 28.6 16.8 13.9m-28.3-21.2c-21.9 14.7-5-38.9-1.6-8.3l.8 4.2zm-2.6 7.5c3 9.9 2.6 32.4-6.7 13-3.3-6.2-3-18 6.7-13m47.6-15.2c-11.2 14.1-11.7-25-2.4-7zm-3.2 25.4c-15.6-2.2 7.1-25.4 1-5.2zM1766 780c-2.4-18.8 20.1-15.1 12.8-2.2-2.9 4.9-8.4 3.8-12.8 2.2m3.2 32c-14.8-6 2.1-36.8 2-14a30 30 0 0 1-2 14m547.4 447a218 218 0 0 1 36 17.7c3.8 5.5-15.6-5.8-20.6-8-5-4-13.5-2.7-15.4-9.7m182.1 126c9.6.8 32.1 17.8 11.5 7.9-3.8-2.6-9.2-3.7-11.5-8m20-10c-9.3-.8-26.3-15.1-8.3-6.5q4.8 2.3 8.3 6.5m-38.2 0c9.3.5 26.3 15.1 8.4 6.3a26 26 0 0 1-8.4-6.4m-21.8-12c9.3.7 26.4 15.1 8.4 6.4q-4.9-2.3-8.4-6.4m38.3 0c-9.3-.5-26.4-15.2-8.4-6.4q4.8 2.4 8.4 6.4m-18.3-10c-9.2-.7-26-15.1-8.2-6.4q4.8 2.4 8.2 6.4m-92-50c9.6.9 32.2 17.8 11.5 8-3.7-2.6-9.1-3.8-11.4-8m-172 0c11 1.4 32.4 18 10.4 7.5a37 37 0 0 1-10.4-7.5m150.3 2.1c-8.6-.5-32.7-17.5-12.7-8.4q7 3.2 12.7 8.4m-100-54.2c7 4.3 17 6.2 21.7 12.3-6.9-4.2-17.1-6.2-21.7-12.3m53.8 12.1c8.8 12.5-27.5-11.3-10.7-4zm5.8 6c9.3.7 26.3 15.1 8.4 6.4q-4.9-2.4-8.4-6.4m10.7 98.8c-11.6-.9-19.8-12.9-4-3.3l2 1.5zm21.7 12.2c-7.6-1.2-25.2-12.4-8-5.8q4.4 2.5 8 5.8m477.5 105.2c3.6-8.2 15-24.9 19.8-24.7-6 8.6-11.3 18.1-19.8 24.7m26-34c3.6-8.2 14.9-24.8 19.7-24.6-6 8.6-11.3 18-19.7 24.6m-1164.2-337c-.2-9.2 38-9.8 16.5-3.3-5.3 2-11 2.8-16.6 3.3m-98-13c8.5-6.9 35-5.7 12.5-.3-4 1.2-8.4 2-12.4.3m219.9 7.2-17.6 4.7c-16.5-7.3 15-5.2 17.6-4.7m-159.8-3.6c-5.5 10.2-30.2-2.6-9.4-.2 3-.5 6.6-1.9 9.4.2m107 1.8c-2.4 2.8-22.6 1.3-17.4 5.2l8-4.5zm104.3 3.3c-3 11.3-34.7 4.5 0 0m587 245.2c-8-2.6-24.3-11.6-17.1-2.4-4.9-5.8-16 2.9-14.7-5.4 2-6.7 6-13 8.7-19.6 10.7 1.8 39.9 22.4 14.4 10.3-24.1-3.5 3 12.7 8.6 17m-250-55.8c11-16.1 15.2-47.3 27.5-57 8 1.4 36.3 21.3 15.1 11.1-10.4-9.7-20.9-7.5-22.9 8.2-7 11.1-9.2 34.1-18.5 38.2l-1-.4zm129.8 5.8c12 4.6 24.3 10 34.4 18-11.6-4-22.8-10-33.3-16.3zm-34-47.8c-7.1-.9-38.5-19.5-16.5-10.9 5.2 3 15.8 4 16.6 11m-63.6-20.3c8.5 4.9 18.7 7.5 26 14-8.5-2.5-20.5-7.3-26-14m-3.8 93c-10.2-1.7-29.9-18.1-9.7-7q5 3.3 9.7 7m129.6-38.9c9.6.8 32.1 17.8 11.5 8-3.8-2.6-9.2-3.8-11.5-8m-22-11.9c9.6.8 32 17.8 11.5 8-3.8-2.7-9.2-3.8-11.5-8m48.2 40c-11-1.4-32.4-18-10.4-7.5q5.8 3 10.4 7.5m-569.2-376.5c-27.4 3.5-54.8-3-82.3-1.1-14.6-3.2-38.6 3.3-47-6.8 1-24.2 7-48.1 5.8-72.3 3.8-9.9 3.5-20.8 5.3-31.2 18.4-3 39 1.3 58.2 1.2 21.3 1.2 42.6 2.8 63.9 2.7 11.5-.6 18 1.8 9.8 10zm-79.5-70.7c-5.6 7.5-2 18.1-4.4 27l-.2.9-.1.9.5 17.7c11.9 1.8 24.1.2 36.1 1.7.8-17.1 16.4-53-14-48.3q-9-1-17.9.1m-16 45.5c1-15.4 15.4-48.9-8.1-48.2-24.2-4-13.3 27-19 41.3-.7 9.5 12.5 6.8 19 8zm80.7 2.5c1.7-13 10-35.2 1.5-43.7-14.7-6.7-26 .5-23.3 17.3.5 12.8-7 32.9 13.5 27.7q4.2-.3 8.3-1.3m-64-57c12.4-3.3 38 9.5 38.3-6.8 11.2-25.3-24-19.1-37.4-18.7-.3 8.4-4.8 17.6-.9 25.5m72.4 70.8c-21.9-1.1-44 1.2-65.7-2-17 .9-35-2.5-51.7 1.2 10.4 9.2 36 2.7 52 4.9 21.5 3.5 43.7-.3 65.5 2.6 6.5-12.3 5.2-28 8-41.9 1.6-18 5.4-35.7 7.2-53.6-3.4-5.2-4.6 13.7-5.8 20.3-3.7 22.7-4.8 46-9.5 68.5m5.6-57.6c-12.4 10.5-4.5 32.7-11 47.7-14.3 2-30 .3-45-.4-21.5-3.5-43.5-.6-64.8-3.4-5.5 15 21.8 6.3 30.8 9.3 20-.6 39.6.5 59.2 1.9 15 3.3 28.7-2.2 25.1-20.3 1.6-11.6 3.8-23.2 5.7-34.8m-31.2-12.2c13.8 6.7 29.6 4.5 27-13.9 3.4-15.8-16-9-25.6-11.4-3.3 8-2.2 17-1.4 25.3m-56-28.9c-13.5.3-31.1-5.9-28.3 14.6-3.3 14.9 34.2 17.8 28.5-1.3q1.4-6.7-.2-13.3m86 37.6c.4-8.4 10.3-27 1.9-31.4-.2 9.5-8 23.5-2 31.4m-88.1 46.6c5-15 3.4-31.4 5.2-47a119 119 0 0 0-5.2 47m47.6-50.6c-9.1-3-34-4.8-33.3-1 10 .7 25.5 5.5 33.3 1m-45.8-4c-8.8-2-41.5-4-16 2.3q8.3 1.3 16-2.3m48.7 19.3c-.8 11.8-4.3 23.4-2 35.3 1.2-11.8 4-23.4 2-35.3m29.8-12c-1.8-5.3-35-3-16.4-.6 5.3 0 11.4 2.9 16.4.6m-73.9-11.4c2-8.8 2.6-34.1-1.1-13.3q.1 6.7 1.1 13.3m81-75.7c2.7 18.7-11 38.2-30.5 39.4-19.7 5.6-36.8-18.3-33.5-36.6 3-20 19.8-45 41.8-43.8 16.2 5.8 24 25 22.2 41m-17.2 21.1c1.6-6.8 1.2-16.8 7.7-15.9 13.6.5-1-12.3-8.9-5.8-10.7 1.7-32.3-2.8-16.7-23.1 4.3-8.5 17.1-7.3 19.8 2.1 4.9 8.8 13.5 12.3 6.8-.7-4.8-5.8-11.1-14.7-19.3-14.5-21.5 5.3-38.5 31.4-31.9 53.2-2.3 12.2 31 28.2 17.7 12-.2-11.6-2.8-28.9 14.6-23.9 18.3-3.7-3.4 38.5 14.8 19.8zm-21.9-14.4c-6 10.8 4 32.8 13 15.9 7.3-14.2-3.4-14.2-13-15.9m18-13c4.7-12.8-8.5-31.3-12.6-9-2.9 10 4.9 11 12.5 9m132.3 257.6c-7 8.3-47.6-3-20.6-2.3zm-477.2-4.5c-7.2 3.9-42.7-.1-19-2 6.3 2.5 13-1 19 2m287 43.3c8.3-5 31.3.8 11.5 2.3-3.9 0-8.4.7-11.5-2.4m-27.8-4.9c-6.9 7.6-34.2.4-11.4-.9 3.8-.1 7.7-.1 11.4 1m-157.7-38.7c6.3-4.5 28.8-1.4 10.1 1.9-3.4.3-7.1.1-10-1.9m-107.6-7.7c-9.2 6.8-26.1.2-7-2l3.2.4zm-166.7 29.5c-7.8 2-29.5-2.7-10.7-3.9 3.9.3 7.4 2 10.7 3.9m539.2 23.2c-8.5 8.8-29.2-1.1-9.9-.5 3.3.2 7-1.5 9.9.5m-291.4-57.3c-9.3 6.4-25-1.4-7.4-1.4l3.3.5zm323.1 57c-8.6 4.9-20.5-4.2-5.1-2.8l2.4.8zm-194.7-7.7c-8.6 7.1-24.7-.2-6.5-.8l2.8.3zm-319.6-33.4c6.9-5.4 22.8 1.7 6.9 2.3l-3.3-.6zm180.3-.7c-8.7 4.3-16.4-5.4-3.5-2zm-786.4 103.2 23-8.3c8 0 43 20.8 17.6 13.9-18.6-17.9-41.1 6.7-62-5.6-13.8-.3-50 24.6-11.2-3.4 11.2-3.6 21.8 1.7 32.6 3.3m88.5-43.7c-9.4-1.9-15.2-8.6-25.6-2.4-12.3 0-23.1-12.9-33.1-.7-7 5.9-18.5 0-5-3.1 15.2-19 33.7 7.1 50.3-6.1 7 .4 10.3 6.8 13.4 12.3m19.5-17.8c-10.4 1.8-12-21.2-26.7-11.9-7 5.8-38.3-5.7-16-3.6 17.9.2 37.4-8.2 42.7 15.5M2582.5 1725c0-9.9 12.8-28 7-7.6 1 6.7 14.8 6 7.2 17.7 7.4 14-6.5 5.8-4.5-4.3 1-6.3-9.2 1.2-9.7-5.8m-342-408.2c13 6.8 27.9 14.2 32.2-4.3q9-17.4 17.7-35c-9.1-6.7-11.5-10.3 0-5.4 14.4 1.6-12-13.3.6-7.5 6 2.1 22.5 10.4 7.7 7.7-11 18.8-30.9 42.4-26 64.2 5.8 17 11-6.7 14.6-13.8 6.1-14 10.4-29 17.7-42.3 3 5.7-4.3 13.4-5.6 19.8-7.2 16.5-12.8 33.7-20.8 49.8-7.8-15.6-20.9-24.3-36.6-31.1zm98.4-25.9c-6.3-1.2-21.1-12-12.8 1.8 1.8 6.7 11 11.8-.3 10.8-6 11.4-14.4 39.6-19.4 40 4-15.5 12.4-29.6 18-44.7-4.3-16-10.5 6.7-13.4 13.2-5.5 16.4-16.4 32.4-14.2 50.1-1.2 2-19.6 10.2-9-.9 12.1-26.3 20.4-54.3 33.7-80 6.3 2.3 13.2 4.1 17.4 9.7m39.6 35.9c12 .7 15.5 8.7 6.9 18.5-4.8 14.9-20.7 28.8-15.2 44.7 4.2 13.4 7-5.8 10.2-10.8 6.3-16.5 14.7-32.4 19.5-49.5-13 2.4-4.6.2-3.6-6-.4-7.6 15 4.6 5.2 12.3l-27.9 68c-13.7-10-7.6-33.8 3.4-47.9 4.3-10.6 15.2-21.8 1.5-29.3m-171.8-27.8c-10 9.9-13.3 8.2-7.8-4l20.6-62c.1-17.8 16 1.1 18 3.6-9-5.6-16.2-4.8-18 7.4q-9 26.8-18.3 53.5c2.3.3 6.8-3 5.5 1.5m296.7 529.4c-14.5 9.5 12.9 29.7 18.9 39.8 5.7 10.5 23.5 28.4 29.2 14.3-11.2-11.3 8.7-20.2-5.4-31.2-3.8-8.7 14.8-8.7 1.6-16.5-10.7-6.2-3.1-19.7 0-22.3-13.9-2.5-27.6-35.8-7.1-9.6 16.4 3.8 18 13.6 6.3 20.3-1 8.8 11.3 11.6 13.4 19-11.6 4.5-8 12.5-2.5 20.8-10.5 9.1 5.1 22-2.8 29-26.3-7.2 20.6 22.3-5.3 14.9-5.2-3.4-6.2-14-15.3-12.7-20.3-2.8 11-30.8-22.3-30.8L2498 1844c-10.3 19.4-.6-13.3-10.9-18.2 11-9-12-29.6-6.3-46.4-3.2-14.6.2-29.2 4-43.5 3.4-7 6.3-43.5 10-20.2-2 24.7-10.7 48.8-7.8 73.8-.6 14.7 9.5 27.4 16.5 39m-10.3 178c-13.3-16-20.4 22.4-34.8 8.3-6.8-4.8-24.5-25.7-7.2-12.9 8 11 18.3 16.6 25.7 0 6.5-12.3 12.1-7.9 18.2-1.3 5.2-10.5 16.8-11.5 5.4 1a13 13 0 0 1-7.4 4.8m43.5-82.8c5-8.1-10.8-34 3-15.7 8.9 14-2.9 26.3-17 18.8 3.8 12.6-16.4 9.7-6 2.5-6-15.2 13.4-2.8 20-5.6M153.5 1805c20.5-4.2 38.2 8.3 56.1 15.5 19.8-1.5 44.4-21.9 60 2.6 11.6 16.2 29.5 2.9 39.2-3-4.2 20.7-35.8 21-46.1 4-17.8-22-39.3 10.7-59.6-.2-16-7.6-32.5-18.9-51.3-12.9-8.5 2.9-26 28.7-15.5 6.2a41 41 0 0 1 17.2-12.2m525.7 230c10.5 4 17.2 13.1 23.5-.5l3.8-2.2 26.5 7c-13.2 2.7-30.8-9-36.7 10.8-9.5-8.3-25.8-18.6-32.8 2.5-15.7 25.3-17.8-32-38.2-11.3-8.9 11.5-36.3 40.4-37.6 8.9 1.1-11.5-10.2-14.3-14.6-18.8 25.4-11.2 14.1 58.8 39.2 15.7 11.6-19.4 38-16.4 43.2 6.3 7.8-6.2 12.8-16.8 23.7-18.3m-370.5 46.4c-8.7-11.4-7.6-27.5-14.5-40.2-2-16 11.8 14.7 11.6 20.7-.1 20.7 16.5 15.8 26.2 3.8 18.8-17.7 25.8 9.4 28.8 22.6 12 1.4 24.2-33 33-9.1.9 23.5 24.9 23.3 41.4 22.3 1 3.7-25.2 8.7-32.6 0-10-5.7-12.4-17-16-27-9.8 4-16.6 24.4-29 17.2-8.2-7.4-2.2-39.3-23-23.2-7.9 5.1-15.1 16.5-25.9 13m352.6 54c10.7-2 19.8 10.2 29 15.5 11.7 8.4 23 17.5 36.5 22.7 1.8-17.6-25.4-38.6-13-56.8 10.6 10.4 30.1 17.2 38.3 26.2-13.2 5-33-26.6-36.4-14 3.8 15.8 14.2 29.2 17.7 45-13 8.7-29.6-10-41.5-17q-14.8-11.5-30.6-21.7m169.3-150c-10.6-7.5-41.8-19-34.6-31.2 7.4.2 21.5 1 7.3-7.2-13-5-34-41.7-6-10 5.2 2.2 36.4 27.2 11.6 22.2-10.4-3.5-30.9 6.7 9.2 14.3 6.4 4.8 20.8 6.6 19.7 15.2-9 3.4-23.7 2.9-12 15.7 7.4 20-24.9-21.7.4-16.5l2.3-.7zM439.4 1576c-19.5-2.9-40.3 20-58.8 5.5-14.5-23.3-37.5 14.7-53.2 6.5 17.6-4.4 38.2-30.7 55.4-12.4 13.8 13 33.2-2.4 48.5-5 13-10 24.6 25.4 9.6 7.2zm319 553.9c7.2-4 19 8.1 27.5 10.3 14.9 8.8 52.5 13.8 53.9-8.3-8.7-8.3-36.5-40.2-.7-25.8 7.2-2.8 10.8-14.5 9.5 1.3-10.3 3.6-28.7-2-14.4 12 12.7 8.8 16.8 24.2-1.9 28.6-22 10.6-45.4-3-65-12.8-3-1.7-6.5-2.6-8.8-5.3m-382.4-171c11.8 12.3 27.3 22.3 42.6 11.8 16.3 7.1-14.9 43.1 14 31.1 9.5-1.5 38.6-12.7 37.3-3.5-18.5-1.8-39.2 14.5-55.7 7.3-3.1-9.6 15.4-40-5.7-25.7-9.8 2-32.7-11.2-32.5-21m161-565.3c9.5-6 18.3-16.8 30.6-14.2 10.5 3.5 12.7 29.3 3 11.2-5-13.5-15.4-2.8-22.7 1.7-11.1 12.3-25.6 1-38-3.5-9 .9-19 11.5-24.4 10 6.5-11.7 22.9-17.8 35.2-11q8 3 16.3 5.8m-21.5 96.5c-8.1 28.4-30.2-8.6-45.8-12-20.4-13-38.3 22.8-55.4 11 4.8-5.2 27-3 33.3-15.6 18.6-7.7 37.4 6 50 18.7 7.2 7.3 11.3 2.2 18-2.1m967.7 722.2c7.9 7.4 17 17.7 3.4 14.2-2.9 6-20.3 31.6-18.1 14 7.4-8 7.8-19.9 14.7-28.2m-996.4-86c-.8-9.1 17-24.2 15.2-13.8-11 2.5-12.8 34-21.5 12.2-5-6.3-11.6-30-.7-12.1zM92.6 1931.4c7.6 6.3 7.6 39-2.6 31.6 8-10.5-1-23.5 2.6-31.6m57.9 61.9c-8.1 3.9-16.1-21.1-8-18.8 2.8 6.2 5.2 12.6 8 18.8m1170.8-472.5c4.3-8 20-13.6 7.2-1.2-6.8 5.5-4 29.4-10.9 12zM2886.5 1417q8.6-16.5 20.4-31c13.2-12-4.9 14.8-9.9 19.6-3.1 4.1-6.2 8.4-10.5 11.4m-524-134.2c12.4 5.5 25.8 9 36.8 16.7 6.2 8.3-19-6-24.7-8.8-4.3-2.2-8.9-4-12-7.9m576 64c-1 8.9-19.4 32-20 24.9a103 103 0 0 1 20-25m26-34c-.8 9.8-19.2 30.7-20.1 25 5.9-8.8 11.7-18.3 20.2-25m-859.3-150.1c7.8 1.7 26.2 12.7 9.4 10.6-3.9-1.6-20.9-7.4-9.4-10.6m-42-24.1c9.2-1.5 22.2 18.8 6 9.7-4.4-2.1-7.6-4.7-6-9.7m361.6 174.4c-3.7 6.7-23.5-9.5-17.6-8.8 5.7 3.3 13 3.8 17.6 8.8m-154-78.1c8.5 3.9 6 11.6-2.3 4.5-10-3.8-16.5-11.6 2.4-4.5m446 243.8c-8.5-.9-15.4-6-22.3-10.5 5.5-2.7 17.5 6.3 22.4 10.5M2021 1223c8 1.5 35.4 18.7 15.9 10.8-5.2-3.5-12.4-5.4-15.9-10.8m24 14c8 1.5 35.4 18.7 15.9 10.8-5.2-3.5-12.4-5.4-15.9-10.8m24 14c9.7 1.1 34.9 20.8 13 9.1-4.8-2.4-9.7-5-13-9.1m-464.1 327.7c-16 2.3-41.8-21.8 10.4-7l28.2-8.1c-2.8 16.2-37.3 4-37.9 23.2-5 17.5-5.8 36-11.9 53.2-.8-20.6 6.1-41.4 11.2-61.3m-42.9-229c-10.4 5.4-27.4-1-40.3 1.3-9.3-2.5-35.8 2-35.2-5.9 20 .6 39.7 2.3 59.7 1.8 5.5-.6 10.6 1.4 15.8 2.8m-89.4 150.5c-8 3.1-20.9-5.4-29 5.2-11 5.7-5 20.7-7 25.6-18.6-18.9 19.7-47.5 36-30.8m70.3 31.3c-19.9-10.7 4.6-41.4 23.2-36.6 14 6.7-20.4 1.6-22.4 14.4-7.2 7.1-3 14.3-.8 22.2m-43.7-66.6c-14.4 3.3-8 27.5-12.4 27.6-18.3-16.2 22.2-44.7 25.9-26.8q-6.7-1-13.5-.8m-94.3 1.3c-17.1-11.4 5.2-38 21.3-29.8 11.6 8.7-10.6-.6-16.8 6.2-6.6 6.4-7.4 15-4.5 23.6m47.4-82.7c10.2-6.6 37.5 8.2 14.3 3.4-14.9-6.8-20.7 15.1-27.4 16.7a29 29 0 0 1 13.1-20m-38.1-11c-1.2 6.7-6 24-7.1 7-2.3-15.7 31.3-24.7 25.9-13.7-7.6-3.2-13.1 2.5-18.8 6.6m74.6-15c-6.7 2.7-17.6 25-12 6.9 2.3-18.6 36.5-9.4 31.2-2-6.7-.7-11.5-7.7-19.2-4.9m127.2 166.8c-3.8-10.4 8.8-30.3 22.7-30.8 9.6 4.4-12.2 4.3-12 11.6-4.2 6-6.8 13-10.7 19.3m-234-103.7c-14.4-7-30.2-1.2-38.4 12.5-.9-16.5 31.8-29.1 38.5-12.5m180.5-19.7c-5.5 14.5-6.7-14.1 9.1-7.9 9.7-4.6 30.1 15.8 10.6 6.3a18 18 0 0 0-19.7 1.6m-126.4 68.8c-13.4-13.4 27.5-28.9 22.4-17.2-12-1.2-20.1 5.5-22.4 17.2M1551 1585c10.3 6 30-14 32.4-5.4-7 5.7-26.4 15.4-32.4 5.4m-153.3-161.8c-3.5-14.6 30-25 27.6-13.4-12-4.4-20 6.2-27.6 13.4m209.5 24c2-15 39-6.3 27-2.2-8.3-6.5-19 1-27 2.2m-222-65.9c14.8-3.5 17.4 5.7 1.4 3.6-7.8 14-11.5 3.1-1.4-3.6m128.8-3.7c10-6.2 21.3 11.9 5.4 3.9-6.4 3.5-13.5 7.1-5.4-3.9m50.8 55.3c-5.6 4.8-22.2 14.2-6.9-.9 2-1.8 5.2-1 7 .9m-476.3-511.4c-5.7-16.7-5-35-8-52.4q-2.9-25.5-6.4-51.1c23.8-5.8 49.9-1.1 74.6-2.7 22.8 2.1 54-4.3 71.5 3.4-1.9 18 2.3 36 1.7 54.2-.6 15.2 6.4 38.9-1 48.8-40.5-.4-81.3-.9-121.7.7zm98-71.8c-2.6 16.6 1.7 33.6 2 50.2 10.8 4.5 32.5 7.5 27.1-9.8-3.5-14.2 6.4-47.5-16.2-41.8-4.3.8-8.6 1.8-13 1.4m-40.4 1.1c-12.8-.7-35.4-3.1-26.5 16.6 1.3 17 0 41.7 24.8 33.6 12.9-4.3 0-37.7 1.7-50.2m29.8-1.2c-13-2.4-28.5-.1-20.6 16.5 2.4 10.7-5.2 34.4 10 35.2 21.6 9 16.7-18 14.2-31.8q.4-10.4-3.6-20m-76.7 51.8c15.4 4 19.8-4.4 16-17.3-1.4-10.7-.2-22-5.3-32-27.7-8.5-14 22.2-13.3 37.2.8 4 .6 8.4 2.6 12m119.1 12.4c-27.7-4.3-56-1.6-84-2.4-13 .2-26.1-.7-39.2.5-5.6 14.5 25.5 4.3 35.3 7.4 27.5-.8 55.3 1.5 82.6-1.5 2.1 1.4 9 .7 5.3-4m-136-92c1.6 24 6.3 47.5 8.7 71.4 1.5 25 34.3 12.2 51.7 16 24.5 0 49.1.5 73.6-.2-2.2-8-31-1.4-43-3.6-25.2-2.3-57.3 4-78-6.2-5.3-25-5.7-50.9-10.7-76zm60.2 2.6c-14.1-4.5-36.5-.4-24.2 18.5 16.1.2 35.1 5.8 24.2-18.5m67.5-.1c-12.6-3-33.8-2.3-25 16.1 12.7.3 34.3 4.5 25-16.1m-36.7-.8c-13.3-4.7-32 5.7-16.7 17.6 13.4 2.8 29.6-1.3 16.7-17.6m-83.1 18.2c14.1 5.8 25.2.2 18.7-15.4-6.5-6.2-26.2-4.8-19.3 9.3zm87 4.3c-5.7-5.8-35.7 1.4-14 1.2 4.7.2 9.5.4 14-1.2m-58.1 1.7 24.2-.6a40 40 0 0 0-24.2.6m91.8-2.4c-3.5-4-14-.7-20.3-1.8-8.4 2.8 11.8 1.5 17.6 1.8zm-117.2 2.8c6.8 4.3 25.8-3.5 8-1l-4 .6zm46.6-44.8c-23-7.1-32.1-34.7-24.8-56.3 5.4-23.8 35.3-41.8 55.5-23 23.8 17.6 21.8 56.6-2.2 73-7.2 8.5-18.7 6.6-28.5 6.3m3.6-83.6c-25.3 12-36.7 51.3-15.2 71.7 17.2 16.7 46.5 4.7 53.2-16.4 11.8-24.3-9.6-60.7-38-55.3M867.5 2078.4c-1.8-10.9 16.1-13.5 24-19.2 22-11.3-10.5-18.3-11.1-28 5.5-7.4 6 10.3 16.7 9 14.6 8.2 1.5 23-9.8 26.3 9.4 13.5-27.2 14.3-9.3 27.8 6 11 24.8 14.2 23.8-1.8 7.4-6.6-.6 19.3 12.9 17.3 10.3 8.7 20.3 16.4 30.8 25.6 15.7 6.8 3.8 8.7-.1 9.8 6.3 10.7-.2 20.3-10.5 23.8-11.6 19 12.9 31.7 27.9 38.8 15 3.3 10.5 21.6-7.4 14.7-14.9-4.5-11.3 11.9-23.4 19.4-7.2 10.6 9.9 8.2 13.7 15.5 8.7 8.4 20.4 14.3 24.9 26.2-16.6 14-41.2 14.6-61.5 8.3-11-2.2 19.5 28.4-2.6 20.4-12.3-3.1-32.8-23.6-37-19.9 8 19.6 27.5 35.7 32.4 54-20.5 7.3-42.9 2.3-64 1.3-10 1.8-32.2-12.7-33.3-5.1 4.8 10.3 12.2 19.8 14.9 30.8-7.8 10.8-25.3 7-37 3.8-25.2-6.7-50-14.9-75-22.4-4 8.5 2.7 17.9 4 26.7 6.8 11.8-4 20.9-15.1 14.1a758 758 0 0 1-63.5-20.2c-15-16-10.4 25.4-28 2.7-13-8.7-22-23.5-36-29.9 3.7 13.6 1.2 33.2-14.4 20.2a352 352 0 0 1-46.3-27c-18.5-3.1-.8 34-19.8 30-26.6-8.8-49.5-25.4-71-42.4-12.5-5.2-10 18.8-22.4 12.2-17-1-30.8-24-45.8-20.8-9.3 9.7-17-3.5-19.3-12.4-4.1-8.3-5.8-18.3-12.2-25.2-10.7 8-22.7 15.4-36.3 11-20.3-8-24.3-35.9-49.6-29.5-11.4 1.5-30.6-3-15.4-15.3 9.4-11.9 6.8-29.5-11.4-24.5-31.3 2.2-13-30.8-3-45.1 7.7-23.9-38.8 8.7-37.7-17.4 4.5-8.9 14-35 10.3-28.2-11.2-7.8-39.8 22.6-37-.5a335 335 0 0 1 40.7-63.7c-12-1.4-15-10.4.4-12 15.7-13.2 2.7-57.6-25.2-44.8a123 123 0 0 1-46.4-17.9A111 111 0 0 1 79 1975c-19 2.4-42.2 3.4-54.8-14 1-11.6-14.1-24.8-10.3-32.4 6.5 8.6 14.4 16.7 14.5 28.2 4.6 15.6 36 20 18.3 0-7-13.4-20.3-25.4-26.9-37.4 15.4 7 23.1 23.1 32 36.5 5 23.3 33.3 7.5 44 26.3 17 11.2 35.3 21.8 56 24.2 14 6.3 46.9 18.8 40.5-7.8 0-20.3 19.9 8.2 17.6-5.8-6.7-13.7-7.1-41 14.2-25.8 12.4-9.4-10.2-13.3-18.4-12.5-31.9 12.7-58.7-19-91-16.2-24.4 5-13.4-36.7-37-22.1-14 3.5-28 12.3-42.6 8.8-10.6-3-3.3-18.7-16-16.2 16-21.1 9 21 27.2 12.3 16.1-4.4 31.7-12.9 48.6-12.2 8 9.5 5.8 30.5 27.7 25.3 21.1-.9 40.7 8.6 59.4 17.1 11.8.5 26.3-2.7 36.1-3-10.4-17.9 15.7-26.3 15.6-41.4-6.4 0-30.2-1.5-14.6-8-18-6.1-16.6-18 1.3-17.3 18-2.7 36.6-3.7 53.8-9.6.4-12 17.7-10.8 26.2-16.2 22-3.5 17-26 24.4-39.4 6.4-9.8 23.1-21.8 20.7-31.7-14.8-5.2-28.8-33.9-5-33.4-9-12-7.3-30.3-20-39.1-8.5-8.8-21.6-1.3-31.9-6-8.1-1.6-13-14-22-10.7-7.6 10.9-35.3 28.4-35.7 11 12.8 11.7 24.7-10.3 34.8-16.2 13.6-4.5 23 16.6 38 12.1 11.3-4 27.8 14.2 24.2-6.6-1.2-20.8 16.9-17.2 30-11.6 18.2-1.2 35.9-7.9 53.6-12.4 6.9-12 25.6-7.7 33.8-19.1 17-6.2 23.3-25.4 35.2-37.7 13.3-20 24.3-39.9 40.5-57.6 11.8-19.9 20.8-41.8 36.7-59 6.1-13.6-1.2-30.6 15.4-40.2 23.7-14.5 22.2-46 43.5-63.2 8.5-13 23-16.7 34-30.8 7.1-9.4 29.3-29.7 18.2-37-23 3.7-43.3-11.5-66.2-4.9-16 3.5-25.6-13.3-40.5-1.4-20.4 15.8-33.8-12.3-54.1-2.8-13.9-2.7-16 19.6-26 26.5-18.8 20.9-36.4 42.7-55 63.8-26.4 29.5-52.2 58.8-71.6 93.6-18 20.7-40.9 37-58 58.3-14.5 22.7-35.4 40.3-48.6 63.8-8 14.5-20 25.7-31.3 37.4a481 481 0 0 1-42.9 50.8q-13.7 16.3-28.5 31.9c-19 20.2-29.8 47.6-50.4 65.5-9.2 6.3-13.5 18.4-21.8 26.2-15 15.1-19.6 43.7-46.2 42.6-10.6 7.4-8.7 32-22.4 30.9 4.1-10.7 10.5-21 16.1-31 13.7-8.7 34.2-12.8 37.5-33.7 11.4-11.8 19.7-26.3 30.7-38.2 17.9-12.6 23.5-37.2 41-51.5 28.7-35.2 60.1-68.6 88.4-104 22.2-16.5 29.5-45.8 50.8-63.1 15.3-17.7 25.2-40 45-53.4 22.6-21.4 45.6-43.3 59.3-71.7 9.4-20.3 28.8-33 41.8-50.8 22-21.6 40-46.6 60.6-69.3 11.2-13.7 18.3-30 32.2-41.3 6.2-9.2 19.6-17.1 10.5-28.6-3.7-6-4.1-12.6.2-18.4 24.8-25.9 47.4-53.7 72.4-79.4 18 2 33.2.4 42-17.4 13.9-16.2 35.4-26.2 42.3-47.7 6-26 35-31.7 45.2-54.3 4-6.4 6.4-14.4 11.2-20 6.6-3.2 14.8-4.7 17.5-12.6-.3-7.3-14.8-2.5-21.3-4-22.6.3-45.5-.5-67.8-.7-9.6 1.7-13.5 12.4-20.4 18.4-55.1 56.5-108.4 114.8-163.5 171.4-43.9 48-90 94-133.9 142.1a9609 9609 0 0 0-114.2 120c-32.7 35.5-67 69.5-99.2 105.4Q70.5 1637 12 1699.4c-4.6 10.5-20.7 8.4-6.5.9 27-31.4 57.6-59.4 85-90.4 22.8-23.1 44.3-47.4 66.8-70.7 26.6-28.8 55-56 81-85.3 21.7-22.2 42.7-45 64.2-67.5 35-36.4 69-73.8 104.4-109.8q44.7-48 89.9-95.3c42.2-44 83.7-88.9 126-132.9 9.4-13.2 26.4-22.8 32.4-37.3-3.5-17.8-28.4-41.6-1.7-51.7 7.3-7.7 21.5-12.4 24-23.2-2.9-12.1-7-45.8-20.7-22.4-4 10.4-36.7 13.7-25.4-2.3L733.1 753c17.2-18.3 38.2-32.6 57.1-49.1 28.8-24.3 57.3-49 87-72.3 8.4-6 11.6 10 20.2 7.6 38.5 1.7 77 1.3 115.5 3 5.3-10.3.4-22.6 4-33.4.3-15.3 1.8-32.1 1.4-45.8 8.8-16.7-8.5-55.2 17.1-55.7 26 .2 52-.5 78 1.9q41.4-.5 82.7 2c25 .2 50.2 0 75 1 33.4 2.2 67.3-.2 100.8 3 35.4.2 70.8-.2 106.1 2 24.2.2 48.5-.3 72.6 2 29.3.5 58.7-.8 87.8 2 32.2 0 64.4 0 96.5 2 25.7.4 51.5-.7 77 2 28 .5 56-.6 83.9 1 33.2 2.8 66.8-.8 100 3 30.7.4 61.3-.5 91.8 2 22 .3 44-.3 65.9.7 4.8 4.7 1 14.5 2.2 21.4 1 19 2.4 38 2 57-.7 23 .8 45.7 2 68.5 0 27.1-.3 54.2 2.4 81.2 19.3 8.5 40.2 13.2 59.8 21 60.2 19.7 120 40.9 180.3 60.3 144.5 49.6 289.5 97.7 434.2 146.8 100.3 33.4 200 68.4 300.7 101-13.4 20.2-23.3 42.5-35.3 63.5l-88.1 167.2c-13.5 4.2-22 23.3-32 37.4-21.6 31.5-41.7 64-63.3 95.3-22 21-44.3 41.6-65.8 63-23.8 22.5-48 44.3-70.7 67.8-6.8 12.7 18.8 40.9-6 37-2.8 23.8 11.1 45.6 12.6 68.7-7.5 1.7-13.7-3-19.5 3.4-8.4-2.8-10.3 4.3-12.8 10.6-9.4 2.7-22.2-3-17.6 13.4-1.4 14.6 35.9 30.3 5.5 32.4-3.3 8.7 19.9 25.2-2.2 23.8-14.4-8.3-1.8 19-18 9.5-15.3-13.9-1 33-18.7 21.4-11.5-18.1-42.6-28-51.3 0-16.5 9.8-33.8-26.7-38-1.6-15.4 10.4-13.3-30-27.7-17.3-13.9 6.7-14.2-20.8-28.7-12-13.9-4.8-14.6 2.8-12.8 14.1-5.7 8.5-26-8.3-21.3 10.7-9-1-14.1-1.3-16 10.8-10 2.5-28.4-23.2-10.3-10.2 9.7 14.2 9-14.4 20.6-7.7-3.9-9.3 5.5-10.3 12-7 19.6 10.2 0-18.6 15.9-16.7 16.6 7.3 18.2-12 4.2-17.5-11.7-13.4 24.3 7.3 9.2-7.5-11.4-7.6-10.6-37.4-23.8-33-2.4 12.8-20.4 18.6-30.5 2.5-1-10.1 19.8 8 24.6-2 1.5-13.4 10.4-11.3 15.4-6 3-10.9 7.9-8.7 16.7-5.5-1-27-14.5-53.2-5.6-81-3.3-15.6-7.2-31.4-9-47.3-2.9-15.6-11-4-8.6 7.8a54 54 0 0 1-61.8 25.6c-10.6-3.7 2.5 9.6-2.3 16 8 4.4 29 7.9 8.1 7.5-15.3.2-10.7-11.6-14.5-20.3-6.5-7.8-8.3-5.5 4.1-11.5 6.7-7.1-17.1-6.4-21.4-13.7-9.4 13.3 16 25.8-3.7 25.9-12-10-14.2 5.7-4.9 2.6-4.1 4.9-12.5 8-15 12 13.2 7.6 3 17.3-6.1 22.7 26.5 3.3-9.2 35 19 37.7 9.1-.5 14 10 23.5 5.6 13.2-4-1.5 30.4-1.5 6.3-13.2-5.5-42.3-7.6-39-27 5-9.9 7-18.9-8-19.8 1.7-17.5-35.3-11.2-45.1-24.3-8.9-7.3-20.6-6.8-13.4 7 8.4 14.5-1.3 27-11.3 26 4.4 8.3 4.7 19.8-8.2 17.4-19.3 1.5 4.4 28.3 10 34.3-6.8 18.6 22.2 16.7 26.5 28-17.2 14.7 38.1 7.1 14.9 14.5-13.5 2.1-30.3-5.2-24.4-16.9-13.3-3.9-26.3-12.6-23.4-27.4-13.4-9-28-40.4-1.2-37.2 10.2-13.4-17.9-5.7-25.9-11.3-9-4.7-17.2-3.7-10.8 6.8-13.4 11.7-37.8-9-44 9.5-7.4 7.3-10-13.2-13.3 3.4-6 14.1-10.7 29-7.7 44.6 15.3 4.8 5.6 13.7-1.7 20 9 5 20-.3 29.3-4 5.9 2.4-19.5 9.1-25.3 12.7-11 7.1 18.4 7 3.5 16.7-12 16.2 15 11.4 13 25.3-16.5 24.3 32.4 17.7 23 40.4 1.2 14.5 28.4 17.5 38.7 12.4 7.3 3.9 6.7-8 6.6-12.7-3.5-14.1 13.1-11.6 18.2-19.7 2.1-19.4 16-23 31.5-13.9 17 5.8 32.7-10.1 42.9-22.5 20.2-24.1 34.5-56.2 64.5-68.8-1.4 6.5-24.2 18.3-29.6 31.5-16.7 20.1-29.5 44.6-51.5 60-15 10.2-42.7.8-39.3 28.1 6-1.4 31.2 13.3 15 8.6-11.2-2.2-27-5-16.6-19.5-11.4-10.8 20.8-12.4 2.6-17-15.8-5.9-11 27-30.1 24.6-5.8 10.6 0 30.8-20 30.6a74 74 0 0 1-15.5 24.3c5.4 11.1-18 30.1 7 31.7 12.2-6 20.9-2.7 13.8 10-5.4 15.8 37-12.8 25.9 10.7-16.4 15 4.5 18.6 16 9.7 11.5-8.5 8.2 16.2 18.2 0 9.9-13.8 23.4-12.5 29.9 2.8 12.3 13.2 34.2 17 31.6-7.2 7-6.4 9.6 5.3 3.6 10.1-1.2 25.4-34 9.3-42.5-4.4-9.6-22.7-28 24.8-36.7 4-13 6.3-44.5 5.6-26-16-3.2-5.8-34.1 8-24.6-12.8-4-10.8-26.9 4-34.4 11.2-16.6 12.7 5-12.8-16.2-3.3l-14.3.5c-4.7 8.8 12.7 12.3 4 20.9 6.2 16.2-38.3 19.8-15 29.2 10.6 1.1 11.3-.7 18 6 11.5 1 7.1 13.7 5.2 21.2-2.3 11 2 21.2-5.5 32.3-6.1 26.6 40.5-11.4 29 19.3 11.3 3.9-12.6 16 9 16 10.4-3.7 34.5-18.3 25.1 3 1 7 20-8.1 28.7-1.4 15.5 4.5 22.8 5.6 37.6-1.7 13.4 5.8-15.2 42-4.3 14.1 9-18.4-15.2 3.7-24.3-.2-5.7 3.2-12.9 4.3-18.5.7-7-13.3-30.5 7.5-26.3-15-17.7 12-40.3 1-32.5-20.5-7-1.5-36.7 5-27.9-15.8 7.3-9-1.6-17.3 3.5-26.6 10.4-24.2-19-4.4-31.5-6.5-13.2.6-26.5-.3-39.8.2 11.7 7.5 36.2 3.4 42.6 15.5-10.8 4.3-44-3.3-27.5 17.6 10 3.4 10.8 16.8-4 9.2-10.3-6.5-32.7-4.5-14 7.6 8.2 10.1-26 13-6.9 24 7.8 2.4 15.1 13.6.7 8.1-18.7-6.2-.6 16.7 7.7 20 .9 8.2 11 8.4 17.5 11.3 10.3 4 38.8 10.5 24 22.8-3.5 6.5 14-1.7 19.9-2.3 14-7 26.2 6.3 10.3 15.7-13.6 11-.3 25.4 9.6 11.7 8.5-8 6 5.6 1 9.5-6 10.9-14.3 21.3-17.9 32.9 22-3 40.9-20 64-21 15 5 14.2 18 10 30.2 21.5-10.3 42-28.5 66.6-28.5 10.2 5.1-6.6 38 9.8 19.2 11-20.2 35.8-9.7 33 11.9 6.3 18.2 13.3-14.4 9.8-21.4-.2-21.3 24 4.5 34 9 11.8 2.9-2.1-19 1.3-28-4.8-8.8-7-30 7-16.2 17.4 6 21.4 31.8 43.3 34.6 9.8 5.9 27.4 6.7 24.1-8.5.3-12.5-8-25-9.8-35.2 13.6 2.4 35.5 26.7 44.2 25.8.2-11.5-19.6-34-9.8-38.3 18.6 15.5 23-1 13.6-13.7 9.5-7.2-17-17.7-18.4-29.2-8.8-10.4-12-37.4-15.3-40.2-4.4 17.7-23.6-18-21 5.6.7 12.6-5.3 30-20.2 24-6.6-2.4-13.7-7.8-18.2.5-3.4 2.8-12.1 14.5-13.4 6.3 10.3-6.8 15.1-26.3 28.4-13.4 26 13.1 10.7-29.6 25.2-33 7.5 4 15.2 14 13.2-1.6-2.8-19.3 20-16.8 28-21.7-6.2-14.2-16.2-27.7-17-43 19.2-8.9-12.4-15.3-5.2-27 11-11.6-.4-18.4-11.4-21.7 21.3-5.3 23.1 17.3 16 28.1 14 6 13.3 17.2 5.9 26.4 2.7 15 19 31.8 17.9 43.4-12.3-3.2-36.3 4.7-24 19.2 4.7 22 9.8 45 26.6 61.3 3.6 8.3 26.2 12.3 20.4 21.8-22-7.6 7.5 18-12.2 18.4-15.2-4.4-14.4 2.5-8.8 13l9.3 24c-11.5.7-20.2-10-30-15.2-6.4-4.3-18-14.3-11.5 1.1 11 17.2-3.3 43.8-23.9 28.2-15.4-8.6-20.9-4.2-10.8 8.8l59 105.8c-8 5-18.5 26.5-28 15.8-59.8.4-119.6.2-179.3 2.4q-51 0-101.6.7c-19 .5-38.1 2-57.2 1.2-29.4.7-59-.5-88.3 1.5-5.7-1.5-1 21.8-10.5-1.5-20.3-58-40-116-61.3-173.5 7.2-12.3 17.2-21.8 32-18.5l128.2-.1c4.3-5.5 20-12.8 5.5-16.6-16-8.3-34.6-11-50.3-19.1 12.6-7-16.1-22-1.3-30.3 3.5-4.2-12.2-16 5-17.6 14.2-4.8-17.3-25.9 5.3-24.7 9.7 2.3 27.6 9.3 14.3-5.5-2.9-16.3 12.6-16.6 25-14.4-8.9-7.5-41.3-1.6-34.8-15.8 24.8-4.8 52.2 3 75.2-10.1-8.5-9.3-47.4-12-20.2-27 7.5-4.4 10.8-12.8 16-19.5-10.4-8.7-8.1-26.9 10-20.9 7.6 1 39.1-1.5 29.8-11.5-14.1-8.7 14.1-24.4-1.5-29.9 13.2-5.4 26.7-30 3.6-30.6-17 0-18.5-13.5-17.7-26.2-10.1-5.5-32-12-23.3-27.5 8.5-13.7-26.5-9-12.5-26.8-7.5-9.4-31.4 8.4-44.2 13.8-27.3 14.8-50.3 36.6-72.6 58-15.1 17.9-31.9 34.6-43 55.4-31.6 47.1-40.4 103.1-48.2 157.8-4 41.5-4.7 84 6.5 124.6 23.6 103.8 46 207.9 69.8 311.6q6.9 30.3 13.2 60.7c-7.8.3-4.6-13.3-8-19.1-24-104.1-46.4-208.6-70.2-312.7-6.2-30.3-15.1-60.2-18.6-91-3.5-34.7 1.3-69.3 5-103.8 7.9-53.6 25.1-106.3 57.2-150.7a477 477 0 0 1 116.7-111.7c10-6.5 22.3-9.6 29-20 2.6-4.9 15.3-11.2 5.3-14.2a37 37 0 0 1-2-33.7c5.3-13 9-27 16.5-38.8 5.4-3.1 3.5 19.7 9.7 5.9 6.3-5.4 37.9 12.4 34-4.7-3.9-17.7 23 3 32.5-.8 10.1 2.4 12.4-11.9 22.7-6 16 .1-9.4-31 4.5-36.1 23.9 3.1 48.8 27 72.4 20.4 3.3-5-15-21.4 2.7-21.7-2.4-13.1 7.2-16.1 18.4-12-1-7.2-6.9-15-1-21.4 5.3-2 13.4-4.4 15.7 3.3a139 139 0 0 0 47.4 9.7c-12.7 5.3-54.6 3.8-9.5 7.5 14-1.9 18.6-16.7 30.4-22.3-14.9-2.5-23.9-21.2-39.4-17.3-7.6 1.5-16.8-.2-23.5 3.5-27.5.5-59.2-28.8-85.8-40.8a156 156 0 0 0-55-34.7c-12.9-2.5-7.6-15-2.1-23.6 7.7-14.5 8.7-34 24.4-43-25.2-17.4-52.7-32-78.8-48.3q-42.2-25.1-84.2-50.6c-13.3-8-14.7 13.2-27.6 2.8-8 20.6-24.6 37.3-46 20.5-8.5-5.8-2.5-16.4-3-24.7.3-8.5 3.2-17.7 2.1-25.7-6.9-4.3-4.7-10.8-2.6-17.3-7.1-2.8-24.9-17.3-8.5-8.6 17.2 14.7 9.7-18.8 12.4-17 7.2 1.3 4.8-11.3 7.9-16 7.3-5.6-6.6-15.3.2-14 12.5 1.3 3.3-19 2.8-20 12.1 4.6 13-19.5.7-20.5-12.8-5.7-10.2-10.8 1.7-6.3 13.8 9.5 15.3-10.4 1-12.7-28.7-15-56.4-32-85.4-46.2-13 .5-5.4 10.1 2.6 12 5.8 5.1 19.3 6.2 17.3 15.8-10-4.3-19-10.2-28.6-15.3-5.1 13.6-6.3 27.6-9.1 39.8-4.4 4.2-3.5 13.2-5.8 19.2-10 10 21.6 20.3 5.5 15.7-11.6-10-15.6 12.7-6.4 17.7 5.2 5-17.4-4.3-21.2 3.6-23.6 9.4-56.9 31.5-78.3 3.6-11.1-12.4-51-15.3-49.4-37.3 2-14.7 6.7-29.3 3.7-44.2 4.8-9.6 31.5-6 34.8-12.1-22.5-1.2-45.3-3.4-68-2.7-20.6-.8-41-2.7-61.8-2-33.3-.9-66.5 2-99.7.5a789 789 0 0 0-55-3c-17.5-3-38.2 3.3-53.6-6.7-1-17 4.5-50.5-26.3-37.8-37.5-4.5-75.6-2-113.3-6l-68.3-1.7c-9.8 12-2.9 39-24.9 32.5-24.3-.2-48.8 1-73-2-13.4-3.9-16.2 4.8-15.4 15.8-3 19 .1 38.4-3.8 57.3 8 18.8 39.3 3.5 56.8 10 21.5.4 42.8 1.9 64.2 2.7 16.5-1.4 50.8 12 41.4-16.2 1.6-9.7-4.5-36.8 3.5-35.5 1 17.7-.8 35.6 3.4 53 24.7 3.7 49.9 3.6 74.8 5.4 27.7.4 55.4 5 83 2.9 7-14-14.8-48.6-7-57.2 6.3 19 9.4 39 15.7 57.9 23.6 4.2 48.3 3.8 72.4 5.3q32.8 2.4 65.8 4.5c12.5-1 39.3 9.2 29.4-12.5-2-7.3-4.7-33.8.6-13.7-1.3 19.5 8.2 35.7 29.8 30 22.2 4.5 47.7-.8 67.4 9.5-16.4-.3-33-2.7-49.5-3.3-10.8 2.7-42.2-11.4-40 6 6.7 40.5 14.6 80.7 20.9 121.2.4 12.7 14.1 7.3 22.2 8.5 16-.1 31.6 2.9 47.6 2 23.4-.5 46.6 3.2 70 2.2 11.8 2.6 39.6 6 23.4-12.5-16.6-31-34.4-61.3-50.9-92.3 5.5-1.8 9.2 11.6 13.4 17 16.9 29 31.7 59.1 49.5 87.5 9.8 4.4 23.4 1.6 34.5 4.1 32.2-1 64.3 2.7 96.6 2.4 9.2 9.7-18.1 2.3-27 3.9-20.7.4-41.1-3.3-62-2-13 .7-47.4-9-31.1 12.3 24.1 44.1 46.7 89 71.7 132.7 21.8 1.3 43.6-.4 65.3 2.5 23.8-.5 47.4 2 71.3 1.8 11 1.6 25 .2 13-12.7-17.9-38.3-39.2-74.7-58.4-112.2 8.1-1 13.6 22.3 20.4 31 17.4 31.1 33.4 63 49.6 94.7 20 2.6 40.6 2.2 60.9 3.4 15.3 1.4 30.7 2.5 46.1 2.2 18-.3 6.2 10-3 4.5-19.5.4-38.7-2.7-58.1-2.4-10.7 2.5-40.8-9-40.8 3 16.3 34.2 34.4 67.8 48.9 102.9-6.3 3.2-13.2-23-19.2-31.4-14-25-22.2-59.8-42.7-76.9-25-2-50-1.5-74.9-3.6-20.6.4-40.8-3-61.5-2-11-1.8-17.7 2.2-8.6 12.9q42.9 83.6 85.2 167.6c-2.6 7.2-7.5-9.7-10.5-13.8-29-55.4-56.6-111.4-86.7-166.2-27-5-54.6-.4-81.6-4.5-23.6-.2-47.4.5-70.9-2-23.6-.3-47.3.5-71-.8-3 10.4 3.3 21.3 4 32 10.2 55.7 19.1 111.8 30 167.4 3 8.7 14.6 4.2 21.8 6.2 16.8 1 33.6.8 50.4 2.6q29.1-.2 58.1 2.1c16.4-.5 32.5 1.3 48.8 2 23 1.2 62.6-2.7 73.6 7.7-18.8-1.8-38-1-57-2-19-2-38.2-1.4-57.3-3.1-38.3-1.6-76.7-3.7-115-4.5-14-.7-30.2-1.5-18.2 19.9q7.9 41.5 15.3 83.4c8 47.8 15.1 95.8 25.1 143.2 18.5 3.7 37.7 4.5 56.6 7 8.7-1.1 14.3 5.5 2.3 2.9-18.4-1-36.9-5.6-55.1-3.8-5 10.6 1.9 25.8 3 38.6 12 72.3 23.1 144.8 34.6 217.3 5.2 9 32 7.4 39.3 3-2.7-26.7-11.7-53-9.8-80.2 0-20.5-.7-41 2-61.5a881 881 0 0 1 20.3-116 319 319 0 0 1 37.5-94 382 382 0 0 1 115.6-128.2c18-15.5 80.6-52.6 93.2-44.4-22.5 14.9-52.1 19.6-73.3 38.2-43.4 28.9-83.8 63.5-111.7 108-17.8 27.5-35 55.8-44.2 87.5-14.8 41.5-15.7 86.2-22 129.4a550 550 0 0 0-3.4 75.9c.5 25.7 7 51 10.3 76.5-3.5 12.2 10.4 13.9 14.4 14-14.4-1-9.9 13.4-7.8 23 15.4 94 31.8 188 47.1 282-5.4 18-5.7-23.5-9.3-30.2-8.7-55.7-18.6-111-28-166.6-5.4-35-11.7-70-17.6-105-6.3-5 .8-17.3-4.2-25.8-6.7-34-12.8-68.1-11-102.8-2.3-9.1-2 11.7-2 17.8-.2 29-1 58.3 5.9 86.7 10.2 60 21.5 120 31.1 180 7.8 46.3 16.8 92.3 24.1 138.6 5.2 8 0 22.3-3.2 5.4-13.4-78.9-27.5-157.6-40.6-236.5-4-20.9-6.5-42.1-11.8-62.7-10.4-4-49-10.4-37.3 13.7 8.3 49.9 16.6 99.7 23.3 149.8.3 11.8 13.9 6 21.6 7.8-9.1.4-24.5 3-17.4 18 5.3 38.1 12.9 76 16.5 114.2-5.3 11.1-6.6-11.6-7.7-17.5-5.3-35.3-9.8-70.7-15.4-106-12.4-12.4-41.8-1.4-60.8-3-25.8.4-51.7-.6-77.4 1.9-5.4 6.8.1 17.2.3 25.6 3.9 33.4 8.3 66.8 11.8 100.1-4.1 9.2-6.8-8.4-6.9-14.8-3.8-34.8-9.1-69.4-12.6-104.3-10.4-14.3-37.1-3.4-54-7.3-14.9-.5-31-3.3-45.2.6-8.9 14.4-39.5-5.3-32.3 16.4 7.4 35.6 15.7 71 22.1 106.8-1.5 13.8-5.7-5.3-6-11.4-8.1-35.6-15.2-71.4-23-107-15.2-6.7-34-14.2-47.7-20.7 7.3 15 18.6 27.3 28.8 40.3-9.4 9.5-33.7 4-24 24l14 79.8c-9.2-.3-5.4-16-8.5-23.1-4-23.4-7.6-47-12.9-70-10.8-5.4-3.3 11.7-3.4 17.4 3.8 24.6 8.3 49.2 10.7 74-4.3 6.6-5.3-6.4-5.5-10.6-3.1-24.8-7.9-49.4-10.8-74.3.3-11.9-13.7-10.2-21.3-14.5-9.8-3.2-19.2-8-29.8-6.9-19.1 2.5-35.2-22.5-51.2-16.2-15 7.3-33.6-26-32.7 1-13.6 8.8-31.7-5.6-43.7-13.5-8.6-3.3-19.6-29.5-5.2-11 9.4 11.5 36 31.8 46.4 17.8-2-8.8-1.3-25.3 8.5-10.7 7.5 12.8 21.9 14.3 32.6 9.5a120 120 0 0 0 62.4 20.7c11.8 3.8 35.6 18.7 42.6 6.3 2.7-5.8 10.4 11 18.9 3 17.5-5.5-15.3-22.5-16.6-36-6.7-5.4-14.8-30.9-1.4-16.5 20.2 20.7 45.9 20.8 69.3 27.7 10 1 16-5.4 2.1-4.3-8.2-4.6 21.3 3.7 15-9.7-1.9-11.7-28.7-15.9-4.9-18.4 17.6-5.3 50.5-4 53.8-25.4 7.8-9.2-.7-19.5 14.5-26.5 7-5.2 27.8-22.4 6.3-15.8-15 5.8-22.4-7-8.8-15.6 11-10.5 26.4-23.3 18.6-39.6-13-3.8-26.4-10.8-10.1-22.7 14.3-13.9-20-5.6-28.5-7.8-24.7-.8 6.3-2.5 16.8-2.2 6-8.6 21.6-34 1.5-31.6.9-10.1 15.2-36.2-3.2-23.9-4 7.2-4.9 19.3-16 13.8-14.3-4-10 5.5-11.6 13-23.1-8.1-21.7 19.3-23 34.2-10.9 11.2-28.8 1.7-41-3-1.3 11.3-13.4 6.6-18.3.3-5.1-9.4-26.7-18-17.7.6 1 6.9 24 28.5 7.2 20-13.1-9.2-21-49.1 4-31.7 9.1 8.8 17 16.4 25 5.8 18.5 13.4 49 12 39.9-20.5.2-17 26-3.2 18.1-20.6 4.2-6.7 14.6 0 20.8-3 7.7-5 7.1-15.5 10.5-23.3 8-14.9-21.4-33.4 5.5-38.5l-5-30.2c-12.4-7.8-24.5-20.9-23-36 12.3-14.5 6.4-24.5-9-32.2-7.2-11.1-3.2-20.1-18.4-25.4l-20.6-15c-13.7-1.2 3.2 14.3-12.4 9.1-12.8-4-24.4-13.3-23.6 4l-2.1.4-15.8-5.4c4.7-2.6 21 4.6 13.3-10.5-2.3-18 31 18.2 19.6.5-1.4-4 26.9 2.1 20.9-9-18.8.2-30.2-20.4 8.4-11.5 9.2 0 39.9-4.8 16.8-10.1-14.4-2.5-29-3-43.7-4.4 1.1-6 24.9 1.7 34 .4 12.5.4-9-4.7-8.3-11.8-3.3-12.7 18.2-24.5 14-30.4-10.6 3.5-46.1 19.4-27.5-3.5 7.2-7 25.8-23.3 4.7-15.3-15.5 5.8-13.9-7.7 0-8.7 11.5-2.4 17.4-7.7 2.2-9-19.6-4.1-59-13.8-56-30.8 4.9 10.3 21.5 21.4 22.9 6.9 24.4-5.1-22.4-19.5-6.3-24.7 13 1.2-12.5-14.2-15.4-18.4-7.6-4.8-25.6-35.2-23.8-15.7-9.5-11.5-21.3-25.4-24.4-41.4-.1-21-16.6-26.8-34-18.9-23.4 3-50.2-.9-62.9 24.2-18.6 12.7-39.8 22.2-55.3 38.8-2 5.7 13.2-4.8 17.3 2.2.3 7.6-7.8 18.9 2.4 24.2 16.7-.5-9.5 9.1-9.6-5.2-2.4-5 7-17.4-.2-17.4-8.5 4-29.7 5.6-13.8-6.3 2.1-8.2-23.3 4.8-31.6-2.4-13.7-4.1-15.9 5-12.2 15.6 10.7 9.2 7.5 21.3-3.7 27 11.5 20-42 33.5-15.8 44.4 11 .3 29-3.7 18.5 13.2-8 8.2-8.3 17 4.6 10.5 14.8-1-10.2 16.2-14.6 20.2-18.4 11.2 11.6-1.9 6.3 13.7l-5.5 22.6c14.7 23.4 34.8-27.6 47.6-14.2 1.4 12.8-8 43.4 14.2 27.7l15.7-4.9c12.4 7.4 2 27 15.2 35.6 7.8 5.4 32.5 21.2 10.1 10.7-20.4-5.5-20.4-30-27.8-42-9.5 1.8-18 9.9-27.5 9-16.4-2.2 8.2-48.8-13-27.6-8.7 11.3-36.7 26.8-38 3.4 2.4-10.7 10.9-32-8.2-21.2-14.7-7.2 30.1-22.1 12-27.3-8.5-6.3 18.7-29.2-1.1-24.5-8.7-.1 0 7.4-12.8 4.3-10 1.9-33.7-9-35.6 4.2 9 5.1-7 10.7-5.3 19.5-3.5 5-11.2 7.4-11.4 11.9-12.3-1.4.4 12.9-15 8.2-10.6.5-26.3-4.2-34.5-1.3 3.7 11.5 10 28.5-2.6 36.2-9.8-.5-27.1 3.2-10 11.8 8.8 2.4 23 14.6 2.8 5.8-20.6-13.7-4.2 14.8 9 12.8 12.6 3.7 50.8-1 6.3 16.5-10 5.2-25.3 5.8-19.6 19.5-5 15.7-23.5 33 4 33.8 8.9 2.3 45.5 3.7 22.6 15-10.8 5.8-23 9.5-32.7 17 23 12 46.8 25.7 73 28.5 13.9 2 46.4-11.5 39.3 13 3.9 10.4-7.4 13-9.3 22.3-7.6 9.5-4 19 9 11 7.3-1.3 14.9-6.4 22.1-5.2 13.4 6.4-8.1 36 14.5 38.7 17.8-3.4 28.9 30.5 45.3 16.7 6.3-18.4 31 18.8 28.2 14.2-11.1-.5-20.6-24.9-27-7.2-16.7 5-27.9-11.4-39.2-18.6-9-1.3-20.9-2-22.3-13.7-.6-8.5.5-17.1.8-25.7-12.4-.6-24 6.3-36.1 9-14.5-8.4 7.7-25.5 8-37 6.5-16.7-8.3-18.2-22.6-13.6-30.8 3.4-56.6-16-83.7-27-14.4-6 3.2-12.6 9.6-15.7 7.7-4.4 16.4-7.2 23.3-12.7-7-10.7-48.5.5-44.4-18.7 12-10.1 12.3-26.9 9.8-36.6 11.3-4.7 22.9-9.2 33.7-15.2-13.3-3.2-33-13.2-38.4-19.6-7 14.5-50.8 5.2-48 27 9.8 11.6 10.7 31.2-3.2 40.3-21.1 8.5 11.4 20.6-2 34-7 7.5-31 13.4-29.4 22 15.4 7.3 5.3 20.6-9 21.7-15 7.4 13.1 10.7 13.3 21.7 1.3 19.9-7.2 38.6-10.9 57.9-2.9 15-9.8 29.8-7.8 45.3 5.5 16.3 36.4-12.8 26.1 13-8 22.5 33.8 10.5 29 32.8 1.1 14-5.5 28-4.2 41.6 22.1 20.2 50.7 8.7 73.7-3.5 16.9 10.6-9.7 54 26 40.5 11-10.4 19.7 5.7 27 5.3 10.3-15.9 23.1 2.7 29.9 13 8.2 11.4 24.4 14.6 24.2-2.7-1-13 19.2-43.7 27.1-21l5 23.4c-10-1-6.7-44.4-21.6-19-6.4 14-7.4 47.7-29.7 28.7-13.7-7.3-20.3-36-36.3-17.3-13-18-37.6 6.3-50-12.2-4.5-8.6 7.7-39-9.2-30.7-13.3 6.6-27.4 16.4-43 10.7-22.9 0-35.7-19.8-24.7-40.3 1.8-9.7 5.8-26.5-8.4-28.2-14.3-1.5-26.7-12-18.6-27-18.5 12-35-9-25.5-26.4 5.8-24.9 13-49.5 18-74.6 5.1-16-35.7-24.5-10.4-35.3 19.6-2.5 9.8-11.9 2.2-19 9.1-13.1 35.2-14.3 35.6-32.2-4.6-7-15.3-16.7-2.6-22.5 18.1-9.3 12.3-31.3 3.1-43.8 6.8-24.8 63.8-6.7 46.4-40.8 2-6.3 10.7 4.4 14-5.3 18.5 7.7 25.7-11.2 17.7-25-4.4-25-50.6.9-60-15.3-31.8-1.5-63.4-1.6-95.1-2.5-37.6-.1-75.2.6-112.7-.8-46.4-2.4-93-.6-139.3-1.2-20.7-.1 27.6 5.3 2.9 13-19.3 4.8 10.8 9.2 5.4 20.5 13.3-.4 32.4 10.9 15.7 21-4.2 18.1 45.9 3 26.8 22.8-5.4 7-17.6 15.4-20.2 21.6 13.6 4.5-22.9 6.4-1.5-5.9 7-7.3 14.7-14 21-21.9-12.6-4-32.3 3.9-36.7-15.6-7.1-6.4-11.5-17-21.6-18.8 5.2-14-14.8-29-21.6-38.4-11.6-.9 4.6-7-3.9-12.8-.8-5.2-12-15-3.4-16-18.7-17.8-13.8 25.2-33.3 26.2-11.2 4.6-21.7-2.8-32.3-5.7-8.2 7.7-8.7 20.5-16.4 28.7-11.5.2-15-17.1-27.2-16.8-5.7 7.8-7.5 26.9-20.8 22.8-14.9-4.8-29.7-17-45.8-8.4-8.2 5.5-22.8-7.9-26.5-12.3 12.7 3 21.5 13.4 34.8 5.2 17-5.6 40.7 25.6 48.7 1 3-26.4 27.5-.3 35.9 1 6.5-13.7 13.2-34.4 32-20.2 23.7 10.6 29.9-19.7 38.2-31.8 10.7 6.2 22.7 3.4 18-10.3-6.5-14.8-.2-29.5 18.4-27.2 21-1.7-3.8-24.4-15.5-23.7-8.4-5.6-7.7-18.8-17.6-24.3-6.1-15.3-19.6-18.7-22.4-.3-7.2 13.9-11.5 34.4-20.3 44.3.3-16.8 11-32.6 16.6-48.8 3.6-9 10.4-19.5 2.7-28.4-15.1-27-32.4-52.7-47.4-79.5 1 18.9-21.7 4.1-30-.7-13.6 4.6-27.2 9-39.7 16.2-14.4 11.8-31.2-20.7-23.3-25.1 5.2 10 9.4 30.4 25.1 19.5 15.8-6 34.6-22.9 50-8.4 18.6 13.2 12.1-9.8 6-18.6a205 205 0 0 1-25-56.7c-2.6-12.2-7.4-22.3-14.5-26.4 3.6-12-2.2-22-5.4-28.5 4-15.5-10-30.4-13-45.6-8-20.8-12.6-42.5-18.9-63.8-7.4-16.7 4.3-40.1-6.2-54.5-16.8 9.8-15.3 33.3-28 47.5-9.8 25.2-29.7 44.9-40 69.3-6.6 23.3-25.5 39.7-38.2 59.6-6.1 7-32 21.7-10.8 19.3-4.6 10.2-38.1 46.5-9 20.3l10.2-14c7.2 7.7-8.6 17.4-13.8 24.3-10.4 7 17.1 1.5.3 8.6-22.9 9.5-36.6 33.7-61 40.9-18.8 8.3-37 19-57.8 22.4-17.8 5.2-36.6 11.1-53.8 1-9.5 8.2-2.4 21-2 27.2-10 12 6.4 29.8 10.5 42.6 2.7 7.4-22.2.6-12.4 14.3 1.7 15.5 32.8 13.8 13.7 28.3-11.2 14 10.6 22.6 18.9 23.5 4.9 7 19.4 16.8 1.8 11.9-3.6 10.7-3.6 28.2 12.8 19.1 15.7-7.1 20.7 6 20 18.7 10 7.2 18.6-2.3 26.4-7.7 7.2-10.4 19.1 28.8-10.9 12.5-16.4 8.8-22-9.1-23.8-20.1-14.3 2.7-38.6 5.3-29.4-17.5 4.2-18.8-17.6-9.8-23 4.8-19.1 8.6-44 31-49.3 47 4.4-.5 37.2 5.6 20 7-23.8 6.8-30.8-12.7-17.8-23.3-17 5.7-62.5 15.3-60.6 15.7 11.4 3.8-10.8 4.6-15.7 4.4 11.5 5.6 31.5 17 15.4 30.1-6.8 5.3-9.7 13-11.8 21.1 7 9.6 16.4 15.2 11.6 27.7 5.1 17.2 31.9 1 23.1 21.3 7.7 5.2 20.3-2 23.1-.2-9.6 12.2-35.5-3.5-29.7 22.2 7.8 5 17.6-21.2 22.3-7.3 10.2 7.9-14.1 32.7 8.1 38-20.4 2.3-14.3-20.3-9.9-32-20.5 10-37.3 27-59.8 33.3-12.8 2-19.5 11.4-29.5 17.2-5.6 3.3 17 3.7 2.5 10.7a268 268 0 0 0-41.1 65.2c10.6-6.3 46-20.4 36.7 5.5-4 10.7-14.8 29.2 5.3 24.4 11.8-2.3 35-8.9 23 12.3-3.4 12.2-29 38.5-3.9 39.7l21.7 3.2c10.5 11.3-7.8 26.4-5.2 36.4 16.2.9 47-3.3 47.9 17.2 11.6 19.4 36.3 15.7 50 1.2 17.5 3.9 13.2 47.8 30.8 36.8 20.1-3.5 36.7 31.1 54 19.6 13-26.3 34.8 7.7 50 14 13.1 6.5 46.2 33.6 42.4 2.5 2.7-31.5 31.4-.7 46.6 5.4 9.8 4.4 30.8 19.5 23.2-2-.1-24.6 20.9-1.2 29.3 7 7.5 6 13.6 14.1 22.5 18 1.5-15.5 8.8-23.8 24-5.9 22.3 5.3 49 20.8 69.6 17.1-3.5-14.7-18.6-51.4 11-36.2 25.9 7.2 51 17.8 77.6 21.3 15.5 4 20-5.9 10.6-16.3-2.7-9.4-14.8-19.5-10.6-27.9 24.2 10.1 51 14 77.4 14.4 9.2-.4 34 .9 16.2-13-18-18.3-25-44.7-45-61.2-10.8-11.1-.2-13.8 5.2-3.8 14 17.7 35.7 26.4 53.6 39.4 5.2-5.3-10.4-21.4-18.5-28-4.6-5.4-15.8-10-15-16.4 21.2 11.2 40.9 33.4 67.9 28.4 12.9.3 37-9 15.9-20.2-8.7-8-18-15.7-29.3-19.6-7.1-13.5 22-22.5 4.3-31 5.5-5 15-1.3 22.1-2.4 9 2.5 20.9-3.2 5.8-7.5-13.8-6.5-35-19.8-30.7-37 .8-8.2 9-10.6 14.6-14.9 4.5-13.9-12.8-32.8-18.9-25.6-7.2-11.3-5-2.7-7.1-1.3-24.9-7.4-37.2-34.9-59.5-43.4-10.3 3.4-36.7-9.5-12.5-4.2 11 3.8 18.5-4.3 25.4-4.7 11.4 1.1 19.6-15.7 3.6-4.5l-2.8 1.7zm1841.3-601.5c10.5 7.6 4.8 30 8.7 31.6 3.3-9 19.8-24.7 8.6-29.8l-47.5-25.4c-4.4 3.4-12.5-19.8-19.4-3.6-18.5 34.1-36 68.7-54.4 103-2 13.8 19.4-1.5 20.5-11.2l47.3-86c2.2 9.2-12 25.6-17.5 38q-18.5 34.4-37.7 68.3c14.5-7.4 18.2-32 28.5-46 10.3-12.2 11.6-32.4 25.2-40.7-15.1 28.5-31 56.6-45 85.5 5 11 37.4-5.4 28.7-22 .6-14.3 21.3 0 21.4-15.8 9.6 4.6 41.3 9.8 33.1-5.4-8-13.1-55-16.2-33-37.6a30 30 0 0 1 32.5-3m189.8-80.2c-18.5 19-33 42-50 62.4q-17.4 22-34.3 44c-1.2 9 14-10.8 6 2.7-6.8 10.7-22.4 4.9-26 15.5-6 14.5-17.6 27.6-15.7 44.1-3.4 19.8 9 5.7 16-1 38.3-36 75.8-72.9 113.3-109.7 23-27 40.7-58.3 61.2-87.3a897 897 0 0 0 62-102.4c19-36.4 39.1-72.2 58.3-108.5-2.2-4-8.7 10-12.7 13.5l-52.8 69.2c3.6 6.5-9.4 6.2-10.9 14.2-13.5 16.8-25.7 34.6-39.4 51.1-15 11-25.1 26.9-35.1 42.4-14.2 10.6-19 29-32.4 40.1zm-290 112.1c2-8.4-6.8-10-12.3-13.7q-25.8-15-51.6-29.6c-13.4 6 4.5 11.8 10.8 14.4 14 5 24 16.4 37.7 22.6 11.6 3.2 24.9 19.7 29.6-.1 10.5-21 24.7-40.6 33.2-62.4-15.4-12.1-19.2 21-27 30.8-7.6 12.2-8.7 29-20.4 38m-24 68c12.7-8.6 1.3-15.2-8.7-5.5-9.4 5.9-17.6 9.6-15.4 16-1.3 10.1 0 33.7 16.5 21.5 5.2-5 9.6-12.4 14.8-18.2 8.6-6 2.5-18.2-7.2-13.9M2386.8 1293c-18.7-13.7-40.7-22.8-60.9-34.5q-75.5-40.1-150-82c-9.1-4.5-19.9-12.3-28.4-13.2-3.8 9.2-2.8 21.8-7 28.8-3.6 5.3-7.2 24.4 3 10 6.7-15 18.8-29.7 35.2-16 16.3 2 9.8 37.3 14.4 33.2 2.6-9 3.3-19.2 11.2-25.5.2 5.5 9.5 10.4 16 13.3 16.3 9.1 33.5 16.7 49.5 26.3-10.9 3-41.9-15-53.6-21.1a1154 1154 0 0 0-30.8 101.3c11.6 9.5 25.7 15.9 38.4 23.9 45 25.5 88.4 53.9 133.8 78.5 8 .9 15-6.4 22.4-9.2 12.1-12 14.6-32.5 22.5-47.8 1.2-13.2 19.7-31 8.5-41.8-3.4-4.7 19.4 3 9 11.9l-28.7 73.8c9.9 12.1 27.9 14.8 41.1 23q26.2 12.6 49.6 30c9.5 8 20.3 16.7 23-.1q11.9-26.4 23.2-53c-17.9-3.7 17.2-18.5-5.4-23.8-9.3-12.3 16.9 14 17.8-2.8-24.2-15-50.1-27-75-41-16.6-9-33.5-18-49.8-27.1-11.7-2.2-17.9-12-29-15.1M1225.3 961.2c8.6.7 5.3 10.3 6.9 16.2-1.1 4-17.2 0-15.3 3.5 11-.8 21.6-.4 18.3 14.7-1 14.5 10.1 41.1-14.7 35.7-19.4-3.5-46.7 2.5-61.1-6.8-1.6-20-6.3-39.8-5.8-59.9 10.1-10 4.5-8.5-.3-9.5-9.4-4.4.2 25.3-.8 33 3.4 21.1 4 42.8 8.7 63.5 18 3.8 37.4-.8 55.7 3.2 6.7 2 30.8-1.7 10.2-3.6-17.8.2-35.5-3.1-53.4-2-12 5.7-19.4-16.6-7-18 19.6.8 39.4 3 59 4 13.4-7 11.4 11 16.2 11.4 2.8-12.6.7-26.4 1.2-39.5-4-16.5-.2-33.8-2.7-50.5-4.8-1.5-22-3.7-15.1 4.6-18-13-13.5 20.2 2.6 14.3 2.8-4.2.6-10.5-2.6-14.3m96 559.7q-6.9 18.6-10.6 38.2c2.2 8.9 17.8 24 20.3 21.4 6.6-12 .1-25 5-36.6 10-6.4 11-19.3 15-29.7-7.8-5.2-15.5-10-16.9-20-5-14.4-6.3 5-9 10.5-1.4 5.4-4.1 10.6-3.8 16.2m-283.9-725.6c15.6-21.5 28.1-45.1 42.8-67.2 12.5-20.4 25.6-40.7 38-61.3 13.6-13.9 6.5-19.6-9.8-15.3-19-.7-37.6 3.1-56.5 1.9-15.4 2.8-40.1-2.8-34.3 20.6 3.2 16.3-10.4 47 3.5 52.9 20.2-2.4 40.5-7.9 60.7-6.7.8 3.1-13.1 2.7-18.3 4.3-16.4 3.6-34 2-49.7 8.2.2 17.7-2.9 35-2.5 52.8-12.1 21.1 33.9-.7 22.7 10.1-20.6-1.5-27.4 10.4-26 29-2.4 11.1-.2 24.6 7 8.2 7.2-12.6 16.5-24.3 22.4-37.5m955.4 363.7c6.8 1.5 15.4 5.9 14.5-4.8 4.6-17.8 7-36.3 12.4-53.9 21.6 3.9 39.9 21.5 60.4 30.4 21.7 10.4 41.6 24.6 63.7 33.8 1.5-9.5-14-11.2-20.5-16.5-47.2-25.2-93.6-52-141.1-76.6-7.8 18.1-6.8 39.2-11.8 58.3 1 9.3-9.5 24-10.6 7.4-18.5 2.4-37 5.3-55.8 4.4l-15.7 3.8c18.4 9 33.7 24.1 52.6 32.8 15 8.5 29.2-4.5 44-6.3 10.3-4.6 28-2 7.9-12.8m675.9 37.9c-7.4 14.4-19.4 26.1-29 39.3-8 4.6-8.3 26-18.4 16.2-22.9-12.5-47.1-22.5-70.5-34-12.3-2.7-33.1 20.1-11 23a76009 76009 0 0 1 336.2 163.1c9 5.2 12-9.2 18-14 18.2-23.5 37.2-46.5 54.2-70.7.4-6-11.6-7.2-16.6-11-69.5-31-138.3-63.5-207.6-94.7-16.4-7-32.3-15.7-49-21.8-12.2 5.5 7-14.5 10.6-18.4 7.8-10.3 17-19.7 23.7-30.7-8-6.4-31.5 8.7-40.8 16.4-10.4 23.8-21.6 47.3-31.5 71.4 4.9 3 12.8-15.4 18.5-19.3 4.4-5 7.2-11.7 13.2-14.8M1627 905.2c9-16.2 22.3-29.9 33.1-45 44-56 87-113 131.5-168.7 13.6 3.5 17.3 29.3 26.5 42 27 54.8 55.3 109 82.8 163.6 1 8.7 17.3 24.1 15.4 10.2-32.1-66-66.9-130.7-99.5-196.5-7.2-13.4-13.1-27.6-21.2-40.5-35.2 42.5-67.8 87.3-102 130.6q-41 52.8-81.7 105.7c9.5-.3 20.1-4 13.2 9.1-1.6 35.6-4.2 71-6.3 106.5-1.5 11.6-6.9 34.6 12.4 30.8 8.4-.6 17.2 1.2 25.3-1.5a2204 2204 0 0 1 9.4-80.4c12.7-8.7 34.4.7 50.6-2 22.7 1.8 45.4 2.2 68.2 2.6 19.6 3 40 0 59.7 3.5.9 9-2.6 19.7-3 29.3-2.1 17.6-7.2 36.6-4.5 53.4 1 5.7 31.1 4.8 37.7-.5 9.6-49.5 17.6-99.3 27-149C1867 838.7 1831.5 769 1797 699c-7.7-4.6-12.3 10-18.1 15-48.6 63-97.7 125.7-146.5 188.7zm385.9 82c-9.7 10.4-15.9 23.7-24 35.3-3.2 8.6-10.5 15.4-14.9 23.9-6.5 7-8.2 14 2.7 16.7 104.7 55.7 207.8 114.3 312.5 170l242 132c16.8 8.3 33 17.5 49.4 26.3 39 21.7 78.6 42.3 117.3 64.5 21.4 11.6 43 22.7 64.2 34.4 12.8 1 12.9-26.8 25.2-22-14.4 22.6-33.4 50.4-63.5 49-11.9-1.4 11.5 14-2.7 15.3-12.8.8-25.4-1.6-38-3-.3 6.9 1.3 17.7-6.6 8.2-24.2-11.7-18 26.5-6 34.9-12.5-2.3-9 12-9.8 19.6 14-6 15.5 9.2 11.6 19.6 14.8-1.6 38.8 2.5 30 17.7-5-10.6-11.2-15-23.7-12.6-18.4 2.5-9.2-12-9.8-21-15.3 5.5-18.1-6-11.2-17.5-9.7-6.4-3.6-9.5 1.6-11.9-1.2-10.7-5.7-7.5-11-.9-14.5 7.9-42.9-3.4-49.4 8.5a71 71 0 0 1 .1 25.8c-13.3-.3-6 16.1-18.3 20.8-2.6 17 46.7 1 27.2 24.3-20.1 16 8.2 17.8 20.7 14.1 4.5 6-1.4 34.9 10.7 31 12.3-7.3 34.4-27.7 42.8-6 .5 22.3 17.6-12 24 12.8l13.7 5.2c7.4-14 19.4-10.3 27.8-2.6 14.5 1.8-2.3-30.5 15.8-12.5 7.1-.4 8.7-12.2 17.3-3.5.1-15.8-10-32.2-10-49.2-2.1-16-8.6 26-18.7 5.6-15.2 8.2-9.2-25 2.3-5.9 14 17.4 3-38.3 22.9-18.4 13-1.5-11.4-34-2.9-45-1.4-13.7.9-26.9 3.2-40.3 2.2-15.9 4-31.8 8.3-47.3 11.7 2.8-7.4 23 9 24.6 11-3.5 12.2-28 25.6-21.3l57.6-75.1c-10.4-8.5-24-12.5-35.8-19Q2583 1267 2324 1141c-75.5-37-151.6-72.7-227-109.8-27.1-13.5-54.8-26-81.7-39.9-4-8 19.1 6.2 26.1 8.4 151.7 73.5 303.4 146.8 454.6 221 12 5.6 10-15.2 14-22.3q-114-55-228-110.3c-11.6-5.5-19 18.3-31 4.6-17-2.4-3-18.8-10-26.3-11.6-10.7-45-9-28-29.4 3.4-11.8 9.8-23 11-35.2-55.8-25.3-111.4-51.1-167.4-76-8.6-2.9-10.3 10.3-15.4 15.3-9.3 15.4-20.8 30-28.3 46.2M953.8 1332l63.2-185.4c9.5 0-.3 13.2-.7 18.9-14.2 46-31.1 91.1-46.5 136.7-3 9.3-6.9 18.4-9.1 27.8 3.5 6.2 36.3 1.4 13.5 4.8-13.2-4.3-18.6 5-21 15.9-18.8 51.7-38.2 103.2-56.8 155 11.1 8.1 31.8.4 46.4 3 33.4-.2 66.8 0 100.2-.2 18.1-11 12.1-41.7 18.7-61.3 6.2-34.2 12.5-68.5 17.8-103-.8-15-29.4-4.2-41.7-7.4-15.8.8-31.4-2.9-47.1-2.4l-3-1.2c30.7-3.6 62 4 92.5.7 6-12.4 5.8-28.5 9.4-42.3L1109 1186c-10.2-3.1-39.8 2-38.5-4.6 13.6-1.6 40 10 41.6-10.4q3.5-19 7.7-38c4 15.7-12.2 39.6-1 50 20.8.2 41.7-1 62.3 1.9 19.6.2 39.2-.5 58.8 1 4.7-21.8 2.3-45 5.6-67.1 3-10.3-2.4-21.3-13.5-15.7-6.2-1.3-.4-28.2-7.3-8.1-9 8.8-24.5 0-36.7 1.3-13.9-.6-27.6-2.5-41.4-3.8-.4-19-8.7 15-17.7 2.3a978 978 0 0 0-90.7-3.6c-17.9-3.8-52.4 8.5-59-11.6 1.8-15.2-2-17-7.8-4l-50.2 84.4c7.1 10.5 28-.1 37.7 7.7 7 6.6 5.5 14 .1 21.1-40.4 73.6-79.1 148-119.4 221.7a399 399 0 0 0-64-.7c-28.9 47.8-56.4 96.5-84.2 145-5.1 15.2 7 29.5 9.8 44.2 6.5 10.5 3.2 32 17.3 34.8 20.5 30 31.1 65.9 52.9 95.3 9.9 6.4 25.1 28.2 28.5 5.9 5.5-11.5 19.5-36.9-5-30.4-6.8.8-22.6-1.7-6.6-1.8 18 3.9 30.7-3.4 33.5-21.9 22.1-55.1 44.4-110.5 64.6-166.1-6.1-4-15.1-1.1-22.4-2h-44.7c11.7-4.4 30-1.1 44.6-2.2q12 0 23.8-.3c23.1-55.7 42.3-113.1 62.6-170 .6-7-11.5-7 1.4-8l1.1-.1zm369.1 129c10.7 17.9 14.5 42 34.8 50.8 7.2 3 9.6 12.3 18.6 10.9 5.4 9.6 10.6 19.4 22.3 22.6 10.6 15-19.5-13-18.4 1.9-2.8 24-9.3 47.5-9.3 71.7 6.8 6.4 23 15.9 30 12.4-.5-24 6.5-47.3 7.4-71.3 5-20.7 19 9.5 29.2 13.6-5.4 10.8-30.3-34.3-26.3-5.6-.8 22-8.6 43.3-7.2 65.3 11 1.2 16.4 17.4 28.5 11.8 17.8 1.8 8.6-21.3 13.4-34.1 2.3-13-2.7-44.9 20.5-27.3 2.2-4.7 35.2 7.2 14.5 5.2-14.5-1.2-34.6-11.3-29.8 11 1.2 16.1-12.4 42.6 2 53.3 11.6.3 23.8-3.3 34.3 3.1 8.7-3 23.9-4.8 27.6-10.7-.3-14.5 2.6-28.7 3.7-43.1-10 1.6-24.8-21.3-9.6-9.1 8.3 4.3 14.4-1 22.5-4.3 9.5-5.7 1.2 6.4-3.8 7.8-11 4.7-4 17.8-7.8 26.6-1 11.6-6 41.4 14.2 35.1 17.3-4.5 21-28.1 39.5-30.3 6.1 0 7.3 10.3 7 15.2 15.4 10.8 29.6 2.2 38-11.1 15-12 37.9-10.4 43.2-30.9 3.9-4 24-17.6 9.5-13.5-13.3 7.8 1.1-9.5 9.9-7.9 21.2-15.1 28-45.3 26-69.5-15.8 13.4-29 47.3-52.7 44.2 7.9-4.1 21.4-9.8 26.9-20.5 9.8-9.9 22-18.7 23.6-33.8-.4-13.6 18.7-26 4-37.3-4.8-19-17.9-39.6-35.8-45.8 3.2-5.8 4.2-13.1-1-18l-24-23.4c-6.6-1-39.3-12.6-17.3-9.2a46 46 0 0 1 30.5 16.1c7.2 8.2 19.4 14.1 19.4 26.3-5.7 13.6 18.7 11.5 18.7 24.8 9 8.8 11 21 16 31.9 10.3 7.3-2.4 15.9.8 24.3-2.5 24.8-4.7 50.5-14.2 73.9-11.8 19.3-33.2 30.8-39.8 52.7-10.2 5.6-21.7 9-31.9 15.5-15 4-20 24-37.3 20.2-26.8-13-10.8 28.2-10.1 42 26-8 51.8-17.6 77.2-27.5a221 221 0 0 0 97-90.6 140 140 0 0 0 12.5-64.4c.6-13 0-30.3-7.9-43.8-21.3-49.2-63.3-86.7-109.8-111.7-16.7-8.4-34-19-53-25.3-30.7-11-63.7-10.7-95.7-11.9-13.8.9 2.3 10 5.7 15.2 18-2.3 39-9.6 55.3 3 9.4 16.2 34-.4 45 15 12.7 23.3-11.6-12.8-21.9-3.6-22.5 2.7-39-24.6-63.6-12.3-19.8 11.6-27.6-21.1-47.6-12.3-13.8-10.8-28.5-1.2-41.6 5-8.2 10.5-21.2 13.9-32.2 19.5-13-7.7-28.8-.6-36.3 11.4-17.4 1-38 7.8-39.7 28-4 11.3-3.2 25.3-13.3 33-12.8 9.5-20.9 43.5-14.8 46.8 8.6-13.5 6.7-46 24.8-45.2-8 9.7-1.8 21 3.5 28.7zm1409-342.7c32.8 15.4 67 27.9 100.2 42.4 58.3 24.1 116.3 49 174.8 72.8 14.8 1 21.6-20.5 31.9-30.3 10.6-15.3 23.6-28.8 33.4-44.6-23-11.2-47.9-18.8-71.7-28.4-117.6-43.7-234.5-89-352-133q-253.5-96.2-507-192c-10.6-7-12.1 2.3-19.1 9.3-9.5 15.3-20.5 29.6-28.6 45.7q93.7 36.6 187.6 72c13 3 10-10.5 23.8-5.7 10.5 1 19.8 7.5 30 10.6 52.5 20.6 104.7 42 157.1 63 80.4 32.4 161 64.3 241.3 96.9 7.4 8.8 20.1-11 15.7 4.4-6.7 4.5-15 8.6-17.4 17M1230.5 1710c-18.6-3.2-38 .2-56.7-3-48.5-.3-97.2.1-145.5-.7-7.6 1.7-4.5 12.2-7 18.1q-9.8 62.2-20 124.2c-7.4 10.7-4.6-7.7-3-13 6.4-42.7 14.4-85.2 20-127.9-26-4.8-52.8-2-79.3-2.7l-113.5-.2c-17.3 5.2-17.2 32.8-27 47.6 12.2 12.2 31.6 21 36 34.6 20.2 7.2-8.2 22.1 8.8 32.4 12.5 9.4 10.5 24.7-7.5 22.3-24.1-1-11.8 28 6.4 20.9 21-.8 41.9 2.5 63 2 26.3 1.6 52.7 1.5 79.1 1.9q30.4-.3 60.7 1.9c30.2.3 60.5-.6 90.6 2 29 .3 58.3-1 87.1 3.5 18-1.4 4.5-32.2 8.7-45.6-.7-34 1.3-68.3-1.2-102a39 39 0 0 1 .4-16.3m902.6-911.8 941.7 356.6c12.4-13.4 22.6-28.8 34.5-42.7 8.2-9.4 20-23.3 1.3-25.3-263-89.4-526.2-177.7-789.2-266.7-55.8-18.3-111.2-37.7-166.9-56.2zm-934.4-230.8c38.4.7 77-1.2 115.4 1.5 46 1.6 92.1-1 138 2.5 48.4.6 96.8-1.3 145 2 42.6.4 85.2-.7 127.8 1 33.3 2 66.8.6 100.2 1.2a507 507 0 0 1 51.1 1.8c51 .5 102-1 153 2 34.7.3 69.5-.4 104.3.7 9.6 3.4 20.6 1.2 17.6-10.4-.6-10.4 1.2-21-1.5-31.2-28.4-4.6-57.3-2-86-3-32.8-2.8-65.8-1-98.7-2.4-35.8-3.1-72 .6-107.8-3.3-28.2 0-56.5.1-84.6-2-28-.5-56.1 1-83.9-2-33.5 0-67 .3-100.5-2q-42.5.3-84.8-1.9c-29-.4-57.9.5-86.6-2-24.4-.6-49 .7-73.1-1.2-40.2-2.3-80.7.6-120.9-3-21.7 0-43.5.5-65.1-1.8-32-.5-64.2.3-96.2-2.3-14.7 1.4-40.6-7-35.5 17.5-1.3 16.2-8.3 44.2 17.7 36.3 39 .4 77.9-.4 116.7.6 13 5.8 28-4.6 38.4 1.4M879.4 1204c-12.8 25-29.2 48.4-43.6 72.7-9.7 16.3-20.7 32-29.4 48.7-12.3 10.1-38 .5-55.7 3.7-13.1 3.5-38-10.7-43.2 4.8.7 8.2-5.3 10.6-10 15.4l-46.8 64.5c-5.5 21.7 7 43.2 11.3 64.5 5.7 19.8 13.3 39 20.8 58.1 12.7-16.7 21.7-36 33-53.8q23.9-40.3 47.5-81c13-11.8 37.1-1.1 55-4.9 13 3.8 16.7-8.6 21.6-17.6 24.6-44.7 48.3-90 73-134.6 12.5-25 27.6-48.9 39-74.3-7.6-6.8-51.3 7.6-43.9-10.5 26-43.5 53.7-86 79.2-129.9.6-5.2-13.4-2.2-19-4l-53-4.2c-8.9 9.4-15.9 20.6-23.1 31.4-18.4 26.9-36.1 54-54.2 81.1-9.3 15.5-20.8 29.7-29.7 45.5 18.6-.6 16 26 36.5 21.4 11.6 1.1 23.2 1.5 34.7 3m263.5-256.2c16 1.1 31.4 1 47.5 1.3 17.5.2 35-.2 52.5.4 8.1 5.3 3.5 17.6 5.3 26.2 1 20.3 2.9 40.7 2.2 61 17.7 1.3 35.3 2.6 53 2.9 21.2 4.3 4.6-34 8-45.5.9-23-3.1-46-2.1-69-4.8-15.8 2.8-35.3-5.5-49-25.7-31.5-52.6-61.8-78.3-93.3-28.7-34.5-58.5-68.2-87-103-8.3-3-12 12.3-17.8 18.6-35 54.8-69.5 110-104.6 164.8 9 21.3 7.7 45.7 13.3 68 3.6 20.2 5.9 41.1 10.5 60.8.3 16.7-.5 40 23.2 33.1 24.6 4 8.3-24 8.9-37.9-1-12-4.8-24-3.7-35.9 11.8-1.2 32.2-5.8 40.7 3.8 3.7 24.3 6.6 48.8 11.3 73 17 .9 36.3 0 27.6-21.8-2.2-18.5-6-37-6.1-55.5zm-87.1 564.3c-10 62.2-20.3 124.4-30 186.8 12.4 8.7 34.7 1.4 50.8 3.8 30.8 0 61.7-.2 92.4 1.7 19.6-1.1 39.6 1.9 59.3-.8 3.3-19.2 0-39.4 1.5-59 1-23.5 3-47.3.5-70.7a86 86 0 0 1-4.9-56c-8-14.8-35.1-3.4-51.2-7-38.2.2-76.5-.2-114.7.3zm731.4 715.4c4.7 4.8 9 11 16.7 8.7q58.8.2 117.5-.1c5.5-10.4-3-27.6-2.8-40.7-10-58-17.7-116.4-27.7-174.4-6.3-16.7 2.5-51.9-23.5-49.6-30-2.3-60-6.5-90.1-8.9-10.5-1.5-21-1.7-31.5-2.9.2 23.3 8.2 45.7 10 68.9 3.5 21.3 6.2 42.8 10.6 64 3.7 7.7 15.2 8.3 22.6 12.3 30.5 7.8-15.7 19.6-15.6 32.5 2.5 22.9 6.6 45.7 10 68.5 2 7 1.1 14.8 3.8 21.7m-29.3-1649.7c-46.5-.5-93.2.7-139.6-1.2-34.2-1.8-68.6-.5-102.9-1-14.3 0-28.7.5-42.8-1.8-40.2-.5-80.6 1-120.7-1.3-27.4-1.7-55-.3-82.5-.8-23.7-.3-47.5.5-71.1-1.2 11.1 22.5 21.7 45.5 35.3 66.5 37.7 1 75.6-.3 113.2 1 34 2.8 68.5.8 102.8 1.6 42 3.6 84.4.5 126.6 2.6 38.1 2.8 76.5-.6 114.6 2.5 21 5 39.5 0 45.3-22.3 7.7-14.7 15.6-29.3 21.8-44.6m-863.3 935.6c-7.7 13.3-11.8 28.8-18 43-18.4 47-37.5 93.8-55.5 141-.2 10 16.5 3.4 23.9 5.3 55.6-.2 111.2.3 166.8 0 15-2.5 9.8-25.6 14.1-38 7-49.3 16.8-98.1 23.7-147.4-6.4-13-29-3.5-42.3-6.1-19.3-.2-38.6 3.5-57.8.8-18.2 1.8-36.7 0-55 1.4m805.3 204c.2 16.4 5.7 32.5 8.1 48.8 11.9 61 24.2 121.8 34.1 183.1 9.5 13.9 36.4 8 53 11.8 18.3 2.1 36.5 3.4 54.7 5 10.6.9 21.5 4.2 32 1.4q-17-101.5-35.3-202.8c-5.2-14.3 2-46.9-20.6-43.8-23.2.3-46.3-3-69.6-2.1-18.7-1-37.6-3-56.4-1.4M1720 648c-43.8-.7-87.7-.4-131.4-2.4-38.5-.5-77.2.8-115.5-2-37.3-.5-74.6.9-111.7-2-36.5-.5-73.2.8-109.6-2-11.3-1.4-23.3-.5-12.2 12.2 12.3 18.6 18.4 46.1 34.7 59.3 39 .7 77.9-.7 116.7 2q82.7.2 165.4.1c41.5 3 83.3 1.6 125 1.8 13.8-3.4 16.5-24.5 24.6-35.9 3.7-10.5 12.8-20.3 14-31.1m665.6 1541.5c-15.7 1.5-38.9 8.7-42.6 26.8a208 208 0 0 1-16.6 31c-10.7 13.2-25 .5-36.9-4.3-9-11.3 13.8-29.9 14.3-45.5 2.8-17-24.8 2.4-34.2 4.6-10 5.2-40 19-25.9-5 10.6-16.6-25-7.5-34.2-10.7-35.2.7-70.3-4-105.5-1.6 11 32.5 25.2 64 37.5 96 2.6 11.6 15.7 4.7 24 6.1 54-2 108 .3 162-2.7 37.9-.5 76 .6 113.8-2 21.4-.4 42.8.5 64.2-.9-14-26.9-28.4-53.7-44.1-79.5-9-11.2-17.9-8.7-14.6 5 4.8 14.6-21.2 35-21.1 11.5 1-14.4-10.3-30.1-21.4-12.8-6.4 5.7-11.5 13.5-18.9 17.6-8.7-7.7 3.5-23.7.2-33.6m-357-676.8c-24.5-47-49.8-93.6-74.5-140.5-4.5-9.3-15.7-4.2-23.9-5.5-18.5 0-37-3-55.6-2-22.7-4-46 .3-68.6-3.8-19-5.1-29.6 3.8-22.6 21.5 6 37.8 13 75.5 19.7 113.2 5.8 22 40.5 9.2 58.9 13 34.3.4 68.6 2.2 102.9 2.5 21.2 2.1 42.4 1.4 63.7 1.5m-793.6-171c-18.7-1.7-37.5.2-56-2.6-31-.4-62 .2-92.7-1.5-6.4 29.3-10.8 59.1-15.9 88.7-4.4 26.1-10 52.3-12.8 78.6 11.4 6 31.6 0 46.7 1.9 39.7-.2 79.5.1 119.1-.5 6-3.5 3-14.3 5.2-21a349 349 0 0 0 4.8-62.1c1.6-27.1 1.3-54.5 1.6-81.5m449.7-622.3c-35.7.7-71.2-2.8-107-2q-98.7.4-197.6-2c-35.4.4-71-1-106.4.7 8.4 20 20 38.7 29.2 58.4 7.2 27.2 40.2 10 61 14.6 41-.5 82.2 1.2 123.1-1.9 37.3-.4 74.7.6 112-.7 17-1.1 34.2-1.2 51.5-1.7a883 883 0 0 0 34.2-65.4m993.3 468.4c23.5 13.3 48.9 23.2 73.2 34.8 67.2 30.3 133.7 62 201.1 91.8q28.9-36.1 56.3-73.3c-1.7-6.9-12.6-6.7-18.2-10.5-86.5-36-173-72.4-259.6-108-10.5 8.5-19.5 26.9-31 37.6-7.2 9.3-14.8 18.2-21.8 27.6m-1243 579.6c-5.5-12.4 3.5-32.3-6.1-40.7-22.8-4.4-43-18.5-67.3-16.1-24.5 1.6-48.7-3-73.2-1.7-17.5.4-35-1-52.4.7-1.3 40.7-.6 81.4-.3 122 6.6 14.5-9 45 14.6 44.2 24.3.6 48.2 8 72 10.9 5-17 27-3.8 39.2-6.2 10.4 0-19-8.6-2.6-18.2 11-9 34.5-27 9.1-34.5 29.8 2 9.8-24.4 5-37.4 6.7-6.5 6.1-15 3-21 9.2-2.5 19.5-.1 29.1-.8 10-.3 20.1.8 30-1.2m359.4-1124.2c24 .2 48.1-.7 72 2 25.7.2 51.5-.8 77 2 28 .1 56.2-.4 84 2 29.8-.4 59.5 1.1 89.1 2.5 15-2 43.8 7.2 36.3-17.8-1.8-15.6 2.4-39-5.8-50-36.1-1.4-72.5 1-108.4-1.9-44.2-1-89-.1-133.4-1-28.2-2.7-56.6-1-84.9-1.6-18.2.6-36.8-1.6-54.8 1.2 7.3 21.9 19.8 41.6 28.9 62.6m157.6 1769c-6.2-43.8-13.7-87.3-20.2-131.2-3.3-13.3-2.3-28-8.3-40.4-31.5-.8-63-.9-94.5-2.8-18.6-.3-50.6-4.7-37.4 23.8 7 11.3 4.2 24.3 5.4 37.8-1.6 10.6 9 16.7 3 25 4.4 29.4 7.4 59 11.3 88.5 7.7 10.5 26.3.6 39.2 3.2 25.4-.5 50.9 1 76-1 8.3-2.4 17.9 1.2 25.5-2.8m-706.3-1222.5c-.5 25-3 50-2.4 75-1 23.9-6 52.7 1.5 73.7l75.2 1.3c32.1 4 65.7-.2 94.5-16-1.5-19.7-1.2-39.9-3.3-59.7.8-20.1-2.8-40-2.1-60.1-2.4-12.8-24.4-6.5-35.5-8.8-20 .8-39.6-3.3-59.6-2-21.4-3.9-43.3-.2-64.6-3.9zm620.8-398c23.1 2.2 46.9 3.1 70.3 3.2 23.4 3.3 47.2 1 70.5 4.2 21.8-.7 43.2 2.9 65 2.1 17.3 1 35.4 4 52.4.5 9-16.3 22.6-31.5 30-47.6-.7-9.4 1.5-19.3-1.5-28.4-24.4-3.7-49.2-1.7-73.8-4.3-21.8-1.1-43.6-1.5-65.5-2.9-19.2-1.4-38.4-1.3-57.5-3-21.5 0-43-2.9-64.5-2.5-19.7-2.7-39.7-.9-59.3-3.5-9.8 6.5 9.6 26.2 12.1 38 7.3 14.8 13.9 29.8 21.8 44.2m-494 553.8c-20-.4-36.3 15.2-54.2 22.6-35 18.3-65.1 48.6-78.9 86-6.1 25.8-10.7 52.8-3.5 79a190 190 0 0 0 101 120.9c46 28.3 99.8 41.3 153.2 46.5 19.5 3 45.5 6.7 45.7-20.9.9-7.1-30.6 16-16.2 1.3 8.8-6.5 22-9.5 24.9-21.3-14.6 10.7-26.8-.5-38.7-5.8-10.5 11.2-24.4 8.7-37.6 2.8-13.8 5-23.9-4.3-34.3-7.5-7.2 2.3-13.7 1.6-19-4.4-4.6-6.9-11.6-3.4-17.4-6.2-8.8-8.3-22-6.6-29.5-16.1-11.1-10.7-31-12.2-38.1-28.5-7.6-18.2-32.5-22.8-26.9-47.3 2.4-11.4-3-20.6-8.2-30.1-7.2-18.6-1.3-38.8-4-58.2-.7-22.5 19.1-36.8 26.4-55.5-.7-24 17.8-47.8 43-46.5 6.2 1.3 8.4-7.4 12.3-10.8m233.3-474.3c13.7-26.5 28.3-52.5 41.5-79.2-20-5.5-49.8-2.2-73.2-1.4-53 1.7-106.1-.2-159 1.3-28.4 2.6-57 .9-85.5 1.5-10.8-1-20 .8-10 12.4q15.3 30.7 31.7 60.9c27 2.5 54.1 2.6 81.3 2.4 28.5.4 57-1 85.3 2 29.3-.2 58.6.1 87.9 0m6.2 460c14 6.2 27 14.7 41.6 19.4 22.1 3 44.5 1.6 66.7 2.6 17.2 1.3 39.5 4.4 54-.3a16835 16835 0 0 1-21.6-131c-11.3-9.4-31.8-5.2-47.1-7.1q-29-2.5-58-4.3c-18.2-2.1-36.7-1.3-55-3.4-15.2-4.3-9 8.8-7 17.3a3743 3743 0 0 0 26.4 106.8m540.2-674.6c-20-2.3-40.6-.7-60.8-3-26.7-.2-53.5.3-80.2-2-24-.3-48.2.6-72-2-25.2 0-50.4.1-75.4-2-21.9.5-44-1.3-65.7.8 6.4 19 16.7 37.6 25.8 55.9a870 870 0 0 0 82.4 5c21.4 3.1 43.2.8 64.7 3.7 20.8-.2 41.2 3 62 2.4 23 2.2 46.1 2 69.1 3.9 16.6-3.7 41 8.5 52.4-2.6-.7-20-1.9-40-2.3-60.1M1856 1088.8c19.8-.7 40.8 5.2 60.5-.4-7.5-13.5-11.1-32.1-24.7-40.6-.3-10.7 12.8.6 20-3.7 20.9-1.8 55.5 15.4 63.6-12.1-12-1.3-24.1-3.2-36.2-1.4-17.8 1.7-39.5-2.3-54.7 2.2-2.4 16.7-4.8 37.2-26.7 30.3q-44.4-.7-88.7-2.8c-10-3.3-18.7 3-27.4-.9a153 153 0 0 1-52.3-1.4c-18.5.5-36.9-.7-55.5-.9-12.5 1.5-26 1-24-14.5l-4-23.8c-24.4-5.6-50-.5-75-3.5-33.4-3.9-67-.5-100.6-3.3-32-1-64.6 1.1-96.6-1.5-6.7.4-7 12.6-10.9 18.1-5.9 8.2 1.8 21.5-14.5 16.8-19.2 1-42.6-10-58.6 2.4-4.1 5.5-1.5 15.7-11.9 14.1 21.4.8 42.6 2.8 64 3 20.6-1.3 54 14.1 55-18.2 6.8-6.6 17.5-2.3 26.1-3.5 12.8-.3 25.4 0 38 1.8 18.6-.2 37.2 0 55.6 2 18-.7 35.7.9 53.4 2 15.4.1 30.7-.2 46 .8 3.3 14 4.8 34.6 23.9 29.1 22 3.1 44.4 1.5 66.5 4.1 15.1-.6 30 1 45 2 15.9-.5 31.7.5 47.6 1.9 21.4-1.4 42.6 3.3 64.1 2 11.2 0 22 4.4 33-.1m-1119-49.6c-10 17.6-18.4 37.7-38 46.7-19.6 15.7-20 46.4-44 58.8-10.5 7.3-42.9 35.5-13.8 32.3 35.4.3 70.7 3 106 2.5 18.5.3 47.4 9.3 54-15 11-22.2 24.2-43 36.4-64.4 14-20.4 28.2-39.4 42-59.6 8.1-5.7 22.5-22.4 1.5-11.6-11.2 3.8-23.4-4.4-31.6 4.8-24-2.7-49.2-3-74-2.7-5.6-1-20.8 3.6-15.6-6-6.5 1.5-12.7 13.7-23 14.2m351.2 295.3c26.9 1.3 54-1 80.7 2.4 21.2-.5 42.7 1 63.9-.6 8.2-5.1 3-18.3 4.5-27-.8-26.5 3.1-52.7 2-79.2-1.7-15.2 12.5-47.8-15.1-41.2-22.7-1-45.2-2.5-68-2.3-13.9 1-41.4-10.4-45.3 7.9-7.6 45-16.1 89.7-23.3 134.7q-.2 2.6.6 5.3m486.7-128.1a1425 1425 0 0 0-61.3-3.3c-19-1.9-38.2-1.7-57.2-3.8-15.6 3.2-48.5-12.3-43.3 14q2 28.8 2.7 57.6c5.3 18-7.9 64.5 24.8 49 20.5-10.6 42.6.7 64.1-3.7 21.5-.4 43.6.7 65 3.8 11.7 2.7 23.3 6.3 35.1 8.5-1.4-20.2-8.5-41-13.3-61.2-6.4-19.3-8-40-15-59zm1106.3-80c-68.6-31-138.5-59.2-207.5-89.3-69.7-29.6-139-60.3-209-89-7.2-1.7-14.5 4.2-21.8 5.8-10.7 4-21.7 7.1-32.1 11.7-.3 6.2 11.9 6.6 16.9 10.3 77.9 33.7 155.8 67.7 233.9 101 54.3 23.8 109 46.6 163.2 70.3 13.7 3.8 25.5-6.7 38-11 6-3.3 13.7-4.6 18.4-9.8M763 1262.6c17-25.2 36.2-48.9 52.6-74.5-14.2-8.4-30 5.3-42.6-3-21.4.6-42.6-2.7-64-2-24 .5-47.7-3-71.6-1.9-20.4 1.8-46.8-10.6-57.4 13.9-19 20.1-37.9 40.7-55.5 62 2.3 6.3 13.5 2 19.7 3.6 54.2.2 108.4 0 162.6 2 18.7 0 37.5.5 56.2-.1m1945 535.1c5.3-5.5 1-15.4 3-22.7 10-2.8 20.4 8.2 17.7-7.7 9.3.8 23.8 2.6 11.5-9.5-13-14.3 21-14.4 1.7-25.2-3-9.5-5 16.4-7.4 1-1.9-9.7-4.8-19.3-1.4-29 3.2-11.1-7.1-5.4-9.8 1.2-12 7-26.5-20.2-35-6.3-14.5 4-7-35-27.8-17.6-10.5 6-35.7 30.3-32 2.6 2.9-22.6-16.3-19.2-31.6-23-9.6-4.8 4-12.6 6.7-18.7 12.8-16.5-32.6-2.7-29.2-19.5.4-5.9-10.8-3 .9-7.4 13.6-5.8-20.4-.5-12.2 12a87 87 0 0 1 4.5 41.8c-7.3 7 9.3 28.3-2.4 34.3-8.6-4.2-9 5.6-11.8 11.2-2 16 25.5 30 19.7 40.2-10.7-5.3-7.6 2.5-4.9 9.8 7.9 3.9 12.4 21.1 23.3 12.3 13.6-6.2 18.6 37.6 24.8 8.8 11.3-6.3 27.4 28.7 38.8 6.4 14.6-21.7 38.2-8 52.9 5m-728.4-771.1c30.8-44.7 58.9-91.3 88.6-136.7-34.1-1.4-68.3-.7-102.4-3-14.8 2.6-44.5-5-51 4.5l11.9 24.5c-13.3 1-26.2-.6-24.6 16.7-4.7 30.1-10.7 60.1-15.5 90.2 16.1 7.5 37 1.8 55 2.5 12.9-1.5 25.2 2.7 38 1.3M2119.3 808q-32.9-2.9-65.8-3.5c-25-2.1-50-2.2-75-3.8-35.3-1.3-70.6-3.4-105.9-4-3.6 9.7 12.6 29.3 16.7 42.7 10 13.7 11.2 40 29.1 43.3 32 1.2 64.1-.7 96 1.5 19.4-.8 45.1 6.6 60.3-4.2l44.3-69.4zm-27.7 1357.7c21-2.9 42.7-.2 64 .2l77.5.3c16 2.5 24.7-44.2-10.4-19.4-49.2-.3-98.6-.7-147.8 0-6.2 4.4 3.1 17.2 4.7 25.4 15.8 44.5 32.8 88.5 49.2 132.8 9 13.5 28.5 4.2 42.3 7 101 .3 202.2-.5 303.2-.3 31.4-.4 62.7 0 94-1.5q-30.5-55.9-61.4-111.6c-7.2-8.1-14.8-34.4-28-33.7 3.2 13.8 5 28 13.4 39.8 14.2 25.2 27.3 51 42 75.9 11 7-.8 13.1-8 5.8-18.6 1.5-37.1.3-55.7 1.8-40.3.8-80.6-1.2-120.7 1.4-48.9 1.5-98-.2-146.8 2.5-20.6.6-41.2-.4-61.7.8-17.8-40-33.3-81-49.8-121.6-.5-1.9 0-3.8 0-5.6M2735 1103.4c-91.5-40.1-185-75.6-277.5-113l-147.7-58.7c-12.8 3.6-31.4 7.3-38.8 15 107 44.9 213.4 91.5 320.5 136.5 32.7 13.6 64.6 28.9 97.7 41.5zm-897 613-36-202.7c-12.8-7.5-32-4.1-27.6 13.8-4 32-14.7 62.8-22.2 94a168 168 0 0 1-33.3 40.6c-7.8 11.2-32 15.4-25.3 31.8 1.8 6.8.6 20.7 10.9 18.6 21.2 0 42.5-.1 63.6 2 20.1 0 40.2 0 60.3 2zM866.3 769.6c-7 31-20.7 65.9-19.3 94.7 19.7 2.1 40-.6 59.6 2.7 26.6.3 53.2-.4 79.7 2 10.3 1.1 14-12.2 15.7-20.3.6-16.4 3.6-33 2.2-49.4-.5-12.9 11.5-39.9-12-34-28.1.7-56.2 3-84.3 2.2-13.7 2.8-27.7 1.6-41.6 2.1m146.5-120.9c-28.6-5.8-58.1-2-87.2-3.4-12.2-.4-25.4-.3-36.9-4-14.6-13.7-27.6 14.7-41 20.7-33.6 28.2-68 55.9-101.2 84.6 8.3 12.9 23 23.3 34.6 34 21.8-21.4 40.5-45.7 62-67.6 14.1-16 29.2-31.5 42.2-48.3 0-7 10.7-28.4 8-10.2-.5 15.3-15.3 39-6.6 48.6 18.8 0 37.6-2.5 56.6-1.8 22.5-.5 45.3 1.2 67.5-3.1 0-16.5 4.7-33 2-49.5m670.5 1265.7c10.4-.7 36.8-18 35.7-1-13.3 9.6-27.1 33.1-1.8 37 13.5 11.2 26 .8 17.4-14.4-11.1-70.5-25.9-140.4-39.8-210.5-9.5-19.3-43-7-62.3-10.7-11.8 4.5-47.7 2.1-35.7 19.2 4.7 9.3 41.2 28.8 14.4 31.7 1 16.4 22.3 9 33.6 11.2 11 5 31-4 37.3 6.6-19-.8-38.9 0-57.9-2.5-8.2 7 14.4 20.3 20.8 28.3 12.2 6.4 20.8 19.6 10.5 23.1 9.5 4.4 27.5 14.8 7.7 19.3-12.6 9 37.6 20.6 29.6 18.7 17.2-.1 22.9 5.8 14 12.4 2.3 13-17.9 20.6-23.5 31.6m-912.8-622.8c-27.2-1-54.4-.1-81.5-2.4-32.4-.2-64.9.2-97.2-2.1-22.2 2.2-48-5-67.8 3.4-8.8 8-26.6 29.2-1.8 20.4 12.9 3.1 24.9 14.4 38 5 9.5-2.9 23.7-13.4 28.1.5 17.9 1.9 36.3-6.4 53 3.6 21.3 2.3 43.3 1.8 63.5 2.9 18.4-.1 36.8 0 55.2 1.7 13.3-.1 26.6.7 40-.3 25-38.2 49.7-76.9 71.8-117-14.2 1.2-32.3-7.5-44 1.4l-57.3 83m1508.1-356.1c-60.2-23.1-120.2-46.8-180.6-69.2-9.9-7-12 7.2-17.1 12.8l-25.6 40.3c18.5 12.3 41.2 19.3 61.4 29.4l107.9 48.7c3.7-7.5-14.3-11.2-20.5-16.4-7.6-3 .5-10-3-16 22.3-10.3 46.8-16.6 69.8-25.7a19 19 0 0 0 7.7-4M822.3 1893.2c19.7 2.5 39.9.7 59.8 1.3 20.3.3 40.4 2.6 60.8 1.8 33 .5 66-.5 99 1 30.6 2.2 61.8.6 92.6 1 29-.5 58.2 1.3 87 1.7a455 455 0 0 1 69.8 10c11-1.9 35.8 5 28.1-15.1-19.7-6.8-41-9.9-61.6-13.4-28.7-2-57.3-5.6-86.1-5.5-30.2-3.4-60.9.5-91.1-3.2-48.6.5-97.1-2.6-145.7-2.5-34.6-3.8-69.7.3-104.4-3.7-8 2.7-8.7 19-8.2 26.6m364.8-1323.1c-45.7-1.7-91.5 1.4-137.1-2.3-14.7-1.7-31.3-1.3-26.8 17.7-1.5 18-2 36-3.5 54.1-1.2 23 33.3 8.1 48.5 10.1 20.2-.2 40-2.8 60.2-2.8q29.9-38 58.7-76.8m394.4 514.3c-7 10.6-3.7 23.8-5.2 35.7 29.1 1.8 58.4-.2 87.5 2.8 21.8-1 43.3 2 65 2 31.5.4 63.1-.8 94.6.7 21.7 3.3 43.9-.6 65.6 3.3 20.2 9.2 37.1-26.5 21.6-33.4-19 1.3-38.2-.6-57.2-1.8-18.3 1.2-38.3 6-56.1.8-9-2.6-19.3 4.1-27.8-2-16.8.7-34.7-2.3-52.2-1.3-29.3 0-58.9 1.3-87.5-5.8-16.2.5-32.3-2.8-48.3-1m872.9 355c-20-5.6-37.2-18.7-56.2-26.4-8.7-6.3-11 6.7-17.7 3-10.5 3.5-21.4 8.3-31.6 12.7-5.6 12 25.2 9.2 27.9 19.7 19.8 11.8 38.8 25.8 61.1 32.8 15.9 4.5 27.3 14.8 39.5 25.3 10.1 13 27 5.2 39.8 1.7 16 4 28.6 20.3 45.7 24.2 18.6 4.1 31-9.4 45.3-16.4-.8-5.5-11.8-7-16.7-10.8-17-9.8-31.9-21.5-50.5-28.3-15.8-15.5-39.5 7-52.1-12.6-11.5-8.4-25.2-13.9-34.5-24.9M1006.6 760.7c.7-18.6 5.7-40 1.6-56.9-32.7-1.2-65.2 2.7-97.9 1.7-10 1-21-2.4-30 3.6-1.7 18-15 41.3-9 56 21.4 1 42.7-.6 64-1.7 23.8 0 47.6.2 71.3-2.7m707.2 6 76-97.5c4.5-17-10.8-35-15.2-52-5-7.5-12-41.8-18.8-22.9-8.7 18.6-21 36.4-27.4 55.3 8 20.4 18.7 39.6 26 60.2-6.8-1-7.4-12.1-11.3-17.5-5.8-11.8-10.3-24.4-16.9-35.6-10.5 10.1-16.6 28-24.5 41.5-7 9.7-9.1 20-2.9 30.5 5.2 12.4 8 26.6 15 38m-190.4 940.6c-22.5-4-45.5-2.8-68-7.5-50-7.8-98.2-25.5-140-53.9a190 190 0 0 1-74-86.8c-9.8-10.2-5.9 26.8 3.4 33 24 39 51.6 77.3 94.5 97.8a99 99 0 0 0 62 16.6c36 9.5-89-1.1 29.6 15.6 12.8-22.6 11 73.4 44.6 6.3 23.5 5.5 37.5 1 47.9-21.1M1662 1357c52 29 97.7 76 111.9 135.2-6.9 17 25.6 20 25.7 9q-11.7-69.6-23.8-139c-22.6-6.7-46.7-.7-69.7-5.3-14.7-.3-29.4.3-44 0M858.3 984c-21.7-2.5-43.3-5.6-65.1-4.8-22 .6-44-1.5-66-1.6-26.7 3.8-54.3 0-80.7.8 10.7 16 13.5 41.3 37.7 35 25.6 3 51.7.5 77.5 2 9.2 11.7 27.3 6.1 40.4 7.5 13 4.9 24.8-.9 38.5 3.8 7.2-3 1.4-14.6 2.7-21.5.3-8.6-7.3-9.4 3.6-12.1zm1604.1 573.8c5.6-8.9 15.4-16 15.2-27.3.6-9.6 4-17.9-10.6-22.1-13.5-18.1-38.3-18-55.4-31-22.3-11.3-42.9-25.6-65.6-36.2-6.5 0-8.3 12.9-12.5 18.9-5.5 8.5-10.3 21.7 3.8 24.7 15.5 11.8 35.9 17.2 49.2 32.5a1351 1351 0 0 0 57.7 32.7q9 4 18.2 7.8M1135.6 645.3c10.7 17.5 26.1 32 38.7 48.4 8.7 11 21.4 31 25.7 6.5 9.6-20.4 18.3-41.3 27.4-62l-31.6-61.1c-5.7-10.2-10.6 6.6-15.8 10.5zM670 890.2l19.1 64c18.4 0-1.9-28.5-1.2-39.9-12.1-20.4 2.5-35.5 14.3-51.3 8.6-12.4 8.6 6.6 10.4 13l14.6 77c10.1-2.2-1-25.1-1-35.4-3.2-19.5-8-38.9-10.1-58.4 2.4-7.4 16.3-4.3 23.5-6 22.9-.1 45.9-1.8 68.7-1.4 6 3.5 3.8 14.1 6.3 20.7 5.2 27.5 10 55.1 16.5 82.4 10.3-8.4-4-32-3-45.8-1.7-18.2-11.2-43.1-7.2-57.3 6.4 9.1 25.5 15.5 14.4.3q-43.4-38.8-87.2-77c-18 13.2-30 44.1-45.6 64.2zm1992.3 271.1c-10.9-.4-19.8 10-24 12.9-22.4-8-43.4-20.1-65.8-27.7-11.4 18.1-16.4 44.1-23.3 65.9 22.2 12.3 45.6 22.4 68.5 33.4 13.7 2 14.1-18 20.2-27.4l24.4-57M1289 1659.7a350 350 0 0 1-49.9-69.1c-6.6-8-2.5 10-3.7 15 .4 32-.7 64.3.6 96.2 13 7.1 33.2.4 48.6 2.8 20-1.1 39.8 1.5 59.8 1.9 9.7-.2 28.5 1.2 9.2-5.6a286 286 0 0 1-64.6-41.2m-287.8-781.3c29.5-43.6 56.4-89 85-133.1 15.7-23.6 29.7-48.2 45.8-71.5 12.6-.6 16.8 17 26 23.9 53.7 62.7 106.7 126 159.9 189 4.3 11.7 33.4 15.9 7.5-4.2-32-37-62.8-75.2-94.3-112.8-32.6-38.4-63-78.8-97.2-115.8-15.6 18.3-26.8 42-40.7 62.4l-97.6 157c-3.8 4.8 3.4 3.7 5.6 5.1m267.3-160.3c-11.6-23.7-24.2-46.9-36-70.4-5.2-8-7.4 10.2-11.1 14.7l-25.4 56.8c18.3 22.3 36 45.4 55.6 66.4 4.2-4 3.6-13.6 6-19.9zM789.3 960.4c-27-2.3-54.4-.1-81.2-1.9-6.7 6.5-11.7-2.5-19-1.3-10.8 3.5-4.6-22.5-15.6-7.1-8.2 8.5-37.2 25.1-12.1 22.8 19.5-.6 39 3.2 58.4-.3 4.8-2.2 17 2.4 15.8-5.2 9.6-3.2 13.8 5.5 22.2 4 17.5.2 35.6-2.9 52.3 3.4 11.3 2.6-7.8-11.1 8.6-5 7.1 8.7 20 5.4 30 7.6 8.6 1.5 18.3-.3 26.1 3.6-8.8 6.2-29.4 16.5-7.4 14q59-.5 118 2c10.9 1.5 22.4-3.3 32.5-.3 4.2 2.3 17 4.7 17.1.6-11.2-8.4-34.2-6-49.8-8-30-2-62-2.1-89.3-5.6 11.3-6 15.2-27.2-4.4-22.1-22.3.7-44.6-.3-66.8-1.4-11.7-1.6-23.6-1-35.4.2m624.4-29c-.3 14.3 2.5 28.6 1.6 43 1.4 7.8-3.8 23 5.7 24.7 20.9.2 41.8-.8 62.6 1.4 6.7-12.4 3.4-30.7 1.9-45.2 1-13.1.8-29.8-17.3-24.1-17.9.7-37.7-4.6-54.5.2m707.8 1398.5c39.4.8 78.7-2.5 118.1-1.8 31.2-.4 62.5.7 93.5-1.4 25.3-.2 50.8-.8 76.3-.7q49.7.3 99.4-1.9c16.2-3 46.6 6.8 53-7.6-127.7-.4-255.4-.1-383.1 0-18.9 3.8-47.7-9.4-57.2 13.4m-520-1454.3c-12.3 2-41.6-5.4-22.6 5.5 1.6 21-2.8 42-1.8 63.2-1.2 21.7-3.4 45.9-2 66 10.9 1.1 23.2 5.9 33.4.6 1.6-27.3 2.6-54.6 5.2-81.9.4-8.5 4.3-21.2-8.2-21-.4-10.8-.3-22-4-32.4m156.7 1503.2c-13.1 9.2-41.2 11-47.4 17.8 12.5.3 21.7 14.5 3.9 10.5-12 4.2 4 15.1 13.5 11 26-.3 52 .6 77.9-.8-.5-27-7.4-54-9.6-81-3.5-21.4-22.5 8-31.7 13.8-2 8.1 17.3 4 17.5 13.3-8.2 6.8-27.6-8.4-23.1 11.5zM2149.6 1308c15.3-17 22.5-39.7 30.5-60.9 5-16.7 11.3-36.1 3-52.8-11.2-17.4-30.3-9.4-33.2 9.3-12.5 21-22.2 44.9-18.3 69.7 4.7 10.7-8.1 24 2.3 31.5a19 19 0 0 0 15.7 3.2m-1267-633.6c-29.2 31.8-57.8 64.2-87 96.1-14.4 9.6-6.3 19.2 4 26.7l17 15.5 50.3-71a699 699 0 0 0 15.7-67.3m359.6 666.9c-4.4 31.7-1.9 63.7-3 95.6 11.5-8.2 23-32.5 37.8-44.2 18.4-22 53.4-30.2 72-47.6-29.2-.4-58-3.2-87.3-2.3-6.7.8-13-2.6-19.5-1.5m-477.5-56c-.2-15.2-10.9-20.8-24.4-18.3-45.4.4-90.6-1-136-2-26.6.2-53.4-.7-80 .3-4.4 10.6 9.7 21.4 21.1 17.3 27.9.6 56-.8 83.7 1.2 34.8 2.1 69.9-.3 104.7 2.6 10.2-.6 21.3 1.5 31-1.1m791.7-284.4c1.5-21.2.5-42.5.6-63.8-7.5-11.6-27 .3-38.4-6-14.2-2-29-.2-23.4 18 .5 17-1 34.1 1 51 19.8 2 40.1.3 60.2.8m-193.7 47.7c-6.6 15.8 3.7 24.7 19.6 20.5 24.3 3.2 49 .8 73.5 4 13 1 20-5.5 29 1.6 24.2-1 48.1 1.8 72.2 2.1 14.8 3.9 20.1-38.4-4.4-20.2-26.5-6-53.9-1.3-80.5-5.5-15.1.1-30-3-45.1-2-13.8-.4-27.7.9-41.3-1.8-7.6 4.2-15.5-3-23 1.3M835 1899.3c9.2 12 32 7.2 47 10.6 52.4.8 105 0 157.4 1 39.3 2.6 79.2 1 118.7 1.4 25.7.3 51 .7 76.5 2.5 21.2.4 42.3 5 63.1 6.7-6.5-11-29.9-10-43.6-13-20-3.6-40.7-.3-60.6-3.6-18.4-.8-37-.4-55.3-2.2-18.6.5-37.5-.5-56.2-.2-35.8.1-71.7-.1-107.4-1.9-43.8-.4-87.7.5-131.4-.7q-4-1.5-8.2-.7m1799.2-741.4c-53.8-25-108.6-47.8-162.8-71.7q-110.6-48.8-221.6-96.5c-14.6-6-28.6-13.3-43.6-18.3 11 16 34.5 19.3 51.5 28.8 81.4 36.6 162.6 73.6 244.4 109.2l102.6 46.3c9.8 3.8 19.2 9.3 29.4 11.9zm-1509-95.5c-36.2-4.6-72.7-2.5-109-3.2-14-3.1-38.3-5.8-30.8 16 1 16.5 27 8.5 39.4 10.7 20.7.1 40.9-.1 61.5 1 16-1 54 13 43-16-.4-3.2-1.6-6.4-4-8.5m-138-8.7c26.3-.2 54 .7 81.1 1.1 17.2-.6 34.3 1.4 51.5 2 10.4-.3 33.5-18.3 25.8-27.3-9.7-1-18 .7-26.3 5.2-28 3-60.7-5.8-82.5-9.9 4.3-11.7-.8-26.2-13.8-18zm767.2 537a244 244 0 0 1-128.6 95.1c-10.5 8.6-40 4-40.7 18 3.7 10 28.5 83 35.7 6.7 48.6-10.6 91.8-41.3 122.1-80.4 6.5-9.1 7.2-21.3 11.3-31.8 1.2-2.4.6-5 .2-7.5M1350 1071.4c-24 .5-47.7-2.9-71.7-2.4-15.9-.4-53-11-43.3 14.3 10.4-8.3-9.5 21.9 10 15.8 30.2.8 60.3 5 90.5 3.9 19.9 3.8 13.4-20.2 14.5-31.6M744.2 768.9c21.8 15 39.7 34.7 60.5 51 11.6 9.6 21.8 21 34 29.6 9.8-10-17.7-23.6-25.9-33.7a3437 3437 0 0 1-66.7-60c-9.3-8.4-12.8 8-18.4 13.7q-44.6 70.9-90.2 141c-10 11.2 14.3 8.6 15.4-1l88.7-137.6zm1228.6 297.4c-17 4-49.6-8.6-56.6 4.2 11 18.7 8.2 32.5-.2 51.7-3.6 8.5 14.6 10.6 0 11.4 0 6.4 21.8-2 31.4-1.8 25.8.9 19.2-31.3 25.7-49-1-4.7 6.4-14.6-.3-16.5M1356 997c15.4-2.6 38.6 5 49-2.3.5-21.7.1-43.4-2.9-65-14.7 1.5-36.5-5.7-46.8 3.9-2.7 11.3 1 23.3 0 35 0 9.5-.4 19 .7 28.4m524.9 150.2q-4 24.3-7 48.7a276 276 0 0 0 66.2 34.3c-1-15.3 12.5-36.2-1.5-47.3q-28.9-18-57.7-35.7m-1031-146.3c-8.3 24.9 22 28.4 38.5 19.6 7.5-.8 15.2.7 22.6-3.5 15.7-.1 32.8 2.8 49.1 3.5 16-.2 48.2.3 25.7 21.5-5.4 12.8 14.3-13 18.3-17.8 7.7-9.4 20.7-26-.8-21.1-18.9-2-37.7.4-56.6-1.8-16.8-.2-33.3-1.1-50 0-15.7-1.4-31.2-.8-46.8-.4m421-275.4c-2.6 23-15.5 47.5-12.3 69.6q19.6 24.2 40 47.7 5.5-22.5 8.6-45.3c-4.2-19.6-17.7-36-25.3-54.5-3.7-5.7-5.1-13.6-11-17.6m1030.7 299.8a136 136 0 0 0-18.2 57.2c75 36.6 149.8 73.7 224.9 110.2 16.4-1.1.6-15.2-9.1-17-68.2-32.3-135.8-65.6-204.1-97.6-10.4-4-.1-15.3.3-23 2.3-10 8-19.4 6.2-29.8m-817.5-107c.1-14 9-44-14-39-18.1.9-35.9-2.5-54-1.9-9.2 6.6-5.3 33 2.2 39.6 22-.5 43.9 2.3 65.8 1.3m207-199.5-37.8 72.3 12.8 35.5c15.8-16.4 28.7-35.5 42.9-53.4-1.4-12.9-8.2-24.8-11.8-37.3zm-357.8 870.5c7.6 5.6 20 27.6 26.6 19.4-8.6-13.6.7-10.6 4.4-.4 5.3 4.2 4-24.3 7.5-32.4 1.6-13.8 7-28.2 5.6-41.7-3.6-9.1-17.3-12.1-22.8-16.2-5 14.3-12.6 35.9-12.6 48-7.5.5-4.5 11.8-7.3 17.1zm162.9-671.1c15.1 1.5 31 1.3 46 1.3 14.2 5.8 16.4-3.8 15-15.3-1.1-7.4 4.4-20.2-4.4-22.6-18-.7-36.2.7-54-1.8-11.5 6.9-2.5 27.4-2.6 38.4m495.8 302.7c4.2-13.6 17.2-40.6 8.7-48.4l-48.9 14.2c-.5 16.2-5.4 32-7.2 47.8 16.1 3.7 32.3-8.1 47.4-13.6m132.8 1093c-8.2-28.7-20.2-56.5-30-84.8-9.8-25.6-17.9-52-29-77-13.6 8-3.3 20.5-.7 31l50.7 142.3c4.3-2.7 6.4-7.5 9-11.5m-443-343.3c9.5 3.6 27.2 1 13.6 13.4 5.4 14.6 32 22.9 45.6 34.4-.2 7.6-19.6-6.4-9.8 6.7 9.1 11.9 26.8 19.4 19-.2-4.2-22-6.2-44.3-12-66-7.8.5-10.6 11.9-23 9.2-11 1.8-22.2 3.2-33.4 2.5m695-870.4c-14.3-9.2-41.3-13.2-47-27.4 2.5-8.6 13-43.6 1.7-21.3-4.1 10-4.3 37.5-22.6 15.7-2.5-7.9 14.8-38.5 2.6-32.2-3.3 15.1-17 37.3 5.2 41.9q101 49.9 202.8 97.8c4.5-8.6-6.6-9.4-11.9-13.2-5.7-5.4-6.6-5.3-14.1-6.4l-42.2-20c-.4-11.4 11.2-33.4 6.4-37-4.2 10.7-7.2 22-11.5 32.7-13-1.6-26.3-12-39.4-16.5-15-4.9-31.7-13-18.8-30.6 5.7-8 3.8-28.6-2.8-9.2-3 8.5-5.2 17.3-8.4 25.7m66.1 24.4c5.8-6.6 6.3-17 9.9-25.1-.3-15.6-31.8-16.6-44-26.2-14.2-13.3-27.6 28.8-11.4 31.6zM1402.4 878.8c-16.7-1.8-36-5-52.2-.7 3 11.5-1.6 29.7 7.5 37 12.8 2.6 26.5 2 39.6 1.9 11.2-2.8 4.3-28.4 5.1-38.2M2232.1 995c-5.5 17.6-12.8 34.7-17 52.7 12.4 7.8 36 26.2 37.2.5.5-13.4 21-38.8 1-43.7zm-884.3 9.8c3.2-23.6-1.8-47.2-.7-70.9.5-13-2.6-25.9 0-38.8-1.6-13.7-5.6 11.5-16.2 6-8.7 16.7.3 40.3-1.5 59.6 3 15-9 51.5 18.4 44m315.2-173c-3.5-9.1-10.1-45-18-24.2-11 21.7-23.1 42.8-34 64.5-5.2 13.8-1.5 35 9 15.6zm-692.1 71.9c-14.2-1.6-41.5-5.2-31.3 16.8 5.7 12.5-.5 32.3 11.7 40.3 8.8-4.1 27.3 7.3 27.6-6.5zM2556.6 1140c-17-17.9-24.7 4.4-27.4 20-5.5 20.5-14.4 40.3-18.7 60.8 21.5 17.1 21.4-18 29-31 5.5-16.7 12.9-32.8 17-49.8m-846-130.3c-3.1 19.3-18 64.7 25.1 45 15.6-4 11.4-32.6 10.3-43.4-11.2-3.6-23.7-2-35.3-1.6m836.4 370c-13.5 24.7-23.4 51.2-36 76.4-3.4 5.6-9 17.7 2.5 12.6 6.3-2 15.4-.6 16.5-9.1l32.3-70.9c-4.4-4-9.5-7.4-15.3-9M1302 847.6a1126 1126 0 0 1 33.8 40.9c7.8 1.6 15-19.4 6.6-27.4-9.8-18.6-18.4-38-29.1-56-8 7.5-6 29.8-11.2 42.6m-79.8 245.1c1.5-11.5 18.1-32.9-11.6-25.5-16-1-35.6 2.8-49.3-5.5 3 7.6-20.5 30.6 1.3 27.5 20.2-.8 39.6 5.4 59.7 3.5M2594 1474.4c-2.6-11.5 6.8-21.4 10.4-32 3.4-8.2 9-16.3 9.9-25.3-16-6-17.1 26-26.2 36.9 0 18.8-32.8 5.3-24.4-6.5 6.7-15 15.7-29.5 21.4-44.6-4.5 0-7.2 11.7-11 16.5q-10.1 18.4-20.5 36.8c-10.5-3 3.2 6.1 7 7.4l50.9 29.2c11.6-18.4 20.4-39.3 29.1-59.3-5-7.8-9.2 11.9-12.7 16.9-5.2 10.3-8.8 21.7-15.2 31.2-6.7 3.6-12.8-5.5-18.7-7.2m-1153 295c23.5 4.6 47.5-19 60.1-34.3-20.2 2.4-46-8.7-62.2-3.1 1.2 12.4-.7 25.2 2.1 37.4m-668-865c.9 11.5-3 36.5 12 36.9 11.9-.6 24.1 1.3 35.7-1.1-2.2-17.6-3.7-43.8-28-36.8q-10 0-19.7 1m1695.3 195c-2.2 11.5-20.6 33.6-1.5 37.1 11 4.5 21.6 10.7 33.3 13.6 3.4-10.5 7.6-20.8 10.2-31.5zm-1480-138.5c12.2.6 32.6 6.7 25-11.8l-6.5-44.6c-11.6-5.3-35.2-3.2-25.7 15.1q4 20.6 7.2 41.3m-32.1 215c-25.4 43.4-47.7 88.7-72.2 132.7-16.2 29-30.9 58.8-48 87.2-15.5 13-42.6-.2-60.9 7.3 6.1 4.8 27.4 3.2 40.4 3.6 9.5-.7 22.6 3.5 25.5-8.6 27.8-50.7 54.5-102 82.2-152.7 11-22.8 25.4-44 35.4-67.3zm491.2-167.5c17.1-1.6 34.4 2.8 51.6-.6 22.4 1 50.8 8.5 69.8-.5 1.2-22.6 2.8-45.1 2.6-67.8 3.1-17.2 1.2-34.7 1.8-52-3-2.7-1.3 24.6-2.5 34.3-2.8 21.7-.2 43.6-3.4 65.2 4.1 14.8-4.7 20.6-17.7 17.7-26.4-.4-52.8-2.3-79.2-1.4-25.2-2.6-50.6-1.8-76.1-2.2-11.5 2.9-32.9-7.9-38.1 3 16.2.7 32.3 3 48.5 3 14.3.2 28.6-.6 42.7 1.3m1087.2 558.2c2.7-5.4 7-21.6 13.2-11.2 8.6 13.6 17-21.4 1.9-20.6-10.5-8.7-26.8-25.6-32.2-5.4-5.7 8-6.2 18.3-9 27.5 5.4 5.5 19 17.6 26.1 9.7M771.2 896.2c15.8-2 51.2 9.4 37.1-18 1.7-19.2-12.2-23.8-28-20.9-25-5-8.3 25.8-9 39m1603 197c4.2-9 18.2-30.5 2-34.2-11.1-3.9-21-11.3-32.6-13-7.5 15.8-14.4 35.1 8.5 37.9 7.2 3.4 14.3 7 22 9.2M643 1375.7c6.9 7 2.7 31.8 7.2 30 15.2-21.6 31.7-42.5 46.2-64.6 1.3-22.6-24.3-8.8-26.3 5.8-7.8 11.1-15 21.5-27.1 28.8m1057.4-367.2c-8.6.5-24.9-5.5-30.6-.2-.8 15-15.6 48.8 9.4 44.3 18.1 7.5 18.4-6.3 18.8-17.9zM2100.6 2177c25 5.6 51 1.7 76.4 3.6 20.2.7 40.7 2.5 61 .8 2.5-17.7-25.5-8.4-36.2-11-34.7.4-69.4-1.2-104 .6zM728.8 894.8c12.6.6 40.4 9 31.6-13.3 1-16.6-6.5-27.2-24.1-22.2-25.8-6.1-8 23-7.5 35.5m1032 117c-1.7 12.5-12.7 42.6 5.4 41.3 24.2 8.1 29-28.7 18.8-41.3q-12.1-1.3-24.2 0M1008.6 875c5.5 33.8 9 68 14.5 101.8-2.9 7.8-14.4 2.8-21.3 4.3-30.7 0-61.7.6-92.2-1.3 7.4 6.6 28.1 2 40.8 3.2 21.6.8 43.4-.6 64.6 4 5.3-2 19.9 4.8 18-4.6-6-36.2-12.3-72.4-18-108.8-2.3-8.8-3.6-.8-6.4 1.4M861.5 756.8c-13.2 19.4-28.4 37.4-40.6 57.4 3.9 7.6 29.3 35.4 26.3 8.4-12.3 13.6-7.2-3.7 2-9.6 6.8-17.1 10-37.4 12.3-56.2m-131.3 148c4.4 14-1.7 43.8 22.1 36.3 16.4 5 16-7.6 13.3-18.7 2.4-26.3-17.5-18.8-35.4-17.6m40.6 377.3a918 918 0 0 0 53.6-79.1c-2-9.3-7.2-11-11.2-1.7l-48.4 65.9zm167.6-323.4c-6.2-16.9 1.1-47.4-15.4-55.4-26.7-5-5.4 30.1-6.5 45-1 15.5 11.8 10.2 22 10.4m1589.1 1322.7c-12.1-24.8-26.2-48.7-39.3-72.9-3.1 9.5-23.1-6.8-11.3 8.9 17 19.2 20.8 66 50.6 64m-996.4-574.2c-4.4 6.6-7 15.4-12.5 20.7-8.1 4.3 18.8-.5 24.9-.1 11.8-2.4 24.5-2 35.6-7.2-4.8-7.3-.4-23-13.4-18zm-213.6-681c10.8-17.3 7.4-37.9 7.4-57-2.9-24.4.2-49.1-4.5-73.3-6.9-12.2-11.8-9.3-7.6 3.7.6 18.5.3 37 2.4 55.4-.2 21.5 3 42.8 2.3 64.3zM2587 1559.6c5.5-13.4 15 3.2 18.2-13.6 7-14.4 2.3-12.1-3-1-14.8 6 18-34.8-2.3-18.1-13.3 14-39.7 4-39 29.8-6.8 9.2-4.2 26.2 8.8 12.8 5.5-3.7 10.7-8.2 17.3-9.9M869 1068.8c-15.5 12.6-24.8 32.3-34.3 49.8-8 13-31.8 47.1-27.4 52.7 30.7-45.2 60.2-91.3 91-136.5-4.1-5.1-18.8 12.5-22.7 21.7zm-303 404.8c5.8 25-16.3 41-26 61.6-10 15-6.8 19 2 4.7a150 150 0 0 0 29.4-52.3c19.8-20.9 28-49 43.9-72.6l5.6-15.3c-21.2 13-18.3 42.7-38.2 57.1zm2074.2-311.4c27.2-7.3 52.1-21 78-31.8 3.6-5.8 9-11 11.5-17.1-18.5 4.6-36.3 19.3-56.4 23.5-8.4 8-38.5 8.7-33.1 25.4m-1434.4-135.5c3-18 7-49.7-20.2-41.4-14.9 2 1.5 27-1.4 35.8 10 2.9 8.9 4.3-.5 4.7 4.9 2.3 13.8.3 20.3 1h1zm-517.4 525.7 83-143.8c-10.7-8-15.7 23.1-24 29.7-19.8 34.5-41 68.4-60.8 103-1.6 3.7-.5 8 1.8 11.1m1569.1-460.2a533 533 0 0 0 20.3-76.1c-17.2-9.6-15.6 25.9-22.8 36.6 0 11.6-17 31-2.3 36.8zM891 875.5c30.2-2.3 60.6 4 90.7.7-1.8-5.4-13.2-2-19-3.6-26.6-1.4-53.8-1-80-1.7-.5 20.4 7 41.5 9 62.3-1.3 8.4 9.7 36 10.4 16.4-2.6-24.6-14-49.7-11.1-74.1m-673.9 1155c-10.2-3-13.2-2.5-14.4 9-10.8 10.6 24.2-5.8 32.1-11.5 12.6-1.6 10.1-23.6 5.2-25-12 5.2-35 2.4-37.8 15 3.3 8.9 24.5 1.6 14.9 12.5M916.8 961c-7-26.2-9.5-53.4-15.8-79.8-3.6 9 4.3 31 5.5 45 6 14.8-.9 44.6 22 42.9 19.4-.4 38.9-.3 58.1 1.9 10.2-.6 20.6 1.2 30.5-1.3-1-7.9-11.9-3.3-17.6-5.1-20.7-2.6-41.7.1-62.2-3.3zm-61.5-81.2q6 37 11 74.3c19.5 6.1 3.4-26.3 5.8-36.2-4.5-13.4 1.1-32.6-10.2-42.3-3.5-7-24.4-8.6-12.4-.7zm855.2 117c11.6.4 23.4-.2 34.8 2 13.1-8.6 4.7-30.7-12.6-24.1-20.6-6.7-26.2 4-22.2 22m763 557.4c8.9.4 19.8 1.4 28.4-3.3 5.8-7.4 5.4-18.3 11.8-26.2 11.1-13-13.6-6.8-19.6-3.5-13 6.6-10.8 23-20.6 33M1822.3 1016c-13.1-8-28-1.7-24.4 15-8 15.8 8.5 31.5 20.5 19.6zm-257.8 682.1c-1.6-11.1 10.7-45.4-9.4-36.5-10.4 11-14.6 26.5-20.5 40.1 9.6.4 21-.1 29.9-3.6m1046.3-221.6c6.8-15.6 23-37.3 19.9-51.5-17-9.4-19.4 24.3-28 35-7.9 12 .3 10.5 8 16.5m-438-161.5c13-4.9 11.7-32.5 19-46 5.8-20.4 13.3-40.3 17.8-61-14.3-5.2-11.3 25-17.8 35.1q-10.2 35.8-19 71.9m-871.2 198.6c0 6.7 9.4 25.6 12.6 12.5 5.1-14.5 10.3-29.2 12.8-44.4-1-13.7-18.7-18.4-10.8-5-3.5 9.8-6.5 25.2-13.5 33.5zm812.5-176.5c13.6 18 38.9 2.4 34.2-13.7-12 4.8-33.5-22.9-32.2-1.3zm169.7-319.2c-7.5 24-14.9 48.5-20.3 72.8 14.8-5.5 17.5-25.2 21.9-39.3 2.2-9.8 6.8-19.2 7-29.3zM210.4 1967.1c-3.1 19 10.6 49 31.9 28.8 4.9-4.5-14.2-10 1.9-8 1.2-4.2-17.8-11-23.6-17.9a36 36 0 0 0-10.2-2.9m2371.2-508.7c6.2-15.8 21.6-35.6 19.8-50-17.5-6.3-19.2 26.6-29.2 37.5-3.2 5.6-6.6 14.9 9.4 12.5m-568.7-291c-3.8 16-8.3 32-11.8 48 10.5-4.9 10.5-29.6 15-43.6 4.7-21.1 8.7-43.1 14.8-63.5-12.3-7.7-10.4 11.8-13.2 19.3-2 12.2-6.4 24.2-6 36.6zm-340.4-173c12 2.1 35.2 7.7 30.6-11.8 2.7-11-8-9-15.4-10-14.2-6-19.5 10.2-15.2 21.8m90.7-18.6c-3.8 6.8-1 15.3-1.9 22.9 16.8 1.6 36 6.1 31.3-17.8-3-6.1-14.3-3-20.7-5.1-3-.3-5.8-.9-8.7 0M794.3 1770c13.8 8 24 36.3 36.9 36.8 4.1-8.7 11.5-13.4-2-19-5-4.4-13-6.8-16.2-12.6 16.2-2.8-13.4-8.8-16-17.6a13 13 0 0 0-2.7 12.4m438.1-741.9c-.7-14 7.7-51.4-16.3-43.2.2 16.2-7 45.1 16.3 43.2m1081.2 1190.7c3.8-7.6 9.6-38.2-1.2-17.8-2.4 16.2-27.5 41.4 3.1 45 6.1-7.5 8-17.6 12.4-26.2 0-6-10.9 4.6-14.3-1M834.6 906.3c-.1 14.3-.1 43.4 22 33.3-.8-15 1.4-41-22-33.3m399.8 133.1a314 314 0 0 0-55.9-4.2c-13.5-5.3-21 14.3 1.9 9.9 18-.6 36.4 1.1 54.2 3.4 4.2-1.3-1.5-6.7-.2-9.1m326.8-155.3c-.3 38.5 1 77.2-1.3 115.4 8.2 4.8 4.2-14.4 5.2-20.6-.5-13.8.8-27.5 2-41.2.4-16.6-1.2-33.4 2-49.7-.5-5.5-4-4.3-7.8-3.9m-542.9 94.4c-14-12.1-41.7-.9-61-6.6-14.2 1.1-35-5.8-45.2 3.9 18.2 3.4 37.2.3 55.5 3.2 17-.2 33.9.7 50.7-.5m668 708.9c-14 7.6-31.5 11.7-42.7 21.9 9.9 3.8 26-.7 37.8 2.2 10.6 4 26.9-9.5 4.8-24.1M890.7 955.6c-5.2-22.6-5-49-14.8-69-7.4-7-1.1 9-2 13l6.5 56a13 13 0 0 0 10.3 0m-58.5-57.2c15.2 8.6 24.3-3 16.3-17.3-7.8-4.6-27.5-27.6-21.7-6 2.5 7.7 1.8 16.1 5.3 23.3m1891.4 613c12.5 6.5 46-12.4 28.5-20.7-8.8-9.2-19.6-4-21.7 6zm-202-387.2c-3.1 9.3-21.2 32-4.9 36 12.1 5.7 17-25.9 14.1-32.8-2.8-1.7-6-2.4-9.1-3.2M717.3 937.9c.5-13.8-6-42.2-22.5-29 1.7 13.2 2.7 36 22.5 29m420.1 147.4c14.5-8.2 22.5-37.7 10.4-43-14.3 11.9-17.6 25.4-10.4 43m687-84.8c5.9-15-.2-28.6-18.2-22.6-6 5.5-8.5 30.3 9.5 23.2q4.4-.2 8.7-.6m136.8 52.7a555 555 0 0 1-52.7-5.1c-10 3.6 4.3 11.5 10.5 9.4-3.6 1.7-13.5 4.5-1.6 4.1 13.6-.2 27.3-3.5 40.6.6.5-3.2 2-6.1 3.2-9M936.3 893.6c10 1.7 42.2 6.7 29.5-11.7-10.5-.1-42-10.9-29.5 11.7m-607.2 949c9.8-7.5 34-22.4 13.7-30.6-13.1-6.5-21.8 20-13.7 30.5zm1085-915.4c19.7.4 39.6-1.5 59 2 13.6 3.6 15.2-10.8 1.6-8-19.4.8-39-1-58.3-1.5-4 .3-1.6 5-2.2 7.5m-209.3 49.4c5.6-17-6.2-22.4-21.6-20-14.6-3.5-4.8 22 8.6 17.8zm108.3 464.6a175 175 0 0 0-17.2 61.2c6.7 9 10.1-22.9 15.2-31.9 2-9.5 11-21 2-29.3m1256-49.5a754 754 0 0 0-36.2 73.3c3.4 11.2 6.3-3.8 9.3-7.8q14.6-30.4 29.8-60.3c2.4-3-1.5-3.7-2.9-5.2m-1396.6-367.3c-.4-13.5 6-40.7-11.3-42.7-3.7 3.5 2.4 19 1.7 28.8 1.3 6.2-1.8 18.2 9.6 13.9M1752 2046c-4.1 6.5-12.4 13.8-7.2 21.7 5 8.1 1.4 20.2 15.5 22.6-2.3-14.8-2.3-30.4-8.3-44.3M1556.2 924c-19.9-.5-39.8-3-59.6-2.2-7.8 13 30.6 5 40.4 7.1 4.9-1.9 21.3 4.4 19.2-4.9m208.2 1395.6c13.4 2.6 35.5-.3 26.9-18 .7-16.5-14.9-21.9-25.5 14.1l-.8 1.6zm799-1177.2c-5.7 8.6-7.7 20-11.9 29.6l-16.6 46c15.2-8.8 14.4-28.3 20.7-42.9 3.3-10.5 7.3-20.8 10-31.5zm-399 179.5c6.2-19.2 16.5-53 16.6-64.6-5.8 16.8-17.3 31.7-20 49.4-.4 5.5-.5 11 3.5 15.2M690.3 890.6c-1.9 14.8 29.9 11.5 18.6-4.5-.7-12.5-9-31.3-18.6 4.5M1773 2125.8c10.5-2.7 31.8-16.3 11.4-18.5-9.5-4.4-21.1-8.9-15 6.9a28 28 0 0 0 3.6 11.6m-388.1-342.6 25.3-2.4 24.9-5.3c-13.1 1.7-54.6-13.5-50.2 7.7m17.5-863c-14 .7-41.4-5.8-47.6 4 14 2.8 37 6.8 47.6-.7zm920.5 148c5.9-8.5 13.6-40.1-2-28.5-.7 9.2-16.4 28.6 2 28.5M1423.6 1334c6.5-11-6-1.6-11.5-4.6-11 1.8-51.8 15-19.1 11.5 12.3 9.8 18.1-8.3 30.6-6.9m-500-454.3c-11.2-2-23.8-1-17 12.5 5.5 6.4 33 2.8 17-12.5M512 1585.3c-17.7 11.7-26 35.5-40.3 51.8-6.5 12.4 7.7-3.5 12-6.4 6.3-4.1 10.2-8.7 8.9-16 5.6-10.4 12.7-19.8 19.4-29.4m898.2-654.8c-5.2 4.6-1.8 16-2.7 23.8.8 14.2-2.1 29.3 2.4 42.8 8.1-9-.2-33 1.4-48.3-.3-6.1.8-12.4-1-18.3M1093.8 959c4.8 11.1.3 32.3 10.3 37.3 5.5-6.2 3.9-31.2-6-35.8zm1030 292.2-10.4 36.3c9.1 8 17-4.7 13.1-13.8-.7-7.5-2.7-14.9-2.8-22.5M1229.1 1063a223 223 0 0 0-62.7-3c18.7 5.6 43.2 6.7 62.7 3M779.2 954c13.9 2 28 .2 42 .6 3-10.2-20.1-3.8-28.2-5.4-4.5 1.5-18.6-3.9-13.9 4.3zm303.4 5.3c-1.7 11.5 2.6 23.3 3.5 34.9 9.1 16 8.9-32.6-3.5-34.9m674.8 1177.8c11 9.7 8.6 28.3 9.2 36 14.7-4-.3-25.3 1-35.5-2.4-5.4-6.6-1.3-10.2-.5M739.4 953.8c7.3 3.3 42.2 1.3 22.8-6.4-5.2 1.9-29.1-5-22.7 6.4m970.6 49.8c9.1.2 39.2 9.8 36.4-2-10 2.8-32.8-7-36.4 2m80.4 1c-7.8-3.7-43-3.7-23.1 4 6.2-.7 21 3.8 23-4m919 480.8c-9-14.4-23.3-7.7-15.7 6.5 6 .3 11.1-3.3 15.7-6.6m-1607.7-478.8c-1.6 9 8.9 35.7 10.2 15.4-.5-6.5-.1-20.3-10.2-15.4M879 1958.9c-7.2-6.7-33.6-11.2-15.5 2.5 6.3 9.7 9.6 4.9 15.5-2.5M1165.7 955c-10 8.7-8.8 32.5 4.8 17.9-2.1-5.8 1-14.2-4.8-17.8m-77.6 48.2 2.8 24c-4.7 9.2 13.5-3.3 5.8-11-1.7-6.6-.3-12.6-8.6-13M186.3 2025.6c.7 10 10.8 21.6 13.2 4.9-2-8-8-12.7-13.2-4.9M2693.6 1497c-4.5-7.1-8.2-26.6-7.1-7.2-6.2 12.3 10.9 18.5 14.6 6.6 12.5-6.3 8.4-7.9-.8-2.4zm-942-444.4c1.8-10.5 7.1-37 0-38-.2 12.2-6 27.1 0 38m-751.5-160c-11.3 3.3-18.2-4.9-22-10.4-15.6 16.5 37.4 19.5 23.6 3.4zM1619 1760l-20.7-18.4c1.7 14.1 5.8 23.3 20.7 18.4m182.5-755.8c-3 11.1 25 10.3 20.5 0v-.2zm-131.8-1.7c8.5-1.1 29.1 9.1 30.4-2.5-8.5 2.2-27.5-7-30.4 2.5m121.7 48.7c2.8-9.4 8.1-32.4 2.2-36.3a74 74 0 0 0-2.2 36.3m991.5 481.7c4-7.7 19-24.2 2.6-24.8a81 81 0 0 0-2.6 24.8m-227-89.7c8.3-13.4 21-30.4 23.2-45.6-9.1 13.8-15.6 29-23.3 43.7zm-1148-527.8c1-9.8 4.2-34.7-2.2-34.7.4 11-2.9 25 2.2 34.7m-689.6 38.2c1.2-22.1-28 2.1-3.8 0zm139.3-5.3c-12-7.8-25.1 8-6.6 7.5 6 0 10.3-1.6 6.6-7.5m969.3 67.1c-1.7 12.4-6.2 26.9-4 39 2.7-11.9 8.8-27.3 4-39M1490.4 997q1.8-31.7 0-63.4c-1.6 20.3-1.6 43 0 63.4M199.6 1996.6c-11.7 12.3 7.1 17.2 10.6 7.1zm1035.2-452.1c-2-8-9.3-29.1-7.2-.2l3.1 13.9c.6-5 .2-10 4.1-13.7m537.5 712.8c10 14.4 18.7-8.9 8.4-8.7zM820.7 944.5c-12.5-1.4-30.1-2.6-40.3.5 13.2-1.4 29 5.6 40.3-.5m1386 823c9-.7 40.7-15.5 17-10.4q-9.5 3.8-17 10.4m-503.2-758c2.7 12.4-9 37.9-.8 42.9-.6-14.3 4.1-28.8.8-42.9M910 2115.8c-6.5-9.5-28.7-11-11.1 0 3.9 2.5 7.4 2.8 11.1 0M772 940.3c.2-8.8.8-32.8-6.1-34.2 1 10.8 3 21.6 4.2 32.5zm717.8-59.2c-4.8 5.3-.5 14.7-1.2 21.8-.2 8.3 2.2 20.8 2.5 4.9.3-8.9.6-18-1.3-26.7m345.2 98.3c-10-2.1-8.4 25.8-2.7 19.6zm483.6 104.7c9.2 5 29.9 17.8 33 14.6-10.8-4.7-21.7-13-33-14.6M876 881.4c6.7-16.2-24-12.5-5.5-4zM762.4 859c-.2 9.2-.6 33.9 5 32.8-1-11-3.6-21.8-5-32.8m1033.7 119.2-.2 21.8c3.9-5.4 5.8-17.5 2.2-22l-1.2.2zm-810.8-19.5-6.2-35.5a58 58 0 0 0 6.2 35.5m-143.7 968.9c19.3-1 .2-13.7-2.5-5zM792 1752.3c-4.8-5.4-15.9-16.2-8.3-1.6 3.6 4.5 5 11.6 8.3 1.6m964.2-777.2c-.6 6-6.5 22.2 0 21.5-.4-7 5-15.8 0-21.6m-348.5 810c10.5 6 36.5-7.8 14.4-2.7zM774.1 900.4c9.2 1.3 36.2 1.5 33.5-.6-11.1-.6-22.4-.8-33.5.6m193.2-1c-2.2-4.5-13.2-.7-19-2-15-1.8-8 6 4 1.9 5 0 10 1 15 .1m1743 605.7c12.4-16.4-22.6-5.4 0 0M2237 2140.8c8.7 6.2 28.3-6 10.7-2.3zm119.4-61.5c-6.5-7-24 1.7-8 3a25 25 0 0 0 8-3m17-969.9c.3 4.5 11.6 6.2 16.2 9.6 12.3 3.8-2.7-4.2-7.8-6.2-2.8-1.2-5.4-3.2-8.5-3.4m-801 572.3c-8.4 15.3 6.5 16.5 0 .6l-.2-.6zm565.8-471.6c-9.3 6.2-10.3 35.5-4 12.4q2.5-6 4-12.4m-1213.8-65.3c-9.1 6.3-14 25.9-3.1 8.3q2-4 3.1-8.3m665.6 575.1c8.3-.9 26.7-6.7 8.5-5.4-4.5.3-10.1-.7-8.5 5.4m1084.6-233.1c16 18 8.1-15.7 0 0m-1100-422c-7.8 9.5 2 27 .8 8.7zm-584.4-183c-6.4 8.5 5.7 9.3 7.5 1.4 3.5-3-6.2-.8-7.5-1.5m-79.5 18.8c7 .5 25.9-1.4 8.1-3.4-2.5.7-13.9-2-8.1 3.4m169.2 56.2h21.4c-5.9-5.6-31 1-23.7 3zm-320-56.6c-10.5-3.3-41.4 2-16.7 1 5.5-.5 11.5 1 16.7-1m1017.9 1316.7c-8.3 18.4 10.5 14.3 0 0m350.2-904.4c11.7-3.7-21.6-17.2-3.4-3.1l1.7 1.5zM1662.8 1086c10.8 3 39.3-1.8 15.3-.8-5 .3-10.4-.8-15.3.9m1153.6 405c-10.5-2.2-13 22.2-4 5.3zm-1650.7-435.6c7 3.4 37.2 0 15.4-.1q-7.7-.2-15.4.1M740 943.3c3 4.2 13.3.6 19.2 1.8 15.5-.9-3.5-2.4-11-1.8zm1398.2 373c10.5 4.1 24.6-8.2 8.3-1.7-2.8-.2-6.3-1-8.3 1.7M1003 899.1c-3.4-4.1-13.4-.6-19.4-1.8-12.8 2.3 9.5 2 15.4 1.8zm611 115.9c2-4.5.6-12.2 1.1-18-3.6-7.5-1.2 11-1.9 15.5z"/></svg>