<svg width="220" height="40" viewBox="0 0 220 40" fill="none" xmlns="http://www.w3.org/2000/svg">
<circle cx="20" cy="20" r="20" fill="#8E8E8E"/>
<path d="M22.3984 11.9023V29H19.0234V15.793L14.9688 17.082V14.4219L22.0352 11.9023H22.3984Z" fill="black"/>
<circle cx="110" cy="20" r="20" fill="#8E8E8E"/>
<path d="M115.844 26.3633V29H104.172V26.75L109.691 20.832C110.246 20.2148 110.684 19.6719 111.004 19.2031C111.324 18.7266 111.555 18.3008 111.695 17.9258C111.844 17.543 111.918 17.1797 111.918 16.8359C111.918 16.3203 111.832 15.8789 111.66 15.5117C111.488 15.1367 111.234 14.8477 110.898 14.6445C110.57 14.4414 110.164 14.3398 109.68 14.3398C109.164 14.3398 108.719 14.4648 108.344 14.7148C107.977 14.9648 107.695 15.3125 107.5 15.7578C107.312 16.2031 107.219 16.707 107.219 17.2695H103.832C103.832 16.2539 104.074 15.3242 104.559 14.4805C105.043 13.6289 105.727 12.9531 106.609 12.4531C107.492 11.9453 108.539 11.6914 109.75 11.6914C110.945 11.6914 111.953 11.8867 112.773 12.2773C113.602 12.6602 114.227 13.2148 114.648 13.9414C115.078 14.6602 115.293 15.5195 115.293 16.5195C115.293 17.082 115.203 17.6328 115.023 18.1719C114.844 18.7031 114.586 19.2344 114.25 19.7656C113.922 20.2891 113.523 20.8203 113.055 21.3594C112.586 21.8984 112.066 22.457 111.496 23.0352L108.531 26.3633H115.844Z" fill="black"/>
<circle cx="200" cy="20" r="20" fill="#8E8E8E"/>
<path d="M197.629 19.0039H199.434C200.012 19.0039 200.488 18.9062 200.863 18.7109C201.238 18.5078 201.516 18.2266 201.695 17.8672C201.883 17.5 201.977 17.0742 201.977 16.5898C201.977 16.1523 201.891 15.7656 201.719 15.4297C201.555 15.0859 201.301 14.8203 200.957 14.6328C200.613 14.4375 200.18 14.3398 199.656 14.3398C199.242 14.3398 198.859 14.4219 198.508 14.5859C198.156 14.75 197.875 14.9805 197.664 15.2773C197.453 15.5742 197.348 15.9336 197.348 16.3555H193.961C193.961 15.418 194.211 14.6016 194.711 13.9062C195.219 13.2109 195.898 12.668 196.75 12.2773C197.602 11.8867 198.539 11.6914 199.562 11.6914C200.719 11.6914 201.73 11.8789 202.598 12.2539C203.465 12.6211 204.141 13.1641 204.625 13.8828C205.109 14.6016 205.352 15.4922 205.352 16.5547C205.352 17.0938 205.227 17.6172 204.977 18.125C204.727 18.625 204.367 19.0781 203.898 19.4844C203.438 19.8828 202.875 20.2031 202.211 20.4453C201.547 20.6797 200.801 20.7969 199.973 20.7969H197.629V19.0039ZM197.629 21.5703V19.8242H199.973C200.902 19.8242 201.719 19.9297 202.422 20.1406C203.125 20.3516 203.715 20.6562 204.191 21.0547C204.668 21.4453 205.027 21.9102 205.27 22.4492C205.512 22.9805 205.633 23.5703 205.633 24.2188C205.633 25.0156 205.48 25.7266 205.176 26.3516C204.871 26.9688 204.441 27.4922 203.887 27.9219C203.34 28.3516 202.699 28.6797 201.965 28.9062C201.23 29.125 200.43 29.2344 199.562 29.2344C198.844 29.2344 198.137 29.1367 197.441 28.9414C196.754 28.7383 196.129 28.4375 195.566 28.0391C195.012 27.6328 194.566 27.125 194.23 26.5156C193.902 25.8984 193.738 25.168 193.738 24.3242H197.125C197.125 24.7617 197.234 25.1523 197.453 25.4961C197.672 25.8398 197.973 26.1094 198.355 26.3047C198.746 26.5 199.18 26.5977 199.656 26.5977C200.195 26.5977 200.656 26.5 201.039 26.3047C201.43 26.1016 201.727 25.8203 201.93 25.4609C202.141 25.0938 202.246 24.668 202.246 24.1836C202.246 23.5586 202.133 23.0586 201.906 22.6836C201.68 22.3008 201.355 22.0195 200.934 21.8398C200.512 21.6602 200.012 21.5703 199.434 21.5703H197.629Z" fill="black"/>
<line x1="40" y1="19.5" x2="90" y2="19.5" stroke="#ED1C24"/>
<line x1="130" y1="19.5" x2="180" y2="19.5" stroke="white"/>
</svg>
