<svg viewBox="44 0 135.916 103.031" xmlns="http://www.w3.org/2000/svg" xmlns:qt="https://quad.tech/svg"><defs><linearGradient x1="0" y1="0" x2="1" y2="0" gradientUnits="userSpaceOnUse" gradientTransform="matrix(10.8504 .59875 .59875 -10.8504 938.81 2153.64)" spreadMethod="pad" id="b"><stop offset="0" stop-color="#909393"/><stop offset=".09" stop-color="#909393"/><stop offset=".487" stop-color="#bfc0be"/><stop offset=".705" stop-color="#e3e4e1"/><stop offset=".843" stop-color="#e9e9e6"/><stop offset=".984" stop-color="#d9dad7"/><stop offset=".991" stop-color="#e5e5e3"/><stop offset="1" stop-color="#e5e5e3"/></linearGradient><linearGradient x1="0" y1="0" x2="1" y2="0" gradientUnits="userSpaceOnUse" gradientTransform="matrix(26.5775 1.46662 1.46662 -26.5775 928.588 2195.91)" spreadMethod="pad" id="d"><stop offset="0" stop-color="#909393"/><stop offset=".09" stop-color="#909393"/><stop offset=".487" stop-color="#bfc0be"/><stop offset=".705" stop-color="#e3e4e1"/><stop offset=".843" stop-color="#e9e9e6"/><stop offset=".984" stop-color="#d9dad7"/><stop offset=".991" stop-color="#e5e5e3"/><stop offset="1" stop-color="#e5e5e3"/></linearGradient><linearGradient x1="0" y1="0" x2="1" y2="0" gradientUnits="userSpaceOnUse" gradientTransform="matrix(31.457 1.73589 1.73589 -31.457 921.711 2276.19)" spreadMethod="pad" id="f"><stop offset="0" stop-color="#909393"/><stop offset=".09" stop-color="#909393"/><stop offset=".487" stop-color="#bfc0be"/><stop offset=".705" stop-color="#e3e4e1"/><stop offset=".843" stop-color="#e9e9e6"/><stop offset=".984" stop-color="#d9dad7"/><stop offset=".991" stop-color="#e5e5e3"/><stop offset="1" stop-color="#e5e5e3"/></linearGradient><clipPath clipPathUnits="userSpaceOnUse" id="a"><path d="m950.93 2131.22-2.711 49.17-10.852-.59 2.711-49.17c.043-.8.617-1.58 1.723-2.14 2.199-1.11 5.633-.93 7.676.41 1.031.67 1.507 1.51 1.453 2.32z"/></clipPath><clipPath clipPathUnits="userSpaceOnUse" id="c"><path d="m955.859 2184.85-1.812 32.76-26.574-1.46 1.804-32.73c.106-1.98 1.52-3.88 4.223-5.25 5.371-2.73 13.789-2.28 18.805 1 2.523 1.65 3.691 3.7 3.554 5.68z"/></clipPath><clipPath clipPathUnits="userSpaceOnUse" id="e"><path d="m956.465 2218.15-7.102 128.66-31.453-1.74 7.098-128.61c.125-2.33 1.793-4.6 4.996-6.21 6.355-3.22 16.324-2.69 22.258 1.19 2.98 1.95 4.367 4.37 4.203 6.71z"/></clipPath></defs><path qt:id="tarmac" d="M179.916 103.031H43.071v-80l29.248 18.518 14.545 8.4 25.442 14.686" fill="#8e8e8e"/><path d="M72.319 39.189v2.377L43.071 24.734v-2.397l29.248 16.852" fill="#797d7e"/><path d="m73.903 38.275-1.584.914-29.248-16.848v-1.819l30.832 17.753" fill="#d6d8d5"/><path d="M73.904 40.653v-2.378l-1.586.915v2.378l1.586-.915" fill="#959796"/><path d="M112.361 64.635v-2.378L72.318 39.19v2.378l40.043 23.067" fill="#797d7e"/><path d="m128.935 74.594-19.11 11.035-66.759-38.544 10.764-6.216 5.168-2.985 3.178-1.834 66.76 38.544" fill="#484945"/><path d="m102.621 59.401-40.445-23.35-1.306.754-17.799-10.234v-1.842l29.248 16.836 10.045 5.787 4.5 2.594 15.683 9.052.074.4" fill="#3d3330"/><path d="M72.318 41.568h.001" fill="#534744"/><path d="m102.543 58.979-5.402-3.111 5.402 3.11v.001M82.364 47.355l-10.046-5.787h.001l10.045 5.79" fill="#443b38"/><path d="M101.889 60.433 60.87 36.803l1.306-.753 40.445 23.351.144.774-.876.258" fill="#2a2320"/><path d="M113.942 63.721v-2.38l-1.585.916v2.378l1.585-.915" fill="#959796"/><path d="m94.981 58.659-5.168 2.988L53.83 40.869l5.168-2.985 35.983 20.775m-10.763 6.216-5.169 2.988-35.983-20.778 5.168-2.985 35.984 20.775" fill="#51514d"/><path d="m157.124 90.511-1.268-.733c.489-.12.674-.43.684-.458.012-.032.321-.395.455-.467a.95.95 0 0 0 .29-.3c.002-.02-.023-.178-.032-.295a.161.161 0 0 0-.043-.098c-.02-.074-.075-.172-.097-.234l-.018-.05c.006 0 .01-.01.015-.01a.359.359 0 0 0 .175-.317v-.022c-.002-.035-.002-.075-.002-.121 0-.093.003-.208.007-.343 1.566.573 2.057 1.761 1.084 2.713-.316.31-.75.557-1.25.734m-2.33-1.346-2.565-1.48c-.004-.053-.007-.106-.012-.155l.064-.028c.1-.05.157-.097.157-.097s.009-.252.035-.635c.408.034.81.108 1.189.226a6.044 6.044 0 0 1 1.731-.247h.215c.063.559.11.98.154 1.098l.018.043a3.202 3.202 0 0 1-.555.683c-.279.254-.394.447-.432.59" fill="#7c4523"/><path d="M155.171 90.831c-.579 0-1.162-.08-1.698-.248a6.054 6.054 0 0 1-1.731.247 5.712 5.712 0 0 1-1.715-.253c-1.415-.451-2.044-1.38-1.647-2.247l-1.11.385.585.527c.143.128.007.338-.248.389 0 0-1.748.424-2.33.467a6.496 6.496 0 0 1-.461.018c-.288 0-.519-.024-.709-.062a2.026 2.026 0 0 1-.54-.186.34.34 0 0 1-.161-.277c.063.01.13.01.201.01.286 0 .64-.061 1.099-.233.518-.195 1.945-1.139 1.945-1.139a.522.522 0 0 0 .046-.032l.173.157.928-.353h.034l1.196-.423c.45-.334 1.049-.575 1.709-.71l-.002.607c0 .001.004.051.06.107a.948.948 0 0 1-.254.12c-.254.062-.87.222-1.044.315-.175.093-.431.266-.44.38-.011.166.146.461.56.461h.08c.475-.04.916-.183 1.204-.35.288-.168 1.046-.082 1.205-.168.16-.086.152-.208.14-.4l-.018-.254 2.565 1.481-.007.03c-.11.088-.066.352-.066.352s.095.281.706.281h.122c.114-.01.216-.022.308-.045l1.268.732a5.9 5.9 0 0 1-1.953.321" fill="#3d3330"/><path d="M149.842 82.004s.056.42-.009.923c-.008.064.956-.594.958-.692.003-.097-.057-.637-.057-.637h-.48l-.273.066-.139.344" fill="#fab494"/><path d="M149.903 81.647s.017.037.141.07c.069.018.169.034.316.042.106.01.194.01.266.01a1.47 1.47 0 0 0 .278-.015s.32-2.12.33-2.451c.01-.331.044-1.15-.218-2.01a7.266 7.266 0 0 1-.175-.748c-.178-.937-.306-2.112-.306-2.112l-.204-.392s-.517.041-.805.563a.882.882 0 0 0-.087.397v.001c-.017.651.325 1.673.372 2.217.058.675-.078 1.534-.033 1.943.044.41.125 2.486.125 2.486" fill="#f14436"/><path d="M150.649 81.768h-.023c.034-.333.119-1.08.219-1.512.133-.566.272-1.543.145-2.05a8.104 8.104 0 0 0-.306-.951c.05.07.1.14.149.203.144.191.25.355.335.5.06.38.074.725.074.988 0 .147-.004.268-.007.355-.01.33-.331 2.451-.331 2.451s-.065.015-.254.015m0-4.56c-.14-.185-.724-.964-.81-1.264l-.004-.02c.05.096.11.191.18.283l.06.08c.173.322.38.645.574.922m-.606 4.508c-.124-.033-.141-.07-.141-.07s-.08-2.076-.125-2.486a2.108 2.108 0 0 1-.01-.206c.001-.355.058-.87.058-1.355 0-.13-.004-.26-.015-.382-.045-.53-.371-1.514-.372-2.166v-.05c.014.058.478 1.994.49 2.093.01.102.18.809.14 1.11-.027.214.055.245.105.245.02 0 .034-.01.034-.01l-.263.264s.132 2.102.152 2.284c.01.09-.02.417-.052.724" fill="#b22622"/><path d="M152.101 87.815s.166.048.195.224c.028.176.01.366.009.42-.002.052-.057.215-.545.206-.488-.01-.477-.108-.731-.043-.254.064-.268.239-.583.327-.316.09-.965.11-1.16.022a.376.376 0 0 1-.24-.37c.012-.11-.06-.335.266-.41.327-.077 1.235-.192 1.235-.192l1.554-.184" fill="#302a26"/><path d="M151.126 87.328s-.331.31-.585.374c-.254.063-.87.222-1.044.315-.175.093-.432.266-.44.38-.012.176.167.5.64.458.475-.04.916-.184 1.204-.35.288-.168 1.046-.082 1.205-.168.16-.086.152-.208.14-.4-.013-.19-.044-.634-.051-.645l-1.07.036" fill="#da9c3a"/><path d="M150.734 87.476s.012.15.288.22c.05.012.106.021.175.03.174.018.678-.075.801-.115.06-.019.24-.09.282-.112.1-.05.157-.097.157-.097s.036-1.013.178-2.076c.143-1.063.114-1.694.121-2.121a.388.388 0 0 0-.107-.247c-.265-.306-1.186-.586-1.326-.59-.132-.01-.341-.148-.453.149-.029.073-.05.175-.062.315l-.01.128c-.035.845-.044 4.514-.044 4.514" fill="#3256a0"/><path d="M150.868 82.835s.268.444.625.493c.224.032.73.083.941.028a.685.685 0 0 0 .301-.15c.19-.184 1.454-1.728 1.454-1.728s.994-1.218 1.126-1.45l.015-.03c.018-.106-1.042-1.35-1.773-1.376-.731-.024-1.024.508-1.24.828-.217.322-1.416 2.856-1.466 3.064-.049.207.017.318.017.318" fill="#3256a0"/><path d="M152.731 83.888c.005-.277.002-.498.005-.682-.003.184 0 .405-.006.682" fill="#403222"/><path d="M152.28 87.501c.045-.579-.025-1.34.055-1.818.152-.901.135-1.61.11-1.734a8.796 8.796 0 0 1-.048-.584c.014 0 .026-.01.037-.01a.685.685 0 0 0 .301-.151h.001c-.003.184 0 .405-.006.682-.008.367-.034.833-.115 1.44-.142 1.062-.178 2.076-.178 2.076s-.057.048-.157.097" fill="#263a72"/><path d="M152.397 83.365a7.793 7.793 0 0 1-.01-.19c.051-.074.356-.37.43-.455.346-.393.653-1.104.85-1.63.007-.01.014-.017.022-.026.05.01.103.013.158.017h.13a.254.254 0 0 0 .125.034c.046 0 .09-.012.13-.027h.204l.006.026.008.035c-.152.189-.263.323-.263.323s-.502.615-.92 1.114c-.244.293-.46.545-.531.614l-.001.001a.675.675 0 0 1-.301.15c-.012 0-.024.01-.037.01" fill="#263a72"/><path d="M151.022 87.697a.557.557 0 0 1-.172-.072c-.109-.07-.116-.148-.116-.15 0 0 .01-3.668.046-4.513l.002-.043.044-.04a.75.75 0 0 0 .204.165c.055.06.123.124.2.176-.02.148-.049.541-.074.83-.033.364-.177 2.829-.15 2.952.022.105.035.476.016.695" fill="#27498f"/><path d="M151.229 83.221a1.16 1.16 0 0 1-.2-.176h.001l.231.126h-.01c-.005 0-.01-.01-.01-.01-.004 0-.008.024-.012.06" fill="#27498f"/><path d="M157.129 88.11s.114.03.124.148c.009.117.034.275.032.295a.954.954 0 0 1-.29.3c-.134.072-.443.435-.455.467-.012.032-.271.463-.992.503-.72.041-.827-.277-.827-.277s-.044-.264.065-.352c.109-.09 1.44-.574 1.44-.574l.903-.51" fill="#302a26"/><path d="M155.894 87.685s-.227.484-.67.89c-.442.404-.473.653-.435.79.038.138.257.352.676.31.42-.042.736-.23.93-.42.194-.19.386-.433.576-.66.19-.228.216-.127.246-.376.01-.071-.076-.211-.104-.293-.07-.202-.145-.34-.145-.34l-1.074.099" fill="#da9c3a"/><path d="M153.859 80.981c.208.268.407.077.522.058l.05.036s.273 1.167.679 2.636c.405 1.47.536 3.833.652 4.138.052.14.123.2.215.218.109.023.296.031.475 0 .17-.029.542-.122.658-.2a.36.36 0 0 0 .174-.34c-.014-.324.046-1.148.032-2.21-.013-1.061-.317-1.51-.325-1.67-.007-.163.08-3.016.027-3.88-.053-.863-.437-1.199-.437-1.199l-.231.053c-.692.16-2.702.64-2.697.767.004.152-.044 1.272.206 1.593" fill="#3c60ac"/><path d="m154.441 81.119-.006-.026.006.026" fill="#1e284e"/><path d="M155.977 88.067c-.092-.018-.163-.078-.215-.218-.116-.305-.247-2.669-.652-4.138a81.532 81.532 0 0 1-.675-2.618l.046-.001c.211.357.53 1.77.606 2.126.083.394.274.88.397 1.633.028.166.337 1.302.357 1.532.043.508.018 1.184.136 1.684m1.134-.2c-.026-.27.006-1.005.02-1.532.023-.853-.086-1.86-.297-2.62-.091-.672-.051-1.325 0-1.985.023-.307.046-.707.057-1.085l.056-.02.012-.03a2.87 2.87 0 0 0 .076-.225v.28c0 1.117-.044 2.696-.044 2.963v.033c.007.162.312.61.325 1.672.002.111.002.22.002.327 0 .115 0 .227-.002.335-.008.635-.034 1.137-.034 1.426 0 .046 0 .087.002.122v.022a.358.358 0 0 1-.175.317" fill="#263f7d"/><path d="M151.56 73.07s.72.06 1.502.35c.783.29 1.027.34 1.305.778.277.437 1.016 2.435 1.34 2.936.323.502 1.035 1.337 1.118 1.466.083.129.206.507.217.613.012.106.235.656-.44 1.144-.675.488-1.278.73-2.727.727-.837-.078-1.283-.727-1.296-.772-.013-.044-.38-.51-.384-.504-.004.01.102-.669-.035-.907s-.313-.31-.393-.41c-.08-.098-.318-.318-.388-.678-.532-.517-.96-1.069-1.364-1.607a2.126 2.126 0 0 1-.383-1.684c.3-1.496 1.928-1.452 1.928-1.452" fill="#ee2630"/><path d="M149.834 74.931c.2.41 1.471 2.211 1.471 2.211s-.19.544-.064.65c.126.11.605.966.74 1.01.138.046.155.874.155.874s.185 1.305 1.739 1.407c1.554.102 3.072-.458 3.072-.458l.012-.03c.045-.117.207-.566.192-1.038-.019-.548-.294-1.14-.318-1.198-.023-.059-1.523-1.753-1.523-1.753l-.024.076-.258.816s-.87.532-1.296 0c-.427-.536-.894-1.765-.877-2.714.016-.949.877-1.112.877-1.112l-.669-.252s-.711.415-.754 1.483c-.043 1.065.797 2.55.797 2.55l-1.24-.377s-1.282-1.73-1.33-2.23c-.047-.503.255-.843.255-.843l-.465-.222s-.693.742-.492 1.15" fill="#3c60ac"/><path d="M151.317 77.054c-.012.086.05.179.138.206.087.028.168-.02.18-.106a.2.2 0 0 0-.139-.206c-.088-.027-.168.02-.18.106m1.905.354a.201.201 0 0 0 .139.206c.088.028.168-.02.18-.106a.2.2 0 0 0-.139-.207c-.088-.027-.168.02-.18.107" fill="#f5782d"/><path d="M156.891 80.644s.063-.655 0-1.21c-.062-.553-.43-1.136-.48-1.196a2.79 2.79 0 0 0-.165-.15l.1-.088a.407.407 0 0 0 .088-.114c.223.256.391.454.4.473.023.057.298.65.317 1.198l.001.061c0 .45-.15.865-.193.976l-.069.05" fill="#263f7d"/><path d="M156.834 80.158s-.264-.07-.61-.09c-.346-.02-.894-.584-.894-.584l.752.255.752.42" fill="#263f7d"/><path d="M153.394 78.007s.36.921.318 1.005c-.023.044-.807.262-.807.262l-.798-.61c-.067-.053-.456-1.08-.446-1.157.01-.077 1.676.3 1.733.5" fill="#4a70c0"/><path d="M153.151 77.817s.24.082.277.167c.037.085.075.224.06.272-.017.05-.844.078-.87.056-.028-.02-.865-.444-.894-.521-.028-.077-.153-.328-.12-.34.032-.012.443.057 1.547.366" fill="#688dd0"/><path d="m155.883 77.509-9.906 8.803-.601 1.385L156.346 78a.39.39 0 0 0 .127-.234v-.01a.296.296 0 0 0-.287-.348l-.04-.001a.398.398 0 0 0-.263.099" fill="#502818"/><path d="m152.193 80.879-6.037 5.366-.367.844 6.687-5.91a.238.238 0 0 0 .077-.143.18.18 0 0 0-.175-.212l-.025-.001a.24.24 0 0 0-.16.06" fill="#823f21"/><path d="M149.842 82.004s-.112.151-.132.293c-.02.143-.038.233-.078.334-.051.13-.163.497-.158.556.004.059 0 .203.078.278.077.075.2-.123.194-.137l-.014-.25.388-.58s-.237-.49-.278-.494" fill="#fab494"/><path d="M152.499 73.333s.267.244-.164.89c-.431.647-.578.824-.571 1.22.008.398 1.323 4.139 1.616 4.25.294.111 1.522.141 2.198-.499.676-.64.492-1.706.492-1.706s-.638-1.25-1.057-2.265c-.42-1.014-.941-1.521-.941-1.521s-2.004-.751-2.534-.662c.09.142.167.141.3.141.138 0 .333-.001.661.152" fill="#acd91e"/><path d="M152.643 80.388c-.04-.045-.064-.076-.064-.076l-.244-.333.507-.14.347-.413c.082.154.148.25.191.267h.003l-.073.103-.667.592" fill="#1e262f"/><path d="M152.771 80.531a6.64 6.64 0 0 1-.128-.143l.666-.592c-.27.371-.492.673-.538.735" fill="#371412"/><path d="m153.383 79.694-.003-.001c-.043-.016-.11-.113-.19-.267l.021-.026s.783-1.304.773-1.388c-.009-.084-.211-.606-.213-.628l-.14-.764c.078.178.162.343.248.492.33.57.573 1.033.573 1.033-.09.185-.625.936-1.07 1.55" fill="#7b711c"/><path d="m151.52 81.169.074.055c.068.027.147.024.147.024s.34-.062.412.083c.073.145-.17.6-.17.6l-.149.457-.073.085s.03.016.072.03l.003.001.084.018c.083.01.245-.098.245-.098l.117-.197s-.024.064.188.041c.213-.023.258-.13.258-.13s.13-.025.176-.117l.043-.063c.087-.11.26-.282.306-.388.056-.131.4-.642.4-.642l-.697-.303s-.107.105-.184.148c-.076.044-.687.075-.687.075l-.432.108s-.042.028-.08.066c-.044.043-.084.102-.053.148m-.815 1.761s-.024-.1.024-.171c.047-.072.14-.084.197.024.059.108.12.171.05.22-.071.048-.25.073-.25.073s.07.076-.04.172c-.109.096-.226.093-.226.093s-.007.14-.135.21c-.128.068-.255-.097-.255-.097s-.016-.116.076-.138l.227-.056s-.016-.175.06-.224c.077-.049.223-.018.223-.018l.049-.088m-.852.552s.13-.102.181-.054c.05.05.047.16.047.16s-.065.18-.117.182l-.145-.001.03-.14.004-.147m1.505-11.094s.13.405.34.633c.208.227.623.141.723.401.1.26-.33 1.048-.872 1.327-.543.28-.719-.116-.89-.43-.173-.313-.281-.976-.281-.976s-.257-2.267.98-.955" fill="#fab494"/><path d="M150.964 73.289s-.397.652-.451 1.28c-.027.305.352.673.413.772.062.099 1.509 3.641 1.51 3.788 0 .147-.531.05-.8-.326s-.32-.706-.803-1.345c-.514-.68-1.23-1.838-1.164-2.457.066-.62.386-1.28.386-1.28l.91-.432" fill="#acd91e"/><path d="M150.674 75.014a1.035 1.035 0 0 1-.142-.283c0-.184.047-.342.1-.463.008.019.017.036.026.053.129.234.26.515.545.524-.166.073-.396.161-.485.164-.014.001-.03 0-.044.01" fill="#ee2329"/><path d="M150.531 74.731a.447.447 0 0 1-.018-.162c.011-.135.039-.272.075-.403.014.036.028.07.044.102-.053.12-.1.279-.1.463" fill="#334d7a"/><path d="M151.203 74.845c-.285-.01-.416-.29-.545-.524l-.027-.053a1.506 1.506 0 0 1-.043-.102l.037-.125.337-.037s.179.29.179.36c0 .073.248.373.25.388 0 .01-.08.046-.188.092" fill="#f58d6b"/><path d="M150.444 75.05a.608.608 0 0 1-.36-.135c-.316-.226-.208-.458-.208-.458l.67-.408.08-.01a2.235 2.235 0 0 0-.113.528.435.435 0 0 0 .019.163c.028.097.082.194.142.282-.067.011-.14.036-.23.036" fill="#a9d92c"/><path d="M148.511 72.301s-.034.3.175.665c.208.366.383.51.4.534.018.024.037.569.041.61.004.04.307-.035.307-.035l.19.271s.296.331.461.349c.166.017.793-.47.869-.663.076-.192-.292-.663-.39-.854-.097-.192.295-.674.196-.883-.1-.21-1.5-1.565-2.25.01m3.655 10.118.117-.197s-.024.064.188.041c.213-.023.257-.13.257-.13s.13-.024.176-.116l.043-.063-.09.032h-.032l-.135.03-.116.14-.167.08-.07-.034.151-.312-.137.112-.185.414m-.2-1.236-.371.04c.068.027.147.024.147.024s.34-.062.412.083c.073.144-.17.6-.17.6l-.149.456-.073.085s.03.016.072.031h.003c.042.017.105-.283.105-.283l.323-.627.046-.279-.344-.13m-.446-.015.074.055a4.828 4.828 0 0 0-.02-.202c-.045.043-.085.102-.054.148" fill="#fab494"/><path d="M148.804 72.651s.519-.26.618-.103c.1.158.308.524.422.589.114.064.34.029.417.075.077.045.152.078.152.078l.096-.106s-.236-.191.149-.274c.384-.083.26.092.533.059.272-.034.307-.132.343-.18.035-.05-.196-1.333-.617-1.726-.422-.395-1.608-.444-2.062.132-.453.576-.592 1.46-.505 1.604.088.144-.047-.296.454-.147" fill="#3d1d21"/><path d="M152.751 81.015c.12.318.427.407.554.423h.05c.06-.01.44-.57 1.293-1.422s1.252-1.6 1.236-1.744c-.015-.145-.564-2.362-.813-3.033-.25-.67-.744-1.407-1.036-1.408-.292 0-.853.257-.818 1.073.036.817.332 1.635.662 2.206.33.57.573 1.033.573 1.033-.157.324-1.69 2.399-1.69 2.399s-.155.096-.012.471" fill="#f14436"/><path d="M153.354 81.439h-.03l-.02-.001c.185-.203.58-.645.806-.94.302-.393 1.478-1.756 1.605-2.093.126-.338-.33-1.765-.454-2.196-.124-.432-.747-2.143-1.226-2.376.292.001.786.737 1.036 1.408.25.67.798 2.888.813 3.032v.01c0 .13-.246.61-.757 1.216-.14.166-.3.34-.479.52-.437.437-.75.798-.96 1.046-.006.01-.014.017-.02.026-.186.221-.285.347-.314.35" fill="#b22622"/><path d="M150.641 73.057s-.105-.282.1-.276c.205.01.258.28.265.349.007.068-.008.372-.178.334-.17-.038-.188-.26-.186-.269l-.002-.138m-1.981-.285s.368 0 .451-.049c.083-.052.115-.18.357.11.243.293.162.26.27.351.108.092.38.012.51.086s.228.4.166.603c-.063.204-.592.164-.716.044-.125-.12-.025-.143.099-.195.123-.052.27-.117.134-.233s-.546-.186-.693-.166c-.148.02-.217.016-.271-.028-.055-.044-.307-.522-.307-.522m.498.838s.025.354.043.389c.016.035.29.026.303-.033.012-.06-.163-.188-.194-.228-.031-.041-.128-.178-.153-.195v.067" fill="#fbc4ac"/><path d="M143.027 89.509c.157.052.345.092.58.092.286 0 .64-.061 1.099-.234.518-.194 1.945-1.138 1.945-1.138.212-.125.247-.415.059-.535l-1.993-1.29-.03-.019a.338.338 0 0 0-.4.111s-1.176 1.017-1.461 1.699c-.227.539-.172 1.143.201 1.313" fill="#7b8e96"/><path d="m145.026 88.01-.647.065.098-.369 1.702-1.592s.11-.064.33.132c.22.195.058.406.058.406l-1.54 1.358" fill="#b7c1c4"/><path d="M146.211 86.149s.296.104.326.208c.03.104-1.72 1.542-1.72 1.542l-.29.08.038-.214 1.645-1.616" fill="#cad2d3"/><path d="M143.027 89.509c.157.052.345.092.58.092.286 0 .64-.061 1.099-.234.518-.194 1.945-1.138 1.945-1.138.212-.125.247-.415.059-.535 0 0-1.414.924-1.948 1.126-.534.201-1.504.484-1.49-.324.014-.807 1.415-2.11 1.415-2.11-.129-.062-.299-.019-.4.11 0 0-1.176 1.017-1.461 1.698-.227.54-.172 1.144.201 1.314" fill="#b7c1c4"/><path d="M144.661 88.857c-.437-.275-.885-.803-1.12-1.103.051-.086.108-.171.168-.256l.43.127.188.182.095.107-.043.16.196-.019.41.173.242.08.149.152.03.036a5.322 5.322 0 0 1-.644.325l-.101.037" fill="#414b51"/><path d="m144.379 88.074.042-.16.106.12.048.02-.196.02m.781.961c-.156 0-.327-.069-.5-.178l.102-.037c.158-.06.392-.182.643-.325.03.036.076.091.097.113.032.035-.082.242-.082.242l-.168.177c-.03.01-.061.01-.093.01m-1.618-1.282a6.356 6.356 0 0 1-.168-.223l.114-.097.222.065c-.06.084-.117.17-.168.255" fill="#5e666b"/><path d="M143.405 87.343s.031.075.186.158c.075.04.242-.014.329.109l.264.375.405.208.406.109.306.294s-.02.375-.05.43c-.029.057-.677.225-.724.264a1.953 1.953 0 0 1-.284.129l-.524.049-.365-.01s-.1.089-.317-.089-.217-.099-.217-.099v-.534l-.01-.316.015-.397.195-.294.385-.387" fill="#262525"/><path d="M143.443 87.481s.064.04.257.144l.192.103.12.154.157.227.262.148.36.09s-.073.01-.449.024l-.375.02.266.218s.124.039.07.114c-.055.074-.534.103-.534.103l.578.134.672-.247-.014.217s-.752.173-.791.217c-.04.045.301.124-.193.11-.494-.016-.455.01-.455.01l-.435-.213-.074-.233s-.316-.202-.104-.202h.37l-.045-.202.127-.213s.443-.144.087-.164c-.356-.02-.306-.079-.356-.02-.05.06-.217.327-.217.327l-.04-.327.307-.317.187-.167.07-.049" fill="#333436"/><path d="M149.266 94.437h-2.382l-.829-.119-.883-.504-1.743-.603-.308-.846.644-.9.298-.283 1.488-.221 2.332-.303 2.355.524-.972 3.255" fill="#3d3330"/><path d="M148.695 89.093c-.085 0-.17.01-.254.016l-.068.02c-.034.03-.024.082-.025.126-.002.168-.18.27-.334.334-.155.065-.334.161-.344.328-.006.095.049.188.034.282-.025.163-.285.276-.394.394-.126.136-.239.291-.41.375-.06.03-.125.049-.186.077a.79.79 0 0 0-.441.721c0 .043.004.09-.017.127a.222.222 0 0 1-.094.08c-.268.155-.528.33-.772.52-.194.15-.195.375-.382.529-.033.027-.07.053-.085.092-.024.064.023.136.083.169.06.033.13.04.196.06.18.058.309.21.456.329.28.225.638.333.995.374.357.04.717.019 1.076.013.186 0 .374-.001.552.052.252.074.492.194.741.275.276.09.58.055.867.074.221.014.444.058.663.025.22-.033.444-.166.499-.382.024-.097.012-.203.051-.296.062-.148.232-.217.39-.244.158-.027.325-.03.466-.107.216-.12.313-.386.514-.531.129-.093.29-.129.433-.197.144-.068.282-.194.283-.353 0-.233-.253-.3-.363-.463-.164-.246-.296-.529-.446-.785a.636.636 0 0 0-.115-.158.56.56 0 0 0-.167-.097c-.514-.213-1.144-.22-1.526-.623-.169-.179-.267-.416-.443-.587a1.68 1.68 0 0 0-.362-.25c-.207-.12-.419-.24-.653-.291a1.665 1.665 0 0 0-.418-.03" fill="#262525"/><path d="M149.692 94.291c.158.077.344.074.515.082.115 0 .21-.06.317-.09.102-.03.21.01.296-.069l.027-.045.003-.038.016-.019a.128.128 0 0 0 .028-.127l-.02-.03-.044-.01h-.12l-.042-.072c-.04-.057-.101-.096-.155-.14-.105-.081-.21-.252-.21-.389 0-.094.044-.177.095-.22a.334.334 0 0 1 .167-.067c.094-.02.447.272.542.253-.1-.177-.19-.37-.267-.576l.257-.201c-.13-.278-.31-.49-.512-.605.232-.05.467-.1.701-.064.292.044.57.22.843.39.055.034.113.067.169.044.055-.023.102-.13.075-.212-.012-.037-.036-.06-.058-.082a2.611 2.611 0 0 0-.254-.214l.074-.104c-.111-.114-.18-.312-.281-.448a.585.585 0 0 0-.535-.237.374.374 0 0 1-.214-.014c-.05-.022-.095-.066-.141-.102-.148-.117-.313-.158-.476-.198.029-.044-.014-.115-.05-.141l-.586-.419a.182.182 0 0 1-.078-.096c-.014-.043-.01-.096-.015-.143-.018-.144-.117-.213-.203-.259-.144-.077-.277-.183-.43-.185-.18 0-.362.02-.54.066l.091.07c.03.022.063.048.076.098a.264.264 0 0 1-.032.188c-.1.174-.268.163-.412.14.038 0 .077.01.115.01a1.087 1.087 0 0 1-.262-.072l-.017-.01c-.009.105-.015.229.033.302.026.04.062.055.097.068.108.04.217.073.327.1-.047.01-.094.013-.14.02.032 0 .051.06.052.112 0 .053-.008.107.002.157.022.106.11.113.17.165l.024.035c.026.077-.066.16-.043.239a.927.927 0 0 0-.372-.194c-.036.053.017.147.011.226l-.015.081c-.013.097.048.177.103.218.056.042.122.086.137.184.048.315-.358.156-.436.118.117.268.258.508.417.71l-.305.331a.26.26 0 0 0-.072.118c-.035.135.062.258.146.311.186.12.382.195.582.22.005.17.013.352.077.486.078.163.214.207.338.24.034.01.053-.001.063-.02.175-.017.37-.033.545-.027a.848.848 0 0 1-.195.16" fill="#333436"/><path d="m147.578 94.248-.077.034.025.068a.753.753 0 0 0 .42.213c.118.022.238.027.357.03.134 0 .268.01.401.015-.016-.1-.25-.33-.321-.358-.202-.08-.586 0-.805 0" fill="#262525"/><path d="M153.35 92.714c-.07 0-.12.044-.187.076-.061.03-.262.07-.24.171.01.048.07.062.118.065.073 0 .147.01.22 0 .126 0 .346-.287.129-.315h-.04" fill="#333436"/><path d="M154.568 92.979c-.064-.112-.335-.092-.429-.03-.124.083-.144.238.03.255.129.012.259.01.386-.014l.023-.01.012-.027a.274.274 0 0 0-.022-.175m-3.541 1.522-.06.045c-.018.035.003.079.037.1a.208.208 0 0 0 .112.023 4.8 4.8 0 0 0 .495-.03l.066-.021.027-.062c.09-.45-.5-.135-.677-.055" fill="#262525"/><path d="m112.36 62.256 1.585-.916-40.043-23.066-1.585.915 40.043 23.067" fill="#d6d8d5"/><path d="M48.929 71.027c-.302-.031-.606-.146-.987-.187-.787-.084-1.538-.157-2.311-.366-.373-.1-.76-.227-1.024-.51-1.2-1.286 1.497-2.403 2.298-2.728.433-.175.874-.33 1.319-.47.015.741.037 1.593.037 1.933 0 .087-.002.141-.005.15l-.002.01c0 .02.015.048.042.082l-.014.166a.186.186 0 0 0-.058.094c-.02.09-.02.257-.02.257s.135.35.134.541c-.001.19.129.781.34.925a.9.9 0 0 0 .25.103m1.262-.443c.003-.092.002-.176.002-.176l-.2-.316c-.103-.272-.247-.608-.254-.676a2.557 2.557 0 0 0-.13-.396.328.328 0 0 0 .053-.05c.015-.019.337-1.662.537-2.768.34-.092.684-.183 1.036-.19h.132l.018.896s.012.01.036.022l-.002.2-.025.07a1.336 1.336 0 0 0-.021.268c.003.025.231.17.617.228.385.057.927.082 1.29.138.192.03.39.054.568.054.158 0 .302-.02.417-.072a.493.493 0 0 0 .288-.309l.003-.32s-.038-.165-.189-.178a.383.383 0 0 0-.13-.088c-.045-.017-.724-.139-.874-.196a13.004 13.004 0 0 1-.332-.135c0-.01 0-.01.002-.015.466.22.923.255 1.445.354.976.184 1.657.469 2.152 1.434.48.94.332 1.942-.85 2.1-.076.01-.152.015-.228.015-.07 0-.141 0-.212-.012-.464-.05-.918-.25-1.364-.411-.337-.122-.706-.22-1.06-.22-.264 0-.52.054-.746.194-.153.094-.284.221-.447.296-.53.242-1.023.085-1.53.257" fill="#3d3330"/><g qt:id="roller" id="at-roller"><path d="M46.787 24.859v-2.38l-1.586.917v2.378l1.585-.915" fill="#959796"/><path d="m35.387 20.14-15.683-9.053 10.277 5.92 5.401 3.11.004.023" fill="#7c4523"/><path d="M5.158 2.707v-.002.002" fill="#534744"/><path d="m35.382 20.118-5.4-3.112 5.4 3.11M15.204 8.496 5.158 2.708v-.002l10.046 5.789" fill="#443b38"/><path d="m46.618 21.008 10.458 8.36 6.907 4.657 1.631 2.888-.644.347-.178 2.266-18.084-9.938-2.833-7.64 1.544-.782 1.2-.158" fill="#fabd22"/><path d="M45.074 21.79 63.34 34.374l1.631 2.887-.178 2.266-.999.368-17.666-10-2.525-2.375.274-5.57 1.2-.158" fill="#e55d1b"/><path d="m65.614 36.913-.644.347-.178 2.266.65-.39.172-2.223" fill="#f68c1f"/><path d="M40.476 49.685c-.565 0-1.148-.05-1.733-.17-.995-.206-2.257-.684-3.534-1.252l-3.809.698-9.346-4.267-5.6 1.595-13.097-7.676 6.87-2.975-1.323-.694-4.132 1.785-1.415-.791 5.732-2.69s-6.74-2.86-7.41-3.528c-.673-.667-.803-5.26-.803-5.26l1.502-.962 9.531 5.504.003-.002 30.773 17.768.023-.013c1.013.568 1.97.838 2.821.838.7 0 1.33-.182 1.862-.53l1.667-.99 2.446 1.345.18-2.265.643-.347-.284-.503 8.774-5.207 3.435 1.947-13.94 8.36-4.965-.8s-2.233 1.08-4.87 1.08" fill="#322926" fill-opacity=".607"/><path d="M42.665 46.768 11.891 29l5.166-2.986-9.8-5.66 2.48-1.59 7.73 1.027 5.185 2.995 2.275-1.315 4.075 1.37.028.343-2.155.607v3.658l3.878 2.298-.186.095L32 33.707v2.017l.614-.363.786 2.12 3.318 1.823c1.16 3.03 3.317 5.882 5.786 7.345l.184.106-.023.013" fill="#322926" fill-opacity=".607"/><path d="m22.652 22.785-5.187-2.994 4.071.54 3.39 1.14-2.274 1.315" fill="#2e2623"/><path d="m11.89 29.002-9.533-5.504 4.9-3.143 9.8 5.659L11.891 29l-.002.002" fill="#322926" fill-opacity=".607"/><path d="m24.047 13.575.178-.114c-.022.063-.044.126-.064.19zm-.273 1.342c0 .064-.004.128-.004.194 0 .298.02.602.054.909l.184.122c.015.125.033.25.054.376l-.167-.007c.066.393.158.79.274 1.186l.182.066c.04.133.082.265.127.398l-.143.054c.14.4.3.8.483 1.192l.167.006c.062.132.127.263.193.393l-.109.11c.201.387.421.763.66 1.126l.141-.055c.08.123.163.244.248.362l-.07.163c.25.346.516.676.793.986l.108-.112c.095.105.19.208.29.307l-.025.202c.282.284.574.547.876.785l.068-.162c.102.08.205.155.31.229l.022.229a6.49 6.49 0 0 0 .904.536l.023-.202c.104.05.207.096.31.137l.066.242c.218.087.43.154.638.204l-.85.946.39.207.875-.478.104.044 2.968-1.284c.142-.067.946-1.018 1.073-1.111l-.022-.05.274-.162c.182-.175.343-.383.482-.62l-.103-.162.27-.16c.115-.258.207-.546.274-.86l-.167-.19.014-.086.223-.132a6.44 6.44 0 0 0 .054-.844c0-.066-.002-.133-.004-.2l-.18-.148-.014-.218.17-.1a9.222 9.222 0 0 0-.179-1.162l-.184-.095c-.024-.106-.05-.212-.076-.317l.141-.084c-.108-.404-.24-.808-.396-1.21l-.176-.035c-.049-.125-.1-.25-.154-.373l.127-.083a13.032 13.032 0 0 0-.59-1.18l-.156.025a12.625 12.625 0 0 0-.206-.347l.09-.138a12.789 12.789 0 0 0-.747-1.077l-.132.078c-.078-.1-.158-.198-.239-.295l.046-.184a10.68 10.68 0 0 0-.857-.905l-.147.087a9.462 9.462 0 0 0-.21-.188v-.218a8.236 8.236 0 0 0-.915-.676l-.175.104-.009-.005-.137-.078-.046-.238a5.632 5.632 0 0 0-.915-.41l-.247.147-.02-.006-.09-.244a3.603 3.603 0 0 0-.857-.111l-.325.016c-.265.028-1.726.812-1.958.91l-.26.155-.014-.02-2.829 1.679-.546 1.512 1.078-.684c-.07.262-.124.542-.153.845l.176.172a5.82 5.82 0 0 0-.019.332l-.182-.067" fill="#3b0d18"/><path d="m27.751 10.384-1.53 1.039-2.527 1.248.746-.193 2.48-1.1 1.561-1.295-.73.3m7.025 4.363-1.284 1.946-2.758.45.59 1.18 2.773-.46 1.268-1.936-.282-.601-.307-.58" fill="#421721"/><path d="m35.568 16.418-1.492 1.952-2.55.444.397 1.209 2.565-.454 1.476-1.942-.162-.55-.234-.66" fill="#421721"/><path d="m36.083 18.123-1.408 1.94-2.633.455.177 1.163 2.65-.465 1.392-1.931-.054-.52-.124-.642" fill="#421721"/><path d="m36.286 19.75-1.357 1.9-2.684.497-.05 1.044 2.7-.506 1.341-1.89.054-.453-.004-.59" fill="#421721"/><path d="m36.166 21.204-1.192 1.684-2.85.71-.274.86 2.926-.881 1.115-1.514.151-.354.124-.505" fill="#421721"/><path d="m35.725 22.385-1.34 1.332-2.702 1.063-.482.62 2.717-1.072 1.324-1.323.258-.261.225-.36m-1.968-9.175-1.284 1.946-2.758.45.746 1.077 2.773-.46 1.268-1.936-.37-.566-.376-.51" fill="#421721"/><path d="m32.574 11.903-1.283 1.946-2.758.45.857.905 2.774-.46 1.267-1.936-.386-.45-.47-.455" fill="#421721"/><path d="m31.302 10.908-1.283 1.946-2.758.45.915.676 2.774-.46 1.267-1.936-.39-.325-.525-.35" fill="#421721"/><path d="m30.02 10.282-1.154 1.62-2.887.775.915.41 2.902-.785 1.14-1.611-.402-.218-.514-.19" fill="#421721"/><path d="m28.807 10.067-1.256 1.31-2.786 1.085.857.11 2.72-.888 1.321-1.506-.47-.087-.387-.024" fill="#421721"/><path d="m24.492 12.517-1.864 1.023.492.779 1.372-.797v-1.005" fill="#3b0d18"/><path d="m23.977 13.529-1.865 1.105.493.779 1.372-.797v-1.087m-.203 1.388-1.864 1.105.492.778 1.372-.796v-1.087m.121 1.594-1.865 1.106.492.778 1.373-.796V16.51m.44 1.704-1.864 1.105.492.778 1.372-.796v-1.087" fill="#3b0d18"/><path d="M32.195 23.19a6.47 6.47 0 0 0 .054-.843c0-.067-.003-.133-.004-.2l-.182-.148a7.667 7.667 0 0 0-.02-.356l.176.038a9.239 9.239 0 0 0-.177-1.163l-.184-.095a10.598 10.598 0 0 0-.09-.377l.155-.023a11.76 11.76 0 0 0-.396-1.21l-.176-.035a9.22 9.22 0 0 0-.155-.374l.127-.083a12.895 12.895 0 0 0-.589-1.18l-.157.025a13.157 13.157 0 0 0-.205-.347l.09-.137a12.742 12.742 0 0 0-.747-1.077l-.127.084c-.08-.102-.162-.203-.244-.302l.046-.183c-.273-.323-.56-.626-.857-.905l-.09.138a9.973 9.973 0 0 0-.268-.24v-.217a8.31 8.31 0 0 0-.914-.676l-.046.184c-.046-.028-.09-.058-.138-.086l-.137-.077-.046-.24a5.642 5.642 0 0 0-.915-.408v.22a4.25 4.25 0 0 0-.268-.08l-.09-.244a3.61 3.61 0 0 0-.856-.11l.046.238a2.81 2.81 0 0 0-.245.012l-.126-.235a2.598 2.598 0 0 0-.746.193l.09.244c-.07.03-.14.065-.207.103l-.157-.211a2.53 2.53 0 0 0-.589.48l.127.234c-.054.06-.105.124-.155.19l-.175-.171a3.348 3.348 0 0 0-.396.739l.155.208a4.03 4.03 0 0 0-.09.27l-.185-.123a5.191 5.191 0 0 0-.177.95l.176.173a6.89 6.89 0 0 0-.02.332l-.18-.067a8.055 8.055 0 0 0 .05 1.103l.182.122c.015.125.034.25.055.376l-.168-.006c.067.392.158.789.275 1.185l.181.066c.04.133.083.265.128.398l-.143.054c.14.4.3.8.482 1.192l.168.006c.062.132.126.263.193.393l-.109.11c.2.387.42.763.658 1.126l.142-.055c.081.123.163.244.248.363l-.069.162c.25.346.515.676.793.986l.108-.112c.095.105.19.208.288.307L25.35 24c.281.285.574.547.876.785l.067-.162c.102.08.205.156.31.229l.022.229c.15.103.3.202.452.293.153.09.304.17.452.243l.023-.202c.104.05.207.096.31.137l.067.242c.301.12.594.204.876.254l-.024-.23c.098.017.194.027.29.035l.107.24c.278.019.543.004.792-.047l-.069-.244c.085-.018.167-.042.248-.068l.142.223c.238-.081.458-.196.66-.345l-.11-.24a2.51 2.51 0 0 0 .193-.164l.167.193c.183-.176.344-.384.482-.621l-.142-.223c.045-.08.088-.161.128-.247l.18.149a4.09 4.09 0 0 0 .275-.86l-.167-.191c.02-.102.04-.205.054-.313l.184.096" fill="#582a36"/><path d="M31.741 22.165c0 3.094-2.13 4.34-4.756 2.783-2.626-1.556-4.755-5.326-4.755-8.42 0-3.094 2.13-4.34 4.755-2.783 2.626 1.556 4.756 5.326 4.756 8.42" fill="#4e1d29"/><path d="M30.66 21.524c0 2.39-1.646 3.353-3.675 2.15-2.029-1.202-3.674-4.115-3.674-6.505 0-2.39 1.645-3.353 3.674-2.15 2.03 1.202 3.674 4.115 3.674 6.505" fill="#582a36"/><path d="M30.271 21.177c0 2.078-1.43 2.915-3.194 1.87-1.764-1.046-3.194-3.578-3.194-5.656s1.43-2.914 3.194-1.87c1.764 1.047 3.194 3.578 3.194 5.656" fill="#e09015"/><path d="M24.154 17.55c0 1.903 1.308 4.22 2.923 5.178 1.615.957 2.924.19 2.924-1.71 0-1.903-1.31-4.22-2.924-5.178-1.615-.957-2.923-.19-2.923 1.71" fill="#b7511e"/><path d="M24.454 17.657c0-1.772 1.22-2.485 2.723-1.594 1.504.892 2.723 3.05 2.723 4.822 0 1.77-1.219 2.485-2.723 1.594-1.504-.892-2.723-3.05-2.723-4.822zm-.3-.106c0 1.902 1.308 4.22 2.923 5.177 1.615.957 2.924.19 2.924-1.71 0-1.903-1.31-4.22-2.924-5.178-1.615-.957-2.923-.19-2.923 1.71" fill="#e08217"/><path d="M25.357 17.727c0 1.418.975 3.144 2.178 3.858 1.113.658 2.03.22 2.162-.972.01-.096.016-.198.016-.303 0-.957-.444-2.054-1.103-2.886a4.012 4.012 0 0 0-1.075-.972c-1.203-.713-2.179-.141-2.179 1.275" fill="#d9681b"/><path d="M29.434 19.767c0 .037 0 .075-.003.11a1.4 1.4 0 0 1-.138.568l-.002.002a.82.82 0 0 1-.294.33l-.482.28c-.275.13-.232-.147-.632-.383-.858-.51-1.553-1.738-1.553-2.748 0-.496-.274-.587 0-.753l.525-.302.04-.017c.212-.084.474-.07.762.05.073.03.15.069.226.114.652.388 1.21 1.192 1.44 1.997a2.854 2.854 0 0 1 .111.752" fill="#270b12"/><path d="M28.997 20.023c0 .037-.003.075-.004.11-.012.224-.06.415-.139.569l-.002.002c-.245.48-.782.595-1.407.226-.859-.508-1.554-1.738-1.554-2.748 0-.544.203-.913.526-1.055l.04-.017c.212-.083.474-.07.761.05.074.03.15.069.227.115.652.387 1.21 1.19 1.44 1.997a2.844 2.844 0 0 1 .111.75" fill="#442d34"/><path d="M28.367 19.385c0 .206-.06.36-.16.45-.137.126-.59.39-.59.39l-1.067-1.88s.377-.22.481-.31c.138-.117.348-.121.585.019.415.246.751.842.751 1.33" fill="#270b12"/><path d="M27.842 19.727c0 .489-.336.686-.75.44-.416-.246-.753-.842-.753-1.331 0-.49.337-.686.752-.44.415.246.751.842.751 1.33" fill="#533841"/><path d="M27.45 19.482c0 .088-.026.153-.068.19-.059.055-.2.129-.2.129l-.453-.796s.11-.056.154-.094c.058-.05.148-.052.248.007a.725.725 0 0 1 .318.564" fill="#270b12"/><path d="M27.277 19.59c0 .208-.142.29-.318.187a.724.724 0 0 1-.319-.564c0-.208.143-.291.32-.187a.725.725 0 0 1 .317.564" fill="#68535c"/><path d="m26.536 8.312-3.3 1.956 3.426.823 3.124 2.278 2.256 3.102.687 2.294 3.3-1.955-.057-.746-.539-1.754-2.248-3.046-3.096-2.375-3.553-.577" fill="#5fcad0"/><path d="M23.236 10.268v.364l3.404.556 3.052 2.256 2.195 3.002.622 2.105.22.214-.057-.745-.539-1.754-2.248-3.047-3.096-2.374-3.553-.577" fill="#1e5162"/><path d="m35.972 16.065-3.3 1.955.057.745 3.3-1.955-.057-.746" fill="#45a1be"/><path d="m35.433 14.31-3.3 1.956.54 1.754 3.3-1.956-.54-1.754" fill="#55c3dd"/><path d="m30.09 8.889-3.3 1.956-3.554-.577 3.3-1.956 3.553.577" fill="#f9ad27"/><path d="m33.185 11.264-3.3 1.955 2.248 3.047 3.3-1.956-2.248-3.046" fill="#6fcfd6"/><path d="m48.077 8.407-.37.47c-.406.536-.735 1.42-.735 1.977v2.91c0 .557.675.607.888-.144l.22-.354a2.789 2.789 0 0 0 .552-1.703l.117-2.71c.178-.56-.266-.981-.672-.446" fill="#18110e"/><path d="m48.06 8.615-.19.263c-.406.535-.735 1.42-.735 1.976v2.91c0 .557.33.574.736.039l.372-.537a2.789 2.789 0 0 0 .552-1.703V8.652c0-.556-.329-.573-.735-.038" fill="#282321"/><path d="M47.717 8.108v5.273c.041.012.09.015.136.02l.067-.046.052-.077-.007-5.294c0-.5-.566-.774-.943-.458l-1.707 1.432.147.342 1.668-1.47c.23-.202.586-.034.586.278" fill="#261f1b"/><path d="m28.725 16.68 3.35-3.617-8.355-5.194-4.92-1.486 1.44 5.28-.458 3.264 6.334 10.124 4.81-2.85-2.007-1.873-.194-3.648" fill="#e8491e"/><path d="m21.564 14.113 4.128 1.584 6.383-2.634-8.355-5.194-4.92-1.486-4.81 2.85 5.792 5.694 1.782-.814" fill="#f68c1f"/><path d="m25.75 19.262-.058-3.565-6.78-4.977-4.922-1.487-1.324 6.918.314 2.444 10.61 6.4 2.526.056.563-4.14-.929-1.65" fill="#e6551c"/><path d="m12.973 16.458 1.664-6.043 3.737.825 7.355 5.222-.037-.765-6.78-4.977-4.922-1.487-1.324 6.918.314 2.444-.007-2.137" fill="#e55f1b"/><path d="M12.131 14.84v2.155l.198.658 2.535 1.424.433-2.022-.135-.173-2.643-1.436-.388-.605" fill="#e8451e"/><path d="m13.035 14.223-.904.618.198.69 2.968 1.524-.323-.415-2.173-1.194.234-1.223" fill="#f68c1f"/><path d="m14.146 19.443.18-.114c-.023.063-.046.125-.065.19zm-.272 1.342c-.002.064-.005.128-.005.194 0 .298.02.602.055.908l.183.122c.015.125.034.25.054.377l-.167-.006c.067.392.158.788.274 1.185l.182.066c.04.132.083.265.128.397l-.143.054c.14.402.3.8.482 1.193l.168.006c.062.132.126.263.193.392l-.11.112c.202.386.422.762.66 1.125l.141-.055c.081.122.164.244.248.362l-.069.163c.25.346.515.676.792.986l.11-.112c.094.105.19.207.287.307l-.023.202c.281.284.574.547.876.785l.067-.162c.102.08.205.155.31.229l.022.228a6.412 6.412 0 0 0 .905.536l.022-.201c.104.05.207.096.31.137l.067.242c.217.087.43.154.638.203l-.85.947.39.207.874-.478.104.044 2.97-1.284c.14-.067.945-1.018 1.072-1.112l-.023-.05.274-.161c.183-.176.344-.384.482-.621l-.103-.161.27-.16c.116-.258.208-.546.274-.86l-.167-.191.015-.085.223-.132c.035-.266.054-.546.054-.844 0-.067-.003-.133-.005-.2l-.18-.148c-.003-.072-.009-.146-.013-.218l.168-.1a9.243 9.243 0 0 0-.177-1.162l-.185-.096a10.557 10.557 0 0 0-.076-.316l.142-.084a11.76 11.76 0 0 0-.396-1.21l-.176-.035c-.049-.125-.1-.25-.154-.374l.126-.082a13.175 13.175 0 0 0-.589-1.18l-.157.025a14.262 14.262 0 0 0-.206-.348l.09-.137a12.785 12.785 0 0 0-.746-1.077l-.132.079a8.835 8.835 0 0 0-.24-.296l.047-.184c-.273-.323-.56-.626-.857-.905l-.147.087a9.524 9.524 0 0 0-.21-.188v-.218a8.24 8.24 0 0 0-.915-.676l-.175.104-.009-.005c-.046-.028-.092-.052-.138-.078l-.046-.24a5.636 5.636 0 0 0-.914-.407l-.247.146-.02-.006-.09-.245a3.607 3.607 0 0 0-.858-.11l-.325.016c-.264.028-1.726.812-1.957.91l-.26.155-.014-.02-2.83 1.678-.546 1.512 1.078-.683a5.274 5.274 0 0 0-.152.845l.176.17a5.9 5.9 0 0 0-.02.334l-.18-.067" fill="#3b0d18"/><path d="m17.85 16.252-1.53 1.039-2.527 1.248.746-.193 2.48-1.101 1.561-1.294-.73.3m7.025 4.363-1.283 1.946-2.758.45.588 1.179 2.774-.46 1.268-1.935-.28-.602-.309-.578" fill="#421721"/><path d="m25.667 22.286-1.49 1.95-2.55.446.396 1.208 2.564-.453 1.477-1.942-.162-.55-.234-.66" fill="#421721"/><path d="m26.183 23.99-1.408 1.94-2.634.456.178 1.162 2.648-.465 1.393-1.93-.054-.52-.123-.642" fill="#421721"/><path d="m26.385 25.619-1.357 1.9-2.684.495-.05 1.045 2.7-.506 1.342-1.89.054-.454-.005-.59" fill="#421721"/><path d="m26.265 27.07-1.19 1.686-2.85.71-.276.86 2.927-.881 1.115-1.514.15-.355.124-.505" fill="#421721"/><path d="m25.824 28.252-1.34 1.332-2.7 1.064-.483.62 2.716-1.072 1.325-1.323.258-.261.224-.36m-1.968-9.175-1.284 1.946-2.758.45.746 1.077 2.774-.46 1.268-1.936-.372-.566-.374-.51" fill="#421721"/><path d="m22.674 17.77-1.283 1.946-2.759.45.858.905 2.773-.46 1.268-1.935-.387-.451-.47-.454" fill="#421721"/><path d="m21.402 16.776-1.283 1.946-2.759.45.915.676 2.774-.46 1.268-1.936-.39-.325-.525-.351" fill="#421721"/><path d="m20.12 16.15-1.154 1.62-2.887.776.914.408 2.903-.784 1.138-1.612-.4-.217-.514-.191" fill="#421721"/><path d="m18.905 15.935-1.255 1.31-2.786 1.085.857.11 2.72-.89 1.322-1.505-.472-.087-.386-.024" fill="#421721"/><path d="m14.592 18.385-1.865 1.023.493.778 1.372-.796v-1.005" fill="#3b0d18"/><path d="M14.077 19.396 12.212 20.5l.492.78 1.373-.797v-1.088m-.203 1.389L12.01 21.89l.493.778 1.372-.796v-1.087m.12 1.595-1.864 1.104.492.78 1.372-.797V22.38m.441 1.702-1.864 1.106.492.778 1.372-.796v-1.088" fill="#3b0d18"/><path d="M22.294 29.059a6.47 6.47 0 0 0 .05-1.045l-.18-.147a7.667 7.667 0 0 0-.02-.356l.175.037a9.238 9.238 0 0 0-.178-1.162l-.184-.095a10.435 10.435 0 0 0-.09-.377l.156-.024a11.512 11.512 0 0 0-.397-1.208l-.175-.037c-.05-.124-.1-.25-.155-.373l.126-.083a13.032 13.032 0 0 0-.588-1.18l-.157.025a12.637 12.637 0 0 0-.206-.347l.09-.137a12.66 12.66 0 0 0-.747-1.077l-.126.084c-.08-.102-.162-.203-.245-.302l.047-.184c-.273-.322-.56-.625-.858-.905l-.089.14a8.453 8.453 0 0 0-.268-.24v-.218a8.24 8.24 0 0 0-.915-.676l-.045.184-.138-.086c-.046-.027-.092-.052-.138-.077l-.046-.24a5.616 5.616 0 0 0-.914-.407v.218c-.09-.03-.18-.056-.269-.08l-.089-.243a3.607 3.607 0 0 0-.857-.111l.046.239a2.46 2.46 0 0 0-.244.012l-.127-.235a2.595 2.595 0 0 0-.746.193l.09.243c-.07.03-.14.066-.206.103l-.157-.21a2.521 2.521 0 0 0-.589.48l.126.234c-.053.06-.105.124-.154.19l-.176-.171a3.348 3.348 0 0 0-.396.738l.156.209a4.098 4.098 0 0 0-.09.27l-.185-.124a5.161 5.161 0 0 0-.177.952l.175.17a5.91 5.91 0 0 0-.019.334l-.182-.067c-.002.064-.004.128-.004.194 0 .298.02.6.054.909l.184.12c.015.127.033.252.054.378l-.167-.007c.066.393.158.79.274 1.185l.182.067c.04.132.082.265.127.397l-.142.055c.138.4.3.8.482 1.192l.167.006c.062.132.127.262.194.392l-.11.112c.201.386.422.762.66 1.125l.141-.055c.08.123.163.244.248.362l-.069.163c.25.346.515.676.792.986l.108-.112c.095.105.19.207.29.307l-.025.202c.282.284.575.547.876.784l.068-.161c.102.08.205.155.31.229l.022.228a6.271 6.271 0 0 0 .905.536l.022-.201c.104.05.207.096.31.137l.066.242c.302.12.595.204.876.253l-.023-.23c.098.017.193.028.288.036l.108.24c.278.019.543.004.793-.047L20 31.67a2.64 2.64 0 0 0 .25-.07l.141.225c.237-.082.457-.197.658-.345l-.11-.241c.068-.05.132-.105.194-.163l.168.192c.182-.175.343-.383.482-.62l-.143-.224c.045-.08.088-.16.128-.246l.182.149c.116-.26.207-.546.274-.86l-.168-.191a4.97 4.97 0 0 0 .055-.313l.183.096" fill="#330e17"/><path d="M21.84 28.033c0 3.094-2.129 4.34-4.755 2.783-2.627-1.557-4.756-5.327-4.756-8.42 0-3.094 2.13-4.34 4.756-2.784 2.626 1.557 4.755 5.327 4.755 8.42" fill="#4e1d29"/><path d="M20.76 27.39c0 2.39-1.646 3.355-3.675 2.152-2.03-1.203-3.675-4.115-3.675-6.505 0-2.39 1.645-3.353 3.675-2.15 2.03 1.202 3.674 4.114 3.674 6.504" fill="#582a36"/><path d="M20.371 27.045c0 2.078-1.43 2.915-3.194 1.87-1.764-1.046-3.194-3.578-3.194-5.656s1.43-2.915 3.194-1.87c1.764 1.046 3.194 3.578 3.194 5.656" fill="#e09015"/><path d="M14.253 23.419c0 1.902 1.31 4.22 2.924 5.177 1.614.957 2.923.19 2.923-1.711 0-1.902-1.309-4.22-2.923-5.177-1.615-.957-2.924-.191-2.924 1.71" fill="#b7511e"/><path d="M14.553 23.525c0-1.772 1.22-2.485 2.724-1.594 1.504.89 2.723 3.05 2.723 4.822 0 1.77-1.22 2.485-2.723 1.593-1.504-.891-2.724-3.05-2.724-4.821zm-.3-.106c0 1.902 1.31 4.22 2.924 5.177 1.614.957 2.924.19 2.924-1.711 0-1.902-1.31-4.22-2.924-5.177-1.615-.957-2.924-.191-2.924 1.71" fill="#e08217"/><path d="M15.456 23.595c0 1.418.976 3.144 2.18 3.857 1.112.66 2.03.22 2.16-.971.011-.096.017-.198.017-.304 0-.956-.444-2.054-1.103-2.885a4.006 4.006 0 0 0-1.075-.972c-1.203-.713-2.18-.142-2.18 1.275" fill="#d9681b"/><path d="M18.145 23.24c0 .23-.159.324-.354.208a.805.805 0 0 1-.354-.627c0-.23.158-.323.354-.207a.805.805 0 0 1 .354.627m-1.185-.484c.138.245.138.51 0 .59-.138.08-.362-.052-.5-.296-.139-.245-.139-.51 0-.59.138-.081.362.052.5.296m-.706.723a.805.805 0 0 1 .354.627c0 .23-.159.323-.354.207a.804.804 0 0 1-.354-.627c0-.23.158-.322.354-.207m.185 1.505c.14-.08.363.053.501.298.138.244.138.508 0 .589-.138.08-.362-.052-.5-.297-.139-.244-.139-.508 0-.59m.97 1.407c0-.23.157-.323.352-.207a.804.804 0 0 1 .354.627c0 .23-.158.323-.354.207a.804.804 0 0 1-.353-.627m1.184.483c-.138-.244-.138-.508 0-.59.138-.08.362.053.5.298.14.244.14.509 0 .59-.138.08-.362-.052-.5-.297m.706-.723a.806.806 0 0 1-.353-.627c0-.23.158-.323.353-.207a.805.805 0 0 1 .355.627c0 .23-.159.323-.355.207m-.185-1.506c-.138.08-.362-.052-.5-.296-.139-.245-.139-.51 0-.59.138-.08.362.052.5.297.138.244.138.508 0 .59" fill="#270b12"/><path d="M18.842 25.355c0 .282-.082.493-.22.618-.188.17-.808.532-.808.532l-1.46-2.573s.514-.301.658-.425c.188-.163.477-.167.8.024.57.337 1.03 1.153 1.03 1.823" fill="#270b12"/><path d="M18.123 25.823c0 .67-.46.94-1.03.603-.568-.338-1.03-1.154-1.03-1.824 0-.67.462-.94 1.03-.602.57.337 1.03 1.153 1.03 1.823" fill="#421721"/><path d="M17.883 25.766c0 .546-.376.766-.84.49-.463-.273-.838-.94-.838-1.484 0-.546.375-.766.84-.491.462.274.838.94.838 1.485" fill="#4e1d29"/><path d="m16.635 14.18-3.3 1.955 3.427.824 3.124 2.277 2.255 3.103.687 2.294 3.3-1.956-.057-.745-.538-1.754-2.248-3.047-3.097-2.374-3.553-.577" fill="#fabd22"/><path d="M13.335 16.135v.365l3.405.555 3.051 2.256 2.196 3.003.621 2.105.22.214-.057-.745-.539-1.754-2.247-3.047-3.097-2.374-3.553-.578" fill="#e8491e"/><path d="m26.071 21.932-3.3 1.956.057.745 3.3-1.956-.057-.745" fill="#f68c1f"/><path d="m25.533 20.178-3.3 1.956.538 1.754 3.3-1.956-.538-1.754m-5.345-5.421-3.3 1.956-3.553-.578 3.3-1.955 3.553.577" fill="#f9ad27"/><path d="m23.285 17.13-3.3 1.957 2.247 3.047 3.3-1.956-2.247-3.047" fill="#fccb27"/><path d="m35.327 16.1-.265-.157-.508-3.61h.203l2.91 1.725 1.833 3.508 3.705 2.196.163-.288 1.12.669.427.248-.809.912-8.78-5.203" fill="#4bc4d1"/><path d="m37.447 30.268-.26-3.293 1.14-.428.121-.31-10.096-5.985.57 1.633.366 4.39 1.87 2.66 6.29 1.333" fill="#3997a6"/><path d="m26.875 27.449 7.748 4.592 1.79-.471 6.383-4.04.85-1.05V24l-9.495.22-7.276-.43v3.659" fill="#270b12"/><path d="m26.875 25.22 7.748 4.34.817.23 7.025-4.33 1.18-1.46-6.767-3.061-2.727.802-7.276 2.05v1.43" fill="#1e0b10"/><path d="m26.253 31.28-.259-.153 1.685-7.777.26.153-1.686 7.777" fill="#e65b1b"/><path d="m26.253 31.28.486-.24 1.686-7.777-.487.24-1.685 7.777" fill="#8c371b"/><path d="m29.84 29.39-2.874-1.703.022-.372 2.873 1.703-.022.372" fill="#1e0b10"/><path d="m29.755 29.312-2.65-1.571-.007-.1 2.651 1.572.006.099" fill="#e58317"/><path d="m29.84 29.39 1.24-.935.02-.25-1.239.813-.022.372" fill="#270b12"/><path d="m29.861 29.018-2.873-1.703 1.24-.814 2.872 1.703-1.239.814" fill="#582a36"/><path d="m28.878 33.125-2.873-1.703.022-.372 2.873 1.703-.022.372" fill="#1e0b10"/><path d="m28.794 33.047-2.65-1.571-.007-.1 2.651 1.572.006.1" fill="#e58317"/><path d="m28.878 33.125 1.24-.935.021-.25-1.239.813-.022.372" fill="#270b12"/><path d="m28.9 32.753-2.873-1.703 1.24-.813 2.872 1.702-1.239.814" fill="#582a36"/><path d="m29.415 33.155.487-.242 1.685-7.776-.487.24-1.685 7.777" fill="#8c371b"/><path d="M29.415 33.155 29.156 33l1.685-7.777.26.153-1.686 7.777" fill="#e65b1b"/><path d="M47.467 24.106 32 33.274v2.45l15.468-9.167v-2.45" fill="#d9511e"/><path d="m45.77 23.005-13.63 8.078-.14 2.19 15.468-9.167-1.699-1.101" fill="#f9ad27"/><path d="m26.175 23.815 8.196 4.857 1.096.156 9.758-6 .093-1.003.01-1.477-11.35-.826-7.803 2.58v1.712" fill="#d9511e"/><path d="m35.467 28.828-1.096-.156V26.96l1.096.156v1.712" fill="#ed6419"/><path d="m26.175 22.102 8.196 4.858 1.096.156 9.78-5.872.08-.896-8.197-4.858-3.152.928-8.122 5.005.32.68" fill="#f9ad27"/><path d="m36.485 26.505-8.133-6.253-.446-1.335 16.754 1.468-.794 1.69-7.38 4.43" fill="#e4621b"/><path d="M34.554 1.99V.79L34.9.564l3.152.928 8.122 5.005.654 1.379-.265 1.018-.836-1.415-7.004-4.246-3.627-1.328-.135.326-.407-.241" fill="#4bc4d1"/><path d="m34.961 2.23-.204 10.103 2.91 1.725-3.113 2.927.783 2.887.954 5.129 8.197-4.858.936-3.406.882-8.076-.58-1.182-7.349-4.74-3.28-.834-.136.326" fill="#582a36"/><path d="m46.22 9.307-1.536-.382-1.425 9.977 1.35.8.787-2.865.823-7.53m-2.348 1.308-1.028 6.928-1.68 1.008-1.663-.985L38 14.53l.05-.466 5.821-3.45" fill="#6d7173"/><path d="m44.494 18.497-.412-1.082-2.413-1.403-3.72 2.05-.62 3.33-.89 3.069.482-.67 7.573-5.294" fill="#693a47"/><path d="m38.05 14.065 8.197-4.86.06-.544-8.198 4.859-.06.545" fill="#284a5a"/><path d="m36.291 25 8.37-4.616.267-1.405-.434-.482-6.623 3.974-1.432 1.99-.148.54" fill="#e4621b"/><path d="M26.764 7.089 26.56 17.19l2.911 1.725 1.832 3.508 3.705 2.196.163-.287 1.12.668.936-3.406.882-8.075-1.9-.4-7.349-4.74-1.96-1.617-.136.326" fill="#270b12"/><path d="m26.68 20.912-.93-1.65-.058-3.565.868 1.494 2.911 1.725 1.832 3.508 3.705 2.196.163-.287 1.12.668-.125.699-.066.508-9.42-5.296" fill="#e37318"/><path d="M29.98 9.477v9.19l1.73 3.447 2.931 1.737 1.263-10.53-5.924-3.844m8.07 4.588-1.536-.381-1.425 9.977 1.35.8.788-2.866.823-7.53m-8.986-4.51-2.31-1.922-.183 9.039 2.493 1.463v-8.58" fill="#402329"/><path d="m25.692 15.697.925-1.322-.057 2.816z" fill="#de8817"/><path d="M26.357 6.698v-1.05l.346-.226 1.832 1.71 8.122 5.005 1.974.597-.264 1.018-2.157-.633-7.004-4.246-1.853-1.35-.59-.434-.406-.391" fill="#e6551c"/><path d="m46.828 7.875-8.197 4.86-1.974-.598-8.122-5.005-1.832-1.71-.346.227L34.554.79 34.9.564l3.152.928 8.122 5.005.654 1.379" fill="#fabd22"/><path d="m28.535 7.132 9.517-5.64L34.9.564l-8.197 4.858 1.832 1.71" fill="#f9ad27"/><path d="m46.563 8.894-8.196 4.858.264-1.018 8.197-4.858-.265 1.018" fill="#e6b520"/><path d="m29.385 6.668 8.31 4.654.036.055-.266.165-8.137-4.762.057-.112" fill="#de8817"/><path d="m29.595 6.543 8.1 4.78-.174.107-8.136-4.762.21-.125" fill="#fccb27"/><path d="m30.934 5.755 8.31 4.654.036.054-.266.166-8.137-4.763.057-.112" fill="#de8817"/><path d="m31.144 5.63 8.1 4.779-.173.107-8.137-4.762.21-.124" fill="#fccb27"/><path d="m32.483 4.84 8.31 4.655.036.055-.266.165-8.137-4.762.057-.113" fill="#de8817"/><path d="m32.693 4.716 8.1 4.78-.173.107-8.137-4.763.21-.124" fill="#fccb27"/><path d="m34.032 3.927 8.31 4.655.036.054-.266.166-8.137-4.763.057-.112" fill="#de8817"/><path d="m34.242 3.803 8.1 4.78-.173.106-8.137-4.762.21-.124" fill="#fccb27"/><path d="m35.582 3.013 8.31 4.655.035.055-.266.165-8.137-4.762.058-.113" fill="#de8817"/><path d="m35.791 2.889 8.1 4.78-.173.107-8.136-4.763.21-.124" fill="#fccb27"/><path d="m37.131 2.1 8.31 4.655.035.054-.266.166-8.137-4.762.058-.113" fill="#de8817"/><path d="m37.34 1.975 8.1 4.78-.173.107L37.131 2.1l.21-.124m8.833 4.52-9.517 5.64 1.974.598 8.197-4.858-.654-1.38" fill="#fccb27"/><path d="m39.853 12.878.236-.722 4.772-2.886.383.413-5.39 3.195" fill="#282321"/><path d="m40.808 11.889-.56.33v.279l.65-.556-.09-.053" fill="#db6133"/><path d="m40.9 11.942-.56.33v.28l.56-.337v-.273" fill="#f57734"/><path d="m40.338 12.272-.09-.054v.28l.09.054v-.28" fill="#d94f20"/><path d="m42.852 10.667-.56.33v.279l.65-.556-.09-.053" fill="#db6133"/><path d="m42.943 10.72-.56.33v.28l.56-.337v-.273" fill="#f57734"/><path d="m42.382 11.049-.09-.053v.28l.09.053v-.28" fill="#d94f20"/><path d="m44.781 9.52-.56.33v.28l.65-.556-.09-.053" fill="#db6133"/><path d="m44.872 9.575-.56.329v.28l.56-.337v-.273" fill="#f57734"/><path d="m44.311 9.904-.09-.053v.28l.09.052v-.28" fill="#d94f20"/><path d="M29.516 8.522a.43.43 0 0 0 .2.396l.655.412c.106.076.236.019.24-.106v-.02L30.615 9a.342.342 0 0 0-.159-.314l-.473-.301-.263-.168c-.08-.05-.17-.011-.18.076l-.025.23" fill="#c3c4c2"/><path d="m30.164 8.975.446.23.006-.206a.342.342 0 0 0-.159-.314l-.473-.301-.02.195a.43.43 0 0 0 .2.396" fill="#dde3e5"/><path d="M39.7 12.675c-.003.118-.086.248-.208.322l-.584.356c-.096.065-.198.026-.187-.072l.002-.015.016-.163c.002-.094.07-.197.165-.256l.423-.26.235-.145c.071-.044.143-.017.141.052l-.004.18" fill="#c3c4c2"/><path d="m39.117 13.063-.394.203.016-.163c.002-.094.07-.197.165-.256l.423-.26-.003.153c-.003.119-.087.248-.207.323" fill="#dde3e5"/><path d="M46.447 8.665a.42.42 0 0 1-.207.323l-.585.356c-.097.065-.197.026-.187-.072l.002-.015.016-.163c.002-.094.07-.197.165-.256l.423-.26.235-.145c.071-.044.143-.017.141.052l-.004.18" fill="#c3c4c2"/><path d="m45.864 9.054-.394.203.016-.163c.002-.094.07-.197.165-.256l.423-.26-.003.153c-.003.118-.086.248-.207.323" fill="#dde3e5"/><path d="m23.72 7.869-4.81 2.85-4.92-1.486 4.81-2.85 4.92 1.486" fill="#f47119"/><path d="m38.347 22.655-.476-.184 6.623-3.974.434.482-.028.1-.336-.11-6.216 3.685" fill="#fccb27"/><path d="m26.571 16.672 2.05-1.766v-5.72l-1.868-1.553-.182 9.039" fill="#563b41"/><path d="m44.564 18.97-6.216 3.684-.712 3.16 6.23-3.74.698-3.104" fill="#f68c1f"/><path d="m34.742 15.405-.497.05c-.406.083-.736.602-.736 1.158v3.228c0 .556.33.938.736.854l.68-.12c.406-.084.552-.533.552-1.09V16.26c0-.557-.329-.94-.735-.855" fill="#18110e"/><path d="m34.742 15.495-.497.05c-.406.084-.736.603-.736 1.159v3.227c0 .556.33.938.736.854l.68-.12c.406-.083.552-.532.552-1.088V16.35c0-.556-.329-.94-.735-.855" fill="#282321"/><path d="M37.043 12.735 35.2 14.539a2.374 2.374 0 0 0-.707 1.696v4.047l.023.014c.033.01.061.023.095.029.096.015.146 0 .19-.042v-3.877c0-.627.245-1.228.68-1.668l1.7-1.722.02-.21-.158-.072" fill="#261f1b"/><path d="m38.49 10.67-2.192-.172-1.19-.701a.689.689 0 0 1 .082-.05c.151-.08.353-.121.56-.13v-.005l1.477-.03 1.23.72.032.368m-2.912-.233a1.217 1.217 0 0 1-.338-.09c-.162-.072-.254-.17-.275-.27l.613.36" fill="#d86b1b"/><path d="m35.873 10.465-.187-.015v-.001a2.753 2.753 0 0 1-.109-.012l-.613-.358a.217.217 0 0 1 .016-.137l.893.522" fill="#bd501e"/><path d="m36.297 10.498-.424-.034-.893-.522c.023-.05.066-.1.13-.145l1.188.7" fill="#d7721a"/><path d="m38.421 9.923-.597-.352.564-.011.033.363" fill="#d86b1b"/><path d="m38.456 10.302-1.23-.72.242-.004.973.57.015.154" fill="#bd501e"/><path d="m38.441 10.148-.973-.57.356-.007.597.352.02.225" fill="#d7721a"/><path d="m37.482 9.435 2.013-.03v.756c.01.126-.078.253-.266.353-.377.198-1.014.21-1.423.023-.206-.094-.314-.22-.323-.346v-.756" fill="#a6cbc7"/><path d="m37.575 7.555 1.734-.02.186 1.87c.01.126-.078.253-.266.353-.377.199-1.014.21-1.423.023-.206-.093-.314-.22-.323-.346l.092-1.88" fill="#d75e1c"/><path d="M37.805 7.253c.325-.172.873-.18 1.226-.02.352.16.374.43.05.6-.326.173-.874.18-1.227.02-.352-.16-.374-.428-.05-.6" fill="#f79924"/><path d="M37.794 9.08c.35-.184.942-.194 1.321-.021.38.173.403.463.054.648-.35.185-.942.195-1.322.022-.379-.173-.403-.463-.053-.648" fill="#f78e1e"/><path d="M38.747 8.378c.09.25.128.65.033.883-.096.23-.516.166-.607-.084-.09-.25-.064-.38.032-.61.095-.233.451-.44.542-.19" fill="#f78e1e"/><path d="M38.407 8.59c.075.257.071.616-.009.803-.08.187-.206.13-.282-.125-.075-.256-.07-.614.01-.801.08-.187.205-.131.281.124" fill="#f79924"/><path d="m32.723 26.495 1.13.664v.564l-1.312-1.12.182-.108" fill="#db6133"/><path d="m32.541 26.603 1.13.664v.564l-1.13-.678v-.55" fill="#f57734"/><path d="m33.671 27.267.182-.108v.564l-.182.108v-.564" fill="#d94f20"/><path d="m61.551 38.639.003.007-.106.064a3.06 3.06 0 0 1-.32.19l-13.943 8.273-2.07-3.235-1.207-1.891-3.285-5.133-.66-1.4-1.555-3.31-.808-1.718 14.012-8.297.004.01c1.065-.74 2.533-.8 4.187-.035.244.113.494.244.745.392.857.508 1.68 1.185 2.434 1.979 1.714 1.806 3.087 4.216 3.775 6.632.222.783.374 1.563.44 2.329.032.306.046.613.046.913 0 2.01-.642 3.457-1.692 4.23" fill="#2d2325"/><path d="M63.197 33.495 45.115 43.939l-1.206-1.891-3.285-5.133-.66-1.4-1.555-3.31 17.395-10.04c.244.113.494.244.745.392.857.508 1.68 1.185 2.434 1.979 1.714 1.806 3.087 4.216 3.775 6.632.222.783.374 1.563.44 2.329" fill="#372a2e"/><path d="m62.757 31.167-18.85 10.88-3.284-5.133-.66-1.4 19.02-10.98c1.713 1.807 3.086 4.217 3.774 6.633" fill="#46363a"/><path d="m63.13 35.797-15.305 9.07 2.344.536L61.126 38.9c.111-.057.218-.12.322-.19l.106-.064-.004-.008c.79-.58 1.35-1.543 1.58-2.84" fill="#171213"/><path d="m64.97 37.26-15.467 9.168 2.63.6 12.66-7.502.177-2.266" fill="#262324"/><path d="m54.307 44.804-1.44.844.042-.894 1.441-.844-.043.894" fill="#edeeeb"/><path d="m54.307 44.804-.418-.218-1 .585.02-.417 1.441-.844-.043.894" fill="#acaead"/><path d="m54.35 43.91-.043.894-1.44.844-.006.11 1.537-.9.048-1.005-.096.057" fill="#343133"/><path d="m53.414 44.867-.455.266.014-.297.455-.266-.014.297" fill="#fff"/><path d="m52.866 45.648-.005.11 1.537-.9-.09-.054-1.442.844" fill="#616062"/><path d="m64.215 38.952-1.442.843.043-.893 1.442-.844-.043.894" fill="#edeeeb"/><path d="m64.215 38.952-.418-.218-1 .585.02-.417 1.44-.844-.042.894" fill="#acaead"/><path d="m64.257 38.058-.042.894-1.442.843-.005.11 1.537-.9.05-1.004-.097.057" fill="#343133"/><path d="m63.321 39.015-.455.266.015-.297.455-.267-.015.298" fill="#fff"/><path d="m62.773 39.795-.005.11 1.537-.9-.09-.053-1.442.843" fill="#616062"/><path d="m63.272 36.159-13.63 8.078-.14 2.19L64.97 37.26l-1.698-1.101" fill="#343133"/><path d="M49.2 42.73c0 4.356-2.998 6.11-6.696 3.919-3.698-2.192-6.696-7.5-6.696-11.855 0-4.356 2.998-6.11 6.696-3.92 3.698 2.193 6.695 7.5 6.695 11.856" fill="#e58317"/><path d="M48.883 42.545a7.12 7.12 0 0 1-.19 1.71 4.76 4.76 0 0 1-.253.777l-.005.016c-.67 1.592-2.04 2.352-3.748 2.068a4.675 4.675 0 0 1-.342-.067 6.57 6.57 0 0 1-1.85-.776c-.77-.455-1.505-1.055-2.185-1.753-.292-.3-.574-.62-.847-.952l-.004-.004c-.182-.223-.353-.45-.524-.683l-.006-.005c-1.692-2.358-2.805-5.3-2.805-7.896 0-.735.09-1.391.257-1.965.372-1.283 1.138-2.14 2.156-2.488.367-.13.775-.19 1.214-.175l.067.007c.034 0 .068 0 .104.003l-.048.003c.404.022.828.1 1.277.25.433.145.887.357 1.355.63 3.521 2.09 6.377 7.147 6.377 11.3" fill="#5b2d39"/><path d="M48.883 42.545a7.12 7.12 0 0 1-.19 1.71 4.76 4.76 0 0 1-.253.777l.01-.067c-.655 1.64-2.03 2.43-3.763 2.15a4.675 4.675 0 0 1-.342-.066 6.57 6.57 0 0 1-1.849-.776c-.77-.455-1.506-1.055-2.186-1.753a12.752 12.752 0 0 1-.847-.952l-.004-.004c-.182-.223-.353-.45-.524-.683l-.006-.005c-1.697-2.353-2.81-5.3-2.81-7.891 0-.734.09-1.396.262-1.97.372-1.283 1.138-2.14 2.156-2.488a3.294 3.294 0 0 1 1.21-.17l.004-.005.067.007c.034 0 .068 0 .104.003l-.048.003c.404.022.828.1 1.277.25.433.145.887.357 1.355.63 3.521 2.09 6.377 7.147 6.377 11.3" fill="#84381a"/><path d="M48.883 42.545a7.12 7.12 0 0 1-.19 1.71c-.626.363-1.603.91-1.679.968-.997.73-.579-.31-2.2-1.272-3.008-1.78-5.446-6.096-5.446-9.643 0-1.516-1.22-1.795-.474-2.451.182-.16 2.025-1.128 2.257-1.242.433.145.887.357 1.355.63 3.521 2.09 6.377 7.147 6.377 11.3" fill="#6e4350"/><path d="M48.434 41.744c0 3.543-2.439 4.97-5.447 3.188-3.008-1.783-5.447-6.101-5.447-9.645 0-3.543 2.44-4.97 5.447-3.187 3.008 1.783 5.447 6.1 5.447 9.644" fill="#704e59"/><path d="M47.825 41.382c0 3.148-2.165 4.415-4.84 2.833-2.67-1.582-4.836-5.42-4.836-8.568 0-3.144 2.166-4.411 4.836-2.83.226.136.453.286.67.45 2.11 1.594 3.783 4.53 4.115 7.194.035.31.055.62.055.92" fill="#5b2d39"/><path d="m47.77 40.46-2.15 1.278-4.147-7.177 2.181-1.293c2.111 1.593 3.784 4.53 4.116 7.193" fill="#5b2d39"/><path d="M46.372 39.9c0 1.877-1.293 2.633-2.887 1.689-1.594-.945-2.886-3.233-2.886-5.11 0-1.88 1.292-2.635 2.886-1.69 1.594.945 2.887 3.233 2.887 5.11" fill="#704e59"/><path d="m33.31 28.9 10.458 8.36 6.907 4.658 1.631 2.888-.644.347-.178 2.265L33.4 37.48l-2.833-7.64 1.544-.782 1.2-.158" fill="#fabd22"/><path d="m36.604 31.533-.71-.567 10.74-6.365v.536l-.254.15-8.454 5.006c-.528.27-.976.688-1.322 1.24" fill="#c74121"/><path d="M35.894 30.966 34.6 29.93c.035-.022 9.297-5.814 10.023-5.825h.021c.73 0 1.983.492 1.99.495l-10.739 6.365" fill="#ed841b"/><path d="m37.927 30.293 8.453-5.006-8.347 4.954a2.998 2.998 0 0 0-.107.052" fill="#2a1a15"/><path d="m36.932 31.795-.328-.262a3.376 3.376 0 0 1 1.43-1.292l-.007.003-.487.283c-.625.5-.932.999-.932.999l.33.262-.006.008" fill="#d4651c"/><path d="m38.121 32.746-1.19-.95.005-.008 1.188.952-.003.006" fill="#792b18"/><path d="m38.751 33.25-.63-.504a.05.05 0 0 0 .003-.006l.63.505a.032.032 0 0 1-.003.005" fill="#673b2c"/><path d="m40.973 35.025-2.222-1.775.004-.005 2.22 1.778-.002.003" fill="#54231f"/><path d="M43.77 37.262v-.001m0 0-2.797-2.235.001-.003 2.794 2.237" fill="#673b2c"/><path d="M48.313 40.325c-.985-.104-6.05-3.412-6.05-3.412l-9.604-6.586 1.492-.754.448.358 1.295 1.035.71.567.328.263 1.19.95.63.504 2.221 1.776 2.795 2.234h.002v.002h.003l4.54 3.063" fill="#ec901b"/><path d="m31.767 29.683 18.264 12.582 1.631 2.888-.178 2.265-.999.369-17.667-10-2.525-2.375.274-5.57 1.2-.16" fill="#e55d1b"/><path d="m52.307 44.805-.645.348-.178 2.265.65-.39.172-2.222M35.467 27.115v1.713l9.758-6 .022-1.584-9.78 5.872" fill="#f68c1f"/><path d="m36 26.227 1.636-.414-1.15.69-.828.1.341-.376" fill="#f9ad27"/></g><path d="m51.456 67.024-.064.177a1.336 1.336 0 0 0-.02.268c.002.025.23.17.616.228.386.058.928.082 1.29.138.364.056.741.094.986-.018s.287-.309.287-.309l.003-.32s-.038-.166-.188-.179c-.15-.013-2.91.015-2.91.015" fill="#241e1a"/><path d="M52.87 66.524s.342.145.491.201c.15.057.83.179.874.196.044.017.262.12.202.374-.061.254-.31.316-.837.32-.527 0-.958-.043-1.492-.117-.534-.074-.692-.25-.691-.318 0-.068.003-.326.006-.367.003-.04 1.446-.29 1.446-.29" fill="#cc9f43"/><g clip-path="url(#a)" transform="matrix(.03528 0 0 -.03528 21.071 143.184)"><path d="m950.93 2131.22-2.711 49.17-10.852-.59 2.711-49.17c.043-.8.617-1.58 1.723-2.14 2.199-1.11 5.633-.93 7.676.41 1.031.67 1.507 1.51 1.453 2.32" fill="url(#b)"/></g><path d="M54.471 66.346a.298.298 0 0 1-.271.014c-.077-.04-.082-.11-.01-.156a.298.298 0 0 1 .271-.014c.077.039.082.109.009.156" fill="#848287"/><path d="M56.159 67.494s-.693-.117-.91 0a1.666 1.666 0 0 0-.379.293l-.426.316-.428.417-.407.311-.478.353s-.43.258-.498.373c-.068.115.177.4.177.4l.5.324 1.587.476.907.081 1.25.204s1.396.04 1.518-.19c.122-.23.489-.407.489-.407s.122-.112.474-.164c.353-.053.95-.57.95-.57l.162-.31-.556-.597-.298-.014-.922-.312-1.261-.543-.76-.378-.691-.063" fill="#191b21"/><path d="m55.585 67.897-.019-.01c-.01.07-.015.15.035.197a.21.21 0 0 0 .103.044c.115.026.231.048.348.065-.05 0-.1.01-.15.013.035 0 .056.038.056.073.001.034-.009.07.002.101.024.07.117.073.181.108l.026.023c.028.05-.07.103-.046.155a1.296 1.296 0 0 0-.395-.126c-.039.035.018.095.012.147l-.016.053c-.014.063.05.115.11.142.059.027.13.056.145.119.051.204-.38.101-.464.077.124.174.274.33.444.46l-.324.216c-.031.02-.063.042-.077.076-.037.088.066.167.155.202.197.078.407.127.619.143.005.11.013.229.082.316.082.105.227.134.36.155l.442.071-.022.121.977-.029a.141.141 0 0 0-.082-.1c.073-.073.151-.141.232-.207-.086-.042-.184-.103-.183-.199 0-.06.046-.114.1-.143.055-.028.117-.036.178-.044l.301-.037a2.276 2.276 0 0 1-.283-.374l.272-.13a1.168 1.168 0 0 0-.544-.393c.247-.032.497-.065.746-.042.31.03.605.143.897.254.057.022.119.043.178.029.06-.015.109-.084.08-.139L60 69.231a2.88 2.88 0 0 0-.27-.138l.078-.068c-.118-.074-.191-.203-.299-.291-.155-.128-.368-.162-.568-.154-.076 0-.154.011-.228-.01-.053-.014-.1-.043-.15-.067-.157-.076-.333-.103-.506-.129.03-.029-.014-.074-.053-.09l-.623-.273c-.032-.014-.067-.03-.083-.062l-.016-.093c-.019-.094-.124-.138-.215-.168-.153-.05-.295-.119-.458-.12-.192 0-.384.013-.574.043l.097.045c.032.015.067.032.081.064.019.041-.004.089-.034.122-.107.113-.285.106-.439.091.041.001.082 0 .123.01a2.006 2.006 0 0 1-.278-.047" fill="#282930"/><g clip-path="url(#c)" transform="matrix(.03528 0 0 -.03528 21.071 143.184)"><path d="m955.859 2184.85-1.812 32.76-26.574-1.46 1.804-32.73c.106-1.98 1.52-3.88 4.223-5.25 5.371-2.73 13.789-2.28 18.805 1 2.523 1.65 3.691 3.7 3.554 5.68" fill="url(#d)"/></g><path d="M54.602 65.151a.735.735 0 0 1-.663.036c-.19-.096-.2-.267-.023-.383a.734.734 0 0 1 .663-.036c.19.096.2.268.023.383" fill="#848287"/><path d="M48.339 69.069s-.094.042-.115.132c-.02.089-.02.256-.02.256s.136.351.134.541c0 .19.13.781.34.925.211.143.803.226 1.046.132s.4-.182.437-.256c.038-.074.031-.392.031-.392l-.2-.316-1.653-1.022" fill="#241e1a"/><path d="M49.555 68.883s.171.422.183.532c.011.11.377.914.36 1.028-.015.114-.115.315-.628.334-.514.018-.848-.126-.923-.322-.075-.197-.161-.712-.175-.821-.014-.11-.109-.294-.102-.376.006-.08.033-.369.034-.432 0-.063 1.251.057 1.251.057" fill="#cc9f43"/><path d="M53.011 66.739c-.027.116-.446.372-.847.395a1.18 1.18 0 0 1-.436-.065c-.203-.067-.344-.159-.344-.159s-.016-.726-.03-1.48c-.012-.754.064-1.256.069-1.319.005-.063-.062-.485-.093-.896a48.88 48.88 0 0 1-.065-1.311l-.004-.118s-.582-1.706-.12-2.04c.462-.336 1.209-1.06 1.421-.732.213.327.462 1.351.525 1.812.064.46.21 1.7.23 2.038.019.336-.278 3.76-.305 3.875" fill="#3256a2"/><path d="M51.728 67.069c-.203-.067-.344-.159-.344-.159s-.016-.727-.03-1.48l-.001-.177c0-.655.065-1.084.07-1.142v-.01c0-.085-.064-.492-.093-.888a27.565 27.565 0 0 1-.04-.726.895.895 0 0 0 .04-.09c.094-.252.3-.639.388-.954l.278.561.385.176-.382.279s-.075 1.172-.045 1.592c.016.232-.062.715-.114 1.442-.032.455.015 1.078-.113 1.574" fill="#263b74"/><path d="M51.757 61.245c-.026.332-.311.845-.426 1.154-.115.308-.572.808-.643.91-.072.104-.291 1.501-.336 1.96-.045.46-.67 3.674-.69 3.7-.02.026-.276.287-.736.25a1.132 1.132 0 0 1-.353-.084c-.224-.097-.333-.242-.317-.285.024-.062-.042-2.108-.046-2.979-.004-.87.148-1.829.148-2.25-.001-.422-.406-2.1-.434-2.708-.026-.607.096-1.217.096-1.217s.234-.075.566-.177c.726-.224 1.924-.579 2.19-.564.389.02.857.52.982.784.124.264.025 1.172 0 1.506" fill="#3c60ae"/><path d="M48.573 69.135c-.21-.09-.318-.223-.318-.276 0 0 0-.01.002-.01a1.15 1.15 0 0 0 .005-.15c0-.497-.048-2.087-.052-2.828v-.036c0-.86.148-1.795.148-2.212 0-.001 0 0 0 0 0-.422-.406-2.1-.433-2.708a3.54 3.54 0 0 1-.004-.177c0-.346.04-.674.07-.865 0 .01.002.01.003.013.054.215.052.288.242.361l.169.064c-.037.25-.122.918-.052 1.175.086.32.298 1.452.326 1.862.028.41-.179 1.673-.184 2.34-.004.507.081 2.242.078 3.45" fill="#274081"/><path d="M54.028 56.392a.686.686 0 0 1-.258.1c-.121.012-.168-.06-.232-.096l-.046-.047c-.167-.206-.633-1.012-.734-1.198-.083-.152.463-.548.761-.75.11-.073.185-.12.185-.12s.652 1.139.714 1.293c.063.155-.056.624-.39.818" fill="#fab597"/><g clip-path="url(#e)" transform="matrix(.03528 0 0 -.03528 21.071 143.184)"><path d="m956.465 2218.15-7.102 128.66-31.453-1.74 7.098-128.61c.125-2.33 1.793-4.6 4.996-6.21 6.355-3.22 16.324-2.69 22.258 1.19 2.98 1.95 4.367 4.37 4.203 6.71" fill="url(#f)"/></g><path d="M54.873 58.93a1.338 1.338 0 0 0-.352.148l-.024.012c-.542.232-1.198.593-1.312.774-.038.059-.028.146.026.233.088.141.291.279.606.247.504-.053.682-.322.8-.606l.024-.059c.197-.458.232-.662.232-.75m-1.15 1.963c-.481 0-.815-.254-.973-.51-.163-.264-.172-.575-.023-.81.258-.405 1.303-.872 1.544-.975.293-.161.709-.34.98-.094.308.278.128.833-.111 1.39l-.022.052c-.086.21-.349.845-1.245.94-.05.01-.1.01-.15.01" fill="#a6ac96"/><path d="M55.161 59.221c-.01.041-.018.074-.02.09-.008.064-.087.061-.087.061s-.006.027-.054.087c-.049.06-.094.034-.094.034l-.076.055s-.027.042-.153.08c-.125.037-.11-.066-.11-.066h-.035l-.056-.01c-.05-.017-.034-.176-.034-.176s-.055-.123-.067-.23c-.012-.106-.225-.426-.225-.426s-.018-.038-.082 0c-.064.043-.205.232-.205.232s-.13-.078-.117-.117c.014-.04.12-.26.12-.26l.029-.028.042-.045.063-.08.019-.066a1.92 1.92 0 0 0 .016-.336c-.005-.198-.228-.739-.308-.929-.08-.19-.254-.666-.235-.748.018-.082.261-.27.349-.44l.054-.089c.04-.062.088-.12.129-.168a.316.316 0 0 1 .262-.11c.056 0 .11.012.132.032.053.048.179.353.283.871.104.518.134 1.607.178 1.737.044.13.204.176.263.252.058.076.089.428.092.473.002.032-.045.2-.072.313" fill="#fab597"/><path d="M53.491 56.35c-.104-.13-.326-.494-.502-.795a43.517 43.517 0 0 0-.008-.433c.1-.036.208-.08.278-.121.126-.073.275-.193.356-.28-.096.135-.226.308-.304.37a8.262 8.262 0 0 1-.185.144l.455.802.314-.217-.054.09c-.088.169-.332.356-.35.439" fill="#f7916e"/><path d="M54.019 58.363a1.697 1.697 0 0 0 .016-.335c-.005-.198-.228-.739-.308-.929-.076-.18-.236-.619-.237-.733l.001-.016c.018-.082.262-.27.35-.44l.053-.089h.001c-.01.025-.176.42-.182.5a.7.7 0 0 0 .057.172c.107.267.33.762.358 1.002.039.32.07.604.049.657-.015.033-.095.121-.159.211m-.317-3.767.036-.053-.035.053" fill="#f7916e"/><path d="M52.734 55.204s.362-.107.526-.203c.163-.096.368-.27.408-.349.04-.079.245-.355.247-.375.002-.02-.556-.975-.715-1.28-.16-.305-.57-.895-.914-1.092-.345-.197-.283.658-.228 1.077.056.419.676 2.222.676 2.222" fill="#f14636"/><path d="M52.609 58.432c-.019.23.192.756.201.805.01.048-.171.367-.243.409a1.716 1.716 0 0 0-.186.178c-.171.177-.407.425-.49.476a1.552 1.552 0 0 1-.278.114 4.192 4.192 0 0 1-1.945.127 6.118 6.118 0 0 1-1.226-.319l-.023-.01c-.36-.144-.378-.272-.373-.328.008-.102.035-.542.042-.71a.458.458 0 0 0-.054-.216c.002-.174-.005-.348-.003-.522l.008-.093c.007-.088.09-.298.189-.501.097-.204.005-.666 0-.953a2.26 2.26 0 0 0-.007-.113 45.21 45.21 0 0 0-.116-1.112l-.004-.035-.067-.603a55.473 55.473 0 0 1-.132-1.257c-.049-.596.11-.882.252-1.048.142-.166.518-.456.947-.803.429-.347.702-.367.702-.367s1.343.229 1.485.206c.143-.023.715.016.998.146.224.256.541 1.07.643 1.581.103.511.04 1.48-.036 1.67-.058.145-.1.628-.131 1.124l-.03.476c-.034.623-.106 1.447-.124 1.677" fill="#ee2730"/><path d="M52.762 58.235c-.038.265-.076.544.02.793.027.073.067.143.073.22.011.121-.057.234-.126.335a4.068 4.068 0 0 1-.175.24 2.51 2.51 0 0 1-.09.106 1.75 1.75 0 0 1-.177.175 2.52 2.52 0 0 1-.595.357l-.172.079c-.13.058-.26.116-.4.146-.171.036-.348.027-.523.027h-.261c-.208 0-.417.01-.623-.016a3.598 3.598 0 0 1-.65-.162 15.44 15.44 0 0 1-.643-.223l-.184-.07c-.19-.073-.188-.147-.242-.362-.042-.163-.016-.336.01-.502.021-.14.028-.282.03-.423.002-.174-.005-.348-.003-.522 0-.151.008-.301.031-.45.06-.39.12-.784.091-1.176-.003-.032.03-.037.068-.033.038 0 .083.016.107.018.087.01.174.017.262.025l.535.053c.212.02.38.026.515.013a.817.817 0 0 0 .234-.055.399.399 0 0 0 .159-.119c.13-.165-.025-.76.722-.758.34 0 .694-.151 1.022-.229.135-.032.268-.068.4-.107.105-.032.211-.086.32-.085h.026l.023.031c.025.052.065.096.09.148.05.104.02.318.014.433-.003.048.003.109.047.125h.065l.054.014.018.045c.012.071.026.141.037.212v.922l-.109.763" fill="#3c60ae"/><path d="M50.535 56.629s-.081.92-.01 1.008c.037.046.913.306.913.306l.63-.582c.052-.05.13-1.076.094-1.155-.035-.08-1.631.223-1.627.423" fill="#4a70c0"/><path d="M50.725 56.448s-.22.07-.233.156c-.011.085-.007.224.025.274.032.05.893.121.915.101.02-.021.75-.41.755-.487.006-.077.054-.327.017-.34-.037-.014-.438.036-1.479.296" fill="#688dd0"/><path d="M52.419 55.888s.375-2.52-.184-3.45c-.56-.929-1.393-1.16-1.393-1.16l-.359.265s.84.316 1.269.932c.516.743.21 3.487.21 3.487l.457-.074" fill="#4a70c0"/><path d="M52.381 55.622c-.003.075-.071.145-.15.155-.08.01-.14-.044-.137-.12a.174.174 0 0 1 .151-.154c.08-.01.14.044.137.12" fill="#f5782d"/><path d="M51.926 52.547c.173.712-.182.95-.194 1.121a357.29 357.29 0 0 0-.102 4.862c.006.217 1.037.148 1.242-.273a.561.561 0 0 0 .031-.097c.024-.103.042-.261.057-.454.076-1.074.004-3.231.004-3.231s-.217-1.535-.447-2.052c-.213-.475-.39-.612-.418-.631h-.004l-.602-.2-.1-.035-.105.205s.465.076.638.79" fill="#acd91e"/><path d="M51.476 51.612c.034.025.494.363.583 1.174l.013.132c.015.203.022.425-.046.62-.047.135-.163.22-.164.376a745.9 745.9 0 0 0-.022 1.832 251.973 251.973 0 0 0-.013 1.985c0 .133.001.265.007.397.002.053.001.111.016.163l.022.049a.206.206 0 0 0 .167.074h.025c.15-.01.507-.085.838-.254.024-.103.043-.261.057-.454-.24.18-.578.285-.772.325-.004-.373 0-.747.002-1.121.004-.557.009-1.114.016-1.671l.008-.679c0-.109.003-.218.004-.327 0-.054 0-.109.002-.163 0-.053-.004-.123.018-.173l.053-.077a.829.829 0 0 0 .086-.195c.07-.233.07-.485.053-.724a4.94 4.94 0 0 0-.014-.155 2.277 2.277 0 0 0-.321-.959l-.602-.2-.017.025" fill="#8fc0d1"/><path d="M50.821 56.284s.184-2.238-.375-3.167a2.753 2.753 0 0 0-1.099-1.038c-.176-.09-.447-.024-.447-.024l-.134.085-.184.185s.272-.044.489.075c.278.154.65.405.891.752.517.743.402 3.205.402 3.205l.457-.074" fill="#4a70c0"/><path d="M50.771 55.996a.173.173 0 0 1-.151.155c-.08.01-.14-.043-.137-.12.004-.076.072-.144.151-.154.08-.01.14.044.137.12" fill="#f5782d"/><path d="M48.111 57.126a7.09 7.09 0 0 0-.018.66c.025.33.654.362 1.363.577.71.215 1.522.279 1.61-.327.087-.608.22-3.044.19-3.755-.029-.712-.27-.942-.628-1.275-.361-.336-.952-.494-1.176-.775-.224-.28 0-.46 0-.46s.637-.57.012-.157a13.29 13.29 0 0 0-.601.44c-.469.36-.89.726-.89.726s.288 2.503.27 2.606c-.009.06-.064.718-.106 1.337-.01.14-.017.276-.025.403" fill="#acd91e"/><path d="M48.111 57.126c1.166.67 2.434.768 2.504.773l.173.013.017-.176c.013-.114.283-2.813.224-3.47-.064-.7-.53-1.307-1.282-1.661-.548-.26-.55-.745-.55-.767h-.047c-.095.07-.192.143-.287.218.057.244.224.635.73.873.634.302 1.026.8 1.077 1.37.048.53-.144 2.599-.205 3.224-.399-.053-1.427-.237-2.328-.798l-.026.403" fill="#8fc0d1"/><path d="M51.814 60.532h-.003l.005-.128c.168-.083.33-.177.472-.298a1.75 1.75 0 0 0 .177-.175l.188.238a.888.888 0 0 0 .097.216c.004.01.01.014.014.022l-.95.128" fill="#263b74"/><path d="M51.811 60.531c-.013-.01-.057-.034-.118-.07a5.52 5.52 0 0 0 .123-.06c0 .043-.003.085-.005.129" fill="#274081"/><path d="M52.764 60.405c-.005-.01-.01-.014-.014-.022a.892.892 0 0 1-.097-.217l.182.229-.07.01" fill="#46617b"/><path d="m51.693 60.461-.08-.047-.571-.336-.62-.234-.733-.268-.618-.204-.64-.222s-.027.256.075.394c.1.137-.008.296-.04.436-.018.079-.013.162-.024.243l-.022.092c-.005 0-.01 0-.015-.01a10.051 10.051 0 0 1-.169-.064c-.19-.073-.188-.147-.242-.362l-.003-.013a.786.786 0 0 1-.019-.177c0-.104.016-.209.032-.311a2.975 2.975 0 0 0 .03-.497c0-.128-.003-.255-.003-.383v-.065c.001-.15.009-.301.032-.45l.03-.202s0 .001 0 0c.01.137.126.223.31.292a.233.233 0 0 0 .04.066c.072.196.772.557 1.75.838.976.28 1.741.32 1.875.447l.314.394.083.105c-.055.062-.113.12-.177.175a2.254 2.254 0 0 1-.471.298l-.124.059m-.061-2.09a45 45 0 0 1-.578-.266.601.601 0 0 0 .014-.07l.009-.068c.151.062.367.165.557.259l-.002.145" fill="#274081"/><path d="M52.136 58.595c-.15-.065-.324-.142-.505-.224 0-.042 0-.09.002-.145l.252.127a.183.183 0 0 0 .111.057l.055.028.085.157" fill="#4b9735"/><path d="M51.996 58.411a.229.229 0 0 1-.112-.058l.112.057" fill="#466daa"/><path d="M48.121 55.813c-.004-.049-.01-.098-.016-.148l-.004-.035-.067-.603c.057-.041.114-.079.172-.113.026.26.041.446.036.472a12.68 12.68 0 0 0-.032.364c-.032.02-.061.041-.088.062" fill="#5b0f1c"/><path d="M51.053 58.105a19.495 19.495 0 0 1-.425-.206l.16.012.006-.06a.672.672 0 0 0 .155.07c.033.01.077.025.127.046a.732.732 0 0 1-.023.138m-2.651-.026c-.183-.069-.299-.154-.31-.291 0-.001 0-.001 0 0 .024-.164.046-.328.058-.493.068.322.185.648.252.786m1.969-.57a6.667 6.667 0 0 1-.61-.122c-.13-.082-.25-.157-.306-.189.029-.123.05-.23.06-.296.03-.195.032-.5.033-.611.263-.834-.43-.855-.502-.855h-.005l-.12.046a2.458 2.458 0 0 0-.703.267h-.007c.016-.2.029-.339.033-.365a5.042 5.042 0 0 0-.037-.472c.198-.115.4-.185.602-.185.275 0 .547.129.802.446l.089 1 .332-.097-.157.753-.016.073-.01.31.521.292h.001" fill="#4b9735"/><path d="m50.788 57.911-.16-.012a4.743 4.743 0 0 1-.381-.204l-.486-.31c.245.062.456.1.61.122.02.021.22.225.423.343l-.006.061" fill="#466daa"/><path d="M49.515 56.901c-.01.067-.031.174-.06.296-.076.323-.207.756-.352.843a1.03 1.03 0 0 1-.356.108c-.149.02-.28.017-.305 0-.045-.038-.215-.469-.298-.882-.083-.413-.194-.905-.169-1.23.01-.106.108-.203.24-.286h.001c.23-.141.56-.24.703-.267l.06-.01c.108 0 .569.773.569.773v.044c0 .112-.003.416-.034.61" fill="#fab597"/><path d="M54.221 59.33a5.434 5.434 0 0 1-.051.312l-.01.037c-.018.06-.098.105-.098.105s-.114.127-.162.16a.38.38 0 0 1-.108.046s-.059.054-.134.085c-.075.03-.073-.051-.073-.051s-.025.025-.072.049l-.05.01c-.034 0-.067-.013-.09-.021-.035-.012-.037-.153-.037-.153l-.155-.22-.053-.078s-.115-.036-.187-.047c-.037-.01-.095.018-.162.041a.62.62 0 0 1-.212.041.894.894 0 0 1-.5-.216c-.133-.125-.898-.166-1.875-.446-.978-.282-1.677-.643-1.75-.839a.402.402 0 0 1-.002-.266.958.958 0 0 1 .224-.349c.19-.202.69-.354.69-.354l.068.01.033.016c.154.088.792.498.792.498.363.231 2.262 1.083 2.37 1.092.109.01.281-.055.428-.08.147-.025.443-.033.57.013.128.047.377.224.45.28.073.056.158.298.156.33" fill="#fab597"/><path d="m53.895 58.553.042-.045-.042.045" fill="#fddf86"/><path d="M54.629 59.637c-.056 0-.063-.044-.062-.065v-.01h-.035l.138-.277-.081-.524-.056-.235.175.657-.022.284.057.068.083-.07.077-.398-.063-.418.11.453-.07.304h.024c.032 0 .09-.013.102-.102.02-.125.022-.279.022-.279l-.042-.38.088.438-.016.203.103-.07c-.01.04-.018.074-.02.09-.008.059-.074.06-.085.06h-.002s-.006.028-.054.088c-.026.032-.05.04-.068.04-.016 0-.027-.01-.027-.01l-.075.055s-.028.042-.153.08h-.048" fill="#f7916e"/><path d="M49.548 56.29v-.044s-.461-.77-.57-.773l-.058.01.12-.045h.006c.073 0 .764.022.502.855" fill="#46772d"/><path d="M48.441 58.145a.316.316 0 0 1-.04-.066 4.054 4.054 0 0 1-.257-.816c-.075-.373-.173-.81-.172-1.13 0-.035 0-.068.004-.1.009-.106.107-.203.24-.286l.704-.267.059-.01c.108 0 .569.773.569.773v.044l-.032.094s-1.038-.088-1.257-.088h-.039c-.043.022-.053.263-.028.352.022.074.145.92.249 1.228a.407.407 0 0 0 0 .267" fill="#f7916e"/><path d="m53.181 59.688-.053-.077s-.115-.036-.187-.047h-.01c-.037 0-.09.02-.151.04a.631.631 0 0 1-.2.041h-.012a.83.83 0 0 1-.5-.216c-.133-.126-.898-.166-1.875-.447-.978-.281-1.677-.642-1.75-.838a.401.401 0 0 1-.002-.267c.02.057.038.096.055.108.04.027.121.085.252.162.23.134.61.327 1.177.515.889.295 2.201.636 2.228.65.025.017.206.235.286.255.018 0 .042.01.068.01.084 0 .198-.02.282-.04.05-.012.13-.039.204-.039.089 0 .172.04.19.193" fill="#f7916e"/><path d="m53.462 60.083.123-.06s-.025.026-.072.05l-.05.01" fill="#fddf86"/><path d="M53.629 60.081c-.043 0-.044-.05-.044-.058l-.024-.251-.189-.328.235.301.025.24.125-.029.06-.063-.026-.406-.333-.353.353.306.075.39s.071 0 .099-.086c.026-.084-.017-.522-.017-.522l-.358-.246.42.234s.01.473.047.476h.002c.019 0 .057-.022.091-.045l-.009.037c-.018.061-.098.105-.098.105s-.115.127-.163.16a.38.38 0 0 1-.108.046s-.058.054-.133.085c-.012 0-.022.01-.03.01" fill="#f7916e"/><path d="M49.638 53.655s-.002 1.414-.04 1.636c-.038.221-.026 1.113-.026 1.113s-.667-.256-.926-.256c-.258 0-.692.068-.692.068l-.25.04s.021-.678.061-1.531c.04-.854-.04-1.284.264-1.75.303-.466.801-.459.919-.402.118.057.697.247.69 1.082" fill="#f14636"/><path d="M51.361 52.503c-.082.18-.293.39-.983.167-.69-.222-1.11-.708-1.082-.765.026-.057.343-.218.474-.53.131-.311.065-.339.084-.573.004-.047.006-.111.007-.186.004-.299-.01-.749-.01-.749s.376-.288.678-.563c.303-.275.783.198.783.198l-.024 2.256s.155.566.073.745" fill="#fab597"/><path d="M51.615 52.781c-.095 0-.2-.03-.293-.037a.366.366 0 0 1-.144-.04.414.414 0 0 0 .183-.202.274.274 0 0 0 .02-.08c.159 0 .222-.037.269-.08.036.043.07.087.102.133a.927.927 0 0 1 .091.171c-.055.106-.137.134-.228.134" fill="#ee242b"/><path d="M51.843 52.646a.915.915 0 0 0-.091-.17 1.865 1.865 0 0 0-.102-.134c.005 0 .01-.01.015-.015.02-.02.06-.089.106-.174.05.084.095.185.132.309a.906.906 0 0 1-.04.137.246.246 0 0 1-.02.047" fill="#42619d"/><path d="M51.903 52.461a1.364 1.364 0 0 0-.132-.308l.06-.114c.033.06.065.127.095.201a1.203 1.203 0 0 1-.023.222" fill="#aada2d"/><path d="M51.926 52.241a1.777 1.777 0 0 0-.096-.202l.029-.055.051.027s.018.096.016.23" fill="#889894"/><path d="M51.178 52.703c-.19-.087-.426-.292-.58-.448-.19-.195-.355-.679-.361-.698a.934.934 0 0 0 .062.096c.156.208.685.743.96.765h.123a.278.278 0 0 1-.02.08.415.415 0 0 1-.183.2" fill="#f7916e"/><path d="M52.35 49.447s.132.224.097.665c-.034.442-.082.647-.135.774-.053.128-.245.716-.307.82-.063.104-.28.562-.34.621-.059.06-.13.112-.406.091-.275-.022-.804-.557-.96-.765-.156-.207-.159-.402-.144-.478.015-.076-.281-.453-.267-.692.014-.24.154-1.444.821-1.504.667-.061 1.641.469 1.641.469" fill="#fab597"/><path d="M49.296 51.905c.026-.057.343-.218.474-.53a.81.81 0 0 0 .084-.335c0-.046-.004-.09-.004-.148a1 1 0 0 1 .004-.09c.004-.047.006-.111.007-.186.018.01.035.011.05.02.03.098.085.204.134.296-.002.01-.13.426-.24.62-.111.196-.509.352-.509.352" fill="#f7916e"/><path d="M50.045 50.932a1.69 1.69 0 0 1-.134-.297c.08.041.134.132.134.297" fill="#f7916e"/><path d="M50.967 50.137s-.185.221-.189.266c-.004.045-.05.186-.05.186l-.21.063c-.014.015-.12.143-.123.188l-.015.194-.133-.16s.14-.515-.15-.51c-.29 0-.122.433-.122.433l-.123.041s-.14-.128-.141-.695c0-.567-.016-.89.123-1.215.139-.324.433-.5.854-.595.42-.094 1.148.159 1.419.461.27.302.398.816.408.971.011.155-.078.466-.078.466s-.078-.143-.116-.123c-.038.02-.214.173-.571.168-.358-.01-.688-.195-.783-.139" fill="#3d1d21"/><path d="M50.208 50.561s-.089-.249-.248-.302c-.159-.053-.253.016-.228.221.024.205.187.545.282.559.096.013.151-.017.154-.097.003-.081.078-.298.04-.38m1.794-.237s-.031.228-.03.392c0 .163-.028.27-.028.27s-.338-.04-.528-.042c-.19-.001-.399-.031-.436.01-.037.038-.107.155-.107.155s.265.34.366.361c.1.021.14.011.14.011s-.142.287-.325.263c-.183-.023-.426-.288-.502-.457-.075-.169-.025-.362-.022-.403.003-.04.249-.266.276-.284l.101-.275.167-.133s.307.092.475.113c.168.02.453.022.453.022" fill="#fbc6ae"/><path d="m51.827 50.868-.042.524-.172.16c-.002.031.092.133.171.156.08.024.15.053.151-.015.002-.068.001-.67.01-.706.007-.036-.118-.118-.118-.118" fill="#fbc6ae"/></svg>