<svg version="1.1" viewBox="0 0 136.85 1000" xmlns="http://www.w3.org/2000/svg"><defs><clipPath id="f"><path d="m950.93 2131.2-2.711 49.17-10.852-.59 2.711-49.17c.043-.8.617-1.58 1.723-2.14 2.199-1.11 5.633-.93 7.676.41 1.031.67 1.507 1.51 1.453 2.32z"/></clipPath><linearGradient id="c" x2="1" gradientTransform="matrix(10.85 .59875 .59875 -10.85 938.81 2153.6)" gradientUnits="userSpaceOnUse"><stop stop-color="#909393" offset="0"/><stop stop-color="#909393" offset=".089616"/><stop stop-color="#bfc0be" offset=".48669"/><stop stop-color="#e3e4e1" offset=".70478"/><stop stop-color="#e9e9e6" offset=".84314"/><stop stop-color="#d9dad7" offset=".98436"/><stop stop-color="#e5e5e3" offset=".99075"/><stop stop-color="#e5e5e3" offset="1"/></linearGradient><clipPath id="e"><path d="m955.86 2184.8-1.812 32.76-26.574-1.46 1.804-32.73c.106-1.98 1.52-3.88 4.223-5.25 5.371-2.73 13.789-2.28 18.805 1 2.523 1.65 3.691 3.7 3.554 5.68z"/></clipPath><linearGradient id="b" x2="1" gradientTransform="matrix(26.578 1.4666 1.4666 -26.578 928.59 2195.9)" gradientUnits="userSpaceOnUse"><stop stop-color="#909393" offset="0"/><stop stop-color="#909393" offset=".089616"/><stop stop-color="#bfc0be" offset=".48669"/><stop stop-color="#e3e4e1" offset=".70478"/><stop stop-color="#e9e9e6" offset=".84314"/><stop stop-color="#d9dad7" offset=".98436"/><stop stop-color="#e5e5e3" offset=".99075"/><stop stop-color="#e5e5e3" offset="1"/></linearGradient><clipPath id="d"><path d="m956.46 2218.2-7.102 128.66-31.453-1.74 7.098-128.61c.125-2.33 1.793-4.6 4.996-6.21 6.355-3.22 16.324-2.69 22.258 1.19 2.98 1.95 4.367 4.37 4.203 6.71z"/></clipPath><linearGradient id="a" x2="1" gradientTransform="matrix(31.457 1.7359 1.7359 -31.457 921.71 2276.2)" gradientUnits="userSpaceOnUse"><stop stop-color="#909393" offset="0"/><stop stop-color="#909393" offset=".089616"/><stop stop-color="#bfc0be" offset=".48669"/><stop stop-color="#e3e4e1" offset=".70478"/><stop stop-color="#e9e9e6" offset=".84314"/><stop stop-color="#d9dad7" offset=".98436"/><stop stop-color="#e5e5e3" offset=".99075"/><stop stop-color="#e5e5e3" offset="1"/></linearGradient></defs><g transform="translate(-55.979 -89.643)"><path d="m72.206 264.11-38.227-22.017" fill="#797d7e"/><g transform="translate(0,820)"><g><path d="m192.82 269.64h-136.85v-80l29.248 18.518 14.545 8.3996 25.442 14.686" fill="#6c6e6b"/><path d="m85.227 205.8v2.3777l-29.248-16.832 5e-6-2.3971 29.248 16.852" fill="#797d7e"/><path d="m86.811 204.89-1.584.91369-29.248-16.848.000109-1.8192 30.832 17.753" fill="#d6d8d5"/><path d="m86.812 207.26v-2.3781l-1.5854.91546v2.3781l1.5854-.91546" fill="#959796"/><path d="m125.27 231.25v-2.3781l-40.043-23.067v2.3781l40.043 23.067" fill="#797d7e"/><path d="m141.84 241.21-19.11 11.035-66.759-38.544 10.763-6.2159 5.1682-2.9845 3.1782-1.8344 66.759 38.544" fill="#484945"/><path d="m73.79 260.82" fill="#d6d8d5"/><path d="m115.53 226.01-40.445-23.351-1.306.75389-17.799-10.232v-1.842l29.248 16.836-.00071.002 10.046 5.787 4.5 2.5933 15.683 9.0526.0744.40005" fill="#3d3330"/><path d="m85.227 208.18v-.002l.00071.00035-.00071.002" fill="#534744"/><path d="m115.45 225.59-5.4014-3.1115 5.4014 3.1108v7e-4m-20.179-11.624-10.046-5.787v-.002l.00071.00035 10.045 5.7887" fill="#443b38"/><path d="m114.8 227.04-41.019-23.629 1.306-.75389 40.445 23.351.14393.77365-.8763.25788" fill="#2a2320"/><path d="m126.85 230.33v-2.3784l-1.5854.91546v2.3784l1.5854-.91546" fill="#959796"/><path d="m107.89 225.27-5.1682 2.9884-35.983-20.779 5.1682-2.9845 35.983 20.775" fill="#51514d"/><path d="m97.126 231.49-5.1682 2.988-35.983-20.778 5.1682-2.9845 35.983 20.775" fill="#51514d"/><path d="m61.837 237.64c-.30194-.031-.60593-.14534-.98707-.18626-.7862-.0843-1.5371-.1577-2.3108-.36619-.37292-.10054-.7596-.22754-1.0232-.50976-1.1999-1.2862 1.4963-2.4038 2.2977-2.7284.43283-.17534.87338-.32915 1.3184-.47026.0153.74154.0378 1.5935.0378 1.9336 0 .0871-.002.14076-.005.14993-.001.003-.002.006-.002.01.00014.019.0142.048.0418.0818-.004.0512-.009.11112-.0139.16616-.0241.0215-.0489.0526-.0584.0935-.0207.0889-.0203.25683-.0203.25683s.13575.35066.13437.5408c-.001.1905.12884.78105.3398.92464.059.0402.14788.0755.2504.10371m1.2621-.44344c.003-.0917.002-.17568.002-.17568l-.19953-.31574c-.10403-.27234-.24776-.60889-.25506-.67698-.007-.0691-.078-.26211-.12926-.39511.0305-.0254.0482-.0445.0529-.0505.0146-.0183.33704-1.6616.537-2.7675.33983-.0917.68365-.18309 1.0355-.18979.0135-.00036.0269-.00036.0402-.00036.0307 0 .0612.00071.0917.002.01.50588.0179.89676.0179.89676s.0127.008.0359.0215c-.00095.0667-.002.14605-.002.20038-.01.0268-.019.0526-.0249.0688-.0174.0487-.0236.24236-.0211.26811.003.0254.23153.17004.61698.22789.38527.0575.92766.0819 1.2904.13794.19251.0296.38929.0543.56801.0543.15822 0 .30247-.0194.41726-.0723.24462-.11183.28734-.30833.28734-.30833l.003-.32068s-.0378-.1651-.1881-.17815c-.0507-.0529-.11039-.0801-.1312-.0882-.0438-.0173-.72344-.13864-.87313-.19579-.0821-.0314-.22239-.0889-.33224-.13477.00056-.005.001-.0102.002-.0152.46605.21978.92286.25505 1.4449.35348.97663.18485 1.6568.46919 2.1522 1.4348.48084.93909.33232 1.9417-.84956 2.0997-.0763.0102-.1524.0152-.22821.0152-.0708 0-.14136-.004-.2118-.0116-.46412-.0501-.91846-.25012-1.3647-.41134-.33623-.12171-.70597-.21978-1.0604-.21978-.26374 0-.51897.0543-.74563.19367-.15244.0938-.2836.2219-.44651.29634-.5304.24165-1.0228.0847-1.5303.25717" fill="#3d3330"/><path d="m64.364 233.64s-.0463.12806-.0638.17639c-.0174.0487-.0236.24236-.0211.26811.003.0254.23153.17004.61698.22789.38527.0575.92766.0819 1.2904.13794.36297.0557.74069.0945.98527-.018.24462-.11183.28734-.30833.28734-.30833l.003-.32068s-.0378-.16545-.18824-.17815c-.15046-.0127-2.9094.0148-2.9094.0148" fill="#241e1a"/><path d="m65.778 233.14s.3423.14499.49194.20179c.14969.0572.82931.1785.87313.19579.0441.0169.26282.12029.20204.37394-.0609.254-.31034.31574-.83676.31962-.52641.004-.95786-.0434-1.4917-.11712-.53386-.0741-.69218-.24977-.69137-.3175.00084-.0681.003-.32632.006-.36689.003-.0406 1.4465-.28963 1.4465-.28963" fill="#cc9f43"/></g><g transform="matrix(.035278 0 0 -.035278 33.979 309.8)"><g clip-path="url(#f)"><path d="m950.93 2131.2-2.711 49.17-10.852-.59 2.711-49.17c.043-.8.617-1.58 1.723-2.14 2.199-1.11 5.633-.93 7.676.41 1.031.67 1.507 1.51 1.453 2.32" fill="url(#c)"/></g></g><g><path d="m67.379 232.96c-.0724.0473-.1935.0536-.27093.0145-.0773-.0392-.0815-.10901-.01-.15628.0722-.0469.1935-.0536.27108-.0141.0773.0388.0816.10901.009.15593" fill="#848287"/><path d="m69.067 234.11s-.69232-.11677-.90879 0c-.21678.11677-.37951.29316-.37951.29316l-.42665.31573-.42775.41663-.40664.31151-.47862.35277s-.43007.25753-.49801.37289c-.0677.11536.17709.40005.17709.40005l.50119.32385 1.5865.47625.90664.0811 1.2496.20355s1.3966.0409 1.5187-.18979c.12206-.23037.48824-.40676.48824-.40676s.12206-.11183.47484-.16439c.35242-.0526.94897-.57009.94897-.57009l.16263-.30974-.55598-.59655-.29809-.0137-.92216-.31186-1.2612-.54328-.75953-.37817-.69148-.0632" fill="#191b21"/><path d="m68.493 234.51-.0182-.005c-.01.0688-.0154.14922.035.19649.0275.0261.0661.0356.1029.0437.11508.0261.23111.0476.3477.0646-.0497.004-.0998.009-.14951.0131.0341-.002.0551.0384.056.073.00067.0339-.009.0695.002.1016.024.0688.11701.0734.18066.1076l.0263.0229c.0279.0497-.07.10337-.0459.15487-.12403-.0628-.25827-.10548-.39564-.12594-.0384.0349.0181.0952.0123.14676l-.016.0526c-.0139.0635.0507.11501.10957.14217.0591.0268.1294.0557.1451.11889.0513.20461-.38075.10124-.46369.0769.12428.17392.27422.3295.44358.46038-.10805.072-.21607.14393-.32413.2159-.0306.0201-.0628.0423-.0769.0765-.0367.0878.0665.16722.15515.20214.19763.078.40693.12629.61874.14252.005.11042.0138.22896.0821.31574.0826.10548.22754.13441.35983.15557.14747.0236.29528.0476.44274.0713-.007.0406-.0145.0808-.0219.12136.32561-.01.65123-.0198.97684-.0293-.009-.0441-.0413-.0825-.0825-.0998.0737-.0727.15134-.14181.23213-.20708-.0854-.042-.18345-.10371-.18274-.19896 7e-4-.061.0462-.11466.10019-.14323.0543-.0282.11677-.036.17745-.0437.10054-.0123.20108-.0243.30162-.0367-.10724-.11466-.20249-.24025-.28363-.37395.091-.0437.18168-.0875.27269-.13088-.13793-.18027-.32984-.31856-.54433-.39229.2473-.0324.49706-.0649.74577-.042.31009.0293.60537.14323.89676.25365.0575.0215.11924.0434.17851.0286.0593-.0152.10865-.084.0794-.13829l-.0607-.0526c-.0875-.0512-.17744-.0974-.27022-.13864l.0783-.0677c-.11782-.0744-.19085-.2025-.29845-.29105-.15522-.1277-.36794-.16192-.56832-.15381-.0765.003-.15452.0113-.22825-.009-.0526-.0145-.10054-.043-.14958-.0667-.15769-.0759-.33337-.10266-.50623-.12877.0307-.0289-.0145-.0744-.0529-.0914-.20779-.0907-.41522-.18132-.62301-.27199-.0324-.0141-.0674-.0307-.0832-.0621l-.0162-.0931c-.0187-.0938-.12382-.13864-.21484-.16827-.15311-.0498-.29528-.11889-.45755-.11995-.19227-.002-.38478.013-.57468.0427.0325.0152.065.03.0975.0448.0321.0148.0669.0321.0813.0642.0183.0409-.004.0892-.0347.12206-.1064.11289-.28431.10618-.43836.0914.0408.001.0817.003.12252.005-.0938-.008-.18701-.024-.27824-.0469" fill="#282930"/></g><g transform="matrix(.035278 0 0 -.035278 33.979 309.8)"><g clip-path="url(#e)"><path d="m955.86 2184.8-1.812 32.76-26.574-1.46 1.804-32.73c.106-1.98 1.52-3.88 4.223-5.25 5.371-2.73 13.789-2.28 18.805 1 2.523 1.65 3.691 3.7 3.554 5.68" fill="url(#b)"/></g></g><g><path d="m67.511 231.76c-.17681.11571-.47374.13158-.66336.0356-.18951-.096-.19995-.26741-.023-.38276.17667-.11572.47363-.13159.66311-.0356.18976.096.2001.26741.0233.38277" fill="#848287"/><path d="m61.247 235.68s-.0941.0423-.11465.13158c-.0207.0889-.0203.25683-.0203.25683s.13575.35066.13437.5408c-.001.1905.12884.78105.3398.92464.21085.14358.80285.22648 1.046.13229.2432-.0942.39991-.18168.43737-.25577.0376-.0741.0309-.39193.0309-.39193l-.19967-.31609-1.6538-1.0224" fill="#241e1a"/><path d="m62.463 235.49s.17103.42157.18274.53128c.0117.10971.37687.91405.36103 1.0284-.0157.1143-.11546.31503-.62921.33373-.51386.0183-.84723-.12559-.92234-.32209-.0752-.1965-.16164-.7112-.17568-.82091-.014-.11007-.1083-.29422-.10199-.37536.006-.0811.0337-.36936.0339-.43251.00057-.0635 1.2516.0575 1.2516.0575" fill="#cc9f43"/><path d="m65.92 233.35c-.0277.11606-.44662.37288-.8472.39582-.156.009-.3084-.0233-.4367-.0653-.20204-.0667-.34382-.1591-.34382-.1591s-.0155-.72672-.0288-1.4803c-.0131-.75388.0629-1.2559.0678-1.319.005-.0628-.062-.48543-.0927-.89571-.0251-.32526-.0537-1.0315-.0648-1.3116-.003-.0737-.004-.11783-.004-.11783s-.5818-1.7053-.12016-2.0405c.46165-.33549 1.2086-1.059 1.4212-.73166.21251.32738.46178 1.3515.5249 1.8119.0634.46037.21057 1.7011.22973 2.0384.0187.33655-.27782 3.7596-.30498 3.8749" fill="#3256a2"/><path d="m64.636 233.68c-.20204-.0667-.34382-.1591-.34382-.1591s-.0155-.72672-.0288-1.4803c-.001-.0603-.002-.11924-.002-.17639.00014-.6551.0648-1.0844.0693-1.1426.00029-.002.00029-.005.00029-.008 0-.0847-.0634-.49213-.093-.88795-.0134-.17392-.0278-.45684-.0401-.72531.0163-.0318.0299-.0621.0408-.091.0937-.25118.30054-.63853.38806-.95321l.00028-.00035.27739.56162.38502.17533-.38213.2787s-.0744 1.1726-.0448 1.5921c.0162.23283-.0619.71508-.1137 1.4422-.0324.45543.015 1.0784-.11328 1.5741" fill="#263b74"/><path d="m64.665 227.86c-.0262.33267-.31143.84561-.42651 1.1539-.11507.30832-.57118.80786-.643.91087-.0719.10336-.29062 1.5007-.33539 1.9597-.0455.45896-.67028 3.6742-.69081 3.6999-.02.0257-.27591.28646-.73561.25012-.13864-.0109-.25619-.043-.35306-.0843-.2238-.0967-.33239-.24236-.31641-.28575.0233-.0617-.0426-2.1075-.0464-2.9782-.004-.87101.14827-1.8292.1477-2.2507-.001-.42193-.40594-2.0997-.43324-2.7072-.0267-.60748.0958-1.2171.0958-1.2171s.23343-.0752.56568-.17745c.72608-.22402 1.9243-.57856 2.1904-.56409.38848.0212.85687.5207.98129.78457.12446.26388.0259 1.1719-.00039 1.5057" fill="#3c60ae"/><path d="m61.481 235.75c-.20892-.0903-.3175-.22331-.31792-.27587 0-.004.00042-.007.002-.01.003-.009.005-.0628.005-.14993 0-.49707-.0481-2.0874-.0514-2.8282-.00014-.012-.00014-.024-.00014-.036-.00015-.85936.14774-1.7953.14784-2.2123v-.002c-.001-.42193-.40594-2.0997-.43324-2.7072-.003-.0596-.004-.11889-.004-.17745-.00014-.34643.0404-.6738.0697-.86536.001.005.002.009.003.0134.0547.2152.052.28858.24282.3616.0558.0215.1119.043.16813.0639-.0361.24977-.12199.91758-.0518 1.1751.0862.31961.2982 1.4517.32632 1.862.028.41028-.17861 1.6729-.18426 2.3389-.004.50765.0815 2.2426.0779 3.4498" fill="#274081"/><path d="m66.936 223c-.11342.0656-.19555.0935-.25757.10019-.12125.0116-.16771-.0596-.23244-.0956l-.0459-.0469c-.16648-.20638-.63253-1.0121-.73381-1.198-.0827-.1524.46274-.54857.76108-.74966.10915-.0741.18507-.12135.18507-.12135s.65154 1.1395.71437 1.294c.0624.15451-.0561.62335-.3908.81738" fill="#fab597"/></g><g transform="matrix(.035278 0 0 -.035278 33.979 309.8)"><g clip-path="url(#d)"><path d="m956.46 2218.2-7.102 128.66-31.453-1.74 7.098-128.61c.125-2.33 1.793-4.6 4.996-6.21 6.355-3.22 16.324-2.69 22.258 1.19 2.98 1.95 4.367 4.37 4.203 6.71" fill="url(#a)"/></g></g><path d="m67.781 225.54c-.0566.0116-.16606.0459-.35183.14852l-.0245.0123c-.54197.23177-1.1974.59302-1.3119.77329-.0374.0589-.0275.14605.0266.23354.0872.14076.29104.27869.60551.24694.50451-.0529.68227-.32244.79915-.60607l.0251-.0589c.19636-.45756.23178-.66182.23192-.74966m-1.1494 1.9622c-.48204 0-.81538-.254-.97346-.5087-.16369-.26459-.17265-.57538-.023-.81033.25756-.4057 1.3032-.87242 1.5437-.97579.29351-.16086.70897-.33972.97977-.0945.30786.27834.12844.83291-.11092 1.3906l-.0222.0522c-.086.20884-.34812.8449-1.2441.93874-.0514.005-.10143.008-.14979.008" fill="#a6ac96"/><path d="m68.07 225.83-.00071.001c-.0102.0406-.0178.0737-.0202.0903-.008.0642-.0863.0614-.0863.0614s-.006.0268-.0543.0875c-.0489.0603-.0945.0335-.0945.0335l-.0757.0547s-.0273.0423-.15268.0801c-.12527.0374-.1101-.0663-.1101-.0663l-.035.003-.0565-.0102c-.0496-.0173-.0339-.17603-.0339-.17603s-.055-.12347-.0668-.23001c-.0117-.10584-.2249-.42581-.2249-.42581s-.0176-.0381-.0818.004c-.0644.043-.20563.23212-.20563.23212s-.12979-.0783-.11617-.11782c.0134-.0399.11881-.25894.11881-.25894l.0295-.0293.0427-.0448.0621-.0787.019-.0667c.0128-.0744.0196-.19544.0164-.33549-.005-.19791-.22793-.73872-.3077-.92887-.0808-.18979-.254-.66604-.23551-.74859.018-.0825.26127-.26988.34918-.43956l.0539-.0893.00053-.001c.0406-.0607.0879-.1196.12859-.16757.0648-.0759.1615-.11677.26169-.11007.0562.004.11049.0134.13282.0325.0529.0476.17861.35207.28251.87065.10445.51788.13409 1.6073.17833 1.7364.0442.12983.2038.17604.2625.25224s.0888.42862.0923.47343c.002.0321-.0446.20002-.0725.31256" fill="#fab597"/><g fill="#f7916e"><path d="m66.4 222.96c-.10432-.12947-.32646-.49424-.50257-.79446-.002-.15522-.005-.30162-.008-.43321.0996-.0363.2074-.0797.27809-.12135.12552-.0734.27464-.19262.35567-.27976-.0958.13512-.2256.30833-.30399.37007-.13518.10724-.18482.14393-.18482.14393l.45533.80222.31362-.21731-.00053.001-.0539.0893c-.0879.16968-.33115.35701-.34918.43956"/><path d="m66.927 224.97c.0108-.0624.0173-.15699.0173-.26811 0-.0219-.00028-.0441-.00084-.0674-.005-.19791-.22793-.73872-.3077-.92887-.0766-.18027-.23664-.61842-.23689-.73307 0-.006.00039-.0113.001-.0155.018-.0825.26127-.26988.34918-.43956l.0539-.0893.00053-.001-.00053.001c-.0102.0247-.17515.42016-.18136.49883-.002.0198.0212.0836.0566.17251.10735.26741.33006.76271.35857 1.0026.0383.32067.0705.60395.0484.65687-.0145.0332-.0944.12135-.15851.21096"/><path d="m66.61 221.21c.0106-.0166.0226-.0346.0354-.0533h.00028s-.0134.0201-.0357.0533"/></g><g><path d="m65.642 221.82s.36199-.1076.52599-.20355c.16397-.096.36806-.27023.40845-.34855.0401-.0787.24543-.35489.24694-.37535.002-.0201-.55562-.97543-.71508-1.2802-.1597-.30516-.56899-.895-.91405-1.0918-.34505-.1972-.28303.65758-.2275 1.0767.0554.4191.67525 2.2228.67525 2.2228" fill="#f14636"/><path d="m65.517 225.04c-.0185.23001.19251.75601.20161.80504.0103.0483-.17184.36724-.24292.40887-.0243.0141-.097.0864-.18606.17851-.17141.17639-.40693.42474-.49099.47589-.0362.0222-.13229.066-.27767.11325-.37303.12276-1.0757.26846-1.9451.127-.52722-.0864-.93514-.20462-1.2259-.31821l-.0229-.01c-.35898-.14429-.37744-.2727-.37317-.32844.008-.1016.0358-.54151.0424-.71085.003-.084-.026-.15451-.0543-.21484.002-.17427-.005-.34819-.003-.52176.003-.0384.006-.0716.008-.0928.007-.0878.0911-.2988.18877-.50165.0977-.20355.005-.66604 0-.9525-.00056-.0247-.003-.0624-.007-.11289-.0167-.21343-.0629-.63994-.11536-1.1123l-.004-.0346c-.0225-.20038-.0447-.40181-.0674-.6029-.0591-.52846-.11285-1.0216-.13187-1.2573-.0489-.59584.10957-.88194.2522-1.0481.14164-.16545.51799-.45579.9471-.80292.42859-.34713.702-.36654.702-.36654s1.3425.22825 1.4846.20532c.14277-.0226.71518.0162.99783.14676.22447.25576.54169 1.0696.64368 1.5808.10237.51118.0406 1.4796-.0364 1.6704-.0575.14428-.0992.62723-.1312 1.1232-.0103.16122-.0203.32385-.0288.47625-.0349.62301-.1071 1.4467-.12474 1.6768" fill="#ee2730"/><path d="m65.671 224.85c-.0387.26494-.0761.54363.0194.79305.0277.0727.0668.14287.0737.21978.0107.121-.0573.23354-.12637.33478-.0554.0811-.11275.16263-.17462.24025-.0288.0363-.0586.0713-.0901.10618-.0547.0617-.11328.1203-.17696.17463-.17667.15063-.38336.25929-.59489.35701-.057.0272-.11437.0526-.17198.0787-.13024.0579-.2614.11641-.40019.14605-.17141.0363-.34836.0265-.52352.0265-.087-.00036-.17402.002-.26112.004-.20811.005-.41632.0102-.62262-.0162-.22186-.0282-.43709-.0928-.64975-.16157-.21593-.0702-.43078-.14429-.64325-.22366-.0613-.0226-.12266-.0462-.18355-.0695-.19086-.073-.1881-.1464-.24282-.3616-.0412-.16333-.0158-.33549.01-.50165.0218-.14075.0287-.28187.0303-.42333.002-.17427-.005-.34819-.003-.52176.00053-.15134.008-.30162.031-.4512.0595-.38947.11973-.78281.0911-1.1755-.003-.0321.0294-.037.0677-.0332.0382.004.0831.0162.10707.0183.0872.008.17459.0169.2625.025.1779.0173.35637.0353.53428.0533.21205.0208.38075.0265.51523.0131.0938-.009.17032-.0282.23372-.0554.0674-.0293.11892-.0684.15903-.11818.1312-.16545-.0245-.75988.72249-.75847.33902.00035.69359-.15099 1.0222-.2286.13448-.0317.26804-.0677.40033-.10725.10471-.0318.21054-.0864.32011-.0847l.0255.005.0231.0314c.0251.0519.0646.096.0901.14782.05.10442.0204.3182.0132.43356-.003.048.003.1083.0478.12453l.0646.002.0541.0141.0179.0452c.012.0705.0255.14111.0374.21166v.92216c-.0374.25471-.0721.50871-.10943.76306" fill="#3c60ae"/><path d="m63.443 223.24s-.0807.91969-.0101 1.0072c.0374.0462.91394.30656.91394.30656l.62893-.58208c.0528-.0497.12993-1.0763.0949-1.1554-.035-.0794-1.6317.22296-1.6277.42369" fill="#4a70c0"/><path d="m63.633 223.06s-.22091.0713-.23263.15628c-.0117.085-.007.22401.0248.27446.0322.0504.89327.121.91433.10054.0212-.0205.75008-.41028.75572-.48683.006-.0765.0539-.32667.017-.34043-.0372-.0138-.43864.0363-1.4792.29598" fill="#688dd0"/><path d="m65.327 222.5s.37539-2.5199-.1838-3.4495c-.55936-.92922-1.3928-1.1613-1.3928-1.1613l-.35913.26564s.83979.31609 1.2685.93239c.51664.74224.21085 3.4869.21085 3.4869l.45639-.0741" fill="#4a70c0"/><path d="m65.29 222.23c-.004.0755-.0716.14464-.15088.15451-.0792.01-.14044-.0441-.13645-.11923.004-.0759.0717-.145.15091-.15452.0794-.01.14041.0437.13642.11924" fill="#f5782d"/><path d="m64.834 219.16c.17307.71155-.18165.95003-.19417 1.1208-.0149.17322-.10763 4.6422-.10143 4.8616.006.21731 1.0364.14782 1.2412-.27234.0107-.0233.0212-.055.0317-.097.0233-.10371.0421-.26176.057-.45402.0759-1.0742.004-3.2318.004-3.2318s-.21745-1.5346-.44771-2.0518c-.21304-.4752-.39038-.61207-.41783-.63112l-.004-.004-.60166-.20037-.0992-.0339-.10569.20461s.46453.0762.63761.78952" fill="#acd91e"/><path d="m64.385 218.22c.0338.0254.49389.36336.58261 1.174.005.0437.009.0878.0126.13229.0153.20214.0226.42404-.0452.61877-.047.13547-.16292.22155-.16482.37677-.008.61066-.0149 1.2213-.0214 1.832-.004.41064-.008.82127-.011 1.2319-.002.25118-.003.50236-.002.75318.00081.13265.001.26494.007.39723.002.0526.001.11077.0154.16228l.0228.0494c.0507.0653.12457.0737.16672.0737h.0254c.14979-.008.50659-.0847.83799-.2533.0233-.10371.0421-.26176.057-.45402-.24059.17956-.57848.28504-.77251.32526-.004-.37394-.00014-.74789.002-1.1218.004-.55704.009-1.1141.0156-1.6711.002-.22648.005-.45226.008-.67839.001-.10901.003-.21802.004-.32738.00067-.0543.001-.10866.002-.16298 7e-4-.0533-.004-.12277.0182-.17322l.0537-.0769c.0375-.0607.0646-.127.0852-.19509.0704-.23213.0711-.48401.0536-.72355-.004-.0519-.009-.10371-.0146-.15522-.0463-.41381-.17724-.72637-.32068-.9585l-.60166-.20037-.0169.025" fill="#8fc0d1"/><path d="m63.729 222.9s.18426-2.2377-.37482-3.1669c-.34922-.58032-.80532-.88864-1.0987-1.0386-.17653-.0903-.44729-.0236-.44729-.0236l-.13352.0854-.18468.18521s.27273-.0441.4892.0755c.27865.15417.65016.4057.89146.75248.51661.7426.40182 3.205.40182 3.205l.45656-.0744" fill="#4a70c0"/><path d="m63.679 222.61c-.004.0755-.0715.14463-.15088.15416-.0794.01-.14044-.0434-.13646-.11924.004-.0755.0717-.14464.15092-.15452.0794-.01.14041.0437.13642.1196" fill="#f5782d"/><path d="m61.02 223.74c-.017.30586-.0274.55951-.019.66075.0254.32914.65444.36089 1.3636.57609.70944.21519 1.5221.27869 1.6108-.32703.0864-.60783.21954-3.0441.18976-3.7553-.0293-.71155-.26994-.94156-.62879-1.2749-.36103-.33585-.95208-.49389-1.1759-.7747-.2238-.28082 0-.46038 0-.46038s.63747-.57009.0125-.15628c-.0991.0674-.20684.14146-.31447.2219-.0949.0695-.19209.14322-.28702.21731-.46867.36089-.89091.72637-.89091.72637s.28925 2.5033.27037 2.6067c-.008.0593-.0634.71791-.10555 1.3363-.009.13935-.017.27658-.0254.40323" fill="#acd91e"/><path d="m61.02 223.74c1.1653.66922 2.4339.76835 2.5035.77258l.17308.0127.0169-.17533c.0126-.11394.28293-2.8138.2238-3.4703-.0634-.70097-.52983-1.3067-1.2814-1.6612-.54888-.26-.55079-.74507-.55079-.76659l-.0466-.002c-.0949.0695-.19209.14322-.28702.21731.0569.24483.22377.63535.73035.87383.63335.30198 1.0258.8001 1.0766 1.3698.0485.53023-.14372 2.5986-.20475 3.2237-.39896-.0529-1.427-.23672-2.3283-.79799-.009.13935-.017.27658-.0254.40323" fill="#8fc0d1"/><path d="m64.723 227.14c-.00014 0-.001-7e-4-.004-.002.002-.043.004-.0857.005-.12842.16767-.0829.32907-.17674.47113-.29809.0637-.0543.12224-.11289.17696-.17463l.18863.23742c.0217.0737.054.14676.0971.21661.004.007.009.0141.0139.0215l-.94961.1277" fill="#263b74"/><path d="m64.719 227.14c-.0124-.007-.0569-.0328-.11836-.0695.0415-.0191.0828-.0388.12376-.0589-.001.0427-.003.0854-.005.12842" fill="#274081"/><path d="m65.672 227.02c-.005-.007-.01-.0145-.0139-.0215-.0431-.0699-.0755-.14288-.0971-.21661l.18192.2286-.0708.01" fill="#46617b"/><path d="m64.601 227.07-.0798-.0473c-.22889-.13512-.57119-.3362-.57119-.3362l-.61944-.23389-.73272-.26741-.61845-.20461-.64051-.22154s-.026.25541.0752.3937c.10086.13723-.008.29562-.0403.43568-.0178.079-.0128.16263-.0237.24306l-.0216.0924c-.005-.002-.0103-.004-.0154-.006-.0562-.0208-.11232-.0423-.16813-.0639-.19086-.073-.1881-.1464-.24282-.3616-.001-.005-.002-.009-.003-.0134-.0134-.0582-.0184-.11748-.0184-.1771 0-.10371.0157-.20849.0315-.31115.0218-.14075.0287-.28187.0303-.42333.00028-.0243.00042-.049.00042-.0734.00011-.12806-.003-.25576-.003-.38311 0-.0219 0-.0434.00028-.0653.00053-.15134.008-.30162.031-.4512.0102-.067.0205-.13406.0303-.20108 0 7e-4.00014.001.00014.002.0106.13723.12623.22296.30911.29175.0172.0356.031.0589.0399.0663.0732.19615.77241.55704 1.7503.8382.97688.28081 1.7418.32068 1.8755.44662l.31404.39476.083.10477c-.0547.0617-.11328.1203-.17696.17463-.14206.12135-.30346.21519-.47113.29809-.041.0201-.0823.0399-.12376.0589m-.0616-2.0895c-.19142-.0868-.39081-.17851-.57796-.2667.006-.0219.0103-.0448.0139-.0688.003-.0208.006-.0437.009-.0688.15187.0624.36724.16545.557.25929-.00081.055-.001.10337-.002.145" fill="#274081"/><path d="m65.045 225.21c-.1505-.0649-.32438-.14217-.50532-.22366.00053-.0416.001-.09.002-.145.0937.0466.18123.0907.25164.12665.034.0367.0759.0515.11162.0572.0345.018.0543.0282.0543.0282l.0859.15664" fill="#4b9735"/><path d="m64.904 225.02c-.0357-.006-.0776-.0205-.11162-.0572.045.0229.0833.0427.11162.0572" fill="#466daa"/><path d="m61.03 222.42c-.005-.0487-.0109-.0981-.0164-.14817l-.004-.0346c-.0225-.20038-.0447-.40181-.0674-.6029.0568-.0413.11398-.079.17173-.11288.0258.26035.0412.44555.0364.47201-.004.0258-.0161.16475-.0325.36442-.0316.0198-.0612.0406-.0881.0621" fill="#5b0f1c"/><path d="m63.961 224.72c-.15338-.0723-.29862-.14217-.42485-.20532l.15999.012.006-.061c.0525.0307.10513.0557.15491.0702.033.01.0765.0261.12689.0466-.003.0251-.006.048-.009.0688-.004.024-.008.0469-.0139.0688m-2.6513-.0261c-.18288-.0688-.29849-.15452-.30911-.29175 0-7e-4-.00014-.001-.00014-.002.024-.16369.0452-.32773.0575-.49213.0678.32138.18478.64735.25178.78599m1.9691-.57115c-.15363-.0229-.36505-.061-.61006-.12171-.13007-.0818-.25012-.15628-.30593-.18838.0288-.12277.0496-.23001.0598-.29669.0301-.19473.0327-.49918.0335-.61101.2625-.83326-.42926-.85478-.50175-.85478h-.006l-.12058.0455c-.14263.0275-.4735.12559-.70319.26705h-.00057c-.002.001-.004.002-.006.004.0164-.19967.0288-.33866.0325-.36442.005-.0265-.0106-.21166-.0364-.47201.19787-.11572.40072-.18521.60219-.18521.27436 0 .54653.12876.80134.44556l.0889 1.0008.33211-.0977-.15695.75353-.0152.0727-.0107.3108.52116.29069s.00057 7e-4.002.002" fill="#4b9735"/><path d="m63.696 224.52-.15999-.012c-.17145-.0854-.30773-.15734-.38117-.20426 0 0-.25866-.16616-.48631-.30939.24501.0607.45643.0988.61006.12171.0204.0208.22091.22437.42333.3429l-.006.061" fill="#466daa"/><path d="m62.423 223.51c-.0102.0667-.031.17392-.0598.29669-.0754.32315-.20697.75565-.35207.84314-.0918.055-.23015.0892-.35595.10724-.14856.0205-.28042.0169-.30512-.003-.0445-.0378-.21456-.46849-.29778-.88194-.083-.41311-.19389-.90488-.16838-1.2294.009-.10654.10746-.2032.24031-.28611h.00057c.22969-.14146.56056-.23953.70319-.26705l.0588-.007c.10859.002.56928.77258.56928.77258l.00042.0437c-.00084.11183-.003.41628-.0335.61101" fill="#fab597"/><path d="m67.129 225.94c-.002.0272-.0309.21837-.0507.31186l-.009.0374c-.0185.0614-.0987.10513-.0987.10513s-.11437.127-.16206.15981c-.0482.0321-.10817.0459-.10817.0459s-.0586.0543-.13342.0847c-.0752.03-.0732-.0512-.0732-.0512s-.0249.025-.0721.0487l-.0507.0106c-.0331-.001-.0659-.0138-.0888-.0215-.0356-.0116-.038-.15275-.038-.15275l-.15406-.22014v-.00035l-.0538-.0765s-.11518-.0363-.18672-.0469c-.0367-.005-.0945.0176-.16232.0406-.0648.0219-.1385.0434-.21138.0409-.14926-.005-.36671-.0896-.49996-.21625-.13314-.12559-.89835-.16581-1.8756-.44662-.97786-.28116-1.6771-.64205-1.7503-.8382-.032-.0857-.0296-.17533-.001-.26635v-.00035c.0369-.11677.11688-.2346.22338-.34854.19005-.2025.6911-.35384.6911-.35384l.0675.005.0325.0162c.15367.0878.79224.49777.79224.49777.36311.23142 2.262 1.0827 2.3702 1.0915.10816.008.2807-.0554.42788-.0797.14676-.0247.44235-.0332.57037.0131.12746.0466.3766.22472.44909.28011.0729.0557.15819.29809.15586.32984" fill="#fab597"/><path d="m66.803 225.16.0427-.0448-.0427.0448" fill="#fddf86"/><path d="m67.537 226.25c-.0564 0-.0626-.0445-.0624-.0646 0-.006.00057-.01.00057-.01l-.035.003.13822-.27694-.0817-.52352-.0559-.23565.17497.65757-.0221.28399.0576.0681.083-.0709.0763-.39723-.0624-.41769.10971.45297-.069.30339s.009.002.023.002c.0325 0 .0893-.0131.10241-.10124.0191-.12559.0219-.2794.0219-.2794l-.0425-.37994.0881.43779-.016.20285.10336-.0702c-.0102.0406-.0178.0737-.0202.0903-.008.0589-.0743.0614-.0847.0614h-.002s-.006.0268-.0543.0875c-.0258.0317-.0506.0395-.0684.0395-.016 0-.0262-.006-.0262-.006l-.0757.0547s-.0273.0423-.15268.0801c-.006.002-.0112.003-.0163.004-.0121.003-.0227.004-.032.004" fill="#f7916e"/><path d="m62.456 222.9-.00042-.0437s-.46069-.77047-.56928-.77258l-.0588.007.12058-.0455h.006c.0725 0 .76425.0215.50175.85478" fill="#46772d"/><path d="m61.35 224.76c-.009-.007-.0227-.0307-.0399-.0663-.069-.14288-.19114-.48472-.25785-.81562-.0748-.37289-.1724-.80963-.17212-1.13 0-.0346.001-.0677.004-.0995.009-.10654.10746-.2032.24031-.28611h.00057l.70319-.26705.0588-.007c.10859.002.56928.77258.56928.77258l.00042.0437c-.01.0303-.0207.0614-.0325.0938 0 0-1.0382-.0885-1.2568-.0885-.0216 0-.0351 7e-4-.039.003-.0431.0215-.0535.26352-.0278.35207.0219.0741.14471.92004.24832 1.2284v.00035c-.0282.091-.0306.18063.001.26635" fill="#f7916e"/><path d="m66.09 226.3-.0538-.0765s-.11518-.0363-.18672-.0469c-.003-.00071-.007-.00071-.0112-.00071-.0367 0-.0899.0205-.15117.0413-.0614.0205-.13077.0413-.19981.0413-.004 0-.008 0-.0116-.00035-.14926-.005-.36671-.0896-.49996-.21625h-.00014c-.13367-.12594-.89863-.16581-1.8755-.44662-.97786-.28116-1.6771-.64205-1.7503-.8382-.032-.0857-.0296-.17533-.001-.26635v-.00035.00035c.0194.0572.0376.0956.0547.10725.0397.0275.12114.0854.25178.16192.22973.13477.61073.32703 1.1774.51541.8884.29492 2.2011.63571 2.2272.65088.0258.0162.20627.23389.2862.25435.0187.005.042.006.068.006.0846 0 .19844-.0205.2825-.0402.0499-.0116.12898-.0392.20352-.0392.0892 0 .17184.0392.19018.19261" fill="#f7916e"/><path d="m66.371 226.69.12277-.0593s-.0249.025-.0721.0487l-.0507.0106" fill="#fddf86"/><path d="m66.537 226.69c-.0422 0-.0434-.0512-.0434-.0575v-.00036l-.0244-.25117-.18852-.32809.2348.30127.0251.23954.12456-.0275.0594-.0631-.0256-.40676-.33249-.35242.35303.30621.0748.39017s.0715-.004.0988-.0868c.0266-.0836-.0165-.52211-.0165-.52211l-.35831-.24589.42005.23389s.0107.47343.0474.47661h.002c.0186 0 .0567-.0222.0908-.0455l-.009.0374c-.0185.0614-.0987.10513-.0987.10513s-.11437.127-.16206.15981c-.0482.0321-.10817.0459-.10817.0459s-.0586.0543-.13342.0847c-.0117.005-.0215.007-.0297.007" fill="#f7916e"/><path d="m62.546 220.27s-.002 1.4143-.0401 1.6358c-.0378.22154-.0263 1.1134-.0263 1.1134s-.66686-.25647-.92523-.25647c-.25838 0-.69233.0681-.69233.0681l-.2504.0413s.0217-.67839.0616-1.5321c.0401-.85372-.04-1.2838.26331-1.7494.30346-.46602.80162-.45896.91945-.40181.11797.0568.6974.24623.68996 1.0813" fill="#f14636"/><path d="m64.27 219.11c-.082.17957-.29337.39018-.98323.16757-.68985-.22189-1.1097-.70802-1.0825-.76552.0269-.0565.34371-.21767.47473-.52882.13078-.31185.0649-.33972.0834-.57397.004-.0466.006-.11112.007-.18556.004-.29915-.0101-.74895-.0101-.74895s.37635-.28786.67882-.56303c.30289-.27552.78246.19756.78246.19756l-.0234 2.256s.15501.56586.0729.74471" fill="#fab597"/><path d="m64.523 219.39c-.0947 0-.19901-.0303-.29299-.0356-.0424-.002-.0911-.0173-.14343-.0413.0966-.0522.15003-.12876.18284-.20073.01-.0215.0164-.0487.0201-.0801.15822-.001.22147-.037.26818-.0801.0361.0427.0703.0868.10224.133.0339.0487.0644.10583.0915.17074-.0553.10584-.13738.13406-.22846.13406" fill="#ee242b"/><path d="m64.752 219.26c-.0271-.0649-.0576-.12206-.0915-.17074-.032-.0462-.0662-.0903-.10224-.133.005-.005.0106-.01.0157-.0152.0205-.0205.0604-.0892.10597-.17462.0496.084.0951.18556.13162.30903-.009.0455-.0219.0921-.0389.13759-.006.0169-.0134.0324-.0207.0469" fill="#42619d"/><path d="m64.811 219.07c-.0365-.12347-.082-.22507-.13162-.30903.019-.0356.0392-.0741.0593-.11324.0333.06.0656.12664.0954.20073-.001.067-.007.14323-.023.22154" fill="#aada2d"/><path d="m64.834 218.85c-.0298-.0741-.062-.14076-.0954-.20073.009-.0183.0189-.0367.0283-.055l.0515.0268s.0176.096.0156.22896" fill="#889894"/><path d="m64.087 219.31c-.18976-.0868-.42665-.29245-.57976-.44838-.19113-.19508-.35525-.67839-.36188-.69779.0175.0314.0382.0635.0626.096.15586.20743.68503.74295.95991.76482.0429.003.0808.005.11455.005h.008c-.004.0314-.0102.0586-.0201.0801-.0328.072-.0863.14852-.18284.20073" fill="#f7916e"/><path d="m65.258 216.06s.13205.22366.0973.66498c-.0347.44168-.0827.64665-.13558.774-.053.12735-.24461.71508-.30719.81915-.0626.10407-.28015.56268-.33927.62159-.0588.0589-.13116.11219-.40598.0907-.27488-.0219-.80405-.55739-.95991-.76482-.15614-.20744-.15889-.40252-.14389-.47837.015-.0759-.2818-.45297-.26748-.69215.0144-.23918.15448-1.4436.82134-1.5042.66682-.0607 1.6407.4692 1.6407.4692" fill="#fab597"/><path d="m62.204 218.52c.0269-.0565.34371-.21767.47473-.52882.071-.16933.0841-.25506.0841-.33549 0-.0462-.004-.0907-.004-.14852 0-.0265.00099-.0561.004-.09.004-.0466.006-.11112.007-.18556.0175.005.0343.0109.05.0191.0299.0988.0842.20461.13409.29704-.002.005-.13105.42616-.24073.62018-.11081.19544-.50839.35208-.50839.35208" fill="#f7916e"/><path d="m62.953 217.54c-.0499-.0924-.10417-.19826-.13409-.29704.0802.0413.13395.13123.13409.29669v.00035" fill="#f7916e"/><path d="m63.875 216.75s-.18521.22119-.18863.26599c-.004.0452-.051.18662-.051.18662l-.20891.0628c-.0148.0148-.12002.14253-.12361.18768-.004.0448-.0153.19368-.0153.19368l-.13257-.16016s.14044-.51471-.15022-.51047c-.29047.005-.12153.43427-.12153.43427l-.12375.0406s-.14002-.12877-.14083-.69568c-.00071-.56692-.016-.89006.12277-1.2146.13906-.32455.43395-.50094.85397-.59478.42005-.0938 1.1483.1584 1.4193.46108.27093.30198.39825.81527.40858.97049.0106.15487-.0781.46567-.0781.46567s-.0785-.14252-.11645-.12277c-.0379.0198-.21332.17357-.57104.16828-.35775-.006-.68749-.19474-.7826-.13864" fill="#3d1d21"/></g><g fill="#fbc6ae"><path d="m63.117 217.17s-.0894-.24836-.24846-.30163c-.15885-.0533-.25287.0162-.22818.22119.0247.20497.18712.54504.28251.55845.0956.0134.15088-.0166.15392-.0974.003-.0808.0776-.29739.0402-.38064"/><path d="m64.91 216.94s-.0315.2286-.0309.39193c.00099.16334-.0271.26988-.0271.26988s-.33779-.0402-.52807-.0416c-.19047-.001-.39882-.0314-.4359.007-.0369.0377-.10735.15523-.10735.15523s.26572.33972.36601.36159c.10033.0215.14101.0109.14101.0109s-.14291.2861-.32594.26282c-.18284-.0233-.42622-.28787-.50133-.45685-.0751-.16933-.0258-.36265-.0224-.40322.003-.0406.24846-.266.27559-.28434l.10156-.27446.16676-.133s.30688.0921.47473.11218c.16796.0201.45336.0222.45336.0222"/><path d="m64.735 217.48-.0413.52387-.1724.15981c-.002.0307.0915.13265.17127.15628.0798.0236.14884.0529.15092-.0152.002-.0677.001-.67028.009-.70661.008-.0363-.1173-.11818-.1173-.11818"/></g><g><path d="m170.03 257.12-1.2679-.73202c.48859-.121.6738-.43074.68403-.4579.0116-.0318.32103-.39511.45509-.46743.13405-.072.28786-.28046.28963-.29951.002-.0198-.0233-.1778-.0321-.29563-.004-.0437-.0212-.0751-.0423-.0977-.0205-.0741-.0759-.17145-.0977-.23389-.006-.0169-.0116-.0335-.0176-.0494.006-.003.0106-.006.0152-.01.10725-.0705.17463-.17003.17463-.3175 0-.007-.00036-.0145-.00036-.0222-.002-.0349-.002-.0755-.002-.12171 0-.0928.003-.20778.007-.34255 1.5663.57292 2.0578 1.7611 1.0848 2.7129-.31644.30938-.75036.55703-1.2495.73413m-2.3315-1.3458-2.5647-1.481c-.004-.0519-.007-.10478-.0113-.15417.0282-.012.0515-.0222.0635-.0282.0998-.0497.15663-.0974.15663-.0974s.009-.25153.0356-.63535c.40781.0335.80998.10795 1.1885.22684.53481-.16193 1.131-.24765 1.7314-.24765.0716 0 .14288.001.21449.004.0639.5588.11042.98072.15487 1.0982.006.0152.0116.0293.018.0427-.109.1785-.29492.4445-.55527.68262-.27869.25471-.3937.44768-.4318.58985" fill="#7c4523"/><path d="m168.08 257.44c-.57962 0-1.1628-.0797-1.6986-.24765-.53481.16157-1.131.2473-1.7311.2473-.58561 0-1.1748-.0815-1.7152-.25365-1.415-.4512-2.044-1.3804-1.6468-2.2468l-1.1091.38523.5842.52705c.14322.12736.007.33796-.24836.38876 0 0-1.7473.42369-2.3301.46673-.16792.0123-.32102.018-.46072.018-.28752 0-.51859-.024-.70873-.0621-.23284-.0469-.40429-.11536-.54046-.18556-.10372-.0674-.15452-.16439-.16087-.27728.0632.007.12983.0102.20109.0102.28575 0 .64099-.0607 1.0986-.23319.51858-.19473 1.9452-1.1388 1.9452-1.1388.0166-.01.0317-.0205.0462-.0317l.17356.15664.9271-.35207h.0342l1.1963-.42369c.44944-.33373 1.0488-.57503 1.7085-.70908-.001.36865-.002.60677-.002.60677 0 .00071.004.0508.061.10654-.0836.0526-.17321.0984-.25471.11924-.25364.0635-.86924.22225-1.0439.31539-.17497.0935-.43144.26599-.43956.37994-.0116.16616.1457.46178.55916.46178.0261 0 .0529-.001.0811-.004.47413-.0413.91545-.1838 1.2037-.35102.28752-.16722 1.0456-.0808 1.2051-.16722.1591-.0861.1517-.20813.139-.39934-.004-.0646-.0106-.15804-.0176-.25435l2.5647 1.481c-.002.01-.005.0197-.007.0296-.10901.0885-.0653.35172-.0653.35172s.0949.28117.70555.28117c.0384 0 .0794-.001.12241-.004.1136-.006.2159-.0222.30763-.0452l1.2679.73202c-.58843.20919-1.2675.32067-1.9523.32067" fill="#3d3330"/><path d="m162.75 248.62s.0554.4198-.009.92321c-.008.0642.95532-.59407.95815-.69179.003-.0974-.0572-.63747-.0572-.63747l-.48049-.004-.27305.066-.13829.34432" fill="#fab494"/><path d="m162.81 248.26s.0169.037.14182.0695c.0684.0176.16827.0339.31538.0423.10654.006.19438.008.26599.009.20708.001.27799-.0152.27799-.0152s.32103-2.1206.33091-2.4511c.01-.33091.043-1.1501-.21908-2.0098-.0614-.20038-.12065-.46355-.17427-.74824-.17815-.93662-.30621-2.1121-.30621-2.1121l-.20391-.39158s-.51717.0409-.80503.56303c-.0564.10231-.0825.23848-.0868.39723v.001c-.0173.65087.32491 1.6725.37183 2.2165.0582.67557-.0783 1.5342-.0335 1.9434.0445.40922.12488 2.486.12488 2.486" fill="#f14436"/><path d="m163.56 248.38c-.008 0-.0155-.00035-.0236-.00035.0346-.33303.11889-1.0802.21908-1.5113.133-.56656.27164-1.543.14464-2.0507-.11712-.47061-.28222-.89147-.30586-.95074.0508.0713.10089.13935.14887.20285.14464.19156.25083.35525.33549.50095.06.37994.0737.7246.0737.98742 0 .14676-.004.26811-.007.35525-.01.33055-.33091 2.4511-.33091 2.4511s-.0653.0155-.25435.0155m.00071-4.56c-.14076-.1852-.72461-.96414-.80928-1.2647-.002-.007-.004-.0141-.005-.0205.0508.0963.11042.19121.17922.28293.0201.0268.0399.0533.06.0801.17356.32279.37994.64523.57503.92216" fill="#b22622"/><path d="m162.95 248.33c-.12489-.0325-.14182-.0695-.14182-.0695s-.0804-2.0768-.12488-2.486c-.006-.06-.009-.12947-.009-.20673.00036-.35418.0572-.86959.0575-1.3543 0-.13088-.004-.25964-.0148-.38241-.0455-.53023-.37183-1.5138-.37218-2.1661-.00035-.0169 0-.0339.00035-.0504.0138.0575.47766 1.9939.4886 2.0934.0109.10125.18027.80857.14076 1.1095-.0272.21448.0554.24518.10477.24518.0201 0 .0346-.005.0346-.005l-.26317.26423s.13229 2.1018.15205 2.2839c.01.0896-.0198.41698-.0526.72425" fill="#b22622"/><path d="m165.01 254.43s.16651.0476.19473.22401c.0282.17639.0106.36654.009.41981-.002.0533-.0568.21519-.54469.20673-.48754-.008-.47695-.1076-.73095-.0434-.25365.0639-.26741.23883-.58279.32737-.31574.0885-.96485.10866-1.1599.0222-.19579-.0868-.25082-.26-.23953-.37042.0113-.11006-.0614-.33478.26529-.41098.32702-.0762 1.2347-.19086 1.2347-.19086l1.5543-.1845" fill="#302a26"/><path d="m164.03 253.94s-.33091.30939-.58491.37359c-.25364.0635-.86924.22225-1.0439.31539-.17497.0935-.43144.26599-.43956.37994-.0123.17639.16616.49953.6403.45826.47413-.0413.91545-.1838 1.2037-.35102.28752-.16722 1.0456-.0808 1.2051-.16722.1591-.0861.1517-.20813.139-.39934-.0127-.19085-.0437-.63429-.0508-.64594l-1.0689.0363" fill="#da9c3a"/><path d="m163.64 254.09s.0116.14958.28716.22049v.002c.0497.012.10654.0212.17568.0286.17322.019.67804-.0737.80116-.11394.0593-.019.23919-.091.28152-.11254.0998-.0497.15663-.0974.15663-.0974s.036-1.0132.17851-2.0761c.14252-1.0633.11359-1.694.121-2.1213 0-.0854-.0402-.16827-.10689-.24659-.26564-.30621-1.186-.58596-1.3264-.5909-.13229-.005-.34113-.14711-.45296.14958-.0286.0734-.0497.17533-.0614.31573-.002.0378-.007.0804-.01.12806-.0353.84455-.0441 4.5138-.0441 4.5138" fill="#3256a0"/><path d="m163.78 249.45s.26741.44379.62442.49354c.22401.0321.73095.0833.94156.0282.12418-.0325.23072-.0819.30127-.15064.18909-.1838 1.4534-1.7279 1.4534-1.7279s.99448-1.2182 1.1261-1.4489l.0148-.0311c.0184-.10618-1.0414-1.3508-1.7727-1.3755-.7313-.0243-1.0238.50765-1.2407.82797-.2166.32138-1.4157 2.8557-1.4654 3.0639l-.00071.003c-.048.20637.018.3175.018.3175" fill="#3256a0"/><path d="m165.64 250.5c.006-.27693.003-.49777.006-.68157v-.001c.0706-.0688.28681-.32174.53128-.61384-.24482.29316-.46108.54681-.53128.61489-.003.1838.00035.40464-.006.68157" fill="#403222"/><path d="m165.19 254.11c.0452-.57891-.0254-1.3409.055-1.8175.15205-.9017.13547-1.6111.10936-1.7346-.0127-.0519-.0339-.37253-.0469-.5842.0131-.002.0251-.005.0367-.008.12418-.0325.23072-.0819.30127-.15064.00036 0 .00036-.00035.00071-7e-4v.001c-.003.1838.00035.40464-.006.68157-.008.3676-.0339.83326-.115 1.4397-.14252 1.0629-.17851 2.0761-.17851 2.0761s-.0568.0476-.15663.0974" fill="#263a72"/><path d="m165.31 249.98c-.007-.10865-.0109-.18873-.0109-.18873.0519-.0755.35666-.37042.43039-.45579.34572-.393.65334-1.1046.85019-1.6302.007-.008.0141-.0169.0215-.0258.0511.007.10372.0127.1584.0169.009.001.0183.002.0279.003h.0131c.0296.002.0593.004.0889.005.043.0243.085.0335.12524.0335.0459 0 .0896-.012.12982-.0272.0102 0 .0205.00036.0303.00036.0579 0 .11571-.001.17321-.002.002.008.004.0166.006.0258.002.0102.005.0219.008.0353-.15169.18838-.26211.32279-.26211.32279s-.502.61454-.9204 1.1144c-.24447.2921-.46072.54504-.53128.61384-.00035.00035-.00035 7e-4-.00071 7e-4-.0705.0688-.17709.11818-.30127.15064-.0116.003-.0236.006-.0367.008" fill="#263a72"/><path d="m163.93 254.31c-.0751-.0201-.13053-.0455-.17145-.072.0409.0265.0963.0515.17145.0709v.001" fill="#947934"/><path d="m163.93 254.31h-.00035v-.001c-.0751-.0194-.13053-.0445-.17145-.0709-.10901-.0705-.11571-.14887-.11571-.14958 0 0 .01-3.6689.0455-4.5141.00035-.0148.001-.0289.002-.043l.0441-.0388c.0526.0603.11924.11853.20355.16474.0554.0603.12312.12383.20003.17569-.0198.14781-.0487.5408-.0741.82902-.0321.36478-.17674 2.8296-.15028 2.9524.0226.10513.0356.4766.0169.69568" fill="#27498f"/><path d="m164.14 249.83c-.0769-.0519-.14464-.11536-.20003-.17569.00035 0 .00071.00036.001.00036.19297.10512.23142.12629.23072.12629 0 0-.005-.002-.01-.005-.005-.002-.01-.005-.01-.005-.004.003-.008.0243-.0123.0586" fill="#27498f"/><path d="m170.04 254.72s.1143.0296.12382.14781c.009.11783.0339.27587.0321.29563-.002.019-.15558.22754-.28963.29951-.13406.0723-.44345.43568-.45509.46743-.012.0321-.27128.46319-.99166.50306-.72037.0406-.82796-.27764-.82796-.27764s-.0437-.26352.0656-.35207c.10866-.0889 1.44-.57326 1.44-.57326l.90276-.51047" fill="#302a26"/><path d="m168.8 254.3s-.22719.48472-.66993.8897c-.44273.40499-.47307.6537-.43533.79093.0381.13794.25683.35172.67593.30974.41945-.0416.73624-.2293.93027-.41945.19403-.1898.38594-.43321.57609-.66075.18979-.2279.2159-.12736.24624-.37607.009-.0713-.0766-.21131-.10478-.2928-.0702-.20214-.14428-.33937-.14428-.33937l-1.0742.0981" fill="#da9c3a"/><path d="m166.77 247.59c.20814.26776.40746.0773.52246.0582l.0501.0356s.27305 1.167.67874 2.636c.40534 1.4693.53622 3.8336.65158 4.1384.0529.14006.12312.20003.2159.21802.10831.0226.29528.0307.47414 0 .16968-.0289.54257-.12277.65863-.20003.11254-.0741.18098-.17956.17427-.33972-.0145-.32491.0459-1.1483.0317-2.2102-.013-1.0615-.3175-1.5095-.3249-1.6711-.007-.16228.0804-3.0156.0272-3.8788-.0533-.8636-.4378-1.1994-.4378-1.1994s-.0868.0198-.23107.0533c-.69144.16052-2.7012.63994-2.697.76659.004.15275-.0434 1.2725.20602 1.5931" fill="#3c60ac"/><path d="m167.35 247.73c-.002-.009-.004-.0176-.006-.0258.002.007.004.0155.006.0258" fill="#1e284e"/><path d="m168.89 254.68c-.0928-.018-.16298-.078-.2159-.21802-.11536-.3048-.24624-2.6691-.65158-4.1384-.33584-1.2167-.5909-2.267-.66851-2.5919-.002-.0102-.004-.0191-.006-.0258.0152-.00036.0307-.00071.0459-.001.21061.35737.52917 1.7695.60537 2.1262.0832.3944.27411.87982.39758 1.6334.0272.1658.33655 1.3018.3563 1.5318.0434.50835.018 1.1843.13688 1.6842" fill="#263f7d"/><path d="m170.02 254.48c-.0257-.27058.007-1.0054.0212-1.5325.0222-.85267-.0864-1.8588-.29739-2.6197-.091-.67239-.0512-1.325-.00071-1.9847.024-.30727.0462-.70767.0575-1.0851.037-.0127.0564-.0198.0564-.0198l.012-.031c.0155-.0399.0445-.11854.0755-.22402 7e-4.0893.001.1831.001.28082 0 1.1162-.0448 2.6949-.0448 2.9626 0 .0148.00036.0258.00036.0325.007.16157.31185.6096.3249 1.6711.002.11183.002.22119.002.32773 0 .115-7e-4.22683-.002.33478-.008.63536-.0346 1.1374-.0346 1.4259 0 .0462.00071.0868.002.12171 0 .008.00036.0152.00036.0222 0 .14747-.0674.24695-.17463.3175" fill="#263f7d"/><path d="m164.47 239.68s.71966.0596 1.5028.34996c.78281.28998 1.0262.34043 1.3042.77787.27764.43745 1.0167 2.4352 1.3398 2.9365.32314.50165 1.035 1.3367 1.1183 1.4654.0829.12912.20603.50765.21767.61384.0113.10583.23495.65581-.44027 1.1437-.67521.48754-1.2778.72955-2.7273.72672-.83679-.0776-1.2831-.72672-1.2958-.77152-.0127-.0445-.38029-.50977-.38417-.50412-.004.005.1023-.66887-.0346-.90699-.13688-.23848-.31362-.31115-.393-.40958-.0801-.0988-.31856-.3182-.38876-.67874-.53163-.51717-.95955-1.0686-1.3635-1.6073-.40358-.53869-.48507-1.1733-.38312-1.6834.29951-1.4961 1.9276-1.4524 1.9276-1.4524" fill="#ee2630"/><path d="m162.74 241.54c.19967.41028 1.4711 2.2108 1.4711 2.2108s-.18979.54364-.0639.65017c.12559.10937.60501.96591.74013 1.0107.13758.0452.15452.87313.15452.87313s.18485 1.3049 1.7388 1.4069c1.554.10195 3.0723-.45756 3.0723-.45756l.012-.031c.0452-.11607.20638-.5648.19227-1.0368-.019-.54821-.29422-1.1412-.31821-1.198-.0236-.0593-1.5229-1.7533-1.5229-1.7533l-.024.0758-.25859.81598s-.87065.53163-1.2954 0c-.42686-.53587-.89429-1.765-.87771-2.7139.0166-.94897.87771-1.1127.87771-1.1127l-.66886-.25153s-.71191.41522-.75459 1.4827c-.0427 1.0654.79727 2.5506.79727 2.5506l-1.2411-.37747s-1.2809-1.7293-1.3282-2.2299c-.0476-.50306.25365-.84243.25365-.84243l-.46496-.22295s-.69286.74259-.49142 1.1508" fill="#3c60ac"/><path d="m164.23 243.67c-.0117.0864.0501.17886.13793.20673.0875.0279.16828-.0198.17957-.10619.0113-.0864-.0505-.17921-.13829-.20673-.0878-.0275-.16793.0198-.17921.10619" fill="#f5782d"/><path d="m166.13 244.02c-.0113.0864.0504.17885.13829.20672.0878.0275.16792-.0198.17921-.10618.0116-.0864-.0501-.17921-.13793-.20673-.0878-.0275-.16828.0198-.17957.10619" fill="#f5782d"/><path d="m169.8 247.26s.0642-.65476 0-1.21c-.0614-.5528-.42898-1.1363-.47907-1.1956-.0109-.0138-.0741-.0702-.1651-.14958l.10054-.0889c.0363-.0332.066-.072.0878-.1143.2226.25647.39123.45403.39899.47378.024.0568.29916.64982.31821 1.198.00035.0205 7e-4.0406 7e-4.0607-.00035.44944-.14993.86501-.19297.97614l-.0691.0497" fill="#263f7d"/><path d="m169.74 246.77s-.26353-.0713-.60925-.091c-.34643-.0198-.895-.58314-.895-.58314l.75212.2547.75213.41945" fill="#263f7d"/><path d="m166.3 244.62s.36019.92075.3175 1.0044c-.0229.0445-.8068.26211-.8068.26211l-.79728-.61066c-.067-.0519-.45614-1.0788-.44626-1.156.0102-.0773 1.6753.30021 1.7328.50024" fill="#4a70c0"/><path d="m166.06 244.43s.23883.0815.27658.16687c.0374.0854.0755.22366.0593.27234-.0162.0487-.84313.078-.86995.0564-.0272-.0215-.86395-.44485-.89288-.5214-.0289-.0765-.1531-.32808-.12065-.34008.0325-.012.44309.0572 1.5476.36583" fill="#688dd0"/><path d="m168.79 244.12-9.9056 8.8032-.60113 1.385 10.971-9.6975c.0688-.0624.1143-.14605.12629-.23389l.001-.006c.0261-.18697-.1016-.34255-.28751-.34819l-.0409-.001c-.0931-.003-.18803.0328-.26281.0991" fill="#502818"/><path d="m165.1 247.49-6.0374 5.3658-.36654.84385 6.6869-5.9108c.042-.0381.0695-.0889.0769-.14217l.00035-.004c.0162-.11395-.0617-.20885-.17498-.21238l-.025-.001c-.0565-.002-.11466.0201-.16016.0607" fill="#823f21"/><path d="m162.75 248.62s-.11183.15169-.13229.29386c-.0208.14252-.0381.23248-.078.33373-.0512.13017-.16263.49636-.1584.55562.004.0593.00035.20355.078.2787.0769.0751.20073-.12383.19473-.13759l-.0148-.24906.38876-.58102s-.23742-.48966-.27799-.49424" fill="#fab494"/><path d="m165.41 239.94s.26741.24341-.16404.89041c-.43109.64664-.5782.82303-.57115 1.2199.008.39688 1.3229 4.1381 1.6164 4.2492.29351.11148 1.5215.14111 2.1978-.49883.67592-.64029.49212-1.706.49212-1.706s-.63852-1.2506-1.0576-2.2648c-.41875-1.0142-.94086-1.5215-.94086-1.5215s-2.0034-.75107-2.534-.66146c.0896.14146.16757.14111.30092.14076.13688-.00071.33267-.001.6604.1524" fill="#acd91e"/><path d="m165.55 247c-.0392-.0455-.0639-.0759-.0639-.0759l-.24412-.33302.50694-.14006.34749-.4131c.0811.15381.14746.25047.19085.2667.001.00035.002.00071.003.001-.025.0346-.0497.0684-.0737.10195l-.66639.59232" fill="#1e262f"/><path d="m165.68 247.14c-.0487-.0526-.0935-.10371-.1277-.14322l.66639-.59232c-.26987.37112-.49247.6731-.53869.73554" fill="#371412"/><path d="m166.29 246.31c-.001-.00035-.002-.00071-.003-.001-.0434-.0162-.10971-.11289-.19085-.2667l.0222-.0261s.78211-1.3046.77294-1.3878c-.009-.0836-.21167-.60607-.21378-.62865l-.139-.76377c.0776.1778.16122.34326.2473.49178.3302.56938.57291 1.0336.57291 1.0336-.0893.18415-.62442.93557-1.0689 1.5487" fill="#7b711c"/></g><g fill="#fab494"><path d="m164.43 247.78.0741.0547c.0681.0272.14675.0236.14675.0236s.34078-.0624.41275.0833c.0723.14464-.16968.60043-.16968.60043l-.14958.45614-.073.0847s.03.0162.072.0307l.003.00035.0843.018c.0825.006.24482-.0977.24482-.0977l.11677-.1972s-.0236.0642.18839.0409c.21237-.0229.25717-.13053.25717-.13053s.12982-.0243.17604-.11606l.043-.0631c.0871-.10971.26035-.28257.30656-.38876.0561-.13088.40076-.6417.40076-.6417l-.69815-.30269s-.10654.10443-.18345.14747c-.0765.0441-.68685.0751-.68685.0751l-.43286.1083s-.0413.0279-.0794.0663c-.0437.0434-.084.10195-.0533.14782"/><path d="m163.61 249.54s-.0236-.0988.0243-.1711c.0473-.0723.13934-.0843.1972.024.0582.1083.11924.1718.049.22013-.0706.0483-.24871.0727-.24871.0727s.0699.0762-.0399.17216c-.10936.0956-.22683.0928-.22683.0928s-.007.14005-.13476.2092c-.12771.0691-.25541-.0956-.25541-.0956s-.0162-.11606.0758-.13758c.0921-.0219.22719-.0561.22719-.0561s-.0162-.17533.0603-.22437c.0765-.049.22331-.018.22331-.018l.0483-.0882"/><path d="m162.76 250.09s.13053-.10196.18133-.0536c.0504.049.0466.15911.0466.15911s-.0646.18062-.11677.18238c-.0526.002-.14534-.001-.14534-.001l.03-.13899.004-.14781"/><path d="m164.27 239s.13088.40499.33972.63288c.20885.22754.62371.14146.72355.40181.10019.25965-.3302 1.0481-.87242 1.3268-.54222.27905-.71826-.11571-.89041-.42933-.17216-.31362-.28046-.97684-.28046-.97684s-.25717-2.267.98002-.95532"/></g><g><path d="m163.87 239.9s-.39793.65158-.45191 1.2799c-.0261.30515.35207.67239.41381.77152.0617.0991 1.5085 3.6417 1.5092 3.7888.00071.14676-.53093.0494-.79974-.32631-.26882-.37571-.32033-.70627-.80328-1.3455-.51364-.67945-1.2294-1.8373-1.1631-2.4567.066-.61948.38559-1.2809.38559-1.2809l.90946-.43074" fill="#acd91e"/><path d="m163.58 241.63c-.06-.0882-.1143-.18556-.14252-.28258.001-.1845.0469-.34254.0998-.46355.009.0187.0176.0363.0268.0529.12876.2346.25964.5147.54469.52388-.16581.0727-.39547.16122-.48507.16474-.0141.00071-.0289.002-.0438.005" fill="#ee2329"/><path d="m163.44 241.34c-.0159-.0547-.0236-.10971-.019-.16227.0116-.13547.0392-.272.0755-.40288.0137.0356.0282.0699.0434.1016-.0529.12101-.0988.27905-.0998.46355" fill="#334d7a"/><path d="m164.11 241.46c-.28505-.009-.41593-.28928-.54469-.52388-.009-.0166-.018-.0342-.0268-.0529-.0152-.0317-.0296-.066-.0434-.1016.0116-.0423.0243-.0843.0374-.12523l.3362-.0367s.17921.28928.17921.36089c0 .0716.248.37183.24941.387.00036.006-.0801.0459-.18732.0924" fill="#f58d6b"/><path d="m163.35 241.66c-.0967 0-.21238-.0286-.36054-.13476-.31609-.22613-.20814-.45755-.20814-.45755l.67063-.40782.079-.008c-.013.0409-.0257.0829-.0374.12523-.0363.13088-.0639.26741-.0755.40288-.005.0526.003.10759.019.16227.0282.097.0825.19438.14252.28258-.0667.0109-.1397.0356-.22965.0356" fill="#a9d92c"/></g><g fill="#fab494"><path d="m161.42 238.91s-.0335.29986.17498.66605c.20849.36547.38311.51011.40075.53375.018.0236.0363.56868.0409.60925.004.0402.30727-.0335.30727-.0335l.18874.27058s.29704.33091.46214.34855c.1658.0176.79234-.4699.86854-.66217.0762-.19226-.2921-.66357-.38947-.85478-.0977-.1912.29457-.6738.19509-.88265-.0995-.20919-1.4997-1.5646-2.249.005"/><path d="m165.07 249.03.11677-.1972s-.0236.0642.18839.0409c.21237-.0229.25717-.13053.25717-.13053s.12982-.0243.17604-.11606l.043-.0631-.09.0321-.0328.004-.13406.03-.11677.14076-.16686.0797-.0699-.0335.15134-.31221-.13758.11148-.18486.41416"/><path d="m164.87 247.8-.37147.0402c.0681.0272.14675.0236.14675.0236s.34078-.0624.41275.0833c.0723.14464-.16968.60043-.16968.60043l-.14958.45614-.073.0847s.03.0162.072.0307l.003.00035c.042.0162.10442-.28363.10442-.28363l.32315-.62689.0462-.27905-.34431-.12982"/><path d="m164.43 247.78.0741.0547c-.006-.0748-.0134-.14182-.0208-.2025-.0437.0434-.084.10195-.0533.14782"/></g><g><path d="m161.71 239.26s.51859-.26071.61772-.10301c.0991.15804.30762.52387.42192.58808.1143.0642.34078.0293.41698.0748.0765.0452.1517.078.1517.078l.0963-.10513s-.23565-.19156.14852-.27446c.38488-.0825.26106.0924.53305.0586.2727-.0339.30727-.13229.34325-.18062.0356-.0487-.19614-1.3324-.61736-1.7258-.42157-.39405-1.6076-.44344-2.0613.13264-.45332.57574-.59231 1.4602-.50518 1.6037.0875.14394-.0473-.29633.45438-.14675" fill="#3d1d21"/><path d="m165.66 247.63c.12136.31856.42792.4071.55457.42298l.0494.002c.0607-.006.44097-.56938 1.294-1.4213.85301-.85231 1.252-1.6013 1.2361-1.7448-.0155-.14464-.56409-2.3618-.81351-3.0328-.24976-.67028-.744-1.4065-1.0358-1.4072-.2921-7e-4-.85302.25612-.81845 1.0724.036.81703.33197 1.6355.66252 2.2059.3302.56938.57291 1.0336.57291 1.0336-.15663.32385-1.6902 2.3982-1.6902 2.3982s-.15451.096-.0116.47131" fill="#f14436"/><path d="m166.26 248.05-.0303-.001-.019-.00071c.18415-.20285.57891-.64488.80468-.93945.30269-.39299 1.4788-1.7561 1.6051-2.093.12665-.33796-.33055-1.7656-.45402-2.1968-.12347-.43109-.74648-2.1428-1.2256-2.3752.29175.00071.78599.73695 1.0358 1.4072.24942.67099.79799 2.8882.81351 3.0328.00035.003.00035.006.00035.009-.00035.12877-.24694.61031-.75741 1.216-.1397.16545-.29951.34043-.47907.51999-.4371.43674-.75036.79728-.95956 1.046-.007.009-.0145.0173-.0215.0258-.18556.22084-.28434.34643-.31291.3496" fill="#b22622"/></g><g fill="#fbc4ac"><path d="m163.55 239.67s-.10442-.28257.10054-.27693c.20532.006.25823.28117.26564.34925.007.0684-.008.37183-.17815.33408-.17075-.0377-.18839-.2607-.18627-.26881l-.002-.13759"/><path d="m161.57 239.38s.3683.002.4512-.049c.0825-.0515.1143-.18132.35701.11042.24271.29175.16122.25859.26952.35031.10866.0917.37959.012.51012.0861.13088.0737.22789.3997.16581.6029-.0625.2039-.59197.16439-.71614.0437-.12453-.12065-.0243-.14287.0991-.19473.12347-.0519.26952-.11748.13405-.23319-.13546-.11571-.54539-.18591-.69285-.16616-.14746.0198-.21661.0159-.27129-.0279-.055-.0437-.30656-.52246-.30656-.52246"/><path d="m162.07 240.22s.0254.35384.0427.38841c.0169.0346.29034.0261.30304-.0328s-.16228-.18767-.19368-.22824c-.031-.0409-.12841-.1778-.1531-.19403l.001.0667"/></g><g><path d="m155.94 256.12c.15628.0519.34431.0924.57962.0924.28575 0 .64099-.0607 1.0986-.23319.51858-.19473 1.9452-1.1388 1.9452-1.1388.21273-.12488.24695-.41451.0589-.53481l-1.9928-1.2905-.0293-.0183c-.12947-.061-.29916-.018-.40076.11112 0 0-1.1755 1.0167-1.4608 1.6983-.22649.53904-.17216 1.1437.20143 1.3137" fill="#7b8e96"/><path d="m157.93 254.62-.64699.0646.0974-.36866 1.7022-1.5917s.11042-.0639.3302.13159c.22013.19543.0579.40604.0579.40604l-1.5406 1.3582" fill="#b7c1c4"/><path d="m159.12 252.76s.29668.10371.32632.20743c.0296.10407-1.7202 1.5423-1.7202 1.5423l-.28928.0808.0374-.21449 1.6457-1.6161" fill="#cad2d3"/><path d="m155.94 256.12c.15628.0519.34431.0924.57962.0924.28575 0 .64099-.0607 1.0986-.23319.51858-.19473 1.9452-1.1388 1.9452-1.1388.21273-.12488.24695-.41451.0589-.53481 0 0-1.4132.92393-1.9477 1.1261-.5341.20108-1.5035.48436-1.4898-.32385.0134-.8068 1.4154-2.111 1.4154-2.111-.12947-.061-.29916-.018-.40076.11112 0 0-1.1755 1.0167-1.4608 1.6983-.22649.53904-.17216 1.1437.20143 1.3137" fill="#b7c1c4"/><path d="m157.57 255.47c-.43673-.27552-.88441-.80363-1.1194-1.1035.0511-.0857.1076-.17109.16722-.25541l.43109.1263.18768.18238.0942.10725-.0423.15981.19579-.0194.40957.17286.24236.079.14888.1531s.0123.0148.0293.0356c-.25153.14288-.48543.26529-.64312.32491-.0321.012-.066.0243-.10125.037" fill="#414b51"/><path d="m157.29 254.69.0423-.15981.10583.12029.0476.0201-.19579.0194" fill="#5e666b"/><path d="m158.07 255.65c-.15522 0-.32632-.0691-.49883-.17815.0353-.0127.0691-.0251.10125-.037.15769-.0596.39159-.18203.64312-.32491.0303.0363.0758.0907.0967.11289.0325.0346-.0819.24201-.0819.24201l-.16827.17639c-.03.006-.0607.009-.0921.009m-1.6182-1.2816c-.10548-.13441-.16792-.22331-.16792-.22331l.11395-.0967.22119.0646c-.0596.0843-.11607.16969-.16722.25541" fill="#5e666b"/><path d="m156.31 253.95s.031.0755.18556.15804c.0751.0402.24271-.0141.32879.10866l.26458.37571.40499.20743.4057.10901.30585.29421s-.0194.37501-.049.43075c-.0296.0561-.67734.22401-.72426.26352-.0466.0395-.28398.12876-.28398.12876l-.52423.049-.36548-.01s-.0988.0893-.31644-.0889c-.21731-.1778-.21731-.0988-.21731-.0988v-.53375l-.0102-.31573.0152-.39723.19473-.29387.38559-.38699" fill="#262525"/><path d="m156.35 254.09s.0642.0395.25718.14358l.19261.10371.11889.15311.15805.22719.26176.14852.36089.0889s-.0741.005-.44979.0247l-.37536.0198.26635.21766s.12382.0392.0695.1136c-.0547.0741-.53376.10371-.53376.10371l.57821.13335.67239-.24694-.0148.21731s-.75141.17286-.79092.21731c-.0399.0448.30127.12382-.19297.10901-.49389-.0148-.45438.005-.45438.005l-.43533-.21273-.0741-.23213s-.31609-.20249-.10372-.20249h.37042l-.0455-.20179.127-.21343s.44273-.14323.0868-.16334c-.35595-.0197-.30621-.079-.35595-.0197-.0494.0593-.21731.32632-.21731.32632l-.0388-.32632.30586-.3175.18768-.16687.0691-.0494" fill="#333436"/><path d="m162.17 261.05h-2.3823l-.82832-.11924-.88371-.50447-1.7427-.6029-.30762-.84596.64417-.89958.2974-.28293 1.4884-.22119 2.3315-.30269 2.3555.52388-.97225 3.2551" fill="#3d3330"/><path d="m161.6 255.7c-.085.003-.17004.01-.2547.0162l-.0674.0197c-.0339.0289-.0243.0815-.025.12559-.002.16757-.18027.26952-.33479.33444-.15416.0653-.33372.16086-.34395.32808-.006.0949.049.18768.0346.28187-.0247.16263-.28505.27587-.39441.39405-.12559.13582-.23848.29069-.40887.3743-.0607.03-.12559.049-.18697.0773-.27164.12347-.44626.42298-.44132.72143 7e-4.0434.004.0896-.0166.12735-.0201.037-.0582.0586-.0942.0797-.26811.15451-.5274.32949-.77187.51929-.19368.15028-.19474.3757-.38171.52916-.0328.0272-.0705.0529-.0854.0924-.024.0642.0236.13582.0836.16898.06.0332.13017.0402.19544.0614.17956.0572.30903.20955.45614.32809.27975.22507.63817.33302.99483.37359.35701.0402.7172.019 1.0763.0134.18556-.003.37394-.001.55209.0519.25153.0741.49177.19474.74084.27588.27622.0896.57996.0547.86642.0737.22154.0141.44415.0582.66393.0254.21942-.0328.44379-.16687.49847-.38206.0243-.0974.0123-.20355.0511-.29669.0621-.14781.23213-.2166.39018-.24412.15733-.0272.3249-.0296.46531-.10689.21696-.11924.31327-.38559.51435-.53093.12876-.0928.28963-.12841.43321-.19685.14358-.0684.28222-.19368.28258-.35278 7e-4-.23319-.25295-.29951-.36231-.4632-.16439-.24553-.29668-.52846-.44626-.78493-.0328-.0568-.0667-.1143-.11501-.15839-.048-.0438-.10724-.072-.16721-.0967-.51365-.21307-1.1441-.21872-1.5261-.623-.16863-.17815-.2667-.41557-.44238-.58667-.10513-.10301-.2346-.17745-.36195-.25083-.20779-.11923-.4191-.23988-.6537-.29033-.13653-.0296-.27693-.0342-.41734-.0289" fill="#262525"/><path d="m162.6 260.9c.15769.0769.34431.0737.51541.0815.115.005.21025-.0607.31644-.0914.10195-.0296.21061.0102.29598-.0681l.0275-.0448.003-.0385.0159-.0194c.0314-.0332.0423-.0843.0275-.12736l-.0198-.03-.0444-.009-.1203-.003-.0413-.0723c-.0399-.0575-.10125-.0963-.15523-.13899-.10442-.0822-.20955-.2533-.20955-.38982.00071-.0942.0437-.17674.0945-.22049.0512-.0437.10971-.0557.16686-.0674.0942-.0187.44768.27235.54258.2533-.1009-.17639-.1905-.36936-.26706-.57574.0854-.0674.1711-.1344.25682-.20143-.13017-.27764-.31009-.49036-.51223-.60431.23283-.0497.46778-.0998.70168-.0639.29174.0444.56903.22013.84314.38982.0543.0335.11218.0674.16827.0441.0557-.0229.10195-.12947.0748-.21237-.012-.0374-.0353-.0603-.0572-.0815-.0825-.0783-.16722-.14993-.25435-.21343.0243-.0349.0494-.0699.0737-.10407-.11113-.11465-.17957-.31186-.28081-.44838-.1457-.19615-.34608-.24906-.53482-.23672-.072.005-.14534.0176-.21448-.0138-.0498-.0222-.0945-.066-.14076-.10266-.14817-.11642-.31327-.15769-.4759-.19791.0286-.0445-.0138-.11465-.0501-.14076-.19509-.13935-.39053-.2794-.58597-.41875-.0303-.0219-.0632-.0473-.078-.096-.0138-.0434-.01-.0956-.0152-.14323-.018-.14429-.11712-.21308-.2025-.25894-.14393-.0765-.27763-.18309-.43003-.18485-.18098-.002-.36195.0198-.54081.0663l.0917.0688c.0303.0226.0631.0494.0765.0988.0173.0628-.004.13758-.0328.18803-.0998.17357-.26741.16298-.41205.1404.0384.002.0769.005.11501.007-.0882-.0134-.17569-.0374-.26176-.0727l-.0169-.007c-.009.10584-.0148.22931.0328.30269.0261.0399.0624.055.097.0677.1083.0395.21731.0727.32702.0988-.0469.007-.0935.0138-.14076.0205.0325-.003.0519.0593.0526.11183.001.0526-.008.10725.002.15699.0226.10548.11007.11289.17004.16545l.0247.0353c.0258.0769-.0663.1591-.0434.23848-.11641-.0967-.24306-.16228-.37218-.19368-.036.0533.0169.14676.0116.22578l-.0152.0811c-.0131.0974.0476.17709.10301.21837.0561.0416.12171.0864.13652.18309.0483.31538-.35807.15628-.43603.11853.11712.26776.25788.50765.41698.70908-.1016.11078-.2032.2212-.30445.33232-.0289.031-.0593.0653-.0723.11783-.0349.13476.0624.25753.14569.31115.18592.11994.38277.19438.58209.21943.005.17039.0131.35242.0769.48648.078.16227.21449.20637.33867.23918.0339.009.0526-.00071.0628-.0194.17498-.018.36971-.0339.5454-.0275-.0565.0632-.12277.11748-.19509.16087" fill="#333436"/><path d="m160.49 260.86-.0776.0335.025.0677c.10795.11782.26353.18273.42051.21237.11748.0219.23778.0265.35737.031.13335.005.26705.01.40075.0145-.0159-.0988-.24941-.32879-.32138-.35737-.20214-.0808-.58596-.002-.80468-.002" fill="#262525"/><path d="m166.26 259.33c-.0705.004-.12029.0437-.18662.0765-.0617.0307-.26282.0695-.24059.1718.0106.0476.0702.0621.11853.0649.073.005.14676.006.22014.004.12559-.005.34607-.28786.12841-.31538l-.0399-.002" fill="#333436"/><path d="m167.48 259.59c-.0642-.11254-.3355-.0924-.42898-.03-.12453.0829-.14394.23813.03.25471.12841.012.25859.008.38594-.0141l.0233-.008.0113-.0268c.009-.0593.008-.12312-.0215-.17533" fill="#262525"/><path d="m163.94 261.11-.06.0448c-.018.0346.003.0794.0363.0998.0332.0205.0741.0229.11289.0233.16545.002.33055-.0134.49494-.0296l.066-.0212.0268-.0624c.0889-.44909-.50095-.13476-.67699-.0547" fill="#262525"/><path d="m125.27 228.87 1.5854-.91546-40.043-23.067-1.5854.9151 40.043 23.067" fill="#d6d8d5"/></g></g></g></svg>
