<svg version="1.1" viewBox="0 0 136.8 1000" xmlns="http://www.w3.org/2000/svg" style="position:absolute;left:0;bottom:0;width:100%"><defs><clipPath id="f"><path d="m950.9 2131-2.711 49.17-10.85-.59 2.711-49.17c.043-.8.617-1.58 1.723-2.14 2.199-1.11 5.633-.93 7.676.41 1.031.67 1.507 1.51 1.453 2.32z"/></clipPath><linearGradient id="c" x2="1" gradientTransform="matrix(10.85 .5988 .5988 -10.85 938.8 2154)" gradientUnits="userSpaceOnUse"><stop style="stop-color:#909393" offset="0"/><stop style="stop-color:#909393" offset=".08962"/><stop style="stop-color:#bfc0be" offset=".4867"/><stop style="stop-color:#e3e4e1" offset=".7048"/><stop style="stop-color:#e9e9e6" offset=".8431"/><stop style="stop-color:#d9dad7" offset=".9844"/><stop style="stop-color:#e5e5e3" offset=".9908"/><stop style="stop-color:#e5e5e3" offset="1"/></linearGradient><clipPath id="e"><path d="m955.9 2185-1.812 32.76-26.57-1.46 1.804-32.73c.106-1.98 1.52-3.88 4.223-5.25 5.371-2.73 13.79-2.28 18.8 1 2.523 1.65 3.691 3.7 3.554 5.68z"/></clipPath><linearGradient id="b" x2="1" gradientTransform="matrix(26.58 1.467 1.467 -26.58 928.6 2196)" gradientUnits="userSpaceOnUse"><stop style="stop-color:#909393" offset="0"/><stop style="stop-color:#909393" offset=".08962"/><stop style="stop-color:#bfc0be" offset=".4867"/><stop style="stop-color:#e3e4e1" offset=".7048"/><stop style="stop-color:#e9e9e6" offset=".8431"/><stop style="stop-color:#d9dad7" offset=".9844"/><stop style="stop-color:#e5e5e3" offset=".9908"/><stop style="stop-color:#e5e5e3" offset="1"/></linearGradient><clipPath id="d"><path d="m956.5 2218-7.102 128.7-31.45-1.74 7.098-128.6c.125-2.33 1.793-4.6 4.996-6.21 6.355-3.22 16.32-2.69 22.26 1.19 2.98 1.95 4.367 4.37 4.203 6.71z"/></clipPath><linearGradient id="a" x2="1" gradientTransform="matrix(31.46 1.736 1.736 -31.46 921.7 2276)" gradientUnits="userSpaceOnUse"><stop style="stop-color:#909393" offset="0"/><stop style="stop-color:#909393" offset=".08962"/><stop style="stop-color:#bfc0be" offset=".4867"/><stop style="stop-color:#e3e4e1" offset=".7048"/><stop style="stop-color:#e9e9e6" offset=".8431"/><stop style="stop-color:#d9dad7" offset=".9844"/><stop style="stop-color:#e5e5e3" offset=".9908"/><stop style="stop-color:#e5e5e3" offset="1"/></linearGradient></defs><g transform="translate(-55.98 -89.64)"><path d="m72.21 264.1-38.23-22.02" style="fill:#797d7e"/><path d="m192.8 1090h-136.8v-80l29.25 18.52 39.99 23.09" style="fill:#6c6e6b"/><path d="m85.23 1026v2.378l-29.25-16.83 5e-6-2.397 29.25 16.85" style="fill:#797d7e"/><path d="m86.81 1025-1.584.9137-29.25-16.85.000109-1.819 30.83 17.75" style="fill:#d6d8d5"/><path d="m86.81 1027v-2.378l-1.585.9155v2.378l1.585-.9154" style="fill:#959796"/><path d="m125.3 1051v-2.378l-40.04-23.07v2.378l40.04 23.07" style="fill:#797d7e"/><path d="m141.8 1061-19.11 11.04-66.76-38.54 15.93-9.2 3.178-1.834 66.76 38.54" style="fill:#484945"/><path d="m73.79 1081" style="fill:#d6d8d5"/><path d="m115.5 1046-40.45-23.35-1.306.7539-17.8-10.23v-1.842l29.25 16.84h-.00071l10.05 5.787 4.5 2.593 15.68 9.053.0744.4001" style="fill:#3d3330"/><path d="m85.23 1028 .00071 4e-4h-.00071" style="fill:#534744"/><path d="m115.5 1046-5.401-3.112 5.401 3.111v7e-4m-20.18-11.62-10.05-5.787.00071 4e-4 10.04 5.789" style="fill:#443b38"/><path d="m114.8 1047-41.02-23.63 1.306-.7539 40.45 23.35.1439.7737-.8763.2579" style="fill:#2a2320"/><path d="m126.9 1050v-2.378l-1.585.9154v2.378l1.585-.9154" style="fill:#959796"/><path d="m107.9 1045-5.168 2.988-35.98-20.78 5.168-2.984 35.98 20.77" style="fill:#51514d"/><path d="m97.13 1051-5.168 2.988-35.98-20.78 5.168-2.984 35.98 20.77" style="fill:#51514d"/><path d="m170 1077-1.268-.7321c.4886-.121.6738-.4307.684-.4579.0116-.032.321-.3951.4551-.4674.134-.072.2879-.2804.2896-.2995.002-.02-.0233-.1778-.0321-.2956-.004-.044-.0212-.075-.0423-.098-.0205-.074-.0759-.1715-.0977-.2339-.006-.017-.0116-.034-.0176-.049.006-0 .0106-.01.0152-.01.1072-.071.1746-.17.1746-.3175 0-.01-.00036-.014-.00036-.022-.002-.035-.002-.075-.002-.1217 0-.093.003-.2078.007-.3426 1.566.5729 2.058 1.761 1.085 2.713-.3164.3094-.7504.557-1.25.7341m-2.332-1.346-2.565-1.481c-.004-.052-.007-.1048-.0113-.1542.0282-.012.0515-.022.0635-.028.0998-.05.1566-.097.1566-.097s.009-.2515.0356-.6353c.4078.034.81.1079 1.189.2268.5348-.1619 1.131-.2476 1.731-.2476.0716 0 .1429.001.2145 0 .0639.5588.1104.9807.1549 1.098.006.015.0116.029.018.043-.109.1785-.2949.4445-.5553.6826-.2787.2547-.3937.4477-.4318.5898" style="fill:#7c4523"/><path d="m168.1 1077c-.5796 0-1.163-.08-1.699-.2476-.5348.1616-1.131.2473-1.731.2473-.5856 0-1.175-.082-1.715-.2537-1.415-.4512-2.044-1.38-1.647-2.247l-1.109.3852.5842.5271c.1432.1273.007.3379-.2484.3887 0 0-1.747.4237-2.33.4668-.1679.012-.321.018-.4607.018-.2875 0-.5186-.024-.7087-.062-.2328-.047-.4043-.1154-.5405-.1856-.1037-.067-.1545-.1644-.1609-.2773.0632.01.1298.01.2011.01.2858 0 .641-.061 1.099-.2332.5186-.1947 1.945-1.139 1.945-1.139.0166-.01.0317-.021.0462-.032l.1736.1566.9271-.3521h.0342l1.196-.4237c.4494-.3337 1.049-.575 1.709-.709-.001.3686-.002.6067-.002.6067 0 7e-4.004.051.061.1066-.0836.053-.1732.098-.2547.1192-.2536.063-.8692.2223-1.044.3154-.175.093-.4314.266-.4396.3799-.0116.1662.1457.4618.5592.4618.0261 0 .0529-.001.0811-0 .4741-.041.9154-.1838 1.204-.351.2875-.1672 1.046-.081 1.205-.1672.1591-.086.1517-.2081.139-.3994-.004-.065-.0106-.158-.0176-.2543l2.565 1.481c-.002.01-.005.02-.007.03-.109.088-.0653.3517-.0653.3517s.0949.2811.7056.2811c.0384 0 .0794-.001.1224-0 .1136-.01.2159-.022.3076-.045l1.268.7321c-.5884.2091-1.268.3206-1.952.3206" style="fill:#3d3330"/><path d="m162.8 1069s.0554.4198-.009.9232c-.008.064.9553-.594.9582-.6917.003-.097-.0572-.6375-.0572-.6375h-.4805l-.273.066-.1383.3443" style="fill:#fab494"/><path d="m162.8 1068s.0169.037.1418.07c.0684.018.1683.034.3154.042.1065.01.1944.01.266.01.2071.001.278-.015.278-.015s.321-2.121.3309-2.451c.01-.3309.043-1.15-.2191-2.01-.0614-.2004-.1206-.4636-.1743-.7482-.1782-.9367-.3062-2.112-.3062-2.112l-.2039-.3916s-.5172.041-.805.563c-.0564.1023-.0825.2385-.0868.3973v.001c-.0173.6508.3249 1.672.3718 2.216.0582.6755-.0783 1.534-.0335 1.943.0445.4092.1249 2.486.1249 2.486" style="fill:#f14436"/><path d="m163.6 1068c-.008 0-.0155-4e-4-.0236-4e-4.0346-.333.1189-1.08.2191-1.511.133-.5665.2716-1.543.1446-2.051-.1171-.4706-.2822-.8914-.3059-.9507.0508.071.1009.1393.1489.2028.1446.1916.2508.3553.3355.501.06.3799.0737.7246.0737.9874 0 .1468-.004.2681-.007.3553-.01.3305-.3309 2.451-.3309 2.451s-.0653.015-.2544.015m.00071-4.56c-.1408-.1852-.7246-.9641-.8093-1.265-.002-.01-.004-.014-.005-.02.0508.096.1104.1913.1792.283.0201.027.0399.053.06.08.1736.3228.3799.6452.575.9221" style="fill:#b22622"/><path d="m163 1068c-.1249-.033-.1418-.07-.1418-.07s-.0804-2.077-.1249-2.486c-.006-.06-.009-.1294-.009-.2067.00036-.3542.0572-.8696.0575-1.354 0-.1309-.004-.2596-.0148-.3824-.0455-.5302-.3718-1.514-.3722-2.166-.00035-.017 0-.034.00035-.05.0138.058.4777 1.994.4886 2.093.0109.1013.1803.8086.1408 1.11-.0272.2145.0554.2452.1048.2452.0201 0 .0346-.01.0346-.01l-.2632.2642s.1323 2.102.152 2.284c.01.09-.0198.417-.0526.7242" style="fill:#b22622"/><path d="m165 1074s.1665.048.1947.224c.0282.1764.0106.3665.009.4198-.002.053-.0568.2152-.5447.2067-.4875-.01-.477-.1076-.731-.043-.2536.064-.2674.2389-.5828.3274-.3157.089-.9648.1087-1.16.022-.1958-.087-.2508-.26-.2395-.3704.0113-.1101-.0614-.3348.2653-.411.327-.076 1.235-.1909 1.235-.1909l1.554-.1845" style="fill:#302a26"/><path d="m164 1074s-.3309.3094-.5849.3736c-.2536.063-.8692.2222-1.044.3154-.175.093-.4314.266-.4396.3799-.0123.1764.1662.4996.6403.4583.4741-.041.9154-.1838 1.204-.351.2875-.1673 1.046-.081 1.205-.1673.1591-.086.1517-.2081.139-.3993-.0127-.1908-.0437-.6343-.0508-.6459l-1.069.036" style="fill:#da9c3a"/><path d="m163.6 1074s.0116.1496.2872.2205c.0497.012.1065.021.1757.029.1732.019.678-.074.8012-.1139.0593-.019.2392-.091.2815-.1126.0998-.05.1566-.097.1566-.097s.036-1.013.1785-2.076c.1425-1.063.1136-1.694.121-2.121 0-.085-.0402-.1683-.1069-.2466-.2656-.3062-1.186-.586-1.326-.5909-.1323-.01-.3411-.1471-.453.1496-.0286.073-.0497.1753-.0614.3157-.002.038-.007.08-.01.1281-.0353.8445-.0441 4.514-.0441 4.514" style="fill:#3256a0"/><path d="m163.8 1069s.2674.4438.6244.4935c.224.032.731.083.9416.028.1242-.033.2307-.082.3013-.1506.1891-.1838 1.453-1.728 1.453-1.728s.9945-1.218 1.126-1.449l.0148-.031c.0184-.1062-1.041-1.351-1.773-1.376-.7313-.024-1.024.5077-1.241.828-.2166.3214-1.416 2.856-1.465 3.064h-.00071c-.048.2063.018.3175.018.3175" style="fill:#3256a0"/><path d="m165.6 1070c.006-.2769.003-.4978.006-.6816v-.001c.0706-.069.2868-.3217.5313-.6138-.2448.2932-.4611.5468-.5313.6149-.003.1838.00035.4046-.006.6816" style="fill:#403222"/><path d="m165.2 1074c.0452-.5789-.0254-1.341.055-1.818.152-.9017.1355-1.611.1094-1.735-.0127-.052-.0339-.3725-.0469-.5842.0131-0 .0251-.01.0367-.01.1242-.033.2307-.082.3013-.1506.00036 0 .00036-4e-4.00071-7e-4v.001c-.003.1838.00035.4046-.006.6816-.008.3676-.0339.8332-.115 1.44-.1425 1.063-.1785 2.076-.1785 2.076s-.0568.048-.1566.097" style="fill:#263a72"/><path d="m165.3 1070c-.007-.1086-.0109-.1887-.0109-.1887.0519-.075.3567-.3704.4304-.4558.3457-.393.6533-1.104.8502-1.63.007-.01.0141-.017.0215-.026.0511.01.1037.013.1584.017.009.001.0183 0 .0279 0h.0131.0889c.043.024.085.034.1252.034.0459 0 .0896-.012.1298-.027.0102 0 .0205 4e-4.0303 4e-4.0579 0 .1157-.001.1732-0 .002.01.004.017.006.026.002.01.005.022.008.035-.1517.1884-.2621.3228-.2621.3228s-.502.6145-.9204 1.114c-.2445.2921-.4607.545-.5313.6138-.00035 4e-4-.00035 7e-4-.00071 7e-4-.0705.069-.1771.1182-.3013.1507-.0116 0-.0236.01-.0367.01" style="fill:#263a72"/><path d="m163.9 1074c-.0751-.02-.1305-.045-.1714-.072.0409.026.0963.052.1714.071v.001" style="fill:#947934"/><path d="m163.9 1074h-.00035v-.001c-.0751-.019-.1305-.044-.1714-.071-.109-.071-.1157-.1489-.1157-.1496 0 0 .01-3.669.0455-4.514.00035-.015.001-.029.002-.043l.0441-.039c.0526.06.1192.1186.2036.1648.0554.06.1231.1238.2.1757-.0198.1478-.0487.5408-.0741.829-.0321.3648-.1767 2.83-.1503 2.952.0226.1051.0356.4766.0169.6957" style="fill:#27498f"/><path d="m164.1 1070c-.0769-.052-.1446-.1154-.2-.1757.00035 0 .00071 3e-4.001 3e-4.193.1052.2314.1263.2307.1263h-.01c-.005-0-.01-.01-.01-.01-.004 0-.008.024-.0123.059" style="fill:#27498f"/><path d="m170 1075s.1143.03.1238.1478c.009.1178.0339.2758.0321.2956-.002.019-.1556.2275-.2896.2995-.1341.072-.4434.4357-.4551.4674-.012.032-.2713.4632-.9917.5031-.7204.041-.828-.2776-.828-.2776s-.0437-.2636.0656-.3521c.1087-.089 1.44-.5733 1.44-.5733l.9028-.5104" style="fill:#302a26"/><path d="m168.8 1074s-.2272.4847-.6699.8897c-.4427.405-.4731.6537-.4353.7909.0381.1379.2568.3517.6759.3097.4194-.042.7362-.2293.9303-.4194.194-.1898.3859-.4332.5761-.6608.1898-.2279.2159-.1273.2462-.376.009-.071-.0766-.2113-.1048-.2928-.0702-.2022-.1443-.3394-.1443-.3394l-1.074.098" style="fill:#da9c3a"/><path d="m166.8 1068c.2081.2678.4075.077.5225.058l.0501.036s.273 1.167.6787 2.636c.4053 1.469.5362 3.834.6516 4.138.0529.1401.1231.2.2159.218.1083.023.2953.031.4741 0 .1697-.029.5426-.1227.6586-.2.1125-.074.181-.1796.1743-.3397-.0145-.3249.0459-1.148.0317-2.21-.013-1.062-.3175-1.51-.3249-1.671-.007-.1623.0804-3.016.0272-3.879-.0533-.8636-.4378-1.199-.4378-1.199s-.0868.02-.2311.053c-.6914.1605-2.701.6399-2.697.7666.004.1527-.0434 1.272.206 1.593" style="fill:#3c60ac"/><path d="m167.3 1068c-.002-.01-.004-.018-.006-.026.002.01.004.015.006.026" style="fill:#1e284e"/><path d="m168.9 1075c-.0928-.018-.163-.078-.2159-.218-.1154-.3048-.2462-2.669-.6516-4.138-.3358-1.217-.5909-2.267-.6685-2.592-.002-.01-.004-.019-.006-.026.0152-4e-4.0307-7e-4.0459-.001.2106.3573.5292 1.77.6054 2.126.0832.3944.2741.8798.3976 1.633.0272.1658.3366 1.302.3563 1.532.0434.5083.018 1.184.1369 1.684" style="fill:#263f7d"/><path d="m170 1074c-.0257-.2705.007-1.005.0212-1.532.0222-.8527-.0864-1.859-.2974-2.62-.091-.6724-.0512-1.325-.00071-1.985.024-.3072.0462-.7076.0575-1.085.037-.013.0564-.02.0564-.02l.012-.031c.0155-.04.0445-.1186.0755-.224 7e-4.089.001.1831.001.2808 0 1.116-.0448 2.695-.0448 2.963 0 .015.00036.026.00036.033.007.1616.3118.6096.3249 1.671.002.1118.002.2212.002.3277 0 .115-7e-4.2269-.002.3348-.008.6354-.0346 1.137-.0346 1.426 0 .046.00071.087.002.1218 0 .01.00036.015.00036.022 0 .1474-.0674.2469-.1746.3175" style="fill:#263f7d"/><path d="m164.5 1060s.7197.06 1.503.3499c.7828.29 1.026.3405 1.304.7779.2776.4375 1.017 2.435 1.34 2.936.3231.5017 1.035 1.337 1.118 1.466.0829.1291.206.5076.2177.6138.0113.1058.235.6558-.4403 1.144-.6752.4876-1.278.7296-2.727.7267-.8368-.078-1.283-.7267-1.296-.7715-.0127-.044-.3803-.5098-.3842-.5041-.004.01.1023-.6689-.0346-.907-.1369-.2385-.3136-.3111-.393-.4096-.0801-.099-.3186-.3182-.3888-.6787-.5316-.5172-.9596-1.069-1.363-1.607-.4036-.5387-.4851-1.173-.3831-1.683.2995-1.496 1.928-1.452 1.928-1.452" style="fill:#ee2630"/><path d="m162.7 1062c.1997.4103 1.471 2.211 1.471 2.211s-.1898.5436-.0639.6502c.1256.1093.605.9659.7401 1.011.1376.045.1545.8731.1545.8731s.1848 1.305 1.739 1.407c1.554.1019 3.072-.4576 3.072-.4576l.012-.031c.0452-.116.2064-.5648.1923-1.037-.019-.5482-.2942-1.141-.3182-1.198-.0236-.059-1.523-1.753-1.523-1.753l-.024.076-.2586.816s-.8706.5316-1.295 0c-.4269-.5359-.8943-1.765-.8777-2.714.0166-.9489.8777-1.113.8777-1.113l-.6689-.2516s-.7119.4153-.7546 1.483c-.0427 1.065.7973 2.55.7973 2.55l-1.241-.3774s-1.281-1.729-1.328-2.23c-.0476-.5031.2536-.8425.2536-.8425l-.465-.2229s-.6929.7426-.4914 1.151" style="fill:#3c60ac"/><path d="m164.2 1064c-.0117.086.0501.1789.1379.2067.0875.028.1683-.02.1796-.1062.0113-.086-.0505-.1792-.1383-.2067-.0878-.027-.1679.02-.1792.1062" style="fill:#f5782d"/><path d="m166.1 1064c-.0113.086.0504.1789.1383.2068.0878.028.1679-.02.1792-.1062.0116-.086-.0501-.1792-.1379-.2067-.0878-.027-.1683.02-.1796.1061" style="fill:#f5782d"/><path d="m169.8 1067s.0642-.6547 0-1.21c-.0614-.5528-.429-1.136-.4791-1.196-.0109-.014-.0741-.07-.1651-.1495l.1005-.089c.0363-.033.066-.072.0878-.1143.2226.2564.3912.454.399.4737.024.057.2992.6499.3182 1.198.00035.02 7e-4.041 7e-4.061-.00035.4494-.1499.865-.193.9761l-.0691.05" style="fill:#263f7d"/><path d="m169.7 1067s-.2635-.071-.6092-.091c-.3464-.02-.895-.5831-.895-.5831l.7521.2547.7521.4195" style="fill:#263f7d"/><path d="m166.3 1065s.3602.9207.3175 1.004c-.0229.044-.8068.2621-.8068.2621l-.7973-.6106c-.067-.052-.4561-1.079-.4463-1.156.0102-.077 1.675.3002 1.733.5003" style="fill:#4a70c0"/><path d="m166.1 1064s.2388.082.2766.1669c.0374.085.0755.2236.0593.2723-.0162.049-.8431.078-.87.056-.0272-.021-.864-.4448-.8929-.5214-.0289-.077-.1531-.3281-.1206-.3401.0325-.012.4431.057 1.548.3659" style="fill:#688dd0"/><path d="m168.8 1064-9.906 8.803-.6011 1.385 10.97-9.698c.0688-.062.1143-.1461.1263-.2339l.001-.01c.0261-.187-.1016-.3426-.2875-.3482l-.0409-.001c-.0931-0-.188.033-.2628.099" style="fill:#502818"/><path d="m165.1 1067-6.037 5.366-.3665.8438 6.687-5.911c.042-.038.0695-.089.0769-.1421h.00035c.0162-.114-.0617-.2089-.175-.2124l-.025-.001c-.0565-0-.1147.02-.1602.061" style="fill:#823f21"/><path d="m162.8 1069s-.1118.1517-.1323.2939c-.0208.1425-.0381.2325-.078.3337-.0512.1302-.1626.4964-.1584.5556.004.059.00035.2036.078.2787.0769.075.2007-.1238.1947-.1375l-.0148-.2491.3888-.581s-.2374-.4897-.278-.4943" style="fill:#fab494"/><path d="m165.4 1060s.2674.2434-.164.8904c-.4311.6467-.5782.8231-.5712 1.22.008.3969 1.323 4.138 1.616 4.249.2935.1115 1.522.1411 2.198-.4988.6759-.6403.4921-1.706.4921-1.706s-.6385-1.251-1.058-2.265c-.4188-1.014-.9409-1.522-.9409-1.522s-2.003-.7511-2.534-.6614c.0896.1414.1676.1411.3009.1407.1369-7e-4.3327-.001.6604.1524" style="fill:#acd91e"/><path d="m165.6 1067c-.0392-.045-.0639-.076-.0639-.076l-.2441-.3331.5069-.14.3475-.4131c.0811.1538.1475.2505.1908.2667.001 3e-4.002 7e-4.003.001-.025.035-.0497.068-.0737.1019l-.6664.5924" style="fill:#1e262f"/><path d="m165.7 1067c-.0487-.053-.0935-.1037-.1277-.1432l.6664-.5924c-.2699.3712-.4925.6731-.5387.7356" style="fill:#371412"/><path d="m166.3 1066c-.001-4e-4-.002-7e-4-.003-.001-.0434-.016-.1097-.1129-.1908-.2667l.0222-.026s.7821-1.305.7729-1.388c-.009-.084-.2117-.6061-.2138-.6287l-.139-.7638c.0776.1778.1612.3433.2473.4918.3302.5694.5729 1.034.5729 1.034-.0893.1841-.6244.9355-1.069 1.549" style="fill:#7b711c"/><path d="m164.4 1068 .0741.055c.0681.027.1468.024.1468.024s.3408-.062.4128.083c.0723.1447-.1697.6004-.1697.6004l-.1496.4562-.073.085s.03.016.072.031l.003 3e-4.0843.018c.0825.01.2448-.098.2448-.098l.1168-.1972s-.0236.064.1884.041c.2124-.023.2572-.1305.2572-.1305s.1298-.024.176-.1161l.043-.063c.0871-.1097.2604-.2825.3066-.3887.0561-.1309.4008-.6417.4008-.6417l-.6982-.3027s-.1065.1044-.1834.1475c-.0765.044-.6868.075-.6868.075l-.4329.1083s-.0413.028-.0794.066c-.0437.043-.084.1019-.0533.1478" style="fill:#fab494"/><path d="m163.6 1070s-.0236-.099.0243-.1711c.0473-.072.1393-.084.1972.024.0582.1083.1192.1718.049.2202-.0706.048-.2487.073-.2487.073s.0699.076-.0399.1721c-.1094.096-.2268.093-.2268.093s-.007.1401-.1348.2092c-.1277.069-.2554-.096-.2554-.096s-.0162-.116.0758-.1376c.0921-.022.2272-.056.2272-.056s-.0162-.1753.0603-.2243.2233-.018.2233-.018l.0483-.088" style="fill:#fab494"/><path d="m162.8 1070s.1305-.102.1813-.054c.0504.049.0466.1591.0466.1591s-.0646.1806-.1168.1824c-.0526 0-.1453-.001-.1453-.001l.03-.139.004-.1478" style="fill:#fab494"/><path d="m164.3 1059s.1309.405.3397.6329c.2088.2275.6237.1414.7236.4018.1002.2596-.3302 1.048-.8724 1.327-.5422.279-.7183-.1157-.8904-.4294-.1722-.3136-.2805-.9768-.2805-.9768s-.2572-2.267.98-.9553" style="fill:#fab494"/><path d="m163.9 1060s-.3979.6516-.4519 1.28c-.0261.3051.3521.6724.4138.7715.0617.099 1.508 3.642 1.509 3.789.00071.1468-.5309.049-.7997-.3263-.2688-.3757-.3203-.7062-.8033-1.346-.5136-.6794-1.229-1.837-1.163-2.457.066-.6195.3856-1.281.3856-1.281l.9095-.4308" style="fill:#acd91e"/><path d="m163.6 1062c-.06-.088-.1143-.1855-.1425-.2825.001-.1845.0469-.3426.0998-.4636.009.019.0176.036.0268.053.1288.2346.2596.5147.5447.5239-.1658.073-.3955.1612-.4851.1647-.0141 7e-4-.0289 0-.0438.01" style="fill:#ee2329"/><path d="m163.4 1061c-.0159-.055-.0236-.1097-.019-.1623.0116-.1355.0392-.272.0755-.4029.0137.036.0282.07.0434.1016-.0529.121-.0988.2791-.0998.4636" style="fill:#334d7a"/><path d="m164.1 1061c-.285-.01-.4159-.2893-.5447-.5239-.009-.017-.018-.034-.0268-.053-.0152-.032-.0296-.066-.0434-.1016.0116-.042.0243-.084.0374-.1252l.3362-.037s.1792.2893.1792.3609c0 .072.248.3718.2494.387.00036.01-.0801.046-.1873.092" style="fill:#f58d6b"/><path d="m163.4 1062c-.0967 0-.2124-.029-.3605-.1348-.3161-.2261-.2081-.4575-.2081-.4575l.6706-.4079.079-.01c-.013.041-.0257.083-.0374.1253-.0363.1309-.0639.2674-.0755.4028-.005.053.003.1076.019.1623.0282.097.0825.1944.1425.2826-.0667.011-.1397.036-.2296.036" style="fill:#a9d92c"/><path d="m161.4 1059s-.0335.2998.175.666c.2085.3655.3831.5101.4008.5338.018.024.0363.5687.0409.6092.004.04.3073-.034.3073-.034l.1887.2706s.297.3309.4621.3486c.1658.017.7923-.4699.8685-.6622s-.2921-.6636-.3895-.8548c-.0977-.1912.2946-.6738.1951-.8826-.0995-.2092-1.5-1.565-2.249.01" style="fill:#fab494"/><path d="m165.1 1069 .1168-.1972s-.0236.064.1884.041c.2124-.023.2572-.1305.2572-.1305s.1298-.024.176-.1161l.043-.063-.09.032h-.0328l-.1341.03-.1168.1408-.1669.08-.0699-.034.1513-.3122-.1376.1115-.1849.4141" style="fill:#fab494"/><path d="m164.9 1068-.3715.04c.0681.027.1468.024.1468.024s.3408-.062.4128.083c.0723.1446-.1697.6004-.1697.6004l-.1496.4561-.073.085s.03.016.072.031l.003 4e-4c.042.016.1044-.2836.1044-.2836l.3232-.6269.0462-.2791-.3443-.1298" style="fill:#fab494"/><path d="m164.4 1068 .0741.055c-.006-.075-.0134-.1418-.0208-.2025-.0437.043-.084.102-.0533.1478" style="fill:#fab494"/><path d="m161.7 1059s.5186-.2607.6177-.103c.0991.158.3076.5238.4219.5881.1143.064.3408.029.417.075.0765.045.1517.078.1517.078l.0963-.1052s-.2356-.1915.1485-.2744c.3849-.083.2611.092.533.059.2727-.034.3073-.1323.3432-.1806.0356-.049-.1961-1.332-.6174-1.726-.4216-.3941-1.608-.4435-2.061.1326-.4533.5757-.5923 1.46-.5052 1.604.0875.144-.0473-.2963.4544-.1467" style="fill:#3d1d21"/><path d="m165.7 1068c.1214.3186.4279.4071.5546.423h.0494c.0607-.01.441-.5694 1.294-1.421.853-.8523 1.252-1.601 1.236-1.745-.0155-.1446-.5641-2.362-.8135-3.033-.2498-.6703-.744-1.407-1.036-1.407-.2921-7e-4-.853.2562-.8184 1.072.036.817.332 1.636.6625 2.206.3302.5694.5729 1.034.5729 1.034-.1566.3239-1.69 2.398-1.69 2.398s-.1545.096-.0116.4713" style="fill:#f14436"/><path d="m166.3 1068-.0303-.001-.019-7e-4c.1842-.2028.5789-.6449.8047-.9394.3027-.393 1.479-1.756 1.605-2.093.1266-.3379-.3306-1.766-.454-2.197s-.7465-2.143-1.226-2.375c.2918 8e-4.786.737 1.036 1.407.2494.671.798 2.888.8135 3.033.00035 0 .00035.01.00035.01-.00035.1288-.2469.6103-.7574 1.216-.1397.1655-.2995.3405-.4791.52-.4371.4368-.7504.7973-.9596 1.046-.007.01-.0145.017-.0215.026-.1856.2209-.2843.3464-.3129.3496" style="fill:#b22622"/><path d="m163.5 1060s-.1044-.2825.1005-.2769c.2053.01.2582.2812.2656.3493.007.068-.008.3718-.1782.334-.1708-.038-.1884-.2607-.1863-.2688l-.002-.1376" style="fill:#fbc4ac"/><path d="m161.6 1059s.3683 0 .4512-.049c.0825-.052.1143-.1813.357.1104.2427.2918.1612.2586.2695.3503.1087.092.3796.012.5101.086.1309.074.2279.3997.1658.6029-.0625.2039-.592.1644-.7161.044-.1245-.1206-.0243-.1428.0991-.1947.1235-.052.2695-.1175.134-.2332-.1355-.1157-.5454-.1859-.6928-.1662-.1475.02-.2166.016-.2713-.028-.055-.044-.3066-.5224-.3066-.5224" style="fill:#fbc4ac"/><path d="m162.1 1060s.0254.3538.0427.3884c.0169.035.2903.026.303-.033s-.1623-.1877-.1937-.2282c-.031-.041-.1284-.1778-.1531-.1941l.001.067" style="fill:#fbc4ac"/><path d="m155.9 1076c.1563.052.3443.092.5796.092.2858 0 .641-.061 1.099-.2332.5186-.1947 1.945-1.139 1.945-1.139.2127-.1249.247-.4145.0589-.5348l-1.993-1.29-.0293-.018c-.1295-.061-.2992-.018-.4008.1111 0 0-1.175 1.017-1.461 1.698-.2265.539-.1722 1.144.2014 1.314" style="fill:#7b8e96"/><path d="m157.9 1075-.647.065.0974-.3687 1.702-1.592s.1104-.064.3302.1316c.2201.1954.0579.406.0579.406l-1.541 1.358" style="fill:#b7c1c4"/><path d="m159.1 1073s.2967.1037.3263.2075c.0296.104-1.72 1.542-1.72 1.542l-.2893.081.0374-.2145 1.646-1.616" style="fill:#cad2d3"/><path d="m155.9 1076c.1563.052.3443.092.5796.092.2858 0 .641-.061 1.099-.2332.5186-.1947 1.945-1.139 1.945-1.139.2127-.1249.247-.4145.0589-.5348 0 0-1.413.9239-1.948 1.126-.5341.2011-1.504.4844-1.49-.3238.0134-.8068 1.415-2.111 1.415-2.111-.1295-.061-.2992-.018-.4008.1111 0 0-1.175 1.017-1.461 1.698-.2265.539-.1722 1.144.2014 1.314" style="fill:#b7c1c4"/><path d="m157.6 1075c-.4367-.2755-.8844-.8036-1.119-1.104.0511-.086.1076-.1711.1672-.2554l.4311.1263.1877.1824.0942.1072-.0423.1598.1958-.019.4096.1729.2424.079.1489.1531s.0123.015.0293.036c-.2515.1429-.4854.2653-.6431.3249-.0321.012-.066.024-.1012.037" style="fill:#414b51"/><path d="m157.3 1075 .0423-.1598.1058.1203.0476.02-.1958.019" style="fill:#5e666b"/><path d="m158.1 1076c-.1552 0-.3263-.069-.4988-.1781.0353-.013.0691-.025.1012-.037.1577-.06.3916-.182.6431-.3249.0303.036.0758.091.0967.1129.0325.035-.0819.242-.0819.242l-.1683.1764c-.03.01-.0607.01-.0921.01m-1.618-1.282c-.1055-.1344-.1679-.2233-.1679-.2233l.114-.097.2212.065c-.0596.084-.1161.1697-.1672.2554" style="fill:#5e666b"/><path d="m156.3 1074s.031.075.1856.1581c.0751.04.2427-.014.3288.1086l.2646.3757.405.2075.4057.109.3058.2942s-.0194.375-.049.4307c-.0296.056-.6773.224-.7243.2636-.0466.039-.284.1287-.284.1287l-.5242.049-.3655-.01s-.0988.089-.3164-.089c-.2173-.1778-.2173-.099-.2173-.099v-.5337l-.0102-.3158.0152-.3972.1947-.2939.3856-.387" style="fill:#262525"/><path d="m156.4 1074s.0642.04.2572.1436l.1926.1037.1189.1531.158.2272.2618.1485.3609.089s-.0741.01-.4498.025l-.3754.02.2664.2177s.1238.039.0695.1136c-.0547.074-.5338.1037-.5338.1037l.5782.1333.6724-.2469-.0148.2173s-.7514.1729-.7909.2173c-.0399.045.3013.1238-.193.109-.4939-.015-.4544.01-.4544.01l-.4353-.2127-.0741-.2321s-.3161-.2025-.1037-.2025h.3704l-.0455-.2018.127-.2134s.4427-.1433.0868-.1634c-.356-.02-.3062-.079-.356-.02-.0494.059-.2173.3263-.2173.3263l-.0388-.3263.3059-.3175.1877-.1668.0691-.049" style="fill:#333436"/><path d="m162.2 1081h-2.382l-.8283-.1193-.8837-.5044-1.743-.6029-.3076-.846.6442-.8996.2974-.2829 1.488-.2212 2.332-.3027 2.356.5239-.9722 3.255" style="fill:#3d3330"/><path d="m161.6 1076c-.085 0-.17.01-.2547.016l-.0674.02c-.0339.029-.0243.082-.025.1256-.002.1676-.1803.2695-.3348.3344-.1542.065-.3337.1609-.344.3281-.006.095.049.1877.0346.2819-.0247.1626-.285.2759-.3944.394-.1256.1359-.2385.2907-.4089.3743-.0607.03-.1256.049-.187.077-.2716.1235-.4463.423-.4413.7215 7e-4.043.004.09-.0166.1273-.0201.037-.0582.059-.0942.08-.2681.1545-.5274.3295-.7719.5193-.1937.1503-.1947.3757-.3817.5292-.0328.027-.0705.053-.0854.092-.024.064.0236.1358.0836.1689.06.033.1302.04.1954.061.1796.057.309.2096.4561.3281.2798.2251.6382.333.9948.3736.357.04.7172.019 1.076.013.1856-0 .3739-.001.5521.052.2515.074.4918.1948.7408.2759.2762.09.58.055.8664.074.2215.014.4442.058.6639.025.2194-.033.4438-.1669.4985-.3821.0243-.097.0123-.2035.0511-.2967.0621-.1478.2321-.2166.3902-.2441.1573-.027.3249-.03.4653-.1069.217-.1192.3133-.3856.5144-.5309.1288-.093.2896-.1284.4332-.1968.1436-.068.2822-.1937.2826-.3528 7e-4-.2332-.253-.2995-.3623-.4632-.1644-.2456-.2967-.5285-.4463-.785-.0328-.057-.0667-.1143-.115-.1583-.048-.044-.1072-.072-.1672-.097-.5136-.2131-1.144-.2188-1.526-.623-.1686-.1782-.2667-.4156-.4424-.5867-.1051-.103-.2346-.1775-.362-.2508-.2078-.1193-.4191-.2399-.6537-.2904-.1365-.03-.2769-.034-.4173-.029" style="fill:#262525"/><path d="m162.6 1081c.1577.077.3443.074.5154.082.115 0 .2102-.061.3164-.091.102-.03.2106.01.296-.068l.0275-.045.003-.038.0159-.019c.0314-.033.0423-.084.0275-.1273l-.0198-.03-.0444-.01h-.1203l-.0413-.072c-.0399-.057-.1012-.096-.1552-.139-.1044-.082-.2096-.2533-.2096-.3898.00071-.094.0437-.1768.0945-.2205.0512-.044.1097-.056.1669-.067.0942-.019.4477.2723.5426.2533-.1009-.1764-.1905-.3694-.2671-.5758.0854-.067.1711-.1344.2568-.2014-.1302-.2776-.3101-.4904-.5122-.6043.2328-.05.4678-.1.7017-.064.2917.044.569.2201.8431.3898.0543.034.1122.067.1683.044.0557-.023.102-.1295.0748-.2124-.012-.037-.0353-.06-.0572-.082-.0825-.078-.1672-.1499-.2544-.2134.0243-.035.0494-.07.0737-.1041-.1111-.1146-.1796-.3118-.2808-.4483-.1457-.1962-.3461-.2491-.5348-.2368-.072.01-.1453.018-.2145-.014-.0498-.022-.0945-.066-.1408-.1026-.1482-.1164-.3133-.1577-.4759-.1979.0286-.044-.0138-.1147-.0501-.1408-.1951-.1393-.3905-.2794-.586-.4187-.0303-.022-.0632-.047-.078-.096-.0138-.043-.01-.096-.0152-.1433-.018-.1443-.1171-.213-.2025-.2589-.1439-.077-.2776-.1831-.43-.1849-.181-0-.362.02-.5408.066l.0917.069c.0303.023.0631.049.0765.099.0173.063-.004.1376-.0328.1881-.0998.1735-.2674.163-.412.1404.0384 0 .0769.01.115.01-.0882-.013-.1757-.037-.2618-.073l-.0169-.01c-.009.1058-.0148.2293.0328.3027.0261.04.0624.055.097.068.1083.04.2173.073.327.099-.0469.01-.0935.014-.1408.021.0325-0 .0519.059.0526.1118.001.053-.008.1072.002.157.0226.1055.1101.1129.17.1654l.0247.035c.0258.077-.0663.1591-.0434.2385-.1164-.097-.2431-.1623-.3722-.1937-.036.053.0169.1468.0116.2258l-.0152.081c-.0131.097.0476.1771.103.2184.0561.042.1217.086.1365.1831.0483.3154-.3581.1563-.436.1185.1171.2678.2579.5077.417.7091-.1016.1108-.2032.2212-.3044.3323-.0289.031-.0593.065-.0723.1178-.0349.1348.0624.2576.1457.3112.1859.1199.3828.1944.5821.2194.005.1704.0131.3524.0769.4865.078.1623.2145.2064.3387.2392.0339.01.0526-7e-4.0628-.019.175-.018.3697-.034.5454-.028-.0565.063-.1228.1175-.1951.1608" style="fill:#333436"/><path d="m160.5 1081-.0776.034.025.068c.108.1178.2635.1827.4205.2124.1175.022.2378.027.3574.031.1334 0 .267.01.4008.014-.0159-.099-.2494-.3288-.3214-.3574-.2021-.081-.586-0-.8047-0" style="fill:#262525"/><path d="m166.3 1079c-.0705 0-.1203.044-.1866.076-.0617.031-.2628.07-.2406.1718.0106.048.0702.062.1185.065.073 0 .1468.01.2201 0 .1256-0 .3461-.2878.1284-.3154h-.0399" style="fill:#333436"/><path d="m167.5 1080c-.0642-.1126-.3355-.092-.429-.03-.1245.083-.1439.2381.03.2547.1284.012.2586.01.3859-.014l.0233-.01.0113-.027c.009-.059.008-.1232-.0215-.1754" style="fill:#262525"/><path d="m163.9 1081-.06.045c-.018.035.003.079.0363.1.0332.021.0741.023.1129.023.1654 0 .3306-.013.4949-.03l.066-.021.0268-.062c.0889-.4491-.501-.1347-.677-.055" style="fill:#262525"/><path d="m125.3 1049 1.585-.9155-40.04-23.07-1.585.9151 40.04 23.07" style="fill:#d6d8d5"/><g id="at-roller" transform="translate(-23.74 932.6)"><path d="m82.56 78.29v-2.378l-1.585.9155v2.378l1.585-.9151" style="fill:#959796"/><path d="m71.16 73.57-15.68-9.053 10.28 5.919 5.401 3.112.0042.02187" style="fill:#7c4523"/><path d="m40.93 56.14v-.0021l.000706.000352-.000706.0018" style="fill:#534744"/><path d="m71.15 73.55-5.401-3.112 5.401 3.111v.000705m-20.18-11.62-10.05-5.787v-.0021l.000706.000352 10.04 5.789" style="fill:#443b38"/><path d="m82.39 74.44 10.46 8.359 6.907 4.657 1.631 2.888-.6442.3475-.1778 2.265-18.08-9.937-2.833-7.639 1.544-.7828 1.199-.158" style="fill:#fabd22"/><path d="m80.85 75.22 18.26 12.58 1.631 2.888-.1778 2.265-.9991.3687-17.67-9.999-2.525-2.376.2745-5.57 1.199-.1584" style="fill:#e55d1b"/><path d="m101.4 90.35-.6442.3475-.1778 2.265.6488-.3898.1732-2.223" style="fill:#f68c1f"/><path d="m76.25 103.1c-.5652 0-1.148-.0494-1.733-.1697-.9955-.2053-2.257-.6837-3.534-1.251l-3.808.6974-9.346-4.266-5.6 1.595-13.1-7.676 6.869-2.975-1.322-.6943-4.132 1.785-1.416-.7916 5.733-2.69s-6.74-2.86-7.412-3.527c-.6717-.6678-.8015-5.26-.8015-5.26l1.501-.9631 9.532 5.504.0025-.0014 30.77 17.77.02258-.0131c1.013.5683 1.969.8382 2.822.8382.6996 0 1.329-.182 1.862-.5302l1.667-.9892 2.447 1.344.1782-2.265.6442-.3471-.284-.5031 8.774-5.206 3.435 1.947-13.94 8.36-4.965-.7994s-2.234 1.08-4.872 1.08" style="fill-opacity:.6071;fill:#322926"/><path d="m78.44 100.2-30.77-17.77 5.166-2.987-9.801-5.658 2.479-1.59 7.73 1.026 5.187 2.995 2.274-1.315 4.075 1.37.02858.3433-2.155.6071v3.657l3.878 2.299-.1863.09454 1.433 3.865v2.017l.6135-.3634.786 2.12 3.318 1.823c1.161 3.03 3.317 5.882 5.786 7.345.06138.0363.1228.0716.1838.1058l-.02258.0131" style="fill-opacity:.6071;fill:#322926"/><path d="m58.42 76.22-5.187-2.995 4.071.5401 3.39 1.14-2.274 1.315" style="fill:#2e2623"/><path d="m47.66 82.43-9.532-5.504 4.899-3.143 9.801 5.658-5.166 2.987-.0025.0014" style="fill-opacity:.6071;fill:#322926"/><path d="m59.82 67.01.1789-.1136c-.02187.06279-.0441.1252-.06385.1905zm-.272 1.342c-.0018.06421-.0042.1284-.0042.1944 0 .2977.01905.6015.05398.9084l.1834.1221c.01517.1252.03351.2508.05433.3768l-.1672-.0071c.06632.393.158.7892.2745 1.185l.1813.06632c.03951.1326.08255.2653.1277.3976l-.1429.05433c.1386.4015.2999.8005.4822 1.192l.1676.006c.06209.1319.1266.2625.1933.3923l-.1094.1115c.2011.3863.4212.7624.6586 1.125l.1418-.05503c.08079.1228.1633.2434.248.3623l-.06879.163c.2494.3461.5147.6756.7923.9857l.108-.1122c.0949.1051.1909.2078.2886.3076l-.02364.2014c.2819.2843.5743.5472.8759.7849l.06773-.1619c.102.07937.205.1556.309.229l.02293.229c.1489.1034.2995.2021.4519.2925.1528.09031.303.1704.4523.2434l.02293-.2021c.1041.05045.2071.09631.309.1379l.06738.242c.218.08643.4307.1535.6382.2032l-.8509.9465.3895.2071.8756-.4784.1041.04445 2.968-1.284c.1418-.06738.9465-1.018 1.073-1.112l-.02223-.04904.2738-.1623c.1827-.1757.344-.3838.4822-.6212l-.103-.1612.2695-.1595c.1161-.2582.2078-.5461.2745-.8597l-.1672-.1916.01482-.08467.223-.1323c.03493-.2653.05397-.5465.05397-.8442 0-.06632-.0025-.133-.0042-.1997l-.1813-.1478c-.0025-.07267-.0078-.1457-.01235-.2187l.1683-.09984c-.03245-.3824-.09313-.7712-.1774-1.162l-.1842-.09525c-.02364-.1055-.04939-.2113-.07585-.3168l.1411-.08361c-.108-.4043-.2409-.8086-.3962-1.209l-.1757-.03634c-.04904-.1249-.1009-.2494-.1542-.3732l.1263-.0829c-.1757-.4011-.3722-.7962-.5888-1.18l-.157.02469c-.06667-.1171-.1355-.2325-.2057-.3471l.08925-.1372c-.2322-.3739-.4812-.7344-.7462-1.077l-.1319.07796c-.07832-.1002-.158-.1986-.2392-.2956l.04621-.1838c-.2727-.3228-.5592-.6258-.8572-.9049l-.1468.08714c-.06985-.06385-.1397-.127-.2106-.188l.000352-.218c-.2963-.2512-.6018-.4777-.9148-.6759l-.1753.1041-.0085-.0056c-.04621-.02716-.09172-.05151-.1379-.07726l-.04547-.2389c-.3129-.1725-.6188-.3087-.9148-.4085l-.2469.146-.02117-.0064-.08925-.2441c-.2974-.07373-.5842-.1101-.8569-.1108l-.3249.01588c-.2649.02857-1.726.8124-1.958.9112l-.2596.1542-.01376-.0187-2.829 1.677-.5465 1.512 1.078-.6837c-.0695.2625-.1235.5419-.1524.8456l.1757.1711c-.0092.108-.01552.2191-.01905.3323l-.1817-.06703" style="fill:#3b0d18"/><path d="m63.52 63.82-1.529 1.039-2.528 1.248.7461-.1926 2.479-1.101 1.562-1.294-.7306.3013" style="fill:#421721"/><path d="m70.55 68.18-1.283 1.946-2.758.4494.5888 1.18 2.774-.459 1.268-1.936-.2815-.6011-.3073-.5786" style="fill:#421721"/><path d="m71.34 69.85-1.492 1.951-2.55.4445.3962 1.209 2.565-.4537 1.476-1.942-.1619-.5493-.2342-.6597" style="fill:#421721"/><path d="m71.85 71.56-1.408 1.94-2.633.4554.1774 1.162 2.649-.465 1.392-1.931-.05362-.5193-.1238-.6428" style="fill:#421721"/><path d="m72.06 73.18-1.357 1.899-2.684.4967-.04974 1.044 2.699-.5059 1.342-1.89.05397-.4537-.0042-.5902" style="fill:#421721"/><path d="m71.94 74.64-1.191 1.684-2.85.7116-.2745.8594 2.926-.8816 1.115-1.514.151-.3549.1235-.5048" style="fill:#421721"/><path d="m71.5 75.82-1.34 1.332-2.702 1.063-.4822.6209 2.717-1.072 1.325-1.323.2575-.2618.2247-.3595" style="fill:#421721"/><path d="m69.53 66.64-1.283 1.946-2.758.4494.7461 1.077 2.774-.459 1.268-1.936-.3718-.5666-.3743-.5105" style="fill:#421721"/><path d="m68.34 65.34-1.283 1.946-2.758.4498.8572.9049 2.774-.459 1.268-1.937-.3863-.4508-.471-.454" style="fill:#421721"/><path d="m67.07 64.34-1.283 1.946-2.758.4498.9148.6756 2.774-.4586 1.268-1.937-.3905-.3256-.5242-.3503" style="fill:#421721"/><path d="m65.79 63.71-1.154 1.621-2.887.7743.9151.4089 2.903-.7839 1.139-1.612-.4011-.2173-.5136-.1912" style="fill:#421721"/><path d="m64.58 63.5-1.255 1.31-2.786 1.085.8572.1111 2.72-.8894 1.321-1.506-.4713-.08714-.3856-.02364" style="fill:#421721"/><path d="m60.26 65.95-1.864 1.023.4921.7786 1.372-.7962v-1.005" style="fill:#3b0d18"/><path d="m59.75 66.96-1.865 1.105.4925.7789 1.372-.7962v-1.088" style="fill:#3b0d18"/><path d="m59.55 68.35-1.864 1.105.4921.7786 1.372-.7962v-1.087" style="fill:#3b0d18"/><path d="m59.67 69.94-1.864 1.105.4921.7786 1.372-.7962v-1.088" style="fill:#3b0d18"/><path d="m60.11 71.65-1.864 1.105.4925.7789 1.372-.7962v-1.087" style="fill:#3b0d18"/><path d="m67.97 76.62c.03493-.2656.05398-.5468.05398-.8442 0-.06632-.0025-.133-.0042-.1997l-.1817-.1482c-.0039-.1178-.0099-.2364-.0194-.3556l.1757.03739c-.03246-.3824-.09313-.7712-.1774-1.162l-.1842-.09525c-.02787-.1252-.0575-.2512-.09031-.3768l.1556-.02364c-.108-.4039-.2409-.8082-.3962-1.209l-.1757-.03634c-.04904-.1249-.1009-.2494-.1545-.3732l.1263-.08326c-.1753-.4011-.3718-.7959-.5888-1.18l-.1566.0247c-.06667-.1168-.1355-.2321-.2057-.3468l.08925-.1376c-.2318-.3736-.4812-.7345-.7461-1.077l-.127.08467c-.08008-.1027-.1616-.2032-.2441-.302l.04621-.1838c-.273-.3228-.5595-.6258-.8572-.9049l-.0889.1386c-.08855-.0822-.1782-.1619-.2685-.2399l.000353-.218c-.2963-.2508-.6022-.4773-.9147-.6756l-.04586.1842c-.04586-.02858-.09137-.05821-.1379-.08572-.04621-.02752-.09172-.05186-.1376-.07761l-.04586-.2385c-.3129-.1725-.6184-.3087-.9151-.4089l.000353.2187c-.09031-.02963-.1796-.05574-.2681-.07867l-.0889-.2441c-.2977-.07373-.5846-.1104-.8572-.1111l.04621.2388c-.0829.000706-.1644.0046-.2445.01235l-.1266-.235c-.2649.02822-.5144.09384-.7461.1926l.08925.2434c-.0702.0314-.139.06526-.206.103l-.1566-.211c-.2166.127-.4131.2893-.5888.4819l.1263.2328c-.05327.06033-.1051.1235-.1545.1901l-.1753-.1714c-.1552.2159-.2882.4625-.3962.7387l.1556.2085c-.03281.08643-.06244.1771-.09031.2699l-.1845-.1235c-.08396.291-.1446.6082-.1771.9518l.1757.1711c-.0095.108-.01552.2191-.01976.3327l-.1813-.06738c-.0018.06456-.0042.1284-.0042.1947 0 .2977.01905.6011.05397.9084l.1834.1217c.01517.1252.03387.2508.05433.3768l-.1672-.0067c.06667.3926.158.7892.2745 1.185l.1813.06632c.03951.133.08255.2653.1277.3979l-.1429.05362c.1386.4018.2999.8008.4822 1.193l.1676.006c.06209.1316.1266.2625.1933.3923l-.109.1118c.2007.3856.4209.762.6579 1.125l.1425-.05503c.08079.1224.163.2434.2476.3623l-.06879.1626c.2494.3461.5147.6756.7923.9857l.108-.1118c.0949.1048.1909.2078.2886.3073l-.02364.2018c.2819.2843.5743.5472.8759.7849l.06773-.1623c.102.07973.205.1559.309.229l.02293.229c.1489.1034.2995.2021.4519.2928.1524.08996.3034.17.4523.2434l.02293-.2021c.1037.05009.2071.09596.309.1376l.06738.242c.3016.1199.5944.2039.8759.2533l-.02328-.2293c.09772.01623.1937.02681.2886.03457l.108.2399c.2776.01905.5429.0042.792-.04657l-.06844-.2441c.08431-.01834.1669-.04198.2476-.06844l.1422.2233c.2374-.08149.4576-.1965.6583-.3447l-.1094-.2413c.06703-.05045.1316-.1048.1937-.163l.1672.1926c.1827-.1753.3436-.3838.4822-.6209l-.1425-.2233c.04516-.07902.08819-.1605.1277-.2462l.1813.1485c.1161-.2582.2078-.5457.2745-.8594l-.1672-.1916c.02046-.1016.03916-.2053.05433-.3126l.1834.0956" style="fill:#582a36"/><path d="m67.51 75.6c0 3.094-2.129 4.34-4.755 2.783-2.627-1.557-4.756-5.327-4.756-8.421s2.129-4.34 4.756-2.783c2.626 1.556 4.755 5.327 4.755 8.42" style="fill:#4e1d29"/><path d="m66.43 74.96c0 2.39-1.645 3.353-3.674 2.151-2.029-1.203-3.675-4.115-3.675-6.506 0-2.39 1.645-3.353 3.675-2.15 2.029 1.203 3.674 4.115 3.674 6.505" style="fill:#582a36"/><path d="m66.04 74.61c0 2.078-1.43 2.915-3.194 1.869-1.764-1.046-3.194-3.578-3.194-5.655s1.43-2.915 3.194-1.869c1.764 1.046 3.194 3.578 3.194 5.655" style="fill:#e09015"/><path d="m59.92 70.98c0 1.902 1.309 4.22 2.923 5.177 1.615.9567 2.924.1909 2.924-1.711s-1.309-4.22-2.924-5.177-2.923-.1909-2.923 1.711" style="fill:#b7511e"/><path d="m60.22 71.09c0-1.772 1.219-2.485 2.723-1.594 1.504.8915 2.723 3.05 2.723 4.822s-1.219 2.485-2.723 1.594c-1.504-.8915-2.723-3.05-2.723-4.822zm-.3006-.1055c0 1.902 1.309 4.22 2.923 5.177 1.615.9567 2.924.1909 2.924-1.711s-1.309-4.22-2.924-5.177-2.923-.1909-2.923 1.711" style="fill:#e08217"/><path d="m61.13 71.16c0 1.418.9761 3.144 2.179 3.858 1.113.6586 2.03.2194 2.162-.9719.01058-.09596.01623-.1976.01623-.303 0-.9564-.4441-2.054-1.103-2.886-.3161-.4011-.684-.7401-1.075-.9719-1.203-.7133-2.179-.1415-2.179 1.275" style="fill:#d9681b"/><path d="m65.2 73.2c0 .03775-.0018.07549-.0032.1115-.01129.2233-.05927.4142-.1383.5673l-.0021.0021c-.07338.1443-.1736.2554-.2942.3309l-.4819.2801c-.2748.1291-.2318-.1482-.6315-.3842-.8587-.5087-1.553-1.738-1.553-2.748 0-.4964-.2738-.587 0-.7528l.5253-.3027.03845-.01693c.2138-.08326.4755-.0702.7631.05115.07373.02999.1492.06809.2265.1136.6523.3874 1.209 1.191 1.439 1.997.04798.1665.08114.3348.09772.4974.0092.08537.01446.1704.01446.2536" style="fill:#270b12"/><path d="m64.77 73.46c0 .03775-.0018.07549-.0035.1115-.01129.2233-.05927.4142-.1383.5676l-.0021.0018c-.2448.4805-.7828.5958-1.407.2268-.8587-.5087-1.554-1.738-1.554-2.748 0-.5447.2028-.9137.5253-1.055l.03881-.01729c.2138-.08326.4752-.06985.7627.05115.07373.03034.1492.06809.2268.1136.6519.3877 1.209 1.192 1.439 1.997.04798.1662.08114.3344.09772.4971.0095.08537.01482.1704.01482.2536" style="fill:#442d34"/><path d="m64.14 72.82c0 .206-.05962.3602-.1602.4512-.1372.1249-.5898.3888-.5898.3888l-1.067-1.878s.3764-.2201.4808-.3101c.1376-.1189.3482-.1224.5846.01764.4149.2459.7514.8417.7514 1.331" style="fill:#270b12"/><path d="m63.61 73.16c0 .489-.3362.6858-.7514.4399-.4149-.2459-.7514-.8417-.7514-1.331 0-.4886.3366-.6858.7514-.4396.4152.2459.7514.8417.7514 1.331" style="fill:#533841"/><path d="m63.22 72.91c0 .08749-.0254.1528-.06773.1912-.05821.05327-.2.1281-.2.1281l-.4523-.7962s.1094-.05644.1535-.09454c.05856-.05045.1478-.05186.248.0074.176.1044.3186.357.3186.5641" style="fill:#270b12"/><path d="m63.05 73.02c0 .2071-.1425.2907-.3186.1863s-.3186-.3567-.3186-.5641c0-.2074.1425-.2907.3186-.1866.176.1044.3186.357.3186.5644" style="fill:#68535c"/><path d="m62.31 61.74c-.1528.08925-3.3 1.956-3.3 1.956l3.427.8237 3.124 2.277 2.256 3.102.6872 2.294 3.3-1.956-.05715-.7451-.539-1.754-2.248-3.047-3.097-2.375-3.553-.5771" style="fill:#5fcad0"/><path d="m59.01 63.7v.3644l3.404.5556 3.052 2.256 2.196 3.002.6216 2.105.2201.2141-.05715-.7451-.5387-1.754-2.248-3.047-3.096-2.375-3.553-.5771" style="fill:#1e5162"/><path d="m71.74 69.5-3.3 1.956.05715.7451 3.3-1.956-.05715-.7451" style="fill:#45a1be"/><path d="m71.2 67.74-3.3 1.956.5387 1.754 3.3-1.956-.539-1.754" style="fill:#55c3dd"/><path d="m65.86 62.32-3.3 1.956-3.553-.5771 3.3-1.956 3.553.5771" style="fill:#f9ad27"/><path d="m68.96 64.7-3.3 1.956 2.248 3.047 3.3-1.956-2.248-3.047" style="fill:#6fcfd6"/><path d="m83.85 61.84-.3701.4713c-.406.5352-.7355 1.42-.7355 1.976v2.911c0 .556.6749.6064.8883-.145l.2198-.3542c.406-.5352.5521-1.147.5521-1.703l.1171-2.709c.1778-.5595-.2656-.9821-.6717-.447" style="fill:#18110e"/><path d="m83.83 62.05-.1891.2639c-.406.5352-.7355 1.42-.7355 1.976v2.911c0 .556.3295.5729.7355.03775l.3725-.5369c.406-.5352.5521-1.147.5521-1.703v-2.911c0-.5563-.3291-.5729-.7355-.03775" style="fill:#282321"/><path d="m83.49 61.54v5.273c.04163.01235.08996.01552.1362.02187l.06773-.04692.05186-.07796-.0071-5.293c-.000706-.4995-.5662-.774-.9426-.4579l-1.708 1.432.1471.3422 1.668-1.469c.2304-.2028.5867-.03493.5867.2769" style="fill:#261f1b"/><path d="m64.5 70.11 3.349-3.617-8.355-5.194-4.921-1.487 1.441 5.279-.4579 3.265 6.335 10.12 4.809-2.85-2.007-1.873-.1933-3.648" style="fill:#e8491e"/><path d="m57.33 67.55 4.129 1.584 6.382-2.634-8.355-5.194-4.921-1.487-4.809 2.85 5.792 5.695 1.782-.8142" style="fill:#f68c1f"/><path d="m61.52 72.69-.05785-3.564-6.781-4.978-4.921-1.487-1.324 6.918.3147 2.444 10.61 6.401 2.528.05609.5627-4.14-.9292-1.65" style="fill:#e6551c"/><path d="m48.74 69.89 1.663-6.043 3.738.8251 7.355 5.222-.03704-.7652-6.781-4.978-4.921-1.487-1.324 6.918.3147 2.444-.0071-2.136" style="fill:#e55f1b"/><path d="m47.9 68.27v2.154l.1986.6572 2.535 1.425.4332-2.022-.1348-.1732-2.644-1.436-.3881-.605" style="fill:#e8451e"/><path d="m48.81 67.66-.9042.6181.1986.6893 2.968 1.525-.3228-.4156-2.174-1.194.2342-1.223" style="fill:#f68c1f"/><path d="m49.92 72.88.1789-.1136c-.02187.06279-.0441.1252-.0635.1905zm-.272 1.342c-.0014.06421-.0042.1284-.0042.1944 0 .2977.01905.6015.05433.9084l.1834.1221c.01482.1249.03351.2508.05398.3768l-.1672-.0067c.06668.3926.1584.7888.2745 1.185l.1813.06632c.03986.1326.0829.2653.1281.3976l-.1429.05397c.1386.4018.2995.8008.4822 1.193l.1676.006c.06174.1316.1266.2625.1933.3923l-.1094.1115c.2007.3859.4209.7624.6583 1.125l.1422-.05468c.08079.1221.1633.2434.248.362l-.06879.163c.2491.3461.5147.6756.792.9857l.1083-.1122c.0949.1051.1909.2078.2882.3076l-.02328.2014c.2815.2843.5743.5472.8759.7849l.06738-.1619c.102.07937.2053.1556.309.229l.02293.2286c.1492.1037.2999.2025.4523.2928.1524.09031.303.1704.4523.2434l.02258-.2018c.1041.04974.2074.09596.3094.1376l.06738.242c.2177.08643.4304.1535.6382.2032l-.8513.9465.3898.2071.8756-.4784.1041.04445 2.968-1.284c.1418-.06703.9465-1.018 1.073-1.112l-.02258-.04939.2741-.1619c.1824-.176.3436-.3838.4822-.6212l-.103-.1609.2695-.1598c.1161-.2582.2078-.5461.2741-.8597l-.1672-.1916.01482-.08467.223-.1323c.03528-.2656.05433-.5465.05433-.8442 0-.06632-.0025-.133-.0046-.1997l-.1813-.1482c-.0025-.07232-.0078-.1457-.01199-.2184l.1683-.09984c-.03246-.3821-.09313-.7708-.1774-1.162l-.1845-.09525c-.02328-.1055-.04904-.211-.07585-.3168l.1415-.08396c-.108-.4039-.2409-.8082-.3962-1.208l-.1757-.03669c-.04904-.1249-.1009-.2494-.1545-.3732l.1263-.0829c-.1757-.4011-.3722-.7962-.5884-1.18l-.157.02505c-.06703-.1168-.1358-.2325-.206-.3471l.08925-.1372c-.2318-.3739-.4808-.7345-.7461-1.077l-.1316.07832c-.07867-.1005-.1584-.199-.2395-.296l.04657-.1838c-.273-.3228-.5595-.6258-.8572-.9049l-.1471.08678c-.0695-.0635-.1393-.1266-.2103-.1877l.000353-.218c-.2963-.2512-.6022-.4777-.9151-.6759l-.175.1037-.0085-.0049c-.04621-.02752-.09208-.05221-.1379-.07761l-.04586-.2388c-.3126-.1725-.6184-.3083-.9148-.4085l-.2466.146-.02152-.006-.0889-.2445c-.2977-.07373-.5842-.1104-.8572-.1111l-.3249.01658c-.2649.02822-1.726.8117-1.958.9109l-.26.1542-.01341-.0187-2.829 1.677-.5465 1.512 1.078-.6837c-.0695.2625-.1235.5419-.1524.8456l.1757.1707c-.0095.108-.01552.2194-.0194.3327l-.1817-.06703" style="fill:#3b0d18"/><path d="m53.62 69.68-1.529 1.039-2.528 1.248.7458-.1926 2.48-1.101 1.562-1.294-.7306.3013" style="fill:#421721"/><path d="m60.65 74.05-1.283 1.946-2.758.4494.5888 1.18 2.774-.459 1.268-1.936-.2812-.6011-.3073-.5789" style="fill:#421721"/><path d="m61.44 75.72-1.492 1.951-2.549.4445.3962 1.209 2.565-.4537 1.477-1.942-.1619-.5489-.2342-.6593" style="fill:#421721"/><path d="m61.95 77.42-1.408 1.94-2.633.4558.1774 1.162 2.649-.465 1.393-1.931-.05398-.5193-.1235-.6428" style="fill:#421721"/><path d="m62.16 79.05-1.357 1.899-2.684.4964-.04974 1.044 2.699-.5059 1.342-1.89.05433-.4537-.0046-.5902" style="fill:#421721"/><path d="m62.04 80.5-1.191 1.684-2.85.7116-.2745.8597 2.926-.8819 1.115-1.514.151-.3549.1231-.5048" style="fill:#421721"/><path d="m61.59 81.68-1.34 1.332-2.701 1.063-.4822.6209 2.717-1.072 1.325-1.323.2575-.2614.2247-.3598" style="fill:#421721"/><path d="m59.63 72.51-1.283 1.946-2.758.4494.7461 1.077 2.774-.459 1.268-1.936-.3718-.5666-.3743-.5105" style="fill:#421721"/><path d="m58.44 71.2-1.283 1.946-2.758.4498.8572.9052 2.774-.459 1.268-1.937-.3866-.4512-.4706-.4537" style="fill:#421721"/><path d="m57.17 70.21-1.283 1.946-2.758.4498.9151.6759 2.774-.4593 1.268-1.936-.3909-.3253-.5242-.3507" style="fill:#421721"/><path d="m55.89 69.58-1.154 1.621-2.887.7747.9144.4085 2.903-.7839 1.138-1.612-.4011-.2173-.5136-.1912" style="fill:#421721"/><path d="m54.68 69.37-1.255 1.311-2.786 1.085.8572.1111 2.72-.8894 1.321-1.506-.4713-.08714-.3859-.02399" style="fill:#421721"/><path d="m50.36 71.82-1.865 1.023.4925.7786 1.372-.7959v-1.005" style="fill:#3b0d18"/><path d="m49.85 72.83-1.864 1.105.4921.7789 1.372-.7962v-1.088" style="fill:#3b0d18"/><path d="m49.64 74.22-1.864 1.105.4925.7789 1.372-.7966v-1.087" style="fill:#3b0d18"/><path d="m49.76 75.81-1.864 1.105.4921.7789 1.372-.7962v-1.088" style="fill:#3b0d18"/><path d="m50.21 77.51-1.864 1.105.4921.7786 1.372-.7962v-1.088" style="fill:#3b0d18"/><path d="m58.06 82.49c.03493-.2656.05398-.5468.05398-.8446 0-.06597-.0021-.133-.0042-.1997l-.1813-.1478c-.0039-.1178-.0099-.2364-.0194-.3556l.1757.03739c-.03246-.3824-.09313-.7712-.1774-1.162l-.1845-.0949c-.02787-.1256-.0575-.2515-.09031-.3771l.1559-.02364c-.108-.4039-.2409-.8086-.3962-1.209l-.1757-.03634c-.04904-.1249-.1009-.2494-.1545-.3732l.1263-.08326c-.1757-.4011-.3722-.7962-.5888-1.18l-.1566.02505c-.06667-.1171-.1358-.2325-.206-.3471l.08925-.1376c-.2318-.3736-.4808-.7345-.7461-1.077l-.1266.08467c-.08008-.1027-.1616-.2032-.2445-.302l.04657-.1838c-.2727-.3228-.5595-.6258-.8572-.9052l-.08925.139c-.08819-.0822-.1778-.1623-.2681-.2395l.000353-.218c-.2963-.2512-.6022-.4777-.9151-.6759l-.04551.1842c-.04586-.02858-.09172-.05821-.1379-.08572-.04621-.02752-.09172-.05186-.1379-.07761l-.04586-.2385c-.3126-.1725-.6184-.3087-.9144-.4085v.2184c-.09031-.02963-.1799-.05574-.2685-.07867l-.0889-.2441c-.2977-.07373-.5842-.1104-.8572-.1111l.04621.2388c-.08255.000353-.164.0046-.2441.01235l-.127-.235c-.2649.02857-.514.09349-.7458.1926l.08925.2434c-.0702.03104-.1393.06526-.206.103l-.1566-.211c-.2166.127-.4131.2889-.5888.4819l.1263.2328c-.05362.06032-.1055.1235-.1545.1901l-.1757-.1714c-.1552.2159-.2882.4625-.3962.7387l.1559.2085c-.03281.08678-.06244.1771-.09031.2699l-.1845-.1235c-.08431.291-.145.6082-.1774.9518l.1757.1711c-.0095.108-.01552.2194-.0194.3327l-.1817-.06738c-.0018.06456-.0039.1284-.0039.1947 0 .2977.0187.6011.05362.9084l.1838.1217c.01482.1252.03351.2508.05398.3771l-.1672-.0071c.06667.3926.1584.7888.2745 1.185l.1817.06632c.03951.1326.08255.2653.1274.3976l-.1425.05433c.1386.4015.2999.8005.4822 1.192l.1676.006c.06209.1319.1266.2625.1933.3923l-.1094.1115c.2007.3863.4212.7624.6583 1.125l.1422-.05468c.08079.1224.1633.2434.248.362l-.06879.163c.2491.3461.5147.6756.792.9857l.1083-.1122c.09455.1051.1905.2078.2882.3076l-.02328.2014c.2815.2843.5743.5475.8759.7849l.06738-.1619c.102.07973.2053.1556.3094.229l.02258.229c.1492.1037.2999.2021.4523.2925.1524.09066.303.1704.4523.2434l.02258-.2018c.1041.05009.2071.09631.3094.1376l.06738.242c.3016.1199.5944.2039.8759.2533l-.02364-.2293c.09807.01623.1937.02681.2886.03457l.108.2399c.2776.01905.5429.0042.7923-.04657l-.06879-.2441c.08467-.0187.1672-.04198.248-.06844l.1422.2233c.2371-.08149.4576-.1965.6583-.3447l-.1094-.2413c.06668-.05045.1312-.1048.1933-.163l.1676.1926c.1824-.1757.3436-.3835.4822-.6209l-.1425-.2233c.0448-.07902.08784-.1605.1274-.2462l.1817.1489c.1161-.2586.2078-.5461.2745-.8597l-.1676-.1916c.02081-.1016.03951-.2053.05433-.3126l.1834.0956" style="fill:#330e17"/><path d="m57.61 81.47c0 3.094-2.129 4.34-4.756 2.783-2.626-1.556-4.755-5.327-4.755-8.42 0-3.094 2.129-4.34 4.755-2.783 2.626 1.556 4.756 5.327 4.756 8.42" style="fill:#4e1d29"/><path d="m56.53 80.82c0 2.39-1.645 3.353-3.674 2.151-2.029-1.203-3.674-4.115-3.674-6.505 0-2.39 1.645-3.353 3.674-2.151 2.029 1.203 3.674 4.115 3.674 6.505" style="fill:#582a36"/><path d="m56.14 80.48c0 2.078-1.43 2.915-3.194 1.869-1.764-1.046-3.194-3.578-3.194-5.655 0-2.078 1.43-2.915 3.194-1.869 1.764 1.045 3.194 3.578 3.194 5.655" style="fill:#e09015"/><path d="m50.02 76.85c0 1.902 1.309 4.22 2.924 5.177s2.923.1909 2.923-1.711c0-1.902-1.309-4.22-2.923-5.177s-2.924-.1909-2.924 1.711" style="fill:#b7511e"/><path d="m50.32 76.96c0-1.772 1.22-2.485 2.723-1.594 1.504.8915 2.723 3.05 2.723 4.822s-1.219 2.485-2.723 1.594c-1.504-.8915-2.723-3.05-2.723-4.822zm-.3006-.1055c0 1.902 1.309 4.22 2.924 5.177s2.924.1909 2.924-1.711c0-1.902-1.309-4.22-2.924-5.177s-2.924-.1909-2.924 1.711" style="fill:#e08217"/><path d="m51.23 77.03c0 1.418.9758 3.144 2.179 3.858 1.113.6586 2.03.2194 2.161-.9719.01094-.09596.01623-.1972.01623-.3034 0-.9564-.4438-2.054-1.103-2.885-.3157-.4011-.6837-.7401-1.075-.9719-1.203-.7133-2.179-.1418-2.179 1.275" style="fill:#d9681b"/><path d="m53.92 76.67c0 .23-.1584.3228-.3538.2071-.1954-.1161-.3538-.3965-.3538-.6269s.1584-.3228.3538-.2071.3538.3965.3538.6269" style="fill:#270b12"/><path d="m52.73 76.19c.1383.2448.1383.5087 0 .5895-.1383.08114-.3623-.05186-.5006-.2963-.1383-.2448-.1383-.5087 0-.5898.1383-.08079.3623.05221.5006.2967" style="fill:#270b12"/><path d="m52.02 76.91c.1954.1161.3538.3965.3538.6269s-.1584.3228-.3538.2071c-.1958-.1157-.3542-.3965-.3542-.6269s.1584-.3228.3542-.2071" style="fill:#270b12"/><path d="m52.21 78.42c.1383-.08114.3623.05186.5006.2967.1383.2448.1383.5087 0 .5895-.1383.08114-.3623-.05186-.5006-.2967-.1383-.2445-.1383-.5087 0-.5895" style="fill:#270b12"/><path d="m53.18 79.82c0-.2304.1584-.3231.3538-.2074.1958.1161.3538.3965.3538.6269 0 .2304-.158.3231-.3538.2071-.1954-.1157-.3538-.3962-.3538-.6265" style="fill:#270b12"/><path d="m54.36 80.31c-.1383-.2445-.1383-.5087 0-.5895.1383-.08079.3623.05186.5006.2967.1383.2445.1383.5087 0 .5895-.1383.08079-.3623-.05186-.5006-.2967" style="fill:#270b12"/><path d="m55.07 79.59c-.1951-.1161-.3538-.3962-.3538-.6265s.1588-.3231.3538-.2074c.1958.1161.3542.3965.3542.6269 0 .23-.1584.3231-.3542.2071" style="fill:#270b12"/><path d="m54.88 78.08c-.1383.08079-.3623-.05186-.5006-.2967-.1383-.2445-.1383-.5087 0-.5895.1383-.08079.3623.05186.5006.2967.1383.2445.1383.5087 0 .5895" style="fill:#270b12"/><path d="m54.61 78.79c0 .2826-.08184.4935-.2194.6184-.1884.1711-.8086.5323-.8086.5323l-1.461-2.572s.5158-.3016.659-.4251c.1887-.163.4773-.1676.8008.02399.5683.3369 1.029 1.153 1.029 1.823" style="fill:#270b12"/><path d="m53.89 79.26c0 .6696-.4607.9394-1.029.6029-.5687-.3373-1.03-1.154-1.03-1.823 0-.6696.4611-.9394 1.03-.6025.5683.3369 1.029 1.153 1.029 1.823" style="fill:#421721"/><path d="m53.65 79.2c0 .5461-.3757.7659-.8389.4911-.4636-.2745-.8389-.9394-.8389-1.485 0-.5461.3754-.7659.8389-.4914.4632.2748.8389.9398.8389 1.486" style="fill:#4e1d29"/><path d="m52.41 67.61c-.1524.08925-3.3 1.956-3.3 1.956l3.427.8237 3.124 2.277 2.256 3.102.6869 2.294 3.3-1.955-.05715-.7451-.5387-1.754-2.248-3.047-3.096-2.375-3.553-.5771" style="fill:#fabd22"/><path d="m49.11 69.57v.3644l3.405.5556 3.052 2.256 2.195 3.002.6216 2.105.2201.2138-.05715-.7447-.5387-1.754-2.248-3.047-3.096-2.375-3.553-.5771" style="fill:#e8491e"/><path d="m61.84 75.36-3.3 1.956.05715.7447 3.3-1.955-.05715-.7451" style="fill:#f68c1f"/><path d="m61.3 73.61-3.3 1.956.5387 1.754 3.3-1.956-.5387-1.754" style="fill:#f9ad27"/><path d="m55.96 68.19-3.3 1.956-3.553-.5771 3.3-1.956 3.553.5771" style="fill:#f9ad27"/><path d="m59.06 70.56-3.3 1.956 2.248 3.047 3.3-1.956-2.248-3.047" style="fill:#fccb27"/><path d="m71.1 69.53-.2646-.157-.5087-3.611.2036.000705 2.911 1.725 1.832 3.508 3.705 2.196.1626-.2872 1.12.6682.4269.2487-.8082.9116-8.78-5.203" style="fill:#4bc4d1"/><path d="m73.22 83.7-.26-3.293 1.139-.4276.1224-.3112-10.1-5.984.5701 1.632.3662 4.39 1.869 2.66 6.289 1.333" style="fill:#3997a6"/><path d="m62.65 80.88 7.748 4.592 1.79-.471 6.383-4.04.8484-1.05v-2.479l-9.493.2191-7.276-.429v3.657" style="fill:#270b12"/><path d="m62.65 78.65 7.748 4.34.8167.229 7.025-4.33 1.179-1.459-6.766-3.062-2.727.8022-7.276 2.05v1.43" style="fill:#1e0b10"/><path d="m62.02 84.71-.2589-.1531 1.685-7.777.2589.1531-1.685 7.777" style="fill:#e65b1b"/><path d="m62.02 84.71.4865-.2406 1.685-7.777-.4868.2406-1.685 7.777" style="fill:#8c371b"/><path d="m65.61 82.82-2.873-1.703.02222-.3718 2.873 1.703-.02222.3718" style="fill:#1e0b10"/><path d="m65.53 82.74-2.651-1.571-.006-.09948 2.651 1.572.006.09913" style="fill:#e58317"/><path d="m65.61 82.82 1.239-.9345.02187-.2508-1.239.8135-.02222.3718" style="fill:#270b12"/><path d="m65.63 82.45-2.873-1.703 1.239-.8135 2.873 1.703-1.239.8135" style="fill:#582a36"/><path d="m64.65 86.56-2.873-1.703.02222-.3722 2.873 1.703-.02187.3718" style="fill:#1e0b10"/><path d="m64.57 86.48-2.651-1.571-.006-.09913 2.651 1.571.006.09913" style="fill:#e58317"/><path d="m64.65 86.56 1.239-.9349.02223-.2508-1.239.8139-.02187.3718" style="fill:#270b12"/><path d="m64.67 86.19-2.873-1.703 1.239-.8132 2.873 1.703-1.239.8139" style="fill:#582a36"/><path d="m65.19 86.59.4868-.2406 1.685-7.777-.4865.2406-1.685 7.777" style="fill:#8c371b"/><path d="m65.19 86.59-.2586-.1535 1.685-7.777.2589.1535-1.685 7.777" style="fill:#e65b1b"/><path d="m83.24 77.54-15.47 9.167v2.45l15.47-9.167v-2.451" style="fill:#d9511e"/><path d="m81.54 76.44-13.63 8.078-.1386 2.19 15.47-9.167-1.698-1.101" style="fill:#f9ad27"/><path d="m61.95 77.25 8.197 4.858 1.096.1552 9.758-5.999.09278-1.004.0092-1.477-11.35-.8266-7.803 2.581v1.712" style="fill:#d9511e"/><path d="m71.24 82.26-1.096-.1552v-1.712l1.096.1552v1.712" style="fill:#ed6419"/><path d="m61.95 75.53 8.197 4.858 1.096.1552 9.78-5.872.08008-.8954-8.197-4.858-3.152.9275-8.122 5.006.3186.6791" style="fill:#f9ad27"/><path d="m72.26 79.94-8.134-6.252-.4456-1.335 16.75 1.466-.7941 1.69-7.38 4.431" style="fill:#e4621b"/><path d="m70.32 55.42v-1.199l.3464-.2265 3.152.9275 8.122 5.006.6544 1.379-.2646 1.018-.8368-1.415-7.003-4.246-3.627-1.328-.1358.3263-.4071-.2413" style="fill:#4bc4d1"/><path d="m70.73 55.66-.2036 10.1 2.911 1.725-3.114 2.926.7832 2.887.9543 5.129 8.197-4.858.9359-3.405.8826-8.076-.5796-1.183-7.349-4.74-3.281-.8347-.1358.3263" style="fill:#582a36"/><path d="m81.99 62.74-1.535-.3821-1.425 9.977 1.35.8001.7874-2.866.8227-7.53" style="fill:#6d7173"/><path d="m79.64 64.05-1.028 6.929-1.68 1.008-1.663-.9853-1.501-3.035.0508-.4657 5.822-3.451" style="fill:#6d7173"/><path d="m80.26 71.93-.412-1.082-2.413-1.403-3.72 2.052-.6198 3.329-.8894 3.068.4815-.6696 7.573-5.294" style="fill:#693a47"/><path d="m73.82 67.5 8.197-4.859.05962-.545-8.197 4.858-.05962.5457" style="fill:#284a5a"/><path d="m72.06 78.43 8.369-4.617.2678-1.405-.4336-.4819-6.623 3.974-1.432 1.99-.1482.5398" style="fill:#e4621b"/><path d="m62.53 60.52-.2036 10.1 2.911 1.725 1.832 3.508 3.705 2.196.1626-.2872 1.12.6682.9356-3.405.8826-8.076-1.899-.4-7.349-4.74-1.961-1.617-.1355.3263" style="fill:#270b12"/><path d="m62.45 74.34-.9292-1.65-.05785-3.564.8682 1.494 2.911 1.725 1.832 3.508 3.705 2.196.1626-.2872 1.12.6682-.1252.6992-.06597.508-9.421-5.296" style="fill:#e37318"/><path d="m65.75 62.91v9.189l1.73 3.447 2.931 1.737 1.262-10.53-5.923-3.845" style="fill:#402329"/><path d="m73.82 67.5-1.535-.3817-1.425 9.977 1.35.8001.7874-2.866.823-7.53" style="fill:#402329"/><path d="m64.83 62.99-2.311-1.923-.182 9.039 2.493 1.463v-8.579" style="fill:#402329"/><path d="m61.46 69.13.925-1.322-.0568 2.816z" style="fill:#de8817"/><path d="m62.13 60.13v-1.049l.3461-.2268 1.832 1.71 8.122 5.006 1.974.5969-.2646 1.018-2.157-.6325-7.003-4.247-1.853-1.35-.5895-.4339-.4071-.3912" style="fill:#e6551c"/><path d="m82.6 61.31-8.197 4.858-1.974-.5969-8.122-5.006-1.832-1.71-.3461.2268 8.197-4.858.3464-.2265 3.152.9275 8.122 5.006.6544 1.379" style="fill:#fabd22"/><path d="m64.31 60.56 9.517-5.64-3.152-.9275-8.197 4.858 1.832 1.71" style="fill:#f9ad27"/><path d="m82.33 62.33-8.197 4.858.2646-1.018 8.197-4.858-.2646 1.018" style="fill:#e6b520"/><path d="m65.16 60.1 8.309 4.655.03634.05468-.266.1651-8.136-4.762.0568-.1122" style="fill:#de8817"/><path d="m65.37 59.98 8.1 4.779-.1729.1076-8.136-4.762.2096-.1245" style="fill:#fccb27"/><path d="m66.7 59.19 8.31 4.655.03634.05433-.2663.1655-8.136-4.762.0568-.1122" style="fill:#de8817"/><path d="m66.91 59.06 8.1 4.779-.1729.1072-8.137-4.762.2096-.1245" style="fill:#fccb27"/><path d="m68.25 58.27 8.31 4.655.03598.05433-.266.1655-8.137-4.762.05715-.1125" style="fill:#de8817"/><path d="m68.46 58.15 8.1 4.779-.1732.1072-8.136-4.762.2096-.1245" style="fill:#fccb27"/><path d="m69.8 57.36 8.309 4.655.03634.05433-.2663.1655-8.137-4.762.0575-.1122" style="fill:#de8817"/><path d="m70.01 57.24 8.1 4.779-.1729.1072-8.136-4.762.2092-.1245" style="fill:#fccb27"/><path d="m71.35 56.45 8.309 4.655.03598.05468-.266.1651-8.136-4.762.05715-.1125" style="fill:#de8817"/><path d="m71.56 56.32 8.1 4.779-.1729.1076-8.136-4.762.2092-.1242" style="fill:#fccb27"/><path d="m72.9 55.53 8.309 4.655.03598.05433-.266.1655-8.136-4.762.05715-.1122" style="fill:#de8817"/><path d="m73.11 55.41 8.1 4.779-.1729.1072-8.136-4.762.2096-.1249" style="fill:#fccb27"/><path d="m81.94 59.93-9.517 5.64 1.974.5969 8.197-4.858-.6544-1.379" style="fill:#fccb27"/><path d="m75.62 66.31.236-.7214 4.772-2.886.3835.4124-5.392 3.195" style="fill:#282321"/><path d="m76.58 65.32-.5606.3291v.2794l.6509-.5556-.09031-.05292" style="fill:#db6133"/><path d="m76.67 65.37-.5602.3295v.2798l.5602-.3362v-.273" style="fill:#f57734"/><path d="m76.11 65.7-.09066-.05327v.2794l.09066.05362v-.2798" style="fill:#d94f20"/><path d="m78.62 64.1-.5602.3291v.2798l.6505-.5556-.09031-.05327" style="fill:#db6133"/><path d="m78.71 64.15-.5602.3291v.2798l.5602-.3362v-.2727" style="fill:#f57734"/><path d="m78.15 64.48-.09031-.05327v.2798l.09031.05327v-.2798" style="fill:#d94f20"/><path d="m80.55 62.95-.5606.3295v.2798l.6512-.556-.09066-.05327" style="fill:#db6133"/><path d="m80.64 63.01-.5606.3291v.2798l.5606-.3362v-.2727" style="fill:#f57734"/><path d="m80.08 63.34-.09066-.05292v.2798l.09066.05292v-.2798" style="fill:#d94f20"/><path d="m65.29 61.95c-.01588.1506.06456.3101.2.3962l.6548.4117c.1065.0762.2364.01905.2392-.1051l.000353-.01905.006-.206c.0127-.1196-.05115-.2462-.1588-.3147l-.4738-.3009-.2628-.1679c-.07937-.05045-.1711-.01129-.1803.07655l-.02469.2293" style="fill:#c3c4c2"/><path d="m65.93 62.41.4466.2307.006-.206c.0127-.1196-.05115-.2462-.1588-.3147l-.4738-.3009-.02046.1951c-.01588.1506.06491.3097.2004.3958" style="fill:#dde3e5"/><path d="m75.47 66.11c-.0028.1182-.08572.2484-.2071.3228l-.5846.356c-.09631.06491-.1976.02575-.1866-.07267l.0014-.01482.01658-.163c.0021-.09384.06844-.1968.1644-.2561l.4233-.26.235-.1446c.07126-.04375.1429-.01729.1415.05221l-.0039.1803" style="fill:#c3c4c2"/><path d="m74.89 66.5-.3941.2032.01658-.163c.0021-.09384.06844-.1968.1644-.2561l.4233-.26-.0032.1535c-.0028.1185-.08643.248-.2071.3224" style="fill:#dde3e5"/><path d="m82.22 62.1c-.0025.1182-.08572.248-.2067.3224l-.5846.356c-.09666.06526-.1976.02611-.187-.07232l.0014-.01482.01658-.163c.0021-.09419.06844-.1968.1647-.2561l.6583-.4046c.07091-.04374.1429-.01729.1411.05186l-.0039.1806" style="fill:#c3c4c2"/><path d="m81.63 62.49-.3941.2032.01658-.163c.0021-.09419.06844-.1968.1647-.2561l.423-.26-.0032.1535c-.0028.1182-.08608.248-.2071.3224" style="fill:#dde3e5"/><path d="m59.49 61.3-4.809 2.85-4.921-1.487 4.809-2.85 4.921 1.487" style="fill:#f47119"/><path d="m74.12 76.09-.477-.1834 6.623-3.974.4336.4819-.02752.09948-.3358-.1083-6.217 3.684" style="fill:#fccb27"/><path d="m62.34 70.1 2.049-1.766v-5.719l-1.867-1.554-.182 9.039" style="fill:#563b41"/><path d="m80.33 72.4-6.217 3.684-.7116 3.159 6.23-3.74.6985-3.103" style="fill:#f68c1f"/><path d="m70.51 68.84-.4967.04974c-.406.08396-.7355.6029-.7355 1.159v3.227c0 .556.3295.9384.7355.8544l.6798-.1196c.4064-.08396.5524-.533.5524-1.089v-3.227c0-.5563-.3291-.9387-.7355-.8548" style="fill:#18110e"/><path d="m70.51 68.93-.4967.05009c-.406.08396-.7355.6029-.7355 1.159v3.227c0 .5563.3295.9387.7355.8548l.6798-.1196c.4064-.08396.5524-.533.5524-1.089v-3.227c0-.556-.3291-.9387-.7355-.8548" style="fill:#282321"/><path d="m72.81 66.17-1.843 1.805c-.4516.4424-.707 1.055-.707 1.696v4.047l.02328.01376c.0321.01129.06068.02364.09454.02928.09631.01517.1464.000705.1898-.04163v-3.877c0-.6272.2452-1.228.6802-1.669l1.7-1.721.0194-.2099-.1573-.07232" style="fill:#261f1b"/><path d="m74.26 64.1-2.191-.1718-1.189-.7013c.02399-.01729.0508-.03387.08079-.04974.1517-.08008.3535-.121.5599-.1298l.000353-.0049 1.477-.02928 1.229.719.03351.3679m-2.912-.2325c-.1224-.01658-.2388-.04339-.3387-.0889-.1616-.07373-.2536-.1704-.2745-.2699l.6131.3588" style="fill:#d86b1b"/><path d="m71.64 63.9-.1873-.01446.000353-.0011c-.03669-.0032-.07303-.0071-.1087-.01164l-.6131-.3588c-.0095-.04551-.0042-.09172.01623-.1365l.8925.5225" style="fill:#bd501e"/><path d="m72.07 63.93-.4247-.03351-.8925-.5225c.02293-.0508.06597-.1005.1284-.1453l1.189.7013" style="fill:#d7721a"/><path d="m74.19 63.36-.5969-.3524.5634-.01129.03351.3637" style="fill:#d86b1b"/><path d="m74.23 63.73-1.229-.719.2413-.0049.9733.5697.01411.1542" style="fill:#bd501e"/><path d="m74.21 63.58-.9733-.5697.356-.0071.5969.3524.02046.2244" style="fill:#d7721a"/><path d="m73.25 62.87 2.013-.02963v.7553c.0095.1259-.07832.2533-.266.3528-.3771.199-1.015.2096-1.423.02328-.2053-.09349-.314-.2187-.3231-.3457h-.000352v-.756" style="fill:#a6cbc7"/><path d="m73.35 60.99 1.734-.01975.1863 1.87c.0095.1252-.07832.2529-.266.3521-.3771.1993-1.015.2099-1.423.02364-.2053-.09349-.314-.2187-.3231-.3461h-.000352l.09278-1.88" style="fill:#d75e1c"/><path d="m73.58 60.69c.3249-.1714.8735-.1806 1.226-.02011.3521.1602.3739.4297.04904.6011-.3249.1718-.8731.1806-1.225.02011-.3521-.1602-.3746-.4293-.04974-.6011" style="fill:#f79924"/><path d="m73.57 62.51c.35-.1852.9416-.1947 1.321-.02187.3796.1729.4029.4628.05327.6481-.3503.1849-.9416.1947-1.321.02187-.3792-.1729-.4032-.4632-.05292-.6481" style="fill:#f78e1e"/><path d="m74.52 61.81c.09066.2501.1288.6512.03316.883-.0956.2314-.5161.1665-.6064-.08361-.09066-.2501-.06456-.3792.0314-.611.09525-.2318.4516-.4385.5419-.1884" style="fill:#f78e1e"/><path d="m74.18 62.02c.07549.2561.07161.6145-.0085.8015-.08008.187-.2064.1312-.2819-.1245-.07549-.2558-.07161-.6145.0085-.8015.08043-.187.2064-.1309.2819.1245" style="fill:#f79924"/><path d="m68.49 79.93 1.13.6639v.5641l-1.313-1.121.1827-.1072" style="fill:#db6133"/><path d="m68.31 80.04 1.13.6639v.5641l-1.13-.6777v-.5503" style="fill:#f57734"/><path d="m69.44 80.7.1827-.1072v.5641l-.1827.1072v-.5641" style="fill:#d94f20"/><path d="m97.32 92.07.0032.0071-.1058.0635c-.1023.07055-.2117.1341-.321.1905l-13.94 8.273-2.071-3.235-1.206-1.891-3.284-5.133-.6597-1.401-2.364-5.027 14.01-8.297.0035.01058c1.065-.7408 2.533-.8008 4.187-.03528.2434.1129.4939.2434.7444.3916.8572.508 1.679 1.185 2.434 1.979 1.714 1.806 3.087 4.216 3.775 6.632.2222.7832.3739 1.563.441 2.328.03175.3069.04586.6138.04586.9137 0 2.011-.6421 3.457-1.693 4.23" style="fill:#2d2325"/><path d="m98.97 86.93-18.08 10.44-1.206-1.891-3.284-5.133-.6597-1.401-1.556-3.309 17.4-10.04c.2434.1129.4939.2434.7444.3916.8572.508 1.679 1.185 2.434 1.979 1.714 1.806 3.087 4.216 3.775 6.632.2222.7832.3739 1.563.441 2.328" style="fill:#372a2e"/><path d="m98.53 84.6-18.85 10.88-3.284-5.133-.6597-1.401 19.02-10.98c1.714 1.806 3.087 4.216 3.775 6.632" style="fill:#46363a"/><path d="m98.9 89.23-15.3 9.07 2.344.5352 10.96-6.502c.1115-.05715.2184-.121.3221-.1912l.1065-.06315-.0046-.0085c.7906-.5793 1.35-1.543 1.579-2.84" style="fill:#171213"/><path d="m100.7 90.69-15.47 9.167 2.63.6008 12.66-7.503.1778-2.265" style="fill:#262324"/><path d="m90.08 98.24-1.441.8438.04304-.8939 1.441-.8438-.04304.8939" style="fill:#edeeeb"/><path d="m90.08 98.24-.4177-.218-1 .5849.01976-.417 1.441-.8438-.04304.8939" style="fill:#acaead"/><path d="m90.12 97.34-.04304.8939-1.441.8438-.0049.1097 1.537-.8999.04833-1.004-.09631.05644" style="fill:#343133"/><path d="m89.18 98.3-.4551.2663.01446-.2974.4551-.2663-.01446.2974" style="fill:#fff"/><path d="m88.64 99.08-.0049.1097 1.537-.8999-.09102-.05362-1.441.8438" style="fill:#616062"/><path d="m99.99 92.38-1.441.8438.04304-.8939 1.441-.8438-.04304.8939" style="fill:#edeeeb"/><path d="m99.99 92.38-.4177-.218-1 .5849.01976-.417 1.441-.8438-.04304.8939" style="fill:#acaead"/><path d="m100 91.49-.04304.8939-1.441.8438-.0049.1097 1.537-.8999.0487-1.004-.0963.05644" style="fill:#343133"/><path d="m99.09 92.45-.4551.2663.01411-.297.4551-.2667-.01411.2974" style="fill:#fff"/><path d="m98.54 93.23-.0049.1097 1.537-.8999-.09067-.05362-1.441.8438" style="fill:#616062"/><path d="m99.04 89.59-13.63 8.079-.139 2.19 15.47-9.167-1.698-1.102" style="fill:#343133"/><path d="m84.97 96.16c0 4.356-2.998 6.11-6.695 3.919-3.698-2.191-6.695-7.499-6.695-11.86 0-4.356 2.998-6.11 6.695-3.919 3.698 2.192 6.695 7.5 6.695 11.86" style="fill:#e58317"/><path d="m84.65 95.98c0 .6311-.06526 1.205-.1912 1.712-.06562.279-.151.538-.2522.7758l-.0046.01552c-.6703 1.592-2.04 2.353-3.748 2.068-.1111-.0155-.2268-.0413-.3429-.067-.5891-.1397-1.209-.3934-1.849-.7761-.7708-.4551-1.506-1.055-2.186-1.753-.2921-.2999-.574-.6205-.8463-.9518l-.0049-.0049c-.1814-.2223-.3528-.4498-.5239-.6827l-.0053-.0053c-1.692-2.358-2.806-5.3-2.806-7.896 0-.7345.09066-1.391.2572-1.965.3725-1.282 1.138-2.141 2.156-2.487.3676-.1291.7758-.1912 1.214-.1757l.06667.0074c.03457.000353.06844 0 .1044.0032l-.04798.0028c.4036.02223.8283.1002 1.277.2505.4332.145.8865.3567 1.355.6308 3.521 2.089 6.377 7.146 6.377 11.3" style="fill:#5b2d39"/><path d="m84.65 95.98c0 .6311-.06526 1.205-.1912 1.712-.06562.279-.151.538-.2522.7758l.01058-.06738c-.6551 1.639-2.03 2.43-3.763 2.151-.1111-.0155-.2268-.0413-.3429-.067-.5891-.1397-1.209-.3934-1.849-.7761-.7708-.4551-1.506-1.055-2.186-1.753-.2921-.2946-.574-.6156-.8463-.9518l-.0049-.0049c-.1814-.2223-.3528-.4499-.5239-.6827l-.0053-.0053c-1.697-2.353-2.81-5.3-2.81-7.891 0-.7345.09031-1.396.2618-1.97.3725-1.282 1.138-2.141 2.156-2.487.3729-.1291.7758-.1859 1.209-.1704l.0053-.0053.06667.0074c.03457.000353.06844 0 .1044.0032l-.04798.0028c.4036.02223.8283.1002 1.277.2505.4332.145.8865.3567 1.355.6308 3.521 2.089 6.377 7.146 6.377 11.3" style="fill:#84381a"/><path d="m84.65 95.98c0 .6311-.06526 1.205-.1912 1.712-.6244.362-1.602.9102-1.677.967-.9973.7292-.5793-.3101-2.201-1.272-3.007-1.779-5.445-6.096-5.445-9.644 0-1.515-1.22-1.795-.4738-2.451.1813-.1605 2.025-1.127 2.257-1.241.4332.145.8865.3567 1.355.6308 3.521 2.089 6.377 7.146 6.377 11.3" style="fill:#6e4350"/><path d="m84.2 95.18c0 3.543-2.438 4.971-5.447 3.188-3.008-1.783-5.446-6.101-5.446-9.644s2.438-4.971 5.446-3.188c3.008 1.783 5.447 6.1 5.447 9.644" style="fill:#704e59"/><path d="m83.6 94.81c0 3.149-2.166 4.416-4.84 2.834-2.67-1.582-4.836-5.419-4.836-8.568 0-3.144 2.166-4.411 4.836-2.829.2265.1344.4533.2843.6696.4501 2.111 1.592 3.783 4.529 4.116 7.192.03528.3104.05539.6205.05539.9208" style="fill:#5b2d39"/><path d="m83.54 93.89-2.151 1.277-4.146-7.177 2.181-1.293c2.111 1.592 3.783 4.529 4.116 7.192" style="fill:#5b2d39"/><path d="m82.14 93.33c0 1.878-1.292 2.634-2.886 1.689-1.594-.9447-2.886-3.233-2.886-5.11s1.292-2.634 2.886-1.689c1.594.9447 2.886 3.233 2.886 5.11" style="fill:#704e59"/><path d="m69.08 82.33 10.46 8.359 6.907 4.657 1.631 2.888-.6442.3471-.1782 2.265-18.08-9.937-2.833-7.639 1.543-.7828 1.2-.158" style="fill:#fabd22"/><path d="m72.37 84.97-.7094-.5673 10.74-6.365v.5359l-.254.1506-8.453 5.006c-.5285.2702-.9768.6879-1.323 1.24" style="fill:#c74121"/><path d="m71.66 84.4-1.295-1.035c.03528-.02187 9.297-5.814 10.02-5.824h.02152c.7285 0 1.983.4914 1.99.4946l-10.74 6.365" style="fill:#ed841b"/><path d="m73.7 83.73 8.453-5.006-8.346 4.953c-.03598.01658-.07161.03422-.1069.05221" style="fill:#2a1a15"/><path d="m72.7 85.23-.3281-.2621c.3461-.5524.7945-.9701 1.323-1.24.03528-.01799.07091-.03563.1069-.05221l-.006.0035-.4868.2829c-.6258.5002-.932.9987-.932.9987l.3281.2625c-.0018.0025-.0032.0046-.0049.0071" style="fill:#d4651c"/><path d="m73.89 86.18-1.189-.9507c.0018-.0025.0032-.0046.0049-.0071l1.188.9514c-.0011.0021-.0021.0042-.0035.0063" style="fill:#792b18"/><path d="m74.52 86.68-.6304-.5038c.0014-.0021.0025-.0042.0035-.0063l.6304.5048c-.0011.0021-.0021.0035-.0035.0053" style="fill:#673b2c"/><path d="m76.74 88.46-2.221-1.776c.0014-.0018.0025-.0032.0035-.0053l2.22 1.778c-.000706.0011-.0011.0021-.0018.0028" style="fill:#54231f"/><path d="m79.54 90.7-.000353-.000353.000353.000353m-.000706-.000353-.000353-.000352s.000353 0 .000353.000352m-.000706-.000705m-.000705-.000353m-.000353-.000353h-.000353.000353m-.000705-.000352m-.000353-.000353m-.000353 0-.000353-.000353c.000353 0 .000353 0 .000353.000353m-.000353-.000353-.000353-.000353s.000353 0 .000353.000353m-.000353-.000353-.000352-.000353c0 .000353 0 .000353.000352.000353m-.000352-.000353h-.000353.000353m-.000353 0h.000353m-.000353 0-2.795-2.235c.000705-.000705.0011-.0018.0018-.0028l2.794 2.238" style="fill:#673b2c"/><path d="m84.08 93.76c-.985-.1037-6.051-3.412-6.051-3.412l-9.603-6.586 1.492-.7539.4477.3581v-.000353l1.295 1.035.7094.5673.3281.2621 4.041 3.23 2.795 2.235h.000353l.000352.000353.000706.000706h.000353l.000353.000353s.000352 0 .000352.000352h.000353l.000353.000353c.000353 0 .000353.000353.000705.000353 0 .000353.000353.000353.000353.000353l.000353.000352h.000353l.000353.000353c.04516.03034.4727.3186 4.539 3.061" style="fill:#ec901b"/><path d="m67.54 83.12 18.26 12.58 1.631 2.887-.1782 2.265-.9987.3686-17.67-9.999-2.525-2.376.2745-5.57 1.199-.1584" style="fill:#e55d1b"/><path d="m88.08 98.24-.6442.3471-.1782 2.265.6488-.3895.1736-2.223" style="fill:#f68c1f"/><path d="m71.24 80.55v1.712l9.758-5.999.02187-1.585-9.78 5.872" style="fill:#f68c1f"/><path d="m71.77 79.66 1.637-.4138-1.151.6907-.8269.09843.3408-.3754" style="fill:#f9ad27"/></g><g transform="translate(1.042e-6)"><path d="m61.84 1058c-.3019-.031-.6059-.1454-.9871-.1863-.7862-.084-1.537-.1577-2.311-.3662-.3729-.1005-.7596-.2275-1.023-.5097-1.2-1.286 1.496-2.404 2.298-2.728.4328-.1753.8734-.3291 1.318-.4703.0153.7416.0378 1.594.0378 1.934 0 .087-.002.1408-.005.15-.001 0-.002.01-.002.01.00014.019.0142.048.0418.082-.004.051-.009.1111-.0139.1661-.0241.022-.0489.053-.0584.094-.0207.089-.0203.2568-.0203.2568s.1358.3507.1344.5408c-.001.1905.1288.7811.3398.9247.059.04.1479.075.2504.1037m1.262-.4434c.003-.092.002-.1757.002-.1757l-.1995-.3158c-.104-.2723-.2478-.6089-.2551-.6769-.007-.069-.078-.2622-.1293-.3952.0305-.025.0482-.044.0529-.051.0146-.018.337-1.662.537-2.768.3398-.092.6836-.1831 1.035-.1898.0135-3e-4.0269-3e-4.0402-3e-4.0307 0 .0612 7e-4.0917 0 .01.5058.0179.8967.0179.8967s.0127.01.0359.022c-.00095.067-.002.1461-.002.2004-.01.027-.019.053-.0249.069-.0174.049-.0236.2424-.0211.2681.003.025.2315.17.617.2279.3853.057.9277.082 1.29.1379.1925.03.3893.054.568.054.1582 0 .3025-.019.4173-.072.2446-.1118.2873-.3083.2873-.3083l.003-.3207s-.0378-.1651-.1881-.1781c-.0507-.053-.1104-.08-.1312-.088-.0438-.017-.7234-.1387-.8731-.1958-.0821-.031-.2224-.089-.3322-.1348.00056-.01.001-.01.002-.015.466.2198.9229.2551 1.445.3535.9766.1848 1.657.4692 2.152 1.435.4808.9391.3323 1.942-.8496 2.1-.0763.01-.1524.015-.2282.015-.0708 0-.1414-0-.2118-.012-.4641-.05-.9185-.2501-1.365-.4114-.3362-.1217-.706-.2197-1.06-.2197-.2637 0-.519.054-.7456.1936-.1524.094-.2836.2219-.4465.2964-.5304.2416-1.023.085-1.53.2571" style="fill:#3d3330"/><path d="m64.36 1054s-.0463.1281-.0638.1764c-.0174.049-.0236.2424-.0211.2681.003.025.2315.1701.617.2279.3853.058.9277.082 1.29.138.363.056.7407.094.9853-.018.2446-.1119.2873-.3084.2873-.3084l.003-.3206s-.0378-.1655-.1882-.1782c-.1505-.013-2.909.015-2.909.015" style="fill:#241e1a"/><path d="m65.78 1053s.3423.145.4919.2018c.1497.057.8293.1785.8731.1958.0441.017.2628.1203.202.374-.0609.254-.3103.3157-.8368.3196-.5264 0-.9579-.043-1.492-.1171-.5339-.074-.6922-.2498-.6914-.3175.00084-.068.003-.3264.006-.3669.003-.041 1.447-.2897 1.447-.2897" style="fill:#cc9f43"/><g transform="matrix(.03528 0 0 -.03528 33.98 1130)"><g clip-path="url(#f)"><path d="m950.9 2131-2.711 49.17-10.85-.59 2.711-49.17c.043-.8.617-1.58 1.723-2.14 2.199-1.11 5.633-.93 7.676.41 1.031.67 1.507 1.51 1.453 2.32" style="fill:url(#c)"/></g></g><path d="m67.38 1053c-.0724.047-.1935.054-.2709.014-.0773-.039-.0815-.109-.01-.1562.0722-.047.1935-.054.2711-.014.0773.039.0816.109.009.1559" style="fill:#848287"/><path d="m69.07 1054s-.6923-.1167-.9088 0c-.2168.1168-.3795.2932-.3795.2932l-.4266.3157-.4278.4167-.4066.3115-.4786.3527s-.4301.2576-.498.3729c-.0677.1154.1771.4001.1771.4001l.5012.3238 1.587.4763.9066.081 1.25.2035s1.397.041 1.519-.1898c.1221-.2303.4882-.4067.4882-.4067s.1221-.1119.4748-.1644c.3524-.053.949-.5701.949-.5701l.1626-.3097-.556-.5966-.2981-.014-.9222-.3119-1.261-.5432-.7595-.3782-.6915-.063" style="fill:#191b21"/><path d="m68.49 1055-.0182-.01c-.01.069-.0154.1492.035.1964.0275.026.0661.036.1029.044.1151.026.2311.048.3477.065-.0497 0-.0998.01-.1495.013.0341-0 .0551.038.056.073.00067.034-.009.07.002.1016.024.069.117.073.1807.1076l.0263.023c.0279.05-.07.1034-.0459.1549-.124-.063-.2583-.1055-.3956-.1259-.0384.035.0181.095.0123.1467l-.016.053c-.0139.063.0507.115.1096.1422.0591.027.1294.056.1451.1189.0513.2046-.3808.1012-.4637.077.1243.1739.2742.3295.4436.4604-.108.072-.2161.1439-.3241.2159-.0306.02-.0628.042-.0769.076-.0367.088.0665.1672.1552.2021.1976.078.4069.1263.6187.1425.005.1105.0138.229.0821.3158.0826.1055.2275.1344.3598.1555.1475.024.2953.048.4427.071-.007.041-.0145.081-.0219.1214.3256-.01.6512-.02.9768-.029-.009-.044-.0413-.083-.0825-.1.0737-.073.1513-.1418.2321-.2071-.0854-.042-.1834-.1037-.1827-.1989 7e-4-.061.0462-.1147.1002-.1433.0543-.028.1168-.036.1774-.044.1005-.012.2011-.024.3016-.037-.1072-.1146-.2025-.2402-.2836-.3739.091-.044.1817-.087.2727-.1309-.1379-.1803-.3298-.3186-.5443-.3923.2473-.032.4971-.065.7458-.042.3101.029.6054.1432.8968.2537.0575.022.1192.043.1785.029.0593-.015.1086-.084.0794-.1383l-.0607-.053c-.0875-.051-.1774-.097-.2702-.1387l.0783-.068c-.1178-.074-.1908-.2025-.2984-.291-.1552-.1277-.3679-.1619-.5683-.1538-.0765 0-.1545.011-.2282-.01-.0526-.014-.1005-.043-.1496-.067-.1577-.076-.3334-.1027-.5062-.1288.0307-.029-.0145-.074-.0529-.091-.2078-.091-.4152-.1813-.623-.272-.0324-.014-.0674-.031-.0832-.062l-.0162-.093c-.0187-.094-.1238-.1386-.2148-.1683-.1531-.05-.2953-.1188-.4576-.1199-.1923-0-.3848.013-.5747.043l.0975.045c.0321.015.0669.032.0813.064.0183.041-.004.089-.0347.1221-.1064.1128-.2843.1061-.4384.091.0408.001.0817 0 .1225.01-.0938-.01-.187-.024-.2782-.047" style="fill:#282930"/><g transform="matrix(.03528 0 0 -.03528 33.98 1130)"><g clip-path="url(#e)"><path d="m955.9 2185-1.812 32.76-26.57-1.46 1.804-32.73c.106-1.98 1.52-3.88 4.223-5.25 5.371-2.73 13.79-2.28 18.8 1 2.523 1.65 3.691 3.7 3.554 5.68" style="fill:url(#b)"/></g></g><path d="m67.51 1052c-.1768.1157-.4737.1316-.6634.036-.1895-.096-.2-.2674-.023-.3828.1767-.1157.4736-.1316.6631-.036.1898.096.2001.2674.0233.3828" style="fill:#848287"/><path d="m61.25 1056s-.0941.042-.1146.1316c-.0207.089-.0203.2568-.0203.2568s.1358.3507.1344.5408c-.001.1905.1288.7811.3398.9247.2108.1436.8028.2265 1.046.1323.2432-.094.3999-.1817.4374-.2558.0376-.074.0309-.3919.0309-.3919l-.1997-.3161-1.654-1.022" style="fill:#241e1a"/><path d="m62.46 1055s.171.4215.1827.5312c.0117.1098.3769.9141.361 1.028-.0157.1143-.1155.315-.6292.3337-.5139.018-.8472-.1256-.9223-.3221-.0752-.1965-.1616-.7112-.1757-.8209-.014-.11-.1083-.2942-.102-.3753.006-.081.0337-.3694.0339-.4325.00057-.063 1.252.057 1.252.057" style="fill:#cc9f43"/><path d="m65.92 1053c-.0277.116-.4466.3729-.8472.3958-.156.01-.3084-.023-.4367-.065-.202-.067-.3438-.1591-.3438-.1591s-.0155-.7267-.0288-1.48c-.0131-.7538.0629-1.256.0678-1.319.005-.063-.062-.4854-.0927-.8957-.0251-.3253-.0537-1.032-.0648-1.312-.003-.074-.004-.1178-.004-.1178s-.5818-1.705-.1202-2.04c.4616-.3355 1.209-1.059 1.421-.7317.2125.3274.4618 1.352.5249 1.812.0634.4604.2106 1.701.2297 2.038.0187.3366-.2778 3.76-.305 3.875" style="fill:#3256a2"/><path d="m64.64 1054c-.202-.067-.3438-.1591-.3438-.1591s-.0155-.7267-.0288-1.48c-.001-.06-.002-.1193-.002-.1764.00014-.6551.0648-1.084.0693-1.143.00029-0 .00029-0 .00029-.01 0-.085-.0634-.4921-.093-.8879-.0134-.1739-.0278-.4568-.0401-.7253.0163-.032.0299-.062.0408-.091.0937-.2512.3005-.6385.3881-.9532.00028-4e-4.00028-4e-4.00028-4e-4l.2774.5616.385.1754-.3821.2787s-.0744 1.173-.0448 1.592c.0162.2328-.0619.715-.1137 1.442-.0324.4554.015 1.078-.1133 1.574" style="fill:#263b74"/><path d="m64.67 1048c-.0262.3326-.3114.8456-.4265 1.154-.1151.3083-.5712.8079-.643.9109-.0719.1033-.2906 1.501-.3354 1.96-.0455.4589-.6703 3.674-.6908 3.7-.02.026-.2759.2865-.7356.2501-.1386-.011-.2562-.043-.3531-.084-.2238-.097-.3324-.2423-.3164-.2857.0233-.062-.0426-2.108-.0464-2.978-.004-.871.1483-1.829.1477-2.251-.001-.4219-.4059-2.1-.4332-2.707-.0267-.6075.0958-1.217.0958-1.217s.2334-.075.5657-.1775c.7261-.224 1.924-.5785 2.19-.564.3885.021.8569.5207.9813.7845.1245.2639.0259 1.172-.00039 1.506" style="fill:#3c60ae"/><path d="m61.48 1056c-.2089-.09-.3175-.2233-.3179-.2759 0-0 .00042-.01.002-.01.003-.01.005-.063.005-.1499 0-.4971-.0481-2.087-.0514-2.828-.00014-.012-.00014-.024-.00014-.036-.00015-.8594.1477-1.795.1478-2.212v-0c-.001-.4219-.4059-2.1-.4332-2.707-.003-.06-.004-.1189-.004-.1774-.00014-.3465.0404-.6738.0697-.8654.001.01.002.01.003.013.0547.2152.052.2886.2428.3616.0558.022.1119.043.1681.064-.0361.2498-.122.9176-.0518 1.175.0862.3196.2982 1.452.3263 1.862.028.4102-.1786 1.673-.1843 2.339-.004.5076.0815 2.243.0779 3.45" style="fill:#274081"/><path d="m66.94 1043c-.1134.066-.1956.093-.2576.1002-.1212.012-.1677-.06-.2324-.096l-.0459-.047c-.1665-.2064-.6325-1.012-.7338-1.198-.0827-.1524.4627-.5486.7611-.7497.1092-.074.1851-.1213.1851-.1213s.6515 1.139.7144 1.294c.0624.1545-.0561.6233-.3908.8173" style="fill:#fab597"/><g transform="matrix(.03528 0 0 -.03528 33.98 1130)"><g clip-path="url(#d)"><path d="m956.5 2218-7.102 128.7-31.45-1.74 7.098-128.6c.125-2.33 1.793-4.6 4.996-6.21 6.355-3.22 16.32-2.69 22.26 1.19 2.98 1.95 4.367 4.37 4.203 6.71" style="fill:url(#a)"/></g></g><path d="m67.78 1046c-.0566.012-.1661.046-.3518.1486l-.0245.012c-.542.2317-1.197.593-1.312.7733-.0374.059-.0275.146.0266.2335.0872.1408.291.2787.6055.2469.5045-.053.6823-.3224.7992-.606l.0251-.059c.1964-.4576.2318-.6619.2319-.7497m-1.149 1.962c-.482 0-.8154-.254-.9735-.5087-.1637-.2646-.1726-.5754-.023-.8104.2576-.4057 1.303-.8724 1.544-.9758.2935-.1608.709-.3397.9798-.094.3079.2784.1284.8329-.1109 1.391l-.0222.052c-.086.2088-.3481.8449-1.244.9387-.0514.01-.1014.01-.1498.01" style="fill:#a6ac96"/><path d="m68.07 1046-.00071.001c-.0102.041-.0178.074-.0202.09-.008.064-.0863.061-.0863.061s-.006.027-.0543.087c-.0489.06-.0945.034-.0945.034l-.0757.055s-.0273.042-.1527.08c-.1253.037-.1101-.066-.1101-.066h-.035l-.0565-.01c-.0496-.017-.0339-.176-.0339-.176s-.055-.1235-.0668-.2301c-.0117-.1058-.2249-.4258-.2249-.4258s-.0176-.038-.0818 0c-.0644.043-.2056.2322-.2056.2322s-.1298-.078-.1162-.1179c.0134-.04.1188-.2589.1188-.2589l.0295-.029.0427-.045.0621-.079.019-.067c.0128-.074.0196-.1954.0164-.3355-.005-.1979-.2279-.7387-.3077-.9289-.0808-.1898-.254-.666-.2355-.7486.018-.082.2613-.2698.3492-.4395l.0539-.089.00053-.001c.0406-.061.0879-.1196.1286-.1676.0648-.076.1615-.1168.2617-.1101.0562 0 .1105.013.1328.033.0529.048.1786.3521.2825.8707.1044.5179.1341 1.607.1783 1.736.0442.1298.2038.176.2625.2522.0587.076.0888.4286.0923.4734.002.032-.0446.2001-.0725.3126" style="fill:#fab597"/><path d="m66.4 1043c-.1043-.1295-.3265-.4943-.5026-.7945-.002-.1552-.005-.3016-.008-.4332.0996-.036.2074-.08.2781-.1213.1255-.073.2746-.1927.3557-.2798-.0958.1351-.2256.3083-.304.3701-.1352.1072-.1848.1439-.1848.1439l.4553.8022.3136-.2173h-.00053l-.0539.089c-.0879.1697-.3312.357-.3492.4396" style="fill:#f7916e"/><path d="m66.93 1045c.0108-.062.0173-.157.0173-.2681 0-.022-.00028-.044-.00084-.067-.005-.1979-.2279-.7387-.3077-.9288-.0766-.1803-.2366-.6185-.2369-.7331 0-.01.00039-.011.001-.016.018-.082.2613-.2699.3492-.4396l.0539-.089h.00053-.00053c-.0102.025-.1752.4202-.1814.4989-.002.02.0212.084.0566.1725.1074.2674.3301.7627.3586 1.003.0383.3206.0705.6039.0484.6568-.0145.033-.0944.1214-.1585.211" style="fill:#f7916e"/><path d="m66.61 1041c.0106-.017.0226-.035.0354-.053h.00028s-.0134.02-.0357.053" style="fill:#f7916e"/><path d="m65.64 1042s.362-.1076.526-.2035c.164-.096.3681-.2703.4084-.3486.0401-.079.2454-.3549.2469-.3753.002-.02-.5556-.9755-.7151-1.28-.1597-.3051-.569-.895-.914-1.092-.345-.1972-.283.6576-.2275 1.077.0554.4191.6752 2.223.6752 2.223" style="fill:#f14636"/><path d="m65.52 1045c-.0185.23.1925.756.2016.805.0103.048-.1718.3673-.2429.4089-.0243.014-.097.086-.1861.1785-.1714.1764-.4069.4247-.491.4759-.0362.022-.1323.066-.2777.1132-.373.1228-1.076.2685-1.945.127-.5272-.086-.9351-.2046-1.226-.3182l-.0229-.01c-.359-.1443-.3774-.2727-.3732-.3284.008-.1016.0358-.5415.0424-.7109.003-.084-.026-.1545-.0543-.2148.002-.1743-.005-.3482-.003-.5218.003-.038.006-.072.008-.093.007-.088.0911-.2988.1888-.5016.0977-.2036.005-.6661 0-.9525-.00056-.025-.003-.062-.007-.1129-.0167-.2134-.0629-.6399-.1154-1.112l-.004-.035c-.0225-.2004-.0447-.4018-.0674-.6029-.0591-.5285-.1128-1.022-.1319-1.257-.0489-.5959.1096-.882.2522-1.048.1416-.1655.518-.4558.9471-.8029.4286-.3472.702-.3666.702-.3666s1.342.2283 1.485.2053c.1428-.023.7152.016.9978.1468.2245.2558.5417 1.07.6437 1.581.1024.5112.0406 1.48-.0364 1.67-.0575.1443-.0992.6272-.1312 1.123-.0103.1613-.0203.3239-.0288.4763-.0349.623-.1071 1.447-.1247 1.677" style="fill:#ee2730"/><path d="m65.67 1045c-.0387.265-.0761.5437.0194.7931.0277.073.0668.1428.0737.2198.0107.121-.0573.2335-.1264.3347-.0554.081-.1128.1627-.1746.2403-.0288.036-.0586.071-.0901.1062-.0547.062-.1133.1203-.177.1746-.1767.1506-.3834.2593-.5949.357-.057.027-.1144.053-.172.079-.1302.058-.2614.1164-.4002.146-.1714.036-.3484.027-.5235.027-.087-4e-4-.174 0-.2611 0-.2081 0-.4163.01-.6226-.016-.2219-.028-.4371-.093-.6498-.1616-.2159-.07-.4308-.1443-.6432-.2237-.0613-.023-.1227-.046-.1836-.07-.1909-.073-.1881-.1464-.2428-.3616-.0412-.1633-.0158-.3355.01-.5016.0218-.1408.0287-.2819.0303-.4234.002-.1742-.005-.3482-.003-.5217.00053-.1514.008-.3016.031-.4512.0595-.3895.1197-.7828.0911-1.176-.003-.032.0294-.037.0677-.033.0382 0 .0831.016.1071.018.0872.01.1746.017.2625.025.1779.017.3564.035.5343.053.212.021.3808.026.5152.013.0938-.01.1703-.028.2337-.055.0674-.029.1189-.068.159-.1182.1312-.1654-.0245-.7598.7225-.7584.339 3e-4.6936-.151 1.022-.2286.1345-.032.268-.068.4003-.1073.1047-.032.2105-.086.3201-.085h.0255l.0231.031c.0251.052.0646.096.0901.1478.05.1045.0204.3182.0132.4336-.003.048.003.1083.0478.1245h.0646l.0541.014.0179.045c.012.071.0255.1411.0374.2117v.9222c-.0374.2547-.0721.5087-.1094.763" style="fill:#3c60ae"/><path d="m63.44 1043s-.0807.9197-.0101 1.007c.0374.046.9139.3065.9139.3065l.6289-.5821c.0528-.05.1299-1.076.0949-1.155-.035-.079-1.632.223-1.628.4237" style="fill:#4a70c0"/><path d="m63.63 1043s-.2209.071-.2326.1563c-.0117.085-.007.224.0248.2744.0322.05.8933.121.9143.1006.0212-.021.7501-.4103.7557-.4868.006-.077.0539-.3267.017-.3405-.0372-.014-.4386.036-1.479.296" style="fill:#688dd0"/><path d="m65.33 1042s.3754-2.52-.1838-3.45c-.5594-.9292-1.393-1.161-1.393-1.161l-.3591.2656s.8398.3161 1.268.9324c.5166.7423.2108 3.487.2108 3.487l.4564-.074" style="fill:#4a70c0"/><path d="m65.29 1042c-.004.075-.0716.1446-.1509.1545-.0792.01-.1404-.044-.1364-.1192.004-.076.0717-.145.1509-.1545.0794-.01.1404.044.1364.1192" style="fill:#f5782d"/><path d="m64.83 1039c.1731.7115-.1816.95-.1942 1.121-.0149.1732-.1076 4.642-.1014 4.862.006.2173 1.036.1478 1.241-.2723.0107-.023.0212-.055.0317-.097.0233-.1038.0421-.2618.057-.4541.0759-1.074.004-3.232.004-3.232s-.2174-1.534-.4477-2.052c-.213-.4752-.3904-.6121-.4178-.6311h-.002-.002l-.6017-.2004-.0992-.034-.1057.2046s.4645.076.6376.7895" style="fill:#acd91e"/><path d="m64.38 1038c.0338.025.4939.3633.5826 1.174.005.044.009.088.0126.1323.0153.2022.0226.4241-.0452.6188-.047.1355-.1629.2215-.1648.3768-.008.6106-.0149 1.221-.0214 1.832-.004.4107-.008.8213-.011 1.232-.002.2512-.003.5024-.002.7532.00081.1327.001.2649.007.3972.002.053.001.1108.0154.1623l.0228.049c.0507.065.1246.074.1667.074h.0254c.1498-.01.5066-.085.838-.2533.0233-.1037.0421-.2617.057-.454-.2406.1796-.5785.285-.7725.3252-.004-.3739-.00014-.7478.002-1.122.004-.557.009-1.114.0156-1.671.002-.2265.005-.4522.008-.6784.001-.109.003-.218.004-.3274.00067-.054.001-.1086.002-.1629 7e-4-.053-.004-.1228.0182-.1733l.0537-.077c.0375-.061.0646-.127.0852-.195.0704-.2322.0711-.4841.0536-.7236-.004-.052-.009-.1037-.0146-.1552-.0463-.4138-.1772-.7264-.3207-.9585l-.6017-.2004-.0169.025" style="fill:#8fc0d1"/><path d="m63.73 1043s.1843-2.238-.3748-3.167c-.3492-.5803-.8053-.8886-1.099-1.038-.1765-.09-.4473-.024-.4473-.024l-.1335.085-.1847.1852s.2727-.044.4892.075c.2786.1541.6502.4057.8915.7524.5166.7426.4018 3.205.4018 3.205l.4566-.074" style="fill:#4a70c0"/><path d="m63.68 1043c-.004.076-.0715.1446-.1509.1542-.0794.01-.1404-.043-.1365-.1193.004-.076.0717-.1446.1509-.1545.0794-.01.1404.044.1364.1196" style="fill:#f5782d"/><path d="m61.02 1044c-.017.3059-.0274.5595-.019.6607.0254.3292.6544.3609 1.364.5761.7094.2152 1.522.2787 1.611-.327.0864-.6078.2195-3.044.1898-3.755-.0293-.7116-.2699-.9416-.6288-1.275-.361-.3359-.9521-.4939-1.176-.7747-.2238-.2809 0-.4604 0-.4604s.6375-.5701.0125-.1563c-.0991.067-.2068.1415-.3145.2219-.0949.07-.1921.1432-.287.2173-.4687.3609-.8909.7264-.8909.7264s.2892 2.503.2704 2.607c-.008.059-.0634.718-.1056 1.336-.009.1393-.017.2765-.0254.4032" style="fill:#acd91e"/><path d="m61.02 1044c1.165.6692 2.434.7683 2.503.7726l.1731.013.0169-.1754c.0126-.1139.2829-2.814.2238-3.47-.0634-.701-.5298-1.307-1.281-1.661-.5489-.26-.5508-.745-.5508-.7665h-.0466c-.0949.07-.1921.1432-.287.2173.0569.2448.2238.6353.7304.8738.6334.302 1.026.8001 1.077 1.37.0485.5303-.1437 2.599-.2048 3.224-.399-.053-1.427-.2367-2.328-.798-.009.1394-.017.2766-.0254.4033" style="fill:#8fc0d1"/><path d="m64.72 1047c-.00014 0-.001-7e-4-.004-0 .002-.043.004-.086.005-.1284.1677-.083.3291-.1767.4711-.2981.0637-.054.1222-.1129.177-.1746l.1886.2374c.0217.074.054.1468.0971.2166.004.01.009.014.0139.022l-.9496.1277" style="fill:#263b74"/><path d="m64.72 1047c-.0124-.01-.0569-.033-.1184-.07.0415-.019.0828-.039.1238-.059-.001.043-.003.085-.005.1284" style="fill:#274081"/><path d="m65.67 1047c-.005-.01-.01-.014-.0139-.022-.0431-.07-.0755-.1429-.0971-.2166l.1819.2286-.0708.01" style="fill:#46617b"/><path d="m64.6 1047-.0798-.047c-.2289-.1351-.5712-.3362-.5712-.3362l-.6194-.2339-.7327-.2674-.6184-.2046-.6405-.2215s-.026.2554.0752.3937c.1009.1372-.008.2956-.0403.4356-.0178.079-.0128.1627-.0237.2431l-.0216.092c-.005-0-.0103-0-.0154-.01-.0562-.021-.1123-.042-.1681-.064-.1909-.073-.1881-.1464-.2428-.3616-.001-0-.002-.01-.003-.013-.0134-.058-.0184-.1175-.0184-.1771 0-.1037.0157-.2085.0315-.3112.0218-.1407.0287-.2818.0303-.4233.00028-.024.00042-.049.00042-.073.00011-.128-.003-.2557-.003-.3831 0-.022 0-.043.00028-.065.00053-.1513.008-.3016.031-.4512.0102-.067.0205-.1341.0303-.2011 0 7e-4.00014.001.00014 0 .0106.1373.1262.223.3091.2918.0172.036.031.059.0399.066.0732.1961.7724.557 1.75.8382.9769.2808 1.742.3207 1.876.4466l.314.3948.083.1047c-.0547.062-.1133.1203-.177.1747-.1421.1213-.3035.2151-.4711.298-.041.02-.0823.04-.1238.059m-.0616-2.09c-.1914-.087-.3908-.1785-.578-.2667.006-.022.0103-.045.0139-.069.003-.021.006-.044.009-.069.1519.062.3672.1655.557.2593-.00081.055-.001.1034-.002.145" style="fill:#274081"/><path d="m65.04 1045c-.1505-.065-.3244-.1422-.5053-.2237.00053-.042.001-.09.002-.145.0937.047.1812.091.2516.1267.034.037.0759.052.1116.057.0345.018.0543.028.0543.028l.0859.1566" style="fill:#4b9735"/><path d="m64.9 1045c-.0357-.01-.0776-.021-.1116-.057.045.023.0833.043.1116.057" style="fill:#466daa"/><path d="m61.03 1042c-.005-.049-.0109-.098-.0164-.1482l-.004-.035c-.0225-.2004-.0447-.4018-.0674-.6029.0568-.041.114-.079.1717-.1129.0258.2604.0412.4456.0364.472-.004.026-.0161.1648-.0325.3644-.0316.02-.0612.041-.0881.062" style="fill:#5b0f1c"/><path d="m63.96 1045c-.1534-.072-.2986-.1422-.4248-.2053l.16.012.006-.061c.0525.031.1051.056.1549.07.033.01.0765.026.1269.047-.003.025-.006.048-.009.069-.004.024-.008.047-.0139.069m-2.651-.026c-.1829-.069-.2985-.1545-.3091-.2918 0-7e-4-.00014-.001-.00014-0 .024-.1637.0452-.3277.0575-.4921.0678.3214.1848.6473.2518.786m1.969-.5712c-.1536-.023-.365-.061-.6101-.1217-.1301-.082-.2501-.1562-.3059-.1883.0288-.1228.0496-.2301.0598-.2967.0301-.1948.0327-.4992.0335-.611.2625-.8333-.4293-.8548-.5018-.8548h-.006l-.1206.046c-.1426.027-.4735.1256-.7032.267h-.00057-.006c.0164-.1996.0288-.3386.0325-.3644.005-.027-.0106-.2117-.0364-.472.1979-.1157.4007-.1852.6022-.1852.2744 0 .5465.1287.8013.4455l.0889 1.001.3321-.098-.157.7535-.0152.073-.0107.3108.5212.2907s.00057 7e-4.002 0" style="fill:#4b9735"/><path d="m63.7 1045-.16-.012c-.1714-.085-.3077-.1574-.3812-.2043 0 0-.2587-.1661-.4863-.3094.245.061.4564.099.6101.1217.0204.021.2209.2244.4233.3429l-.006.061" style="fill:#466daa"/><path d="m62.42 1044c-.0102.067-.031.1739-.0598.2966-.0754.3232-.207.7557-.3521.8432-.0918.055-.2302.089-.356.1072-.1486.021-.2804.017-.3051-0-.0445-.038-.2146-.4685-.2978-.8819-.083-.4131-.1939-.9049-.1684-1.229.009-.1066.1075-.2032.2403-.2861h.00057c.2297-.1415.5606-.2396.7032-.2671l.0588-.01c.1086 0 .5693.7726.5693.7726l.00042.044c-.00084.1118-.003.4163-.0335.611" style="fill:#fab597"/><path d="m67.13 1046c-.002.027-.0309.2184-.0507.3119l-.009.037c-.0185.061-.0987.1051-.0987.1051s-.1144.127-.1621.1598c-.0482.032-.1082.046-.1082.046s-.0586.054-.1334.085c-.0752.03-.0732-.051-.0732-.051s-.0249.025-.0721.049l-.0507.011c-.0331-0-.0659-.014-.0888-.022-.0356-.012-.038-.1528-.038-.1528l-.1541-.2201v-3e-4l-.0538-.077s-.1152-.036-.1867-.047c-.0367-.01-.0945.018-.1623.041-.0648.022-.1385.043-.2114.041-.1493-.01-.3667-.09-.5-.2163-.1331-.1256-.8984-.1658-1.876-.4466-.9779-.2812-1.677-.6421-1.75-.8382-.032-.086-.0296-.1753-.001-.2664v-3e-4c.0369-.1168.1169-.2346.2234-.3486.19-.2025.6911-.3538.6911-.3538l.0675.01.0325.016c.1537.088.7922.4978.7922.4978.3631.2314 2.262 1.083 2.37 1.092.1082.01.2807-.055.4279-.08.1468-.025.4424-.033.5704.013.1275.047.3766.2247.4491.2801.0729.056.1582.2981.1559.3298" style="fill:#fab597"/><path d="m66.8 1045 .0427-.045-.0427.045" style="fill:#fddf86"/><path d="m67.54 1046c-.0564 0-.0626-.044-.0624-.065 0-.01.00057-.01.00057-.01h-.035l.1382-.2769-.0817-.5235-.0559-.2357.175.6576-.0221.284.0576.068.083-.071.0763-.3973-.0624-.4177.1097.453-.069.3034h.023c.0325 0 .0893-.013.1024-.1012.0191-.1256.0219-.2794.0219-.2794l-.0425-.38.0881.4378-.016.2029.1034-.07c-.0102.041-.0178.074-.0202.09-.008.059-.0743.061-.0847.061h-.002s-.006.027-.0543.087c-.0258.032-.0506.04-.0684.04-.016 0-.0262-.01-.0262-.01l-.0757.055s-.0273.042-.1527.08h-.0163-.032" style="fill:#f7916e"/><path d="m62.46 1043-.00042-.044s-.4607-.7705-.5693-.7726l-.0588.01.1206-.045h.006c.0725 0 .7642.022.5018.8548" style="fill:#46772d"/><path d="m61.35 1045c-.009-.01-.0227-.031-.0399-.066-.069-.1429-.1911-.4847-.2578-.8156-.0748-.3729-.1724-.8096-.1721-1.13 0-.035.001-.068.004-.1.009-.1065.1075-.2032.2403-.2861h.00057l.7032-.267.0588-.01c.1086 0 .5693.7726.5693.7726l.00042.044c-.01.03-.0207.061-.0325.094 0 0-1.038-.088-1.257-.088-.0216 0-.0351 7e-4-.039 0-.0431.022-.0535.2635-.0278.352.0219.074.1447.9201.2483 1.228v3e-4c-.0282.091-.0306.1807.001.2664" style="fill:#f7916e"/><path d="m66.09 1046-.0538-.077s-.1152-.036-.1867-.047c-.003-7e-4-.007-7e-4-.0112-7e-4-.0367 0-.0899.02-.1512.041-.0614.021-.1308.041-.1998.041-.004 0-.008 0-.0116-4e-4-.1493-0-.3667-.09-.5-.2162h-.00014c-.1337-.126-.8986-.1659-1.876-.4467-.9779-.2811-1.677-.642-1.75-.8382-.032-.086-.0296-.1753-.001-.2663v-4e-4 4e-4c.0194.057.0376.096.0547.1072.0397.027.1211.085.2518.162.2297.1347.6107.327 1.177.5154.8884.2949 2.201.6357 2.227.6508.0258.016.2063.2339.2862.2544.0187 0 .042.01.068.01.0846 0 .1984-.02.2825-.04.0499-.012.129-.039.2035-.039.0892 0 .1718.039.1902.1926" style="fill:#f7916e"/><path d="m66.37 1047 .1228-.059s-.0249.025-.0721.049l-.0507.011" style="fill:#fddf86"/><path d="m66.54 1047c-.0422 0-.0434-.051-.0434-.058v-3e-4l-.0244-.2512-.1885-.3281.2348.3013.0251.2395.1246-.028.0594-.063-.0256-.4068-.3325-.3524.353.3062.0748.3902s.0715-0 .0988-.087c.0266-.084-.0165-.5221-.0165-.5221l-.3583-.2459.42.2339s.0107.4734.0474.4766h.002c.0186 0 .0567-.022.0908-.045l-.009.037c-.0185.061-.0987.1051-.0987.1051s-.1144.127-.1621.1598c-.0482.032-.1082.046-.1082.046s-.0586.054-.1334.085c-.0117 0-.0215.01-.0297.01" style="fill:#f7916e"/><path d="m62.55 1040s-.002 1.414-.0401 1.636c-.0378.2216-.0263 1.113-.0263 1.113s-.6669-.2565-.9252-.2565c-.2584 0-.6923.068-.6923.068l-.2504.041s.0217-.6784.0616-1.532c.0401-.8537-.04-1.284.2633-1.749.3035-.466.8016-.459.9194-.4018.118.057.6974.2462.69 1.081" style="fill:#f14636"/><path d="m64.27 1039c-.082.1796-.2934.3902-.9832.1676-.6898-.2219-1.11-.7081-1.082-.7656.0269-.057.3437-.2176.4747-.5288.1308-.3118.0649-.3397.0834-.574.004-.047.006-.1111.007-.1855.004-.2992-.0101-.749-.0101-.749s.3764-.2878.6788-.563c.3029-.2755.7825.1976.7825.1976l-.0234 2.256s.155.5658.0729.7447" style="fill:#fab597"/><path d="m64.52 1039c-.0947 0-.199-.03-.293-.036-.0424-0-.0911-.017-.1434-.041.0966-.052.15-.1287.1828-.2007.01-.022.0164-.049.0201-.08.1582-0 .2215-.037.2682-.08.0361.043.0703.087.1022.133.0339.049.0644.1058.0915.1707-.0553.1059-.1374.1341-.2285.1341" style="fill:#ee242b"/><path d="m64.75 1039c-.0271-.065-.0576-.1221-.0915-.1708-.032-.046-.0662-.09-.1022-.133.005-0 .0106-.01.0157-.015.0205-.02.0604-.089.106-.1746.0496.084.0951.1856.1316.309-.009.045-.0219.092-.0389.1376-.006.017-.0134.032-.0207.047" style="fill:#42619d"/><path d="m64.81 1039c-.0365-.1235-.082-.2251-.1316-.3091.019-.036.0392-.074.0593-.1132.0333.06.0656.1266.0954.2007-.001.067-.007.1433-.023.2216" style="fill:#aada2d"/><path d="m64.83 1039c-.0298-.074-.062-.1407-.0954-.2007.009-.018.0189-.037.0283-.055l.0515.027s.0176.096.0156.229" style="fill:#889894"/><path d="m64.09 1039c-.1898-.087-.4266-.2924-.5798-.4484-.1911-.195-.3552-.6784-.3619-.6978.0175.031.0382.063.0626.096.1559.2075.685.743.9599.7649h.1146.008c-.004.031-.0102.059-.0201.08-.0328.072-.0863.1485-.1828.2007" style="fill:#f7916e"/><path d="m65.26 1036s.132.2237.0973.665c-.0347.4417-.0827.6467-.1356.774-.053.1274-.2446.7151-.3072.8192-.0626.104-.2802.5626-.3393.6216-.0588.059-.1312.1121-.406.091-.2749-.022-.804-.5574-.9599-.7649-.1561-.2074-.1589-.4025-.1439-.4783.015-.076-.2818-.453-.2675-.6922.0144-.2392.1545-1.444.8213-1.504.6668-.061 1.641.4692 1.641.4692" style="fill:#fab597"/><path d="m62.2 1039c.0269-.057.3437-.2176.4747-.5288.071-.1693.0841-.255.0841-.3355 0-.046-.004-.091-.004-.1485 0-.027.00099-.056.004-.09.004-.047.006-.1111.007-.1856.0175.01.0343.011.05.019.0299.099.0842.2047.1341.2971-.002.01-.131.4261-.2407.6202-.1108.1954-.5084.352-.5084.352" style="fill:#f7916e"/><path d="m62.95 1038c-.0499-.092-.1042-.1983-.1341-.2971.0802.041.134.1313.1341.2967v4e-4" style="fill:#f7916e"/><path d="m63.88 1037s-.1852.2212-.1886.266c-.004.045-.051.1866-.051.1866l-.2089.063c-.0148.015-.12.1425-.1236.1877-.004.045-.0153.1936-.0153.1936l-.1326-.1601s.1404-.5147-.1502-.5105c-.2905 0-.1215.4343-.1215.4343l-.1238.041s-.14-.1288-.1408-.6957c-.00071-.5669-.016-.8901.1228-1.215.1391-.3246.434-.501.854-.5948.42-.094 1.148.1584 1.419.4611.2709.302.3982.8152.4086.9705.0106.1548-.0781.4656-.0781.4656s-.0785-.1425-.1164-.1227c-.0379.02-.2133.1735-.571.1682-.3578-.01-.6875-.1947-.7826-.1386" style="fill:#3d1d21"/><path d="m63.12 1037s-.0894-.2484-.2485-.3016c-.1588-.053-.2529.016-.2282.2212.0247.2049.1871.545.2825.5584.0956.013.1509-.017.1539-.097.003-.081.0776-.2974.0402-.3806" style="fill:#fbc6ae"/><path d="m64.91 1037s-.0315.2286-.0309.3919c.00099.1634-.0271.2699-.0271.2699s-.3378-.04-.5281-.042c-.1905-.001-.3988-.031-.4359.01-.0369.038-.1074.1552-.1074.1552s.2657.3398.366.3616c.1003.021.141.011.141.011s-.1429.2861-.3259.2628c-.1828-.023-.4262-.2878-.5013-.4568-.0751-.1693-.0258-.3627-.0224-.4032.003-.041.2485-.266.2756-.2844l.1016-.2744.1668-.133s.3069.092.4747.1122c.168.02.4534.022.4534.022" style="fill:#fbc6ae"/><path d="m64.74 1037-.0413.5239-.1724.1598c-.002.031.0915.1327.1713.1563.0798.024.1488.053.1509-.015.002-.068.001-.6703.009-.7066.008-.036-.1173-.1182-.1173-.1182" style="fill:#fbc6ae"/></g></g></svg>
