<svg xmlns="http://www.w3.org/2000/svg" width="3052" height="1696" version="1.2" viewBox="0 -100 3052 1796"><path d="M1288 614.7c-4.5 11.6 6.8 35.2-8.7 37.2-49.7 9.2-99 20.1-148.6 29.7-.5-10.4-7.5-31.8 2.2-36 51.6-10.6 103.5-20.1 155.1-30.9m-20.2 7.8c-42.6 6.8-84.5 17.1-127 24.5-15.6-.2-6.6 21.4 5.8 13 39-8.2 78.2-15.7 117.3-23.6 7.2-1 4.8-9 3.9-13.9m1.4 15.9c-44.6 9.2-89.6 17.6-133.9 27.4-9 21.7 21.5 5.2 31.7 5.6 36-7.3 72-14.3 108-21.9 8.7-2.3-3.6-8.7-5.8-11.1m4.5-1.5c8 12 10.8 4.9 9.4-6.2 1.7-17.1-15.6-12.1-9.4 6.2m157-13.8c-1.1-13.6-9.7-42.6 12.5-38.3 35.9-7.8 72-14.5 107.8-22 19-5.6 7 18.7 10.2 29.6 1.2 12.2-8.8.7-15.2 5.5-35.7 7.1-71.5 13.9-107.1 21.7q-4.2 1.3-8.2 3.5m3.1-21.5c18.5-1.2 36.6-6.6 54.9-9.8 15.7-3.6 32-5.6 47.4-10.1 9.3-11-2.5-14.6-11.7-10-30.1 6.4-60.7 11-90.6 18.5zm0 15.2q58.1-10.7 115.8-23.3c2.2-10.4-17.2-9-26.5-5.7-28.6 6-57.3 11.2-85.8 17.5-5.6 1.6-2.9 7.4-3.5 11.5m122-28.1c2.2-10.4 7-32.3-11-19.7-5 8 2.4 17.6 11 19.7m-140.4-1c-.1 11.3 7.4 33-4.2 37.7-13.2 2.8-27 4.4-39.7 8-11.4 9.9-5-20-6.2-26.4-.3-17 26.3-8 37.3-15 4.6.2 9.2-1.4 12.8-4.3m-45.6 41.8c10.7-3.2 35-1.4 36.6-11-7-10.6-31.3-4.6-36.6 3.2zm0-15.8c10.4-1.6 36.8-.3 25.8-17-11 3.8-30.2 0-25.8 17m33.9-4.5c8 12.4 10.1 5.3 8.8-4.8 5-10.7-12.8-13-10.2-2.3zm-97.7 38.1c-1.6-13-5.5-38.5 12.8-38.4 10.4-1.8 19.7-6.6 30.5-5.8 8-2.4 2.9 9 4.3 13.4-.6 8 1.3 16.6-1.2 24.3-11.2-5.9-24.2 2.8-36.1 3.4q-5.3 1.3-10.3 3.1m40.6-12.4c-.3-.1.1.3 0 0m-12.9-10.6c-9 1.7-34.4 6.9-20.2 17 9.4-2.7 28.4-3.2 31.4-8.1-3.1-3.6-6.2-7.9-11.2-8.9m-23.5 3.1c10.4-3 28.4-2.7 24.1-17.7-10.9 1-29.8 1.1-24.1 17.7m29.4-6.3c15.7 24.2 9.1-31.5 0-7.8zm690.6-173.5c18.8 11 43.3 10.3 63.7 18.8 20.5 4.4 39.3 13.7 58.9 20.8q25.6 10.2 50.9 21.1l78.7 38.1c15.5 5.5 29 18.6 44.9 26 41 25.2 80.3 54 113.2 89.3a131 131 0 0 1 31.5 67.4c2.2 6.7 22.7 15.1 4.4 10-14 4.6 19 17.5 10.2 18.9-6-6.1-14.2-3.6-17-5.8-4.7-10-16.7-12.9-25.5-18.4-43-22.8-85.6-46.3-129.8-66.9-80.3-39.9-159.6-82-239.9-122-27.6-14.3-55.6-28-82.8-42.9a193 193 0 0 1 38.6-54.4m437.9 287.8c-54.9-29.7-111-57.1-166.4-85.7-40.7-21-80.9-43-122-62.9-9.2-3-16.9-10.8-26.8-14.4-16.4-8-32.3-17-49-24.1-9.6 3.6-13.6-10.4-23.2-12.3-22-11.5-43.6-23.8-65.6-35.2-5.7 1.8-17.5-1-6.1 6.1 98.6 51 197.8 100.8 296.6 151.3a2711 2711 0 0 1 155 80.4c7 3.4 7.2 4.2 7.5-3.2m-291.4-154.8c27 13.8 53.8 28.3 81 41.6 10.2-10.9 11.7-34.2 18.2-50 6.3-11.8 8.6-24.6-7.3-28a838 838 0 0 0-70.7-33.4c-5.2 9.5-6.5 21-10.1 31.3zm10-75.7c-22.2-9-44.4-18-67-26a522 522 0 0 0-16.4 63.6 749 749 0 0 0 64 32.1c7-23 12.9-46.5 19.4-69.7m184.7 175.8c31.2 17.2 62.9 33.7 95.4 48.3-1.3-32.5-23.1-59.7-45.6-81.4a279 279 0 0 0-32.5-27.1c-10.7 16.8-10.6 40.8-17.3 60.2M2093 536.9c4.2-9.6 5.6-20.7 8.8-31 2-10.2 7-20.2 6.2-30.8-18.1-6.5-36.9-11-55.4-16.2-12.5-4.3-16.6 11.4-23.6 18.2-6.5 8.8-19.2 21.8-1.2 25.9 21.2 12.2 42.4 24.8 65.2 33.9m284.9 75a525 525 0 0 0-86.5-54.5c-5.5 10.6-7.3 23-11.3 34.2l-10.8 36.3c27.8 16.4 57.4 29.6 85.6 45.3 13 3.3 11-22.6 16.7-32.2 2.5-9.6 5.6-19.2 6.3-29.1m-349.7-155.4c-9.4 9.6-30.7 33.2-25 40.7 12 .8 14-12.2 20.3-19.4 3.6-8.2 25-24.6 5.7-21.3zm145.5 120.4c3.4-16.7 11.4-33.5 11.6-50.1-4.3 16.6-10 33-11.6 50.1m193.5 103.3c4-8.8 6-33.1 1.2-13-.7 4.3-4.2 8.9-1.2 13M229.7 509.3c-3.4-12.3 5.7-27.2 6.6-40.4-.3-8.5 7.3-13.8 3.8-2-3.8 13.8-4.4 29.7-10.4 42.4m1059.2 524.9c37-2.7 76.6-.5 108.5 20.3 13.7 9.7 28.6 24.3 23.4 42.8-3.7 19.4-28.7 40.2-46.2 37-13.2-13.7-28.3-25.4-41.3-39.4 9.5-11.8-11.4-11.4-17.1-16.2-13.4-13.4-28-25.7-40.3-40-3.3-5.4 10.2-3 13-4.5m89.1 97a54 54 0 0 0 38.6-35.6c1.8-25-22.9-40-43.2-48a194 194 0 0 0-82.9-8.6c-14.5 4.2 13.8 16.1 17 24.4 7.3 15.8 34 11.2 34.5 29.4-.7 6 7.6 9 10.8 13.8zM579.5 416.1v.1zm.2-22.2c14.1.7 22.1 19 20.7 32.4 1.6 8.1 4.4 32.3-8.3 17.6-11-6.3-11.6-15.6-11.5-26.5-2.1-7-1-15.9-.9-23.5m16.9 39.8c4.1-8-2.7-31.9-8.1-25.4 2.4 9.3-1.8 20 8.1 25.4m15 32.5c-13-13-6-32-9.1-48.6-1.4-16.2 12.4 10.2 18.3 12.8 5.6 7.4 1.3 18.8 3.2 27.6 5.3 12.7-1.7 19.4-10.8 9.3.1-.1-2-1-1.6-1.1m8-31.8c-7.4-13-11.2-3-8.3 6 .6 6 0 12.5 6 15.9 8.9 14-1-20.7 2.3-21.9m701.8 1021.3-86.7 26.1c-2.5 8 .3 19.8-9.6 23.4-11.4 7-19.4-9-25.9-12.7l-92.7 27.9c1.6 16.1-17.8 27.6-28.8 13.3-15-5.8-34.1 8.3-50.8 10.5-14.8 5.2-30.8 7.7-44.9 14.5.6 11-10 21.5-20.9 17.4-7.6-7.3-16-9.5-25.4-4.5l-116.1 35c4.2 12 13 22 19.2 33.3 2 5 14.6 18 6.7 17.4-10.4-15.5-20.1-31.5-30.2-47.2-13.1 0-25.3 6.3-38 9.3-33.3 10-66.8 19.4-99.8 30-9.5-2.2 8.5-5.2 12.5-7 39-12.6 78.8-23 117.7-35.7 7.2-3.9-3-11-4.8-16.2-61-96-121.5-192.3-182.6-288.2-11.8-18.3-22.9-37-35.2-55-11 20.8 21.1 32 20.2 54 .6 19.4 26.8 25.6 33.2 44.2a64 64 0 0 1-5.9 67.7c-7.5 15.9-36.3 16.2-25.3 38.8 6.1 15.4-15.6 28.8-26 16.5-6.3-3.5-3.4-12.2-5.3-18.3-1.7-5.4 1.3-14.1-6-15.5-18.9-7.6-36.1-20.9-42.8-40.8-4.9-14.5-3.6-30.7-20.5-36.5a67 67 0 0 1-24.5-54.3c7.6-16.9-13-28-23.7-37.7-5.8-7-4.7-17.4-7.3-26-8-9.8-26.1-12.7-33.6-25.6-10.3-11-10.5-27.7-16.6-40-11-9.8-21.7-20.7-24.5-35.8 1.2-19-17.8-26.9-21.9-43.8-3.6-8.4-3.8-19.1-12-24.6-21.1-16-29.7-47.5-16.7-71.2 10.2-15.7 27.2-31.5 47.5-29 29.3 0 51 28.2 53.3 55.6a69 69 0 0 1 29.9 49.4 72 72 0 0 1 31.3 53 78 78 0 0 1 28.4 43.9c1 12.5 17.3 7.4 25.4 12.3 7.6.3-9.2-16.9-11-23q-45.6-71.4-90.8-143c-7-12.2-17.3-22-26.4-32.7-13.7-22.8-28.6-48-55-57.6-22.6-9.5-43.7-25.4-54.3-47.9-9.2-22.6-22.6-44.8-20.6-70.2.4-18.2 2.6-42.4-18.5-49.5-15.3-11.7-17-32.4-32-44.5-11.1-15.2-9.6-36.3-.3-52-11.3-12.6-6-32-17.5-45-5-5.4-8-11.7-7.2-19.1-.8-12.9-1-27.1 6.2-38.2 6.1-7.1-14.6-23-19.5-27 .3 8 5.4 19.7-4.9 23.7-7.6 2.7-14.5-4.7-14.4-12-.8-6-1.5-12-8.5-13.2-7.3-5.2-21.1.3-22-12-2.3-5.3-.8-13.8-8.1-14.7-15-5.2-23-19.5-29.7-32.7-15.3-14.4-19-40.7-3.3-56.3a37.4 37.4 0 0 1 56.9 1.1c8.3 8.1 9.3 21.4 19.8 27.6 33-14.5 66-32 102.8-34.3 14.8-3.7 30-3.7 44.5 1.5 17.5 2.5 34.1-9 52-6.6 19 2 37.2-5.9 56.2-4 11.8-4.9 28.2 17.6 23.6-4.1-1.2-16.5-1.8-33-3.9-49.4.4-15.7-3.1-31-3-46.7-1.4-26.2-4-52.4-5.5-78.5-4.2-13 1-21.5 15.6-20.1 37-5 73.6-10.9 110.4-16.6 17-1.7 33.7-5.8 50.7-7.1 12.6 7 27.8 6.8 41.6 10.4 22 4.5 44.2 8.7 66.1 13.5 19.2 12.6 36.4 28.2 55.8 40.6l45.6-6 147 110c2.4-14.1-2-28.3-.9-42.6-.3-26.3.6-52.8-2-79-.5-28.1.9-56.3-2-84.3-3.6-12.3 7.6-12.6 16.3-13 28.6-3.3 57.2-7.4 85.9-10.7 10.5-2.7 20.2-3 29.6 1.6l98.3 16.1c32 20 65.6 37.2 98.7 55.3 18.9 3.6 39.6-13 56.2-1.5 15.4 10.2 6.2-20.2 10-28.7 1-25.6.5-51.4.3-77.1-8.7 1-16-.9-2.3-4.6 6.6-2.3 13.2.8 20.4-1.9 32.5-5.2 65.3-8.2 97.7-13.6 27.3-1.8 54-8.4 81.2-10.7 7.3-4.6 14.9-4 23-2.2 29.8 4.4 59.7 7.1 89.2 12.6 12.6-1.1 27 3.2 20.6 18.7-9.4 21.4 17 24.3 30.8 32 9.8 5.3 20 9.3 30.9 5.5 14.6-2 29.5-5.6 44-6.8 58.8 24.8 117 51 175.8 76 36.6 15.8 73 32.4 110 47.2-4.7 4.4-3.4 12.2-4.3 18.7-2.3 26.7-5.9 53.4-7.3 80.2-1.5 18-4.8 36-4.8 54 21.3-2.4 41.8-11.3 63-15.4a1366 1366 0 0 1 125.7-19.6c22.3-.8 44 6.5 66.4 6.1 16.2 6.3 34.7 6.2 51.6 11.2 13.6 3.9 27.3 7.7 41.6 6.4-.8 9.1 18.4 8 27 13.3 19.7 6.8 38.8 15.3 58.3 22.6 4 1.6 18.5-1 14.3 4.2-6.3 2.3 8.6 5.8 11.9 8.5a947 947 0 0 1 90 49.6c13.2.2 16 14.1 29.2 18.6 35 22 67.7 47.2 98.4 74.7 2.8 3.7 22.3 4 10.4 6.8 1.9 11.9 19.6 22 25.7 34.5a94 94 0 0 1 21.2 54.5c3.2 14-10.8 27.6-7.4 39.9-12 11.9-18.5 28.7-29.7 41.7-14.9 21.9-29.2 44.2-43.7 66.3-17.2 25-35.8 51-39.8 82-.3 9.6-2.5 19.5.2 29.5 7.1 10.7 14.5-14.7 25.3-14.8 16.2-12.6 39.1-4.4 53.7-3 14.5-18 40.2-29.4 62.6-19 14.5 14.1 16.2-12 28.7-15.8 16-10.4 38-14.1 54-1.9 23.4 11.6 31.8 43.5 22.6 66.9a52 52 0 0 1-44 31.4c-.7 14.7-14 40.8-28.8 21.6-6.3-5.8 7.2-35.2-5-26.5-7.5 20.1-32.3 21.6-44 33.5 2 12.9-8.9 29.9-23.2 20.1-10.4-6.8.1-25.4-5.3-28.5-9.8 11.8-23 21-38.3 22.9-6.7 9.6-7.7 40.3-28.2 26.5-13.8-5.5 5.3-40-9.7-32-8 17.3-29.7 22.8-42.8 29.9-.7 10.9-2 25.8-15 27.1-6.3-.7-11-4-15-8.7l1.8-26.5c-7-5.6-7.2 5.4-10.2 9.7a52 52 0 0 1-34 26.6c-18.8.5-3.6 30-22.7 31.7-14.1 2.8-18.9-13-15.8-24.2 4.7-10.3-5.2-14.3-11.5-19.8-7.2 2.7-12 23.1-23.7 27.7-11.2 10.3-34.4 3.6-31 25-3 25.6-39 8.8-26.6-12.1 6.8-12.6-12.2-21.8-14-5.5-8 17.6-31.4 19-42.5 28.4-2.3 8.7 0 20.2-9.1 25.3-7.8 2.4-19.4 1.4-21.4-8.9-.4-14.2 4.6-27.9-11.6-34.6-10.4-9.6-16.2-27.1-32.2-15.8-45.6 13.9-90.3 30.7-136.2 43.7q-22.5 7-45 14.3c-5.1-4-11.7 0-16-5.3-60-42.8-120.2-85.6-179.7-129.2-32-21-62.2-44.7-93.8-66.3-7.9 8.8 2.1 15 8.9 19.4 106.1 78.4 212.9 156 319 234.4-17.7 10.7-40.1 13-59.7 20.3-75.7 22.1-151.1 45.3-226.7 67.9q-115 34.5-230 69.3c-8.5 7-18.1 24.2-32.4 11.6-5.9-2.3-12.7 2.9-19 3.8l-59.7 18.1c-2 17.2-20.9 17.5-30.6 9l-71.7 21.6c-2 18.4-20.8 14.3-31.1 9.5l-76.7 23.4c-.8 6.2-2 12.1-7.5 15.7-3.6 4-12.1 3.8-15.8 0zM227.8 528.1c-15.5 2.7-5.5 29.5-.1 12.2.5-4.8-2-17.3 4-8 3 1.1 8.7-8.1 9.9-11.5-2.2-11.1-10.3 4.6-13.8 7.3m1527 245.8c-13.4-9.3-35.4-29.3-45.6-29.2 12.8 9.9 26.5 18.7 39.9 27.8 8.6 3.4 15.1 12 24.1 17l47.2 33.1c6.2-1.7-9-8.9-13-12.7a1559 1559 0 0 0-52.6-36m-159.1 28.5c-92.2 20.5-184 42.9-276 64.2-57.1 12.8-114.1 26.7-171.3 39.7-6.8 2.6 5.6 9.3 8.2 13 38 35 74.2 71.6 112 106.7 9.2 7 22.2-3 33.4-.8 14.1-.9 28.4.7 42.6 1.4 27 4.3 54.8 13.4 75 32.6 18.8 18.2 15 51.6-6 66.6-6 7.7-30.4 12.8-16.3 22.6 37.2 34.1 72.5 70 109.1 104.8 14.3 0 31.6-19.7 50.4-13.4a58 58 0 0 1 40 25.6c5.8-14.6 12.4-35.7 29.3-44.3a56.5 56.5 0 0 1 62.9-.4c12.5 4.1 15.3 23.8 26.8 25.3 110.4-34.4 221.3-67.3 332-101 7-2.8-7.6-8.1-10.7-12.1l-92.5-69.4c-50.8 13.8-101.2 28.9-152 42.7-8.3 7.2-14.4 3.2-21-3.6l-234.2-191.1c12.5-8 33.8-9.2 49.4-15.4 32.6-9.3 65.8-16.7 98-27.2-29.7-22.2-58.7-45.4-89.1-66.5m-5.9-45.9c-13.9.7-27.4 5.5-41.1 7.9-62.9 13.2-125.4 28.2-188.3 41.3-45.5 9.9-91.2 19.5-136.7 29.8-7.6 6.2-1 21.4-16.5 18.7-72.8 16.6-145.5 33.9-218.4 50.1-7.2 10.1-8.8-5.5-15.5-8.7-8.5-4-18.5 2-27.5 3q-93.8 20.3-187.1 42.1c-17.6 3.7-36 5.8-52.6 12.5-10.7 2-23.1 3.2-34.3 6.5l-23.1 5.3c-.3 8.4 10 13 11.4 20.8-11.1-2.7-15.3-27.9-32.2-16.5-10.7 4.6-35 3.3-37.6 12 4.3 5.3 19.6 26 6.2 15.2-5.4-9.2-12.6-21-24.5-14.5l-129.6 28.8c3.9 13 13.5 23.5 20.1 35.2 29.4 45.6 57.8 91.8 87.5 137.1 11 14.8 27.5 26.6 31 45.9 7.4 21.2 23.4 38.3 34.2 57.8l174.5 275.4c8.8 14 17.4 28.1 26.7 41.8 44.3-13.2 89-25.3 132.5-40.6.7-11 4.3-33.7-13.7-22.1-26.8 8.4-54 15.9-80.6 25.1 5 11.3-3.8 11-7.4 2q-115.4-177.8-231.5-355.2c-35.7-53.9-69.9-108.7-105.7-162.5-5.2-10 11-8.6 17.3-11.4 35-8.3 70.4-15.4 105.3-24.1 71-16.8 142.3-32.8 213.4-49.4 81.4-17.8 162.5-37.5 243.8-56 81.7-19.4 163.8-37 245.4-56.4 65.8-15.6 132-29.5 197.7-45.8 22.7-5 45.6-9.6 68-15.7 13 2.1 20 18.7 32.8 24.5 21.9 16.9 44.6 32.5 66.8 48.8 10.5-4.2 7 3.7 7 5.5 9.4-1.1 8.6 12 19 14.4 8.8 5.7 25.7 23.7 22.4 2 6.6-21.2-24.1-26.6-36-40.2zm189.1-124.6c-11.8 5.2-25.3 6-37.9 9.4-82.6 18.6-165.7 35-248.3 53.8q-92.4 19.5-184.8 39.8l-130 27.6c-.1 4.9 8.9 8.6 12.4 13l28.7 25.3c1.3 10.7-.4 21.5 1.4 32.1 78.2-17.4 156.6-33.8 234.8-51.3 42.3-9.2 84.8-17.7 126.8-28.2 6.6-7 12.1 3 18.2 6q73.7 54.4 147.7 108.1c9.6-3.3-3.8-18.8-12.4-21.8-25-17.3-49-35.7-73.9-53.4-6-6.7-23.7-9-16-20 17.9-12.3 35-26 53.6-37.2 10.9-1 15.8-11.4 23.5-18 17.4-17.8 36.5-33.7 53.7-51.7 10.4.5 23.6-15 21.8-21.7-10.1-10.2-32-14.7-36-27.5 12.3-13.2-13.4-1-20.3-1.4l-127.3 28.9-41-28c-19.9-.8-39 6.7-58.6 9.3-85.6 16.7-170.8 35-256.4 51.9-53.4 11.2-106.9 21.6-160.2 33.1l-32-31.2c-6.1 2-10.2-4.5-16.4-1-18.7 3.9-37.9 5.5-56.3 10.5-6.8 8.8-6.3 9.6-9.5-.1-4.5-4.2-8.6-10.4-15.5-7-40.6 8.9-81.6 16.3-122.3 24.6-10.5 13.9-3.9 40.3-2 58.6 3 7.2-10.3 5-15.1 7.8-16.1 2-15.1-20.2-16-32.1q0-18.3-.4-36.6c-14-15-28.2-30.6-44.3-43.1-22.5 3-44.9 8.4-67.4 12.3L632.1 686c-4.6-4.6-9.7-8.8-9.3-15.9-6.2 3.9-8.6-5.7-12.8-8.8 1.2-10.8-13-7.7-15.2-18.9-3.4-5.3-10.3-7.3-13.9-14 1-7.5-4.2-6.7-9.2-11.4-7.3-5-6.6-14.6-15.2-18.4-2-7.7-7.2-8-11.8-13.2-6.1-3-1.2-13.7-9.4-11.8-8.8-6.2-11.6-17-21.3-22.8-.5-9.7-14.8-15-19.5-23.5-.1-10.5-11-8-13.1-16.5l-3-23.3c-12.7-1.1-28.7 5-14 15.1q74.5 84.8 148.2 170.6c36.7 40.3 70.8 82.8 107.6 123q18.9 21 37.1 42.4c6.2 3 13.4-1.7 20-2.1 330.7-69.1 661-139.1 991.6-208.3-1.9 6.6 6.3 2.7 10 3.8M579.6 416.1c3.5 23.3-22.3-2.5-20.1-14.5-.7-18.5.1 11.4-8-.4-9.6-12.8-24.8-20.6-33.6-33.6-.6-3.7 0-19.1-1.9-8.6-3 10.9-16.2-12.3-22.2-15.5-12-9.7-18.7-21.8-30-32-9-8.2-9 17.2 2.3 10.9 5.3 5.7 9.6 12.8 15.4 17.7 15 11 27.3 26.5 41 39.6 9.5 14.3 24.9 23 34.8 37.3 9 6 11.7 11.1 18.9 19.6 11-2.4 3 21.2 6.4 29 1.5 9.3.5-8.5.8-12.4-2.2-8.4 12-11.3 9.4-.2 6 6 11.5 6.6 13.4 15.3 4.6 2.6 6.5-5.4 7.5 5.3 1.1 7.6 9.5 10.9 14.1 16.4-5.6 10 7.8 36.9-5 36.8-11.4-2.1-12-20-19.6-20.1-7.3-8-15.7-14.8-21.7-23.8q-20.2-19.7-39.4-40.4c0-6.5-1.2-27.8-2-11-.7 16.7-14.2-8.9-20.3-11.4-10.2-15.5-24.8-27.8-38.6-40.1 2.3-9.3-11.5-7.3-14.5-16-7.5-7.7-5.7 22-.9 9.4 11 7.3 19.7 21.6 31 30.8 8.7 9.6 20 18.4 25.8 30.1 8.7 2 12.5 11.4 18.9 17-.8 10.3 14.1 5.2 16.3 17.4 7 11.8 25 17.8 26.2 32-.7 5.3 8.4-3.6 11.7 6 4.2 5.5 12.8 9.4 10.8 17.5 12.1-.7 16.6 13 22.6 21.5 1.6 10.7.6 39.8 3.9 40 0-17.9-1.2-35.8-2.3-53.6-2.4-14.7.6-30-3-44.3-.4-35.5-3.6-70.9-4.4-106.3-7.3-3.4 1 18.9-1.5 26 2 14.9-10.8 4.3-15-1.6-9.3-10.9-21.5-19-29.5-31a69 69 0 0 1-23.8-26.1c-5.8 1.6-9-7.4-13.7-10.4-6-2.3-2.2-14-10.1-9.8l-15.5-13.5c-.3-7.7-1.4-38-2.1-16.6 2 22.5-19-5.6-24.3-11.6-12.6-7.8-20.7-27.4-33.3-30-1.4 8.4.4 12.4 8.2 15 12 10.5 23 20.2 32 33 5 2.7 7.6 6 10.8 11.3 7.6 6.3 16.3 11.5 21.4 20 9.9 9.8 20 18.3 28.9 28.9-1 10.5 2.6 2.4 8.9 5.9 4.3 9.9 17 15.2 13.4 27.6.7 5.8-1.3 12.2 1.5 17.5m35.2 335.8c15.5-.2 30-7.2 45.4-7.6-1.7 5-10 3.2-14.3 5.3l-25.1 5.6c-.8 7.2 7.5 12 11 17.8 9.3 11 18 22.4 28.1 32.7 14.8-.7 28.9-7.6 43.8-7.6-11.6 6.3-33.7 5.9-39.7 13 9.8 9.4 16.4 30.2 33 23.4 9.7-4.4 35.4-2.5 35.8-11.8-27.4-32.6-56.3-63.8-83.8-96.3-23.7-26.5-46.5-53.9-70.3-80.3-31-36.8-63.7-72.2-94.7-109-12.3-14-25.4-27.3-36.4-42.5 4.7-14.9 36-1.8 31.5-21.6-4.5-16.1 3-35.7-7.2-50-3-2.9-14.2-14.2-9.5-4.6 2.5 11.7 0 25.6-15.4 21.9-11 3.5-28 1.1-33.8 10-10.4-7.3-23.8.7-35.4.5-15 .3-5.6 9-.2 15l42.4 50.9c10.6-.7 21-2.8 31.4-4.4 7 7.8-40.3.1-21.2 16.8 11.5 13.1 21.5 27.6 33.9 39.9l24.5-4.7c3.4 7.1-31.2 3-17.5 14.3l38.8 46.7c11.4-1.2 34.4-10.3 38.3-5.1-10.5 3.1-22 3.8-32.1 7.7 2.2 14.6 24.7 31.9 35 46.7 4.7 5.6 13.3-1 19.8-1.2 6.9-1.1 13.8-4.4 20.8-3.7-1 5-11.3 3.5-16.2 5.7-6 2-15.7 1.6-18.7 6.4zm660.4 283.7c-18.2-9.6-30.9-26.9-46.2-40.3a3253 3253 0 0 1-94-91c-8 8.6 16.5 18.8 21.6 27.6l101.1 99.4c3.1 7 10.7 8.3 14.9 14.2a574 574 0 0 0 34.5 33.3c2.6 5.5-11 10.3-.5 14.8 4.8 3.8 12.7.4 17.9 3.2 13.8 14 28.8 27.5 42 42-12 8-30.7 7.3-45.6 9-36.1.3-75.7-7.1-102.2-33.4-12.1-11.8-14.9-32-3.7-45.3 10-15.3 31.2-22.4 44-29.7-16.3 1.7-32.2 11.7-44 23.4-15.4 14.2-17.8 39.7-2.6 55.1 28.2 28.3 70.6 35 109 33.7 17 .4 33.6-4 50-7.9 18.3 12.8 32.6 30.6 49 45.7 25.2 26.2 52.4 50.4 78.2 76 7.7 1.3 10.6-11.7-.2-13.8-26.7-27-54.5-53-81.8-79.4-9.4-12-27.1-22.7-33-33.3 19.8-8.1 40.6-23.2 43.6-46 1.5-25.7-22.8-43.5-44.5-51.5a203 203 0 0 0-97.3-10.5c-3.6.9-8.5 1.3-10.2 4.7m855.4-585.5c5.7-21.6 28.7-32 46.4-42.5 40.6-21.8 85.2-34.4 130-44.4-14.2-3-29-5.8-43.7-4.8-21.8 2-43.5 5.3-65.1 8.3a703 703 0 0 0-122.5 28.6c.1 8.8-9 20.8-5.4 5-16.2-2-39.6 12.3-57.8 18.6-14.4 7.8-23.2 22.4-33.1 35-25.6 37.9-30 85-32.5 129.4 2.7 16.7-2.2 33 1 50.3 1.7 6.3 11 7 16.1 10.9 13 8 30 4 41.7 14.9q107.4 60.9 214.1 122.8l61.4 34.9c2.1 7.3-2.5 19.1 10.4 21.7l47 26.6c16.5 2.7 5.8-6.7-1.6-11.2-26.5-20.8-54-40.1-81.9-58.8-12.3-18.9-36.5-27.2-55.1-39.8-66.4-38.8-136-71.8-203.5-108.6-12-4.7-28.7-24.2-37.8-20 2.2 14.2-6.6 7-4.1-2.6 4.2-6-12.6-17.2-.4-14.3.1-16.4 1-33.6 1.3-49.6-.4-8.3 5.3-18.3 5.8-28.1.4-6.4 4-13.2 2.5-19.3-7.3-8.2 8.8-4.5 6.6-15.1 9.2-22 20-44.3 38.9-59.7 11.1-16 29.4-8.7 45.4-8 26.7 3 52 13.5 77.6 20.8 41.8 17 83.7 33.8 124.7 52.7 13.2 2.8 31.3 22 41.9 15.4 8.6-18 20.7-34.3 37.3-45.7a280 280 0 0 1 149.4-57.2c9.7-.2 21.4-.3 5.3-5.4a623 623 0 0 0-81.3-28.2c-18.6 0-37 5.1-55.2 8.4-45.4 12-92.2 26.8-128.2 58.2-10.4 4.9-14.6 26.1-23.2 26.1a87 87 0 0 1 32.8-38.7c30.6-22.5 67.3-34.7 103.3-45.6 18.7-5.2 38-8 57-11.9-22.9-7-46.9-10-70.3-14.6a442 442 0 0 0-165.9 58c-12.5 6-19.6 19.8-29.3 27.5m-485.7 207.8c-50 8-99 20.5-148.6 30.3-80.2 16.8-160.3 34.3-240.6 50.6-147.2 30.6-294.2 62.3-441.5 92.4-15.5 3.6-31.3 6-46.5 10.6-.4 7.8 14.1.3 20.3 0 54.4-12.1 109.2-22.3 163.5-34.8 59.8-11.9 119.3-25.7 179-37.7 72.4-14.7 144.4-31.3 216.8-46.1 93.7-21.1 187.9-40.5 281.8-60.8 10.8-3.3 39.8-7.6 38.2-9.5-7.6.7-15.4 1.8-22.4 5m-888.7 743.8c24 36.5 47.5 73.4 72.4 109.3 15.7-.5 33-8.8 49-12.8 13.8-4.6 34.5-5.8 25.7-25-4.9-40.8 38.5-78.4 78.2-66.9 22.4 5.1 38.1 24.8 45.7 45.5 12-.5-4.4-25.7 5-34.6 6.6-26 31-46.2 57.8-47.5 19.2.5 39 9.5 49.3 26.4 7.3 4.1 5.6 25.2 17 17.7.7-16.8 1.2-37.5 15.2-50.6a56 56 0 0 1 68.5-15.6c17.4 3.4 21.4 28.6 36 30.6 11-8-3-28.3 8.6-39.3 4.8-17.4 20.7-29 36.5-35.7 10.7-1.5 21.6-6.1 32.2-.8a56 56 0 0 1 31.9 22.4c8.8 13.6 5.5-14.8 11.4-19.7 11.8-32.4 57-49 85.2-26.7 7.4 7.2 13 10.6 14.7-2.8.4-7.2-8.5-10.7-12.4-16.1-31.2-31-62.1-62.3-94.4-92-10.4-13.4-22.4-23.3-39.4-14.2a231 231 0 0 1-41.4 3.3c-19.4-1.2-39-2.6-57.4-9.5-24.2-8.6-52.6-25.2-54.8-53.7-.5-26.3 23.1-45.6 45.7-54.4 20.3-4.5-1-14.9-7.5-22.6-23.3-22.9-45.9-46.6-70-68.5-7.5-9.9-18.6-16.2-26.4-26-6-8.7-14.8-12.3-24.6-7.9L788 990c-87.4 20-174.7 40-261.8 61.1 7.9 16 19.7 30.3 29 45.7 10.7 13.2 17.6 33.4 31.2 42 18.9-5 38-9.3 56.7-14.7 5.2-2.7 9.7-8.7 16-5.1 8.4.7 16.8-3.6 25.3-5 34.8-8 69.3-17.4 104-26 5.8 1.3-3 9.7 6.2 14.4q84.6 107.8 168.7 216c3.3 5.4 10.5 9.8 10.5 16.2-71.3 22.3-143.2 42.4-214.6 64.1l-1.7 1.2zm876.7-511.9c22.3-3.8 43.8-10.9 65.7-16.3 11 6.5 20 17.1 31.9 21.5a208 208 0 0 0-37.9-28.1c2 8-7.7 6.5-12.7 8.8-16.8 4.6-34 8.5-50.3 14.4-7.1-.2-25.6 8.6-8.9 4a34 34 0 0 0 12.2-4.3m-523.3-192.6c55.7-10.5 111.3-22 167-32.7q127.8-25.7 255.6-50.6c14.1-4.2 33-3.8 44-11.4 2-23 2.7-46.2 3.4-69.3 1.2-19.8 1.7-39.6 3-59.5 0-17 2.8-33.6 2.2-50.6-.3-14.2 3.2-28 2-42.3q2-25.2 2.2-50.6c1.6-15.2 8.3-43.8-16-32.8Q1439.8 319 1306.5 341q-99.2 16-198.4 32.3c-69.9 12-140 22.5-210 34.3l-78.6 13c-16 4.8-3 25-6 37.3.5 19.6-1.2 39.3 2.8 58.6 43.1-6.7 86-15.2 129-22 49.9-9 99.8-17.1 149.6-26.5 77.5-13.3 154.9-27.3 232.4-40.4q27.1-5.2 54.4-9.6c6 3.4 13.4 4.9 18.2 10.1-5.3 7.4-1.8 17-2.8 25.5-.1 27.4.3 54.7-.2 82.1-.8 8.9-11.6 6.4-17.7 8.7-46.6 8.8-93.1 18.4-139.8 26.7-44.2 8.9-88.5 17-132.6 26.3-23 7.9-41 25.3-63.2 34.8a423 423 0 0 1-118.2 33q-47.6 8.2-95 18.4c-10.7 10-2.3 32.2-4.2 47 3.8 11.2-2.6 32 4.9 37.3 14.2-1 5.1-17.8 6.4-26.4l-.1-37.1c79.2-16.6 158.9-31.4 238.2-47.4 8.4 2 30.8-13.4 31-2-.8 11.2 1.7 23 1 34.5-.2 2.7 1 5.2 2 7.6M810 417.6c19.8.6 39-5.4 58.6-8 85.9-14 171.9-27.3 257.6-42.2 54.6-8.1 109-17.9 163.6-26.4 87.3-14.8 174.9-28 262.1-43.2 14.6-1.8 29-5.6 43.6-5.6 13.6 5.5 25.6 15.2 40.1 17.9 25.8-2.1 51.3-8.3 77-12 42-6.5 83.8-14.8 125.9-20.9 6-4.4-8.1-6.4-11.8-9.5-6-3.4-13.1-5.2-18.4-9.5.4-6.6 11.5-3.9 16.7-6.2 10.3-.7 21.1-6.4 31.1-2.1 12.8 6.4 24.5 15.2 38.3 19.2l182.1-31.6c1.4-6.3-12.2-7.3-17.1-10.7a24483 24483 0 0 0-156.6-68c-32-13.6-63.5-28.4-95.8-41.3-17.8-.1-36 4-53.4 7.6-7.4 3-14-4-21-6L1643.5 79c13.2-5.2 27.9-5.7 41.5-9.6-7.7-5.4-25.7-4.6-37.3-7.7-27.1-2.5-54.1-10.3-81.4-5.3-31.8 4.8-63.7 9.4-95.6 13-28.5 4.4-57.1 8-85.6 12-.6 5.4 10 6.3 14.2 9.7l293.4 146.1c-15.2 5.1-31.6 5.8-47.4 9L1500.1 270c-18 2.7-35.8 6.8-53.9 8.4-13.7-6.5-26.4-15.3-40.5-20.8-3.7 13 12.1 14.8 20.2 20.9 12.6 10.2 28.2 7.4 42.8 4 83.2-14.5 166.6-28.5 249.8-43.2-96.3-47.8-192.8-95.1-289-143.3q-13-5.7-26-11.9c9.2-6 28.2-2.4 40.7-6.8 35.6-5.9 71.4-9.7 107-15.5 18.8-3.6 37.2-7.1 56.1-1.7 17.3 2.4 34.9 3 51.8 7.4-11.2 3.7-23.4 4.3-34 9.4l116.7 52.6 59.3-9.6c32.7 16.3 66.6 30.1 99.9 45 49.8 21.1 98.7 44.6 148.8 65 13.7 2.5 6.2 5.1-2.4 5.8q-75.8 13.6-151.5 26.8c-12.3-8.8-26.5-14.7-40-21.3-14.4-.4-28.5 4.7-42.8 6.8-10.2 2.7-21.3 2.4-30.9 7.1 11.8 6.6 26 9.4 36.2 18.5-58.5 9.6-117 19.8-175.6 29-10.5 0-18.6-8.2-28-12.3-8.4-6.8-19-6.5-29-3.2q-105.7 17.4-211.4 34-65.3 10.3-130.4 21c-51.4 9.3-103 16.2-154.4 25-78.2 12.5-156.2 25.6-234.3 37.5-17.3 4.2-34.2 8.4-45.5-8.8-19.7-16.8-38.4-35.5-58.7-51.1-17.7 1.4-35.3 5.5-52.9 8-20.3 3.3-40.6 7-61.1 9.6-.6-4-5.4-9-10-12.4-34.5-30.4-67.5-62.4-101.7-93-16.8-14.1-31-31.5-48.8-44.3-11.1-7.6 15-3.5 19.6-6.2 37.2-6 74.2-13.1 111.4-18.6 19.2.9 37.9 7 56.8 10.4 16.5 4 33.4 6.6 49.6 11.4 17.6 12 33.7 26.4 50.8 39.2 9.9 9.4 23.7 2.6 35.5 2 7.2 0 15.3-4.6 21.9-1 49.3 36.5 98.1 73.6 147.2 110.4 16 3.4 32.7-4.2 49-5.6l158.4-26.5c33.4-5.8 67-10.5 100.4-16.8.6-5.4-9.5-7.3-13.3-11.2q-94.1-60-188.6-119.4c-22-13.9-43.6-28.3-66.2-41.2 5.4-7.5 23.3-5.3 34-8.4 14-2.8 28.8-3 42.1-8.2 22.5 8.6 47.1 9.7 70.7 14.5 12 2.4 24.4 3.2 36 6.8l93.7 52c10.4-1.4 17.2-3.2 4.8-8-29.8-16.3-59.3-33.1-89.6-48.5-23-6.2-47-8-70.3-12.4-20.6-3-41.3-9.2-62.2-4.6q-41.8 5.9-83.7 10.7c51.5 34 103.8 67 155.8 100.3 37.4 24 75.1 47.8 112.2 72.3 2.2 5.2-13.5 4.5-19.2 6.2-68.6 11.5-137.4 21.5-206 32.9-15.9 2.3-32 6.7-47.6 7L831.2 241.3l-46.3 6.4c-18.6-13.9-36.5-28.8-56-41.2-28.6-7.2-58-12-86.8-18.5-14-3.4-28.4-6-42.7-2.5-47.4 7.3-94.7 15.1-142.2 21.5-5.6 4.9 7 10.6 10.3 15.4l132.3 124.4c9.4 7.6 16.8 18.7 28.6 22.7L734.7 353c25.2 21.4 49.5 44 75.3 64.6m-232.4 726c7.8 14.6 18.1 29.6 27.4 44.2 45 69.5 90.6 138.5 135.7 208 10.5 8.3.5-9.4-3.4-13.8-51-76.3-100.4-153.7-151.5-230-13.6-4.5 20.5-11.9 1.3-9.1-11.8 6.7-11-9.8-17.8-15.8-15.7-24.6-32.3-48.8-47.6-73.7-1.7-9.4 13.7-8 20.4-10.8 28.7-7 57.5-13.3 86.3-19.7 11-4.7 23.5-5 35.1-8.4 13.2-3.2 26.6-5.5 39.5-9.6-13-.3-25.7 5-38.6 7.1-10.6 2.4-21.4 4.5-31.4 7.9-29.2 5.1-57.8 13.3-86.7 19.6-8 4.4-30.5 2.7-31 10.2a7744 7744 0 0 0 58.9 90.6l1.6 1.7zm814.2-712.7c-14-.2-27.5 4.6-41.3 6.5-44.8 8.2-89.7 15-134.4 23.8-48.9 9-97.9 17-146.7 26.2-78.8 12.7-157 28.7-235.8 41.6-8.9 3-23.7 0-27.6 9.4-.3 17.5 1 35 1.6 52.5-.7 15.7 2.8 31 2 46.7 0 14.5 2.3 28.8 2.6 43.2 7.4 6.6 23.3-4 33.3-3.3 42.5-8.7 85.3-16 127.9-24.3 32.1-8.6 64.3-19 92.4-37.3 15.6-9.5 30.2-22.2 49.2-23.7 63.2-11.5 126-24.6 189.3-36 29-5.6 58.3-11 87.3-17.2q2.4-54 .2-108.1m432 147.2q4.1-40 6.6-80c.6-14.3 3.4-28.3 3.4-42.7 2.8-18.7 1.8-37.9 4.8-56.5 1.2-24.8 4.5-49.6 5.5-74.5.4-13.1 3.4-25.9 3-39 4.4-9.6-6-5.8-11.3-5-62.6 11-125.4 20.6-188 31.6-22.1-2-12.4 22.9-16.6 36.4.4 18.4-1.5 36.6-2 55-.6 19.4-2.5 38.8-2.7 58.2-3.3 16.3.6 33.2-3.3 49.5 0 15.1.1 30.3-2 45.3.5 18.2-1.7 36.2-2.2 54.3 3.5 8.2-8.6 31.5 5.9 27.6 49-11.2 98.2-21.8 147-33.7 15.4-7.5 28.5-19.7 45.5-24 2.3-.5 4.3-1.7 6.4-2.5m121.6 150.1c40.6 27.6 83.2 52.1 124.4 78.9 80.2 50.3 160.9 100 241 150.6 11.4 6.4 19.3-13.2 31-16 20.6-12.7 44.4-19 67.8-24.3-5.3-7.3-20.8-16-31.1-19-8 4.2-2.8-8.1-10.6-8.6a45 45 0 0 0-15.6-7.1c-7.1-11-23.6-8-34.4-5.2-25.3 3.4-48 15.3-70.1 27.5-15.3.5 10.8-14.4 15.1-17.7 18.7-13 41.4-16 63.1-20.8-14.6-13.6-35.8-21.7-53.6-31.2-8.7-8.8-24.3-4-35.5-2.3-23.7 4.2-44.8 16.7-67 24.5-4-9.3 17.3-18.5 26.1-23.1 15.6-6.4 32.2-10 48.2-14.9-12.8-10.4-27.8-18.3-41.5-27.7a45 45 0 0 0-36.6-9.1c-26 2-49.7 13.4-72.6 24.9-11.1 5.4-7.2-5.6.6-7 19.7-12.3 39.8-25 63.2-28.5 6.5-4.8-16.2-13-22.3-17.7-11.5-2.8-18-15.3-30.8-12.7-29.5 1.1-56.8 14.5-82.4 28-3.5-11.6 14.6-14.6 21.2-21.1 16-9.1 33.8-15 52-18-4.2-7-14.2-9.1-20.9-14.1-12.2-6.3-23.2-15.3-36.4-19.2-31.6-.2-60.7 14.2-88.4 27.9-4.6-12.2 20.9-19.7 29-26.9 10.8-8.7 33.6-6.2 40-14.4l-42.1-23.5c-22.3-2.1-43 8.8-63.6 16-6.1 1.4-27.3 17.2-23.3 6 18-14 38-25.7 60.5-31 23.6-3.1-12.3-13.1-19-18.3a47 47 0 0 0-40.6-7.5c-21.8 3.2-39.1 18.6-60.3 23 3.8-14 25.3-22.2 39.3-27.6 5.3-4.1 34-3.8 23.2-11.2-11.7-6.1-22.5-14.1-34.6-19-8.4-3.6-37.8-2.5-33.2 3.7-8.4 6.6-31 5.2-42.7 14.5-7.8 4.2-18.2 11.5-3.8 15.6 33.6 21.4 68 42 101.5 63.3 20.8 14 42.7 26 63.8 39.3zm-77.3-141.5c10 1.9 20-3.3 30-4.8 13.7-3.4 27.7-5.8 41.2-10 6.7-3.4 3.6-12.5 5.4-18.8 4-32.6 9.6-66 27-94.5 10.1-15.6 21.6-31 35.7-42.9 3.8-2.8 14.3-15 11-3.8 16.3-10.5 47.3-8.5 52.9-28.2 1.4-19.5 3.7-39 5.6-58.5 1.3-27.7 5.3-55.3 7.4-82.8-2.4-6-12.2.4-18 0-56 9.3-111.9 19.4-167.9 28.9-10 1-6.2 12.4-7.8 19.3-2 25.1-3 50.4-6 75.4-2 27.7-3.5 55.4-6.4 83-.4 18-3.8 36-3.6 53.9-2.2 14.6-2.4 29.4-4 44.1-.6 13.3-3 26.3-2.5 39.7m654.1 187.1c18.3 4 38.6-3 57.4-5.1q48-10 95.4-22.6c37.7-11 76.1-20.2 112.3-35.8 17-11 17.5-34.6 17.1-52.8-1.4-27.3-21.5-48.4-38-68.4-11.6-19.2-35-12.3-53.9-12.3-21 2-41.9 6.6-62.2 12.1a633 633 0 0 0-137.3 49c-13.3 7.8-42.9 18.5-20.4 34.3 19.7 25.2 33.9 57 30 89.6zM1438 304.4c-10.5-1.9-30.8-27.3-32.7-9.7 3.1 23.6-31.4 13.1-46.1 20-130.8 20.5-261 44.5-391.8 65.8L817.5 266.4l-46.9 5.8c-18-15.1-37.1-29-56-43-15.3-7.2-32.6-7.7-48.8-11.8-18.9-3.5-37.6-8.3-56.6-10.8-35.6 4.6-71.1 10.4-106.6 16.1-8 6.6 10.9 15.6 16 22.3 41.2 36.7 81 74.9 121.8 111.9 8.3 2.3 17-1.9 25.5-2.4l87.3-13.9 74 65.3c29-4.2 58-9.1 87-13.8 82.4-13.3 164.8-26.8 247.3-39.7 71.2-12.2 142.7-23 214.1-34.5q94.5-15.9 189.1-30.6 19.6-2.7 39.1-6.6c14.3 4.3 25.7 17.7 40.7 18.5 45.1-7.1 90.1-15 135-22.7 10-1.4-6.2-6.6-9.5-10-6.7-3.7 4.7-12.3 3.1-20 3 7.4 9.9 3.9 15.9 3q33.3-6.3 66.6-13l42.8 21.2c23.9-1.2 47.2-7.9 71-11.3 16.2-3.7 34.6-5 49.8-9.9-6-5.7-16.2-8.3-24-12.2-65.2-28-129.4-57.8-194.5-85.7-12.1.5-24.4.3-36.6 2.9l-29.4 4.2c-.2-7.6-9-7.5-14.2-10.7L1614 89c3.8-16.3-23.4-10.9-32.9-15.8-22 .2-43.5 6.4-65.3 8.6l-81.3 11c-.8 3.6 9.9 6 13.9 8.8 90 43.8 179.7 88.4 269.5 132.8 15.9-2.7 6.6 17.2 12.8 21.6l-285.3 45.3zM750.6 1390.8q96.8-30.2 193.7-60.2c14.8-5.2-6.4-18-10.6-27-32.5-43.3-67-85.1-99.6-128.4-18.8-23.9-36.6-48.8-56.2-72-6.8-1.5-14.2 2.7-21.2 3.5-28.9 6.7-57.5 14.5-86.1 22.1 1.1 13.4 20.7 34.7 31.4 45.2 6-2 13-1.9 18.1-5.6-5.7-6.8 1.4-11 5-3 6.7 3.8 7.1 3.2 7.6 10.8 29.8 41.9 60.6 83.1 90.7 124.8.4 7.7-15.4 6.6-22.5 9.7-28.8 7.1-57.7 13.8-86.3 21.3-.6 11.6 15.3 27 21.9 39.5q6.6 10 14.1 19.3m1763.3-613.1c-13.1-5.4-28-6.2-41.8-10.4-66.8-14.8-125.5-51.4-185-83.6-59.2-35.2-118.7-70.1-181.1-99.6-43.2-22.3-89.1-39-131.2-63.7-11.5-7-9 21-12.9 29.8-4.7 11 5.6 17.2 13.3 22.6 34.1 19.9 71.2 34.1 106 52.9 45.6 22 88.1 50 131.5 76.1a2496 2496 0 0 0 133.9 81.2c44 25.7 92 45 141.6 56.5q12.8-25.6 23.8-52.1c.3-3.3 3.5-6.3 1.9-9.7m232.7-206.1c-9.1-12.5-23.6-22.3-35.7-32.7-26-20.3-53.9-38-81.5-56-13.6-5.1-27.7-.5-41.6.4-57.7 12.6-115.2 34-161.2 72.1-5.9 9.2-30.2 22.5-20.4 33 24.3 20 48.8 40 69.8 63.5 8.9 3 17.5-10.2 26.5-12.9 60-31.9 125.8-51.1 192.2-63.9q25.8-4.1 51.9-3.5m-786.1 46.5c40.7 31 88.4 50.7 132.9 75.6 50.8 27.2 102.7 52.6 150.8 84.6q49.1 31.7 96.3 66.3c17.7 10.5 34.7 25.2 53.4 32.2 17.2 9.5 36.3 21.8 56.6 26.6 14.5-14.7 21.6-36 32.7-53.5 7.4-9.2-6.9-8.6-12.5-11.3a491 491 0 0 1-103.3-40.2c-46.3-24-90.6-51.7-135-79q-70.8-46.3-145-87.1c-41-21.8-85.4-37-124.1-62.6-7.2 10.7-4.9 31.9-4.5 45.8zm555.1 155c8.1-28.9-.5-60.6-17-85-41-60.3-101-104.7-163.4-140.7a1536 1536 0 0 0-199-90c-33.6-13-68.6-24.5-104.8-25.4-20.9 2-32.7 22.3-43.1 38.2-7.4 13.1-14.4 27-17.1 41.9 12.4 10.8 28.4 17.4 43 25.2a2130 2130 0 0 1 189.5 93.4c76.2 41.4 148.3 91.2 230 121.6 26.5 9.7 54.3 15 81.9 20.8M1447.9 275.5l235.2-38.7c-55-28.5-111-55.6-166.3-83.5q-68-34-136.6-67.2c-8.7-.4-3.2 15.6-4.8 22.8-.4 22.1.9 44.3-2 66.2-2.9 15.9 2.3 28.5 18.9 32.7 18.5 3.8 12.6 21.2 13.1 35.2-.2 18.7 27.6 20.5 40 31zm-202.7 30.1c-24.6-17.3-50.7-32.6-75.8-49-62.6-39.7-124.4-80.4-187-119.9-6.5 3.4-.3 24.4-1 35 .6 30.3-.8 60.7 2 90.8.6 24.4-.9 49 1.4 73.3-2.2 21.9 23.5 6.9 36.1 7.4 43.1-6.8 86.1-14.5 129.3-21.2 31-5 62.3-9.7 93.4-15zM2615 474.9c-17.7-11.8-37-21-55.5-31.8-17.1-8.6-34.2-17.9-52.2-24.3-16.7.3-33.4 3-50 5A284 284 0 0 0 2355 465c-21.3 14.5-43.3 31.4-52.4 56.4.9 9.4 17 10.7 24 16.8 23.9 12.6 46.6 27.5 69.3 42 11.8-4.3 20.4-24.1 33.7-31.9 46.2-37.9 104.5-57.4 162.2-69.8 7.7-2 16.3 1.2 23.2-3.7m-491.6 706.8c-18.2 2.2-35.2 9.7-52.9 14.4-80.5 24.7-161.3 48.9-241.9 73.5-28.4 8-56.1 18.3-85 24.5l-35.1 10.9a94 94 0 0 1-40.8 28.3c-5.7 16.4 9 13.8 18.6 9.4 82.3-25.2 165-49.1 247.2-74.5q120.4-36.2 240.8-72.1c21.4-4.5-11.9-16.3-18-24.3-98.3-71.9-196.2-144.2-294.6-215.7-5.1 6-8 29.4 6.9 34 26.8 19 52.7 39.5 79.6 58.5 9.2 3.8 15.8 14 25.4 19.4 47.9 35.1 94.9 71.5 143.2 106 6 1.2 18.7 1.1 7 7.4zM730.1 357.2c-32.1 4-64 9.8-96 14.5-8.5 1-5.8 11.8-6.3 18-.6 20 2.4 39.9 2.4 60 2.5 18 1 36.4 3.4 54.5.2 20.2 2.2 40.2 2.8 60.3 3.5 9.1-4.8 33.1 11.3 26.4 29.6-4.7 59-11 88.5-16.5 7.8-13.3-.5-31.3 1.3-46.5-.4-16.5.6-33-2.1-49.4 1.7-19.3-.4-38.9-.8-58.4q-1.8-30-3.4-60.1ZM314.9 887c8.4 18.5 27.8 29 45.5 37 24.8 10 41.8 32 53.8 55 8.3 9.4 15.9 21.6 26.2 28.5 17.3-2.3 34.3-7.5 51.5-10.9l90-20.2-71.7-98c-18.7 1.2-36.9 7.3-55.3 10.6l-103.5 22c-6.3-4 9.2-4.2 13-5.9l142.4-30.4c-8.9-12.2-16.7-33.5-35-23.3-51.7 11.5-103.8 22.3-155.3 34.5Zm180.8-406.9c11 2.1 9.4 13.6 9.9 22 1.2 10.9-1.4 22.4 2 32.8 4 2.3.9-11.4 1.8-16 1.2-8.1-3.1-16.2-.8-24.2 4.4-2 10.4 7.2 9.2 12.3.5 13.5-1 27.2 1.4 40.4 3.5 1-1.3-22.5.5-31.2-.3-15.1 12 2.5 9.6 9.5 1.7 12.3-1 25 1.8 37.1 5.2 1.7 1.3-11 2.5-15.6-2-8.8.8-32.9 8-14.6.7 14.7 3 29.2 2.5 44 6.1 9.6 2.8-17.2 2.1-22.6-5.2-12 5.4-19.3 9.8-8-.5 14 .6 28 1.7 41.9-1.2 8.3 6.8 13 3.2 1.5-.2-10-5-29.3 2.9-33.8 5.9 3.8 7.2 9.4 6.2 16v37c9 11 2.6-8.5 3.7-14.7 1-6.6-4.3-32.5 5.1-20 5.4 3.5 5 9.3 5 15 .6 11.7-1.2 23.7 1.8 35 3.9 6.6 1.2-9.4 2-13.6v-26.1c17.7 10.6 7.1 36.4 10.5 53.7 6.5 17.4 6-12.4 5.4-19-2.8-11.3-2-19.5 7.7-8.7 6.4 12.5.3 30.5 3.4 45 1.1 5.2 1.2-11 1-14.8.7-7.1-3.8-30 6.8-17.8 8.7 13.3 3.8 32.8 5.5 48.5 5.3 6 .5-17.2 1.6-23.3 0-18 .3-36-2.1-54 .5-7-7.7-10.8-11.4-16.3-37.2-40.8-75.8-80.3-113.2-120.9-7.3-3.9-22.6-32-21-11.2-.7 19 2.6 37.7 2.5 56.7 3.4-9-2.5-30.6 4.4-31.8 8.7 4 6.1 13.3 5.4 20.6 1.4 7.8 1.9 31.1 3.1 28.4 1.4-13.2-1.4-26-1.5-39.2m1067.7 434.3 221 181c48.5-12.7 96.7-26.5 145.2-39.2 3.4-5.6-8.3-8.6-11.8-12.9l-36.1-27a7416 7416 0 0 0-91.9 24.7c-33.9-29.6-68.5-58.5-102.3-88.2-8.3-7.5-17.9-13.9-25.3-22 5.1-4.7 26-4.8 36-10 9.6-5.1 37.5-5.7 37.5-13.8l-37.7-28.3c-43.9 11.6-88.2 22-131.7 34.6zM969.2 890c-10.2-10.3-22.8-21.4-29.8-33-1-14.2 1-28.5-1.3-42.5-20.9 1.3-41.2 7.9-61.8 11.5-35.7 8-71.7 14.6-107 23.5-3.8 5.6-3.3 13.1-9.3 3.8l-21.6-24.5c-16.7 4.1-34 6.3-50.3 11.5l78.6 94.9zm1820.7-176.4c-57.7 23.8-118.8 37.7-179.2 52.5a462 462 0 0 1-87.8 13c-8.2 5.9-9.6 21.7-16 31-2.3 10.7-23.5 32-4 32.8 33.3 2.5 66.6-2 99.5-6.7a636 636 0 0 0 126-29.7zM1035 149.7c24.1 17.9 50.4 32.7 75.6 49 44.7 28.2 89 57 134 84.5 1.6-26.8-3-53.6-1-80.4 4.4-3.4 18-1.8 6.3-7.4-20.6-11.9-40.3-25.3-61.6-35.8-19.9-5.9-40.9-6.6-61.1-11.1-21.5-3.3-43.2-9.6-64.9-3.8zM625.9 1203.3c26.2 39.8 52 79.8 78.4 119.5 15.8 2.7 34.3-8.5 51-10.8 16-4.6 32.6-8 48.2-13.4 2.4-5.6-6.2-11.1-8.6-16.7q-33.8-48.5-68-96.7c-10-16.3-29-.3-11.2 10.9 3.8 5.6 9.5 10.5 12.3 16.4v77.7c7 8.8-6.5 9.5-12 12.6-8.8-2.2-6.8-15.5-6.5-23.3l-.2-56.4c-10.6-10.8-15.9-35.8-33-34-20.2-4.3-5.5 21.7-14.7 25.4-6 0-10.2 7.8-12.3-2-2-9-.8-20.3-13.5-13.6q-5.4 1.2-9.9 4.4m357.4 327.3c17.7-.6 28.9-17.3 36.7-31.3 8.6-20 6.2-44.9-5.5-63-16.2-29.6-61.4-36.8-85.4-12.8-18 15.7-27 42.3-17.5 65 5.7 16.7 18.5 37.1 36.5 39.3 6.9-8.7 5.1 12.8 17.4 6.7 12.8 5 10-14.7 17.8-3.9m629.1-894.4c4.5-8.6 1.6-19 2.6-28.4 1.6-21 1.2-42 3.3-63q.5-24.8 2.6-49.3c-.5-20.2 3-40.1 2.1-60.3 3.5-21.6.5-43.6 3.8-65.2-1.4-19.4 3.9-38.7 1.4-58-10.1-2.5-32.7-25-33.1-6.3-.2 15.4-2.8 30.6-2 46.1-1.2 12-2.3 24-1.9 36.2-.1 17-2.5 33.9-2.1 51-3 19.4-.7 39.3-3.7 58.7.5 22.2-3 44.2-2.3 66.5-2.2 13.5-1.2 27.3-2.6 40.9-7.4 4.2-9.2 5.4.4 10.8 10.1 7.3 20.3 14.7 31.5 20.3m-1127 208.6c-12.3-18-25.5-35.4-38.7-52.8-27.8 3.6-55 11-82.5 16.4-18.3-3.3-7.2 25.3-26.7 21.4a15 15 0 0 1-8.7-14.2c-1.5-5.5 0-13.5-7.6-14-7.6-3.1-14.8-7.9-23.3-5.9-4.8 1.3-11.4-12.1-9.8-1.5-.5 20.5-.3 41.7 9.7 60.3 6.1 8.3 6.9 29.2 19.4 27.4zm1398.3-575.4c-12.5-8-38.5-27.2-34.5.9 4.2 7.4 1.8 15.5 1.6 23.7-1 15.5-1.3 31.1-3.6 46.4-2.1 26.5-3.6 53-6 79.5-.4 12.5-3.4 24.7-3 37.3-3 16.2-1.8 33-4 49.2-2 14.4-2 29-3.9 43.5-6.6 19.4 17.4 25.2 30.3 31.6 9.7-2.8 2.5-28 6-38.6q4.2-42.6 6.5-85.6a500 500 0 0 0 3.8-49.6c2.6-13.8 1.6-27.9 4-41.7 1.3-21.2 3.2-42.3 4.3-63.5 1.8-10.6 3.7-23.3-1.5-33.1m78.7 526.4c-20.8 19.7-43 37.8-63.9 57.2-20.3 11.2 13.2 20.6 21.3 29.8 15.4 9.4 28.5-18.3 41.4-26.7 14 6.1 25.4 17.2 38 25.8 6.9 10.7-15.7 21.2-23.2 30-11.6 11 14.4 18 21.7 24.7 6.4-.1 10.6-7.7 16-11 21-18 42.8-35.5 63.4-54 .3-6.6-12-10.1-17.5-15-30.4-19.2-60-39.7-90.5-58.7l-3-1.3zm-854.7 699.3c20.2-3 33.4-22.7 38.5-41 6.3-29.5-6.7-66-37.2-76a53 53 0 0 0-60.4 18.1c-22.4 25.9-14.7 68.4 10.9 89 6 7.2 15 8.8 18.8 3.2-.5 12.8 20.9 12.4 24 3.2.7-4.7 3.8 2.7 5.4 3.5m-581.8-124c3.6 26.1 20.2 51.5 46.2 59.6 4.1-13.9 4.7 5 12.7 2.3 9 3 15.3-4.5 17.7-8.2 12 10 28-13.6 33-24 14-29.5-.5-69.9-30.2-83.5-12.5-4.2-26-6.8-38.9-2.2a61 61 0 0 0-39.5 51.7l-.5 2zm2196-556.8c-18 2.6-35.1 10.1-53 13.5a785 785 0 0 1-116.3 18c-17.6.6-35.2 3.2-52.8 0-11-3.8-13.1 7.9-17.6 14.6l-28 50.2c22-.9 44.8-7.3 66.9-11.3 44.5-10.4 89.2-20.4 133.6-31.6 16.8-7.4 42.4-5.1 50-25.2 5-9.8 13.1-18 17.2-28.2m-294.9 153c54.7-11.3 107.8-28.7 162.1-41.1 31.5-7.6 62.6-16.9 94.2-24-1.2-13.3 12.5-35.5 9.5-41.5a2783 2783 0 0 1-175 43.3c-22.2 5-44.8 8.4-67.3 12.6-7.5 13.7-18.7 25.3-22.1 41a18 18 0 0 0-1.4 9.7m-1212.3 378.6a57 57 0 0 0-47 32.5c-13.2 22.2-4.2 50.8 11.8 68.9 6.3 9.9 21.6 14.7 26.5 10.4.7 10.9 18.2 9.6 22.9 3.4 8 1 26.4-4.4 31.4-17.8a56 56 0 0 0 10.2-44.2c-2.6-25.4-22.5-49.3-48.7-51.8zm160-27.9c-14.6-10-32.8-16.6-50.4-10.6-27.7 9.1-46.9 41-37.5 69.5a62 62 0 0 0 33.1 41.9c5.3-7.3 7.5-3.7 8.6 3.6 8.7 4.2 20-1.6 23-3.7 12.7 6.5 25.8-9.7 33.2-19.4 9.5-14 11.1-33 7-49.1-3-8.2-4.4-16.9-10.8-23.5-2-2.8-4.4-6-6.2-8.7m738.5-140.3c-42.3-32.2-85.7-63-127.8-95.3a8034 8034 0 0 0-124.9-92.2c-10.9-3.4 10.8 12.2 15 14.9 5.3 8 16.3 11.2 23.8 18.2 13.4 10.2 27.3 19.7 40.2 30.5 1.4 5.3-15.7 8-2.3 6.6 8.4-3.4 15 2 21.3 7.1 33.5 24.7 66 50.8 100.2 74.6 6.4 7.8-19.3 8.7-26.4 13-55.6 16.8-111.6 32.1-166.8 50.2-48 14.3-96.1 28.7-144.3 42.4-19.4 8 7.2 8 14.2 2.8 58.6-20 118.5-35.7 177.7-54 51.8-15.8 103.8-30.8 155.6-46.8l32.1 24.5c-4.5 7-14.8 6.4-22 9.7-120.2 36-240.1 72.7-360.4 108.3-11.6 5.2-3.6 9.7 4.3 5 117.2-35.4 234-72.4 351.4-107 13-4.2 26.4-7.4 39.1-12.5m-650.6 209.2a48 48 0 0 0 33.8-25c9-15.2 8.8-34.7 4.3-51.2a54 54 0 0 0-42.5-36.7c-27.4-5.7-54.2 17-60.3 42.8a63 63 0 0 0 30.8 65.7c5.2-5.5 8.2-8.4 7.1 1.6 3.7 4.5 12.8 4 18 3.7 4.2-3.7 5-7.9 8.8-.9M969.1 377.3q157.6-26 314.7-54c2.9-13.6-14.8-7.3-22.7-6.3q-94.5 16.5-189.3 31.5c-33.9 6-67.7 12.2-101.8 16.7L818.4 251.1l-48.2 6.6-58.8-46.2c-32.6-6.7-65-14.7-97.8-20.3-21 .3-41.7 6.4-62.6 8.6l-68.1 11.7c9.8 15.3 29.1 6 43.4 4.7 28.3-4.4 56.6-9.3 85-12.4a3601 3601 0 0 1 97.8 19.4c17.7 7 31 21.7 46.8 32 7 3.6 12.4 12.3 20.6 12.6 14.7.7 29.8-5.1 44.2-3.6zm-620 281.3c-12.3-17.6-25.5-34.6-37.9-52.1-11.3 1.9-40.1 0-27.7 17.7 1.1 11.4-9.8 23.2 6.8 26.2 18 10 20.2 32.5 35.3 45.2 5.8 20.2 32.7 15.8 41.4 35.2 16 20.5 10.4 53-11.8 66.8-8.2 2.3-5.6 13.3 3 8.9l84.4-17.8c-6.8-14.5-19-26.9-28-40.5-9.7-8.5-14.3-29.6-27.4-30.9-8 3.2-36.8 6.9-14.9 0 12.3-.3 20.1-5.4 9.4-14.4-10.8-13-18.7-28.4-30.9-40.3-7.6 1.2-15 3.6-22.6 4-.3-5.3 16.6-3.7 20.9-8M1604 1262.2a68 68 0 0 0 20.4 51.6c5.3 12 18.3-.3 19.8 10.3 10 8.8 19-3.5 27.3 1 5.6.2 11.1-4 16.7-5.4 11.6-11.4 23.7-24.6 22.8-42.1 3.5-27.3-15.3-55.7-43-60.1-24-7-49.2 10.6-59.6 31.5-2 4.2-3 8.8-4.4 13.2m-40.6 95c21.3-3.9 36.3-24.2 39.3-44.7 4.3-28.2-12.2-60.8-41.8-66.5-28.4-8.1-57.1 15.5-63.4 42.5 2.1 15 13.8 28.1 11.9 44.3 2 8.4 17.7 26.4 25.2 16.2 1.6 6.5 12.8 14.3 21.4 8.6 3.5-6 3.1-6 7.4-.4M1297.6 320.7c34.3-4 68.5-9.6 102.5-15.6 1.8-27 .4-54.2.9-81.2 0-9.6-11.7-2.2-17.7-3l-77.3 12.3c-13.5 6.9-3.5 26.7-7.1 39-2.4 16-1.4 32.4-1.3 48.5M636.7 680.5c12.2.4 24.8-4.4 37.2-6 30-6 60.5-11.4 90.2-17.9.4-6.1-9-10.5-12.6-15.6-10.6-10.9-21.7-21.3-31.9-32.5-.9-12.6 4.8-34.3-14.5-24.8-24.5 4.3-48.9 8.6-73 14.3.1 12.7 2.2 25.3 1.5 38.1.8 14.8-1.8 30.2 3.1 44.4m164.1-146.3q-29.7-28.6-60.5-55.8c2 18.8.9 38 1.8 56.8 3.2 19.3-.2 39.1 3 58.5-2.3 16.6 2.3 30.6 16 40.5 15 15.2 29.2 31.5 46.2 44.6.3-21.3-3.2-42.4-2.1-63.7-3.8-18.2 0-37-3.3-55.3q-.4-12.7-1.1-25.6m1617.4 474.7c-30.5-12.7-72 13.7-68 47.9a52 52 0 0 0 27.4 43.6c8.2-10.5 5.4 10.1 16.6 6.7 9.3-1.5 11.6-3.9 19.2-1 26.4-4 45-32.5 38.5-58.4-2.1-14.8-12-30-26.4-35-4 2.4-5.1-2-7.3-3.8M1551.9 917l230 187.6c38.8-11.4 78.2-21.3 116.6-33.6-3.5-2.6-10.5 1.8-15.4 2.4-32.2 8.6-64.2 17.8-96.5 26.1-7 1.8-11.2-6.8-17-10-52.4-42.4-104-85.8-156.6-128.1l-54.8-44.8c-2-1-4.4-.5-6.3.4M217.1 533c22.4-19.3 42-41.8 66-59.3 18-11.4 35.7-24.7 57.1-29.2 19.4-5.9 39-12 59.6-11a263 263 0 0 1-56.3-13.3c-16.4-5-33-10-50.5-7.9a243 243 0 0 0-77.2 21c-12.7 21.7 22.2 21 35.1 16.8 10.5-2 31.4-10.3 33.5 6-11.3-14.2-17.4-.4-14.4 11.4 1.8 10-5.4 15.9-4.1 2.6 2.6-12.6-1.5-25.7-16.4-16.7-10.9 5-30.4-5.3-31.4 11.5-6.5 10.1.4 19.2 0 30 6 15.4-21 29.3-1 38.1m2024.4 441.4a6011 6011 0 0 0-90 70.7c19.5 13.8 38.8 28 58.9 40.8l88.8-70.8c-4.5-10.3-22-15.7-31.8-23.9q-13-8.2-25.9-16.8m-976.4 70.6a77 77 0 0 0-37.2 17c-14 9.9-19.8 30.5-8.7 44.6 16.1 22 44.4 30.2 70.3 33.9 22.8 4 47 3.7 69.2-3-12.9-13-25-31.2-43-36.3-15 .7-19.7-11.5-17.2-22.2zm1323.3 16.1c26.4-1.8 44.8-30 40.8-55.1-2-25.7-26-46.3-51.6-44.5-17.6 1.5-35.5 12.3-41.6 29-8 16 13.2 32 8.8 50-.7 12.8 15.8 11.2 19 15 4 11.8 19 .9 23.2 3.7zm-145.8-43.8c14 15 15.7 37.8 17.2 55 5 7.4 13.2-4.1 11.6 7.9 16 4.3 34.3 5.5 48.9-5.1 28.3-21 23.6-71-8.6-85.8-25.8-14.3-59 1.5-69.1 28M510.1 1180.1c4.2-14.8-5.5-30.3-15.4-40.8-19.6-20.7-56.6-19-73.4 4.3a52 52 0 0 0-6.7 55.4c6 13.1 23 35.3 38 27.9 10.3 14.1 9.7-15 18.2-21.6a66 66 0 0 1 39.3-25.2m91.2 130.4c-1.3-30.6-27.4-59.6-59-58.8-30.2-.6-55 28.9-55.4 57.8 3 20.3 13.8 41.6 32.9 51 8.6-5.6 9-27.6 21.8-34.6a56 56 0 0 1 41.7-17.2c6-1.2 11.9 2.6 18 1.8m2110.1-331.2a51 51 0 0 0-47.4-51 52 52 0 0 0-48.3 32.3c-1 17 21.6 28.2 18.6 47.7-1.3 7.8 3.3 16 10.9 9.7-1.4 15 17.1 6.8 24 8.2 15.8 2.4 31.9-12.4 38-26.8a61 61 0 0 0 4.2-20.1m-2224.9 305c12.8-23.8 39.5-42.2 67.4-35.8 11.6 1.2 28.3 15 23.9-6.5a61 61 0 0 0-36.8-54.3c-16.7-5.9-36.6-5.5-51.2 5.5-15.8 12-27.8 32.1-25 52.3 2.8 14.7 9 30 21.7 38.8m2120-322.8c11.9-15.6 24.6-33.9 46.2-37 12.4-6 36.7 12.2 31.6-10.3-1.7-16.2-26 1.4-37.6 1.3-35.2 8.9-70 18.7-105.4 26.9a1744 1744 0 0 1-114.9 28.2c-4.9 11.7-11.2 33 4.5 39 13.3 8.4 15-16.7 27.4-19.8a54 54 0 0 1 59.4-2.5c18.7 9 21.4-23.4 39.7-25.2 10.8-4.9 23-7.7 34.5-3.7zM761.9 936.3c-25-33-52.6-63.8-78.8-95.7l-56 11.8c13.1 19.9 29.5 37.9 43.8 57 10.9 12.8 20 27.6 31.8 39.2 9 .2 18.4-3.8 27.5-5.2zm1981.3 66.4c17.9 9 37.8-11 43.5-26.8a55 55 0 0 0-5.8-47.4c-16.3-26.2-58-27.7-76.4-3.1-15.6 10.9 3.8 20.1 7.7 32 5.7 12.3 5 26.3 2.7 39.2 4.5 3.7 10.9-4.4 8.5 5.7 5 2.7 16.8 7.5 19.8.4M743.5 469.5c5.9-.5 12.4-3.3 17.8-2.3 16 14.8 31.7 30.3 48 44.6 3.8-6.8-1-20.3.3-30.3-.4-20.5.6-41.7-3.2-61.6q-33.3-29.3-67-58c-7.8 5.8-1.4 23.6-1.8 34.5-.4 21 2.9 41.6 2.4 62.6-.2 3.7.5 7.8 3.5 10.5m1410 448.4c-16.7-12.5-35-22.8-52.3-34.5-9-8.1-16 8.3-23.5 11.8-20 17.2-40.8 33.5-60.4 51.2 4.4 13 26.7 21.7 39.2 31 14.3-8.8 26.6-29.3 41.7-31.5 5 2 10.3 9.8 15 7.8 13.2-11.3 27.2-22 39.9-33.8l.3-.6zM966.7 817.4c58-12.9 116.5-24 174.8-35.7l30.2-6c11.9 11 31.3 21.2 34 37.3-.5 13.7 8 34-12.8 32.8-62.7 14.4-125.6 28.3-188.3 42.8-7.5-6-1.3-26.6-6.4-35.3-9.8-1-14 8.3-12.4 17 .6 10.4-1.2 21 1.4 31.2 74.8-17.4 149.7-34.3 224.4-52.1 6.7-12 4.5-35 1.3-49l-41.4-36.4-223.3 47c-2.7 5.4 7 9.3 9.8 13.9 9.4 8.4 16.8 19.4 27.8 25.8 22.8-1-11.7-21.6-17.1-31.1zm1896.8 137.7c11.4-7.7 5 11.5 19 8 9.3-4.3 18.2 3.8 28.1-3.8a49 49 0 0 0 24-45.4c1.5-27.6-26.4-52-53.5-45.6-14.3 2.6-33.7 15.1-32.8 29.9 10.4 14.6 20 32.4 14.9 50.9l-.1 2.8zm-1857.1-70.7c26-4.1 51.6-11.4 77.5-16.8l111.2-25.4c3-9.5-18.3-20.8-26.8-27.4q-80.7 17.4-161.3 35.5c2.5 6.2-6.3 9-3.2 16.4q1.2 9 2.6 17.7m164-73.4c.3-11.7 3.6-37.4-14.6-29.5-59.8 12.6-119.8 24.3-179.6 36.7-2.2 5 7.6 9.1 10.5 13.7 7.2 5.7 13.2 18.9 23.8 14zm-655.3 65.3q34.3 50.8 72.3 98.7c16.4-4 33.2-6.5 49.3-11.3 3-5.7-7.3-13.2-10.8-19.5-19.6-26-38.2-52.7-58.5-78.1-15.2.7-30 6-44.9 8.6zM803.9 531c68.9-10.8 137.1-25.2 206-36.2 54-10 108.3-18.9 162.3-29 59-10.7 118.2-20.6 177.1-31.6l41.3-7.2a25 25 0 0 0-22.2-3.8 33659 33659 0 0 0-218.3 38.6c-47.4 7.7-94.6 16.2-141.9 24.5q-88.7 15.4-177.3 31.4c-9.2 2-19.7 5-25.6-4.4L758.2 470c-9.5.9-21.5 3.1-8.1 11.2 17.5 17 35.8 33.3 53.8 49.7m-106.5 419c-23.3-31-48-60.9-71.8-91.5-6-7.9-15.7-1.2-23.5-.8-9.4 2.4-19.8 2.4-28.3 6.7.4 7 8 12.7 11.8 19 18.8 24.7 36.6 50.3 55.8 74.7 13.2 8 31.8-5 47.2-5.3q4.6-1.1 8.8-2.8m2075.2-37.4a62 62 0 0 1 20.5 61.5c.8 14.6 15.6 9.3 24 10.1 13.3 4.2 26.3-8.6 34-18.5a54 54 0 0 0-2.7-59.1c-17-23.2-56.5-22.4-72.9 1.5l-1.5 2.2zm-705.5 242.9c-25.3 6.7-50.1 15.4-75.4 22.5-90.2 26.3-180 54-270.4 80-10.2 4.6-1.4 21.3-5.1 30.5 14.4-1.7 28.4-7.8 42.4-11.7 25.4-10.5 52.4-16.7 78.6-25.2 83.9-25.3 167.5-51.2 251.3-76.7 1.7-5.7-8.7-8.3-12.3-12.6zm105.7-225.6c-15.6 12-31.6 23.6-45 37.9 3.3 5 17.4 9.6 8 15-8 10.7-30.1 18.8-29.8 29.8 12 8.5 27.5 27 40.2 10 26-19.7 52-39.3 77-60.1zM481.3 1124.5c.6-28.4-25.8-55.7-55-52.6-20.2-.2-36.4 16.8-44 34.1a52 52 0 0 0 6.9 47.8c7 14.3 19.2 18.3 20.2-.5 11.5-24.8 42.5-41 68.8-29.6zm-121.6-334c11-12.5 15-30.2 9.1-45.9-4.4-26.5-40.5-40.9-61-23-16.4 13.7-22 39.5-8.6 57.1C305 792 320.3 797 330 797c7 9.4 13.9-4 20.8-1.7zm1871.7 304.2a149 149 0 0 0-37.4 19.2c-5.7 2.9-29.2 16.2-11.8 10.4l126.1-39.6c14.2-16.3 27.2-33.7 40.3-50.9 7.8-18.5 28.5-25.2 38.8-41.7 4.7-7 17.1-22.8 11.3-27-7.3 14.7-22 24.2-36 34q-16.5 12-32.9 24.3c-16.1 2.7-26.2 18-39.4 26.6q-24.7 19.8-49.5 39.4c-2.5 5.5-3.4 9.6-9.5 5.3m-456.6-314.2c12 7.3 26 24 38.5 23.6 9.2-8.4 17.2-18.3 27.3-25.5 9-3.7 15.2 12.3 21.7-1.2 7.4-9.4 31-20.7 26.2-31-15-10.4-30.3-21.2-46.3-29.6-19.3 15.5-36.7 33.8-54.5 51.2-4 4.4-10 7.1-12.9 12.5M421.2 1022.4a56 56 0 0 0-22.3-40c-21.2-16.8-55.7-8-67.2 16.2-15.3 23-4.4 55 17 70.1 4.5-17.8 13.6-35.1 30.6-43.7 12.2-8.5 28.5-6.3 41.9-2.6M2134 1125.7q29.8-15.6 59.1-32c2.4-10.6-19.4-16.4-27-24.8-11.1-4.9-21.5-21.9-34-14.6l-54.2 32a568 568 0 0 0 56.1 39.4M609.6 752l-58.5-70.8c-15.8 2.7-31.3 6.6-47 9.8-9.2 3.5 3.7 10.6 6 16l46 58 49.4-9.8 1.9-1.2zm-159.5 318.7c.2-14-8.8-28.8-20.2-37.5-20.6-17.3-54.6-9.8-67.3 13.7-12.3 17.7-9.7 41 2.2 58.2 7.3 5 13 6.7 14.6-5.3 11.3-21.4 36.5-38 61.3-30.9zm-.5-283.1c14.6-6 42.6-4.8 49.4-13.5l-52.2-69.6c-15.2 3.7-39.1 4.9-48.9 12.9q24.6 36 51.7 70.2m1310.7-16.4c22.6-20 43.5-42 65.9-62.1 2.4-5.1-10-8.8-14.7-13.2-8.5-4.5-15.5-13-25.4-13.8-20.9 21-42.6 41.3-62.5 63.2zm236.8 257.7c16.5-8 32-18 47.8-27.3 13.4-5.2 10-12.5-.8-17.6-13.2-8.8-25.7-18.8-39.3-26.9-16.8 2.6-32.9 17.3-48.8 25.8-11.1 4.6-12.7 10.5-1.8 15.3zM202.4 523.5a41.3 41.3 0 0 0-2.9-60.1c-16.1-12-41.3-7.6-50 11.5-12.2 19.5 1 47.2 21.7 54.4 7.7-1.4 15 4 23.2-2.2 3.3 1 5.4-2.3 8-3.6m249.4 179.9c17.1 24.7 35 49.1 54.2 72.2l42.8-8.9c3.4-5.1-6.5-10.7-9-16-15-19-29.6-38.4-45.4-56.8-14.3 2.5-28.7 5-42.6 9.5m1621.6 300.9-56.9 35.2c9.6 13.7 31.3 25.5 46.1 34.8l55.4-33.8c5.4-5.9-7.8-8.6-11.3-13zm-778.6-769.4c-13.5-10.6-29.4-18-43.9-27.2-8 2.6-1.2 19-3.4 26.7-.4 17.5 2.8 34.7 1.4 52.2l38 23.7c4.7 17.3 7.2-1.3 6.1-9.3-.2-22 3.3-44 1.8-66.1m554.9 597.8c8.8 6 21.7 23.4 31 10.6 21.7-19.4 44.4-37.8 65.4-58-8-10.2-21-15-31.4-22.5-10.7-6.6-18.6 11.5-27.5 16.5-8.8 8.3-21.2 14.7-8.3 24.6-7.7 11.5-21.2 17.5-29.2 28.8M250 721.9c1.8 17.6 15.2 40.8 33.8 40.2 7.2-8.6 2.7-23.6 11.3-32.7 5.9-12.7 23.9-16.5 31.4-22.8a40 40 0 0 0-51.8-23.8c-15 7-23.1 23.3-24.7 39.1m2068.4 284c21-15.8 43-30.9 62.8-47.9-5-7.8-15.7-8.8-23.9-4.6l-45.9 13.5a97 97 0 0 0-24.9-18.5c-11.6-9-21.4 10.5-31.7 15.6-2 4 9.6 7.2 13.3 11 16.2 9.8 31.5 21.3 48.3 30zm-390-26.4c18-11.4 36.3-22.3 53.5-34.6-5-12.8-30.6-23.5-44-34.8-6.3-4.6-12.1 4.6-17.7 7.2-5.3 3-16.3 11.6-3.3 7.4 1.4 6.8-10.8 10.1-15.7 14.8-3.6 4-16 7-11.9 12.7zm-675.2-775.8c14.6 10 30.9 22 47.3 27.3l98.4-15.2c-17.1-8.3-33.4-21.7-51.5-26.3-26.6 3.7-53.2 8.2-79.8 11.6zM1767 850.2c11.7-10.5 37.2-18.8 39-31.8-14.4-10.4-28.9-21.9-44.3-30.3-16.3 9.4-31.7 20.9-47.6 31.1-2.2 10.5 23.2 19 31.3 27.6 6.2 6.2 14 3.4 21.6 3.4M367.3 525.6c13.7-4.2 39-1.8 45.7-10.8-16-19.3-31.5-39.4-48.3-58.1-12.8-1.4-32 4.9-44 9.8 13 19 28.5 36.8 42.5 55.3q1.6 2.3 4.1 3.8m232.8 293.8c18-4.1 36.5-7 54.1-12.7a494 494 0 0 0-42-50c-16.5 3.8-33.4 6.5-49.6 10.9 1.4 14.6 21.5 29 30 43.6 2.2 3 5 5.5 7.5 8.2M214.3 586.8c12 12.6 22 28.4 22.3 46.3-.6 12.3 6.3 23.1 18 13 15.6-.4 31.2-6.3 24.2-25.4-6.3-12-17-21.6-20.1-35.3-3.4-13.3-19.7-17.7-30.1-23.1-15.2-3.6-15.8 14.4-14.3 24.5m57.7-41.2q19 28.6 40.8 55.3c15.2-3.5 36.6-3.7 47.5-12.7-12.9-16.7-24.3-34.7-38.3-50.5-12.6-3-26.1 4.5-39.1 4.5-4 .1-7.8.8-10.9 3.4m269.3 287c-10.3-17-23-32.6-35.1-48.4-14.3-8.4-35.3 4.2-51.8 6.1-5.3 3.3 5.6 10.6 7.6 15.7 9.3 12 17.1 25.2 27.5 36.3 5.3 2.7 11.8-1.8 17.6-2.1zM355.2 658c14.5-4.7 39.6-3.2 47.2-13.6-12.7-16.6-24.7-33.6-37.8-49.8-13.5.7-26.7 5.3-40 7.5-18.9 4.3 9 23.2 12.7 33.5 6.1 7.3 10.6 16.2 17.9 22.4m148.9-33.5-42.7-51.4c-14.2 4.7-38.8 3.8-46.2 13 12 17.7 26.2 34 39.7 50.8 16.2-4.3 34.2-4.8 49.2-12.4m937.6-327c19.3.3 38.4-5.4 57.6-7.6 30.4-4.8 60.8-10.3 91.4-14.2 39-6.5 77.8-13.2 117-18.9 9.6 2.5 22.3-10.6 10.5-13.9-30.4 4-60.6 10.7-91 15.4q-90.4 15.6-180.9 30.9c-4.4 1-5.3 4.4-4.6 8.3m-1084 363.8c9.2 18.5 23.8 33.8 35.8 50.6 16.7-2.6 33.5-5.8 49.4-11.3a515 515 0 0 0-37.2-49.9zm189.2 16.4c-10.7-16.4-24.7-30.6-37-45.9-4.5-5.8-12.8.6-19.1.6l-30.4 6.6c2 14 20 27.6 28.7 41.6 4.2 9.5 11.9 9.3 20.2 6.1 12.5-3.2 25.6-4.3 37.6-9m-39.1 101.1c12.3 18 26 35 38.7 52.6l48.5-10.8c-14-16.8-26-35.4-41.4-51a419 419 0 0 0-45.8 9.2M369.4 529.7c13.8 16.5 26.5 34 40.5 50.4 14.4-3.8 37.7-3.3 46-13-13.5-14.9-24.6-35.4-40.7-46-15.2 3-31.2 3.3-45.8 8.6m1327.1 281.5q25.6-16 49.4-34.8c-14.8-6.4-30.1-32.3-45.9-20.3a458 458 0 0 0-39.8 29.6c12.3 8.2 23.5 18 36.3 25.5m102.6-678.1a7858 7858 0 0 0 227.5 101.6c3.9 1.3 19.3.4 14.8-4.3q-81.2-36.2-162.8-71.6c-25-11-49.6-22.8-75-32.8-3.8-.6-3 4.9-4.5 7.1m104.9 781c7.5-5.8 28.9-13.8 10.5-20.2-14-5.7-27.7-28.7-42.9-22.7-13.5 8.5-28.2 15.3-40.5 25.4-2.6 5.8 9.1 8.4 12.9 12.8l17.2 12.3c10.8-2.6 18.2-19 29.6-15.6zM369 593.5c13.6 17.2 25.5 35.8 39.9 52.3 12.1-1.6 33.6-2.3 38.7-11-11.4-15.8-24-30.8-36.3-46-9.8-8.5-30 3.3-42.3 4.7m-64 82.7c-2.1-16.5-20.2-28.2-36.2-28.2-30.9-1-50.5 40.3-32 64.4 7.6 15.4 10.1 2.1 11.9-6.6 6.9-20.8 31-35.8 52.6-28.2l1.8-.3zm147.5-35.4c-12 4-31.8 3-38.7 10.9a390 390 0 0 0 35.4 47.8c13.5-1.4 26.5-5.7 39.8-8.2 3.6-5.2-6.2-10.4-8.6-15.5zm654.2 875.4c23-5.6 45.4-13.7 68.3-20 9.1-3.2 19.4-4.1 27.5-9.7-1.2-6.3 2.7-15-2.5-19.4-17-9-35.2 5.6-52.3 8.5-14.4 4.5-21.4 21-37.7 24-6.7 1.4-4.6 12-3.3 16.6m-92.5-.1c-5.5 15.5-30.3 13-32.8 27.7-3.5 13 6 9.5 13.9 6.4 25.2-7.8 50.8-14.7 75.9-23 7.1-2.4 2.3-12.3 3.7-18.4 2.8-10.4-8.3-10.2-15.2-6.6zM405 580.8c-13.6-16.9-26.3-34.5-40.7-50.6-10.6 2.1-34.4-.3-36 8.5l38 50.5q19.8-2.2 38.7-8.4m1455.1 276c-12.6-6-26.6-29.5-41.4-21.3a661 661 0 0 1-39.9 24.8c9.7 9.2 25.4 23 38.4 26.4 13.8-9.5 28.2-18.2 41.5-28.3.2.6 1.5-2.5 1.4-1.6M745.7 1403.1a6631 6631 0 0 0 102.2 156.6c4.3 5.2 12.7-2.1 18.9-2.6l76.1-23.2c-4.6-5.8-10.5-3.3-16.4-1.1-25 7.3-49.6 15.8-74.8 22.1-16.4-22-30.2-46-45.8-68.5-19.3-28-36.4-57.3-56.5-84.6zM361.2 525.5 315 467.2c-10 5.2-35.6 13.8-20.4 26.2 14 14.1 22.2 47.4 47.3 36 6.3-2 13.6-.2 19.3-3.9m-186.1-77.7c-12-21.9-48-20-57.6 3.1-11.3 18.7 2.4 45.9 23.3 50.1-5-21.7 11.1-43.9 31.9-49.3l1.4-1.6zm132.5 154.8a1905 1905 0 0 0-42-57.6l-39.1 6.8c-7 10.2 14.9 6.9 17.3 16 21 2.2 16.8 25.8 29 37.4 4.5 7.5 13 1 19.7.7zm282.5 545.9a683 683 0 0 0 29.3 44.8c15-1.6 34.3-5 27-24.3-4-9.2 5.2-33.1-8.3-32.3zm730.8 303.7v-26.5c-6-3.8-12.5 2.1-18.7 2.8l-32.8 9.9c-6.8 16.8-27.3 22.3-36.2 34-2.3 9.6 6.3 3.8 11.6 2.7zm521.9-455.6c6.8-15.4 2-33.6 6-50 1.9-11 1.4-21.2-10-25.8-28-20.4-54.9-42.3-83.5-61.8-1.5 6.2.5 23.9 1.4 9.4 6.3-4.6 22.5 14.4 32.1 19.2 19.2 14.4 38.7 28.4 56.8 44.2q-.8 28.5-3 57zM457.9 419.5c-3-10.9-13.2-16.1-24.3-15-21.3-.1-42.2 8.2-63.6 4.3-13.6-2.6-13.4 12.7-3.3 15.5 10.8 5.5 13.6 0 11.7-10.2 5.3 1.6 2.6 19 15.6 15.7 12.2-2.6 21.8 13.2 28.8 4.3 12.4 2 25.8-7.1 35.1-14.6m-206.7 97.6c7.5 9.1 12.5 28.9 27.2 22.9q20.3-2.7 40.2-6.8-16.5-24-35-46.6c-13.4 8.3-21.8 19.8-32.4 30.5M1635 1358c1.2-11.2 8-38.2-11.2-27.2-17.4 3-31 10.6-42.3 23.5l-20 9.4c-4.2 13 3 18.6 13.6 12.2zm-207.2 62.2c.3-9.7 4-19.8 1.8-29.3-14.6 3.1-32.5 6.3-45 15.6-6.9 16.7-43.4 15.4-31 36.1zM622.9 849.1c16.6-1 33-6.6 49.5-9.3 12.2-1.6 0-11.3-3.5-16l-11.5-13.6c-18.3 4.6-37.2 6.9-55.1 12.9 6 9.3 13.4 17.6 20.6 26m876.5 519.4c-9 15.6-32.5 16.6-39.5 30.8-5.1 13.1 5.3 10.7 13.4 7.2 18-5.7 36.5-10.2 54.2-16.9 6.3-3.5 1.9-13.2 3.2-19.6.2-5 1.6-13.6-6.2-9zm-717.9-273.9c-1.4 8.3 7.7 13.5 11.5 20.2q69.4 89.2 138.4 178.8c8.1 11.4 18.7 21.4 24.5 34-6 10.7-28 10.1-40.4 16.3-25.5 8.5-51.6 15.6-76.9 24.7 22.5-3.8 45.3-12.8 67.8-18.7 19.5-6.3 40-10.6 58.8-18.1.6-4.6-5.4-8-7.5-12-47.4-60.4-94-121.4-141.6-181.6-11.5-14.5-22-29.9-34.6-43.6M492.7 846.7c7.8 15.7 20 34 39.4 22.7 10.7-3.8 41.8-2.2 24-18-9-25.2-34.9-9.7-53.7-7zm1686.4 35.2c-14.9-9-28.8-19.6-44.4-27.3-10.5 3.5-35.1 20.8-12 27.7 11.2 4.9 24.1 21.3 35.6 16.7zm-341.2 103c-10.8-11-24.4-18.7-36.4-28.3l-34.7-25.7c-9.3 8.1-23.9 6.2-20.4-9-5-5.4-16 2.3-23.6 3.2-12.5 4-25.5 6.7-37.4 12.3l112.9 90.1c22.4-6.6 46-10.4 67.4-19.6 2-5-10.5-12.9-13.9-4.4-5.6 1.3-12.9-2.7-13.3-8.4zM944 817.3c.3 17.2-6.9 39.6 9 51.6 9.8 6.4 19.5 26 27.8 25.5-1-16.5 5.4-37.8-9.7-49.5-10-8.2-16.4-20.2-27.1-27.6m-394.6 18.6c7.8 7.5 12.4 23.2 22.9 25 15.2-3.7 30.8-5.9 45.8-10.2-7-9-13.4-21.5-23.2-26.4a380 380 0 0 0-43.5 10zM107.6 466.7a46 46 0 0 1 26.1-36.5c9.6-8.7 39.6 10.3 26-8-13-18.3-45.1-18.6-56 2.3-9.7 13-5.6 30.3 3.9 42.2m745.1 1082.4c14.4-2 28-8 42.1-11.7l35.3-10.7-20.5-24.8c-23.3 7.3-46.9 13.7-70 21.5-3.6 5.6 5.3 11.3 7.4 16.9zM1999.2 770c-9.2 6.5-32 18.6-12.3 25.7 11.6 3.4 26.5 26.7 37.1 13.7l15.5-14.6c-13.2-8.6-26-18-40.3-24.8m-584-685c13.8 10.8 30.7 2.2 46 1 35.6-3.8 70.8-10 106.3-14.4 14.5 2 14.1-15 1-8.9q-37.4 5.6-74.9 10.8c-26 3.8-52.7 6-78.4 11.5m497.1 631.4c-14.7-7.3-34.8-35.7-48.8-16.2-18.8 11.8 5 19.4 15 26.7 6.3 2.3 13.5 13.6 18.5 3.6 5.3-4.4 11.4-8.2 15.3-14.1m-54.6-34.7c-13-7.8-28.1-24-42.2-22.9-5 6.5-24.2 16.3-9.2 22l31.3 19.6c7.6-5 14-12.6 20.1-18.7M817 701.1c1.1 20.8-1.5 42.1 3.5 62.3 5.2 3.8.8-18.7 2.4-24.3-2.3-16.4-1.4-33-2.5-49.4-4.1-5.7-14.3 3-18.5-8-20.4-20-41-40-60.4-61-2-13-2.5-26-3-39-16.4-13-21.2 21.3-10.6 30zm1328.6 340.5c14.5-7.2 26.2-19.8 39.8-28.8 16.8-12.8 33-26.4 49.3-39.8-4.6-13.7-18.9 2.8-26 7.4-23 17.4-45.5 35.2-68.3 52.8-4.8 3.7 3.4 5.8 5.2 8.4m59.6-106.3c10.1 6 19.4 13.6 30 18.5 6.1-6 32.2-16.7 20.8-23.7-9.1-4.6-16.7-12.2-26.4-15.4-8 7-18.2 11.8-24.4 20.6m-715.3-308.1c-14.7-.8-29 4.6-43.6 6.7-76 15.5-152.2 30.2-228.3 45.4-38 7.7-75.9 15-113.7 22.8-8.4 4 6.7 3.4 11.1 1.2zm249.8-493.9A2302 2302 0 0 0 1620.2 80c-5 12.4 14.4 13.4 22.5 18.6 31.8 13.4 63.4 27.5 95.4 40.6 4.1.1 1.3-3.6 1.6-5.9m376 710.1c-10.7-6.9-27.3-26.7-38.2-11.5-11.2 6-15.7 15.9-2.3 20.3l15.8 10.2c9.4-4 16.6-13.3 24.7-19M1942.1 576q-34.7 5.9-68.3 16.3c4.1 5.3 12 7.4 17.7 11.5 7.2 7.4 5.7-7 11.3-8.5 8 10 24.5-1.6 35.5-2.1 7-1.7 3.2-12 3.8-17.2m-853.9-436.7c31 5.5 62 10.9 93.2 15.1 13-4.2-2.5-11.7-9.7-10.7l-83.3-14.4c-1.4 3.2-.9 6.7-.2 10m868.3 603.3c-13.5 7.1-32 21.4-8.9 28.4 12.5 15.8 27.3-1.4 33.3-12.5-7.7-5.8-16.4-10.5-24.4-15.9m258.7 348c11 .6 19.7-8.8 28.3-14.9 22.8-17.7 45.9-35 68.3-53.3-5-10.8-12.8 0-18.4 3.8-25.6 20.6-51.8 40.5-77 61.4q-1 1.3-1.2 3m-132-217.5c-22.5 20.3-46.6 38.7-69.1 59-3.4 3.7-15.2 9.8-5.7 12.6 5.3 2.4 9.3-6.3 14-8.6 21.7-19 44.6-36.7 65.6-56.5 4.9-4-3.3-5-4.8-6.5m-198.1-14.9c24.7-20.6 48.5-42.4 72.2-64.1-3-12.7-16.2 4.3-22 8.7-17.2 16.2-35.3 31.4-52.9 47-5.9 4.8-1.5 6.1 2.7 8.4m-681.7-20.1c.4-21-4.5-39-23.7-50-12.3-10.8-4 18.2-3.9 25.4 8.3 9.1 17.4 18.1 27.6 24.6m-11.7-681.3c22.9 14.4 46.7 27.2 69.6 41.6 14 2 17.8-3.9 5-8.2-24.1-13.1-47.8-27-72.1-39.6-4.7-3.4-1.6 4.2-2.5 6.2m-89.4 500.7c-10-1-33 1-33.7 8 10.3 8.3 25.5 28.3 35 27.3zm1347.2 250.7c-17.2-4.7-32-17-50.4-17.3-16.7 7.3 5.3 14.8 13.1 19.8 6.9 4.6 31.3-4.3 26.5 4.7-11-.2 3.8 8.7 5 3.1zm-60.1 93.6c11.6-2.9 34 8.6 28-10.8 3.9-10.2 1.7-30.6-12.2-21.4q-9.4 15.4-15.8 32.2m-263.6 40.2c-20.1 10.8-39.2 23.7-58.9 35.3-.8 5.7 10 7.2 13.8 2.2 17-10 34.5-19.6 51-30.3 5.3-2.8-4.4-5-5.9-7.2m150.3-217.1c-1.3-8.3-11.9-9.7-17.7-14.3-21-11.5-41.3-24.3-62.5-35.2-5.4 0 4.4 10.3 8.8 11.7l50.4 32.5q11.3-.2 21 5.3m-435.6 116.8c-21.3-18-45-33.1-67.3-50.1-9-8.3-5.6 6-6.7 11.6-3 10.1 2.6 15.9 11.6 20 19.6 14.3 38.1 30 58.3 43.3 7.7-2.7 2.3-17.7 4.1-24.8M589.8 1469.5c10.9 2.8 15.6-10 12.5-19-.7-8-1.8-18.7-12.8-13.4-17-2.6-9.4 28.3.3 32.4m492.6-1339.9c-19 .6-37.6 5.3-56.4 7.5-17.8 2 5.8 13.6 12.7 9.2 13.7-2.6 27.8-3.8 41.2-7.3 3.8-1.8 2.1-6 2.5-9.4m694.8 545c-21 21.3-42.6 42-63.1 63.7 6 10 17-10 23.6-14.3 14.5-14.8 29.7-28.7 43.6-44 2.2-3.1-2.7-3.7-4.1-5.4m-785.5 2.8c0 14.8 24.7.5 35 1.8 8.6-4 40.4-1.5 30.8-14.6-22 3.8-44.4 7.5-65.8 12.8m778 100c23-19 42.8-41.4 65.3-61 5-12.8-16 2.6-19.6 8.5q-24.6 24.2-48.9 48.5c-2 2.8 2 2.8 3.2 4m220 169.5a319 319 0 0 0-56 36.9c6.6 7 13.9-1.6 20.4-4.8q19.8-12.5 40-24.4c5.6-4.5-2-5-4.4-7.7M1653.2 79.8c12.6 4.2 31.4 18.7 40.7 14.5 5-13.6 3-29.5-14.2-20.2q-13.4 2.5-26.5 5.7m408.1 918c-19.2 9.8-37.5 21.4-56 32.5-1.8 16 22.1-2.6 28.8-6.9 8.8-7.8 30.3-13.9 31.5-23.2zm32.3-31.5c-5 8.8-31 17.1-18.8 25.9 7 9 13.6 1.5 19.5-3.9l15.5-13.2c-5.5-2.8-9-9.8-16.2-8.8m-152.2-332.8c.5-12.5 6.9-39.2-14-30-8 0-34.2 8.2-13.6 9 13.3.4 11.7 16.1 23.8 18.8zm218.5 288.8c-15.8 10.2-29.2 23.7-43.9 35.4 3.6 13 17.5-3.1 24-7.5 5.6-7.9 31.3-18 22.5-26.2zM720.7 1210.9c-12.7-18.7-27-36.3-40-54.9-6.7-7.8-11-18.7-20.2-23.9-1.3 9.8 13.8 21.5 19.3 32 12.2 16 23.5 33 36.2 48.5 1.7 1.8 3.2-1.2 4.7-1.7M2309 1008.5c-11-9.5-24.6-16-36.8-24-26.6-16.5-52-34.7-79.3-49.9-.5 5.8 10.3 8.5 14.8 12.6 31.8 20 62.8 41.2 94.6 61.3 1.9 1.6 4.9 1.7 6.7 0m19.3 5.3 63.7-49.4c-2-9-12.3 3-17.5 6l-49.7 36.8c-4.5 3.2 2 4.6 3.5 6.6m-532.1 19.2c-16.2-15.6-35-28.1-52.4-42.4q-22-17.2-43.3-35.1c-9.3-2.5 4.7 6.4 7.5 9.6 27 22.4 52.9 46.3 80.2 68.5q4.4 3.4 8-.6m-213-964.1c11.4 4.7 24.3 9.1 36.4 4.9 7.2-2 15-2.3 21.6-6.1a873 873 0 0 0-51.8-6.8c-5.7-.4-6.5 3.9-6.2 8M1276 1422.2c9.7-3.2 34-4 19.4-16.4l-11.1-15.3c-14.3-2-6.6 12.7-7.7 20.5-.8 3.6-2.4 7.6-.6 11.2m917.6-529.7c-7.7 6.7-14.5 14.2-22.5 20.5 6.2 3.8 12.5 12.5 19.2 4 11-7.7 27.4-19 5.5-23.9zm-4.5-120.7a815 815 0 0 0-63.8-36.8c-.8 12.7 13.5 15.4 21.8 21.2 13.1 7.5 26 16.5 42 15.6M1025.5 1497c9-2.4 37-3.9 22.3-16.3l-12.7-16.8c-12.6 3.4-1.6 23.9-9.6 33.1m769.8-1371.7c-16 0-32 3.5-47.4 7-9.6 9.7 5 9.2 11.7 7.2 10.7-1.5 21.6-1.7 31.9-4.7a7.6 7.6 0 0 0 3.8-9.5m-619.4 1327.6c-6.6-7-11-25.6-19.6-24.8-6.6 6-3.8 25-5.6 32.2zM408.4 437.8c-15-1-41.8-4.2-49.2 9.2 7 9.2 30-3.7 42.7-2.4 4.9.1 8.3-1.7 6.5-6.8M2422.7 928c-22.3-2.4-44.3 6.4-64.5 15-8.4 4.2-18 13-3 6.3 22.6-7 45.5-12.8 67.5-21.3M721.9 1296.2c2.3-20.7.4-41.9 1-62.8 3.3-8.2-4.4-24.6-5.7-9.3.5 24.1-1 48.5.8 72.5zm1673.3-158.9c5.6-8.6 12.1-28.5-4.2-25.8-13.6-6.6-13.8 25.4-2.7 25.8zm-529.4-345.9c13-9 23.3-21.2 35.5-31 4.2-13.1-14.5-4.4-17.2 3.5-5.2 9.1-24.7 15.9-22.4 25.3zm-9.5 132.2c-31.2-23-62.9-45.2-94-68.2-9-1.4 5.5 7 8.3 10 27 20 53.7 40.6 81.3 59.9 1.6.6 3.3-.6 4.4-1.7m-901.8 636.7c14.6 6.3 29.2-14.1 16.6-21.5-5.4 1.4-16.2-3-17.5 2.6-.4 6.3-.4 13 .9 18.9M2044.8 832c3.9-10.7 32-19.3 11.2-27.3-6.9-1.8-24.8 15.7-20.7 21.7 2.7 2.4 6.2 4.9 9.5 5.6M247.6 522.6c-6.3 5.5-28.9 29.6-9 24 7.5-1.9 16.1-1.2 22.7-5-2.1-6.2-8-14.3-13.7-19m1502.8 257.5c-14 12.3-41.6 23.4-47.2 37 4.5 4.8 9.8-4.6 14.7-6.1l38.3-25.8zm719.8 332.6c14.7 8.5 23-24.4 8.8-24.7-12.8-6.3-12 12-11.7 19.9zm-124.9-40c-.7-10 1.5-35.4-9.7-16.5-4.6 6.4-20.7 22.8-14.2 24.5q12-3.5 23.9-8m-891.2 339.7c2-10.1 1.1-21.4-11.5-19.3-13.6-6-11.6 33 2.5 22q4.5-1.6 9-2.7m1125.8-345.2c-8.3-2.7-20.3-5.8-18.5 6.7-7.4 12.9 12.9 26.7 16.3 9.5zm81.6-31.4c-11.4-9.1-21-4.6-19 10.3-2.2 19.2 24.2 11.2 18-5.2l.3-2.6zm-1581 466.7c-3.6 10.2-2.5 28 11 18.8 10.3.7 13-17.1 4.6-18.8zm581.1-170.3c-10-.7-23.5-4.3-19 11-6 20 27.2 9 19.5-6.4 1.5-.2-2.2-4.7-.5-4.6M1866 860.7c-13.4 10.2-41.7 18-44.5 32.3 12.3 2.6 25.5-15.3 38-20.7 2.9-2.8 16-7.5 6.5-11.6m-310.4 503.5-18-1.5c-1.3 10.2-4.6 30.5 10.4 21.2 11.3 0 8.5-12.5 7.6-19.7m1178.3-329.3c5.3-9.7 7.2-25.4-7.3-25-9.8-.8-10.6 30.5 3.8 25.6l3.4-.7Zm-530.3 62.5c-4.6-5.6-11.5 3.7-16.9 5-16 9.4-33.2 16.6-48.2 27.4 8 9.3 19.6-8.2 29-10.4q18.3-10.8 36.1-22m-88-367.9c-16.3-12.2-35.3-20.8-52.8-31.4-6.1-7.4-20.7-6.2-8.7.8L2107 730zM1770 854.8c5.6 7.6 13.2-2.8 19-5.4l31-20.6c-9-10.2-20 7.6-29.5 11-7 4.8-14.4 9.7-20.5 15m196.2 21.2c-6.2 7.5-25.2 15.8-22.1 24.3 7.2 5.3 11.4 9.4 13.8-2.4 6.8-6.1 24.1-15.7 8.3-21.9m829.3 112.5c-9 9-1.5 37.7 11.5 22.4 3.3-12.5 5.8-22.1-11.5-22.4m-1027-110c.8 9.4 12 12.2 18 18 17.9 12.7 35.2 26.5 53.4 38.5-4.6-11.6-25.3-20-35.9-30.7-12.1-8.3-22.6-18.7-35.5-25.8m-422.8 550h-18c-2.4 10.7-3.2 28.1 11.7 18.3 10.2-.8 7.1-11.3 6.3-18.3m1520-445.4c4 15.9 22.2 5 18.4-8.9 4-7.4-14.6-10.3-15.7-3.7-1.1 4.1-.4 8.8-2.7 12.6M659 1153.6c-10.1-17-4.1 15.5-5.7 21.3 2 9.8-2 31.3 5.5 34.3 5.3-9.2-.5-22.7.3-33.6-.3-7.3 0-14.7-.1-22m1185.9-901.1c-8.8 1-28 2.6-29.7 6 9.9 2.4 30 23 30.1 4.1q1.2-5-.4-10.1m574.5 685.3c-8.4-5.3-20 5.8-29.1 5.6-11 1.8 4.1 6.4 7.4 8.2 5.2 3.7 12.5 5.3 16-1.3 2.1-4 4.7-8 5.7-12.5m-493-213.7c-6.8 6.6-15.5 11.7-21 19.5 7.4 10.5 14.4 2 20.7-3.8 4.2-3.7 14.8-10.5 4.7-13.2zm-227.1 20.1c-15.4 11.1-31.6 21.5-46.6 33.1 1.9 9.8 21.7-10 29-13.8 4-6.2 22.2-9.5 18.9-17.6zm-294-463.3c9.8 5.8 19.2 13 29.4 17.8 6.8-8.5-5-14.2-11.7-17.4l-17.6-10zm-339.7 1215.8c-5.9-8.4-14.8-2.7-22.3-.7-6.5 2.5-14.4 3.5-20 7-9.4 15.8 18.3-1 25.5-.8q8.5-2.5 16.8-5.5m1200.9-560.6-24.5 19.4c5 14.2 28.3-8.2 30.1-15.3zm-423.6-141.7c-5.8 6.4-30.5 23.8-10.7 23.6 8.3-5.2 27.1-17.8 10.8-23.5zm305.7 114.1c1.5-6-10-9-14.3-13-21.7-13.7-42.8-28.9-65.3-40.8 5.8 9.6 29.5 20 42.4 29.9zM346 824c2.3-10.2.7-26.7-12.6-19.2-4.3 5-.1 25.2 10.6 20 .7 0 1.3-.8 2-.8m797.5 648.9c14-4.6 28.8-7 42-13.3-8.7-8-19.5 0-29 1.8-7 .9-10 5.8-13 11.5m632.3-1206.6c7 3.8 13.5 10 22.1 7.5 16-1.4 3.6-6.3-3.9-9.3-6.3-1.3-17-12-19.5-3.2 1 .4-.5 5 1.3 5m327.9 603.2c6.8-4.2 33.7-19.8 15.8-23.2-4 5.3-30.2 17.9-15.8 23.2M1228.1 1480c2-19-33-10.5-17.9 5.3zm762.1-822c3.5 11.6 22.4 14.6 32.2 22.6 9.3 8 22 3.3 6.8-2-12.1-6.6-23.8-14.1-36.2-20zm-224.4 262.8c8.5 11.7 24.8 20.3 36.7 30.2 11.4 6.3 25 22.7 35 23.3-22.3-18-46-34.9-69.2-52zm-541.2 579.6c9.8-9.3 1-22.2-11-12.3-12 6.4 2.4 17.6 11 12.3m-559.8-349.8q21 34.5 45.6 66.6c5-4.1-13.2-19.4-16-26.8-10-13-18.6-27.6-29.6-39.8m609.1 275.7c1 13.7 24.4-2.6 33.9-3.4 8.8-7.5-12.3-4.7-17.5-1.5zM616.3 404.9c-.2-10.1 4.2-31-8.7-33.4.5 11.6-4.4 27 8.7 33.4m-409.6 41.4c-6.7 6.3-10.8 14-.2 19.4 7.6 9.7 16-14.5 4.5-16.3zm1838.2 245.2c-17.8-3.5-36.7 1.3-54 6.4-8.9 1.3-30.7 16.1-11.8 8.4 18-6.7 36.5-13.5 55.8-14 3.3 1 7 1.1 10-.8m53.6 315.8c10.3-9.2 22-16.9 31.6-27 2-8.9-8.9.8-12.2 3.9-7.3 6.3-15.6 11.7-21.9 19.2-1.6 2.4 1.4 2.7 2.5 3.9M834.3 1517.6c13.2-.7 27.7-7.7 41.4-10.8 8.7-4.1 27.4-5.2 30.3-11.2-23.8 5.4-47 13.5-70.2 20.8zM586.1 349.4c-3.2 9-.4 36.8 9 28.7-4.7-8.4 3.6-27.6-9-28.7m1402 412.6c-6.4 2.4-30.2 23.4-14.8 21.3 3.7-4.9 29-16.7 14.8-21.3m-1780-324.5c-10.4 2.4-38.6 14.5-13.9 18 6-4.9 9.4-12.3 13.9-18M1399.7 1362c-.2 7.3-3.2 15-1.7 22 10.4.4 20.9-4.8 9-13a42 42 0 0 0-7.3-9m591.8-479.5c-6 12-25.8 20.3-27.2 31.3a100 100 0 0 0 30.8-28.1zm-147.7-179.8c5.3 10.7 28.9-12.8 20.5-18.7-6.7 6.4-14.6 11.7-20.5 18.7M190.6 553c3.8-9.5-1.3-23.6-12.4-16.1 2 7.4.8 20 12.4 16.1m1233.2 834.6c-5.9-10.2-34 2.2-29.5 9a209 209 0 0 0 29.5-9M561.9 325.3c1.2 8.9 1 18.4 2.5 26.9 10.6 13.8 8.4-21.7 0-25.2zM616.1 507c10.7 14.4 8.7-19.3-1-23.2-3.8 1.1-1 18 1 23.2m448.1 162.2c6 12.4 20.8 20.4 30.4 30.9 6.3-3.6-4.8-10.1-8.2-13.6-7.6-5.4-13.6-13.6-22.2-17.3m-752.6-209c4.6 5 31 1 27-10.6-8.6-5.7-9.6 14.3-14.9 3.5-4.1 2.2-8.8 3.7-12.1 7.1m287 5.3c-15.1-18.5-2.7 37.2 2.5 17.1 0-5.7-1.7-11.5-2.5-17.1M232.3 654c1-13.7 1.5-31.2-6.7-42.6-.5 14.2 2.2 30.9 6.7 42.6m431.4 529.9c18.5-.4 8.7-15.6-.1-23-.6 7.7-.2 15.3.1 23m-122-876v21c8.3 12.8 7.4-2.2 7-9.1.8-5.4-1-10.6-7-11.9m-34.2 86.3c7.6 12.7 8.3.6 7.4-7.1.7-12.3-10.9-16.1-7.4-2.2zm1689.7 535.1c8.5 3.9 17.2-11.7 25.5-15.6 5-13.1-17 7-21.9 10.6q-2.3 2-3.6 5M539 455.6c-8.5-12.9-9.5-2.8-7.6 6.5-2.3 8.6 10.8 17.6 7.6 4.6zm1269.2 194.5c-9 3.1-24.1 30.3-7.7 16.4 3.8-4.8 10.3-8.1 12.4-13.9zM1096 1534.6c12.1-14-6.4-12.9-14.7-5.5 2.1 6.4 9.1 6.8 14.7 5.5M595.6 515.9c.5 7.8-2.6 17.6 2.9 24 7.9 5.4 6.1-20.5-1.6-24.1zm-95.9-229.2c16.4 19.7 2.3-38.4-.4-13zm1857.8 590.8c5.3 5.1 27.6 18.2 16.8 3.5-6.4-3-27.2-22.2-16.8-3.5M548.7 415.2c-2.7 7.6 1.2 32.2 8 26.5-1.7-9.2.9-21-8-26.5m23.6 75.8c1.2 7.7-.3 16.4 2.8 23.5 9.2 11.1 5.7-9.7 4.8-15a19 19 0 0 0-7.6-8.5m1185 437.9c8.1-15.7 3-36 6.7-53.3-5.6-5-3 9.6-4.3 13.8-1.5 13.1-.4 26.4-2.4 39.5m-801.8 637.6c4 5.9 12.7 9.1 18 2.8 7-14.9-11.5-6-18-2.8M511.2 346.6c1.2-7.2 0-28.3-7.8-22.3.5 7.8-2.7 20 7.8 22.3M576.8 466v-20.3c-8.1-13.1-7.4 1.7-7 8.8-1.5 5.8 3.8 7.7 7 11.5m40.6 71.6q0 10.5.3 20.9c9.7 16.2 11.4-14.4 2-18.7zm984.2 795.6c9.2.3 40.4-12.4 17.6-10.9-7.2 2.7-16.3 1.7-17.6 10.9M527.3 293.4c-11.2-24.3-9 25-.1 16.5zm25.2 97.3c2-5.9.2-32.2-6.8-25-.5 9.3-2.3 19.5 6.8 25m-28-48.9c-5.8 8 5.7 36 6.9 17-.7-6.2 1.7-15.9-6.9-17m42.1 39.6c-3.2 8.1 1.1 30.2 7.4 28.1-2-8 1.8-18-4.3-24.3zm1301.3 418.2c-2.8 11.9-25 21-23.1 28.2 7.6-7.3 28.3-18.2 26.5-26.3zm191.1 42.3c4-5.8 29.2-19.6 17.7-22.6l-21.4 19.6zM213 535c-4.3-13-23-5.3-8.3 3 5 6.5 14.7 14.5 8.6-.1zm62.1-50.4c-10.1 9.3-28.2 19-30.2 32.2 9.7-10.9 22.5-19.7 30.2-32.2m283.4 9.7c5.5-7.7-6.4-36.5-7-16.6.5 5.2.2 15.5 7 16.6M1856 927.8c-6.1 15-3.2 33.3-5.4 49.6-1 9 2.3 15.2 1.8 2.4.3-17.4 3.2-34.7 3.6-52m14.5 12c1.8-6.6 30.4-20 13.9-18.4l-17.8 12.5c-2.2 2.7 2.7 4 3.9 5.9M1346 1448.5c-10.2.3-26.6 9.6-7.6 12.2 5-.8 9.5-7.1 7.6-12.2M527.9 414.8c15.2 19 1.7-36.1-.5-11.8q0 6 .5 11.8M217.2 605.3c-.7 11.6 6.5 16.3 4.5 2.4 2.2-5-8.6-19.1-9.5-14.7-1 2.8.2 20.5 5 12.3m301.3-151.8c5.4-11-9.5-36-7-13-1.1 6.3 3 9.2 7 13M491 326c5.5-7.8-7.3-34.8-7-16.2 2.3 4.9-.4 15.9 7 16.2m-3.1 28c-4.5 7.7 6.7 36 7.3 16-2-4.4-.1-17.1-7.3-16m1118.3 968.5c15.7-.5 15-8 5.4-15.7-4-6.6-4.8 13.7-5.4 15.7m512.5-583.6c-11.7-10.1-30.7-1.7-44.8.8-13 6.7 13.7-2 19.4-1.9a65 65 0 0 1 25.4 1.1M621.1 666.1c4-8 .9-17.8 1.7-26.7 1-8-4.2-16-3.2-2.7-.2 9.8-.2 19.7 1.5 29.4m-266.5-221c-13.4-7.4-17 17.2-2 8.9 4.5-1.2 1.7-6.3 2-8.9m1145.8 919.5 21.8-6.6c-.5-9.8-20.7-2.5-21.8 6.6M493.5 407.5c-3.6 3.8-.6 11.9-1.6 17.4 12 23.4 5.8-14.7 1.6-17.4m-6.6-135.2c4.9-8-8.3-36.5-6.3-15.8 1.6 4.9-1.3 15.6 6.3 15.8m-18.7 60.5c1.4 5.7-.1 31.2 6.8 21.6.3-7.7 1.2-17.1-6.8-21.6m-4-54.6c1.5 8.5-.6 18.1 4 25.6 7.2-.9 1.7-21.7-4-25.6m7.8 106.7c-1.6 6.5 4.2 36.5 7.2 18.4A29 29 0 0 0 472 385m1917.3 495.9c-7-5.6-23.1-15.7-26.5-14.1 7.4 3 19.5 20.2 26.5 14.1M461.8 231.4c-3.3 6.9 2.6 27 6.5 21.7-2.6-7 2.7-18.4-6.5-21.7M283.3 482.2c5.7-7.5 22.2-9.7 22.9-18.7-7 5.2-23 9.4-22.9 18.7m1687.9 170c-8 1-29.2 3.9-28.3 7.5 7.6-4.5 38.1-2.4 34.4-6zm213.9 125.1c-13-5.8-29.5-.5-42.7 3.7 14.2-2 28.2-4.5 42.7-3.7M619.6 374.8c-4.6-7-17.5-24.6-21.7-21 6.8 7.2 14.6 14 21.7 21m1093 547.6c-7.7.8-31.6 5.9-29.9 9 10.3-1.4 20.6-4.7 29.9-9m168.7 24.3c5.1-3.7 25.5-13.5 21.3-16.7-6.3 5.8-18.2 8.7-21.3 16.7M458.7 424.8c-12.2-.5-7.9 17 .4 7.8zM1751.4 928c6.5-5.7 1.4-39.6 1.8-34-.5 11.3-.8 22.7-1.8 34m435.3 2.5c-4.4-5.7-12.3-8.6-18.1-13.2-10.2-.6 18 16 18.1 13.2m-631.5 455.3c-10.2-1-20.2 9.4-4.7 6.5 4 .6 3.3-4.2 4.7-6.5m682.5-558.6c7.4-.5 28.2-.6 24.1-3-8.1-.8-16.6-1-24.1 3m-407.9-258c-8 11.7 22.5 10 6 3.2l-3-1.5zM591.9 633.9c2.1-10.2 1.5-30.8 0-34.5zm17.3 13.4c0-11 .2-22.1-.2-33.2a103 103 0 0 0 .2 33.2m1037.1 711.3c7 9 21.3-9 6.1-2.8l-3.1 1zM303 791c-4.4-7.4-15.8-17.6-8.8-2.5 1.3 4.1 5.8 2 8.8 2.5m1498.3-197.2c6.5-2.6 13.8-4.3 19.8-7.5-5-2.3-15 3-19.8 7.5m-350.8 828.4c5.4-8.5-6.3-3.8-10.7-2.4-8.2 1.6 9.7 5 10.7 2.4m732.1-527.4c-6.8 1.9-23.9 19.6-9.2 9.8q5.3-4.3 9.2-9.8m-254 10c-8.2.7-29 20.9-11.6 9 4-2.7 8.3-5.8 11.6-9M579.1 582.3c-3.7 2.4-.6 11.6-1.6 16.7-.5 4.6.4 20.7 1.7 9zm-120.9 656.2c-3.5 8 7 33.6 3 14.8zm815.5 149.5c12.5-.3 8.3-15-2-3.9zm-735-849.8c-2 6.2-1 30 0 26.2zm1358.4 81.4c6.5-.5 13.5 1.2 19.7-1-6-5-13.4-.7-19.7 1M357.8 421.2c0-5.8-9.3-13.5-9.3-5.4-.2 4.8 6.2 3.6 9.3 5.4m206 143v27.2a83 83 0 0 0 0-27.2m1833.1 320.3c-9.7-2.5-15.5 18-4.2 5.5-1.5.2 6.7-5.6 4.2-5.5m-480-284c10 2.6 32.5-7.6 12.4-2.4zm33.8 139c-9.2-3-21.4 20.2-7.5 6.3 2.4-2.2 5.1-4.6 7.5-6.3m-87.1 112.3c-3.6-9-29.6-19.8-10.5-6.5q5.2 3.4 10.5 6.5M500.7 492.6c-2.5 9 .5 37.9 0 15.8zm1349.2 90.7c-6.7-5-33.4 3.2-13.9 1.1 4.6-.6 9.2-1.4 13.9-1.1M453.5 216c-4.7 1.3-1 10.7-2 15-.7 8.7 1.8 10.8 1.4.9zM2415 964.8c9.3 7.9 10.7-17.6 4-5.7zM815.7 1302.3c2-13.2-20 8.3-6.6 1.7zM524.8 520.6c-3.4 4.2-.4 15.5-1 21.8 1.9 5.3.5-10.6 1-14.8zm82.4 41.4c6-4.4-1-33.4.3-10.8.5 3.6-1.6 7.2-.3 10.8m1273.5 357c-8.6.1-21.4 16.4-7.2 5.7q3.8-2.6 7.2-5.7m-134.7-9.6c-2.8 10.4 6.6-7.3-5-7.9-8.3-4 4.1 6.6 5 7.9m134.2 30.9c4-3.2 9.5-5.4 12.6-9.2-3.9-2-11 5-12.6 9.2m-728.7 483c12.7 3.6 4.4-14.6 0 0" style="fill:#0a0a0a"/></svg>