<svg xmlns="http://www.w3.org/2000/svg" fill="#0a0a0a" viewBox="0 500 3052 1696"><path d="m371.8 1075.2 16-16c-2 6.6-9.4 14-16 16m445.6 65.9c5.2-11.8-3-28.8 2.4-39.2 11.4 1 19.2 13 26.8 19.1l2.4 40.7c-8.7 3.4-13.3-10.4-20.6-13.3-4-2-8.1-3.5-11-7.3m25.5 5.2c3.8-10.2-2.5-38-13-28.9-1.7 12.3 1 24 13 28.9m-16.4-11.9c1.1-7.8-5-36.9-3.6-16 1.5 4.3-1.8 17 3.6 16m-66.8-35.2c-6.7-6.3-3.9-15.5-4.4-23.7 1-6-2.6-16.7 2.8-18.9 7.9.9 12.4 9 18.7 13.1 6.7 3 4.7 10.2 5.5 16 0 9 2.4 18.3.3 27.2-9.5-1-15.3-8.9-23-13.7m17-24.6c-12.5-14.5-14 8.3-7.8 17.7 10.6 11 10.8 0 8.8-8.8zm-16.4 12.8c3.7-3 .2-12 1-17.4-2.2-17.2-2 15.8-1 17.4m623 132.6c7.2 5.3 15.2-.5 22.9-1.8l117.6-32.1c-.4-9.3 6.4-8.1 5.3.1-2.8 12.8 8.1 37.2-11.3 37.3a8120 8120 0 0 0-128 35.5c-19 5.2 7.8-58.3-6.5-39m4.9 18.5v17.2c44-11.3 87.8-23.8 131.5-36.1 2-8-14.1-15.3-22.3-10zm1-3.9c39.5-9.7 78.7-20.3 118-31 6.7-13.3-7.3-8-14.2-5.7l-103.5 28.3a6 6 0 0 0-.3 8.5m135.6-20c-.6-9.9 4.2-31.2-11.1-22-1 8.6-.8 19.3 11.1 22m137.1-31.4c3.2-11.8-.5-40.5 7-42.6 4.6 11.5 24.7-4.6 35.1-4 24.8-6.3 49.3-14 74.2-19.7 9.4 5.3-.1 24.6 3.9 32.7-39.8 11.9-80.2 22.3-120.2 33.6m95.5-42.9c-30 9-60.7 15-90.3 24.8-4 15.2 6.5 12.6 16 9 30.3-8.6 61-16.3 91.3-25.4.8-4.1-10.2-9.6-14-4zm1.8-14.3a861 861 0 0 0-89.3 24.6c-7 18.9 21 1.7 30.8 1.8 18.4-5.3 37-9.8 55.4-15.2 4.3-1.3 2.6-7.7 3.1-11.2m6.4-1.6c-11 15.3 18.4 25.1 11.6 4 5-12.3-5.4-7.1-11.6-4m-112.2 62.1c-17.6 1.5-34.4 12-51.6 11.5 2.2-12.2-2.4-34 4.4-41.1 8.3 11.7 28-4.6 41-4.6 7.4-16.6 4.8 14.5 4.4 20.7-.2 4.6-.4 9.3 1.8 13.5m-19.8-10.9c-12.2-3.1-37.4 7.7-24.3 18.6 9-3.6 36.9-5.3 33.2-12.6zm14.1-20c-6 1.7-13.7 1.7-13.5 9.8-3 8 16.1 19.2 13 4.9.2-4.9 2.4-9.9.5-14.6m-17.7 6.6c-7.2-.5-29.4 2.3-21.2 14 7.7-3 23.7-1 21.2-14m-81.8 7.4c1.4 18.1 28.6-.1 37.7-2.3 4.5-17.7 6.5 10.8 5.2 17.2 2.4 12.1-1.4 21.9-14.3 22.4l-28.6 7.8c-5.6-4.2-2-13.8-3-20.5v-22.6zm2 40.7c9-3 35.4-4.1 30.3-13.6-10.8-7.4-38.6-7.6-30.4 13.6m23.6-23.4c7.2 6.2 15.7 13.4 13-2.7 2.2-18-17.6-10.8-13 2.7m-22.8-5c-11.8 15.8 26 9 17.5-2.1-2.8-4.5-11.4 2-16.4 1.8zm1162.3 35.5c6.4 2.9 19.8 10.3 3.6 5.2-15.5 4.2 28.6 22 6.7 15.5-6.7-5-14 4.5-14.6-7-24.6-12.5-50.2-22.9-75.5-33.8-52.6-22.4-106-43-158.7-65.2a40800 40800 0 0 0-240.3-99.4c8.7-20 22.9-37.1 38.3-52.3 10.2 8 25.2 4 37.4 8 45.5 8.6 89.9 22 133.6 37.2 27 10.2 53.7 20.9 80.5 31.3q23.9 11.2 48.1 23c48.9 27.2 101.5 54.7 131 103.8 5.9 10.6 7.2 22.3 9.9 33.7m-374.7-146.3c4.4-7.3-7.1-7.4-11.4-10.8-23-10.1-46.2-20.1-69-30.9-7.3 0-21.5 1.6-7.3 6.6 29.3 11.5 57.8 25.4 87.7 35.1 15 8.6 32 13.6 47.8 20.7 65 26.4 129.3 54.8 194.6 80.5 41.7 16.8 83.5 33.4 124.1 52.9 11.4.3-3.9-11-10-11.3l-275.3-115.6c-6.2 4-7.6-6.5-14.6-6.1l-58.5-24.1zm173.8 61.9c14.6 8.1 31 13.3 46.3 20.3l44.6 18.7c5.5-19.1 11.9-38 16.8-57.3-11.5-14-31.5-20.7-47-30.4-12.8-3.4-31.3-22.3-41.7-14.2-5.6 21.2-14.5 41.4-19 62.9m-9.4-4.8c8-21.6 15.2-43.8 22-65.7-11.3-7.4-25.1-11-37.5-16.6-15-5.8-30-12.5-45.5-16.4-9 8.5-8.7 24.8-13.6 36.4-4 12.6-15 32.6 5.7 35l66.7 27.6zm-139.7-124.6c-7.6 19.4-13 39.7-17.6 60 19.9 9.5 40.8 17.2 61.2 26 9.8-9.5 10.9-29.1 16.5-42.8 7.3-15.2 7-28-12.4-29-15.8-5-31.9-9.3-47.7-14.2m343.3 210.7c3.7-10-4.4-21.1-7.7-30.3-15.5-28.9-43-48.7-70-65.8q-9.5 28.6-14.7 58.3c30.8 12.4 61.1 26.7 92.4 37.8m-354-212.5c-21-7.5-43.4-10.7-65.5-13.7-8.4 11.7-25.7 25.7-25.6 38.2a582 582 0 0 0 74.9 33c6-18.9 11.9-38 16.2-57.5m-98 22c8.7-11.8 18.2-23.2 26.5-35.2-10.6-6-19 8.8-25.3 16-4.5 6.6-24.6 28.8-3.8 20.8zm179.7 5.1c-7.7 17.9-13.4 40.8-19 60.7 5.5-7.4 10.4-28.6 14.8-41.9 1.3-6.2 4.8-12.3 4.2-18.8m-1680.6 13c-.9-14.5-4.3-29-3.4-43.5 11.1 3 19.2 13.7 27.5 21.9 1.4 5.9 15-2.2 14.2 7 3.3 4 9.5 12 15.3 8.9l1-.3 1.2 1.5c-3 14.1 4.9 29.1 2.7 43.6-5.6 2.5-10.3-6-15.5-8.1zm10.4-4.4c15.2 17.9 16-17.6 3-22.1-11.2-12-.5 19.3-3 22.1m43.3 30.5c-1.4-8.2-.8-17.5-3.4-25-4.8-4.5-13.2-10.6-10.4.5.7 7.9-1.6 17.6 8 21.2zm-18.5-11.5c2.7-7.5-3-36.3-2.8-15.6-.3 5.3 0 10.9 2.8 15.6m-30.6-23c3.3-7.3-4.7-36.8-2.6-16.4.6 5.5.1 11.4 2.6 16.4m-66.5-40.4c3.5-8.9-5.8-34.8 4.2-34.7 11.6 5.4 19.7 20.2 32.6 21.4 4 13.5 28 11.4 19.3 32.2.8 11 5.3 35.6-10.3 18.8-8.5-5.9-17.4-10.7-23.4-19.3-7-5.3-15.6-9.5-21.7-15.5zm21.7-16.7c-19-22-11 33 1.8 20.8 1-7-2-13.8-1.8-20.8m19.3 38c9.8 11.7 12-.3 10.5-9.3-.2-13.2-16.2-16.4-11.5-1.5q-.1 5.4 1 10.9m-7.2-27.6c-3.9 7.6-.1 40.7 2 17.8-.7-5.6 1.4-13-2-17.8m-28.1 2.9c4-8.8-3.1-32.7-1.4-11.2q-.1 5.7 1.3 11.1m148.2 85.3c-2.3 10 6.6 45.3-11.7 25.2-10.4-6.4-21.5-13.6-18.5-27.1-.7-10.6-3.7-33 9.6-25.5.7 6.6 7.5 8.6 12.1 12.2 10.7-2.8 4 10 8.5 15.2m-5.1 16.8c1.6-12 2.2-28.4-11.7-32.3-6-.3-1.9 22.3 2.3 26.8a31 31 0 0 0 9.4 5.5m-19.8-37.5c-3.2 3.3-.2 12-1 17.3-2.1 12.2 5.8 11 2.5-1.8-1.1-5.1.1-10.5-1.5-15.5m-17-127.2c-.3 8.8 3 17 1.9 26-1.2 6 2.3 15.2-2.5 18.9-9.7-7.3-30-11-27.3-26.6.2-10.4-1.4-21-1.4-31.3 7.7-2.4 18.4 14.9 29.2 13M788 952c19.3 21.9 12.6-35-2-23.3-.9 7.8 1.1 15.6 2 23.3m-6.5-2.3c2.7-7.5-2.5-39.2-1.9-16.3q-.1 8.2 1.9 16.3m30.9 82c1.4-11.8-5.9-33.6.7-39.4 10.7 2.2 21 12 26.1 20.7.3 12.4 3.4 25 1.4 37.3-10.5-4.2-19.4-11.6-28.2-18.5m11.1-4.6c7 8 16.7 11.6 12.6-.7-.3-9.7-1-20.7-13.3-22.6-.5 7.6 1.5 15.5.7 23.3m-7.2-1.8c7.5-4.9-3.6-41.7-.7-17q-.2 8.6.8 17m55.2-50.1c-5.3 12.7 6.6 32.2-3.4 41-9.3-4.6-17.6-11-26.5-16.4 2.6-13.2-8-35.6 1.4-42.7 10 5 19 12 28.5 18m-20-7.7c.9 12.7-4.6 30.6 10.6 35.8 9.1 7.9 4-13.2 4.2-18.4.9-9.1-6.4-12.8-13.3-16.5l-.8-.5zm-6.4-2.2c-3.4 3.5.5 12 0 17.5-.3 8.6 2.9 13.2 2.2 1.3-.5-6.2.5-13-2.2-18.8m-65.7 42.3c-.2-11.5.8-23.2-1.7-34.5 8-10.6 19.2 10.6 28.6 13.6-1.7 12.4 6.3 31.8-1.2 40-8.5-6.5-18.5-11.3-25.7-19.1m10.7-4c5.8 7 16.7 11.5 13.1-1.5 4.2-12-16.7-30.2-13.6-9.6zm-6.1-2.7c3-10.2-.8-29.8 0-10.2zm-8.5 3.6c-9-6.5-23.4-11.6-28-20.7v-34c10.3-5.3 16.3 11.7 27.4 12.8-1.1 13.5 5 29.9.6 42m-4.4-37.9c-9-10.6-17.2-4.7-12 7.5-.9 13.6 16.9 21.1 12 3.8zm-19 14.4c7.2-6.1-1.9-34.5 0-15zm-7.8-37.6c0 11.3 6.4 36-4.3 38-20.8-6.6-24.5-26.3-22.6-45.5-1.9-24 18.5 5.2 26.9 7.5m-3.4 24.3v-20.6c-6.7-8.4-16.6-10.8-13.2 3-1 9 4.2 16 13.2 17.6m-15.2-1.7c5.8 7.3 21.9 12.9 7 2-2-1.3-4.6-1.6-7-2m14.7-76.6c-2.3 12.7 4.6 26.8-.2 39.3-15.6-6.2-30.8-15.2-24.9-34-4.2-11.2-1.5-25 11.5-14.3q7 4.3 13.6 9M726 907.8c6.6 11.2 15.4 7 10-5 5.7-12.6-18.8-27-11.5-6.2.6 3.7 1.6 7.4 1.5 11.2m19.5 26.2c2.7-11.5-8.2-34.3 2.2-38.6 8.5 6.7 26.1 10.5 24 24-1.8 9.8 4.8 22-1 29.7-9-3.6-16.8-10.3-25.2-15.1m9.3-29.6 1.5 25.5c13.2 17.8 16.4-16.8 4.7-21.4zm-6.1-3c-2.7 7.9 3.4 39.8 2.7 17a45 45 0 0 0-2.7-17m868.5 707 53 37.4c-10.6 19.8 18.9 12 27.4 19.4l49.3 34.9c-35.3 15.4-76.9 13.7-114 4.3-25.5-7.8-56.9-22.6-60-52 1-23.4 23.7-38.4 44.3-44m-39.6 38.4c-1.2 39.7 50 54.8 80.5 59.3 26.9 4.6 57.8 2.7 81-7.1l-47.7-33.7c-11.2.9-32.5-2.5-27.6-17.8-7-9.2-20.2-15.7-29.9-23.3-15.5-19.3-38.7-6.4-50.4 10.1a57 57 0 0 0-5.9 12.5m124 12.1c5.1-13.9-15-10.8-22.2-15.2-17-11.5-34.3-23-50.2-35.8.9-15.8 54.6 1.9 51.5-9.4 34.5 2.5 72.6 9.2 96.9 36a34 34 0 0 1-.2 46.7c-10.4 13.7-25.7 19-38 4.6a907 907 0 0 1-37.8-26.9m55.4 33.1c15-7.8 31.2-24.3 24.5-42.7-13.2-31.2-50.8-41.2-81.9-46.1-16.7-1.8-33.7-3.7-50.3.2-12.5-1.4-18.5 6-5.6 11l39.7 27.6c16-2.6 22 10.7 29.2 20.2 14.4 10.6 28.5 21.7 44.4 29.8M387.8 1059.2c4.2-5.7 8.2-18.4 15-18-8.4 7.7-13 24.5 2.4 24.7 21 3 39.8-12.3 60.9-11 7.4-2.6 17 7.5 4.1 3-17-3.9-31.8 5.7-26.7 24-3.4 6.8 1.2-26.2-12.3-16-14.6 3.5-33.8 8-43.4-6.7m26.5 50.8 2.2-20c5.8 2.2 1.6 18.3-2.2 20m-22.5-18.8 6.6-19.2c1 5.5-.5 17.5-6.6 19.2m2573.1 428.5c-2.3 7.8-2 17.4-7.1 23.9-13 14-22.3-16.3-31.4.4-8.3 10.2-29 5.5-26.6 22.2.5 9.3-6.1 21.4-16.9 17.6-5.8-1.5-10.7-8.3-9.7-14.2 0-6.7 2.4-14.3 1-20.4-11.8-14.3-11.3 16.7-23.2 20-10.3 10.9-32.1 7.2-29.7 26 0 6.2-1.6 11.6-6.8 15.3-6.2 0-13 1.4-16.3-5.2-5.8-4.2-1.5-12.2-2.3-18.2 2-11-2.9-12.4-7-.9-9 12-22.5 19.7-37.1 22.5 2.3 9.6-2 28.9-15 29.8-14 .5-17.2-17.3-13.1-28.2-4.2-17.4-30-28-28.9-50.6-6.9-32.2 23.5-64.7 56-61.2 11.8 1.8 24 10.9 29-6 14.1-18.7 42.3-26.2 62.5-13 9 7 8.9-12.2 15.6-15a54 54 0 0 1 56.3-16.3c7.6-13.3 16.9-27.1 32.7-31.3a52 52 0 0 1 31-2c12.5-20 37-33.3 60.7-26.3 13.4-15.3 33.8-27.6 54.9-22 15.9-1.8 25.8-27.9 46.8-26.3a50 50 0 0 1 54 37.8c7.8 24-5.9 51.1-29 60.5-24.5-2.5-8.9 34.6-32.2 31.7-16.3 1.7-5.5-31-19.2-14.2-12 10-33.5 7.6-30.3 29-3.3 14.7-24.5 10.7-25.9-2.7-5.6-1-22.3 7.6-28.5 12.3-2.5 8.9-1.2 24.7-13 25.8-7 1.9-10.8-3.6-15.2-8 .1-19-16.9 7.6-27 4.5-3.1.5-6 1.8-9 2.7m-177.3 59.9c6.5-15.8 9.2-34 .6-49.6-9.4-22.5-39.2-34.2-61-22.5-32.5 13.3-35.6 55.5-15.2 79.4 3.3 11.2 15.2 5.1 18 9.1 5.1 13 19.4 1.4 28.1 6 13-1.8 22.4-12.2 29.5-22.4m153.8-70.7a53 53 0 0 0-11.4-43c-15.2-17.5-45.4-20.8-62.2-3.5-14.5 10-19.2 27-5 39 5 11.2 8.7 24 5.8 36.2 3 8.6 12-1.5 12.5 7.4 10.1 7 20.9-.2 31.5 2.2 10.4-4.8 21-13.6 24.5-24.8zm-164.8-1.2a68 68 0 0 1 22.3 56.2c2.3 9.6 11.7 16 21.3 11a36 36 0 0 0 35.8-18.3c18-26.2 5.8-69.2-26.3-77.4-21.1-6.4-45.9 8-53.1 28.5m223.8-12.6c13.2-22.7 10.8-57.3-14.6-70.6-23.4-14.7-61-.3-65 27.6 19.3 11.8 28.8 36 26.2 58.2 11.6 6.3 16.3-1 27 2.7 11.5-1 19.1-10 26.4-18m67.3-70.4c-8-24-36.3-41-60.9-29.5-11 4.6-33.5 23.6-11.4 30.6a57 57 0 0 1 16.4 56c2 9.3 18 2.4 26.2 4 10.7-2.9 21.2-11.5 23-22.8 10.4-9.6 8.8-25.7 6.7-38.3m81.2 9.5c14.3 7.6 28.7-7.9 36.3-19 4.1-6.8 4.2-15.4 6.3-23a45.7 45.7 0 0 0-55.3-46c-16.3 3-42.6 24.3-17.9 33.9a57 57 0 0 1 13.3 52.1c-1.9 7.2 14.1 4.9 17.3 2m-60.2 28.3c29.8-2.3 48.3-38 35.8-64.4-8.8-25.8-44.9-35.8-66.2-19.4-14.9 5.5-14.5 16-.7 22.5 16 14.5 20.2 38.3 14.1 58.6 5.5 5 12.1-1 17 2.7m-342.8 148c-11-8-20.5-3-18.1 9.7-4.8 10.2 11.3 21.5 15.5 8 1.8-5.8 0-12.1 2.6-17.7m72-28.7c-7.9-1-19.4-5.2-17.6 8-6 18.9 18.8 21 16.3 2.7zm61-6c10.3 12 17.3-3.7 16-13.4 4.2-14.5-23.8-10-16.7 5zm139-60c9.7-10 3.8-34.6-10.8-21.3-2.1 8-2.8 26.1 10.8 21.2m-77.9 19.1c6.6 16.7 22.2.8 18.4-12.4-6-12.4-18.1-1.8-17.4 9.2zm188.2-73.2c11.8 16 22.5-14.3 11.5-18.6-16.5-7.9-10.3 9.6-11.5 18.6m-63.7 10.8c-8.3 14.3 13.3 25.7 14.6 7.7 6.3-9-6.8-19.5-12.3-11.1zm-1055.9 20.3c13.8 12.6 31.4 20.5 46.5 31.4 25.3 16 49.9 33 75.6 48.3 27.6-8.2 54-20.2 81.7-28 21.2 10.5 41.5 23.2 62.2 34.9 11.2 7.1-8.4 9.1-14.5 12.5l-114 42.2c-9.6 3.4-16.6-6.3-24.7-10-83-51.4-166.4-102.5-249.2-154.4-7.8-2.2-16.7-3.4-4.3-7.5 40-14.2 80.4-27.2 120-42.1 11.4-5.8 23.2 10.3 34.7 14.1 6.7 6.5 37.6 14.3 19.4 21.2-18.9 7.4-38.6 13.2-57 21.8 2.9 6.5 18 9 23.6 15.6m203.3 54.6-81.5 29.1c-42-25.6-82.5-53.3-124-79.5-10.7-7.1-22-13.4-31.9-21.6 8-2.3 23-6.2 33.1-10.6 8.1-5.4 36-8.3 31-17.1l-44.6-26c-39.9 14.3-80.3 27.8-119.9 42.6 5.8 8.8 18.6 13.4 27.8 19.9 80.1 49 159.4 99.4 239.7 148l129-48c1.3-5.5-10.4-7.4-14.5-11.3zM789.6 1121c-6-10.6-3.2-24.5-4.3-36.4 5-14.3 19 7.7 27.6 10.9 1.4 15.1 3.8 30.3 4.5 45.5-10.1-5.5-18.5-13.4-27.9-20m21.3.8c2-11-4.5-36.9-14.5-29 2 11.8-1.4 25.8 14.5 29m-18.6-12.6c3.9-10-5.4-32.4-2.3-11.9 1 3.7-1 9.8 2.3 12m-148.7 9.8c-6.3-16.2 19 1.5 15.8-16q-.8-31.1-4-62.2c6.9-20-22-18.6-21.1-35.1-1.2-23.1-2.9-46.1-3.6-69.2-2.2-17-1.4-34.3-3-51.4-.7-28-5-55.8-4-83.7 14.2 7 31.6-2.2 47.2-3.2l121.3-21.1c16.9.4 33.5 4.6 50.3 6 25.9 3 51.7 8 77.5 9.6 23 13.2 44.9 28.7 68.7 40.4l45.8-11.2c28.4 14.6 55.7 31.3 83.8 46.5 8.1 4.6 16.1 9.4 24.5 13.5 5.3-11 1.1-26.7 2.8-39.4 0-31.9-3.2-63.7-2.2-95.5.7-16.4-7.5-43 18-39.2 30-4.5 59.7-11.5 89.8-15 16.3 4.4 34.3 4.6 51.3 6.4 21 2.5 42.6 3.1 63.2 7.3l130 58.6c7-1 13.6-3.3 20.4-4.9 2.5-21-1-42.3 2.7-63.1.1-18.5-1.2-37.2.1-55.6a82 82 0 0 0 21.6-2c60.2-9.4 120-20.5 180-30.8 36.4 7.1 73.8 9.4 110.3 16.2 5.8 7.8-3.7 28 14.6 28.7 18.2 6.2 36.3 14.2 54.8 19q29.5-5.6 59-11.6c-2.3 8.2 11.4 6.7 16.3 10.2l250.5 88c13.8 5 28 9.4 41.5 15.2l-17.9 176.7c5.9-1.8 11.1-11.3 12.2-3a816 816 0 0 1 202.2-57.8c27.9-6 56.5-10.5 85-5.3 21.1-1.5 41.7 4.2 62.7 5.9 18.3 2.7 36.7 8.2 55.3 5.1-10.4 8.2 15.8 6.5 21.4 10.5 21.6 5 42 14.6 63.7 18.5 7-.3 16.5 0 5.6 3.2 29.6 14 60.6 24.8 89.5 40.3 12.5 7.5 23.5 7.2 32.3 16.2 37.3 20.3 74.3 42 106.8 69.5 5.3-.2 19.2 2.8 6.9 3.2-1.5 4.5 8.2 9 11.6 13.3 22.6 20 43.1 51.1 33.7 82.6-4.7 7.3-2.4 17.6-7.2 22.2-20.4 26.9-37.9 56-56.3 84.4-11.6 10 10 2 1.3 7.7-17.5 7.3-23.9 28.2-34 43.2 14 .4-13 10.6-10 21-2.8 8.7-13.1 32.4 5 23.6 9.5 4.4-21.4 3-11.6 15.8-1 9.7 3.7 16 12.7 10.2-2 6.4-13.7 7.3-5.9 17 6.9 16-5.1 2.8-7-6.8-20.4 5.6-39.3 16-59 23.6-50.8 22.2-103 41.3-154.7 61-18.4 8.3-22.4 30.8-29.1 48-3.8 9.5-6.3 20.1-11 29-8.1 3-7.7 12.8-11.1 19.5-.4 7.3-7.8 8.2-13 11.1q-72 34.4-144.3 68c-20.6 5.9-1.2-15 7.4-18.9 11-10.1 25.4-18.2 33.8-30-5.8-3-10.1 5.6-15.3 7.8-14.8 11.5-30.4 22.2-44.7 34.3 5.2 3.5 11.9 11.2-2 5.6-60-32.6-119-66.8-178.8-99.6-37-20-74-40.1-110.1-61.7-8.3-11.5-16.9 1.5-5 5.3q179.7 102.2 359.7 204a169266 169266 0 0 0-423.1 178.7c-1.2 10.7 2.3 25.8-11.2 30.1-18 7.4-15.7-25.5-31.1-12.3l-53 22.7c-1.7 7.7-1.8 16.2-4.4 23.4-3.5 6.1-10 5-16.2 4.8-10.9 0-12.4-21-24.7-9.3-12.8 9-40 8.6-43.5 24.6-.4 6.3.7 13.2-5.5 17-3.4 5.8-11.7 4.3-17 2.7-6.8-7.9-11-15.4-21.1-7.5L1849 1994c-5.8 9-1.8 21.2-12.2 27.3-10 4.4-18.3-3.3-22.8-11.4-14.6 4-29 11-43 17.7-13.2 8.4-34.4 10.8-28 31.2 2.3 8-4 18.3-12 19.4-7 1.5-12.1-1.6-16.3-7-2.2-9.6-3.7-22.7-16.1-13.7l-68 29.2c.3 14.4-4.4 42.8-25.2 31-4.9-3.9-9.1-8.2-9-14.8-11.3.4-27.1 10.3-39.9 14.8-12.3 7.5-31.7 9-39.2 20.3-1.2 6.8 2 15.3-4.8 19.7-9.7 13.2-25.4-1-30.7-8.1q-67.1 26.9-133.2 56.3c-16 13-27.3-17.9-40-26-52.7-54-106.5-107-159.7-160.5-11.9-10.3-15.3 21-28.7 24.1-8.6 6.8-25.9 8.4-14 26.5 10.2 26-33.9 29.4-30.5 3.6 6.3-26.4-25.6-25.6-36.7-44-7-7.9-22.4 4.8-29.9-7.7-3.6-8.6-1.4-19.4-3-29-7.1-14.4-35-16.4-38.1-36.9-9.4-9.3-6.4-23-8.9-34.9-12.2-9.8-29.3-17.5-36.5-33.2-4.6-10.8-7.7-19.6-7.3-4-2.2 13.1-19.7 14.7-26.7 5-4.5-15.2 0-32.8-19.7-36.4-9.2-5.1-15.2-16-27-14-4.5-2.6-11.4-6.1-10.7-12.4l-2.6-21.7c-16.5-10.3-41.8-16.2-41.4-40 .5-9.8-8-13.4-15-18.1-6.8-5.8-14-9.3-22.9-9.5-9.8-3.4-7.8-13.7-9.5-21.8 2.4-15.2-16.7-13.6-24.2-23.1-20.6-17.9-28.1-52-10-74.2a65 65 0 0 1 36.5-23.5c-12.6-16-33-26.5-52.2-33.4-23.2-5.4-41.8-19.9-57-37.6-9.2-5.6-16.5-21.2-28.5-15.7-17.5 3.6 11.7-4.1 1.2-11.6-6.6-15 3.6-34-7.5-47.2-17-9.3-37.5-12.4-51.8-26.5-18.5-17-40.9-32.8-48.5-58.2-2.1-14.6 9.1 12.6 12.4 17.2 10.3 16 26 27.3 40.2 39.8 14 12 32 16.6 48.7 23.4 6-19.3-20.4-26-29.8-33.4q-6.5 7.4-16.2 5.7c-6-3.3-7.8-9-8.4-15.5s-2-12.5-9.4-13.5c-5.5-4.6-12.8 2.3-17.6-3.5-11.6-6.8-3.9-28.3-21.4-30a53 53 0 0 1-27.2-46c-4.8-5-9.5-10-11.4-16.9-13-15.7-27.1-29.8-33.4-50-15.1-15.1-19-39.5-20.2-60.5 8.6-9.6-5-.8-7 0-8.2-4-18-23.5-22-20.3 8.2 13.7-10 30.5-19.1 14.2-2.4-6 0-15.5-7.5-18.2l-16.4-9.9c-11.6 19-26.5-1.6-23.9-15.3-6.8-4.4-17.4 7.2-22.8-4.6 2.3-22.3-23.9-24-31-42.3a37 37 0 0 1 2.8-39.7c12.6-18.6 41-23.9 57.6-7.5 6.7 7.4 13.2 14.9 22.3 19.4 10.6 11.6 22.2-3.9 32.8-8 34.5-17.4 73.6-31.5 112.7-23.7 18.1-.4 33.2-14.4 51.8-14 16.6-1.8 33.6-3.1 50.3-.2 20-2 42.5 12.5 33.6 35-6.2-2 1-23.7-12.2-12.2-10.7 1.8-11.8 13.8-13.1 18.2-2.4-12.1-6.7-3.6-8.7.1-5.6-7.1-10.8 5.4-19.1 6.5-9.8 5.4-29.9-1.7-33.5 7.9q36 30.3 72.3 60.4c13.2-2.5 26.1-7 39.6-7.5-7.9 4.7-18 4.8-26.8 7.6-12.9.7-7 6.5.4 11.5l48.4 40.8c11.4-1.4 31.2-3.8 35.8-10.5-18.6-17.1-39.5-31.8-57.8-49.4M1571 1441c-15.3 1.4-28.4 10.1-43.4 12.3-70.3 21.7-140.3 44-210.7 65.4-115.3 36.3-231 71.5-346.3 107.8l-107.8 33c-8.3 3.5 6.2 10 9 15 27 25.9 52.7 53.5 80.4 78.6 11.2 8.6 20 20.4 30.7 30 64.5 63.7 130.2 126.4 194.4 190.5q33.1 33 67.1 65.3c37.7 37.5 75.5 75 114 111.5 18.1 2.2 36.8-13.7 55-18.5 15.1-8.4 40.8-12.7 49.4-23.8-4-6.8-11 1-16.5 2-28.4 11.4-56.4 23.8-85 34.5-22-18.7-42-39.6-62.8-59.4l-86-84c-12.5 1.8.8-9-13.1-12.8-31-28.4-59.6-59.3-90.8-87.5-45-43.2-88.8-87.4-133.7-130.5-4.4-5.3-20.7-12.5-5.5-11.7a752 752 0 0 0 45 45c11.5-6.7 37-3 32.2-22.2-3.2-14.5 2-37.2-4.3-47-24.5 7.6-48.6 16.2-72.9 24.2 2.4-7.3 13.5-6.3 19.6-9.9 50.6-17.6 101.7-34 152.2-51.6 7-5 11.8 5.9 17.6 9 26.7 23.9 54 47 81 70.6 26.7 23.1 54 45.7 80 69.6 24 21.6 49.7 41.5 73.3 63.5-2.6 6.2-13.6-8.6-19-12a7033 7033 0 0 1-96.7-84.1c-29.7-24.7-58-51-87.8-75.6-14.9-13-29.3-26.7-45.1-38.5-26.1 8.5-52 17.8-78 26.5 3.5 14 25 26.9 36.8 37.7 6.8-1.8 9 8.2 16 6.7 3.1 6.5 13.2 17 21.4 23.5 37 32 71.8 66.2 109 97.9 16.1 11.8-17.8 13-26.3 18.8-23 8-46 15.4-69 23.3-4 5.5 7.3 9.9 10.3 14.8l43.2 42.7c61.9-24.7 122.8-52 184.7-76.7 4.5 5-19.9 10.4-27 14.6l-147.8 62c-11.9 7.4 6.2 1 10.8-1.5l180.1-72.3c-32.3-30.6-67.6-57.9-100.6-87.9-26.2-23-53-45-79-68.4q-39.1-33-77.5-66.9c-8.2-4-17.3 3-25.7 4.7q-81 26.8-161.6 54.4c-13.2 1.7-21.7-18-33.5-26.2-20-20.7-42.9-38.5-61.5-60.5-2-7.5 14-7.6 20.4-11 182.5-57.5 365.2-114.4 547.7-172 6.8-1 11.9 6.8 18 9.7q75.3 53.7 151 107c8.5 9.3-19 10.5-23.2 20.8-16.1 11.4-21.8 35.9-10.1 52.4 22.7 30.5 62.4 41.4 98.8 43.5 27.9 4.6 56.5-6.2 82.6-11.7 54.8 38.1 108.8 77.4 163.6 115.4 11.2 4.8 18.8-1.4 6-6.7-53-38-107.2-74-160.1-112-.3-6.9 20.5-14 24-25.8 12.4-19.4.4-43.7-17-55.7-26-19.4-59.2-26-90.8-27.6-20.6-5.1-43.2 6.7-61.8 7.5-35.1-22.8-68.5-48.2-103.3-71.5-22.3-16.1-46-30.4-67.3-47.7 29.3-11 59.9-18.4 89.1-29.5 14.2-2.2 27.2-9.1 41-12 16.6-5.8 33.5-9.8 50-16-19.1 1.6-38.2 12.4-56.9 17m955.4-100c11.4-2 23.4-3.3 34.3-5.4-17.8-3-38.3 3.9-53.2 14 6.2-3 13.6-4.1 19-8.6m-203.9 134c2.8 7.4 29.2 14.6 13 6.5-17.7-12.7-80.1-25.2-56.2-30.1 1.9 5.2 12.9 8.7 19.4 12.8 7.8 3.8 15.2 9.4 23.8 10.8m-192-26.2c4.8 7 25.2 12.6 8.8 3.7-16.4-7.4-32.2-20.2-50-28.6-14.3-8.6-6.8 1.9 1.8 4.7 13.1 6.8 25 16.5 39.3 20.2m-1205-99.8c-2.6-6.5-30.4-25.2-14.2-9.8 12.9 8.6 23.2 19.5 35.3 29.3 23.6 20.3 47.8 39.9 71.8 59.7 4.8-4.7-6.4-7.6-8.9-11.5a6436 6436 0 0 1-79.6-65.7c1.7-.4-6.1-2-4.5-2m1197.2 18c14.3 8.7 29.2 19.6 45.3 23.3-11.8-8.4-25.2-14.1-37.7-21.3-10.5-4.7-20.9-12.2-32.2-17.7-37.7-21.2-75.6-41.8-113.4-62.8-13.4-2.2 4.3 7 9.2 9.3 41.4 21.7 81.8 45.3 123.3 67 1 1.7 4.6.4 5.5 2.2m359.8-75.9c-20.7-11.4-42.8-20.3-64-30.8-10.5-7.5-3.8 9.6 3.4 10.2 13.8 6 27 13.4 41.1 18.3 6.5 1.3 14.2.6 20 3 5.2 9.9 16.8 12.1 25.5 17.8q20.5 10.8 41.3 21.3c10.1.2 31.4 5.6 8.8-5.4-25.5-11.2-50.2-24.4-76.1-34.4m-1661-145.9c11.6 7 26.4 22.3 36.6 26.4-8.4-9.5-4.8-23.9-7.2-35.6-5.9-18 14-6.7 18.3 1.3 9.4 2.3 12.8 22.8 12 4.3 1.1-15.1-20.5-16.8-29.5-26.6-4.3-4.4-1.8-13-3.3-19.2-.4-7.6-1.5-15.3-2.4-22.5.2-5.5 8.9-1.8 11-3.7-.3 7.3 5.3 10.5 10.9 13.7 13.6 12.3 9.1-14.8 8.7-23.5.2-6.4.4 25.9-13.2 8.8l-15.7-10.6c-1.2-15.5-5.6-34.3-1.7-47.9 7 8 22.4 21.2 29 19.9-.6-19.3.2-39.3-4.5-58-9.4-9.8-22.1-17-34-23.3-.8 15 5.3 33.6.3 46.4-14-7.8-32-15-28.8-33.8 0-9.6-7-33.7 9.6-21 7 5.6 21.8 9 7.3 0L630.2 813.4c-7 5.3 10.4 8.7 14.6 13.5 21.8 14.5 43.9 28.4 65.8 42.6-3.1 13 4.4 26.5 0 39.3-10.8-5.5-28-11-25.3-25.8-1.8-13.5.3 8-4.7 5-10-4.7-24.3-9.5-23.8-22.5-3.8 8.2-9.2 0-14-2.7-5.7-4-16.7-14.3-11.7.7 4.3 7.1 13.2 10 19.6 15.1 12.2 4.6 2.2 31.4 8.5 34.5 3.7-6.4-7-32.9 3.5-26.5 6.4-1.5 6.6 5.6 11 9.4 10.6 3 14.6 11.2 12.2 22.1.6 15.6 1.7-23.2 11.6-8 9 9.3 21.8 15 17.9 31 .9 8.7 2.8 29.3-10 16-14.4-12.3-34.7-20-46.5-33.4-8.6-6.6-30.2-26.3-25-1.9-.8 9.5 1.7 16.7 1.6 5-2.4-8.3 10.2-9 11.5-1.4 9.3 4 12.1 15.2 22.5 14.4 12.7 8.4 24.4 16.9 20.3 34.6-1.4 8.5 5.9 26.6-8 15.2-19.7-5.7-19.4-22.7-19.5-40-1.1 8.8 3 31-11 17.7-9.9-8-18-10.6-15 3.8 11-.6 16 9.5 25.2 14.6 4.6 4.7 1.4 13.1 2.6 19.4-1.5-11.2 4.7-18.6 12.5-8.7 11.3 6 17 13.5 16.5 26.3-1.2-19.5 15.4-4.9 21 2 11.7.7 3.8 17.6 13.5 9.4 11.5 5.8 27.7 15.6 25.1 31.7 5.5 11-4.1 25.7-2.3 27.2 9.8 7.4 21 13.7 29.8 22.7 14 9 28 18.5 40.9 29zm959.4-515.6c-14.1-.6-27 4.8-8.6 8.7 38.6 12.9 76.7 27.3 115.4 40.2 16.7 3.7 33.4-3.2 49.8-5.7 10.4-7-7.6-3-12.2-1.7-13.7 2.6-28 8-41.2.1-33.8-12.6-68-23.8-101.6-37-4.7-7.9 8-4 12.6-5.6l21.6-1.6c-12.5-6.2-23.6 0-35.8 2.6M765.5 1223.1c-12.8-13.9-28.7-25-42.8-37.6-7.8-7.7-16.2-15.1-27.2-9.2-8 2.5-16.7 3-24 7.1 17.9 16.6 37.1 31.7 55.7 47.5 13-1.5 25.2-7.1 38.4-7.9-10 6-22.2 7.1-33.1 10.8 17.9 17.3 37.1 38.4 59.2 47.8 6.6-3.5 39-4.9 27.7-14.8-17.7-14.9-34.8-30.6-53.9-43.7M1861 1466.9c20.4 15.6 43.8 27.8 65.7 41.8 66.9 41.2 133.5 82.9 200.5 123.9 8 7.5 18.2 9.9 27.5 3.9 44-16.7 87.6-34.1 131.6-50.4l133.8 76.4c-27.1 13.4-56 23.5-83.7 35.5-56 23.5-112.6 45-168.4 68.8-14.5 4.3-4 13 4.3 5.5l257.3-104 36.6 21.3c-25 12.5-51.5 21.4-77 32.7-69.2 29-139 56.3-208.1 85.5-13.1 10 5.7 8 11.9 3.1 94.7-38.8 189.2-78.2 284-116.9-3.2-11.1-29.3-18.3-41.3-27.8-67.5-38.1-134.4-77.4-202-115.3-17.3-9.7-34.2-20.4-52-29.2-2.9 8.7 41.6 18.3 14 24.3-20 7.6-40.6 14-60.4 22.2-40.2-25-81-49-121.3-73.7-6.8-3-26.8-12.8-23.2-17.4 12.3-.1 23.4-7.7 35-11.4 9.9-4.5 21-7 29.8-13-11-13.9-33.8-21-49.6-31.9l-126-71.9c-4 3.6 9.9 7.8 13.8 11 30.7 17.7 61.4 35 92 52.8 3.8 6.2-10.1 5.8-14.4 9-37.3 13.6-74.8 26.5-111.7 41-7.9 3.1-2.5 2.2 1.3 4.2m357.7-4c5.1-7.6 17.3-5.3 5.3 2.3-5.7 7.6-29.6 17.2-23.3 24.5a607 607 0 0 1 45 24.4q27.6-19.3 53-41.1c-.6-9-21.2-13.5-30-20.6-9.4-2.3-20.3-16.6-29-9.9-6.7 5.8-15.2 10.6-20.7 17-3.2 9.2-28.7 15.7-25.2 24.4 8.5-6.7 17.7-13.1 25-21m467.7 20-34.7 35.2c-14.8 5.6-22.8 20.2-33.7 31-13.1 15.2-27.6 29.3-40.2 45-.6 10.3-18.2 4.6-24.5 15.3-11.9 10-25.2 19-35.6 30.6 16.2-5.6 31.2-14.4 47-21.3 15.8-8 32.7-14.3 47.7-23.9 10.4-12.4 19.9-25.8 30.3-38.4 18.2-23.6 37.6-46.3 54.1-71-2.5-2-16.6-.7-4.6-4.5 9.7 1.8 20.8-22 10.2-14zm-990-864.2c-9.6-2.4-29.8 4.4-43.4 5.4l-121.7 20c0 8 25.9 11.4 35.3 17.5 106.9 42.8 213.5 86.4 320.7 128.6-5.7 5.3-15 4.4-22.4 6.7-67.7 14.6-135.6 28.5-203.4 42.8l-31.4-15.3c-6.2 4.6.7 11.6 7 12.7 9.4 3.6 18.2 12.7 28.9 8.9l247.8-51.6c-28-12.4-57-22.4-85.3-34.2-91.5-36.7-183.4-72.3-274.7-109.4-10-9 18.8-8.5 25.3-11 38.6-7.5 77.6-13.3 116-22.3 11.6-1.4 32.4-2.4 48.3.5 9.6.8 32.5 5.2 34 2.3-19.4-2.7-38.8-6.4-58.5-7a47 47 0 0 0-22.5 5.4m848.2 852.2c-23.5 27.7-50.5 52-75.1 78.6 10.2 11.4 18.3-2.1 25.2-9.4q28.2-29.6 56.5-58.8c6.6-11.4-18.2-14.1-25.9-21.1-17-6.3-38-29.4-50.8-6-5 9.3-33.7 24-19.7 32.7 11.2 3.8 5.6 10.6-1.4 16.4-7.2 7.7-15.5 14.6-21.3 23.6 10.5 8.3 31.8 28 42.7 10.5 21.5-21.6 43.3-43 64-65.4 1.4-.5 4.1-2.3 5.8-1.1M391.8 1091.2c7 13.4 11.8 30 3.8 44.5-10.9 6-4.4 25.4 3 9.8 22.6-41.6 59.1-79 106-91.2 16.8-5 38.2-6.6 51.5-12.9-29.3-4.5-58.2-11.7-87.7-15.7-33.5-3.5-65.8 10.6-95.4 25-10.3 3.8-36 19-14.2 22.8 12 2 25.6.4 31.4 16.6zm1982.7-114c9.2-24.4 36-35.4 57.9-47.1a557 557 0 0 1 124-42.2c-19 .4-37.7-4.9-56.5-.2-75 10.4-149.5 27-219.6 56.1-11.1 6.8-31.8 6.6-32.8 22.7-7.8-2.7-71.4-27.5-22.4 17.5-24.5 30.9-32.9 70.5-37 108.8-2 19.6-1.6 39.6-.7 59.3 5.5 7.9 9-5.1 6.1-10.5-8.8-6.9 2.1-5.7.9-13.2-1-14 3.3-27.6 1.6-41.5 2.7-14.8 11.7-32 7.5-46.2 8.9-2 11-19.5 17.2-28.6 11.3-20 26.2-40.4 47.5-49.8 19.5 1.6 39.3-.9 58.4 4.9 20.5 4.6 41.3 8 61 15a2216 2216 0 0 1 151.6 52.5c20.3-42.2 64.7-65.2 104.7-84.8a325 325 0 0 1 96.1-23.4c-45.5-17.1-95.8-37-143.7-14.5-46.4 13.7-94.6 29.8-131 63-7.2 3.8-15.5 26.7-18.5 20.9 16.5-34.8 55-51.3 88.4-66.6a473 473 0 0 1 99.4-29c-3.1-5.9-25.3-5.6-36-7.5-17.6-4-36-4.9-53.4.9-38.7 9-76.3 23-112.4 39.6-21.3 10.5-42.7 23-56.6 42.9zm-824 1038.7c4.5-22.5 13-48.7 37.3-58 22.2-14.2 51.6-6.5 69.6 10.7 9.2 4.7 11.9-8.2 13.4-14.9 11-36.3 60.4-56.8 91.6-32.7 17 14 15.3-11.4 19.2-21.6 6.5-19 23.6-32.1 42.2-38.2 17-5 34.6 1.4 49.3 9.6 8-18.7 18.2-37.6 39.6-44.5 2.4-6.6-9-8.8-13-13.3q-73.3-52.2-146.9-104a192 192 0 0 1-92.9 10c-29-2.8-58.9-12.3-81-32-15.8-13.6-22.3-39-9.2-56.6 4-14 29.7-19.3 32.4-28a8418 8418 0 0 0-163.2-115.3c-103.9 31.6-207.3 65-311 97.2-83.8 26-167.3 53-251.2 78.7-9.9 3 5.3 9.5 8.2 14.3 24.5 24 48.2 48.8 73.8 71.6 13.6 2.7 28.4-8.8 42.3-11.2 50.7-16.6 101.2-34.3 151.9-51 1.6 3.2 4.6 10 11 13.7 30 26 59.7 52.2 90.1 77.8 49.5 42 98 85.4 147.3 127.6l14.9 12.3c-55 22.3-110.5 44.3-165.6 66.6-10.9 4.6-22.1 8.4-32.6 13.6.2 7.2 13.6 13.7 19.1 21.2q42.1 41.8 85 82.8c13.6 7.4 29.5-8.4 44-11.6 23.9-10.2 48.3-19.2 71.8-30.1 5.3-17.4 9-42 28-53.3a59 59 0 0 1 78.8 3.8zm-95.8-533.1 165.3 115c51.8-13.4 112.6-10.2 156.7 22.7 17.4 13.1 27.6 39 14.1 58.4-4 13.1-33.8 21.4-10.3 31l158.3 110c11.8 6.2 28 15.8 30.7-3.6 16.8-26.6 55.8-39.6 83-19.3 13.4 6.5 11.6-22 23.4-26.8 21.7-26.1 59.4-19.6 82-3.2 48.7-19.7 97.2-39.8 146-59.4q52-21 103.9-42.5c-.3-10.6-21.8-15.2-31-22.9q-45.5-26-91-52.3c-45.4 16.4-90.4 34.5-135.5 52-8.8 10.3-19.2-4.6-28.6-8.4-88.4-54.4-176.5-109.4-265-163.5-18.3-7.5 3.7-12 13.6-15.2 36.5-13.2 73.3-26 109.2-40.9-35.2-21.9-72-41.5-107.7-62.5-84.5 25.8-168.7 52.8-253 79.2q-80.3 24.9-160.4 50.5c.9.1-5 1.7-3.7 1.7m-435.3-233.4-143.2 35.2c-21.6-1.4-13.4-27-16.6-41.4 4-9.4-8-26.3-6.2-7.7-1.3 9.8 9.9 46.4-8.8 28.8-9-14.7 3.1-38.6-9.2-53.2-3.4 13 8.4 36.1-1.7 43.2-18.2-5.4-13.6-23.4-15-38.1-.3-16.9-9.6-51.9-3.7 12.6 1 4 .4 15.2-5.1 9.3-11.4-5-10.5-15.4-10.6-26.5-1.1-9.3 3.5-23.8-4.1-30.4-3.3 10.8 1.5 26.2 1.5 38.8-3.6 8.5-20.7-6-17.1-14.9-.5-12.3.2-24.7-1-37-8.7 4.8 2 27.1-2.5 38.3-4 3-17.3-6.3-14.5-13.5q-.6-20.2-2.8-40.3c3.6.5-109-73.2-2 13.2.9 10 5.8 39-10 22-6-4.6-2.6-14-4.2-20.7-1-9.8-.6-20-2.4-29.5-6.7 8 2.4 27.7-1.8 40l-1.4 1.7-12.7-8.7-3-45.3c-3.4 13-1 26.6-1.6 40-22.4-7.2-9.8-37.3-15.2-55.5-3.2.9-.3 11.6-1 16.4l.5 24.9c-23.2-4.5-10.4-33-17-48.8-1.4-1-1.6 22-.5 30.4 2.8 13-7.2 3.4-11.3-1.2-2.4-12.2-1-40.5-5-43.3-1.6 11.7 1.4 23.2.8 34.8-4.6 6.8-10.3-5-11.6-8.2-20-.3 10 15.2 14.2 21q187.9 154.3 376 308.2l342.5-99.7c99.8-29.8 199.9-58.9 299.7-88.7a5380 5380 0 0 1 202.8-57.7q55.9-16.6 112.1-32.5c15.4.5-5.8 6.3-11.5 7.5-66.8 18.3-133 38-199.5 57.3-94.4 27.9-189 54.7-283.3 82.7-96.8 27.7-193.3 56.8-290 85q-80.8 23.7-161.6 47.7c-10.5 9.8 16.7.3 22.5-1.3 84.8-24.5 169.4-49.8 254.4-73.8 36-11 72.5-20.5 108.3-32 8.3-3.3 17.5-4 26.1-7.2 78-22.2 155.7-45.4 233.7-67.7 103.6-30.3 207.4-60 311-90.2 7 4-16.4 7.2-22.6 10q-260.1 75.8-520.7 151c-5.8 1-18.3 4.8-7.3 9.2q25.4 16 51.2 31.7c.4 10.7-4 32.3 12.2 22.7l321.3-94.4c65.6 36.3 130.4 74 195.8 110.8 6.9 6.3 18.1 3.7 6.7-3.7q-33.1-19.7-67.2-37.7c-14.5-8-29.2-16.8-43.9-24.8-8.4-9-30-9.8-31-21.9 1-5.9 9.1-7.7 13.1-12 14.8-10.4 29.1-21.8 44.2-31.7 6.4-1.7 12.8-3.1 16.7-9 20.6-20.6 40.7-41.8 61.8-62 8-2.7 14.2-7 19.6-13.7 7.9-5.8 8.9-12.3-1.8-14.7l-35.4-17.7c7.7-9.3-16.5-3.6-3-10 5.8-1.3 31-9.4 17.5-12.2 5.3-6.6 30.5-8.4 12.2-15.2-9.5-6-25.4-14-21.2 4.5-.2 17.4-28.5 11-40.8 19.2-51 13.3-101.6 28.7-152.2 43.6-19.4-7.5-37.6-22.6-57.9-25.4-119.5 31.8-238.8 64.7-358.3 96.5q-37 10-74 20.3l-45-29-68.5 17.3c-7.7-6.1-16.4-6.5-25.3-2.4l-93.2 24.8c-12.4 12.2-7.7 39.5-6.4 56.8 3 5.3-20.3 17.9-26 6.7-10.3-7.3-1-23-4.2-33.8-2.4-11.8 3.3-29.1-7.8-36.7zm786.5-401c-13 .6-25.8 5.4-38.7 7.8q-128.3 28.7-256.4 58l-227.6 51.3c-65.6 15.5-131.7 28.6-197.1 44.8-2.2 23.5 2.4 46.8 1.4 70.2-.4 12.3-.3 31.7 16.1 23 164.7-39.2 330-76.6 494.6-116.2 7.1-1.2 14.6-4.7 21.5-4.6l17 10.7c.6 21.2-2.3 42.4-1.5 63.7-.2 15.8.4 31.7-.5 47.4-16.5 9-38.4 10.4-56.9 16.5q-102.5 26.2-205 52c-31 6.6-52.7 31-81 43.3a243 243 0 0 1-73.5 29.4c-39 11.4-78.5 21-117.7 31.4-10.7 8.6-2.4 29.4-5 43 2.1 12.7-4.2 33.7 3.7 41 12.5-1.6 6.7-15.8 7.9-24.1 2.9-14.2-.6-30.5 3.7-43.3 13.3 1.5 26-4.9 39-7.4 32.3-8.5 64.5-17.6 96.9-26 38-9.6 75.6-20.5 113.6-29.8 9.4-16.8 4.6 10 5.1 17.7.7 12.3-6.9 36.2 12.8 25.6 136.3-38.1 272.9-75.4 409.2-113.3 17.6-5.5 6.2-31.2 10.5-45.8 2-27.7 1.5-55.4 3.4-83 .1-28.5 2.5-57 2.5-85.5 2.4-25 .4-50.4 3.3-75.4-.4-7.4.5-15.1-1.3-22.4m-175.5 255.7c1.1-26.8-.1-53.7 1-80.4 4-15.2 3.4-36-16.7-24.2q-262.9 64-525.6 128.5c-12.6 11.3-.3 31.7-3.7 47 0 22.6 0 45.2 2 67.8.5 11.1-.8 22.5 1.4 33.5a4792 4792 0 0 0 153.6-40.6 403 403 0 0 0 96.2-52.2c27.3-16.4 59.8-18.7 89.6-28.2zm400 31.7c1.2-23 3.4-45.8 4.4-68.7 2.2-19.1 2.3-38.5 4.2-57.8 1.3-32.8 4.7-65.6 6-98.5 1.7-18 2.3-36.4 3.6-54.6-1.4-9 9.8-37.5-7.2-30.6l-178.6 42.7c-11 17.8-3 40.6-7.4 60.4-1.5 37.2-4 74.3-5.1 111.6-1.3 16.4-1.2 32.9-3.1 49.1.4 22.2-2.5 44.3-2.3 66.5-.2 12.3-9.3 42.2 12.2 30.2 58-16 116-32 173.3-50.3m25.1 308.6c13-22.9-17-28.7-31.1-38.6-58.3-32.6-115.8-66.6-174.5-98.3a81273 81273 0 0 1-327.8 96c-13.5 1.2-.6 36.6-14.6 21.7l-208.7 62.4c-7 13-17.3-14.3-29.4-3.4l-178 53c-7 5.4-23 4.6-33.1 10-12.8-.1-22.5 12.2-33.1 10.3-24.8 6.3-49.4 14.6-74.2 21.7l-33.5 10c2 11-9.2-1.4-14.8 4.4-32.6 10-65.6 19-98 29.5-6.4 4 2 13 2.4 19.3 24.3 3.4 42.2 24.1 48 47.1a68 68 0 0 1 42 41.7c.7 11.3 9.9 13.4 18.8 15.7 23 8.3 36.7 31.1 40.4 54.3 11-5.8 33.6.7 36.6-1.7-37.6-38.9-77-75.9-115.5-113.6-7.4-9-18.3-15.7-23.7-26.1 52.6-17 105.7-32.8 158.3-49.6q238.5-74 476.7-148.3c125.4-38.7 250.6-77.9 376-116.5 12.8-10.8 23 3.8 33.4 10.1 32 17.7 63 36.9 95.4 53.6 10.5-3.1 9.7 0 5.8 4 11.5 2.8 18.9 12.8 30.3 17.3 8.6 4.6 16.7 10.7 26 14m-431.9-571.6c-23.2 6.5-47.2 10.5-70.6 16.3-10.1 1.3-20.5 7-30.5 3.5-3 7.5-12.5 5.4-19 7.8-91.4 18.3-182.5 38.7-273.6 58.8-17.2 2.5-30.6-10.8-45.3-17.6-52.8-29.9-106.7-58-159.6-88l-44 10-77-44.6c-22.7-8-47.3-8.1-70.9-12.7-22.4-4.1-45.5-7.2-67.8-1-28.5 5.7-57 10.7-85.4 17.1q100 66.5 200.6 132c35.6-6.7 70.8-16.3 106.4-23 8.2-1.4 14 6.6 21 9.8l83.6 53.1c121.5-25.5 242.6-53.2 364-79.5q99.5-22.2 199.2-44c7.2-7.9-18.3-12.3-25-17.5-5.6.1-.4 15.2-6 19.5m560 223.3c5.3-42.7 13.4-87.8 43.4-120.5a53 53 0 0 0 20.5-44c2.9-34.9 7.1-69.6 10-104.4 1.3-15.4 4-30.8 4.6-46.2-11-3.5-26.7 5-39.5 6.3-42.8 10.2-86 18.8-128.5 29.7-8.4 14.2-3.7 34.2-7.2 50.6q-3.5 61.8-8.3 123.5c.7 14-3.1 27.8-2.3 41.9-2.8 25.8-3.5 51.7-5.6 77.7-2.4 11.9-1.7 21.7 11.4 14.4zm16.6-319.4c-81-29-162.2-56.7-243.4-84.7-9-4.6-18.4-4-28-1-16.3 1.9-33.3 10.9-49.3 2.3q-61.6-23-123.5-45.7c-10-2.2 2.4-19.6-14.3-14-34-5.4-67 6.5-100.4 11.4-18 5.3-46.4 5-58 13.9l330.9 131.6c7-5.7 7.1-5.6 9 1.8 7.5-5.3 8.3 10.6.6 6.3-9.6 6 15.7 8.2-1.3 9.9-48.6 10.6-96.9 22.6-145.4 33.4 12.8.8 25.1-4.8 37.8-6.5 9.9 3.1 19.4 9.2 29 13.4 6.1 2.6 12 7.6 18.7 4 40-9.2 80.3-17.8 120.4-27 8.8-5.2-26.5-6.4-15.7-21.9 6-5.5 19.5-4.2 28.9-7.9q25.6-5.9 51.2-12.4c17.1 8 35.4 22.3 55 17.2 31.9-8 64-14.7 95.7-23.3zm122.2 450.9c-31 .8-59.2 22-86 29.7 3.5-11.6 18.3-20.4 29.5-26.1 9.3-8.3 33.2-6.7 35.9-14.8-14.5-7.4-30.4-12.3-44.1-21.1-31 1.1-58.7 16.3-86 29.3-3.3-3.7-67.3-72.4 16.6-16.8 12.4-14.4 37.7-11.8 50.2-22.9-15.7-6.6-31.8-12.5-47.3-19.3-31.3-5.4-57.2 16.2-85.3 25.2-6.4-9.8 26-17.4 28.3-24 9.8-6 31-7.4 34.6-13-10-5.1-20.3-12.5-31.4-13.6-20.7-14.6-45-1.4-66.4 4.7-10 3.3-40 14.2-26.7 23.7 38.6 18.8 76.6 38.9 115.5 56.9 22 13.6 46.7 22.4 69.4 34.9 8.4 2.6 15.3 9 24 12.3 123.9 61 247.2 123.3 370.9 185 11 4.8 26.8-20.9 26.4-20.6 15.5-14.7 36.6-18.3 55.1-26.4-.8-4.7-11-5.9-15.7-9.2-5-6.5-12.3 10.9-9.7-.7-.4-8.6-12.2-2.4-14.5-11-5.9-2.4-11.2-7.5-17.9-5.9-6.7-10.5-21-7.5-31.2-4.7-24 6.2-45 19.3-64.8 33.7-4-10.5 20.3-22.9 30.3-29.4 12-7.1 26.4-8.8 38.8-14.3-3.3-5.4-12-6.5-17.8-10-11.4-4.6-22.4-11.3-34.3-14-26.6-17.5-65.6 17.2-87.5 23.1-9.5 8.5-15-.2-4.2-7 16.6-16.6 40.4-21.4 61.3-29.7-2.7-4.7-10.6-6.5-15.5-9.8-15.2-7.1-29.5-16.6-45.6-21.7-18.2-1.5-36.7 4.5-53.4 11.8-12.7 3-27.5 20.5-38.5 16.5a173 173 0 0 1 64.4-37c5.9-3.5-9.5-6.5-13.5-9.6-12.6-5-24.8-12.9-38-14.5-30.5-5.9-59 25.9-83.6 26.9 10.3-15.7 31.4-25 49-32 11.6-3 30-5.6 11-11.5-17.3-8-34-17.8-52.3-23.1m438.7 24.6c31 1.6 60.2-10.1 90-16.8 46-12 91-28.1 136.2-43.3 25-4.3 47.6-19.4 48.7-45.9 3.3-22.4-6.5-44.2-22-60-14.2-14.6-27.4-34.9-50.2-26.8-15.2 0-29.8 5-44.8 7.4-64.6 17-130 37.8-186.9 73.8-26.2 10.1 14.4 26.6 16.4 41.7a96 96 0 0 1 12.6 69.9M1229.5 931.3c48.9-9 97.3-20.3 146-30.2 33.6-7.2 67.3-13.7 100.6-21.9.5-5-10.5-6-14.8-9.3-103-49.4-205.4-100.2-308-150.3-10.5-2.2-4.2 15.5-5.8 23 .5 21.5-1 43.2 1 64.6 2 26.3.2 52.8 1.6 79.1zm1526.3 325.4c-18.5-5.3-38.4-6.3-57.4-10.2-59.8-11.4-114.7-39-169.7-64-42.1-19.8-83.8-40.5-126.7-58.6-55-25.3-112.9-43.5-169.1-65.8-12.2-7-27.7-17-27 4.9-5.8 16-6.1 32.5 13.3 37.5 59.8 27.7 124.4 44.2 182 77 40 19.2 78.3 41.8 118.5 60.5 51.3 24.8 101.6 52.8 157.4 66.3 15.7 3.5 31.3 8 47.3 10.4 15.6-10.6 22.2-40 31.4-58m-877.1-466L1524 648.5c-1.9 15.2-.1 31-2.6 46.2.4 21.2-.9 42.5.8 63.7 15 1 30.7-11.3 45.3-4.5 20.4 9.7 41.6 17.5 62.4 26.4-1.3 12.4-3.7 24.7-2.2 37.2 13.7 7.1 27.7 19.7 44 17.1 68.9-15 138-28.6 207-43.9m-62.7 48.6c-39.7 6.5-78.7 17-118.2 25-129.6 28.7-259.4 57-389 85.7-68.9 15-137.7 30.4-206.5 45.2-8.1 8.3-15 .3-22.4-4l-91-57.7c-34.8 8.3-70.2 14.6-104.8 24.2-6.8 2-12.4-6-18.6-8.5-68.1-44.4-135.6-89.7-204-133.7-17.6-13.2 13.9-10.8 22.6-14 37.2-5.7 74.4-11.4 111.4-18.1 35.7 6.8 72 10.2 107.9 16.4a733 733 0 0 0 78.3 45l44.4-10L1223 944.6c90.2-18.5 180-39.5 270.1-58.5l23.8-5.5c-57.7-28.6-116.2-55.6-174.1-84-55.7-26.9-111.7-53.5-167-81 .4-4.7 12-3.4 17-5.6 16.8-3.8 34.1-5.8 50.7-10.1 3.3-4.8-18 0-25 1.5l-65.7 10.9c-4.6 4.4 9.3 6.3 13 9.6 105.8 51.4 211.8 102.3 316.9 155.2-3.6 10.3-30.2 8-42.4 13.3l-204.5 43.1c-17.1.2-30-13.7-45.1-20-52.2-29-103.7-59-156-87.7-17.8 1-36.6 13.7-53.2 8.4-21.6-12.4-42.4-26.4-64.7-37.6-28-4.8-56.4-7-84.5-11.9-13.6-1.3-27.3-4-41-4.2l-161 28c29 20.2 59.4 38.4 88.7 58.1l149.5 97.9a29 29 0 0 0 20.5-.2l86.6-20 106 60.7c23.7-3.5 47-10.3 70.4-15.1q265.1-58.6 530-118 63-14.1 125.7-28.4c5.3 1.9 10.2 7.6 17 9.2l31.3 14.1q92.8-21.9 185.4-44.1c8.5-3.8-7.7-5.6-11.3-8.2l-25.9-9.7c17.8-6 40-16.9 57-4 14.5 5.3 29.9 17.2 45.7 9.7q74.9-16.6 149.5-34c-1-5.8-13.7-7-20.5-10.3-91.6-31.8-182.9-64.8-274.7-96-8-2.4-21.5 18.4 9.5 10.1l257.4 89.2c-8.1 12.8-36.3 10.6-52.1 17.2q-43.2 10.4-86.5 20l-45.2-19c-22.3 5.7-45 10-67 17 11 6.2 31.7 10.9 36.7 17.9-31.3 7.3-62.9 13.6-94.2 21q-32.6 7.4-65.2 14.2c-13.2-5.5-25.4-12.8-38.5-18.4m382.7 301.1c41 26.5 87.2 43.2 131.8 62.4 56.8 24 114 47.5 167.7 77.8a484 484 0 0 0 60.3 30.6c27.8 14.2 53.8 31.4 80.7 47a198 198 0 0 0 54 18.3c13.3-16.6 22.7-36.7 32.4-55.6-24.2-16.6-75-12.8-103.3-31-49.6-20.2-97.4-44.5-145.1-68.7-42.3-23.6-86-44.5-129.4-66-43-18.2-87.8-32.6-130.5-51.8-10.2-8.2-20.6-11.2-18.5 5.7-.7 10.4.3 21 0 31.3m558 111.8c3.2-20.2 3.1-42.2-7.5-60.5-17.5-34.2-48.5-58.3-78-81.7-84.4-61.1-184.5-92.9-282.6-124.5-32-9.2-64.7-18.6-98.2-20.2-34.9-5.4-57.2 28.7-70.5 56.5-5 9.8-13.9 23.9 1.7 26.8 28.6 14.5 59.6 23.6 89.4 35.3 83 30 162.7 68.3 242.2 106.4 57 26.2 115.7 51.8 178.6 58.9q12.4 1.6 24.9 3m-37.7-106.9c38.2-26.5 81.7-44 125.2-60 37-12.5 74.9-24.2 114-28.4 9.7-.2 29.5-1.5 12.7-10.3-33.2-26.5-70.8-46.7-108-66.8-32.8-1.8-64.3 10.6-94.7 21.2-46.4 18.4-94.6 41.5-124 83.1.1 5.7 10 8.2 14.1 12.5a593 593 0 0 1 60.7 48.7m-1732.9 26.3c-.7-17.8-.5-36.5-2.7-54.6-.9-29.2-3.4-58.4-4.5-87.6-1.2-24.2-3.6-48.3-3.8-72.5.7-13.3-11.5-5.7-18.8-4.8L877 970.7c.8 19.7 1 39.9 3.1 59.7-1.1 11.4 1.1 22.6 1.6 34 .5 24.7 2.2 49.4 3.5 74.1.7 18.6 1 37.3 3.8 55.8 11 0 21.8-4.8 32.7-6.8 9.5-2.8 20-4 28.8-7.8 3.1-5.7 10.7 1.7 16.4-3zm1868.2-194.8c-10-8.2-23.5-12.5-35.1-18.6q-30.8-14.2-62.5-26.3c-19.1-5.4-38.9.6-57.9 4a285 285 0 0 0-136.1 70.6c-5 8.5-25.3 25-14.4 32a995 995 0 0 1 92 45.7c47.5-62.5 126.8-93 202.5-106.8q5.7-.6 11.5-.6M1369 2166c-24.2-21.6-46.5-45.2-70-67.6q-55.2-53.5-109.9-107.8c-52.8-49.7-103.2-102-155.6-152l4.9 27.8a73 73 0 0 1 43.6 51.6c9.7 10.1 30.7 7.2 40.7 20.2a74 74 0 0 1 22.7 66.3c.9 14 17.4 21.1 25.3 32 56.3 56 112.1 112.6 168.6 168.2 7.8-.6 15.3-6 23-8.6l120.4-51.2c2.8-6.5 5.3-20.1-1.2-24.4-8.6-6.8-18-9.2-27.7-1.8-29.1 12.4-58.8 23.9-87.5 36.9-1.9 3.8 7.7 6.9 2.7 10.4m-133.3-762.6-180.6 52.4c11.6 16.2-8 1.3-14.5-3.8-11.8 3.7-9 .9-5.2-4.8-7.1-5.3-13.3-12-21-16.2-10.7 3.9-31.6 5.2-35 13 35.9 30.5 71.5 61.2 108 90.9l185.6-55.3c.2-8-21.8-21-31.4-24.4-6 7-3.6-9.1-9.7-11.3 10.8-3.8 2.7-24.5 4.5-34.7.4-2-1.3-4-.7-5.8m1304 294.4c-111.2-63.7-223-126.3-334.5-189.6-10.2-4.8-29-20.8-24.4 1-2 10 9 11.5 15.2 16 30 17.2 59.7 34.6 89.8 51.3 15 6.5 28.8 17.7 44 25.3 52 29.2 103.3 59.4 155.4 88.6 18.8-2-5.9 6.8-13.1 9.1l-292.7 120.7c-8.4 10.7-11.8 29.1-23 39.8 55.4-22 110-46.3 165.1-69.2 72-30.8 144.4-60.6 216.1-91.9zM906.4 1587.6c-14.6-15-30.7-28.4-45.6-43-19.2-17.8-37.6-36.5-57.4-53.4-16.7 1-32.5 8.3-48.8 12l-101.2 28.1c-12.5 4.6 10.2 15.6 16.3 18.5 29.8 10.4 59.3 23 82.9 44.4 18.8-.4 33.8 12 45.5 25.3 5.5 2.5 12.8-3 19-3.8l87.8-26.2zM2733 1316.3c43 3.2 85.3-6.5 127-15.2 35.3-8 70.5-17.5 103.9-31.5l56.6-85.4c-8.3-2.9-24.7 10.7-36.4 12.6a1584 1584 0 0 1-190.8 56c-13.3 3.9-34.2-1.8-37.7 15.5zm-895-127.2c1.4-19.7 3.2-39.4 3.2-59.2 3.6-18.6.7-37.8 3.6-56.6.5-22.9 2.4-45.7 2.7-68.6 3.2-31.3 1.4-63.1 5.2-94.3-2.8-17.7 11.4-44.1-14.4-48-9.3-2.1-31-20.5-27.1-1.2.1 17.6-2.6 35-2 52.8.7 20.5-3.2 40.6-2 61.1-.3 20-2.9 39.8-2 59.8 0 16.1-2.7 32-2 48.3.4 20.7-2.8 41.2-2 61.9.4 8 .6 16.2-8.8 17.8 11.4 12.3 30.7 18 45.6 26.2m-375.3-411-102.2-45.6c-24.3-4.5-49.1-4.7-73.5-8.7-25-2.7-50-3.2-74.7 1.4-13.8.5 6.7 6.9 11.8 10 75.3 35.7 150.2 72.3 225.2 108.5 13.5 10.5 11.8-5.3 11.7-14.9 0-15.9.2-31.8 1.8-47.5zm-381 496.5c2.6-8 .4-17.4 1.1-26 .8-19-2-37.8-1.5-56.7-.5-21.2 1-42.8-3.6-63.4-26-18.3-53.2-35.2-79.6-53-9.3 2.7-2 26.2-4.3 36.7 4.3 32.5-.7 65.5 4 98 7.3 15.7 28.2 22.5 41.2 34.4 14.3 10 28 20.7 42.6 30m-271.2-42.8c-.2-15-2.2-30.2-1-45 4.6-.7 12.5 5.8 12 11.4l2.9 43.8c17.3 13.9 3.5-20 7-30.1-3-15 12-2.4 13.3 3.7 4.8 14.2-5.6 39 6.4 47 .9-14.2-5.1-32.9-1-44.3 7.4 3.8 17 6.3 13.7 17 1.9 11.2-2.3 37.5 6.3 38.9 5-4 .4-11.7 1.2-17.3-1.6-24.6-5.2-49-6.5-73.7l-201-149.6-3.3-1q.6 32 3.2 64c-.8 9.7 2.1 15.7 2 3.7.4-7.7-1.3-16 .8-23.4 9 1 14 12.3 11.2 21.5-.1 7.9 1 28.4 3.5 28 3.2-11.2-4.3-32 2.6-37.7 5.3 3.7 10 7.7 8.5 14.8 1 12.4.7 25.2 2.6 37.5 8.7 6.1 3.2-20 4.1-26.7-4.5-11.2 1.4-17.8 8.7-7.5 14.6 10.6-9 40.7 7.1 49.7 2.9-12.2-2.1-34.4 1.6-41 10.5 3.8 9.7 13.9 10.2 22.9l2 29.7c12 10.3 1.9-21.6 5-29.6-2.6-17.7 18.2-.8 12 9.5 1.7 9-1.6 39 7.6 35.9 1.5-13-2.3-25.9-1-38.7 5.6-1.7 14.5 3.8 12.2 11l2 41.7c12.9 11.4 2.2-19.3 5-26.4-1.8-9.3 1.9-18.5 9.7-7.6 4.9 5 1.5 13.7 2.7 20.4 2 10-5.2 25.2 5.5 31 4.7-.7.6-14.7 1-20.7-.1-7.8-2.3-15.6-.6-23.2a24.5 24.5 0 0 1 14 26.3c1.8 10.5-4 28.7 6.5 34.1zm1472.1 215.4 32.4 17.7c24-23.6 46.7-48.3 70.3-72.1 1.5-9.1-22.7-13-31.4-20.2-31-15.8-61.7-32.3-93-47.4-22.7 24-47 46.4-69.3 70.8 14.3 6.2 33 27.4 46.6 19.7 12.6-10.1 25.1-40.3 42.8-22 11 7.2 43.5 15.2 21.9 30q-11 11-20.3 23.5m-1124.4 375c-.9 25.4-1.8 51.3 1.8 76.6 10.3 7-25.5 12.7-18.2 11.4-13.7-7.8-3-27.2-7-40.3-1.5-14-1.4-28-2-42.1-13-14.2-26.7-28-41.4-40.5-16.3 1.7-27.5 11.6-20.5 28.8 2.6 9.4-13 7.6-17.6 10.1-10.7-6.5-.6-31.3-18.7-20.2-12.3.2-12.8 6.8-4.1 12.6 37.4 36 74 72.8 111.6 108.7 8 1.9 16.5-4 24.6-6.2l67.4-24c.4-10.1-17-18.5-24.2-27.2-17.1-15.3-33.4-31.4-50-47.2zm361.5 296c18.4-1.7 31.2-18.9 37.8-34.7 11.7-33.4-7-77.4-43.7-84.1-38.3-8.8-77.4 32-66.2 70 4 18.4 19 45.9 38.8 43.8 4.5-1 7 13 18 8.6 11.2 1.8 6.6-15.1 15.3-3.6m111.7-41.8a59 59 0 0 0 40.5-45c5.9-29.1-9.6-64.7-40-72.9-30-13.3-65 11.7-72.2 41.5-9.1 26.9 12.6 71.2 38.5 71 4.4-8.3 4.2 13.1 14.8 7.5 11.6 4.6 12.4-14 18.4-2m114.2-42.3c7.6-4 16.8-5.8 23.3-11 9.9-12 18.3-25.7 18-41.7 1.8-28-15.3-57.5-43.5-64.4-38-11.8-78.8 28.3-69.6 66.7 2.6 15.2 20 51 39.3 45.6 5.1-7.5 2.6 13.8 13.4 8.1 10 5.7 12-11.2 19-3.3m-605-31c5.3-30.7-12.8-67.1-44.9-73.7-27.8-9.3-55 13.1-64.3 38.2-11 31.2 9.3 69 40 79.6 6.6-13.9 5.7 10.6 18.3 3.1 10.7 3.5 9-12.8 17.2-4 15.4-5.9 38.6-25.2 28.8-42.3zm708.5-23c22.2-1.7 39.5-22.9 42.9-44 7.6-32.3-16-69.6-50-71.8-34.2-3.2-66.1 32.2-58 65.9 2.5 18.5 19.2 47 36.8 43 2 12.9 21.6 9.4 26 3.8zm214.6-852.2c6.3-20.9 3.8-45 6.7-67 2.6-33.5 4.5-67 6.6-100.5 1.5-17.4 2.4-35 3.7-52.6s2-35.5 3.9-53.2c-.1-12.6 3.3-25.2 1.7-37.8-12-5.6-30.4-19.2-41-15.1-4.2 11.6 4.4 15.2 9.6 19.9.3 17-2.6 34-2.8 51q-2.9 41.3-5.5 82.4c-2.2 30.4-3.6 60.9-5.8 91.3-.7 22.9-5 45.7-3 68.6q12.6 7.2 25.9 13m-983.8-117.1-99-58.5c-3.7 9.5-.8 26.6-.2 38.7.6 19.1 2.1 38 3 57.2 2.3 21.2 1.4 42.7 4 64 .2 17.8 2.6 35.4 2.3 53.1 3.1-18.6.4-39-.6-58.2v-41c11.1-3.1 24-9 33.4.8 20.4 12.9 40.1 27 61 39 1.8-16.6-2.1-34.6-.5-51.8-2.9-14.3-.5-29.1-3.4-43.3m1651.9 308.3c-9.9 20-22 38.7-33.2 58 .7 13.2 25.4-1 35.5-1.2 56.8-15.4 113.5-31 169.5-49.1 10.7-5 24.9-6.2 33.2-14.2q10.5-18.9 22.6-36.7c-35.6 11.4-71.5 23.3-108.5 30q-51.2 11.6-103.5 14.7-7.8-.9-15.6-1.5m-763 611.9c23.2-19.9 25.8-56.8 8.2-81.2a52.4 52.4 0 0 0-69-15.7c-21.3 10.5-39.8 39.6-18.2 58 10.1 12.7 4.3 50.8 26.4 41.6 1.5 16.8 22.3 4 26.7 5.7 5.4 6.3 20.7-4.6 25.9-8.4M792 797.5c27.9 4.6 56 8 84 11.8 17 0 32.6 6.9 46.6 16.2l59.6 34.8 42.6-10.3c35.9 18.4 70.6 39 106.3 57.8 30.2 16.2 59.7 33.8 90.3 49.2 30.1-4.8 60-12.7 89.9-18.7l204.8-44.3c6.6-13.5-5.4-8.6-13.3-6.8-94 20.3-188 41-282 61l-194-109.1c-17.2-.4-34.4 10.5-50.9 7.5-26.6-14.9-52.8-30.8-79.6-45.1-31.3-4.2-62.5-8.4-93.6-13.5-26.7-.8-52.8 6.7-79.1 10.3-20.6 3.8-41.6 5.8-61.6 12.4 9.8 7.4 19.6 11.2 31.8 5.5 32.8-6 65.4-12.9 98.2-18.7M2128.6 1868c33.3-5.7 50.7-46 37.6-75.7-8.5-25.2-37.5-41.7-63.3-33.1-19.3 7.3-41.9 27.3-36.8 49.7 16.3 13.4 7 51.8 31.1 52.7 4.3-4 8.9 12.4 19 6.9 8.3 1.2 5.8-9.8 12.4-.5m-74.2 29.2a61 61 0 0 0 20.7-50.1c-.6-25.3-19.3-50.3-45.1-53.9-20.2-7.1-42.5 7.2-54.4 23.4-15.5 14.2 1.9 24.8 9.3 37.7 9.6 13.3 6.7 30.5 9.8 45 4.6 5.3 10-7.6 11.2 4.3 3 4.7 11.3 2.4 16.4 4.3 7.1-11.2 9.4 6.4 21-4.5zm122-91.5c55-21.8 109.5-45.2 164.4-67.3 37.5-15.8 75.4-30.6 112.8-46.6 8.6-6.4-18.2-13-23.5-18.9-17.4 4-33.4 12.7-50 19q-105.2 42.8-210.6 85c-7.1 3.8 2.3 12.8 3.1 19.2zm-1120 75.8c-19.7-15.4-50.8-18.1-69.5.5-31.9 23.1-25.8 72.6 3.7 94.1 5 8.5 14.8 5.7 19 5.7a7.4 7.4 0 0 0 14.4-3c3-13.5 6.3-28.3 18.5-36.8 8.7-11 21.8-15.4 34.6-19.5-1-15.8-9.7-30-20.7-41m-186.5-693.3c.1 21.5 4 42.8 5 64.3.9 13.4.4 35.4 18.6 24.8 39.6-10 79.2-19.4 118.6-29.7 2.3-5.3-8.8-8.3-12.2-12.6-16.4-12.8-34.1-23.8-49.5-37.7 6-15.2-5.6-13.8-15.2-10l-49.3 11.6c-5-4-10-8.2-16-10.7m-154.7 221.1c-30.6 7.5-60.7 17.2-91.1 25.4 2 11-3.8 24.9-17.3 19.7 2.3 16.5-5.5 55.4 22 42.9q66.4-18.2 132.5-36.9c10.6-6-13.4-17.4-17.8-25.3-9.3-8.7-18.4-17.7-28.3-25.8m234.4 394.5c.9-25.5-18.6-52-44.7-54.8-37.6-10.4-74.6 36-57.1 71 5.6 14.5 21 33.9 36.5 32.1 4-4.2 5.8 7.8 12.8 5.8 6.2-.6 12-2 15.6-7.6 7.7-18.7 18.2-36.5 37-46.5m580-1001.5c-1 28.2 0 56.6-.2 84.8 3.2 7.3 12.8-.3 19-.3 22.9-5.6 46-9.5 68.7-15.4 8.4-7.5 3.6-22.4 5-33.5.5-17.2.7-34.6 2.1-51.7-11.7-5.2-28.5 4.5-42.1 5a708 708 0 0 0-52.5 11M1618 986q-139.1 32-278.1 64.9-127.7 29.8-255.5 60.2l-73-47.1c-11.8.3-21 6-6.9 11.7 26.2 16.7 51.4 34.7 77.9 50.9l539.8-132.1c8.3-2.8-2-5.6-4.2-8.5m1118.5 432.3c60.2-20.4 121.4-37.8 182-57.3 6.2-11.3 8.5-27.3 12.4-40.4-61.1 21.4-123.7 38.4-186.2 55.5a911 911 0 0 1-53 12.3c-5.8 7.3 1.8 10.5 8 12.8 8.6 9.3 27.4-5.5 31.4 4.8-16.3 2.6 4.8 3.3 5.4 12.2m-672.4 62.1c-16.9-1-3.5-15.4-10-22.5-17.2 8.4-41.6 13.3-54.5 24l135.7 82.2 61-21.9c.2-6.2-17.6-18.6-20-6.2-13.4 5.1-19-7.9-17.7-19.2l-81.5-47.1q-6 5.9-13 10.7m557.5 29.8a2064 2064 0 0 0-61.8-31.3c-23.4 23.7-46 48.2-69.7 71.7-15 12.6 17.9 16.3 26 25 12.9 3.8 28.8 24.7 39.8 10.2 20.2-24.3 43-46.4 63.7-70.3.9 1.7 2-7.4 2-5.3M918.3 1851.8c.8 21.2 9.4 42.5 27.4 54.8 20.2 19.1 21.4-23 38.7-28.7 12.2-13.5 34.2-11 46.6-17 1.3-21-12-42.5-30.8-51.7a55.6 55.6 0 0 0-73 21.5c-4.8 6.2-5.8 14.1-8.9 21.1m2005.5-464.3c-3.3-8.7 2.4-30.2-12.4-21.3l-177.5 56c-2.1 9-23.4 35.3-2.2 23.9 9.8 4.1-18.6 8.3-18 18.2-7.5 16.3 18.4-1.3 26-2a3478 3478 0 0 0 184-74.8m-1957 182.4c-27.9-27.9-58.8-52.8-87.6-79.9-9-6.2-16.5-20.6-28.6-13.5-13.9 4.1-28.2 7.3-41.8 11.9 4.4 10.3 17 16.3 24.8 25 21.8 20.4 43.9 40.6 65.2 61.5 15 22 39 2 58.4-1.3q4.9-1.5 9.7-3.7m-72.2 171.6c-3.7-23-20.6-44.8-44.7-47.6-33.6-8-69.4 27.4-60 60.8 1.9 15.4 13.5 26.5 23.6 35.8 5.9 8 16 5.3 19.1 4.2 7.8 15.6 7-15.1 12.5-20 9.1-19 29.4-29.7 49.5-33.2m185.7-204.8c-9.1-13.3-24.3-21.9-36.2-33-24.7-19.7-48-41.2-72.8-60.7l-53.3 14.8c18.6 17.5 39.2 32.9 58 50.2 17.6 14.5 33.8 30.7 51.9 44.5 17.5-5.2 35.2-9.7 52.4-15.8m1387.5-105.4c-20.6-11.6-42.1-21.5-63-32.5-14.4 13.2-26.7 28.5-40.9 41.9-10 10.2-20.4 20.2-29.4 31.2 8.4 10.5 32.2 24.5 46.8 24.7 14.2-7.7 23-39.8 41-29.4 17 8.2 26.6-19.7 39.5-28.1 2.1-2.5 5-4.5 6-7.8m-1602.9 41c34.5 30.3 67.5 62.2 102.3 92.1 6.6 8 15.5.7 23.3-.6 10.4-3.3 21.2-5.5 31.1-10-4.4-6.4-12.8-11.4-18.7-17.4-27.5-24.5-56-47.9-83.7-72.2-6.9-9.2-16.4-1-24.9 0zm631.7-57c-14.7-8-29-22.5-45.5-24.3-45.5 14-91.4 26.8-136.7 41.5 3.8 9.4-4 32.1 5 35.7a4122 4122 0 0 0 177.2-52.9m-669-140.1c-9.2 4.4-33 5-32.8 13 25.4 21.6 51.1 42.9 76.3 64.8 7 10 17.2 1.3 26.2.2 4.4-.7 20-7.3 14-.6-9.2 3-19.6 4.1-28 8.5 1.3 5.4 9.4 8.7 13.4 13.2 14.8 11.9 28.1 25.5 43.8 36.2 11.5-4 23.8-6.1 34.9-10.8-23-24-50.2-43.5-75.3-65.2-23.4-18.9-45.6-39.2-69.3-57.6zm-82 424.7c-3.7-30.6 25-58.4 55-58.1 1.5-8.7-6.7-17-11.3-15.9 7.2-11.6-16-23.2-26.5-25.5-34.1-10.6-72.6 26.6-60 60.8 4.6 15.9 19.6 37.7 37 35.3 2.6-3.4 4 2.3 5.9 3.4m-112.5-286c21.5-22.5 14.9-65.3-14.2-77.8-10.5 2.2-16-7-27.6-1.3-18.2 7-32.6 29.4-27.2 48.3 2.7 18.8 21 39.4 37.3 36.3 7.2 9.3 17.1-1.9 25.5-2.2zm821.5-62.2c-32.3 8.5-64 19.4-96 29.2q-39.8 11.8-79.1 24.6c1.1 9.9 20.2 19.2 29.9 24.7 47.4-14.6 95.3-27.8 142.4-43.3 7-7.2 1.4-24.6 2.8-35.2m670-96.8q-34.5 33.2-66.7 68.1c14.6 6 34.8 29.7 48.4 17.3 10.6-6 18.7-29.4 31.9-22.4 13.6 10.9 22-15.5 32.5-21.5 9.4-7.6 12.9-15-.3-18.2zM646.5 1529.8l148-41c4.6-8.2-13.3-15.2-17-22.7-7.4-8.7-17.7-.8-26.6.5l-130.2 36.2c-4.7 5.3 7.7 9.4 10.8 14zm202 157.7a49 49 0 0 0-36.6-39 48 48 0 0 0-53.6 21.7c-18.7 24.6-4.8 67 24.6 75.8.3-30.6 28.2-59.5 59.4-57.6 2.1.4 4-1 6.2-1m-440.6-504.8c-.7 21 19.2 32.3 24 51.2 3.4 21.2 23.7 32.4 38.7 44.4 16.1 5.5 28-15.9 45.6-14.3 7.3-5.1-7.8-12.4-11.8-17.6-16.5-13.8-26.1-33.2-46.2-42.2-8.2-12.7-16.6-28.7-34-28.7a17 17 0 0 0-16.3 7.2M787 1286.8c-14.2 5.8-43 8-48.1 17 27.4 23.7 54.3 48 82.6 70.7 17-4.6 34.7-8.2 50.8-15.8-28.5-24-56.5-48.4-85.3-71.9m-20.4 102.7c-21.5-20.4-44.3-39.7-66-60-8.3-7.6-16.3-17.2-27.7-10.2-11.7 3.6-23.8 6.5-35.3 10.5 2.4 6.1 10 10.3 14.8 15.5q31 28 61.5 56.7c6.2 5.4 14.3-1.6 21.4-2.4 10.3-3.5 21.8-5 31.3-10m1650.3 218c13.4 10 29 17 43.3 25.7 7 2.8 13.9 11.2 21.8 8 17.3-13 34.9-25.8 52-39-.3-11-18.7-12.9-27.3-19.7-11.7-5.6-22-14.3-34.7-17.5zm-309-360.4c-15-6-33.1-24.7-48.4-19.9l-60.7 61.4c8.8 10.5 30.5 20.7 43.9 24.5q32.7-31 64-63.5zm273.5 268.3c-17.1-12.9-37.4-21.1-56-31.7-7.2-6-12.8 4.7-19.1 7.7l-42.6 31.8a585 585 0 0 0 62.8 34.4l54-40.3zm-911.3-738c-7.7 14.1-3.8 30.7-4.8 46.2.2 9.3-.7 18.7.8 27.8 18.6 7.7 41.5 25 58.5 25 .7-25-.2-50 0-75-17.6-9.2-36.5-16-54.5-24m-958.7 573.8c.1 15.7 16.2 33.5 31.7 31.6 5.5 5.5 20.5 6 15-8.3.3-18.9 13.9-34 29-43.7-3.6-18.5-23.4-31.2-41.8-29.7-21.8 1.6-41.1 24.5-36.8 46.2zM816 1376c-27.7-24.8-56.2-48.8-84.5-73-11.8 4.1-34.6 5.7-39 14.3 24.5 23.8 51 45.5 75.8 69 14.1 4 33.2-6.8 47.7-10.3m-420.7-256.7a44 44 0 0 0-23-38.1c-9-2.2-18.5-5.5-27.4-.3-20.8 8.5-28.2 37-15.2 55 5.7 13.1 20 13.3 29 18.3 17.8-1 38.1-12.6 36.6-34.9m2059 434.8c-19.5-7.4-39.3-29.3-59.2-26-14 14.3-42.7 27.2-47.5 42.7 16.7 8.5 32.2 19 49.2 26.8 6.5.4 11-7.6 16.8-10.8zM479.5 1079c10.8 12.5 24.7 22.2 36.8 33.5 10.2 9 20.2 18 31 26.2 15-.7 29.4-6.4 44.2-9.2 13-4.4-13.9-16.3-17.1-22.7-17.3-14.5-34.3-29.5-52.6-42.7a126 126 0 0 0-42.2 14.9M2047 1402c17-14 35.5-26 52.7-39.6a257 257 0 0 0-56.5-31c-17.9 11.7-36.2 23.2-51.5 38.2 8.4 7.2 19.5 11.5 29 17.5zm152.6-107.7c-10.2 11.8-33 25.2-33.3 38.3 17 13.1-15.2 24.2-21.2 35.7 1.2 6.6 20.3 16.7 29 16l65.7-65.5c-1.7-11.7-28.7-17.3-40.2-24.5m-283-488c2.7-10.9-7.7-8.4-14.8-6.4-79.5 17.5-159.6 32.9-239.2 50.4-11.3 4.7-31.9-22.2-35.5-8 3.8 14 25.5 15.2 36.8 22.5 84.1-20 168.7-38.2 252.6-58.5m-474.7 1266-106 43 24.7 24.7c17.8-3.7 34.2-13.5 51.4-19.7 12.6-8.1 39.8-10.4 42.4-22.8-5.5-7.8-9-16.6-12.5-25.3m-560.6-645.4L935 1412l-57-48.5q-27.1 4.6-52.6 15zm1323.4-261a454 454 0 0 0 49.8 20.3c16.3-1 30.4 7.4 44.6 14l210 97.5c13.7 6 27.1 14 41.1 18.2-1.2-4.5-10.6-6.7-15-10.3-68.1-41.8-141.8-73.3-215.5-103.8-40.4-17.5-82-33-120-55.4-2.2 7.2 1.2 13.6 5 19.5m-675.5-367.5c30.5-5.5 61.2-10.5 91-18.5l-50.8-21c-27.5-6-55 7.7-82.5 11.3-10.4 1-19.5 5.5-3.6 9 15.2 6.5 30.3 13.7 46 19.2m-759 594.4-47.7 14c2 10 18.2 18.4 26.1 27.7 11.3 7.1 19.5 26.7 34.8 19.7 11.6-5 36.2-5.5 39.2-14.8zm12.9-109.3c-19.3-15.9-37.6-33-57.6-48-14.7 5.3-40.6 7-48 15.1 17.7 16.6 36.6 32 55.2 47.8 17-4.3 34.1-8.4 50.4-14.9M660.4 1180l-52.6-45c-17-7-38.3 2.4-55.1 8.2q26.6 24.4 54.5 47.3c8.6 5.2 18-1.6 27-2.7l25.5-6.4zm59.7 51.8a557 557 0 0 0-56.1-48l-49.6 12c15 16.2 33.4 28.8 49.4 43.9 15.7 11.2 36-3.2 53.3-5.4l1.7-.9zM2592.5 1447c-11 8.2-31.3 24-8.4 29.4 17.4 9 34.8 18.3 53.2 25.5 16.9-15.3 32.4-32.3 48.8-48.3 3.5-6.2-13.1-11-18-6.6-18 3.3-39 27-53.6 10.6zM681.4 1313.4c-18.2-17.8-37.6-34.3-56.5-51.4-15.1 3.7-30.7 6.4-45.2 12-.8 6.3 10.3 11.8 15.2 17.5 13.4 11.5 25.3 24.8 39.3 35.4zm-178.2 38.4a52 52 0 0 1 19.6-46.9c8.3-11.8 41.6-2.4 22.8-20.8-14.5-16.6-42.5-19-58.5-3.1-8.2 11-20 31.4-8.9 48.1 5.5 9.8 13.7 19.8 25 22.7m1478-55.2c-17.2 13.1-36.6 23.9-51.9 39.3l43.9 24.6a855 855 0 0 0 51.2-37.7c-7-10.8-29.5-18.7-43.2-26.2m-1361-37.1c-13.8-15.2-30.2-27.8-45-42.1-7.7-11.7-20.7-8-32.4-4.6-12.8 2.4-32.2 6.7-14.2 17.3 14.3 12.7 28.3 26 42.4 39 15.3 3.4 33.1-7.3 49.2-9.6m-161.7-95.2q26.2 24.2 52.2 48.6c5.5 6.8 14 0 21.1-.5l26.6-6.6c-1.2-7.2-9.9-10.7-14.6-16.1-13.3-11.8-25.9-24.3-39.3-35.8-15.4 1.6-31.1 6-46 10.4m318 228.1c16.4 16 34 30.9 50.7 46.6 6.8 3.7 14.8-2.3 22.2-3 8-3.8 36-4.9 19.9-14.6q-24.5-21.6-49.7-42.5l-40.4 11.5zm-65.4 13.3c-25.7-25.5-53.3-49.1-79-74.7-10.6 1-4.5 5.5.8 10 21 17 25.3 50.8 6.7 71-5 5-28.9 19.8-9.4 17.2 26-7.4 52.4-14 78.3-22zm744.4-58.5c18.3 7.7 34.4 26.6 52.7 29.6-5.6-8.3-23.3-16.4-34-24-14.7-14.1-32.7-11.5-50.3-3.9l-181.2 52.4q25.6 20.7 53.7 37.3c22.9-2.9-9.7-16.2-16.4-23.5-11.5-6.2-14-11.6-.5-13.2 58.6-18.5 117.5-36.2 176-54.7M334.1 1058.4c-12.3-5-27-8-38 1.6-14.3 10.5-20.8 30-11 45.8 4 13 18.7 17.3 27.5 19.4 12.7 4.6 2-21.6 9.8-29.1 2.3-12.1 29.6-17.2 21.5-27.6zm295.4 202.8 56.6 50.6c13-4 26.8-6.2 39.4-11.4-5.4-10.4-19.8-18.5-29-27.9-11.4-6.6-20-25.5-34.5-20.4-10.9 2.8-22 5-32.5 9.1m1592.3-489c-16.8-9.7-36.8-13.4-55-20.7-70.5-24.8-141.5-48.5-212-73.5-14.3-6.2-3 12.9 6.3 11.8 80.2 28.6 160.8 56 241.1 84.1 6.9 3 13.3 0 19.6-1.7M665 1247.7c-7-10.8-19.3-17.7-28.4-26.9-10.4-7.1-18.7-20.6-31-23-11.3 3.2-23.2 5-34 9 5.8 10.3 21 19.7 30.3 29.7 9.9 5.7 17.4 22.5 29.4 20.2zm-216.9-149.4 56 50.1c10.8-2 34-3.4 36-10.2-21.3-19.4-43.6-37.9-65.5-56.6-10.5 2.6-17.3 11.7-26.5 16.7m97.7 44.9-36.5 8.6c8.7 11.5 21.7 20 32.2 30.4 10 5.7 17.3 22.6 29.3 20.8 10.8-2.9 22-4.6 32.4-8.2 1.6-4.5-8.9-8.8-12.2-13.2-15-12.8-29.7-26-45.2-38.4m540.1 153.9c-.6 15 2.3 29.8 1.7 44.8-1.8 8.6 3.9 23 3.6 5.7-.3-22 .4-44.3-.5-66.2-3.2 3.6-9-1.4-14.2-5.3-27.5-19.8-55.7-38.8-82.5-59.7-2-13.4-2.4-27-3.5-40.4-13 1.7-42.6-.6-33.9 21.3 41 31.4 83.5 60.6 124.6 91.7a18 18 0 0 1 4.7 8.1m1055.5 132.4c12.6 7.5 26.3 17.5 40 20.4 5-2.2 9.2-11.1 14.8-8.2 12.3 8.6 24.3 5.7 33.4-6.6 3.8-5.3-9.8-7.4-13.8-11.2l-37.5-20.7c-11.4 10-26.4 15.1-36.9 26.3M570.4 1047c14.8-2.5 38.3-13 40.7-25.4-7-9-19.8-6.2-29.8-8.6-27.3-3.9-66.8-.2-81.8 15 10.7-.2 34.7 11.1 36.7 3-11.3-10.7-2-8.7 4.1 0 5.8 7.8 16.4 6.8 24.8 9.8 10.3-.7 18.8-17.9 28-15-5 8.8-23 10.3-22.6 21.2m-71.3 103c-16.4-16.7-34.5-31.7-51.8-47.4-8.9 7.2-31.4 28-14.4 38 12.1 14 26 25 44.5 15.3q11-2.3 21.7-5.9m795.7 295c-15.3-14-33.2-24.8-50.2-36.6-5 7.5-5.8 31.6.3 41.8 15.3 10.8 30 22.7 45.6 32.7 5.9-7.3 0-26.4 4.3-37.9m480.4-818.5c-5-4.8-14-2.6-20.8-4.3-16.8-.7-33.5-6.5-50.1-2.1-47.9 8.5-95.6 17.8-143.4 26-11 3.3 6.8 5.8 10.9 8.6 12.6-1 25.4-4.6 38-6.7l102.9-19c21 .3 42 4.3 62.5-2.5m349.5 794c10-8 32.3-18 32.3-28.5-14.2-4.9-28.8-22.8-43.4-18.3-10.2 7.4-20.6 14.4-30.6 22.1 7.3 10.1 29 17.3 41.7 24.7m-1817-384.2c-12.4-5.2-27.8-7.6-38.5 2.6-12.1 9.7-19.6 27.1-11.5 41.7 1.6 11.1 25.4 30.3 17.9 8.1 1.5-9 3-19 10.6-25.1 5-12.6 31-11.1 30-18.9q-4.1-4.5-8.5-8.4m1204.5 342.1c-12.3 7.3-5.9 23-6.7 34.9 2.8 10.5-8.7 4.2-13.9 7.8-58 18-116.6 34-174.4 52.6-15.9 9-2-19.6-6.4-27.7-3.8-17.2-18.3 6-14 16-1.3 13.7-1.5 27.5 14 18.7 64.3-19.8 129-38.8 193.5-58.2 11-5.8 7.1-22.6 8.6-34.2a65 65 0 0 0-.7-9.9m565.2 59.1-1.3 19.5c26.8 15.2 53.3 31 80.3 45.6 11.5-2 6.5-25.6-7.2-26.1-23.6-13.6-47-28-71.8-39m-1140.8-22.7c-16.9 5.3-34.4 8.5-50.7 15.4 10 8.2 18.5 18.7 30.2 24.5l51.7-14.3c-9.6-9.4-19.4-19-31.2-25.6m-132.5 71c17.6-4.9 35.8-8.7 52.5-15.7l-28-24.8c-17.5 4.3-35.5 8.4-52.2 15.3zm1370-349.3c2.5 4.8 4.6 25 8.3 10-1.3-14.3 3.3-36-1.8-45.9-23 5.2-45 14.7-67.5 21.6 11.4 7.6 31.2-12.3 35.5-3.3-5.2 3-25.7 5-11.2 13.6 9.6 3.1 29.4 22.1 34.9 10.8zM525 1266c11.6 3.2 20.1 16.5 32.6 9.8 17.3-1.7-1.2-14.3-6.9-20.4-12.2-11.1-24.5-22-36.1-33.8-10.2-2.2-34.6 5.4-16 14.3 9 9.4 22.6 17.2 26.4 30.1m383 189.8c-7.8-9.4-18.6-16.2-27.6-24.6-13.6 4-38.4 6.5-44.5 15 9.6 7 18.5 22.2 30 22.4l39.5-11zm-280-128c-18.4-17.5-37.2-34.7-55.5-52.4-7.4 2.4-15.7 2.5-22.2 6.9 4.7 5.8 5.9 15.7 14.2 17.1 18.7 3.2 20.4 30.7 38.7 29.3 8.4.2 17.2 3.9 24.9-1m1789 64 48.7 24.4 19.4-20.2c-.1-6-11-6.9-15.6-10.7-11-4.6-23-14.4-33.7-14zm-899 737.6q40.1-14.8 78.5-33.6c2.2-9.7 0-19-10-22.3-5.2-4.1-10.4-7.2-16.3-2.4-11.6 9-10.7 30.4-25.6 39-4.9 9-28.3 9.5-26.6 19.3M422.1 1173c30.2-2 35.4 36.9 62 45.4 3.8 8.2 34.2.9 17.6-7.8-16-15.6-31.8-31.3-49-45.5zM2338 1320.3c-17.5-5.3-40.5-32.8-55.3-12.6-22.3 15 16.2 21 26.5 29.1 14.5 11.3 18.6-10 28.8-16.5m-986-604c-17-5-35-4.8-52.4-7.7-14 1.3-40.5-11.6-47.3-1.3-.1 16.8 21.7 10.9 33.8 13.7a672 672 0 0 0 67.8 5.7c1.6-3.6.5-7.7-2-10.5m107.6 671.4 40.2 25c0-12.6 6.9-32.9-8.1-38.8l-32-20.2c-1 11.3-.4 22.7-.1 34m615-169.4c17.3 3.5 37.7 30.3 52.4 15.2 11.2-6.9 12.8-16-.3-19-10.6-4.9-20.6-11.2-31.5-15a54 54 0 0 0-20.6 18.8m125 33.4c-16-5.4-37.9-31.3-52.2-14.7-14 15-34.7 37 31.8 33.9 6.5-6.5 15.2-11.7 20.3-19.2m-305.7-566c-19.3-10.4-41.2-15.2-61.6-23q-37.2-13.2-74.7-25.7c-8 7 9 11.2 15.1 13.5 40 14.2 79.6 29.6 119.7 43.4 4.1-.2.9-5.9 1.5-8.3m-921 752.7c10.6-3.1 32.7-5 35.2-13.2-13-8-23.9-27.7-41-19-12.1 2-31 8.3-12.2 17.6zM1459 773c4.5-.5 20.1-2.5 10.6-7l-111.8-49.4c-3.3 11.8 8 14.8 16.2 18.3zm189.7 1301.3c21-7.6 41.9-15.8 61.5-26.6 3.6-7-.8-10.7-6.9-13.6-5.9-3.2-11.6-9.2-17.5-10.7-15.2 4.5-9.2 26.1-21.6 35.3a98 98 0 0 1-15.5 15.6m892.5-653c-9.3 7.4-32.2 23-10.1 28.5 9.5 2.3 20 16 27 4 5.9-6.5 22.5-17.1 6.9-20.6zM1360.8 708c-22-3.2-43.8-4.4-65.8-6.4-12.5-.4-37.5-6-42.3-2.2 31.8 3.9 63.5 8.5 95.4 11.6 10.3-1.4 18.4 6.7 28 9.6q50.7 22 101 44.7c12.2 4.1 15.1.4 4.3-2.7q-60-27.7-120.6-54.6m-48.5 538c7.4 7.7 18.3 11.7 27.1 17.8 6.6 3.3 12.5 10.3 20.4 7.3.8-12.5 8.6-47-15-33.8-10.8 2.8-21.6 6-32.5 8.7m755.5 161.1c33.3 19.4 66.9 38.4 100 58l-4.3 65.3c8.5 3.2 3.6-12.4 5.5-17.5q1-22.6 3.5-45c-7.8-16.7-34.8-21-49.5-34-19-10.4-37.4-22.1-56.7-31.6-7.2 10.9-1.8 29.4-5.5 43.3 2.3 8.3-5 22.7 1 27.7 2.4-19.7 1.5-39.7 4.4-59.3zm320.5-61.5c-8.3 5.7-27.3 22.3-9.5 26.4l20 10.6c13.3-9 27-24.9 4.7-30.4a128 128 0 0 0-15.2-6.6m-140.2-26.6c-23.7 22.4-46.3 46-69.3 69 .4 6.5 10.6 6.7 13.4 0q31.6-31.3 62.6-63c2.1-3.9-4.8-4.6-6.7-6m28-29.1c-12.8-7.3-30.7-22.5-42.3-5.2-19.2 12.9 14.5 20.4 23.5 24.4zm53 180.3c22.8-23 44.5-47 67-70 2.5-17-18.8 6.4-24.3 12.2-17 17.8-34.7 35.1-50.7 54 .9 3.6 5 4.6 8 3.8m-1180.4 344c-11.9-13.7-26.6-24.8-39.4-37.7a4342 4342 0 0 0-49.5-46c-17.3-.8 8.8 15.7 13 21.8 23 20.4 45.1 42 67.2 63.5 3 .6 6.8 1 8.7-1.6m1404.5-217.9c17.7-1.1 25.6-21 38.1-31.2 14.4-15.5 29-30.6 43.3-46.2-1-7-11.4-5.3-13.8 1.4q-31.9 34.7-63.2 70zm-759.8 383.1c-.4 13.5-11.2 31.2-13.3 40 11.2-5.3 23.3-9 34.2-15l1.9-21.4c-5.2-2.2-9.8-11.2-15.6-7zM2677 1520a1159 1159 0 0 0-50.5 64.4c-8 13.3 19-5.7 26.5-8.3 5-5 5.5-13.6 8.6-20 2.1-5.8 10.3-7.3 10-14.8l6.2-20zm-829.7 469.8a435 435 0 0 0 62.8-26.5l1.6-20.3c-20-17.8-16.6 18-31.7 25.2-6 14.2-27.7 10.5-32.7 21.6m-1444-817.2c13-4.3 37.7-4.7 43.1-12.7-9.5-10.4-26.2-34.2-34-9.7.4 8.5-8.3 13.2-9.2 22.4m740.4 647.9a438 438 0 0 0 1.6 60.9c1 8-4.5 32 9.4 19.6.1-17.3-2.2-34.4-1.6-51.7-.2-10.5.1-21-.5-31.3zM2069 1397c.2 5.1 10 6.6 14.2 10.3 31 18 62.5 34.6 93.2 52.8.3 22.8-4.8 45.6-2.8 68.5 2.7-24 6.5-47.9 6.3-72-16.4-10.4-34.9-18.2-51.9-28.3a567 567 0 0 0-54.3-30.4zm-75.9-109.7c21.5-21.8 43.8-42.8 64.6-65.1-6.6-10-12.8 2.2-18 6.7-17.8 18.4-36.2 36.1-53.8 54.7 0 3.8 7.3.9 7.2 3.7m418.5 319 53.5-41.4c3.2-14.5-16.5-2.8-22 3.5-13.5 10.7-27.3 21.1-39.5 33.3zM1185.4 714.8c15 15.4 37.6 4.5 55.8 2.7 16-.2 3.7-21-7.7-12.4q-24.1 4.3-48.1 9.7m928 534.8a3124 3124 0 0 0-65.3 65.6c.8 9 9.9 2.4 13-2.7l57.6-58.2c2.9-3.5-3.7-3.3-5.3-4.7m274.3 268c-19 13.4-37.3 28-56.1 41.7 5.9 11.4 14 2.1 20.4-2.9l41.3-31.9c6.2-3.6-3.7-4.9-5.6-7m-82.1-44.2c-17.7 14-36.2 27.4-53.4 41.8 13 11 29.4-14.7 42.8-21 4.9-6.2 30.2-16.1 10.6-20.8m-1205 610.1c1-9.8 4.7-33.8-11.3-29.3-10.4-1.7-12 4.4-9.1 13.2 1.6 6.5-.4 14.8 6.3 18.6 3.4 4 11.3 1 14-2.5m38-265c-29.5-25.4-56.7-53.1-85.6-79.1-7.2.9-1.8 19-3.3 27.6-.2 12.5 2 7.4 1.6-.3 1-6.5-2.8-15.6 3-19.9 26 20.8 48.4 46 73 68.6 3.8 1.6 14.2 19 11.2 3.1m943.7 42c-3.2 16.3-18.8 29.5-25 41.5 13.5-8 40-7.5 38.3-28.1 2-6.7-9.4-9-13.3-13.4m335-378.8a465 465 0 0 1-24.3 25.8l18 10.5c3.6-14.3 38-27.7 6.3-36.3m158-139.9c18.8 8.1 37.3 17.2 56.3 24.9 21.4-.4-10.8-12.3-17.8-16.7-13.1-5-24.7-15-37.9-18.2a8 8 0 0 0-.6 10m-1509 475.7c-1.6-19.5.3-39.3-3.6-58.7-13.9-13.3-4.3 22.7-7.1 30.5 1.6 8.2-5.4 38 10.7 28.2m1011.6-385.5c27.4 15.1 54.4 31.4 82 45.8 6.3-5.9-8.2-9.9-13-13.5l-66.6-37.8c-2.2.4-1.5 3.9-2.4 5.5m-360.3 617.5c-6.2 13.2 8 36 19.5 19.4 2.7-17.2 7.3-35.4-19.5-19.4m755.4-614.8c-11.7 12.6-32.2 27.5-35.4 41.3 9.4 7 14.8-7 21-12 7.3-8.4 16.1-15.5 22.6-24.3.6-3.5-6-3.3-8.2-5m-1033.5 629.3q-53.9 21.7-107.5 44.2c7.5 7 28.4-9.8 41.2-12.2 22.2-9.5 45.3-17.2 67-28-1-.4.7-4-.7-4m1066-619.5c23.6 13.6 48.5 25.6 72.7 38.4 16.7 7.4 32.1 18.8 49.6 23.6 5-3-10.7-7.4-15.5-10.9-25.6-13.3-51.7-25.5-77-39.3zm-474.2-120.9c-17 12.7-35 24.4-51.1 38.2 6.8 12.8 24.3-12.2 33.7-15.3 3.8-6.6 37.8-18.2 17.4-22.9M890.2 1862c-7.9 15.1 13.6 42.8 20.7 19.2-1-10.9.1-24.5-13.9-19.6zm1613.7-459.3c-10.3 7.3-28.5 25.5-6.2 29.3 7.5-7.6 29.7-23 10-27.4zm189.9 50.3a998 998 0 0 0-50.3 51c2.9 9 10.3.3 13.8-4.3l42.6-45.9zm-507-165.6c-10.2 11-33.4 26.6-32.4 39 5.6 5 9.1-5.5 13.7-7.9l27.6-26.7zm-243-611.9c-15 2.7-35.5 2.6-46.2 11.8 6.5 12.6 28.1-1.7 40-1.3 8-.2 6.6-4.9 6.3-10.5m-932.1 1318.3c-3.6 12.9 3.8 42 19.3 25.4-5.3-9.2-2.2-33.3-19.3-25.4m912.3-660.5 51.5-38.4c-11.5-7.5-26.2 15.4-38.5 20.2-5.5 5.2-14.4 8-17.6 15zm67.4 569.8c-3.1 15.6-15.9 25.7-26.1 36.7 10.2-4.4 34.2-5.8 32.8-21 .6-6.6.8-13-6.5-15.5zm280.8-498.4c-7.3 8-16 15-21.6 24.4 8 6.1 14.6 8.7 19-2.9 6-7.8 21.7-17.9 2.6-21.5m93.5-71c-13-15.5-29.3 7.3-30.7 15.9 14.6 14.6 20-7.7 30.7-15.9m356.6 85.9c-20.5-2.8-40 8-57 18-8.8 4.4-18.4 14.7-4 7.3zM820 974.6c7 7.5 17 9.7 13.3-4.3 5.7-9-9.8-30.7-14.4-20.6zm421.6 296.5c19.3-7.1 46.3-6.7 60.3-19.8-4.3-3.9-12.7 2.3-18.7 2.7-13.6 4.2-28.2 6.2-41.2 12l-.1 2zm380.8 819.8c-17.6-2.7-29 25-6.6 25 10.7-2.7 6.6-17 6.6-25m205.8-1462-39.8 3.4c12 0 28.4 15.7 39.8 13zm568.5 627.5c11-2 .5-6.4-4.7-8.3l-56.3-26c-2.4 9.4 21.6 13.6 30.7 20zM869 1033.6c-5.3-2-17.2-15.6-14.5-2.5.1 11.7 1.3 23 13.6 27.4 7.6 6.7.2-22.6 1-25m1208.5 360.8c9-9.7 33.4-17 32-28.8-14 0-30.7 19.3-40.5 26.6zm55.5-61.5-18.8 20.9c10.4 13.3 22.9-7.4 30.5-15.2zm231.7 38.4c1.8 4.2 10.3 6 14.6 9.3 26.2 13.7 52.4 27.6 79.1 40.3 8.2-1.4-15.3-9.9-20.5-13.5l-69.7-35.4zm-235.2 51.5c7.1 8.7 14.7-2.1 21-6 6.8-5.4 14.5-9.8 20.6-15.9-7.1-9.5-21.9 9.6-30.7 12.8q-5.8 4.2-10.9 9m30.6 88c-12.6-11.1-30-17.7-44.5-27.1-12.3-5-30.5-21.7-39.2-19.2q40.8 25 83.7 46.4M2206 1284c5-9.3 31.2-22.2 8.6-24.6-7.8 6.3-31.2 19.7-8.6 24.6m-963 611.3c-15.2 9.5-33.8 12.6-50.3 19.9-12 2.3-18.8 9.7-4.2 3.8 19.2-6.9 39.1-12.2 57.9-20.2-2.2-11.4-23-24.6-33.6-33.1 8.3 11.5 21 18.9 30.2 29.6m-370.2-804c-8.2-7.1-17-12.6-13.2 2-2.5 9.1 6.4 24.4 13.7 17.7.8-6.6 0-13.2-.5-19.8m-8.4 70.7c6.6 9.7 16 9.9 13.4-3 3.5-8.6-16.9-28.7-14.8-14.9zM2117 1900.6c3.7-10 4.2-26.2-9.5-16-15.5 3.6-2.5 27.1 9.5 16m601.6-475.3c-9.4 4.4-19.3 7.9-28.5 12.7 7.9 9 27.8 11.5 27.9-5.7q.6-3.5.6-7m-2114 2.8c-7.8 12.9 13.7 34.9 15 12.7-1.6-7.2-1-21.2-15-12.7M530.4 1052c0 12.3 22.6 2.7 31.7 3.6 9.3-10.7-2.2-12.6-11.1-8.3zm2047.7 387-20.1 21.6c6.2 15.3 25.4-10.5 26.3-17.5zm-555.8 482.6c-13-1-29 17-9.7 20.8 9.4 1 10.9-8.7 9.7-15.7zm-511.8 216c-.5 3.8-17.1 2.6-19.2 9.8 5.4 23.1 26.5 7.4 19.2-9.9m-763.7-1085c-9.6-10.5-14.8-7.9-11.5 4.3-3.1 8.4 10.2 22.9 13.3 15zm1170.7 913.1c-3.4 21.2 25.8 11.3 18.7-5.7-1.1-5.4-14.5 4.6-18.7 5.7M560 1391.3c-22.3-9-7 34.8 4.6 17 2-5.2-1.8-12.5-4.6-17m1864-27.6-18 19.5c1 17.7 39.7-20.4 18-19.6m32.2 129.8c-5-8-8.9.7-13.1 4.7l-21.8 23.9c4.9 7.9 8.7-1.4 12.9-5zm-270.3-23.5c7.6-6.4 36.8-16 15.4-20.4-5 3-10.3-1.2-14.2 5.5-4.3 3-1.9 10.7-1.2 14.9m-833-193.6c-14.1-6-34.3-25.9-45-23.4 13 9.5 28 22.4 44 27.4zm-714.6-267a517 517 0 0 0 65.2 47.2c-9.2-13.6-31.9-17.2-36-33.6-.6-16.5-1.1 11.6-10-1.9a96 96 0 0 1-19.2-16.8zm67.2-114.7c3.1-5.7-.5-13.4-.2-20 1.8-9-23.4-16.7-10.2 2.5-.1 9.8 1.7 13.5 10.4 17.5m1565 302.5c14.9 6.4 29.1 14.5 44.5 19.6 12.7-1-6.7-6.7-11.6-9.8-10.6-4.4-20.6-11.3-32-13-3-.5-.9 2-1 3.2M1840 1999c-12.9-1.3-27.8 16.7-8.4 19 8.5-1.2 10-12 8.4-19m414.8-754.5c22.4-9.9 45.6-21.4 70.8-20-6.5-6.8-31.7.4-44.6 5.2a93 93 0 0 0-26.2 14.8M711.2 948.1c2.8-9.3-3-33.2-13.1-25.1.7 10.3.8 22 13.1 25.1m7.3 106.4c2.2-11.4.5-25-11.2-30-1 6.6-2.8 23.6 8 27.6zm-36-100.5c-13.9-11.4-9.8 15.3-4.2 21.4 13 14.9 6-15.5 4.2-21.4m808.7 1187.7 18.7-8c5-11.3-8.7-8.6-15.2-9-6.9-.4-2 12.2-3.5 17m579.3-727c-3 17.4-2 37.7-1.9 54.6 3.7-3.2 1.8-12.5 3.3-18 .8-11.7 3.3-23.4 2.2-35-.4-1.5-2.3-2-3.6-1.7M666.4 846.2c-2.7 9.7 3.6 32.7 12.2 26.1-2.2-10.5 1.7-23-12.2-26.1m1305-32.3c10 3 20 11.8 30.8 7.4-1.2-5-11.3-6-16-9.3-4.4-.6-13.6-8.7-14.9-4.6zm-131 1173c-13.1-7.7-27.5 5.7-16 13.6 6.4-3.2 18.6-4 16-13.7M648.1 953.5c16.5 17.3 9.1-31.5-2.2-18.2-.6 6.2 1.3 12.2 2.2 18.2m1639.5 343c-5.8-11.3-31.2 13.7-21.3 18.5 5.1 1 9.1-8 13.8-11zm12.7 113.3c-7.3 11.1-17.1 20.1-25.7 30.2 1.1 9.1 8.9-2.2 12.1-5.5l18-19.6c2.3-3.2-2.9-3.5-4.4-5m-260-611c-8.7 1-38.5 4.8-16.7 9.7 8.6 4 21.3 9.4 17-5.7zm-1370 99.3c-2.4 8.4 2 32.3 11 25 2-10.5-.4-20.2-10.5-24.6zm7.3 125.3c8.2 10.5 13.8 7 10.1-4.4 0-6.7-.5-13.2-8.3-14.5-3.3 3.8-1.2 12.9-1.8 19M2131 1247.1c6-3.4 27-26.2 10.9-21.7-4.2 5.2-24.8 17.4-11 21.6m7.2 120.7c7.1-10.1 31.3-20 26-31-8.6 5.6-20.3 20.3-28 30zM660.6 1011.3c-2.3-9.8 2.9-25-10.7-27.3-1 10.7-2 23.3 10.3 27zM371 1175.6c6.2-10.4-8.9-26.3-12.4-12 1.2 7.1 1.3 17.6 12.4 12m1546.7 786.2c8.4-3.2 30.7-13 8-15.2l-8 1.2zM652.9 905.8c.2-10.7 1-23.8-10.9-27.8l2.3 22.2c2 3 5 5.6 8.6 5.6m-1.8-49.6c-1-8-1-29-11.2-23-1 9.6-.7 21 11.2 23m-323.7 288.4c2.9-10.8-18.3-20.8-13-3.2-1.7 11.7 10.7 10.5 13 3.2m520.6 689-10.2-28.3c-6.5.7-.9 10.9-2.2 15.7-.7 5.7 5.4 16.1 12.4 12.6m1155.2 78.1c-4.4 15.5 8 11.4 16.2 6.4 15.8-7-11.8-7-16.2-6.4M377.7 1155c5.5 6 10 13.2 16.1 18.3 6.2-6.6-6.4-30.3-16-18.3m120.8-96c-6.4 3-31.5 10.5-22 16.7L501 1065zm1583.7 134.7c-7.6 2.6-24.9 28.9-7.8 17.2 3-4 22.6-16 7.8-17.2M527.3 1052c-5.5 1.8-31.4 6.3-19.9 11.7 6.6-1.3 22.3-1.3 20-11.7m540.6 713.6 2.4 19c20.4.8 10.5-10.3.4-17.4zm1140-563.9c15.4-2 31.5-11.6 48.4-9 21.3 1.2-11.5-7.4-19-1.2a101 101 0 0 0-29.4 10.2m-584.3 883.6c-9.2-5-27.6-6.4-19.9 8zm754.6-744.1c-5.7 4.3-26.2 26.3-11.2 19.4 2.7-3.5 20.4-17.3 11.2-19.4m136.4 99.4c6-7.6 14.2-13.6 19-22-10.6-11.4-31.4 58-22.6 19.7zm-152.2-172c15.3-3.4 30.9-9.3 46.8-4.3-10.4-10.7-34.7-1.7-46.8 4.3m308.4 113-21.4-11.8c-4.3 3.6 4.6 11.5 10.2 12.2 4 .8 13.2 8.8 11.2-.4m-441.6 43.2c-12-8.1-35.7-23.9-43.6-23.1 14 8.4 28.4 16.7 43.5 23M469.1 1073.6c-6.4 2.6-28.4 18.5-20 19.5l20.3-14zm671 829.2c2.1-9.6 0-20.4 1-30.4-3.3-12.9-.1-31.7-3.3-41-1.3 23.8 1.6 47.5 2.2 71.4m-733.4-763.2c-7.5 4.7-12.2 28.5-5.4 26.6-5-11.7 5.6-6.5 6.1-17q.5-4.9-.7-9.6m2026.3 162.7c14.6-2.6 29.7-6 44.3-7-13.5-4.8-29.2 1-42.2 6zm-331.7 571c-4.3 15.8 10 7.3 18.2 1.8-5.6-3-12.3-2.5-18.2-1.8m-1355.9-165c-.8 8-1.2 21.7 8.1 25.9 5.8-2.3-3.2-11.4-4-16.7zm1465.8-248.1c-6 4-29.4 13.8-24.4 20 8.1-5.5 18.1-12.4 24.4-20M458.6 1275.7c-1.9 8.5 11.6 34.8 7.9 14.2-.6-7-1.2-11-7.9-14.2m-37.9-146.4c10.3-7.2 9.9-29.3.6-11.8-4.5 3.6-1.5 7.2-.6 11.8m621.8 315.6c-1.8-8.1-29.8-23.4-13.8-8 4 1.2 10 11.2 13.8 8m-343.8-427.1c-3 8 3.5 38.6 4.2 16.8-2.2-5.5 0-12.2-4.2-16.8m1802.5 423.5c-3.4-5-11.2-6.6-16.3-10.3-16-4 14 12.2 16.2 10.3m-260-169.6c-8-1.6-23 21-19.8 18.7 6.4-6.3 14.8-11.2 19.8-18.7M2108 1127.3c-10 .5-30.7 5.4-32.5 8.8a136 136 0 0 0 32.5-8.8m129.5 309.1c-7.8.6-28 24.3-13 12.4 3.9-4.2 11.7-7 13-12.4M453.1 1278.6c5.4-11-15-23.5-6.3-5.7zm2025.3 143.2c7.6-2.2 25-28.6 9-12.7a27 27 0 0 0-9 12.7M815 970c3-8.2-3.8-38.8-3.4-16.9q0 8.8 3.4 17m1336.3 196.2c-6.8-3.1-35.8 15-21 9.7zM669.9 998.7c-1.9 7.1 3.3 32.8 3.5 13.5-.7-4 1.7-12-3.5-13.5m-5.3-78.8c7.1-4.7-3.2-38.5-.6-16-.2 5.4-.8 10.8.6 16m-248.7 205.5c-10.4 3.7-3.2 25.8 0 9.3 0-3-.5-6.2 0-9.4m1834.4 187.8c-5.5-5-28.3-15.3-24-10.9 7.8 4.2 15.5 8.6 24 10.9m-1611.8-414c2.7-8-1.2-16.9-1.9-25-.5 8.3-2.7 17.5 2 25M725 1058c1.8 12.4-10.4 5.6-11.4 7.9 3.7 1.4 13.1 13.6 11.6 5q-.3-6.5-.2-12.9m-253.9 238.7c1-4.8 10.8-13.8 1.4-13.7-6-3.3-1.2 11.6-1.4 13.7m1759.7-26.2c-7.7 1.4-24.3 24.8-11 10.9zm-1570-427c-4.1 7.3 3.4 34.7 2.5 14.8-.6-5-2-9.8-2.6-14.7m194 260.8c2.5-7-3.3-35.6-3-15.9q0 8.4 3 16m3.8 53.5c2.8-9-4.2-32.8-2.8-11.4q0 6.2 2.8 11.4m1852.6 255.6c7 .8 15.5 1.5 16.2 10 8.8-12.5-9-10.6-16.2-10M851.7 1055.8l17.4 11.5 2.4-.5-16.6-12.2zm1259.5 290.8c4.6 2 8.4-7.9 12.7-10.4 13.1-15.8-11.6 6.8-12.7 10.4M442 1095.3c-9.2 2-12.3 22-3.5 8.7q2.5-4.1 3.5-8.7m1930.2 246.1c-4.4-2.4-8.4 7.7-12.7 10.2-12.6 15.2 10.7-6 12.7-10.2m-23.3 148.1c6 8.2 28.8 14.3 9.6 4.4zm-101.9-56.3c4.3 10.4 27.3 13 11 5.5zM632.4 825c-1.1 8.6 3.4 32.6 3 11.2q.2-6-3-11.2m1716 539.4c.8-5.1-9.8-5.8-13.6-9.2-18-6.3 10.8 8.9 13.7 9.2m341 16.4c-9.8-3.6-12 21.4-2.9 4.5 0 1.8 2.9-6.4 2.8-4.5M874 1123.3c-4.7-7.8-23.6-12.7-8.2-3.5q3.8 2.4 8.2 3.5m-586-5.8c1 16.2 16.7 9.2 2 1.6zM641 930c-4.4 9 4 31.8 1.2 12.3zm1151.7 1043.4c19.7 2.3-7-15 0 0M668.3 969c.6-8 3.4-17.8-1.5-25zm1391.3 429.4c-17.3 5.9 4.8 16.4 0 0m90.4-64.5c-3.8-2.5-18.2-14-12-4.7 3.6 2.6 7.9 3.7 12 4.7m42.1-173.3c-9.9-5.1-26.7 1.8-8.1 0zm-626.8 906.5c16.2 3 2.8-16.7 0 0m-817-984c-3.3-5.8-19.8-13.3-7-3.6q3 2.6 7 3.7M1944 1948.9c9.7-.1 19.9-9 5.4-3.5.9-.2-7.7 3.5-5.4 3.5M878.5 1095.4c-2 4.8-.2 16.6-.2 20.3.6-6.7 1.6-13.7.2-20.3M2433.6 1535c-2 2.7 13.2 11 12.6 7.1zm233.4-161.8c.1 2.5 10.5 9.6 13.5 5.5-.8-2.2-10.2-3.8-13.5-5.5M683 935.8c-3.8-8.3-23.8-12.6-7.7-4.2q3.6 2.6 7.7 4.2"/></svg>