<svg xmlns="http://www.w3.org/2000/svg" viewBox="0 500 3052 1696"><path d="M3119.8 1374c-10.5 2.8-18.3-8.8-28.2-.8 0 12-8.4 38.5-23.6 22.7-3.8-7.5-10-4.4-16.1-1.7-15.1 1.5-1.3 24.3-15.2 28.3-12.7 9-16.6-20.5-26.6-4.2-14.2 3-23.2 10.1-23 25.8-9.5 15.6-35 13.3-42.8 28.2 4.4 14-9.7 25.4-20.7 19-7.3-3.8-6-17.4-14.3-4.7-18.5 6.8-31.3 13-31.8 33.6-8.9 17.7-21-6.2-31.8 1.6-7 3.7-18.9 3-19.4 13 3.6 14-8.9 23.6-20.2 19-5.9-4-8.4-9.1-6.2-16-.9-5.7 4-13.9-1.2-17.6-25.6-15.7-37.2-54.4-16.2-78.5a56 56 0 0 1 46.8-19.5 61 61 0 0 1 45.7-29.4c21.9 9.5 23.3-20.2 41-25.9a43 43 0 0 0 32.9-26c11-14.7 32.7-14.4 47.1-18.7 11.5-21 39.1-14.1 51.7-29.8 9.1-13.8 29.9-8 38-20 6-10.5 18.7-14.8 29.5-18.7 29.5-6.8 58.2 22 55.4 51.3-.4 22.4-19.5 40.5-41 43.4l-3.8 19.4zm-272.2 144c13.7-11.1 24.4-26.8 22.7-45.2-1-22-17.1-42.8-39.6-46.1-24.2-5.2-50.6 14.7-54.6 38.5-1.1 19.4 6.4 41.5 24.6 50.6 7.1-2.6 13.3 13.7 24 5 5.5-.9 14 3.3 23-2.9m48.3-122.2c20 10.4 35 31 32.3 54.3-3 20.5 16.4 1.3 20.2 11 10.6 0 20.6-8 20.9-13.8 14.7-.5 17-21.7 18.7-33.5a49 49 0 0 0-43-49.9 51.5 51.5 0 0 0-49 32m27.9 52.7a47.6 47.6 0 0 0-49-51.7c-11.4-.3-45.3 16-34.3 28.4 25.7 9.1 39.2 39.6 32.2 65.3 2.3 7.5 9-2.9 14.5 2.6 12.8-1.8 27.9-11.7 31-24.6 4-5.6 4.5-9.4 3.2-15.4zm18.5-88.8a53 53 0 0 1 48.2 39.2c3.5 9.1-1.9 27.5 14.1 18.4 15.4-4.3 12.3-20.7 24.3-23.4 3.3-21 .7-46.9-19.5-58.7a45.7 45.7 0 0 0-61.2 13.8q-3.6 5-6 10.7m123 19.2c17.9-11.8 15.3-38.6 5-54.6-4.9-15.5-30.7-20.5-33.6-13-1.7-14.7-26.2 1.5-32.4 8.3-10 13.2 21.8 14.9 24 30.3 9.7 12.5 3.7 32.8 8.3 42.8 9.5-2.6 25-.6 28.8-13.8zm-20.4-76.6a50.7 50.7 0 0 1 37.3 58c-5.3 8.9.5 12.8 6 6.5 15.3 6 29.2-13.4 33.5-26.4 7.9-23.3-7.8-52.8-32.8-56.5-15.9-5.1-35.1 4.9-44 18.4m84.7 41.8c32.4-1.7 47.7-45.2 28.3-69.3-14.5-22-49.9-23.8-66-2.5-11.6 11.4 19.7 10.3 23.7 23 13 13.4 11.8 32 14 48.8m-322.4 181.5c-10 10.4 1.8 39.5 13.4 19.7 3.8-12.2 2.4-23-13.4-19.7m126.4-35.8c12-8.3 7.9-36.3-8.2-23.4-5.2 7.5-6 27.6 8.2 23.4m-75.6 25.6c5.4 17.7 23.6-1.2 18.6-14.1-3.4-10.8-11.7 4.8-15.6 9.8zm181.5-100c-1.5-6 4-17.8-5.3-18.3-13.4 1.3-12.4 30.6 3 21.2zm29.6-29.8c2 25.3 26-.8 11.4-11-4.6-3.3-9.5 8.1-11.4 11m54.7-33.2c-4.3-1.5-9.7 8.8-14 12.4-.8 12.8 17 2.1 12.6-8.3l.5-2.1zm-1731-86.9c2.2-14.4-5.6-38.1 15.7-36.7q58.3-21.8 116.3-44.6c3.4 4.2.6 13 1.5 19-1.1 5.6 2.3 14.5-2 18a4120 4120 0 0 1-124.2 45 7 7 0 0 1-7.2-.7m3.4-1.8q62.9-20.9 124.5-45.1c1.2-9 6.4-34.5-9-25a9185 9185 0 0 1-107.2 39.8c-12 3.5-3.7 20.8-8.3 30.3m249.6-91.1c-3.5-9.3-1.3-20-2.2-29.9 29.3-7.8 57-20.6 85.7-30.3 6.2-3.2 15-2.8 17.8-10.2 15.5 5.1-9 24.8 2.2 35.1-21.2 10-44.4 16.3-66.4 24.8-12.2 3.2-24.4 11.3-37 10.5m3.3-2.5c16.3-4 31.9-11.4 48-16.5 14.7-5.6 30.1-9.7 44.3-16.5 2.8-7.5 10.2-34.5-5.9-23.4l-82 30c-9.5 3.6-4.2 18.3-4.4 26.4m-15.8-26.2c4.3 9.3 2 22 2.3 33-13.3 4.9-30.8 17.6-43.2 13.3-.5-11-8.3-29.4 7.8-30.8 11-5 24.3-6.6 33.1-15.5M1597 1188c13.5-5.2 41.2-6.7 34-27.2-2.2-17.1-25.4 3-36.4 5.6-1.1 7.3 1.3 14.4 2.4 21.6m-14.8 9.8c-12.5 5.5-28.6 14.7-40.5 14l.5-31.4c13-2.8 31.6-20.2 41.8-10.3-1.7 9.1-2 18.4-1.8 27.7m-3.7-2.5c1.3-16 3.2-33-16.3-19.8-9.8 2.9-19.3 6.8-16 18.4-1.6 10 1.6 19.3 13.2 10 6.6-2.4 13-5 19-8.6m897.5-222c-18.5-1.3-36.4-7.4-54.7-10.9-11.7-3.3-24.3-4.1-35.3-9.1 19.1.6 37.7 7.5 56.6 11 11 3.3 23.3 3.4 33.4 9m236.3 64.2c-4.3 4.7-11.2 9.7-2 13-.3 4.6-20.8-8.2-28.7-10.8-3.2-8.8 19 12.4 25.9-.1 1.4-.3 3.7-3.7 4.8-2m-346.2-65c11.4 0 25.7 7.2 38.8 8.7q31.1 7.6 62.6 13.9c26 9 53.2 14 79.3 23 32.4 11.2 65.6 21 95.6 38.2 34.6 19.4 73.7 38.3 99.5 68.4 4.4 14.8 7.3 34.8-.5 47.9-1.9 4.3 8.5 10.5-3.3 7-4.4 8-12.3 12.1-5.6.3-7-13.9-28.7-18.9-42.6-28.3-58.4-29.8-118.7-56-179.9-79.7a1173 1173 0 0 0-206.4-56.2c-28.7-7.2-58.4-9.6-87.8-12.6-15.4 7.3-16.5-1.7-8.2-10.7 8.2-13.3 18.6-26 30-36.4 6-4.1 13.8-.3 20.7-.7 16.6 2.3 33.5.8 49.7 5.4 19.4 4 38.8 7.6 58.1 11.9m-130 22.8c12.5-3.3 28.6 8.4 38.5.4.5-11.4 15.6-35-1.1-36.4-9.6-1.8-13.7 8.6-20.2 13.6a80 80 0 0 0-18.3 22.6c-5.8 2.4-21.7 5.3-5.8 6.5 15.1-.2 32.5 5.6 46.2 2.7-3-5.6-12.3-3-18-5-7-1.7-15.1-.6-21.3-4.4m235.3 4.4c-3.7 13.3-11.5 34.5-3.8 45.3 34.8 12 68.9 26.3 103.2 39.5a211 211 0 0 0 8.1-52.2c-35-13.2-71.5-22.5-107.5-32.7m205.5 79.4c-28-16.6-56.8-32-87.6-43-6.2 5.3-4.4 17.4-6.7 25.6-.5 9.4-5.6 20.2 0 28.4 29.1 12.7 58 26 87.4 38.3 3.2-9.9 2.9-21.3 4.7-31.7zm-221.8-38.5c-2-14.5 15.8-39.5-1.8-45.4-25.8-5.2-51.4-12-77.2-17-7.7 6.4-8.7 28-7.5 38.6 27 7.6 54.5 13.9 81.1 22.7l2.6.5zm-89.7-63.5c-13.2-6.2-28.4-7-42.5-10.8-11.3-1.5-23-7.4-34.3-3.5-2 11.3-5.4 22.5-6.6 34 6 8.1 20 5.1 29.5 8.8 15 2.9 29.8 7 44.9 9 7.5-7.2 7.3-26.2 9-37.5m373 187.4c6-7.6 3-18.5 3-27.4-6.8-26.6-35.6-37.8-55.9-52.8-3.6 15.4-17.9 44 1.8 52.2zm-457.6-159.2c8.3 6 19.7 5.5 29.5 8.3a1587 1587 0 0 1 119 28.3c7.6 3.2 42.6 12.5 19.5.7-26.4-9.4-53.7-15.5-80.8-22.1-6.8 3.6-12.2-6.7-20.9-4.6-21-4-41.7-9-62.8-12.5l-1.7.5zm-39-45.7c-10.7 9.3-32.7 28.3-29 39.1 19.5-3.4 39.4-12.4 44.9-36.3 2.1-5.8-12.1-1.5-15.9-2.8m221.6 91.6c20.8 8.6 42.5 15.2 63.3 24 14.5 5.2 28.7 12 43.3 16.3-11.3-11.5-39.2-17.3-57.1-26.4-14.3-3.5-39.5-19.6-49.5-13.9m117.9 43.4c9.6 10.1 27.1 12.9 39.8 20 16 7 31.5 15.2 47.5 22.2 1-11.7-21.8-12.3-30.2-19-19-7.4-37.2-16.8-56.3-23.7zm96.3 41.5c4.5 14.4 32.3 19.6 45.7 30 10.4 9.5 20.2 2.8 5-3.2a576 576 0 0 0-50.7-26.8m-1960-99.3 3.7 43.9c-12.2-2.4-21.5-13.7-34.1-14.3-12-17.3-48-16-39.4-44.1-3-13.8-1.7-27 11.6-15.6 12.3 9.6 28.8 12.8 39.8 22.2a39 39 0 0 0 18.4 8m-57.9-25.6c1.4 11.4-3.4 27.2 10.2 32.7 7.3 5.8 11.3 2.9 8.6-6-1.6-7.3 1.8-17.7-7.3-20.9-3.7-2.1-7.7-3.7-11.5-5.8m53.7 30.7c-8-9.5-19.8-9.2-15.2 5.4-3.5 13.9 24.1 27 17.1 6.4-.6-4-1.6-7.8-1.9-11.8m-25.7-14.3.7 30.5c9.6 4 5.8-10.7 5.7-16.4-1.1-6 1.7-12.8-6.4-14.1m-31.3 9.6c-1-9.5 1.3-20.3-3.6-28.6-2.3 1-3.1 31.2 3.6 28.6m41.7 27c5.4 6 26 13.2 10.5 3.4q-5-2.7-10.5-3.4m-82.9 12.2c-.7-12.3-2.8-24.7-2.7-37 9.5-5.2 14.3 7.4 23.8 9.3 13.5 1.3 8.5 15.6 11.3 25.1-1.2 7.8 4.4 25.6 3.8 8.7-3.2-11.9-3.2-30.8 11.7-21 9.9 10.5 28 9 23 27.3-.5 9.9 6.2 32.3-10.3 20.3-20-10.4-39.4-21.8-59.5-32.1l-.9-.5zm49.7-7.1c-2.7 11.8 3.9 35.5 16.3 28 3.6-14.7-1-24.7-16.3-28m-38.2-21.6c-4.6 12.7 7.5 38 17 29.3-1.3-11.5.4-24.7-13.4-27.5zm34.3 42.5c3.7-8.6-5.2-40.5-6.5-15.6 1 4.4-1.1 17.1 6.5 15.6m-43.5-46.3c-2.2 8.8 1.3 18.4 1.5 27.6 8.6 1.1 4.7-26-1.5-27.6m49 53.7c-1 4.4 10 6.5 13.9 10 6.8 6-45.9 20.7-14-10m133.5-22.2c2.4 14 5.4 37.2-.4 47l-33-17.2c.7-12.2-6.8-34.4 0-40.9 5.9 4.2 12.2-4.1 12.7 6.3 4.3 4.3 11.6 6 17 9.5zm-2.7 10.4c-7.6-7.7-23.3-14.7-17.3 2.7-7.3 11.3 19.8 28.8 17.9 12.3q.3-7.5-.6-15m-28.3-15.7 1.8 30.4c9.3-1.4 5.8-28-1.8-30.4M796 963.6c0 13.9-.1 27.8 1.5 41.5-9.4 11.2-27.5-9.4-38.5-11.9 1.7-14.5-2-28.9-2.5-43.3 13.7 2.4 24.4 15.7 39.1 13.4zm-5.2 35c-.5-15.6 4-40.2-21.4-39.4 5.6 11.7-3.8 31.3 12.5 35.2zm-25.4-8.8c4.6-7.5 3.8-28.5-3-32-.8 10.4.6 22.4 3 32m80.8 46c-.6-14.3-3-28.6-2-42.9 12 4.9 38.3 8.4 38.3 23.7.1 11.4 8.3 44.5-12.8 30.8-7.7-4-16.5-6.6-23.5-11.6m10.7-35.7c1.3 11 .1 22.4 2.4 33.3 9.4 6.6 24.5 14.3 20.4-3.7-.9-8.7.4-21.1-10.4-23.4zm-6.6 32c7.4-6.2 2.6-36-2.1-33.6-1 11.2 2.1 22.3 2 33.5m-40.7 96.2c3.8-13.6-11.5-43 8.9-41.3 4.2-.9 5 9.9 12.2 9.5 7.5 6.3 18.6-1.3 15.3 14-2.7 10.2 5.8 33.3-1.7 35.3zm14.5-4.4c8.4 6 21 12.8 17.7-2.6-.2-7.8 2-18-8.5-20-19.5-12.6-8 12.8-9.2 22.6m-4.6-4.8-2.5-24.7c-8.6-7-2.8 21.9-3.9 16 1 5.5-.5 19.7 6.4 8.7m1.2 10.8c5.5 5.6 32.4 14.8 15 4.6-4.9-1.5-9.5-6.4-15-4.6m-68.3-181c-.4 13.7 10.4 50-15.1 33.4-20.2-3.3-20.6-22.6-19.9-39.2-5.6-15.2 6.8-10.4 14.7-5 6.6 3.7 14.4 6.4 20.3 10.8m-21.7-7.3c-5.3 13.5 5.8 41.6 18.8 31 .3-12.7.6-31.6-18.8-31m-6.4 28.9c3.8-9 5-27.9-3.4-34 2.6 11-1.5 23.8 3.4 34m3.7 115q-2-21.2-4.9-42.3c3.3-9.6 6.7 8.8 12.6.8 2.4 4.9 7.5 8.7 13.2 10.8 12.7 2.7 11.7 15.6 12.6 26.3.8 10.6 4.4 29.2-10.5 16.8-7.4-4.7-15.2-8.6-23-12.5m11.2-31.4c-2.8 14.3.7 33.3 18 33.7 1-14.8 0-31.1-18-33.7m-6.9 25.6c6.2-5.9 3-31.9-3.6-29q1 14.6 3.6 29m24.3 16c-5.3-12-41-13.2 0 0m93 106c-10.3-2.2-19-9.5-28.7-14-17-6.1-2.5-31.8-8.6-45 12.8.5 20.5 11.1 32.3 14.8 6.2 8.1 3 22.4 5.2 33.3a98 98 0 0 1-.3 11m-5.1-13.7c-1-12.8 4.8-35.5-17.4-34.2-4 16.1-1 30.8 17.4 34.2m-25.8-9.4c8.6-4.7 3-24.3-.6-30-5.5 5.3 1 21.6.6 30m25 16.2c-.2-5-10.4-6.5-14.6-10.2-21.8-8 9.2 8.7 14.6 10.2m-45.7-128c-11.6-6.9-32.8-10.1-34.2-25.1 1.6-12.2-11.2-43.6 11.2-28.7 10 7.5 27.7 9 23 25-1.7 9.8 3.8 19.7 0 28.9m-5-39.5c-6-2.2-13.6-8.8-18.4-7.3 3 13.1-4.5 32.6 18.3 32.4a88 88 0 0 0 .1-25.1m-26-13c-3 7.3 2.6 42.2 4.9 20.4-.8-7 .9-15.1-5-20.4m3 33.6c5.3 6 34.6 17.7 17.2 6.3q-8.1-4.6-17.1-6.3m-48.4-19.3c3.1-12.1-6.2-34 2.6-39.6 7.5-1.2 9.5 4 16 7.5 5 2.7 12.8 3.7 16.3 7.5l2 40c-6.8 2-13.3-5-19.8-7.1q-8.6-4.3-17.1-8.3m13.1-31c-4.5 14 4.8 38 18.4 31.9 2.2-11.9.7-27.5-13.3-29.7zm-7.4 27.3c8.1-5.5 3.4-31-2.6-28.6 1.5 9.5.2 19.5 2.6 28.6m24.8 13c-8.4-9-43.3-17.5 0 0m-148-110.6c8.8 1.8 12.3 6.4 19.7 12 21.6 1.4 12 25.6 16.4 40.7.6 16.3-19.2-6-27.8-5.7-14.1-5-6.8-34-8.3-47m28.9 20c-5.3-1.5-18.5-13.2-15.6-.7-5 11.8 11 29.7 17.6 22.1zm-23.4-11.8c-1.9 5.9-4 33 3.7 26.5.5-8.6 2-19.1-3.7-26.5m25.5 45c-4-11.9-34.5-13.9-13.1-6 4.3 2 8.5 4.5 13 6m135.3 142c7.5-1.9 11.3 1.6 16.1 6l17.2 7.8c.3 13.3 8.4 35.2.4 43.2l-32.8-17.9c-.5-13-3-26.1-1-39.2m14.2 33.6 17.9 10c-1.4-9.5 1.6-20.7-4.8-28.7-12.5-10.6-17.8-5.3-14 7.8zm-7 0c7.7-9-4.4-41.4-3.5-16.1-.2 5.5 0 11.4 3.5 16m2.2 4.1c5.4 7.5 34.6 19.1 15.6 6.3q-7.2-4.6-15.6-6.3m63.3-70.7c-11.3-6.8-32-11-36.9-21 .3-11.5-1.8-23.2-2.4-34.8 6.6-9.2 20.4 7.2 29.2 9.2 10.5 3.7 8.3 17.2 8.8 26.2-.5 7 2.8 13.5 1.3 20.4m-5.6-14.6c1-12.3 2.4-28.7-12.6-31.8-12.6-6.6-3.4 18.1-3.3 24.8 5.2 2.5 10.1 5.9 16 7m-22.4-10.7c1.6-5.6-1-36.3-7-23.8l2.7 26zm-2.2 5.8c5.8 4.4 24 16.8 25.5 10.3-8.1-4-16-10.7-25.5-10.3M681.6 968c7.5-2.5 9.8 3.1 14.8 6.4l18.5 8.6c-1.4 12.9 7.6 32.6-1.3 41.6-18.6-6-36.4-15.5-32.2-37.8q-.2-9.5.3-18.8m31.3 43.3c.9-8.5-1.8-17-2.2-25.6l-15.7-7.8c-4.6 16.2-.4 31 17.9 33.4m-.4 4.7c-5.4-3.9-27.4-13.1-18-4.6 3.8 1.3 19.2 13 18 4.6m-24.4-16.3c4.3-8.8-1.7-38.3-2.5-13.7 0 4.6.3 9.5 2.5 13.6m-11.5 5.4c-10.5-6-27.7-9.3-33.3-19 .4-11.8-.6-23.6-1.2-35.4 8.9-2.2 9.5 0 16.5 6l17.3 8.1c.8 13.4 3.1 27 .7 40.3m-6.2-39c-9-5.1-21-10.1-15.5 5.6-4.6 14 24.6 27.6 18.3 6.4q-.6-6-2.8-12M651 987.8c5.1 7.9 34.4 15.9 14.5 4.2a26 26 0 0 0-14.5-4.2m-2.5-4c9.2-7.2-4.1-40.6-1-17.5zm81.8 116c13.1 1.8 22 12.3 34.2 17-2.7 13.1 3.7 26 .8 38.8-6.6.4-12.3-5.7-18.6-8-5-4.3-16.3-4.6-15.3-13-1-11.5-2.4-23.2-1.1-34.8m30.5 44c3.6-12.7-4.8-39.7-18.5-30.6l2.6 22zm-22.7-11.5c4.9-7.2-3.7-38.1-4.1-17 1.4 5.3-3 15.3 4.1 17m22.3 17.3c-5.2-7.4-33.8-17-14.4-6.7 4.8 2.2 9.4 5.4 14.4 6.7M640.9 935.2c-1.9-13.7-5.2-27.5-4.6-41.2 4.9-3.3 12.4 4.4 18.3 5.7 5.6 4 16.6 3.6 16.6 12-1.7 11 7 32.7-2.5 36.8zm13.2-4.7c7.6 3.4 17.8 9 13.8-5.6 3.2-12.3-4.7-19-15.1-22.1-7.8-3.4-1 25.3 1.3 27.7m-9.1-1.9c3.3-5.8.2-13.7.8-20.5-1-12.7-7.5-9.4-4 2.2.3 6.2.9 12.5 3.2 18.3m24 15.4c-1-9.5-33.3-14.3-13.9-5.4q6.8 3.2 13.9 5.4m-24 96-33.9-15-2.3-38c10.7-4.5 24.7 7.4 33 13.4.5 13.2 2 26.4 3.2 39.6m-20.3-20.5c9 9.3 20 5.9 13.3-7.5 6.6-15.5-23-25.7-15.6-5q1 6.3 2.3 12.5M612.3 990c4.2 7-1.2 31.4 4.7 28.8 4.6-6.2.2-14.6.7-21.8-.6-4.7 1-8-5.4-7m9.4 35.6c6 4.7 26.2 10.8 10.3 1.8a16 16 0 0 0-10.2-1.9m92.4-61.6c-8.3 8.7-22-6-31.7-8.2-11-5.8 4.7-33.7-4-41.5 19.4 3.3 39.5 12.1 33.8 35.1q.1 7.5 2 14.6m-23.6-15.7c8.4 4.3 22.4 14 17.5-3 6.8-11.5-14.2-29.9-18-19q0 11 .5 22m-5-1.6c-.7-8.7 1.2-18-1.2-26.3-4.9-4.2-2 22 1.1 26.3m23.4 16.6c-3.8-8.9-33-13-13.3-5 4.3 1.3 9.1 5.2 13.3 5M599 876c17.6 2.7 40 11.6 35 33.6 2.6 9.7 5 27.4-9.7 16.8-14.9-4.5-26.4-13.8-24.4-30.6 0-6.6-3-13.4-.9-19.8m13.8 8.6c-.2 11.6-2.2 27.8 12 30.8 12.3-.2 2.4-34-12-30.8m-6 25.4c5.6-6 1.6-34.4-4.1-27 .9 9 1.1 18.3 4.2 27m23.8 13.8c-3.9-7-30.4-15-13.6-4.6a29 29 0 0 0 13.5 4.6M344.2 1153c2-7.7 11.1-18.3 5.4-2.8-1.4 2-3 6.2-5.4 2.8m2647.2 183.2c2.6 6.3-1.3 23.3-3.4 8.7.3-3.2 1.9-6 3.4-8.7M1730 1602.5c7.7-1.8 13.9 5.6 20.8 8l44.1 23c-.3 11 12.3 17 21.9 13.8 15.8 3 30 14.3 44.8 21 8.8 5.3 38.8 17 15 22.4-30 8.2-61.9 11.5-92.7 5.5-31.7-5-67.5-19.9-82-50.5.4-7.7-1.7-16.1 4.4-22.2a50 50 0 0 1 23.7-21m60.5 32.8c-20-9-39.4-24.8-60-28.5-31.3 9.5-31 53.7-.3 65.8 43.8 28.2 102.8 31.6 150.7 12.2-2.5-6.8-23.9-13.3-33.7-20.2-13.1-6.3-25.5-16-40.8-14.1-8.6-.5-13.8-7.6-16-15.2M690 1119c1.9-12.2-3.7-30.4 3-38.9 11.4.2 21.8 11.2 30.6 16.3.7 11.1 9 37.9-4.6 37.1-10-4-20.1-8-29-14.5m12.9-30.8c-5.6 14.3 5 37.1 18.5 30.6 1.6-12.6 0-31.2-18.5-30.6m-7.5 23.9c7.9-6-2.6-45.4-1.4-13.6zm25.5 17c-3.5-9-33.5-17.2-14.6-6.3q7 3.8 14.6 6.3M578 1175c-8.1-1-7.1-8.3-10.4-13.2-11.6-8.7 14 1.4 19.3-5 12.6-.2 8.7-14.2 8.3-22.5-1.1-18.2-4-36.3-3.5-54.6 3.2-13-23.1-15.8-17.7-22.1 4.6-12.5-3-29.2-2-43.3-3.2-28.4-4.6-57-8-85.5-1.4-26.3-4.7-52.5-6.7-78.9 16.5-6.6 34.5-9 51.7-14 36.4-8.7 72.7-18.2 109.2-26.5 19.2-.6 38 4.2 57.2 4q23 2.8 46.3 3.8c11.8 3 24.3 1 36.2 2.3l90.4 39.4c16-2.5 31.4-9 47.5-9.4 19.7 5.1 38 14.7 57 21.9 11.5 3.3 5.6-14.5 7-22.4.2-15.9-3.3-31.6-1.9-47.5.2-20.8-2.8-41.4-1.9-62.2-4.5-9.6-2-12.6 7.8-11.6l93-24.2c5.3 7.3 15.6 5.3 24 5.6 19.6 2 39.4 1.8 59 3.9 7.6-2 31 4.4 28.8.4-11.7-5.6 5.7-3.3 10.3-.3 42.5 13.9 84.6 29.3 127 43.4 4.5-15.2.7-32.6 2-48.7-.2-18.2.3-36.4-.4-54.7-5.8-3.1-24.4 2-8.8-4.4 55.3-15 111.4-27.2 166.6-42.3-20.2-4 14-2.5 20.2-4.7 11.2-5.2 7.4 1.2 4.3 3.2 18 1.1 35.9 2.5 53.9 3 21.5 1.2 43.3 2.8 65 3.9-5.7 8.4-30 4.9-32.4 14.9 37.7 12.2 76 22.9 114.1 33.8 15.4-3.6 30.8-8.6 46.2-11.4 114 30.7 227.8 62.4 341.8 93.5 6.1-2.4 25-5.6 9.9 1.3-14.3 17.4-4.9 45.9-11.7 67.2-.2 22.4-3.6 44.6-4.8 67-3.2 20.7-3 41.8-5.6 62.5a834 834 0 0 1-4.1 47.3c-.8 17.2-3 34.3-3.3 51.4 11.6-37.3 25.6-76 55.2-103 19-19.7 45.7-28.7 70.3-39.6 33.7-12.8 68.4-22.6 102.7-33.8 13.6-3.4 26.7-8.8 40.9-9.2 12.5-1.7 25-3.5 37.6-.8 49.7 1.2 98.3 12.8 147 22 30.1 5.8 59.4 15.6 90 19.5 22.7 8.7 47.5 12.5 70.8 20.2a949 949 0 0 1 102.3 32c27.6 10.8 53.2 26 79.4 39.6 16.4 11 31.5 24.5 38.5 43.4 9.8 22 13.7 50.1-.5 71-26.2 35.6-49.2 73.5-74 110.2 0 10.5-14 15.7-17.5 27.5-8.7 17-16.1 37.2-8.3 56 2.5 8.2 7.7 18-4.4 14.8l-127.4 71.5c-7 14.8-10 31.3-18.7 45.3-4.4 16-4.1 33-9 49-7.6 4-5.2 13.8-7.5 20.9.2 7-9 7.4-13.3 11.2l-130.4 73.9c-13.2-.1-4.3-8 1.6-13.4q17.2-17.2 34.1-34.7c-1.8-8.7-10.4 1-13.8 4.8-11.7 13.7-28.5 22.9-38.4 38 15.8 4.7-1 6.2-8.4.3-89.5-38-179.2-75.4-268.6-113.5-11-3.6-23.3-11.8-33.8-12.6-6.8 8.3 2.5 12.1 9.7 14.5 125.8 53 251.4 106.5 377.2 159.5 1.9 7.3-21-6.3-27.9-8-118.8-50.4-237.6-101-356.7-151-12.4 1-3.8 20.4 8.2 20.8q127 56.3 253.8 112.8c20.7 9.4 42 17.6 62 28.4-68.4 40.6-136.4 82-205.1 122.2 6 9.7.2 30.4 6.5 33.7q119.1-70.4 238.1-141.3c7.4-4 14.2-9.3 22-12.4 3.1 4-9.6 7.8-13.4 11.4q-124.5 73.7-249 147.9c-8.5 18.8-27.7 32.6-44 42.3.8 12.1 1 33.4-16.6 29.8-5.7-.4-11.4-6.9-10-13-.8-5.7 1.6-25.5-4.1-9.6-6.8 17.6-27 25.2-39.3 34 4 15.3-7 41.3-25 27-6.5-3.5-5.3-10.7-5.8-17.1-9.2 5-17.3 22.8-31.5 25.9-24.7 1.7 1 41.5-27.6 40.7-11.7-.2-16.3-11.8-14.7-21.9 1.5-20-9.4 13-16.6 15.3-11.1 14.2-39.3 10.8-31.1 35 5.4 15.5-16.5 27.5-26 14.8-7-4.3-3.3-13.4-4.6-20.3-2.4.5-10 33-20.5 34.9-11.2 11.3-36 10-29 32 1.6 8.7-2.6 18.6-11.7 21-5.1 2.6-12.1-1-16-5-14.1-10 6.4-36.1-14.2-41.4-13.6-11-8.9 15-14.5 21.9a62 62 0 0 1-44.6 36.8c-4 12.1 5 30-8.4 37.7-9 4.7-18.5-1-22.6-8.8l-.6-22.5c-13.4 4.6-19 19-27.9 29.1-6.5 10.3-19 12.8-29.6 16.7-5.9 11.5 3.5 28-8.2 36.9-5.6 4.2-11.6 3.8-17.7 1-4.4-4.3-9.9-8.3-8-15.3-1.5-4.6 3.3-19.5-5-14.3-45 29.1-89.7 58.7-134.6 87.8-3.6 3.6 13.3 14.1-1.4 7.3-73.8-49.6-146.9-100.2-220.5-150.1-14.8-19-25.1 11.1-42.5 11.3-13.1 6.2.2 26.2-9.7 36.4-8.2 7.5-19.9 4-25.6-4.5-2.1-6-.2-13.8-.9-20.4 3.3-11.5-5.6-15.9-14.5-20.8-17.4-11.4-26.6-31.5-30-51.5-17.6 6 3.2 32.8-14.5 40.5-12.3 5.1-25-5.8-23-18.3-2-6.1 1.5-15.7-4.4-19.2-17.8-3.9-27.5-26.2-41.7-30-8.3 4.7-20.4-.8-21.8-10.2l-2.9-26c-11.9-6.4-24.7-11.9-32.4-23.8-13.7-8.4-10.6-37.1-20-40.8l-17.2 11c-2.2 12.7 8.8 34.8-11.5 38-13.1.6-17.2-12-17.2-22.5 1-11.8-5.8-18-17.3-20.7-11-4.6-21.2-23.7-26.8-25.5-1 10.2-11.2 15-20 11.9-16.1-6.2-2-31.8-19.4-36.2-10.7-1.4-18.2-21.4-28.1-11.8-6 2.1-12.5.4-16.1-5.1-5-4.5-2.8-12.6-4.7-18.6 1.7-16.2-21-13.7-27.7-25.7-7.1-5-15.7-32.3-14.5-11.5.3 12.3-17.2 17.9-24 7.7-4.4-4.3-2.3-12.2-4-17.9 2.1-16.2-19.8-13.8-26.6-25.3-16.5-11.4-14.8-34.1-23.8-48.2-22.1-14-39.7-33.7-59.2-50.9-37.2-27.2-84.2-39.2-116-74-1.2-9.2-21.6-4.5-11.4-12.8-9.1-11.7-16.4-25.1-27.3-35.2-18.4-10.2-30.5-29-49.3-38.9-13.3-4.5-28.8-8.8-26.7-27 .3-8.8-10.7-9.4-16.4-13.8-8.5-6.8-17.7 17-26.7.2-4-6.5-3.2-15-5.2-22.5-18.4-7.8-34.3-23.3-37-44-5.7-12.4-29-11.9-37-26.7-5.6-7.6-9.8-16.4-16.3-23.1-5.6-8-12.4-16.6-20.7-23-12.1-10.4-23-22.8-37-30.3-12.7-13.2-30.4-19.6-44.4-31.3l-17.6-11.8c.6 21.6-28 18.1-25.6-2.5-5-9.7-26-18.2-31.5-25 9.8 24-28 21.6-23.5-1-2.7-7.8-12.4-8-18.6-12-10.6 12.1-23.3.7-22-11.9-1.2-15.6-25.7-16-27.8-33.5-18.7-35.8 31.8-76.5 61.2-48.4 6.6 8 12.4 15.3 23.4 16 10.7 6.4 18.5-4.2 27.4-9.2a181 181 0 0 1 78.1-25.5c23.2 7.7 42.4-10 64.1-13 27.1-1.3 55.5-10.4 82.2-3.7 10.2 4.5 23.4 8.2 22.7 21.4-1.4 8.8 13.2 5.3.8 12.1-28 7.7-61.4 16.3-86.3 23.7q50 31.2 100.6 61c11.7-2.7 23-7.4 35.1-7.6-8.5 6.5-21.3 4.3-29.5 11.3 25.4 15.2 50.3 31.2 76.1 45.8 8.3-4.2 33.8-5.5 29.2-13-25.3-14.7-50-30.6-75.8-44.1m1154 895.3c8.6-1 32.6-19.7 12.4-8.8-11.6 8.4-25 13.5-36 22.8 8.4-3.5 17-7.6 23.6-14m566-493.6c-18.5 5-33.8 24.7-52.3 23.5-30.7-15.6-62.8-28.4-93.8-43.6-64.6-31-129.8-60.4-194.7-90.8-15.6-7.3-31.6-14-46.7-22.2-.8-7.2 16-9.6 23.6-14.8 29.1-14.4 58.8-27.7 87.8-42.3-3.7-4.3-24.5 11.4-35.1 14.4-28.6 14-58.2 25.8-86.4 40.5 33 17 67.1 31.6 100.4 47.8q117.6 55.3 235 110.8c13.1 10.6 25.2-2.3 36.7-8.1 8.2-4.8 17-8.6 24.8-14 10.4-4.8 20.2-11.3 30.7-16.7l18-10.1c-12.8 2.3-33.7 16.7-48 25.6M612 1189c-13.7-13.7-71-36.3-2-.4 11 7.2 23.2 15.8 36 20.4 12.6 10.7 28.1 17.5 42 26.4 85.2 50 169.9 100.8 255.1 150.5 10.7 0-9-8.8-14-12.2-64.5-38.2-129.4-75.9-194-114l-83.2-48.9c-13.3-5.9-25.3-17.4-39.9-21.8m1672 89.9c-2.5-6-11.2-5.7-16.4-9-13-4.6-25.7-10.5-38.9-14.4.3 5 22.5 10.3 32 15q38.5 14.2 76.7 29.4c-9.6-8.4-37-18.4-53.4-21m314 237.8c7 7.4 39.7 14.1 17.3 6-10.7-4.6-21.2-8.1-31.5-13.4a5993 5993 0 0 0-95.7-40c1.3 7.3 27 12.7 37.8 19 23.3 9.3 46.3 19.6 69.8 28.2zm-1570-84c.6 7.1 9.7 7.8 14.3 11.9 8.5 4.6 16.5 10.3 25.3 14.1-1.4-8.6-25.5-15-35.5-24-26-16-52.9-31.3-79.1-47.1-5.6 5.2 7.8 7 10.9 10.7 19.6 11.2 38.9 23.6 58.8 34zm1290-32c-5-6.8-31-16.6-30.2-12.5 12.9 7.9 27.7 11 40.9 18 36.9 15 73.6 30.5 110.4 45.5 2.4-4-11-6.4-16-9.5-33-13.4-65.4-28.1-98.6-40.8 0-2.9-6.5 1.6-6.5-.7m-960 451.8c.4 26.7-1 53.6 2.6 80.2 7.5-1.3 0-24.5 1.5-34.7-.4-14.7.4-29.5-1-44.3a175 175 0 0 0-27.8-21.2c-30.6-20.5-61.1-41.3-92.7-60.4 2.5 20.9-2 47.3 4.2 66.5 3-18-.3-37.4-.3-55.7 12.2-.6 24.5 13.6 36.5 19.5 25.7 16.7 51.2 33.7 77 50m511.7-159.8c10.1 0 19.7-12.6 29.3-5 76.6 41.3 154.4 80.6 231.6 120.9 5.1-2-10-7.5-14.8-10.9-68.6-36.7-138-71.9-206.8-108.3-8.5-2.6-12.7-8.2-4.2-13.2-9 7.6-17.3 3-25.7-2.3l-55.4-29.5c.2-11.4-14.3-15.4-23.4-12l-58.6-31c-10.2-8.9-29.7-12.7-42.4-22.3l-170-88.8c-3.8-12.6 25-14.1 34.5-21.3 11.8-7.2 36.3-12.8 40.6-19.8-192.6 82.4-385.4 164.5-578 247.1-15.4 7.4 3.5 8.2 9.8 2.3l482.7-210.3c49.1 24.8 97.3 51.7 146.3 77 21.3 11.3 43.1 21.8 64 34-2.8 8.4-24.4 9.7-25.5 24.2a59 59 0 0 0 1 34 90 90 0 0 0 59 37.8 167 167 0 0 0 91.9 2 52 52 0 0 0 14.1-4.6M1580 1297c23-6 44.7-16.3 67.1-24.3 126.3-48.4 252.7-96.5 378.7-145.6 12.3-6.7 5.1-8.8-3.2-4-66.2 26-132.3 52.3-198.7 77.6-64.3 25.3-128.7 50-193 75.1-18.3 7.3-37 14.3-55 22.1-7.6 1.6-33 12-25.7 11.9 9.8-4.4 20.8-7 29.8-12.8m612 2c2.2 11-16 20.2-21 30.6 6 7.6 33.7 25 40.8 5 16.8-20 33-40.3 49.5-60.6l-48.3-18.7c-10.6 12-21.8 24-30.6 37.6 5.4 3.4 14.1 7.9 2.4 5.6-9 3.3-13.9 20.3-22.7 28.1-.3 9.2 8.6-2.1 11.4-6zM320 1093.1c3.2 9.6-20.4 17-12 30 3.6 14 21 12 32.1 10.9 12.3-5.6 26 7 36.4-1.3 23-15 49.5-24 75.7-31.9 9.5.2 20.5-6.5 5-7a143 143 0 0 0-25.4-3.3c-15.2 1-31.5-2.6-47.5-4.5-23.8-3.4-48-.8-70.1 8.5-17.2 6-34.1 14.4-47.6 27 12.3 16.7 26.2-7.1 38-14 5-5 11.4-8.5 15.4-14.4M2592 1405c-19.4 27.2-41 53-61.3 79.4 21.3 12.6 28.4-20.4 41.5-32 6.8-15 35.2-32.4 26.3-46-10.2-3.3-20.2-8.4-30.5-12.2-12.7-5.2-25.6-9.7-38.5-14.5a288 288 0 0 0-31 41.4c11.1 4.8 18.8 11.4 7.5 20.8-5.6 8-12.7 15.2-17 24.1 12.8 4.2 29 18 41.2 13.2 19-24.2 37.7-48.8 57.1-72.6l2.1-1.2zm-130 287.8c-22.6 10.2-43 24.8-64.5 37-4.1 3.7-28.1 15.5-17.5 6.5l122-72.7c19.9-12.5 41-22.8 60-36.5-13-3.2-26-17.4-39.4-11.3L2347 1715.9c15.8 2.7 20.6 28.8 32.8 27.5q39.6-24 79.4-47.5c7-6.4 17.2-9 25-14.8 10-6.6 21.4-11.5 30.4-19.2-17.5 5.9-33.3 19-50 27.9l-1.4 1.3zM708 1129c9 8 21.2 12 31.6 18.2 51 27 101.4 54.8 152 82.3 7.7-3-17.1-11.6-22-16-19.6-5.8-12.5-29.2-15.6-44.9 2.1-3.5 14.3-3.8 15.1 3.3 14.6 6 27.4 13.6 23.2 31.2.4 6.4 3.5 26.6 3.6 9.3-3-21-1.5-42.1-4-63-1-4.4 2-19.8-3.7-14.9 3 13.3 7 44.7-14 27.8-8.3-5.5-24.2-5.8-21.5-19-.1-11.2-3.4-22.2-2.6-33.5 3.8-2.6 10.3 5.6 11-3.8 2.8 10.7 25 24.3 30.7 17.2-3.9-15.8.2-32.5-3.6-48.1-3.8-3.3 1.4 20.4 0 28.4-2.3 16.4-23.3-5-33.4-6.4-8.3-13.5-2.9-33-6.5-48.4 5.5-.6 17.8 12.3 28 14.4 12 9.6 12.7-.2 11.8-10.5 0-15.2-2.5-30.3-2.5-45.6-12.4-8-36.9-24.3-45.3-19.5-2 13.5 1.3 29.3.2 43l-1.4.2h-1.3l-34-16c4-12-12.1-41.3 2.7-42.4 7.8 3.7 33.2 14.9 24.3 6.3A23427 23427 0 0 1 593 867.5c-9.4-4.4-18.6-9.3-28.2-13.2-2.1 9.5 29.8 10 31.2 23.4-.6 11.1 4.5 22.6.5 33.4-10.3-3.3-19.1-10.6-29.8-13-8 22.7 29.8 14.7 32.7 32.2-1.6 11.3 11.4 43.7-9.7 30-7.3-4.7-24.4-14.3-17.6 2.2.6 7.3 13.2.5 15.1 9.3l17.4 8.2c-.2 12 5.1 31 .1 38.7-10-1.3-33.1-22.4-27.9-1.4 13.7 8.3 39.4 13.8 33.3 36.5 1 10 1 25-11.9 13.8-7.3-6.2-26.2-11.6-9.4-1.9 32.8 17.3 64.8 36.1 98 52.5l3.2 1zm962-507.6c-8.1-2.6-16.5 1.5-24.3 3.6-3.4 3.3 11.1 4.5 15.4 6.9 39.4 12.5 79 24.3 118.5 36.4 22.6 7.7 42.8-13.5 64.2-11 21.2 8.7 44 12.8 66 19.6 78.7 21.4 157.2 43.5 236 64.6 7.4 7-10.6 7.8-15.9 10.6-33.5 10.3-67.4 20.5-100.7 30.5l-52.4-15.3-52 18.3c3.1 8.7 34.3 8 34.4 16.5-15.8 7.2-33 10.3-49.3 16.3l-83.8 27.1-51.3-17.6c-153.6 45.8-306.9 93-460.4 139.4q-90 27.4-180.2 54.4c-15.2 2.7-2.2-3.5 4.5-4.4 121-37 242.3-73 363.4-110 94.2-28.3 188.1-57.5 282.4-85.6 4.3 2.2-7.1 6.6 4.4 7.5 12.3 3.9 24.1 9.6 36.9 11.9 20-3.9 39-12 58.7-17.6 12.6-6 39.6-8.8 43.6-16.9-10.6-2.5-22.3-1.4-18.4-16 0-8.6 16.6-6.4 24-11.5 14.4-5.1 29-10.2 43-15.8 19 3.4 38.1 16.7 57.8 13.8 25.2-8.4 51-15.4 75.8-24.8-3-4.8-12.4-4.2-18-6.8Q1965 710.1 1838 674.2l-49.2 13.6-160-47.1c-1-3 8.4-12.8-4.3-11.3-16-1.1-32.4-5.3-48.3-2.3l-106.5 26.7c-2.8 6 22 8.1 30 12.3 114.8 34.6 229.2 70.2 344 104.4 6.4 6.1 17.2-5 16.4 6.3 3.4 12.5-3 20.4-14.8 21.3L1628 862.9c-11-1-34.7-21-30.2 2-2.4 7.3-13 6-19.1 9.2-23.6 7.7-47.6 13.8-71 22-3.5 6.4-12.7 5.3-18.8 8.2q-100.4 29.8-200.5 59.8c-18.6 5-36.6 12.4-55.6 15-22.7-5.9-43.5-17.6-65.4-26-59.6-25-118.7-51-178.5-75.4l-45.1 11.8c-32.2-13-63.6-28.2-95.6-41.8-22.3-4.8-45-4.5-67.4-7-21.1-1.4-42-4.5-63.2-4.1q-46.5 11-93.1 22.3c-6 4 9.7 6.5 13.6 9.9 47.4 22.3 95.3 43.6 142.6 66.2 37.8 17 75.1 35.3 113.2 51.7l96.7-27.6c9.1 9.3 22.8 11.6 34.2 17.4 32.6 14 65.7 27 98.2 41.2 4.7 7-15.9-3.9-22.6-6.2L986 963.6c-30.4 8.6-60.6 18.5-91.3 25.4-17-2.7-31.2-14-47.2-20l-185.8-85.6q-33.2-16-67-30.7c-18.3-2.9 4.6-6.7 12-8.7 37.5-8.8 74.8-18.6 112.3-27.5 21.6-1.2 43.1 4.2 64.7 4.6 21 3.7 42.7 4.3 63.7 7.2l94.8 42.3 46.8-12.3q116.6 48.8 233.1 98c21 6 41-7.3 61.4-11.1 69.9-19.6 139.4-40.5 209.3-60-8.8-10.6-37-14.8-53.1-23-104.2-38.1-208.1-76.8-312.2-115.2l-40.3-15c7.1-4.4 16.6-4.4 24.6-7.4 12.8-3 25.2-7.6 38.3-9.2-12.5 10.8-43.3 8.1-48.8 18.3 9 5 18.5 6.4 27.6 1.8l24.5-7.4c-1.1-10-1.4-24.6-15.2-16.3-23.6 6-47.3 12-70.6 19.3q200 75 400.1 149.7c-16 7-33.4 10.7-50 16.2q-87.3 26.3-174.7 52c-14 0-26.4-8.4-39.5-12.8-69.7-27.8-138.9-57-208.6-84.7-15.9 3.1-31.5 8.5-47.6 9.9-13.8-4-26.6-11.5-40.1-16.7-21.8-8.7-42.3-21.8-66.3-22.6q-33-2.5-66-5.5c-19.7-1-39.5-4.9-59.2-3.5q-75.6 18.1-150.8 37.3c53.5 25.9 107.9 50 161.5 75.7 52.1 24.3 104 49.3 156.2 73.5 10.7 2.6 20.9-4 31.3-6l71-20.6 136.7 59.4c76.2-22.7 152.2-46 228.4-68.7 108.2-33.1 216.6-65.2 324.9-98.2 30.3-9.2 61-17.3 91-27.6 12.7-7.1 26 7 39.2 9.7 7 1.7 14 6.8 21 6.4l165.3-49.4c-5.9-1.1-12.3-7.2-17.5-1.7-3.5-8.1-13-8-20-11-7-.9-15.4-5.9-4-7.5 7-3.2 16-3.3 21.2-9.5 5.2.5 14.8-3.7 13.5 3l47.8 13.6 136.7-44.9c.4-5.5-14.3-5.7-20.6-8.5-101.2-27.4-202.3-55.4-303.5-83-18-3-35 5.2-52.5 8.6-11.8-1-23.5-6.2-35.2-9l-90.3-26.5c-5.5 2.5-17-7.3-2.4-4.7 6.3-2.5 31.4-6.7 24.7-9.5-19.4-1.3-39-1.6-58-4-21.8 2-43.3-5.8-64.8.3q-74.7 18.3-149 37.7c-3.5 4.1 11 4.9 15.3 7.5 56.7 17.6 113.6 34.5 170.2 52.3q110.6 33.6 221 67.9c10.2 4.8-7.3 6.3-11.6 8.5-57.4 17.5-115 34.5-172.2 52.3-12.8 7.1-33.6-13.4-41.3-6.5 2.5 5.3 11.1 4.8 16 7.8 7.2 2 14.1 7.3 21.4 3.1 70.7-21 141.7-41.2 212.2-62.8-.4-6.4-22.6-7.7-30.6-12-103-31.6-206.2-62.6-309.2-94.1-25.4-7.3-50.2-16.1-75.8-22.4 12.4-6.3 27.7-8.2 41.6-12.2l98.9-24.7c20-2 40 2.3 60 2.8 10.6 2.9 30-1.5 36.6 6m188 667.5c-13.4 9.3-30.4 13.1-45.2 20.3-76.5 31.6-153.5 62.3-230.3 93.7-13.7.3-13.9 13.5-8.9 20.6-4.5 4.2-4.5 14.3-9.2 4.3l-181.8 76c-3.7 4.5 20.5 13.2 3.6 9-15.7-1.3-25.9-24.7-42.2-13q-81.4 33.6-162.7 67.4c.2 9.8-5.2 3.6-12.4 5-69 29-138 57.2-207.2 85.5-9 8 13.4 20.3 13.3 32.7 7.2 9 26-2 37.4 6.9 21.4-5.1 42.3-17.5 63.5-25.5l807.4-345.8c-5.3-12.9 12.7-1.4 20.8 1.5 65.6 29 132 56 197.6 84.8 16.6 6.5 10.5-19.7-3.4-18.2-56.5-24.6-112.6-50-169.2-74.1-23.7-10.4-47-21.6-71.1-31-4.3-9.2 18.5 5.5 24.4 6.7q113.4 50 227 99.6c7.6-4.1 1.8-11.5-5.5-12.2-33.8-14.5-67.7-29.4-101.7-43a1186 1186 0 0 0-77.8-32.7c-2-10.4 11-14.7 17.1-21.4 11.7-9.4 22.5-20 35-28.3 13.8-3.7 19.7-18.1 29-27.7l37.1-45.3a20 20 0 0 0 14.7-10.3c1.3-4.3 13-11.5 6.6-13.5q-23.9-8.8-47.5-18.6c-4.2-2.8 7.7-13-4.9-6.2l-554.9 212.9c-67 25.2-133.6 51.8-200.8 76.7q-72.3 27.8-144.7 56c-2.5 13.3-19.2-6.2-27.3-8.3l-16.8-9.5c-10.3 5.5-33 8.9-35 16.6 29.4 19.3 60 37 89.8 55.5 17.2 10.1 33.8 21.2 51.4 30.5q85.1-34.1 169.6-69.4c13.2-4.3-4-10-9.4-13.7l-23.7-13.4c-5.5 9.1-6.2-1-8-6.5 4.2-14.4 2.5-37.9-2.8-46l196.3-73.6c2.6-6.2 25-7.2 13.6-1.1 20 11 40 22 60.6 31.7 8.9-4 8.5-3.2 8.5 4.2 10.6 8.6-13.5-2.6-6 11.3-8.4 24.3 16.8 4.9 28.7 2 83.8-34 167.5-68.5 251.4-102.4l3-.7zm854.3-251.5c24-25.4 61.6-43.5 95.7-57.6a215 215 0 0 1 90.3-19.2c-34.6-17.9-73.2-34.8-112.2-34.4a396 396 0 0 0-133.5 44.5c-15.5 9.1-29.6 20.4-43.8 31.4 4.8 3.7 24.8 11.2 7.2 7.2l-31.8-11.5c5.7-3.2 21.3 8.5 28.7-3a304 304 0 0 1 113-57.8c20.9-6.7 42.4-10.4 63.7-14.6-30.2-8.6-60.3-17.5-90.9-24.5-16.9-1.8-33.8 1.5-50.5 4a472 472 0 0 0-150.9 63.7c9.2 3 12.9 7.4.5 4.4-6.6-.7-31.5-7.3-26.7-8.9 7 .9 14.2 3.6 21 3.3 38-22 76.5-43.9 119.2-55.5 20.4-8.7 59.7-11.3 69-15.2q-38.1-7.5-75.6-17.8a196 196 0 0 0-85 6.4 409 409 0 0 0-130.4 59.6c7 4.1-8.6 4.7-11.8 3.5-8.6-2.5-20.6-5.3-5.6-4.4 8.1 2.5 14.5-1.3 21-5.9a430 430 0 0 1 120.4-54.1c19.7-7.3 40.7-8.2 61.3-10.8-26.9-4.7-53.9-12-81.3-11.4-55.5 5.8-108.3 26.6-158.3 50.2-15.5 5.2-27 21-43 20.5-11.9-5.6 12.3-2.1 16.6-9.6 50-29.1 105-49.8 161.8-60.8 14.5-2.7-14.8-4.1-21.4-3.5-42 1-81.9 16.8-121.6 29-35 12.3-70.9 24.3-101.4 45.9-5.4 5.6-26.8 24.5-21.3 24.5 10.7-10 20.6-22.6 34.9-26.8 8.3 0 16.7-.9 24.6 2.5 24.9 3 49.6 7.6 74.5 11.3 12.3 3 25.7 3.8 37.3 9.2-23.6-2.8-46.5-10.2-70.4-11.3-17.4-2.2-34.4-5.3-52-7.8-30-3-48 25.8-61.2 48.5-7.5 13.8-24.5 40.1 7.6 38.3 39.4 8.4 79.2 14.8 117.8 26.8 62 18.8 124 38.3 186 57.6 65 21.2 127.5 49.3 188.3 80.5 24.4 11.5 50 20.5 75.5 28.8 18.3-11.2 21.6-38 21.8-58-4.4-31.5-25.7-56-50.8-73-55-37.8-118-61.2-180.4-83.8-25.7-8-51.3-18-78-21.8-12.6-5.1 15.3-1.9 19.2 1a1025 1025 0 0 1 188.1 70.8c36.4 19.5 75.9 39.3 96.8 76.9 5 10.6 7.4 22.9 9.4 34.5-.8 20.3-6.1 41.2-19.8 56.8-21.9 34.6-44.5 68.8-65.3 104 6.7 3.5 6.7-3.4 11.3 5.3 11.7 4 23 11.5 35.3 5.9a448 448 0 0 0 90.9-29.6c12.5-5.5 25.7-9.8 37.7-16.3 2.5-7.2 8.3-34.3-6-21.1A359 359 0 0 1 2722 1316c-14.1 8 5.4-16.8 8-22.2 8.2-12.6 15.4-26 24.7-38 8.7-6.3-9.1 13.4 4.4 9 30.5 1.3 60.5-7.6 89.4-16.5 21-8.1 42.1-17.4 60.8-30l42.7-64.4c-20 7.6-56.9 42.2-84.3 43.8-25.3 13.6-59.1 8.7-83.4 21-3.6 7.8-23.8 31.1-11.8 11.5 9.3-15.9 21.2-30.7 24.6-49.6 3-8.7-2-31.5 3.2-31.1 2 24.7 12.8 43 52.7 6.8a518 518 0 0 0 125-60.2c8.3-6.1 21.3-9.9 20-22.7.8-20.2-5-41.1-16.4-57.7-17.2-2.5-36 5.4-53.6 8.5-49 14-97 32.2-142 56-6.3 3.8-20.7 7.3-11.3 15.5l-22-13.3c-1.9-8.3 16 12 22.2.3 44-25.8 93-42 141.2-58.3 16.4-8.3 34.3-7.9 51.6-11 21.5-4.4-11.5-18.3-18.7-25.3a429 429 0 0 0-44.8-24.7c-49.4-2.5-95.7 17-138.2 39.8-19.2 9.4-35.4 23.7-53.7 34.3M956 1237.1c13.7 2.2 25 12.1 37.6 18 17.1 9.5 35.1 17.1 51.7 27.5 23.9 12.5 47.8 24.8 71.4 37.8 6.1 4.7 2.3 14 3.4 20.9.3 14.8-.5 29.8.6 44.6 13.2 11.3 4.8-16 7.1-23.6-.4-17.3.3-34.6-.5-51.8-36.5-21-75-38.4-112.1-58-7.8-16.1-.7-35.3-4.8-52.5-1.5-24.8-.2-49.9-3-74.7 2.4-10.1-5.8-29.6 7.6-32.5a26 26 0 0 1 28.5 2.7c27.3 11.9 54 27 81.5 37.1 121.6-38.6 242.8-78.4 364.3-117 38.6-12.8 77.5-24.3 115.9-37.7 16 4 30.2 13.3 21 32.6-.4 17.7.5 35.6-2.1 53-.3 12.3.4 24.6-1 36.8-45.8 18.3-93 33.3-139.4 49.9-36.8 13.3-75 23.7-110 41.4-35.7 26.3-70.2 56.4-112.8 71.4-41.4 14.8-83.3 27.8-124.5 43-9.1 15.2-2.3 38.8-4.4 57.2-1.3 10.2.3 41.2 9.8 19.7.2-19.3-.4-38.6.3-57.9 6.2-8.7 18.5-9 27.7-13.4 46-16.1 92.3-32 138.1-48.6a4292 4292 0 0 0 62-21c14.7 5 4.5 35.8 14.2 46.6q187.6-71.2 374.8-143c5.2-26 .9-52.6 4.8-78.7-.5-16.8.5-33.5 2-50-.4-19 .9-37.8 2-56.6-.9-14 .7-28 2-42-.8-25.6 2.5-51 1.5-76.7-6.4-1.3-14.2 3.3-21.2 4.6-71.2 20.9-141.8 43.3-213 64-82.6 25.4-165.7 49.6-248.3 75.3-57.7 17-115.2 34.6-172.8 51.7-2.8-7.8-12.9-7.9-19.2-12l-103.1-45c-2.8-2.4-116 7-4.9 26 2.4 16.4.3 33 3.2 49.4-.8 23.7 2.7 47.4 2.3 71.1 3.6 17.6 0 35.6 3.6 53.2 7 21.7-10 31.5-28.7 34.5-16-1.6-11 17.5-15.2 21.8-3.6-7 .1-21.8-13-13-20.4 4.8-42 22.6-61.1 5-14.3-6-3.2 18.9-5.8 29-.7 15.4 2.7 30.4 2 45.8-1.6 11.5 2 22.6 15.2 13.8l124.5-42.2c1.5-7.4-12.5-9-18-13.6-13.4-7.4-27.6-13.8-40.6-22zm1598 381.6c4.6 4 12.8 5 14 11.8 14.8-7.1-16.5-10.3-20.7-16-10.9-6.4-22.8-12.5-32.6-2-57 32.5-113.1 66.4-170.6 98-5.4-3.7 9.1-8 13.3-11.4 52.4-30 105-59.8 157-90.3-8.5-12.5-32-16.1-46.4-24.9-32.1-14.2-64-28.7-96.2-42.6-41.5 21.9-81.7 46-123.2 67.8-42-18.2-83.3-38.7-125-58-76.7-36.3-153.7-71.8-230.2-108.6 4.6-8 29.7-13.6 41.8-21.6 25.9-12.4 52.2-23.8 77.7-36.8a7085 7085 0 0 0-117-51.4c-7.5-3.6-14.6 3.7-21.8 5.6-101.4 43.3-202.4 87.6-303.8 131.3-10 5.9-36.1 11.2-34.3 20 60 33.3 122 63.5 182.5 96.2 24.7 19.6 53.3-5.8 81.4-5.1 37.1.6 79.3 6.6 106.2 34.3 12.2 11.4 23 28.1 16 45.2-4.5 12.4-28.1 24-5.7 29.6 72 36.9 142.8 75.8 215 112.4 11.4 6.6 18.7-11.6 30.4-12.2 17.4-6.4 41 8.9 47-15.3 13.7-15.6 36.5-26.7 57.3-20.4 13.2.2 11.2-25.5 25.7-30.3 14.5-15 36.6-13.9 54.2-11.5l182-103.9c8.7 3.2 16.9 8.6 26 10.1m-1259.8 89.6c17.9 8.4 33.8 20.5 51 30.4q149 92.5 298.3 184.8c7.6 11.1-21.1 15.1-28.7 22.8-47.8 26.2-96.8 50.5-144.3 77.2 6 12.5 27.4 20.2 39.3 30.8l110 76q70.4-41.3 141.1-82c15.2-13.4 17.9-41 41.5-48 16.2-12.3 43.2-1.5 55-3.5a66 66 0 0 1 41.6-52.3c19.4-9 42-2.8 58.7 8.9 1.1-32.6 28.5-64.8 62.9-63.2 10.3-.7 22.5 5.8 19.7-10 4.7-36.7 46.5-63.3 81.7-50.6l7.6-15.8c-27.7-17.3-57.6-31.2-86.5-46.8-50-26.2-100.3-51.6-150-78.3-33.3 12.8-69.4 20.9-105.2 15.4-33.7-5.2-72.2-17.1-88.4-49.4-8.9-18-.8-41.6 17.2-50.4 16-7.5-16.3-13.4-21.9-19.6-57.4-30.6-115.5-59.8-172.9-90.6-8.2-2.7-16.1 4.6-24 7-115.4 50.7-231.3 100.5-346.8 151-39.9 17.1-79.4 35.1-119.5 52-3.6 9.5 13.8 23.2 16.1 35.9 32.6-3 51.4 26.5 62.3 51.7 24.5-3 45.6-16.7 68.2-25.9q55.9-25.2 111.7-50.7c3.7-.6 3.4-3.7 4.2-6.8m456.2-549.8c-125 47-250.2 93.6-375 141.3 4.3 6.7-9 3.7-10.6 6.2-.3-7.6-8-8.3-13.5-11-18.5-7.3-36.2-16.7-54.8-23.8-47.2 15.3-93.8 33-140.8 49-10.4.8-9.8 9.7-9.2 17.7v51c-17.3 16-37.8-3.6-30.5-23.2-2.5-14.5 5.8-35.5-6.2-45.3-28.4-15-56.6-30.4-85.3-45.1-47.2 15.8-94.3 32.1-141.6 48-5.7 5.5-7.6 11.8-11.4 1.8-14-4.1-10.6-20.8-11.7-32.4 3.8-7.3-4.4-34.8-9.7-18-3 10.9 8.7 35.9-2.3 37-19.7-5.4-9-29.7-13.5-45.3 2.9-11.6-13.7-17.5-7.6-1.9-.2 11 10.2 43.3-9 29.1-20-8-8-34.9-14.4-51.9-8.2-10.4-4.5 20.5-4.7 26.9 4.6 11.5-1.8 17-10.7 9.3-12.5-7.4-4.6-28.7-8-42.4 1.2-10.4-11.5-14.5-7.7-.5-1 13.1 13.5 49.7-15.3 23.6-5.4-15 1.1-35.7-6.2-47.5-9.1 5 5.7 35.7-4.8 40.7-19.3-3.5-15.5-25.6-16-40.5 3.3-8-9.9-26.5-7.3-5 .7 9.6 5 28.2-.5 32-21.5-4-14.3-27.5-17.5-43.7 2.2-10.6-9-19-6.6-3.7-.2 10 10 42.2-9.7 29.4-8.1-1-6-9.1-6.8-15.2-1.3-11.5-.5-23.4-4.4-34.3-10.1 7 5.5 34-5 39.1-11.8-1.4-13.6-10.9-13-20.7-1.5-11.2.9-23.4-4.3-33.7-9.3 5.6 7.4 38.1-4.5 41.2-21-5.6-10.3-32.8-16.8-48.4-5.6-7.6-2.7 17.7-3 23.9 5 13-2.4 16.1-11 7.3-5.6-12.6-3.2-31-6.3-45.8-6.6-9-2.8 5.1-3.4 9.5l1.2 28.3c-8.9 4.8-13.7-9.2-17.8-13-9.6 1.2-20.2 5.6-5 11.2 82.9 49 166.1 97.4 249 146.2q96.5 56.2 192.7 113c27 15.4 53.1 32.8 81.4 45.8 72.2-28 144.2-56.7 216.7-84l590.3-230.2c69.2-26.1 137.2-55.1 206.7-80.6 10.4-6 30.3-5.3 31-19.2 1-7.6 5.5-23.5-13.7-6.4q-65.4 24-130.6 48.7l-28.6-7.4-3.9 21.4c-21 10.4-44 16.7-65.8 25.7-31.3 12.1-63.2 23.1-94.2 36-18.4 9.5-41-13.9-60.6-19-3.1.8-5.7 1.2-8.2-1.2m-131.5-59.3c2.1-15.6-.3-31.4 2.8-46.9.2-19.8-.3-39.6 1.9-59.3-15.3-2-37.8 11-56 15q-218.6 71.6-437 143.9c-9.2 10.1-2.4 27.8-4.5 41.2-.5 21 .6 41.7 2 62.6.4 14.9-.8 29.9 1 44.7 7.9 5 16.5-2.6 24.5-4.1 33.5-10.7 65.5-25.4 99.4-35 47.8-13.6 83.3-48.9 123.4-75.9 19-9.7 40-14.9 60-22.6 60-21.3 120.3-41.6 180.3-62.7zM1829 856.4c-1.6 13.8-.8 27.9-2.8 41.7-.2 17 .5 34-2 50.8.5 21.2-.9 42.3-2 63.3 0 22-3.2 43.8-2.5 65.8-2 22.1-1.5 44.4-2.9 66.6-2.7 15.3-3.6 39.5 17 25 47-18 94.3-35.2 141.1-53.5 5.1-12.8 1.4-26.6 4.4-39.8q1-21.4 2.6-42.8c1-25.5 3.6-51 4.5-76.4 2.7-26 2.9-52.3 5.5-78.4 1.2-19.7 1.9-39.5 4.3-59 3.3-20.6-19.3-6.4-30.4-4.2-45.7 13.4-91.1 27.5-136.8 40.9m324.5 189.6q3.2-42 7-83.6 3.7-47.8 7.9-95.5c.6-17.8 3.4-35.3 4.2-53 .6-22 6.2-44 4-65.8-46.3 13.6-91.7 30-137.6 44.8-12.9 3.8-4 22-8.6 32-1 27.2-3.8 54.1-5 81.3-2.2 23.8-2.2 47.7-5.1 71.4-.7 26.5-4 52.8-4.6 79.2 2 11-6.7 34.6-.4 41.3l132.2-48.8zm-131 94.7c38 16.3 77.3 30.1 116 45q58.3 22 116.4 44.3c68.6 26 136.9 52.7 205.7 78.2 69.7 27.4 140.3 53.3 210.5 80 12.4-10.3 22.7-29.6 40.7-36.1 8.1-5.7 28.5-11 29.3-15.6-12.4-2.8-24.2-12.2-37-10.6a94 94 0 0 0-47.4-15.9c-27 4.8-48 21.6-68 38.6-1.7-11.5 17-24.7 28.2-30.8 10.1-6 24.1-8 33-14.4-18.7-7.3-37.4-16.2-57.4-19.3-21.4-12.5-47.1 4.7-66.5 15.7-7.6 6-35 23-20.1 3.7 13.1-17.7 39.9-18.9 54.7-31.8-23.6-8.5-46.1-20.3-70.7-26.2-31 1.2-56.3 23.3-82.5 34.3 2-8 11.1-11.5 16.6-17.2 9.7-12.2 38-18.5 41-25.1-15-7.3-32.1-10.2-47-16.8-26.8-7.4-53.6 9.2-75.7 23.8-3.8 4.7-19.2 10.1-10.6.1a122 122 0 0 1 63.8-34.4c-24-8.1-47.4-18.6-72.2-24.5-28.5 3.3-54 18.5-78.1 32.7-3.6-11.8 20.4-24.5 32-30.7 7.5-5.6 41.1-7.2 18.5-13.5q-21.7-7.2-43.2-14.8c-28-.4-52 16.4-76 28.5-12.5 7-4.5-4 1.7-7.1 13.6-15.3 42.5-22.6 53.2-30.9-19.7-6.2-39.2-14.1-59.7-16.7-27.5 0-49.3 18.9-73.5 28.7 6.8-18.7 33.5-28.2 53.6-34.2 13.8-5-16.1-10.2-22.8-14-15.8-4.6-33.6-10.5-50.3-3-19.6 8.2-42 12.8-56.2 30m-958-264.6 174.3 71c71.4-21.9 143.2-43 214.8-64.2 8-4-8.4-5.7-12.3-8.4l-338-125.7c-14-4.8-27.6-11.4-42.2-14.3a186 186 0 0 0 1 48.5c.2 20.7-1 41.4 2 61.9q-.2 15.6.4 31.2m189.8 882.7c15.6 16.6 38.5 26.2 56.9 40.2 22.2 13.8 43 30.2 66.2 42.2 1.1 9.7-.7 20 11 23.6 25.3 17.5 51.7 33.8 76 52.6-7.4 13-33.5 18.2-48 28.1-9.6 5-31 13.3-9.3 16.4 23.6 6.8 36.5 29.8 43.5 51.7 8 9.3 18.6-4 27.5-7 46-25.8 93.2-49.2 139.4-74.6 21.4-8.7-13.7-17.5-21.2-25.6l-294.8-181.7c-16.7-1.8-32.6 12.3-48.7 17.8a10176 10176 0 0 1-106.8 49.7c23.7 8 30 47.7 56 51.2 14.3-7.7 41.3-10.9 35.8-32.9 1.3-16.7-8.8-43.8 1-53.9 2.4 11 5.6 1 11.7 1.7zM1412.6 758c12.6 6.4 26.6 9.5 39.7 14.7 22.3-6.5 45-11.5 67-19 6-4.8 13.5 2.2 20.2 3 19.4 6.7 39.6 11 58.3 19.3 1.2 15.6-.8 31.3 1.1 46.8 11.5 3.8 23 9.2 34.4 12 55.8-16.3 111.2-33.6 166.8-50.2 7.4-2.5 26.5-7.7 9-10.3q-117.3-36.5-234.9-72.4c-52-16.3-104.4-31.9-156.5-48-11 1.5-2.8 25.9-5.7 36.6 0 22.5-.4 45 .6 67.5m1324 509.3c-20.1-10.5-41.8-18.1-62-28.6-81.3-38.4-162.3-78.4-249.1-103.2-51.3-16-103.5-28.9-154.1-46.8-33.5-10.8-66.7-22.6-100.3-33.2-.5 13.2-10 33.8 4.5 41.6 26.6 9.6 53.2 19 79 30.6 77.4 31.3 155 61.9 233.7 89.7 46.6 16.8 91.4 38 137.1 57.1 27.4 13 54.7 26.3 82.7 37.8a832 832 0 0 0 28.5-45m31.8-50.8c-35.8-12.8-71.9-25.2-105.3-43.8-34-16.8-69-31.7-103.8-46.8q-66.4-24-134-43.9c-51.2-15.9-102.3-32.2-154-45.8-30.4-6.6-61.4-10.6-91.1-19.5-14.3 1.5.4 47.3-8.8 34 16.5 7.5 34.5 12.8 51.6 19.4 57 17.9 113.7 37.3 171.4 53.2 62.3 18 123.8 39 182.8 66 53.5 22.5 104.1 51.3 158 72.8 14.4-6.6 21.1-28.2 31-41.4-.6-1.4 2.7-2.7 2.2-4.2m-1897 322.3c-44.6 15.9-88.3 34.3-133 50-4-4.5 16.7-7.6 21.5-11.1l102.4-39.2c.1-11.5-25.8-20.6-37.1-27.2l-137.5 52.3c8 16 29.1 28.7 45 39.5 34.8 19.2 73.5 33.7 99.8 64.9q15.8 17.2 36.3 28.6c6.3-20.7 20-42 42.4-47.6 17-8.7 33.2 10.2 48.2 6.3 18.9-8 38.1-15.5 56.7-23.6-3.2-4.9-10.7-7.3-15.6-11.1zm1486.7-1.3c-23.4-12.8-48.6-22-72.2-34.5-22.4-3.6-41.5 21.3-63.4 25.2-56.5-25.4-113.2-50.2-169.6-75.7-8.8-8.4 19.1-13 25.8-19 10-5.8 34.6-11.6 13.1-16.6l-64-27.6c-37 17.3-74.4 33.5-111.1 51.5 11.9 11.2 35.2 17.4 51.3 26.7 50.8 23.7 102 46.7 152.5 70.8 42.4 19.7 85 39 127.3 59 7 1.2 12.8-5.8 19.2-8.3zm-1375.5-560c-28.8 7.5-57.4 16.1-86 24.2-14.1 10.3-3 32-4.7 47.1-.6 20.3 3.5 40.3 2 60.6 2.9 21.3 1.4 43 4.1 64-.2 19.1 1 38.2 2.8 57 5 4.5 15.3-3.2 22.7-4.6 23.2-8.4 47-15.4 70.1-24.3.6-24.3-.8-48.7-3-72.8-.9-18-.3-35.8-2.5-53.5.5-20-3.2-39.6-2.2-59.6-2-12.7-1.2-25.6-3.3-38.2m-250.9 215.7c7.5 17.2-6.9 45.7 13.9 54.1.6-12.5-6.9-37.9 2.4-42.6 13.4 3 10.7 15.4 10 26.5.3 11.5-1.4 27 11.8 31.4 2.8-12.1-6-35.7-.5-44.6 10.3 2 15 9.5 14 19.4l3.3 34.5c16.5 15 3.5-23.2 7.2-33.2-5-14.9 9.6-4.8 13.9-.3 1.6 15.4.7 31.4 4.4 46.5 2.3 3 15.3 13.4 12.2 3.3 0-13-2.5-26-1.8-38.9 0-4.4 17 4.8 16 11 2 14-4.7 39.6 8.7 45.4 3.2-13.2-6.8-37.6.7-44.2 16.7 3.6 16.4 19.5 16.3 33.9-2 7.6 3.7 32.3 8.4 23.2-.8-19.1-.7-38.2-2.6-57.2-.6-13.4 1.6-27.3-3.1-40.2-74.4-41.6-149.7-82-224.7-122.4-15.4-8.6-30.7-17.4-46.7-25 .4 28.1 4 56 4.9 83.9 0 13.8 10.8 10.3 6 .1 2.9-8.3-7.6-35.2 2.8-32.4 13.6 3.4 10.2 17.8 11 29-1.7 5.3 4.2 33.4 6.9 21.3q-1.3-19.5-1.5-39c11.5-6.6 48.4 57.3 17.3 51.6 14.2 7 2.8-23.4 4.8-32.7-2.7-15.9 18-.9 13.8 9.1l3.1 37.7c14.5 8.7 1.3-21.7 5.5-29.9-5.2-14.5 7.1-9.5 12.2-3l4.3 44c10.5 13.4 10.5-3.2 9-11.6-8.6-15.6 3.2-36.9 12.3-16.6 1.4 13.8 1.3 28 4 41.5 7.5 13.2 10-3.9 8.2-11.2-3.8-14-5.5-32.2 11-22.6zm707.2 872.2c33.4 23.4 67.5 45.8 100.9 69.3 39.8 27.2 79.7 54 119.4 81.4 19.8 1.7 36.9-21 55.3-29.5l95.4-62.4c-10.6-5.9-22-22.7-31.4-23.5l-115.7 69.9c-68-47.4-137.1-93.2-205.6-139.9-12-4.6-6.2 22.6-15.6 30.3l-1.3 2.2zm-315.6-763q2-44.3-1.3-88.5c-.3-19.5.3-39.1-.7-58.5-4.5-7.2-15.3-8.7-22.4-13.2-28-12.6-55.2-27.2-83.4-39.4-8.4 14-1 39-1.4 57-.2 21.7 0 43.3 2 64.8-5.1 20.1 7 31.2 25 37 27.2 14 54.3 28.3 82.1 40.8m653-462.4c.4 22.4-3 44.6-2.2 67 .1 14.6-2.7 28.9-2 43.5.3 19.8-2.8 39.4-2 59.2-.2 15.9-2.6 31.6-2 47.6.1 19.7-2.8 39.3-2 59a235 235 0 0 1-3 30.6c-17.5 11.3 15.7 16.7 23 22.3 8.4 3 16 8.7 25 9.3 1.1-22.3 3.5-44.7 2.8-67.2.7-13.3 3.3-26.3 2-39.7-.7-17.8 2.8-35.3 2-53.1-.4-22.3 3-44.4 2.2-66.7 4.1-22.7-.3-46 3.8-68.6.2-12.3 3.8-28.4-12.3-29.7zm-345.4-43.6c-48.9-19.4-99.3-35.3-148.5-54.3-18-6.6-37.5-6-56.5-6.5-25.3-1.7-50.8-3.5-76.2-2.5-9.1 3.2-44.2 8.2-11.2 14.6 96 35 191.4 71.2 287.5 105.8 11-2.2 3.4-27 5.7-38.4q.1-9.4-.8-18.7m-501.4 720c22.8 16.9 47.8 30.8 71.4 46.6 19.7 13.3 41 24.5 59.7 39 1.4 6.5-16-8-22.1-11-36.8-22.7-72.7-47-109.6-69.5-14.8-2.9-42.2 9.8-50 17.7 44.9 29.3 90.7 57.1 135.5 86.4 18.5 6.4 37.2-11.3 55.6-15.8 14-6.3 29.2-11 42.3-18.2-33.5-23.4-70-44.3-105-66.2-14.1-6.7-27.7-20.6-42.5-22.4zm-330.8-36c27.9 23.9 62.2 41.8 79.9 75.6 6.7 9.2 17.1-.5 25.5-2.3 38.4-14 76.5-29 114.7-43.3 4.5-6.4-8.9-8.6-12.8-13l-54.4-34.4c-22.7 7.1-44.6 16.6-67.2 23.9-2.5-5.6 22-9.6 30.4-14.5 8.2-4.6 30.8-7.6 28.7-14.3q-21-14-42.7-26.8c3.7 18-4.7 38-18.9 49-10.2 4-13 11.2-9.7 21.6 3.8 17.8-25.6 19.5-24.1 1.4.4-25.4-36-26.7-39.2-52.7-12.3-2.7-7.5 16-7.7 23.5zm1698.4-139c10.8-1.2 18.8 8.5 29.2 10.7 12.5 3.5 28.5 11.1 14 23-5.2 7.7-11.9 14.4-15.7 22.9 13.7 1.6 31.4 21.6 42 8.9 16.9-23 35.7-44.7 52.1-68 0-6.2-11.6-6-16.7-9.5l-121.5-47.6a1728 1728 0 0 0-57 71c10.4 10.7 31 14.5 45.7 21.4 6-.5 8.8-10 13.4-14zM1844 2120c23.5-4.5 41.1-27.5 43.4-50.7 3.9-20-5.4-41.2-19-55.5-15.1-16.4-41.2-23-61.3-12.1a60 60 0 0 0-35.7 62.3c1.8 21 19.8 53.4 40 50.4 6.2-11.9-1 13.8 11.8 7.7 11.7 6.4 15.7-13 20.8-2.1m-442.6-34.5c19.5-1.7 30.7-18.6 40.2-33.4 7-19.8 6-43.2-5-61.4-13.5-26-50.7-37-75.4-21-1.9 5-3.6 13-6.6 3.8a65 65 0 0 0-24.7 41.1c9.2 5.9-4.4 12.5 2.3 22.9 5.4 18.5 17.1 37.5 36.3 43.8 6.8-12.5 2.8 7.6 12.3 5.7 11.7 9.1 18.7-14.2 20.6-1.5m634.7-69.5c25.8-5 40.8-29.8 44.1-54.1 2.2-8.5-3.3-16.9-4.5-25.3-6-25.7-32-45.8-58.8-43.5-29.7 2.9-58.1 33-54.2 63.8 15.7 15.1 13.5 41.6 32 53.1 7.9 10.3 13-12.2 12 3.6 5.3 8.6 23.5 5.3 25.7-2zm-56.5-15.8c-4.3-16.2-11.1-32-24.3-43.1-21-18.2-56.9-17.4-75.5 4.5-16 14.4-25.2 40-5.4 53.2a91 91 0 0 1 18.6 45.5c6.4 7.1 13.8-6.2 14 6.7 9.2 10.3 23.2-5.1 25.2-2.2 11.9 7.6 29.7-11.7 36.7-22.5 9.4-12.3 8.4-27.7 10.7-42.1m-716.7-152.7a81 81 0 0 1 30.3 56.2c19.7-.6 40 6.5 51.6 23.1 11.2 8.5 11 32.4 19.8 36l75.9-40.8c15.2-5.2-3.8-10.3-8.2-15.5l-51.4-36.2c-5.5 3.5-1.7 15.9-2.7 23.3-.4 11.7 1 23.7-.8 35.3-6.7-2.1-2-15.4-3.4-22.3-.3-19.2.3-38.4-.7-57.5-8.6-3.5-7.3 11.4-7.1 17.8.5 21.9-1.3 44 2.6 65.8 7 1.2 21.8-.3-6.4 9.3-2.4-4.9-12.6-8.8-7.7-14.5 2-11.8-2-24.8-.7-37.2-.3-11.7.4-23.5-.8-35.1a626 626 0 0 0-65.3-42.6c-16.3 6-36.9 13.5-25 34.9m852.6 106.5a57 57 0 0 0 42.2-41.2 70 70 0 0 0-7.6-55c-16-30-62-37.1-85.8-12.4-13.5 12.1-32.5 44.3-9.6 54.3 18.3 8.8 20.8 33.5 31.4 45.7 1.4 10.3 17.8 15 25.4 6.3 2.2-8.8 1.7-1 4 2.3m-801.3 67.3c3.7 9.3 15.5 0 11.6-7.6.4-21.9 20.3-35.1 29.9-50.4-3.6-26-22.8-52.5-50.7-54.8a54 54 0 0 0-46 17.2c-16.2 16.8-22.7 43-11.3 64.2 5 11.5 25 39.1 38.4 32 5-4.5 4.8 13.2 15.8 6.6 7 0 11 .2 12.3-7.2m-134.7-159.1c1.4-16.8-4-34.6-13.8-48.2-18-24.6-58.8-26.6-77.8-2.2a55 55 0 0 0-13 50.2c5.5 18.5 20.2 42.1 40.5 42.4 4.8-5.8 8.1 10.2 17.8 4 8.5-1.5 9.6-7.8 18.3-5.2 18.8-5.8 20.7-26 28-41m57.8 96.8c4.6-19.5 14.7-38.7 33.4-48 18.7-2.2 17.7-18.4 11.1-32.2-7.6-21.7-28.9-35.5-51.2-37.8-22 1-44.5 14-50.3 36.4-12.4 16.2-6 38 3.2 54 6.9 11.2 20.6 26.4 33.2 24.5 5.3-12.8 4.8 13.6 16.8 4.8.4 1.5 3.9-3.1 3.8-1.7m765.5-1157.3c-4.4 18.3-4 37.8-5.5 56.7-2 26.7-3.4 53.4-5.4 80.1-1.7 31.1-3.9 62.2-5.7 93.3 2.4 19.6-9.4 45.6.2 61.3 14.6 9 28 3.4 23.4-15 .7-22.4 3.6-44.6 4.2-67q2.6-28.7 3.9-57.5c2.2-29.9 3.8-59.8 6-89.7.8-19.9 2.7-39.7 4.3-59.5 2.8-17.7-22.2-14.2-33.2-20.6-12.7-10.2-24.2 4-13.4 13.5 6.7 2.6 13.8 5.5 21.2 4.4m233 1056c2.2-29-16.2-60.5-46.4-65.5-25.6-7-51 13.2-60.8 35.7 6.8 14.4 29 23.3 32 42.7 8 14.5-2.7 47.5 25.9 36.9 3.7-9.8 14.1 4.3 22.5-5.9 11.6-8.4 23-21 24.3-35.6-1.7-3.5.9-5.4 2.4-8.3m-1158-105.8c-18.8-10.4-44.3-9.8-59.1 7a52.5 52.5 0 0 0-3 73.6c4.8 10.8 21.8 23 30.5 15.8 2.2 10.2 20.3 9 21.3-.1 2-22.4 15-42.5 34.4-53.7.2-17.5-11.3-32.1-24.2-42.6m45.6-601.4c149.8-47.8 298.6-98.5 448.1-147 14.8-5 29.9-9.4 44.3-15.1 0-7.7-19.5-7.2-26-2-81.3 26-162.3 52.8-243.8 78.4-74 23.9-148.3 47.5-222.2 72-30.4-13.8-60.4-28.5-90.6-42.7-13.2-4.6-23.4 5.8-8.5 9 33.2 15.1 66.1 31.6 98.7 47.4M972.5 1500l143.5 88.4c11.8 0 22.1-7.6 33.1-11.3 5.2-3.3 25.6-6.4 13.1-12.8-45.6-27.5-90.6-56.3-136.7-82.9-18 3.1-35.3 13.2-53 18.6m1575.5-9.2c23.8 10.1 47.5 20.7 71.7 29.8 20.2-26.6 39.6-54 57.4-82.2-16.8-9.7-36.2-14.7-54-22.6-10.7-8.6-18.5-1.8-23.8 7.7zm-279.5 373.8c36.7-8.7 48-57.6 27.2-86-5.2-12-18.8-12.7-25-17.1-12-7.8-29.8-5.4-41.8 2.2-13 7.1-37.2 30.5-10.6 38.6 22.2 13.8 17 46.5 26.6 63.2 9.3 6.6 16.7-5.4 20.6-3.6zm69.8-42.2c25.6-4.2 40.2-33.4 37-57.6-2.4-24.8-21.3-49.3-48-49.8-24.5-1.3-46.5 19.4-50.6 42.7a67 67 0 0 1 35 54c-.7 17.2 20.2 12 24.4 8.3zm-145.9-688.2c19.4 5.6 38.2 13.5 58 16.9 23.7-.2 44.8 11.6 67 18.4 92.3 33 184.9 65.6 277.2 98.9-3.4 12.4 9.3 14.8 17.8 17.8 15.5 5.3 31.1 11.7 46.8 15.9 7.6-2.5 16 1.4 20.2 8 7 3.5 14.7 6.7 22.4 8.5 2.6-7.4-22.4-14-31.2-19.5-65-30.8-131.4-58.7-198.5-84.6-64.5-22.2-128-47.2-191-73.2-36.8-14.1-72.5-31.4-110.6-41.4.6 7-3 20-4.5 3.4-5.5-6.3 3.7-24.3-6-23.3-2 12.1-3 34.2 5.3 42.9 11-.1 21.5.8 27.1 11.3m-680-243.8c25.7-6.4 50.7-15 76.1-22.5 9-1.4 3.8-12.6 5.2-19.1-.3-22.2 1-44.7-.4-66.7-5.2-3.6-13 3.1-19.3 4l-63.3 21.3c-.5 16.6-1.2 33.5.5 50 1.5 10.8.4 22 1.2 33M919.6 1758c18.8 6.6 21.2-12.4 24-26 3.9-15.2 16.7-24.7 27.7-34.7-3-13-10.2-34.6-26-33 3.6-10.2-21.7-13.8-32.9-10.8-20 6.2-37.4 25.8-36.9 47.5 7 5-3.8 19.1 6.2 27.6 5.2 16.9 26.6 26.4 36.5 26.1zm972.6-81.2c25.8-8 29.6-45.5 3.6-58.3a148 148 0 0 0-94.1-28.3c-18 1.9-37.9.6-53.8 9.3 2.8 5 11.3 6.5 16.3 10.1 12.4 6 24.5 13.7 37 18.7 8.5-3.2 16 2.4 23.8 5 2 6.3 4.3 12.5 11.4 14.3zm897.8-467c18.5 1 36.8-4 54.8-7.8a293 293 0 0 0 115.2-61.6c11.6-14.5 21.3-30.5 31.2-46.2-13.6 1.7-31.3 20-47.1 26.7-36.4 20.4-76.2 34.2-116 45.9-13 5.9-36.7-1.2-30.6 24.6zm-681 218.8c-12.2 6.4-35 14.6-39.9 22.7q69.6 31.6 139.6 62.3c8 3 16 9.6 23.7 1.7 10.2-6.2 32.4-13.9 34.2-21.6-9.2-5.5-15.9-7.8-18.9 1.8-9.8 7.3-25.2-2.7-17.7-14.5-11.3-12-30.9-16-45.8-24.3-17.5-7.8-34.9-16.2-52.9-22.9-3.8 10.2-18.4 12.2-23.2 11.6-1.7-5.7 2.6-11.4.9-16.8m-726 16.5c7.1 4.3 18.8 3.5 9.2 14.2.4 7.5-.8 15.2.8 22.5 5.8 5 13.2-3 19.7-4.3l140.6-57.6c-8.3-10-31-21.3-45.4-23a22 22 0 0 0-17 2.7l-103.2 42.4-2.4 1.4zm-385.3 360.6a59 59 0 0 1 33.4-60.6c24.3-4.7-7.6-43.5-21.4-41.5-5.7 1-7.4-8-15.5-5a48 48 0 0 0-42.4 26.7c-16.8 28 .5 68.3 30.6 78.7 5.8-9 6.7 5.8 14.6 1.7zm1440.6-462.5c-18.5 25.1-38.2 49.3-56.7 74.5a98 98 0 0 0 52.3 22c10.7-9.2 16.6-32.5 30-33.3 6.5 1.2 14.8 10.2 19.4 1.4 6-12.4 26.9-26.7 22.7-37.7zm-937-457c-45.8 12.7-91.3 26.2-136.9 39.1q-62.6 18.3-125.3 36.2c-16.9 3.5-31.3-7.7-46.7-13-66.1-28.5-132.7-56.1-199-84.2-9.8 6.3 3.6 14 10.7 15.5l228.5 97.1c69.6-19.7 138.6-41.7 208.2-61.6 19.3-6 39-11.2 58-17.7 4.3-2 1.7-7.6 2.4-11.3m-849.3 598c13.7-2 29.2-3.8 37.1-17.6 7.3-10.7 8.6-25 5.8-37.4-3.4-8-4.8-17.2-12.2-22.7-13.5-15.6-40.5-18.1-55.1-2.5-28.3 21.6-14.3 67.3 16 78 5-3.7 5.1-2.4 8.4 2.3m246.5-80a2593 2593 0 0 0-114.3-69.2c-15.6 5.8-31.7 10.8-47 17.3 15.1 14.5 38 24.1 56 36.8 19.3 10.1 37.4 26.7 57.5 32.8zm538.8-622.1c-2.6 17-.5 34.7-1.1 52-2.4 15 .3 28.5 17.9 30q25.4 9.6 51.3 18.4c.7 9 1.9 9.3 2.3.3 1.4-22-2.5-43.6-1.7-65.6 4-16.9-14.6-18.4-27-22.7-13.8-4.3-27.6-9-41.7-12.4m635 510 49.3 20.2c11.1-9 16.2-32.4 32.4-30.4 8.8 8.2 13.8-1 18.7-7.6l20.6-26.3c-20.4-9.7-41.8-17-62.9-25-15 11.4-24.6 28.7-37.3 42.6q-10.6 13.1-20.9 26.5m-307.5 765c-26.2 14.4-51.7 30.1-78 44.6-19 12.3-40.4 21.5-58.4 35.2 13.5 4.9 26.3 25 40.5 18.4l100.3-60c13-7-4.9-23.3-2.8-35.8zm-963.4-617L689 1368.7c-15.7 6.4-35.2 9-48.2 19-6.7 3.4-26-18.2-16-.7 2.4 15.9 15.1 1.8 25.5 2 22.2-1.3 41 15 48.5 35 6 7 15.5 10.4 23 15.9l30 19zm-177.6-38.8c-1.6-22-23.5-43-46.5-37.8-8.4-.6-16.2 4.7-22.2 10.1-21.8 19-12.2 44.5.6 63.8 5.9 10.5 18.2 7.6 23.9 11.8 5 3.7 13.9.4 16.9-3.3 12.5 5.3 11.8-11.7 12.4-20a44 44 0 0 1 15-24.6m719.4 19.5c11.3 7.6 24.5 21.8 38.3 20.1l121.2-49.7c0-8 7.7-37.2-7-29.5l-152.1 58.2zm1378.8-108c60.5-4.8 118.6-27.4 169.2-60.4 0-9.5 7.3-16.1 11.3-24-5-1.2-11.2 5-16.7 6.6-40.9 19.9-86.3 33.6-132.1 32.3-7.3 1-8.8 11-13.4 16.2zM390.3 1138.8c7.9 8.9 19.7 13.4 29.4 20.2 21.5 12.9 42.4 26.9 64.3 38.9 17.5-1.2 35.7-8.3 52.7-14.1-31.5-20.8-64.5-39.5-96.6-59.3-15-7.6-30.8 4-44.5 10-2.2.7-3.8 2.6-5.3 4.3m2219 388.6a725 725 0 0 0-69.7-29.8c-17 12.9-31.8 28.9-47.2 43.7-1 6.8 11 6.6 15.7 10.2 17.6 6.9 34.5 15.5 52.6 21.3 15-14.4 31.2-27.5 46-42l1.4-1.7zM2059.7 1196l-54.6 67.8c17.3 5.2 37.2 20.6 53.5 18.7l50.9-62.7c-4.9-13.2-33-16-47.3-23.1zm260.4 275.8a3814 3814 0 0 0 65.9 28c18.9-6 33.9-26.4 49.6-39.9 7.4-7.3-8.5-7.6-13.2-11.2-17.6-7-34.9-15.1-52.8-21.5-16.5 14.9-33.7 29-49.5 44.6m-2027.6-254c3.5 6.4 11 4.8 16.1 2 9-2.1 20.6-8.7 23.4-20.2 5.4-11.2 4.5-28.4-5.1-35.3 2.6-7-6.6-9.6-10-14.4a36.6 36.6 0 0 0-44.8 3c-12.8 11.7-17.4 32.3-7.5 47.3 4.6 7.7 18 25 27.8 17.7M694 1367.4q55.4 36.1 111.5 71c9-4.5 37.7-7.8 31.7-17.9-35.9-22.1-71.3-45.1-108-65.7-12 3.3-24 7.2-35.2 12.6M2683.4 1520c21-37.3 43.7-73.5 63.4-111.4 5-7.5 10-31-2.8-13.7-16.6 18.7-29 41.5-48.3 56.8-15.5 22.5-31.8 44.6-47 67.4 3.7 10.3-5.5 3.7-10.2 8.4-12.8 6.9-20.5 19.7-31.3 29.2-3 2.7-14.7 14-5.3 9.6zm-272.3-9.7c20.9 6 43.8 25.7 64.2 21.7 12-14.4 36.5-29.6 39.8-44.7l-56-23.4a389 389 0 0 0-48 46.4m-285.7-184.7c-21.4-9-42.6-18.7-64.6-26.3-15.3 13-31.5 25.2-46.3 38.7 3.2 8.6 24.2 12.2 34.7 18.4 15 6 31.5 18.7 42.6-.5 11-10.2 23.6-19 33.6-30.3m-1335.6 7.8 113.5 69c9.6-4.7 34-8.6 33.8-15.8l-111.4-65.7c-12 4.3-24.2 7.8-36 12.5M654 1303.1c16.7-5.7 33.6-10.8 50.2-17a825 825 0 0 0-81.5-49c-16.2 3-31.5 9.5-47.3 14-3 5.8 10.6 9.4 15.7 13.8zm-173.9-22c16 13.4 35.1 23.2 52.4 35.2 15.5 10.6 31.5 24.8 50.2 11.9 9.8-4.7 37.3-8.2 16.2-17.1q-35.4-22.6-71-45a337 337 0 0 0-47.8 15m14.6 93.7c1 18 15.2 42.3 33.6 41.8 3.2-.7 13.2 10.8 9.3-2.6-5.5-22.4 9.6-45.8 30.3-54.3 7-13.9-17-27.3-30.1-27.3-15.5-3.6-37.1 10.4-36.5 26.2a20 20 0 0 0-6.6 16.2M278 1142.1c-9-21.8-37.7-30-57.3-18a38.2 38.2 0 0 0-8.6 57c5.9 12.6 19.6 12.5 28.4 14 18.8 9.1 13-16 15.9-26.2A56 56 0 0 1 278 1142m214.4 212.2c10-10.4 19-23 33.6-26.7-19-11.1-45.3-18.1-60.8-37.2-27.5-27.2-64.5-41.7-97.3-60.7-23.5-2.5 8.3 12 14.7 19 21.6 14.9 43.9 29.9 59.1 51.8a280 280 0 0 1 39.7 50c3.5 1.6 6.8 4.7 11 3.8m-1.2-152c22 15.7 46 29 69 43.5 11 6.8 23-1.7 34.4-4.2l23.6-7.3c-24.6-17-50-33.2-76.6-47a279 279 0 0 0-50.4 15M853 1425.6c23.3 15.5 47.4 29.5 71.2 44.2 14.6-6.4 42-10.6 47.1-21.9a1868 1868 0 0 0-66-40c-16.6.7-32.9 10.4-48.8 16zm1401 17.2c16.4 5 37.9 25.8 52.7 15.8 14-13 29.7-25 41.1-40.3q-30.4-13.8-61.5-25.9c-9.2 4.3-29 19.5-9 25.6-7.2 8.9-16.7 15.5-23.3 24.8M522.4 1262.7c-25.3-16.8-51.1-32.8-76.9-49-13.2 6-41.8 7.4-45.6 16.5a1289 1289 0 0 0 74.6 47.6q24.4-6 47.9-15m233.5 198.8c24.4 15 47.8 31.7 73 45 14.9-5.8 30-10.9 44.7-17 1.5-6.3-9.7-8-13.8-12.3l-54.7-34.7c-16.3 6.5-33.6 11-49.2 19m23.8-129.8a2024 2024 0 0 0-70.7-43.1c-15.9 3.8-31 10.2-46.4 15.3-8 4 8.2 8 11.9 12 18.7 11.3 36.8 23.6 56 34.1 16.7-5 33.6-10.2 49.2-18.3m734.8-529.3a781 781 0 0 0 76.3-26.4l-64.2-19.9c-26.8 7.4-54 13.7-80.5 22 0 5.3 11.3 5 16.1 7.7zm1376.8 500.3c0-16.2-12-12.8-21.8-7.4-36.6 15.3-73.4 30.3-112.2 38.9 12.3 2 14.4 13.2 9.5 23.2-4.2 9.6-8.2 25.2 6.3 12.8q58.5-32.6 116.8-65.6zM637 1383c13.6-6.3 40.6-10 45.5-18.5-22.8-14.5-45.3-29.5-68.5-43.2-14.3 5-37.4 8.8-44.9 18q33 23.3 67.9 43.7m870.5-28.2 51.4 25.3c13.1-4.5-4.3-8.8-9.1-12l-46.4-23.2c-26.2 8.6-51.9 19.2-78 28.4-38.4 14.7-77.4 28.5-115.4 44.1-.8 7.3 11.4 9 17 13.3 15.6 7.9 30.4 17.6 46.7 24 17.3-.5 1.9-7.9-4.5-11.8-11.2-7.7-24.1-12.7-34-22.1 14.7-8 32.3-12.7 48.1-19.4l121.2-46.2zm347.4-574.5c-52.3 14.2-104 30.7-156.2 45.6q-35 10.1-69.7 20.4l-29.3-10.4c-6.5 16.6 20.2 20.4 31.4 22.8l223.3-66.7c1.8-3.6 1.8-7.9.5-11.7m860.4 591.2-44.5 22.8c-7.8-6.3-19-9.5-28.8-13.2-11.7-7.8-24 16.2-23.3 21.2 24 9.8 48 19.7 72.7 27.7l39-52c-1.1-4.8-10.7-4-15.1-6.5m-721.1-38.9c15.6-9.6 27.2-24.5 42.3-34.9 8.9-7.6 11.3-26.5-20.2-17.5-11.5-3.8-25.4-16.4-34.5-2.9-11.7 10.7-24.6 20.3-35.7 31.5 7.4 11 33.5 15.8 48 23.8m-694.8 382.2c-54.1 24.7-108.5 48.8-162.4 73.8 3.1 5.3 14.7-3.5 21-5.5 46-20.8 91.4-42.7 137.2-63.6 7-2.2 12.7 6 19 8.6 105.7 66.1 212.5 130.5 318.1 196.6.3 6.8-11.3 8.4-16.6 12.5-50.2 26.6-100.3 53.5-150.6 79.9-12.8 3-16.4 5.9-4 11.9l54.2 36.5c-8.1-11.7-32.3-23.1-46.6-34.6-13.6-7 4.7-12.7 11.2-16.7 53.7-27.9 106.7-57 159.9-85.8-13.3-14.9-39.1-25.4-57.2-38.6-90-55.3-179.3-111.6-269.4-166.7zm835.1-971q-147.3-41.3-295-81c-4.1 12 12 11 19.5 14.2l256 71.6a30 30 0 0 0 19.5-4.8M809.8 1441.4l71.7 45.2 37.5-14.4a765 765 0 0 0-72.7-45c-12.2 4.6-24.6 8.8-36.5 14.2m-278-177 82.9 52.6c11.1-4.5 23.6-6.4 33.7-12.9l-82-50.5zm-91.6-54c-24.3-15.8-48.5-31.9-73.6-46.4-8 11-25 33-6.6 41 16.6 10.7 33.4 26.4 53.7 14.4 9-2.5 18.5-4.5 26.5-9m576.6 223.6c-24.3-15-48.3-30.7-74.2-42.8-8.9 5.5-33.7 8.3-31.5 15.8 23.2 14.2 45.9 29.3 70 41.8l34-12.9zm355 25.3c-16.2-11-34.5-18.5-51.4-28.4-19-14.5-11.1 20.8-11.4 32.3 14.5 13.6 36.7 21 53.6 32.3 20.8 14.7 6.2-22.3 9-33.5zm-662.1-174.7c8.4-5.7 31.8-7 30.4-14.4q-36-21.2-71.8-42.8c-11.1-5-22.3 2.9-33.3 5.2-9.8 6.8 15.5 13 20.9 19.1zm-341.3-124.4 78.4 49.9c7.9-4.4 33.8-4.9 28.7-12.6-28-18-56.6-34.8-84.7-52.4-10.3-7-16 9.7-22.4 15m357 191L653 1307c-10.2 4.2-21.4 7-31 12 10 11.6 29.4 20.1 43.2 30.2 11.1 4.4 21.4 19.8 34 12.2 8.6-3.5 18.5-5 26.2-10.1M236 1113.4c-10.1-19-39.6-25.6-54.4-8.6-19 16.2-13.5 48.7 7.3 60.8 17.2 10 4.1-24.3 15.7-31 7-11 19.2-17.6 31.4-21.2m214.2 99 78 49.6c12.6-3 44.6-10.4 18.8-20.3-21-13-41.6-26.3-63-38.5zm264.6 74c11.1 10 25.8 16.3 38.4 24.8 12.7 5.4 24.2 20 38.2 18.3 9.3-3.8 19.4-6.3 28.3-10.8-2.1-5-11-6.9-15.8-10.6-19.1-10.9-37.2-24-57.3-32.9-10.6 3.8-21.6 7-31.8 11.2m1496.8 75c-6.4 8.5-37.4 21.6-19 27.8 13.7 3.5 28.1 18.5 42.2 13.2 5.8-4.8 12-.6 18 1.4 6.9-1.7 27.2-18 11-20.8q-26-11.2-52.2-21.6M969.1 1497.2c14.2-6.4 44-11.7 47.7-21.5-14-5.7-26.7-22-41.4-21.2-14.4 5.7-29.2 10.5-43.4 16.7 4.4 10.6 26.2 18.2 37.1 26M2166.8 1378c8.4-7.6 17.3-14.7 25.3-22.6-12.3-9.8-33.7-17-49.6-21-15.2 12.5-30.6 25-44.8 38.4-.7 8 21 14.2 16.7-1-7-6.4 4.5-9.6 9.1-13.8 5.5.8 13.9 8.7 21.7 10.5zM872.1 1534.7c15.1-6 30.9-10.9 45.6-17.6-8.8-9.2-31-29.9-47.6-22.6-10.5 5.4-33.2 9-35.5 16.2a449 449 0 0 0 37.5 24m559.3-753.4c-13.6-7.5-29.7-10.9-44.3-16.8-36.3-12.6-72.5-26-109-38-4 17.2 26.5 17 39 24.7q55.5 20.3 111.1 40.2c5.8 2 2.1-7.2 3.2-10.1m-953.7 315.3c12-5.9 35.8-9.2 37.9-21.7a40 40 0 0 0-36.6-9.3c-7.6-.5-8.7 9-13 13.6-3.5 8.4-10.7 9.7-3.7.3 4.4-7.3 13.6-19-3.3-12.4-13.5-5.5-29 9.4-25.7 19.6 12.9 2.7 26.1 3.3 38.7 7 3.6-2.8 4.1 1.2 5.7 3m1160-456.3 146.7 42.5c10.2-13-21.1-13.6-30-18.7l-114-35.2c-6.7-2.8-4 8.8-2.7 11.4m593.6 827.1c.3-8 5.6-19-7.4-19.2l-87.2-37.2c-5.3-3.1-9.2 13.9-2.4 14.3 31.6 13.8 63 28.6 94.8 41.9zm-772.6-814.2c41.2-10.1 82.2-21 123.4-30.6l46 3.6c4-9 9.3-1.6 15.8-4.4 10.9-3.4-16.7-4.5-21-4.2-16.7-.5-34-5.8-50.4-1.5l-129.9 32.4zM847 842.6c29.5 14.7 60 27.2 90.1 40.6 15 1.8 38.7-1.3 48.7-12.2-3.9-16.3-28.6 2.7-41.2 2.2-19-4-37.1-15.6-55.6-22.7-13.7-4.3-31-17.6-42.6-15.7-.7 2.6.2 5.3.6 7.8M962.8 1500c-12.6-10.2-27.8-24.6-44.3-24-10.1 4.4-21.3 7.1-30.7 12.6 10.6 9.6 26.8 23.3 41.7 24.4zm1539.6-142.9c7.7-7.5 25.3-23.6 6.3-26.9-13.6-4.7-26.8-11-40.7-14.8-7 .5-9.2 10.3-14 15-8.9 13.6 20.7 12.4 29 19.7q9.7 3.9 19.4 7M841 830.5c-29-3.6-58.1-5.5-87-9-11-.3-38-9.3-28.2 11.1a632 632 0 0 0 57.3 5c12.7 2.1 25.8 2.2 38.6 3.8 6.4-1 15 3.6 19.8-1.4 1.5-3.1.1-6.4-.5-9.5m180.4 606.4c-12 5.6-25.2 8.4-36.4 15.3q19.7 12 39.4 23.7c11-4 34.9-8.7 35.7-16.8-12.9-7.4-25.4-15.6-38.7-22.2m357.6 64c27.4-9.8 54-22.2 81-33 34.8-14.5 69.8-28.6 104.4-43.7-8.2-5.2-26.6 7.5-38.5 10.8-42.8 17-85.3 34.7-127.8 52-16.8 12.6-6.6-14.7-10-24.8-.4-16-17.4 0-12 9.4.3 9.8 1.8 19.5 2.9 29.2m-106-780.3c50.3 18.4 101 35.8 151.8 53.2 4 4.1 29 2.4 15-1.9q-74-25.7-148.3-50.8c-31.7-5-63.8-5.7-95.8-7.6-10.7-1.6-33.8-3.2-37.2-1 15 4.2 30.6 1.5 45.7 4.5 16.5.2 32.8 2.4 49 3.3 6.6 1.4 13.3.9 19.8.3m235.6 638.7c.4 9.4-.7 19 .5 28.2 3.2 8.2 13.5 8.6 20.2 13 9.6 4.3 18.4 10.3 28.5 13.2-.6-11.7 4.3-27-8-33.9zM599 850.5c9.6 5.8 21 8.2 31.6 3.5 29.5-7.2 59.4-13.2 88.5-21.6 4.6-22.9-26.2-2.9-39-3.1-26 6.3-52.1 12.3-78 19.2ZM2290.7 1274c15.7 8.6 36.5 20.6 53.1 18 10.5-9.4 16.3-22.9-.8-24.8l-36-13.8zm-85.6-57.7c-6.5-5.4-16.2-7-24-10.8l-25-9.9c-10.5 8.5-24.4 25.2-2.6 27.2 12.5 1 29.2 19.2 39.3 7.4zm-68.3-27c-16.7-5.4-37.3-20-52.8-16.3-8.4 8.3-19.5 20.6-.7 22.6 17.8 6.5 41.5 23 51.3-2.8.1 1.2 2.2-5 2.2-3.5m-976.5-461c17 2 34 3.5 51.1 2.9 18.7 3.4 38 .6 56.6 3.7 11.8-9.8-6.4-13.3-15-11.2-20.6-3.5-41.8-2-62.5-5-10.3 2.2-45.2-12-30.2 9.7m959 641.8c-3 16-2 32.7-5.1 48.7-3.1 7.9.6 32 4.4 13 3.6-18 .4-37.2 7-54.7 26.6 9.8 52.2 22 78.6 32.3 11.5 5.4 24.6 8.4 34.8 16-.6 11.4-.8 22.8-2.8 34 1.6 7.4-6 34 1.4 29.8 4-20 2.8-41 6.3-61.1-7.8-19.6-40.3-19.5-57.8-31.3-22.3-8.5-44.2-20-66.8-26.7M1250 1763c-14 3.9.2 10 5.8 14l106.1 70.6c14.1-4 .7-10.4-5.5-14.3zm1339.6-492.5c-29-12.3-59.3-21.4-88.8-32.4-27-9.2-53.7-19.5-80.7-28.1 0 5 5.8 11.4 12 12l44.7 15.9c15.5-6.8 24 8.4 37.3 11.8 18.5 7 36.5 15.7 55.5 21.1 5.3-2.9 19.6 6 20-.3m-607-8.4c36.5 16.5 74 30.9 110.8 46.7q59.5 24.5 119.1 48.8c17.7 7.3 34.9 16.1 53 21.6 2.2-3.3-12.9-7.4-19.3-10.6-68.5-29.1-137.4-57.3-205.9-86.6-17.7-6.6-34.6-16-53-20.5-1.6-.7-3.2 1-4.7.6m-611.5-16.5c-13.9 4.6-40.8 10-44.8 18.6 13.8 5.5 26.6 14.2 41.3 16.9 17 14.9 5.2-18.7 5.6-27.8q-.9-4-2.1-7.7m1207.1 111.2c-6.4 7.3-12.8 14.6-18.3 22.6 12.7 2.8 27.8 16.6 39.5 11.7 4.8-7 11.8-12.6 14.5-20.7zm-131-49c-12-3.2-29.6-18.7-39.5-9.7l-12.8 17.1c14.8 5.6 37.6 23 46.2.8q3-4.3 6.1-8.2m-23.9 31.7c-18.8 24-38.2 47.7-55.8 72.6 1 10.4 13.2 4 16-3.5l50.2-65.6a11 11 0 0 0-10.4-3.5m-157-62.6c-14.2 13.3-25.2 30.2-38.2 45-6.3 9-32.4 31.9-8.9 28.5q27.1-33.6 54.3-67c5-4.8-5.3-6-7.2-6.5m6.3-8.8c4.9-7.2 12.6-13 15.1-21.5-16.5-9.4-38.6-17.8-48 5.2 2.3 9.4 24.2 12.1 33 16.3m355.3 256.3c15-6.6 20.9-23.6 31.2-35.2 10.6-15.7 23.5-30 32.4-46.6-9.8-7.6-14 4.2-18.8 10.5-15.7 22.6-32.2 44.5-47.4 67.4v2zm-474.7-441.5a201 201 0 0 0-42.7 16.3c10.3 11.2 26 13 39.4 18.7 12.6 1 2.7-26.5 3.3-35m80.3 356.9c-25.8-11.6-52-22.3-77.8-33.7-7.6-3.3-30.6-14-21 .5 32.9 13.7 65.3 28.4 98.4 41.5zm501.8.5c-10.4 11.3-16.3 27.3-25 40.5-3 9.1-22.2 30-13.3 31.3 17.4-6 29.4-17.6 28.6-36.7 11.3-6 6.5-24.4 9.7-35.1M366.3 1155c13.2-12.5 26.6-25.5 44.6-31 20.4-10.8 46.4-2.9 64.8-17.5-10-13.3-30.3.3-44 4.3-22.3 8.8-47.5 15.2-63.6 34.1-2.1 3-1.6 6.7-1.8 10.1m1635 107.2c17.5-21.9 35.5-43.5 53-65.5-9.6-14.8-22 14-30.6 21.5-8.7 13.5-25.6 27-28.9 41zm484.6 279.6c15.4-15.8 33.3-29.1 47.5-46.1-20-12.7-32.5 22.3-48.2 31.3-7.8 6-12.3 12.8.7 14.8m-418.6-251.5c19-19.9 35.5-42 52.6-63.5 9-9.7-8.2-11.6-10-1.9l-48.2 60c-1.4 3.5 3.8 3.7 5.6 5.4m-1616.4 52c4-21-6.6-38.3-22.1-51.7-7.5-8.4-17.1-18.2-12.7-1.8 1.7 6.3-1.4 15.1 5.4 18.8 7.5 8.8 12 9.1 8-4.2 5-9.3 4.1 18.6 9.4 23.1 4.1 5.2 7 11.4 12 15.8M2007.6 2021c-4 13-1 44.5 18.7 31.8a49 49 0 0 0 2-31.8zM1831 2159.7c11.6-11 11.7-43.4-10.8-35-11.5 3.4-6 27.8 1.3 35zm484.6-689.3 49.8-44.4c-19-13.1-32.2 19.3-47.4 27.9-7.6 8.7-16.7 11.3-2.4 16.5m-921 620.6-19.7-1.4c-4 12.6-1.4 45.7 17.7 32.6 6-4.5 2-13.2 3.2-19.7-.3-3.8.8-8-1.2-11.5m532.8 11.6c2.1-15.7 3.6-35.7-17.8-30.9-8.8 7.2-4.5 45.7 15.2 33.4zm181.8-114.8c1.2-13.4 5.3-35.2-15.6-29.9-13.4 2-5.7 49.8 13.8 31.9zM2405 1508c16.4-14.8 33-29.4 48-45.8-8.6-8.5-16 2.6-22.2 7.7-11.1 10.3-22.8 20.1-33.4 31-4 3.7 5.6 5 7.6 7.1M363 1225.3c8.8 5.7 31.2 2.8 13.2-6-11-4.8-31-28.3-30.5-4.3.1 11.8-12 29.6 3.2 35.5 0-11-5.5-28.2 11.2-25zm1884.4 194.9c1.6 18-3.5 36-4.1 54.2-1.3 6-2 28.1 4 9-1.3-22 6.5-43.3 3.4-65.2a4773 4773 0 0 0-126.9-54.9c-4 5 14.3 8.7 20.5 12.4q48 20.4 96.3 40.5zM538 1326.7c-6-9-20.6-14.5-30.1-22-12.4-7-23.2-17.7-37-21.7-23.9 9.4 53.8 7.8 18.2 22.6a279 279 0 0 0 48.9 21m-197.3-140c1.3-18.2 22.3-36.3 22.6-48.6-11.4-7-23.8 0-26.6 12-10.4 12.1 6.8 22.7 4 36.6m951 846.2c-2.1 14 5 45.7 22 27 .6-11.5 3.4-33-13.8-27.3zm1156.7-583.7 20 8.6c5.6-14.2 26.4-31.7-.5-34.8a96 96 0 0 0-19.5 26.2m98.6-67.7c22.2 11 46.4 18.7 69.5 28.4 21.9 8 43.2 18.1 65.7 24.5 5.5-5.6-9.2-6.2-13.2-9.1q-60.2-22.8-120.2-46zm-633.7 247.2c-20-28.2-56.9-40.9-90-43.9a150 150 0 0 0-67.5 7.2c15.7-1.3 31.6-4.8 47.6-3.4 40.9-3.5 79.7 13.6 109.8 40.1m-609.7-360.3c19 10.6 39.2 19.3 59.6 27 3.7-9-4-13.8-11.3-15.8l-34.8-15.7zm880 675.3c5-9.7 10.7-34.5-6.7-31.2-16.8-6-10.1 18.4-7.7 27.7 3 5.2 9.5 4.4 14.4 3.5m-1347.2-923c-2.6-11.2 4.2-28-6.8-35.1-4.3-.1-15.1-9.1-14.4-1.4l1.5 26.7zm1293.2 306.6a3102 3102 0 0 0-45.7 41c8.5 13.1 24.8-13.7 34.5-18.1 4.5-7.4 33.1-18.2 11.2-23m-1674.9-5.7c-5 22.8 10 47.5 34.5 48 10.2-9.1-11.6-19.2-6-5.4-4.1 1.2-9.7-29.4-11.5-9.2-6.2 1.7-2.3-26.5-14.6-31.5zm408.1-234c9.8 8.1 27 15 21-4.9 2-12.4-8.2-16.7-17.5-20.1-8.8-6.3-4.8 7.5-4.7 12.3zm1661 291.5c-18-12.8-26.1 22-38 31.8 0 13.6 14.5 4.7 17.4-4zm-516-40.7c16-13 32.5-25.7 47.4-40-14.5-12-28.3 17-41.3 23.4-4.9 5.2-20.3 12.9-6.2 16.6M1123 1913.5c-8.1 16.2 17.3 46.5 20.8 18.3 0-16.4-4-22.6-20.8-18.3m1136.4-18.4c4.3-13.5 4.5-32.7-14.5-25.9-8.5 6.3-1.4 45.3 14.5 25.9m-62-645.6c-9.6 12-19.6 23.6-28.4 36.2 3.2 10.7 15.3-.5 19-7.1 6-8 13-15.2 18.4-23.5 1-4.5-6.3-4-9-5.6m-1312-93.4c6.3-15.5-8.4-41.9-21.1-32.8 0 11.7-.2 25.5 13.3 28.6zm357.8 837-6.6-27.7c-27.2-12.9-10.6 51.3 6.5 27.8m1493.2-616c-13 17.1-27 33.6-39.2 51.4 3.9 15.8 17.4-11.4 22.9-17 3.6-10.6 26.1-25.1 17-34zm-199.3-35.8c-4.4 7.4-10.3 14.2-13.8 22 3.5 5.8 19 11.5 21.8-.1 9-8.8 12.2-18-2.1-19.7zM889 1211.8c5-14.2-8.2-40.7-20.6-31.3-1 13.6.4 31.2 20.6 31.3M469.7 1280c-26.7-17-52.8-34.9-80-51-16.7 4.7 11.8 10.7 16.4 17.2a400 400 0 0 1 56.5 35.8zm1693.5 125.4c16.6 5.5 39.5 21.6 52.5 19.7 2.2-10.5-10.4-10.5-16.9-14.4-9.5-3.6-18.8-8.3-28.4-11.3-3.2.3-4.8 4.1-7.2 6m168 423.8c-11.7.3-31.6-9.5-16.9 19.9 4.9 19.6 22.8 3.1 17.6-9.7 0-3.4.3-6.8-.7-10.2m-1261.3 52.4c-3.2-8.6 1.8-27.4-12.4-21.6-17.7-2.4-4.8 41.2 10.1 25.3l1.2-1.6zm868.4-572.7a531 531 0 0 0 47.1-40.8c-15.2-6.7-26.8 18.9-40 25-3.2 4.6-21 11.4-7.1 15.8m433.7-1.7c6.5-9.7 25.2-25.9 2.7-27.4-8.5 1.6-25.6 23.6-8.5 25zm20 11.9c18 13.3 43.5 17.8 64.3 27.8 17.4 5.3 46.3 21 56.6 19.6-10-5.6-21-9.7-32-13.8-29.6-11.1-58.8-23.8-89-33.6m365.6 26.7c-25.3-2.2-48.5 16-67 32-2.6 7 10.4-3.8 15-5zM937 1763.5c-23-11.7-19.7 28.2-4 27.6 9.7-1.9 6.4-14.2 5-21.2zm1367.8-380 14.8-20.4c-12.9-15.7-28 11-28.8 19.7 3.8 1.7 16.1 10.3 14 .7m29.1-203c4.4 8.2 16 8.4 23.8 12.5 16.1 5.2 31.5 13.8 48.5 15.8 20-.4-17.1-9.4-24.7-13.2-14.8-5-29.4-10.6-44.2-15.6zm-500-516.2c-12.9 2.8-38.7 1.5-41.2 16.5 10.8 1.3 31-4.6 40.5-10.8zm331.3 637.2c-11.4-15.2-29.6 11-25.5 18.3 11.5 8 19.6-11 25.5-18.3M1388 1955.6c24.3-10.5 47.6-23.6 71.4-35.1-6-10-22.4-19.2-34.8-24.7 8.5 8.1 19.8 13.1 28 21.3-2.3 5.3-11 7-16 10.9zm275.8 210.4c37.5-22.8 75.5-44.8 112.6-68.1 2.7-5.9-6 1.6-8.3 2.4-34.5 21.1-69.5 41.3-104 62.3-10.8-2.4-7.1 0-.2 3.4m-1062-1159c5.3-12.2-5.8-36.5-16-28.2 2 11.4-5.4 29.4 16 28.1m3.4 30.8c-8-9.2-19.1-10.8-15 4.4-4.1 13.4 22.2 26 15.8 6.3a65 65 0 0 0-.8-10.7m1611 209 17-21c-9.7-15.1-38.3 15.6-21.3 19.2zM597 951.8c-2-8.8 1.6-20.4-5.8-26.9-7.1-3.9-15.3-9-10 4.7 0 11.2 2.3 21.3 15.7 22.2m-3.2-52.4-2.5-23.6c-11.5-11.7-19.3-3.1-13.2 10.4-1.4 8.8 10.2 9.5 15.7 13.2m1573 150.3c5.4-25.9 10.1-53 25.7-75.5 6-7.6 8.7-20.3-.5-6a239 239 0 0 0-29.4 77.5c-1.3 3.4 2.5 2.9 4.1 4m30.7 305.1c-5.6 8.9-26.6 18.8-23.2 26 6.6 5 10.8-3.2 15.9-6.5l17.1-14.4zM2090 1098.3c18 1.8 33.6-10 50.4-14.7 8.7-1 22.3-13.3 5.7-7.3-19 6.5-38.2 13-56.1 22M990.6 1811c.8 11 .7 32.9 16.9 28.8 3-8.2-4.8-25.5-14.1-28zm960.8-1010.1c-9.8-2-36.7-19.4-36.5-3 5.3 5.7 15.6 6.1 23.2 7.3 4.8-.2 9.3-2 13.3-4.3m667.3 572.6c-7.2 6.7-25.2 28.5-4.6 23.6l15.9-20.6c-3.7-1.4-7.3-3.4-11.3-3m137.3-21.6-28.3 14.3 22.9 6.3c8.4-2.9 4.6-14.1 5.4-20.6M666.6 1510.5c8.1-12-11-33.1-14.5-14.1-.9 7.8 4.9 22.1 14.5 14.1M2324 1176.4a372 372 0 0 0-58.4-20.5c-3.4 7.3 11 6.8 15.9 10.1 14 4.2 27.5 12.3 42.5 10.4m-1074.3 610.9c-2.2 11.5 1.5 23.9.4 36-1.8 6.2 3 27.7 6.3 15.5-1.6-16.6 1.3-33.6-3.4-49.8zM303.5 1124c1.9-20.7-41 15.9-16 16 7.8-2.3 10.7-10.7 16-16m2180.3 340.3 23.6-31.6c-7-14.2-16.2 14.7-23.5 19.8-3.5 5.6-8.8 9-.1 11.8m-33.4-154.5c-4.4 6.7-10.4 12.8-13.8 19.9 9 13 20-9.3 24.8-17.6-3.6-1.2-7.1-3.5-11-2.3M580 1456.3c-3.9 14.3 16 32.2 16.1 11 1.2-11.2-2.7-15.8-16-11m1748.4-274.6c-15.5-4.8-35.7 3.5-51.2 9.8-19 4.6-43 44.5 15-1 11.4-5.1 24.3-6.6 36.2-8.8M400.8 1287.9c7.5 12 15.1 10.7 11-2.5-1.2-6 1-14.1-6.4-16.6-7.3-7.5-7.7-2.9-6 5.2zm-87-62.9c6 9.2 28.3 23.6 20.5 2.7.8-12.3-15.2-9.7-20.4-2.7m51.5 16.4c-4.8 12.3.1 24 12.5 28.7.7-12.1 1.9-24.4-12.5-28.7m28 20c-18.3-23-12.7 28.2 2.1 18.3 1.7-6.2-1.3-12.2-2.1-18.3m1900.4-12.4c-8 5.4-24.3 30.2-5.3 20.9 5-7.2 23.3-19.8 5.3-20.9m42.3 111.2c-1.3 11.5-25.9 27-16.6 34 7.5-8.1 21.1-21.4 22-32.1l-2.8-1zm-1786.8 81.4c1.1-11.2-20.6-26.3-15-6.4-1.3 9.5 11.2 19.4 15 6.4m-306.4-239.4c-6.5 12.4 14.5 28.5 14.5 10-2-6.5-1.2-18.6-14.5-10m2105 33.6c21.3-10.9 45-23.7 69.7-19.4-12.4-10.4-31.5-.4-45.7 4-8.4 4.1-18.5 7.5-24 15.4m-1088.4 558c-1.3 10.8-.6 28.4 13.7 17 16.5-5.4-9.2-13-13.7-17m882.7-603-15 19.1c.9 10.7 38.4 3.4 22.9-15.4zm436.4 82.9a139 139 0 0 0-63.7 25.5c-7.6 10.7 7.3-1.8 11.9-3.7 16.6-10.6 35.8-18 55.6-18.8 5-1.4-2.9-2.1-3.8-3m-320.2-117.3c-14.6-9.8-38.6 3.4-55 10.2-9.2 4.2-10.3 9.6.4 3.4a104 104 0 0 1 54.6-13.6m-148.5-4.3c19-9.3 38.2-19.9 59.6-22.3 6 1.6 22.6-.2 8.1-2.3a94 94 0 0 0-67.7 24.6m-1813.2 76.2c-4.4 16.4 19.1 24.3 13.7 5.3.6-10.1-6.2-8.2-13.7-5.3m33.2-74c5-7.7 17-27.1-8.6-16.3-9.4 8 2.6 10.5 8.6 16.3m1735.6 34c4.9-6.6 25-20.7 8.8-23.2l-15.1 21zm507.7 167.2c-9.6-4.8-20-13-21.2 19 3.1 9.2 9.4-2.6 12.7-6.5 2.8-4.2 7.2-7.5 8.5-12.5M523.3 1096c7.5-15.2-10.7-20.2-11.2-4.8-2.7 10 3.2 8.5 11.2 4.8m1040 286.7c-.6 9.2-3.7 32.5 2.4 32.5.2-8 7.5-32.4-2.4-32.5m828.3-68.5c5-7.3 13-15.7 14.7-22.7-6.8-5-8.8 5.4-12.8 9-1.3 4.2-13.3 12-4.6 12.9zM425.2 1086.9c7.4-6 13.5-24-.1-15-4.7 6.2-14 16.7 0 15M805 976.5c-1.4 8 1.2 16.5 1.5 24.7 6.6 18.7 6.7-15.2 3.1-20.6 1.1-4.8-2.4-3.6-4.6-4.1M2442.5 1254c13.2-2.5 25.7-8.8 39.3-10.2 30.1-1.4-30.6-15.7-27.4 3.5a32 32 0 0 0-11.9 6.7m-470-474c-5.3 3-14.6 2.8-17 8.4 11.4 4.1 23.6 12.1 17-8.4M361.4 1259.6c4.3-6.7-2.6-35.4-7.4-20.3-.2 8.8-1.6 16.3 7.4 20.3m492.9-146c1.3 11 .4 22.5 3.2 33.3 5.3-5 4.3-11.5 3.2-18-1.5-5.8 1.2-13.6-6.4-15.3m1534 206.2c-2.4-6-15.9-7-23-11.4-7.1-2.5-14-6.8-21.2-8.1-4.3 3.7 18.5 8.6 25 12.7q9.5 4 19.2 6.8M2129 1382c-5.2 12.5-5.1 30.5-4.4 45 4.6-12.7 3.3-26.8 5.3-40.2a23 23 0 0 0-.9-4.8M297.7 1136.9c7.8 8.4 26.4 3.1 11.5-5-5.6-7.6-7.4 1-11.5 5m1792.2-34.2c-13.3-1.6-37.6 7.1-41.2 13.1zm-1513-156.5c4.2-8.3-4.3-44-4.7-18 1.3 4.6-2.3 17.7 4.7 18m306.9 156.9c-5.2-3.7-29.8-17.8-23.2-6.8 5.7.6 21.3 15.8 23.2 6.8M211.6 1195c4.6-6.5-3.5-10.7-6.5-15.8-5.7-10.4-3.1 14.2 0 14.8zm861.7 267.7c9.4 5.2 18.3 12.8 28.5 15.6 1.4-5.6-10-7.4-14-11.3-4.3-1.5-10.2-8.8-14.5-4.3m-213.6-290.6c-1.5 7-1.2 26.4 3.4 28 1.7-5 3.5-25.7-3.4-28m1274.6 220.1c8.7 10.6 23.5-3.2 6.4-5.8-6.8-2.4-6.1 1-6.4 5.8m116.5-160.2c-8.4-2.6-28.2 29.1-12 15q7.1-6.6 12-15M568.5 890.6c9.3 1.1 3.6-8.8 4-14.2 1.3-6.6-5.8-18-4.6-5.7zM2162.4 1052c-7.3 7 1.4 34.3 3.5 13.6-.4-4.3 1.6-11.5-3.5-13.6m-1750.1 31.6c17-21.4-24.6.4-2.6 1zm168.8-83.2c4.7-6.5-3.3-39.8-3.7-21 1.3 6.7-1.2 16.3 3.7 21m1754.2 521.3a256 256 0 0 0 35.2 16.4c11.2 1.1-3.7-3.4-7-5.4l-25.6-11.5zm-99.3-95.5c-7.8-6.8-21.9 6-6.5 8 5.5 5.3 4.6-5.4 6.5-8m-1649.1-374c-1-8.3-.6-16.9-2-25-3.7-2.8-5.2 8-2.8 12.3l1.5 12.7zm1931.9 317.3c5.6 6 14.8 6.8 22 10.5 14-1-22-13.1-22-10.5M861 1152.3c5.3 4.4 34.7 16.9 18.3 4.5-5.5-3.4-11.6-6.5-18.3-4.5m1400 256.2c7-4 26.3-27.6 8.7-14.2-2 4.3-14 9.2-8.7 14.2m20-30.2c8.8 2.2 27.4-33.6 15.3-19zm251.5-37.8c-8.6 3.8-24.8 31.7-8.8 14.7 3.4-4.6 5.8-9.9 8.8-14.7m-1643-123.7c-7.8-3.7-14.9-10.7-23.9-10.5 5 2.6 20.8 17.7 24 10.5m1335.1 32.4c5.3-.3 8.3-9.2 12.7-12.9 12-16.9-15.1 7.3-12.7 12.9m-698.9 822.5c6.5 6.5 25.8 19.7 26.6 17.2q-12.1-10.4-26.6-17.2m638.2-674.5c-10-12.2-17.4 9.4-4.4 4.4zm-271.8 667.5c-2.5 9.6-2.2 19.6 7.4 8.2 6.7-4-5.4-6-7.4-8.2M854.4 1059.5v27.8c6.4-7.2 2.8-19.3 0-27.8m1399.7 372.3c8.1 3.9 23-23.5 10.3-13.8-1 6.2-6.6 9.3-10.3 13.8m-106.7-138.6c-5.2 3.7-20.6 23.4-13.6 20.3 5-6.4 11.1-12.3 13.6-20.3m250-5.3c-7.3 2.6-11.9 12.3-16.7 18.5-.5 10 15.6-17.3 16.7-18.5m-236.4-59c3.3 6 21.4 11.8 31.1 12.2zm384.2 144.7c6.1-1.3 8.7-10.2 13.3-14.7 11-8.5-5.2-33.9-13.3 14.7m-1164.7-79.5c-5.7-10-17.5-2.5-9.2 3.8zm1382 60.3c3.8-3.2 4.8-15.5-3.5-15.2-20.2-1.2 8 2.7 3.5 15.2m-702.3 98.2c4.8-6.4 25.9-17.1 7.5-9.5-3.3 2.7-18.5 6.2-7.5 9.5m405.5-35c7.4 2.3 15 8.1 22.2 8.1-2.7-4-15.2-8.4-22.2-8.2M337.2 1200.7c-1.6 4.4-13 14.5-6.6 14.8 6.4-1.9 6.8-9.4 6.6-14.8M2744 1376.2c-8-8.3-32.7-7.7-12-3.3zm-2167-20c11.7 4 13.7-.4 3.9-4.2-5.4-4.1-7.5-1.8-4 4.2m1591-57.9c-3.4-10.6-24.4-10-8-3.6zm83.5 115.7c11.2-6-18.4-9.8-5.5-1.8zM593.1 906c-3-9.8-23.7-10.1-6.2-2.5 2 .5 4 2.5 6.2 2.5m1620.7 560c-6.6-7-28.3-11.3-9.5-3.3q4.5 2.3 9.5 3.3M503.9 1101c8.6-5.5-1.5-17-1.3-3.4zm-4.8-8.2c-7.3-1.2-9.6 12-1.8 8.9zm1132.1 1036c-3.5 2.3-18.3 3-13.1 6.5 5.5 6.4 7-4.3 13.1-6.5M351 1180.7c6-5.2 1.7-22.2-.6-7.2l.1 3.6zm1850.4 65.5c6 5.3 27.6 10.2 9.6 2.3-3.2-.2-6.5-4.7-9.6-2.3M1184 1858.1c8-2.5 7.1-14.2.8-8.2zM596.4 959.9c-9.3-11.5-17.7-8.2-2.7-1.6zm1571.2 353.4c-11.9 6.3-11.2 16.9-2.9 3.5z"/></svg>