<svg xmlns="http://www.w3.org/2000/svg" fill="#0a0a0a" viewBox="0 500 3052 1696"><path d="M3067 1274.8c-9.8 4.5-11.9 13.1-10 23-.1 7-5.6 16.1-13.5 13.1-8.2-5.6-8.5-15.7-17.9-5-3.6 10.3 6.3 30.3-13.5 29.7-7.6-8.1-18.6-5.4-19.4 5.6-3 8.8-4.5 18.6-12.8 24.2-6.3 12-27.3 10.5-28 24.7-1.8 7-1 15.2-7.7 19.6-6.9 1.4-12.9.2-17.4-5.5-5.2-1.2-11.3 5.1-16.9 6.8-12 4.5-4.2 23-15.4 29.2-8.3 2.2-24.3-2.4-27 10 .6 12-9.6 34.2-22.7 19.1-7-7-1-17-1-25.5-16.3-10.3-30-27-29.4-47.3a57.5 57.5 0 0 1 39.6-51.5c8.9-16.1 22.9-31 42.3-32.6 14.6.7 16-19.8 29-24.2 9.8-2.1 10-13.2 14.8-20.2 6.2-16.7 27.7-16.5 33-33 11.5-18.7 37.8-12.7 46-34.4 20.4-4.9 24.7-30.8 46.6-33.1 28.4-8.2 59.7 25 47 52.6-1.4 19.7-27.5 20.9-30.8 36-.8 9.2-3.2 18.5-14.9 18.6m-184 157.7c12-5.2 12.5-17 17.3-26.5 8.9-10.4 3.8-24.6-2.2-35.4-7-15.2-28-27-43.3-17.2-13.6-3.7-24 12-30 22-9.4 18.4-6 44.7 11 57.5 4 6.6 11.5-.4 13.9 6.4 6.6 2.7 12.4 2.2 17-3.6 6.4 10.6 11.3-7 14.3-8.5zm106.6-107c-2.4-23.2-26.7-46.6-50.8-37.4-5.9 7.5-14.7-.4-20.3 12.1-12.9 9-5.7 15.9 5.2 20 19 11.7 25.3 36.3 19.8 57 8-2.8 11-3 20.5-4.4 9.5-7.4 21-16.4 20.8-29.8 1.3-6 .4-12.7 4.8-17.5M2942 1364c-2-20-13.7-43.8-36.2-45.7-18.3-3.7-36.2 7.4-44.2 23.6 13.8 4.5 33.3 9.9 40.8 25.8 10.5 9.6 2.1 34 10.2 36.7 11.7-4.5 16.8-16 23-25.5zm28-78.2c6.1 6.7 14.5 12 19 19.5l6.4 21.7c7.6-.7 4.4-11.3 12.4-10.1 9.2-13.5 15.7-34 2.4-47.7-8-14.2-25.2-23.4-41.2-17a38 38 0 0 0-26.7 19.9c-14.6 22.1 22.5 2.2 27.7 13.7m31.8-63.3c-11-1.3-39.7 22.2-19.5 23.4 12.6 1.5 25.4 6.9 32 18.3 12.6 8 2.1 30.8 12.7 34.8 15-12.8 28-35.2 16.8-54.7-6.8-14.4-24.7-25.6-40-20.4q-1-.8-2-1.3m31.6-21.5c-11.8-2.6-30.3 18.8-10.1 19.2a38 38 0 0 1 24.3 20.3c8.2 10.3 2.3 30.3 3.6 37.7 4.8-4.9 12.2-3.5 10.4-13.2 8 7 16.9-11.3 11-16.8 10-6.7 5.4-22.4.9-31.6-6.6-12.3-23-24.5-36.9-18q-1.5 1.3-3.2 2.4m77.9 4.4c-3.7-17.2-17-34.4-36.1-33.4-12.2-3.9-36.8 12.6-29.7 20 21.3 2.3 39.2 22.6 36.8 44.4 6 17.4 29.6-15.3 28.4-27.8zm-261.7 239.1c-9.5 10 .3 37.9 10.7 17.8 4.7-14.8 3-16.7-10.7-17.8m92.5-39c7.6-6.2 6.8-32.7-3.8-18.4-2.5 5.4-11.2 10.1-6.1 16.2.7 4.3 6.9 1.4 9.9 2.2m98.3-101.9c5.2 8.3 13.8.2 11.6-7.4 2.4-23-15.4-4-11.6 7.4m-34.5 23.2c10.8 15.6 20.1-14.3 11-15.5zm-1481.2-140.2c-.7 12 .1 24.3-1.6 35.9-37.6 19.8-76.6 37.8-114.7 56.9-4.3-13.2-8.3-41.4 12.9-42q50-24.9 99.8-50.5l1.7-.3zm-113.5 86.2c10.4-2 19.8-9.2 29.8-13.4 24.9-12.7 50.3-24.7 74.9-37.8-7.3-5.3-19.3-10.2-27.9-3.4-24 12.3-47.8 24.9-71.9 37-8.6 1.3-6.3 12-4.9 17.6m81-65.9c-28 11.6-55 26-81.4 41 1.1 11 21.3-8 29.1-8.8 17.5-9.8 38-16.8 53-29.5 1.6-.4-1.7-2.7-.7-2.7m27.5-14.2c-7.6 2.6-31.2 12.7-16 19.4 4.9.4 16 8.7 16 .8q.4-10.1 0-20.2m194.9-95.5-.7 29.8c-26.7 16-55.5 28.4-83.2 42.8-14.9 6.6-9-26.3-5.3-32 20.5-6.4 38.9-18.6 58.6-27 10.1-3 20.7-13.5 30.5-13.6m-8.4 30.3c-9.2-1.6-19.4-7.6-27.7-.4a467 467 0 0 0-51.7 30.1c-3.1 19.9 23-4.5 32.6-5.7 15.7-7.9 31.6-15.3 46.8-24m-19-11.5c-15.2.7-30 12.3-44.6 18.7-8-.1-25.6 20-9.3 12.9 18.3-9.9 37.5-19.1 54-31.6m21.6 8.2c2.6-10.5 2.8-28.1-10.7-16-12.2 2.3-6 14.9 3.4 14zm-127.5 69.9c-2.8-16-6-38.3 15.4-41.1 8.7-1.5 27.2-20 20.9.5-3.3 13 5.2 24.9-12.4 28.6q-11.5 6.9-24 12m8.9-25c-11.9 3-7 32.2 7.6 13.2l11.3-7.5c-5.9-3-12.6-4.6-19-5.7m21.8-18.3c-5.7 3.6-17.8 3.4-17.2 11.8 3.2 10.8 21.8 8.4 18.5-5.1 1.2 1.3-1.7-9.1-1.3-6.7m-75.7 64c-1.8-11.4-9-33.1 6.6-36.8l27.3-13c1 15.8 4.8 38.8-17 42.6q-8.2 4.2-16.9 7.1m31-44c-6.7 3.7-14.7 6.2-20.6 10.8-6.8 9.7 9.7 12.4 16.2 11.9 6.1-3.9 1.4-16.2 4.4-22.8m-27.5 23.1c-5.2 10.9.2 20.4 10.7 11 22.7-8.3-1.1-9.6-10.7-11M653 956.3a246 246 0 0 1 2.5 37.3c-12.8-1.6-42.7-5-45.6-22.2-3.1-15-5-41 16.2-26 8.8 4.2 18.8 5.7 27 11m-5.5 3c-9.8-5.2-34.3-18-25.7 3.2-2.2 15 36.3 29 27.9 4.8q-.4-4.2-2.2-8m-32.7-12c-4 2.6 0 12.2-.7 17.6 4.8 21 2.7-13 .7-17.6m46.4 103.9c-4.5 5.4-11.6-2.2-17.3-2.8l-26.3-9.6c-1.5-13.5-8.6-35-.5-43.7 13.6 4 26.6 11 40.1 15.9 4.8 9.8 1.8 22.3 3.6 33.4q0 3.4.4 6.8m-8-37.5c-11.1-4.2-34-16.6-25.7 5.4-2.5 13.3 22.3 22.1 27.8 17.1 1.2-7.6-2-15-2.1-22.5m-32.2 16.5c3.9-3.8-.2-12.6.5-18.4-2-21.7-3.3 7.2-1.3 15.9zm34.9 15.4c-9.3-3.3-18.3-7.7-27.9-10.1-.8 4.5 11.5 5.1 16.1 8 3.8.3 8.6 5.5 11.8 2.1M768.6 1151l-3.4-40.8c14.3-1.8 27.8 10.5 42.2 14 7.6 10.2 5.5 29.3 4.7 42.4-14.5-1.5-29.6-10-43.5-15.6m10.7-32.3c-4.7 18 7 32.1 25 34 8.4-8.1 1.3-31.2-14.9-30.9a125 125 0 0 0-10.1-3.1m26.9 42.7c-1.2-5.5-26-13.7-27.6-10.4zm-33.5-19c6-2.4-2.9-37.8-1.1-17.5zm45.7-29-4-42.4c9.6.1 17 5.4 25.7 8.7 19.6.9 23.7 18.3 22 35 4.1 27.6-26.7 4.1-40 .5l-2-1zm15.1-5.6c10 4.2 28.6 13.5 22.8-4.3 2.6-13.7-9-17.6-20.5-20.5-14-7.2-6.2 19.8-2.3 24.8m-6.6 3.6c6.4 6.2 41.9 16 19.5 6-6.3-2.7-12.7-5-19.5-6m-3-5c0-8.6.7-17.6-1.2-26-4.7.6-.1 12-1 17 .7 3-.5 7 2.2 9M620.3 1094c2.6-12.3-10.9-40.4 4.2-41.6 12 8.2 33.3 7.4 39.4 21.5-.2 11.5.7 23 1.2 34.5-13.2 2.3-28.5-9.5-42.2-13.2zm10.5-33c-7.1 18.7 14.4 39.3 28.5 31.4 3.4-21.8-9.5-27.2-28.5-31.4m-6 25c5.4-1.2-.8-37.2-1.9-21.1zm34 16.2c-6.3-5.8-39.6-12.6-18.2-5 6 1.1 12.7 7.3 18.3 5zm106.3-8.4c-.7-12.9-1.3-25.8-3-38.6 6.8-9 20.7 5.8 31.4 7 11 1.8 17.8 8.6 14.8 20.9 2.7 13.6 4.7 33.6-14.6 22.4q-14.5-5-28.6-11.7m38.1 2c6.3-19.6-7.6-33.3-27-34.4l.5 22.9c7.2 6.8 17.6 8 26.5 11.5m-34.7-35.2c.7 8-1.3 16.8 1.3 24.4 5.3-2.5-.2-18.1-1.3-24.4m33.7 42c-7-7-42.4-15.3-17.6-5.8zm13.5 123c-14.2-5.4-35.2-8.2-43.5-20.3l-3.3-37.5c11.8-3 23.7 8.9 35.8 11.5 10.3 1 10 10.9 10.8 19.2q1.2 13.5.2 27m-32.8-49.8c-7 19.4 11.4 37.5 28.3 33.8.2-7.9-1.7-16-2.3-23.9-8.6-3.5-17-7.5-26-9.9m-2.5 31.6c7.1 3.4 30.8 14.6 28.6 9.3-9.3-3-18.9-9.5-28.6-9.3m-5.4-33.7c0 8.3 1.7 40.9 2.8 16.7-.8-4.9 2-13.8-2.8-16.7m-110.2-50.2c6 12.5 4.6 30.4 2.8 43.2-14.2-6.6-39.3-6.8-43.6-23.6 1-12.8-11-47.4 12.7-31.5 8.9 5 18.9 7.6 28.1 12m-28.3 16.3c8 7.8 33.8 20.9 26.8-.7 1.9-12.3-7.4-15.5-16.8-18.4-13.7-10.1-13.5 5.2-10 16.3zm-1.8 8c0 5 11 5.3 15.4 8.3 5.5 2.7 19.2 6.8 6 .3a88 88 0 0 0-21.4-8.5m-4-5.2c3.4-8.2-5.3-40.8-2.7-17.3.8 5.8-1 12.2 2.7 17.3m80.7-110.5c10-.6 17.3 6.2 26.5 8.8 25.8 1 20.6 28.2 19.8 46.7-11.1 1.5-32.8-7.8-42.8-15-2.8-13.3-3-27-3.5-40.5m15 31.8c8.5 7.5 34.4 21.3 26.6-.6 3.6-15.3-21.1-23.5-28.6-19.2-1 6.7 2.1 13.2 2 19.8m26 20.8c.2-6.9-28.6-14.2-26.3-10.5zm-34.4-47a74 74 0 0 0 1.4 27.3c.8-9.1.9-18.6-1.4-27.3M864.4 1188l-41.6-16c-2.9-13.5-4-28.2-3.7-41.5 13.7-1.3 28.3 10.4 42.3 14.4 3.8 11.6 5.5 30 3 43.1m-5.9-14.3c1.2-10.3 5.7-28-9.3-29-10.7-3.4-32-16.4-16.5 15.9 6.5 7.8 17 9.2 25.8 13.1m-31.3-10c2.7-7.6-3.2-37-2.8-15.9-.2 5.4 0 11.1 2.8 16m3.1 4.3c5 5.8 29 15.1 28 10.7zm-71-173.4c12.8 2 24.2 8.8 36.4 12.8 15.5 4.7 9.1 28.8 9.6 41.6a92 92 0 0 1-43-16c-1.9-12.4-4.9-26.3-3-38.4m13.7 10.1c-9.5 18.6 16.5 36 28.5 29.2-3.3-14.9 2-36.4-28.5-29.2m-8.3-2.2c-2.8 20.5 6.4 33.5 2 6.9a57 57 0 0 0-2-7m7.2 30.8 16.1 5.8c-4.5-3.8-10.6-4.7-16.1-5.8m-108.8-19c15 4 28.9 11.3 43.5 16.4.1 13 7.5 31.9.4 42.3-13-7.3-36.8-6.6-41.5-21.3a198 198 0 0 1-2.4-37.3m13.4 9.8c-5.8 19 6 32.2 24.6 34.7 5.5-4 2-14.9 2.2-21.7-3.7-7-14.3-7.5-21.3-11zM703 1066c-7.8-8.2-39.7-13.3-17-5.3 5.6 1.4 11.5 6 17 5.3m-34.5-42.9c-2.7 8.5 4 39 3.2 17q.2-8.9-3.2-17m.9 91.4-3.4-39c5.7-8.3 17.9 3.6 25.6 5.2 9.5 3.7 23.7 5.7 20.4 18.8-2.3 9.4 9.8 35.7-8.5 28.5q-17-6.9-34.1-13.5m11.9-32.3c-11.1 18.4 14 38.7 26.1 29.9 5.6-20.5-9-26.5-26.1-30m24.9 41c-3.6-4.3-11.9-5.2-17.3-8.2-6-4.5-18.6-3.1-4.7.7 7.2 2.7 14.4 6.1 22 7.5m-31.1-15.8c2.7-8.1-3.3-38.8-3-16.5 0 5.6 1.5 11.2 3 16.5m86.4 40.5q-22-6.8-43-16.2c.5-12.7-8-35.6-.2-42.2 10.9 1.4 19.4 9.2 30.2 11.4 15.8 1.5 11.7 19 13.6 30.6q.3 8.3-.6 16.4m-6-38.6c-10.5-5.8-33.3-19-27.2 3.4-2.9 12.4 27.4 26.6 27.8 15.5zm-30.4 20c8.4 3 28.4 14 29.7 9.5a86 86 0 0 0-29.7-9.5m-5-32.8 2.5 28c1.6-9.2 2.4-19.8-2.6-28m102.6 90c13.1 3.3 25 10.4 38 14.6 10.4 2.7 6.2 15.5 7.2 23.5-.5 7 1.3 14.2-1 20.9-12-1.5-22.8-8.2-34.3-12-8.8-.8-8.8-9.4-9-16.4-.3-10.2-2.7-20.5-.9-30.6m38.8 21c-9.7-6.7-34.5-17.9-26 3.6-2.6 13.9 23.1 23.2 28 18.5.5-7.5-2.1-14.7-2-22.1m-28 20.2c1.7 5 11.4 4.9 16.3 7.8 12.5 6.5 35.4 4.3-13.6-8.1H835zm-7-34.7c2.2 6.9-.8 30.7 4.6 27.4-.9-8.5.9-20.8-4.7-27.4m-74-161.3-41.6-15.3a423 423 0 0 1-4.8-38c12.6-5.7 30.3 10 44.8 12.5-.6 11.6 9.1 30.6 1.5 40.7m-5.2-36.7c-10.6-6.3-34.4-17-26.4 4.9-1.2 11.2 26.4 22.9 28 12.5zm1.1 29.5c-6.6-5.2-30.1-11.8-28.2-9 9.4 3 18.5 7.3 28.3 9m-33.4-16.8c3.5-8.1-4-36.8-2.3-15.1.7 5 2.2 10 2.3 15.1m-12-32.6c1.4 11.6.8 23.5 3.2 35-7.7 10-24-4.6-35.5-6.7-13.3-1-10.8-13.8-12.2-23.9.8-8-8.6-28.3 9.3-18.4q17.6 7.2 35.2 14m-30.5 14.5c9.7 9.4 34.9 18.8 26-3.8 1.6-12.7-22.2-17.9-28.1-14-.9 6 2 11.8 2 17.8m-1.7 9.3c10.3 4.4 45.8 15.6 15.2 3zm-8.5-33.1c1.5 9 0 18.9 4 27.3-1-9 1-18.8-2.4-27zm150.3 48.2c14.4 7 40.2 6.2 45.4 22.7-2.2 9.3 10 37.5-7.1 31l-35.5-13c-1.5-13.2-4.4-27.2-2.8-40.7m38.6 18.6c-10.7-4.3-33.8-17.5-25.4 4.2-.8 17 38.4 27.1 27.3 1.5.3-2-1.9-3.7-1.9-5.7m2.2 31.2c-1.7-5.8-27.7-12.8-27.5-10 9.2 3.4 18 7.5 27.5 10m-36.6-42.6c1 8.2.5 17 2.9 24.8 3.7-5.4-.4-18-2.9-24.8m-145.1 107.4c15.2 6.7 45.8 7.6 44.3 28.5-1 11.3 9 39.2-11.7 26.7-15.7-6-36.5-9.8-32.6-31.3 1.4-7.7-4.4-17.1 0-23.9m12.8 31.8c8 9 33 21 27.2-1.1 1.5-12.1-9-15.2-17.8-18.4-15-8.8-8.9 10.8-9.4 19.5m26.7 19.8c-6.5-5-26.2-13.4-28-10.1a81 81 0 0 0 28 10m-34.6-43.7c-2.7 9 4.2 43.4 3 17.3q.1-8.9-3-17.3m87 26.6c-.2 14 4.8 28.2 1.2 41.8-15.5-7.7-45.4-7-44-29.4 1.7-8.7-9.8-35.4 6-28.4 11.1 5.3 23 10 34.6 14.9zm-26.6 19.7c12 6.6 27.7 12.5 22.8-6.7 4-14.7-23.3-22.4-27.6-17.2-.6 8.1-.8 17.2 4.8 24m23.7 15.4c-6.6-4.7-16.2-6.9-24-10.6-20.9-5.8 17.6 12.6 24 10.6m-36.2-44c-1.1 12.9 3.6 42 3.3 14.7 0-5-.8-10.4-3.3-14.7m1197 479.5c6-1.6 11.8-6.4 17.6-2 25.3 10.4 51 20 76.4 30.4-18.8 13-42.8 17.2-65.2 19.8a176 176 0 0 1-105.2-27.4c-12.6-10.3-25.8-26.2-22.5-43.6 5.3-21.2 23.5-18.7 38.2-9.2 15.1 6.7 32.1 10.9 46.1 19a14 14 0 0 0 12.2 12zm85 29.5c-24.3-9.8-48.3-20.4-73-29-17 9.3-27.1-7.3-37.5-15-19-7.2-37.6-15.5-57-21.6-19.3 7-14.2 35.5-.6 46.2 44 38.2 115.7 45 168 19.4m5.4-553.2c15.1-30 55.5-45 85-28.5l26.2 7.5a358 358 0 0 1-.4-62.2c6.1-58 34.8-115 84.4-147 47.6-34.8 101.9-61.8 159.9-73.1 20.7-.6 42.5-.7 62.5-2.7 10.5 5 23.2.4 34.5 2 19-5 35.5 4.2 54.3 4.2 55.3 6.4 110.8 13 164.7 27.5 39.3 8.5 76.8 23 114.5 36.5 14.9 3.6 27.3 13.2 41.3 19.2 19.2 10.3 39 19.5 57.6 30.5 24.5 17.2 41.3 46.5 39.5 76.8 2.4 11-5.4 18.2-9.6 27.5-16.6 33.6-40.3 63.1-58.9 95.7-2 8.1-20 19-10.5 25.5-23 13-37.5 42-30.5 68 1.8 2.7 15.3 23.7 6.9 18.6-10-6.1-19.3 11.8-28.4 16-9.8 9.5-22.6 17.2-30.4 27.8-6.4 22.5-8.1 46.3-19 67.3-6.9 19.1-3.5 40.8-12.9 59.1l-3 19.7a1947 1947 0 0 0-111.5 90.2c-36.5-10.8-72-25-108.6-34.9-22.7-9-46.7-15.3-69.9-23.5-18.3-4.7-35.4-12.7-53.7-17.8q-47.3-15.3-94.4-30.8c-2.5 18.7 29.5 15 41.7 23.3q183.8 59.4 368.2 117.3c8.9-6 6.4.1 11.3 3.7 8.6 1.5 36.6 13.2 14.5 8.4-16.4-8.7-31.6-6.5-43 9.3-30.2 26.9-61.3 52.7-91.8 79.3-13.2 11.7-27.3 22.5-39.7 35 12.2 32.9-7.5 71.5-39.7 84l-3 26.7c-6.5 15.9-23.3 6.7-29.6 1.5-8.8 11.7-32 12.8-28.3 30.7 3.8 12.5-9.9 28.8-22.3 21-5.8-2.7-10.9 4.8-16.4 6.5-6.2 2.8-12 5.9-10.5 13.7-1.3 8.6 1 18.8-7.5 24.3-10.9 9.1-22.4-7-30.7 7.8-7.2 6.9-22.1 7.1-19.6 19.8-1.8 9.1 1.8 21.5-9 26.1-16.8 4.5-25 23.3-42.3 28.4-7.6 10.6 2.6 41.3-22.2 37.7-13.8-1.5-15.2-17.1-11.7-27.8-1.4-12.4-5.2 16-10.3 20.7-7.8 15.6-23.4 24-38.4 31.3l-3 30.2c-6 6.5-15.8 12.4-23.8 5.3-11.5-7.2-16.7 17-29.4 17.4-5.6 2.8-12.6 4.6-11 12.3-1.4 7.7-1 16.1-3.4 23.3-5.5 9.4-20.2 11.2-26.6 1.7-4.2-10.2-.8-21.6-1-32.4-16-12.6-26.2 11.1-38.6 18.9-33 29.8-65.4 60.3-99 89.5-6.5 8.2 11.5 10.7 17.6 15.5 7.5 4 15.4 7.5 22.7 11.7-1.7 6.1-12.9-3.8-18.4-5.3q-13.8-7-28-13.7c-6.2-.6-23.6 21.8-20.4 10.9 10-6.7 20-17.2 1.4-20.5L1738 2091.3c-17.7-5-17 16.4-14.2 28.5-.6 7.2-5.6 13-12.9 13.8-10.2 2-18.7-8.3-17.6-18.1l-2.2-20a78 78 0 0 1-45-46c-12.2-15.5-42.3-11-32.5 12.8 2 8.5-1.9 20-11.7 21-9.7 3-19.6-7-18.5-16.8l-2.3-21c-22.6-9.3-42.3-28.5-46.6-53.3-12.5-13.5-19.6.8-14.7 13.3 3.6 17.3-21.8 25.7-30.4 9.7-1.7-15.3 1.6-33.1-18-36.7-13.1-6.6-19-21-28.3-30.6-11-3.9-22.1-17.5-33.8-13.7-7 4.3-19.3 6-14.7 17.4 3.6 9.5.8 24.7-10.3 26.3-7 1.5-12.2-1.8-16.5-7.1-3.2-5.5-1.2-13.4-2.3-19.8 2.9-12.8-12.6-13.5-19.7-20.8-14.1-9.4-21.8-25-26.5-40.7-25.4 1.6-.8 31-18.8 40.1-9.5 6-23-3.8-22.3-14.2l-.7-19.1c-21.4-8.2-35.7-29.6-47-45.4-6.8 9.4 3.7 24.3-5.8 33.2-9 8.5-23.7.4-24.5-10.7 4.6-18.3-7.3-26.1-21.3-33.9-12.9-9.1-19.3-24.2-23.7-38.8l-16.6 8.5c.5 14.9 1.7 46.2-22.3 33.7-8.8-5.7-5.5-17.2-7.6-26.1-2-16.5-28.8-17.4-34-34.8-5-13.8-12.3-25.4-27-30-21.5-10.5-42.2-22.4-63.3-33.8-25.5-15.6-44.6-39.7-70.3-55-32.8-15.4-70.7-10.6-105-21.3-37-10.8-75.7-29-95.7-63.7 9.5 3.3 18.4 23.3 31 29.7a220 220 0 0 0 102.9 37.8c27-16.6 56-30.1 83.8-45.3 7.3-3.8 14.9-7.2 21.9-11.5-13.8-9.3-32.9-20.3-49.7-21.7-39.8 18-78.2 39.2-117.7 57.8-4-6.6 21.4-12.2 28.3-18q42.8-21.5 85.8-42.5c-10.4-11.2-32.2-16-47.4-24.7-14-6-27-14.2-41.6-19q-20.4 9-40.8 18.4c-1.7-6.7 11-7.3 15.7-11 5.3-3.6 20.4-6 16.3-11.4-9.6-5.3-32.5-21.6-30.7 1-1.9 21.6-36.1 24.1-25.2 47.1 1.7 9-9.2 19.4-17 12.6-7.8-1.5-7-9.2-8.3-15.5 1.7-14.1-13.8-14.4-22.5-21.3-13.2-5.8-16-26.4-23.5-32.1-3 6.6-17.2 6-13.6 15 .7 8 5.4 18.4-3.7 23.7-11.4 7.7-19.7-6.3-20-16.5.5-14.7-18-13.4-25.7-22.9-7.3-6.4-18-24.5-13.9-6 6.8 14.5-15 28.6-23 11.5l-3.3-20c-21.7-8.8-41.2-27.9-39.8-53.2 1.4-21.5-33-1.9-44.5-16.4-41.4-19.7-68-63.6-113.4-76.1-14.8-3.5-29.9-8.7-45.5-9.7-13 2.3 3.6-26.5-13.4-16.7-15.6 3.3 14.3-12.4 20-11.4 7.1-3.3 23.6-7.2 8.3-12.1-13.8-4.9-32.9-19.2-44.7-16.3-4.4 10.7 9.9 35.2-4.4 37-15.2-14.2-17.9 11.8-32.3 9.4-14.7-5.3-5.8-30-25.7-30.6-11.8-3-24-36-30.9-14.7 3.2 7.7 4.5 20.2-5.8 22.6-9.4 4-16-7.3-16.1-15.9.3-10.1-10.5-10.5-17.3-14.4-10.2-9.3-9.6 14-23.2 6.4-6-3.4-7.4-9.3-8-15.7.5-7.5-4.6-10.5-11-12.6-24.2-9.9-38.3-45.7-18.2-66a42.7 42.7 0 0 1 63-5.4c13 25 34-10.3 48.6-13.5 28.5-25.1 69.1-10.5 98.5-32.7a226 226 0 0 1 84-17 342 342 0 0 1 49.9 13c8.5 4-7.6 3.8-1.6 12.3 2 14.8-16.9 17-27.8 21.3l-56.2 19.5c2.5 6 12.2 6.6 17.8 10.2 37.8 16.5 75.2 33.8 113 50.4 7.3-2.1 35.7-12.6 15.8-13.2-5.3 3-7-9.5-13.6-10 9.7 4 9.1-3 14.5-7 7.6.6 14.6-5.1 22-7.2 13-1.6 14.3-13 10.7-24-1-19.5-3.2-39-4.8-58.3-5.3-2.8-14.3-2.9-12.5-11l-22.4-218.8c37-12.6 74.8-23 112-35 20.7-6 41-15.4 63-12.6 23.8 3.7 48 0 71.6 3.8 21.5 0 43 .1 64.3 3.2 34.7 11 69 23.5 103.7 34.9l42.1-15.6c16.1 13 18.9-3.2 14.8-16.2-.4-16.6.8-33.3-2-49.8-.8-17.1 1.4-34.5-2.8-51.4-11.6 1.6-5.9-4.2 2.1-5.4 24.6-8.8 49.7-16.3 74.6-24.4-7.5-10 20.9-3.4 27.5-3.3 20-.3 39.6 2.7 59.4 2.7 23 1.6 46.4 3.2 68.7 1.8l86.8 23.6c4-13.2-1.7-26.7-.3-40.2-.3-18.5.2-37-1-55.4 20.5-8.3 42.3-13.3 63.2-20.4 32.5-10.5 65.5-19.6 97.5-31.6 19.2 3 39 .6 58.4 3.5 15.3 0 30.6.1 45.8 2.1 7.7.6 33.7-3.4 28.4 3.8-9.4-.3-32.4 4.5-28.7 12l125 27.3c8-3.2 16.8-5 24.3-9 3.7-5.8 12.3-3.1 18.2-5-.6 7.5 10 4.7 14.7 7.2 114.6 24.6 229.3 48.5 343.9 73 14.3-2.7 7.1 15.3 6.9 23.5-1.7 34.9-5.4 69.7-6.9 104.5-3.6 23.7-2.3 48-5.5 71.8-2 24.9-3.3 50-5.4 74.7 1.7 17.3 31 11.8 42.5 22.1 4.7 6-.8 11.2-1.6 17.2-4.4 7.9-6 10-12.7 6.7q-90.2 47.9-180.7 95.5C1764.6 1214 1614 1295 1462.4 1374c-87.3 46.4-175 91.9-262.1 138.8-7.1 10.9-13.5 2-22 .7-16.4-10.6-35.8-15.4-53.1-24.2-93.5-38.8-186.4-79-279.7-118.2-6.5-1.4-13-8.8-19.4-5-7.6 4.7-37 10.9-19.5 17.8 40.3 18.2 81 36 121.3 54.3l26.1 11.3c7.4-3.5 34-13.5 15.5-2.4-15.3 3.7-2.1 8.9 5.3 11.7l72.2 32.2 29-14.3c1.4 7.4-13.7 9.4-19.5 14-6.6 5.9 20.5 11.4 26.2 16.2 14 10.8 27.1 3 40.8-4.6 1.5 6.5-32 12.7-9.4 18.6l163.3 73c15.2-6 28.7-15.8 43.2-23.3 36.5-20.5 73.3-40.6 109.7-61.4-3.6-6.5-13.7-6.7-20.1-10.3-10.3-3.5-20-8.6-30.6-10.8-5.2 14.5-4-4.5-12.3-6.3 11.5-5.3 1.4-27 4.3-39.7-2-4-10.6-3.2-.9-8.4.3-11.8 3.4-6.2 10-5.1 51.7-27 103.8-53 155.2-80.4 3.7-7.4 18.5-7.7 24.6-11-4 5.6-18.2 10.8-2.3 13.7 21.4 7.9 42.2 17.9 64 24.2 4.2-13.8 5.2 2.6 11.3 6.8-7.5-1.3-7.7 15.7-.4 11.1 60.7-33 121.6-65.5 182.3-98.4 11.5-6.2 23.3-12 34.5-18.4 2.2-5.4-15.3-11.7 1-8 6.5 6.1 17.8-4.7 16.9 5.6q69.7 23 139.3 45.7c49 15 97.1 33 146.4 47.1-.4-14.8-25-11.4-34.8-18.7-57.4-19-115.5-36.4-172.7-56.1-13.2.6-25.4-14.4-9.4-22 15-13.5 27-30.4 43.6-41.9 17.2-23.8 32.1-49.4 50.9-71.9 8.4-5.6 12-15.5 18-23.4-12.7-8.3-39.8-7.1-44.4-18.3 5-6.5 9.2-4.6 4 1.6 16.9 5.8 36.5 9.8 52 15.2 97.5 29.4 195.4 58 293 86.8 36.4 10.8 72.6 22.1 109 31.8 55.8 17.9 112.5 33.6 168.7 50.5 24.2 6.6 48 14.8 72.1 21 8.3-7.5 12.6-25 24.5-32.6 3.5-7.2 30.4-16.3 19.8-19.7-13.4-3.3-26.5-8.4-40.1-10.4-16.3-4.5-37.1-17.2-54.1-4-14.2 8.1-24.8 20.9-37 31.4-5.8-5.2 13.1-24 22.5-30.6 7.9-4.9 23.3-13.5 6.3-15.3q-33.6-10-67.5-18.3c-22 4.8-36.7 23-52.6 37 1.3-16.3 19.4-29.5 33.1-38.2 9.7-5.5-7.7-6.2-12-8.5-19.7-5.2-39-12-59-16.2-24.6-2.1-43.6 30.3-60.5 33.7a94 94 0 0 1 40.6-37.8c3-3.2-11.3-4-15.7-6.3-17.1-4.8-34.3-9.7-51.5-13.6-18.4 1.8-34.4 15-46.8 28-12.2 16.4-4.8-9.9 4.2-13 4.5-9 26.8-16.4 24-21.3-24.5-6.8-49-14.2-73.6-20-22 4.7-39 21-55 35.5-.5-19 25.2-29.7 38.8-40.8-21.6-4-43.6-15.7-64.8-14.9-18.7 6-34.7 17.7-48.8 31-15-2.2 15.1-23.6 21.7-27.9 8.6-4.7 19.3-11.2 5-12.7l-46-13c-26.5-4.1-44.6 23.5-66.1 29.5a90 90 0 0 1 41.3-34.3c4.6-3-10.8-4.5-15-6.5-17.8-4-35-12.4-53.5-11.4-21.8 1.5-34 24.1-53.7 29.9m492 298c-6.3-7.5-17.4-7.7-26.1-11.4-7.3 3-13.8-6.8-22-6.9-21.9-7.3-44-13.7-66-20.6-6 4.7 14.7 6.8 20.7 10 21.2 6 41.8 14.6 63.4 18.9 26.7 10.2 54.2 18.2 81.4 27.2 7.1-3.6 8.1 4.1 15.4 4.4q44.2 15 89 28.2c6.2-3.4-9.4-5.4-13-7.6-33.8-11.5-68.2-20.8-101.7-32.4-12.6-3.6-25.2-8.7-37.8-11zm-828 512c2.6 6.5-13.3 14.1.6 7.4 11-10-18.3-13.8-24.9-20.1-13.6-4-34.2-21.7-44.2-17.7 19.8 10 41.3 19.3 62 28.7zM302 1234c-9.7 3.3-3.1 14.6-3 21.8-6.7 23.3 20.8 26 36.8 34.5 11 5.8 22.5 13.2 34 5.2 9.2-4.3 23-7.6 28-13.4-31.2-15.7-63.5-29.3-95-44.7-1.5-7.7 12.1 3 17 4 27.7 12.6 55 26.4 83.1 37.9 11.9.8 22-7.2 33-10.5-39.7-17.4-79-35.5-118.7-53-4.3-11.4-16.8 9.1-15.2 16zm2446 30c22.5 12.5 42 .6 57.8-16.8 10.3-7.7 29.7-18.2 14.4-31-24.1 15.6-44.6 38.4-72.2 47.8 9.4-9 21.6-15.2 32.3-23a485 485 0 0 0 39.3-28.5c-5.6-15 10.6-26.4 9.3-40.3-5-2.3-13.7 8-20.1 11.4q-47.1 34-95.1 66.8c-5.4 7.1 12.6 7.5 19.3 10.6 5 1.3 9.7 3.3 15 3m-666-222c-33.3 14.9-64.8 33.4-97.4 49.9-256.8 133.9-513 268.9-769.9 402.6-5.7 2.5-30.5 14.4-18.2 16a659983 659983 0 0 1 804.7-424.6c26-13.9 52.7-26.8 78.2-41.6 7.8-3.5 34.2-18.3 12-9-3.1 2-7.3 3.5-9.4 6.7m-248 546c-10.4-8.4-25.2-10.6-37.4-16.4q-103.4-40.5-207-80.3c-2.4 8 22.8 11 30.9 16.2l208 81.4c16-5-15.6 16.3-8.8 19.8-6 38.2 34.6 62.1 66.7 72 43.8 13.4 92 6 132.4-14.9 6.7-2.8 13.6 3.9 20.5 5.3l271 105.5c1.6 5.4-8 8.8-11.4 13.2-47 39.8-94.8 78.5-141.4 118.7-43.6 35.8-86 72.9-129.9 108.4-34 29.5-69.2 58-103.3 87.4l-20.2 17c12.7 10.3 35.5 18.2 52.2 27.5 9 7.5 15.7-2.6 22-7.7l103.5-90.5c-1.5-10.6-7.4-1.8-12.1 1.8q-54 46.2-108.2 92l-44.5-21.2c-3.3-6.6 8.9-11.5 13.3-17.2 38.1-33.4 77.7-65.1 116-98.4 33.9-28.5 67.4-57.4 101.5-85.6 34.8-29.7 70.1-59 104.8-88.9q63.2-52.5 125.6-106c36.9-31.9 74.8-62.5 111.8-94.3 11-13-2.9-1.4-7.7 3.4-33.7 28.5-67.9 56.3-101.2 85-21.2 17.4-42 35.3-63.4 52.2-48.2-19.5-97-37.3-145.3-56.6-47.3-18.6-94.9-36.5-142.1-55.2 4.2-11.3 18.8-27.7 8-43.4-14.7-30.4-52-40.6-83-46.8-13.3-3-44.1-5.2-46.8-1.5 32.7.8 65.5 7 95.1 21.2 18.7 8 39 27.1 31.8 49.5-4.4 16-17.3 22.5-30.5 11.3q-35-13.2-69.7-27c-4-10-15.7-9.6-24.6-9.6-20.8-8.2-42.5-15.2-62.5-24.8 8.4-10.8 34-12.6 41.4-19.4-18.3-1.5-35.2 11.2-52.4 16.6zm36.2 330.4c-2.2 7.4-.6 8.6-9.5 8.5-33.8 25.5-68.5 49.8-102 75.8 3.7 13.6 10.3 27.3 6.2 41.7 1.7 7.9 14 9.1 20.8 13.5q58.3 26.9 116.1 54.8c22-6.2 38.3-30.2 58-43.3l342.3-286.8c1.4-10.4-25.3-12-35-18.6-81.8-31.5-163.2-64-245-95.5-30 14.3-62.6 24.6-96.1 21.5-40.9-1-83.9-17.6-107.1-52.7-13-15.5 0-34 4.9-46.3l-236.4-92.2c-79.4 45.8-158.4 92.6-237.7 138.7-57.2 33.7-115.3 66.2-172 101-.5 9.4 18.5-10 27.4-6.6 26-2.5 48.1 16.3 58 39 7.8 14 30.8-5 44.4 6.9 17.3 2.5 26.8 33.1 43.1 14.3 29-18.6 57.5-37.8 86.2-56.5-1.5-7.9 7.5-7.2 12.5-9.7 42.5 17.6 83.7 38.4 125.7 57.1 83 38.1 165.8 76.9 249 114.6a534 534 0 0 0 43.5 19.1zm713.5-372c-53.4-18.1-106.4-37-160-54.5l-86.9 65.1c7.5 11.4-6.8 3.6-12.7 1.9-124.2-43.7-248-88.5-372.8-130.7-15.8-3.6-12-6.7-.9-9.4l90.3-55.4c-.4-9-25.8-11.2-36.2-17.2-33-11.4-66-23.4-99.5-33.3-101.4 59.7-203.6 118-304.5 178.6L1837 1583c26.8-13.4 56-17.4 85.4-19 34.2 2.1 69.9 9.3 98.6 29 15 10 26.2 26 23.5 44.6-.1 12.5-17.7 23.3 1.7 26.3 89.1 34 177.6 69.5 266.7 103.3 6.3 4.8 10.4-3.8 15.4-6.6 53.8-44.4 106.4-90.1 160.5-134.2 32-26.4 62.9-54 95-80M516.7 1219c48.5 21.8 98 41.6 146.8 62.7l516.9 219.2c9.3 6.4 17.4-2.7 25.8-6a693382 693382 0 0 1 818.3-428.5c27.5-14.5 55.6-28 82.4-43.5 5.4-8.6-9.7-7.6-14.9-10.7-7.7-1.5-15.2-6.6-23.2-5.3 2.2 7 1.4 19.8-9.2 17.9q-57 29.9-114 59.5l-22-7.8c.7 13.8-2 24-17.3 26.5a9566 9566 0 0 1-125.5 65.7c-22-9.4-45.5-14.6-68-22.8-69.2 34.5-138 69.8-207.4 103.8-35.4 18.7-71.6 35.8-107 54.2-19.5 1-24.8 31.6-48.3-2.8-21.2-24-40-4.4-59.3 3.2-33 16.1-66.2 32-98.5 49.2-6.7 18.8 3 45.8-4.6 63.8-6.8 1.3-13.8 7.5-20.4 2.4-8.4-1-7.8-7.8-7.3-14.6-.7-17.2 1.3-34.6-1-51.7-40.2-16.2-80.7-31.8-121-47.7L892.5 1372c-8.7-4-23-5.6-19.2-17.8-8.8 4.8-15.8 4.3-24.8-1.6-7.7.5-1.5-16.5-9-9.8-5.2 6-11.1 2.8-17-.5-11.5-1.1-11.7-12.5-17.9-17.2-6.5 9.7-14.5 2.9-22.2-.9-8.5 1-4.2-13.3-10.3-10-6 5-11.7 1.5-17.4-1.9-6.2-2.4-11.9-5.3-11.7-12.8-7.1 5.5-18.3 3.4-25.8-3.6-.3-16.2-5.9-7.4-13.5-5.1l-20.4-8.8c-1.5-6.2-1.5-16.2-8.5-7.8-5 6-10.8-2.7-16.3-4.4-8.7-2.8-5.8-15.7-15.9-6.6-5.8-1.2-11.7-5.4-17.5-7.7-1.3-13.1-11.8.5-18.7-7.3-6.6-.3-9.5-9.6-14.6-8-6.1 3-11.6-4-17.5-5.6-3-13.4-13.2 1.3-22.1-9.7-8.3-3.4-1.8-24.5-14.3-15.1-7.2 2.7-14.5 5.4-21.2 9.2m282.7-336.8c-8 7.5-6.4-8-18-2-22-4.1-44.5-.2-66.3-4-21.5 1.6-44-5.4-64.4 3.2-23.8 8-48.2 14.5-71.8 23-1.7 5.6 17.8 8.4 25.1 12.1 101.8 35.7 204 70.3 305.7 106.3 14.4 2.4 27.2-6.7 40.6-10.6 16.5-6.6 33.8-12.1 49.8-19.4 11.7-7.2 29.5 8.6 43.3 9.7q57.8 18.8 115.4 38c15 3 28.3-6.8 42.3-11.2 173.4-68.3 347-136.4 520-205.5 9.1-6 19.2-8.1 21.8-1.1l46.1 11.1c26.4-11.6 53.2-22.2 79.2-34.5 2.8-4.8-7.7-3.3-10.3-5.4-8.6-4-22.6 1.5-14.4-13-3.4-12.4 4.8-11.9 13-13.1 14.4-5.1 28.3-12.5 43.3-15.9 18.7 2.6 36.6 9.7 55.4 11.7 22.6-7.2 44.6-16.8 66.7-25.7-.5-7-15.2-5.5-22-8.4a86926 86926 0 0 1-272-61c-4.4 8.4-8-3-15.4 1.8l-22.2 6.7c-5.4 8.2-12.7 8.5-20.1 1.5q-77.6-17.2-155.3-33.9c-9 3.2-17.2-3-22.9-8 11 5.1 15.6-6.7 2.1-4.5-23.6-4.5-45-1-67 6.6-23.4 7.6-47.3 14.4-69.7 24.7 133.3 31 266.4 63.2 399.6 94.9q20.6 4.9 41.2 10.1c-2 4.4-5.9 10.1-3 17.4-66.6 25-133.2 51-200 76.2-8.7-1.5-17.1-6-26-4.9-.7 10.5.6 19.7-11.7 17.9-21.7 8-42.9 17.4-64.4 26-8.2 11.7-30.5 11.6-43.5 20q-100.6 39.5-201 79.7l-6.8 1.5c-2.8-11-25-8.5-34.4-14.7q-122.9-38.1-245.4-76.8c-3 9-9-1.9-15 3.4-10.5 2.6-20 8-30.5 10.5-13-10.4-31.1-11.5-46.2-17.9-23.6-7.5-47.2-15.6-71-22.5m924.3 253.8q-.1-31.7 2-63.2c.2-16.8-.3-33.6 2-50.2.2-21.8-.3-43.7 2-65.3.2-19.9-.4-39.8 2-59.5 0-19.5 0-39 2-58.5-4.6-9.7-23 7-32.4 7.8q-262.3 105-524.7 209.7c-11 4-5 18-6.5 27.2 0 24-.7 48.5 3 72.2 13.7-3.1 26-11 39.2-15.9l271.9-117.3q54.5-24.2 109.5-47.6c10.2-2.2-3.8 7.6 9 7.8 7.2 5.6 11.6-12.1 11.2 3.7 0 25.7-2.8 51.3-1.8 77.1-3.4 13 4.8 28.7.4 36.3-1.3 10.2-9.4-1.8-16.2 6.3-55.3 24.9-109.3 52.5-164.4 77.8a162 162 0 0 0-62.4 45.3c-43.3 47.9-105.4 68.4-162.5 94.3-10.9 7-31.8 7.9-30.9 23.2l.3 69.1c12 0 9.5-11.8 9.5-19.8.3-15-.8-30.1.6-45.1q61-30.5 122.6-60.3c6-7 15.8-6.8 22.4-12.4 20.2-7.2 38.8-18.8 58.7-26.6 8 7.6 2.8 25.2 2.6 36.5-5.1 16.2 6.5 11.8 14.9 6zM1181 1331c16.5-5.3 32-14 48.1-20.6 20-8.9 39.9-17.6 58.8-28.4 35.8-13.8 64.5-40.3 90.6-67.5 17.8-20.1 43.4-28.7 66.7-40.3 46-21.4 91.6-43.5 137.3-65.3 9.9-5.7 28.5-7.4 25.1-22.3.6-28.6-1-57.3 2-85.8-.4-17.6-23.9 3.5-34.3 4.8q-108 46.3-215.7 92.7c-60.6 25.5-120.9 51.7-181.2 77.8q-1.2 43.6.4 87.3c2.6 22.4-.1 45.3 2.2 67.7m261.3-444c-151.6-42.7-303.4-84.6-455-127.4-21-8-5.3 21.6-9.2 33-1.6 16.3 2.7 32.1 1.9 48.3.3 14-1 28.2 3.2 41.7q129.2 39.8 258.2 80c22 2.1 41.5-12.4 62.3-18.5 45.8-18.5 92.3-36 137.7-55.2zm463.9 414.5c23 11.1 48.1 17.6 72 26.8q84.2 29.3 168.6 58c11 1.3 5-21-7.2-19.2q-137-44.5-273.7-89.8c-17.4-1.7-31.1 13.3-46.7 19.6-61.4 34-123.5 66.5-185.2 100-14.4 3.3-7.2 26-.6 23.6-6.7 2.7-7.8 8.6-7.9 15.2-3.4-4-8.5-9.2-15.6-1.8l-142.3 81c5.2 10.7-11.2-.7-8 12.3-3.7 2.9-5.7-7.7-12.9-2.8 11.7-7.6 4.2-10.2-5.1-12.5-7-4-12.9 4-19.3 6.3-58.8 32.7-117.3 66-176.1 98.6-11.4 5-3.6 11.8-17 9.9l-32 17.6c4.5 10.2-6.3 1.4-10.7 6.3q-33.1 17.6-65.2 37c4.2 4.7 30 6.2 37 19.4 9.3 5.6 11 30 24 17.6 55.6-32.9 112-64.7 167.5-97.9 69.6-41 139.7-81.2 209.3-122.3a40609 40609 0 0 0 333.1-194.8c16.7-4.2-18.4-13.8 2.4-10.4 3.7 1.1 7.6 3.5 11.6 2.3m875.2-203.3a80 80 0 0 0-42-68.6c-44.7-31.8-95.7-53.2-146.5-72.8-51-19.4-104.5-29.5-157.3-42.3-51-8.5-101.6-20.6-153.3-22.4-21.4 0-42.8 2.2-64.1 4.6-23.7 4-39.6 24.7-51.5 44-5.4 11.5-25.7 28.7-8.3 38.1 26.8 19.6 60.9 21.3 92.4 27.2 35.7 5.4 71 12.6 107 17a632 632 0 0 1 132.4 34c42 19.8 86 34.6 128.7 53 45.4 18.7 91 42.6 142 37.3 15-4 19.7-27.7-.7-25.5-8 1-32.9-18.3-26.8-3.7-5-3.4-15 11.5-9-3.3-42-29.8-89.5-51-136.9-70.7-73.9-27-148.7-52.3-226.3-66.1-24.8-5.4-50-8.4-75.1-12.4-32.3-3.6-64.5-8.2-97-7.4-10 1.7-19.1-2.3-8.5-11.8 11-13.9 22.5-32.2 41.4-34.5 26.4-3.3 52.6 0 79 .5a991 991 0 0 1 138.3 20.5 843 843 0 0 1 160 49c36.2 16 71.8 33.7 105 55.1 16.3 14.2 39 28.2 33.7 53.8-6.9 16 6.7 24.3 21.9 27.6 20.8 8.9 19-3.8 21.5-20.2m-41.9 85.5c-27.2-4.6-55.3-7.3-81.8-16.1-65.6-19.4-126.2-52.9-192.8-69.1-52.6-15-106-27.2-159-40-42.8-11.3-85.9-21.5-127.5-36.3-13.8-2.8-30.4-19-40.7-16-7 27.6-11.1 56.8-4.8 85 9.5 7.5 24.1-3.8 31.7 6.9 5.6 7 16.2 6.2 24 9.5 15 4.3 30.2 9.3 45.9 9 8.2 10.2 8.7-10 20.1-.7 112.3 31 224.4 62.6 336.7 93.6-1.6 11.7 6.6 15.2 17 16.6 18.4 5.2 36.8 10 55.1 15.3 14-7.3 36.4 24.2 43.5 2-19.7-6.1-40.5-10.2-60-18-47-14.8-92.8-33.5-139.4-50a2570 2570 0 0 0-167.5-47.8c-45.3-13-89.2-30.1-134-44.7-24.6-9-51.8-18.2-70.8-35.2 24.3 10.3 52.5 27.8 80.6 35.3 47.5 15.5 94 34.4 142.7 46.1q54 14 107.5 30.2c55.3 15.2 108 38 162 56.9 26.3 8.3 52.2 19.2 79.7 22.3 13-14 20.7-37.6 31.8-54.8m-823-112c5.7-11.6 2.2-25.1 3.5-37.7 2.3-18.1 1-36.4 3.5-54.6-.6-20.3 3.1-40.2 2.1-60.5 1.5-21.3 2.5-42.8 4.1-64-.5-21.6 4-43 1.6-64.6-12-.2-26 10.5-39 14.3-32.4 14.9-66 27.4-98 43 .4 22.4-3.4 44.6-2.1 67-1 19-2.8 37.7-2.2 56.7-.9 14.4-2.3 28.9-2 43.4.6 20-2.8 40-2 60 .3 16-2.7 31.6-2 47.5.4 13.7-1.1 27.3-1 40.9 31.3-15.5 62-32.4 93.3-48.2 13.6-7.6 28-14 41-22.5.8-6.8 1-14.1-.8-20.6M2083.3 727c-37.3 14.2-74 30.1-111.1 44.8-18.4 6.7-6 30-11 44.5-2 16.5-.1 33.3-2.8 49.9.6 22-2.8 43.7-2.7 65.6-2.4 19.5-1.3 39.2-3.6 58.7q-1 38.2-3.8 76.2c-3.3 17.7 12.1 5.8 20.1 2q45-23.6 90-46.9c8.1-4.2 4.4-14.3 6-21.7a4717 4717 0 0 1 6-82.8c1.4-20.8 3.3-41.4 4-62.2q3-25.6 3.6-51.7c2.3-17.1 2.8-34.4 4-51.6.4-8.2 2.7-16.8 1.3-24.8m-329.4 1266.8c27.3-17.8 52.5-39 79-58.2 8.5-6.2 27.5-16.7 7.3-20.8q-103.3-46.8-206.8-93.2c-55.8-25.8-112.2-50.3-168-76-5.8-1.2-12.1-8.5-17.4-4.9-34.4 23.6-69.4 46.3-103.4 70.4-1 26.8 26.9-.2 42.4 8 20.2-.8 31.4 26 44.2 28.8 12.1-4.5 7.4-17.7 8.4-27.4-.6-9.7 1.6-19.8-2.2-29 7-5.4 12.9-13.3 22.4-14-8 10.8 11.2 11.3 18 16.4 43.5 20.6 86.6 42 130.6 61.5-1.6 13.8-2.6 30 13.5 33.4 21.5 10.7 43.6 20.4 64.6 32 .6 7-10.4 9.8-15.2 14.8-7.7 6-16.4 10.9-23 18l6 17.6 2.2 18.5c12.5-11.4 27-22.6 44.8-22 18-.7 36 7 46.8 21.6l2.7 2.4zM1592 833.4c55.2-21.5 110.5-42.7 165.5-64.8q-228-52.6-455.7-106.3c-11-4.7-6.7 8.5-7.6 14.9.4 25.2-1.3 50.5 2.5 75.5 19.2 7.8 40.4 11.2 60.3 17.7 20.1 3 41 17.4 61 9.2 21.3-8.3 43-15.8 63.9-25.1q43.9 10.7 87.6 22.4c3.7 16.3-3.7 37.1 2.6 50.5 6.4 2.7 13.4 3.5 19.8 6m-635 52c41.3 14.7 83.8 26 125.6 39.4 53.4 16.2 106.6 33.3 160 49.3 10.6 3.5 20-4.4 30-7 69.2-25.4 138.2-51.7 207.3-77.5 7.2-4.6-9.4-4.8-13.5-7.2-154.6-42.7-309.5-84.2-464-127.1 1.4-6.3 14.9-7 22.3-10.2q22.6-6.7 44.6-14.1c29 1 58 3.4 87 2.9 18.1 1 35 1.7 51.7 8.7 64.2 15.6 127.7 34.6 192 49.8 4.7-8.4-10.6-9.1-16.5-11l-166-45.8c-20-3.1-40-3.4-60.3-4l-78.5-4.5c-20.9-2.8-40 7.6-59.8 13-12.6 4.3-25.5 8-38 13 9.9 5.5 22 6.5 32.7 10.2q217 60.4 433.9 121.2c7.9 7.2-12.3 9.6-18.2 13.3q-90.3 35.5-180.4 71.5c-33.3-12.5-67.8-21.2-101.6-32.2-61.1-18.6-122-38.2-183.2-56.5-14.5-1.5-27.3 8-41 11.6-8.4 3-16.8-3.7-25.1-5.6-28.7-9.9-57.3-20-86.4-28.7-19.2-4.4-39 .5-58.3-3.3-18.9-1.3-37.9.4-56.5-2.6-20.2.5-41-2.5-60.1 5.7-40.6 12.7-81 25.8-121.7 37.9 15.7 10.1 42.4 15.3 62.2 23.6 110.3 38 220.9 75.2 331.2 113.1 13.6 3 26-5.6 38.8-9 19.3-6.6 38.6-13.6 58-20l156.9 52.3c20.1-1.1 37.4-13.2 56.3-19.3 96-37.9 191.5-76.7 287.3-114.9 72-28.7 144.2-57.2 216.1-86.4 7.6-7.4 15.7-6.8 24.8-3l41.4 11.3c20.5-4 39.6-15.2 59.3-22.8 25.5-11.2 51.4-21.6 76.7-33.2-1.2-5.3-13.3-5-19.5-7.6-7.6-3.6-24-1.7-25-10.9 8.4-3.1 16.8-8 25.3-10.1l52.4 13c23.2-6 45.7-17.2 68.4-25.8 17.2-7.2 34.8-13.7 51.6-21.7-.4-4-12.1-3.3-17-5.4-110.9-23.4-221.6-47.4-332.5-70.5-9 1.4 7.6 3.4 11.1 4.6 89.8 20.6 179.7 40.2 269.5 60.4 14.6 3.4 29.3 6 43.9 9.7 1 9.4-24.7 12-34.2 18.4-20.6 8.2-41.2 16.1-61.5 25-20.3-2.8-40.4-13.2-60.7-12.2l-42.9 16.7c17 4.7 34.4 8.6 51.3 13.8-9.8 8.1-29.6 14-44 20.4-23.7 9.1-46.3 21.1-70.4 28.8-19.8-.5-38.2-9.3-57.9-11.4-44.4 15.4-87.8 34.1-131.7 51.2-86.7 34.4-173.8 67.8-260.3 102.5q-86.7 34.7-173.8 68.4l-158.8-52c-30.7 11.2-60.8 23.7-91.8 33.8a36152 36152 0 0 0-374-129.5c2-5.8 12.5-5.2 18-8.2 34.9-11.2 69.9-21.9 104.4-33.8 20.5 6.3 43.2 1.3 64.5 3 25.3 3 50.8 1.6 76.2 2.3 11.4 9.4 27 10.7 40.4 15.9 22.4 6.8 44.6 14.6 67 21q14.2 1.2 27.1-4.5c6.2-2 12.3-4 17.8-7.3m-426 228.6c5.4 9.2 17.7 9.8 26.6 14.4 95.7 37.6 191 76 286.9 113.1L919 1271c6.6-6.6-19.6-8.2-24.7-13.2-24.3-2.8-16.5-28.4-20.3-45.7 4-13 24 8 34.4 7.8 15.2 13.2 11.8-9.9 10.4-15.5-12.6 5.2-30.9-9-44.4-13.7 1.3-12.3-9.7-37.8 2.4-41.2 11.9 8 32.5 8 39.3 19.6.6 11.2 6.2-22.7-6.2-20.4-12.8-9.2-41.8-5.8-40-26.5 3.3-9-9.5-32.8 5.1-30.6 12.7 4.4 24.7 12.4 38.6 14-.8-7.7 3.7-19.2-8.4-18.8-14.6-7.7-42.3-5.3-38.2-28-1-10.8-7.3-34.7 11.2-22.4 11 4.7 22.4 8.6 33.6 13 3.8-12.4-7.6-14.6-16.2-17.5-51.5-17.9-103.3-35-154.8-53.3-75.8-26-151.8-51.6-227.6-77.7-4.2 3.6 10.5 5.9 15 8.5q21.4 8.2 42.7 15.8c15.3 6.6 39.7 8 33.3 31 3.7 11.3 2.3 26.9-11.6 17.9-23.8-9-47.6-18.2-71.7-26.6-13.2-1.3-3.4 19.8-4 29.2.5-9.6-.4-24.9 13.6-14.8 25.3 10 50.8 19.4 76 29.5 7.2 11 1 27.2 5.2 40-12.9 6.7-32-9.5-46.4-13.5-14.3-3.1-34-17.6-45.2-12-5 16 20.6 7.8 29.7 18.4 20.7 9.6 46.8 14.1 63.6 28.2-3.6 11.1 9.2 34.8-3.5 38.2-27.4-11-54.5-22.8-82.5-32.3-4.5 16.6 24 15.3 34 23.5 16.9 6.5 33 14 50.1 20.1 11.6 8.3 5 28.1 8.2 41.6-2.2 9.3-12.2-1.2-18.4-2-22.7-9.1-45.4-18.8-68.3-27.2zm1800 437.2q41.8-30.2 82.2-62.2c-21.2-10-44.5-15.5-66.5-23.8-18.4-13.4-33.2 2.4-48 12.6-16.4 4.9 4.5 16.4 2.2 17.6-11.8-5.2-22.9-2.6-30.7-10.4q-83.8-30.7-167.8-60.8c-6.6-3.9-30.4-6.3-27-13.3 8.9 4.3 17.8 2.6 25.3-4 5.8-7 38.2-16.5 16.7-21.7-20.5-7.8-42-13.4-62.2-22 1.9-7.1-12-9.8-4.5-1.6-7.6 12-28.7 19.2-41.2 29.4-15 10-31.2 19.1-45.6 29.8 7.8 7.4 23.5 8.5 34 13.7q148.4 52 296.7 104.5zM883 1261.2c-111-44.3-222.3-87.8-333.2-132-13-2-1.3 19.5-3.3 27.6-1 19.7 6.7 38.3 4 56.7 1.4 12.3 16.8 10.9 10.7-2 1.3-11.2-10-42.1 10-28.6 11.3 12.1-.4 34.9 7.8 48.3 8 7.3 7.3-.4 6.8-7.5 3.1-11.5-9.7-41.9 11.3-29.8 5.4 9.4 2.1 21.2 3.2 31.7-5 9.2 12 27.5 11.5 12.4.6-12.4-1.3-25 1-37.2 11.6 1.4 15.9 10.3 13.3 21.7 0 10.2 1.2 41 13.6 30-.7-11.3-6-36 1.7-40 4.6 3.3 14.4 3 12.5 10.7q.8 20.3 3 40.4c18.8 14.7 8.5-21 10.8-31.5-1.7-15 21-2.2 17.6 9.4 1.4 12.5.3 25.2 3.7 37.6 21.8 14.5 10.2-22.2 12-33.8 2.9-18.8 7.1 11.2 6 17.6-1.8 8.2 3.6 28.6 7 11.6 2.2-10.5-2.5-26.5-3.2-32 15 2.6 3.4 27 8.9 38-4.8 16.7 18.3 21.4 11.7 3.3-1.2-12-7.6-43 12.9-28.3 10.5 15-7.8 49.8 17 53.3 1-14.7.6-29.7-.2-44.5 23-.6 15.6 23.3 18.2 38.8-5.5 12.7 17.7 29.9 14.5 9.2 4-8.5-10.5-40.6 6.4-32.7 14.5 1.5 11.2 15.3 12 26.6-.6 12.2 2.3 39.5 17.4 30.4 2.2-14.3-4.4-29.2-.5-43.1 5.1.3 16.7 3.2 17.4 9 1.5 15-3.5 37.1 6.3 47.8 13.3 7.3 4.5-19.4 7-26.7-3.8-11.4-.4-22.3 11.5-13.4 10.7 12.4.5 38.2 9.9 53 16.5 5.6 4.8-23.4 6.8-33.2q-.5-32.4-3.9-64.6l-.5-2.1zm133.9-20.7c-16.8 5.8-39.4 10.3-50.6 23.2-3.8 11.9 9.2 12.5 16.6 16.1 59.7 24.2 120 46.5 179.3 71.6 4.2 4.1 1 12.8 2 18.8.2 14.3-.6 28.6.4 42.8 13.7 8.6 4.8-24.6 7.6-33.4-2-14.5 4-34.2-4.2-45.3q-63.7-24.8-127.5-49.9c-5-39-.9-78.5-4.9-117.7 1.3-18.5-7.4-47.4 19.3-48.7 22.7 7.2 45.1 16.1 67.9 23.7 14.8 5 29.3 11 44.2 15.6 3-16.5-2.4-33-1-49.5-.4-15.4.5-31-.8-46.3a3582 3582 0 0 0-157.6-52.4c-1.7 10.6 1.5 22.5.6 33.8-.3 16 3.2 31.7 1.7 47.8 2.8 21.6 1.5 43.7 4.2 65.3-.4 17.4 1 34.6 2.1 52-1.4 10.8 2.2 22.1.7 32.5m1714.3-138.3c8.8-22.3-6.6-47.1-25.7-58.8-63.1-45.3-137.1-73-211.3-94.6a1010 1010 0 0 0-230.5-34.9c-15.7.3-32.9-2.5-44.3 10.6-9.1 5.4-25.7 24.2-4.2 21.4 30-1 59.8 2.9 89.5 7.6 67.5 10.5 135.5 20.3 200.1 43.4a1215 1215 0 0 1 110.4 44.4 1175 1175 0 0 1 116 61m30 50.5c-28.4-2.4-60.3-3.7-87.7-16.2-42.4-17-84-35.6-126.8-51.6-36.8-14-71.8-32.6-110.3-41.2-43.3-13.7-88.6-18.8-133.3-25.3-38.4-7.1-77.3-11.7-115.2-21.1-15-1.3-29.4-20.1-41.3-18.1-10.9 16.4-8 40.9 25.8 36.7 51 20 105 31 157.7 45.4 47 10.2 93.6 22.6 140.2 35 56.7 15.7 110.6 39.7 165.5 60.6 34.9 11.5 71 22.4 108.1 21a120 120 0 0 0 17.3-25.2m-167.5 397.6c-47.8 38.8-93.5 79.8-141.2 118.7q-52.7 44.9-105.7 89.5c-59.8 51.6-121 101.5-180.7 153.2-53 43.7-104.7 89.1-157.6 133-28.6 24.7-58.3 48.3-86.9 73a66 66 0 0 0 43 20c38-33.4 76.9-65.6 115-98.6a72 72 0 0 1 26.6-58.5c10.5-15.9 39.3-4.7 43.1-22.3 8-30 38.3-53.4 70.1-48.2 11.1-6.5 12.5-30.3 26.7-39 11-16.2 43.8-6.6 39.5-32 6.7-25.7 27.5-47.5 54.5-51 11-11.4 15.7-31.2 31.7-39.6 15.4-6.2 29.7-9.2 34.4-27.4a56 56 0 0 1 48.7-25.8c8-19.4 21.5-39.7 43.7-44 9.1-5.6 19.8.7 28.7-3 33-26.7 65-54.8 97.6-82.2 3.7-8.4-24.7-12.7-31.3-15.8m190.3-432.5c33-14.2 62.2-35.1 91-56.2 17.7-14.8 37.6-27.7 52.5-45.3 10.6-22.3 2.4-49.6-11.3-68.8-11-16.4-29.4-28-48.4-16.3a446 446 0 0 0-110.7 60c-11.2 9.2-39.6 27-13.5 35.5 12.9 9.2 25.2 17.3 30 30.6 13.9 17.1 10.3 40.1 10.4 60.5m-1867.5-80.1c-1.9 24.8 2.9 49.5 2 74.4 3.7 17-.3 34.9 3.4 52 .5 15.3-.5 30.7 2.1 45.7 0 20.6.8 41.5 3.4 61.8 26.6-11.1 53-22.3 80-32.5 12-10.6 1-34 3.8-49.8-2.2-21-1.5-42-3.3-62.8.6-20.7-3-41.3-2.2-62-4.1-18.5 1-38-5.2-56zm124.5 92.7a347 347 0 0 0 .2 55.6c2.5 31.4-1 63.3 3.6 94.7 13.4 8.2 30 12.4 44.7 19 28.6 11.1 56.8 23 86 32.7 1-30.5.9-61.2-1.5-91.7-.4-20.4.4-40.9-.8-61.3-31-13.6-63.9-23.7-95.6-36-12.2-4.2-24.2-9.3-36.6-13m96 542.5c-48.4-23.3-97.5-45.2-146-68.6-12.6-3.6-26.3-19.2-39.3-10-31.5 16.6-63.8 31.9-94.8 49.4 7.2 8 30.5 3.8 43.4 10.6 38.3 11.2 59.5 48.6 94.4 65.8 11.1 5.1 23.2 13.7 35 14 26.1-14.3 52-29.3 77.8-44.2 10-5 21.1-9.6 29.5-17m639.8-511.4c6-23.4.6-47.7 5-71.3 0-18-.3-36.2 2-54.2-.2-21 0-41.9 2.1-62.8a294 294 0 0 1 2-44c0-20.2-.2-40.4 2-60.4 2.2-13 .4-25-14.3-25.1l-33.2-9.2c-12 21.4-2.6 52.8-8 78.7-.3 20.6.5 41.4-2 61.8-.2 20.6.7 41.3-2 61.7-.3 20.2.7 40.5-2 60.5-2.7 16.5 7.3 38.8-8.4 47.4 16.5 6 33.5 10.5 50 16.2-1.7.4 9 .7 6.7.7m330.2 927.3c-16.3-8.3-21.7-50.2-40.9-19.9-33 30-67.3 58.5-100.2 88.5-55.2-27.1-111.3-52.4-166.4-79.6-12.8-5.9-25.2-13-38.6-17.4-4.6 10.2-17.6 20.8-20.2 27.4Q1858 2148 1977 2205.6c40.3-33 76.9-70.1 116.6-103.8 4.5-4.2 10-7.6 13.3-13M1403.2 860.5c1.5-16.8.6-34 0-50.7-9.5-6-21.8-6.7-32.5-10.1-58.5-14.4-116.9-29.4-175.3-43.6-9 1.6-14.5-6.7-23.8-4.1-19.4.5-38.5-2.8-58-2-17.6-1.2-35.9-4.4-53.1 1.7-7.2 2.1-37.7 7.5-15.4 11.5l356.7 97.7zM2802.8 880c-48.7 10-97.6 27.1-135.6 60.3-3.3 10.6-23 18.2-22.7 32.1 22.6 13.9 48.4 22 70.3 37.3 17.9 15 26.1-17.8 42.6-22.9 37-25.3 76.1-49.3 119.5-62 18.5-2.4-11.8-12.6-17-16.9-19.2-9-37.1-20.5-57-27.9m-97.6-33c-36.1 2.2-70.6 15.4-104 28.7-24.1 11-50.8 26.2-60.2 52.5-1.2 15 22.8 11.5 32.9 18 22 7.8 43.9 15.7 65.4 24.7 27-48.2 80.7-70.9 130.9-86.4 7.8-2.5 33.9-5.4 13.7-11.2a611 611 0 0 0-78.7-26.3m-13.5-1.8c-8.6-5.7-19.9-5.8-29.6-9a528 528 0 0 0-85.9-14.3 196 196 0 0 0-106.2 32.6c-17.1 13.5-33.3 31-37.7 52.9 3.7 6.8 13.6 5 20.3 7.7q39.1 8.9 78.3 18.1c11.9-5.8 13.3-28.8 28.8-36 30.7-26 70.9-35.7 108.3-47.7a135 135 0 0 1 23.7-4.3M2299 1434.5c63 23.2 127 44 190.4 66.4 53.3 18.6 106.8 36.5 160.1 55 6.2-5 10.3-4.8 6.6 1.8 10.9 7-11.1 1-13.7 9.9-33.1 27.9-65.8 56.3-99.1 84-9.3 9.8 14 18.9 18.5 29.1l113.1-97.3c8.5-9.9 32.6-22.2 31.3-31.3q-197.4-62.6-394.7-125.7c-13.4-6.2-11-2-12.5 8.1M1757.6 2053c5.6-13 2.9-28.7-1-42-9.4-21.7-29.6-41.8-56.3-39.1-29.5.7-52.9 29.9-53.3 58 1.8 23.6 20.8 60.2 44.6 55.8 5.2-4.8 5 12.7 15.6 6.4 11 1.6 10-9.6 18.4-4.1 14.8-3.8 37.5-24.6 23.3-37.6zm-199.2-117.6c-15.2 12.7-25.2 34.4-19 54a64 64 0 0 0 23.6 41c7.2 9.5 18.8 7 21.7 4.2.8 8.6 7.6 7.9 14.4 7.4 9.6.7 8.3-9.5 16.7-3.6 19.6-6 32.2-27 34.5-46.3 1-14.2-1-29.8-10.3-41-14.3 6.8 5.7-9.2-8.8-13.6-8.8-11.5-23.8-12.4-36.3-15.2-10.4 2.2-25.7-.7-31.3 12-2 4.4-1.8 6-5.2 1m526.7 108.1c11.2 1.3-4.4 13 6.8 20.7a45 45 0 0 0 30 25c6.2-7.9 7.6 6.5 16.6 3.8 6 1.7 12-2.1 13-8.3 5.8 9.6 19.4-2.5 25.8-8.8 14.2-7.6 8-28.6 16.1-36.8 2.6 20.3 6-15.3 3-21.2-7-31.3-43-55.4-73.9-41.6-26.5 9.4-40.2 40.5-37.4 67.2M1423.9 1852c-11-19.7-33.4-33-56.2-29a61 61 0 0 0-42.2 39l-3.2 15.8c9.1 6-2 19.5 8.8 28.4 5.6 13 28.6 34.6 36 23.7.4 13.2 22.6 9.2 24.9 2 16.7 7.9 35-21 37.7-35.6-3.5-8.7 6.6-19-1.7-30.3-.3-8-8.5-6.5-4-14m129 48c-10-11-18.9-25.2-35.1-27.1-24.3-9.1-51.6 3.7-64.5 24.8a50 50 0 0 0-4.2 45.8 60 60 0 0 0 36.3 36.6c6.3-10.3 10.6 10.7 22.3 3.8a41 41 0 0 1 22-6c8.1-12.1 6.9-30 19.3-39.8 9.7-6.3 14.1-16.2 7.5-27.3zM2563 819c-30.3-3.4-60.6-8.6-91.1-7.9-50.7 10.7-108.8 24.2-140.8 69.1-16.3 19.5 20.3 12.7 31.8 17.8l64 11.2c6.4-16.9 14.6-33.6 28.4-45.9 28.7-27.9 69-39.7 107.7-44.3m-229.1 1124a51.6 51.6 0 0 0-12.8-70.3c-10-10.9-26.3-11.6-37.6-11-20.5-1.6-40.5 13.1-49 31.6-20 27.3 28.5 29 30 55 2.8 9 4.6 18.4 11.5 25.2 10 2.5 19.5-1.1 23.5-7.2 8.2 8.5 21.9-6.7 27.7-13.5 7.3-3.5-8.5-17.7 6.7-9.7m-1015.7-59c-4-23.5 14.5-42 23.2-59.2-4.4-9.5-5.4-23.6-16.8-11.4-8.5-1.7 17.2-11.5 2-17.6-9.8-13.3-27-15.6-42-17.3-10.9 2.5-22.4 4.2-30 13.7-11.5 11.4-23.6 29.5-17.8 46.3 2.6 9.9 2.5 20 10.4 28.3 6.4 10 22.8 24.8 32.1 17.3 2.3 15.8 21.6 2.5 26.6 3.2 2.5 3.8 9.9-1.4 12.3-3.2m840.3 62c-5.4 11.8-9.9 25.8 8 27.2a64 64 0 0 1 35.9 56.3c0 8.8 14.8 6 15.3-.9 1.4-6 8 8.8 14.1-1.3a63 63 0 0 0 31.5-49.8c-6.2-7.9 7.7-8.4-.1-18.8-6.8-25.7-31.8-48.2-59.5-44-19.6 1.3-35.6 15.1-45.2 31.4m-1044.7-140c6.7-1 16.5 2.7 19.7-5.2 8 6.7 14.6-3 13.3-7.8 14.2 5 4.9-23.3 14.6-30.4 4.2-6.8 17.7-22 1.5-18.2 7.7-6.6 1.7-7 4-16.4-8.5-22.4-34-38.3-57.8-32.3a55.5 55.5 0 0 0-40 54.6c2.7 22 15 44.7 37 52.5 3.9-5.8 6-3.3 7.7 3.1m-147.2-217.8c14.8 8.7 31.4 14.5 46.8 22.3 41.3 19 82.1 39.1 123.6 57.8 16.8 1.8 31.3-14.1 46.8-20.6-1.5-6.1-12-7.4-17.7-11.1-50.1-23.7-101-46-151-70-15.8-3-34 14.6-48.5 21.6m-71-222.8c16.8-5 32.3-14.5 48.7-21.1 28.3-13.1 56.8-25.8 85-39-4.2-8.7-24.8-10.6-35.1-17.2-9.9-6-28.8-5.5-32.3-17.3 0-17.1-22 3-32.3 4.1-9.2 3.6-18.5-4-27.5-6.5-10.5-6.8-17-1.6-12 11 0 27.6 2.5 55.2 4.2 82.9zm1393 489.1c26 3.5 52.4 22 57.8 48.8 3.8 9.6 7.3-9 11.8 2.2 14-3.4 21-15.4 27.9-25.5 4.8-3.5 7-10.6 7.3-16.2 3.1-12.4 5.7-26-2.3-38.6-8.1-16.5-26-32.7-45.3-30.1-27.3-4.9-51 19.6-55.3 45-1 4.7-1.2 9.7-2 14.4m-1057.2-11.4a59 59 0 0 1 26.4-59.7c5.7-25.6-30.3-52.3-57.3-46a57 57 0 0 0-41.8 50.6c9 2-2.3 10 2.8 15.6 4.5 17.8 17.4 36 35.6 40.6 8.3-13.5 5.2 31.7 24.5 2.8 5.1-12.2 3.5 3 9.8-3.9m41.6-246.7c-37.5-17.8-75.8-33.8-113.5-51.2l-60.7-26.6c-14.2 7.5-29.2 14-42.9 22.2 10.7 7.3 24.5 11.4 36.5 17.3 44.6 20.8 89.8 40 134.7 60.2 8.4 4.2 15-4.9 22.3-7.8 7.8-5 17-7.4 23.6-14M2704 1370a625 625 0 0 0-75.7-22.2c-13.9 25.2-29.4 49.5-43 74.8 3.4 10 23 9.4 33.9 14.7 13.6 3.9 26.7 10.3 40.9 11.8zM1588.7 981.8l-418 180.7c-38.5-12.7-76.3-27.7-115-40.3-13.8 2-10.6 7.3.2 9.3 39.3 14.1 78.1 29.4 117.7 42.4q104.9-44.5 209.3-89.6c73.6-30.9 146.5-63.2 220-94 3.5-4.8-11-5.8-14.2-8.5m296.9-211.1a212 212 0 0 0 52.5 11.3c-3 20.2-2 40.8-4.3 61q-1.5 40.5-3.8 81c.3 18.4-2.5 36.7-2 55.1-2.7 21-1.8 42.5-4 63.6 3 15.5-11.9 40.1 19.6 36.5.2-17.3 3.4-34.4 2.4-51.8 1.3-26.3 3.5-52.5 4-78.8 2.4-15.7 1.6-31.5 2.6-47.3 2-17.6 1-35.5 3.4-53a264 264 0 0 1 1.9-38.5l.7-32.8c-17.4-7.2-36-10.8-54.5-14.5zm569.8 1025c-3.6-24.2-21.5-46.6-46.4-50.5a75 75 0 0 0-32.6 5.8 55 55 0 0 0-26.9 37.6 62.6 62.6 0 0 1 52 68.2c9.7 3 7.7-12.9 16-3.7 24.2-8.6 34.7-33.7 37.9-57.4m-421.8-165c-2.6-26.1-31-38.7-52.8-45.5-22-7.8-45.3-11.2-68.6-10.9a127 127 0 0 0-54.3 14.1c.2 6 11.3 5.8 16 9 17.5 6 34.2 16 53.2 15.2 12.4 11 28.1 17 44.3 22.8 17.8 2.7 40.5 23.8 55.6 12.5 4.3-4.7 5.2-11.2 6.6-17.1M746.8 1403c43.2 21.6 88.2 39.6 132 60 8.6 3.7 16.9 8.2 25.9 10.8 11.2-8.8 40.5-13.5 40.3-23.9l-153-68.2c-15.2 7-30.6 13.2-45.2 21.3m1770.1 252c-24-3.8-55.7 16.8-52.9 41.5 27 8.4 48.1 37.2 42.7 65.7 6.5 14.5 12.5-12 17.8-.2 25.5-9.7 42.5-40.3 35.4-66.8-7.3-10.6-8-25.6-22.5-32.4-5-4-17.1 8-9.1-3.8-5-7.4-20.3 12.6-11.4-4m-1327-11.5c10.3-5.7 34.2-14.5 33.8-22.5q-86.7-38.4-173.2-77.1c-8.7 6.5-34.1 11.5-30.7 20.8 52.2 25 105.1 48.4 157.4 73.1q6.4 3 12.7 5.7m948.7-250.7c-12 8.3-25 15.6-36.4 24.6 60 20.8 119.8 42.9 180.2 62.9l35.2-25c-9.6-4.2-20-9-27.2 1.2-3.6 1.8-13.2-5-11.2-10.1-6.2-15.2-36.6-14-51.6-23-19-6.1-38.1-15.4-57.5-18-4.2 11-23 4.2-22.7-1.4 8.3-3.4 1.3-9.9-5-9.9zm-646.3-583.1c-.5 24.9-4 50-1.6 74.8 2.7 6.6 5.8 12 12.8 6.3 19.8-8.6 40.4-15.3 59.7-24.9.4-13 2.3-26.5-1-39.4 6.5-3.1 2.5-11.4 3.6-17.2-.6-8.8 1.3-18-1.2-26.5-24.2 8.2-49.2 16-72.3 26.9m-770 645.2a41 41 0 0 0-39.6 35.8c.2 11.1-3.2 22.9 5.7 33 6.2 13.7 25 21.9 33 20 8.2 10.5 22.3-4 31.8-5.9 17.2-12.7 16-35.7 11.9-53a44.5 44.5 0 0 0-42.7-29.9M617.3 1431c-12.3 12.2-22.8 28.4-18.7 46.5 4.5 15.9 20 42 38.8 34.6 4.8 13 17-1.7 23.6.7 14.6-2.1 15.9-17.3 18.2-29.3 8.8-12.1 6.8-26.7-2-38.6-2.1-10.8-22.3-1.2-11.4-11.6a42 42 0 0 0-37-6.6c-4.7 1-5.4 5.8-11.5 4.3m867.5-548.2a568 568 0 0 0 2.9-65.5c2.7-12.6-10.4-11.5-18.4-14l-59.8-14.6c-7.2 5.3-1.7 17.3-1.7 25.6 1 16.2-.7 32.6 1.6 48.6 24.9 7.4 49.8 15.1 75.4 19.9M2502.2 1354l22.9-36.4a719 719 0 0 0-75.9-22.7c-14.8 22.8-28.8 46.1-43 69.3-3 9.3 12.4 8.4 19 12 11.5 2.8 22.5 8.9 34.3 9.2 10.7-9.6 14.2-30.4 26.8-34.8zm-34.8 454.1c20-9.8 31.6-30.1 34.9-51.1 3-19.5-10.6-39.3-26.4-49.8l-16.4-6.6c-5.3 12-7.3-6-17.7 1.3-18.3 3-35.5 19.1-38 37a64 64 0 0 1 55.4 52.4c2.7 8.2-4.6 19 3.6 14zM1433 1861.3c4.3 10.4-1 43.5 16.7 32.8 5.6-7 10.9-14.5 19.3-18.4 31.4-23 78.6-4.2 90.9 31 1.3 15.6 10.2 19.8 22.9 10.4-.6-11.7 6.2-30.8-5.2-37.6l-104.6-49c-3.9 4.7-12.7 7-12.8 13.5-.5 10.7 1.2 22.1-1 32.4-6.3-3.2-2-15.3-3.2-22.4-.1-14.5.1-29-.4-43.4-7-3.2-16.4-10-4.7 17.1a388 388 0 0 1 .6 55.3c-6.3-6.2-2.5-17.2-3.7-25.6 0-14.9.1-29.8-2.3-44.6-.4-16.2 15.2-4 23-1.2 39.8 19.2 79.9 38.1 119 58.7 1 15-.1 30.2.9 45.2 6 .4 2.2-12.5 3.3-18.1-.6-10.5 1.5-21.5-1-31.7-5.5-7.3-15.8-8.7-23.3-13.2-39.3-18.1-78-37.4-117-56-11.5-3.2-4.7 14.8-6.5 22.2-.2 19.8.6 39.7-.6 59.5-6.4 3.8-2.7-13.2-3.8-18.6-.7-5.4-4.4 1-6.5 1.7m40.2-366.5 132.4-74c-10.2-11.1-35.5-16-52-22.7l-93.3 53.2c.2 5.8 23.2 3.3 10.7 12.4a82 82 0 0 0 2.2 31m-1155-284c16.8 10.8 36.2 17.1 54.3 25.7q30.4 13.4 60.7 27.1c19.2 3.2 37.7-9.9 55.5-16.6a2472 2472 0 0 0-132.8-58.7c-13.3 4.3-32.9 8-37.8 22.5M2278 1245c-15.9 22.7-29.8 46.7-44.7 70 18.1 5.8 40 16.7 57.5 16.3 7.8-11.5 12.3-25.3 22.5-34.8 9 4.2 18.1 4.1 21.6-7.1 4.9-10.2 23.3-25.8 2.1-27.7-19.3-6.6-39.2-11.5-59-16.7m-2009.1 49c18.7-.8 27.7-23.6 25-40-.7-26.2-30-47.7-55-36.1-22.7 9.8-32.7 41.5-16 61a39 39 0 0 0 32 18.7c5 .8 11.7 1.8 14-3.7m266 145.8c1.3 19.6 15.1 43.4 35.3 45.5 5.2-2.6 9.8 5.6 16.7 2.5 14.3-3.5 3-22.9 8.9-32.8-.3-17 30.8-24 18.6-38.6-10.9-18.4-34.4-23.4-53.4-15.7-14.7 7.4-23.4 23.3-26.1 39m200.8-108.3c-9.6 5.4-30.9 11.4-9.5 17 22.1 9.6 44 19.8 66.2 29.1 10-5.9 21.8-8.5 31-15.6l-188.6-80c-11.9 5-38 13.2-15.2 19q40.5 17.7 80.8 36c11.6 7.5 23-8.8 35.3-5.5M2186 1217.5l-71.7-20.7c-14.2 19.5-25.7 41.2-38.8 61.6-6 13.8 23.3 11.3 32.4 17.8 10.7 6.4 19.7 4.4 23.7-7.2q7.6-12.2 15-24.6c10.2 4.9 21.6 7.4 25.7-5.4q6.7-10.8 13.7-21.5M708 1420.7c38.3 18.5 77.4 35.2 115.6 53.8 13.5 5.8 26.9 13.6 40.8 17 11-5.6 23.1-8.9 33-16.2q-75.1-34.2-150.5-67.8c-11.7-3.4-21.8 5.7-32.4 9.4q-3.3 1.8-6.5 3.8m1855-1c16-23.5 28.9-49 43.4-73.5 2.6-10.2-16.2-9-24-13-12.8-3.4-25.2-7.8-38-10.4-7 12.3-15.2 24-21.2 36.7 12.3 1.4 26.2 9.4 12.4 21.3-3.4 8.9-22.2 26.3-4.5 28.7zM2320.6 891c23.1-43 72.4-66.2 118.3-75.8 7.4-1.7 24.6-5.6 5.6-5.1-49-6.8-96.6 14.6-139.6 36.9-20.5 10.9-42.5 21.6-57 40.2 6.7 6.9 26 .2 38 1.8zM1449 610c-19.6 4-38.4 11.7-57.6 17.2-31 10-62 19.4-92.8 29.8 17.7 6.5 36.8 8.6 55 13.7 125.7 29.2 251.3 58.8 377.2 87.4 8.3 4.5 38.5 4.1 30.5 13.2q-80.7 32-161.8 63.1c-7.1 8.2-29.8-9.7-29.9 1 9 1.7 18.3 5 27.3 5.7 62.7-24 125.8-47 188.4-71.5-2.7-6.1-26.3-7.7-37.8-11.7l-422.3-100.4c-8.2-4.9 8.6-5.8 12.7-8.1 32.2-10 64-20.8 96.2-31.1zm-773.8 824.8c9.3 5.7 10.6 30.7 18.6 27.8 27.6-28.6 75.6-2.5 78.8 32.8 2.6 7 12.3 7.3 18.2 11.3l20.1 9.2c12.9-7.1 42.3-14.8 43.5-23.4-47.8-22.5-96-44.4-144-66.5-7.6-6.5-15 0-22.5 3zm1974 25c-11.5-5.8-24.8-8.3-37-12.8-12.6-3.5-24.8-9.5-37.9-10.9a684 684 0 0 0-35 45.2c13.5 8.7 33.4 12.2 49.6 18.2 14.6 5 31.1 12.9 37.1-7.2 7.8-10.7 15.8-21.4 23.2-32.5m78.2-355.3c-37.3-26-79.6-43.2-120-63.5-66.3-28.6-134.1-55.5-205.6-67.7-49.4-9.5-99.2-18.1-149.3-23.4-20.5 2.5-44.2-9-62.6 3.7 26 1.2 52 2.7 77.8 6.5 50.2 4.8 99.5 15.3 148.7 25.9 61.7 14.3 121.1 36.2 180.5 57.8a768 768 0 0 1 127.4 65.9c5.3 4.9 2.4-3 3.1-5.2m-358.8 167.9c-4 12.3-29.6 29.2-15.9 38.6 23.4 2.7-3.1 22.6-6.3 34.7-1.7 11.2 23.8 10.4 33.4 16.2 13.8-.5 18-25 27.3-35.7 4.3-12.7 22.4-28 17-39-18.5-4.6-36.7-12.5-55.5-14.8m-329-96c-14.2 21.3-29.7 42-42.4 64.3a406 406 0 0 0 53.7 16.5c11-10.8 18-25.3 27.2-37.8 5.5-9.4 13.4-17.6 17-28-18.3-5.3-36.8-12.7-55.5-15m-1842 36.5c-1.3-5.7 14-14.2-3-14.5-23-5.5-47.3 12-49 35.7 1.1 17 16.8 40.7 34.4 40 5-1.4 9 7.1 15.7 1.8 4.8-5.5 10.8-1.2 16.2-7.3-7-17.4 6-34.8 9.4-48.8-3.8-12-16-19.2-23.6-7zM2468.1 1401l-73.4-22.8c-12.4 14.8-25.5 29-37 44.7 23.8 8.6 47.7 17 72.1 23.6 6.3-.3 9.3-9.7 14.2-13.9 7.9-10.6 18.1-19.9 24-31.6M447.6 1269q50.1 24.8 102.1 45.8c15-7 30.6-12.7 45.3-20-16.2-9.3-34.2-15.7-51-23.7l-42.8-19.3c-12.5-3.4-23.7 5.6-35.4 9.1-6 2.8-12.8 4.3-18.2 8.1m205.3 93c14.3-6.5 39.4-12.6 46.1-21.6-30-14.3-60.9-27-91-41-18-2.7-36.8 10.2-52.7 18.8zm1550.4-139.3c-8.5 11.4-23.8 33-13.8 40.2-8.8-.7-.3 14-10.5 17.6-2 4.6-13.2 12.1-7.4 14.8 11.6-3.4 14.5-22 23.4-30.6 7-.8-6.2 15.7-9.2 21.5-13 13.1 5.8 17.6 17 20 10.2 6.4 17.3 1.6 21-8.3 11.7-19.7 24.8-38.6 35.8-58.7zm509.3 23.9q52.3-34.3 102.6-71.2c16.2-10.2 30.6-23 40.2-39.7 4.5-6.3 21.8-31.6 4.4-17.1-24.7 16.4-49.4 33-75.5 47-16.6 10.6-40.9 13.2-49 33.7-7.3 15.9-18.6 30.1-22.7 47.3M1415 1436.8c16.1 3.8 34 20.3 49.8 7.4 27.4-16.4 56.2-30.7 83.5-47.5 2.6-7.8 8.3-33.7-1-32.1-43.3 22.3-85.6 46.6-128.7 69.3-1.4.7-2.9 1.3-3.6 3m-169.9-457.7c-44.8-14.8-90.4-27.5-135.4-41.9q-67.2-20.6-134.5-41.6l-14-3.1c-6.3 14.3 11 15 20.4 18.6 85 26 169.6 53 254.4 79.2 8.4 4.9 10.7-4.9 9.1-11.2m-294 558.8c-28.7-14.9-58.5-27.7-88-41-14.8 6.6-34.8 12.3-44.7 22.3 29 14.3 58 28.6 87.8 40.8 15.6-5.8 30.9-13 44.9-22M257.3 1188c24 2.7 47-11.2 70.9-6 16.8-2 31.4-12.6 48.2-15.8 12.7-3.8 11.2-7.3-.4-5.9-18.8.4-37.7.1-56-4.8-30-6-62-3.3-89.8 9-12.8 9.2-31 15.6-39 28.4 21 13.5 33.4-10.2 49.3-20.7 5.5-5.2 19.6-17.8 10.1-2.9-5.6 8.5-2.4 16.2 6.7 18.7m2459.4 173c10.1 5.9 12.7-8.2 17-14.3l23-42c13.6-3.6 19-40 2-20.1-17.6 13.8-34.7 28.4-52.7 41.7-19.4-.8-44.6-22.8-60-9.5-2.7 7.8-18.3 21-3.4 23.3a643 643 0 0 0 68.4 19.3c8.6-9 13-21.4 19.6-32 5.2-6.1 8.4-22.8 16.5-21.2-9.9 18.4-21 36.2-30.4 54.9m-655.5-88.4c-13 12.3-24.7 26-37 39.1 12 8.9 32 12.5 47.4 18.2 17 9 32.4 5 42-12 4.1-8 28.6-23.2 11.2-25.4zm456.2 203.5q19.4-21.9 35.8-46.2c-9.8-6.3-22.2-8-33.1-12.1-10.1-3-20-7-30.4-9.1-10 15.2-33.2 31.9-34.2 46.9zm-1476.2 16.7-86.4-38.1c-15.4 6.5-31.3 12.4-45.1 21.9 27.8 13 55.9 26 84.3 37.8 7.2 3.3 13.4-4.4 20.1-6.5l25-12.5zm520-713.9c-26-7.1-52.6-14.5-78.8-19.8l-69.3 26.1c22.2 7.1 45.4 11.4 68 17.3 18.5 3.1 35-7.5 52.3-12.7 9.3-3.5 18.8-6.5 27.8-10.9m-902 585c24.5 13.3 50.6 23.5 76 34.8 12 3.2 22.1-6.3 33-10.2 4.2-3 22-7.2 13.8-11l-74.8-33.3zm717.2 118.4q38 15.6 76.6 29.2c7.4-7.6-1.5-21.7.9-31.9 1.2-7.4-1-12.4-8.9-13.6a703 703 0 0 0-69-25c.4 13.7 0 27.7.4 41.3m1007.1-671c-22-4.6-43 6.6-63.8 12-68 30.3-149.4 66.7-176.8 142 13.4-2.8 18.2-29.3 30.5-39.7 13.2-15.2 28.1-33.3 50-33.5 17.6 5.1 23.7-13 36-21a400 400 0 0 1 124.1-59.7M173.3 1192.9c-8.2-10.3-19.8-18.7-33.7-16.8-25.2-3.4-48 28-35.6 50.7 5.3 11.1 18 26.2 31 22.8 11 11 9.3-4 6.6-12.8-2-20.2 15.1-35.8 31.7-44m298 155.1c9.5-5.2 33.4-9.6 32.7-17.5q-47.4-21.6-94.9-43.5c-15.8.3-31.3 9.2-45.6 16 18.2 10 41 6.5 58.7 18.2zm40-125.2c13.5 12.8 38.3 17.6 56.3 27 81.5 34.2 162.6 69 244 103.2 120.7 51.4 241.7 102.1 362.3 153.8 17.4 3-.3-5.6-6.2-7.3-107-45.1-213.9-90.8-321-136-110.6-46.8-221-94.1-331.8-140.6l-1.7-.2zm-186.1-81.2c15 0 27.8 13 43.2 14 11 .3 26.7 4.4 30.5-9.3 4-6 6.8-13.3 11.4-18.6 1.6 9-27.3 44.5 3.6 24.5 10.5-4 36.4-20.8 14.3-23.5-34.8-14-72-2.8-105.7 7.6a59 59 0 0 0-27 13.9c21-1 41.4 6.5 62.4 7.3-10.6-6-22.2-9.7-32.7-15.9m2011.3 274.8q19.5-20.2 36.2-42.6c-1.4-6-11.7-5-17-8l-48.8-15.5c-3.9 6-16.3 12-11.4 18.3 18.4 1 .1 25 7.9 36.9zm-1823.6-81.6c-9.4 5-34.1 11-33 17.5 17.2 7.8 36.8 10.2 52.5 21.1 7.1 8.1 14.2 15.6 25 18.3 13.6 5.7 29-2.9 42-7.5 15.8-4-1.5-9.6-8.1-13.2-26-12.2-52.4-23.9-78.4-36.2M870 1493.2c2 6.3 12 7 17.6 10.7 23.2 10.1 45.8 21.7 69 31.6 10.3-4.7 30.1-11 32.3-18.6a1336 1336 0 0 0-86.3-38.7zm1172-226.4c-18-6.4-35.8-13.3-54.5-17-10.3 12.4-34 28.4-33.2 40.8 19.2 2.5 44.8 26.5 59 6.8a359 359 0 0 0 28.7-30.6m-792.5-274c22.7-6 45-17.3 67.6-25.3l168.3-66.4c8.8-16-15.9-3.4-24.3-.5l-204.4 76.3c-7.2 1-8.6 10.4-7.2 16m473.6-338.4c.1 11.9 15.3 9.5 23.5 12.8 56.6 13.2 113.4 25.4 170 38.3q58.2 12.6 116 26c17-3.9 10-8.7-1.8-9.6l-293-65.6c-4.8-1-9.7-2.6-14.8-1.9m-179.9 695.3c-55.2 27.7-109.9 56.5-165 84.5.6 5.7 11.4 5.3 16.3 8.4l59 21.4c5.7-2.9 14.7-6.3 3.2-7-10.5-2.6-19.7-8.8-30.2-11.7-7-3-15-4.7-21.4-8.7 3.8-5 12.5-7.6 18.2-11.5l120-63c6.3-3-5.2-10.9 8-7.2 3.9-3.8-6.3-3.7-8-5.2m-927.4 27.6 28.3-11.8c-7.2-11.6-29.6-14.6-43-22.7-17.8-7.6-35-17-53.4-23-9.6 5-41.1 11.6-17.5 18.6a1569 1569 0 0 0 85.6 38.9m1805.5 111.3c22 2.8 42.7 14 64.2 20q48.2 16.9 96.6 33.1c7 5 4.8 8.1 13 4.9 13 4.9 27.2 8 39.5 14.1-1 6-9.6 9.1-13.8 14-25 19.8-48.6 41.6-73.5 61.6-8.6 4.2-27.1 26.2-5 11.8 30.8-26.4 61.5-53 92.8-78.8l10.2-10.3c-50.3-19.3-101.8-36-152.6-53.8-64.7-22-128.9-45.4-193.9-66 5.7 12.6 26.4 12.8 38.6 18.2 26 9.1 52.4 17.4 78.1 27.2l3 1.7zM511.5 1329.9c8.3-3.4 31.8-8.7 27.3-15.2q-46.1-20.1-91.9-41c-9.3-3.6-34.1 6-32.6 11.2 32.5 14.8 64.5 30.7 97.2 45m2250.6-20.7c-11.3 19.3-20.5 39.9-31.7 59.2-10.3 1.4-12 14.6-17.4 22-11.8 22.2-22.8 44.8-35.3 66.6-13.2 5-18.5 19.6-27.2 29.7-7.5 11.7 6.4.7 10.3-3.2 12-10 24-19.6 35.2-30.2a34 34 0 0 0 18.5-22.3c15.2-35.7 31.7-70.8 45.6-107zm158.1-280c-42.4 34.4-85.4 69-135 92.3-7 6.1-18.9 31.3-1.4 18.2a765 765 0 0 0 107-65.6c13.4-11.8 23.9-28 29.4-44.8m-2184.5 374L653 1366c-9.7 4.4-20.1 7.7-29.3 12.8 11 11.6 36 18.6 52.7 27.5 11.7 3.1 24.1 16.1 35.9 7.5zm-236-156.2 101.2 45.1c9-3.5 38.9-11.7 15.9-17.6l-89.5-38zm2087.6-33c-12-7.5-27.4-8.4-40.8-13.2-98.9-27-197.3-55.5-296.2-82.4-12.3 6.5 15.7 10.2 20.9 12.2 23 5.3 44 9.2 65.3 18.5 22.8 5 44.6 16 68.2 15.2 14 11.8 33.8 11.8 50.4 18.4 17.4 5.7 34.6 4.7 50.3 14.2 27.2 6 53.5 19 81.8 17.1M696.7 1419.7l-81.3-37.6-27 11c21-.6 26.8 30.6 43.7 28.2 24.2-9.4 43.8 28.6 64.6-1.6m216 143.4c16.3 7 33.6 20 50.4 21.1 13.1-7 27.6-12.7 39.3-21.5-11.5-9.5-28.4-13.7-42-21.1-16 .6-32.7 14.1-47.7 21.5M2115 1342.8c10.5.8 36.6 20.4 39 5.5 1.5-5.4-1.4-14 3-17.4 11.5-10.4 25.1 5.6 36.9 1.4 9-5.4 15.7-16.6.3-17.7-14.6-3.6-31.9-14.4-45.6-9.7-11.4 12.4-22 25.6-33.6 37.9m775-261.4c-39.8 19.3-75.5 50-117.3 67.3-8.5 7.5-18 17.8-21.2 28.6A578 578 0 0 0 2863 1112a96 96 0 0 0 27-30.6m-1796 435.1c-18.1-4.6-36.6-25.1-55-17-8.5 6-35.2 11.9-31 20.6 16 4.4 31.8 21.6 48.2 16.1zm694.7-743.7c-46.3 16.4-91.8 34.8-138 51.7-17.8 7.3-36.5 12.7-54 21-4.2 15.5 12.5 4.8 20 2.6 56.3-21.2 112.4-43.2 168.5-64.7 4.7-1.6 5.9-6.5 3.5-10.6m264 392.9c18.2 6.5 36.7 13 56 15.6 5.4-8.8 12.7-17 15.8-27-18.8-2.9-41.7-18-58-12.5q-7.3 11.7-13.9 23.9m-442 249c3.5-18 3.4-39.5-19.8-40.5-13-3-41-23-34.8 3.5-10 21.4 19.4 21.6 32 29.1 7.5 2.8 15 5.8 22.6 7.8M1676 663c-54.4-12.1-108.7-24.4-163.3-35.7-10.7 2.2 0 16 10 12.9l152 33c5 .1 2.9-8 1.3-10.2m854.3 612.3c-18.2-5.3-41.4-18.6-58.1-13.4-6.1 9.7-22.3 26.2-1.8 27.7 18.3 3 45.6 23.4 53.2-4q3-5.3 6.7-10.3m-335-100.4c-18.6-.7-42.5-21.9-57.3-8.8-6 9.1-21.8 23.4-1.5 24.9 15.7 1.2 40 21.7 48.5 2q5.5-8.8 10.2-18.1M445.5 1363.6c12.6 16.7 34.9 24.1 54.8 29.4 10 3.5 39.6 6.7 37.4-5.8-23.4-11.7-47.4-22.1-71.3-32.5zm1862-155.1c-7.8 7.2-12.3 17.7-18.8 26.3 12.6 6.3 27 8.5 40.3 13 8.3 4.5 15.3.5 18.3-7.8 1.8-5.6 14.2-15.8 5.7-18.1zm-906.4-411.6-207.4-54c-10 13.5 22.3 11.8 30.2 16.5 59 14.5 118 30 177.2 44zm-403.6 723.5c-10 5.9-28.5 11.3-32.9 18 17.1 6 35.6 26.4 53.9 17.2 6-4.7 35.8-12.9 18.4-18-13-5.8-25.9-12.3-39.4-17.2m1283.9-104.6a1502 1502 0 0 0-110.8-36.2c-6.2 14.4 9.4 16.3 20.1 19.8 29.2 9.9 58.3 20.6 87.5 29.9 6-.4 2.9-9.8 3.2-13.5m-1955-230.5c-15.9-3-38.5-2.4-38.3 18.5-5.9 11.2-1.8-6.5-.4-11 3.7-8.3-9.6-1.3-14.1-2-13.3 1.2-26.1-2.8-29.2 14.3-4.6 11.5 24.3.6 31.6 12.1 7 6.8 16 10.9 19.5-2.4 5.1-13.6 19.5-21.4 30.9-29.5m1284.5 237.1c-47.9 25.5-94.5 53.1-142.3 78.8-1.9-9.2-1.3-23.4-2.8-34.8-11.8-6.6-7 25-6.5 34-2.4 15.7 7.6 12.1 15.9 5.7q69.1-39 138.1-78.6zM794.3 864c-13.2 0-26.4.3-39.5-1.8-20.9-.4-41.8.4-62.6-.7-9.6-4.9-40-.3-22.6 10.2 19-.3 38 1 57 2.2 19.4-1.2 38.3 3 57.6 2 8.2 1.8 13.7-3.8 10.1-11.9m120.5 38.3c-37-12.7-74.5-23.7-111.8-35.4-10.3 5.9 2 15.3 10.4 15.7 34 10.6 67.6 22.2 101.7 32.2q1.4-6.3-.3-12.5m692.1 993 .1 23.4c17 .2 25.2 22.1 38.9 23.1 6.8-6.8 36.3-17.7 14-23.4-17.6-7.3-35-17.8-53-23.1m605.4-555c19.2 8.2 39.6 13.4 59.3 20.4 9 3.3 14-8.5 18.8-14.3-10.1-6.5-24.7-8.6-36.7-13.4-12.7-2-29.3-15.7-37.3.6a40 40 0 0 0-4 6.8m-1874.6-26c11.1 6.8 31 7.8 45 14 8.2 7.6 19.9-1.6 23 8.2l35.3 24.4c8.4-2.2 27.2-9.5 9.5-14.2-26.4-11.4-52-25.2-79.2-34.5-11.2.3-23-1.6-33.6 2.2m2077.1-73.5c-4.3 8.3-23.5 28.5-6 30.4l29.1 8.8c6-11 27-30.1 3.9-31.8q-13.4-4.4-27-7.4m-383.7-72.4c24.2 6.6 47.9 15.4 72.4 20.6 47.8 15.6 96.3 28.8 144.6 42.9 28.7 8.1 57.3 17.2 86.1 25 6-5-19.2-7.7-25.2-11.3-34.6-9-68.5-20.7-103.3-29.5-56.6-18.4-114.2-34-171.1-51.3-2.8-.9-2.5 2.2-3.5 3.6m561.7 124.7c-5.6 7.9-16.2 18.7-15 27.9q17.6 5.8 35.5 10.6c12-15 21.4-33.7-5-34.3q-7.7-2.3-15.5-4.2m-436.1 101.3c5.6-2.2 2.4-12.7 4-18.5 1-11.2.6-22.5 4.3-33.3 28.4 6.7 55.2 18.8 83.3 26.6 12.2 6.8 36.5 4.7 40.6 18.4q-2 24.5-4.2 48.8c5.8 8.5 5.4-9 6-13.6.2-14.5 5.5-29.1 1.8-43.4-43.9-14.6-87.4-30.2-131.5-44.2-5 16-2.9 36-5 53.5zM1601 1856.8c-46.3-22.6-93.1-44-139.4-66.7-13.6-9.7-19.2 4.4-3.4 6.3 43.6 20.5 87 41.9 130.5 62.7 4.1 1.7 9 .5 12.3-2.3m685-653.1c-16.6-9.8-40.3-17.2-47.9 6.3-12.7 15.5 18.8 14.5 29 19.3 6.4-1.4 8.2-10.9 12.5-15.7zM659.4 861.4A1292 1292 0 0 0 551.7 896c7.5 1.4 15 8 22.6 3.7l82.4-26.6c2.9-3.2 3.6-7.7 2.7-11.8m729.7 396c-13.7 6.6-44.2 15.9-46.5 25.5 13.9 2.9 36.1 19.7 45.3 11.8 2.6-12.2 2.5-25 1.2-37.3m356.4 610.2c-2-5-13.2-7.2-19.2-10.8-62-29.2-124.4-57.1-186.4-86-26.7-12-53.2-24.6-80-36.4-6.7 4.5 12.6 9.2 17.6 12.4 88.5 39.8 176.7 80.2 265 120.1zm867.7-525c-15.5 25.6-29.8 51.8-44.7 77.7 10 9.7 15.5-3.7 19.6-11 12-20.8 24.6-41 35.5-62.2-2.6-3.1-6.8-3.6-10.4-4.4M1071 742.6c17.5 3.6 36 3.3 53.9 3.4 18.7 4.1 38.2-.3 57 3.9 15.2-11.5-13.3-10.2-22-10.2-28-2-56-4.6-84-3.6-7-2.5-4.4 3.4-5 6.4m262-88c18.4 8.7 36.7-4.5 54.5-8.3 21.3-7.5 43.2-13.4 64.1-22 1.6-17.6-22.5 2.7-32.1 2.1q-43.3 14-86.4 28.2m1066 713.1c15-23.7 30.2-47.4 44-71.7-12.4-15.8-21.9 17.3-29.6 26.4-5.1 13.5-23.2 32-19.8 43.4zm-1970.3 4a119 119 0 0 0 56 44.5c-1.7-11.2 2.7-27-12.4-28.8-5.4-1.2-2.7 20.2-6.8 4.9 1.8-9.1-17-24.1-15.5-10.4-.5 18.8-3.2-8.2-6.5-12.9-4.7-5.7-10.3-.7-14.8 2.7m1855 31.6c-24-9.5-49.3-15.6-73.6-24.2-12.3-.8-30.8-16.6-39.4-6.3 5 6.2 15.8 6.5 23.5 9.9 28.3 8.6 56.1 19 84.6 27 5.2 2 3.7-3.8 4.9-6.4M1454 611c20.2 2.9 40.7 2.4 61 2.7 9.6-2 25.7 3.7 8 8.6-3 5.4 12.5 5.1 18.4 7.6q63.3 14.4 127 27.9c9.5-3.1-9.1-5-14-6.3-37.6-7.9-75.4-15.5-112.6-24.9-11.3-5 31.4-12.5 9-14.3-16.5 0-33 0-49.3-2.1-15 .7-30.5-1.2-45-1.2zm613.9 652.5 39.2-64.7c.3-8.3-11-5.8-12.2 1.8-12.3 19.2-25.7 37.9-37.3 57.3-.8 3.8 7.8 3.8 10.3 5.6M399.4 1339c-18.5-6.9-39.3-18.5-58.7-15-7.3 17.8 26.9 18 25.2 9a14 14 0 0 0 12 12.2c7.2 2.6 13.9 6.6 21.5 8 .8-4.7.2-9.5 0-14.2m1627-165.9-45.3 63.5c14.6 8.5 19.2-9.9 26.6-19.3 6.8-14.7 25.9-29.6 25-44.4-2-1-4.4-.4-6.3.2M226.7 1219c13-7.4 26.4-27.4 17-40.3-5.4-6.8-17.9 10.7-25.5 16-11 6.3 2 13.5 5.3 20.2zm2001.2 95.2c16-22.3 30.3-45.7 44.8-69-2.8-6.7-12.5-3.8-13.9 3.7a2977 2977 0 0 0-38.2 62zm-326.2 803c-43-21.2-86.3-41.5-129.6-62-21.2-6.5 3.8 8.8 11.7 11.2 38.2 17.5 75.3 37.4 114 53.5zm295.8-760.8-10.6 10.4c12.8 6.4 27.4 9 41 14 12 9.2 28.2-11.9 7.1-12q-18.7-6.3-37.5-12.4M912.8 1226.7l-25.3-10c-8.4 18.5 14.8 40.7 28.3 32q.8-11.4-3-22m119.7 511.5c10.8 6.8 37.3 29.7 32 2 1.9-10.2 13.7-31.7-5.1-18.3a206 206 0 0 0-27 16.3M2473.3 1403c-11.8 15-25 29-35.8 44.6 17.5 12.5 28-22.4 41.3-31.6 11.1-11.8 3.7-9-5.5-13m137.8-67.5c-24.5-8-49.5-14.9-74.2-22.5-28.5-7.6-56.2-18-85-24-16.9-7.2-35-10.8-52.3-16.3-1.4 6.3 24.1 8.7 32.6 13q88.6 26 177.3 51.4c.8.9 1.6-2.5 1.6-1.6M587.1 1098c-10 19 14 39 26.4 32.2 5.7-22.2-7.3-27.7-26.4-32.2m1383.1 145.4a455 455 0 0 0-35.8 38.5c8 11.8 16.3 1.8 22-5.5 8-9.4 17.5-17.9 24.7-27.9-.6-3.6-8-3.3-10.9-5.1m-1409.6-211c-10.8-3.8-32.7-15.3-24.8 5.9-3 13.4 23 22.4 28 17 .5-7.8-.3-15.6-3.2-22.9m-14.4 74.6c10.8 5.4 26.1 10.6 21.7-7.9 4-13.5-24-22-27.6-16.4-.8 8.5-.7 18 5.9 24.4m12.6-104.5c1.6-11 2.2-28-12-29.5-5.8-.4-17.9-11.5-16.5 0-2.2 16 7.8 26 23 28.1l2.7.8zm347.4 106.8c-10.3-4.6-32.4-15.9-24.4 4.8-3.8 14.6 34 30.9 28 8.7q-.7-7-3.6-13.5m-19.3 72.5c6.1 6.2 31.3 19.6 25.8 1.6-2.2-13.6 2-32-27.5-24.8-2.5 7.7 0 15.6 1.7 23.2M577.5 986.5c-8 18.4 13 37.5 28.2 32-.8-10.4 1.5-25.7-12-27a59 59 0 0 0-16.2-5m1981.7 443.7c-10.8 15.2-31 33.5-33.7 48.3 17.8 4 25.6-25.2 38.2-35.7 8.6-10 5.1-9.3-4.6-12.6m-181.4-55.5c-11.3 13.3-23.1 26.4-34 40.1 5.2 16 20.1-4 25.5-12 4-8.7 34.7-30 8.5-28M609 1078c8-19.9-13.7-39-28.1-32.6-2.8 20.7 9.9 27.5 28.1 32.6m1087.6 1019c-2 12.8.8 37.8 17.8 31.6 11.9-9.5 4.4-48.4-17.8-31.6m-88-22c2.2-15 .5-35.8-19.4-28.1-8.4 7.8-1.2 39 15.5 31.8zM530 939c11.7 4.7 30.7 13.5 22.2-7.3 3.4-13.3-24.7-19.3-28-15-.4 7.7.3 16.2 5.8 22.2m42.8 14c9.5 7 34 18.2 26.1-3.8 1.2-12.8-22.4-18.7-28.3-15.5-1.2 6.5 1.6 12.8 2.2 19.2m333.8 122.3c9-18.9-14.6-36-28-29.7-3.4 19.7 11.2 26.5 28 29.7M2710 1370.4c-7.1 6.9-10.2 17.2-15.6 25.5l-30.2 54.5c8.7 7 12.2-8 16-13.7l33.4-62.4zM2129.7 2097c-6.4 11.7-5 43 14.3 29.4 2.3-7.8 11.9-31.6-3.4-28.8zm-695-200.3c2.5 15.2-29.2 31-8 37.8 8.3 5.1 21.1 13.8 15-2.3-8.2-10.8 10.9-28.3-2.8-33.5zm943.6-634.7c6.3-12 25.3-32 .9-32.3-8.1 5.4-31.3 30.4-7.3 30.6zM1514 2015.5c-1.5-13.4 7.3-39.4-20.6-26.5-1.5 10.4-1.8 34 14 30.4 2.9.6 4.4-2.6 6.6-3.9m760.5-35.7c.5 8.5-1 18 .8 25.9 4 6 15.7 6.2 17.2-2.1 8.2-14.5 2.7-30-15-24.9zM2138 1296.5a473 473 0 0 0-36.7 41.5c11.4 10.4 15.6-5 22.6-10.7 7-8.6 15.3-16.5 21.5-25.6 1.6-3.6-5.4-3.5-7.4-5.2m-749.5 646c-20.7-7.5-22.4 15.4-14.1 28.6 20.2 13.5 16-18 14-28.5m587.6-703.8c8.3 8.6 30.8 10.5 44.4 16.6 46.1 14.3 92 29.7 138.2 43.7 4.9-3.9-13.6-6.4-19.5-9-54.4-16.8-108.7-34.6-163.1-51.3M516.4 1401.5c.8 11.9-12 37.1 16.2 25.7 10.7-18 5.8-29.7-16.2-25.7M2047.8 1268a434 434 0 0 0-33.6 34c-9.7 13.5 12.4 9 15-1.1 4-10 34-25.7 20.4-32.3l-1-.4zM488.4 1415c5.8.1 28.7 2.2 10.8 5-19.5 1.8 17 12.6 11.5-5 2.5-9.7 4.2-20.7-10.7-17.1-13.9-8.2-13 1.7-11.8 12.2zm2012.3-24.2c11.2-10.6 12.8-23.5-6-22.3-10.3 11-21.3 29.9 2 30 4.3 2.7 2.7-5.6 4-7.7m-1215.8 530.3c16.8 20.6 26.7-25.9 8.7-25-17.5-4.2-10.4 15.6-8.7 25m1280.8-631.3c-10-10.2-35.1-7.1-31.2 16.5 11 9 21.1 8.8 23.6-4.8zm-1343.3 563.3c-6.6 1.5-20-4.6-18.2 6.5-5.7 13.5 13.3 34.9 19.6 15.3.3-7.2.4-14.8-1.4-21.8m1523-481.2c-7.2 10.6-10.9 24.2-16.7 36-4.6 12.5-26.3 49.7 7.3 15.8.6-17.5 9.3-31.7 9.8-49zm-422.3-28.2 13.8-23c-14.3-14-32.4 6-29.7 18.2 5 2.4 10.7 3.1 16 4.8m-115.5 727.6c8.8-7.2 10.7-26.1 5-32.2-6.8.4-13 1.6-13.3 9.6-1.2 7.2-9 15.9-1.4 21.6 2 2.3 6.8.4 9.7 1M1123 1841.6c19-1.4 12.4-44-8.2-28-.7 9.2-2.6 23.9 8.2 28M921.2 915c12.8-1 45.5-8.6 31.2-23.2-10.7 6.1-39.1 4.5-31.2 23.2m522.8 821.4c-10.6 3.9-19.3 12.2-29.2 17.9q-37.2 24.8-74.7 49.3c5.4 7.6 24-13.3 34-17.3 23.6-16.2 47.6-31.9 69.9-50m713.2-444.5 13.7-23.3c-13.3-15.6-28.8 6.7-28.7 17.5 4.4 3.3 10.1 3.7 15 5.8m383 29.2c-13-7.8-17.4 10.5-24 18.5-8.6 7.6-9.8 24.5 4 15.2a668 668 0 0 0 20-33.7m-199.4-14.8c7.3-11.6 17-22 22.4-34.4-6.1-9.5-13.8-1-16.7 6.2-4.6 8.3-11.9 15.6-13.5 25zm-462.2-513c18.2-6.8 45.8-25.7-29.4-19-3.1 13.9-12.8 31.5 29.4 19m-295 1084.8c-10.6-10-26-13.7-38.7-21-24.3-11.5-48.3-23.8-73-34.5-7.8-4-16.9 16-6.9 9.2 4.5-6.7 10-5.3 16-1.3 34.2 15.8 68.4 32.1 102.6 47.6m915.6-79.8c22.1 13.5 24.4-43 4.5-24-3.7 7.5-7.8 15.6-4.5 24m-334-466.4c27.2 11 55.8 19 83.5 28.7 15 4.5 29.6 10.5 44.6 14.1-.5-5.8-13.5-6.3-19.6-9.4a8955 8955 0 0 1-105.4-34.7c-1.2-.3-2.2.6-3.1 1.3M1025.9 758c11.7-3.9 24-6.6 35.2-11.2 14.4-13.3-11.6-6.8-19-3.2-6.8 3.4-31.8 6-25.3 12zm439-132.2c12.6-.3 25.3.8 38-.4 8-12.6-15.4-8.5-23.1-9.2-8.8-.8-39-.3-15 9.6m729.4 582.3 18 5.4c1.2-10.5 19.6-26.5.1-26.5l-3.7-.7zm-25.2 190.6c34.8 13.4 70.4 24.9 105.7 37 9.2-3.2-21.1-9.8-28.4-13.3-25.4-8.2-50.3-18.7-76-25.8-.6.4-1.3 1.2-1.3 2.1m462.7-91.6c-6.4 9-21 33.7-1 26.8 4.6-8.5 26.7-32.4 1-26.8m-463-55.7c6.2 3.6 12 6.1 14-2.8 4.7-9 11.2-17.3 14.4-26.9-9.8-5.9-13.2 7-17.8 13zm456.3 259.7a523 523 0 0 0 33.7-48.4c-7.4-6-10 8-15 11.5-4.8 11.4-25.8 27-20.8 36.3zm-1023 405.7c-1.1-18.8 3.5-37.3 1-56-14.3 8.6-3.4 31.7-6.4 46 .9 4.5-1.9 12 5.4 10m682.3-683c4.3-8.9 28.7-30.4 6-29-2.6 8.3-28.5 29.4-6 29M402.8 1355.1c7.8 9.1 27.2 21 20.2-.6-4.3-8.6-27-20.7-20.2.6M2389 1888.6c15.9 14.5 26.6-20.7 14.3-26.3-6 2.6-6.4 11.6-10 16.9zM724.1 1553.4c-3.4 11.5 11.2 33.3 17.7 14.4-.2-12.4-2.5-23.3-17.7-14.4m-329.4-390.7c-15.2 5.7-30.8 10.3-45.6 17-8.3 9 3.4 6.5 9.1 3.2l39.4-14c.7-2.7-.8-5-2.9-6.2m264 377.4c.5-11-3-26.4-17.6-17.2-.7 9.6 6.2 33.5 17.6 17.2m1058.5-887.2c-10.6 6-33.3 4.6-34.4 18.5 5 3.2 12.9-3 19-3.6 7.6-2.8 22.7-3.5 15.4-15zm736.3 630.3 15.7-25c-12.2-12.4-24.9 18.4-23.9 23.7a13 13 0 0 0 8.2 1.3M576.8 1493.7c-4.5 13 14.8 35.8 17 13.4 3.3-12.9-6.7-17-17-13.4m1547.8-432c3-19.4 5-42.9 11-63.3-.3-9.2 13.4-21.8 5.3-29-12.4 27.6-15.2 58.6-16.6 88.6zm69.5-114.9c8.4-11 18.9-20.5 28.2-30.1-17.8-.2-33 22.8-39.3 34q5.6-1.8 11-3.9m332.7 431c-3.9 6.1-25 24.8-9.5 25.9 3.8-11.8 24.9-28.4 15.3-37.2-10.4-3.7-4.8 6-5.8 11.3M863.5 1311c1.9 11.7-3.3 32.6 4.6 39.6 8.8-2.6 3-13.4 4-20-1.7-5.4 2.2-14.5-3.6-17.1zm-29.2-12c1.5 12.4-4.4 31.5 4.6 39 10.4-7.7.8-24.5 2-35.8 0-3.4-6.6-.7-6.6-3.2m-391.9-147c5.2-12.4-3-18.9-10.8-6.7-.8 9.1-15.6 3.8-14.8 13.2.8 8.7 20.7-6.1 25.6-6.5m1614.5-17.8c-5.6 7.6-9.4 16.9-16 23.3-14.4 7.3 17 8.8 14.5-5 2.2-5.8 14.3-17.2 1.5-18.3M799.4 1284.7c-.2 10-7.5 39.3 8 34.3-3-9.7 4-31-8-34.3m-126.2-53.3c-1 10.2-3.7 33.8 4.8 35.8 9-7.2-.7-24 .8-34.5l-3.8-1.7zM269 1303.8c-25.4-11.7-7.1 37.3 2.8 13.6.1-4.7-2.2-9-2.8-13.6m502.1-31.6c-8-3.9-3.7 11-4.8 16 .7 7-2 19 4.5 22 6.8-8.7 2.6-24.7 1-35.8zm1358.8-116.1-17.4 26.8c11.5 4.4 24.2 13.3 24.4-21.7 1.4-4.2-4.7-3.5-7-5.1M1379 1302.9c-11.1-7.9-25-10.8-37.3-16.5-5.8-7.8-18.5 2-7 3.7 14.1 5 29.2 13.7 44.3 12.8m-1083.3 12.5c2.8-7-4-38.3-7.7-19.8 2.5 8.8-4.3 15.4-4 2.4-10-6.8-4 17.4 7.4 15.6zm1327.8 66.4c-8.5.3-6.8 11.7-6.8 18.6v24.7c8-1.4 4.5-9.9 5.4-15.7.4-9.2 2.5-18.3 1.4-27.6M203.2 1297c4.1-12.2-11.5-22-16-11.6.3 8.7 6.6 24.7 16 11.6m532-40c-.4 10.9 1.6 22.1.8 33.3-.5 13.4 11.6 1 6.7-6.2-2.5-8.3 2.4-21-4-25.8zM1592 855.1c-1.2-10 2.2-24-21.3-15.6-10.6 12.7 13.4 12.9 21.3 15.6m1124.5 511.6c-18.1-7.5-37.6-11.5-56.3-17.4-9-2-18-6.2-27.1-6.8-1.2 3.2 11.6 4 16.2 6.3l65.3 18.8zm-487.8-148.9c3.2-7 25.6-31.2 9.6-27.8l-15.8 23.8c.9 2.9 3.5 3.7 6.2 4m-1585 .4c1 10.2-3.1 33.2 4.2 37.3 3.4-9.7 4.7-29.4-2.5-36.8l-1-.3zm-248.2 98.6c17.5 8.9 41.5 21.9 57 25-15.6-9.3-58-35.5-48.1-24.5zm-242.8-40.7c4.8-9.1-2.9-21.3-13.2-17.4.1 5.8-.7 19.8 9.7 18.8zm2144 64.4c-18.1-8-38.2-12.2-57-18.8-23-4.7 10.7 7.4 18.4 9.1 12.6 3 26.2 10.3 38.5 9.7zm160.6 476.6c-1.7 10-27.7 32.2-5.8 28 7.9-7.2 6.5-18.5 5.8-28m-117.1-468.6 17.5-30.4c-12.5-8.5-1.6 3.8-10.8 9.6q-6 8.6-11.7 17.3c-1 2.9 3 4 5 3.5m-133-11c6.1-5.7 20.5-16.4 4.9-17.3l-15 14.8c2.1 3.5 6.6 3 10 2.6m363.9-20.2c10.4-8 24.4-46.2 1.5-13.9l-7.1 13.9zM594.5 1234c1.9-11.4 3.4-27.5-3.3-36.8 0 9.3-5 35 3.3 36.8m26.4 9.1c2-8.7.3-18 .7-26.8-7.1-22.1-5.6 13.5-5 21 .8 3.6-1.2 9.9 4.3 5.8M2395 1267c4.5-8.9 10.5-17.3 14.1-26.5-7.5-1.4-20.4 20.4-20.2 25.1zm-170.4 51.4c-16.5-6.3-47.6-19.7-58-16.6 19.2 5.1 39 14.6 58 16.6M569.6 1187c-10.2-5.5-.4 19.3-3.4 25.7-2.9 15.3 9.6 7.5 5.6-3.1-1-7.5-2.3-15-2.1-22.6m1113.5-528.6c5.8 1.6 12.7-3.7 19-4.8 9.1-.8 18.8-11 3-5.9-6.4 3.9-18.7 4-22 10.7m588.9 723.4c-11.9-10.5-26.9 11.5-8 10l5.1-4.1zm-661.4-3.8c-10.7-8.5-37-16.8-53.6-21.8 6.3 5.1 15.6 6.5 23 10zm1148.9-98.9c-10.6-1.8-35.3 23.8-31.5 25.4zM557.3 1396.4c-11.4-13.2-18.7 5-13.4 12zm1783.7-40.7c12.1 5.8 29 12.9 41.9 11.4a366 366 0 0 0-40.8-12.3zm-1843.9 6.6a97 97 0 0 0 35.7 16.6c-8.8-10-23.7-12.3-35.7-16.6m1684.7-9.7c-2.1 4.2-14.1 11-4.1 12 7.4 2.6 22-14.8 4.1-12m115-5.7c-9.3 3.7-19.6 27.9-4.4 13.4 2.6-3.2 13.5-11.5 4.4-13.4m178.8 44.3c4.8-8.5 10.9-16.5 14.3-25.6-2.3-4.1-22 21.8-14.3 25.6m59.5-114.6c-4 7.7-21.9 22-12.1 28.4-.4-10 16.8-21.2 12-28.4m-143.2-4.3c-7.2-5.2-35.6-13.7-34.6-9.2 11.1 4.2 22.7 8.2 34.5 9.2m-2059.6-86.1c-4.1 4-13.4 4.8-13.7 11.1-1.4 7.5 9.2-3.1 13.3-3.7 7.2-3.1 12-6 1.2-7.2zm2008.5 758.1c14.5-1.4 8.5-45 5.1-17.6-1.4 6-3.6 11.7-5 17.6m-3.5-591.1c-10.8-5.2-22.8-8-34.4-10.9-1 4.8 11.1 4.7 15.6 7.4 6 1.2 13.3 6.4 18.8 3.5m-694 689.6c.4-10.2-.2-24.9-9.8-9.7-6.3 4.7 7.3 7 9.8 9.7M335.2 1336c7.8-12.7-13.6-25.7-5.3-2.5zm2186.3 34.5c-5.1 8-12.2 15-15.3 24 4.2 2.9 16.7-17.6 15.3-24M315.3 1203c-3.1-12.1-20.9 16.1-11 12.7zm213.4-182c-4.9 5.4 2.2 40.9 3 18.2-.6-6.1-2-12.2-3-18.2m348.9 106.7c2.6-5-4.1-39.7-4.3-24.1l1.6 21.1zm-309.5-4.6c.1-6.1-30.3-15.2-28.2-11zm1587.6 130.2c-2 7.6 10.8 7.2 15.8 10.8 11.8-4.8-13.5-7.8-15.8-10.8M612.7 1140c-7.2-4.7-26.9-14-28.7-10.4 9 4.8 19 7.8 28.8 10.4m1727.6 175.4c-5-6.8-29.7-10.4-12.3-1.8 3.4.1 10.5 6.6 12.3 1.8M579.9 1073c7 3.2 26.5 14.2 27.9 9-9.2-3.3-18-8.1-28-9m334.3 188c.5-6.4-30.6-14.8-27-11.1zm-30.3-71.7c8.2 6.1 18.8 9 28.7 11-9-5-19-8.2-28.7-11m1602 165.7c-5 4.2-20.8 27.6-13.7 23 5.5-7 9.3-15.3 13.7-23M575.4 1067.2c7.3-7.4-6-43-1.5-17.5.3 5.8-.1 11.8 1.5 17.5m1574.8 192c-7.3 4.6-19.9 30-5.3 11.9 2.6-3.4 6-7.3 5.2-12M530 999c6.2 5.3 40.3 15.5 20.2 6a73 73 0 0 0-20.2-6m51.5 126.2c2.7-8-3.6-41.4-3.2-18.5-.1 6.3.6 12.7 3.2 18.5M883 1243.6c2.1-7.2-.6-25.5-2.3-26.8-.7 9-1.6 18.4 2.3 26.8m-320.7-177c.7-5.2-37-15.9-23.5-8.9zM2167.2 1288c6.8-4.3 20-29.6 7.3-13-3 4-6 8.1-7.3 13M575.7 1017.7c10 3.5 19.7 8.5 30 10.8-7.9-6.8-19.7-9.3-30-10.8M2574 1291c-5.1 4.5-8.5 12.2-13 18 4.4 3.7 8.7-10.8 12.7-16 0-.6 1.5-1.3.3-2M525.2 963.7c-4.5 5.2-1.4 29.9 2.1 26.7-2.2-8.7-.9-17.8-2.1-26.7m74.7 8.5c-4.6-6.3-28-13.4-27-10.3zm270.7 67.5c-1.4 8.4 5 39.6 3.4 15.9-1.3-4.7 2.5-13.7-3.4-15.9m8.3 146c3-5.9-.1-36-2-22.9zm-344.7-82c5.8-6.8-2.2-37-1.8-16.6a72 72 0 0 1 1.8 16.6m374.8 38.1c-7.2-6.2-37.3-12.8-14.5-3.6a43 43 0 0 0 14.5 3.6M2282.4 1397c5.8-14.2-1.4-11-7.4-2.5 2.2 1.4 4.6 3 7.4 2.5m18.7-65c7-4.3 18.3-29.7 7-13a42 42 0 0 0-7 13M570 981.7a72 72 0 0 0 1.3 27.3c.9-9.1 1-18.4-1.3-27.3m-7.6-53 2.1 24.6c3.7.5 2.3-21.6-2-24.5m-46.2-17.3c.3 8.8 3 39 3.6 13.8.2-4.8-1.3-9.6-3.6-13.8m1979.1 449.8c3.8 7.6 30.9 9.2 11.2 3zm-1947.6-410c-7-6.2-38.6-11.6-15.8-4.4a97 97 0 0 0 15.7 4.3M2223.6 1121c-11.1.7-28.2 16.1-9.9 6.1 3.3-2 8-2.3 10-6.1M294.2 1233.9c4.8-6.6 3.1-19.9-1-6.1v2.7zm2060.3 19.1c8-6.3 13.3-23.5 3.8-8.3-1.4 2.7-5 4.7-3.8 8.3m-1.4-13c7.5-5 12.9-23.3 3.7-8q-2.5 3.7-3.7 8m-1939.9-81.6c-11.7 1.3-8.1 10.2 0 4.5zm502.6-46.1c-3.8 1-.9 29 0 16.8z"/></svg>