<svg xmlns="http://www.w3.org/2000/svg" fill="#0a0a0a" viewBox="0 500 3052 1696"><path d="M2001.8 1590.5c-15.8-4.9-31.1-10.5-47.3-15.3-6.4-2.7-14.4-3.3-20-6-1.4-12.7 24.5-17.4 36-21.8 34-8 70-6.3 103 4.8 23.4 8 51.3 21.3 56.2 47.7 2.6 10.5-5.4 29.9-18 22.5l-72-21.6c-5.3-10.4-18-10.6-27.7-8.6zm-62.8-24.9c5.7 5 14.7 5.2 21.8 8.1 17.7 5.2 35.3 11.3 53 15.8a32 32 0 0 1 31 9.4q35.6 11.3 71.4 21.5c18.4-7.4 7.9-35.9-5.8-44.5-28.4-24-67-30.2-103-31-23.8 2.5-49.2 5.2-68.4 20.7m246-199.3c-6.5 13.8-6.1-11.2-3.4-16.7-.5-13.6 2.2-27 2.6-40.5 15.2-8.2 37.6 8 55.6 9.5 24 7 48.6 12.6 72.5 19.8 6.1 16.4-1.2 37.6-.2 56 2.6 10.5-6 15.3-4.9 1.8q-57.7-16.1-115.9-31zm127-24.6c-38.2-11.5-76.9-21.3-115.4-31.3-8-.2-7.3 25.2 5.9 21.5 35.6 8.5 71 18.2 106.8 26zm-3 30.2-116-30c-9.4 8.2 1.3 17.7 11.2 17.4l102.3 26.8a18 18 0 0 0 2.4-14.2m-118.3-34.3c38.3 11.4 77.4 20.2 116 30.6 8.1-5.4-4-8.7-9.5-9.3-34.6-8.7-69-17.8-103.7-26.3-5-3-2.3 3.1-2.8 5m-1.4 22c21 8.6 44.5 12.3 66.5 19 15.3 2.4 40.2 14.2 49.8 10.7q-56.4-15-112.7-29.7zm684.7-2.8c-9.2-4.9.5-34 1.4-18.8-7.5 5.5 9.2 26-1.4 18.8m-1279.3-215.3c-4.4 13 10.3 32.5-7.6 37.4l-22.8 13.7c-5.2-4.8 1.1-34-7.7-23.2-4.4 10.7 4.3 21.5.6 30.4-11.8 2.4-32.5 25.3-29.6 2.2.3-9-4.3-22 7.3-25.5 9.6-7.2 19.4-12.5 27.6-19.3 11.7-.3 21.5-16.8 32.2-15.7m-5.7 6c-9.4 4.2-33 17.1-10.2 19.6 19.2 9.5 11.8-8 10.2-19.6m-37.1 48.7c2.7-6.4-.5-14.4-.3-21.6-3-6.9-11 4.4-16.3 5.9-11.6 8 11.5 13.3 16.6 15.7m15.3-9.4c8.1-5.4 32.1-14.5 10.7-17-8.9-2.6-25.2-7-10.7 17m-19.9 12.8c-9-14.4-23 2.5-11.6 7.9zm-30-12.3c-1.4 13.4 7.7 33.6-6.8 40.1-29.4 19.6-58.3 39.7-88 58.8-9.3-5.2-2.8-20.3-5-30 3.4-13.3 25-16.5 35.3-26.6 21.6-13.8 43.4-27.5 64.4-42.3m-94.5 94.7 88.1-59.5c-10.1-4.8-24.7-13.2-34.4-3.9l-54 34.8a182 182 0 0 0 .3 28.6m90.8-64.1c1-11.3 2.3-29.3-12.5-15.6-15.7 6.4-7.4 12.3 4 13.3zM489 1045.6c2.3-14-15.4-51 11.7-39.4 16 4.5 31.7 10 47.8 13.9 13.8 6.2 32.5 6 44.4 15.6 1.8 12.6.8 25.6 1.6 38.4-14.5 2.3-29.3-6.5-43.6-9.7-20.4-7-42-10.3-61.9-18.8m45.4.8c4.2-17.2-3.6-31.5-22.3-31.8-20.5-10-13 30.8 4.8 27.1 5.8 1.9 11.5 4.2 17.5 4.7m54.9 16c-2-8.8.2-19.5-4-26.8l-30.2-8.2c-3 13.3 1.9 30.2 17.7 30.8q8.2 2.3 16.5 4.2m-35.8-3c9.4 4.3 31.2 11 34.2 8.2-10.8-3.3-23.8-8.9-34.2-8.1m-54.5-15.8c8.6 3.6 33.7 12.1 33 7.7-10.2-2.5-20.1-6.4-30.4-8zm48.5-16.4c-2.8 5.5-.4 30.4 2 25 .3-8.2 1.3-17.3-2-25m-55.2-16.5c-.9 9.4 1.6 18.7 2.2 28 1-8.8 3.7-20.8-2.2-28m52.2 105.5c-16.2-6-45.3-4.1-51-21.6-.7-11.1-2.8-22.3-2.8-33.4 11.8-4 28.6 8.1 42.7 9.7q31.9 9.2 63.5 19.2c2 12.7 0 25.9 2.6 38.5-12 7.7-31.6-6.8-46.5-8.3-3-.9-5.6-2.8-8.4-4.1m-5.3-13.5c-.6-9.5 2.9-27-10-28.6-13.8-5.6-29.5-9-22.9 11.5 2.7 14.2 22.2 12.9 33 17m53.9 15-2.1-23.9c-11.4-4.4-36.8-17.2-31.1 5.7-1.4 14.8 22.4 16.6 33.2 18.3m-95.1-51.3c-3.6 6.9 2.7 40.7 3.7 16.6q0-8.7-3.7-16.6m96.2 59a213 213 0 0 0-34.9-10.2c4 4.7 24.2 9.2 35 10.3m-41-43.6c-6 6.4-.8 21.8.6 29.3 4.7-9-1.5-19.7-.6-29.3m-50 18.3c9.5 2.3 31.8 11.7 33.9 7.5-10.5-2.7-20.6-7-31.3-8.5zm97.8-22.5c.2-13.9-5.6-28.9-1.5-42.1 11.6-1 21.1 6.6 32.3 8.2 20.6-1 22.6 16.8 20.6 33 8.6 27-25 6.3-37.9 5.5-4.6-1.3-9.4-2-13.5-4.6m13.3-10.3c11.3 6.7 41.7 19.4 31.5-5.3 3.6-13.6-12-11.5-20-15.2-14.2-8.5-11.6 5.7-11.5 14.5zm31.8 18.7c-1.7-5.7-34.2-12.6-32.3-8.8zm-39.4-16.6c5.8-4.2-2.3-39.8-2.3-19q1 9.4 2.3 19m-1 65.4c-1-13.7-3.6-27.3-3.5-41 15.2-3.6 34.9 9.9 52 12.4 3.9 11.6-.3 24 3.7 35.7-6 14.3-29.2-3-41.6-3.4q-5.4-1.7-10.6-3.7m43 .3c5-15.8.4-30.9-18-31.4-10.1-5.3-27.5 0-12 20.4 8.8 6.5 20 7.7 30 11m1.3 6.7c-7.6-4.2-31.7-11-29.3-7.5a88 88 0 0 0 29.3 7.5m-39.4-14.3c5.6-5 1.3-30.7-2.4-27zm155.5-5.2c-16.5-4-44.3-4.5-52.1-19.6 2.9-11.9-11.2-40.8 9.5-35 12.7 9.7 40.6 3.1 42.4 21.8-1.7 10.9 4.4 22.7.2 32.8M733 1102c8.5 1.5 31.8 15 27.4-1.4-1.8-7.2 2.7-19.2-8.7-19.2-11-4.9-28.8-10.6-23.8 8-.1 5.6.3 9.4 5.1 12.6m27.1 16c-1.5-6.8-15.2-6.7-22.3-9.7-6.4-3.8-17.7-.7-5.4 1.7zm-41-45.1c-.9 5.8-1.1 29 3.5 26.3-1.1-8.6.5-18-2.6-26.1zm-11.9-6.5c-.3 12.6 10 38.3-3.8 42l-44-12.5c-2.3-14-6-30-3.2-43.7 14.9-.1 28.4 9.4 43.3 11.5 2.6.8 5.3 1.3 7.7 2.7m-34.6 17c8.3 8.2 38 20.9 31-2 2-16.6-24.9-20.9-33.2-16.9a38 38 0 0 0 2.2 18.8m29.6 18.2c-9-4.1-25.7-10.2-32-7.8 10.1 3.4 21.8 8.3 32 7.8M662 1059c-3.2 7.5 3.7 41.2 3.7 17.2 0-5.9-1-11.9-3.7-17.2m222.7 99.6c-15.3-7.7-44.6-4.5-49.1-22.2.5-14-12.7-49.4 16.5-31.4 16.1 5.4 41 6.1 34 29.7-.9 8 5.8 17.4-1.4 23.9m-4-14.8c3.3-16-1.5-31.6-20.2-31.3-18-11.9-16.3 25-1 26.1 7 1.7 13.8 5 21.2 5.2m0 7.1c-15.2-9.1-74-16.7-.6.7zm-39.3-43c-5.9 5.1-1 21.4 1.1 28.4 3.2-9.4-1.3-19-1-28.4m-66.8 19.4c1-13.6-8.7-35.2 1.5-43.4 15 7.5 43.6 3.7 48.4 22 0 10.1 8.8 39.4-9.2 33.2a1475 1475 0 0 0-40.7-11.8m12.6-33.9c-2 8.8-1 23.7 8.6 27.3 9.6 1.2 27.5 12.5 24-5 4.8-20.6-18.7-19.8-32.6-22.3m32.5 40.4c-8-4.5-32.3-12.2-32-8.4a137 137 0 0 0 32 8.4m-41.2-45 .3 27.3c5.5 10.4 3-17.5 1.2-23.2.1 1.3-1.5-5.6-1.5-4m-.5 95.6c0-13-8-37 .8-42.8 15.4 9.2 48.9 4.1 49 26.1 0 9.7.6 19.3.8 29-14.5 4.2-35.6-8.4-50.6-12.3m44.4 1.2c.6-11.4 2.5-29.6-13.3-29.7-7.3-1.6-22-9.8-19.3 4-1.7 9.3 1.2 20 12 20.3zm1.1 6.6c-7.9-4.1-33-12-31.3-8 10 4 20.7 7 31.3 8m-41-15.1c4-5.6 2.7-23.7-1.8-28.6-.8 9.5 2 19.1 1.8 28.6m-123.4 28.2a200 200 0 0 1-49.5-15l-3.1-40.2c10.8-6.3 26 7.4 38.5 8.7 24.5-.2 12.7 31.2 14 46.5m-35.9-48c-2 9.8-4.5 25.5 8.2 28.3l23 6.8c.8-16 .9-32.6-19.7-32.7q-5.7-1.5-11.5-2.4m-3.8 32.6c11.5 3 22.8 7.6 34.3 9.6-4.6-5.4-23.8-9.5-34.3-9.6m-6-36-1.2 2.3 2 25.6c6.2-1.6 1.5-14.5 1.6-21-.2-2.5-.5-5-2.4-6.9m-23.3-174.7c17 2.1 33.4 8.6 50 13 10.8 7 3.5 23.8 7.8 34.6-1.2 11.9-15.5 2.6-23 1.8-9.3-3.7-21.3-3.1-28.6-9.3-4-12.8-4.1-26.9-6.2-40.1m18 29.8c7.7 8 19.7 7.2 29.6 10.7 6.2-2.5 4.2-28.3-9.3-26.2-16.4-9-28-3.7-20.2 15.5zm-10-23.7c-3.5 5.9 1.1 13.7 1.2 20.5 2.3 21.3 3.7-18.5-1.2-20.5m22 37.6 19.2 4.5c.8-3.8-14.3-6-19.3-4.5m160 220.8c2.8-12.9-12.1-42.9 6-43.1 13.5 7.5 34.3 6.5 43.7 18.2-3.8 12 9.2 36.1-5 39.1-15-4.4-30-8.6-44.6-14.2m44 .5c8-21.2-9-34.7-29-34-10.5 12.4 3.6 33.2 21.1 32.5q4 1 8 1.5m-34-2c9 2.5 29.3 11.5 32.3 8a73 73 0 0 0-32.4-8m-5.7-34.3c.5 8.9-.8 18.3.8 26.8 4.6-1.3 1.4-13.1 2.3-19.2 0-2.8-.7-6-3-7.6m111.4-89.9c11.8-.2 21.1 7.8 32.6 9.7 13.7.6 22.4 9.8 19.6 23.2l.3 24c-11.7 3-25-6.5-37.4-8.5-12.8-1-16.5-9.3-15-21.8.8-9-2.7-17.9-.1-26.6m45.6 18.9-30.8-9.2.3 24.4c10.9 5.2 38.4 19.8 31.5-2.8-.6-4-1.2-8.2-1-12.4m-33.1 22c10.3 4.4 23.6 11.7 33.7 10-10.4-5-22.3-8.4-33.7-10m-5.8-4.8c8.4-6.2-3.5-41.1-1.2-17.7 1 5.8 0 11.8 1.2 17.7m-136.2-128c15.4-.4 29 7.3 43.6 10.5 20 2.3 8.7 27.5 13.7 40.3-12.7 6.8-35.6-7.4-52.2-9.4zm18 28.8c8.2 9.6 40.7 20 31.5-2.6 1.5-13.4-26.2-19.1-33.4-13.7-1.2 5.5 1.9 10.8 1.9 16.3m-1.2 9.7c7 3.2 31 11.2 31 7.4-10-3-21-6.6-31-7.4m-9.1-29.2c-.9 8 2.8 33.3 3.6 14.4.3-5-.5-10.3-3.6-14.4m62.8 124c14.5 8.4 44.2 5 51.3 20.7-2.2 12.5 11.5 46.3-12.6 34.5-15.6-7-44-4.7-38.2-29.3-1-8.5-2.7-17.4-.5-25.9M851 1170c-2.8 14.2 3.2 29.2 19 30.2 7.6 2.6 17.4 6 13.8-6.5 5.7-21.4-17.9-21.6-32.8-23.7m-5.5 25c.3-6.4 1.7-31.3-3.3-25.4.4 8.2-2.4 18.8 3.3 25.4m36.6 16.7c-4.6-6.5-23.4-11.2-33.2-11.2 10.3 5.3 22.4 7.4 33.2 11.2m35.8 77.2c-5-4.4-16.3-3.1-16.6-10.6.3-12.6-5.9-33 0-40.8 16 6 41 7.8 48.7 22-1.8 13.5 11.2 46.1-13.8 34.2-6-1.7-12-4.2-18.3-4.8m27-5.5c5.7-17.9-2.1-33.2-21.3-34-10.1-2.4-26.3-3.7-9 22.2 8.5 7 20 8.1 30.2 11.8m.2 8.4c-2.5-7.2-13-6.1-19.2-9.3-12.7-5-39.7-6.8 14.2 8l2.2.6zm-38.2-19.4c1-6.4 2.7-32.4-2.8-24.8-.6 8.4 2.8 16.4 2.8 24.8m-10.2-92.7c15.7-4.6 33 10.4 49.3 13 6.7 4 2.7 14.6 4 21.7-.5 7.3 1.3 15-1.4 21.9-16.2-7-47-4.6-49.7-25-1.3-10.5-1-21.1-2.2-31.6m21.1 34.8c10.2 3.3 32.9 15.2 26.6-4.1 1.2-10.7-4.3-17.1-15-18.6-14.4-8.9-21.3.5-17 15.1-1.1 3.8 3.5 5.2 5.4 7.6m-13.3-32.2c-3.3 7.8-2.4 26.3 2.2 29.9a65 65 0 0 0-2.2-29.9m6.2 37.6c10.7 4 21.8 7 32.7 10.5-5.8-7.6-22.5-8.5-32.7-10.5m-143-80c-2.9 12.2 12.5 46.3-9.7 39l-38-11c-4-13.8-3.7-29.6-3.7-44 14.9 2 28.4 9.3 43 12.4 3 1 6.3 1 8.5 3.5m-37-5.8c-2 14.2 3.4 29.2 19.3 30.1 10.6 5.2 17 1.3 13.8-11.9 1.8-15.6-22.4-16.5-33-18.2m-1 30.2c17.1 11.6 67.1 14.3 0 0m-5-33.5c-6.5 7.3 2.3 40.2 1 17.5q.3-8.9-1-17.5m109-47c-.8-13.5-4.5-27-3.1-40.4 10.3-.5 19 3.6 28.9 6.6 8.1 3.5 25.4 2 24.4 14.3-.6 13 9.2 42.2-14.6 29.8-11.8-3.6-24-6-35.6-10.4m10.7-32c2.4 10.7-1.7 26.5 14.2 27 9.7 3 26.3 10.8 20.4-7 1.8-12.3-7.3-14.2-16.8-16.2-6-1.3-11.7-4.3-17.8-3.9m33 38.5c-9.5-6.5-54.8-14.4-17.3-3.4zm-38.6-14.6c7.1-5.9-4.3-38.8-2.2-15.4zm58 24.9c-.3-12.2-9.8-35 0-40.9 15 8.2 44 4.5 49.2 21.7-3.1 10.3 10.6 36.8-7.4 32.1l-40-11.6zm44 1.2c7.8-21.2-13.2-34.2-32.1-31.9-5.5 13.4 1.5 26.2 15 27zm-40.2-35.4c-7.4 3.8 3.8 42.6 2.2 16.8-.9-5.5-.2-11.5-2.2-16.8m39.1 41.5c-8.2-4-30.3-12.4-31.5-8.2a317 317 0 0 0 31.5 8.2M890 1234.3c0 12.4-.2 25 2 37.2-6.6 13.7-28.9-3.8-41.5-5.4-19-4.6-7.8-30.2-12.5-44.7 6.3-7.3 19.9 4.4 28.7 5 7.8 2.4 15.7 4.6 23.3 8m-5 29.7q1.5-12.9 0-25.8c-11.5-4.1-40.2-19.7-31.8 4.6-1.4 13.6 13 15.5 23 18.6zm1.3 7.6c-7.3-5.7-31.5-13.1-32.6-10.2 10 5.3 21.6 8.3 32.6 10.2m-38.8-14.8c-.3-7.4 2.7-31.6-3.2-28.1-.3 9.2-1.7 19.9 3.1 28m-194.3-219.4c-1-13.4-3.7-27.2-3.9-40.4 6-2.4 12.9 2.6 19.2 3.4l31.3 8.5a60 60 0 0 1 3.2 41.2c-16.8-3.3-33-8.9-49.8-12.7m12-32.1c-3.8 13.5 2.7 29.1 18.9 28.4 12.2 6.4 18.5-.8 13.7-12.8 1.2-15-23-11.8-32.5-15.6m34 37.8c-7.5-3.2-32.5-11-32.4-7.1 10.4 3.6 21.3 7 32.4 7.1m-42.6-39.4c-3.1 10 4.4 36.8 3.1 13q-.1-6.9-3.1-13m5.7 147.8c2-12.7-13.1-45.5 7.8-40.4 13.5 4.9 27.3 8.8 41 12.8-.4 14 4.3 29 1.2 42.2-17.2-2.6-34-8.1-50-14.6m43.2-23.3c-14-9.2-41.1-14.4-29.6 10.8 3.7 11.1 25.4 14.7 31.4 10.2 1.4-7.1-2.2-14-1.8-21m2.1 30.3c-11-2.9-21.8-7.3-33-9.2-1.6 1.2 26.1 13.4 33 9.2m-41-43c-3.9 4.9-.4 33.9 2.9 26.2 1-8.8-.6-17.7-2.8-26.2m96.7-53.3c-17.2-1.3-44.7-4.2-53.4-18.1 3.2-10.4-12-35 4.3-34 14.4 8.2 39.3 4 47.4 19.6-.4 11 2 21.7 1.7 32.5m-9.3-35.9c-14.8-5.5-41-14.6-29.8 10.6 1.1 9 12.1 8.4 19 10.7 13.5 7.7 14.9-.7 12.5-11.6 0-3.3-.1-6.7-1.7-9.7m-32 21.7c8.8 4 31.9 12.2 33.6 8-10.8-4-22.3-6-33.6-8m-5.3-4.4c7.1-15.2-14.6-55 0 0M666.1 1210c-.9-14-3.3-28.3-3.2-42.1 14.3-3.5 31.8 9.3 47.5 11.6 9.5 10 5.6 30.8 4.2 44.6-11.6-1-22.7-6.6-34.2-9.6zm44.3 1c2.2-15.5 0-32.3-19-32.6-10.3-2.6-28.9-7.4-12.6 19.8 8.5 8.4 21 9 31.7 12.8m-34.8-3.6c9 3.5 28.6 13.3 33.5 8.4-11-2.3-23-9.6-33.5-8.4m-4.4-32.9c-5 3-1.5 22.8 1 28.5 3.6-9.3-.2-19.1-1-28.5m99 21.4c.8 13.2 7.4 37.1-3.7 43.2l-43.8-13.1c-.2-13.5-8.6-36.6.8-44.1 10.3 1.6 19.3 6.9 29.6 9zm-3.6 30.4-1.3-26c-9.1-1.7-34.7-19.5-31.3-1-5.5 21.4 17.6 23.2 32.6 27m-33.6-3.6c8.2 5.3 30.7 13 32 8.4-10.5-2.3-21.7-8.5-32-8.4m-6.2-5.2c3.5-7 3.5-28.1-2.6-27.5 2.3 9 1.2 18.3 2.6 27.5m1897.1 261c14.4 4.7 41.7 7.3 47.9 14.8-44.8 59-88.8 118.6-134 177.3-107.7 141.8-214.5 284.4-322.6 426-16.5 7.2-38.8-12.5-57.8-15-.6-8.2 8-13.7 11.9-20.3 55-71.4 111-142 165.9-213.5 56.2-72.8 113.8-144.6 169.9-217.6 39.8-50.5 78.9-101.5 118.8-151.8m-182.7 242.2c-10.4 10.6-19.3 23.2-29 34.8-54 69.6-108.4 138.9-162.3 208.5-29 37.2-58.8 74-87 111.8 8.6 10.4 32.2 14.7 47.5 20 22.2-26.6 42.3-55.4 63.6-82.8 120.8-159.2 241-318.9 361.6-478.2l31.3-41c-14.2-3.7-35.4-17.8-47-4.9-41.2 54-83.8 106.8-125.3 160.5-16.8 22.2-34.6 43.6-50.8 66.2l-1.1 2.3zm-439.4-130.2c7 2.3 11.9 6.5 16 12 10 4.4 20.6-2.8 30.5 3.4l66 20.5c-.6 13.7-30 19.6-44.6 23.3a199 199 0 0 1-71.3-1.6c-25.8-4.8-51.8-15-70.1-34.4-11.6-11.1-13.2-43.7 7.6-43 12.1 5.6 26.3 8.6 39.2 13.2 9.7.2 17.4 4.3 26.7 6.6m-70.4-16.9c-13.7 11.5-6.6 33 5.4 43.3 34.6 31.1 85.4 34.9 130 30.3 15-3.6 31.7-7 43.3-17.6-3-4.7-12.1-4.4-17.6-7l-55-16.8a32 32 0 0 1-34.6-10.4zm918-208.3c-15.6-8.8-29-24.8-28.1-43.7-.5-18.8 12.7-33.1 25.5-45.1 4.5-18.7 20.9-30.6 36.4-38.5 5-7.4 12-13.7 11.8-23.3 6.2-27 31.6-41.8 42.2-66.4 14.9-19.9 27.6-44.7 51.8-54.3 20.2-7.7 43 3.4 53 21.9 12 20.7 1.3 48.7-18 60.7-5.5 15-20.3 22.9-24.3 38.4-17.8 18.3-27.2 41.7-36.2 65-8.6 17.8-34.9 18.3-37.4 40.1-11.5 14.5-20.9 35.1-39.8 43-10.7 1.1-13.5 9.4-15 18.5-.7 10.3-13 16.5-21.4 10.3-4.1-4.9-4.3-10.8-2.3-16.7zm24.6-8.5c6 11.4 21-4.4 27-10.3 9.3-7.4 7.4-19.4 12.8-28.6-2.2-17.9-11.1-36-30.3-40-11.6-2.7-28.4-3.7-35.6 7.7-25.9 11-29 52-7 69 9.7 2.6 24.2 15 32.3 3.3l.6-.8zm63.8-59.7c9.5-7 20.5-13 24.6-25 10.3-16.2 1-37.6-11.9-49.5-17.1-18.3-59.3-2.9-58.4 15.6a51 51 0 0 1 43.5 28.6c2.1 9.1 6 18.2 2.6 27.5zm22.7-72.4c7.9 6.1 9 34 16.7 14.7 6.3-10.8 9.7-24.7 2.6-35.8a37 37 0 0 0-32.7-26.8c-15.3-2.9-25.7 7.4-36.6 14.6-9 7.3-17.7 33.1-.2 21.9 17.5-9 36.8-1.1 50.2 11.4m-107.4 49.5a47.4 47.4 0 0 1 56 17.2c7.3 7 7.5 33.3 17.8 13.1 9.5-9 9.8-22.3 4.3-33.7-6-19.7-30.3-34-49.8-24.5-13.8.9-24.5 15.8-28.3 28m106.8-98.9c8.2 6.4 20.3 11.3 24.1 20.4 3.2 7.6 3.9 16.2 5.6 23.6 8.8-5.7 11.6-17 13.9-26.4-.8-16-6.5-33.4-22.3-40.3a40 40 0 0 0-44.8 5.3c-8.5 6.2-21.6 28.9 6.9 14.7zm5.2-56.8c25.5-7.5 54.5 7.7 60.2 33.9-.4 11.7 3 19.4 9.9 5.7 12.4-14.4 8.5-35.4-3.4-48.8-15.5-17.4-47.2-17-61.1 2.2q-3 3.3-5.6 7m-20.3 28.4c20.1-5.7 45-1.8 56.3 17.6 8.6 6.5 3.2 38.5 14.5 18.2 17-24.2-3.4-60.7-32.1-61.4-15.1-.3-35.9 9.6-38.7 25.6m-89.4 220.8c-11.1 10.4 3.5 34.5 10.6 14.5 5.4-9.7-.3-16.2-10.6-14.5m-2251.6 195c-26.3-17.7-59.3-1.4-88-14.8-47-17.7-79-58.4-116.8-89.4l-30.5-23c-9.3 6.6-9.8-14.1-22-12.4-17.3-10.3-45.6-11.2-44.7-36.9-.5-10.6-10.5-26.7 5-29.2-6.4-4.8-32-17.1-27-.4l7.7 31.4c-7.9 7.2-29.7-14.8-28.2 5.2-4 10.7-20.3 8.7-22.1-1.5l-4.6-17.7c-18-5.7-41.3-24.7-56.2-21.5 5.3 12-1.5 34.2-17 23.3-6-3.4-4.6-12-7.2-17.9.3-7.5-8.5-7.2-13.4-10.2-8.3-2.7-13-10.7-19.7-15.9 3.4 11.9-1.8 34.7-18.4 22.8-9-11.2-3-30.7-24.9-30-21.5-13-32.3-43.7-16.8-65.3a45 45 0 0 1 55.8-15.6c9.2 3.7 16.3 14.9 22.8 2.3 20.2-24.7 52.7-30 82.8-33.8 15.3-12.7 34-20.2 53.6-23.2 26.6-5.7 53.8-9.7 81-9.6 10.2 4 33.7-3.5 35.3 12 5 10.2-3.8 17.7-12.7 21.5-12.7 3.6-25 15.8-34.8 15.9l-27 10.5c13 8.6 31.1 11.2 46 17.5 37.2 12.5 74.3 25.5 111.6 38 11.2-5.7 7 6.6 19.5 7 77 26.2 154 52 230.7 78.9 8.5-1.9 22.2-8.6 6.2-10.8-74.7-24.2-149.3-48.8-224-73-14.5-1.8-30.3-9.8-16.3-23.8q12.2-6.2 23.7-13.5c1.9-16.7-2.7-33.2-2.9-50q-1.2-18.9-3.4-37.8c-8.4-3.6-19.7-3.7-13.8-16.2-3-21.6-3.7-43.5-7.4-65-3.5-37.4-8.2-74.6-11.7-111.9-2.6-13.7-.4-28.4-7.1-41 3.8-8 9.8 1.8 15.7-4l114-45.2c-15.8-5 19.5-5 22.2-5.8 8.9 2.6 22.8-1 33.9.2 18.2-.2 36.5 1 54.4-2 17.7-.2 35.5.6 53-1.6 7.7 2.8 31-3.2 20.7 5.2l116 30.6c15-2.5 9.8-18.5 9-29.5-.5-18.7.8-37.6-2-56.1-2.3-17 4.7-41-5.8-52.8-14.7 2.4 10.8-9.6 8.8-7.5 29.4-8.6 57.5-22.4 86.9-31.7 3.2 6.5 11.6 2.3 17.4 3.5 33.7-.3 67.4.6 101-.6 16.2-4.6 30 8 46.6 8 14.5 4 35 11.4 29.2-11.6.1-22.8.5-45.7-1.3-68.5-13.6 3.7 9.2-17.3 4-15.6 1 15.8 18 .1 27-1L1328 609c3.9-10 26.9 1.5 38.1-1.8 18.5 2.1 37.2 1.4 55.6 3.8 12.2 2 25.6-3 36.9 1.5 8.2 4.1-6.7 2.6-10 2.8l-18.2 8.8c46.6 8.3 93 17.7 139.8 25 14.7-2 27.6-11.4 41.6-15.3 68.6 11 136.7 25 205.4 35.7 55.9 10.8 112 19.6 168 29.9 8.7.6 17.7 2 11 12.8-2.7 25.7-3.4 51.4-5.1 77.1-2.5 25.5-3 51.2-5 76.8-1 18.5-1.6 37.1-3.4 55.6-1 20-2.5 40-3.2 60-4.4 15.5 26.2 13.5 35.3 14 3-11.2 10.7 3.3 5.6 8.6 2.4 8-8.3 10.4-13 15l-315.8 222.5-250.6 176c-56.6 40.4-113.7 80-170.5 120.2-6.7 5.6 20 8.6 3.1 8.6-6.8 4.3-9-4-16-4.7-31.1-11.2-63.9-17.5-94.2-30.8-44.3-13.7-88-29.6-132.7-42.3-19.8 5.5-15.6 15.5 3 18q42.2 14 84 29c9.8-4 18.7-6.5 7.3 2 18 5 37 15.6 54.6 16.3 5.7-4.5 18-8.2 5.8.6-3.4 6.8 11.6 6.1 16.4 9.5 54.8 19 110 36.7 164.4 56.7.6 4.6-20.3-5-28.2-7l-159.6-54.2c-12.3 9.4-33.2 17.8-39.5 29 59 19.5 117.2 40.8 176.2 60.1 7 1.5 21.3 9.5 6.3 5.2-35-11-69.4-24-104.4-35.3q-42-14.5-84.3-28.8l-33.7 22c68 23 135.3 47.7 203.3 70.5 17.5-7 30.8-22.3 46.6-32.5 50.8-38.3 101.3-77 152-115.2-3.8-10.4-30.1-11.1-42.6-17.5-9.6-7.3-15.4-.5-19.8 1.6 4.2-10.3-22.4-13.9-2.6-12.8 2.6-11.2 6.3-28.6 2.1-39-18 8 4.7-5.7 3.2-15.2 11.2 8.9 23.4-11.6 35-15.9 33-23 66.6-45.1 98.9-69-11-6.2 6-1.9 9.8-5.9 6.4-6.8 31.4-18.5 14.4-5.7-4.5 3.8-19 10.5-5 12.5q36 10.5 72.2 20.5c2.6-11.5 5.3 1.3 10.8-2-2.9 5.7 10.3 9.6-3.2 7.5-7.8 2.5-4 18.8 3.7 7.3 56.9-42.4 113.4-85.3 170.4-127.5 21.8.2 42.3 9.4 63.6 13.7 87.3 21.5 174 45.4 261.4 66.5 3-14-20.2-10.2-29-15.4-10.6-5-26-2.2-33.2-7-5.7-3.9-14-3.8-20.7-6.1-55.5-13.2-110.7-27.5-166.1-40.8-.3-7 7.1-12.5 10.3-18.8 7.7-10.4 14.4-22 22.7-31.8 8.7-1.8 9.5-11.8 13.7-18.2l28.2-56.6c13.5-6 16.3-22.4 22.4-34.5-9.5-7.2-41-1.3-32.8-17.1 10.4-22 32.6-41.2 58-40.5 4.7 4.9 10 8.7 17.2 9l49.3 10.8c10.5-6.3 18 1.6 26.3 5.7l56.8 12.4c10.2-1 18.3-3.4 26.4-5.1 83.6 17.3 166.8 36.5 250.4 54 32.3 7.7 65.1 13.4 97.3 21.5 1.6 22 35.3 14 51.2 22 18 7.2 37.1.3 52.8 11 1.7-13.5 27.9-39-3.5-35.1-44.5.6-84.3-21.9-126.5-33-46.5-14.1-93.3-28-141.6-34.8-55.8-10.4-112.1-16.9-168.3-25-46.9-7.3-94.7-17.6-135.5-43.2-16.5-9-5.8 24.5-7.7 34.8-9.4-3.3-6.3-36.3-5.3-28 .3-9.8-2.5-19.5.9-29 5.3-35.3 19.2-70 46.2-94.1a120 120 0 0 1 71.4-40c9.9.6 14.4-7.6 19.9-14.1 27.4-36.6 72-56 114.2-69.5l7.4-3c-27-1.5-54 7-78 19.2-36.9 22.3-74.4 44-108.5 70.7-22 18-43 38.3-56 64.1a178 178 0 0 0-22.8 106.5c1.2 6.8 4.3 32-2.1 13.6a175 175 0 0 1 11.5-99.7c14.5-40 45-71.3 78.8-96 31.1-22 63.6-42 96.5-61.4a121 121 0 0 1 47.6-16.5c28.2-7.7 57.4-6.2 86-3.6a980 980 0 0 1 108.3 12c58.7 11 117.2 23 174.8 38.7 32 10 63.4 22.3 95.5 32.4 4.8 2.2 17.5-4 9.9 4 17.5 7.5 40 11.5 50.1 28.6 7.7 9 11.6 20.4 17 30.8a89 89 0 0 1-11.8 55.8c-25.4 45.8-59.9 86.3-81.9 134-4.9 13.6-11.9 40-2.4 48.4 9.7-7.3-4.4 10.7 4.8 15-.3 6.6-10-9.3-12.4 2.7-4.8 10.7-32 29.6-6.4 30.4 11.7 3.5 27.7 3.3 36.3 10.4-12.8-2.3-28.2-7.5-26.2 11.8-3.5 27.5-12.3 54-17.9 81.1-2.8 14.7-5 29.4-8.3 44-7.9 12.3-16 24.1-25.2 35.5a3333 3333 0 0 1-50.4 62.2l-93.7-23.7c-7.8 5.4-14.6-8.3-25.4-6.5-20.9-5-41.7-11-62.7-15-15.1-4.2-31.3-8.8-47-12.7-20-5-39.9-10.6-60-14.6-10.1-1.5-30.4-13.2-35-5.3 6.5 4.5 16.8 5.3 25.1 8 101 25.7 201.7 52.2 302.7 77.6 25.3 6.3 50.3 13.6 75.6 19.4 6.8-2.9 32.2 12.1 13.5 6.8-18.9-3.1-25 27.8-38.3 39-16 22.6-33.7 44.3-48.4 67.7 9.7 6.3 19.2 12.9 27.1 21.5a74 74 0 0 1 11.9 31.2c.2 24-12.7 47.6-33.4 59.8-5.5 11.6-9.4 24.3-16 35.2-3.4 5.4-8.7 4-14.2 7.4q-14 3.3-17.2 17.5c-5.7 9.6-11.4 20.3-22.4 24.3-16 5-8.6 27.4-20.3 37.6-9.2 11-22.7 18.4-16.2 34.8a66 66 0 0 1-42.1 58.7c-13.7 3.5-6.1 21.7-12.4 31.2-15 9.2-26.8 23.3-42.8 32.7-3 13.1 4 30-9.4 38.4-8 2.7-15.2 5.9-21.2 12.9-13.4 6.8-27.3 11.3-24.8 29.6 1.8 13.5-13 24.1-24.7 17.2-14.7-9.4 1.2-29.4-6.2-39.5-9-5.3-19-9.6-24.9-18.6-15.5 10-25 32.6-38 47.5l-73.8 102.3c-9.8 6.8 5.2-12.1-9-9.2L1998 2077c-9 8.2 2.5 28.7-10.8 36.8-8.6 6.8-20.2-.3-22.9-8.7l-.3-28.9c-12.2-5.5-21.6-15.7-31.8-23.3l-51.8-19.7c-12.4 0-9.6 13.4-9.7 22.2q1.9 10-6.3 16c-10.2 9.1-27.4-4-24.2-16.6V2034c-17.3-5.7-25-24.6-40.2-31.2-9.4-4.6-34.3-13-33-16.4 12.4 3.1 24 9.6 36.1 14.2-4.6-12.4-1.2-28-7.9-39.4-7.6 15.8-34.8 13.5-34.6 31.2 1.7 9.8-.3 22.6-10.7 25.9-7 2.3-11.5-2.6-16-7.3-3-5-.8-12.4-1.7-18.4 4-17-16.5-21.1-29.2-26.3-21.6-8-43-16.5-64.7-24-14 .8-12 14.6-9.8 24.9 1.3 19.4-29.7 19.4-29.9 1.4l-.5-22c-16.4-7.4-27-22.7-39.4-34-9.3-3-18.5-7.7-27.8-9.4-9 .2-8.5 8.8-8 15.6.5 8.4 1 21.3-10.6 21.5-6.8 1.5-11.8-1.8-16.3-6.5-2.8-5-.8-12.3-1.7-18.2 3.6-14.2-15-14.9-21.8-23.9-8.9-9.7-24.5-29.6-37.4-21 1.5 11.7 5 29.4-9.6 33.7-28 4.8-9.4-34.7-28.5-39.5-16.6-7.3-25.6-25.8-45-28-10-5.7-28.5-10.7-23.5 8 9.3 22.6-27.8 31.4-28 7.5 6.8-27-28-28.8-37-49.7q-35.9-14.2-73-25.3c17 13-13.2-.6-19-4.1a126 126 0 0 0-71.7-18.4 279 279 0 0 1-51.7-3c-43-4.9-76.6-34.5-112.5-55.5-26.3-16-51.1-34.8-79.3-47.4-55.7-18.7-116.9-17.7-170.3-44a1384 1384 0 0 1-80.3-40.2c1.3-3.4 14.5 5.4 20.7 7.9 39 19.1 77.3 40.9 120.2 50 33.8 7.7 68.4 11.5 101.8 20.5 37.4 14 68.8 39.6 102.8 60 33.4 21 67.2 45.3 108 47.5 22.1 3.3 44.7.5 67 2.7 21.5 3.5 43.9 21 60.2-1.4 23.9-18.4 49-35.8 72-55-10.5-7.8-28-10-40.7-16-53-18.7-105.7-38.7-158.8-57.4-16-1.4-27.3 15.9-41.3 22-20.3 12.7-39.4 27.8-60.5 39-3-4 8.8-7.6 12.1-11 25.6-17.3 51.7-33.8 76.8-51.6-9.7-9.8-36-16.7-51.7-20-29 18.6-57.6 38-87 56-.3-7.6 23.5-16.5 32.6-24.7 17-10.9 34.2-21.7 50.5-33.6q-55.5-22.1-112.2-40.5c-20.4 7-33.8 26.3-48.3 39.9 7 13.7-4.4 39.6-20.4 24.1-6.3-13-3.2-29.2-21.2-32.5a56 56 0 0 1-22.1-70.6c-14.1-6.7-2.2 22.8-12.8 29.6-5.6 16-32.7 18.1-21.8 39 2.2 14.8-20.7 19.3-24 4.5q-1.6-9.8-3.4-19.4c-17.8-4.8-31.2-20.5-39.5-34.2-8 1.5-8.5 7-6.5 14 .8 6 2.6 12.3-1.9 17.4-7 7.4-21.3 1.7-21.2-9-2.5-7 .6-18.2-9.4-19.3-10.5-6.3-19-15.1-27.5-2.3-6 4.4-14.5 12.2-3.3 15.4 3 2.3 7.4 3.2 8.9 7M2095.9 1335c-5.2-4-31.2-8.8-25-5.8 27.1 6.8 53.7 15 81.2 20.4-18.6-5.6-37-11.4-56.2-14.6m-382 105.9c-12 6.2-21.7 16.2-32.7 24-10.8 10-24.1 18-35.6 27.9-63.3 49.3-126.2 99.2-189.7 148.2q-53 42.2-106.6 83.7c-5.4 11.4 11.4-2.8 15.5-6.3 55.9-45 112.9-88.7 168.8-133.7 46.5-36.7 93.8-72.6 139.4-110.5 11-8.5 23-17 34-26.1 6.7-8.8 17.8-11.6 24.5-20.6l-9.6 5.6zm416-6c-14.8-6.4-31-9-46.5-13.6-2.4 2.3 21.8 7.6 30.4 10.3q17.2 4 34 9.2c76.8 21.3 153.7 42 230.4 63.5 11.5 5.7 13-3 2.1-3.3-81.5-21.8-162.9-43.9-244.4-65.5q-3-.5-6-.6m620.3-322c-11.2 13-25.8 22.4-38.7 33.4-16.8 5.9-35.3 30.9-29.2 42 22.8-16.7 44.7-34.7 67-52 3.2-14.9 4.8-30.1 13.7-43l9-15.6c-1.3-6.1-18 13-25.8 15-9.7 4.9-18.8 10.4-23.6 20.5-8.3 12.8-17.6 25-25.9 37.9 19.2-9 33.6-25.9 51-37.5zm-648.3 10.2c1 11.2-14.1 17.7-13 29 6.4 2.3 12.2 3.1 13.8-5 3.1-7 8.6-13.3 10.1-20.6-18.2-7.7-39.6-9.9-59.2-15-11.8-7.2-15 4.8-19.3 12.7-7.8 9.3-6 17.8 8.3 17 15.7 0 41 19.8 47.8-1.1 3.6-5.7 5-13.9 11.5-17M275.9 1243c18.7-10.6 37.2-22.4 57.5-29.7-16.4-2.4-41.2 8.2-62 6.8-16.6.6-33.7-4-51.6-3-29.2-.7-61 7-80 31-12.4 10.7-.5 16 9.8 11.4 6.8-.1 12.4-2.4 16-8.4 6.7-8.2 15.8-14.8 19-25.3 2.6 6.3 1.5 15.4 9.1 18.3 11.2 6.3 25.6 5.9 38.4 2.6 13.2-2.5 33.2-8.4 42.7-3.6-13.7 2.1-28.6.8-41 8 .7 11.3-5 31.2 12.2 28.1 10-7.1 13.6-27.4 27.7-34.5zM2580 899c4.9-20.5 22.8-35 38.5-47.7 15-11 31.9-19.4 48.7-27.3 2.2-4.8-11.4-4.3-16-6.8-27.2-7.2-54.8-12.8-82-19.3-22-.4-40.7 14.7-60 23.5-17 11.3-35.8 24.8-41 45.7 3.2 5.8 12.4 4.1 18.2 6.6a622 622 0 0 1 103.7 29.7c30.2 10.4 58 26.8 86.1 41.6 19-39 57.6-62.8 94.4-83.3 16-7-15.4-9.6-21.9-14.4-24.5-8.2-49.3-17.9-74.3-23.3-35.6 17.3-75.2 35.9-91.6 74.1zm-740-156c-1.7 6.4 10.2 3.7 14.3 6.3l35.8 7.6c22.2-7.1 41.5-21.3 62.4-31.6 12.9-7.2 26-14 38.7-21.4-30.6-6.7-61.7-11.2-92.5-17l-154-27.2c-44.3-6.5-87.9-17.4-132.2-22.3-13.1 3-25.6 11-37.5 15.4q-74.8-12.5-149.4-26.5c-7.8-6 26.3-11.2 6.4-12.9-7.2.5-29.2 10.7-25.8 13.6l177.4 32.3c12-4.5 23.5-14 34.3-17.7 37.2 7.4 74.5 14 111.7 21.4 69.4 13 138.7 25.8 208 39.4 5.2 4.5 37.7.3 25.4 8.4-16.9 9.7-35 16.6-52.1 26-11.3 3.5-21.4 15.4-33.3 13.4-16.6-3.8-33.3-6.7-49.8-10.3-14 1.7-30.9 14.6-40.4 20.9l52.2 11.2c-5 5.8-13-1.6-20-1.2-11-1.9-21.7-5.2-32.7-6.4-5.2 11.6 8.1 11.8 15.5 14.2 7.2.8 15 7.4 21.4 1.2 4.8-4.4 18.7-6.6 6.7.2-7 8.4-18.8 8.6-29 15.9-15.3 9-31.8 16.5-46.3 26.9-4.5 5.2-13.3-1.3-19.8-1.4l-46.9-10.5c-69.3 35.6-138 72.2-207.3 108-87.1 45.5-174.6 90.6-261.6 136.4-7 9-15.8 5.3-24.6 2.6q-81.7-20.5-163.2-41.9c-10.2-4-18.1 5.3-27 8.7l-49 25.4c-.7 8.8-9.5 1.9-14.8 1.7L558.7 951c-15.6-4.4-31.8-7.7-47.1-12.8 9.4-9 32.8-14.3 47.7-22 19-7.6 37.6-16.4 56.7-23.4 46.2-.1 92.3.2 138.5-.2 14.3-4 30.4 6.2 45.8 7.8q48.7 11.4 97.3 23.5c17 2 31-12.5 47.4-14.8 107.7 25.5 215.1 51.6 322.8 77.2 5.6-3 12-1.4 17.6-5.8 60.3-31.4 121.5-61 181.5-92.6-109.3-24.6-219-47.4-328.5-71.4-63.5-12.8-126.5-27.9-190-40.7-11.8-.6-7.5-7.5 1.4-9.3 14.4-6 28-13.7 42.7-19 8.3 6 28.8 2.4 42.8 3.3 25.9-.2 51.8 1.2 77.5-2 16.1 0 31.4 6.4 47.3 8.7 71.6 15.3 143.5 29 215 44.6 6.3-6.7-12.4-7-17.5-9q-60.5-12-120.8-25.2L1133.6 746c-31.3-5-63-2.2-94.6-2.9-19.7-.6-39.4 1.1-59 2.2l-69.8 27c2.2 4.2 14 3.7 20.2 6 80.7 18 161.7 35 242.5 52.5 59 13 118.1 25.1 177 38.4 29.8 6.8 60.2 12.2 89.6 19.9-2 4.8-11 6.4-15.8 10-52.4 28-105.5 54.5-158.5 81.2l-323-78.8c-13.4-2-23.9 8.8-35.5 13.7-11.3 8.4-25-3.7-37.3-4.4-34.2-8.6-68-18.8-102.4-26.7-29.3-4-58.6 2.1-88 .8-16.8 0-33.7-.5-50.4 2-23.3-2.7-43.4 10.4-64.6 17.8-28.5 11.8-58 21.9-86 34.8 130 35.3 260.3 69.3 390.3 104.7 25.5 6.5 51 14 76.6 19.8 12.3.3 21.8-8.5 32.7-13.2 19.5-9.6 38-21.2 58-29.9.8 7.6 10 6 15.4 8.6 52 13.9 104.3 26.7 156.3 40.4 7.6-4.2 13.3-2.4 22.1-7.5Q1394.3 975 1560 889c42.6-21.7 84.5-45 127-66.8 4.7-10.8 14.4-.5 22.8-.3 13.7 2.6 27.2 7.4 41.2 8.1 6.5 2.3 12.1-1 18.3-4.9 30.9-17 62-33.7 92.4-51.4 10.6-6.8-16.9-5.8-22.9-9.5-9-3-40.4-3.8-16.7-12 5.7-3.4 11.2-8.2 18-9.1M918 1289c0 7 8.4 6.1 13.3 8.3 9.6 2.5 19.2 6.5 29 8 .7-12.4-1-28-.9-41.7-2.8-16.4-.9-33.2-3.4-49.6.3-20.7-2.2-41.2-2.7-61.8-1.9-18.4-1.6-36.9-3.4-55.3l-.4-23.6c-16-10.7-35.8-12.2-53.7-18.2-138.3-36.6-276.2-74.8-414.6-111-17.3 1.9 6.2 7.4 11.6 8.2 18 5.7 37 9.5 54.7 15.3 12.8 3.5 26 5.7 38.3 11-4 11.5 12.1 41.8-6.2 38.2-13.5-6.6-36.8-3.8-43.9-17-1.3-13.7-.7 10.5-10.2 2.3-15.3-3.6-30.1-9.8-45.8-11.1 3.1 42.6 9.1 85 13.2 127.7 3.1 9.9-.4 29.5 5.8 34 .1-10.1-1.3-20.7-2.7-31 .3-17 23.2 2.5 34.1 2.3 14.1 4.9 28.2 8.5 42.2 12.8 9 3 18.6 5.1 27.3 8.8 4.8 12.2 1.3 28.1 3.5 41-15.6 3.7-34.4-9-50.8-12.4-.4-4-1.3-19.1-2.5-7.8-1.5 15.2-25.7-4.5-35.6-4-7.7-6.1-24.2-2.7-11 4 6.7-6.8 8.5 6.4 16.6 5.3 99 30 197.9 61 297 90.6 31 9.5 61.8 19.3 92.9 28.4zm557.5 511.5c13.7-14.5 35.9-6 49.6-15.2l61.3-50.5c1.3-15.1 26.5 5.2 37.5 5.3 142.8 46.8 285.3 94.6 428 141.7 20.7-.3-7.1 16.7-11.8 24.8-13.5 15.2-29 28.6-41.9 44.4 28 8.7 45.7 38.2 45 66.6.7 5.8-4.5 15 .2 18.3q47.4 18.3 95.4 35c20.2.9 28.5-28.9 43-41.6 79-101.8 159.7-202.3 238.6-304-1-6.6-11.7-5.4-17.1-8.3-76.2-22.5-151.9-46.7-228-69.2l-45.7-14c-17.9 4-34.3 20.6-54.7 22.7-19 2.8-38.5 6-57.6 2.8-30.6-2-61.8-11.5-85.8-31.1a43 43 0 0 1-13.6-57.8c-36.4-12.8-73.7-23.1-110.6-34.4-49.5-14.5-98.7-30.5-148.3-44.7-34.5 25.7-67.8 53.1-101.8 79.5-53.5 42.7-107.4 84.8-160.9 127.5-13.7 11-28 21.3-41.3 33 1.1 12.2 13.3 31.5 15.3 43.8 13-14 30-27.3 50.5-24.7 26.3 1.2 47.2 22.8 53.7 47.6zm447.4-238c15.3-9.2 31.2-18.9 49.2-22.4 43.3-8.7 90.5-3.7 129.4 17.7 17.1 10.4 36.4 26.2 34.9 48.3-6.2 12.4-6.2 21.7 6.8 22.7q142.5 42.9 285.1 85.6c19.3-22 36.5-46 55-68.7q47-60.1 94.3-120.2c11.6-15.3 24.9-29.6 35.3-45.8-12-6.5-27.1-8-40.3-12.4-37.4-10-74.7-20.7-112.3-29.8-9.6 1-14.8 13.7-22.7 19-14.2 17.5-31.3 32.7-45 50.4 8.5 2.6 31.8 12 12.4 7.6-53.5-14-106.6-29.4-160-43.8l-261.1-71.5c-13 6.7 2-7.2 6.9-10.7 22.5-19.9 46.1-38.5 68.6-58.3-14.2-6.5-30.1-8.7-45-13.3-34-8.7-67.6-19-101.7-26.6-39.3 30-77.6 61.4-116.8 91.6-41.8 33.5-84 66.4-125.8 99.8-1.2 9.2 16.8 8.4 24.6 12.3zM545.5 944.1q111.6 29.5 223 59.3 89.8 23.7 179.6 47c28.4-13.8 55.6-30.5 84.6-43 7.2-1.1-8.5 8.4 5 6.9l168.9 43.8a93509 93509 0 0 1 439.9-229.4c13.6-6.4 26.7-14.6 39.9-21L1749 821q30.8-16.4 61-33.7c-3-9.5-26.3-7-32.2-13.5 8-5.1-.2-19.6 14-20.8 11.6-4.2 21.5-15.1 32.7-17.3 18.1 3.7 36 8.6 54.4 11.3 11.1-.7 20.3-8.7 30.5-12.9 8.4-4.8 18.5-7.7 25.1-14.7-3.8-3.6-12-3-17.6-4.7-99.3-17.6-198-38.7-297.4-56.5-12.6 5.2-25.2 14-37.7 16.8l-184-33.7c-7.6-8-16.3-12.9-29.5-9.9-12-2.5-25-3.4-36 3l-78.7 32.5c144.6 26.2 288.8 54.3 433.3 81.2 11 5.1 40.1 2.5 41.3 11.2-54.8 27.3-109 55.6-163.4 83.8-10.2-.1-32-11.6-23.1 7.4 5 1.4 26.2 8.6 13.5 7.5-7.8-3.3-18.2-5.7-14.8 6.1-14.9 12-35.9 19.1-53 29.3-10.3 5.1-18 13.5-28.8 17.7-60 31.6-121 61.6-181.2 92.7-3 11.4-17.1-1-25.3-.7q-155.8-37.9-311.6-75.4c-13.3 5-26.2 15.8-39.1 18.7L767.9 912c-4.4 9.7-7.3-4-14.6-.7-27.7-.5-55.5.8-83-1.2-21.2-1.3-43.6-3-63 6.7-20.5 8.7-41.3 16.5-61.4 26Zm1426.9 58.2c-28.8 18.9-58.8 36.7-86.9 56.3-1.7 12.8-10.8 2.4-19.8 4.6-14-.9-.4 22-16.6 22.7q-47.4 31-94.6 62.2c-8.6 10.8-7.4 17.6-14.3 5.2-22.2-6.8-45.4-10.7-68-16q-127.6 83-254.1 167.1c-8 6.6-20.7 16.9-24.4 20.3-4.5-8-14.9-7-22.4-10.5-11.4-1.7-23.6-12.2-34.5-7-32.5 21-65.6 41.3-97.6 63.1-3.5 15.7-1.3 39.9.4 56.7 10.1 1.8-13.8 12.2-17.4 15.5-9.7-7.7-28.2-6.4-16.5-16.7-.3-17.2.6-34.6-.4-51.7-6.2-5.6-16.4-6.4-24.5-9.6-41.5-12.7-82.8-26.3-124.5-38.7l-132 77.3c-4 9.5-13 1.2-19.6-.3-12.2.9-.6-11.3-9.2-11.6-11.6 9.5-32.4.8-34.4-11.5-5.2 3.6-10.2 9.2-16.5 4.5l-20-6.8c.2-13.9-9.5-11.7-17.2-5.4l-21.8-7.8c-1-15.6-10-2.3-17.6-4.4l-21-8c-.5-17-12.2 4.6-20.8-5.2-9.6-1-15.6-7.2-15-16.8-7.4 10.5-16 7.6-26 3.2-5.8-2-13.2-2.7-11.4-10.7-1.8-10.7-16.2 9.3-23.8-1.5-5.2-2.9-13.1-3.4-12.8-11-5.2-1.7-17 7.2-25-.8-8.6-6.4-11.7-10.6-21.5-6-6.9-3.7-16.8-3.7-20.6-11.6-5.6 5-11.6 2.5-17.6-.4-8.3 1.1-7.5-10.6-11.5-10.3-7.2 7.3-20.9 2.2-24.7-5.5 2-13.5-6-11.5-15-4.6-11.5 7.5 14.3 8.5 19 12.4 113.6 36.8 226.8 74.5 340 111.9 132.1 42.4 263.5 86.7 395.5 129.4 2.7-6.9 10.6-1.9 14.6-8l550.8-382 188.1-130.3c6.1-6.5-9.7-4.8-14.2-7.3-6.4 0-16.8-7.9-16 2.6-.5 8.4-3.7 16.4-6.7 3m-371.9-17.5c-4 29.2-1.7 58.8-2.5 88.2-3 8.8 6.4 17.3 1.6 22.8-.9 7.8-4.8 20.4-6.5 6-17.5 4.6-37.8 21.9-56.3 31.4a9762 9762 0 0 0-101.2 62c-31 23.3-50.4 58.5-80.4 83-35 27.8-75.7 47-113.4 71-8.5 9-22.5-3-17.6 15a406 406 0 0 0 1.7 51.7c-2.7 8.1 3 26.8 8 11.4-.1-19.4.5-38.9-1.8-58.1-1.2-15.2 2.7-4.4 8.4-4.4q81.1-51.8 161.6-104.6c9.5 5.4.2 34.7 7.8 45 64.5-42.8 129.6-84.5 193.9-127.5l74.4-48.5c10.3-12.6-3.2-10.8-10.8-2.5-19.2 12.5-38.7 24.6-57.7 37.4-13.6 15.6-7-21.2-7.3-29.7 25.2-14.5 48.9-32.6 74.3-47.1-3.6 9.3 3 39.1 7 16.2 1-26.9-1.5-54 2-80.6.2-22.3-.1-44.7.7-67 2.6-18.5 1-37.6 1.5-56.3-1-14 3.1-27.5 2-41.5-.3-10.7.6-21.5-.6-32.2-43.6 21.4-86.1 45.1-129.4 67.3l-330.4 172.9c-7.5 2.3-10.7 6.5-6 10.3-7.9.5-4.8 8.8-5.5 14.3.7 24.5-1.2 49.2 1.7 73.6 3.9 12.9 21.6-8.2 31.5-10.4l314-176c-.1-4.3-8.5-5.1 2.2-5.1a17 17 0 0 1 16.3 3.4c5.6 3 12.1-.3 16.2.7 3.3 3.5 7 5 .6 7.9m-168.3-93.6c-17.2-5.8-35.5-8.1-53.2-12.5-92.7-20.3-185.6-39.8-278.2-60.3C1038 804.8 975 791.7 912.4 778c-12 1.6-1.4 21.3-4.4 31.8-.4 17.3.8 34.6 2 51.8.4 14.1-.5 28.3.7 42.3 11 6.2 22.7-12.6 35.7-4.2 103.5 25.3 207 50.4 310.4 76.2 19.6 1.1 35.2-14.6 53-21.6 40.5-21.4 82.1-41 122.4-63m740.4 446.5c-57.1-16.3-115.2-29.7-172.6-45q-72-18.3-143.7-37.1c-8.4-1-13.7 7.7-20.6 11.4-54.6 40.5-109.4 81-163.2 122.4-8.8 7-5.8 32 6.9 15.3 2.7-4.2 18.7-9.2 4.6.8-12 6.4-16.2 18-28.2 21l-120.7 91c8.2 2.4 12.8 6.9.4 4.2-2.8 6-15.5 4-10.6-3-25.5-14-42.8 20.2-64 30.3-49.7 38-100.3 75-149.4 113.6 5.2 7.6 1 6.2-6.8 4.9-10 9.4-30.8 18.2-33.6 29.2 12.5 8.4-6-.8-10 3.8-28.8 21.7-58 43.3-86 65.8 3.3 4.4 11.9 4.7 17.3 7.5 21.4 7.3 42.5 15.3 64 22.3 5.4-3-1-12.4-.9-18.2a55 55 0 0 1 16.2-47c14.8-15.8 39.6-23.5 59.4-12.3 7.7 4.7 15 7.5 21.1-.5 78.7-61 156.6-123 235.3-184 102-81.3 206-160.4 308.3-241.5 14-4.6-10.7-11.8 5.5-8.9a48 48 0 0 1 30 4q111.7 29.6 223.6 58.4c12 .5 19 10 17.7-8.4m-74.2-373.1c29.2 19.9 65.4 24.2 99.8 26.3 22.4-.8 44.6 1.5 67 2.6q54.3 7.7 108.5 16.4 64.9 10.3 128 28.6c42.5 13 83.4 31 126 43.5a413 413 0 0 0 82.1 12.8c19 5.1 28.7-9.2 33.7-25.8 7.7-15.2 7.7-43.5-26.4-28.6l-28.3-10.5c3.2 14-7.8 14.6-19.2 18.1 15.5-6.6 2.8-12-6.4-15.1-84.8-37.8-176.7-52.9-267.2-70.6-40.5-7-80.9-14.8-121.9-17.5-19-2.5-38.3-3.8-57.4-5.5-15.6-.7-31.2-1.9-46.7-2.4-12.7-3.5-41.7 4.6-25.8-16.9a81 81 0 0 1 45.2-36.8c29.1-4.2 58.3-10.3 87.8-10.8 24-2.6 48.4 1.8 72.5 3.7 30.8 3.5 61.7 6.5 92.1 13.2 14.2 1.4 27 6.2 40.8 8.9 36.4 9.2 73.5 17 107.8 33 32.8 14.6 65.8 32 91.8 57.2 9.5 12.7 1.6 35.4 16 42.3 13.9 4.1 36.3 17 47.5 8.2-2.1-35.5-30.9-62.2-58.6-81.4a477 477 0 0 0-128-61.5 726 726 0 0 0-108.7-25.5c-35.8-3.2-71.5-7.1-107.3-9.7q-26.8-2.1-53.7-3.3-20.3-.6-40.5 2c-41.6-.1-86.9 10.7-113.9 44.3-16.3 16-30 35-36.4 57.1zm-503 21.2c-30.6 15.4-59.6 34-89.5 50.7q-75.3 43.2-150.3 86.9c-41.9 24.1-84.3 47.5-125.3 73-1 23 2.6 46 1.9 69 3.9 19.6-.3 39.9 3.5 59.5-1.4 12.8-.4 28.7 12.8 16.5 39.3-25.1 82.8-44.9 116.9-77.1 15.3-17.9 30.3-36 46.1-53.3.2-9.4 10.4-11 16.7-15.9 55-33.4 110.6-66 165.1-100.3 1.4-31.5-1-63.2 2.5-94.6q-.1-7.2-.5-14.4m495 21.7c54.8 39.3 122.2 47.1 186.9 56.2 47.3 5.3 94.2 13.4 141.1 21.6 50.6 7.3 99.3 23.9 148 38.7 40 14.3 81.7 31.3 125.1 25.8 13-16.4 25.2-33.7 35.4-52-23.7-1-47.5-1.3-70.7-6.7-45.1-7.6-87.2-26.2-130-41.1-36.2-13.3-74-21.3-111.4-30.1-35.1-6.7-70.6-11.4-106-16.9-23-5-46.3-6.1-69.7-7.1-16.8-1.3-33.7-.6-50.3-2.6-32-2.4-64.6-8-92.3-25.3-3.5 12.9-7.6 26-6.1 39.5m521.5 221.3c7.8-15.8 17.2-31.8 31.1-43-23.1-6.5-47-10.3-70.4-16-18-2.3-30 16-40 28.5-1.6 8.3-18 13.5-9.7 2.7 6.5-12.3 22.8-28.7 26-35.9-25.8-6.6-52.1-11.5-78.1-17.4-16.6-.5-27.7 16-37.6 27.4-2.3 11-29.2 17.7-4.7-6 4-10 20.5-20 20.4-26-22.8-5.5-45.9-10-68.8-15.1-19.5 5.4-29.9 32.5-45.6 36.6 3-16.4 27.3-28.9 28.4-39.8-24.8-6.7-50.2-11.1-75.2-16.9-21.2 3.5-32.5 24.5-48 35.7 1.6-12.5 14-26.3 25.4-34.3 10.6-9.5-17.8-7.6-25-11.7-20.3-5.1-44.7-13.3-59.2 9.6-6.5 6.1-12 13.3-19.6 18.2-4.3-12.6 17-27.6 28.4-35.8.6-5-13-5-19.1-7.2-16.2-3-32-8.4-48.4-9.1-18.3 3.3-27.5 22.2-42.7 31.3-16.1 10 5.5-18.3 9-20.6 6.6-6.6 27.6-16.6 8.6-17.4-18.6-4.2-37.3-8.8-56-11.3-20.9 4-37.5 22.2-50.3 37.3 19.2 8.1 40.5 9.2 60.3 15.5 24.9 6.4 50.4 10.1 75.2 16.7 36.4 9.1 73.3 16.6 109.8 25.3 106 23.8 211.9 48.7 317.8 73l140.8 32.2c22.8 10.8 19-23.1 32-34.2 5.8-7.7 20.9-17.3 1.4-17-15.9-2.5-31.6-8.2-47.9-10.2-19.7-8.4-41.8-3-52.2 18.6-4.8 5.9-7.7 14.8-16 16.3M1193.5 666.2c-3.2 9.9-.9 21-1.6 31.3.2 18.3-.3 36.5.3 54.7 3 7.2 13 5 19.4 7.5 54 11.2 108 23 162 33.6 5.8-3.2 4-20 11.6-10 23-9.3 44.6-21.7 67.6-30.7 5 1.5-12.4 9.4 1.8 8.9q38 7 76.2 13c21.5-4.4 3.4 23.6 9.1 35.7-4.3 13 5 16.5 15.2 18.7 16.3-6.8 32.5-16 48.7-23.8l85.6-42.9c-14.4-5.6-30.3-6.4-45.4-10q-111.2-21.5-222.4-42.7c-74.8-15.2-150-28-224.8-43.4zm675.7 108-105.8 58.5c2.7 8.3-12.6.5-8.5 13-2.1 26.8 0 53.9-1.4 80.7-2.7 20-1 40.4-1.6 60.6.8 17.3-3.2 34.2-2 51.5 1 26.6-1.2 53.1-2.3 79.7.6 11.2-3.7 38.3 13.5 21.5 30.3-19.5 60-39.8 90.2-59.4 9.4-10-3.1-19.4 4.5-27.3 1.1-23 2.7-46.2 3.6-69.3 1.5-28.1 2.5-56.4 4-84.5q2-40.5 3.7-81c2-14.5 0-29.3 2.1-44M805.4 1366.6l-2.8-46.9c2.7-7.1 12.7 1.2 18.6 1.4 7.5 10 2.8 29 6.5 42.5-6.5 12 21.2 23.2 20 10.2-.8-14-5.3-33.9.9-43.7 5.8 3.1 18.4 1 17.6 10.1q.1 23 2.8 45.6c12.3 12.2 16.8-2.5 12.8-13.9 0-10.5-1-21-.8-31.6 25.3 0 20.9 26 22.3 44.2-6.3 13 16.8 27 14.2 7.9.8-16.4-3.2-32.6-1.7-49-4.4-19.6 7.6-52.2-20.7-53.9-60-18.4-120.3-36.4-180.3-55.2q-98.6-30.1-197.3-60c-13 .7-.8 23-3.2 32.5 2.2 16 1.2 33.6 5.9 48.8-2.9 7.3.7 31 11.2 19.6-1.4-14.4-1.2-29.1-3.5-43.3l.9-1 17.7 5.7c.4 13.6 1.9 27.2 1.5 40.9-2.2 12.2 17.6 13.7 11.6-.3 2.1-12.2-9-43.3 12.2-33.6 6.7 9.1 3.3 22.2 4.3 33.3-2.5 8.6 5.2 23.7 13.3 17 1.4-14.2-1-29 1.2-43 8.4-1.7 19.3 4.6 16.3 15.4 3.2 12.5-5.7 44.6 14.5 37.7 2.4-14.6-2.9-31.9 1.1-44.6 5.3 3.3 16.5 2.1 17.1 8.8 2.6 14.7-3.2 36.7 7.8 46.8 17.5 10.3 6.1-18.2 8.4-27.4 1-6.4-4-26.4 9.6-14 12-1.3 10.4 9.1 11.3 17.5 2.8 12.1-2.2 26.4 5.6 36.6 6.7 1.2 19.2 10 15-3.8-2.5-13-1.1-26.5-2.2-39.8 9.4-4 5.2 23.6 7 30.6-2 9 1.3 20.2 9 9-2.8-11.3 4.2-29.8-8.2-36.2 21.7-2.7 8.8 31.9 15 45.8 1 12.4 19.4 12.7 13.1-1.4 1.4-9.6-8.8-40.4 6-36.9 6.3 1.6 14.2 2.7 12 11 1.6 12.9.1 26 2 38.8 3.4 8.4 22.6 14.7 16.8-1.9-2.5-14.1-8.4-49.2 15.5-32.8 6.3 14.3-.5 38 8 51.9zm259.2-213.8c1.7-10.7 5.7-8.2 13.1-7.8 8.9-3-14.9-11.6 5.4-6.3 10-3.4 15.5 6.8 25.9 6.8 35.4 8.8 70.6 18.9 106.3 26.6 1.4-19.6-2.5-39.1-1.5-58.7-.3-12.5.6-25.1-1-37.5-45.8-14.3-92.8-24.6-139.1-37-12.7.2-35.2-16.7-41.6-3.6 3 20.1 1 40.4 3.8 60.4-.6 25.5 1.7 51 3 76.4 2.2 18.4 0 37 2.7 55.3-2 13.7 4.8 30.5.3 42.6-5.8-12.4-20.8 8-30.5 10.5-8.3 7.3-42 19.1-16.2 23 20.1 6 40 12.7 60 18.5 6.3-3.2 15.5-7 6.5 2.2l142 44.4c8.4-10.4 6.3 6.5 6.5 12.8.3 17.4-.7 34.8.7 52.2 20 8.4 7.2-26 10.9-37-3.7-15.3-.3-31.2-3-46.6l-139-42c-5.7 4.6-14.7-7.7-16.3-7 15.2 5.6 7.4-11.6 8.3-20.6q.3-28.5-2-57c.1-17.3-.1-34.6-2-51.7-.4-6.6 1.8-13.6-3.2-18.9m468.2 642.7c19 10 29 30.4 33.3 50.4 11.7-5.8 24.7-22 41.8-20.4 25 4.5 10.6-25.8 20.3-36.6 9.3-15 26 4.9 38.9 5.2 45.2 15.9 90.7 31 136 46.7 14.5 6-2 28.2 7.7 38.7l70.7 24.6c-5.6 13.3 22.3 14.5 25.2 28.6 14 16.2 12 41.5 14.5 58 7.4-7.5 14-25.5 27-31.7 12-11 31.2-6.2 41.8-17.7 15.6-16.4 32.7-31.5 47.3-48.6-16.8-9.8-37.4-13.3-55.7-20.7-126.5-43.2-253.6-85-380-128.4-18 2.1-30.4 21.8-45.6 31.4-7.8 6.7-15.9 13.2-23.2 20.5m442.7-809.7c-.2-14.3 1.2-28.4 2.2-42.5.7-29.3 3.8-58.4 5-87.6 1.8-20.1 2.4-40.4 3.6-60.5 1.5-20.6 3.3-41.2 3.8-61.9 1.4-9.2 6.4-32.4-7.8-20.1l-81.9 44.1c-12.5 17.2-2.7 40-7.4 59.5-2 21.4.2 43-2.9 64.4.7 17.7-.8 35.3-2 52.9 0 15.6.2 31.2-1.8 46.8 0 24.5-.9 49-1.4 73.4 29.7-19.1 60-37.4 89.2-57.4-1.8-4.9-3.5-7.5 1.4-11.1m-749.6 208.8c-26-8.8-53.2-14.3-79.5-22l-68.7-18.4c-10.8 4.3-4.4 26.8-4 38.5 1 19.6-.8 39.4 2.3 58.8 3.3 17.3-7.6 44.6 8.6 54.8l132.9 40.1c6.1-7.2 16 13.2 14.1-5.5.5-22.6-2.6-45.1-2-67.8-3.2-19.5-.3-39.5-3.6-59zm886.5 195.7c8.1-13.2 31.7-25.7 32-37.7-25-7.9-50.6-14.2-76-20.5a4628 4628 0 0 0-68 59.7c-1.7 7 12.1 6.1 17.9 9 96.3 26.2 193 51.4 289.3 77.5l76.5 20.5c15.1-13.8 27.8-30.1 42.2-44.7 5.7-6.8 13-12.3 16.8-20.4-28.3-9.8-58-16-86.8-24.4-8.6 4.3-29 20.1-24 27.4 12 1.7 14.3 8 2.3 4.5-.5 7.4-12.2.4-18.2-.2q-95.7-25.3-191.9-49.1-6-1.1-12.1-1.6m567.8-443.6c18 16 41.3 29.4 54.4 51.3 12 11.9 10.8 36.3 20.3 44.4 34.6-11.8 55-44.6 81.5-67.7a67 67 0 0 0 13.7-40.6c.6-27.9-17.2-56.3-44.3-64.7-13.7-7.3-28.6-12.6-41.2-.5-32 19-66 39.9-83.3 74.3zM1686.7 1127c-11 6-11 9.8 2.9 11 17.4 3.4 34.4 9 52 11.1 4.7-1.7 1-12.2 2.2-17.6-.7-22 2.7-44 2-66 .2-18-.7-36.2 1.9-54 .3-30-1-60.3 2-90.2.5-26.4-1.1-52.9 2.2-79 .5-10.5-10.9-9.2-18-11.6l-38.8-9c-2.6 18 .5 36.6-3 54.5-.7 25.6 1.5 51.4-2 76.8q.2 34.2-.4 68.3c-3 19.6-1 39.6-1.7 59.4 1 15.6-3.2 30.7-1.3 46.3m-650.1 133.6c3.9-24.3-1.8-49.2-1-73.8 0-17.8-2.4-35.4-2-53.2-3.2-25-.6-50.2-3.8-75.2-.4-9.1 3-36.5-11.7-24.7-20.6 11-41.8 21-62 32.9-6.3 13.7-1.3 32.8-.9 48.4.7 18 1.2 36 2.7 54 .4 30.4 3.8 60.6 4.3 91 3.4 13.8.2 28.2 3 42 7.8-.3 13.7-7.3 20.7-10.5zm1175.9 856.3c-18.7-10-39.4-15.5-59-23.4-39.9-14.4-79.2-30.5-119.6-43.3-4.8 11.4-27.7 21-27.6 26.4 75 27.6 149.8 55.6 224.8 83.1 17.7 4.3 23.3-23.3 35-33.7q38.2-52.5 76.2-105.2c5.8-15.5-12.6-34.1-4.8-52a76 76 0 0 1 41.3-51.6c-1-9.4 11.3-30.5 8.3-31.5l-161.8 214.8c7.7 8.4-7.9 2.4-8.3 12 8.2 6.6.4 2.5-4.6 4.4m-.5-5.5c26.8-34.1 52.3-69.3 78.9-103.7 39-53.7 80.3-105.7 119.5-159.2 64-85.8 129-170.8 192.7-256.6 25.3-33.9 51.4-67.1 75.7-101.7-1.7-6.1-12-4.5-17.3-7.2q-165.3-44-330.8-87.4c-9 3 8 5 12 6.6 35.6 9.8 71.4 18.7 106.6 29.3-12 17.6-28.5 32.1-42 48.8-5.5 4-16.8 20.4-5 9q25.6-27 50.5-54.3c5.8-4.6 13.7 1.8 20.4 2.4 46.6 12.4 93 25.3 139.6 37.5 10.2 5.5-4.6 14.7-8 21.6-56.4 72-112.5 144-169.3 215.6-10 13.8-32.2-6-47.2-6.3q-120.5-36.7-241.1-72.6c-6.9-3.6-25.3-3.3-18.1-13.8 8.7-19.2-1.9-41.3-18.9-52-35.1-25.2-81-32.6-123.3-26.8a121 121 0 0 0-63.5 27.6c-21.4 29.1 7.1 65.3 36.8 73.9a186 186 0 0 0 130.7 6c15.4-1 25.3-22.6 40.1-17 94.8 28.6 189.5 57.6 284.3 86.1 22.4 1.6.5 17.8-5.6 27.5-74.7 95.4-150.1 190.3-224.6 285.9-12.8 15.5-24.2 32.4-38 47a11317 11317 0 0 0-104-38.2c-15.5 3.3 6.4 14.6 15 15.4 51.3 18.7 102.3 38.8 154 56.6m-835-1291c-21-6.7-43-9.5-64.5-14.5-60.7-12.5-121.2-26-182-38.4-36.2-4-72.8-1.2-109.3-2.1-14 1-29.7-3.8-41.4 6.5-17.2 9.3 16.6 9.3 24 12.8 123.3 26.5 246.4 53.7 369.7 79.7 8.2-9.2 3-30.6 3.5-44m1177.4-24.7c-33.5-8.6-68-13-102.2-18-40 .3-81.8 17.3-109.6 46.8-8.9 10.1-30.8 38-3 32.4 18.4 3.2 37.5 2.2 55.8 5.6 21.8.3 43.4 4.8 65.1 6.2 10.4-11.6 16.4-30.2 31.6-39 18.3-15.4 41.3-23.3 62.3-34m118.7 687c9-7 4.5.3 11.2 3.5 4 3.2-6.1 9.5-7.7 14-46.4 62.1-93.4 123.7-139.5 186 9.4-3.6 16.3-9.5 18.7-19.8 10.3-22 37.9-27.4 41.7-53.5a58 58 0 0 1 55.2-24.5c19.4-22.2 35.4-47.5 53.5-71 5.6-11.9 27.1-28.9 23.8-38.3a54482 54482 0 0 0-396.7-101.9c-16 1.7-1.7 22.3 10.7 19 21 3.2 40.9 11.9 61.7 16.1 16.4 2.2 33.3 12.2 49.2 10.5 3.5.9 5.8 4.7 11.8.9-1.7 10.2 20.1 6.9 27.6 11.8 42.4 11 84.6 22.7 127.2 33 15.5 2.4 29.7 9.9 45.3 12.5zM1924.8 2001c-2.6 25.4 11.8 62.4 38.3 67.4 6.2-9.7 4.1 13.3 14.2 5.9 10.5 1.7 13.6-7 22.8-2.6 16.5-2.5 25-17.5 32.7-30 2.8-12.8 8-26.6 3.8-40.5-4.2-21-18.8-41.4-40.7-46.2a62 62 0 0 0-36.2 1.8 63 63 0 0 0-33.7 41.8zm343.8-797.2c-13.7 23-24.4 48.2-37 72.1 2 5.1 11.8 3.8 17 6.2 11.8 2.6 23.4 6.4 35.3 8.1 5.7-2.4 6.8-11.2 10.6-16.3 3.9-4.8 5-15.5 11.6-15.3 14.6-4.2 31.2 6.8 46.5 8.8 19.9 1-6.4 23-6.5 35.3 5.2 7.5 30.5 12.3 40.7 11l32-73.5c-2-5.6-12.4-4.1-18-6.7q-35.2-7.5-70-16.2c-12.6.3-27.3-8.3-41.8-10.2-6.7-1.1-13.6-4.5-20.4-3.3M1864.1 1911c-29.8-4.4-54.1 19.7-61.3 46 2 13.4-5.5 30.3 7.3 43.6 6 10.2 18 28.2 30.2 24.8 4.8-4.6 5.3 12.5 15.6 6.9 11.4.8 11.3-8.4 19.6-2.4 12.6-2.1 33.1-16.9 28.4-29.1-2.2-2.6 15-1.3 6-12 15.1-22.6-3-59.8-26-71.9-5.9-7.4-19.4 6.4-19.8-6m575.9 106.6a60 60 0 0 0 14-42.9c2-32.8-32.9-64.2-65.5-54.6-9.5 5.5-22.2 4.7-30 16.8a66 66 0 0 0-5.6 81c4.3 15 23.2 16.4 29 16.5 4.2 8.7 23.1 8.9 24-3 4.8 14.7 26.5-3.6 28.4-11-4.4-8.4 2-4.3 5.7-2.8M585.6 1479.8c-9.9-24.3-34.6-37.8-58.7-44.7-47-17.5-94.7-33.7-142-50.5a851 851 0 0 0-68.2-25.5c-14-1.2-10.3 8.8 1.4 10.2 18.7 7.9 37.9 14 54.8 25.2 38.3 18.2 67.5 49.7 100.4 75.5 8.2-5.2 6.7 13 16.5 12.6 22 15.5 52.4 30.6 78.2 15a60 60 0 0 0 17.6-17.8m-109.2-2.5c-20.9-15.8-39-35-60.5-49.9 2.6 9.3 3.5 52-1.6 24.4 1.2-16-1-34.2-18.5-40.3-10.5-4.8-29.4-22.6-37.1-17 3.3 14.5-.7 35.1 16.6 41 43.7 29.7 76.4 73.4 122 100.5 26 14 58.3 23 87 11.1 5.6-10.6 2.5-23 5.4-34.4 2-8.4-1.4-37-9.3-19-2.3 11-3.6 54.3-5.3 18.8 0-4 3.4-16.6-3.5-12.2l-20.8 8.5c0 9.8 1.7 19.9 1 29.9-2 18.3-5.1-1.5-4-9.6.1-10.8 1.6-25.7-13.9-22.4-19-1-36.8-19.5-51.5-20.8-.2 11.1 4.6 22.1 4.7 33.2-5.5 0-3.5-11.6-5.8-16.5zm1135.3 351.9c-24.5-.3-45.7 20.1-50.5 43.5-5.6 13.5.3 28.8 6.4 41.2 6.5 10.2 17.9 24.8 29.8 24 5.1-7.9 4 8 11.9 5.7 5-.4 13.5.5 14.8-6 10.8 6.3 25-5.3 30.4-15 3.9-9.2 4.4-12.8 9-18.8-7.6-8.3 6.1-8.4 2.3-19.5-1.4-22-15.2-46-37.8-51.2-5.6-3-11.4.3-16.3-4m187 115.4c6.7-20.9 3.6-46.7-12.7-62.3-19.1-7.9-43-24-63.2-11.7-14.3 9.4-26 25-27 42.4-.8 14.8 3 32 13 44.6 5.9 10.6 20.2 16.5 26.8 14.2.5 10.2 18.7 8.7 23.5 2.5 8.9 6.6 27.9-6.6 28.6-16.4 9-.7 5.2-10.5 7.7-12.7zm-469.4-118.2a50 50 0 0 0 29.6-30c7.4-22.6 2.9-51.6-17.7-65.8-12.7-13.8-35.7-15.2-52.1-7.5-14 8.2-40.7 34.9-16.4 44-23.7-8.7-10.5 21.7-5.3 33 7 12 21.7 28 34.3 23.2 2.8 10 19.4 5.5 24 1.4zm36.8-32c-7.1 25.3 12.6 68.3 39.3 65.8 3.3-2 6.6 11.6 16 6.1 8.6.2 7.7-11 17.2-3.7 21.2-3.7 7.3-28 18.6-41.3 28.4-25.7-6.3-67.4-39.2-67-21-.7-43.3 15-48.4 34.5 2.5 3.3-1.5 3.9-3.5 5.6m946.6-856.2c24.4 4.4 49.4 5 74 9 20 .2 40 8.8 59.7 6.8 3.7-14.6 4.5-30.2 6.7-45.3 4.8-12.5-4.4-17-14.8-17.3a460 460 0 0 0-75-10.8c-14.9-1.8-29.6-3.9-44.6-4.2-2.9 20.5-4.4 41.4-6 61.8m-1095 238.5-129.4-33.6c-24.9 9 12.3 12 22 16.1 38 10.1 76 21.2 114 30.7 5.3-3.3 11.1 2.5 16.5-4.1L1593 982.4c-9.5-4.3-20.3-7.3-28.8.2zm-159.8 442.9 205.3 74.4c11.5-9 23.7-17.2 34.6-26.8.8-5-11.3-5.4-15.9-8.5-59.6-21.2-119.6-41.4-179.2-62.4-16.5-2.4-31.3 15.4-44.8 23.3m496.7 254.3c-2.4-4.8 5.5-9.5 4.6-17.2 4.6-25.5-11.5-54.6-37.7-60.2-4.4-3-17.6 11.5-11.6.2-6.6-5.6-33.4.3-33.8 14.4 2.9 19.3-15.4 34-18.2 49.7 5.4 15.7 21 42.5 39 35.2.7 7.2 8.7 8.8 14.6 6.7 10.8-7.5 23.5-.8 34.3-14.4 3.3-4.6 7.6-8.7 8.8-14.4m576-490.4c6 5.3 15.5 4.8 23 7.6l162.2 41.4c7-7.7 29-20.6 23-28.2-10-6.2-21 1.8-24.2.7.4-23.6 5.6-47.1 4.6-70.5-5.3-6.3-16.7-6-24.7-8.9q-54-13.7-107.8-28c-13 3.6-6.6 29.5-9.8 42.7-1.9 7.3-12.2 25.6-4.4 28.7 0-8-9.2-17.1-18.2-9.2zm382 531c31.5-10.8 52.6-52.4 34.6-82.4a52.4 52.4 0 0 0-68.6-24.9 59 59 0 0 0-30.2 39.5c.6 16.4 28.7 14.2 37.6 28.6 12.9 7.3 13.8 37.1 19 38.7 2-7.2 3.6-2.6 7.5.5m-128 1.2c18.2-3.5 38.8-1 52.4 13 14.8 11 21.8 28.6 24.1 46.3 19.9-8.1 32.1-29.4 35.7-49.8a59 59 0 0 0-12.1-44.4c-9.3-10.7-26.3-26.4-41.1-19.2-17.6-7.8-37.8 7.7-48 21.5a68 68 0 0 0-11 32.6M919.4 1298c-3.4 21.2 2 43.4.4 65 4.1 9.3-3.1 34.3 6.3 35l123.1-72.1c1-5-11.5-4.8-16.2-7.6l-54.6-17.1c-7.4 1.3-17.4 18.2-23.8 6.9a154 154 0 0 0-35.2-10.1m83.9 181.6-164.8-56.4c-13.5 7.4-39.5 18-42.7 27.7q81.2 28.1 162.7 55.6c14.7-9.3 30.4-17.2 44.8-26.9m271.9 50.4c27.7-18.7 54.5-38.8 82.2-57.6q193.7-136.1 387.3-272.5l263.5-185.5c9.5-3.6 10.3-14-.5-5.1-97.7 68.1-196 135.6-293.9 203.7-100.2 69.3-200 139.3-300.4 208.6q-75.2 52.3-150.6 104.3zm1081.7-758.6c-15.4 10.1-35 13-51.7 21-33 13.5-64.1 34.1-84.3 64 4.5 2.9 12.8 0 18.8.6 25-3 50.1-1.5 75.2-2.2 16.5-9.8 22.1-39.4 43.3-48.6 21.3-15 52.1-25.6 70.9-30.4a656 656 0 0 0-56-2.9c-5.5-.3-10.7-2.3-16.2-1.5m-1088 219c-101.4-25.2-203.2-48.7-304.7-73.4-7.5-1.4-15.2-4.6-22.6-4.8l-36 17.2c-29.4-8.9-59.9-14.2-89.6-22-17-3.6-33.7-8.9-50.8-11.4-4.9 14.5 12.2 15 21.9 17.9 37.7 9.2 75 20 112.7 28.6 16.3-.2 30-21.4 46.8-16.8 97.2 23.8 194.6 47 291.9 70.8 9.7 1.7 19.3 5.8 29 5.7 3.8-2.2 2.3-8.4 1.4-11.8M1468.4 808c-28.6-5.3-56.8-12.5-85.6-16.2l-1.2 74.4 86.4 18.5c7-15.5 2.3-33.6 3.8-50.2-1.9-6.8 8-23.3-4.4-22 1.4-.1-.6-4.5 1-4.5m1232.3 496.2c-26-7-52.3-12.5-78.5-18.6-7.9 27.4-21.3 53-29.1 80.4 22.3 7.7 45.8 11.9 68.6 18 14-5.5 14-29.2 22.7-42 4.7-12.8 12.7-24.8 16.3-37.8m-320.7 17.3q-113.8-28.6-227.8-56.3c-10.5 13.7-22.3 27-30.7 42 12.5 6 40.4 16.5 52.4 10.7 4.7-11.2-4.9-26.1 10.5-29.1 48.8 13 97.9 25 146.4 38.8 3.4 12.6-11.2 35.6 6.8 38.4 11 6.4 17.9-.8 22-10.2 6.7-11.5 15-22.2 20.4-34.3m83.1-423.9c-2.2 19.4-6 38.7-6.6 58.1 3.5 5.7 13 4 19 6.4 29.5 6.4 58.5 14.8 87.6 22.2 2.8-17.8 6.4-35.8 6.6-53.9-12-12.8-34.2-14.4-51.3-20.5-18.2-4.3-36.8-10.8-55.3-12.3M270.9 1265.5c-11.2 7.2 17.3 9.8 23 13.7l120 41c11.8.3 21.6-8 32.3-12 6.5-3.5 14-5.8 19.7-10.1-1.9-4.8-11.7-5.1-16.8-8q-68.8-24-137.8-46.8c-13.6 2-27.2 10.6-38.3 18.2l-1.2 1.9zm2288.6 561.6c10.8-7.2 24-20.8 18.7-34.5 5.5-8-.1-20.9-4-30.9-15.8-27.6-54.9-37.5-80-16.3-13.4 14.4-23 34.5-18.7 54.4 11.2 2.9 28.6-5.9 42.3.5 11.2 4.7 21.4 14.5 30 16.6 6.3 5.6 1.1 16.8 9.5 18.5 2.9-3.3 8.5-5 2.2-8.3m-1795-283c3.6 20.4 15.2 43.5 37.5 47.9 6.3-1.1 18.3 6.6 23.9-2.6 16.5 1.8 26.2-17.3 29.1-31.1-5-13 4.2-22.7-8-37.3-13.1-23.2-48.8-29.3-67.4-9.3-9 8.5-12.3 21-15 32.4m1114.3-484.2c1-18.3 3.1-36.6 3-55-1.2-17.6 3.5-34.7 2-52.3-.7-17.3 2.8-34.2 2-51.5-.5-22.5 3.2-44.8 2-67.3q2.5-19.1 2.1-38.4c-3.6-12.3 9.8-35.1-8-37.1-16-4-32.5-8.3-49.2-8.6-23.1 11.8 14 10.7 23.6 15.7 8.7 1.9 24.7.9 16 13q.2 25.5-2 50.7c.7 19.5-3 38.6-2 58-2.6 21.4-1.2 43.1-4 64.4.5 22.2-2.4 44.3-2.2 66.6-1.3 16.4-10 48.6 16.7 41.8M732.7 1484.5c-15.7-7.6-38.7-9.9-50.2 5.7-10.7 8.6-18.6 25.5-13.3 38.7 2 10.2 5.5 20.3 14 27.8 6.3 10 19.5 8.4 24 9.4 6 11 20.4-3 29.5-3 21-14.3 21.8-46.3 8.4-66zM2589 1783.7c25.8-11.7 39.9-47 25-72.2-10-21.4-38.7-36.6-60-25.4-7.8 3.8-19.5 3.6-25.5 15-8.9 8.8-21 34 1.6 27.8a59 59 0 0 1 51.7 39.1c.2 6 1.6 12.6 7.2 15.7m-69.7-522.2-77.5-18.2c-10 17.3-16.3 36.7-25 54.8-2.4 7.7-9 15-7.2 23.3 17 2.6 38.2 14.2 52.8 9.8 6.3-11 10.8-23 17.8-33.6l22 4zM1200 662.7c12.7 5.2 27 5.8 40.2 9 59.5 11.8 119 22.6 178.5 34.5 89.2 17.2 178.7 33.2 267.8 51.2 12.7.3 11.5 6.1 1.5 9l-132.5 67c-12.2-10-20.9 2.3-5 3.8 9 4.7 17.7 2.8 25.8-3.3q71.4-37.4 143-74.5c-1.5-4-12-3.3-17.1-5.1q-78.4-14.7-156.7-29.6c-72-13.4-144-27.3-216-40.6a6539 6539 0 0 0-101.5-19c-17.2-4 12.1-9.6 18-13.6 28.6-11.8 57.7-22.5 86.2-34.7 5.6-7.8 15.6-2.5 23.8-3.5 17-1.3 33.7 3 50.8 2 9.3.3 13-1 .3-2.3-15.7-1.9-31.5-1.3-47.2-3.4-13.6-.4-27.6-.5-40 6-39.9 15.8-80.2 30.7-119.9 47.1M196.8 1313a48 48 0 0 0 15.8 45.5c6.7 9.3 17.7 6.4 24.5 9.8 3.5 4 12.3 1 15-2.9 4.8.3 10.7-1.5 15.4-5.8 3.2-5.7 9.3-10.7 7.8-17.9 12.5-11.6 1-37-10.1-47.6-6.2-7.8-13.3-8.4-19-1 5.2-14-15.6-11.2-23.6-8.5-13.2 4-20.6 16.5-25.8 28.4m466.5 221c-3.5-19.8 7.3-37.3 15.7-52.2-5.6-25.8-39-41.9-61.6-26.5-24.2 13.8-27.6 47.7-10.3 67.8 7 12.2 21.8 14.3 29 15.9 7.4 10.7 15-6.5 22.7-.8zm881.7-36.4 108-83.2c-12.8-8.6-30.4-10.5-45.3-15.8-9.6-6.2-17.3-1.3-24.5 5.2l-64.5 48.4c7 6.9 37.7 1.5 28.2 14.2-1.6 9.7-4.2 21-1.9 31.2m1011.6 180.3c25.6-5.5 52.5 10.9 63.2 34.4 8.5 9.6-2.6 41 16 24.7a59 59 0 0 0 24.1-49.3c-2.6-26.3-26-52.8-54-49a61 61 0 0 0-35.5 14.9 51 51 0 0 0-13.8 24.3M546 1365.4q62.7 21.4 125.5 42.4c16.5-3.6 32.6-16 48-24.5-23-9.6-46.9-16.8-70.3-25l-55.4-18.6c-16 8.4-32.6 15.7-47.8 25.7m407.4 143.4c-55-20-110.7-38.4-166.2-57.2-10.3 6.2-21.9 11.1-31.4 18.4 1.5 5.3 11.8 5.1 17 8.2 47.9 16.9 95.8 34 144 50 13.3-1.7 25-13 36.6-19.4m-802-245.5c-28.6 1.2-47.4 37.4-30.9 60.7 5.3 10.4 16.9 22.8 28.9 21.5 5-2 8.5 5.8 15.5 2.7 7.4-6.1 20.7-4.2 25.2-15.3 3.2-18.4 12.9-40.6-4.6-55.4-7.5-10.6-21.3-14-32.4-13zm1980.5-49.6c12.8 4.5 23.6 5 26.9-10.5 3-8.5 20.4-25.9 3-25.9l-58.3-13.8c-14.6 9-19.9 32.5-30.1 47.5-4.3 11-21.3 29 .8 28.4 17 2 42.6 19.6 47.4-6.3 3.2-6.6 6.2-13.3 10.3-19.4m-596.4-434c-18.1 8.8-36.8 17.2-53.7 28-9.2 10-4.7 25-5.8 37.8.6 13-1.6 25.9-1.9 39-1.6 20.8 24.2-4 34.1-5.8 16.4-7.5 34.5-16.2 27.5-37.6-3.3-7.3.9-14-.3-22.3zm765.1 158.5c4.3-20 8.3-42.9 6.6-62.6-27-1.8-53.8.4-80.4 4.4-12 7.4-5.4 25.4-9.5 37.4-6.2 22.6 26.8 12.6 40.4 17.4 14.4 0 28.6 2.1 43 3.4m393.2 705.9c-3.7-26-24-51.4-52-51.2-20.9-1.8-52.3 23.2-45.8 41.4 32.5-7.8 67.3 19.8 68.1 53 3.2 17.4 24-14 25.6-24.6 1.9-6 2.7-12.6 4.1-18.6M1982.8 1216c20.2 2.3 46 19.3 63.2 10.2 10.8-22.6 23.6-44.5 33-67.6-16.3-5.5-33.8-8.5-50.6-13-16.6-3.3-17.5 22.2-26.7 32.3a701 701 0 0 0-19 38M588 1337.6l-112.5-38.4a353 353 0 0 0-50.3 23.4c3.6 4.2 12 4.6 17.4 7.3l97 33a282 282 0 0 0 48.4-25.3m1950.7-70c-3.9 12.2-19.7 29.7-14.5 39.5 4.7 2.8 16.7 1.6 16.2 7.3-1.6 14-26.3 38.6-.4 39.9 15.5 5.5 34.2 11.3 36.8-10.6q12.8-29.4 24.8-59c-4-7.8-14.1-6.1-21.4-9-13.8-2.5-27.5-8.4-41.5-8.1m-1465.4 278.6c11.8-9 36-18.5 39-29.3l-103-35.2c-12 7.8-41.5 17.3-41.2 28.2zM2664 977.9a287 287 0 0 0-81.3-45.8c-4.3 4.1-2.1 12.9-3.8 19-.4 12.6-6 27-.6 38.2l76.7 30.7c5.5-2.8 3.1-12.3 5.2-18zM831.2 1422.3c-16.8-9.3-36-13.3-54-20.2l-50.2-17c-12.8 6.9-43.5 17.8-43 27.7 33.2 11.3 66.3 22.9 99.7 34 16.2-3 32-16.5 47.5-24.5m1727.2-.8c23.5 7.3 47.8 12.3 71.6 18.7 9.7 3.1 10.3-9.5 15-15.1 5.4-11.5 13.7-21.6 17.9-33.7-23-7.3-46.7-11.7-70-17.8-11.5-6.5-12 8.7-17.1 15zm-79.2-75c-23.7-7.6-48.5-12.5-72.7-19-15 3-19 25.9-28.5 37.5-11.6 17.2 22 13.2 32.6 19.4 14.4 1 32.2 13.6 44.3 6.5a501 501 0 0 0 24.3-44.4m-2012.9 61c30.9 11.1 62 21.5 91.8 35.3 12.4 2.5 26.4 15.3 38.4 8.8 10.5-6.3 22.5-11.1 32-18.5-3.1-4.7-12-4.8-17.4-7.7l-108.7-38c-11.2 6.2-23.2 11.2-34 18zm2088.2 12.7c8.3-14.4 15.4-29.5 23.5-44 1.3-14.1-14.8-3.6-15.7 5.6-6.2 10.5-11 22.5-18.1 32-4.1-4 4-11 5.3-16.3 4.3-9.7 10.2-18.6 14.6-28.2-6.4-8-24.3-7.3-35.3-11.6-12.1-1.6-30.7-14.2-35.2 4.1-5.3 12.6-20 28.3-18.2 38.8 26.3 6.7 52.4 15 79 19.7zM868.1 1401c-80.6-26.8-161.6-52.8-242.2-79.7-43.4-14-86.5-29.2-130-42.7-15.3.8 1.1 15.3 10.8 15.3q117.6 38 234.8 76.7c7.2-3.9 9.3 4.4 15.8 5.1l99.8 32.4zm14.2 155.1c37.5 13.8 75 27 112.5 40.9 10.8-7.6 32-16.4 34.5-25.9l-108.5-38c-13 7.5-26.3 14.4-38.5 23M2187 1228.3c.3 12.2-22.6 32.8-6.8 36.9 14.3 2.7 34.8 15.3 39-6.4 10.1-20 20.4-40 29.3-60.6-17.2-4.9-34.7-8.8-52.2-12.8-15 1.2-17.7 24.6-24.2 36.5 4.3 3.6 11 1.9 14.9 6.4M132.5 1264c-15-27.4-60.8-25.6-72.4 3.4-11.8 23.5 5.9 51.7 29.4 58.7 7-5 20 10.4 23.7-5.7-9.7-21.2 1.6-43.7 19.3-56.4m327.1 142.3c12-6.8 24.5-13 36-20.1-4-3.7-11.8-4.4-17.3-7-32.8-11-65.4-23-98.3-33.8-13.5.9-27.1 8.6-38 16.2a976 976 0 0 0 117.6 44.7m983.3 82.5c28.8 9.2 57.5 19.2 86.8 26.4-1.9-14.9 3.7-33-3.1-46-24.3-7.2-48.3-15.4-72.4-23.2-23.4-11.6-4.9 36.7-11.3 42.8M507 1385q64.1 24.4 129.6 45c8-6.7 29.8-12.7 29.2-19.3a2501 2501 0 0 0-125.3-43.1c-11.2 5.9-22.7 10.9-33.5 17.4m1592.7-81 29.6-44.4-74.3-18.2c-10 12.7-29.4 31.9-27.8 45 24 6.2 48.2 12.4 72.5 17.5m-1818.4 3.4 94.8 33c9.3-6.4 32.2-9.6 32.2-18.9-47.4-16-94.6-32.8-142.2-48.6-10-1.5-12.3 14.6-.6 16.5 5.8 5.4 10.7 11.9 15.8 18m645.3 223.9c34.3 13.2 69.3 24.3 104 36.6 8.4 5.5 14.5-4.2 21.5-7.6 4.8-4.4 13-6.2 15.2-12.5-32-12.2-64.9-21.9-97-33.7-15.3-8.2-28.9 7.6-41.2 15zm284.2-17.6q-40.8-13.2-81.4-27.2c-84.3-27-168.2-55.3-252.4-82.6-15.5-.6-15.1 9.2-.8 10.5 111.2 35.8 222.1 72.3 333.2 108.2 7 4.4 3.5-7.1 1.4-9M382 1342.3l118.8 41.4c9.8-5.1 31.2-11.9 31.7-19.3-38-14-76.6-26.3-114.9-39.2-11.9 5.7-24.3 10.3-35.6 17M2042.6 1891c-4.4 8.3-13 14.1-19.4 21.4-10.6 10.8-21.7 21.3-31.9 32.5 2.7 9 12.7-7.2 17.5-11 14-14.6 27.8-29.4 42.2-43.7 3.4-10.5-22-9.8-30.5-15.6q-167.2-55-334.2-110.6c-30.7-9.7-61-20.9-92.1-29.4-19.4 12.5-36 29.1-54.2 43.3-10.5 5.4-19.5 20.9-3.3 8.9 19.4-16.1 38-33.5 58.2-48.2q223.5 74.8 446.4 150.7zm-659-1102.9q37.7 8.1 75.5 15.2l19.8 1.4 49.6-26.1c-17.8-6.3-37.6-7.7-56.3-11-13.1-.4-27.5-9.9-39.6-2.3zm559-71.6c11.6-3 13-10.1 1-10.2q-89.4-17.1-178.9-33.7c-48-9.1-96-19.6-144.4-26.8-9.9 6.4 5 11.2 11.2 11.4 58.7 11.6 117.5 22.5 176.2 33.8 45 8.4 89.8 17.5 134.9 25.5M780.5 1451.3c-12.7-10.2-36-12.9-52.7-20-19.7-3.6-40.9-21.8-59.8-14.6-8 5.3-38 15-17 19.3 31.6 10.5 62.8 22.5 94.6 32.3 7.9 1.5 14-6.2 21-9zm666.1-11.2c25 8.9 50.4 16.2 75.4 24.7 14.2 6.8 17.3-6.2 4-6.8-17.4-5.2-34.6-11.6-52.2-15.8 1-5.1 10-7.9 14.3-12l105.6-73.9c19.8 2.8 38.5 10.2 57.8 15.2l12.5.1c-27.1-9.3-55-16.3-82.5-24.2-45 30.8-89.8 62-134.9 92.7m559.3-159.9c7.4-13 30-34.2 25.1-44.8-19.1-2.7-41.6-14.7-58.8-10.6-6.9 13-26.7 31.1-24.8 41.8l55.6 13.8zm-492.5 170.6c24.5-16.3 47.2-35 71-52.3 9.7-5.1 11-34 2-33.1l-106.3 75c11 3.7 22.3 6.4 33.3 10.4m1111.6-173c23.6 7.5 48 12 72 18.1 18.6-.4 17.6-32 26.5-46-3.7-2.8-9.1 8.3-13.6 11.2-4.9 7-8.4-5.1-15.6-3.2-18.9-3.8-37.5-9.2-56.5-12l-12.8 29.5zm-2244.8-90.4a127 127 0 0 0-78 1c2.3 7.4 7.5 32.7 0 13.7-1-24.6-29-8.2-43.8-6.6-11.8.4-8.9 10-7.7 18.2 14.1 9.2 15.3-2.6 12.3-13 6.2-8.9 1 27.2 17 16.2 21.2 2 45-16.2 64.5-3.4 12.7-6 25.2-16 35.7-26m997-380.3c-11.7-5.5-25.2-6-37.7-9.2-70.6-14.8-141.4-29.2-212-44.1-13.9 3.6 2.7 13.1 11.6 12.7 79.1 16 157.9 34.1 237.1 49.7 2.1-2.6 1.7-6.1 1-9.1M2567 989.9a961 961 0 0 0-169.7-38.7c-25.8-2.7-51.5-6.8-77.5-8.4-17.2-1.4-34.5-3.3-52.3-4.5-16.3-1.4-34.7-3.7-49.7-3.8 10.2 5.5 29.5 3.3 43.4 6 54.6 4.7 108.8 13 162.6 24 58.6 12 117.7 22.3 174.7 41 17.8 5.6 35.2 12.4 52.8 18.9 4.8-2-17.6-9.3-23.9-12.5-16.9-6.2-33.8-14.8-51.2-18.3-4.8 2.1-6-.4-9.2-3.7m-1542.6 476.5c-55.4-18.8-111.2-36.5-166.7-54.9-3.3 3.3-16.7 6-12.3 10.2a3282 3282 0 0 0 162 55 50 50 0 0 0 17-10.3m1543.7-307.8c-29-9.1-59.3-13.7-89-20.4-58.5-12.2-116.7-26-175.3-37.6l-74.8-16.7c-16-5.2-9.5 9.7.1 8 16 3.2 31.9 7.6 47.7 10 13.9-7.4 24 9 38.3 8.8l55.5 12c14.6-6 25.7 8.5 40.6 8.8 16.3 2.9 32.4 9 49 8.6 9.1-4.9 14.6 8.8 24 7.1 23.3 5 46.3 11 69.6 15q7.7.5 14.3-3.6m-921.5 675.2c7.6 14.5 22.8 27.2 23.2 45.6-3.5 16 4.8 25.8 21 26.6 5.8-13.3 11.7-27.6 25.2-35 3.7-3.3 12.7-7.2 13.4-10l-80-28zm-516-268c12.8-8.2 35-19.2 40-29l-49.8-16.8c-12 8.7-34.8 19.1-39.4 28.6zm144-564.7c37.9-18.3 74.7-38.6 112.4-57.3l81-41c11.8-15.2-9.8-8.2-17-2.1-58.8 30-118.3 58.5-176.4 89.7zm-955.8 351.7 18.7 6c8.2-6.1 32.3-11.5 30.7-17.7-27.7-9.6-55.3-19.8-83.1-29.2-.1 8-8.2 34.3 9.2 35.6 8.1 2.3 15.7 8 24.5 5.3m1262.7-689.2c-22-7.1-45.4-9-68-14q-54.3-10-108.8-19.8c-17.1-.2-4.4 12.6 5.6 10.8 39.2 7.1 78.5 13.6 117.7 21.3l48 8.8c11.8-1.8 38.2-6.1 36.3-20.9-11.1 2.7-19.8 11-30.8 13.8m937.4 555.3c-9.7-4.7-21.2-5.3-31.7-8.4-9-1.4-17.8-5.7-26.9-4.5-5.4 11.9-23.3 35 1.5 34.3 13.7-1.1 37.3 18 45 2.7zm-1466.4 398.7c10.3-7.7 35.4-16.6 33.1-27-15.2-5.2-30.2-11.3-45.7-15.7-11.3 4-36.5 16.4-34.2 25.7q23.1 9 46.8 17m604.2-241.6-57-16c-7.4 9.7-7.5 38.4 13.5 36.8 13.2-.1 37.7 21.3 44.1 4.4.3-8.4 1.3-17-.6-25.2m1170.8-384.4c-12.5 5.3-24.5 24-37.7 33.4-14.4 14.8-42.3 15.3-40.6 40.3.6 9.5-23 35.7-3.3 24.3 18.7-12.8 38.5-26.1 48.4-47.3zm-194.7 253c-17.3-3.6-38.5-12.8-54.2-9.9-1 10.4-20 29.7-3.6 32.3 14.8 4 34.8 11.6 36.6-11.4 1.9-7.6 12-17.8 6-3.7-4.2 8.2-15.8 28.3 2.3 23.5 5.6-9.6 10.2-20.1 12.9-30.8m-358.8-48.8 52.6 12.4c2.5-9.6 22.7-28.2 7.7-32.1-18.7-2.3-48.5-22.8-53.8 5.8a278 278 0 0 0-6.5 14m468 65.2c-10.8 17.6-18 37.4-27.3 56-16 35-31.6 70-48 104.8 4 2.8 8.3-8.5 12.4-11.6 8.7-11.2 18.3-21.9 26.5-33.3 12.6-37.6 27.2-74.6 36.3-113zm-570.7-121.2c-9.4-5.2-21-5.6-31.3-8.8-8-.8-19.2-8.2-24.3.7-7.3 9.9-18.7 28.4 2.1 27.1 18 2.4 45.3 20 48.5-8.4q2.4-5.5 5-10.6m-1044.7 427.7c-18.9-3.3-38.7-19.5-57.1-13.9-9.6 6.6-39.3 19.8-13.6 23.2 18.7 4.4 38.8 21.4 55 3.2a99 99 0 0 0 15.7-12.5m660 291.3c5.7 5 2.1 30.7 9 20.3.5-12.1 4-28.9-12-29.9l-151.4-54c-6 8.2-5.2 25.9-.5 33 10 1-2.4-22.4 9.2-21 15.4 4.8 30.8 11.5 46.4 16.4 33 12 66.7 22.3 99.3 35.2m483.6-696.1c0 12-21.6 32-.8 31.6 5.6-11.4 25.5-34.2.5-33.6-17-1-43.8-19.7-47.5 6.3-9.7 13.4-1.1 18.7 12.8 19.5 13.4 7.3 25.2 2.7 27.6-13.2 1.6-4 4-7.9 7.4-10.6m-1665 297.1c16-20 49-20 65.5-.2 6.5 13.4 13.8 25 27.9 15.8a20 20 0 0 1 17.6-.8c9.3 1.3 19.4 8.5 27-2.5-33.2-13.5-67.9-23.7-101.6-36.2-12-2.3-21.4 7.8-31.8 12.5-3.5 2.7-17.8 7.2-8.4 10.1zm2119.9-260.5c9.4-12.1 24.1-23.8 27-38.9-1.7-6-.5-13.6-4.3-18.7l-62 48.3c12.4 5.3 26 7.5 39.3 9.3m-1964-293.8c.7-13.8-13.9-9.5-23.4-10l-116.4.1c-5.2 8.1 13.5 13 21.2 11.4 23.1.4 46.3-.9 69.4.9a219 219 0 0 0 41 .3zM359.5 1426c-5-13.2 1.3-33.8-12.3-41.4-14.9-5.3-29.2-15-44.7-16.7l6.2 34.2c11.6 10.3 14.4.8 10.5-9.5-2.7-7.2.3-23.4 2.5-7.8 4 9-2.5 25 9.6 28zm2112 348.6c-24.8 29.8-47 62-70.6 92.8-2.4 8.8-31.7-5 19.5-9l20.9-5.2c1.3-21.3 21.7-34.7 29-51a89 89 0 0 1 1.3-27.6M915.3 1532.2a599 599 0 0 0-76.6-26.3c14.4 10.2 18.8 30 24.8 43.1 6 1.3 12.5 8.5 18.1 3zm-64.5-121.7q-52.9-20-107.4-35.1c-24.2 8.7 7.2 13.8 17.4 17.9 25.5 8.4 50.4 18.4 76.2 25.5 5-2.2 10.3-4 13.8-8.3m792.4 528.9c18.8 9.5 39.4 15.3 59 23.2 9.2 7.7-25.2-2.7-6.4-18.7l-4.7-20.8c-18.7-13.7-31.6-3.9-43 12.3zm757.8-748c-5.4 10.9-25.6 33.6-2.7 34 16.8 7.4 34.8 6.5 38-14.7 11.4-18.3-21.4-13.7-32.8-19zm-753 631.9c34.9 11.9 69.5 24.7 104.5 36 10.2-3.2 34 20.1 32.6 2.5-16.2-7.8-35-12.3-52.4-19-27.7-9.5-55.1-20-83-29-5-3-3.3 8-1.7 9.5m-911.8-342c12 8.4 16 24.7 25.5 33.4 13.3 5.3 19.8-16.6 33.7-17.1 11.1-2.8 12-5.5 0-7.9-17.1-2.7-36.1-20-52.4-12.7zm896.4 310.1c28.1 11.4 57.3 20.5 85.8 31 26.6 9 52.6 19.8 79.5 28.1 10.9-10.9-13.4-10.5-19.9-15.2-47-16-93.7-32.6-140.7-48.3zm577.9-907.6c-18.7 9.4-39 24.5-48.5 41.4 10.3 10.6 68.7-6.8 43.4 3.9 3.2-14 4.4-28.4 6.3-42.5.1-.7-1.6-3.8-1.2-2.8m-540.7 236.4-27.9-7c-11.3 11.1-35.4 15-35.8 32.8-2.4 12.4 2.8 17.5 12.2 8 17.1-11.3 35.2-21.6 51.5-33.8M521 936.4c18.4 12 38.1-5.2 56.2-10.7 14-6.5 29.3-10.6 42.4-18.7-7.3-18.7-28.4 3.6-42.4 5.3-18.7 8-38.5 14.1-56.2 24.1m2085.9 346.8c-10.5 25.4-22.3 50.3-31.9 76 6.7 13.1 18.8-1.5 20.3-12.2l21.9-57c-1-7-4-7-10.3-6.8M1248.3 665.4q43.5-17.5 87-35.7c11.2-9.3-3.3-13.2-10.3-6.6l-92.6 37.5c-1.8 4.4 12.2 3 16 4.8m1176.2 573.9c-12.9 24.3-22.5 50.4-34 75.4 10 10 16.4.8 18.7-8.9 8.5-20.4 18.2-40.4 26-61 1.7-5-7.7-3.7-10.7-5.5M997 760.3c39.5 4 79.4 3 119 2.1 6.2-13-12.7-8-20.4-9-32.9.2-65.7-.3-98.5.3l-2 1.3zm1525 588c2-11.2 21.2-30.7 7.4-36.3-5.7 6.3-12.7 13.3-16.6 27.1-6.4 11.4-7.5-5-2.8-9.7 4.9-7.5 2.8-13.5-6.6-13.5-14-9.1-20.7 17-18.7 24 12.2 3.3 24.8 7.8 37.4 8.3m-2321-53.5c9.9-14.4 36.6-12.5 28.6-35.5.8-12.6-29.2-12.9-29.1 1-1.7 7.3-5.5 14.8-6 22zm1334.8 217.6a8893 8893 0 0 0 127-95.9c-.5-12.4 4.3-25.5 2-37.5-8.9 7.4 5 33.4-11.8 39.8-36.1 27.6-71.9 55.8-108.3 83-11.8-4.5-.5-23.8-3.5-34.7-7.9-1.3-7.4 12.6-7 19.3v23.4zm282.2 409.5c8.4-9 33.3-15.8 35-17.4-14.4-2.3-36.2-19-46.3-11.4-1 12.4-.9 34 1.5 40.2zm436-723c-13.5 23.2-24.5 47.8-36.8 71.7 9.2 16.3 19.2-13.9 24.3-22.8 5.7-14.9 19.4-33 19.7-46.3zm-851.4 105c1.8-10.9 1.1-32-3.5-36.3-11.3 7.4-35.6 18.4-37.4 27 13.4 3.5 27.8 8 41 9.2m601.8-162c-9.8 16.2-17.2 34.1-26.1 51-2.5 6.6-14.8 22-1.3 21.4 5.8-3.4 7-11.8 10.7-17.4 8.3-18 19.4-34.5 26.9-52.8a10 10 0 0 0-10.2-2.2m-119 889.4c12.4 4 37.2 19.3 42.9 12.4-10.1-8.3-1.8-40.7-16.7-36.8-7.8 9-15.7 18.4-26.3 24.4M572 1168.1c11.3 2.9 31.3 15 24.4-6.3 3.8-17-24.5-22.7-32.4-18.3-.2 8.6-.7 20.1 8 24.6m1484 66.9c13.5-23.5 26-48 38.4-72.1-9.7-8.7-15.5 4.4-18.7 13l-26.7 53.6c-1.5 4.2 4.7 3.7 7 5.5M542.2 1132.6c-11.8-4.3-39.6-17.6-30.5 6.3-3 14.4 25.5 20.4 31.4 16q1.8-11.2-.9-22.3m-48-154c9.7 7.2 41.8 19.9 32-3.5-.3-15.7-21.7-13.6-33.2-17.2-2.9 6.9 1.7 13.9 1.2 20.7m52.2-6.8c1.3 7.2.6 15.6 3.1 22.1 8.9 6 34.3 18 32 1.2 1.2-12.2-6-17.3-16.8-18.4zm1987.3 255.9c-2.4 8.4-20.6 27.9-4 28.5l19 4.6c-8-11.6 19-29.7-4.1-31-3.7-.8-7.3-1.2-11-2.1m131.3-204c9.3 5.3 24 13.8 21-4.6.4-10.6-6.3-34.4-16.2-32.2-2.4 12-4.6 24.7-4.8 36.8M163.2 1259.2c14.1 1.2 31.4 29.5 33.1 2.3 8.6-13.7-8.5-13.6-13.4-23.9-8 5.9-13.5 14.1-19.7 21.6m2221.5 64.7c-8 14.5-27.6 33.1-24.6 47.5 8.2 5.7 50.8-14.5 22.4-22 3-7.8 24-29.2 2.2-25.5M1844.9 2036c-1.8 11.7-3.2 37.3 14.7 33.8 10.2-5 8.8-28.8 1.3-33zm137 75.6c10.5-6.2 8-21 7-31.5-11-5.8-27-.6-20.9 15.6-1.3 10 3.5 18.3 13.9 16m689.8-721.5c12.5-12 16.4-34.1 25.6-49.9l15.8-34.3c-5.1-5-11.2 3.5-12.4 9.2-10.5 23.7-23.3 46.9-29.6 72zM1345 627.2c11.6-.6 23 .5 34.4 1.8 10.2-2 20.6-3.7 29.3-11-21.4.8-42.6-3.3-64-2-5.5.1.5 8.2.3 11.1m1038.1 1416.4c-4.5 11.2-9.2 37.4 10 34 7-6.1 16.3-32.6 2.8-33zm113-694c-19.8-7.5-23 23.1-32.7 34.7-11.8 13 8 18.8 10.7 4.6zm-362.3-89c-7.3 14.7-27.7 31.7-26.1 45.4 15.2 5.4 19.2-20.5 29.4-28.1 6.5-11.8 17.8-13.8-3.3-17.2m63-84c8.8-14.7 14.8-30.4-8.2-30.4-4.9 12.8-30.5 37.1 8.1 30.4m-446 837.3c12-12.4 5-43-14.6-28.8 1 9.7-3 21.5 5.3 28.8zm584.7-740.3c-10.7-3.1-24.2-4.9-27 8.7-2.3 5.1-9.9 13.8.4 14.3 5.3.3 13.8 7.7 15.3-.8zM1603 1947.3c-4.1 11 .7 38.5 17.1 29.2 2-10.1 7.2-34-9.9-29.2zm-191.3-76.3c-7.5 12 5.8 41.6 18 24 2.5-8-.3-16.6-.3-24.8zm527-606.6c9.6-13.2 28.7-30.4 27.5-44.9-18.1 3.3-24.4 29.4-37 42.4zM2358 1189c-6.8 7.8-23.9 26.7-4.2 26 16.4 8.7 30.1-29 6.4-25.3zm-843.7 747.2c6.6-10.6 7.5-40.7-15-28.7-3 10.7-2.3 32.2 13.3 28.7h1zM1321 1833.5c-23.6-11.7-21.9 33-3.2 29 10-2.6 5.5-21.8 3.2-29M2732 1243c-8.1 11.8-11.4 26.4-17.3 39.4-7.8 9.2-3 27 4.8 9.3 7.2-15 15.3-29.9 19-46.1zm-532.3-357.4c-24.3.6-50.7 21.9-54.3 45 14.9-1.5 16.9-19.4 28.9-26.3 8-7 16.7-12.8 25.4-18.7m-67.3 368.1c11.1 1.8 24.6 10 23.9-6 4.5-8.4 12.7-23.6-12.3-18.1-4.2 7.9-9.5 15.3-11.6 24.1m391 10c-4.6 11.9-20.6 32-11.7 40.8 8.7.4 8.7-11 12.8-16.6l10.3-21.9c-3.5-1.6-7.4-3.5-11.4-2.4m-483.3-25.7c-8.2 14-26.9 31.4-26.6 44.7 6.6 3.7 8.8-5.7 12.7-9.4 7.5-10.5 15.5-21 22-32 .6-3.3-6-2.1-8.1-3.3m127-18q9-17.7 17.8-35.5c-9.4-9.5-13.7 4.2-17.5 11-3.7 7.2-8.2 14-11.2 21.7 2 4 7.2 3.8 11 2.8m506 173.4c-15.8 2-18.2 27.3-28 38.6-12.3 14 9 15.5 9.7 1.9zM1218.8 1525c12.7 3.3 33.3 17 42.5 9.4-2.2-9.7-14-8.5-21.3-12-7.3-2-14.5-5.4-22-6.5-3.2.6 1 6.7.8 9.1m169.7-219.5c-12.3-3-26.2-10.9-38.6-7.1-13.6 7 17.6 8.3 22.7 12.8 7.7 2 26.2 11.3 15.9-5.7M851.3 1336c1.1 11.7-3.2 36.7 6.6 41.2 7.6-2.5 5.6-9.2 4.6-15.5-2.7-9.4 4.6-26.7-11.2-25.7m136-582.2c-11.7 5-34 12.4-37.2 19.3 14.2 5.7 36.8-3.5 41-16.2-.7-1.3-2.2-3.1-3.9-3.1m-168.3 574c-19.1-15.8-6.7 22.9-8 33.5 9.8 6.6 11.6-10.4 9.2-18zm67 18c1.7 12.5-4 38.2 7.4 41.3 8.9-8 3.3-28.7-.2-38.3zM2442.6 1234c4.2-9.9 10.7-19 12.6-29.7-14.2-9.5-22 20.4-20.5 28.7 2.2 2 5.5 1 8 1m-1075 605c-7-7.8-4-42.9-16.3-23-9.6 7.9-18.7 13.7-2.6 16.2zm-559.1-239.4c2.9 8.5.6 20.9 10.4 24.6 13.8-1.2 10-32.5-4.7-25.2zm-137-288.3c2.2-10 .6-42-10.9-31.6 4.9 8-5.8 48.2 11 31.6m-412.8 68.4c7.4.7 20.4 8 23.4 4.5-3.2-8-4.6-16.8-9.3-24.1-4.6 4.9-14.1 6.9-14.7 14.1zM1647 1110.2c14.1 9 35.3 9.4 24.5-12-5-6.2-17.9 9-24.5 12m-909.8 231.5c15.9-4.2 2.9-24.7 6.3-36.7-6.5-13.3-11.6 2.2-7.7 10.3.8 8.7-1.2 18 1.4 26.4M779 1313c-9.4-5.4-6.6 8-7 13.7.9 9-2 19.5 3.7 27 13.6-7.2 1.1-28.5 3.3-40.7m-126.2 233.7c-13.7-6-16.9 6.3-12.6 16.3 1.5 12.2 19 6.2 14.2-4.3zm70.3 26.6c-10.4-.3-17.1 5.8-11.3 16.5 10.6 23.8 20.6-5.3 11.3-16.5m-89.8-304.6c-13.4-6.9-5.5 21.5-6.1 30 5.8 18.5 12-8.8 7.7-17q-1-6.6-1.6-13m-48.7 188c-7.7-5.7-21.8-6-8 2.3 6.5 3.2 14.8 29.5 18.5 16 1-5 10.4-13.4 1.3-14.6-3.8-4.9-15.9 5.4-11.8-3.7M253 1373.8c-25.2-10.6-9.8 37.8 2.7 16.5.5-5.7-2.3-11-2.7-16.5m85-158.2c-9.2 4.7-31.7 5.6-23 20l22-8.4c10-6.2-4-4 1-11.6m-181.2 138.8c-4.3 13.1 16.7 31 16.8 10.2-.3-14.8-5.5-14-16.8-10.2m-43.6-22.3c-18-8-17.1 18.2-4.2 21.9 10.9-3.2 4.7-13.9 4.2-21.9m1916.6-226.4c-3 8.2-22.1 26.9-8.2 30.6 3.7-7.4 22.1-25.2 10.3-30zm532.7 157.8c4-10.4 9.5-20.7 11.9-31.5-11.8-3.8-14.9 20.4-19.9 29.9zm-1091 547.7a39 39 0 0 0-14.8 37.3c10.6-7.6 13.9-24.3 14.7-37.3m-899.6-526a889 889 0 0 0-2.8-37.3c-10.6-1.8-2.6 24-5 32.5-.7 9 2.2 8.4 7.8 4.8m-28.5-11c-1-11.6-.6-23.4-2.7-34.8-12.5-4-1.8 19.9-4.6 28.6 0 6.4-.7 12.7 7.3 6.2m1199.1 585.1-93.7-32c6.3 7.2 27.7 10.5 39.7 16.1 16.9 5.3 33.2 13 50.5 16.7zm740.8-557.5c-4.4 8.6-24 29.5-12 35 9.6 3.7.5-13 9-18 .6-5.6 9.4-12.5 3-17m-109-82.5c13.4 3 15-20.5 20.4-29-9-6.1-9.6 8.3-13.4 13.5zm-35.7 85.4c4.5-9.9 20.3-26.7 12.5-34.7a70 70 0 0 0-15.3 33q1.5.7 2.8 1.7m-780.1 602.6c-1.6-6.9-2-14.2-4.2-20.8-5.7 4.7-26.3 16.8-8 18.2 4 .6 8.2 4.2 12.2 2.6M595 1255.1c1.6 11.4-2.6 34.8 4 39.7 6.7-1.5 1.5-11.2 2.9-16.3-1-8 2.3-19.5-6.9-23.4m1628-105.3c-9.5 1-17.7 23.7-16.1 29.9 10.7 1.7 13.8-22.3 16.1-29.9M1809 1884c10 6.4 24 9 35.6 13.8 7.2 1.3 30.7 13.6 27.2 6.7-19.6-8.3-40.3-14.1-60.4-21zM594.4 1511c-2.4 7.6-4.9 29.5-2.1 29.7 10.8-4.6 15.3-13.5 6.6-22.1zm-209.2-307.8c.5-4.4 2.4-20.4-4-12-5.5 1-2 18.3-5.8 9-11.7-8.8-7.2 36.6 9.7 3m1825.6-268c-18-3.5-41.4-10.9-56.9-2 16.7 1 33.6 1.6 50.3 2.8 2 .6 5.6 2.2 6.6-.8M288 1240.8c1 10.6 29.3-1 21-12-3.3-1-10 5.5-14.5 7.2q-3.4 2.3-6.5 4.8m1888.8-6.5c-5.7 3.7-16.9 29.4-7.8 25.7 3-9.3 16.6-24.9 10.2-31.8-4.5-3-1.7 4-2.5 6.1m-510 676.4c7.9 5.5 33 10 17.8-2.7-8-2.4-17-9.9-17.8 2.7m902.2-925c6.6-14.7 5.9-39 7-57.3-3.9 17.7-5.8 35.8-7.9 53.8zm181.8 233c-12.2 4.1-20.2 26.6-2.9 16.8 2.1-5.4 2.3-11.3 2.9-16.8M233 1209.4c-10.8 0-13.9 24.7 13.5 5 1.8-13-6.8-17-13.5-5m1812.5-158.1c-16.5-6.3-43 16-44.9 25.3 12.6-9.6 24-24.2 41.3-23.9zm-1853 286.4c-12.7 6.8-9.4 12 1.8 15.2 8.2 5.9 8.4.7 3.5-5.6zM2138 1218c-10 4.1-16.5 21.9-18 32.1 8.8-7.7 12-21.8 18-32m27-48.1c3.3-8.3 17.6-25.8 10.7-29-3.8 8.3-13 20.6-10.7 29m558.1 184.3c1.9-6.1 7.3-29.7 2.2-21.6l-10.4 30c2.9 0 5.6-6.2 8.2-8.4m-398-19.3a326 326 0 0 0-4.1 53.7c2.7-16.7 5.4-33.7 4.6-50.6zM595.9 1182.3c-8.6-4.8-28.8-13.7-32.8-9.2 10.9 2.8 21.6 8.3 32.8 9.2m1738.8 27.7 13.8-28.8c-5 1.6-17.8 21.3-13.8 28.8M557 1166.9c9-4.4-2.6-41-1.9-22.4.6 7.4.9 15 1.9 22.4m-48.5-11.3c10.4 3.2 28 11.5 34.9 8.5-11.5-2.3-23.8-10.1-34.9-8.5m74.9-143.6c-10.3-4.8-25.1-10-35.4-9.2 11.4 4.2 23.3 7.6 35.4 9.2m1222 837.5c-10.5 3.5-2.7 40.3-1.4 16.3 0-5.4 1-11 1.5-16.3m278.3-751.9c6-6.7 24.7-20.5 22.6-23.2a67 67 0 0 0-22.6 23.2m-1541.3-99c5.4-5.7-5.3-38.9-3.8-21 1.5 6.9-.4 15.3 3.8 21m318.4 554.6c-6.7 12.6 6 12.8 10.2 3zM2313.3 1264c5.2 5.8 27.2 15.5 22.4 6.1.6-5.3-16.6-6.3-22.4-6.1m217.5-40.3c9 1.8 17.7 4.7 26.7 5.7 0-4-23.2-10-26.7-5.7m-16.6 89.8-21.5-8c-2 8.5 16.1 7.2 21.5 8m-6-64.6c5.9 7.6 4-8.8 8.9-12.4 1.6-3.2 10-18.8 2.9-11q-6.2 11.5-11.7 23.4m-343.4-21.2c-7-6.3-30.3-4.1-11.2 1.1 3.5 0 10 4.6 11.2-1M526 995.7c-10.4-4.6-22.1-6-33-9.3l-.9.3-.9 1.3zm-21.3 126c-5.4 5.1-.6 14.1-1 21 2.6 20.8 3.3-15 1-21m2241.9 92.5c-10.7 2.1-24.4 30.4-9.1 12 2-3.5 11.1-8 9-12M484 955c-3.8 6 2.6 29 3 24.4 1.1-8.2.4-16.8-3-24.4m1292.1 918.6c-2.8-5.9-29-11.7-24.8-8.8 8.2 3 16.2 7.1 24.8 8.8m-1503.7-623c-2.7 16.2 22.3-13.3 4.6-3.7-.1 1.9-4.7 1.7-4.6 3.7m1780-102.6c8 3.5 42 9.7 18.3 3.1-6-1.7-12.2-3.3-18.4-3.1m141.8 147.9c12 6.3 54 10.5 0 0m306.8 633.2c-2 7.2-10 32-1 14.7q2.5-7.2 1-14.7m-1056.3-64.3c15.3 13.7 10.7-11 0 0M2306 936.7c6.6-9 1.9-30.3 1.2-10.2zM360 1208.3c-2.7 16.2 12.5-1.5 1.6-.8l-.9.5zm2302.6-181.1c1.8 6.2 29.6 12.3 9.3 3.1-3-1.3-6.2-2-9.3-3.1m-1266 288.5c16.4-8-8.4-13.2 0 0m787.1-137.7c-8.6-3.3-31.5-6.4-11-1.1 3.6 1 7.3 1.7 11 1.1m-144.2-34c-8.3-3.8-31-6.3-10.9-1 3.5.8 7.2 1.4 10.9 1m463 588.8c10.1 4.4 11.1-22.8 3.7-5.9-.5-2.7-3.7 8.4-3.7 6m-587.6 269c10.9 6 3.6-16.3.7-3.2zm375.8-710.7c7.4 3.6 7.9-22.6 2.4-6-1 2-2.3 3.9-2.4 6M2360 1186c7.3 4.9 34.8 5 0 0m-189-74.8c7.6-3.2 15-17 3.9-6l-1.9 2.5z"/></svg>