<svg xmlns="http://www.w3.org/2000/svg" viewBox="0 500 3052 1696"><path d="M2220.8 1554.9c1 8.4 5.5 16.9 1.3 25-1.2 5.2-15.4 1.3-4.7 6.9-10.4 18.5-34.6 24-54.7 28.2a185 185 0 0 1-96.8-11.4c-21-8.2-45.6-22.8-47.4-47.6 5.5-42 63.8-48.6 98.1-45.6 25 .2 50 6.6 72.4 17.3 13.5 5.4 22.7 16.5 31.8 27.2m-1 16.5c-3-26-29.4-39.8-51.4-48-41.5-13.8-90.6-16.7-129.4 6-14 6.2-6.3 12.9 4.4 12.9 21.9 4.4 43.7 10 65.6 13.7 18.6-6.6 32.7 10.9 50.8 11.3q28 6 56.4 11.7c3.4-.4 2.3-5.2 3.6-7.6m-196.7-8.7c10.3 26.8 40 37.7 65.5 45 15.6 4 32 5.3 48 5.8 23-1 67-5.8 73.5-26.4l-75.6-16.3c-12.6 6.5-24.5-1.4-34.1-7.7-24.3-5.4-48.8-10.2-73-15.6-7.6-2.3-3.5 11.6-4.3 15.2m90 5.4c9.3 4 29.7-3.2 12.4-9.4-7-3.7-21.4.7-12.3 9.4M685.5 1631c-10.8-2.1-28.3-22.7-10.9-9.7 3.8 2.9 9.6 5.4 10.9 9.7m766.2 156.5c-8.6 2.6-25.1-8.5-7.9-4.4q4.5 1.4 7.9 4.4m1137.2-868.8c13.6 7.8 28.7 12.9 41.7 22 21.6 11 44.6 30.7 44.5 57.1-4.3 8-4 22-15.6 11.5a814 814 0 0 0-160-57.6c-53-12.9-106.6-22.2-160.7-29.2-19.8-3-39.8-4.8-59.7-6.9-18-1.4-36-4.4-54.3-4.3-25-3.6-50.4.3-75.4-3.4-21.2 3.1-42.7 0-63.7 3-4-9.6 10.1-24.5 15.8-34.3 13.1-19.3 38.2-12.9 58.3-15.7 31.7-5.4 63.8-3.3 95.8-3.6 32 0 64.2-1 96 4.8 37.8 3.4 75 11 112 19.5 27.4 5 53.6 14.5 80.1 22.6 15.2 4.6 29.6 12 45.2 14.5m-121-31.5c-16.9-6.2-35.4-8.7-53-12.7q-43.6-7.8-87.3-12.4c-7.8 13-5.4 32.3-3.4 47.3 11 3.5 23.2 3 34.7 5 30.5 3.6 61 7.2 91 13.8 14.3 7 19.1-2 16.8-14.9.3-8.7 3.4-17.4 1.2-26m-153.5-25c-29.5-5-59.6-1.5-89.4-2.5-14.6 1.5-34.5-3.9-45.8 5.2-1 10.6-3.4 21.1-3.6 31.7 12 6 29.6.7 43.7 4.8 28.4 2 57 3.4 85.3 6.6 14.1-2.5 5-25.6 8.5-37q.4-4.4 1.3-8.7m271.3 60.5c-34-12-67.8-25.5-103.1-32.6-7 8.3-8.9 32.9-2.5 43.8 34.5 7.6 68.8 16.2 102.5 26.9 3.4-12 1.5-25.8 3.1-38.1m-415.8-59.3-43 3.1c-6.3 9.9-29 25.4-20.7 34.5 19.7-4 40.3 0 60.2-2.8zm467.7 86.5c-11.9-8-31.6-22.8-42.6-20.3 1.6 14.1-8.2 38.3 13.2 39.7 9.2 2.7 17.9 7.4 27.3 9 .5-9.5 2.9-19 2.1-28.4m-163.6-7.6a860 860 0 0 1 108 31.3c7.7-6.5-4.2-13-12-13.5a1038 1038 0 0 0-90-22.7c-2.7.1-6.5 1-6 5m-151.7-26.7c17.3 5.8 37.2 5.6 55.5 9.4 28.2 4.1 56.2 9.4 84.1 14.8 7.5-4.8-3.8-7.8-8.8-8.2-38.4-8.7-78-10.8-116.7-17.6-4.3.3-10.6-1.7-14 1.6m-12.7-3c-20.4-4.6-41.6-5.4-62.3-7-17.2-.3-34.3-2.4-51.4-4-7.5-3-32.8 4.3-11.4 5.6 15.5.2 31.2-.8 46.5 2 24-.8 47.7 3.9 71.4 5.8q3.9-.2 7.2-2.3m337 43.2c-.7 14.4-5.9 31 13.3 34.3 19 12 5.3-22-2.4-24.7zm-51 12.7q-8 9.3 4 11.2l33.2 13c12.7-14.1-23.6-44.2-37.3-24.2m73.3 30.6c-8.2-5.4-27.4-17.4-25.8-1.4l19.8 9c4.2 1 4-5.2 6-7.6m-503.6-94.4c-11-7-30.9-1.3-45.2-3-7.3-.7-35.6 5.3-16.3 5.2 20.2-3.5 41.2-.3 61.5-2.2m-46.2-36.2c-13.4 4.2-26 21.3-25.7 34 10-10.3 15.6-23.9 25.7-34m196.5 45.5c5.4-2.6 1.8-13.4 3-19.4-1.4-9.4 3.5-29.6-.5-29.3-2.6 15-.1 30.5-3 45.4zm158.6-24.4c-2.8 13.5-5.6 41.6-3.3 46.4 2.2-15 2.7-31.2 3.3-46.4m115 79.2c1.8-10.9 1.5-32.4-.2-36.7.2 12.2-.9 24.6.2 36.7m51.5 437.4c15.5 3.5 37.8 3 48.7 11.6-39.4 109.3-78 218.8-117.4 328-21.6 60.9-44 121.4-65.5 182.3-15 40.4-28.6 81.4-44 121.6-19.9-4.8-40.4-8.9-59.5-16.6 7-26.6 18.9-51.8 28-77.8q51-133.2 101.5-266.3c35.2-93.5 71-186.6 106.3-280.1zm3.2 3.5c-8.8 17.4-13.9 36.5-21.6 54.4-23.2 61-47 121.6-69.4 182.8-2.6 16.3-14.4 31.8-18.8 49.2q-50.9 134.9-102.5 269.5c-8.2 22-17 43.7-24.4 65.9 17 2.9 39.6 15.6 53.7 11 41.1-111.9 80.5-224.4 120.7-336.6q50-140.1 100.7-279.8c5.4-15.7-28.3-12-38.4-16.4m-2472-56.7c-1.4-14 7.2-30.8-10.6-36-11-15.8-23.6 14.2-32 22.6-13.6 16 2.7-12 8.9-17.2 5.5-5.6 19.5-22.7 22.6-17.6-2.8 16.6 20.9 18.4 33.5 18 10.5.7 21.5-1.5 31.7 1.9-6.9 2.1-21.2-4-18.2 9 .8 6.5 4.9 32 .3 27.6-5-11.4.8-24.7-4.6-36-8.6.4-17.5-1-26 1-2.5 8.5-1 18.8-5.5 26.7m39.4-67c-5.2-5-5.1-23.4 0-8.7q.5 4.3 0 8.7m1299-92c-1.3-11.4 12.6-3.5 12.7-16.1 8.9 1.5 17-8.9 18.6-17 1.7-6.6 6.3 5.9 8.3-4 14.6-9.5 25-23.4 39.5-33 13.6-12.8 28.8-24 41-38.1 3.6-8.5 14.2-3.7 5 3.3-1.6 17.6 7 39.3-21.5 45.7a400 400 0 0 0-39.2 37.9c-12.1 2-16.2 17-23.5 21.7a78 78 0 0 0-27.9 26c-9 1.4-8.8 11.7-18.4 13.8-21.6 18.7-41.7 39-63.7 57.2-3.7-8.4-1-18.4-1.8-27.5-2-7 4-10.7 8.6-14.7zm-25.1 27.2-41.4 36.9.1 25.3c13.4-8.9 24.4-21.9 36.7-32.5 7.8-7.3 26.2-20 24.7-26.3-6.6-2-13.6-1.4-20.1-3.4m98.7-64.3 43-39c-10-10.4-27.9-1.3-36.8 9.6-8.8 4.9-9.3 13.2-7 22zm-42.3 13.4c-5.3 5.6-12.4 10.5-16 17.1.4 11.3 24.5 9.4 17.4-4.7q0-6.3-1.4-12.4m-30.5 51.3c-.1-8.3 3-29.3-9.4-15.5-7.3 5.7-16.9 14.7-1.5 14.5q5.4.7 10.9 1m42.8-55.3c5.7-.8 15.9 5.1 18-.8 1.3-11-1.1-24.8-11-11.7-4.3 3.9-9 5.8-7 12.5m58.5-56.2c15.7 9.3 23-4 17-17.6l-17.2 16zm-96.2 107.6c8.2-4 3.6-14.5 4.7-21.6 0-11-8.5 1.1-5.6 6.8.4 4.9-.9 10.1 1 14.8m9.5-8.5c10.6-4.4 16.1-16.3.4-12.6-1 4.1-.8 8.5-.4 12.6m40.6-36.7c-17-14.5-14.4 27.3 0 0m10.7-10.7c5.7-9-1.9-32.1-1.7-10.6q.5 5.4 1.7 10.6m-29 4c-5.3 6.7 1.8 32.6 3 12.5-.2-4.3-1.7-8.6-3-12.5M540.1 1118c0-6.6-2-15.2-3-3.8-5.8 5.7-17.3-.8-25.4-1.2-11.8-2.7-23.9-4-35.3-7.8l-4.4-42.8c21-.8 42.6 7.7 64 10.4 20 4.9 40.5 8.5 60.5 13.3 1.5 13.3 8 34.3-.1 43.1-19-1.8-37.8-6.8-56.3-11.2m-12.1-41.5c-11.6-1-30.2-11.6-38.2-3-4.3 19.7 12.1 27.2 29.2 27.7 16.5 7.6 9.9-15.8 9-24.7m34.7 34.1c11.8.2 36.8 13.8 30.4-8.1-2.6-13.7-3.6-32-31.8-19.2-13.4-1.3-9.6 23.5 1.3 27.2zm-32.3-.7c-6.7-4.6-16-4-23.7-6.3-5.8-2.8-29.8-1.8-14.2.4l34.8 7zm-52.3-42c2.2 8.3 1.2 27.5 6.1 28.7 2.6-9.1-.2-19.4-1.8-28.5zm114.3 55.3c-11.2-6.5-27-6.9-40.4-9 12.4 6 27 7.6 40.4 9m-50.1-42.8c2 8.6-1.4 22.4 4.7 28.5-.4-7.9 4.6-26.4-4.7-28.5m-1.4 93c-18.8.4-39.6-6-58.2-10.6a233 233 0 0 1-4.3-42.7c21.8-1.9 46.8 9.3 70.1 12.5 18 3.3 35.7 8 53.7 11.2 1.9 12.4 2.2 25 3.1 37.6 1.3 9.6-8 6.3-13.8 4.8l-46.7-9.6c-1.4-6.4-1.8-30.4-3-12 0 3 .1 6-.9 8.9m-44.5-23c9.9 5.6 31.6 14.7 38.9 6.1.4-11.4.2-26.2-14.4-24.8-8.2-.9-16.5-5-24.6-3.4zm70.1 18 29.5 6c1-8.6 6-26-6.5-27.7-14-4-37-12-29.9 10.3-1.2 6.7 2.4 8.3 7 11.5M485 1126c-1.6 5.3 3.1 39.6 5.3 23.7-.9-7.9.6-16.2-2-23.7zm112 55.4c-9.6-5-33-11.1-38.2-6.7 12.7 2 25.6 7 38.2 6.7m-63-13.3c-2.2-4-9.8-2.6-14-4.5-8.8-1.2-17.3-4.8-26-4.1a124 124 0 0 0 40 8.6m14.4-29.1c-2.8 9 8.2 35 2 27.5 7.5 5.3 1.7-25.2-2-27.5m59.2 63.2c-2.7 13.5 9 36.4-2.5 43.6-18.3-2.3-36-7.5-54-11.7-2.3-8.8-2.4-18-3.6-4.8-2.3 7-12.7.5-18.4.3-13.6-3.3-27.5-5.6-40.8-9.7.6-13.2-9.6-36.2-.1-44 17.1-1.3 32.7 8 49.3 10.6 19 3.9 37.8 8.2 56.8 11.7q6.9 1.3 13.3 4m-105.4 5c8.6 8 21 7.5 31.7 10.8 13.4 4 7.8-25.4.5-27.5-10.5-.7-35-14.9-32.5 3zm99-1c-11.8-1.9-40.6-18-37 3.4-1 13.1 8.7 19.5 20.6 19.4 10 3.5 23.9 6 18.3-9.8-.7-4.3-1.9-8.6-1.9-13m-40.5 25.8 37.8 8.6c9.6-4.5-16-6.4-21.9-8.3-5.6-.4-11-4.9-16-.3m-20-6c-5.5-4.8-14.4-4-21.3-6.3-6.4-.9-12.9-3.9-19.3-3.4 8.2 6.6 27.8 8.4 40.6 9.8m-46.4-13.5c1.2-6.8 4.6-32-4-28.6 1.7 9-.6 21 4 28.6M557 1196c-6.1 4.7-4.5 30 2 27.7.6-9.2-1.5-18.5-2-27.7m-14.5-176.6c14.3 9.4 44.9-1.3 47.7 19-.2 10.5 10.8 38.3-8.5 31.1l-46.8-8.7c-4.5-7.7-3.6-11.8-7.7-2l-57-10.7a93 93 0 0 1-7.2-41.8c17.5-1 34.1 6.2 51.3 8.5q14 2.8 28.2 4.6m-59.9 16.4c12.2 5.8 47.4 19.1 37.6-7 1.8-11.8-9.7-9.7-17.3-11.7-7.5-.7-15.1-4.5-22.5-2.3-1.8 7 1.7 14 2.2 21m99.8-2.3c-10.4-4.2-22.2-4.9-33.2-7.6-9.2 2.4-5.3 23.2 5 26.2 18 3.4 39.8 14.3 28.2-18.6m-107.3 6.5c3.8-6-3.9-38.3-6.2-23.5l4.2 22.5zm111.7 25.3c-11.7-6.3-28.5-7.9-41.3-8.5 12.4 4.6 27.6 6.4 41.3 8.5m-106.7-21c12.2 2.4 33.4 10 40.9 6.1-13.6-2.4-27.1-5.5-41-6.2m56.4-19.7c-7.5 4.3-2.2 18.6 1.1 25.9 4.5-2.2 1.8-19.3-1.1-25.9m82.2 64c14.9 8.9 41.8.5 48.7 18.1.2 11 .1 22.6 1.4 33.2-15.4 6.2-38.5-5.6-56.5-6.7-8.2-8.8-8.7-34.3-5.8-45.3 4-.9 8.2.4 12.2.7m5.4 31c8.9 7 20.7 6.4 31.3 9 12.9-3.1 6.7-33.4-10.4-29.2-11.6-3.5-29.9-7-22 11.5q1.1 4.5 1 8.7m39.8 17.2c-8.3-6-19.4-4.8-29-7.4-8-2.7-21.3-1.3-5.5 1.9 11.4 1.7 23 5.8 34.5 5.5m-48.7-13c3.7-5.8 2.4-29.2-3.3-27.5 1.4 8.9-.1 19.4 3.3 27.5m-1.6 66c-1.7-13.5-7-31.5-1.8-43.6 11.1-1.7 20.9 4.4 31.7 6.1 14.5 2.2 34.5 3.5 28.1 23.6 1.3 11 6.3 32.2-12.7 23.9-15.1-3-30.7-5-45.3-10m14.3-12.4c9.8 7.3 22.3 7.2 33.8 9.9 7-3 7.9-31-8.4-28.5l-26.6-4.9c-1.8 7.9 2.3 15.6 1.2 23.5m-10.7-26.7c-.7 7.6-1.5 30.5 4.1 29 .2-9.6 1.8-20.6-4.1-29m51.1 45.6c-12-6.6-28.3-8.3-41.5-9.2 13.2 5.3 27.6 6.8 41.5 9.2m74.8 77.4c-5.5 5-12.9-.6-19.3-.8l-39-8.3c-1.8-14.7-7.1-33-2.5-46.4 19.2 4.1 38.3 8.6 57.6 12.3 2.6 14 1.7 29 3.2 43.2m-45.5-23c10.2 9.4 25 8.6 37.8 10.9 3.8-18.7-1.6-32.6-22-31.8-12.2-6.3-18.2 1.4-15.8 13zm36.8 18c-12-4.2-27.6-9.6-39-7.7 12.4 4.7 25.8 7 39 7.6m-44.2-13.4c1.4-6.7 3.5-28-1.6-26.8-.7 8-3.9 20.7 1.6 26.8m-12.3-94.9c18.6 1.6 36.3 8.5 54.8 11 8.5 9.7 4 28.6 6 41.7-11.5 6.1-29.9-3.2-43.8-4.7-21 1.2-16.5-21.5-18-35.6-.5-4-3.3-9 1-12.4m52.8 17.2c-13-5.3-44.8-17.4-37 8.8-1 9.2 9.8 10.8 16.6 12.4 10.8 3.7 25.4 6.3 21.3-9.2q0-6-.9-12m1.2 32.3c-4.6-4-12.4-3.3-18.3-5.4-7.3-1-14.7-4.5-22-3.9 8.2 6.5 28.6 7.9 40.3 9.3m-47.9-42.5c-3.9 5 1.3 38.1 3.6 21.7-1.2-7 1.2-15.8-3.6-21.7m185.4 75.3c-17.6-5.7-45.4-3-55.8-16.4-.1-12.3-8.3-34 .9-39.7 16.8 2.4 33.2 8 50.1 10.5 12 7.1 4.7 27 7.1 39.6.2 2.2-.6 4.5-2.3 6m-5-13.8c2.3-11.5 2.7-30.9-13.2-29.4l-20.7-3.9c-9.8 12.2.5 31 17 30zm-39.8-.8c10.1 2.4 36.3 10.8 37.7 5.8-12.4-2.8-24.9-7.2-37.7-5.8m-4-3.9c1.4-6.8 2.3-34-4.2-27.6 2 9-.8 19.6 4.3 27.6m-10.6-51.9c-1-14-2.9-28-3.7-42 3.2-6.6 16.8-.3 23 1 12 2.7 24.7 3.7 36.5 7.5 3.2 12.1.9 25.1 3.6 37.4-5.3 14.7-28.8-1.7-41.4-.7q-9-1.8-18-3.2m50.7-29.4c-11.1-1.2-30.2-12.1-36.9-3-9 22.8 25.8 32.2 37.3 25.3 1-7.4.2-15-.4-22.3m1.7 34c-3.9-5-12.6-3.6-18.6-5.9-7.4-1.2-14.6-4-22.1-3.6 12.8 5.4 27 7.6 40.7 9.5m-49.5-42.5c.3 6.6-.7 28.5 4.1 26.7-.1-7.3 3.6-24.2-4-26.7m-67.2 82c-1.9-14.2-6-31-1.7-44.7 13.7 2 26.7 6.8 40.4 8.8 6.5 2.5 17.9 0 19 9-2.5 11.6 5 32.2-4.5 38.2-17.6-4.5-35.8-6-53.2-11.3m14.7-36.1c-3.3 13.6-1.4 32.4 17.2 30.4 11.3 3 24.5 6.4 20-10 2.7-13.1-9.2-16-19-16.9zm35.5 41.8c-6.2-8.6-26.1-6.4-37.4-10.3-2.9 5.4 10 3.4 14 5.6zm-46.9-43.4c-.6 7.2-1.8 26.2 4 27.9-1.3-8.7 3.6-21.6-4-27.9m-10.1-64.6c13.2-1.3 25.6 4.5 38.6 6.1 6.9 1.5 14 2.3 20.7 4.5-1.6 13.4 9 35.6-1.9 43.6l-53.5-10c-2.9-14.2-7.9-30.2-4-44.2m16.9 30.5c10 4.8 32 14.8 37.5 5.2 5.7-18.6-8.9-28.7-27-26.5-20-8.1-8.9 11.2-10.5 21.3m38 18c-10.6-5.7-33.7-9.6-38-8.3 12.3 3.8 25.1 8.3 38 8.3m-45.3-12.6c2.4-7.1 1.6-31.3-4.2-26.7 2.5 8.4-1 20 4.2 26.7m191.4 106.5a294 294 0 0 1-55.5-11.4c-1.1-13.8-7-32.4-.8-43.7 13 0 24.7 6 37.5 7.6 6.8 2.5 17.7.1 20 8.8.3 12 0 24.2 0 36.3zm-5.2-13.7c5.7-19-3-31.4-22.6-30.8-21.4-12-20.2 30.2.4 27.2 7.4 1.3 14.7 3 22.2 3.6m-48.2-34.6c1.1 9.4-.4 19.7 3.2 28.3 1.5-1.9 5.7-30.8-3.2-28.3m9 33.3c10.4 4 32.7 11.3 37 7.5q-17-5-34.6-7.7zm42.8-46.6c-7.2 4.5-15.8-1.1-23.6-1.8q-16.8-3.8-33.6-7c-1-14.1-7-31.7-1.7-44.2 11-1.7 20.3 4.4 31 5.5l25.5 5c1.7 13.7 4.2 28.7 2.4 42.5m-43.5-45.2c-7.8 21.3 11.2 33.1 30.3 32.5 11.8 3.8 7.5-23.6 1.7-26.5-10.7-1.7-21-5.6-32-6m-3.1 32.2c11.3 4 32.2 10.2 38.8 7.1a143 143 0 0 0-38.8-7.1m-5.4-4c5.4-4.5 1.8-13.3 1.9-19.4.3-13.7-6.6-9.2-4 1.4zm-154-63.8c-1.4 13.5 8.8 33.9-2 43-18.5-2.5-36.6-7.2-54.9-11 1.4-13.6-9.6-37 1.2-44.2 18.6 3.6 37.5 7 55.7 12.2m-5 5.5c-5-6.3-14.1-4.3-21.1-6.6l-18.7-3.3c3.3 10.3-2 25.7 11.4 29.1l27.6 5c2-7.8.4-16.3.8-24.3m-40 22.1c10.4 7.2 27.1 7.3 40.4 9.5-11.7-6.7-27.1-8-40.5-9.5m-5.6-1.5c3-7.1 3.8-32.8-3.7-30 1.3 10 0 20.7 3.7 30m-63.8 108.3-3.7-44.8a69 69 0 0 1 25.9 4.7c15.3 4.5 42.4 1.2 35.6 25 .3 10.5 7.7 33.3-11.5 25.3q-23.4-4-46.4-10.2m20.9-8 31 6.2c2.8-7.4-.9-15.9-.8-23.8-5.6-9-23.8-7.8-34.4-10.5-6.4 4.5-3.4 22 4.2 28.2m-11.3 6 41.2 8c-2.1-6.4-27.6-8.2-38.7-9.9zm-6.5-36.7c-.2 5.6.8 39 5.2 25.4-1.3-8.2 1.2-18.4-2.7-25zm195.9 82c-.6-14.6-5.3-33.3-1-45.6 19.2 1.6 37.5 8.5 56.3 12.6-.3 14 7.6 32.6.1 44-13 0-25.6-4.9-38.4-7zm52.4-3.6c-2.3-8.8 0-19.6-4.6-26.8-10.8-1.8-21.7-6.4-32.6-5.7-8.5 15.9 4.2 33.6 22.8 31.4 4.8.7 9.6 2.8 14.4 1m-46.4-4c5.8-5.8 1.8-34.6-2.8-28.3-.4 9.5.9 19 2.8 28.3m44.3 11.6c-10.8-3.8-22.3-5.5-33.3-8.4-13.2.2 14.7 6.5 20.7 7.3q6.3 1 12.6 1m17.1-34.3c8.4.4 16 1.3 23.8 4.3 11.4 2.8 22.9 5 34.1 8.2.7 14 4.8 34-1.8 44.6-17.3-2.5-34.4-7.8-51.6-11.4-5.3-11.8-5.5-31.3-4.5-45.7m22.2 36.7c10.5 1.4 34.2 15.1 31-4.4 1.4-11-1.3-20.3-14.3-19.6-12-3.8-29.9-8.6-23 11a18 18 0 0 0 6.3 13m-9.5 6c12.2 2 31.6 11.7 39.8 6.2-12.6-1.2-29-10.3-39.8-6.2m-4.3-6.3c3.7-7.2 3-29.8-2.6-26.6-.6 8.5 1.4 18 2.6 26.6m-223.2-211.2c-1.8-13.2-5-26.5-5.3-39.7 12.2-4.6 30.7 3.5 45.1 5.3 20.7-1.6 18 19 19.9 33.4 4.4 19.4-19.7 7-30.1 6.6zm21.3-7.8c10.2-.8 35.4 13.1 31-5.1 3-20.9-22-17-35-20.8-10.6-3-4 24.6 4 25.9m-10 5.4c12.7 2.1 25.2 5.6 38 6.8 5.6-3.6-20.4-5.4-29.8-7.9-2.7-.6-6-1.2-8.2 1.1m-5-4.7c5-8.2-3.8-39.3-4-16.5.6 5.6 2.3 11.2 4 16.5m-13 .8c-6.4 6-15.6.2-23.2 0-12.3-2.7-25.2-3.3-37-7.6 1-12.6-15.5-38.5 1-41.6 17.5 4.7 40.3 4.8 55 13.6 1 11.9 3 23.7 4.1 35.6m-10.4-34.1c-11.5-.4-35-14.6-38.5-1.7-3 20 15.8 22.7 31.2 24.5 18.5 6.7 6.5-12.7 7.3-22.8m-50.6-10.1c2.5 6.8 5 41.1 7.8 18.6-1.6-5-.2-19-7.8-18.6m52.7 41.5c-3.7-5-12.5-3.3-18.3-5.4-7.5-1-14.8-3.7-22.4-2.7a299 299 0 0 0 40.7 8.1m301.3 243.5-3.5-43c16.2-4.4 36 9.8 54 10.5 10 8 3.7 28.5 7 41.6-2.6 9.2-14.4 1-21.2.8-11.4-3.2-23.3-4.7-34.4-8.6zm21.7-6.7c11.2 2 35.7 14 29.2-7.4 1.8-18.8-22.7-20.2-36.5-20.9-1.3 7.6-.3 15.2-.4 22.8zm-10.3 4.2 39 11c-6.7-9.4-25-7.2-36.3-11.8l-1.3.2zm-4.8-4.3c2.5-6.1.4-13.5 1-20.2-2.4-27.6-7.4 15.6-1 20.2m-161-244c14-2.6 27.6 4.4 41.5 6.1 13-.5 22.3 5.2 21 19-.1 9.7 7.7 30.5-9.2 25-15.7-3.2-31.6-5.6-47.2-9.3a225 225 0 0 1-6-40.8m24.8 32.2c12.4 1.3 39.6 15.2 31.9-6.4 2.5-12.4-9.3-13.8-18.2-15.2-7.2-.9-14.4-4.8-21.7-2.1 2.1 7.4-.4 17.1 6.6 22.3zm-7.9 6.4c11.3 1.1 34.4 8 38 5.3a100 100 0 0 0-38-5.3m-8.4-34.2c-3.3 8 1.3 27.4 4 28.3.4-9.6.2-19.5-4-28.3m197.2 94.2c1.3 12.5.3 25.1 2.6 37.4-2.3 10.1-14.8 2.4-21.8 2-12.1-3.1-25-4.3-36.5-8.7.7-12.9-10.7-37.8 1.9-43.7 11.3 1.1 22 5.9 33.4 7.5 7 1.5 14 2.6 20.4 5.5m-6.2 3.7c-9.5-5-21-5-31.3-8-11.9 1.7-4.5 31 10 29 11 3.7 30 8.8 22.6-9.8zm2.3 33c-11.9-5.2-27-8.2-39.6-9 10.9 6.2 26.9 7.3 39.6 9m-46.1-14c6-6.4 1.5-28.3-2.5-28.2-1.8 9.5 2.3 18.7 2.5 28.1m-19.4-59.4c-3.8 6.2-10.8 1-16.4.9l-41.9-8.4a113 113 0 0 1-5.1-42c18.3 3.8 46.9 3 59.5 15.6-.1 11.5 2.6 22.5 3.9 33.9m-47-42c-4.9 18.7 7.7 29.9 25.3 29.4 18.5 11.3 17.9-23.4 3.8-23.9zm-12.3-2.6c4 8.5 1.1 22.5 6.6 28.3 1-8 3-25.3-6.6-28.3m51.4 41.3c-9.5-3.6-35.2-10.5-35.8-6.7 11.6 3.1 24 6 35.8 6.7m81.7 143.3c-8.7 1.7-17.4-3-26-4.2l-30.5-7c-1.5-14.5-5.6-30.9-3-44.4 18.1 3 43.3 5.7 57.6 15.5-.8 13.4 3.5 26.7 1.9 40.1m-7-13.6c5.9-17.7-3.7-32-22.5-31.2-21.2-12.8-18.8 29.5.4 26.9 7.4 1.2 14.5 5 22 4.3m-47.8-35.9c1.6 9.2-1 22.3 3.8 29.2.7-7.3 5-27.4-3.7-29.2m7.7 35.3c11.9 1.6 33 11.1 39.2 7-12.4-2.8-27-9.9-39.3-7m-215 18.5c.5-13.5-7.3-34.2-.4-44.2 9.7-1.8 17.7 3.5 27 4.9 9.5 2.3 19.8 2.3 28.7 6.4 2.7 13 1.8 26.6 3 39.9-8.4 11.4-30.3-4.2-44.1-3.5zm50.6-1.5c2-9 4.2-29.3-8.8-30-8.8-1.5-17.4-5-26.2-5.1-4.4 7.2-4.3 26.2 7.3 28.9zm1 5.4c-12.4-4-25.5-5.4-38.2-8.3 1.1 4.3 30 12.1 38.2 8.4m-46.6-42.6c-5 8.2 1 18.7-.3 28 7.3 7.7 2.8-25.2.3-28m252.3-89.5c-7.2 1.7-15.1-2.3-22.6-3l-33.9-6.5c-4.1-13-5.8-29.1-5-42.6 10.2-.8 19.2 3.3 28.8 5.5 11.8 3.3 33.2.4 31.7 18-1.9 9.7 4.4 19.3 1 28.6m-41.9-21.7c10 4 31.9 15 36.5 4.8 2.3-20.3-15.8-24.8-32.3-26-12.4-5.5-6.6 15.6-4.2 21.2m37 17.8c-9.5-7.4-36.2-11-39.2-8.7 12.8 3.6 26.2 6.2 39.3 8.7m-50.5-43.7c-3.5 6.4 5.6 40 4.7 21.4-1.3-7.2 1-15.7-4.7-21.4m-218.3-44.5c6.3.5 13-.2 18.6 2.8l40.1 7.7c.6 12.3 10.7 33 1 41-18-2.5-36-5.3-53.6-9.2-5.4-3.5-2.8-12.8-4.8-18.8-.1-7.7-3.7-16-1.3-23.5m53.7 14c-12.2-1.8-24.4-5.7-36.6-6-3.6 5.7 1.5 13 1.9 19.4 6 10.3 28 10.8 37.6 9.5-1-7.6-1.2-15.4-2.9-23m-38.3 24c10.6 4 35 8.5 38 6.3-12.6-2.7-25-6.6-38-6.3m-7.8-32.3c-3.4 4.9-1.2 30.5 4.7 25.5-1.5-8.4 0-18-4.7-25.5m1988 775.6c3 10.7-.4 21.8-2 32.4-8.4 16.4-14.9 30.4-14.3 49.3a72 72 0 0 1-50.6 52.8c-2 14.6 0 39.4-21.2 38.3-23-4.3-3.6-32-13.6-42-22-9.9-36.8-33-36.6-57.1-4-22 18-37.3 16.4-57.6 0-24.3 14.4-46.4 33.6-60.4-3.8-18.2 11.8-33.5 10.3-49.7-3.5-13.3-6-27.5.4-40.4 18.5-23.5 8.5-54.4 30.5-76.7 1.1-16.6 8.8-31 16.7-44.9 1.6-25.6 14.5-52.7 40-62 27-12.6 59.7 7.4 70 33.3 8.8 20.5 1.2 43.5-9.3 61.8 5.3 23.6-15.5 40.3-20.6 59.8-1.4 19-20.9 31.1-15.8 51.1-3.7 18.2-14 33.6-4.4 51.7 1.8 23.5-11.2 45.3-28.9 59.7zm-117.5 116.2c35 32.7 93.8 5.3 98.4-41.9a64 64 0 0 0-15.7-46c-18.7-24.6-59-24.7-79.3-2a68 68 0 0 0-17.6 63.3c2.7 9.9 8.8 18.1 14.2 26.6m36.7-163.1c29.6-12 64.5 5.2 76.5 33.7 8.9 14.1 21.5-13.9 25.4-22.6 10.7-28.3-5-66-36.3-72-23.7-7.6-48.6 8.9-60.6 28.5-3.7 10.3-8.2 21.3-5 32.4m8.3-45.3c16-12.3 33.9-26.9 55.6-20.7 14.9.5 24 13.4 33.7 22.6 10.4 5.9 13.3-22.2 13-31-2-30.3-32-58.1-62.8-50-18.7 3-31.8 19.2-39.3 35.3a66 66 0 0 0-.2 43.8m-42.5 113a58 58 0 0 1 82 3.1c12.4 4 13.6 39.9 23.1 15.8a59 59 0 0 0-11.8-69.5c-17.2-20-48.3-21.7-69.4-7.1a70 70 0 0 0-26.1 50.6zm147.4-158c18.2-19.7 17.9-55.3-3.6-73-15.9-17.1-42.9-17-62.2-6.3-14.6 9.2-33 41.4-22.6 51a55 55 0 0 1 75.8 9l9.8 15zm19-44.2c23.3-21.3 17.1-60.3-6.6-78.3-25-21.7-66.6-8-79 21-3.4 5.5-12.1 29 .4 18 20.1-11.4 48.6-10.1 65 7.6 12.4 6.9 13.3 21.4 20.3 31.7m28.4-85.4c-4-23.2-20.6-48-45.9-49.4a50.7 50.7 0 0 0-56.2 45.7c-4.8 18.4 16.8-5.3 27-3.3 26-5.6 50.7 12.2 61.6 34.8 6.9 16.7 12.5-22.5 13.5-27.8m-171.7 401c-5.2 11.4-8.4 41 11.8 33.2 4-7.4 15.1-31.5.7-31.8zm240.6-683c-6.8 3.8-17.8 3.8-18 13.9-.3 8.4-5 20-15.1 18.5-11.2.7-12.6-12.7-9.3-20.7 4.6-15.6-23.2-18.6-24.4-35.1-5-15.2-2-32.4 7.3-45.4-1.1-17.3 8.3-32.9 20.9-44 3.9-15.4-3.5-33.7 6.5-49.5 1.7-18.3 13.1-33 17.6-50.5 6.8-15.3 6.7-34.2 21-45.3 13.6-13.9 37-16.7 52.1-3.5a46 46 0 0 1 13.2 53.6c-5 22.4-7.6 46.1-19.1 66.4-6.7 11.3 1.7 23 1.6 34.4a52 52 0 0 1-21.5 39c-2.8 7.8-8.6 15-6.2 23.7.5 18.7-11.6 34.7-26.6 44.5m-64.5-29.3c5.3 11.3 10.3 24.1 23.7 27.9 27.9 14.7 63.1-13.6 63.3-42.5-1.2-24-23.7-46.6-48.6-40.8-26.1 2.3-41.8 31.3-38.4 55.4m115.6-75.7c-1.9-17-10.8-33.9-27.2-40.8-19.7-5.1-44 1.6-52 22-2.7 7.9 11 1 16 1.8 22.7-1.5 41.8 19.3 45.1 40.7 2.1 7.4 2 23.1 11.8-7zm-83.6-22.2c11.9-16.3 30.7-28.3 51.6-23.8 11.2-2 23 19.5 28 13 .4-17.9-11-38.2-29.3-42-17.5-7.6-39 4.7-46.4 21.2-5.6 9.7-4.2 21-3.9 31.6m-.8 38.5c18.9-3.4 40 2.1 51.2 18.7 4.5 9 8.8 12.3 10.5-.4 4.6-23.7-16.3-50.8-41.6-46.8-20.6-.3-38.2 17.7-41 37.7 1.5 6.2 10.8-4.6 15.7-6zm85.5-60.6c12.9-18 5.8-43-12.4-55.1-23.3-16.2-59.6.2-63.9 28.2 9.7-2.5 34.2-19.7 49.7-6 13.6 6.4 21.1 19.6 26.6 32.9m16-60.3c7.2-17.3 1-36.9-12.3-49.2a38 38 0 0 0-55 14.2c-4 5.6-8.9 23.7 1.3 11.6a40.3 40.3 0 0 1 57.3 9.5q5 6.6 8.7 13.9m-21.3 5.3c5.8 6.7 10 14.5 14.8 21.8 7.7-16.7-.5-38.5-15.4-48.6-20.7-14.7-50.8-.6-57.9 22.5 2 9 18.5-11 28.3-6.8a52 52 0 0 1 30.2 11.1m-82.1 210c-7.3 8.1-6 31.8 8.7 19.9 2.2-5.6 9.2-20.5-2-19zm-2156 336.5c10.7 6.8 29.3 13.2 35.3 21.6-10.4-7.6-28-9.5-35.7-21.2zm1239.2-655c.6 6.2 3 12.9-3.4 16.8-34.6 32.5-67.1 67.2-101.9 99.5-49.1 47.7-96.3 97.5-146 144.6-37.1 35.2-72.5 72.2-109 108-54 53.6-109 106-162.3 160.4-15 15.8-32 30.5-46.2 46.9-.5 10.2-3.5 6-8.4 3.7-5.4 4-9.8 9.7-16.1 12.4 3.9-9.2 19.7-17.5 2-18.2-85.4-20.4-171-39.6-256.6-59.3-168.4-39.4-337.3-77.3-505.7-116.8l-101-22.8c-6.4-2.3-3.7-21.7 5.9-14.6l20.5-8.3c2.1-15.7-2.7-31.5-2.8-47.4-4-16.4 1.3-37.7-7.8-50.8-12.3-1.5-8.2-16.1-10.3-25-3.3-35.3-8-70.5-10.5-106-3.5-26.4-5.6-53-8.8-79.5.5-11.2-7.5-26.5 7.5-29.8 39.9-21 80.7-40.4 120.2-62.3 15.6.6 30.8-3.5 46.5-2 14.8.4 29.2-3 44-2 17.3 0 34.4-2.9 51.7-2 13.6-.7 26.8-1.4 39.9 3 23.7 4.5 47.6 9.4 71.4 12.8 8.6-5 .7-20 1.9-28.5-1.3-28.4-3.8-56.8-5-85.3-2.4-11-6.4-25.6 9.5-25.1 23-11.4 45.7-23.2 68.8-34.3 12.4 6.2 32.8-.4 48.2-.3 23.2-1.3 46.5-.9 69.6-3.4 17.5-2 34.3 3 51.5 4.9 2.7-25.9 1.3-52.2-.2-78.2-11.5 2.4 2.3-5.5-8.2-6.3 6.9.9 9.8-6.9 11.3-10.8 2.2 11 10.5 2.5 17 0 33.8-17.4 68-34.4 100.7-53.6 5.2.2 12.7-6.2 16.3-1.2 17.6 1.5 36.2.3 54.3.7 20.2.2 40.4-.5 60.6.4-5.7 16.3 6 23.9 21.5 22.1 33.8 5 67.8 8.4 101.7 12.8 14.6 3 28.4-20.7 38.6-18.9-7.4 7.7 8 5.5 12.9 7.1q46.5 5.6 93.1 11.6 39.3 4.7 78.5 9.8c27.8 2.7 55.4 6.8 83.1 10.2 44.8 4.8 89.4 11.8 134.2 15.5a248 248 0 0 0-2.7 49.5c-3.5 22.2-.6 44.8-3.9 67-.2 17.6.4 35.3-2 52.8-.5 16 1 32-2 47.7 1.5 21.4-4.2 45 1 64 11.8 4.4 24.6 6 36.9 8.6M1379.2 1309c12.6-5 21-16.8 31.3-25.2 6.6-5 11.4-13.8 20.2-14.3 1.6 14.2-.6 28.6 1.3 42.7 15.6-10.5 27.4-25.6 42-37.4 30.5-27 59.5-55.4 90.2-82 25.2-23.6 51-46.6 76-70.2 6.3-8.6.2-21 4.5-30.9.6-37.4-.4-75 .8-112.3 3-22.6.5-45.6 1.4-68.4.4-23.4-1-47 2-70.2 2-11.2-1.9-20.7-10.8-10.7-45.9 34.1-92.1 67.7-137.8 102-50.5 37.4-101 75-151.7 112l-55.4 41c-14.7 7-8.6 22.4-9.8 34.7.3 19-.6 38.2.6 57.2 1 7.8.7 20.4 9.9 9 79.9-63 159.1-126.9 239.2-189.8 11-5.1 18.1-22.8 31.3-19.5l21.4 3.4c-1.4 25.5.2 51.1-1.4 76.5-2.9 13.4.6 27.8-2.3 40.6-33.9 30.1-68.6 59.2-102.1 89.6-17.6 14-35.5 28.5-45.9 48.8-15.4 26.5-35.7 49.7-55 73.5-20 13.3-36.2 31.6-54.2 47.5-11.1 10.5-21.9 23.4-37.1 18.3-1.2 27 0 54.1 0 81.2 9.7-3 3.8-23.7 4.5-34-5.5-20 .4-38 18.2-49 22.4-20.1 45.7-39.4 67.5-60.3l.8-1.8zm-234.5-631.2c8.8 3 19.1 2.7 28.5 4.4 30 4.2 59.7 9.2 89.7 12.2 28.6 4.1 57 8.6 85.7 11.8 27.5 5.5 55.5 6.8 83 12 44.2 5.4 88.3 11.9 132.5 18 28.4 4.4 57 7 85.2 12 8.4 0 19.6-.5 11.1 10 1.7 18.6-20.8 20-31.7 32.2l-99.5 72.7c-10.2-9.7-15.3.2-21.7 6.4l-44.9 35.3c-.2 7.7-9.4 9.3-14 13.9-45.8 32-91 64.6-136.7 96.6-10.7 15.6-27 1.3-42 1.7-109.9-19.3-219.8-38-329.6-57.3-14.4-1.6-24.7 11.8-37 17.5-18.7-.5-37-5.4-55.6-8-37.3-6.6-74.4-14.1-111.9-19.5-20.2-1.7-40 3.1-60.3 1.7-12.4.8-24.6 2.8-37 2.1-18.2.3-37.5-.7-53.4 9.2l-56.8 29.5c-.7 4.7 11.6 3.3 16.3 5.5 57.2 11.1 114.5 21.4 171.7 32.2q128.2 23 256 47.6l25.7 5q31.1-18.6 61-39c8.7-11.3 20.5-1 31.8-1l157 29c12 3 25 5.7 34-4.5l351-256.5c8-13.2 31.5 2 45.3 0 14.7 3.4 30.4 5 41-8 16.5-12.5 34-24.4 49.8-37.5-6.7-2.6-15.8-2.7-23.5-4.3a172 172 0 0 0-40-3c8.5-8.1 19.3-14.1 28.6-21.6 5.7-3.3 10.5-9.9 17-10.3 9.3 5.6 20.9 3.7 31.2 6 10.6 1 24 7.8 32.4-1.7 9.9-8 20.5-15.1 29.9-23.7.3-5.3-11.8-2.8-16.9-4.7l-326.2-42c-8.4 5.4-18.4 9.2-25.7 15.8-5.7 5.5-15.8-5.2-25.4-3.4-25.9-3.8-52-6-77.8-10.2-31.6-3.3-63-7.7-94.5-11.8-8.9 2.4-9.8-2-8.4-7.3-16.2-7.5-41.5-2.3-59.4.7-21.2 9.8-41.7 21.4-62.6 32zm645.4 388.6-80.8 80.9q-12.6-4.6-26.3-6.8l-46-9.2c-29.8 24.9-56.9 52.8-86.4 78-25.9 24-51.5 48.5-78.2 71.6-14.2 13-27.8 26.9-42.4 39.4-7.6-1.8-10.5 7-15.5 11-15 .6-31-10.2-44.6-6q-34.5 31-69.3 61.7c-8.3 5-4 15.1-5 23.1a208 208 0 0 0 1.7 35.4c3 10.3-4.7 15.7-11.7 21.3-8.7-3-21.7-5-18.4-17.3-.4-17.6.4-35.3-1-53-17.5-7.4-37.8-9.3-56.5-14.4q-60.7-13.1-121.5-26.5c-8.6-2.2-13.6 6.8-20.2 10.7L963.1 1449c-10.9-3-25.3-3.1-23.4-16.8-9 5.5-16.2 9.3-26.4 4.3-6-1.4-13.2-1.5-12.4-9.5-3.7-8.4-15.1 9.3-23.8 1.7l-21-4.7c-1.6-12.2-7.2-16.8-16.9-6.3-5.6 2.4-12.7-2.4-19-3-5.8-1.5-12.9-1.6-13.3-9.2-2.6-5.5-10 5.5-14.8 3.2l-25.6-7c-.5-15.7-11.7 2-19.9-3l-18-5.1c-.3-13-9.5-12-16.3-3.2-11.7-4.8-31.7-2.2-32.4-18.6-8.8 3-16.1 10-25.4 3.8-5.2-2.8-14.4-1.5-15.2-8.9-1.5-7.8-9.3 3-14 2.2l-22.4-5.5c-1.1-15.5-14.3 1.8-23.6-5.1-7-1.5-14.4-4.1-19-8-5.6 4.3-11.6 2.3-17.6.2-6.4-1-12.4-2.6-12-10.3-9.4 5-29.3 7-32.5-6.9-6.2-2-32.8 8-13.2 9.1 102.5 23.4 204.7 47.9 307.1 71q143 33.5 286.1 66.5c91.6 21 183 43.3 274.7 63.8 66.4-65.4 131.8-131.8 198-197.5 46.2-43.4 90.2-89.2 135.4-133.8q116.3-116 232.2-232.2c-8-4.2-34.2-11.5-36.5 5.5-4.4-7.7-10 6-14.7 8-19.4 18.4-40.2 35.3-58.6 54.8-27.8-12.6-2.7 16-18.6 17.9M929.3 928.8c67.7 12.3 135.5 23.2 203.2 35 49.3 8.8 98.7 16.5 147.9 25.6 17.3 5.3 28.4-14 42.6-21.1l93.7-68.1c-7.5-7-26.8-5.4-39-8.8l-535.2-83.6c-10 8.8.2 31.4-2.3 45.8 3.4 28.3 2.4 56.9 6.4 85 15.4 2.2 32.3 9.1 47.2 7 11.7-6.9 22.5-15.3 34.6-21.6zm886.4-182.5q38.1-27.5 75-56.4c-23.1-6.2-47.6-6.8-71.4-9.7l-66-8.2c-39-5.9-78.3-8.8-117.3-14.6-29-2.5-57.8-7.9-87-10.3-20.4-3.3-41.2-4.8-61.7-7.7l-20 14c-17.3 1-34.3-3.8-51.5-5.2a2668 2668 0 0 1-70-8.5c-15.2-2.8-33.5-1.7-46.8-7 7.7-4.2 36.9-16 13.2-13-35 .2-70.3-.8-105.1.4-36 19.8-73 38-109 58-9.2 4.5 8.2 3.4 12.5 5q55.4 7.6 110.7 15.6c51.4 6.4 102.4 15.6 153.9 21.3 54.8 7.8 109.7 15.2 164.5 23.4 28.2 3.7 56.7 7 84.6 12.2 1 6.2-9.7 9-14 13.6l-89.1 62.9c-21.2 2.5 10 16 16.2 3.8l115.3-82c-1.5-4.6-11.5-2.6-16.5-4.5-37.3-6-75-9.2-112.2-15.7-72-8.6-143.7-20.4-215.7-29.3-42.1-7.2-84.7-11.2-126.8-18-23.4-4.2-47.3-4.6-70.4-10 34.8-16.8 68.8-35.3 103.3-52.6 15.9 3.9 31.8-1.8 47.8-.5 11 .5 22.8-1.2 33.1 0 .4 6.1-27.3 13.5-6.4 14.2 60.3 7.4 120.3 16.6 180.8 22.8 10.6-5.3 20.9-12.3 31.7-16.5 30.7 4.2 61.6 7.9 92.3 12 32.6 3.5 65 8.6 97.7 12 24.2 3.7 48.7 6 73 9.4 23.8 2.6 47.5 6.9 71.5 9 14.8.5 42.7 3.8 18.2 17.6a2613 2613 0 0 1-47.4 36.6c-4.2-3-11.2-3.6-17.4-4.3l-41.7-5.6c-9.6 7.4-19.8 14.1-29 22 2.2 4.6 11.7 2.4 16.9 4.2 13.3 2 27 3 40 5.7-8.6 12.2-26 20.3-38 30.8-12.5 6.5-26 25.1-38 23.6-9-2.7-19.7-2.3-29.2-4a52 52 0 0 0-53.9 14.1q-171.2 125.1-342.6 250c-23.8-1-47-7.6-70.5-11-45-7.5-89.7-16.7-134.7-24l-67.8 43.5c-23.4-2.8-46.3-8.6-69.6-12.5-39.3-7.7-78.7-14.8-118-22.3L606 1011.9c-35.3-6.4-71-12-106-20-6.3-4.7 9-8.5 13.7-12.4 27.4-15.1 54.7-30.5 82.4-45.3 6.3 5.3 17 1.4 25.4 1.1 21.9-.9 44 1.2 65.6-2.2 20-.4 40.2 1 59.8-1.6 48.1 8.3 96.1 17.3 144.2 25.7 13.9 6.6 24-7.1 35-13 12-4.6 26.7 4.2 40.2 4.7q74.6 12.5 149 24.3c59.2 10.3 118.5 19 177.5 29.4 15.4-.6 25.9-13.5 38.3-21.1 40.3-29.3 81.3-57.6 121.5-87-34.1-7.6-69-10.8-103.4-17.4-46-7.6-92.2-14.4-138.3-21.7-52.4-7.8-104.6-17-157-24.9-37-6-74.1-10.8-111-17.2-15.8-2.4-31.6-5.7-47.3-7.4-6.1 2.7-10.4-3.3-16.7-3-8.7.4-12-7-2.3-9.3l40.6-22.1c16.7 3.5 33.8-1.7 50.8-.5 14.8.7 29.2-2.9 44-2 12.6.6 25.4-1 38-.4 29.6 5 59.5 8.8 89 14.2 40.4 5 80.4 12.6 120.6 18.5 30 4 60 9 89.8 13.6 16.6-.5-.7-9.1-8.5-8.1q-55-8-110-16.7c-51.7-6.9-103-16.5-154.7-23.2-24.7-6.7-50.4-.1-75.7-1.3-14.3 0-28.5 2.6-43 2-15.6-.5-31 2.6-46.8 2l-52 26.2c-3.6 2.8-21 8.1-12.5 9.4 36.7 6.3 73.6 11.5 110.3 17.4 36.7 5.5 73.3 12.2 110.1 17 42.7 7.7 85.6 13.9 128.4 20q66.7 11.3 133.6 21c29.3 5.5 58.9 9 88.2 14 18.6 4.5-13.6 16.7-18.7 23.5-35.5 25.4-70.4 51.7-106.3 76.5-113.7-20.5-227.8-39-341.6-59.1-12-1.2-25.4-7.8-36 1.2-16.5 18.3-38.2 11.4-59.1 7-19.8-2.7-39.2-8.3-59-11.4-25.7-4.4-51.4-10.8-77.6-8.7-22.2 3.9-45.1 0-67.4 3.6q-28.5 0-57 2.3c-10.6-1.3-18.7 7.3-28 11.1-32 17.2-64.8 33.1-96.8 50.3-4.3 5.6 11.3 4.7 16.8 6.6 51.4 9.8 102.8 20 154.3 29.7q61.1 11.4 122.1 23.4c46 8.4 91.8 17.6 137.8 26.2 35.4 7.2 71 13.5 106.5 20.2 23-14.3 46-28.6 68.3-43.8 25.2 2.1 49.9 9 75 12.9q58.5 10.7 117.5 20.3c7.6 1 15.9 5 21.7-2.5q75.1-55.8 150.4-111.4c70.2-51 139-104 209.6-154.6l62.3 8.6c18.9-9 34.1-24.2 51.3-36.2 10.7-10.4 28.4-17 34.7-30-18.5-5-38.1-5.3-56.6-10-1-6.1 8.7-8.7 12.3-13.1zm-808.7 354c-60-12.4-120.2-23.3-180.4-34.9q-95.4-18.7-191-36.1c-57.3-11.6-114.8-21.4-172-33.5-9.1-.2-1.7 14.3-3 21.4 2 27.2 6.4 54.2 8.2 81.3 4.7 41.5 8.1 83 13.3 124.4 5.3 5.1 15 4.9 22.4 7.2 92.6 20.5 185.5 39.9 278.1 60.4q96.6 21 193.3 41.8c13 .7 33.3 13 41.2 3.5 1-18.7-3.3-37.1-1.7-55.9-2-25.2-2-50.4-4-75.6.4-19.2-3-38.1-2.3-57.4 0-13.6-2.5-27.1-2-40.9zm-278.2 239.1c2.5 16.3-2 38.8 6.8 51.3 13 7.8 12.9-4.8 11.9-15.6 4-8.8-9.7-34.7 6.2-30.2 5.9 2.6 18.2.3 14.2 10.4 6.5 13.8-6.6 37.9 10.5 44.8 19.2 6.7 8.6-24.7 10.3-36-8.1-16.2 21.8-10.5 21.5-.8 2.2 15 1.4 30.7 5 45 11.4 8.2 23 3 17.3-10.5.7-10.2-7.4-35.2 6.6-33.4 11.8 1.3 20.7 4.7 17.3 18.4 3.6 17-3.6 44.3 22.2 41.7 8.2-7.7.2-27.8 1.6-40.3-6-18 33.4-8.2 23.4 8.3 3 13.5-4.7 41.2 15.6 41 10-6-1.1-26.1 2.3-38-6.4-20.5 29.6-10 22.5 6.3 4.9 12.2-4 36.3 11 40.4 14 4.6 2.3-24.2 4.3-32.4q-1.7-38-4.4-75.8c-5-6.6-15.5-5.7-23.3-8.2-144-31.4-288-62.1-432-93.6-12.2 1.2-.8 22.4-3.5 32 3 16 2 33 5.1 48.8 8 5.3-7.5 19.3 5.4 23.6 16 5.4 6.3-20.1 8.8-29.4-4.8-13.3-1-20 13.2-13 8.3 3 5.8 14.9 7.1 22.2-1.3 10.4-1.2 36.5 13.6 27.4 2.5-14.4-3.8-32.8 1.3-44.4 16.7-1.4 19.5 12.8 17.3 27 .4 11.9 1.4 32.1 17 26.1 3.4-15-5.3-30.8.6-45.3 16.7-1.8 20.5 10.6 18.2 25 3.4 10.7-3.3 30.2 13 29.8 10-4.7 3-25.9 4.2-36.9-7.6-15.2 22.8-9.6 21.4.3 3.4 14.3-3.7 33.9 7.8 43.8 12.6 8.6 13.7-1.5 11.8-11.2l-1.4-32.3c5.5-3.3 17.5 3.4 22.2 5 6 15.6-.3 37 9 49.7 5.2 0 15 6.1 17.2 1.9-1.9-14.8-1-30-2.8-44.8 9.2-6.6 6.8 20.4 7.7 26.5-3.1 10.3 3.5 21.5 11 11.4-1-12.5 2.1-29.4-8.2-37.4 4.1-1.7 8.1 1.3 12.2 1.4M1580 988.2q-86.7 69.1-173 138.5c-34.3 28.1-69.6 55.1-103.6 83.4-3.8 7.7-1.3 17.3-2 25.9.1 27.4-.4 54.8.2 82.2 3.3 15.8.2 32.4 2.1 48.3 13.2-5 24.2-18.8 35.8-28.6 18.4-18.1 39.4-33.7 55.2-54.4 19.4-22.5 34.2-48.4 51.6-72.4 22.2-22.3 47.6-41.2 71-62 19.2-17.5 39.4-33.8 58.3-51.5 6-12 4.3-27.4 5-41l.2-64zm-496.3 307.2-56 42.5c14.8 6.3 32.1 7.3 47.9 11.7l190 41.8c9 3.2 4.3 14 5.6 21.1q0 22.1.4 44.3c18.3 14.1 9.4-19.2 11.3-29.8-.7-18.4 1.3-37.2-1.3-55.4q-72.8-16.8-146-32.2c-15.3 5.6-9.1-11-11-19.8-2.6-20.5-1.2-41.4-1.6-62 .9-16.6-2.9-32.8-1.9-49.4.3-11-1-22.2.8-33.2 9-5 16.2-16.8 25.4-6.6 44.3 7.9 88 19 132.4 25.5 3.5-19.6-1.7-39.1-.7-58.8-.5-13.6.9-27.5-1-40.9-13.5-5.8-30.8-6-45.8-9.8-50.5-9-101-19.1-151.6-26.5-6 3.7-2.2 15.1-3.2 22.5-.9 15.4 2.7 30.5 1.9 46 0 16.3-.3 32.8 1.9 49 .4 19-.7 38 2 56.7.4 19.2-.5 38.5 2 57.6-1 .4.5 5.7-1.5 5.7m534.4-537c-28.8-5.2-58-7.7-86.9-12.7-40.4-5.8-81-10.8-121.3-17-38.1-5-76.1-10.7-114.2-15.7L1154 692.8c-21.3-3-42.6-6.7-64-8.5-5.5 11.4-1.2 28.9-2.5 42.9 2.7 12.7-6.1 33.4 6.9 39.8 51.7 7.2 103.3 15.4 155 23.4 35.1 4.6 70 11 105.1 15.9 8.7-6.5-20-15.4-1.7-11.8 8.5-2 16.9-7.6 24.5-12.7 11.7-7.6 23.2-15.6 35.4-22.7 4.5 8.7 16.6 5.1 24.7 7.3 22.2 2.3 44.2 6.4 66.4 8.8 13.2-8.6 8.8 9.7 9.5 17.6.1 11.3-.6 22.7.3 34 8.3 4.8 16-5.9 23.5-9.7 26.4-19 53.5-37.2 79.5-56.7zm-492 420.4q-1.7 32.6.1 65.3c2.4 17 .5 34.3 1.2 51.4.1 12.9-.4 25.8 3 38.5 16.8 6.6 35.4 8.5 53 13 38 8 75.9 16.7 113.8 24.3 3.4-5.5 1-13.8 1.7-20.5-.3-28 1.1-56-1.6-84-.4-17.4.7-35-1-52.5-49.8-12-100.4-21.7-150.5-32.8-6.4-.9-13.5-3.9-19.8-2.7m666.7-140c.2-20.7-.3-41.4.3-62 2.8-20.9 1-42.1 1.7-63.2-.3-15.8 3-31.2 1.8-47 .5-18.6-.7-37.3 2-55.7-.3-14 .7-28.1-.4-42.1-12 6.6-21.9 16.4-33.2 24.1-15.8 12.5-32.8 23.7-47.7 37.3-3.8 32.6-1.7 65.5-2.4 98.3 1 15.7-2.6 30.9-1.9 46.5-.4 27.5.6 55-1 82.4-2.1 24-.5 48.3-1 72.4-.5 13.8 11.3-4.9 17-8.9 20.5-20.5 41-41 62.2-60.7-.5-5.3 5-12.8.2-16.6-4.2-1.9 1.2-3.1 2.4-4.9m28.5-290c-.6 12.9 0 25.7-2.1 38.5-.6 19.5.7 39.2-2.2 58.5 0 20.2.3 40.4-2 60.4.2 17.6 0 35.3-2 52.7.3 21-.8 42-2 63 .9 7.5-3.3 24.5 6.4 12.4 21.6-18 40.7-38.7 62.5-56.3.2-22.3 3.9-44.3 2.9-66.6 3.6-21.6 0-43.7 3.6-65.2.5-17.7-.5-35.4 2.2-52.9q-.4-30.6 2-61-.2-18.5 1.3-36.7c-4-1.5-11.1 6.9-16.1 9.8-17.5 13.8-36 26.4-52.8 41zm-167.9 73c-3.8 36.8-1.7 73.9-2.5 110.8.6 22.3-2.7 44.3-1.8 66.6-.4 34 .8 68-2 101.8.3 10.2 1.5 20.4-6.3 27.5 18.7 5.6 38.3 8 57.5 12.3 12.8 2.5 7.2-14 8.4-22 .1-21.6-.2-43.3 2-64.9.4-30.8-.7-61.7 1-92.4 2-29.7.6-59.5 1.2-89.3-1-12.7 4.5-25.8.5-38.1-8.7-12.5-30.4-5.3-43.8-10.7q-7.1-1-14.2-1.6m-753.2-19.3c12 5 25.7 4.6 38.4 7.3 55.2 9 110.4 17.4 165.7 26q55.5 8.5 111 17.8c46 6.3 92 14.3 137.8 21.3 6.2-9 6.1-32.1-.3-40.8-37.2-5.3-74.2-12.2-111.4-17-46.6-8.5-93.5-14.3-140.2-22q-28.5-4.2-57-9.2-30 2-60 1.8c-24.3 5-50.5-3.4-73.2 8.2zm115.6 294.6c-9 12-3.3 28.7-3.2 42.5 1 18.8.8 37.5 2.7 56.1-.6 17.8 1.7 35.5 2.2 53.3-.8 11.5.6 23 1.8 34.3 0 17.8 0 37.1 3.6 54 18.6-14.9 39-27.7 56.5-43.8 4-13.6-1.3-28.7-.2-43.2.1-14.6-.2-29.2-2-43.6-.4-19.5 1-39-2-58.3-.3-20.4.8-40.8-2-61-.7-8.1 1.3-17.1-1.4-24.8-5.7.3-10.9 6.4-16.4 9zm282.2-90.7-368.3-60.5-25 16.5-151.7-26.9c-18.2-1.3-36.4.6-54.6 0-25.9 4.4-52.4-.6-78.2 4-14-.4-29-1.7-40.7 7.4-24.6 14-49.7 27-74.2 41 .3 4.2 10.9 5.3 15 4.4l79.1-40.3c20-.9 40.5-.3 60.6-2.6q26.9-.5 53.7-2.3c11.8 1.3 23.3-2.8 34.8.9a5827 5827 0 0 0 149.2 26.9c13.2-2.6 22.9-15.7 35-19.4 50.3 9.3 100.9 17.4 151.4 26.2q96.4 17 193 33.7c6.5 0 23-6.3 21.4 1.7q1.2-5.4-.4-10.7m282.2-24.3c-17.7-7.4-31.7 4.2-44 15.8-84.1 66.3-167.3 133.8-251.7 199.7-34.8-4.9-69.1-13.4-103.7-19.7-14.1-2.6-28-6.3-42.2-8.4-19.4 7.3 14.1 9.2 21.7 12l135.1 29.2c33.4-24.3 64.7-51.4 97.2-76.9l184.8-148.3zm-219-180.6c.2 25-.3 50-.1 75l92.4 14.1c2.5-17 .5-34.8 1.1-52 2.4-15-.6-30-19-28.2-23-3-46-7.2-69-10.8l-2.6.5zm-395.4 641.1 108.3-85.8c-6.1-10.1-33.1-10.5-48-14.2-6.9-.8-4.2 13.7-11 1.9-16.9-2.4-43.4-15.3-55.6-8.4 1.5 19.8 1 39.7 3.3 59.5.7 15.7 2 31.3 3 47m-45.6-655.4c17.2-.1 34.4.7 51.4-2 19.6 0 39.1.3 58.5-2 24.4-.4 48 6.5 72 9.2l143.4 21.9c35.7 5.5 71.3 12 107.2 16.7 9.2-3.6 1.5-16.3-7.8-14q-105-15.7-210-32.2c-26.9-4.3-54-7.3-80.7-12.4-22-1.4-44.3-1.3-66 1.2-17.2.2-34.5-.7-51.5 2a62 62 0 0 0-39.4 10.3l-21.2 11.5c3.5 5.7 18.2 7 24.9.6zm428.2 758.8c-262.1-60.3-524-121.8-786-182.4-29-6.5-57.8-14-86.9-20.2-9.1 5.1 5.5 6.3 9.8 7.5q104.6 24.2 209.2 48c117.4 27 234.7 54.6 352.2 81.4 75.5 17.8 151.3 34.6 226.8 52.6 23.8 5.2 47.4 11.6 71.4 15.7l1.8-.7zM1462 899.7a332 332 0 0 0 46.1-37.6c1-26 1.3-52.4.3-78.2-15.6 8-40 18.6-49 33.7.6 25.4-2 51 1.4 76.1l.6 2.9zm354-149.3a276 276 0 0 0-62.2-8.6c-19 10.8 15.7 8.2 22.7 11.6 13.2 3.5 35.7-1.2 26.5 17.9 0 17.6.1 35.2-1.8 52.7-.4 24.2.9 48.4-2.1 72.4q0 47.2-2.5 94.3c.5 17-.8 34.5 1.5 51.4 11.6 6.2 8.4-7 8.8-13.9-.1-14 2.7-27.8 1.9-41.8-.8-23.7 3-47.2 2-70.9.5-13.9 3.1-27.6 2-41.6-1-16.2 2-32 2-48-.7-22.2 2-44.2 1.8-66.3q0-4.7-.6-9.2m45-56.7c-1.8-3-9-1.5-12.7-2.9-41.7-4.7-83.3-10.9-125-15.7q-31.5-4.1-63-7.9c-34.1-4.6-68.3-8.1-102.4-13q-25.8-2.6-51.4-6.4c-10.7 2-36.7 9-31.2 22.9 11.7-4 19.7-17.5 33-12.9 26.8 2.5 53.3 7.8 80.3 10 18.6 2.9 37.4 5 56 7.6q67.5 9 135 17c23.9 3 47.6 8 71.6 8.7zm-353.3 84.8-99-12.8c-13 9.5-37.2 20.5-42.3 30.9l88.4 14c18.5-9.2 35.3-21.5 53-32.1m-203.2 237.7c51-35.4 101.4-71.9 152.2-107.7-.6-5 2.4-17-4.8-9-48.6 34.8-97.7 68.8-145.9 104.2-3.5 2.5-3.1 9-1.5 12.5m-29.7-369.3c59.2 6.8 118.2 15.2 177.3 22.6 8.5 4.6 26-.9 12-6q-77.5-10.7-155.4-20.6a1128 1128 0 0 1-35.2-4.2zm258.7 195.8c-3.3 24.3 19.4-4.2 29.5-8.6a12555 12555 0 0 1 91-66.5c6.4-13.5-1.4-10.6-8.6-4zM1122.8 674c20.6 9.2 38.2-12.3 56.6-18.5 9.3-7.8 37.2-12.4 31.3-25.7zm303.8 641.8c-1.4-11 4.8-34.3-3.1-37.5-10.2 8.7-29.8 21-30.9 31.1 11.1 3.2 22.7 4.2 34 6.4m320-158.3c15.7-10 27.2-26.3 41.3-38.7 41.2-40.3 81-82.1 123.2-121.5 9.8-4.3 6.4-14.4.5-5.3zM1218 634.9c15.7 4.5 32.4 1.5 48.6 2.4l20.2-11c-22.6-1.8-45.1 1.4-67.6 2.3-2.3 1-.7 4.3-1.2 6.3M926.5 1390c3.3 12-4.2 34.5 6.7 39.8 15.2-3.8 3.8-26 4.3-37.7-3.6-1-7.1-3.5-11-2.1m-40.5-9.8c2.8 13.7-1.6 30.2 5.7 42.1 12.5-5.6 11.1-35.6-.2-41.3zm-48.1-9.7c1.6 11.8-2.7 34 6.2 38.9 10.8-2.3 7-14.6 6.1-22.4-1.3-8 1.2-21.7-12.3-16.5m-43.4-11.2c.3 11 1.5 22.3 1.2 33.5-1 6.6 3 17.4 11.5 3.7-1.4-10 3.2-39-12.7-37.2m-115.3 5.8c-1.8-11 4.3-34-10.9-34.5-3.4 8.3.5 27.3.1 39.7l5.8-1.7zm84 22.2c-1-12 4.5-31.8-8.1-37.6-5.1 8.6-.2 22.6-1.4 34-1.3 9.4 3.9 9.3 9.4 3.6m-137-64.5c1.2 11 1.5 22.4 1.8 33.6 7.7 13.7 12.4-8.2 9.6-15.8-.8-6.6-.2-24-11.5-17.8m786.7-4.6c-9.3-6.4-38-9.3-33.6 3.2l33 6.9zm-813.8 31.7c-1.2-10.9 3-33-7.5-35.8-1.6 8.8-6.6 37.5 5 37zm-44.1-44.5c-1.8 13 0 27.2 1.8 40.2 12.6-4.7 5-29.7 2.2-39.9zm-33.8-8c1.5 11.8-4.4 32.4 5 38.7a45 45 0 0 0-.6-38zM1513.7 843c-9.5 22.3 27.1 13.5 11.7 1zM1309 632.6l18.8 1.7c7.2-20.3-10.4-6.5-18.8-1.7m188.2 986.1c24.8-24.4 46.4-51.8 70.6-76.8 6.8-8.2 15.6-15 20.5-24.6-7-5.2-17.6-4.7-26.1-7.3l-43.4-9.4c.2-16.8-.2-33.8.2-50.6 34.1-35.5 69-70.3 102.3-106.6 20.7 0 40.7 7.5 61.2 11 11.6 5 35.8 2.3 40 11.3-2 8.5 7.7-3.7 10.3-6.4 28.3-30.4 55.8-61.5 83.9-92.1 8.2-9.5 18.5-18.5 24.6-29 5.9-7 29.8 4.6 42 4.6 39.7 7.8 79.5 15 119.3 22.7 19.7.5-11.5-6.3-18.8-6.4-22.6-4.6-45.5-8-68-13 .1-7.5 6-14 8.5-21.1 5.2-10.2 9.4-21.2 15.3-30.8 6.2-2.3 8.3-7.7 9.7-13.7 7.3-21.3 12.5-43.4 21-64.2 10-7.8 16-27 13-36.8-9.4-3.5-32.4-3-33-8 9.8 1.9 15-7.7 18.9 1.6 12.4 2.4 24.2 4.3 36.5 6.8 26.2 4.2 52.2 9.4 78.5 12.7 53.7 9.8 107.6 18.6 161.3 28.3 53.2 7.8 105.9 18 159 26.6l219 37.4c23.8 3.1 47.4 8.9 71.1 11.5 8-11.9 2.4-29.2 10.5-42 9.4-11.3-1.7-12-10.7-12.9q-31.8-5.2-63.6-10c-4.7 5.5-9.1 10.3-7.3-.2-12.8 8.6-12.3 39.1-25 39 .1-14.3 13.3-31.9 12.6-41.5-20.1-5-40.9-6.9-61.3-10.7-12.5-4.7-24.4-1.5-27.4 12.3-4.3 8.5-7.4 17.7-12.8 25.7-6.8-8.1 3-24.8 7.2-34.3 11.5-11.2-8.7-10-16.5-11.8q-32.7-4.6-65.2-10c-13.7 9.2-14 30.6-27.4 38.9-2.9-15 18-33.3 13.2-41.2-23.5-5-47.3-7.9-71-11.5-14.8 8.2-16.3 28.3-29 37.6-2.7-14.6 17.9-31 13.8-40-24.9-4.9-50-8-75-12.3-15.1 1.7-23 18-30 30-1.7 6.5-17 14.4-5.4-4.1-1.2-10.6 21.3-23.6 14.6-29.8-21.7-2.1-43-8-64.9-9.4-15.7 7.5-18.7 27.2-32.4 36-2.4-15.2 19.6-27.8 17.5-38.9-23.4-3.6-46.8-8.7-70.4-11.3-10.9 5.4-17.1 16.7-24.6 25.8.4 6-5.5 12.2-11.7 10.4-4-14.5 22.7-30.4 20.8-38.7-21-3.8-42.3-7-63.5-10.5-23.3-6.7-24.5 30.9-41.8 33.5 5.6-18 24.1-46.6 45-37.5 10.7 5.7 20 4.7 15.7-8.1-3.6-32-3-65 8-95.6 14-39.3 40-73 67.5-103.8 26-25 54.5-46.9 84.6-66.5 28.7-15 61-20.6 92.4-26.7 25.7-1.6 51.3-4.8 77-1.9 35.1 2.1 70 6.8 105 11 65 10 129.5 24.8 191.4 47.2 15.1 4 31.2 15 47 21.2 14 5 24.6 12.6 37.3 20.7a66 66 0 0 1 22.3 51.2c1.2 20-11.4 36.9-17.4 55.2-15.5 31.3-29.8 63.2-46.5 93.9-11.6 19.7-24.2 38.9-35.4 58.8 1 15.5 4.8 29.7-6.7 43.3-1.1 8.3 13.8 6 20.6 8.2 12 1.5 24.2 4.3 36.2 5.5 7-3.5 13.4 2.6 20 4.6-20 3.1-10 29.8-14 44.4-1.7 15.5-1.9 31.3-3.2 47-.3 16.8 1.4 33.9-1 50.6-5.3 12.3-13 23.5-18.9 35.6q-17.6 31-35.4 61.9c-25.9-2.2-51.4-9-77.1-13.4-5.9-.2-13.7-4.7-18.3-2 3.6 5 12.2 3.5 17.9 5.6 53.9 10.3 108 19.7 161.7 30.8 5.5 7.3-6.8 23.3-8.9 35-73 218.4-146.9 436.5-220.7 654.5-2.5 8.1 26.8 11.5 6.7 10.3-10-10-16.3 18.4-14.7 0-6.8-10.8-26.2-8.6-38.2-13.8-59.8-15.5-119.4-31.5-179.3-46.5-4.6 11.2 4.1 26.3-7.4 34.2-7 7.3-19.3 2.8-23.2-5.6-2-7.7-.3-16.6-.8-24.8-4-13.7-23.3-17.9-36.3-21.5-22-5.6-44.7-12-66.4-17.2-6 2.6-1.8 11.2-3.2 16.5-.5 5.9 1.8 13-4.1 16.7-6.4 9.4-21 5.8-25.2-3.8-2-7.7-.3-16.6-.9-24.8-3.3-13.7-24-19.6-36.9-23-17-4.2-34-9.5-51.3-12.9 2 18.6-19.6 36.5-31 15.2 2-16-1.3-29.2-19.7-28.8-31-8-61.7-16.5-92.8-24-2.7 12 5.2 34.8-15.4 35.2-11-.8-16-11.1-14.4-21-1.2-6.9 2.8-16.8-6.4-19.3-20.8-13.6-46.5-14.9-69.6-22.9-20.6-10.2-4.9 19.9-17.3 26.5-8.2 5.4-20.5.4-22.5-9.1l-.5-23.3c-18.2-12.3-40.5-14-61-20.1-19.5-8.6-2.2 26-21.1 27-11.7 2.5-21-9.8-17.8-20.8-1.2-8 0-18.4-10.9-19.2-23.6-6.8-47.4-12.5-71.1-18.8-13.8-2 2.8 30.1-18 29-6.6 1-14.7-5.4-15.4-11.8l-.6-20.5c-19.2-13.6-43.2-15.6-65.2-22.3a15034 15034 0 0 1-128.2-33.6c-14.6-10.6-33.4-13.8-49.8-21.2-24.5-10.3-51-13.3-77.1-16.6-22.8 2.5-46 6.6-68.9 3-24.1-2.5-48-7.3-72-10.8-21.6-5.8-41-19-64.2-19-17.8-.1-29.1-16.5-46.4-17.8-22.5-4.4-48.2-3-66.4-19.2-14.9-15.3-37-17-57-16-26.4.7-53.3-.4-77.6-11.6-8.4-3.4-17.2-6.2-25-10.9 6.2-2.3 13.2 4.1 19.8 5.7 22.1 9.9 46 16.6 70.6 14.5 23 .5 49.2-3.7 68 13 17.5 18 44 17.8 67 21.3 20 3.2 34.8 20.3 56.2 19 26.5 3.1 49.1 20.3 76.1 21.3 22 3.5 43.7 8.4 66.1 9 23.9 3.6 47-8.7 70.9-2.4a309 309 0 0 1 77.7 21.2c12.6 4.6 24.8 10 37.6 13.7 12.8-10.2 21.9-24.2 33.3-35.9 11.9-13.8 24.9-26.5 36.8-40.2-12.4-6.4-26.8-7.6-40.1-11.6a18135 18135 0 0 1-188-47.7c-31.7 28.5-61 59.5-93 87.8-9 1.7 10.6-13.4 13.5-17.7 18.3-17.4 37-34.3 54.8-52.2 7.7-7 28-19.9 7.3-22-18.1-5.4-36.6-9.4-55-13.6-29.7 27.4-58 56.4-88.2 83.2-9.2.7 12.4-14.5 15.2-19.3 21-19.3 41.4-39 62.2-58.4 13.2-11.6-17.1-10.4-25.2-14.9q-43.5-11.2-87-22.1c-13.3-.6-12.5 24-26.3 29.8-21.2 4.6-2.2 26.4-14.5 36.3-9.3 7.6-21.7-3.5-20.5-14.2 1.9-18.4-20.9-17.8-29.9-30.5a53 53 0 0 1-13.5-46.1c-20.8-13.8-11.4 24.5-26.3 32.8-10.7 8.6-24.1 15.3-17 31 2.4 14-16.6 21.6-23.8 8.7l-3.5-21.6c-16.4-7-32.8-17.4-38.7-35.3-2.8-7.5-10 3.4-14.2 5.3-14.9 5.9-.7 22.5-9 32.5-4.7 6.4-14.1 5.2-19-.2-3.7-5.1-3.2-13-5.2-19.2.5-7.7-8.4-8-13.4-11.6-26.4-12.5-36-46.2-24.6-71.7-5-4.8-13.6-4.5-20.2-7-9-1.9-18-5.8-27-5.3-3 4-17.1 8-8.4 12.7a36 36 0 0 1 22.7 39.4c4 17.2-1.2 36.6-20.7 40-15.4 3.3-31.4-2.9-47.8-.7-25.4 2.3-49.5-7-73.2-14.6-17.1-5.6-32.6-18-48.5-23.7-6.5-4.4-16.9-17.3-27.3-22.3-15.5-10-30.4-21-46.3-30.3a141 141 0 0 0-50.3-22.7c-9.8-1.7-22.1-7-21-19.2.7-15.7-8.4-22.3-19.5-10-4.3 18.6-27.6-10.5-32.4 3.2-1 11.9-17.3 15.8-22.5 4.3-2.6-10-5.3-20.9-18.4-20.8l-51.1-13.3c-6.4 3.9 5.2 26.6-11.3 27.1-20-2.2-10.4-32.5-33.2-32.8-8.5-7.2-38.7-26.4-29-2.4 5.4 13.4-15.7 23.7-22.5 10.5.1-31.4-43.2-25-47.3-56.9a44.4 44.4 0 0 1 25-54.6c12-10.7 29.1 2.4 39.4-8.8 13.4-20.9 39-31.8 62.8-31.4 22.8-18.1 43.8-40.4 77.4-37.8 21.3-4 42.5-9.3 64.4-7.7 10-1.3 31.2 5.7 35.5 8.6-5.8 9.5 15 19.5-3 22.6-22.1 14-45.9 25.7-67.4 40.6 15.5 6 32.2 8.1 48.3 12.5 47 11 94 23.2 141.2 33.3 10.2-6.3 14.5-5.6 7.5 2.1l134.3 32c5.8-3.6 16.3-8.3 6.8 1.7l140.4 33.5c5.8-2.3 23.3-19.7 21.7-12.9-7.4 6.3-21.3 16.3-4.6 17l113 26.8c7.4-4.1 30.6-20.6 14.8-5.4-12.8 6.3-5.5 8.5 3.8 10 57.5 14 115.4 26.7 172.8 41.2 6.4 3.3 11.6.9 16.2-4 5.7-6 12.7-7.1 3.2 1.8-11.8 7.6 5.7 6.8 11.2 9.5 33.1 8 66.4 15.6 99.5 23.8 10 9 22.7-20.4 25-11.1-7 6.7-18.8 15.9-2.3 16.3 18.4 4.7 37 8.3 55.3 13.5l14.5-11.4c1.2 7.3-15 14.3 1.3 14.8 68.7 16.6 137.3 33.6 206.2 49.2 4.5 7.6-8.2.2-12 .5q-99-23.8-198.2-47.4c-16.8-1.8-28.4 17.3-39.2 28.6 20.2 6.7 41.3 10.4 61.9 15.9 51.7 12.5 103.3 25.6 155.1 38 14.8-2.9 23-22 33.9-31.8m807.6-277.7c6 4.5 32.5 4.5 13.4 1.2-17.5-2-34.4-8.4-52.1-8.7-4.5 1.4 17.2 3.8 23.5 5.7q7.5 1.6 15.2 1.8m-194-56c11.2 4.4 24 5.2 35.9 8 11.6 0 34.4 10.4 40 4.3a767 767 0 0 0-69.3-13.1c-7.1 2.7-9.6-4.6-17.4-4-27-4.7-54-10.8-81.2-14.8-6.5 4.1 9.1 3.9 12.9 5.5 26.3 5 52.5 10.7 79.1 14.1M1685 1442.7c-18.8 18-36 38-53.8 57.1-8 5.2-2.5-12.3-4.3-17.5 2.6-9.4-4.5-17.5-5.8-3.2 1.7 9.8-3.5 31.2 3.7 32.7 20-21.1 39-43 58.4-64.7 2-6.7 23.1-22.6 16.6-21.7-5.5 5.2-11.4 10.4-14.8 17.3m353.8-411.5c9.1 4 20 3.6 29.8 5.8 9.3 4.2 19.1-3.7 27.2 3.4 22.3 6.7 46.2 7.3 69 12.5 10-3.9 17.1-11.4 29.6-6.3 16.6 1 32.6 6.4 49.2 7.7 36.5 6.8 73.1 12 109.7 17.9 59.8 10.5 119.8 18.4 179.5 29.4-1.6 17 20.9 11.7 32 15.6 19.8 2.6 39.4 7.5 59.3 7.6 6.8 4 7.9-6.8 11.7-10.4 13-13.2-8.9-8.8-18-8-19.2-.8-39 0-58.3-3.3-42.3-5.7-82.3-22.1-124.6-28.3-46.3-7.5-92.4-16.3-138.9-22.8-23.7-2-47.4-7.7-71.2-7.8-15.4-.4-31-4.7-46.7-4.8-16.2-1.5-32.5-2.5-48.9-4-18.3-.4-36.6-2.8-54.8-5.3-9.7 1-29.6-12.2-32.7-1.5-6.8 5.4-6.4-24.6-7.1-32.2.7-14.2-1.9-23.7 3.7-36.2a342 342 0 0 1 14.2-46c7.4-6.7 9.7-18.9 16.6-26.6 13.5-20.6 30.8-43.5 57.4-45.5 15-2.9 32.4-2.6 45.6-9.1 1.7-28.4 21-51.2 41.4-69 13-12.3 28.8-20.3 43.8-29.5-24.5 3-49.7 11.8-71.4 24.2-56.5 36.7-107.8 84.6-137.7 145.7a174 174 0 0 0-17.5 88.2c2.4 11.7-4.1 34 7.6 38.5zm-1867 321.7c15 7.5 23.9 34.8 26 40.8 2.8-18.4 28-24.1 23.8-43.5-2-14 8.8-15.2 17.1-25.3 13.9-13.6 28.8-26 46.3-34.8-3.3-7.5-24.7 2.2-34.7 0-18.7 5.3-38.4 1.3-57.3 5.1-17-.7-33.6 1.8-50.4 3.4-19 3.8-40.7 16.5-46.2 35.3 13.2 2.9 19.6 28.1 33.4 16.2a49 49 0 0 1 42 2.8m262 162c12.6 5.1 23.3 15 35.8 21.2 28.1 16.5 59.7 25.8 91.2 33.7 27.9 10.8 61.8 9 86.2-9-.5-26.3-33.7-29.1-53.8-32.4-37.4-6.2-75.3-13.5-109.2-31.4-31.3-16.9-65-28.5-98.5-40.4-14.9-4.1-30-9.3-45.3-11-8.6 1.3-19.9 1.6-21.4 13 11.3 12.4 34.7 16 51.6 22 22 8 43.3 19 62.3 32.5-3.2 3.1-16.1-7.4-23.5-10.6-7-3.6-13.5-8.3-21-10.5-6 19.8 6.8 32 23.3 39.8 15.5 10 30.3 21.1 45.6 31.2 3.4-5.8 8.2-30.3-6.3-34.5-5.9-4.3-13.6-6.9-17-13.7m1729 2c-15-8.4-33.5-8.1-50.3-10.2-8.7-.3-41 1.8-5.6-3.9 25.2 2.7 51.4 3.2 74.5 16.3 20.3 9 41.7 23.5 48.2 45.9 2 9.8-3 20.7 10.8 19.7l296.6 63.5c11.7-24.4 20-50.5 30.3-75.6 20.7-54 42.5-107.8 62.5-162-6.3-10.2-24.4-5-34.8-10-40.8-7.8-81.7-15.7-122.6-22.8a1007 1007 0 0 0-36.6 71.6c10.5 8.7-18.8-.2-23.8-.5-32-6.9-64.2-12.4-96.3-18.7-44.3-9-88.7-17-133-25.8a8135 8135 0 0 1-160-30.7c-19.2 5.7 8.5-20.2 12.6-28.3 10.6-14.7 23-28.3 32.5-43.8-15.5-5.3-32.3-6-48.1-9.7-32.8-5.7-65.3-13.1-98-18.5-7 .6-9.8 9.4-14.9 13.6-33.4 38.8-66 78.2-98.8 117.4a4203 4203 0 0 0-59.3 70.1c-1 8 13.1 6.5 19.6 9q86.6 18.3 173 37.2c24.8 4.2 49.2 11 74 15.3 16.1-20.4 43-29.4 68.1-31 1.9 3.8-19.7 6.1-27.6 8.8-20 6.7-44.9 21.6-41 46.5 12 40.2 59.2 53.7 96.5 59.8 33.2 3 69.3 1.9 97.8-17.6 9-7 14.3-20 27-13 13 1.7 40.7 9.9 43.2 7.6-17.9-5.3-36.6-6.3-53.8-13.6 8.6-36.1-35.7-57-62.6-66.7m371.2 141.8c-12.5-6.2-27.3-6.3-40.7-10q-132-28.7-263.8-57.6c-16 11.2-33.1 29.2-56 30.6a193 193 0 0 1-128-19.6 60 60 0 0 1-35.7-58.1c-45.1-10.9-90.8-19.8-136.1-29.9-44.6-9.3-88.9-20.4-133.6-28.9-39.1 45.4-77 91.8-115.8 137.4q-45.5 54.9-91.4 109.2c13.7 2.4 38.3 6.3 47.3 23.8 13 16.3 16 39 10.2 58.7 9 9.2 6.7-19.7 13.4-24.7 16.1-31 61.2-39 86.1-15 7.1 9.3 13.4 17.2 19.5 4l38-48.4c-9.8-11.4 16.4-1.6 21.4-.3 65.1 16.1 130.5 31.2 195.6 47 52 11.5 103.2 25.4 155.1 36.8 40.9 10.3 81.9 20.4 123 29 10.5.8-1.4 11.3-2.8 16.8l-40.6 73.7c2.1 14-3.5 31-2.1 42.6 20.7 14.4 14.5-17 23.5-27.3 13.5-25.2 45.5-40.6 73-29.4 32.8 11.7 49.9 52.8 38.3 85-5 10.4 9.2 8.3 15.3 11.4 14.6 4 29.2 8.2 44 11.6 38.4-95.6 74.3-192.4 112.2-288.2 10.2-26.7 20.7-53.4 30.7-80.2M2188.2 1304c-34-8.4-68.8-13.3-103.2-20-79-14.7-158-30.2-237.2-44.8-24.5 24.7-46.9 51.3-70.5 76.8-18.2 21.6-39.5 41.3-56.4 63.6v30.6c-19.2 20.6-37.3 42.2-56.6 62.7-14.2 15.9-27.6 32.5-42.4 47.8-6.2 2.5-13.3-1.8-19.9-2.3-8.7-4.2-13.1 6.7-18.7 11.6-26.4 29.6-53.5 58.4-79.6 88.1-28.3 29.6-54.6 61-83 90.3.6 10.3-12 10.5-18 19.8q-28.5 32-57.5 63.7c7 10.3 25.5 9 37.5 14 38.8 9.7 77.4 20.6 116.3 30 10 .1-16.3-16-11-22.3.6-12.2-9.5-14.4-19-16-5.5-4.8-16 13.6-10.4.1 8.8-10.8 19-21.4 28-32.6 28.3-34 57.3-67.3 85.5-101.3 44.4-51.2 87-103.9 131.5-155q50.6-60.4 101.4-120.4c32.2-39.4 66.8-76.9 98-117-8.3-8.6 6-3.2 10.7-8.6 30.4 5.8 61.4 10.9 92 16.7 60.1 11.7 120.6 22.2 181 33.5 3.8-.7 1-6.2 1.5-9M2055 921.5c17.2 19 44.1 23.7 68 29.2 30.5 5.7 61.9-1.8 92.4 5.1 16.5 2 33 3.7 49.7 3 14 2.3 28.2 2.5 42 6 45.4 8.1 90 19.5 135.2 28.4 32.6 8 65.7 14.2 97.9 24 27 5.6 53.6 15.8 81.6 13.6 26.3 3.7 53.8-1.9 73.5-20a86 86 0 0 0-39.8-86.3c-25.3-18.6-55.4-29.5-85.2-38.7-59.2-16.8-118.7-33.4-180-41-39-7.2-78.7-8.8-118-13.4-19.6-.2-39.1-.3-58.6 2-20.8 1-41.5 4.6-62.2 7.4-17.4 4.7-37.4 3.6-52.1 15a215 215 0 0 0-44.4 65.7m646.5 488.2c-20.6 55.1-39.5 110.9-59.3 166.3-50.7 143.7-101.7 287.3-152 431.2-5 13.6-10.1 27-14.4 41 10.3 5.3-10.8 7-1.4 14.3-1.9 8.5-19.9-3.8-27.8-4l-124.4-33.4c-7 4-24.4 14.8-25.8 18.6 68.8 18.7 137.9 36.2 206.9 54.1 8.7.6 7.6-10.9 10.9-16.6q113.4-334.2 225.8-668.9c0-10.3-24.6-6-34.6-11-79.2-15.9-158.7-30-238-45.3-39.8-7.7-79.7-14.8-119.5-22.6-15.5 7.1 10.4 14.4 18.8 13.4 31.4 5.4 62.4 12.8 93.8 17.3 6.7 3.2 14.2-1.9 17.5 1.8 2.5 4.8 10.7 2.7 15.5 4.8 53 10.4 106.3 19.3 159.4 29.2 11.7 2.3 25 7.3 36.4 4.9 4.5-4.3 5.1 6.3 12.2 4.9m-31.5-348c-26.8 4.6-54 2.6-81 0-56.4-8-111.6-23-168-31.6-37.3-6.1-74.5-13.3-111.7-20-25-3.3-50-5.9-75.1-5.5-24.5-2.3-49-2-73.5-4-19.3-.5-38.6-2-57.9-3.4-21.6-3.5-44.3-5.2-63.3-17.2.3 11.5-4.3 28 2.7 39.5 17.3 5.4 35.6 7.4 53.5 10.5 16.7 1.6 33.4 2.3 50 3.8 18.3 1.3 36.4 2.3 54.7 4.3 24.9 3 50.1 3.8 75 8.1 27.6 2.7 55 7.7 82.4 12 48 8.8 96.6 14.7 143.3 29a400 400 0 0 0 143.4 14.5zm-628.3-85.3c24.8 16.7 56 16.5 84.6 20 17 0 33.7 3.2 50.9 2.4 14.3-.4 28.2 3.4 42.6 2 22.7-.1 45.1 2.4 67.7 3.7 34.4 3.3 68 12 102 17 43.7 7.6 87.3 15 130.5 24.9 26.6 6.3 53.9 9 80.8 13.7 22 .7 43.7 3.5 65.4-1 14.2-5 19.5-25 25.2-38-9.3-2-28.6 15-43.5 12.7-19 3.3-38 .2-56.8-2-31.6-7.4-63.3-14.8-94.6-23.5q-50.8-11.8-102-22c-28.6-7.5-57.8-12.7-86.8-18.8-29.2-5.9-59.2-5.3-88.7-8-28-5.4-56.3-.7-84.3-4.6-23.9-3-48.1-8.3-69.5-19.7-7.5-7.4-15-12-16.7 2-3.7 12.7-8.7 25.7-6.8 39.2m184.1 877.8c-19.1-9.4-42.8-11-63.6-17.5q-199-48.6-398-97.5c-15.2.2-20.5 21.2-31.1 30.7-6.7 13.2-31.3 28.5-19.3 40.1 14-12.2 31.7-23.2 51.2-19 23.2 1.6 38.1 27.2 48.3 40.5 4.5-5.2 7.2-12.7 12.9-16.4 15.7-3.3-.3-26.5 8-34.7 3.6-5.9 8.8-6 14.6-3.3 58.5 16.1 117.7 30.2 176.5 45.5 17-1.6-8.2 24.6 11.7 26 15.2 3.1 21.9 19.3 34 25.6 9 .9 18.4 4.2 8.5 14-7.2 15.2 1 36.6-11 52.2 12.5 10.4 9.2-24.1 19.3-31 15.2-23.7 47.4-35.3 73.5-23.2 14.7 3.2 23.4 24.2 32.5 27.6q18.3-28.6 32-59.6m-88.9-498.9c6.7-12 15.2-23.2 21-35.6-7.5-5.9-20.4-5.8-30.5-8.3-15.9-2.6-31.7-6.7-47.7-8.1-8.6 4.8-12.7 16.5-19.6 23.7-6.1 13-28.7 30.9-25.2 41.5 60.4 10.6 120.4 22.7 180.7 33.7 53.2 10.8 106.9 19.7 160.2 30.3l51.3 9.2 32.5-65.6c-15.4-6.2-33.3-6.8-49.5-11-15.3.4-38.3-15.4-47.1 1-5.1 8.6-9 18-15.2 25.8q-70.5-13.4-141-25.3c-23.5-2.8-46.3-10-69.9-11.3m340.7-497.4c6-42.6 36.2-76.9 67.8-103.7-17.6-5.5-36.3-7.5-54.3-11.3-23.3-3.2-46.7-8.2-70-9.1a183 183 0 0 0-58.9 35c-17.5 17.4-37.2 36.6-38.4 63 25.2 4.5 50.9 7 76.2 11.7 26.1 3 52 8.7 77.6 14.4M2411 733.7c-16.4-4-33.2-4.7-50-6-25 .3-50-1.1-75 1.3a173 173 0 0 0-102.2 76.1c-.7 8.6-10 19.7-5.7 29.2 18.2-2 36.3-4.4 54.5-5.1 21.2.5 42.6-1.5 63.5 1.9 11.1-.2 27.8 7.4 25.3-10.7 8-26.3 29.3-46.1 50-63a254 254 0 0 1 39.6-23.7m241.6 51.6a839 839 0 0 0-101.9-30c-33 25.5-64.2 60.3-68.9 103.3 19.5 6 39.6 10.4 59 16.5 16.5 4.4 32.7 9.8 49.2 13.5 8.3-6 6.6-25 13.6-35.5 11-25.9 29.3-48 49-67.7m-111.3 866.8c-15.2-1.4-30.2-6.3-45.3-9-65.3-14.3-130.8-27.9-196.1-42.2-6.2 3 9.5 3.4 13.3 5.2 66.8 14.6 133.5 29.5 200.5 43.4 11.7 2.2 31 3.5 21 19-21.6 56.8-43.8 113.4-65.6 170.2-24.9 62.4-47.8 125.6-72.4 188.2-2.7 9.6-13.2.5-20 .4l-48-12.8q-9.7 8.4 3 9.3c44.2 11.5 88 24 132.4 35 6.4-1.1 6.4-12.5 9.7-18.3 52.3-145.8 103.1-292 154.7-438 22-61.7 43.3-123.5 65.3-185.1 4.6-9.7-10.5-6.3-16.2-9.1-50.4-9.8-101-18.1-151.4-28l-149-27.3c-11-1.8-22.2-5-33.2-5.8 2.1 4.3 14.3 4 21.2 6 31.1 7 62.8 11.2 94 17.8 10.4 7.5-6.7 23.3-10 34.6-7 13-12.3 27.1-20.6 39.4-40.1-5.4-79.4-15.4-119.3-21.9-14.2-.4 11.8 4 17.2 5.6 34.4 7.3 69.2 13.2 103.7 19.9 14.6-24.4 25.8-50.6 39.5-75.4 53.5 10 107 19.8 160.3 30.7 10.7 6.2-5.5 24.6-7.2 36zm-324.5 317c-1 26.6 11.3 56.9 37.3 67.2 6.9-12 4.9 8.1 15 5.6 10.3 2.3 14.7-5.8 23.5-2.8 30-9.1 44.5-44.2 36.2-73a58 58 0 0 0-61-46.6c-24.4 3.3-43.6 24-50 47.2zm-63 37.2c16.8-3.8 28.4-17.1 36.2-31.8 10.7-27.6 2.9-64.5-23.4-80.6a52 52 0 0 0-64.2 5.8c-13 11.4-22.7 28.9-21.2 46.3 2.1 22.6 14 47.6 36.3 56 7.8-9.3 9.1 12.3 22.4 6.1 8.3 1.5 6-9.3 14-1.8M2053 1862.1c-18.1-14-46.5-18.3-64.6-2-18.4 13.3-29 37.5-21.3 59.6 4.8 16.2 16.6 37.5 33.6 39.2 6-7.2 4 12.2 15 6 9.5-.6 12-5.7 19.6-2.5 7.2-3.1 15.9-4 19.5-12a57 57 0 0 0 14.7-59.3c-2.1-11.4-10.3-19.7-16.5-29m-164.7 73c30.5-6 45-42.8 36.2-70.7-6.7-24.1-29.8-43-55.4-41.3-26.3 2.4-45.5 26.3-50.2 51 2 19.6 9.1 39.5 25.2 52.2 5.6 8.7 14.6 4 18.5 5.4 2.4 8.8 17.7 7.5 22.3 1.8 1.3-3.6 2 .8 3.4 1.6m-187.5-87.4c-.5-17.8 12.2-34.9.2-51.8-11.7-27.5-48.4-40.7-74.2-24.3-16.6 11-30.1 32.7-25.5 53a60 60 0 0 0 38.2 48.5c8.8-14.3 6 30 25.2 2.4 3.2-8.4 9.5 3.2 16.8-6.2 9.8-3.7 15-12.8 19.3-21.6m105.1 26.2c6.4-21.6 4.1-47.3-12.6-63.9-17.8-18.3-50.1-20.8-69.4-3-12 11.7-22 28.8-20.2 46 5.2 17.5 13.5 35.5 30.5 44.6 10.8 13 28.4 4.9 37.3 3.3 15.5 2.2 26.6-15.1 34.4-27m-621.2-220.2c12.5 6.2 27 7.7 40.5 11.8 62 15.3 124 31.5 186 46.8 8.7-9.3 27-22.1 25.8-32.5l-222.5-54.8zm369.8 191.7c20-4.5 31-25.3 34.2-44 3-26.6-13.1-58-41.7-62.1-27-6.6-52 16.8-57.6 42-3.8 14 2 30 9.4 42.2 6.5 8.2 17 23.2 28.4 19 4.3 4.9 19.3 9.6 25.6.7zm1095.4-928.9c16-20.4 29.8-42.5 43.9-64.3 3.9-13 29-33.5 12.4-42.7-19.8-6.1-46.7-35-62.5-10.1-23.4 25.7-43.2 56.8-46.6 92.2 18 7.4 36 14.8 52.8 25m4.3 1.9c12.4 10.7 27.6 19.5 35 35 6.2 7.3 6.1 35.4 19 12 17.3-27 38.2-52.8 47.3-84 5.6-26.5-12.5-54.5-37.5-63.4a1049 1049 0 0 1-63.8 100.4m-50 308.9c-5.9 18.6-8 38.6-12.4 57.8-2.7 9.3-7 25.7 7.7 24.8 22 4 44 7.6 65.8 12.3 7.5 4.4 6-9.5 8.8-14.1 6-22.6 12.8-45 17.7-68-3.2-4.2-5.7 4.6-14-.3zM843 1498.2l194.8 47.9c11.2-9.1 22.7-18 32.1-29-28.9-8.3-58.8-13.7-88-21.3L878.3 1471a161 161 0 0 0-35.4 27.2m375.2 124c32.5 9.4 65.7 16.2 98.5 24.7 42.5 10.2 84.8 21.5 127.4 31 6.5-8.4 15.6-14.7 20.5-24-72.3-17.1-144.3-35.7-216.6-53-11.4-2.8-21.9 13.8-29.8 21.3M973.4 1610c3-21.3-4.7-43.5-23.4-55.4a42.6 42.6 0 0 0-58.5 14.7c-10.7 15-8.8 34.4.1 49.6 6.2 11.7 22.2 25.5 33 19.9 5.3 12.7 18.2-1.4 25.8.2 12.8-4.3 18-17.7 23-29M775 1555.4a52 52 0 0 0-34-41.7c-16.6-3.5-36.9 0-45.1 16.6-19.1 20.4-9 55.2 13 69.3 9.3 9.3 16.3.3 23.4 8.8 19.6-1.6 42.4-13.9 37.4-38zm40.6 72.8c6.2-.3 13.4 1.8 17.5-4.2 19 .2 28.2-22.6 30.3-38.7 1.7-25.3-18.5-52.3-45.4-50.7-24.6-1.7-41 20.6-40 43.3-10.6 18.5 7.6 41.1 25.2 47.5 5.7 3.1 8.8-5.6 12.4 2.8m-364-258.5c-28.5-8.3-57.9-13.7-86.6-21.1-34-8-67.8-16.9-101.9-24-7 3.7-32.6 14.5-28.2 23.8 59.8 15.3 119.8 29.6 179.7 44.5zm-221.1-4.3c-23.3 7.7-37.8 37.6-25 59.8 6.2 12 19.5 27.8 33.9 24.9a33 33 0 0 0 16.6 2.3c7.7-6.5 20.5-5.2 24.4-17.6 11.7-17.4 7.6-41.8-6.2-56.8a45 45 0 0 0-43.7-12.6m1923-17.3c18.6 7 39.8 7.4 59.3 12 42.1 7.2 84.1 15.4 126.3 22 11.2-3.4 26.3-37.6 1.8-26.7-3.8 12.1-19.6 12.1-14.8-3-3.3-5.9-12.7-3.9-18.8-6.2-32.8-6.7-66-12.5-98.8-19-5.5 2-15.9 14.8-21 4.3 6.2-21.9-54.2-6-34 16.6M1033.6 1548c-62.9-14.3-125.4-30.4-188-45.9l-8.3-1-27.4 20.8c20 7 41 10.5 61.5 16 17.4 3.7 34.6 11 52.5 6.6 15-2 28.8 5.9 39.3 16 18.2 2 41.3 19 56 2a59 59 0 0 0 14.4-14.5m1369.9-274.5c14.8 4.2 30.5 6.3 45.7 9.4 15.6-2.2 10.4-25.7 19-36.3 12.3 2.3 26 4.6 25.5-12.3 5.6-13.7 7.2-31-13-29-19.7-2.7-39.1-7-58.8-9.6-7.4 21.5-11.3 44-16.8 66-.3 4-3 8-1.6 11.8m-2370.9 106c4.2 18.5 19.6 39 39.3 39.4 4.8-.7 10.4 3.3 16.3 1.6 5.4-4.5 21.3-2.6 17.2-12.8a45 45 0 0 1 8.7-45c3.8-16.8-20.3-26.5-34.2-27.7-22.5-3.4-43.8 14.5-46.4 36.6a71 71 0 0 0-.9 8m2215.5-214c-8.5 17-12.5 36-18.8 54-3.9 10.4-10.6 26.2 7.3 24.3 13.2 2 26.3 5.6 39.5 6.7 10.3-6.6 7.1-27.6 17-34.2 8.4.1 18.2 2.3 18-9.6 0-9.2 16.9-28.7 2-30.3-8 .2-11.4 0-19-3.5-15.3-2.5-30.7-5.7-46-7.3m-663 286.7 45.3 10.5c1.3 9.9 0 20.2 1.3 30 5-1.6 8.7-9 13.2-12.7q31.6-35 63.3-69.7c-20.3-6.5-41.7-10-62.6-14.5-10-1.4-14.7 10.6-21.7 16.2a1498 1498 0 0 1-38.7 40.2m489.4-316.7a534 534 0 0 0-26.1 73.2c17.6 4.7 36.7 9 54.7 9 7-10 3-38 19-33.3 11.2 5.2 15.1-2.3 17-11.9 3.2-10.7 14.6-28.8-5.4-27.4-19.7-3-39.4-8.6-59.2-9.6m-1922.4 305c12.1-3.2 24.8-6.3 32.5-17.3 19.7-27.1-1.2-72.2-35.4-72.3-16-1.2-32.5 7.6-21.8 24.4 6.7 17.4-16.8 31-10.9 44.5 6.9 9.8 20.5 20.1 31.9 17.2zm1900.8-308c-12.9-5.9-27.5-6-41.2-9.1-10.3-1.3-23.8-7.6-24.3 7.2-6.5 20.5-14.2 40.8-20 61.4 5 5.7 16.3 4.9 24.2 7.1 12.1 1.6 24.1 6.3 36.3 5.2 5.4-3.9 5-12.4 8-18.4zM601.2 1404.8c-11.2 6.6-34 17-34 25.6l139 34.3a625 625 0 0 0 31.8-23.5c3.9-6.5-10.7-4.8-15.4-7.5zm1980.5-91.2c-7.6 15.2-10.9 32.2-16 48.3.8 5.4 11.9 3.3 17 5.6l70.2 13c5.6-3.2 4.4-12.4 7-18.2l8.2-31.6c-12.5-5.1-26.5-5.5-39.6-8.6zM638.1 1517c11-8.1 22.8-15.7 32.4-25.3-49-11.2-97.4-24.1-146.3-35.7l-30.6 21.4c0 5.5 11.4 4.1 16 6.7zm405.3 30.5 125 30.9c8-10 27.6-22.5 27.8-31.2-30.8-8-62-14.8-93-22.6-10-1.2-21-8.7-30.4-3.4-10 8.5-21 16.3-29.4 26.3m93.9 59-126.6-30.9c-7.6 8.2-33.3 20.4-26 29q57.5 14.3 114.7 29.2c15.4 1.3 27.2-17.6 37.9-27.3m-544-202.5c-22.3-7.4-45.8-11.2-68.7-17.1-23-5.1-45.5-11.8-68.7-15.8-9.3 7.5-33.5 17.2-33.4 23.9l135.5 33.5c12.1-7.8 23.6-16.4 35.4-24.5m1968.5-101c6.9-7.9 6.4-19.5 9.7-29.2 3.3-15 8-29.8 10.3-45-3-9.6-16.5-7.7-25.1-10.2-11.9-1.4-23.8-5.5-35.6-4.8-5.4 10.2-13 29-9.3 39 19.8-1.1 18.5 14.9 12.5 28.8-5.5 11-1.1 16.8 10.2 16.4zm-1690 166.8c-41.7-10.9-83.8-19.9-125.6-30.4l-31.6 24c-3.2 5.7 10.8 4.5 15.4 7l105.3 26.3c13-7.4 24.3-18.1 36.5-26.9m-354.3-14c-13-6.2-28-7.5-41.9-11.7-31.6-7.4-63-16.1-94.7-22.7a85 85 0 0 0-34.4 20.6l140 36.2c9.8-8.2 21.6-13.7 31-22.4m185.8 12c-39.3-12-79.7-19.7-119.4-30l-23.6-6c-8.3 6-30.2 16.2-27.9 23l137.3 33.8c9.7 1 15.6-8.6 23.4-13zm1674.5-140c13.7 5.6 29.6 6 44.1 9.7 12.3-.7 33.1 13 39.2.4 4.5-14.4 11-28.3 14-43-26-6-52.2-11-78.7-13.8-6.6 15.4-12.8 31.3-18.6 46.8M552.8 1430c-45.5-10.8-90.7-23.2-136.4-33-9.1 5-32.1 14.7-29.9 22l135.8 33.2c10.9-6.2 22-13 30.5-22.2m971.4 67.4c13.4 5.9 28.6 7 42.8 10.7 16.2 3.1 32.2 7.5 48.4 9.9 1-14 6.6-36-4-44.8-29-6.1-58-13.3-87.3-18.7a204 204 0 0 0 0 43M2565.4 1312l-14.8 43.6c-7.6 5 .5-12 1.7-17.1 2.9-9.4 6.8-18.6 8.7-28.3-20.2-4-40.3-9.3-60.7-10.8-13 10-14.7 32.7-21.2 48.4q38.2 8 76.6 14.6c11.7-9.8 16-33.1 19.4-49-2.5-2.7-6.5-2.2-9.7-1.4m-410.3-122.5c18.5-1.4 17.8 14.2 11.4 27.2-6 10.8-1.2 16.2 9.8 16.1 8.4 1 16.9 5 25.2 3.4 5.2-5 5.4-13.7 8.5-20.2 5.3-17.8 12-35.4 16.1-53.4-18.3-6.3-38.5-8-57.3-10.7-8.4 9-10.4 25.3-13.7 37.6m225 80.6c6.3-26.1 14-52 19-78.3-18.4-1.6-42.9-12.4-58.2-7.1-3.2 11.6-7.7 23-10 34.8 5 7.2 25.4 1.4 15.1 15.7-3.8 12.7-12.5 32.5 8.6 30.2 8.5 1.5 17.1 2.6 25.5 4.7m-361-10c9.9 5 21.7 4.8 32.4 7.6 14.6 2.3 29 6 43.7 7a108 108 0 0 0 22.4-44.6c-23.7-6.2-48.3-8.2-72-14.2-7.1 0-7.8 10.8-12 15.7-4.6 9.5-10.6 18.6-14.4 28.5M225 1362.6c26.5-11.3 55.1 7.8 64.6 32.8l87 21c9.7-6.2 28.8-14.4 30.8-21.8-57-14.4-114.6-28.2-171.8-42.6-7.3-4.8-12 5.1-10.6 10.6m939.8 218.4c-20.3-6.7-41.6-10.2-62.2-16q-31.2-7.8-62.5-15.1c-6.2 6.7-32.1 20.3-19.6 24.5 39.4 9.5 78.6 19.5 118 28.7 6.6-.1 10.4-8.3 15.7-12zm-332.6-81.6c-27.1-8.3-55.2-13.7-82.6-21-13.6-3-26.8-7.6-40.6-9.2-8 5.5-26.5 14.9-26.2 22 39.8 10.5 80.1 19.5 120.1 29.4a155 155 0 0 0 29.3-21.2m879.5-133.3c-2.5-6-14.4-4.5-20.8-7l-66.3-13.9c-32.6 35.8-67.4 69.6-100.7 104.7 18.3 6.3 37.7 8.8 56.4 13.5 12.6 2.2 24.9 7 37.7 6.8 11.2-9-10.3-9-16.8-11.5-15.8-3.6-31.7-6.7-47.5-10.8-2.8-6.1 7.3-10.5 10.5-15.7q35.5-37.2 71.5-73.8c4.5-9.8 14.7-2.5 22.5-2 16.7 3.1 33.3 7.6 50.1 10zm45 368.2c46.7 10.7 92.9 23.5 139.6 33.8q114.5 28.2 229 56c34.6 10.1 70.3 16.5 105 26.2 5 7.4-5.2 15.8-7.9 23.4-9.1 17-20 33.2-27.3 51.1 4.3 6.2 6.4-6.7 9.4-9.5 12-22.6 25.9-44.5 35.7-68-11.4-5.5-24.8-6.1-37-9.9q-98-23.4-196-47.3-75.2-17.7-150.2-35.7c-34.4-9-69.1-16.6-103.7-24.6-15.9 20.1-32.3 39.9-47.7 60.4.1 12.3 7.8-2.8 11.5-6.5 13.5-16.2 24.7-34.5 39.6-49.4m244.7-476.3c6.4-15.3 14.8-29.8 20.5-45.3-13.8-4-28.7-5.5-43-8.5-7-.2-16.6-6.1-21.6.4-5.2 13.4-19 30.1-17.7 41.9a1234 1234 0 0 0 61.8 11.5m691.8-23.8c4.4-14.1 11.8-39.2 11-47.4-2.3 10.6-9 16.2-19.3 11.9-23.6-3.3-46.8-9-70.4-11.3-7.5 2.2-6 13-8.7 19.3-7 12 4 15.4 15.3 15.7q34 5.8 68 12.1zM550 1570.6c-19.2-6.8-39.7-10.4-58-20-10-2-32.3-23.2-28.4-.7-6.7 22.3 16.9 29.8 32.3 38 17.2 8 35.2 15.8 54.2 18 1.9-11.6 2-23.7 0-35.3m1569.7-291 56.6 10.2 19.3-45.5c-16.6-4-33.7-8.2-50.8-9.1-12 10.2-18.7 29.5-25.1 44.4m-915.5 269.6c-6.1 11.4-43.4 27.2-19.8 33.3 17.3 4 34.3 8.7 51.7 12 13.3-5 25.6-18.2 33.4-29.5a652 652 0 0 0-65.3-15.8M635 1519.8c-20.6-7.3-42.4-11.1-63.5-17-26.6-6.3-52.8-14-79.5-19.6-18.7-4.9-21.1 31.6 14.1 20.2 36.6 15.3 76.1 20.1 115 26.6 5.2-2.6 9.3-6.7 13.9-10.2m-332.9-233.5c9-5.9 31.8-22 20-30.9-12.7-6.9-27.5-3.3-41.3-4.2q-22 2.9-43.6 8.5c3.7 10.1 4.1 32 19.3 27.3 13.3-3.3 27.6-.3 40.4-3.2 1.6-.5 3.6 1.9 5.2 2.5m840.9 321.1c-8 9-29 21.2-25.5 30.8 19.3 5 38.7 10.7 58.2 14.5 8.1-.9 12.6-9.5 19-14 4.2-5 12.7-8.3 13.2-15.1zm1204.2-322.6c3.8 12.6-11.5 36 5.9 39.7 11.1-10.7 14-29.8 21.5-43.8 2.9-8.2-10.5-5.2-15.5-7.6l-140.5-25.5c-8.9 9.8 5 10.2 11.7 11.8 36.7 7.8 73.7 14.2 110.4 22.3q3.5 1 6.5 3m86.6-192c16.7 9 36.7 8.3 55 12q17.3 3 34.6 5.6c10.7-12.6-26-8.2-35.1-12.7-48.3-9-97.1-14.8-145.4-23.6-54-8.4-107.8-16.6-161.6-26-7.1 8.5 15.8 9 22.7 10.8 17.4 2.7 34.6 7.3 52.3 6.1 27.1 8.4 55.6 11.2 83.4 16 18.5-.9 37.4 8.6 56.9 9 12.3.6 25.1 7 37.2 2.9m-789.2 299.4 64.4 14.3c3.2-8.3.8-17.9 1.7-26.7 2.2-8.6-5-11.8-12.4-12.1l-50-10.2c-4.5-1.1-48.5 17.7-5.2 17.8zm209.8 427.8c13.4-.2 26.7-2.6 39.3 3.7a109 109 0 0 0 42.9 17.2l52.5 13.3c9.2-4.1 25.8-12.5 6.4-14.8a17409 17409 0 0 1-137.4-35.9c-8-1.7-4.7 12.2-3.7 16.5M1582 1450.5c19.3-19.1 37.5-39.5 56.5-58.9 1.2-11.8 2.8-39.5-10.2-20.4-22.3 24.3-45.9 47.4-69 71-3.5 7.6 18 6.6 22.7 8.3m349.2 456.8c9 2 18 5.2 27.2 6.3 4.6-15.8 3.5-39.1 19.8-52.1a290 290 0 0 0-56.2-13.9 71 71 0 0 1 7.3 51.6c-.5 2.8.1 6 1.9 8.1M620.5 1578c-17.8.7-36.7 2.5-54.4-3.2-17-5.7-9.2 22.7-9.1 32.8 18.2 5.3 37.3 2.2 56 3 10.4 1 5.7-11.8 6.6-18.2.5-4.7 3-9.6 1-14.4m-250.1-158.5c-13.4-6-29.6-7.6-44-12-10.7 0-30.4-12.7-35-3.8 2.9 11.8-9.2 28.5 10 27.9 17 2.5 36.2 15.7 50.8.9 5.7-4.6 13.7-7.5 18.2-13M1894 1939q46.7 13.2 94 24.7c9 2.2 13.7 2.6 2.8-3.1-15-6.4-17.9-27.1-31.5-32.3-13.3-2.9-26.2-8.3-39.7-9.2a91 91 0 0 1-25.6 19.9m-680-318.2c7.2-7.8 15.8-14.3 21.9-23-22.3-4.7-44.2-11.3-66.5-16L1146 1605c22.4 6 45.4 12.6 68.1 15.8M2492.3 1166c-18.8-2-37.3-8-56.2-8.7-6 3-4.8 12.3-7.6 18.1-4.2 7.8-.4 15.6 8.9 14.6 14 2 27.8 5.6 41.9 6.4 8.4-3.1 9.8-21.6 13-30.4m-425.6-72.1c-19.2-1.3-44.8-13.5-60.2-6.3-10.2 16.3-10 30.5 11.5 28.4 13 1.8 25.9 6 39 6 3.7-9.2 6.5-18.7 9.7-28.1m-50.7 739.2c-56.4-15.6-113.4-29-170.2-43.3-16.3-2.4-6 24-10.6 34.4-1 18.5 13.7-1.7 7.6-10.5-4-28.7 30-6.5 45-5.5l116.5 30.4c6 3.7 14.3 13.4 12.2-2zm59.5-706.9 55.5 10c3.5-8.4 16.9-31.2.6-31.7-14-2.1-28-5.7-42-6.8-8.9 3.5-9.3 20.3-14 28.5m176.2 29.5c16 4 41.6 13.5 54.4 6.3 3.3-11.1 14.6-29.8-4.3-28.3-12.7-2-25.4-5.4-38.2-6.5-6.6 3-5.7 12.2-8.7 18.1zm342.5 30.7c-2.3 9.8-5.8 19.3-7 29.3 16 8.8 14.8-15.7 18.2-25.8-8.8-11.3-35.1-9.4-51.1-12.4-5 12-15.5 37 6.6 34 12.5 4.2 26.5 4.5 26.1-12.7 2.2-3.5.4-14.4 7.3-12.4m-400.9-40.8c15.5 4.7 43.7 16.3 43-10 2.2-11.9 8.8-9 4.2 1.7-7.2 8.3-3.4 24.7 6.5 16.4 1.7-8.7 16.3-29.7.3-29.4-14.6-2.2-29.2-5.6-44-7-8.2 2.2-8.6 20.6-10 28.3m518.2 47.3-44.6 166.3c2.4 3.1 6.5-9.6 9.6-13.2 8.6-16.4 21.5-31.4 22.4-50.7 4.7-30.3 10.5-60.5 13.3-91.1q.1-5.7-.6-11.3m-2035 300.2c-9.3 7.7-27.4 16.7-30 25.1 17.4 4 40.6 19.5 52.7.2 4-7.6 38.3-11.5 20-14.6zm839 245.2c12.6-3.4 18.4-16.4 27.1-25 39.6-46 77.8-93.1 117.4-139q37.6-45.8 76.4-90.5c6.2-4 10.6-18 1.2-6.7l-69 81c-24.8 29.8-50.5 58.9-75.4 88.7-26 30.4-52.2 60.6-77.7 91.5m898.5-585.8c-21.5 0-57-23.5-50.2 23.7 13.2 2 33.4 10.8 43 4.4 3.3-9.1 4-19 7.2-28M2215.5 1997c-15.7-6.7-32.7-12.3-43.6 4.5-22.5 10.4 12 11.6 21.3 15.8 12.3 2.6 24.7 7.7 37 8.6l.9-1.4-9.5-12.8zm111.9-667c-40.5-7.6-80.9-16-121.5-22.6-6.7 9.5 4 11.3 11.8 12.3l100.7 18.7c6.1 3.6 11-3.6 9-8.5M2024 1826.2a4715 4715 0 0 0-183-46.7c-9 6.6 8 7.2 12.7 9.2 54.6 13.4 108.9 27.5 163.4 41.2 2.9 1 6.1-.7 6.9-3.7M232 1261.6c-14.9 2.4-38.6 5.2-45.3 18.3-1.4 15.6 10.6 11.9 22.5 10.7 10.5-.8 27.8 3 33-5.9-3.9-7.5-5-16.4-10.2-23.1m1824 692.9c-4 9-37 12.1-19 21.8 16.7 3 45 15.5 55.6 11.9-13-12.7-8.8-39.8-36.6-33.7M905 1550.1a574 574 0 0 0-65.4-16.2c13 8 22.6 20.7 27.1 35.4 2.9 11.2 28.9 13.2 24.7-7zm-574.5-78 2.3 20.4c15.3 6.4 36.6 15.5 50 18.1 2.6-11.4 2.3-26.2-13-26.5-13-4.5-26.2-9.1-39.3-12M2260 1284.3l-52.6-10c-3.5 13.1-3.8 27 14 25.5 17.2 2.1 38 13.9 38.6-15.5m137.5-12c6.9-22.1 11-45 17-67.3 7.3-12.1-13.7-16.9-12.7-3.3l-16.9 67.5c3.8 2.3 8.2 4 12.6 3m201-41.4c-5-12-15.3-1.9-14.1 8-5.4 21.6-11.1 43.1-14.9 65 9.3 4 16.7 1.8 16-10.1 5-20.9 8-42 13-63m-1013.8 598c-6.1 9.5-24.9 16.8-27.2 22.3 20.7 6.7 42.2 10.8 63 17-8.7-10.5-19.1-20.1-22.2-34-1.9-4.7-9.4-3.5-13.6-5.4M2206 1270c21.6 6.4 44.2 8.9 66.2 13.6 19.8 3.2 39.3 8 59 11.3 11.7-3.8-2.7-6.9-7.9-7.2-41.4-8-82.8-17-124.5-24-8.2 8.7-2 28-6 40.8 1.4 5.4-4.3 32.2 1.5 23.8 2.2-19.2 1.4-41.5 7-58q2.4 0 4.7-.3m271 17.1 39.9 7c-4-8.8 10.6-23 6.8-34.2-7.6-6.3-5.8 4.5-11.8 6.6-3.4 7-3 16.2-7.2 22.8-10.5-6.6 9.2-29.7-13.5-26.3-13.5-6.4-10.3 16.8-14.2 24.1m-704.6 620.3c20 4.7 39.5 13 60.2 13.8-10.2-8.7-10.2-25.2-20.2-32.2-14.9-7.5-21 14.6-35.6 16.3l-2.2 1zM648.8 1600.3c-.3-12 7-44.5-13-29.7-18.2 3.8-11.8 26-10.7 39.5 9.2 2.3 17.8-3.3 23.7-9.8m1583-436.3c-8.6 24.5-17.6 49-24 74.2 12.8 7 13-7.5 16.4-16.9 6.1-18.7 12.5-37.4 17.8-56.4-3-2.3-6.9-2-10.2-.9m-245.8-44c-12.5-6.7-14.2 7-17 16.6-5.1 17.8-11.4 35.4-15.8 53.3 14.7 8.7 14.8-22.8 21-32.1 4.1-12.5 8.4-25 11.8-37.8M331.7 1442.3c-14-3-27.7-7.1-41.5-10.6-15.2 4.7 6 20.6 3.2 31.8 9.5 9.2 22.5-14 32.9-18.7zM2058 1131.8c-8.4 24-15.7 48.2-23.5 72.3 5.9 10.7 12.6-2.8 13.8-10 7-18.7 13.2-37.7 19.5-56.6 3-5.5-7-4-9.8-5.7M792.4 1531.5c4.2-4.4 11.2-9.6.7-9.6l-43.5-10.9a92 92 0 0 1 29.4 36.6c8.4-4 15.8-13.9 26.5-16 5.7-2.1 15.3-4.6 4-5.5-6.6-3-10.3 6.4-17 5.4m1332.9 480.7c0 5.8-5.2 32.2 8.9 33.6 15.7.7 12.8-22.1 11.2-32.5-4.5-2.6-14.3-1.9-20.1-1.1m150 67.5c9.6-7 6.9-20 6.8-30.4-5-10.5-42.8-4.7-21.1 19.6.5 8.2 6.8 12.2 14.3 10.8m99.6-743.9 181.2 34.2c-4.7-9-26.4-6.7-37.8-10.8q-24.9-4.8-49.8-8.8c-28.6-6.2-57.5-11.1-86.3-16.9-2.6-1-5.7 0-7.3 2.3m-674.4 523.7c-7.2 9.3-23 12.6-28.2 21.7 13.4 3 38.4 13.1 46 9.5a92 92 0 0 1-17.8-31.2m605.7-566.3c-5.2 9-15.7 25.1 2.6 22.9 14 8.7 25.6.4 20.9-15.3-2.2-6.1-12.4-4-18-6.5zm-193-14.8c6.3-14.3 24-32.3 20-46.5-19.7-.7-20.4 30.1-30.3 43.8zm259.3 49.6c7-14.2 11.8-29.4 18-44-1-13-15.1-3-15.3 6.3-4.6 11.2-10.2 22-14 33.4 0 4.2 8.2 2.7 11.3 4.3m135.4-152.7-6.6 25c11.5 4.6 27.4 9.3 25.7-8.4 9.2-17-7.5-15.1-19.1-16.6M227.8 1454.5c-13.7-5.6-21-21.9-30.5-29.2-6.7-1.5-11.5 1.8-15.6 6.8-10.6 5.3-10.5 9.6.7 10.6zm2511.5-529.2a644 644 0 0 1-40.1 57.6c1.9 7-.1 28 7.8 12 10.5-22 23.5-43.5 32.5-66.1zM2473.4 1346c7.7-15.3 13-32 17.7-48.4-18.7-7-17 25-24.2 36.6-3.2 7.3-4.1 14.2 6.5 11.8m-591 594.8c-12.7-2.8-24.4 1.3-19 16.5-2 17.5 22 19.4 21 2.6a96 96 0 0 1-2-19m141 28.3c-21.5-8.7-23.9 18.5-12 30.6 19.2 6.2 12.9-20.1 12-30.6m314.4-787.9c-19.3-9-18 18.3-24.2 29.6-7 9.4 8 9.3 12.5 8.3zm-166.2-38.3c5.5-13.7 11-31.3-10.5-29-9 6.4-16.2 32.3 5 28l2.7.4zm-238.4 100.8c4.8-14.2 21.6-32.5 18-44.4-17.2 2.3-20.7 28.6-28.8 42.1-.1 4.6 8.2 3.1 10.8 2.3m406 41.8c-6.6-4.5-15.8-3.8-23.6-6.1-36.5-7-72.8-14.8-109.2-22-16.8 2.4 2.5 4.6 8.5 6q59 11.2 117.6 23.2c2.3.4 4.9.4 6.8-1M1667 1906.1c3.4-16.3-2-33-21.3-24.1.2 12.6 3 40.3 21.3 24m99.9 26.9c-1.7-8 4.6-26-5.4-24.6-23.3-9.3-17.4 39 2 27.5 1.5-.1 1.9-3 3.4-2.9m529-680c12.5 7.3 24.4 5.8 25.3-10.8 8-12.9-5.3-11-13.6-12.3-6.6 1.1-6 11-9.2 16.3q-1.4 3.5-2.5 6.8m-1291.6 321.2c-10.1-2.2-29.3-11.1-34.8-6 8.9 7.6 4.7 38.2 18.3 21.5 5.8-4.8 11.8-9.5 16.5-15.5m1143.4-371.5c-14.7-8-24.7.6-25.5 16.2-.1 6.5 27.3 13 21.8-.4a87 87 0 0 0 3.7-15.8m196-31c1.3-7 4.9-14 4.2-21.1-14.1-12.2-30 10.4-21.8 19.9 5.8 1 11.8 3.6 17.7 1.3m304.7-41.2c5.8-9.4 19.1-32.3 5.3-34.8-5.4 10.3-20.3 22.2-18.4 32.7zM111.1 1410.8c11-10.6 17.5-38.6 6-45a44 44 0 0 0-9.8 34.2zm1437.1 443.3c-19.6-11.4-22.5 19.8-8.2 26.3 15.7 1.2 9.7-17.2 8.2-26.3m488.4-637.1c-9.5-8.8-12.9 4.1-16.3 10.9l-13.8 28.5c6.9 10.7 11.2-4.3 14.6-10.1zm467-7.8-8.5 38.8c11.2 10 13.8-13.3 16.4-21.4 4.2-13 6.3-15.8-7.9-17.4M2150 1188c3.8-12.2 8.6-24 11.2-36.6-10-8.7-14.3 8-16.3 16.3-1.8 8-12.6 25.2 5.1 20.3M274.4 1447.3c-7.7 3.3-15.6 11.9-6.1 18.9l22 6c.5-10.8-2.4-22.8-14.5-24.4l-1-.3zM2329 1324.6c-18-6.4-37.6-6.5-56-11.7-21.8-4-43.5-9.3-65.6-11.5 7.8 8 35.5 7.6 50.9 12.3 23.4 2.9 47.9 12 70.7 11M297.2 1298c-1.4-13.9-15.5-3.4-20.8 2.6-4.7 3.3-20.4 6.3-19.6 17 4 5.2 11.2-4 16.4-5.6zm533.6 333.8c-7.4 2.4-23.7-1.6-14 14.7l4.5 11c17.3 4 11.4-16.4 9.5-25.7M944 1671c6.4-11.9-5.3-34.4-16.2-18.6.2 9 2.7 26 16.2 18.6m-215-58c-2.6 10.5 7 33.3 17.5 19.4-.1-13.8 1.6-26.3-17.5-19.4m1688.4-458.6c-.3 10-15.2 35.2 4.3 31.2.1-10.2 16-33.6-4.3-31.2M93.1 1423.8c-16-2.4-16.6 8.3-10.5 19.6 10 13.4 20.6-7.2 11.4-17zm1738.7 398.6c-7.8 12.3-18.3 23.6-19 39-4 7.7-.9 23.9 3.9 6.6.1-17.7 20.7-27.6 15-45.6M244.3 1458.6c-3.9 13.4 18 33 17.5 11.2.3-14.9-6-14.9-17.5-11.2m-75 5.7c5.3-12.3-11.7-31.6-16.6-13.7.5 8.8 5.9 21.9 16.6 13.7m1892.5-340.6c14 6.8 21-24.2 16.6-28-13.3-3.3-11.5 20.2-16.6 28M481.1 1481c-17.5-6.6-36.1-10.2-54.3-14.4-11-.9 6.7 4 10.5 6l36.2 14.1zm1512.6-370.8c1.3-8.4 16.8-30-.4-27.9l-9.2 28 5.3.5zM1962 1919c-11.9-1.4-30.5-14-38-5.3 3.4 4.9 12.1 4 17.8 6.6 7.3 1.2 14.7 5.4 21.8 4.5zm572.3-712.5c8.2 4 8.7-3 9.7-9.5l4.4-20.4c-12.5-3.2-10.7 19.4-13.9 28zm-197.4 21.2c-3 10-6.4 20.2-7.6 30.5 10 6.8 9.6-22.2 13.8-29-.3-3.4-4.2-1-6.2-1.5m-56.7 61.4c-7.5 7-8.8 28.9 3.3 18.4 1.8-9.5 13.2-20.3-3.3-18.4m-92.2-143.3c1.8-9.3 5.4-18.6 6.2-28-2.1-12.7-47.6 36.9-13.8 24.9.2 3.6 5.2 2 7.6 3.1m283.7 103.6c-2.7 10-14 29-7.3 34.7 6.6.8 4.3-10 7-14.3.7-6.6 6.4-14.7.3-20.4m-110.4-105.3-7.1 28.6c5.6 7 8-5.9 9.5-10.6.8-6.5 10.2-17.5-2.4-18m-893 649c8 4.2 20.3 7 15-5.9 3.7-12.3 5.5-20.7-3.7-7.5zm691.3-565.5 8-31.8c-11.3-.7-8.1 18.7-12.5 26.5-1.7 6.2-1.6 7.3 4.4 5.3m30 758c7.1 5.5 35.3 9 18.5-2.5-6.7-1-16.8-7.7-18.5 2.5m152.7-695.2c-6.7 12-3.1 27.5-5.6 41 .2 7.9-12.5 31.7-1 23.4 2.4-20.1 6.3-40.2 6.9-60.5zm-2012-26.5c-4.6 6.5-11.9 11.5-14.2 19.2 1.5 7 6.7-2 17.3-7.8.8-4 0-8.5-3-11.4m1860 5.1-10.2 23.3c12.2 5.8 10.6-5.9 10.2-13.8zm-79-49c2.5-7.2 11.7-31.8 5.4-29.8-3.8 9-5.8 18.8-8.8 28.2-.3 3 2 1.5 3.5 1.6m85 36c4.6-2 14.5 1 15.3-5 3-11.5-19-5.3-15.4 5m513.7 31.3v-28c-1 10.3-8.6 29.5-4.5 35zM1787.4 1420c-11.7 11.1-21 24.4-31.6 36.5 10.2-6.5 24.8-24.7 31.6-36.5m-1467.6 46.6c.4 9.6 7.4 34.3 8 12.2.3-7.2-1.3-10.4-8-12.2m1739.8 484.6c7 4.2 26.6 7.2 13.3-3.4-6.6-3.3-9.3-2.2-13.3 3.4m86.5-843.3c-3 6.8-10.3 25-6.3 26.3 2-6.3 13.5-23.2 6.3-26.3M253.3 1317.5c-8.6 1.7-24.8 25-9.1 13.5 4.8-4 11.3-5.8 9.1-13.5m1462 55.6-.5 34.6c-5.7 5.3-18 22.9 1.2 2.4 1-12.3 1.2-24.8-.7-37m628-43.2c9 1.4 18 4 27 4.5 1.4-4-24-9.8-27-4.5m-22.3-191.8c-6 6-11.7 22.7-9 29.2 4.1-9.1 6.9-19.4 9-29.2m-338.1 719.5c-18.5-10.9-83.8-15.8 0 0M186.2 1292.3c1-11.4-10.8-16-9.3-2.5 0 4.5 6.4 1.7 9.3 2.5M2251 1413.5c10 3.1 32.3 7.8 35 6.2-11.6-2.6-23-6-35-6.2m-101.7-216.8c-3.6-6.7-35.2-6-12 0 3.1 2.9 9.3 3.3 12 0m332.5 58c3 8.5 39.5 6 11.8 1.6zm-156.9-29.2c-6.5-1.6-33.3-6-14.6 1 4.9.4 9.8-.5 14.6-1m-736 593.8c-9.8 9.2 14 11.1 6.2 2zm917.4-651c8.5 7 34.8 6 13.5 2.7-4.4-.9-9.4-2-13.5-2.7m-295 155.9c7.3 1.4 27 6 23.4 3.4-7.7-1.9-15.5-4.6-23.4-3.4M2072 1053.6c-8.9.4-19.4 27-8.8 12zm419.7 145.2c-2-6.8 6.5-29-1.1-12.5-.9 3.6-6.6 13 1 12.5M1816 1881.7c-13-10.6-5.8 9.8 0 2.4zM191 1419.5c13.1 11.6 6.7-16.1 0 0"/></svg>