<svg xmlns="http://www.w3.org/2000/svg" fill="#0a0a0a" viewBox="0 500 3052 1696"><path d="M2843.7 1921.2c-4.7 3.7-8.9 8.7-15.5 7-17.3-1-14-22.1-11.6-34.2-2.7-13.5-27.3-16.4-31.1-33-12-17.4-11.5-41.4-2.7-60-5.4-19.2-10.6-42.5-.6-62.2 7.1-17 3.1-37.5 6.6-54.2-16.5-14.4-25.4-38.6-16.4-59.5 7.3-17-7.4-37 3-54.8 5-15.3-5.8-33.5 4.2-49.2-7.6-18.4-7.6-40.2 4.7-56.8a48 48 0 0 1 45.1-22.3c27.6 3 52 29.8 49 58.1-5.9 18.5 8.1 35.6 2.8 54.2-10.1 16.8 7.3 34 0 52-5.5 15 9.2 30.3 2 46.5-3.2 18.9 24 32 19.3 54.2-1.2 17.2-9.8 33.4-2.4 50.4 1 13.3-8.3 26.1-5.6 39 5.7 15 8.7 31.6 2.6 47a70 70 0 0 1-42.1 45c-7.4 1.1-6.7 8.4-8 14.3zm-.9-155.6c-15.8.9-32.4 4.6-42.6 17.8a68 68 0 0 0-14 69.7 53 53 0 0 0 42 33.5c22.6 4.9 45.7-10 57.1-28.9 13.4-20.2 14.5-48.6-1.4-67.9a53 53 0 0 0-41-24.2m46.4 20.3a56.5 56.5 0 0 0-11.8-65.2c-20.2-25.3-64.3-23.8-82 3.7-14.9 18.4-16.5 44.9-8.8 66.4 4.9-2.1 8.5-8.7 13-12.5 19-20.3 55.2-24.3 76-4.1q6.9 5.8 13.6 11.7m-13.2-127.7c13.5-24.6-5.7-55.7-30.2-64.3a55 55 0 0 0-54.8 9.4c-8.7 10.7-18.7 22.8-16.6 37.5a50 50 0 0 0 18.3 41.9c12.6-22 37.7-39.2 64-32.6a61 61 0 0 1 19.3 8.1m16.3 73.6a55 55 0 0 0-6.1-57.3c-16.3-23-53-29.3-74.1-8.5a61 61 0 0 0-20.8 54.6c10.1-7.5 21-19 35.2-21.2 25.5-5.7 54.1 9.6 65.8 32.4m-113-121.1c15.9-25.3 52-31.9 76.8-16.4 8.4 4.7 21.3 22.8 22 2.7 2-30.4-28.4-61-59.2-55.3-31 2-48.1 36.6-40.7 64.2 1.5 0-.5 4.8 1.2 4.8m93.8-48.6c11.2-17.8 1.6-39.8-11.2-54-19.8-20.7-58.5-17.7-73.6 7.1-8.2 9.5-11.7 36.2-4.6 41a52 52 0 0 1 38.4-19.5c21.4-2.5 37.3 11.1 51 25.4m-41.8-73a63 63 0 0 1 37.9 20.4c11.6-6.4 3-36-8.8-46.2a46 46 0 0 0-47-15.3c-24.9 4.7-38 33.8-33.5 57 3.6 19.3 15.7-11 27.2-11.2 7.5-3.7 16.1-3.6 24.2-4.7m2.5 434.8c8.8-6.9 10.5-24 6.6-31.2-11.1-2.6-23.3-1.7-20 14-3.1 8.2-.2 20.3 10.5 17.2zm-58.5-755.7c-7.7-20.2 7.4-37.6 8.3-56-19.4-16.5-8.7-41.8-13.4-62.9 13.8-21.8-4.6-48 11.1-68.8 10.6-16.8 34.5-24.8 52.2-14.5 27.2 13 25.6 44.7 24.6 69.9-3.8 12.4-8.3 25.3-4.5 38.4 4.1 14.7 19.7 26.1 16 43.3-3.4 10.8-8.4 21.3-7.4 32.9 0 7.3-1.8 14.8 1.8 21.6a48 48 0 0 1-31.8 52.9c-9 5.5-8.5 39.9-28 23.1-7.4-10 4.3-27.2-13.2-32a47 47 0 0 1-15.7-47.9m42.5 54.6a44 44 0 0 0 40-31.2c5.8-12.5-.8-26.2-8-36.5a39 39 0 0 0-54.2-7.7c-21.5 15.6-21.5 52.7.7 68 6.4 4.5 14.2 5.4 21.5 7.4m29.5-155c-5.2-24.2-38.2-34.4-56.4-17.7-19.5 9.6-18.6 50.6-5 55.9 7.2-19 25-36.4 46.4-34.5 6.6 3 11 1.6 15-3.7m18.6 46.6c-.2-27.9-32.6-49.8-57.6-32.3a42 42 0 0 0-18.6 33c14-10.4 34.2-15.9 49.4-4.8 11 3.2 21.2 33 25.1 10.6zm-8.5 42c3.8-18.9-10-39.3-27-45.8-26-9.6-55.1 14.9-51.7 41.8 2.9 11.2 11.8-13 21-13 20.7-11.1 44.8-.8 57.7 17m-5.7-115.7c11.4-25.9-15.4-56.7-42.7-51.1-15.6 2.3-27.4 17.8-28 33 11.4-8.6 36.1-18.6 52.2-4.8 8.3 5.6 13.4 14.7 18.5 23m-21.6-20.3a37.3 37.3 0 0 0-48.7 9.4c-5.8 5.1-11 35.5.2 24.7 10.5-12.3 26.9-21.3 43.2-15.5 9.6 0 21 23.4 23.2 8.8-1-11.8-9.7-20-17.9-27.4m22.9-14.3c1.4-24-24-46.8-47.6-38.5-16.4 4-30.8 23.4-25 40.2 9.8-24.7 46-31 63.1-10.7zm-32.2 221.6c-9.5-2.5-17.7-1.7-14.6 11-2.8 13.5 15.8 11.2 13.7-1.2q.6-5 .9-9.8M789.2 1685c-9.2-.7-17.7-23.9-6-8.8 1.3 2.8 6.8 6.2 6 8.8m1238.4-767.3c.1-15.3-2.2-31.2 18.2-41 10.1.5 18-7.3 27-10.8 24.2-9.8 51.9-10.7 76.6-17.3 17-5 34.6-2.3 52-4.5 15.2-1.6 30.6-1.2 45.8-3 18.6-.2 37.4.5 56-.9 27 3.1 54.3 5.6 81 11.5 31 5 61.2 13.5 91 23.3 23.8 6.8 46.5 17.6 69.9 24.9 20 12.8 46 18 60 38.6 5.3 14.9-15.7 35.8-26.4 36.2a619 619 0 0 0-100.6-32.8 1081 1081 0 0 0-136-25.1c-22.5-1.2-44.6-5.6-67.1-5.7q-22.6-2.7-45.3-3.7c-15.4 1.3-30.3-2.8-45.6-2-27.5.2-55-.2-82.4.3-18.1 2.7-36.8 2-55 6-6.6.9-13.3 2.5-19.1 6m395.9-.7 4-52.7a546 546 0 0 0-124.4-19.6c-4 14.9-4.3 32.9-4.1 49 25.4 10.2 58.2 8.5 86.1 15.7zM2292 844.3a276 276 0 0 0-55.3 1.2c-14.7-1-29 1.9-43.5 2-12.6-1.6-27.2 2-22.7 18.1-3.5 13.6-3.9 30.3 14.3 25.5 21.7.3 43.4-.8 64.8 2 13 0 25.7 2.3 38.6 2.4 1.5-17 4.6-34 3.8-51.2m143.5 23c.3 17.3-5 37.2.5 52.5 32 7.4 63.7 16.7 95.4 25 6.7-10.4 12-33.8 4.8-43.9a594 594 0 0 0-100.7-33.7m-272-18c-27.3 4.7-55.4 7-81.5 17-1.2 10.1-10.5 34.5 10 28.2 19.8-1.6 39.5-2.2 59.4-3.4 12.2 3.8 10.2-8 10.7-15.7zm-88.3 50.6c-12.5 0-31.2 1.5-38.4 10.6 19.7-3.6 39.5-5 59.2-7.3 38.6 0 77.2-.6 115.8.3 14.6 3.4 30-.4 44.6 3.2 10.4-2.6 32 7.8 34.8-2.1-8.4-11-23.7-5.8-35.4-8.8-18.4.3-36.4-3.3-54.8-2.4-20.1.5-40.5-.5-60.5.7-17.5 1.9-35.1 1.7-52.6 3.3-4.3 0-8.9.3-12.7 2.5m472.3 6.4c-1.4 13.5-4 27-4.5 40.5 11.7 6.5 37.5 24 47.4 7.2 11.1-12.6 2.6-28.3-11.6-32.9-10-5.8-20.3-11.3-31.3-14.8m-250.5 1.4c17.8 5.5 36.7 4.2 55 7.5 24.5 3.9 49.1 7 73.4 11.5 5.6-8.6-23-9.3-30.7-12.4-31.9-7-64.4-10.4-96.8-13.9zm136.5 20.6c8.6 2 17.5 4 26 5 21.9 7 44.8 11.2 66.7 18.8 17.1 3.5 42.7 17.2 54.5 15.3-22.5-10.1-46.2-17-69.7-24.8-20.3-6.5-41.2-10.8-61.6-16.4-4.3 3.4-18.6-8.4-16 2.1m-362-32.5c-.5-9 7.6-33.5-7.8-21.7-10 .6-25 23-18.8 26.7zm528.3 42c2 7.1-17 33.8-3 19 4.2-5.3 7.9-13 3-19M184.4 1423.2c-6.8-6.5-17.3-36.6-5-15.6q3.5 7.5 5 15.6m2467.3 546.5c-18.9-3.2-44-2.8-59-12.7-1.9-16.9 2.6-33.5 2.1-50.3 3.4-18.4 2.1-37.3 5.3-55.7 1.3-28.5 5.2-56.7 6.5-85.1 2.6-23.9 3.5-47.9 5.7-71.7 2.6-32.8 6.2-65.4 8-98.2q2.8-30.7 4.5-61.6c3.5-17.5 1.8-35.8 5.2-53.5a4695 4695 0 0 1 9.3-122.4c-.5-12 11.8-5.7 18.8-5.6 10.3 2 21.4 2 31.3 5.1-1.1 15.8-.1 32.5-2.9 48.5-1.3 20-1.7 40-3 60-2.8 23-2.1 46.6-4.7 69.8.2 15.6-2.2 30.7-2.5 46.1-2.1 18.1-1.4 36.4-4 54.4 0 20-2.8 40-3.2 60.2-1 19.2-2.8 38.4-3.6 57.6-1.4 16.5-2.1 33-3 49.6-1 22-3.4 44-4 66.1-1.5 17.4-1.8 34.9-4 52.2.8 15.9-2 31.4-2.8 47.2m-24-374.9c-6.2 17.5-4 36.6-7.1 54.7-.4 14.6-2.5 29-3.2 43.7-1.3 15-3.2 29.8-3.4 44.8a447 447 0 0 0-3.5 44.7c-2.5 16.3-3.1 32.9-4.4 49.3-1.3 22-2.6 44-5.5 65.6.1 18.6-4.4 37-3.8 55.5 10.5 10.3 36.5 9.6 50.8 11.6.9-15.5 3.5-31 2.6-46.6 2.9-16.2 1.5-32.8 4-49-.8-17.5 2.7-34.6 2.5-52 1.6-16.4 1.7-32.8 3.5-49.2-.3-16.4 3-32.6 2.3-49.1 3.3-15.2.4-31 3.5-46.2.2-17.9 2.3-35.6 3.3-53.4q1.6-27.3 2.8-54.5 2.7-30.8 4.1-61.4c1.6-18 1.5-36.1 3.7-54 .5-18.9 2.2-37.8 3.3-56.6-.2-11 7.9-35-9.4-33.8l-28.3-3.3c-4.8 24.4-3.8 49.5-7.1 74.1-1.3 27.6-4.9 55-6.1 82.5-3 20.7-3 41.8-5.8 62.5q-.5 10.1 1.1 20.1M204.8 1338.6c6.5 3 11.1 10.4 16.9 15.1 4.8 9-18-12.5-17-15m286.5-226.2c15.7 5.2 33 5.2 49.3 7.5 14.2 2.4 26.1 3.7 40.6 6.5 15.8 2.8 39.8-1.8 35.6 21.4 1.2 11.3 5.6 35.2-13 28.3-17.8-2.6-35.6-5.8-53.4-7.8-17.6-4.1-38-3.9-56.4-8.4-12 1-20.7-3.2-17.9-16.6 2.3-8.8-11-32.5 3.8-31.4zm5 31.3c7.2 7.3 18.1 5 27.3 7 5-.6 16 5.5 15.3-3l-2.2-21.8c-13.1-1.6-34-10.4-42.9-2-.8 6.7-.2 13.6 2.5 19.8m77.7 14.3c11.5 1 23 5 34.6 3.8 3.4-21.4-.4-53.6-42.6-31.5.2 10.5-4.2 23.1 8 27.7m-89.7-9c6.6-2.3 2.4-37.4-4.1-28.3zM538 1160c-4.5-4.5-12.6-3-18.7-4.5-9.3-.6-19-3.8-28-2.3.3 3.5 11.1 2.4 15.7 3.9 9.8.7 19.4 3.3 29 3.6zm16.2-31.7c.3 8.3-3.3 30.2 4.8 29.4.7-9.1 1.3-22.5-4.8-29.4m10 36.4c14.4 2 29.2 6.3 43.6 5.5-10.1-5.7-29.8-6-43.6-5.5m1.3 17.2c16.3 6 34.6 5.6 51.6 8.5 4.2 13.1 9.4 37 .5 47-21.1-2.2-41.9-7.6-63.1-9-1.2-7.1-.8-16.3-4.6-3.7-4.7 4.4-13-.5-19.2-.2l-46.3-6.4c-4.3-4.8-2.2-12.9-3.7-19l-2.3-25.7c13-6 28.1 3 42 3.7 15 .5 30.3 5.3 45.1 4.8m-65.2 22.2c12.6 4 34.3 11.4 43 4.5 2.6-14.8-3-29.8-20.4-26.3-11.3-3.5-31.1-6.6-23.9 11.4zm77.9 14c10.8-.3 30.2 8.6 36 1.3-1.7-10.2 3.6-27-12.1-25.4-13-.7-39.5-12.1-31.4 11 .5 6.5 1.7 10.2 7.5 13m35.6 12a110 110 0 0 0-46.4-5.6c15.1 3 31.4 5.8 46.4 5.5M486 1178.1c1.9 6.6-.5 34.7 6.3 26.7-.9-9 .7-18.8-2.6-27zm10.4 34.8c7.6 3.4 17 2.8 25.4 4.6 6.6.5 13.6 3 20 2.2 2.3-3.7-11-2.5-15.5-4.1-9.4-1-19.1-3.5-28.5-3.7zm63.9-24.9c-4 7.5-.8 21.9 1.7 30.3 2.7-9.2 3-21.6-1.7-30.3m-8.2 98.3c-21-3.7-42.5-5.6-63.4-10.2-.5-14.6-8.3-36.8-.4-47 13.4-.1 25 4.8 39.5 5.8 31.8 5.9 64 9.2 96 15 3.2 14.1 1.6 29 2.9 43.5-8.6 7.2-24.5-.6-36-1-10.4-3.7-23.5-.8-32.6-6.6-1.7-3-3.7 0-6 .5m-46.1-23.7c11.1 2.5 34.3 14.1 42.9 4.2.5-10 1.5-26.5-12.3-25-13.4-2.1-40.3-11.7-31.6 12q1.1 4.3 1 8.8m70.5-12.8c-1.5 10.7-4 27.8 10.6 28.7 10.2-2.1 25.7 9.5 32.2.3.6-7.8-1.2-15.5-2.8-23-4.8-4.5-13-2.7-19.2-4.5-6.9-.5-14.1-3-20.8-1.5m42.4 40c-13.3-6-29.8-6.2-44.5-8-6.3 4.6 9.4 3.1 13.4 4.8 10.4.8 20.6 5.3 31 3.3M502 1271.4c10 6.7 29.3 5 42.8 8.4 7.8-3.3-16.9-5.2-23-6.4-6.6-.7-13-2.8-19.8-2m-7-3.3c3.7-5.5 6-34-3-29.6 1.2 9.7.5 20.2 3 29.6m71.7 9.5c6.2-5.2 1.5-30-2.5-27-1.1 9-.6 18.5 2.5 27m64.9-38.8c-3.2-8-1.8-17.5-3-26.2.6-6.5-4.1-16.4 2.2-20.2 8.9-1 16.8 1.4 25.2 3.6q19.3 2.6 38.6 5.6c5.6 13 2.4 29.3 2.6 43.5-19.7 3.6-41.8-4-62.2-5.7zm59.3-6.9c-1.6-8.5-.1-17.8-3-25.9-12.2.5-43-15.2-41.2 5.3-2.2 12.6 6.6 18.7 18.3 18.7 8.7 0 17.4 4.2 25.9 2m-52.2-2.4c4.6-6.6 1.9-24.5-2.6-29.4-5.2.1 1.5 24.5 2.6 29.4m50.7 11.5c-9.6-6.1-25.8-4.8-38.1-7.6-16.8.4 13.4 5 19.9 5.6 6 1 12 2.4 18.2 2m10.3 20.4c3.2 14.5 1.6 30.3 1 45-11 2.7-25.4-2.6-37.6-3.3-14-2.7-36 0-29.5-21.3 3.2-9.4-9.5-31.2 6.5-29.8 11.5-1 21.8 5.2 33.5 5.1q13 2.3 26.1 4.3m-39.9 27.2c11.1 1.1 22.3 4.7 33.3 3.9 6.5-15.2-1.6-33.5-20.6-30.4-11-1.9-25-5.6-21 11.2-1.4 7.8 2 12 8.3 15.3m-16.8.7c5.7-5.8 2.3-32.7-3.3-28.2l2.2 26.7zm53.2 11.3c-15-3.8-30.8-6.5-46.3-7 4.4 5.6 30 5.7 43 7zm-70-122.8-4-43c3.2-6 11.2-.4 16.7-.9l50.7 7.6c6.9 12.4 3.7 31 3.7 44.4-11.5 2.7-23.4-1.7-35.1-2.6-10.6-2.2-22-1.2-32-5.5m24.2-9.4c11.6 1.2 23.1 4.3 34.7 4.1 4.9-15.8-.7-50.8-34.3-31.2-14-5-9.5 24.5-.3 27m-16.8 1.7c6.6-6 2-24.5-1.5-30-5 3.3 1.2 12.8-.3 18.6-.1 3.8-.2 8 1.8 11.4m52.2 10.4c-1.7-15.9-6.9-54.4-38-7-13.3 1.1 4.3 3.5 9.2 4.1 9.6 1.2 19.2 4.2 28.8 3m29.2-36c16.3 5.6 34.5 4.7 51.2 9.4 2.5 12.5 1 25.4 2.8 38 1.8 6.6-7.7 8-12.3 6l-55.5-7.8c-.9-14.3-1.5-28.6-3.5-42.6 2.5-5.9 12-2 17.3-3m44.5 14.3c-8.4-5-19-3.3-28.5-5.2-6-.7-15.6-3.8-13.2 5.9.8 6.6-3 16.7 5.5 19 9.3 5 21 2.7 31.2 5.5 14 4.8 1.4-18.9 5-25.2m1.7 33.7c-11.3-6-41-7.6-44.4-6 14.5 3.5 29.5 4.7 44.4 6m-53.5-42.4c-6 8.6 4.3 50.8 3.6 16.5-.2-5.7-2-11.1-3.6-16.5m146.8 73.5c21 4.1 42.3 5.8 63 10.6 3.5 10.9 1.1 22.8 2 34.2 2.8 9.5-6 12.2-13.6 9.4l-48.4-7.1c-7.5-11.5-3.3-30.4-5.3-44.2zm16.3 8.2c-.8 10-2.6 26.2 10.3 28.7 10.4 1 20.7 4.6 31.1 3.4 2.2-14.8-.3-32-19.3-29.3l-22-2.8m40.8 40.6c-4.8-3.8-12.5-2.7-18.4-4.4-8.9-1.3-20.3-4.5-26.4-1.4l41.8 6.2zm-49-11.5c.5-7.9 3.2-29.2-2.3-28.7a60 60 0 0 0 2.3 28.7m130.8-33.1c-7.6 2-16-1.6-23.9-1.9l-39.2-5.5c-1-15.1-5-31.4-2.5-46 7.2.3 14.6-1.2 21.2 2.5 13.6 6 38.4-1.7 44.4 12.7-2.6 12.7 5.3 26.5 0 38.2m-47.5-44.8c-.8 7.5 0 15 0 22.5 9.5 7.3 21.6 5.8 32.8 8.5 16.1 3.7 10.4-33.6-6.6-28.3-8.6-1.6-17.4-3-26.2-2.7m-2.2 32.9c12 1.5 34.2 9.6 41 4.4-13.7-1.5-27.2-5.5-41-4.4m-6.4-5.8c3.8-6.7 3-26.2-2.8-27-.2 7.9.2 19.2 2.8 27m-324-134.5c8.3 0 16.9-2.5 24.6 1.6 15.3 2 30.8 3.3 46 6.5 1.1 13 6.7 31 2.5 42-6.8 1.6-14.6-1.5-21.8-1.7l-43.8-5.4q-4.4-21.4-7.5-43m64.9 37c5.3-15.5-2.4-30.2-19.9-27.7-12.2-1.9-31.1-7.1-22.8 12-1 9.3 8.6 12 16 12.5zm-56.3-31.2c.6 6 2.3 32 6.9 25.4-.2-6.9 2.5-24.5-7-25.4m12 32.3c13.9 2 35.9 8.6 44.7 4.5-14.9-1.5-29.9-5-44.7-4.5m138.6 159.7c.4 14.7 4.7 31.7 1.1 45.2-4.6 4-11.3-.6-16.9-.4l-47.6-7.4c-2.3-14-1-28.2-3.8-42 2-7.5 13.9-4.8 19.8-3.3 15.7 2.8 31.6 5 47.3 8m-5.3 6.1c-12.2-4-32.9-10.8-41.6-3.5-4.2 16.2 3.8 28.5 21 27.5 11.5 1.5 26.2 6 21-11.3zm-45 26.1c10.5 6.4 36.6 7.2 42.2 6.5a149 149 0 0 0-42.2-6.5m-5.5-2.5c7-5.4-.9-39-2.6-24.7.8 8.2-1.9 17.4 2.6 24.7m-11.2-53c-1.9-13.6-2-27.5-3.9-41 2.5-8.5 14-3.7 20.7-3.2 14.8 8.2 46.3-3.5 48 18.2 2 14.5 7.1 44.2-17.1 33.2-15.8-3.3-32-3.3-47.7-7.2m58.1-31.8-20.7-4-21-1.5c-.9 11-3 27.8 12.1 28.3 11.6.3 37.4 11.8 30-9.7a48 48 0 0 1-.4-13.1m-45.6 27a135 135 0 0 0 48.1 6.7c-10.2-4.4-22-3.7-33-6-5-.6-10-1.6-15-.7m-6.5-34.3c-3 7-1.5 31.4 3.3 27.1.4-9.1 2-18.6-3.3-27m210.7 127.6c-7 5.5-16.5 0-24.5-.3-13.4-2.6-27.1-3.5-40.4-6.6l-2.8-45.4c15.4-4.7 30.4 5.1 46 5.2 14.2-1.5 25 5.3 21 20.6q.1 13.3.7 26.5M874 1317c6.3 7.1 15.4 5.5 24 7.3 10.8 4 22 2.2 16.6-12.2 1.8-13-7.6-16.2-18-16.4-7.7-.2-16.6-5.4-23 0zm-10.2 5.9c5.7-4.3 5.5-26.7-1.7-30.3-1 10 1.3 20.4 1.7 30.3m5.5 5.3 42.7 6.4c-5.6-6.7-28.3-5-40.2-8.4-.8-2.8-2.6 3.2-2.5 2m-93-130c.6-13.5-11.9-39.4 1.5-45.5 20.5 1.3 40.8 5 60.8 9.4-1.8 13.5 9.8 36.3-1.8 44.7-20-3.7-40.5-4.8-60.5-8.7m24.2-10c10.8 1.1 21.5 4.7 32.3 3.7 5.6-18-3.2-32-22.6-30-12-3-23.1-2.3-18.8 13-1.3 8.2 2.9 10.3 9 13.3m-10.6 5c13.3 1.8 33.7 10.8 43 5.4-13.7-3-28.7-4.6-43-5.5m-7-4c4.6-7.4.5-23.4-2.2-30.6a80 80 0 0 0 2.1 30.6m60.4 32.9c.2 12.6 0 25.3 2.4 37.7-7.5 16.3-31.8-.2-46.3 1.9-13 .1-26.5-3-22-18.9-.3-12.2-7.7-35.6 12.1-29.3 12.7 4 26.4 4 39.6 6.5zm-49.1-.5c1.1 7.4.4 15.9 2.7 22.6 9.4 8.2 23.3 6.2 35 8.2 11.2-3.5 7.4-33-9.4-28.7-9.4-.8-18.9-3.4-28.3-2m-10-1.7c.6 7.8-4.8 27.4 4.4 28.4.4-8.4.4-22.4-4.4-28.4m9.9 33.1c11.3 3.9 36 10.8 40.7 5.9-13.3-3-27.3-3.8-40.7-5.9m57.7-44-4-42c12.8-9.7 33.6 2.8 50 3.2 23.3-4 16 19.7 19.7 34.3 4.4 21.6-24.4 9.4-36.3 9-9.8-1-20.3-.6-29.4-4.6m17.6-13.9c10.2 5.2 33.3 13.8 39.7 2.8q.7-10-.5-20c-11.9-2.1-33.4-12.5-41-1.9a39 39 0 0 0 1.8 19.1m-11.2 6c6.5-8.1 2.2-20.8 0-30.2-7 3.7.5 22 0 30.2m7 4.9c12.6.4 35.7 7.7 41.9 3.6-13.3-1.3-29.8-8-41.9-3.6m-84.1 66.7c9.9 0 17.4 2.6 27.1 4.3q18.7 2.4 37.2 5c3.8 11.4-.4 23.2 2.2 35 2.9 20.8-23.5 7.6-35 7.8-20.3 0-36.9-5.9-32.5-29-.4-7.5-2.7-16 1-23m57.6 15.2c-11.8-1.9-33.7-13.2-41-1.8-.8 9.2.3 23.8 12.1 24.4 9.7 1 19.4 4.5 29 3.7 4.4-4.5 0-12.8.6-19zm1.8 35.7c-2.6-7-12.8-4.4-19-6.5-9.3-1.3-18.4-3.6-28-1.2q23.4 5 47 7.7m-54-43.6c.5 8.6-1 26.8 3.8 30.1 2.1-9.7 1-20.2.2-30zm210.5 26c.7 13.5.1 27 2.5 40.2-7.5 15.2-31.3-1.1-45.2.7-13 0-24.6-3.1-20.5-18.2 2.1-13.3-12.2-43.7 16-30.7q23.5 5 47.2 8m-6.4 6c-11.8-2-33.4-13.2-41-2 .7 9.4-.3 23.9 12.2 24.4 9.6 1 19.2 4.8 29 3.2q1.2-12.8-.2-25.6m3.6 35.7c-13.5-7.4-31-8-46-8.8 7.4 4.9 32 6.7 46 8.8m-52.7-44.1c-3 7.5-4.6 27.4 2.3 29 2.6-8.9-.8-20-2.3-29m53-12.6q-29.1-5-58.2-9.4c-8.8-9.7-5-30.4-6-44 7.4-5.4 18.3-.6 26.3 1.4 15.1 4.7 45.3-3.3 38.9 21.8-.7 10.1 5.5 21-1 30.2m-5.3-40.8c-12.4-2.2-32.8-11-41.4-3-3.8 19.2 10 27 27.1 27 10.6 3.6 17 2.5 14.3-9.4zm-50.1 22c7-6.5 2.2-25.2-1-30.3-3.6 4 .3 22.9 1 30.3m50.3 11.4c-12.6-5.7-26.9-5.5-40.3-8.1-25.8 4.6 164.8 30.6 40.3 8.1m-227-146.5q-32.8-3-65.4-8.2c3.6-12.7-11-31-4.6-42.9 15.8-1.4 30.7 4.8 46.5 5.4 15-1.8 26 5.4 22.7 21.3.8 8 3.8 16.4.8 24.4m-51.6-43.1c-4 19.4 11.4 30.8 29.7 28 18.9 10.7 18.4-21 7.4-24.6-11.5-1.1-23-3.4-34.6-3.9zm-6.8 25.7c2.2-5.8 1.5-32.1-5.7-25.3 1.3 8.3 1.1 18 5.7 25.3m6.2 6.2c13 .6 36.3 7.1 42.6 3.1-13.4-2.6-27.5-3-41.1-4.8zm297 122.5c17.3-2.8 34.9 4.6 52.3 6.5 20.4.7 13 29 13.8 43-1.6 9-13.3 2-19.8 2-14.2-2.9-29-4.3-43-8.2a240 240 0 0 1-3.3-43.3m18.8 28.4c9 10.2 24 8.2 36 11.2 8.6-.8 7.9-29.5-5.1-28-9.6-1.1-19.3-5.5-29-4.2-4 4.7-.9 12.8-1.9 19zm-10 6.8c6.2-3.7 2.1-13 3.3-19.3 1.1-13.7-9.5-9.8-4.6 1.9q1.3 8.6 1.3 17.4m6 3.3c12.6 6.8 30 6.8 44 8.8-12.6-6.5-29.9-5.7-44-8.8m-11.4 67.8c2.3-10.5-2.2-20.8-1.3-31.4 1-4.8-4-16.1 3.7-15.2 17 2.9 33.6 6.8 50.6 9.4 18.6 2.3 6 27 12.3 39.8.8 11.6-13 7-20.1 6l-42.4-6.9zm17.6-36.3-.1 22.7c7.6 7.3 18.6 6.3 28.2 8.7 9.2 4.2 13-4 11.3-12 .3-8 .6-17.7-10.5-16.6-9-1-18-3.4-26.9-3.6zm40 40.4c-12.9-5.6-27.5-6.7-41.3-7.8-8.5 1.3 15.1 4.5 19.8 5.8 7.1 1.1 14.3 2.7 21.6 2m-49.6-43.2c-5.6 5.2-1 14.3-1.4 21.3-.8 8 3.7 14.7 4.3 2 .5-8-1.2-15.7-2.9-23.3m-236.6-221.2c16.8 3.7 34 5.4 50.9 7.6 4.8 9.9 2.7 22.3 5.1 33.3 1.3 18.6-24.8 4.5-35.4 5.8l-30.6-4.4c-4.5-12.4-5-26.1-6.3-39.2 1.5-7.2 11-2 16.3-3m45 11.7c-13.4-1.1-26.8-5.3-40.2-4-5.7 16.4 6.7 29.2 23.1 27.1 13.7 5.8 25.6-1.6 17.9-17l-.6-3zm-42.3 26.2c12.3 3.7 38.1 8.1 43.8 4.6-13-3.3-26.9-3.4-40.2-5.4zm-3.6-5.8c-1.6-6.1-.6-28.7-7.5-23 1.9 5.2-1.4 28.7 7.5 23m67.3 19.8-5.5-40.7c5-4.5 12.8.7 19-.2 16.1 3.1 32.7 3.2 48.4 7.9 2.3 10.7 1.3 21.9 4.2 32.6 2.5 18.3-26.3 3.5-36.4 5.5-9.8-2.2-20-2.2-29.7-5m54.4-30.4c-12.3 3-38.7-13-39.2 4.5-2 9.4 4.7 18.8 14.5 18.2 9.8.4 20.3 4.8 29.6.4-2.7-7.5-.8-16-4.9-23.1m-49.9-6c-5.3 5-.1 22.6 3.6 27.8 2.2-8.8.4-20-3.6-27.8m8.2 33.1c11.2 3.8 23.6 3.5 35.3 5.6l10.7-.8c-15.2-1.9-30.9-6.6-46-4.8m141.9 42.6c8.6.2 17.4-1.3 25.2 3 16.7 4.9 48.2-1 41.7 25.2 1.7 9.8 5.8 31.8-10.4 25.5-17-2.9-34.2-4.1-50.7-9-5-14.4-1.7-30.1-5.8-44.7m21.8 8.4c-6.6 16.4 2.5 32.3 21.2 29.6 10.3 3.9 24.8 4.2 17.7-10.6 4-20.5-23.7-16.2-37-19zm-3.5 32.6c11.5 3.4 33.9 9 41.6 5.8a176 176 0 0 0-41.6-5.8m-8-35.5c-2.5 7.5-2.1 29.3 3.6 28.3 1-9.1 0-20-3.7-28.3m-21-26.9a222 222 0 0 1-64-8.5c-.9-12.8-9.8-32.4-2.3-41.4q11.6-.1 22.7 2.9c13.2 2 26.8 2.2 39.7 5.7 3 13.5 5.7 27.5 4 41.3m-9.7-36.5c-12.4-2-32.1-8.4-40.5-2.6-3.8 19.9 13.3 25.6 29.8 25.6 20 7.4 12.9-10.4 10.7-23m-48 20.5c6.4-2.9.5-33.7-4.7-23.8 2.6 7 .1 17 4.7 23.8m49.7 11.3c-11.3-4.1-36.7-8.7-41-5.2 13.7 1.8 27.2 4.7 41 5.2m569.3-20.5c4.4 18 4 37.6-11.4 50.1-9 8.4-14.3 24.1-23.4 30.6-3-7.3-.7-16.4-1.4-24.4-2.6-13 8.3-22 15.5-31.5 7.2-8 11.6-18.5 20.7-24.8m-23.7 57.3c2.4-7.3.7-15.2 1.2-22.7-4.8 6-13.7 12-8.4 20.7zm12.3-38.4c-7.1 11.8 15 17.3 9 2.4-.4-12.2 1.4-16.7-9-2.4m6 16.6c-12-9.7-8.9 20-1.6 2.4zm-26.5 36.5c9-5.3 3.7-17.7 0-7.6zm79.7-101.2-40 53.8c-7.3-1.9-2.6-12.5-4-18.3-1.7-9.9 2.3-18 8.8-25.3 10.5-14 20.6-28.5 32.8-41.1 5 9 1.2 21 2.4 31m-39.8 46.3c11.5-14 22.6-28.6 32-44.2-5.5.7-13.3-3.9-17 1-4.7 6.8-11.2 13.2-15 20.4zm20.8-50c11.1 8.5 17.1-1.2 14.7-11.5 3.2-20-11.6 8.2-14.7 11.4M482.9 1410.4c.6-9.2-12.2-8.8-14.4-11 8.5-2.1 18.8-.6 24.4-9 17.4-10.5 6-31.9 7-48.2-2.9-18.6-2.8-37.6-6.8-55.9-8-.6-15.1-2.6-13.2-12.4-2.7-32.1-6.8-64-9.2-96.2-4.1-29.2-5.1-58.7-9.2-87.9 2.7-15.5-10-38.7-.4-48.9 34.9-22.7 70.3-45 104.3-69 19.4-10 44.2-4 66.1-7.8 17-1.8 33.8-2.8 50.7-4.2q22-2.7 44.3-3.7c16.6-3 33.3 2.5 50 3.5 10.8 4 16.6-1.3 12.7-13-.8-31.6-4.7-63-6.6-94.4 2.7-9.8-12.4-23.7 3.6-22.8 22.8-13.7 43.8-30.1 66.9-43.4 6.3 3-16.6 11 .6 8.5 23.4-3.6 47.3-4.1 70.8-7.5 18.1-1.3 36.2-3.7 54.2-4.9 7.5-4 17.8 2 13-12.1-.7-17.2-2.3-34.3-3.1-51.5-2.5-13-5.1-25.7 10.8-29 26.5-18.4 53.8-35.7 80-54.5 5.6-9.6 17-4.7 25.8-6 13.8.4 27.3-2.9 41.2-2 16.1.8 31.8-3.3 48-2 8.8.8 17.1-.3 24.7-5-2.2 10.7-5 28 12.4 23.3 22.6 2 45.1 5.1 67.8 6.3 20 1.9 40.3 5.2 60.6 5 8.5-1.8 26.5-16.7 8.8-16.4-14.9-5.2 13.5.4 18-3.3 11.5 4.8 30.4 5 45.4 6.4q30.7 3.4 61.4 5.8c17.5 2.2 35 3.1 52.6 5.4 21.4 1 42.7 4 64 5.8 18.7 1.2 37.3 3.7 56 4.8 25.7 3.2 51.7 4.7 77.5 7.7 18.1-1 37.7 8.2 54.7 2 5.2-6.8 11-3.9 4.3 2.8-3.3 15 .7 31.3-3 46.5-1 23.6.9 47.4-2.2 70.8-.5 21.3.8 42.8-2 63.9-.5 22 .8 44.3-2.2 66.2q.3 12.3.2 24.4c11.5 5 27.4 11 39.2 7.6 6.3-15.5 18.3 2.5 6 9.1-130.7 195.9-260.4 392.5-390.6 588.7-5.4 6.5-4.8 10.5-.5 13.5l-17.3 3.5c.3-8.8-11.4-6.4-17.4-8.4-42-6.8-84-12.9-125.8-20.2-43.2-6.1-86-14.4-129.2-20.7-62.9-9.7-125.5-20.8-188.4-30.2-72.6-12-145.3-23-217.8-35.6-44.5-7.5-89.3-13.5-133.8-21.6-41-6-81.8-13.3-122.8-19.6-4.3 0-8.2-2-12.2-3.2m416.5 56.4c-1.8-7.2-2.5-19.3-12.6-10.7-6.2 7.3-14.6 3.9-22.4 2.6-5.1-2-13-.2-16.4-4.5-1.1-9-7-5.5-12.7-2.3-6.8 4.7-14.7-.9-22.1-1.5-10.4 1.3-13.3-9-19.4-9.7-10.7 9.3-39 7-39.6-10.6-10.9 10-23.3 9.1-36.9 5.3-14.4 4.7-8.6-21.6-21.6-9.6-5.8 7.7-13.7 3.1-21.3 1.4-5.3-2.4-14.1-.8-15.7-7.9-6.2-4.7-16.2 7.3-25 1.5-5.4-2-12.8-.7-16.9-4.6-4-11.5-13.6 3.8-21.6-1.3-5.9-1.6-12.9-1.4-18-4-2.2-8.4-8.8-1.9-14-.2-7.5-1.4-15-3.3-22.6-4.8-.6-8.1-3.6-10.2-9.9-4.4-7.2 4.6-26 2.8-26.9-7 2-15.9-26 11.2-5.5 8 51.8 8.2 103.6 17 155.4 25.2 47.9 8.4 96 14.8 143.8 23.3 34 5.6 67.8 11.9 102 15.8 19.7 4.7 40 7 60 10.4 75.4 12 150.5 25.4 226 36.5 64.6 11 129.3 21 194 31.5 19.4 3.1 38.6 7.4 58.2 9 82.7-124 164-249.2 246.3-373.6q70.9-108 142.2-215.6c6-8-9.7-5.8-14.7-8.6-5.7-.4-17.6-7-18.2 1.7-2.5 13.7-16 23-22.3 35.2q-15.1 21.7-29.9 43.4c-7.4-2.1-11.2 0-9.9 8-.6 10.8-11.2 18.1-15.8 27.5-13.6 20.6-28.7 40.1-41.1 61.3.7 12.6-9.6 6.6-17 5.6-18.6-2.3-37.1-6.2-55.8-7.8-8.4-1.8-10.5 8.6-15.4 13.4l-133.8 181.9a14 14 0 0 0-14.5 7.9c-3 6.3-10.8 1.4-16.3 2-10.9-4.8-14 7-19.7 13.8-9.5 12.6-19.8 24.5-28.4 37.7-18.5 7.4-20.7 26.9-16.2 44-.3 14.5 1 29-.4 43.4-3.7 6-9.3 5.6-15.4 3.6-17.2 1.6-9.9-18-12.1-29.9-4.5-14.4 6.7-43.2-16.1-42.3-40.5-4.6-80.9-10.6-121.2-16.2-25.7-3.9-51.2-8.6-77-11.3-13.8 12.6-25.8 27.3-38.6 41-18 21.1-37.3 41.2-55.5 62-8.5 2.4-32.7 2.5-26.2-11.2-10 .6-17.6 11-29.2 4.4-11.1 1.8-14.7-4.3-16.6-13.8q-7.4 4.5-14.7 9.2c-11.5-1.8-23-4.7-34.8-4.1m553.2-556.6c-36 39.3-74 77-110.6 115.6-9.1 17.4-29.8 2.3-45 4.5-25.3-3.3-50.6-5.5-75.8-8.8-16.2-1.2-32.3-4.2-48.6-5.3-25.4-3.6-51-5-76.2-9.1-31.6-3.2-63-7.5-94.7-10.2-21-2.8-42.4-5.7-63.5-6.8-10.9 3.2-18 13-27.1 19.3-4.5.4-10.9-3.5-16.7-2.8-36.8-4-73.3-10.4-110.2-13.2-24.5-2.8-49.4-8.7-74-4.1-21 .2-41.5 4-62.5 4.8-15.6 1.2-31.3 3.3-47 3.8-8.7 2.5-18.4 2.1-25.3 9.2a650 650 0 0 0-46 33c7.8 4.5 17.7 3 26.4 4.7q37.7 5.6 75.5 9.2c39.4 5.7 79 10.1 118.4 15.5 26.7 3 53.3 7 80 10 45 5.7 90.3 10.8 135.4 17.5 30.6 2.7 61 8 91.6 11.1 14.7-14.5 30.3-28.2 45.8-41.9 2.5-10 10.5-4 16.9-3.5 30.5 4 61.1 7.5 91.7 11.5 35 5.4 70.5 8.2 105.5 14 10 3.4 16.4-2.5 21.8-9.9 40-44.8 81.2-88.6 121.5-133.1 42.7-45.4 84.1-91.9 126.9-137.1-4.5-7 1-4 9.1-7.5 17.7 6.6 37.7 4.4 56.4 6.8 17 3.8 23.5-21.2 35.5-30.3 17.1-15.3-17-9.5-26.7-12-9.7-1.2-31.6-1.6-15.1-7.1 2.3-8.5-14-9.3-1.5-12.6 13.4-9.3 21.4-32.6 41-22.4 16.2-1.5 36.4 9.8 49.8-.4q10.6-12.4 21.1-25c2.6-7-11.1-3.1-16.2-5-28-2.4-56-6-84-7.8-19-2.3-38.2-3-57.3-5.6-28.1-1.4-56.1-5.5-84-7.7-17.2-2-34.5-3-51.7-4.9-19.6-1.4-39-4-58.6-5.3-10.2-1-17.2 6.5-24.2 12.6 11.9 9.7-16.3 2-21.5 2.9-18.4-2.4-36.8-2.6-55.1-5.2-12.6.1-25-2.6-37.7-2.6a386 386 0 0 0-42.6-3.5c-15.8-3-32-2.3-48-4.8-8.8 2-15.3-.9-13.3-10.3-18.1 1.2-37.6-.4-55.6 3.1-5.8 3-12.2 4-17.5 9l-47.1 32.2c31.9 1.2 63.3 7.4 95.2 8.6 20.8 3.1 41.7 4.2 62.5 7 17 1.1 34 2.2 50.9 5 29.9 2 59.5 6 89.4 8 20.1 2.8 40.2 4.5 60.4 6.2 13.2 2 26.8 2.6 40.2 4.1 30.9 2.5 61.5 6.2 92.3 9.4a1035 1035 0 0 1 62 6.3c-5.1 9.4 10.9 9-.8 16.6-32 32-63.1 64.9-95 97.1-15.1-7.3-11.3 7-18 13.6l-26.6 27q-1.2 3.2-1.9 6.6m-137.9 92.2c31.7-31 62.3-63 93.1-95 4.8-6.7-10.4-3.3-15.2-5.1q-38-4.4-76-8.5c-26.3-3.4-52.6-5.6-78.9-8.9-21.5-2-43-5-64.4-7-25.1-3.5-50.4-5.2-75.5-8.7-23.6-2-47-5-70.6-7.6-24.2-3.4-48.6-4.7-72.7-8.4-28.2-2-56-6.7-84.1-8.8-26-4.1-52-5.4-78-9-15.3 5-.4 30.1-4 43.2q3.8 38.2 5.2 76.5c-1.5 11.3 11.9 6.7 18.6 9l84.3 10.1c11.3-4.1 19.4-24.3 32.1-19 21.2 4.9 43.5 4.5 65 8.6 23.8 2.3 47.5 6 71.3 8.1 41.6 6.5 83.7 9.5 125.4 15.5q57.2 6.6 114.4 13.6zm-235.4 368c5-16.6-1-34-.1-51.1.2-18.2-2.8-36.3-2.2-54.6-3.2-21.5-.6-43.4-3.7-65 .7-13.6 1.7-28.1-16-24.5-16.9-2.9-34-4.9-50.8-7.7l-5.9-41.3c5.5-6 36.3-41.8 26.5 1.4 13.1 2.4 26.5 3 39.4 6.2 2.4 7.2 3 25.1 3.7 26.2.4-11.1 4.9-31.8-6.6-37-23.5-3.3-47.1-5.7-70.6-9.4-46.7-5.1-93.4-11.6-140-17.4-26.7-3.7-53.4-6.6-80-10.6-34.7-2.8-68.8-9.8-103.5-12.7a8474 8474 0 0 0-100.4-12.6c-33.5-4.3-67-9.2-100.5-13.2-16.6 4.3 5.3 10.4 12.6 8.5 27.5 6.5 56.3 6.6 83.6 11.8 13.5 3.7 33-1 42.4 9.3l4 37c-5.2 5.5-13 .8-19.5 1-17.7-2.8-36-3.4-53.4-8.3-20-1.6-39.9-4.7-59.8-7.5-21.5-1.7-6.2 27-7.6 40.5 1.5 25.9 5.7 51.5 7.3 77.3q3.1 32 6.7 63.7c44.3 8.6 89.2 13.6 133.8 20 26.5 5.6 53.5 8.7 80.2 13.4 37.7 6 75.6 10.4 113.2 16.1 18 2.3 36.1 3.8 53.7 8.7 46.4 7.2 93 13.3 139.3 20.8 15.4.3 30.3 5 45.7 6.5zm-68.9-6.3c-57.4-10.1-115.4-16.7-172.9-26.6-35.6-5.5-71.3-10.1-106.8-15.8-31.7-3.3-62.8-10.5-94.4-14.1-43.8-7.1-87.8-12.8-131.6-20.1-12.6.6-1 23.2-3.2 33.5 2.4 17.3 3.3 35 5.3 52.2 5.2 9.6-4.3 28.7 14.4 24.3.5-12.9.9-26-.7-38.7-11-14 19-9.1 21-2.4 3.2 13.6 1.6 27.6 3 41.3 2 7 18.2 9.6 15.3-1.2-.9-12.5-10.5-44.5 10.3-38.7 23 5.4-3.6 48 21.9 51.3 15.7 6.3.6-24.8 5.4-27.5l1-17c16.3-8 24.7 10 22 24.5-.1 13 .7 31.4 18.6 26.6 3.3-15.5-4.3-31.5.3-46.6 8.4 2.7 26.4-2.2 23 10.8 5.5 12.6-5.5 35.6 9.7 41.3 8.5 3.4 17.9 4.5 12.2-8.4 1.6-12-5-28.3.8-37.7 13.7 3.6 28 3.5 25 21.8 1.5 10.5.2 21.6 3.9 31.5 9.5 5.8 26.6 6.5 22-9.4 0-10.7-7-30.5 1.5-35 8.7 10-1 38.6 9.9 44.6 9.6-7.6 11.3-34-2.3-39.6.5-7.9 20.6-1.5 13.8 8.8 3.5 15.4-4.7 47.9 20.7 41.6.7-14-.8-27.9-2-41.7-1-10.5 10.7-4.2 16.9-5 14.4-.6 7 17.5 9.9 27.6 1.3 7.7.1 16.5 3.2 23.6 10.3 5.3 23.5 3.6 18.7-10-.6-11.6-2-24.1-.7-35.3 10.2.6 30.4-.4 24.4 16.8 4.4 12.4-4.7 38.6 14.6 38.4 19 6.6 6.3-19.6 8.7-30.3-2.4-9.1-3.6-23.5 10.4-16.5 22.2-3.3 15.3 19.2 19 33.7-1.8 14.6 4.7 25.5 20.7 23.7 12.5-4 .4-26 3.7-37.8-8.7-18 23.5-12.5 26.3-4.9-1.6 8 1.1 16.8 1.2 25.2 2 7.5-2.1 19.4 5.7 23.2 8.2 2.8 19 2.8 14-9.2 1.4-11.9-7-33.5 2.6-39 11 .8 23.5 2.2 21.1 15.7q1.7 19.1 4.4 37.8c17.2 12.8 13-17.5 12.4-27.6-.8-26.3-2.4-52.4-3.5-78.6zm115.4-284.2c-.2 13.8 2.3 27.5 1.6 41.4.1 15.1-.3 30.2 2 45.1.3 20.9-.8 41.8 1.9 62.5.3 21.7-.3 43.6 2 65.2-1.4 8.5 2.8 18.8.8 25.4l-47.6 50c9.4 8.2 28.9 1.5 33 2.6-2.1 7.3 12 4.2 17.2 6.3 62.6 8.2 124.8 19.1 187.4 26.8 14 7 5 30.5 9.1 44.6 1 8-2 17.5 3.3 24.3 13.7 8.2 10.2-10.2 10.5-18.5.4-12-.7-23.8-1.8-35.7-.5-11.6.7-23.3-1.3-34.8-11.4-3.6-24-3.8-35.8-6-40.3-4.3-80-12.2-120.3-16.3-11 0-5.5-11.9-6.8-18.8-.1-20.3 1-40.7-1.7-60.9-.4-28.7.9-57.4-3.1-86 9.4-5.8 13.8-19 25-8.2 19.1 1.4 38 4.6 57 6.5 28.3 3.1 56.4 7.7 84.7 10.2 4.4-4.7 1.4-13.7 2.3-20.3V1116c.4-10.8-12.9-7.6-20-10-25-3.8-50.1-6.6-75.1-10.6-40-4.7-79.8-11.8-119.9-15.7l-2 .2zm-130-299.6c11 1.4 21.8 3.5 33.1 4.4 39.2 4.8 78.7 7.1 117.6 12.8 21.2 2 42.2 4.7 63.3 6.5 20.2 2.8 40.7 3.6 60.9 6.7q30 2.6 59.8 6.5c16.3-3.4-1.3-16.2-10.9-12.2-20.5-7.6 14.7 2.1 20.7-4.1 8-9.5 30.2-20 29.1-29.5-7-3 8.2-2.4 11.3-3.7 8.6 4.2 18.5 3.1 28 4.3 21.2 3.5 42.8 4.4 64 7.1 5 4.2 18.7-10.3 15.2-1.8-.1 5.4-3 9.1-2.4 15.4v33.2c13.6-4 26.8-25.1 39.8-36 8.8-11.8 28.4-24.7 30.3-36.2-24.9-1.5-49.7-5-74.4-7q-31.2-3.2-62.2-6c-17.3-2.2-34.5-2.9-51.7-5.1-22-1.7-43.7-4.7-65.5-6.2-34-3.6-68-6.4-101.9-10.1-20.2-1-40.2-3.8-60.2-5.8-20.6-1-41-4.5-61.6-5.8q-29.4-3-59-5.4c-12.4 0-39-12-27 16.4 1.4 18 3 36 3.6 54zm458 536.2c50.6-66 99.7-133.2 148.2-200.8 2.5-7.6.5-16.7 1.1-24.9.3-38.7 2.5-77.5 1.8-116.2q0-74.4.3-148.7c-4.2-6-10.8 8.3-15.7 12-21.3 24.9-44.3 48.2-65.2 73.3-28.1 29.8-54.4 61-82.4 91-23.2 27.8-48.8 53.5-72.2 81.2-9.7 10.5-23.2 20.8-20 36.4v80c7.6 0 15-14.7 22.3-21.5q68.5-80.5 137.5-160.3c11.4-13.6 22.6-27.4 34.6-40.4 13.7 1.6 34.5-1.3 29.1 19 0 31.8.2 63.6-.6 95.3-29.5 38-60 75.4-88.7 114-8.3 13.4-18 31.5-18.4 45.6 14.6-18.8 28.7-38.2 43.6-56.7 6.4 8.7 4.6 25.7 2.8 36.6-17.8 21-33.3 44-49.8 66-5.5-2.8-2.3-14.5-3.2-21.6 1.2-7.6-2.2-15.5-5-3-1.3 14.4-.7 29.1-.1 43.7M1343.3 1105c21.3-19.3 38.5-42.5 58.2-63.4l191.4-213c7.9-7.6 26-26.2 2.7-22.4-9.6 6-15.9 16.4-24 24.5-35.1 38.9-72 76.4-106.5 115.8-26.9 28-52.7 57-79 85.5q-21.6 23-42.7 46.5c-7.4 7.8-14.7 17.3-26.4 12.8-36.2-4-72.2-9.1-108.3-13.8-27.5-4-55.3-6.4-82.8-10.8-21-7.4-31.6 14.9-46 25.3-11.2 9.4-21.7 25-38.3 18q-46.7-6.2-93.4-11.9c-39.4-5.4-78.8-10-118.2-15.1-32-4-64-8.5-96-12q-48.9-6.3-97.9-12.4c-44-5.1-88-11.7-132-16.6-14.3-1.2-2.2-10.3 4.2-13.1l77.1-49.7c13.6.9 26.6-2.5 40.1-2.3q21.1-2.8 42.6-3.7c12.4-2.2 25.2-1.3 37.6-3.8 17-.5 34-4.2 50.8.3 21.6 1.6 43 6.3 64.6 7.4 28.3 3.7 56.7 7.7 85.2 9.8l28.2-18.7q52.5 6.3 104.8 12.8c28.1 4 56.4 6.3 84.5 10.7 37.4 4.6 75 8.4 112.3 13.7 31.4 2.4 62.4 8.9 93.9 11 32-37.1 68.6-70.1 102.7-105.4 10.9-7 11.1-15.5-2.2-14.2-33-4.2-66-6.7-99-10.6-24.2-3-48.4-5.2-72.7-7.8-26.8-3.7-53.8-5-80.6-8.8-26.6-2-53-5.9-79.6-8.3-25-3.2-50.1-5.3-75.2-8.2-28.9-2.8-57.4-6.6-86.4-8.7a872 872 0 0 0-63.7-7c-21.5-4.4-45.2 0-65.6-9.2 19.1-3.6 32-21.6 49-28.3 17-.9 34-3 51-4.6 22-1.3 43.8-4.9 66-6.5 5.8-1 12.4-.5 17.8-2.6-2-4.2-14.1.4-20.7-.5-15.5 2.6-31.2 3.1-47 4.7-15.4 1.6-30.7 4-46.3 4.3-12.4 3-25.6 2.1-38 4.1l-47.8 32.1c1.8 4 11.3 2.2 16.2 3.8 31.4 2.7 62.7 7 94 10.1 27.4 3.4 54.7 5.5 81.9 9.3q37 3.4 73.9 8.3c21.6 2.3 43.2 4 64.8 7 26.4 2 52.5 6.8 79 8.3 33.3 4.5 66.7 6.9 100 11.7 28.3 2.3 56.5 6.2 84.8 9 8 3.7 38.3-2.5 25.8 11.2-31.2 31.8-62 64-93.4 95.4-16.6.2-33.2-3-49.8-5-29.5-4-59.2-6.6-88.8-10.7-28.6-3-57.2-7-85.9-10.3-36-4.5-72.3-8-108.3-13.4-20.8-2.5-41.6-5.3-62.5-7l-25 19c-54.2-6.6-108.5-13.4-162.8-19.1l-36 3c-14.8 1.5-29.6 2.2-44.3 4-15.3 1.1-30.7 2-45.9 4-15.4 1.8-32.8-.8-46 9-31.6 21.3-63.8 42-95.4 63.3.2 5.7 11.8 3 17.1 4.9q72 9 144.1 18.3c27.2 3.5 54.4 6.3 81.5 10.6 31 3.3 62 7.8 93 11.3 51.5 7 103.2 12.9 154.8 20.1 36.2 4 72.3 9 108.4 14 9 1.3 13.3-8.4 19.8-13 12.4-11 24-23.3 37-33.6 5.5.4 11.7 3.3 18 3.4 34.4 4.9 69 8.8 103.4 14 32.7 4.1 65.3 9.6 98.2 13.2m-161.2 97c-.3 18.2 1.9 36.1 1.2 54.3.4 19-1 38.3 2 57.3.3 14.5-.4 29.2.7 43.7 19 5.2 39.1 6.7 58.7 9.9 40.3 4 80.2 11.6 120.4 16.3 8.8-9.3 1.6-34.4 3.8-50-3.6-35-.2-70.5-4-105.6-1.3-7.6-12.3-4-18.3-6.2-41.1-4.7-82.1-10.3-123.2-15.5-13.8-1.2-27.5-4.2-41.3-4.2m191.9 176.3c21.5-25.1 40-52.8 59-79.8a282 282 0 0 0 34.3-68.3c4-10 6.7-20.8 14.7-28.6q41.9-53.9 84.3-107.2c4.5-8 1.4-17.9 2.3-26.8V986q-41.7 49.3-82.9 99-37.2 44.5-74 89.4c-14 16.9-28.5 33.4-42.1 50.7-1 17.5 2.5 35 1.6 52.5.5 20.9-1 41.8 2 62.4.3 12.8-.5 25.6.8 38.3M1611 815c-3.6 15.8-.7 32.9-1.7 49.2-.4 49.8.4 99.5-.6 149.2-2.6 28.6-.8 57.3-1.3 86a32 32 0 0 1-7 27.3c19.7 6 40.9 6.8 61.2 10.2 11.8-.6 6-15.6 7.4-23.5.2-15.9-.5-31.8 1.9-47.4.3-27.5-.5-55.2.7-82.6 3.5-35.4-.4-71.3 3.4-106.8-1-18.1 4-41.6-3.3-56.6-20-2.6-40.7-4-60.7-5m-771 15.8c24.6 1.3 48.8 5.9 73.4 7.2 27.7 4.1 55.7 5.4 83.4 9.5 27 1.6 53.6 6.4 80.6 8 21.6 3 43.4 4.1 65.1 7.6 27.8 1.9 55.2 6.7 83 8.3 28.7 4.6 58 5.4 86.9 9.7 12 1.8 32.5 7 27-12.3-1.5-8.4 4.7-26.3-8.8-25.1-30.2-4.5-60.5-5.8-90.7-9.8-20-2.2-40.2-3.2-60.3-6.1-28-2-55.8-6.2-83.8-8-20.5-2.6-41-5-61.7-6.2-17.7-2.3-35.8-5-53.4-4.7-14 .5-27.6 3-41.6 2.8-14.5 2.9-29.5 1.8-44.2 4.2-16 2.3-34.2-1.3-47.6 9.8zm833.2 294c18-25 36.7-49.8 53.2-76 4.5-30.5.6-61.3 3.8-91.8 2.2-24.7-.2-49.6 1.7-74.4 2.8-31.2.1-62.7 3.3-94-1.8-6.5 4.3-35.2-5.7-26l-49.8 58c-1 25.6.3 51.3-2.3 76.7-.5 32 .8 64-2 95.8-.5 29.3.7 58.6-2 87.7zM1789 961.2c.2-17-.8-34 1.7-50.7.5-22-.8-44 2-65.8 0-24.2 0-48.4 2.2-72.5-.4-19-.2-38 1.8-57-.4-9.8 1-20-.6-29.6-5 1-8 9.2-12.2 13-10.8 14.2-23.3 27.2-32.6 42.3-4 27-.6 54.7-3.2 81.7-2.6 29.3 1 58.9-3 88.1 0 27.6.2 55.3-2.4 82.9.8 9.1-1.6 27.6 2.6 29.6 15-20.3 28.9-41.6 43.7-62m-715 165c2.5 18.8 0 38.4 3.5 57.2-.6 19.3 1.4 38.5 1.9 57.7.4 18.1 2.8 36.1 2.3 54.3 3 17.7.8 36 3.2 53.8-1 9.6 2.8 16.6 9.5 6 11.4-12 23.5-23.3 34.5-35.6 2-27-2.4-54-1.7-81 .6-17.3-2.8-34.1-2-51.4 1.2-22.8-2.8-45.4-2-68.2-.2-12.2.7-24.4-2.6-36.3a555 555 0 0 0-46.6 43.5m-79-429.4c21.3 2.1 42.4 4.5 63.7 6.2 23.7 2.2 47.4 4.8 71.2 6.5 22.1 3.5 44.5 3.8 66.5 7.2 26.3 1.7 52.5 5.5 79 7 17.6 2.4 35.5 3.2 53.3 5.7 17 .7 33.6 3.5 50.5 4.3 14.3 2.3 29 2.1 43.3 4.6 27 2 53.7 5 80.6 7.7 19.1 1.2 37.8 4.3 56.8 5.2 14 2.4-10.7 16.1-14.6 23.2-19.8 19.7-39 40.2-58.3 60.4-3.2 10.8 18.4 9.5 20-1.4 26.5-26.8 54-52.9 80-80-20.6-7.2-46.8-5-69.3-9.2-25.2-1.5-50.2-5.4-75.3-7a804 804 0 0 0-64.3-6.2c-38.1-4.3-76.3-7.7-114.4-11.7-28.2-2.4-56.3-6.3-84.6-7.9-22.8-3.3-46-5-69-7.3-29.9-2-59.3-7.4-89.3-8.6-7.2-3.8 6.8-8 9.8-11.6l70.3-48.6c18.4-.4 37 1 55-2 8 .6 16.1-1.2 23.7 1.1-6.4 6.9-12.9 12.1.7 11.1q27 3.2 54.3 4.3 21.2 2.4 42.6 3.7c15.2 2 31 2.9 46.4 3.9 18.8.2 39.2 8.4 56.5-.6l15.2-13c31.8 3.8 63.9 5.5 95.7 9.4 18.8.9 37.8 3.5 56.5 5 17.5 2 35.2 2.1 52.6 5.2 16.8 1 33.4 3.3 50.3 4 22.2 3.5 44.5 3 66.8 6.5 19.2 3.6 39.6.3 58.1 7.2L1733 731l-61.7-6.7c-6 7-32.1 25.6-7 24.9 15.3 1.5 31.4 2.2 46.4 5.7-9.8 16-24.8 27.8-35.6 43-10.5 23.2-35.8 9.2-55 9.8-14.3 3.7 12.5 6.6 18 5.4 16.5.3 39.3 12.2 48.5-7 15-18 31-35 45.3-53.5-6.2-4.9-15.4-3-23-4.6-9.3-2.3-20.9.5-28-2.3-17.4.5-1.2-8.2 0-13.1-10.3-3.4 2-3.5 6.6-4.7 18 5 37 4.8 55.6 7.4 9.8 1.1 12.7-10 18.5-15.7 10.4-13 21.4-25.6 31.3-38.9-1.6-5.4-11.2-2-16.3-3.6-17.5-2.2-35.1-3.4-52.6-5.3-19.5-2-39.3-2.8-58.5-5.8-17.5-.5-34.7-2.9-52.1-4.3l-87.3-8.3c-22.9-2-46-4.8-69-6.1-18.3-3-37-2.7-55.3-5.7-5.6.1-11.9-1.8-17.1-.5l-20.7 17.4c-33.8-2.5-67.6-4.8-101.3-8.7-17.4-2-34.8-3.2-52.3-4.5-8.9-.5-32.6-2-15.7-10.5 19.8-10.2-10.2-7.5-19.1-5.4-18.6.7-37.3-.2-55.7 2.3-10.6 1.5-22.8-2.8-32.3 2.2zm447 197.6c3.9-23.7 3-48 2.6-72-15.2-12.8-43.7-7.5-64-11-15-.8-46.4-13.6-39.2 12.8-3.5 7.6 3.9 17.4 3.7 20-8.3 7 1.3 24-1.8 34.9 0 9.5 12.3 4.9 18.7 7 23.7 2.3 47.2 6.2 71 7.2 3 .4 6 2 9 1.1m-258.5 304c34.6 4.6 69.3 8.3 103.8 13 24.6 2.5 49 6.3 73.6 9 8.8 2.6 12-6.9 17.2-11.7 36.7-44 73-88.4 109.9-132.2 24.5-30.6 50.5-60 74.9-90.7 7.4-7-19.4-5.4-19.3-2.1-32.6 36.9-63.9 75-96.5 111.8-31 37.5-63.6 73.7-94.7 111.2-5 6-13.8.7-20.7 1l-97.2-12.1c-15.3-2-30.9-5.2-46.1-4.5zM939.3 986.2c29.1 4.2 58.3 7.3 87.6 10.3 23.6 3.3 47.4 4.8 71 8.3 21.5 1.7 42.8 5.5 64.3 7 27 4.1 54.2 5.6 81.1 9.4 28 2 55.8 7.2 83.8 9.4 10.4-6.7-4.8-14.1-13-13-33-4.9-66.4-7.1-99.5-12.4-33.1-4.6-66.5-7.3-99.6-12.2-21.6-2.2-43.1-5.3-64.7-7.7q-54.3-6.5-108.5-13.7c-6.9.7-4.1 10.6-2.5 14.6m80.5 490.3c17.5-15.8 31.8-35 48.1-52 13.5-15 27.1-29.7 39.6-45.4-3-3.6-11.9-2.2-17.2-3.8-22.7-3.5-45.5-6.3-68.2-9.8-12.5 2-4.9 24.7-5.3 35.7 2.3 17.4-1.1 35.4 2.4 52.7.4 7.5 0 15.1.6 22.6m414.9 81.4c-39.7-7.2-79.7-13.2-119.4-20-85.2-13.3-170.2-27.5-255.4-41.1-82.3-14-164.8-26.6-247.2-40.3q-70.6-11.9-141.4-23c-47-7-93.8-15.7-140.8-22.9-13.9-3-28-4.5-42-6.8-7.8 7.7 16 7 21.9 9.1l139.8 22.3a9384 9384 0 0 0 132.5 21.4c60.8 10.4 121.8 19.6 182.6 29.7q93.6 15.4 187.2 30l205.3 33.3c25.3 3 50 9.4 75.4 11.6zM1335.9 828c-24-.6-47.6-5.8-71.6-6.5-23.4-3.7-47.3-3.9-70.7-8-18.6-1.5-37-4.3-55.7-5.2-23.4-2.7-46.8-5.7-70.4-7.2-26.4-2.5-55.8-9-79.8-4-2.8 15.2 21 7.6 30 11.9 19.7 1.2 39.2 3.8 58.8 5.3q23.8 2.7 47.5 4.8c21.7 2.5 43.5 5.2 65.4 6.5 20.3 3.3 41.3 3.6 61.7 6.7 22 2.5 44.3 4.3 66.3 6.7 10.8 1 25.3 5.6 18.5-11m61.9-172c21.5 5.3 43.8 5.5 66 7.5q32.3 3.8 64.8 6.5c25 1.4 49.6 5 74.4 6.8q29.4 3.3 59 5.7c31 2.5 62.3 5.8 93.3 8.7 11.3 4 23.2-22.4-4-11.5-46.7-3.7-93.2-8.8-140-12.3-14.4-1.6-28.7-3.8-43.1-4-18-3-36.1-3-54.2-5.5-30.5-2.7-61.3-4.6-91.8-8.3-7.8 2-27.9-9-24.4 6.4m-17.4 116.4c-11.2 9-30.6 21.1-34.7 32.3l99 10c10.2-9.4 26.6-21 30.5-32.2zm73.8 123.2 26.6-25.8v-80c-2-7.5-9 6.2-13.4 8.6l-17.6 17.7c-1.3 21.7.8 43.6-2.4 65 .2 8-2.3 13 6.8 14.5m284.2 136.7c1.2-19.8-.8-39.8 2.3-59.4.7-22.6-1-45.4 1.4-68 1.5-14.2.3-28.8.8-43.3q-.7-19.6 1.9-38.8c.3-25.6-1-51.2 2-76.6 2.5-10.9-8.9-8.1-15.6-9.5l-42.8-4.3c-5.2 11.9 7.3 11.2 15 11.9l32.9 3.8c12.7-10.4-1.5 15.8 2.8 21.5a361 361 0 0 1-1.9 44.4c-.2 25.7.5 51.5-2 77.1-.3 25.3.5 50.6-2 75.8-.5 20 .9 40-1.5 59.8l.6 6zm-1000.1-49c27.9 6.6 57 7 85.2 11.7q39.5 5.5 79 9.9c12.3-5.6.9-19-9.8-16-29.4-4-59-6.5-88.3-10.8-21.5-2.4-43-5.5-64.5-7-4.5 1.1-.9 8.6-1.6 12.3M1372 675c5.4-14-12.5-10.7-21-12-15.7-1-31.1-3.4-46.9-3.6q-22.5-3-45.1-3.7c-15-1.8-30-3.6-45.1-4q-20.9-2.3-41.6-3.6c-14.4 2.9 12.2 34.4 20.5 11.4 36.6 3.9 73 6 109.6 9.6 23.2 1.6 46.5 4.7 69.6 5.9M732.4 970.1q-19.1 1.5-38 3.3-23 1.6-45.7 4c-19 1.1-37.8 3.1-56.8 4.7-7 10 2.8 16.2 12.4 13 11.8-.1 23.2-3 35-2.5 16-2.8 32.6-2.2 48.6-4.7 14.7-2.9 35.6 1.1 45.5-7.6q.6-5.2-1-10.2m604-150c-24.8-1-49.2-6-74-7.1-28-4.2-56.4-5.6-84.4-9.6-27.3-2-54.4-5.9-81.6-8.3-28-3.4-56-5.7-83.9-9.3-7.7-4.8-27.6 4.7-10.2 5.2 24.7 2.2 49.2 6.2 74 7.8 21.7 2.4 43.4 4.3 65.2 7 21.7 1.3 43 4.6 64.7 6.7 25.5 1.7 50.9 5.6 76.4 7.3 15.7 2.8 32 2.3 47.6 5.4 4 0 7.2-.3 6.2-5m-353.6-27.6c-28.1-.7-56 4.5-84 6.4-11.5 5.6-34.3-4.2-37.2 10.3 6.4 12.8 29 2.3 42.5 2.5 16-.5 31.6-2.4 47.3-3.6 11.7-3.5 38.2 5.3 31.4-15.6M1447.4 902l-113.2 113.5c-3.8 22.8 16.2-6.7 23.5-12.2 30-31.4 61-62 91-93.4-.2-2.7 1-5.7-1.3-7.9m-920.2 167.4c-13.3-3-46.4-16.3-43.2 5.7 2 21.3 29.8 14.6 44.9 17 1.6-7.4-1.3-15.4-1.7-22.7m70.9 8.3c-13.6-1.7-27.1-4.5-40.6-5.5-3.5 8.7-1.7 23.6 9.2 26.4 12 1.1 24 4.6 36.2 3.7-1.6-8.2-1-17.1-4.8-24.6m-13.7-93.2c-20.8 11.4-40 25.8-60.4 38-5.9 4.6-34 17.2-13.4 16.8 6.4 2 11.7-.3 16.5-4.5l51.4-34.3c8-1.4 8-10.8 5.9-16m443.8 173.8c10.8-.8 29.5 10.5 35-.2 1.5-15.6-6.8-24.3-22.8-23-17.4-8.7-27.5 7.5-16 20.5zm478.2 72c-20.5-11-29 15.2-40 27.7-5.5 6.9-2 16.5-3 24.7 5.9 5.4 14-15.1 19.7-20.6 8-10.4 16.5-21 23.3-31.8m83.2-472.8a2225 2225 0 0 0-89.7 89c-2.4 12.5 5 4.6 10-.9 27.1-27.6 54.3-55.2 80.8-83.4zm-488.8-117c-24.3 15.8-47.8 33-71.6 49.4-5.9 7 16.2 2.6 18.9-3.5 17.7-12 35.7-23.4 52.7-36.3zm71.4-3.8c-15 .2-30.1 1.6-45.3 1.1-8.1.4-27.3-2.9-19.5 10.4 17.4 2 39.3 2.6 54.5-4.2 3.4-2.4 8.3-3.8 10.3-7.3m276 687.2c.7-11.5 2.8-36.2-2-39-4.1 11.6-23 27.4-18.8 36zm255.3-567.5c-17.3 0-40.2-8.4-54-2.9 2.3 15.6 28.5 6.9 40.8 11.9 6.5 1.2 12.6-2.7 13.2-9m-725.2 672c4.3 10.9-5.6 37.3 8.3 38.8 15-4.5 3.8-25.5 3.7-37.4a15 15 0 0 0-12-1.5m-95.2 24c19-2.1 11.2-29.5 6.2-39.1-17-11-5.6 32.3-6.2 39m50.8-32.5c-.1 10.8 2.4 21.4 1.7 32.3 1.1 20.3 21.4-1.5 11.8-13.1.9-11 1-20.3-13.5-19.2m-231.1-3c-1-10.8 4.8-36-10.5-35.3-5.2 9.5-3.2 32.7 2.2 39.5zm132.6 29.2c18-4.3 6.4-27.1 5.7-39.7-17.5-7.6-4.8 21.4-7.4 31.3.7 2.7-1 6.4 1.7 8.4m-50.3-49.2c1.5 12-3.7 35.3 6.4 40.3 11.5-6.5 2.6-23.2 3.5-34 1-8.2-4.8-5-9.9-6.3M644.5 1375c3.7 12-4.7 33.3 7.6 38.9 9.2-8.4 4.7-30-.5-38.8h-7.1M821.1 827c9.4 5.9 19-.2 26.6-6 8-1 14.5-16.7 5.4-15.5zm-247.5 540c-16.7-15.3-6.1 19.7-7.8 28.9-.8 15.7 12 2 7.8-7zm-42.6 28.8c8-1.9 6.7-10.5 6.3-17-2.3-7.5 1.2-26.6-11-21.4 3.7 12.5-1.7 26.7 4.7 38.3m83.4 9c-1.3-11.7 1-24.4-4.4-35.2-13.2-.6-1.9 24.7-4 34.8-.2 7 5.4 1.5 8.4.5m737 67.4c4.4-6.6 0-22 1.6-31.5 1-13.5-3.4-27.1-.4-40.2 3.7-5 19.7-14.5 2.9-14.8-13 5.4-3 30-6 43.3 1.2 14.4 2.3 28.7 1.9 43.2m-418.8-498c-12.2 1.4-29.8 24.5-16.4 26.3 8.3-7 20-14 16.4-26.3m573.6 251.3c2.8-11.2-1-40.6-14-1.2zm-90.9 106.5c9.1 6.7 26.5-1.7 11.6-8.4-6.9-1.8-8.1 4.4-11.6 8.4M1212 628.3c-4.6 3.1-22.3 11.7-12.5 12.9 10.1 1.5 17.2-.8 12.6-13m284.8 229.5-3-11.8c-14.7-7.8-10 19.2 3 11.8m-948 241.7c9.4-6.6-6.9-42.1-3.7-17.6 1.7 5.9-.4 12.3 3.7 17.6m-78.4-37.2c1.3 9 1.8 20.9 6.4 28 .7-6.1 3.2-30-6.4-28m542 98c6.4-5 1.6-34.7-4.3-26.2zM554 1104.1c12.8 1.7 41.6 9.5 45.7 4.4-15-2.7-30.5-5.2-45.7-4.4m-72.1-10.5c15.3 5 31.7 4.8 47.6 7.1-14.2-5.3-29.9-6-44.9-7.2zm537.8 71c14 1 27.7 5 41.7 5.5a99 99 0 0 0-41.7-5.4m372.5-512.2c-4.6 4.2-11 7.5-14.4 12.3-2.8 10.5 4.4 2.2 8.7-.9 3.7-2.3 5.6-7.3 5.7-11.4m-602.5 1032c16.5 11.6 31.6 25.6 49.2 35.8a97 97 0 0 0 64.2 18.3c24.7 0 49.8-1.8 73.6 6.7 19 2.1 38.4 1.2 57.6.8 25.8-4.2 52.3-9.3 78.2-2 16.5.7 32.8 3.7 49.4 2.2q35.9 1.3 71.2 7.4a199 199 0 0 0 72.2 10.8c35.2-1.4 70.7 4 103 18.4q31.6 12.6 65 19.5c14.5 1.5 33.4 8.8 37.7-10.6l39.2-70.8c-8-8.4-24-5.4-35.4-9q-76.8-12.6-153.5-26.3c-19.2-2.6-38.2-6.7-57.4-9-16 13.4-24.5 34.3-37.5 50.6-5 5.7-14.1 23.6-17.5 21 7.9-17.6 21.8-31.7 31.5-48.4l16-22.8c-7.5-6-18.3-4.7-27.4-7-14.4-1.8-28.7-5.4-43.1-6.6-17.6 23.3-32.8 48.3-50.2 71.7-7.2-2 10.1-18.1 13.3-25.3 10.3-15.8 21.6-31 31.8-46.8-17.4-5.7-36.1-6.8-54-10.5q-31.2-5.4-62.6-10.3a86 86 0 0 1-32.4 46.1c6.1 13.7-3.3 39.8-20.4 25.1-6.8-6.7-3-37-13.5-17.2-9.7 9.4-2-5.4 1-9.8-21.3-10.3-37.8-32.4-35.7-56.9-2.9-9.2-30.2-13.5-22.4 3.3a51 51 0 0 1-30.7 43.2c4 12.5 1.6 41.9-17.6 28.8-7.6-6.3-5.7-17.2-8.3-26-17.3-6.7-34.1-19.5-39.1-38.1-5.7-9.8-15 14.7-25.3 16-16.6 2.6-1.1 22.2-11 30.6-6.5 6.6-19.8 2.8-21.2-6.1l-3-21.2c-19.1-8.5-35-25.6-37.3-47-2.2-7.5 1-15 1.9-22.3a64 64 0 0 0-32.3-6.8l17.3 15.2c4.3 19.2 10.5 40.6-.7 58.8-4.5 16.4-23 21.3-33.1 14.8-1.8 14.7-6.3-10.3-17.3-4.9-21.5.3-38-14.9-57-22.4-5 .2-6.9 11.4-9.3-1.4-24.8-7.8-58.3 1.3-83.7-14-23.6-3.4-48.3-1.3-71-9.8-32.4-33.3-80.7-22.1-119.5-40.9-16.9-6.5-36.8-18.1-31-39.5.9-8.8 2.5-19-7.5-8.5-9.8 4.9-16.9 20.8-28.8 17-7.6-1.7-18.2-5.9-16 7-6.1 15.6-25.5 6.4-24.8-7.1.3-9-9.6-9.3-16.3-10.3-20.3-3.5-40.8-6.5-61-10.7-12.6 3.6 6.3 31.2-15.3 29.7-7.3.3-12.9-6.4-13.2-13.4q-1.2-15.6-16.8-19.7c-12.3-4.6-34.4-14.7-43.1-7.2 5 10.9-3 26.7-15.6 22-11.4-3.7-10-17-13.7-26.2a69 69 0 0 1-39-27c-9.1-16.4-9.7-38.3 3.8-52.5 7-12.6 26.4-11.3 30-24.9 3-6.3 3.5-14.4 10.7-17.6 13.6-9.2 25-22.3 42-25.1 20.9-25.8 56.6-30.2 86-42.1 30.8-9.6 65.5-13.8 95.4 1l4.2 18c-12.4 17-32.3 25.7-47 40.3-3 4.5-24.5 12.7-10.3 14.6 58.7 9.5 117.3 19.8 176.1 29 17.6 5.5 35.8 6.3 48.7-8.8 11.7.4-24.6 16.6-4.2 16.5q73.1 11.3 146 24c10.8 8.1 25.8-20.3 28.3-11-5.8 5.7-21.6 15-3 15.3 49 7.1 97.5 17 146.6 23.8 6.6-6.9 22.2-18.6 10-4.4-8.2 6.9 6.5 7.1 11.6 8.2q58.1 9.7 116.2 19c7-5.7 12.2-14.1 20.8-17.4-5.9 8-22.2 21.2-3.7 20.3q98.5 16 196.8 32.7c4.5-5.7 19.4-23.3 11.3-7-10.4 8.6 3 9.7 10.1 10.6l109.2 17.9c12.1 10.4 18.6-19.8 23.6-11.5-6.7 7.8-9.9 17.2 4.3 16.2q28.8 4.5 57.5 9.4c4.6-4 17.1-20.3 9.7-5.2-7.6 9.3 9.7 7.6 15.8 9.6 68.7 11.5 137.7 21.9 206.3 34 12.8 6.6 17.6-5.4 22.3-14.6q24.5-45 50-89.6c-15-5.8-31.3-5.7-46.9-8.8-10-1.4-20-3.1-30.1-3.5-2.7-11.4 1.3-24.7 0-37.2 0-6-1-12.2 3.6-16.8l68-107.4c16.2-3.2 33.2 2.8 49.8 4.4q22.4 3.5 44.7 7.5c17-26.9 31.8-55.3 47.5-83 7.6-14.7 16.7-28.6 23.4-43.6 7.1-10.9 28.4 1 41.4.1 32.7 5.3 65.7 8.1 98.4 13.2 32 4 63.8 8.5 95.7 12.3 31.8 4.8 63.9 7.8 95.8 12.4 8.9-.7 28.9 8.2 31.2 1.6-24.1-7.5-49.8-7-74.5-12-10.5 1.7-16.1-1.6-25.8-3.1l-80.3-10.8c-15 1.2-29.7-4.3-44.8-5.6-20.4-3.4-41.2-4.6-61.6-7.9 2.7-15.7 9.2-30.6 13.6-46 11-13 11.3-30.4 14.3-46.8 3.7-16 .9-35 13-47.7l3.5-27.3c-10.6-5.5-32-.8-36.6-8.3 8-1.5 16.4 1.6 24.6 2.3 5.8-16.5 9-38.3 22.2-49.3 8.6-4.1 24 9.2 21-6.8-1.4-21.5-2.1-43 2-64.2 2.4-31.8 22.6-56.5 37.4-83 19.4-37.7 39-76 67.5-107.7l22.2-17c9.4.8 18-5 27.2-7 9-2.5 17.6-7.4 27.2-6.1 27.2-5.7 55-7.3 82.8-7.7 20.8 3.6 42 .3 62.9 3.8 17 0 34.1 3.2 51 2.7 7.1 0 15 2.8 22.7 3 37.1 3.7 73.7 12.4 110.2 19 25.5 6 51.5 9.7 76 18.9 28.2 11.9 62.1 18.2 82.4 43.4 8.7 8.8 7.4 21.8 11 34 2 17.3 1.9 35-.5 52.1.8 27.2-9.3 53.2-10.8 80.1a111 111 0 0 0-21.4 40c-1.4 3.3-9 8.5-10.8 15.1l-20 36c1.3 7-12.1 11.9-12.2 21.3 26.8 3.1 53.5 7 80.5 8.7 8.2 1 20.7 2.8 9 7.5-3.8 46.7-12.3 92.7-16.6 139.3-4 30.5-6.8 61.2-11 91.7-8.8 11.1 5.1 8.6 12.2 10.2l68.2 8.8c4-10.5 14.6 3.7 6.6 7.9-3.6 18-1.3 36.7-2 55-.1 15.3.5 30.6-1.7 45.8-1 27 .8 54.2-1.2 81.1-2.8 32.5.9 65.5-3 98-.4 30.2.9 60.5-2 90.7-.4 29.3 1 58.6-2 87.8-.4 26 .6 52-1 78-2 17.9-.6 36.2-1.1 54.4q.4 22.6-1.7 45v40.4c8.9 2.3 14 6.9.4 5.5-1.4 14.4-.2 28.9-2.3 43.2 2.3 8.2-4.4 24.9-4.5 6.8 2.3-16.6 1.7-33.4 1.8-50.1-11.6-5.8-25.2-5.5-37.7-8.4-52.9-9.2-105.4-20-158.4-28.5-2.2 12.7-7.4 33.6-25.1 25.6-9.1-4.3-8.5-13.7-8.1-22.1 3.8-11.9-9.3-11.6-17.9-13.2l-84.7-15c-2.9 9.6 1.4 25.2-11 29-5 3.2-11.9 1-15.9-2.6-5.1-4.2-4.5-10.4-4.3-16.4-.7-7.4 3.7-19-8.4-17-28.2-5.2-56.5-10.8-84.8-14.8-5.5 4.2-1 18.6-12.7 19.8-10.6 4-20.7-6.6-18.7-17 2-16-21.6-10.4-31.2-14.9-28.3-4.1-56.3-10.8-84.7-14.3-4.3 9.5 2.7 22.2-7.6 28.6-3.2 5.1-11 3-15.7 2.4-12.9-7.6-6.8-23.3-7-35.5-11-5.7-24.2-5.4-36.3-8.3l-48.8-8.6c-12.8 1.7.8 30.5-19.6 29.2-11-.7-16.5-11.2-14.7-21.1 1-8.5-.4-17.7-11.6-16.4l-65-11.5c-2 9.5.1 20.4-9.5 26.3a16 16 0 0 1-21.5-10.5c1.5-14-.3-26.3-17.3-24.6-24.9-3.9-49.5-9.9-74.6-12.6v19.5c-9.6 21-35.8 3-28.6-15.5 2-12.3-9.8-11.2-17.9-13.1-66.3-11.4-132.4-24.8-199-35.3a448 448 0 0 1-96.4-21.8c-29.3-11.6-59.6-23.3-91.8-21-22.5-2-45.3-.1-67.4-5.3-22.1-5.8-44.2-12.4-67.3-12.4-25.9-4.5-52.4 0-78.3-4.7-17-2-34.3-5.3-51.4-1.3a318 318 0 0 1-46.1 4.4c-19 .1-38.7 0-57-6.3-36.9-7.3-76.9 7.9-110.7-14.4a295 295 0 0 1-58.2-43.7ZM2478.5 1241c21.3 10 17.1-22.7 15.5-33-9.8-3-7 11.4-11.2 17.7 3.5 6.3-5.1 23.1-6.3 8.8 4.7-14.9-6.4-25.8-21-20-.5 11.3-7.4 28.2 10.6 26q6.2.7 12.4.5M146 1353c4.8 3.5 9 8.8 14.2 11.3h28.4c-5.3-12-14.6-26.9-28.7-18-7.7 2.2-23.6 6.6-17.4 16.4 3 3.4 16.8 2 6.2-4l-2-2.7zm1980.8 213.8a99 99 0 0 1-40.3-44.6c1 23.6 24.6 38.5 44 47.3a203 203 0 0 0 95.4 18.4c23-2.3 47.3-6.8 64.4-23.6-1.9-1.5 8.5-7.4 4.6-10.5a82 82 0 0 1-42.9 26c-40.2 9.7-82.9 3.3-120.9-12l-2.1-.5zM1901 1720.7c-13.3-9.9-19.2 2.1-23 13-.8 5-9 13.6-3.6 16 5-1.1 5.1-10 8.2-14.2 3.6-6.6 4.6-18.1 15.4-14.8 22.3 4.9 46 7.4 68.7 11.6a45274 45274 0 0 1 198.5 32.6c40.2 6.3 80.3 13.4 120.5 19.5 31 4.8 62 10 93.2 14.7 11.9 2 4.5 13 3.4 20.3-3.5 6.4-3.8 27.5 1.5 10.3.5-12.9 17.1-36.8-7.3-35.2l-96.5-15.3c-36-4.2-71.5-12.3-107.5-16.4-52.6-9-105.4-16.8-158.1-25.4-36.7-5.4-73.1-12.7-110-16.8zm-1419.2-120c12.1 11.5 26.5 22.4 44 22 16.4 6.9 29.6-1.1 23.6-19.3 1.5-14.2-4.9-23.8-19-24.8-8.8-2.7-18.3-3.7-26.6-7.8 38.8 3.7 73.7 23 112 29 25.9 5.8 52.7 9.7 75.8 23.6 27 4 55.6-7.8 77.1-23.6-7.4-6-13.5-15-24.2-14.7-18.1-1.2-35.9-5.7-54-5.8-26.9 4.3-53.4-1.8-80-5.8-23.9-4-47.9-7.8-71.2-14.8-34.6-8-70.7-12.2-103.6-26.7-14.2-3.2-20.2-21-36-19-14.4-.4-36.5 4.4-41.7 17.1 14 .4 28.7 5 41.9 3.7 4.5 5 12.6 5.4 18.6 8.6a282 282 0 0 0 63.3 18.8c4 5 32.4 9.6 14.4 9-24-11.2-7 19.5-14.4 30.6-5.6-14 5.7-39.9-18-39.6-21.8-5.2-41.7-15.7-63.3-21.1q1.7 16.1 1.5 32.7c-2.6 17.8 21.3 14.5 33.3 17 16.1.7 32 4 46.5 11M2520.5 1333c-14.8-5.4-31.1-3.8-46.4-7.5-8-2.3-33.4-3-13.3.5 11 4.5 1.5 20.2 1.4 30-1.5 12.1-6.6 24.1-4.4 36.4 4.6-21.5 7.8-43.3 13.6-64.5 33.2 2.7 65.5 8.6 98.4 13 21.3 2.5 42.9 4.9 63.8 9.2 7.2 10.6.2 26.3.6 39-2.1 39.5-8 78.7-9.9 118.2-3.5 16.7-1.8 34-5.3 50.7-1 23.6-1.4 47.3-5.8 70.6-.4 14.1-2.7 28-2.9 42.2-3 15.7-2.2 31.9-4.8 47.6-1.4 30.5-5.2 60.8-7.3 91.2-2.8 16.1-2.6 32.6-4.8 48.8-1.4 30.7-5.7 61-7.5 91.7 3.3 19.2-34.3-3.6-27.8 10.8 30 6.8 60.7 10.7 90.8 17.1 10.4 4.1 9.7-7.2 10-13.9 1.8-15.5 1.2-31 3.2-46.4 0-19.3 2.4-38.5 2.7-57.7 2.6-16.8.5-34 3.5-50.7-.2-19.3 2.7-38.5 2.6-57.8 3-15-.2-30.3 3.2-45.2-.9-18.3 3.2-36.1 2.2-54.3 2.4-16.6 1.3-33.4 3.9-50-.3-19.1 2-38.2 2.6-57.4 2.3-18.8 1.4-38 3.5-56.9.3-16.1 2.8-32.1 2.4-48.3 3.7-26 1.5-52.6 5.6-78.6-8.7-13.5-33.7-6.4-48.6-12.2-38.2-5.6-76.5-9.6-114.7-15.2q-5.2-.5-10.5-.4m-2396.6 98c-3.2-11.6 5.6-25.5 1-35-4.3-4.1-13-12.9-14.4-2.2-2.7 7.6-6.4 15-8.3 22.9 7.3 4.5 14 10.8 21.8 14.2 3.3 8.5 10.8 21.9 19.2 8.8 29.2-21.3 71.8 3.3 76.4 37 3.7 12.3-10.7 32.3 10.5 30.5 14.5 2.1-4.4-21 2-30.3 7-12.3-2.2-16.6-7.8-25.3-4-11.5-19.2-22-14.7-34.6 2.2-6.8 5.4-13 11.5-17 13.3-14 30.6-22.8 44.4-36.2-8.4-4.4-28.2-3.4-41.2-1-18 3.4-35.8 8.9-54.3 4-19.6-1.1-36.7-.5-54.4 6.1-14.3 10.5-37.1 19.9-38.6 40.6 13 3.5 25.6 4.3 26.5-12.1 5-9.7 10.2-31.6 17.8-12.5 18 21 45.5-.9 67.8-2.6 15.5 1 30.6-5 45.7-6.1-24.2 12.6-55.6 3.7-80.1 18.8-3.4 6.8 3.5 28.7-4.2 26.2-1.5-8.4.5-17.2-2-25.4-9.8 1.5-21.9-2-19.6 11.6-1.3 6.6-.3 14.2-5 19.5m1669 46.4c-50.9 101.7-100.4 204-151 305.9 7 11 30.4 8 44.2 12a59 59 0 0 1 36.8-60.2c30-13.2 65.9 10.4 73 41 7.6 12.5-2.6 30.8 3.8 39.6 19.8 3.8 5.8-25.8 18.4-35.6 6.7-22.4 36.1-21.8 48.9-34.3l12.6-28.2c-13.6-8.2 5-5.8 11.5-4 42 7.1 84 13.4 126.1 19.9 58.3 9.4 116.7 18.2 175 28 35.9 6.2 72.2 10 108 17 32.3 4.5 64.4 11 96.8 14.2.8 15.6-16.7 38-3.9 48.8 25.9 9 39.5 37.8 39.2 63.9-3.2 11.3-8.7 26.7 9.6 23.7 7.7-.1 3.1-12.6 4.4-18.8 1.9-39.1 50.9-67.2 85.5-48.2 24 10.9 37.7 38.9 35.7 64.5-4.7 14.7-9 29 11.6 27.1 5.2-17 3.4-35.3 6.3-52.8 1.2-22.8 4.1-45.6 5.2-68.5q4.2-35.6 6.2-71.4c2.5-14.2 2-28.7 4.1-43q4.3-46.5 7.9-92.8c1.2-9.3 6.7-28.6-8-27l-296.8-45c-7 9.3-14.7 21.5-27.3 26.2-31 14.7-66.8 13-100.1 9-31-6.8-64-17.3-85.1-42.4-9.9-12.2-8.5-32.4-29-29.5-27.3-4.1-54.5-7.7-81.7-11.8-46-7.2-92-13.3-137.9-21.5-16.7-.9-33.2-6.4-50-5.8m4.3-9.5c38.7 7.2 77.8 12 116.7 18 54.5 8.8 109.3 16 163.8 24.5 20-21 49.8-37 81.3-36.8 45.3-2 93.9 9 128.6 39.7 12.7 10.7 11 35 31.3 32.7q59.2 8.6 118.5 17.7c41.3 6.3 82.6 12.1 123.8 18.8 17 1.9 33.7 5.9 50.7 6.3 2-26.5 5.6-52.8 6.8-79.3 3.1-16.7 2.3-33.8 5.3-50.5 1-22.5 3.3-45 4.7-67.5-.1-11.8 7.9-30.7-.6-38.3-24-3.8-48.2-6.6-72.3-10.2-24.7-1.7-48.8-7.7-73.4-10.3-13.7-.1-9.1 18.2-13.2 27.7-2.4 14.4-7.4 28.6-7.9 43.3l23 3.8c-1.2 7-14.3.8-20.7 1.2l-131.2-18c-41.4-6-82.7-12.1-124.3-17-47.5-7-95.2-12.6-142.7-19.8-11.2-1.1-22.4-4.4-33.7-1.6-.8-15.3 15.4-39 21-57.6 7.5-12.3 9.7-23.8-8.4-22-29.6-3.5-59-9-88.7-11.8-17-2.1-34-5.8-51.1-7.3-6.5 5.6-8.8 15.3-13.3 22.8-29 57.8-56.7 116.4-86 174.2zm-221.6 217.4c-5.2 9.4-17 22.4-15.3 31.4-1 2.2-9.5 7.6-10.8 14-13.4 24.5-27.9 48.5-40.9 73.3 1.2 6.6 11.7 4 17 6.2l189.8 33.4c-16.7-8-18.8-33.5-37-34.6-23.5-4.7-47-8-70.3-12.8-7.6-2-16-2-22.9-5.2 3.4-8.5 37.2 9.5 33-2.5-8.5.6-20.1-8.8-6-5.8 11.4 5.3 16-5.3 19.6-14.6l256.3-510c9.4-7.8-16.4-8.6-.7-11.1 21.4-4.7 42.5 3.7 64 5 37.9 4.6 75.8 10 113.6 15.1 27.7 4.1 55.7 6.3 83.2 11.2 13.2-3.2 33.4 10.7 42 0 1.6-12.1-16.7-7-24.4-10q-47.6-6.1-95.3-12.5c-29.8-4.4-59.8-7.1-89.5-12-47.1-5.1-94-12.8-141-18.4-17-.3-18.8 24.2-28.7 35.6l-49.7 89c1.3 17.4 3 35.7-.1 52.6l-65 115.2c-11.8-1.8-28.5-9-32.3 6.8-16.8 31.5-35.3 62-51.8 93.5-3.6 7.5-8.9 14.6-12.6 22.4-1.7 5.2-8.3 10.6-6.8 15.7 2.2 4-8.8 4.5-8.5 11.8-2 5.9-11.7 14.4-.3 16.2 4.5 2.2-7.8.6-8.6 1.1m1021.1-795.4c-17.9-6.7-36.2-14.3-54.6-20.2-36.9-10.8-73.8-22-111.7-28.7-26.2-5.2-52.8-8.7-79.1-12.9-16.8-.9-33.3-4-50-4.5-24-4.2-48.8 0-73-3.6-16.6.6-33.3 2.3-50.1 1.5-19.2.2-38 2.5-57 5.3-24.5 4-50.7 8.7-69.1 27-25.3 17.7-40.4 46.1-50.2 74.7a209 209 0 0 0 66.9 11.1c13 1.9 26.3 2.3 39.5 3.3 32.3 0 64.7.3 97 0 20.2-3.4 40.8-1.2 61.2-1.8 20.8.4 41.8-1.4 62.3 1.9 56.6 2.9 112 16.2 167 28.7 38.7 8.4 75 25.2 114.2 31.3 15-1.3 18.7-19.8 25.3-30.9 4.8-13.4 12.2-28.6 4.6-42.3a35 35 0 0 0-20.7-21.8c-1.9-8.5-26-18-7.1-12 14.8 10.6 8.3-20.8 12.4-29.5 3.4-28 5-56.2 3.4-84.3-12.1-8-30.8-21-43.3-17.2-5.7 33.6-11.7 67.4-23.7 99.4-5.3 9.9 8.1 9.5 13.8 13.3 7.2 4 17.1 5 22 12.2m130.5 452.2-78.6-10.2c-29.8-3.7-59.5-8.1-89.3-11.7-44.8-7-89.9-11.3-134.6-18-26.4-3.8-52.9-6.2-79.2-10.4-10.3 17.6 15.8 12.6 26 15.6 30 5.3 60.6 7.4 90.8 12.5 4.6-2.6 10-.7 13.9-.7 3.7 5.5 11.8 3 17.6 4.8l188.9 25.1c6-6.6 7.7 1 13.6 2.5 6.4 11.3-2.5 30.2 0 44.4.2 12.4-3 24.6-1.8 37.1-2 13-1.6 26.2-2.4 39.3-1.9 19-2.2 38.4-3.4 57.6-1.2 16.7-1.7 33.6-3.2 50.3-1.8 16 0 32.3-2.9 48.2.3 25.3-2.8 50.4-4 75.6 0 16.2-2.6 32.1-2.7 48.4-.9 16.7-.8 33.6-3.3 50.2.6 17.9-3 35.5-2.3 53.5-1.7 17-1.3 34-3.5 50.8.3 16.9-3 33.4-2.4 50.3-3.7 6.8 6.7 15-.6 16.8-5.8 5.4 14.8 13.4-5.3 9.9-34.4-7.4-69.2-12.6-103.8-19-12.2 6-27.6 14.6-39.4 19.6 1.3 7.2 15 5.4 21.7 7.6 56.4 9.4 112.5 19.9 168.7 30.1 11 1 5.2-14 6.7-21.4-.3-20.9 2.6-41.6 1.8-62.4.4-18.3-.8-36.8 2-54.9.4-33.1-.8-66.3 1.9-99.3.3-23.3-.1-46.8.6-70 2.6-20 1-40.4 1.6-60.6-.6-17 1.3-33.9 1.8-50.8.4-28.7-.6-57.4 2-85.9.4-28.6-.7-57.3 2-85.8.6-27.3-1-54.7 2-82l-.2-3.5zm-531.7-266.5c-2-14 12.1-30.5 7.2-41.1-19.9-3.2-40-4.7-60.1-7.2-18 .5-18.6 23.8-26.3 36-18.4-11 46.2-67-29.9-41.9-13-.4-25.6-4.3-38.7-3.6-11.7 10.2-11.6 27.1-19.8 39.2-10.8-3.3 3.8-26.8 7-36 6.3-8.6-9-4.8-14.1-6.8l-59.3-6.5c-11.1 13-16.4 29.7-22.9 44.6q50.6 7 101.3 12.4c33 4.1 66.4 7.7 99.5 12.2 28 2.7 55.9 6.4 83.8 9.5 36.4 4.6 72.8 9.3 109.3 13 41.3 6.4 83.2 9.2 124.5 15.6 30.7 4.7 61.8 4.5 92.4 10 35.4 4.7 71.2 7.4 106.6 12 11-12.2 5.3-35 9.3-51.4-27.7-3.8-55.7-5.4-83.4-9.4-8.1 11.5.5 40.6-13.2 44.2-1.3-13.5.5-27 3.8-40-13.6-13-41.2-7.6-60.5-12.2l-20.5-2c-8.7 11.6-1.4 38.8-13.5 43.5-5-13.1 6-32.7 2-43.9-22-4.6-44.7-4.6-66.9-8.4-10-1-25.4-7.2-23 13-7 5 1.2 26.4-10 27.7-6.1-13.9 7-32.9 4-43.9-24-3-48.2-6-72.4-7.7-8.1 12-7.6 27.7-15.5 39.4-8.5-6.6 2.5-28.3 5.3-40-27.7-4.9-55.8-6.4-83.7-10-9 7.8-9.1 21.1-14.6 31.2-1.8 3-2.5 11-7.8 8.5m420.4-68.8c-50.7-6.4-97-30.2-147.4-37.9-33.4-7-66.4-15.7-100.4-19.6-18.2-2-36.5-3.9-54.7-4.7-29.7-2.4-59.6-.6-89.3-1.1-22.2 4.6-45.3-.6-67.6 4.2-26.3-3.1-52.9-1-79-4.2-14.8-2.5-30-1-44.9-4-14.8.7-39-20.4-37.5 9.8 4.4 13 25.2 16.1 38 20.8 23.4 5.7 47.6 5.6 71.5 7 24.1 1.5 48-3.8 72-1.4q30.8-1.3 61.4 0c18 3.6 36.6-1 54.6 3.4 47.4 2 94 12.6 140.1 23 42.5 11 84.1 25.6 128 30.8 13.9 1 31.8 6.6 43.2-3.3zm-166.7 389.5c5.3-17.2 6.2-35.3 10.6-52.8 6-13.6-7-15-17.3-15.9-24-3.4-47.8-7.1-72-9.7-6 11.1-13.2 30.8 6.8 28.6 11 5.5-16.4 8.6-21.3 5.4-35.1-3.7-70-9.6-105.1-12.7-34.3-4.6-68.7-9.5-103.2-12.5-4.6-6.4 2.6-16.6 3.8-24.5 10.6-20.5-19-15.6-32-19.2-15.1-1.6-30.1-5.4-45.3-5.7-14.6 16.6-19.6 43.8-28 65.2 48.3 7.6 97.1 12.6 145.5 19.7 28.5 3 56.6 8.5 85.2 11.3q50 7.4 100.2 13.4c24 3.8 48 6.4 72 9.4m148.8-357.1c-19.1-3.5-39.8-.7-59-7-52.8-9-102.9-29.4-155.8-37.9a546 546 0 0 0-81.4-11.6c-14.6-1.2-28.8-4-43.6-3.2-18 .5-36.1-.8-54.1-2-39.7 3.7-79.6 1.2-119.4 2-26.3-3.6-54.2-2.7-78.2-15.8-10.7-8.9-15.5-2.6-14.3 8.4-6 15.7 15.8 13.5 25.5 18.1 28 8 56.7 16 86 14.8 15.8 2 31.4 3.7 47.3 4 14.8.1 29.7-.6 44.3 2 29.5.4 59.2-1 88.6 1.9 40.8.1 81 9 121 15.8 45.5 9 91.1 17 136.5 26 16 0 43.7 10.2 52.7-8.9zm-161.6-200.4a921 921 0 0 0 44.8-101.2c-.6-7.6-15.4-5.8-22.6-8.6q-48-10.4-96.8-15.4c-8.3 1.3-10.6 11-15.8 16.6-15.4 22.5-31.3 45-43 69.6-11.5 15-1.5 24.2 12.5 21.9a1260 1260 0 0 1 121 17m-63.8 998 7.3-30c-4-6.2-13.6-4.2-20.3-6.3q-45.8-6.9-91.5-15.3c-40.5-5.6-80.7-12.7-121-19.1l-184.7-30c-23.2-4.4-46.7-7.7-70-11.3l-10.9 25.6c9.4 6 21.5 9.2 28.4 19 12.6 7.3 11.4 50.1 26.2 22.5 15.6-16.3 41-23 61.7-12.5 19 12.1 4-14.1 13.6-20.2 9.9-12 27.4 0 40.8.6 34.4 6 68.6 12.7 103 18.3 20.8 5 42.3 7 62.8 12.3-1 3.8-4.7 10.6-4 16.8-3.8 14.5 16.5-5.4 24.1-1 32-2.7 57.6 26 61 56 2.5 14.2-3.8 27.6-7.3 41 7 .4 14.2 3.5 21 2.1a61.6 61.6 0 0 1 44.8-65.5 92 92 0 0 1 15-3m-146.8-1129c-23.6 27.4-45.6 56.8-58.3 91-2.7 11.5-2.2 34 20.7 19.6 20-2 40-1.5 60-.6 15 2.2 30.6 1.7 45.8.6 8.2-35 31.8-62.4 50.6-92 6.7-6.9 8-17.5-5.3-14.7-20.1.1-40.2-2.6-60-4-17.9 0-35.7-.4-53.5 0m354.5 52.7c-19.4-11.3-42.4-14.7-64-20.1-15-4.7-35.6-10-36.1 12.7-11.5 29.4-28.3 56.9-38.4 86.8 35.4 9.6 71.4 16.8 106.3 28.2 16.2-1.2 15.6-29.2 21.1-42.8 4.2-21.5 10.1-43 11.1-64.8M2516 1977.3c22.3-1 39.1-21 45.3-41 7.2-29-7.6-64.6-38.1-73-34.8-13-77.5 20-72.5 57.2 1.3 20.8 13 42.4 32.4 51.3 7.8-9.9 4.2 10.7 16 6.3 8.4 5.1 13.5-9.3 16.9-.8m-146.3-135.8c-26 2.6-51 24.7-51.7 51.8-.7 21.9 10 49.3 31.7 57.5 7-7.4 4.6 11.6 15.7 7.1 9.7 1.6 12.8-6.5 21.6-1.8 14.8-1 23-13.7 32-23.5 17-30.7 6.2-77.8-30.6-87.8-6.2-1.5-12.5-2.2-18.7-3.3m-93.2-18c-17.8-12.6-43.5-19-62.1-4.6-12.8 9.8-25.6 23.4-23.7 40.8a56.5 56.5 0 0 0 32 61.5c6.5-8.6 9.6 11.9 21.2 5 7.3-2 7-7 13-2.4 20.6-3.8 33.4-24.7 37-43.8 2.7-16.8-1-34.9-11.8-48.2zm-124.4 32.1c-1.6-13-3.3-27.1-14.2-35.9-10.6-23-46.4-27.6-66.2-13-18.6 11.8-31.4 35.9-24.6 57.8 2.7 16.7 14 35.8 30 40.9 8.1-9.9 3.8 10.2 15.1 6.6 11.3-.5 14.4-3.4 25.3-2.8 12.6-2.3 18.7-14.7 25.6-23 4.5-3.5-2.9-10.2 6.3-12.2zm-268.6 8.9c11.3-3.6 22.1-9 27.3-20.4 9.5-11.8 11-28.3 9.4-43a54 54 0 0 0-45-45.9c-29.3-5.1-58.6 21-60.3 50 1 23 12.4 46.7 34.6 56 6.6-8.2 9.2 12 21.1 5 8.8 1.6 4.8-12.6 12.9-1.7m-193.8-78c2.6 17 6.9 34.8 20.5 46.4 5.5 8.3 17.7 10.4 22.3 8.3 2.3 9.2 19.1 7.5 23.4 1 9.7 4.7 21.1-6 26.4-13.8a59 59 0 0 0 9.6-48.6 51.7 51.7 0 0 0-68.6-40.2c-18.7 7.8-30.5 27.7-33.6 47m335 26.2c-8-12.4-16.4-26.5-32-30.4-26.4-11.3-57.2 6.7-66 32.5a54 54 0 0 0 4.4 44.3c6.5 9.7 15.3 22.2 27.1 23.5 5.6-7.8 6.7 12 17.6 5.8 10.4-4.7 23.4 0 32.7-10.6 4.3-5.5 10-10.4 13.4-16.4-.1-6.2 7.5-9 4.5-15.8-1.1-11-2.3-22-1.7-33M1571 1683.8l-245.7-42c-4 10-27.2 27-13.6 32.6 69.5 11.5 138.8 23.9 208.3 35.5 11.5 1.1 23 6.3 34.5 3.4zm33.2-60.1c-35-6.7-70.2-12.4-105.3-18.2-44.8-6.3-89.1-15.7-134-21.6-4.3 10.8-19 21.3-18 31.5q120 20.3 239.8 40.3c6-10.6 12.5-21 17.5-32m616.2-916c-21.7-.6-43.1 3.2-64.4 6.6-14 6.8-21 22.5-31.8 33.4a320 320 0 0 0-38.4 63.2l-5 17.2c1.5 9.8 21.8-4 30.8-2.3 17.2-2.9 34.6-4.6 51.7-7.6-5-24 12.6-44.5 23-64.4 9.7-16.6 23.3-30.5 34.1-46.1M459.3 1433.8c-40-6.1-79.7-13-119.6-19.4-31.3-5.3-62.5-11.5-94-15.3-12 4.3-28.7 16-26.3 30 5 10.3 8.7 27.2 23.2 23.1 7.4-9.4 41.7-21.8.2-19.5-6 1-28.8-7-11.3-4.7l194.6 32.4zm1685.2-716c-39 3.2-67 29.7-85.1 61.4a644 644 0 0 0-45.5 83.1c-11 14-20 30.1-26 47-5.3 17.4-6.5 35.7-9.1 53.6 2.8 12.7-3.9 36.8 7.1 43.3 2.6-11 .5-32.4 3.3-47.5-1.4-9 5.4-17.3 7.4-26.3 10.8-35.2 30.9-68.6 62.6-88.6 18-4.7 18.5-21.6 24.4-36.4 14.4-33.4 37.4-62.1 60.8-89.7M1143 1548.1c-15.7-5.5-32.6-6.2-49-9.4-48.7-7.8-97.4-16.4-146.2-24.2-17.4-6.5-32.2 16.1-38.3 27.2 68.1 12.3 136.6 22.3 204.6 34.5 14.2 1.7 20.8-19 28.9-28.1m-288.8 106.3c18.2-5 29.2-25.3 27.4-43.5 1-24.4-19.3-47.8-44.2-48.1-30.9-2.8-55.7 34-42.3 61.7 5.2 12 17.3 30.3 31.3 27.7 5.4 5.1 17.9 4.3 24 .7zm71.5 15c7.3 12 21.4-.5 30.8-1.6 17.7-11 22.9-35.8 16.3-55a45 45 0 0 0-49.4-32c-22 2.4-35.6 23.8-37.3 44.3 2.2 20 14.7 41.1 35.2 46.6zM1072 1680c22.7-7.3 30.5-37.5 21.7-58-5.6-30-42.6-27-64.3-26.9-15 10-26.1 30.1-21.2 48 4.3 17.6 16.5 34.2 34.5 39.3 5.2-5 9 4.8 15.8 1.6 7.1 2.2 6-7.6 13.5-4m1025.8-168.1c24.3 6.8 50 8.1 74.8 12.5 15.4-3 28.9 1.8 43.2 6.3l74.1 10.7c.2-35.6-52.4-46.3-77.8-54.2-36.4-5.3-76.8-6.1-108.3 15.6a21 21 0 0 0-6 9m111.2 27.3c-21 10.5-38.7-12-60.4-9.6-16.8-2-33.6-6.2-50.5-6.5-8.9 17 18.8 32 32.4 39.4a206 206 0 0 0 87.5 17.6c24.5-2.6 57-4.6 69.6-28.4-20.2-4.6-41.1-6.3-61.6-10zm-2079-87.2a46 46 0 0 0-39-31.7c-30.1-7.7-63.2 26.3-49.2 55.8 6.2 14.2 23.2 33.1 39.5 28.1 5 6.2 17.6 4.5 22.6-1.5 15 2.8 22.5-14.7 18-27a60 60 0 0 1 8.1-23.7m126-5.6c-17 12-25.7 35.4-16.3 54.8 4.8 12.7 22.4 31.5 34.2 25.7 4.3 5.7 9.9 6 16.1 3.3 4.4-7 13.9-.7 19.4-9.9 8.8-10.6 15-24.7 11.8-38.7-3-22-21.8-42.1-45-40.7a45 45 0 0 0-20.2 5.5m1328.8 213.3c-14.8-5.2-30.8-5.8-46.1-9-63.8-9.9-127.2-21.8-191-32-8.7-2.5-10.7 8.5-15.6 13.5-8.9 7.2 3.2 8.7 9.5 9.5 53.8 9 107.6 18.5 161.4 27.6q32.7 5.1 65.2 11c8 .6 8.9-9.8 13.2-14.9zm-1010.1-146-32.6 28.2c7.9 4.8 18 3.6 27 6 44.5 8 89.3 15.3 133.8 22.9 14.7-2 23.5-17.3 33.4-27-3.5-5.5-15.4-4.6-22.7-6.5-46.4-7.5-92.9-16.3-139-23.6M130.1 1491c3 16.2 20.2 33 36.3 31.5 4.1 2.5 8.8 5.7 14.7 2.3 5.9-5.4 12.5-2.2 19.2-8.2a42 42 0 0 0 12.4-46.7c-5.4-20.3-26.2-36.6-47.7-33-18.7-.6-32.7 13.9-27.1 31.3a43 43 0 0 1-7.8 22.7M2563 1251.3c22.6 7.3 47.2 9.4 70.5 10 4-25.6 3.8-51.7 6.2-77.4-6.5-7.3-21.5-3.9-31.6-6.5q-20.7-2.9-41.6-5.3c1.4 21.2-2.8 42-2 63a100 100 0 0 1-1.5 16.2m-1938 354c-18.8-5.7-38.6-7.5-57-14.9-8.7-3.1-20.5-8.4-16.3 6 2.9 12.4-4 35.2 16.2 30.2 20 3.1 38.5 13.9 59.3 12 13.8.2 38 3.7 29.1-17.8-.3-14.4 5 11.3 5.7 16.5 2.8 6.1 11.7 6.3 17.2 9.8 4 .5-5.3-32 3-15-2 18.7 13.9 27.8 29.6 31.6 8.9 1.6 28.3 7.3 23.2-8.5-3.7-10.4 1.5-22.4-4.2-32.1-30.2 13.2-56.3-4.9-83.9-13.6-10-3.7-22-6.4-17.1 7.6-.1 5.8 2 12.3.6 17.7-5.8-1.8-4.1-21.6-5.4-29.5m-223.5-120.4-32.3 27c14 4.1 38.6-11 52 6.5 8 8.5 20.5 6.7 31 9.5l83.3 14.2c9-8.9 30.3-21.8 29.4-30.1-37.3-7.1-75-12.4-112.3-19.7-17-2.6-33.9-6.7-51.1-7.4m31.7-24.7c13.6 5.2 30.2 6 45 9.2 37.6 6.5 75.4 12.2 113 19 8.6 1.4 13.2-7.8 19.7-11.8 3.6-4.2 20.9-13.8 11.8-15.6-50.7-8.1-101.4-16.9-152-25.4-14.8-.3-25.7 16.3-37.5 24.6m2006.3-262.3c9-.1 24.4 6.5 21.8-8.2.5-13.8 8.9-35-12.2-32.3-20.4-1.3-40.6-4.7-60.8-7.3-8.3 17.6-3.5 40.1-8 59.5-5.5 14 1.7 23.5 16.5 21.6 11.5-1.4 32.5 11.6 36.4-3.6 2.5-9.7 1-20.9 6.3-29.7m-1650 293c-7.5-5.8-18.1-4.5-27-6.9l-125.3-20.6c-13.3 3-27.7 17.6-33 27 51.2 9 102.7 17.2 154 26.1 8.3 1.3 12-8.1 18-12.4zm1561.9-148.6c2.4-8.7 13.8-29.9-3-27.5-9.5-5.2-11.7 16.8-19.8 8.9-3.4-7.2-3.8-15.2-14.9-13.7-35.7-5.1-71.4-10.2-107.1-14.5-3.4 13.8-20.5 10.4-19.2-2.6-11.6-3.3-25.8-5.5-25.2 11-11.2 20.5 14.6 16.3 27.4 18.5 29 4.1 58.2 7.5 87.3 11.3 23.7 3.6 47.7 5.1 71.3 8.8zm-82.8-203.9c-16.6-5.9-42.3-13.4-57-5a598 598 0 0 0-10.8 72c17.7 1.2 40.6 9.8 55.2 4 3.3-7.7 1.1-32.6 9.5-28.8 4.4-6.5 19.9-.4 17.9-13.4 1.3-9 4.1-18.2 4.5-27.3-3.1-3.7-12.2-3.8-17.2-2.7zM2106 1154c1.4-12.5 5.5-24.7 5.8-37.2-13.1-3.3-27.1-3-40.5-5.7-10-1-19.9-4-29.8-3.2-9.8 19.4-9.5 45.4-15.2 67.3-3.9 11.5 13 7.9 20.4 10.4 11 1.4 22 3.6 33.1 3.8 3.7-10.8 0-31.1 9-35.8 5.6 1 11.5 2.1 17.2.4m-459.3 293.6c19.4 3.7 39.1 5.2 58.3 9.5.7 7.7-1.9 23.7 2 24.8 15-25 27-51.5 41.6-76.7 8.2-14-19-7.1-27.6-11.8-13-.4-28.1-8.1-39.6-.7-12 18-23 36.6-34.7 54.9m296.6-275.6 62.2 8.2c5.5-23.5 8.8-47.6 12.8-71.4-2-7.5-12.6-5-18.7-6.8q-19.2-2.6-38.6-4.5c-7.7 1.8-5 12.3-7.4 18.3zm-824.2 408.4c-59.6-11.2-119.6-19.9-179.2-30.6-18.8-4-41.3-9.8-51.1 12-1 4.5 10.7 3.2 15.3 5 41 6.6 81.8 14.5 122.9 20.8 22.5-5.4 44 .3 63.7 11 15.7 7.3 20.8-7.1 28.4-18.2m1014.2-569c10.6 3.8 25.8 3 38.4 5.2 60 6.7 120.1 12.6 180 20.3 29.3 2.3 58.3 6.7 87.4 9.3 14 5.5 39.8-4 44 13.4 26.2 7.6 54 6.7 80.6 11.2 8.9 4.1 24.7-4.4 19-11.5-19.9.8-39.8-.4-59.3-4.8a2349 2349 0 0 0-95.2-18.2c-46.1-9.7-92.8-17.7-139.8-20.9-19.9 1-39.2-3-59-2.1-24.3.3-48.6.2-72.8-2.3-7.8-.1-15.6.4-23.3.4m-1005 566c19.7 6.6 40.8 7.6 61.1 11.4 23.5 3.4 46.7 8.7 70.2 11.6 7.4.7 9-9.2 13.7-13.7 3-5.6 9.1-10 9.4-16.7-26.2-4.3-52.3-8.8-78.6-12.7-16.9-2.7-33.7-6.4-50.7-8.4-8.7-.3-11 10-16.3 15.2-2.6 4.5-7.6 8.4-8.8 13.4m-25.6 60.4c21.5 7.2 44.7 7.2 66.7 12.4 18.3 1.5 36 8 54.3 8 5-9 25.2-25.6 16.1-31.2-42.6-6.6-85-14.2-127.5-21.7-7.3-1.9-13.3 7.6-14.2 13.4zm489-140.4c15.2 5.4 31.8 5.4 47.7 8.4 17.4 2.3 34.7 6.5 52.2 7.1 1.1-13.4 7.1-33.7.2-45.1-30.8-4.8-62-7.4-92.7-12.5-12.3 4.7-2.3 27.2-7.8 39zm-663.6 14L796.3 1490c-7 8-27.4 21.1-24 28.7 43.1 8 86.5 14.3 129.6 21.8a168 168 0 0 0 26.2-29m1557.5-349.3c-5.4 12.4-3.8 26.5-6 39.7 13.3-.3 27 5.8 19.3 21-.5 11.8-4.8 26.2 12.2 23.2 15.3 3.3 35.2 8.2 31.2-14.2q1.4-24 4.1-47.6c3.2-25.6-33.9-14.5-49.7-20.7zM2363.5 1284c16.5 5.3 34.3 5 51.3 8.2 9.5.8 19.2 4.4 28.6 1.7 3.7-14.1 5.8-28.7 8.8-43-5.2-11.8-28-6.7-40.5-10.9-13 2-37.1-13.3-39.8 5.5-3.2 12.7-6.6 25.5-8.4 38.5m-2169.4 79.7c17.6 1.5 35.3-7.2 53.4-5 21 1.8 40.2-.4 51.3-20.4 16.2-16.9-16-19.2-27.6-20.9-25-1-49.9 6.2-73.4 14.2-11.8 3.7-27.7 9.5-13.3 20zm2105.7-183.2 21.3 3.4c-1.5 13-14 40.2 7.6 38.4 14.3 5 35 5.1 29.9-16 1.4-18.6 4.4-37.1 5.4-55.6-14.4-8-42-9.4-57.1-7.7-4.3 12-5 25-7.1 37.5m-119.8 21.3 12.2-73.5c-3.8-4.7-12.5-2.6-18.4-4.4-13-1.4-25.8-4.4-38.7-4.4-6.6 2.4-4 12.5-6.4 18.4-3.5 11.6-3 25 13.3 22.4 3.7 12.6-3.5 25.2-.2 37.6 12.6 1.5 25.7 5.3 38.2 4m363.4 56.5c-4.6 14.6-4.3 30.5-9.6 44.8-7-1.7 2.4-23.5 2.7-33.4 5.3-11-3-16.1-14-15.3-16.4-.9-32.6-6.7-48.9-4.3-1.5 15.2-12.5 37.2-7 48.7 23.5 3.6 47 6.4 70.5 9.8 11.8 2 8.6-12.4 11.2-19.7l5-29.3c-2.6-2.7-6.8-2.3-10-1.3m5.8 51.8 76 10.1c5.2-14.4 5-31.5 6.9-47-5.1-9.5-21-6-31.4-8.7-14.3-1.2-28.5-5-42.9-4-2.9 16.4-5.9 33.3-8.6 49.5M2020.9 1189c-4 14.4-19.5 36.7-10.6 47.6 22 2.6 44 5.8 66 8.2 10 1.5 9-10.2 12.3-16.4 2.7-9.6 7-18.8 8.6-28.7-25.3-4.6-51-6.6-76.3-10.7M759.4 1520.3c-34.1-7.7-69-11.6-103.2-18.2-18.5-3-37-7-55.6-8.7-8.2 2.4-31 19.8-12.2 19.5 49.2 7.4 98 17.4 147 25.3 10.8 1.8 17.3-11.2 24-18m-353.2-38.6L573 1510c6.3-7.2 29.4-20.6 8.9-20.3L428.3 1464c-8 5-14.7 11.7-22 17.7m1258.1-140.1c-15.4 22.3-29 45.8-43.7 68.7-7.3 13.9-20.6 28.4-24.4 41.8 33.6 4.7 67.3 8.3 100.7 13.6 7 10.8-5.3 33.7 3 38 3.5-6.3 0-14.2 1-21.2-1-8 2.1-18.6-3.6-24.2-23.4-5.1-47.6-6.1-71.2-10.5-8.4-5.3 9.9-20.8 12.4-30 14-22.7 26.8-46.2 41.7-68.3q35.5 4.7 71 9c5.5-5-9.3-4.1-13.3-5.8q-34.8-6-69.6-11.4zM1124.3 1581c-4.6 8-24.2 23.3-4.4 22.5 40.5 6.7 80.8 14.3 121.3 20.8 9 1 28-23.8 10.3-22zm1499-678.4c10.5 6 19.8 28.6 24.9 28.9a397 397 0 0 0 8.3-91c-1.1-19.2-5.4-42-22.4-53.3-4.4 13.5 1 31.9-3.4 47-.6 23-3.5 45.9-7.4 68.4m-622.9 285c-20.3-3.2-44.1-10.1-63-6.2-2.4 13.9-24.3 42-3 45.3 17.4 1.2 34.5 6.4 52 5.7 5-14.8 10.5-29.5 14-44.8m-1102 356.6c-31.3-8-63.8-11.4-95.6-17.7-12.9-1.6-25.6-5.4-38.6-5-5.6 6-12.3 11-17 17.7 11 3.4 23.5 4.1 35.1 6.5q46.5 8.3 92.8 16.2c9.4 2.9 12.7-8 18.8-12.7zM2120 1203.5c-1.7 14.3-19.3 35.6-10 45.4 17.7 1 40.5 9.2 55 4.6 4.1-12 6-24.6 9.2-36.9-3.3-16-31.2-7.7-45-13.3-3-.5-6.3.3-9.2.2m-1405.5 368c21 6.2 43.3 7 64.6 12.3 20.2 6.4 25.9-25.5 47.6-25.4 3.1-2.6-16.6-4-24-5.9-20-3-39.7-8.3-60-9.4-9.5 9.3-19.3 18.8-28.2 28.4m1854.9-440c.7 10.2-8 27.1 1.2 33.2 22.3 3 44.6 7.3 67.1 8.2 9.7-5.4 6.4-24.7 6.2-33.5zM1299 1672.2c6.6-9 19.8-23.3 19.2-31.3-22.2-4.9-44.9-7.8-67.3-11.7-6.4 8-25 25.6-17.7 31.9zm61.4-88.6c-22.8-5.7-46.3-8-69.4-12.3-9.3 7-14 18.5-21 27.6-2.6 6.3 11 3.8 15.8 6.1l53.2 9c8.4-9.1 14.5-20 21.4-30.4M2477 1054.3c-29.5-4-59-6.4-88.5-10-27.7-2.8-55.4-6.2-83.1-9.2-41.3-4.6-82.7-8.9-124-13.8-17 .2-37.1-7.2-52.1-3.5 6 3.8 21 7.7 31.1 8.5 15.5 1.4 31.2 2.3 46.5 4.4 11.8-4.3 22.8 6.8 36.2 4.7 23 1.2 45.7 5.8 68.5 6.3 24.5 4.6 49.6 5.6 74.2 9.1 11-3.1 21.4 4.7 33.3 3.5 18.9 2.1 37.6 4.8 56.5 6.4 4.4-.3.6-4.4 1.4-6.4m-364 861.2c36.2 7.2 72.7 13 109 19.3 8.8-10.2-14.6-13.6-18.8-22.4-12-19.4-38.5-16.2-58.3-18.7a71 71 0 0 1-31.9 21.8m-427.8-561.7c-2.7 17.9-1.2 38.7 22.3 34.4 14 1.5 27.9 5.4 41.9 6 6-5 5.6-26.4 0-32.5q-30.9-4.8-62-8zm-1 445.7c-15.3-2.6-30.9-4.3-45.8-8.4-6.9-14.2 12.8-32.4 17.1-48 40.6-83 82.4-165.4 122.6-248.6 18-36.3 36.3-72.3 54-108.7-.3-8.9-5.4 7.2-8 10.5q-96.8 192.6-193.4 385.3c-9.8 11.2-.1 15.6 10.7 16.2l44.3 8.1c4.7 0 .7-6.3-1.5-6.4M303.2 1444c11.3 10.9 18 27 35.4 26.3l56.3 9.8c7.8 1.3 31.2-14.4 20.5-18.3l-109.7-18.5zm2046.5 514.2c-16-7.7-24.5-25.3-35.8-36.2-12.1-1.7-24-5.8-36.2-5.3-8.5 7-39.3 17.7-16.1 25.5zM756.2 1674.6a56 56 0 0 0 17.2-58.5c0-22.4-18 .4-30 2-14.9 6.4-1.2 28.6-5.7 42-.2 10 12 10.2 18.5 14.5m1696.3 272.8c-14.4-2.5-33.9-13.3-43.6 2-4.7 11-45.5 11.3-16 16.8l89 15.5c4.4-9.1-20.5-13.6-23.1-25q-3.4-4.5-6.3-9.3M397.2 1483.8c-22.2-6.3-45.5-8-68-12.4-7.9 4.5-1.1 25.6-3.5 34.7l36.1 6.6zm1993-341.7c17.5 2.5 35 6 52.6 6.5 6.2-7.9 15.4-36.4-5.6-33-16.4.7-49.8-15.6-46.6 12.9.7 4.5-3.5 9.5-.4 13.6m-1852 403.5c-30.8 21.2 81.6 5.4 56.8 22.7 24.3 2.5 48.2 10 72.7 9.8 11.6-3 23.8-.5 35.6-2 .7-4.9-11-3-15.4-5zM2128 1010.4c-42-2.3-84.4-5.1-124.2-21.4-6.4-.6-18.7-9.8-12.8 7.5.5 20.6 29.4 9.4 43.5 15.2 16.3 0 32.3 3.6 48.7 5.3 13.3 1.5 26.6 4.8 40.1 3.8q1.6-5.6 4.7-10.4m-101.7 56.6c-19.5-3.3-39.3-4-58.9-6.5-3.6 13-9.4 33.3 10.7 30.9q21.3 2.6 42.7 4.8c3-9.5 3.6-19.5 5.5-29.2m173.4 732.8q-92.2-16.9-184.6-32.3c-3.5 7-3.8 29.7 5.2 25.1-3.6-12.8 5.6-19.5 17-14.6 50.6 9.4 101.4 18.4 152.1 27.9 11.3-.7-.3 28.8 9 16.7a47 47 0 0 0 1.3-22.8M1321.3 1638c9.7-7.2 21.6-26 .9-23.9-18.9-2.3-37.4-8-56.4-8.6-6 6.9-20.7 23.7-3.3 22.4zm775-534c.9-9.4 4.7-18.7 3.4-28.1-16.7-2.7-33.4-4.5-50.2-6.5-8.3 6.5-15 34.6 5 31 13.8 2.1 27.8 4.3 41.7 3.6m124-14.1c-2 14.6-12.3 36 10.8 33 18.3-1.4 51.2 18.3 41.4-22.5-.5-7.7-11-4.1-16.6-6.2zm325 70c1.6-9 1.6-18.5 4-27.2 8.2 3.7-8.5 38 12.5 28 1-13.8 7.7-34.9-13.3-32-11.3-1-22.7-3.5-34.1-3.2-8 3.5-1 16.6-5.4 23.6-3 15.9 28.6 9.5 36.4 10.8m-786 690.3c11.8 7 26.7 6 39.7 9.4 16.6 2.8 33.2 6.2 49.9 8.2l-19.2-14.9-14-19.7c-18-7.7-32.1-3.5-44.5 10.3-4 2.1-8.4 3.6-11.8 6.7m442.3-760.5c2.3 9.7-7.2 40.3 10 24.7 1.7-10.1 8.8-28.3-8.8-26.8-14.6.5-29.3-5.7-43.4-3-4 14.2-6.2 33.6 14 31 13.1 3.8 25.6 2.4 24.1-13.4 1-4.3 0-9.7 4.1-12.5M1026 1591.6c-25.7-6.4-52.4-9.4-78.5-14.4-2 2.6 18.8 9.5 21.2 19 6.4 16.1 16.7 27.6 35.3 25 3.4-12.2 12.6-21.6 22-29.6M356.2 1557c9 11.2 28.8 24.5 41 21.7-1-16 8.5-46-17-43-11.3-1.9-30.4-7.9-24.4 9.3zm1997.7-324.4c-31.2-3.7-62.3-8.3-93.5-12-20.1-2.4-40.2-6.7-60.4-7.2-9.6 2.2-7.7 18.8 3 9.6 16-1.4 31.8 4.3 47.8 5.2 29.8 4.4 59.7 7.8 89.3 12.3 8.9.8 10.4 12.8 12-1zm-147.6 53.2c36.5 4.6 73 9.2 109.3 14.9 16.6 3.8 14.3-16 0-12.5a4159 4159 0 0 0-107.8-14.2c-1.5 3.8-2.8 7.8-1.5 11.8m-22.7 577.4c-1.7-5 2.5-11.5 3-17 7.1-15.4-14.6-12.4-23.9-15.2-12.7-4.9-10.9 3.9-8.2 12.6a52 52 0 0 1-.5 31.4c2.2 7.9 26.6 8.4 30.6 6.9-2.2-5.8-.5-12.6-1-18.7m-197 29.7q35.3 6.3 70.4 13c17.3-.6-12.5-19.2-13.2-30.4-15-11.8-29 1.7-41.4 11-5.1 2.5-10.7 4.2-15.8 6.4m-306.3-534.4c-12.2 13.9-20 32.5-30.5 48.2-4.4 12.6-23.4 28.6-18.3 39 13.4 5.7 17.2-10.3 23.6-18.5 8.5-14.7 19.8-28 25.5-44 .9-8.1.2-16.5-.3-24.7m646.7-225c13 .8 36 12 43.1.3.3-11 7.5-29.8-9.9-27l-27-3.1c-3.8 9.5-4.1 19.8-6.2 29.7M2014.8 1763c31.4 6.2 63 11.1 94.4 16.8 29.8 5 59.7 9.7 89.3 16 22.3-1.4-7.9-8.4-15.6-8.5-54.8-9.5-109.3-20.2-164-29.8zm-102.7 88.1c-7 11.2-24.8 13.2-30.4 21.8 11 4.3 25 5.5 37.1 8 7.1-.2 32.6 8.8 27.6 1.6-7-3.9-12-9.9-16-16.8-5-6.3-8-16.8-18.3-14.6m639-678.6c-.8 24.5-4.3 48.8-6.5 73.2 1 9.5 26.4 9.2 15.6-8.4-1.2-20.3 3.4-40.5 1.7-60.8-1.6-6.5-6-4.8-10.8-4m-170.2-22.7c-12.6-6.8-12.7 6.5-13.7 16.4-2.4 19.7-5 39.5-5.4 59.4 11.7 6 14.4-3.1 13.6-12.6q2.6-31.7 5.5-63.2M197.2 1523.7c25.2 4.7 50.3 11.1 76 12.2-18.4-3-27-23.5-43.8-26-10.8-5.4-18.7-2-24 7.7zm1925.4 274.7c14.4 11.6 26.2 25 46.2 24.3 10.3 3 26.5 4.7 20.7-11.4-16.2-5.3-33.7-7-50.4-10.5q-8.2-1.4-16.5-2.4m-55.6 6c7.8-6.3 27.5-10.5 29.6-11.2-21.7-4.2-43.3-9-65-11.5-7.3 18.6 9.8 21.6 24.2 22.3q5.7.7 11.2.4m128.6-600.3c2.7-23.8 7.9-47.3 11.2-71-8.8-17.2-14.4 11.3-14.3 19.8 0 16-12.9 39-3.4 51.2zm97.5 50.3-4.9 19.7c13.3-1.5 37 13.3 42.2-3.5 4.1-19.5-20.5-12.5-32.2-17-.2 1-5.1-1-5.1.8m-350.9-159c-5.6 12.5-4.7 27.3-7.7 40.7.8 10.5-8.8 28-1.4 34.4 12.6 0 7.1-21 11.3-29.9 2.4-14.2 5.5-28.3 7.4-42.6 0 .5-9.6-6-9.6-2.5m77.6 84.8c5.5-18.3 7.4-37.6 11.3-56.3-.4-5.5 5.8-14.4.6-17.5-16.1-2-9.2 25.1-14.5 36.4 1.2 11.7-12.8 33.7.1 38zm623.2 87c6.2-8.2 4-20.7 6.2-30.8 1.7-18.2 5.7-36.3 4.8-54.6-12.1-3.5-11 6.4-11.2 15q-1.4 28-4.2 55.5c-1 6.3.8 10.1 4.4 14.9m-307.5-17-136-18.1c-6.6 5-.3 39.7-1 16.5-1.8-21.1 25.1-6.3 38.1-6.7 32.4 4 64.8 10 97.2 12.5l1.9-1.1zM928.9 1574c-14.7-2.2-29.3-6-44.1-6.8-20.4 6.3.2 21.9 1.8 34.9a65 65 0 0 1 42.3-28.1m1312.5-307.9c9.3-15.3-9-23-22-22.8-16.3-4.4-16.6 27.5 1.6 21.7 7-.1 13.2 3.9 20.4 1.1m-1884.1 250c-11.3-1.6-32.9-14.6-39.4 0 .5 6.6 7.5 14.2 4.1 23 .6 9.8 9.3-3.6 14-5.6zm173.6 29.7c-6.6-4.7-16-3.6-23.7-5.7-22-3.4-43.8-8.2-65.8-11 4.6 6.5 21.5 9.9 32.4 12.5 16.3 3.4 32.4 8 48.8 10.8 3.9.3 5.6-4.5 8.3-6.6m1509 311.4c-3-16 13.6-34.3 12.1-44.7-9.3-2.3-29.2-7.1-20.2 9.4 2.3 11.3 1.2 23-1.5 34.1 3.1.7 6.3 2.9 9.5 1.2m427.5-731.3c-3 10.6-7.1 29.9 9.4 27.3 4.3.2 17.8 4.3 10.7-3 .1-7.2 1.4-14.8 2-22.1-7.5-.6-14.7-2.4-22.1-2.2m-365.3 74.3c-4 15.7-10.5 30.8-13.9 46.6 20.2 4.4 17-26.5 25.6-39 4.4-6.5-2.3-6.9-7.3-7zm255.4 82c4.6-14.5 10.2-29.6 10.6-45-7-9.4-13 1.8-13.2 9.2-2.6 11-6.8 21.7-7.7 32.8-1.2 5.6 7.3 2.1 10.3 3m-180.8-61.1c4.3 9.4-8.2 19.1-6.7 31-2 15 17.5 2.5 14.5-8.3-1.1-10 16.3-32.8-.6-33.2-6.6-3.5-4.8 7-7.2 10.5m282.6 74.5c2.7-14.8 7-29.4 8.8-44.3-15-14-13.8 21.4-17.8 31.8-2.1 7.8-3.7 18.4 9 12.5m-88.2 695.3c7.8-13.8 3.9-33.7-15.6-27-3.7 9.9-5 29.4 9 30.1zm-271.5-46.5c3.3-10.5 7.8-31.3-9-28.1-14.4-4.3-7.9 23.4-4.2 29.5 5.5 2.6 8.4 2.4 13.2-1.4m38.9-857c-12-10-31.3-5-23.5 17.4 1.8 6.5 11.7 3.6 17.1 5.8 8-.7 2.7-17.3 6.4-23.3m-206.6 91c-18.2-2.3-16.7 28.4-23.6 41 9.8 15.5 16-14.4 18.9-23a193 193 0 0 0 4.7-18m346.2 11c-1.2 8.9-12.6 27.2 3.1 27.2 14.4 7.6 22.3-28.8 6.4-26zm-314.4 704.3c-4.2 11.2 2.4 38.9 17 24.6 5.9-16.8 2.3-28.5-17-24.6m-211.4-14.3c3.7-8.2 6.1-27.1-7.3-26.6-15.5-6.3-10.2 16-6.5 24.5 3.2 6.3 8.8 4.3 13.8 2.2m737 108.6c-2.3 8.6-4.2 20.2 4.7 25.7 16.2 7.4 22.2-28.1 5.1-25.5-3.2-.1-7-2.3-9.8-.2m-369.4-815.6c-11.4-7.4-22.4-4.2-20.2 10.8-7 12 21 14.2 20.4 8.2-2.7-5.8 2.6-12.9-.2-19m171.3-65.8c-8.8 13.2-3.8 28.4 12.8 24.8 6.7-2.3 8.2-25.8-3-23.8zm47.6 139.8c-3.1-5.3-12-3.1-17.6-5-37.8-5-75.5-10.9-113.3-15.8-11.4 4 10.5 3.7 15.8 5.4 35.8 5.8 71.8 9.6 107.6 15.4 1.8 2.2 5.8-1.8 7.5 0m-467.3 653c9.5-12.3 2.2-29.6-14.5-26.1-4.1 10.8-1.3 32 14.5 26.1m456-613.7c-15.8-8.7-34-5.4-51-8.7-22.2-2.8-44.3-6.2-66.5-9.3-2 7 22.5 4.9 31 7.7 28.4 2.6 56.5 8.2 84.7 10.9zm-327.6-51.5 14.7-43c-13.7-11.7-14 19.8-19 28-1 7.4-8.3 17.8 4.2 15m469.8-73.8c-3.3 12.4-5.5 29.2-2.3 39.9 15-.7 9.1-28.9 10.9-38.5zm161.5 159.7c14 7.4 7.6-14.5 10.6-22.4 1.6-7.3 6.2-35-5.2-25.4zm-510-163.7c1.9-12.3 7-27.5 3.9-38.4-13.8-3-8.7 18-12.7 26.2-3.6 11.8-2.4 13.4 8.8 12.2m172.9-16.8c-5 10-4.6 21.9-7.2 32.6-4 11 13.8 6 10.5-3.6l4.7-26.4c0-4.1-6-2.6-8-2.6M846.7 1684c5.3-13.6-2.6-30-16-20.6 1.2 8.3-1.4 23.4 10.7 23.1l2.5-.7zm222 22.7c.8-12.8-4.9-24.4-18.7-16.1-.2 10.4 8 37.2 18.8 16.1M2248 1944c-9.4-3.5-31.2-10.4-18.1 13.3 8.5 11.8 24-1.2 18-13.3M946.2 1701c2-10.2 2.1-27.8-12-21.8-8 1.7-3.7 19.8 3.1 23.9 2.2 3.4 6.2-1.7 8.9-2.2m1144.3-189.6c14-21.7 40.5-28.4 64.6-30.7 18.4-3.3 37 1.6 55.1 1.2-21.4-6.6-43.9-5-65.9-2.7-17.7 3.2-36.4 8.3-49.8 21.2a14 14 0 0 0-4 11m559.2-371c1 9.3-11 39 6.4 32.3l3.7-29.5a8 8 0 0 0-10.1-2.8m-274 .3c15.4 2.6 11-21.6 11-30.7-15.6-5.7-11.6 22.1-11 30.7M86.1 1514c-2.3 11.6 12.1 30.5 19.1 15.4 1-11.5-4.7-22.1-16.5-15.9zm148-113.4c11.6-12.4 34-15.5 38.5-33-6.7-6-18.5 15.4-28 17.7-2.8 4-21.6 10.2-10.5 15.3m-59.5 147.8c20.7 19.2 18.5-33.4-2-16-1.7 5.5 1.4 10.7 2 16m120.7 3.8c-2.5-5.2.6-16-6.8-16.4-15.2-2.6-11.8 21.1-1 24.3 4.2-.2 7.3-3.9 7.8-7.9m2.6-17.9c-3.7 11.3 21.2 14.9 19.8 3.8 3-9-6.1-16.4-13.7-9.2a21 21 0 0 0-6 5.4m1734.5-466.4c-2.6 8.7-12.6 29 2 30.5 1.5-6 13.2-31.7-2-30.5m226.8 202c19.1 13.2 21.6-31.7 3.9-17.3zM1957.5 1088c0-9.6 12.2-29.5-3.9-30 .9 9-13 30.9 3.9 30m405.3 201.3c13.9 6 33.6 5 49.8 9 14.5 1 28.9 5.7 43.5 4-31-5-62-10.6-93.3-13m134.8-134.6c10 5.2 13.7-30 3.8-30.7-3.2 9.6-5 20.8-3.8 30.7m-348.3 733c11.8.9 30.2 10.5 38.5 3.2-7.8-2.2-33.4-14-38.5-3.2m296.6-684c-9.4-2.8-5.1 19.4-8.3 26.3-3.7 9.4 16.2 9.4 6.8-.8.8-8.4 3-16.9 1.5-25.4M2150 1082c-2.8 7-11.3 32.1 2 29.1-2.5-7.3 8.4-27.8-2-29.1M137 1514.5l-11.9-17.2c-7.7 6.1-23.8 14-5.9 14.2zm2190.7-411.8c-13.4-3.5-8.5 22.5-9 29.6 8.2-1.9 5.2-12.6 7.3-18.8zm-23.3 116c12.8-1.5 9.3-23.3 8.7-32.7-10.5 3.7-4 21.5-8 30.5zm239 95.6c-13.8-4-28.5-4.5-42.7-7l-34.6-5c-6.2 3.7 9.4 2.6 13.3 4 21.4 2.3 42.6 7.4 64 8M2315.8 1918c-.5-7.6-7-8-13.1-8.8-5.4.3-12.4-5-16.5-.7-6.6 8 19.1 5.4 25.4 8.5l2.1.5zm-181.5-754.3c1.6 10.2-8.5 27 .5 32.5 1.8-8.4 8-28.7-.5-32.5m314.5 778.2c1.9-9.7-10.9-7.7-17-9.7-8.2-4.3-11.5 6.2-1.6 5.6zm-219.9-7.3c6.6 7.5 28.8 4 14.7-3.8-4.7 1-15.2-4.8-14.6 2.7zM2090.3 1158c-2 8.7-9.1 25.9-2.3 31.4.7-9.9 6.6-22.8 2.3-31.4m-331.7 241.2c-.3-13.3.8-26.8-.6-40-1.6 4.4-.2 11.8-.7 17.4-.7 9 2.3 18.7-3.4 26.5-6.8 13.2.3 7.7 3.5-1.6zm430.8-139.3c3.8-6.8 3.8-28.7 2-26.7.6 6.1-12.4 27.6-2 26.7m-398 563c6.5 6.3 32.4 5 14-2-5.3.8-12-5.1-14 2M293.6 1349.3c9.4 6 20.1-11.7 11.7-13.8zm563.6 212.3c1.6 4.2 9.3 6.7 13.2 10.3 3.6.7 13-8.8 2.8-7.2zM2594 1319.5l-43.3-5.5c5.3 6 33.7 4.3 43.3 5.5m-307.7-68.2c-6.1 4.8-7 29.7-.2 17.2 0-5.8 3.3-11.7.2-17.2M2102 1105.8c4.3-3.7 3-12.1 5-17.8 3.8-8.8-2.8-13.1-3.6-.5.2 6-3 12.6-1.4 18.3m-76.3 760c7.5 7 25-2 9.3-3.6-5.2-1.2-7.5-2.8-9.3 3.5m253.2-767c-3.9 7.3-3.2 16.7-5.2 25-4.8 14.3 61.3-17.2 6.2-24.3zm-1177 505c-9.3-1.8-22.4-5-9.3 6.3 3.8 5.7 6.5-4.4 9.3-6.4m-970.4-143c-5.5 5.2-7.3 33.4 0 15.1 1-5 .2-10.1 0-15.2m1970-298.8c4.8 5.7 30 5.2 12.8.2q-6.4-1.5-12.9-.2m373 48c-7-6-31.5-4.3-12 .1 3.9 1 8 .5 12-.1M710.8 1576.8c7.9 4.5 41.9 4.1 17 1.3-5.6-1-11.3-2-17-1.3m1483-276.3a54 54 0 0 0 1.4-31c-.2 10.3-1.8 20.8-1.4 31m102.6-113.8c-8.2-7.7-29.6.2-11 0zM229.8 1402.5c-5.8-9.8-18.3 17.3-5 5.5q3.1-2.1 5-5.5M2490 1980.8c4.8 8.6 30.6 3.2 9.8 1.3q-4.9-.8-9.8-1.3m-148.4-729.2c-2.5 7.6-3.8 39.1-.5 17 1-5.5 1.8-11.4.5-17m-87.7-3.1c-9.4 2-6.9 31-2.7 10.2zm237.5-124.9c-6.2-3.6-37.8-5.8-17.6-1.2 5.9 0 11.7 2.8 17.6 1.2m-1424.2 470.6c-7.3-6.7-30-4-10-1.3q5 .4 10 1.3m1348.3-276.1c-8-1-15.7-3.3-23.7-2.8 3.2 2.7 16.8 4.1 23.7 2.8m38.4-186.7c-5.1 6.2-1 28-.1 10.3.1-3.5 1-7 .1-10.3m-21.1 268c7.1 1.9 32.7 5 13.4.5l-2.7-.4z"/></svg>