<svg xmlns="http://www.w3.org/2000/svg" fill="#0a0a0a" viewBox="0 500 3052 1696"><path d="M2099.8 812.2c11.2 2.2 22.1-2.4 33.3-2.2 22.4-1.9 44.7-3.8 67.2-3.5 15.7-5 32-1 48-1.2 16.6 3.1 33.6.8 50.4 2.7 47.3 2.6 94.8 6.8 140.3 20.2 27.7 7.3 56.5 14.4 79.7 32 16 10.7 20.2 30.6 22.1 47.2 12.4 7.8-3.5 2.2-4.8 9.3-4.5 7.6-2.7-14.1-13.4-9.7-22.7-6.5-46.2-10-69-15.5-16-6.2-33.6-6.8-50.2-11.3-46.2-5.5-92.3-12.6-138.8-15.2-27-2.9-54.2-.9-81.3-1.5H2096c-26.3 4.2-53.3-.5-79.5 4.1-12.1 1-24.3 1.2-36.3 2.8 9.8-18.6 25.9-40.5 43.3-47-4.3 8.7 7 2 11.4 2.2 21.5-5.3 43.7-7.3 65-13.4m113.6-2.5c-35-1.5-70 2.8-104.5 7.5-12.6.2-12.6 26.7-6.7 33.4 21.3-3 43-1 64.6-1.6 13.5-.1 27 .3 40.5-.3 10-8.8 2.7-26.8 6-39m106 48c21.3 3.8 43.1 5.8 64.8 7.8 9.2 1 25.6 8 22.2-6.7-.4-11.6 1.4-23.4-1.3-34.8-29.2-5.7-58.9-7.1-88.4-10.3 4.3 14.1.1 29.6 2.6 44m-98.3-8.4c18.2 3.7 37.5 3.7 56 5.7 10.4 1.3 20.7 2.4 31.1 2q.1-21.5 1.6-42.8c-17.5-5-36.4-4.3-54.5-5-16.8-.9-40.8-3-34.2 20.8zm274.2 1.7a382 382 0 0 0-76.7-24.6c-7.5 8.2-4 29.8-2.7 42.8l70.5 13.3c13.8 3 9.1-23 8.9-31.5m-2.6 36.6c-37.2-9.5-75.5-13.2-113.3-19.5-23.2-2.3-46.3-5.3-69.6-7l-52.7-4.2c-20.3-2.1-40.9-4-61.5-3.5-34.9.5-70-1.4-104.7 1.4-18.7-1.3-37.8 1.4-56.6 2.7-10.7 2.5-27.6-1.4-34.2 6.7 27.5-.3 55-4.8 82.7-3.4q45-2 90.1-1.6c20 .2 40-.8 59.8.4 16.3 2 33.1 1.7 49.6 3.3 16.2 3 32.9 1.5 49.2 4.7 35.2 4 70.5 7.6 105.2 15.2 31.1 5.8 61.7 14.3 92.6 21.4 3-3.7-5.4-10.6-10.9-10.4-5.7-.9-11.6-5.7-17-1.6-2-3.8-6.2 1.8-8.7-4.6m-401.3-68c-24.9 4.3-50 7.7-74.3 14.8-8.1 4.4-17.8 26.8-2.8 21.6 22.6-2.6 45.3-2.8 68-5.3 13 2.8 8.9-23.1 9-31.1m413.5 66.2c12.5 3.9 42 16.7 16.1-16.7-6-8.8-20-17.3-16.1-1.2zm-191.3-29c.9-8.6.9-35.2-.2-31.6a157 157 0 0 0 .2 31.6M768 1665.8l2.2 1.3 3.9 21.9 1.9 22.2c-7.7-12.7-9-30.8-8-45.4m-542.3-219c-4.2-5.9-14.8-25.3-9.2-25.7 3.8 8 8.6 16.7 9.2 25.7m2626.2 43c-12-11.7-11.4-29.8-12.1-43.8-9.2-10.4-17.6-22.8-16-37.6.6-30 31.8-56 61.5-48.7 24.4 6 44.5 32.4 37.2 57.8 12.1 11 23.1 26.2 19 43.5 0 14.6 16.7 27.4 13 44.4 15 10.4 27 26.3 27.5 45.2-3.1 17.2 23.6 21 27.2 38.4 11.3 15.6-3.9 36.5 8.6 49.5 13.8 14.5 5.9 36.6 12.7 50.7a53 53 0 0 1 21.6 41.9 64 64 0 0 1-28.6 48c-7.6 7-23.2 6-22.4 19.1-2.4 7.5-.4 17.8-9.2 21.4-18.8 10.9-25.9-15.3-20-29.2-1.3-6.8-10.7-8-15.7-12.4-15.7-12.7-25.9-34.2-21-54.6-14.1-15-25.7-34.3-22.3-55.6 3.8-9.5 4.8-18.3-1.7-26.6-3.2-7.3-9.2-14-7-22.4-1-6.6 4.8-17.6-5.1-19.3-22.4-8.1-30.7-32.4-32.8-53.5-12.7-14.1-20.2-33.6-14.7-52.5zm152.3 292.4c25.7-5 44.5-32.3 42.4-57.8a55 55 0 0 0-48.3-44.6c-17.7.3-37.2 5.8-47.4 21.6-11.8 14-13.2 34-8.6 50.8 5.3 12.7 18 32.3 33.4 27.5 3 3.6 9 5.8 15 6 7.6 1.2 8.3-14 13.5-3.5m19.4-117.4c-4.9-27.5-31-52.8-60.2-47.6a53.6 53.6 0 0 0-44.5 47.7c-3 18.2 1.4 41.2 18.1 51.4 8.8-20 26-37.2 48.3-40.1 11-6.9 32 9.7 36.5 1.6zm-45.9-114.2c-3-26.7-27.3-50.7-55-47.8-26 .2-49 22.6-48.5 48.7a45 45 0 0 0 32 46.4c11.1-19.7 27-39.8 51.1-41.4 8-2 19.5 7 20.4-5.9m29.5 73.4c8.6-24.3-9-52.7-32.5-61a50 50 0 0 0-57.6 25.6c-9.2 17.4-10.4 40.8 2.4 56.8a60 60 0 0 1 43.6-32.6c16.7-4.4 30 6.1 44 11.2m-138.2-82.5c8-21.5 25.6-41.5 49.8-42.8 11.5-4.3 38.6 12.5 28.5-9.4-6.7-25.2-36.2-41.8-60.8-31-28 11.1-41 49.6-24 75 2.1 2.8 3 6.7 6.5 8.2m47.2-127.2c9.8-15-5.7-35.1-18.3-44-25-18.6-64-.2-68.3 29.7a44 44 0 0 0 13.3 43.2c11.3-28.2 45.7-44.4 73.3-28.9m-62.3 69.5c10.4-17.8 27.8-34.4 50-33.3 12.3-4.9 28.2 16.8 34 5.7 0-26.6-27.6-49.3-53.8-42.5-23.8 2.8-41.5 27.7-37.8 51.1-1 7.2 2.5 14.1 7.6 19m133.8 333.7c9.4-6.2 14.2-30.9-2-28.5-11.4-2.8-8.8 9.9-10.8 16.8a9.7 9.7 0 0 0 12.8 11.8M2785.2 1076c25.2 14.7 24.7 53 1.9 70-5.8 6.3-14 8.7-21.7 12-2.8 9.4-1 22.8-14 24.9-22.7-2 .5-31.6-21.4-36.9-13.3-14.9-15.2-35.8-26.7-51.8-7.4-15.7 15.2-35.8-7.4-43.3-18.8-18.2-11.8-48-27.7-68.4-2.8-15.6-17.8-27.8-13.3-44.8 4-23.3 30.1-43.3 53.5-33.6 18 6 19.8 26.6 29.4 40 7.6 18.4 7 39.6 20.8 55.3 5.8 17.7 32.3 24 28.4 46.6-.4 10.1-4.5 19.8-1.8 30m-17.4 75.6a47 47 0 0 0 32.2-40.8c-1.7-19.6-17.7-40.7-39.2-37.7-32.3-1.1-49.4 41.7-31.3 66 2.7 5.7 9.7 10.8 16.3 9.2 3.4 5.3 10.6 5.5 15.6 3.2 2.2-2.6 4-1.3 6.4.1m-62.3-99.6c2.4-23 20.8-46.5 45.7-45.1 10.8-10.3-17.4-29.6-31-25-19.2 3-34.3 22-31.8 41.5-.7 11.4 5.9 24.7 17.1 28.6m11.6 53.7c6-16.2 16.7-32 34.3-36.7 10.3-6 37.1 8.6 22.5-11-18.6-27-61.8-12.7-65.6 17.7-2.4 10.1-1 24.2 8.8 30m63.7-48.3a28 28 0 0 0-1-25.2c-8.4-20-36-27.8-52.7-13.5-9.6 8.3-18.8 22-13 35 14-17.1 42-20 57.9-3.8zm-45.5-93.6c-17.4-18.3-52.4-7.3-56.3 17.8-4.2 6.8 3.7 36.7 9.3 19.6 8.7-19.1 34.1-30.8 53.1-19.6 7.6-1.8-5.6-13.7-6-17.8m2.8-4c-.5-26.3-34.3-39.9-53.7-23.8-13.8 10.4-20.4 31.2-10.6 46.2 4.9-16.2 19-30.8 36.6-32 9.8-3 19.4 5.4 27.7 9.6m-74.3-1.7c7.4-16.5 20.4-33.2 40.3-33.2 9.2-1.3 29.2 11.7 17-5.3-13.6-20.4-48-16-57.3 6.2-4.4 10.3-8 23 0 32.3m83.5 200c-8 10.1 2.8 30.9 10.2 13.6 3.8-9.4 1.5-16.7-10.2-13.6m-937.2 48.9c1.8 21.5-8.7 43.6-11 65.4-5.3 22-7.3 45.6-15.8 66.2-2-7 2-14.6 2.6-21.9q10-52.4 21.5-104.5l1-2.2zM502 1169.4l20-1.3c15.3 5 33 3.3 49.3 5.1 16.5 3 33.6 2 50.3 5.1 13 3.2 38.3-4.8 41.8 11.2.4 11.5-1 23.2 2 34.4-5.8 11.2-20 3.1-29.8 4.1-18.5-2.2-37.4-1.7-55.6-5.2-18.3 1.1-36.4-3.2-54.8-3.2-10.5.7-22.9-.3-20.8-13.5-.8-12.2-2.2-24.6-2.4-36.7m70.5 10.9c-15.3-.5-37.2-8.5-48.5.7-4.8 22.7 16.9 28.6 35.2 26.3 13.9 4 19.7-2.9 15.9-16.6q-.8-5.3-2.6-10.4m43.6 32.2c12.8-3.7 41.4 12 39.3-9.1 2.5-25.8-30.6-16.3-47.2-19.9-5.6 7.7-3 25.4 7.9 29m-24-30.3c2 8.6-1.9 29.4 5.3 31 1.6-6.2 3.6-29.4-5.3-31m-77.7 25.9c6.2-8.4 2.3-21 .5-30.7-9.8-5.5-1.2 18.2-1.5 24.5zm90.5 10.9c12.5 2.5 42.3 5.3 46.2 2.4a174 174 0 0 0-46.2-2.4m-29.8-2.6a235 235 0 0 0-53.3-4.5c17.5 3.8 35.5 4.3 53.3 4.5m93.4 73.3c-20.6 4-41.7-1.6-62.6-2.2-6.5-.3-16 .5-14.6-8.6-2.2-13.4 1 6.8-6 5.7-23.4 1.6-46.6-4-70-3.7-7.3-2-3.4-12.3-5.3-18.2q-1.3-14.8-3.1-29.5c6.3-4.7 15-1 22.5-1.5 20.6 2.6 41.3 2.9 61.9 6 25 .2 50.1 4.5 75.2 6.7.8 14 2.6 27.9 2.7 41.8zm-138-49.8c-1.8 10.4-1.6 26.6 11.4 28.6 11.8-4 34.3 9.7 39-3.5 2.5-19.2-7.8-28.4-26.8-24.5-7.9-.6-15.7-3.4-23.6-.6m89.8 34c11.8.8 23.6 3.2 35.4 2.6 7-4.2 2.9-16.4 3-24-.8-6-10.7-63.9-22.4-5.6-14 2.5-40-12.3-24.3 22.4zM515.4 1238q2.2 15.1 2.7 30.4c7 10.3 8-34.8-2.7-30.4m64.6 40.7c-7.3-3.6-16.5-2-24.5-3.3-8-.6-16-1.8-24.1-2.2 1 7 26.4 2 36.7 5.8q6 0 11.9-.3m77 5c-16.2-1.6-34.7-6.2-50-1.7 16.7 0 33.3 4 50 1.8m-58.6-37.6c0 6.7-.4 30.4 4 27 2.7-9-.3-18.7-4-27m72 59.7c-1.9 15.2 9.7 37-2 48.3q-34.8-2.2-69.4-5.4c-22-2.5-47.5-3-70.6-5.4-22 .3-9.2-32.4-14.6-47.3 5-7.9 18.8-4.6 26.9-1.2 28 .3 55.8 4.3 83.8 6.3 15 3.4 31.4-1 45.9 4.7m-85.8-2.2c-15.4.4-37.5-8.7-48.7-.3-.2 10.4-.6 24.6 11.7 27.3 11.5-3.6 33.7 8.2 37.7-3.8q.8-11.6-.7-23.2m41.5 33c13.8-2.4 46.4 12.4 38.4-13.3 2.2-22.7-26.9-12.2-41.4-16.6-12.7.7-8.8 25 1.6 29l.8.5zM522 1300c.8 10.7 1.2 21.5 2.4 32.2 10-3.7 5.2-30.5-1.6-32.2zm79.7 7.5c4.5 8.7-2.6 25.5 6 29.6 2.3-4.5 2.4-35.5-6-29.6m-18.3 32.4c-15.7-4-32-3.1-48.1-4.6-9 5 14.4 3.1 18.4 3.8 10-.1 19.6 3.7 29.7.8m29.1 4.8c17-.5 34.3 2.7 51 3.2-.5-5-11.4-2.3-16.2-4-10.9-.5-22.5-2.8-32.7-1.1zm59.7-115c5.5-14-13.1-43.5 5-47.8 21.6 2.3 50.8 1.3 69.5 8.5-3.6 14 14 46-9 44.7-15.9 0-31.6-3-47.5-3.3-6-.4-12-.5-18-2m29.5-11.3c11.9-3.5 34.8 10 39-3.6l-2.2-20.8c-14.6-2-36.3-7.7-46.7-.6.8 9.6-.7 21.2 10 25m-19.4 1.2c5.6-4.2 1.6-13.1 1.8-19 2-11.4-9.8-13.8-5.2-2zm58.2 8.8c-13.3-3.2-40-4.8-45.7-2.2 15.3 0 30.6 3.8 45.7 2.2m-62 64.4c-1.3-15.6-6.5-34-1.5-48.3 9-2.1 17.5-.4 26.3 2.4 15.8-.2 31.5 2.2 47.2 2.8-1.9 15 9.5 37-2.3 47.2-18.1.7-36-2.5-54-2.5-5.2-.8-10.4-1.8-15.7-1.6m64.2-36.5c-13.9-4.6-29.1-3.2-43.3-4.7-8.4 9.4-3.3 32.5 13.4 29.3 9.5-3.2 29.2 7.3 31.5-3.2zm-56 25.5c3.3-7.5 3.6-29-3.1-27.3a206 206 0 0 0 3.1 27.3m10 6.4c13 .9 26.2 1 39.2 2.6 20.8-.7-16.8-4.7-24.5-3.3zm57.1 23.2c.8 15 6 34.2 1 47.3-11.5 2.8-25-1.4-37.3-.9-12-3.5-36.6 4.8-36.2-12.4-.5-15.3-11.4-49 16.2-39.5zm-6.7 7.8c-12.8-5.6-33.1-8.7-45.9-3.2-1.6 6.7 1 14.2 1 21.2 9 8.1 22 5.8 33.2 7.6 20.8 4.6 11.6-13 11.7-25.6m-57-7.5a46 46 0 0 0 2.2 31.9c1-10 3.8-23.6-2.2-32m7.3 37.4c14.3 2.8 33.1 3.2 49.2 4.1 2.7-2.7-11.2-2.3-16-3.2-10.3-1.3-20.8-1-31-1.8zm56.5-159.4c21-.7 41.8 4 62.8 4.7 21.3-1 9.4 27.9 14.3 42-9.7 13.6-33.7 1-49.4 3.2-13.2.2-30.4 1.6-26.4-17-1.3-10.9-2.7-22-1.3-33m66 38c2.6-11.4 4-33.9-14.2-28.6-13.5-.2-36.6-8.2-30.7 14.5.4 19.6 32 11.5 44.9 14.2m-46.4 4.6c14.9 4.2 30.7 1.8 45.8 4-3-9.5-37-2-45.8-4m-9-4c4.7-5.3 5.2-32.4-3.1-27.8 2.3 9.1 1.2 18.8 3 27.9m-102.6-104c16-6.2 32.7 2.3 49.8 1 12.5 3 35.4-5.3 29.6 18.6-1.8 9.6 9.5 28.3-6.4 29.3-19.5-3-39.3-3.9-59-4.1-18-1-10.2-28.8-14.6-41.7zm23.9 27c5.5 3.7 11.3 6.4 18.1 5.6l28.5 1c1.5-10.5 1.9-28.3-12.9-25.5-11.7-.5-23.4-4.7-35-2.2-2 6.8 1 14.2 1.3 21.1m-11.2 8.8c4.5-8.2 4.6-27.6-5-31 .6 10.5 3.3 20.7 5 31m9.1 1.4a192 192 0 0 0 51.3 5c-16.7-3.6-34.3-4.2-51.3-5M832.4 1304c-20 2.4-39.9-4-60-3-20 3.2-12-23.4-15.2-35.5-2.6-26.5 32.5-7.8 48.2-10.5 10.6 2.9 30.7-4.8 27.7 14.7-.3 11.4 1.5 23.2-.7 34.4m-7.8-14.4c6.4-19.6-6.2-33.7-26-29.2-12.4-3-23.7-1-19.4 14.7 1 20.6 29 10.5 42.3 15.2zm-46.8 4c14.3 5.3 30.8 3 45.4 4.3-8-5.2-32-4.2-45.4-4.3m-8.7-3.5c2.4-8 5.4-26.5-3.1-30.8 0 10 .7 21.1 3 30.8m64.6 29.3c1.6 14.8 6 31.8 1.8 46.4-16 3-32.3-1.5-48.3-1.9-7.3-4.3-24.5 5-23.8-8.1 1.7-13.4-11.8-43.1 8.3-43.2 18.3 3 37 3 55.4 5.6zm-42 30.9c13.7-1.5 44 11.5 36.8-12.7 3.7-18-11.7-14-23.3-15.7-13.1-1.7-37.2-4.2-21.2 23.2zm-19.2 1.6c3.6-7.8 5.8-26.8-2.7-30.8a96 96 0 0 0 2.7 30.8m54.6 7.3c-12.8-.9-41.4-7.4-45.3-1.3 15 1.5 30.2 1.6 45.3 1.3m6.2-162.4c11.4-8 26.8.4 39.8-.2 11.8 3.1 34.8-4.3 36.2 11.6-4.3 11.4 9.8 36.2-6.7 37.8q-22.6-.6-45-3c-14.3 3.3-23.8-3.8-21.5-18.6-.8-9.2-1.1-18.5-2.8-27.6m22.6 5.8c-4.8 16.6 5.3 32.7 25 28.3 12.2 3.1 24.2 2.2 20.4-12.6 2.6-17.6-17.7-15.6-29.7-15.9-5.2-.6-10.8-3-15.7.2m44 35.2c-15.4-1.4-30.9-2.9-46.3-2.2 14 .6 33.2 8 46.3 2.2m-53.7-6.8c1-7 4-32.6-4.2-29.3 2.6 9.3-.8 21 4.2 29.3m65.3-88.6c19.1-5.6 39.2 1.5 59.3 2 19-2 23.5 14.3 18 36.6-4.6 18-31.7 1.9-45.7 6-14.5-.8-31.8.8-28.4-18.4q-2.3-13-3.2-26.2m24.7 27.1c14.7 5.9 53.3 14 41-13.6-5.5-12.6-27.9-5.2-40.3-8.6-7.5 3.8-2 15.9-.7 22.2M921 1148c-2.6 7.2 4.4 40.2 6 17-1.6-4.8-.2-15.4-6-17m.9 100.4c-4.8-13.6-5-29.4-4.4-44 12-8.9 33.7 1 49.4.2 13.3-2 27.4 1.7 22.5 18.2-1 9.5 9.2 30.8-7.7 30.2-20-.7-39.9-3.3-59.8-4.6m58.7-36.8c-13.4 2-42.8-12.7-42.8 7.6-2.5 14 10.7 20.5 22.4 17.9 10.7 0 28.6 6.2 22.3-12.2-.7-4.4-1.8-8.9-2-13.3m-52.7 25.9c9.3-5.8-3.5-44.5-2.7-18.2.3 6.1 1.5 12.2 2.7 18.2m9.2 4c7.9 5.2 38.2 5.2 41.6 4.4-13.5-3.2-28-3.6-41.6-4.4m55 28c.6 14.3 4.8 34.6-2.6 45-16.1 1.6-32.2-2.6-48.4-2.7-6-1.7-18.2 2.3-18.5-5.9q-1.8-20.8-3-41.8c13.4-3.5 27 2 40.6 1.5 9.8.9 19.9.7 29.6 2.2zm-8.4 5c-13.7-.6-44.7-13.5-42.7 7.3-4.7 13 8.4 17.4 17.7 17.2 8.6.2 17.6 3.6 25.8.3 1-8.3 1.2-16.7-.8-24.8m-53.3 25.1c1.9-7.9 6.9-26.6-2-29 0 9.6.7 19.6 2 29m8 6.2c12.8.3 39.7 5 44.4 1.7-13.3-1.5-33.4-6-44.4-1.7m-96.8-50.7c11.7-1.3 21.5 4.8 33.5 3.6 14.5 2.4 42.2-4.6 36.3 18.5 2 13.6 6.5 39.5-16 30.5q-24.8-2-49.5-3.1c-13-9-3.7-31.4-8-46l1.3-1.8zm18.5 8.4c-.3 11.8-7.2 36 17.8 29.1 13.1 1.2 34.5 5.5 26.1-14.9.4-20.5-30.9-10.6-43.9-14.2m-11.6 31.6c5.9-7.5 4.4-25.8 0-31-6.4.2-.3 10.2-1.2 14.6.3 5.5-.5 11 1.2 16.4m9 3.2c14.6 3 29.5 2.8 44.3 4.2-1-8.1-35.9-.7-44.3-4.2M747 1129.7c20-1 39.4 3.8 59.3 3.7 23.6-2.3 16.4 28.8 18.1 44-16.5 5-34.3-.9-51.4-1-7.3-.8-14.7-.4-21.9-2-3.3-7.9-2.3-17.4-4-26 0-6-4.7-13.4 0-18.7m69.6 34.2c-.7-11.3-.4-27.8-15.8-25-10.7-1-21.5-2.9-32.3-1-7.3 20.1 11 29.1 28.5 27 6.5.8 13.3.8 19.6-1m-58.6 1.4c6.2-4.8 3-29.9-4.2-27.7.6 9.4 2.7 18.5 4.2 27.7m57 7.4c-12.4-3.5-43.5-4.7-46-2 15.5 0 30.5 3.6 46 2m42.7 144.4c17.9 7 43.8-.7 57.2 10.4-2.7 13.4 9.1 43.8-10.6 43.5q-24.1-1.2-48.4-3.6c-19.4 3-10.6-21-14.6-33.1-1.8-14.3-.3-19.6 16.4-17.2m13 37.5c13.3-2.5 41.2 11.4 36.4-11.8 3.8-24-28.8-17.2-44.7-17-1.7 9.7-2.4 24.2 8.3 28.8m-11.9 6.7c8 3 17.5 1.5 26 2.7 9.7.9 40.6 2.6 5.8-3-10.4 2.2-22.6-4.7-31.8.3m-7.5-38.5c-2.6 9.4-3.4 25.6 2 32.6 3.6-10 1.5-22.6-2-32.6m88.5 1.1c16.8 7.3 37.9 2 54 7.6 1.5 14.5 1.5 29.6.8 44.2-16.7 6.5-37.2-2.5-55.5-.8-21.7 3.3-13.7-26.3-16.2-39.8-2.6-13.2 8-9.7 16.9-11.2m46.7 39.6c-.3-14.2 7.3-40.5-21.8-30.2l-20.6-.6c1 9-7.8 31 10.6 28.6 10.4 2 21.3 1.5 31.8 2.2m-52.5.1c5.6-8.8 1.1-19.9.6-29.4-7.2-3.1-1.1 21-2.5 27.8zm51.7 8.9c-13.6-6.2-31.2-5.7-46.4-4.6 15.1 3.8 31 2.9 46.4 4.6m-81.6-190.2c-15 2.3-30-2-45-1.6-14.7-.5-33.6-.3-28.6-20.6-2.8-11-8.2-33.7 11.3-26.1a464 464 0 0 0 53.5 4c17 1.4 3.3 27.5 11.7 37.2.4 2.7-.7 5.5-2.9 7.1m-53.3-41c-8.4 22.2 14.3 29 32.3 27.5 6.1.3 15.7 1.8 13.6-6.8 2.8-17.8-11.8-21.3-26.5-19.5a66 66 0 0 0-19.4-1.2m-8.8 27.2c1.7-6 1.9-31.6-6.3-26.4 2.5 8.3 1.4 19.8 6.3 26.4m54.8 6.9c-14.8-.7-29.5-3.2-44.4-2.2-3.4 3.9 21.3.4 28.2 3.3l8.2.6zm174.5 147-64.1-6c-2.5-14.2-6.5-37.9 2.7-47.2 21 0 43 4.5 62.7 8 0 14.4 5.5 29.8.7 43.8zm-5.2-42.4c-13.5 1.7-33.7-8.4-42.8 1.4-2.5 12.9 5 28.3 20.3 23.7 11.2 2.2 28.4 5.1 23.4-12.2q.1-6.5-1-13m-50.4 26c2-6.9 2.2-31-4.4-27.2l2.3 25.6zm6.7 4c9.8 4.8 29.6 4.9 42.5 3.5-14.2-1-28.3-3-42.5-3.5m-19-56.2c-.3-15-3.5-30-1.7-44.8 9-4.5 21.4.3 32 .4 12.3 1.3 25 .6 36.9 4.6.2 12.5 2 24.8 2.7 37.1-1 15.7-24.3 5.3-34.5 6-11.8-1.3-23.9-.7-35.4-3.3m25.2-11.9c11.9.6 24 4.4 35.6 1.8 2.7-16.7-1.8-38-26.9-28.1-16.8-8.4-21.7 15.3-12.3 23.9zm-21-26.5c3.9 6.1-1.8 33.2 7.2 24.6-3.1-5 2-30-7.2-24.6m54.8 35.8c-13.8-1-27.6-2.4-41.2-3.4 6.4 5.5 30.6 4.8 41.2 3.4m92.4 76.1c-15.4 3.1-31.6-2.1-47.3-2.6l-18.3-1.9c-3.6-14-5.5-30.6-3.3-45.4 11.1-3.9 26 1 37 1.7 20.6-2 37.5 5.4 32.1 28.3q.3 10-.2 20m-49.2-19.5c11.8 2.4 34.9 12.5 41 1.5 2.2-11.5.7-25.4-13.6-23.3-8.6-.5-17.3-3.6-25.8-2l-2 1.7zm-7.4-9.6c.7-13.8-13-32.7-4.3 12 4.1 8.6 3-8 4.4-12zm47.7 24.7a78 78 0 0 0-42.5-4.5zm-147-176.6c8.6 0 17-.6 25.1 2.2 13.9 4.3 38.4-5 45 9.6-1.3 12.1 5 24 1.1 36-16.7 3-33.4-1.4-50.1-2-6.3-2.2-17.8 2.3-18.9-6.3-1.3-12.5-4.6-25-3.2-37.6zm18.7 7.7c-1.8 15 3.3 28.2 20.4 26 12.6 2.8 31.7 5.6 24-13.5-1.7-19-31-8.8-44.4-12.5m-11-1.9c-3.8 8.2.1 32.7 1 26 7.1 2.7 1.9-21.1-1-26m11 34.4c14.4.2 28.7 3.6 43.2 2.3a120 120 0 0 0-43.3-2.3m66.2 27.4c10-.3 19.7 0 29.3 2.6 16.4 2 44.9-3.4 38.6 22.3 9.6 27.6-15 47.6-48 24-12.4 1.1-22-4-19.2-17.7-1.9-10-2.3-21-.7-31.2m60.7 38.2c4.8-15 .2-32.9-18.6-28.8-10.6-.8-27.5-6.5-23 11-2.9 21.3 25.5 14.2 39 17.5zm1.2 7.6c-11.6-4.7-42.3-6.2-43-3.1 14.2 1.4 28.9 4 43 3m-51.6-9c.8-5.9 3.6-33.3-4-25.8 1.7 8.5-.8 18.4 4 25.8m-19.7 133.5c-15 2.7-29.9-2.3-44.9-2.3-8.1-1.8-24.7 2.7-21.7-10.4 2.2-11.4-7.7-35.6 4.3-39.7 20.9 0 41.5 4 62.2 5.9-.5 15.2 5.1 32.3 0 46.5m-6.5-14.3c4.2-15.2 1-35-19.3-28.9-13.7-.3-38-9.2-22.8 22.3 7.2 6 16.2 5.3 25 6.1 5.6 1 11.5 1.9 17.1.5m-45 3.8c10 5 39.6 6.2 43.6 4-14-4.2-29.4-2.8-43.7-4m-7.3-4.3c7.6-5.9 2.4-31.3-2.3-28.7 0 9.4 2.2 19 2.3 28.7m74.3 16.5c-1-14.8-7-34.7.4-46.6 9-2.4 17.2 1 26 2.2 12.5 1.8 25.2 1.7 37.5 4.4-.3 15 6.6 33.7-.5 46.5-13.9 0-28.2-2.4-42.2-3.4-7.2-.1-14.4.7-21.2-3m56.2-36c-12.9 1-38-11.9-40.7 6.7-2.6 24 26.3 19.5 42.5 21.5 2.7-9.3-.7-19-1.8-28.2m3.3 34c-12.3-.3-41.6-5.7-43.6-1.2 12.7 1.2 25.3 3.4 38 4 1 2.4 5.6-5 5.6-2.8m-51.9-7.6c2.1-6.5 3.3-35.2-3.8-28.2 2 9.1-.7 20.4 3.8 28.2m985-153.3c-3-6-10.9-2.6-16.2-4q-27.9-1.7-55.6-3.9-30.8-1.5-61.7-4c-16.5-1.6-33-2.1-49.5-4-15.3 4.5-20-6.9-15.5-19.4 2-10.7 2.8-22 5.6-32.4 10.7-12.6 1.7-31.5 2.9-46.4.5-10.1-.8-20.8.6-30.6 3.1-4 6.3-8 5-13.4-1.4-12.3.2-29-17.7-23.7-7.8 2.8-34.4-6.8-13.8-4.6 27.6 8.7 14.1-26.8 25-40.1-1.2-7.8 6.2-9.7 13.2-8.9 9.7 4.5 8-8.7 6-14.1-.2-11.6-.2-28-3.4-35.8 8-18.5 3.2-47.6 10-69.7 6.7-29.3 14-58.6 23.7-87.1a178 178 0 0 1 36-61c13.9-15.6 35.7-18.5 51.3-31.3 20.7-6 40-16.4 61.3-20.5 14.7-2.2 29.2-8.7 43.6-8.3 19.4-.8 38.5-3.3 58-2.6 15.3-.4 30.7 3.1 46 1 4 1 10.7 3.9 17 3.7 23.2 2.5 46.6 4.7 69.2 10.8 9.3 2.7 6.4-16.3 10.6-1.5 9.7 12 31 7.1 44.7 13.8 12.7 3.7 25 8.5 37.9 11.3.8-7 1.3-20.5 4.3-7-.6 11.5 10.7 12.5 19.3 16a307 307 0 0 1 42.2 19c5-10.1 7.3 7.6 14.3 7.4 9.2 7.2 28.6 17.4 30.3 24.8-17.6-12.3-29 65.2 15.5 33.6 14.8 31.4 26.4 66.2 26.6 101.3 6.4 11.5-9.2 30-13.6 42.6-9.7 16.5-21.4 33.8-29.3 50.2-7 12.1-24.4 33.8-17.9 43.9q39.3 2.2 78.5 4.7c8.2 1.5 36.7-1.4 21.7 10-.1 13 2.4 26.2 1.5 39.4-.1 31.2.4 62.4.4 93.6 3.4 26.2 1 53 1.8 79.3-2 8.4-13 2.8-19.4 4-22.6-1.4-50.5-6.7-68.8-2.9 21 4.1 42.6 3.8 64 5.6 16 1.1 32 3.2 48.2 3.4 17.8.8 40.7 8.7 55.3.6 1.9-7.5 8.9 8.9 12.4 6.4-9.3 1.6-1.8 11.1-1 17 30 97.1 59.4 194.4 89.5 291.5 31.8 104.6 64.5 209 96.4 313.6 3 9.8 5.7 19.8 9.5 29.3 7.2.8 28.4 5 10.5 5.2-14.7-4.5-4.5 10.4-4.6 17.4-6.5 3.9-4.8-25-20.2-19.9q-69.6-7.4-139.3-13.6c-18.4-7-7.7 16.3-18.6 22.7-3.3 5.1-11.2 2.9-16 2.3-9.6-6-9-17.2-6.8-27.2-16-5.4-33.5-4-50.2-7.3-15.8.1-32-3.6-47.6-3.6 1.7 14.3-7.8 38.2-25.5 25.6-9.2-4.5-6.4-15.1-8-23.4-3.6-14-28.9-4-40.4-10-18.9-.4-40.3-6.6-57-2-.2 11-14 17.4-23.2 12.1q-8-5.6-7.9-15.3c-7.7-7.7-24.4-3.4-35.6-6.8-21.1-2.3-42.4-3.7-63.4-6.2-22.4-7-3.8 33-29 27.2-13.7-.7-12.2-16.9-12.1-26.9-15-11.3-41.6-4.9-60.6-10.3-14 .1-37-9.2-34.2 12.7-1.1 8.1-11.4 14-18.8 10.7-5-1.6-10.3-7-9.8-12.4 2.2-12.4-3-21-16.8-18.5-19.9-1.4-39.5-5-59.5-4.5-1.2 8.3-2.5 20.4-12.1 22.8-6.4.5-12.5.6-16.2-5.4-5.5-3.9-2.3-11.7-3.7-17.4-7-10.3-29.6-5-42.2-8.3-17.2-1.6-34.6-4.2-51.9-3.8-1 9.5 2.8 20.3-6.4 26.6-9.2 5.8-17.1-.1-22.7-8.1l-.8-21.8c-27.5-5-55.5-5.4-83.2-9-22.2-2-44.1-4.4-66.4-6.3-22-1.8-44-5-66-6.3a433 433 0 0 1-66.2-10.2c-27.3-5-53.6 6.1-80 11.3-28.4 6.3-56.6 15.1-85.9 15.5-29.7-4-55.5-20-82.5-31.9-10.1-2.1-7.3 27.2-15 20.1 1.4-10 14.8-27.2-4.1-27.8-17.3-5.2-35.4-5.7-53.3-6.5-17.5-.3-31.7-1-48.2-4.6-13-1.1-25.7-3.2-38.6-3.3-20.2.2-40.5-1-60.5 1.8q-29.2 1.2-58-2.8a1161 1161 0 0 1-167.2-31.6c-23-5.3-45.4-13-68.5-17.4-9 3.7-17.7 9.6-27 11.9-8.3-.3-17 1.6-23.6-4.5-28.3-13.7-61-8.1-90.5-17.9-22.2-5.3-45-10-68-9.5-9.9-6.2-8 15.3-10.6.6-13.9-4.5-32.2-3.2-47.6-7.5a423 423 0 0 0-84.6-11.1 569 569 0 0 1-69.5-9 122 122 0 0 1-35.8-14.4c-7.7-8.1-2.4 15.4-8.6-.8-6.4-10.8-5.5-17.5-.4-29 2.3-10.5 4.8-21 6.3-31.7-18.2-6.3-31.6 2.2-40.8 18-7.2 4.7-6 11.8-5.9 14.6-6.7 3.2-11 4.8-14.5-1.4-6.6 1.5-20-4.2-4.7-2.7 15.2 5.1 9.4-35.2-1.1-18.4-6 4.8-15.8 9-10.6 18.7 7.5 12-4.7 27.5-17.5 20.4-7.5-3.2-6.6-12.2-9.2-18.7-18.7-4.4-38.1-5.7-57-9.2-12.3.8-41.3-10.8-33.4 10.3 3.6 9.7-5.8 19.3-15.7 16.7-16.1-5.5-6.2-34.8-29-29.6-16.3-1.6-32.5-4.6-48.9-5.8-8 4.7 3.7 26-11.8 27.4-11.4 3.1-18-8-18.6-17.8.2-10.3-7.3-14-16.4-16.6-23.6-11.5-40.5-40.5-30-66.4 5.2-14.5-3.7-30 3-44.4 2.7-16.5 18.5-22.9 26.5-35.6 9.2-12.7 15-29.7 31-35.5 32.7-12.8 67.5-18.9 100.6-30.5 20.2-5.9 47.4-4 64.6 3a35.5 35.5 0 0 1-15 40.7c-9.3 2.4-7.4 18.3-14.8 16.6-6.3 3.2-31.9 20-11.4 20.3q30 2.4 59.6 5.1c19.3 1.4 38.5 4.5 58 5.1 13.9 2 28 3 42 4 17 2.4 34.3 3.2 51.4 5.4 8.6.9 17.2 1.2 25.8 1.8 8.5-4.6 20.2-22 2.3-15-9.6-3.5-4-17.3 5.4-21l18.3-14.7-11.4-96.4c-12.2-9-6.7-26.5-10.1-39.5-3-27.2-4.6-54.6-8-81.7-2-29-6.4-57.9-8.3-86.9-1.3-14.2-4.6-32.6-4.8-44.7 30.6-24.8 57.3-53.9 86.6-80 6.5 4.8 14.7-.2 22-.3 40.3-6.2 80.5-13 120.8-18.6l28.8-4.7c1.2-19.5-2.3-39.2-3-58.7q-1.4-29.1-4.1-58.2c-4-23 26.7-33 38.8-49.8 16.7-11 40.9-7.2 60.5-12 18.5-5.2 45.4-.1 58.5-12.2.6-18.3-2.7-36.5-2.5-55-1.5-10.2-.7-23.1-4.5-30.2 14.4-8 24.5-21.4 36.8-32 12.1-12.7 26.6-23 37.9-36.5 13.4-4.9 28.9-2.5 43-6 24.3-2 48.4-5.7 72.7-7.6 9.5 5.4 14.3-13.6 18-4.3-3 12.6-4 25.6 13.6 21.3 18 1.5 36.2 1.4 54.2 3.9 17.8-1 35.3 3.4 53.2 2.1 12.5.3 30.3 8 38.9-4.1 5.8-4.3 9.4-15 18.1-10.2 16.9-.7 33.4 1.9 50.2 2.2 17.5-.8 34.6 3 52.1 2.1 10.8 1 21.4 2.6 32.3 2 14-.5 27.8 3.2 42 1.9 16.5 2 33.2 2 49.8 2.3 18 3.4 36.7.5 54.7 3.8 18.4-1.2 36.4 3.5 54.8 2 16.1 2 32.3 1.5 48.6 2.5 13.6 0 31.6 6.8 41-5.7-1 13.9-2.2 28-2.6 42.3-.3 18 .6 36.2-2 54-.3 21 .8 42.1-2 62.9-.1 21.9.4 43.8-2 65.6 2.7 14.4-6.1 38.6 5.4 46 12.4 3.4 25.3 1 37.4 2.2 8 2.4-8.1 5.7-3 13.7-3.5 21.9-11.9 42.7-17.6 64q-48.1 159.5-95.6 319-33.6 112.3-67.4 224.5c-.5 17.2-8.6 28.2-18 40.9 20 4.1 41.7 4.2 62.3 7.5 17.4.5 34.5 3.6 51.9 4.2q24.2 3.1 48.6 4.5c14.8 1.7 37.4 10.1 35.7-13.2 6.8-31.2 13.6-62.3 18.5-93.8-16.2-5.6-34.8-2.6-52-5-9.6-.7-19.6-.2-29.1-1.6 1.7-22.5 2.2-50.7 9.8-74.4l23.1-87.5c4.6-9.4 16.9-2.4 25-2.4 27.8 4.5 55.8 6.6 83.5 10.8 6.3 1.7-7.5 8-2.6 16.2a257 257 0 0 1-7.6 55.5c-5 28.5-10.1 57-16.4 85.1-5.6 9.3-33.5-6.9-30.7 14l-58.7 288.4c14.6 9.1 33 5.1 49.1 9.1 19.3 1 38.7 3.5 58 5.6 23.6 1.5 47.1 4.6 71 6.4 21.6 2.5 43.2 4.3 65 6.3 7.5 1.5 20 3.4 6.6-2.9-16.9-7.5-22.7-31.4-45.7-25.3-35.8-5-72-6.1-107.6-12-7.4 1-35-6-15-6 3.6.3 35.6 5 19.7-3-10.3 1.6-13.6-7.2-1.2-4.9 16 1 8.7-23.3 13.5-34.3l73.2-503.9c-9.8-.8-14.1-5.6-.9-7.4 11.6-1.4 23.7 0 35.4.7 17.9 1.4 36 2.2 54 3.3 15.1 1.8 30.5 1.2 45.7 3.7 26.5.1 53 3.7 79.6 4.5 18.2 1.6 36.3 4.3 54.6 3.3 13.3 1 39.4 11.3 31.7-12.1-16.4-2-32.7-2.7-49.1-4-14.8-1.3-29.6-2.7-44.5-3.3-20.3-2.5-40.8-3.2-61.2-4.4-16.2-2.1-32.5-2.9-48.8-4.1-17.6-1-35-3.2-52.6-3.5a518 518 0 0 0-53.5-4c-16.8-2.2-33.7-2.8-50.5-4.1-10.5-4.5 17.2-2.4 21.7-1.5 35.1 2 70.3 5.6 105.4 7.6 27.2 3.6 55.2 2.8 82.4 6.7 19.4 2.1 39.8 1.5 58.5 4.8 20-.2 39.7 2.3 59.4 4.1 9.2-1.5 26.6 5.8 30.6-.6-26.3-4-53-4-79.3-7q-7.3 0-14.3 2m535.7 62c6.1 2.5 13.6 1 20.3 2 13.5-2.3-6.2-1.7-10.3-1.9-7.6 1-14-2.3-21.4-2-3.6-.2-18.9-1.7-12 1.3a70 70 0 0 0 23.4.6m-537.7 415.7c-18-3.5-37.2-4.4-55.1-5.2-4.4 3.5-2.1 12.4-3.7 18.1-1.2 15-3.9 30-4.2 44.9 1.4 8.9 4.4 17.8 1 26.7-2.7 8.3-1.3 19-9.5 24.4.3 5.2 11.9 2.5 17 4.4 5-.6 16.3 4.5 16.7-.3-6.1-9.7-29-2.7-20.5-20.6-.4-17.9 2.4-35.5 2.9-53.3 4.1-13.2-6-37.1 8.5-43.2 17.5 3 36 3 53.5 5.8 10 .8 31.2 4.2 32.9.8-13.3.2-26.2-3.5-39.5-2.5m321.8 98c.8-7.5-3.5-18.2-15.8-8.6 5.7 1.1 13.9-1.4 14.9 6.4 1.4 15 2.7 30.6 3.4 45.9-2 13.6-26-.4-37 2.7-9.6 9 18 8.9 24.8 9.9 12 .5 34.5 7.5 40.2 3-5.8-8.4-15.5-6.5-23.8-9.8-3.5-16.2-2.3-34-6.7-49.5m221.9-449.7c-1-10.2-5.9-33.8-9.7-34 3.3 13 6.4 26.3 10.4 38.9q21.6 87.4 44 174.7c20.6 78.4 39.8 157.3 60 235.9-.3 8 10.2 21.8 6.4 5.2a52171 52171 0 0 1-69-263.8c-13-50.8-27-101.3-39.5-152.2.6 1.3-2.7-6.6-2.6-4.7M231.7 1486.7c9-12.6 17.3-25.9 28.5-36.9 12-13.7-16.7-1-24.6-.6a236 236 0 0 1-32.1 5.9c-.2 10-7.5-4-13.2.4-20.7 3.5-41.8 4-62.1 10.2-27.8 4.2-51.6 30.4-43.1 60.2 4 3.9 10-6.7 14.9-9.1 7.2-6 8.9-16.3 13.7-24.2l11.1-23.2c8.5 22.6 34.3 20.9 53 14.7 11.8-2.3 24.1-7.6 36.2-5.9 5.4 2.2 12.4 2.7 16.7 6-3.7 5-25.4-9.3-35.7-1.3-14.1 2.2-32.1 6.5-24 24.6 1.5 11-1.6 38.4 11.5 36.1 10.3-10.8 24-19.6 17.7-36.1-.5-6.2-2.5-12.5-1.9-18.7 8.4 4.2 1.9 27 9.4 34.5 8.7-3 20.6-2 26.9-2.6-9.4-9.7-8-21.5-3-34m-6-40c12.1 2.6 24.6-6.4 37.3-6.4 17.6-4.7 30.3-18.7 36.2-38.3a215 215 0 0 0-41.2-4.9c-26.8 5.2-52.4 15.2-79 21.9-21.4 6.2-47.7 10-58 32.8 1.2 9.6 16.3 9.2 24.5 6.4 5.9-1.9 25-2 2.8-7.4-4-1.3-20.5-6-11.4-6.8 16 6.6 44 15.9 54.7 6.2-5.7-6.9-13.2-12.4-18.1-19.6 7-2.8 18 23.2 30.5 21.2 7.4-.8 15.2-1 21.7-5m1439.2-655.5c-3.5 8-1 17.4-1.8 26-.4 16 .8 32.1-2 47.9-.4 19.7.9 39.7-1 59.3-2.2 27.7.4 55.6-3 83.3-1.5 12.7 2.2 25.7 0 38-9 29.5-18.5 58.8-27.7 88.1-20.6 5.7-50.6-1.5-73.7.5-35 89.3-70.1 178.5-104.4 268-22.8-15-25.8 23.6-24 39.9-1.3 13.8 2.1 28 .9 41.4-6.5 5 4.8 16.3-7.8 10.3-11.7-2.4-23.2-.2-18.1-13.4.6-16.5-1.5-33-1.3-49.5l-1.4-5.2c-26.9-2.4-53.3-6.1-80.3-6.8-13.1-2.6-26.5-2-39.7-4-15.7-1.5-31.6-1.6-47.2-4-24-1-47.7-4.7-71.8-4.6-14.3-4.5-15.9 17-23.4 25.6-15 29.6-32.8 57.8-46.4 88.2-5.4-7.7-37.7.5-26.5-11.4 1.5-8.2-8-2.7-12.4-1-7.5 7.9-48 42.3-35 2.2-2.6-22.3-18.8 8.6-32-1.1-12.1-1.7-28.8 1.6-30.3-13.8-10.1 1.9-16.7 12.7-27.8 8l-23.8-2.7c-1.4-8.5-6.4-7.3-12.3-3.3-7.7 5.7-16.9 1.3-25.5.8-4.7-2-14.1 1.3-15.4-4.7-3.2-13.6-17 12.5-26.8 1.9-11 .8-20.9-1.2-22.2-13-9 3-13.3 14-24.2 9l-25.3-2.8c-2.2-21.4-16.4 1.3-26.8-2.2l-25.6-4.1c-2.7-14-13.6 3-21.8-.2l-24.7-2.4c-3-13.8-14.7 2.3-23.4-1.5-7-1-14.7-.5-21.2-2.6-4-7.4-9.7-1-14.9 1.4-11.3-1.5-24.2-1.7-29-10.8-10.8 9.8-37.6 9.6-37.2-9.1-5-2.2-10.3 6.9-15.5 9.4-12.4 9 18 4.8 23 7.3q27.5 2.8 55 5c23 2.3 46.1 5.3 69.4 6.2 26.3 3.8 53 4.5 79.3 8 24.9 2.2 50 3.6 75 6.3 22.8 2.9 46 4 69 6.8 21.5 2.2 43.1 3.5 64.6 5.7 13 1.3 25.7 3.2 38.7 3.5 16.3 2.8 33 2.5 49.4 5.2 18.8.8 37.4 3.5 56.2 4.7q32.2 3.2 64.6 5.9c17 2.2 34.4 3 51.6 4.7 39.3 4 79 7 118.5 11.3 14.1 1 28.3 2.7 42.5 3.7q21.9 2.4 43.6 4c17.7 1.9 35.5 4 53.4 5.3 22.5 1 44.7 4.7 67.2 5.6 8.2-10.3 9.3-24.2 13.9-36.3 31.2-104.3 63.2-208.3 94.4-312.6q34.7-114.1 69.1-228.4c4.8-16.5 10.6-32.7 14.8-49.3-4.7-7.6-23.4-1.2-32.8-5-6.5 12.8-5.7 34.4-13.8 49.8-5.8 11.6-7.2 35-16 38.9-1.5-18.4-.2-37.3-.5-55.8 3.2-22.5 1.3-45.5 1.9-68.1-.7-16.5 3.3-32.5 1.9-49l.2-58.5c3.4-8.2 1-18 1.7-27 .8-6.4-1.6-23.3-1.7-6.8zm696.7 716.2c-8.2 35-47.7 41.6-78 42.6a178 178 0 0 1-64-8.4c-29.2-7.4-59-21.7-74.9-48.3-13.1-13.2-39.8-5.9-58.4-11-20.5-2-41-2.3-61.4-5.2-28.7-.7-57.1-5.8-85.9-6.4-26.2-3.7-52.7-5.3-79-7.1-5 21.4-6.1 43.5-10 65.2-5.2 35.8-8.8 71.9-14.4 107.7-5.2 41.8-12 83.3-17 125-4.8 11.1-1.3 21.4 11.4 19.4 25.7 2.4 51.2 7.6 76.9 9.2 6.2-3.3-2-15-.2-21.6a61 61 0 0 1 58.7-55.7 59 59 0 0 1 46.6 32.5c4.3.9 1.6-11.2 3-15.6l2-33c-13-12.2 9.8-5.9 17.9-5.8 26.2 1.8 52.2 5.6 78.4 7.3q33.8 3.3 67.4 6.1c29.6 2.2 59 6 88.6 8 18 3.3 36.5 2.1 54.5 6 22.3 1.2 44.5 3.4 66.8 5.3 40 4.6 80.3 7.6 120.4 11.4 17.5-4 21 9.6 20.5 24.3 3.4 14.4.8 30 6.2 43.7a69 69 0 0 1 52-27.4 62 62 0 0 1 60.5 38.3 57 57 0 0 1-6 56.6c4 3.5 12.2 2.3 17.8 3.9 16 4.8 26.4-2.3 9.6-22.3-9.1-34 17.6-69 51.7-73.4 8.2-1.4 0-11.7 0-17.5l-57.7-226.9c-13.3-5.8-29.7-4.3-44.4-6.2-17-1.3-33.9-4.3-51-3.8-34.5-3.6-69.3-6.2-103.8-9.4-28.2-2.8-56.5-3.6-84.6-7.3zm-500.2-53.7c26.4 4.8 53.5 5.3 80.2 7.7 19.1 1 38 4 57.1 4.7 22.6 2.5 45.2 3.5 67.7 6.4a1077 1077 0 0 1 70.7 5.6c5-2.9 5.7-11.2 9-16.3 9.8-13.4 26.3-20.2 42.3-23 16.5-3 33.5-6 50-2.4a187 187 0 0 1 84.3 24c15.6 8 26.6 21.8 37.1 35.3 14.6 2.8 29.5 2.5 44.1 4.7 24 .4 47.6 4.5 71.6 5.4 13.5.4 26.6 3.4 40.1 3.2 15 2.4 30.3 1.7 45.3 4.1 27.5 2.8 55.1 4 82.6 7.3 10.4 1.8 23.8.6 15.2-12.6q-26.8-106.4-54.1-212.6c-1.3-9.2-12.9-5.3-19.5-7.7-17.4-.4-34.5-2.8-52-3-19.7-2.1-39.3-2.8-59-4.8l-24.1.3c2.9 22.5 5.5 45 9.4 67.4 7.4 7 17.5-.3 24.8 5.2-18.8 4.7-40.5-1.8-60.4-1.7-21.8-.8-43.5-3-65.3-4.6-20.3-.9-40.6-3.2-60.9-4q-23.8-2.1-47.7-3.5c-16.8-2.3-34-1.4-50.8-3.9q-30.9-2.2-61.8-4a674 674 0 0 0-54.5-4.1c-14-3.2-32.2.2-43.7-3 .8-15.5 1.2-31.6 3.2-47.3q.4-13.3 1.3-26.7c-28.3-4.7-57.1-3.6-85.5-6.9-22.7 1.3-47.3-7.6-68.5-2.2l-28.7 207.3.2 2.6zm-1311-361.6c32.5 3.8 65.2 5.2 97.7 7.7l57 4q39.3 3.2 78.8 5.7c23 1.5 45.9 3.8 69 5q44 3.4 88.1 6.4c31.3 1.9 62.3 5.9 93.7 7 17.3 1.3 34.3 2.8 51.6 3.6 14.4 1 28.7 2.8 43 3 12-7.4 16.8-24.2 26.3-35 5-9.7 11-22.1 19-12.9 27 .8 53.8 3.3 80.6 4.9 36.2 2.7 72.4 4.5 108.6 7.3 16.3 1.3 37 6.8 41.2-13.8q67.4-139.5 135.4-278.7c2.5-10.4 13.9-4.3 21.4-5 16.3 0 37.4 5.8 50.8.1 2.5-11.5 18.3-31 9.8-38-15-3-30.6-1.8-45.9-3.6-8.3 1.6-6.6-13.2-4.4-18.5 4.6-15.8 14.3-28 31.8-22.4 14.8-.4 29.6 1.2 44.4 1.3l13.5-32.2c-16.2-1.3-32.3-2.8-48.5-3-24.4-2-48.8-2.7-73.1-4.1-29.8-1.7-59.5-4-89.3-5.4-26.4-1-52.8-3.4-79.2-4.3-19.8-.9-39.3-3-59-3.7-14-2.2-35.4-3-37 14.4-5.7 5.7-27.4 3-38.9 2-23.5-.6-47-2.6-70.5-3-18-2-36.3-.7-54.4-3-14.2.2-28.2-1.3-42.3-2.2-10.4.3-24.4 2.1-24.5-11.6-18.4.8-36.6 5-55 6.6-16.4 2.9-25.3 22-39.4 30.3-5.7 5.2-17 14.5-1.8 12 13.9 2.3 28 1.5 42.1 2.7 28.2 1.8 56.4 2.6 84.5 5.3 24 0 47.9 2.9 71.8 4 24 .8 47.8 2.9 71.8 4 19 1.4 38.2 1.7 57.2 3.8 18.6-.2 36.7 3 55.2 2.6 19.2 2.2 38.6 2.4 57.9 3.9 26.7 1.7 53.4 3.8 80.2 4.4 16.7 1.9 33.6 1.5 50.4 3 6.3 4 3.8 19.3-1.7 26.5q-24 45-48.2 89.7c-15.7-3.6-7.8 13.5-16 20.4-8.5 12-15.8 25.2-11.5 40.3-12 7.1-14.5 22.5-21.7 33.6-13.8 27.7-29.2 54.6-41.5 83-2.3 3.1-.2 10-3.6 13.3-1.8-11.6-11.7-10.8-21.4-10.2-24.8-1.4-49.6-3.4-74.5-4.3-26.8-1.8-53.7-3.2-80.5-5.6-17.8.6-35.4-3-53.2-2.4-15.7-2.5-31.7-1.2-47.5-3.5-16.6.1-32.7-2.8-49.3-2.3-14.7-3.2-30-.5-44.7-4-17.6 2.3-35.1-4.2-52.6-.9 1 6.1-3.1 17-6 6a58 58 0 0 0-14.2 23.4c.6-13.1-10.2-13-19.6-12.4q-34.7-2.5-69.2-4.7-28.8-2.4-57.5-3.7c-13.2 0-31.6-5.8-41.7 0-2 17-6-9.3-16.8-1.1-42 6.4-83.7 14-125.7 20-20.7 7.5-33.1 27.9-49.3 42.2zm853-180.5q-21-2.3-42.2-2.6c-22.8-1.8-45.7-2.8-68.5-4.4-27.6-1.7-55.2-2.9-82.7-5.2-23.7-.4-47.3-3.2-71-4-25-1.1-50-3.6-75.1-4.4-29.2-2.7-58.4-3.4-87.6-5.6-18.1-.7-36.3-1.4-54.3-3.7-26.7-.7-53.4-3-80-4.2-24.4-1.1-48.7-4.1-73-4.2-14.2-3.3-36-5.5-29.3 15.6 2.8 27 4 54.6 6 81.9 1 9.7-1.4 23 9.8 27 6.1 2.8 13.9.1 20.6 1.3 24 2.9 48 3.4 71.8 5.7 22.5-3.5 51.5 12.6 70-2 7-10 15.5-19.8 28.4-15.5 27.5 2.5 55 3.3 82.6 5.7 30.8 2.3 61.6 3.7 92.4 6.2q44.9 3 89.6 5.7c15.8 2.2 31.6 1 47.4 3.6 17.2.7 34.4 2.1 51.5 2.9 12.7 1.9 25.7 1.6 38.4 2.7 13.5-20.8 24.2-44 36.6-65.8 5.9-12.3 14.5-23.8 18.6-36.7m46 775.8c16 4 32.5 2.4 48.6 5.2 24 1.1 47.6 4.6 71.5 6 15.6 2.3 31.7 2.5 47.5 4 14.2 3.4 29 1.7 43.4 4.8 13 1.3 26.6-1 39 5.1-13.2.1-26.2-2-39.3-2.6q-30-3.4-60.3-5.3c-19.7-2.3-39.5-3.6-59.4-5.7-17.1-.8-34-3.2-51-4.1-13.4 1.3-32.5-7.3-42.3-.3-10 33-22.2 65.7-30.9 99.2 28.3 13.7 56.2 29.5 87.6 34.4 48.4-2.8 93.9-23.1 142-27.8 12.9-4.3 35 8.3 42.3 0 11.7-60 25.2-119.8 36.4-179.9-14.8-8.7-38.4-5.1-56.4-8.4-26.4-2.6-52.9-4.6-79.3-7.5-17.5-1.2-35.1-4-52.7-4.9-7.6-4.3-12.5 13.3-13.5-.5a186 186 0 0 0-41.7-3.8c-5.8 3.5-5.4 12.3-8.4 18.2-8 17 21.1 9.4 32.2 12.8q37.1 4 74.4 6.2c19.3 3.1 39 3 58.5 5.3 25.9 2.9 52.1 3.9 77.8 7.6-4 4.3-17.3.3-24.5.4-19.1-2.2-38.7-2.5-57.9-5q-25.4-2.4-51.2-4.5c-20.3-1.8-40.6-4-60.8-5.5-17.5 1.6-39-10-53.5-.5-1.9 7.5-6.4 14.6-5.8 22.5 18.3 2.5 36.9 3.4 55.3 5.6 13.9 1 27.8 1.5 41.4 3.9 16.4.5 32.5 3.2 48.8 4 20.5 3 41.5 2.7 61.9 6 10.4.4 20.8 1.7 31.2 2.5 2.7 5.5-12.3.6-16.7 2-21.5-3-43.2-4.1-64.7-6.3-31.5-1.5-62.7-6.5-94-8.2-18.7-2.3-37.6-3.6-56.3-5.6-11.2-3-11.8 7.8-14.3 15.4zM990.2 1504c3.8-10.9-2.7-22-1-33.2-4.5-16.3 5.8-24.8 24.3-16.6 9.5 4.2 4 21.8 6.9 32.7 1.2 6.4-.3 13.7 3 19.3 7-.6 20.1 6 18-5.8-2.7-13.8-1.6-28-3-41.9 15.7-4.7 34 1.2 29.7 21.2 1.8 12.5-3 38.4 18.4 31.7 1.3-25.1-3-50.2-3.6-75.3-4.6-12.7 6.6-40.7-14-38.9-16.2-1-32.2-2.7-48.3-4-13.5-1.6-27.3-1.5-40.7-3.7q-24.7-1.2-49.2-4.1-24.4-1.4-48.6-4.2c-13.6.4-27.1-2.7-40.7-2.6-14.5-1.4-29-3.6-43.6-3.5-17-3-34.4-3-51.5-4.6-14-1-27.6-3.6-41.6-3.3-15.4-2.6-31-3.3-46.5-4-16.4-1.8-32.9-3.7-49.5-4-13-2.8-26.3-2-39.3-4-15.6-.6-31.2-3.4-46.8-3.6-6 4.4-.8 14.5-1.1 21.6l8.3 70c8.2 4.8-6.7 26.2 13 22.8 8.3-8 4-29.1 2.3-42.2-3-9 30.8-7.8 25.5 6.4 4.2 14.3-5.5 43.4 17.7 39.5 1-10.5-2-21.1-1.1-31.8.6-5.6-3-18.4 6.4-16 9 2.2 24.3-2.7 17.7 16.6 1.5 14.2-2.7 39.2 19.3 33.4 4.7-14.5-7-39.3 4.5-47 12.2-.5 20.3.3 19.5 15 2 15.7-2.5 41.5 20.9 36 5.5-13.7-8.4-38.6 2-47.7 7.9 1.1 16.9-1.1 23.7 3.3.1 14.5.7 29.2 3.3 43.4 6 8.2 26.4 7.7 20.3-7.6-1-11.5-9.3-44.4 11.5-32.8 21.5-7 21.8 22.9 18.8 40.6-2 13 22.8 14 25.8 6.7a539 539 0 0 1-2.9-37.7c-.3-17.7 11.2.2 9 9 1.1 12 1.3 41.2 13.8 19.1-2-9.7 3.6-28.9-10-30.1-3-5.8 8.7-3.5 12.7-4.8 5.3 7 1.8 19 4.2 28 1.3 7.4.2 15.8 3.1 22.6 15.4 7.7 22-2.3 16.3-16.3 2-9.1-6.1-30.6 6.3-31.1 7.5 1 22.8-3 20.5 9.5 3.9 14.8-5.4 44.3 16.7 43.7 14.8.3 6-24.5 7.1-35.4-4.4-11.5 2.1-17.8 11.9-13.5 28.3-4.3 10 36 20.8 51.5 11 2 28 5.3 20.7-11.5 1-13.7-10.7-43.1 13.7-35.1 23.1-6 13 24.2 18.1 37.8-3.6 15.2 9 16 19.4 15.9zm89.4-349.1c12-5.4 25 1 37.8.7 10.2 1.3 21.2-.2 30.8 4 6 5.3 2 38 4.8 16.5.7-12.2 2-30.6-15.9-24.6-17.5-1.8-35-2.9-52.5-4.2-26.7-2.3-53.4-4-80.2-6.2-18.6-1.2-37.1-2.1-55.7-3.7q-26-1.6-52-4c-15.7-.3-31.4-2.2-47-3.2-15.2-.4-30.1-2.3-45.2-2.9-15.5-2.3-31.4-1.7-47-3.9-21.6-1.1-43.2-3.2-65-4.4-24.1-2.3-48.4-3-72.5-5.5-25.7-1.2-51.4-3.8-77.1-5.6-16.6 1-40.9-7.7-53.2 0 10 4.6 25.9.5 38.1 4q29.1 1.9 57.8 4.4c15.6-.5 31.5 3.9 47.3 3.6 16.8-3.1 23.5 6.7 22 22 1 9.6 7.6 29.1-9.6 25.1-26.7-.5-53.2-4.9-79.4-5.8-17.6-2.7-35.6-2-53.3-4-12.6 3.3-18.7-3.9-18.6-15.3-2.8-11-.3 12.4.1 17.6 2 29.8 6.8 59.4 8.6 89.2 3.8 32.1 6.2 64.4 10 96.4 12 9.1 31 1 45.1 6q24.7 3 49.5 4.3c18.8 2.9 38 2.4 57 4.7 23.5 2.2 47.2 3.8 70.6 6.7 15.4-.3 30.4 3.1 45.9 3 29.6 2.6 59.2 5.6 88.7 7.9 27.2 2.3 54.7 3.5 81.7 7 18 .7 35.7 3.2 53.7 4.3 17.7 1.5 35.4 3.3 53.3 4.4 24.2 2.4 48.5 4 72.8 5.9 9.2 1.7 24.3 2.7 29.7 0-2.4-21-1.4-42.5-1.8-63.8-3.8-28.4 0-57.2-3.7-85.6l-.3-49.5c-9 4-19.3-.3-29 .3-13.3-3.4-29.4-1.2-41.3-6zm110.1-50.7c-.1 14.1 2.2 28.2 1.5 42.4 0 20.7.1 41.4 2 62 .5 22.6-1 45.4 2 67.8.2 19-.2 37.9.6 56.8 8.4-.1.4 19.9-2 20.4-11.2 9.6-20.3 32.8-27.8 48.6 15.8 3.6 32.3 3.4 48.4 5 18 2.2 36.6 3 54.8 4.4 15.5.9 30.7 3.3 46.2 3.8 27.3 3.2 54.8 4.7 82.2 6.8 15.5.3 4 25.4 8.5 36.7 2.2 10.9-4.5 36.7 14.3 30.4 1.4-22.6-.5-45.7.9-68.2 1.8-7.6 15.3-21.6 6.2-23.6q-25-3-50.1-4c-16.6-2-33.4-2.6-50-4.1-14.3-1.6-28.7-1.3-42.9-3.7-9.5-2.5-32 4.5-31.6-8.8 0-15.3.4-30.5-1.7-45.6 0-19.6 0-39.2-2-58.7 2-18-4.2-38.3-.4-54.8 3-6.2 7.5-9.3 14.5-7.2 18.5 0 37 2.3 55.4 2.4 17.8 2.5 35.8 2.2 53.6 4 14.8-2.4 36.5 7.3 46.4-1.9 4.6-31.4.3-63.5 3.8-95-18.8-8.8-42.3-3.8-63-6.7a2812 2812 0 0 0-75.1-4.2c-23.8-1.5-47.6-3.6-71.4-4.2a50 50 0 0 0-23.3-.8m-291-296c22.9-1.9 46-2.7 69.3-1.3 20 2.3 40 3.2 60.1 4 20.4 1.2 40.7 2.2 61 4 15.8 0 31.5 3 47.4 2.2 24.2 2.4 48.5 3.1 72.7 4.4 18.3 1.7 36.8 2.1 55.2 3.5 18.2-1.8 44.8 7.6 58.2.2.7-7.4-.8-15.6 5.3-21l19.1-26.7c16.8-1.2 33.4 2.7 50.3 1.6 20.6 3 41.6 1.5 62.2 4.5.3 9.1-.5 18.4.4 27.4 9-12 16.4-27.1 23.7-40.9 5.3-8.5 8.6-17.1-4-14.5-17.3-2.4-34.9-.8-52.2-3.5-14-.3-28-.6-41.9-2.3-19.1-.2-38.1-2.5-57.2-2.2-19.3-2.9-39-1.3-58.2-4-25.4 0-50.6-2.7-76-3.8-15.6.2-31.1-3.2-47-2.1-23-1.4-46-3.1-69.2-4-21.6-2.1-43.3-2-65-4-26.6-.4-53.1-2.8-79.7-4.1-14.6 2-46-12.6-39.6 14 2.5 22.8 1.5 46 5.1 68.6m715.9-.4c-18.6-.7-37-2.6-55.7-2.7-12.3-6-17 5.6-20.8 15-43.6 91.8-89 182.8-133.1 274.2 1.9 19.1-22.3 5.8-34.6 8.2-25.3-2.2-50.7-3.1-76-5.2-24.2-1.1-48.5-3.5-72.8-4.7-24 1-57.4-14-67.5 16.3-7.5 8.6-13.8 23.2-16.7 29.3q-19.3-.7-38.5-2.8c-15.3-.5-30.3-2.5-45.7-3q-34.8-2.9-69.4-5.2c-14.1-1-28.4-1.3-42.4-3.4-17.8-.5-35.4-2.3-53-3.5-17-1-34-2.6-51-3.5q-27-2.7-54-4-23.9-2.1-47.6-3.4-26.1-1.7-52.2-4.1c-22.2-1-44.3-3.3-66.4-4.3q-25.6-2.8-51.6-3.7c-14.1-6.5-35.3 4.6-46.5-6.6 15.2-1.4 23-18.5 34.7-27.3 11.5-11.7 23.6-22.7 34.5-35 14 .2 28.2-2.7 42.3-5q58.2-9.8 116.3-19.3c8.9 7.8 21 3.7 31.6 5.6 43.2 3.9 86.5 6.5 129.8 9.5 13.2 3.4 24 .8 30.7-11.3 4-4.8 8.7-13.7 15.1-7 19.6-.4 39 2 58.5 2.7l83.9 5.1c13.7 0 27.3 3 41.2 2.3q33.6 2.6 67.2 4c29.7 3 59.6 3.5 89.3 5.8 26.2-.6 54.2 7.3 78.9 1.7l62.5-115.8c-18.8-6.3-41.3-3.4-61.6-5.7-30.2-2.3-60.5-3.2-90.7-5.7-26.4-1-52.8-3.2-79.3-4.1-29.6-2.3-59.3-3.6-89-5.7-20.4-.9-40.9-1.7-61.3-3.8-22.8-1.2-45.5-2.2-68.4-4.1-28.3-.4-56.5-4-84.9-4.5-23.3-1.7-46.7-2.6-70-4.2-14.7-2.4-29.7-.4-44.4-3.2-5.8-1.1-26 3-16.9-7.7 13.5-9.8 21.6-30.4 40-29.7 36.8-5.7 74-8.8 110.8-15 11-1.8 22.4.3 33.6-.1 33.2 3 66.4 4.4 99.6 6.6 27.4 1.8 54.8 3 82 5.3l75.7 4.3c21.5 2 43.1 3 64.6 4.1a389 389 0 0 0 44 2.2c-11.9-8.3-33.6-2.5-49.2-6.1-16.1-1-32.3-1.6-48.3-3.1-22-.9-44.1-3-66.2-3.9-17-.8-33.9-2.7-50.9-3.2-17.4-1.6-34.9-1.6-52.2-3.7-17.1-.3-34.1-2.2-51.1-2.7-18-1.4-35.7-3-53.6-3.6a117 117 0 0 0-35.4.8l-129.6 17.4c-15 11.7-28.7 25-41.5 39 5.1 5.8 20.3-.4 29 3.4 17.6 1.3 35.3 1.3 53 3.2 24.8 1.3 49.7 3.2 74.6 4 17.5 2.6 35.5 2 53.1 3.8 26.6.5 53 3.8 79.6 4.5 22.3 1.8 44.8 2.6 67.1 4q31 2.8 62.3 3.7c18 1 35.8 2.6 53.8 3.7 24 .4 47.7 3.2 71.7 4 22.3 1 44.6 3.5 66.9 3.9 16.7 2.3 33.7 1.7 50.5 3.7 16.8-5.5-2.4 15-4.6 22.2l-45.6 86.1c-25 .6-50-3.7-75-3.9q-53.5-3.9-107-7.5c-25.4-1.1-50.7-3.5-76-4.9q-48.6-3.4-97.2-6.5c-19.8-1-39.9-1.4-59.4-4.4-6.8 2-10.8 9.7-16.5 14.1-4.5 3.7-7.7 10.9-14.5 8.3q-39.6-2.5-79-5.6c-15.5-.8-30.9-2.7-46.5-3.1-15.1-2-30.8-2.5-45.8-2.9l-166.5 26q-30.6 29-61.7 57.7c-5.3 7.5-29.7 21.2-.4 18.8 16-.3 32 1.8 47.8 3.5 17.1.6 34.3 2 51.3 3q24 2.2 47.7 3.4c15.1 2.3 30.6 1.3 45.7 3.9 15.6.6 31.1 2 46.6 3.1 16.5.5 32.7 3.4 49.2 3 16.7 2.4 33.6 2.7 50.4 4 15.2 2.2 30.6 1.3 45.8 3.9 16.3-.1 32.5 2.3 48.8 3.1 16.3.7 32.4 3 48.7 3.4 27 2.7 54.3 4.4 81.5 6 20.7 2 41.7 2.5 62.5 4.3 11.3 3.6 22.6 2.4 26.8-9.5l22-33.3c-5.5-5.7 7.6-8.7 10.3-3.9 11.8 0 23.6-.2 35.2 2 25.3.2 50.5 2 75.7 4 28 .2 56 4 84 4 13.3.7 35.8 8.7 40-8.7 33.5-74 69.6-146.8 103-220.8 11.4-23.8 22.8-47.4 33.2-71.6 15.3 1.6 30.7 2 46 3.3 8.4-1.2 19.9 3.1 25-4.5 8.4-20.4 18-40.6 25.4-61.3-4.9-2.8-12.3-1.5-18.2-2.7q-21.7-1.6-43.2-3.9c3.5-4.6 4.8-13.8 10.3-15 19.5 2.4 39.3 1.6 58.8 1a343 343 0 0 0 22-54.8c-13-5.5-28.4.2-42-3.7-16-1.2-32.1 0-48-2.5-20.3 1-40.4-3-60.7-2.3-19.7-2.9-39.8-1.6-59.6-3.7-17.7 1-35-3-52.8-2.1-20-2.5-40.3-1.1-60.3-3.6-14.5.6-28.5-2-42.8-2.3-6-.2-27.4 0-12 1.4 28.9-.3 57.5 4 86.4 4.3 22.8 1.6 45.5 3.2 68.3 4 23.6 1.9 47.2 3 70.7 4.5 18.6.6 37 2.5 55.6 3.4q39 2 78 4.5c3.7 4.8-3.7 11.7-4.8 17.4l-13.6 31.2c-21.5 4.2-43.6-4-65.4.1-1.8 8.1-19.7 24.2-1.8 24.1 16 3.6 40.5-.5 53.2 5.3-9 18-15.7 37.4-23.5 56M1946.4 910c21.2-1 42.5-1.5 63.4-5.2 19.7-2.6 39.6-4.2 59.3-5.9 12.6-.2 24.9-2.7 37.5-1.8 20.9.4 42-1.3 62.7 1.8 16.3-1 32.5 1.9 48.6 3.1 18.5 1.9 37.3-.2 55.6 4 55.7 6.8 110.8 17.5 166.3 26 31.4 5.6 63.9 14.2 95.5 6 19.3-3.5 22.2-25 26-40.7 3.2-19.3-14.5-34-28-44.9-60.8-42-135.6-55.8-207.7-62.9-20.8-1.3-41.4-5-62.2-4.3-28.9-3.3-58.2-.9-87.2-1.7-15-.1-29.8 2.4-44.9 3.2-33.5 3.2-66.5 10.4-99.4 17.5-16.1 4.7-33.8 5.4-46.3 18-11.5 8-16.6 21.5-26.1 31.4a137 137 0 0 0-21.9 51.3c-1.8 5.3 6 3.6 8.8 5m718.6 374 172.8 607.9c9.6 2 .3 9 5 12.1 12.6 6-8.7 6.9-13.3 4.2-26.1-3.7-52.6-6-78.8-8.5-4.6 2.5-14 1.3-15.5 6.2 12.7 7 32.6 4.5 48 7l102.2 10c13.8 5 4.3-10.4 3-17.7-45.2-149.7-92.1-299-137.7-448.6l-55.2-179c-18.4-10.8-44.1-5.6-65.6-10.3-15.6.2-31-2.7-46.6-2.6-14-2-28.1-2.1-42.2-3.5-16.6-1.5-33.3-2.2-50-3.9-14.6-.5-29.3-2.3-44-3.2-14.1-.6-28-2.3-42.2-3a1184 1184 0 0 0-52.5-4c-10.2-1-27.1-6-24.3 9.8 7.5 6.1 24.4 2.7 35.4 5.6 22 .1 44 2.8 65.8 4a29 29 0 0 1 17.4-1c4.5 5.5 12.6 2 18.8 3.3 13.5.5 26.9 2.2 40.3 3 17.6 1 35 1.7 52.6 3 23.3 3.3 47 1.8 70.3 4.8l18.8 1.1c4.8-5.9 10.2.1 15.4 2.2zm-407.2-268.3c-8.3 10.7.7 33.5-12 38.6-5.8-12 4-31.5-1-38.8-27.3-2.4-54.5-4.7-81.8-5.5-8.3 10.5-2.8 31.7-13.7 37.7-6.5-12.2 10-34.7-4-38.8-22.1-1.7-46.7-5.5-66.9 0-6.1 8.3-4.3 30.6-13.6 31.1-5.2-12 8.8-29.7 1.3-36.6-24.5-1-49-3-73.5-3.7-13 8.4-3.3 35-16.8 38-7.9-11.4 7-31.4 3.3-40-23.5-.2-46.8-3-70.2-4-14.3 5.7-20.2 32.8-16.2 44.8 23.6.2 47.3 2.6 70.8 4.4 23 1.3 46 3.3 69.2 4.3 26 3.2 52.3 3.1 78.4 5.8 12.8 1 25.6 2.3 38.5 2.4 20.7 1.3 41.2 3.8 62 4.1 21.4 2.1 42.7 3.3 64.2 4.6l62.2 4.5c17.5 1.8 35 1.7 52.4 4.1 27.8 1.6 55.6 4.2 83.5 4.3 37.2 2.8 74.5 4.5 111.7 7.9 26.7 6.8 15.2-27.1 14.8-42.2-1.4-8.8-13.5-4.4-20.3-6.2-15.5-.4-30.8-2.1-46.1-3.3-13.1-3.8-15.1 5.7-13.4 15.6-.8 8.6 2.8 18.7-2.5 26.2-15.5-4 6.2-42-12.9-43.3-4.2 3.3-8.2 12.8-14 7.7 6.6-16-22.9-7.2-31.8-10.5-12.7-.8-38.8-8.9-27.2 18.5 2.2 7.3-1 31-7.6 14.3-.5-11.3.1-22.6-.7-33.9-14.7-3.6-30.2-3-45.2-4.5-15.5 1.7-44.6-11.8-41.8 14.6-2 7.7 2.4 17.7-3 24.2-15.7-5 4.5-37.7-8.1-42.4a794 794 0 0 1-65.5-4.1zM1448 1235.5c-17.8-2.6-35.8-2-53.5-4.4-27.8-1.2-55.4-3.9-83.3-5.6-19.1.3-44.5-6.6-59.7-.7.8 14.2 2 28.6 1.6 43-.5 12 1.3 24 2 36-1.3 23.4 2 46.6 2.1 70 5.4 15 31.6 5.7 45.8 10.7 15.2.5 30.3 2 45.4 3.6 16.7.6 33.3 2.3 49.8 3.6 14.9.6 29.5 2.8 44.4 2.9 12.5-6.7 3.2-31.7 6.4-45.9 0-37.7 1.4-75.5-1-113.2m483.5-291.3c29.1 1.1 58.4.7 87.5.2 15.2-2.1 30.6-2.3 46-3.5 26.5-3 53 .7 79.7 0 15.3.7 30.5 2.2 45.8 3.3 24.2 4 48.7 4.5 72.7 9.3q53.5 7 105.8 19.7c43.2 9.3 87.2 20 131.6 14.7 13.8 0 23.8-8 29-20.2 5-9.5 11.5-18.5 15.7-28.3-6.4-1-24.1 6.1-35.6 5.8-23.6-.2-46.5-6.8-69.8-10.1q-78.8-13-157.6-25.6c-33-3.5-66-5.3-99.2-7.5-26-1.4-52-.3-78.1-.6-20.7.1-41.4-1-61.9 2.7-23 1.6-45.8 5.9-68.9 7.3-13.6 5.5-40.8-7-41.5 12.8a51 51 0 0 0-1.2 20m889.6 946.5c-3.3-17.6-9.5-35-13.9-52.4-50.4-179.7-100.4-359.4-151-539-6.2-11.9-26.9-7.6-39.3-7.3 2.4 18.4 9 36.1 13.2 54.2L2674 1515c7.6 20 10.2 43.2 17 64.7q25.5 100.2 52.4 200.1a65.5 65.5 0 0 1 43.6 59.6 72 72 0 0 1-15.3 46.3c16.4 1.8 32.8 5.2 49.4 5M989.8 1744c16.2 6.5 34 9 51 13.2q62.5 12.8 126.3 18.2c14.9 1.7 29.8-2 44.8-1 30 .1 60.1-1.7 89.8 3.5l14.4-.4 34.3-91.3c-9.7-9-28.8-4-42.4-7.4-17.6 3-51-17.5-51.7 11.4-2.7 23.5-40.2 26.5-27.3 52.7-.3 10.9-13.8 14-21.2 9.8-7-5-4.7-14.4-6.7-21.7.2-13.7-19.8-12.2-26.1-23-11.4-10.5-15.2-26.2-18.3-40.7-4.6-4.5-13-1.7-19.3-3-13.6-.4-.7 24.4-10.4 32.7-6.8 21-41.6 21.6-28.1 48.7-.7 10.1-15 14.2-21.4 7.8-11.6-7.4.2-27.3-13.5-31.6a60.5 60.5 0 0 1-34.6-61.9c-4.5-14.4-3.9 13.6-5.8 18-3.7 23.2-39.7 27.3-28.2 53 .7 5.4-2.8 9-5.6 13m577-930.1c-3.1 9.7-.9 20.7-1.6 31 0 30.3-.2 60.6-1.8 90.8-.6 45.2.2 90.4-.8 135.6-2.7 19.5-.4 39.2-2 58.8 13 0 25.8 2.6 38.8 2.6 8.3-.3 16.7 1 24.8-1 1.3-16.9 3.3-33.5 2.6-50.4.7-21.2-1-42.5 1.1-63.5 2.2-34.1-.7-68.6 2.8-102.7.6-29.5-1-59.1 2-88.5 2.5-10.8-9.6-12.2-17.7-11.3-12.8 0-25.5.6-38-2a86 86 0 0 0-10.1.6m363.3 169.2c22.4 7 45.7 1.6 68.6 1.2 13.8-1.7 27.6-2.5 41.5-3.4 43 .2 86-.4 128.9.2q26.5 3 53.2 6.4c37.8 5.5 75.8 9.6 113.5 16 25.7 3.2 51.5 7.2 77.4 8.1 11.7 3.7 21.7 12.2 35.6 10.9 16.8.8 34.3.3 50.4-5.2 6.3-7.8 17.7-22.7 15.7-29.3a133 133 0 0 1-53.2 3.3c-59.6-2.4-116.3-23.6-175.2-31.3-23.8-3.4-47.4-8-71.3-9.8-50.7-8.4-102.2-7.2-153.4-6.7-16.2 2.5-32.7 1.5-49 3.8l-76.4.1c-13.7 1-5.6 25.4-6.3 35.7M789 862.5c21.4 2.8 43 2.4 64.6 4.4 23.4.6 46.7 3.1 70 3.8 20.4 1.8 40.9 2.4 61.2 4.1 24.6 0 49 3.3 73.5 4 26.2 1.3 52.4 3.4 78.6 4.6 22.9 1.8 46 2.6 68.8 4q31 2.8 62.3 3.7c16.4-2.2 39.3 8 52.8.2-.6-12.4 1.6-25.2-1.2-37.3q-40.8-1.4-81.6-4.6c-22.2-.6-44.4-2.8-66.7-3.9-15.5-.4-31-3-46.7-2.4a758 758 0 0 0-59.6-3.4c-16.6-3.4-33.6-1-50.2-4.1-15.5.9-30.6-2.4-46-2.4-19-1.1-38-4-57 0L823.2 845c-7.2 1.3-15.2 1-22 3.3-3.7 4.9-10.5 8.3-12.2 14.2m115.7 789a78 78 0 0 0-44.4-27.3 410 410 0 0 1-80.3-12.4 786 786 0 0 0-90.6-13.3c-11.7-2-23.9-1-35.5-3.5-9.4.3-19.1-.7-28.3.4-7.4 4.8-16-2.7-24.8 1.8-16.8 2.8-34.3 9-50.9 1.3-19.6-5.4-38.8-12.9-59.2-15.2-13.3 3.3-36 3.4-38.2 20.7 9.7 15.4 33.6 15.5 49.5 22.9 29.7 9 60.6 13.5 91.6 14 17 3.3 34.6-.3 51.6 3.4 18.5-.4 36.8.8 54.8 4.9 26 3.6 51.6 9.2 77.8 10.3 33.6 4 67 10.5 101 10.3a36 36 0 0 0 26-18.2m1442.7-347c-21.6-.6-43-.7-64.5-3.3q-20.7.2-41.3-2.2-25.1-1.3-50.4-3c-13.1-3.3-36.4 2.9-43-7.3-.5-13.2 5.7-39.6-16.3-33.3-21.4-.9-42.8-2.9-64-4.4-26-4-11.5 31.3-15.4 46.7-2.2 11.8.3 23.5 15 19 16.5 2.4 33.4 1.6 50 4 16-.2 31.8 2.7 47.8 2.5 16.5 2.3 33.2 2 49.8 3.8 14.7 1.6 29.6 1.2 44.3 3.4q28.5 1 56.8 3.8c16 0 31.6 2.5 47.5 2.5 16.1 2.2 32.6 1.4 48.7 3.9 9.5-3.3 36.6 10.2 32.8-6.6-3.6-18.8-5.4-38-10-56.6-21.6-.5-42.8-4.3-64.3-5-9.4-.5-28.8-8.5-24.4 8 .7 8 3.5 16.1.9 24m-131.3-525.8c-1-21.3 3.2-42 7.7-62.6q5-25 11.7-49.5c-16.5-7.9-38.4-4-57.7-5.2q-26.5-.2-52.4 5.2c-19.8 36-31.5 77.8-25.6 119 14 1.2 28.4-3.8 42.8-3 20.7-3.8 42.1.5 63-3zM1560.9 829c-6.1 4.9-7.5 13.9-11.5 20.6-39.8 85.9-80.4 171.4-120.3 257.2-3.5 12.6-3.4 25.9-3.8 39-.5 19.6.7 39.4-2 59 1 13.3 5.3-4.8 8-9l95.3-218.3c13-1.4 37 8.5 32.3-11.7-.8-20.5 2.5-40.9 1.8-61.4zm-107.4 553.4c11-22.5 18.7-46.5 28.2-69.7 6.6-28.3 11.2-57.3 19.6-85.2 17-44.6 33.2-89.4 50.4-133.8 7.1-14.6 2-32.6 4.8-48.5 1.2-17.7.2-35.5.2-53.2-20.9 45-38.8 91.4-58.7 136.8-14.7 35.1-30.8 69.8-43.8 105.5-2.4 31.8-.5 63.8-1 95.7.2 17.5-.5 35 .3 52.4m-881.4 261.3c-22-3.5-44.3-6-65.9-12.4-19-6.4-40.4-9.3-56.1-22.5-4.6 2.4-3.5 12-5.7 17.2-1.3 10.8-8.6 23-1 32.8 8.9 5 30.9 22.3 36.2 9.5 2-12.4 3.1-24.9 4.5-37.3 12 12.7-23.2 69.5 33.5 51.4 25.2 3 50.5 3.4 75.8 6.2 28.8 3 57 12.8 86 14 12.8-7.7 2.8-32.4 5.6-46.9-6.5-13.7-31.5-6.3-45.5-9-19.3-3.1-39.3-.5-58.6-3.8-8.8 4.5-4 17-5.5 25.5-3.7 17.6-4.8-16-2.5-22.5zM2241.6 664c-6.9 17.9-10 37.3-14.3 56-2.6 19.2-7.4 38.7-5.7 58 5.3 5.5 16.2 1.9 24 3q20.2-.4 40.2 2c17.3 1.6 36 5.5 35-17.8a615 615 0 0 0 9.6-76.1c3.6-16-15.5-14.2-26.1-16.6a693 693 0 0 0-62.7-8.5M1998 808c23.7-7.6 48.6-10.5 72.8-16.4 16.5.1 31.6-6.5 21.8-26.4 2.4-19.3 3.3-38.8 10.1-57.2 2.5-13.2 16.2-30.6 15-40.2-29.9 3.2-58.7 14.1-86.1 26.2-18.2 13.4-25 38.4-31.4 59.5a149 149 0 0 0-2.2 54.5m577.9 1073.4c3.1 10 22 14 26.6 2.7 6 8.8 21-.2 28-6.4 16-13.6 24.5-36.4 16.7-56.6a51 51 0 0 0-36.7-37.7c-24-10.5-52.5 1.2-67 21.7-19 24.6-5.6 61.3 19.4 76.1 4.7 3.4 9.7 6.3 13 .2m192.1-81.5a52 52 0 0 0-68.3-6.9c-17 12.5-30.2 34.5-23.4 56 2 12.2 14.2 46.3 31 40.5 3.8-2.7 4.2 13.5 14.8 9.6 7.9 6 10.5-10.2 14.3-.6 29.3-2.4 49.5-33.8 45.6-62a83 83 0 0 0-14-36.6m-416.7 55.4c13.5-12.5 25.4-29 23.2-48.4 3.1-30.6-23.8-61.6-55.7-58.3-27.3 1-48.2 27.3-50 53 1.4 21.6 12.1 44.8 32.3 54.4 9.1-9.3 7 10.2 19.9 6.3 8.9 1.9 8.8-9.6 15.5-2.4q7.6-2.1 14.8-4.7m153.6-84.7c-22.2-18.8-58.4-22.5-78.4 3.3-26 24.5-12.8 71 17.6 86 8.1-10.2 5.7 9.3 17 5.8 10.3 1 13.2-5.6 23.3-2.5a51 51 0 0 0 36-52.3c1.3-15.5-6.8-28.3-15.5-40.3m-387 59c5.7-2.4 9.5-9.8 14.2-14.2 24-30.5 6-85.6-34.8-89.8-26.3-6.1-50.6 15.1-58.7 38.8-7.1 25.5 8.8 58.7 33.5 66.4 5.6-8.4 6.7 11.7 17.6 5.8 8.7 0 9.5-10 16.7-2.4zM1442 1691.8c-15.8-4-32.4-3.3-48.6-5.3-12.5 2.2-33-9.5-39.5 2.4q-16.7 43.7-32.8 87.6c11.1 9.3 39.3 3.5 57.3 8 11.6-.3 22.3 5.3 33.7 7.2l30.3-97.5zm966.8-893.5c8.2-19.1 9.4-42 9.6-63.1 2.9-14.2 4.4-36.3-13.8-38-22.7-6.6-45.6-19.8-69.4-16.8a475 475 0 0 1-14.3 103c15.7 5.2 33.1 4.3 49.5 8q19.2 3.1 38.3 6.8M2213 1848c32.7-6.6 48.7-47.2 34-75.8-10.8-30-52.8-42-77.3-21.4a51 51 0 0 0-20.9 50 58 58 0 0 0 30 43.4c8.8-8.2 7.2 8 17.4 5.8 10 4.1 9.7-9.2 16.8-2m-203.6-47.6a65 65 0 0 0-8.4-64.2c-17-21.3-53.8-25-72.3-3.3-10.7 11.2-19.5 27.4-16.2 43.1a60 60 0 0 0 34.2 49c6-8.8 6.2 6.7 14.7 4.3 6.4 1.4 10.9-5.3 14.8-5 14 5.7 24.3-12.2 31.6-21.8zm-1511-296.7c-28.9-4.7-58-5.5-87-9.2-22.8-1.2-45.5-4.6-68.4-5.8-21.8-3.3-44-3.3-65.9-6.7-9.9-.2-22.3-5.2-30.1 1-5.1 7.3-20.6 26-10.4 31.3 16.2 1 32.2 3.2 48.3 4.2 13.8.9 27.6 3.4 41.3 3.4 20.8-8.8 39 7 59.6 5.6 13.6 1 27.5 3.2 41.3 3.2 15.3 1.2 32.7 6.6 47 1.8zm934.3-603.6c0-25.3.5-50.7-.7-76-16-3.6-32.5-2.8-48.7-4.8l-47.5-4.1c-15.7-.1-8.2 23.3-10.4 34.8 0 14.8-.4 29.5-.1 44.3 14.3.8 28.5 3.2 43 2.5 20.6.6 41.2 4.6 61.8 3.6zm13.8 332.5c18.5-30.4 29.5-64.7 44.2-97 21-49.4 41.6-99 62.8-148.3 4-9.3-10-4.6-15.6-6.5-7.3-2.8-10.2 1.8-12 8.3-34.2 76.3-66.3 153.5-100.6 229.7-4.5 5.5-13.4 1.4-19.9 2.5-17.3-.2-34.4-2.5-51.7-2.8-24-1.9-48.1-2-72-4.7-7.4-3-40.2.5-19.3 5.8 16.8 1 33.3 2.7 50.1 3.2 16.5 1.8 33 1.4 49.4 4 26.3 0 52.5 3.8 78.7 4.4l3 .5zm69.3-482.4c-19-3.3-38.2-1.7-57.2-4.5-17.4.6-34.3-3-51.6-2.1-21-3.4-42.3-1.4-63.3-4.2-20.7-1-41.3-1.7-61.9-3.8-17.6 0-35-3-52.7-2.5-23.1-1.9-46.3-2.8-69.4-4.1q-27.2-2.3-54.5-3.6c-22.4-.5-44.7-3-67-4-26.9-.4-53.7-4.2-80.6-4-10.2-5.2-33 3-36-6 5.8-9.4 16.2-15.3 23.6-23.6l35.7-34.2c25.8-.4 51.1-6.2 76.8-7.7 8 4.5-15.4 14.5.3 13.1 24.6 2.6 49.4 2.8 74 4.2 18.3 2.6 37 1 55.3 3.5 22 .2 43.8 2 65.6 3.9 10 3.4 15-4.5 20.5-11.1 4.4-9.3 13-8.3 21.2-10-17.3-2-33.2-1-42.3 15.6-7.1 2.7-15.6-.3-23.4.2-32-1.5-64-4-96-5.8-20.8-.9-42.4-1-62.4-4.9 7.9-3.8 23.2-19.7 5.4-13.3-22.1 1.3-44 5.4-66.2 6.8-15.7 4-34 .7-48.3 8.3-20.5 21-43 40-63.3 61.1-4.3 6.4 10.8 2.1 15.5 3.5 12.9 1 25.7 2.7 38.7 2 24.9 1.3 49.7 3.6 74.6 3.9 21 3.3 42.5 1.2 63.7 3.9 15.9 0 31.6 3 47.6 2.3 24 1.6 48.2 3.4 72.4 3.7 21.4 3.5 43.2 1.2 64.7 4 25.5.7 50.9 3.1 76.4 4 28.2 1.5 56.5 3.4 84.8 4.6 19 3.4 38.7-.4 57.6 3-2 14.4-13 27.5-19.3 41-5 11.6-15.6 22.2-15.8 35 1.3 5.7-1.6 14.3 2.7 17.7 12.1-1.8 13.7-21.6 21.3-30.6 10.6-21.1 22.8-41.4 32.8-62.8zm-827.2 951.3c18.4 4.5 38 1.5 56.2 7.2a380 380 0 0 0 70.2 12.6c12.3 4.2 29.6 5.8 22.5-10.8-.8-12.9.5-25.9-1-38.8-26.3-6.4-54-8.6-81.1-11-21.6-2.2-42.8-7.5-64.3-9.6-7.6 11.7-2.4 34.8-2.4 50.4m1728.4-902.4c29.2 9.2 59 17 86.5 30.9 1.8-28.3-1.6-57.2-9.2-84.5-6-21.8-32.7-24.2-50.4-33.7-7-1.8-23.6-14-19.3 3.4 2 20.2-1 41.1-4.4 61.4-.4 7.6-4.6 14.8-3.2 22.5m-1319.3 919c19-4.3 29-26 29.4-44-.4-26.7-20.6-54.4-49.5-53.5-31.7 1-54.3 39.5-39.5 67.6 5.4 12.1 17.5 30.6 31.3 28.2 5 .8 15.8 9.7 22.5 1.9 1-4.2 3.3-1.2 5.8-.3m145-143c-16-8.6-37.6-4-55.7-8.4q-37-2.8-74-6.3c-20.4-2.2-41-4.6-61.7-5.6-17.2-3.1-36.2-8.5-42 12.6-7.4 8.5-9.7 17.8 5.3 15.6q55.8 4.5 111.6 9.8c20.1 1.1 40.2 3.6 60.2 5.5 22-2 58.5 19.9 56.3-23.2m-59.1-465.7-25.2 37.9a321 321 0 0 0 .7 64.3c.3 22-.8 44 2 65.8.4 20.8-.9 41.7 2 62.3.3 18.2-.4 36.4.8 54.5l28.3-52.2c-2.8-29.4.6-59.2-3.2-88.4-.3-25.7.7-51.5-2-77.2-1.1-20.3 1.6-40.9-1.4-61q-.8-3-2-6m-216.1 501.8c-30.1 3.4-49.9 39.8-35.6 66.8 5.2 13 19.1 28.9 33 27.8 4.8-6.4 8.1 12.4 17.6 3.2 6.4-9 14.5.4 22.4-9.5 25.4-24 16.6-73.2-16.8-85.4-6.7-2.2-13.9-1.3-20.6-2.9m-799.1-18.8c6-11.3 6-24.4 7-37-5.3-29.6-40.1-50.5-68-36.9a46 46 0 0 0-19.8 63.5c7 11.4 23 31.8 37.6 22.6 4.3 9.9 18 5.5 22.5-.3 8 3.6 15.8-7 20.7-12M1228 1716.4c19-7.7 28.2-28.8 25-48.4a49 49 0 0 0-44-46.8c-28.3-1-51.9 29.5-44.4 57 4.4 16.4 17.6 39.8 35.2 37.1 4.8 1.7 18.6 10.8 22.6-1.3zm-861.6-100c22.8-10.2 28.5-39.9 20-61.5-9.6-25.6-42.9-39.5-66.5-24.4-11.3 7.7-21.3 20.4-22 34.4 1.2 5.5 12.8 7.5 0 9.5-2.4 13.7 13.2 22.9 15 30.1 6.5 11.6 20.8 12.8 28.9 13.1 6.3 9.1 17.3-2.5 21.8-2.5zm954-776.4c-17-1.1-33.9-3-51-3.7-15.4-.6-30.7-1.9-46.1-2.9-15.8-.8-31.5-1.5-47.3-3q-36.5-1.9-73-5c-31.8-1.6-63.4-3.9-95.1-5.9-24.6-1.2-49.1-3.1-73.6-4.3-44.1 4.6-88 11.2-131.9 17-6.1 13.8 6.1 12.4 14.9 10.3 37.5-3.8 74.7-9.9 112.2-14 27.4.8 54.8 2.6 82.1 4.5 27 1 53.7 3.6 80.7 4.4 28 2.2 56.1 3.2 84.1 5.5 14.6-.4 28.9 3 43.5 2.4 25.5 1.7 51 2.8 76.5 4.7 12.3 1.1 27.6 6.5 24-10m-1138 715.7c-3.9 20 .7 42.8 19 54.5 6.8 7.2 17 5.4 22.2 5.3 3.2 6 12 4.8 16.4 1.3 7.6-6.9 25.3-3.3 27-21 14.3-26.8-4-65-34.7-69a44.4 44.4 0 0 0-49.5 28zm1447-438c7.2-17.2 11.7-35.7 17.8-53.4 9.5-23.6 2.8-49.4 7.3-73.7.4-23.1-.8-46.4 2-69.4.5-21.2-1-42.6 2-63.6.3-24.8-.7-49.8 2.2-74.4-1.3-7.2 3-35-4.2-17.5-7.1 15.7-14.8 31.7-19.4 48.2a1035 1035 0 0 0-2.1 84.5c-.7 23.4-2.7 46.8-2 70.3q.4 29.6-1.9 59.1c-.5 25 .6 50.3-1.1 75.3-1.5 4.7-.7 9.9-.7 14.6M477.2 1535.2q20.8 3 42.1 3.8c16.3 2.1 32.9 2.7 49.4 4.7 24.7 2 49.5 3.6 74 7 17.1 2.6 23-18.3 32.3-29-13-6.6-40.5-4.3-59.2-7.9-22-2.1-44.1-3-65.8-6.5-21.3.3-48-13.4-59.3 11.5zm181.3 16.6c16.6 2.1 33.7 1.7 50.2 4.7 18.3.6 36.4 3.4 54.7 5 23.9.2 47.4 5.1 71.2 4.8h3L856 1538c-12-5.1-26.9-3.7-40.1-5.3q-34.9-3.7-69.8-6.7c-17.6-2.2-35.5-2.3-53-5.1-17.7-3.5-23.4 18-33.2 28.8zm1577.2-66c15.5-9.7 30.2 6.5 46.4 4.2 19.1.4 37.9 4.5 57 4.5 12.5-7.2-13.8-23.1-22.3-28.2a196 196 0 0 0-92.2-20.7c-22.2 1.4-46.5 4.7-63.6 20.3-11.2 10.7-1.8 17.6 11 14.8 21.2 1 42.4 4.6 63.7 5.2m-1155.8 129c23.4 7 48.1 8.4 72.1 10.6 11.4.3 24.5 5.3 33.9-3.3 12-11.6 32.1.9 41.5-7 8-18.6-25.2-8.2-35.6-13.7-18.7 0-37.1-4-55.7-4.2-31-3.1-62.2-5.5-93.2-8.6-14.9-.3-29.8-4.4-44.6-3-9.4 11.2-18.5 27.7 3.4 26.4 20 1.4 40 3.4 60 4.7zm1177.2-112a138 138 0 0 0-47-9.3c-15.8-2-31.7-2.5-47.4-4.8-19.8 3.5 26 33.4 24.5 30.1a198 198 0 0 0 92 19.6c24.4-2.5 58.2-5.6 66.3-33-22-4-44.7-3.3-66.8-6.6a40 40 0 0 0-21.6 4m-891-475.4c-20.4.4-40.6-1.8-61-2.6-23.8-2.2-47.6-2.4-71.3-5.3-15.5 1-30.7-2-46.1-2.2-27-1-54-3.3-81-4.8-27.3-2-54.5-2.8-81.7-5.2-21.4-1.2-42.8-2-64.1-4.4-20.3 1.3-4.6 19.3 7.7 14 22.5.7 45 3 67.6 3.7q23.7 2.1 47.5 3c26.8 2.2 53.8 2.8 80.7 5.2a616 616 0 0 1 56 3.5c33.6 1.3 67.2 3.6 100.9 6 16.8-1 34.7 5 50.8.6 1.6-5-3.7-7.7-6-11.5M1691.9 681c-7.4 17.4-17.7 34.7-20.3 54-1.8 19.5 1 39.3-2.4 58.7-.6 26.6 1.1 53.4-1.4 80-1.7 27 .3 54.3-1.6 81.4-1.8 16.6-1 33.6-.7 50.4 7-17 12.2-35 17.3-52.8a491 491 0 0 0 2-55c-.2-17.3 3-34.3 2-51.7-.7-15.8 1.3-31.4 1.9-47 0-22-.1-44 2-65.8.2-17.3-.2-35.3 1.2-52.2m-695 899c4.3-8.9 17.9-22.9 15.2-28.9-25.9-4.3-52.2-3.8-78-8.1-15-.5-30-2.7-44.9-4.1-15.6-2-31.7-5.2-37.5 13.2-6.2 8.7-13.7 19.8 2.8 16.2 17.3 2.7 34.6 3 52 5.5 20.2.8 40.1 4 60.3 4.6q15 3 30 1.5m995.2-768c.7-17.7-2.8-35.6 2.3-53a182 182 0 0 1 21.3-55.3c-15.9 2.7-33.4 16.7-43.3 31.5a153 153 0 0 0-31.8 91.3c2 9.3-3.3 36 6.2 35.7 12.4-18.9 25.4-38.4 45.3-50.2m-460 758c-21.4-4.3-43.4-4.6-65.1-7-20.2-2.3-40.4-3.6-60.6-5.9-22.3-1.4-44.5-4.5-67-6-14.8-2.5-29.8-2.5-44.6-4q-21.6-2.4-43.4-4-33.2-3.5-66.6-6.3-26.4-2.6-53-4.8c-31-3.2-62-4.9-92.8-8.8-19.6-1.3-39.3-3.4-58.8-5.5-18.2-1.2-36.2-3.4-54.3-4.7-24-2.8-48.2-4.3-72.4-6.5-19-2.7-38.4-2.8-57.5-5.7-31.2-1.2-62.2-7-93.4-7.3-1.9 9.2 23.8 4.8 33 7.5q33 3.5 66.3 5.9c19.7 2.5 39.6 3.9 59.3 6 19-1.3 37.7 4.7 57 4.9 27 2.3 53.9 5.5 81 7.3 17.3 3.5 34.8 1.8 52 5.4 20.7.6 41 4.2 61.7 5.1 30.7 4.5 62 4 92.8 8.9 12.7 1.2 25.6 1.8 38.1 3.9 16.3-.4 32 3 48.6 4 23.3 1.9 46.5 5 69.8 6.3q54.4 5.1 108.9 10c16-2 30.2 4.7 47 4.1 3.7-.2 16.2 5.6 14-2.8m1062.4-368.2c-3-23.3-2.5-47-5-70.2-11.3-7.9-29.9-4.1-44.2-6.7-12.4-3-30-4.3-22.8 13.6 2 19 2.6 38.4 5.5 57 6 3 14 1.6 20.7 2.8zm-447 568.3a55 55 0 0 1 25.8-26.8c21-.3 26.8-36.3-3.4-28.6-32.1-1.5-63.8-7.1-96-8.9-13.3-.7-27-5.1-40.2-1.8-4 20-4.2 40.5-5.7 60.8.8 12-6.4 32.1 1.1 39.4 19 4.3-3.3-20.2 3.3-28.4-.3-36.4 41-66.3 75.3-52.5 20 5.7 31.4 24.2 38 42.6zM638.7 1577.5c20.3 4.4 41 4.2 61.6 7 17.7.8 35.2 3 52.8 4.5 22.4.5 44.5 6.3 66.8 5.1l14.1-22.5c-12.8-4.4-27.8-3.3-41.5-5-38.3-3-76.5-7.3-115-9.8-19.1-8.3-29.8 5.6-38.8 20.7m1087-196a511 511 0 0 0-15.7 59.6c20.6 2.5 41.4 4.3 62 6.3 11-4.6 11.5 13 12.3 10.5 4.5-21.8 9-43.6 12.6-65.5 1.1-7-21.3-28-21.8-7.4-16.4-1-33-4.6-49.5-3.5m328.2-219.9c1.3-11.5-2.9-23.4.4-34.7 16.8 7.3 22.4-3.6 19.4-19.2 7-19.3-12.1-17.6-25.6-18.4-15.8-.7-31.8-2.8-47.7-1.6a369 369 0 0 0-.6 70.4c17.4 1.3 34.9 3.5 52.3 4.1zm105 96.8c-3.8 16.8 1.1 32.9 21 28.4 25.5 1.8 51 2.9 76.6 4.4 16.2 3.1 33.2.1 49.6 3.1 15.1 1 36.6 6.6 30.3-15.6-.4-16-14.2-2.8-23.5-5.8-5.8-12.6-28.3-2-40-7-27-2.1-54-3.7-81-5.7-10.6 8.9-21-6.6-33-1.8m260.7-142.2c-18.8-2.7-38-1.8-56.8-5-25.5-6.3-13.5 24.2-15 39.2 2.2 12-4.3 38.6 15 34.4 12-3 39.7 11.5 39.4-7.3-1.5-12.8-4-31 14.8-24.8 11.5-2.9 3-27 2.6-36.5m-191.8 58.6c2.2-10.8-.8-22.1 2.5-32.7 9.8-.6 22-1 18.4-14.5 1.8-13.4-.2-31.3-17.9-23.2-8.5-6.7-20.2-.8-30-3.9-12.3-2.9-30.3-3.7-26 13 .2 18-.6 36 .4 53.8 12.5 9 36.2 4.7 52.6 7.5M455.5 1562.2c25.4 1.7 50.7 4.8 76.2 6.6 20 2.5 40.4 3.2 60.5 5.9 18.9-1.3 43.4 12.5 52.1-11.6 13.1-11.7-3-10.5-11.8-11-23.7-.8-47-4.8-70.6-5.6-18-2.4-36-3.1-54-5.4-14.1 1-33.3-8.6-41.4 6.8-3.4 4.8-9.3 8.6-11 14.3m1460-410.5c15 2.8 30.4 1.6 45.4 4.2l18.4.2c-1-23.3.5-46.8-1.4-70-19 .9-46.3-10.8-62.4-1.5zm-141 348c-.4-13.1 3.7-26 1.4-39.1-4.5-7.5-18-1.1-26-4.2-22-2-43.8-3.5-65.6-5.5-18.8-1.2-11.1 27.6-12.6 40.6 14.4 8 37.7 3.3 55.7 6.8 15.9-1 31.4 4.6 47.2 1.4m-525.8 73.9c-3.2 11.7-23.7 37 6.3 30.9 15.2.5 30.2 3 45.4 3.9q19.8 1.3 39.6 3.8c12.3-1.6 29.7 7.8 38.7-1.7 2.5-8.2 7.2-15.8 7.7-24.4-16.3-3-33.3-2.2-49.8-5l-64.2-6.2c-8 1-15.8-3.9-23.7-1.3m-226.6-25.7c19.3 3.7 39.1 3.8 58.5 6.5 17.6 1.2 35.2 3.3 52.8 4.3 19 2.9 38.3 3 57.2 6 18.6 1 37.2 3.4 55.8 3 2.9-7.4 10.5-20.4-4.7-17-21.5-2.3-43-4-64.5-6.1q-32-3.1-64-5.8c-17.8-2.4-35.7-3-53.4-5.4-18.4-1.3-30.6-7-37.7 14.5m-198.4 48.6c21.1-.8 42 4 63.1 4.3 18.4 3 37.4 3 55.9 5.5 13.2-2.5 35 7.5 42.3-6.8 13.6-13.9 2.3-25.1-21.3-18.3-21.1-2-42.5-3-63.4-5.3-20.2-.7-41.6-6.4-61.1-3.7zm18.8 128.7 24 11.2c21.1-1.1 45.2-13.3 38.8-39.7 0-12.5.8-25.1-.7-37.5-13.3 16-35.3 15.6-53.8 11.5-16.9 1.4-6.2 27.2-9 40q-.1 7.3.7 14.5m524-81.2c5.6-11.4 13.4-30.6-6-27.4-31.8-2.4-63.3-6.1-95.2-7.9-12-.3-32.7-9.7-34.2 8.7-3.3 7 7.7 10 11.3 14.9 16.6 4 36.1 3.1 53.8 6.1 21.4 1.2 42.7 3.6 63.9 5.8zm1131-522.5c-17.9-.8-35.7-3.3-53.3-4.1-4.8 8.2-8.6 36.4 5.7 37.5 12-2.8 13.4 8.6 13.9 17.3-.5 12.6 1 25.2 17.3 20.9 11.6 2.6 27.5 4.6 23.3-12.5.4-15.6-2.9-31-2.2-46.7.3-4.6-1.2-9.4-4.8-12.4M1453 785.9c-15-.6-30-3.5-45.1-2.3-18.3-3.1-37-.8-55-4-8.5 6-26 26.7-21 33.1 17.7.6 35.4 2.4 53 4.3 15.9-.3 31.3 3.6 47.2 3.2 7-11.5 15.5-22 21-34.3m640.7 307.7c1.3 12.9-6.6 41.1 14.2 37.4 7.6 1.3 3.8 12 5.8 17.9 2.1 5.6-1.7 16.2 5.2 17.7 15.4 1 42.6 9.2 35.5-15.8-.5-17.4.8-35-.7-52.2-12.4-3.7-26.2-2-39-4.8-7-1.1-14-.5-21-.2M629.7 1582c-19.6-4.8-40-3.6-59.8-6.9-20-.6-39.8-3.6-59.5-5.2-17.7-1.8-35.5-2.7-53.2-4.8-14.7 3.4-21.7 22.1-32.6 32.3 26.3 15.5 38.1-25.4 66.6-16.8 26.4 2 51.2 12.5 76.5 20 18-6 39.6-5 56.2-11q3-3.7 5.8-7.6m1697.8-400c1.9-12.4-2.2-24.7-1.7-37.2-2.7-28.6 7-71.7-57.8-39-1.1 15.4-7.6 43.6 16.7 38.2 8.4 11-5 42.4 21 36.8 7.4-1 14.6 2 21.8 1.2m15.2 54.1q25 2.6 50.3 4c15.2 2.7 33 5 29-16.2 1.6-13.6 3-33.4-16.1-29q-25.5-1.3-51-3.9c-17.1 1.4-6.6 33.1-12.2 45.1m-978.9 412c-14.2-3.3-29.4-1.6-43.6-5.1-15.8-.7-31.5-2.5-47.2-4-12.3-.5-33.5-6.9-19 11 5.4 8.2 1.7 25.4 15.4 22.6 14 .8 27.9 2.4 41.7 3.8 13.5-.8 31.4 6.8 42.2.5 4.5-9.1 8.3-18.8 10.5-28.8m708.1-476.7q-36.2-2.8-72.3-6c-10.7 8.5-8.1 29.6-11.5 43.4 19.5 3.5 40.3 2.7 60.4 4.6 24.5 10 19.7-19 23.3-33.8.9-2.6.5-5.5.1-8.2m-405.6-495.3c-23-.3-45.9-2.6-68.8-3.7-21-1.2-41.9-2.1-62.8-3.6-22.2-.6-44.2-3.1-66.5-3.6-15.7-2.3-31.7-1-47.4-3.4-26-.3-51.6-4-77.6-4.8-16.7-.7-33.4-1.8-50.1-2.4-11.9-1.4-2.7 13.7 6.2 8.6 21.2 2.5 42.7 2.7 64 4 19.4 1.7 38.8 1.9 58.1 3.8 23.3.2 46.5 2.3 69.7 4q28.8 0 57.4 3.4c20.7.4 41.4 2.5 62.1 2.8 16.2 2.8 33 1.1 49 3.7 6 .9 5-5.2 6.7-8.8m38.3 657.7a1625 1625 0 0 0-30 114.2c30.7 1.1 61.4 4.3 92 6.5 21.5-2.2-9.1-6.6-17-6-16.2-3.6-37.6-.4-49.6-8.8l23.4-95c12.5-8.9 33.6 1.5 49.5.7 7.1 3 37 3.6 15.3-.9-27.8-4.3-55.7-7-83.6-10.7M1146 1404c-19.4-2-39-4.5-58.6-3.8-1.3 24 2.6 48 2.1 72 3.8 7.3-2 33.2 5.1 30.4 17.1-32.1 35.8-63.8 52-96.3q0-1.2-.6-2.3m1357.3-160.1c-2.4-13.2 9.4-38.6-7.2-42.8-17.6-.3-35.3-3-52.7-3-.7 15.1-4.2 30.4-1.8 45.6 17.5 1.5 35.1 2.2 52.6 4 12.5 2.4 30.2 3.7 24-15 .6-8 2.9-39.5-9.4-25.3-.6 12 .3 24.2-.9 36.1-1.3 2.6-3.4 3.1-4.6.4m20.3-38c1.1 13.3-6.7 36.6 3.6 44.4 20.1 1.5 40.3 2 60.3 4.5 14.2-5.7 4.6-32 5.2-45.7-15-3.8-31-1.4-46.2-4.4-7.3.8-16.5-2.8-23 1.2M868.8 1518.7c-7.6-6.1-18.5-3.3-27.7-5-19.9-1.3-39.6-4-59.6-5-22.6-3-45.3-4.6-68-6.8l-17.7-.1c-7.6 5.8-14.7 20 1.6 16.7 24.8 2 49.8 4.8 74.7 6.8 17.5 2 35.2 3.2 52.5 5.2 15.3-1.2 39.2 11.8 44.1-11.8m1201-527.8c21.8-1 43.6 2.9 65.4 3 34.2 3.2 68.6 4 102.8 7 20.6.8 41.3 1.8 61.8 4 10.3 2 27.3-.7 9-2.4-34.6-4.2-69-10-103.8-14-18-3.7-36.7-3-54.9-5.1-20.9 0-41.7 1.6-62.5 1-30.6 2.3-61.4-1.2-91.8 2.9-20.7.3-41.7 5-62.4.2-8.2 3.2 9.3 4 14.2 4.3 19.3 2 38.7 1.2 57.8 3.4 16.7 1.8 33.4 2.2 50.1 3.7 8 .3 13.2 1 14.3-8m438.7-159.3c18.8 11.6 38.4 22.7 53.9 38.6-3-27-13-53-24.2-77.5-11-20.4-23.3-41.2-42-55.4 9 22.1 13.5 46 12.8 69.8 1.2 8.2-.2 16.4-.5 24.5m6.8 917.8c-18.2-4.2-37-3.3-55.4-6.5-23 0-45.6-7-68.5-5.7-4.7 3-2.4 12.3-4.1 18 1.4 10.3-9.9 31.2 6.6 31.1 11.5-3.7 16.1 1.1 14 12.3 7.4-34.7 48.7-58 81.7-42.7 13 1.6 26.5 26 30.2 25.4-1.7-9.8-.7-20-3.2-29.7zm142.6-459.8c5.6 12 7.6 25.8 11.7 38.6 37.6 135.6 76 271 113.7 406.6 14.8 52.7 30.4 105.2 44 158.1-11.3 8-34.2-3.1-49.9-1.9-12.9-5.1-21.6 7.8-5.5 5.6 20.6 1.8 41.2 5.4 61.7 7 4.1-3-2-12-2.4-17.4-34.4-120.1-68.3-240.4-102.7-360.5q-30.6-108-61-216.1c1-11.2-13.2-28.9-15.7-21.3zM812.3 1615.2c16.5 6 34.6 3.8 51.5 6.9 15 2.1 26.9 13.1 40 18 20.4 11 25.5-12 37.8-22.6 11.1-6.5 4.3-9.4-4.6-9-23.9-1.1-47.6-4.3-71.4-6-14.6-.9-35.6-9.1-46.6 1a65 65 0 0 0-6.7 11.7m-303.8-115.7c20.7 5 42.5 4 63.6 7.6 16.4 0 32.6 4.5 49 3.8 17.4 3 35.5 2.9 53 5.5 8.5 1.1 24.3-20.6 8-17.4-16.2-.6-32.1-3.6-48.3-4.1-31-2.8-62-6.1-92.9-8.6-13.6-4.2-26.8-1-32.4 13.2m945.7 156.9c-12.9-2.7-27.1-3-40.4-4.5-15-.6-30.4-5.3-45.4-1.7l-10.3 27.1c16.4 9.5 44.9 4.4 65.7 9.3 13.6 3.4 26 .8 26.7-15.6q2.3-7.1 3.7-14.6m451.4-452.4 61.5 4c5.5-7.3 4-17.6 6-26.2s3.5-21.3-8.8-18.8c-15.9-1.1-31.9-1.2-47.6-3.7-12.6 6.5-7.4 28.6-11.6 41.7zM864.3 1533.6c19.5 2.8 39.2 4.3 58.7 5.7 16.4 2 32.8 2.7 49.1 5.2 15.2-.6 30.1 4 45 3 6.8-8.3 14.6-19.2-2.4-18.3-22.3-.8-44.4-3.9-66.7-5.9-19.6-1.1-39-3.8-58.6-5-10.2-5-18 .9-21.7 10zm102.4 180.5c-17-7-34.5-17.2-40.1-36-10.5-9.7 4-33.1-12-33.4-17.5-1.3 6.7 23-4.9 32.8 0 13.6-.5 28.3-2 41.2-7.7 10 17.8 6.8 24 11.6 13.3 3.6 26.6 7.4 40 10zm422.6-132.5c3-8.7 14-25-10.6-18.7-14.1-1-28.4-1.9-42.5-4-19-.4-37.8-4.7-56.9-4.5l-2.4-.7-20.8-.1c-5 9-8.8 20.2 6.2 17.7 28.9 2.5 57.6 5.5 86.5 7.4 13.4 1.2 27.2 5 40.5 3m760.8-403.5c-16.4 0-40.3-9.6-54.4-1.4-2 12.2-5.7 24.2-6.5 36.4 1.6 6.5 12.4 2.7 18.1 4.5 13.4.3 26.9 3.7 40.1 2.2 1.3-13.7 3.6-27.8 2.7-41.7M1381.3 1616c13.7 0 27.1 2.6 40.9 2.9 14.3-.4 35.7 9.8 45-2.4 3.5-8.9 12.5-27.3-3.8-23.6-14.6-.7-28.9-3.5-43.5-4-18.3-2-45.6-9.7-38.7 27.1m348.5-272.3c-4 10.5-2.4 22-3.8 33 15.1 3.4 31.4 3.7 47 5.2 12.7 0 30 7 25.7-12.3 1.3-10.8-.3-21.5-13.1-19.4zm-349.4 275.5c-8.1 12.2-13 31 7.2 27.7q27.8 1.5 55.3 5l13-.2 8.3-25.5c-16-3.5-32.9-1.6-49-4.8-11.7-.1-23.2-3-34.8-2.2m-636.5-597q21.6 2.3 43.4 3.3c25 2 50.3 3.3 75.5 5.2 18.8.7 37.7 2.6 56.4 4.6 20.7-2 2.3-17.4-10.3-13.6-15.4-.8-30.6-2.8-46-2.5-16.2-3.3-32.9-1.5-49-4.6-23.4-.7-46.6-4.4-70-3.6zm1775.3 92c23.4 3.3 47.7 4.8 71 5 3.1-18-2.4-37.1-24.4-32-16.2 1.6-32.4-4-48.5-1-2 9.4.9 18.7 1.8 28m4.2 627.3c-30.1-5-60.7-5.3-91-9-26.8-3-53.8-4.2-80.6-7.8-22-1.3-44-3.7-65.9-6-22.3-1-44.4-5-66.8-5.7-30.7-1.5-61.2-8-92-7.2 41 6 82.6 6.7 123.6 12.4q39.7 3.6 79 8c21.8 1.1 43.3 3.6 64.9 6 31.8 1.2 63.4 7 95 9.3 23.9.6 56 2.5 35 46-.4 23.7 5.1 47 3.7 70.6-1.7 7.7-12.2 1.5-18 2.4-6.7-3.6-24.4 4.5-7.5 7.8 13.2-.5 26.2 4.6 39.2 3.4.2-7.2-11.8-17.8-11-28.4-3-18.4 3.8-36.8-1.6-55.2-2.5-15.5-2-31.4-6-46.6m-613 51.8c-19-1.4-37.8-5-57-5-13.4-3.7-37.3 3-42.8-11.7 4.5-32.5 9.2-65 13-97.6 6.1-35.6 9.5-71.6 15.4-107.2 6.4-59.9 16.3-119.3 24.5-179 .6-5.2 1.5-10.5.8-15.7q-11 67.5-20.3 135.3c-10.7 75.6-22.6 151-33 226.7-1.9 15-5.8 30-6 45.2 3.5 6.6 13.8 3.5 20.7 5.3 27.5 1.4 54.4 9 81.8 10.6 8 .7 5.6-2.6 2.9-7m284.5-58.2c17.5 4 35.3 5.5 53.2 7 23 1 46 6.9 68.8 1.9 19.7-2.3 39 10.2 57 10-.9 12.7-2.6 26.9 5.7 38 1.8-15.3 3.5-30.5 4-45.8-11.8-5.7-26.3-4.1-39.4-6-19.8-1-39.2-4.4-59-5-10.1-1-20-2.7-30.2-3-17.8-2.4-36-2.5-53.6-5.3-6.5-1.3-6.7 3.4-6.5 8.2M817.6 1597.5c-13.9-.2-27.5-2.7-41.4-3q-20.4-3-41-3.6c-18.1-3.3-36.6-2.6-54.7-5.8-15.3 2.1-35.9-8.8-48.2.2-6.8 6.7-2.3 7.7 5.2 7.2 14.6-.8 29 .5 43.4 2.2 30.3 2 60.4 7 90.3 12.2 17.6 3 40.3 15.4 46.4-9.4m-222.5-553.7c19 1.1 37.6-4.7 56.5-6.8 26.6-4 53-9.2 79.6-12.6 18.5-5.2 1.2-21.2-11.5-13q-61.1 10.4-122.4 20.4c-9.3 1.7-3 6.5-2.2 12m1823-23.2c-11.7-8.4-26.8-5-40.3-6.9-17.5-1-34.8-2.7-52.3-3.1-20.2-1.6-40.2-3.6-60.4-4-20.3-1.3-40.5-3.7-60.9-3.8a786 786 0 0 0-50.9-3.6c-15.7.2-31.3-2.8-47.1-2.7-8-2.8-36.3-2.9-32.7 3 6-4.7 11-.7 17 1.3 19 1 38.1 1.8 57 4 15.8-4.3 31.7 4 48.4 3 20.7 1.4 41.8 2 62 2.1 11.3 5 24 2.6 36 4 12.4.6 24.9.8 37.2 2.6 14-3 30.3 3.3 45.6 2.8 13.8 1.2 27.6 2.7 41.4 1.3M371.6 1529.8c14.6 5.9 14.8 30 32.6 27.4 21.6 1.5 49.3 12 60.4-13.4 10-12.2-18.1-5-26.1-8.7-20-1-39.9-3.4-59.7-5.3-2.3-1.2-4.8-.5-7.2 0m1943.7-285.5c-17-.9-33.9-3.2-51-3.4-16-2.3-32-3-48.2-4-11.4-5.1-35-.7-21.8 13.7 15-.1 29.8 3.1 45 2.3 17.4 2.6 35 2.6 52.6 4 10.4 2.1 25.9 5 23.1-10zm18.9 625.7c20.7.7 41 4.3 61.8 5.3 15.7-.3 36.7 8.7 49.3 1.1 5.6-19-20.4-12.1-32.5-15.7-18.1-2.7-36.6-3.7-54.5-5.4l-25.2 11zm-355.5-822.3-59.3-3.5c-3 15-1.5 33.4 17.6 28.8 13.8.1 27.4 2.5 41.1 2.7 1-9.3 2.5-19 .6-28m343.2 222c2.2-21 6-42.2 6-63.3-12.3-8.3-33.4-3.7-49-7.2-17-.4-33.8-2.3-50.7-4-13 4.5-21.8-3-34.5-1-16.8-1.2-6 25.2-10.4 37.9 0 6-5.3 33.8 3 22.4.8-14.6 2.6-29.1 2.7-43.7 1.5-20.1 26.8-4.5 39.8-8 16.2 1.8 32.5 2.3 48.8 3.9 14.5 1.5 35-1.1 44.8 6.5q-2.5 28.4-4.7 56.7zm80.3-191.8a552 552 0 0 0-52.8-4.1c-4 7.4-8.2 32.6 8 29.3 14.7 1.3 29.5 3.3 44.2 2.6 1.4-9.2.6-18.7.6-27.8m-347.4 2.6c3.5-15 .4-32.8-18.9-29.2-13.6 3.3-42.3-11.1-37 13-4 23.9 27.7 10.8 41.5 16.5q7.3.2 14.4-.3m17.6 757.7c-15.4-8.5-26.4-24-45.8-21-19.1-8.8-30.2 8.7-46.7 14.4-.7 7.8 23.7 4.1 32.7 6.5 17.3-3.4 44.8 10 59.6 3zm-1020-1167.4c27.2 2 54.6 2.8 82 4.4 15-1.4 29.4 2.8 44.4 1.7 29 1.6 58 3.1 87 3.4-2.3-12.7-27.4-3.4-38.7-7-21.6-1.7-43.2-2.3-64.8-3.7-22.7-1.6-45.4-2.5-68-4-12.9 2.3-37.8-7.7-43.5 1.7zm341 912c17 3.4 34.6 2.5 51.8 5.3 14.7 2.2 37.2 7.1 35-14.3a300 300 0 0 0-50.2-5.6c-9.9 1-28-9.3-32 2.8zm834.4-489.4c2.4-14.5 3.3-34-17-29.7-14 1.7-41.5-11.9-36 13.3-3.5 13.5 6.4 14.6 16.3 14.3 12.2 1.2 24.5 1.5 36.7 2.1m97.8 96.4c-18.6-2-37.2-3.2-55.7-5-16.8-1-33.6-2.5-50.4-3.2-15 1-39.9-10.5-48 4.4-.3 11-2.3 22-2.6 32.8 14 13.6 11.5-14 12.4-23 .6-18.5 26.2-4.6 37.4-7 14.3 1.2 28.7 1.2 42.8 2.8 15.5.5 30.7 2.8 46.1 3 6.2-2 21 6.9 18-4.9m-887.9-290.5c9.5-8.7 19-24.6 16.7-39.4.4-22 1.3-44.3-.3-66.2-8.4 12.6-18.8 26-17 42 .3 21.1-.3 42.4.6 63.6m-326.7 726c14 9.5 12 35.7 30.5 36.4 21.4 9 17.6-16.9 28.8-26.8 4.8-21.4-7.7 17-29.8-7.7-10-.1-19.6-2.9-29.5-2m-716.5-65.5c4.5 11.4-4.5 30.6 1.7 36.4 11.5 2.1 24.6 4.9 30.6-7.6l18-21.3c-10.4-9-30-3-43.7-7.4-2.2-1-4.4 0-6.6 0m2069-449.7c10.5.3 34.2 10.4 34.4-5.5-3.8-7.1.8-29 4.4-11 .9 6.8-1.2 14.4 1.8 20.7 15.4 3.8 6.3-19.4 7-28.2-15.9-2.4-34.5-6-50-2.9 2.7 8.7.4 18.2 2.4 27m-252 747.3c28.9 3.7 58 5 86.8 9 13-1-4.5-8-8-12.2-5.9-4.3-11.1-10.6-19.2-9.5-11-.8-21.9-2.5-32.7-3.2-7 5.7-25.3 7.5-27 15.9m-1913.9-310c1.9-10.8 32.3-24 6.7-24.3-18-.8-35.9-3.3-54-4.3-8.3-2.3-14.2-.8-5.5 6 13.4 4.5 17.8 23.3 32.6 21.3zm41.1 78.3c-17.3-2.9-27.6-19.1-43-24.1-12.8-1.2-27.5-5.8-33.5 9-18.5 11.5-24 28.9 34.6 14 13.3 1.6 26.7 5.3 40 5.5 3-.1 1.6-2.8 1.9-4.4M516 1139.3c15.4 8 33.7 5.2 50.4 7 .4-16-3.9-31.5-23-27.9-16.4.5-37.7-10.7-27.4 21m130.1 13.7c3.1-15.2-1.4-33.4-21.1-27.9-16-3.8-38.2-3.4-26.8 18.8 5 8.6 17.2 7.3 26.1 7.2 7.3.2 14.6 1.2 21.8 2m1927 739.3c-9.5-5.5-18.7-12.2-28.4-17-20.4-1.4-40.5-4.2-60.7-6.4-14-1.5-10.1 22 4 15.4 23 2.3 46 4.8 69 6.7 5.2 2 10.8 1 16.1 1.3m-469-44.4c21.8.4 43.3 4.3 65 5.6 16.3 4 11.4-5.4.4-9.5-11-14-28.2-16.2-45-14l-21.6 10.3q.5 3.9 1.2 7.6m-1579-365.7c48.1 2.4 95.7 9.7 143.7 12.4 9.4.5 23.2 6.8 29.5-2.9-16.5-2-33.3-1.8-49.6-4.6-18.4-1-36.7-3.8-55.2-4.6-19.7-1.8-39.5-4.4-59.3-5.5-8.4.8-32.3-8.1-30.2 2 6.4 6.6 18.2-5.3 21.1 3.2m1800.4-410c-12.4.3-31-6.4-38.6 1.7-2.4 13.7-1.8 29.4 16.1 25.8 12.2 1 29.7 4.7 23.4-13.4q0-7.1-.9-14.1m-171.7-12.5q-17-.2-33.7-2.2c-10.2 3.9-7.2 35.2 9.3 30 11.9-.2 30.6 6.3 25.1-13.4q0-7.3-.7-14.4m451.7 834.5c17.2 5.9 38.6 4.3 57 7.5 13.4-1.5 32.6 8.6 42-1.1.2-4.3-8.2-8.4-13.1-8.3l-63.2-7zm-1463-729.4c-13-3.3-31-6.2-42.4-2.5-3 16.4 9.6 27.3 25.6 24.7 11.6 2.8 24.8 2 18-13.7q-.9-4.2-1.2-8.5m1175.1 47.1c-15 1-35.5-5.8-46.2 1.5-3.3 11 1 20.2 12.8 17.9l30.3 2.4c4-6.5 4.1-14.5 3.1-21.7m-89.3 531.7c12.2 5.3 15.6 21.7 26.7 26.6 6.3-.7 15 4.8 19.2-1 1.4-8.3 27.6-17.9 16.5-20zm154.9 51.3c-2 14.7 2.3 34-11.2 43 .7 7 27 10 28.9 2.4-4.3-14.2 3-36.7-8.5-45.3q-4.6-.2-9.2 0m-1326-174c-4-3.7-12.4-1.6-18.3-2.8-11.2-.3-22.3-2.3-33.4-3-3.7 5.5 14.2 17.2 15.8 27.8 6.3 21.5 14.7-2.4 21-10 4.4-4.7 9.7-8.4 15-12m879.3-807.6a270 270 0 0 0-13.4 64.6c-1.2 13.7 4.1 40.6 10.5 14.5 11-13.5 7-29.1 3.4-44.7-.9-11.5-.3-23-.5-34.4M2344 1182c1.2-18.5-2.1-36.9-1.7-55.4l-3.2-16.1c-19.5-2.9-4.8 26.1-8.3 37.7 4.3 10.1-5.7 41.4 13.2 33.8m-862.6 410c14.2-2 34.3 7.5 45 0 2.5-8 7.5-18-6.2-15.9-12.8 2-36.7-11.8-38.1 8.3q-.7 3.7-.7 7.6m1040.4-396.9c.7-22.9-4.8-45.4-5.7-68.3-6.4-14.1-34.8 8.9-9 23.8 5.3 14.2-4 34.5 7.5 45.6 2.4.7 5.1.2 7.2-1.1m-622.2-115.8c-2.3 17.2 2.3 34.3 1.3 51.6 1.4 6.4-3.5 18.5 4.7 20.1 10.1-3.2 3.3-27.6 5.4-39.1-2.9-10.4 7-35.3-10-32.5h-1zm-1311.8-43a3434 3434 0 0 1-50.6 48c-11.1 12.7 14.9 7.8 17.7-2.3 12.3-12 24.8-23.9 36-37zm-422.6 455.2-24.5-1.4c-4.5 13.6-2.4 22.6 12.2 26 8 4.1 19.6 20.2 15.2 3.1zm2031 232.5c25.4 1.1 50.8 4.8 76.2 6.7 29.5 2.3 59.2 6 88.9 8 5.8 4 32.2.8 14-1.8-24.3-1.6-48.3-5.3-72.6-6.5-22-3.2-44.8-4-66.8-7.1-11.4 1.8-36-8.5-39.7.7m-37.4-626c.1 23.2-.4 46.5.3 69.7 9.2 9.2 10.6-6.2 9.4-13v-53.5c.3-5.6-6.6-2.4-9.7-3.2m-175-12.3q1 32 1 63.7c2 17 14.8.5 9.6-8.7-2.8-16.9 5.8-43.3-4-55zm-316.6-351.6c-15.2-10-36.2-2.1-53.8-4.5-12.7.7-9.2 14 2.8 9.6 14.5 1.4 28.8 3.5 43.3 3.5 3.9 0 5.2-6.2 7.7-8.6m-683-71.6c9.2 9.1 22.3 1.3 33.4 1.4l24-3c8.5-3.2 16.6-15.3 0-10.6-19 4-39.8 2.1-57.6 8.9zm-777 957.3c-14.3-4.7-24.2-25.2-31.3-30.5-3.5 10-22 17.7-20.9 23.8 17 4 35 4.5 52.3 6.7m1986.2-396c9.5.7 19.1 3.4 28.6 2.3 12-7.9-11.7-17.6 2.8-19-8.5-2-38-10.4-31.8 11.4-.5-1.6 1 7.1.4 5.3m411.3-18.8-.7-78.2c-14.8-1.3-7.4 16.8-8.7 26.1 1.3 16.4.7 34.1 5.2 49.6zm-334.5 624.2c-10.3-15-1.4-38.7-5.4-50-16.9-3.7-4 15.6-8.3 24.8-4.3 13.6-10.3 30.8 11 25.9zM1062.8 1497c-4.1-11 3.3-36-13.8-33.8-6.5 8-.2 26.2-.7 38 1.4 6.8 11.4-3 14.5-4.2m1536.9 402.9c-16.4-10.7-26.8 3.5-19.8 19 13 16.3 24.9-5.8 19.8-19m-517.8-684.2c4.8-11 5-23.8 8-35.5 2.5-14.5-17.1-8.2-13.8 3.5-.8 10.1-4.9 20.6-1.9 30.6zm-1144 240.2c1 11.3 1.1 22.8 2.2 34.1 10.3 11.3 25.4-16.6 12.8-25.2l-3.2-9.2zm-637.7 141.9c-7.5-9.8-3.5-30.8-19.8-30-3 3.4-6.6 24.4-3 28.6a50 50 0 0 0 22.8 1.4m-176-119.1-13.4 28.6c1.2 5.4 12.2.4 17.6 1.4 9 1.5 6.8-8.6 7.7-14.4 3-7-4.5-9.3-8.7-13.1zm2316.2-370.1c-.6-7.6 1.1-15.4-1.4-22.7-6.6-.3-13.4-3.5-19.8-1.4-2 11-1.3 28 13.5 24.3 2.6.2 5.1-.2 7.7-.2M2164 1221.3c-2.3-13.6 10.4-38-2.8-44.1-12.6-1.4-2.3 13.2-3.7 15.9-4.7 6.2-11.2 37.1 6.5 28.2m-1153.8 238.3c-21.9-5.5-7.9 21.4-10.8 33.3 2 15.3 18.8-1.5 12.9-11.6-.7-7.2-.7-14.5-2-21.7m-275.7 17.8c7.2-3.4 16.4-7.6 11.8-17.5-.6-8.8-3.8-32.7-14.4-18.7-1.1 12-.7 24.5 2.6 36.2m1708.9-287.7c-1.4-10 .9-25.6-14.3-23.7-16.8-2.2-7.3 31.9 9.3 24.7l2.5-.3zm-1067-155c13-23.3 24-47.6 37-70.9l23.5-46.4c-.7-6.4-7.7 10.3-10.9 15.4q-24.4 45.9-49.3 91.6c-1.5 3.2-1.4 7-.3 10.4m846.9 502.3c10.4 6.4 31.2 6.9 45.6 8.5 27.8.6 59.5-1.7 80.1-22.6 6.4-6 6.5-24 .1-8-10.2 18-32.8 23-51.7 26.5-24.8 4-49.6-.3-74.1-4.4m-148-480.2c-5.4 16.6 2.4 32.8 19.6 26.7l-.7-20.7c-5.1-5.1-13-2.7-19-6m360.2 184.7c.3-13.7 2.4-27.5 2.5-41.2-8.2-10-13.4 7.4-11.5 15.5l-.5 26c3 1.6 6.6 1.1 9.5-.3m-540-82c-1.8 13.8-6 27.4-6 41.2 17 6.5 11.2-24.7 15.3-35.8 2.7-8.7-4.5-4.3-9.4-5.4m429.6 735.2c13-14-6.8-35-16-19-2.5 10 1.7 27.1 16 19M888.6 1492.2c18.5-3.4 8.2-25.5 8-38.2-7.7-11.6-14.6 2.5-9.5 11.7.8 8.8-1 18 1.5 26.5m-40-10.6c-3.7-10.8 2.9-28.3-7.6-34.7-14-6-3 14.6-5.5 21.8-1.5 11.2 2 22.9 13 13m131.6-821c-17.8 16.2-36 32-52.7 49.6 3.7 8.3 15.8-9 21.8-12.8 10.6-9.4 21.4-18.8 31.4-28.9q-.1-4-.5-8M1955 1857.9c8.2 13 22.5.2 17.4-12.7 1.7-12.9-23.4-12.6-17.4 1.6zM1575.4 756c17.3.6 41.4 8.2 54.8.4-11.6-8-30.6-5-45.5-7.3-7.2-1.2-10.6-1-9.3 6.9m1133.7 1153.8.1 20.8c13 15.9 28-17 13.4-20-4.4-1-9-2.7-13.5-.8m-461.7-756c-5.8 14.5 1.8 31 17.3 20.2 5.8-13.7-2.2-25.6-17.3-20.3m385.2 727.8c17.9 2.3 41 8 56.3 5q-4.7-8.9-14.6-8l-35-3.7zm-540.6-738c-15.6-6.7-23.9 2.3-18.4 18 9.2 5.4 23.9 5.3 18.9-8.2zm-1397.2 326c-.8-11.4 4-33.5-9.8-36.1-6.2 9.2-.8 30.5 2.8 40zm-302.1 158c6.3-6.5 24-22.1 18.2-26.4-12-2.6-27.5-4.5-21 12.8q.2 7 2.8 13.5m1923.6-387c-18.4-9.4-40.2-2.6-60-6.6-20.8 0-43.6-6.4-63-2.4 23.2 2.9 47 3.9 70.4 5.8 14.6 1.2 29.2 1.9 43.8 3.3zm-50.6-144.8c6.7-13.1-9.6-29.5-18.6-18.8-4.2 16.1 2.7 22.9 18.6 18.8M1077 1727.1c-6 10.6 6.7 36 15.8 19.6 2.7-11.5-.3-25-13.9-19.7h-1zm-104.8-11.6c-2.3 12 10.2 36.7 18.6 17.2.5-10.9-2.7-23.6-15.4-17.7zm1231 144.2c-20.3-12.2-23.7 27.3-4.3 22.4 8.6-2.7 5.6-15.8 4.2-22.4M129.5 1616c-.2 10.7 8 34.3 20 18.9-2-10-1.4-29.5-20-18.9m1092.6 132.3c4.1-13.1-.4-31.7-17.1-21.8 2.8 9 .7 31.3 17 21.8m759.4-582.7c-1.5 12.6-11.1 33.5-3 42.6 9.6-8.3 7.9-28.1 10.7-41.1-.6-3-5.5-.9-7.7-1.5M345.3 1625.9c1.4 6.6 4.8 7.4 1.4 12.4-.2 17.4 25 12.4 15.6-4.9 0-13.3-8.7-7.1-17-7.6m1987-436c-1.2 7.8 2.6 16.8-.1 25.5.4 5.7-5.2 20.3 3.4 18.5 5.4-1.7 2.3-11.1 4.2-16-1-9.2 9-31.2-7.6-28M2098.4 1857c.2-11.2-20.4-12.3-19.8-1.5-4.6 15.8 19.4 20.2 19.1 4.1zM605 1464.4c.9-11.6-1.5-23-2-34.6-15.7-9-4.8 17.5-7.4 26.2-.4 9.7.6 14.9 9.4 8.4M230.5 1644c14.6 14.9 20.1-16.5 8.3-21-4.4 2.2-15.7 0-11.4 7.7zM2605 1209.4c-13.6 2.5-3.3 26.7-5.7 37.4-.6 14.3 10.8 6.2 6.9-4.2 0-11 .1-22.2-1.2-33.2m-169.5-57.4c0-11.1 6.2-38.5-9.7-35 1.3 11.2-.5 22.8 2.5 33.6 1.7 4 4.4 3.4 7.2 1.4m-356.4-24.8c16.3 4.9 7.5-21.2 9-31-7.8-10.3-10.9 2.7-9 10.5zm-1429.8 338c-2.1-9.4 3.4-37.2-11.5-32.8l2.2 35.8c2 4.3 6.5-2.3 9.3-3m-83.9-7c.5-10.7-1.9-21.2-2.7-31.8-16.5-8.9-3.5 20.2-7.2 29-1.2 8.7 6 8 9.9 2.7m905.8-609.5c5.7-1.7 8.1-12.3 12-18 11.6-23 25-45 35.6-68.4-1.8-8-6 7.7-9 11l-37.6 71.7zm784.6 256.6c-2.3 10.7-8.3 31.7 3.8 36.5 3.5-8 7.7-32.5-2.8-36.5zm74.6 136.5c27.6 4 55.6 4.4 83.3 6.8 8 .8 32.7 2 11.2-2-22.4-2.5-45-3.2-67.5-5-7.9.2-21.7-4-27 .2m11.4-140.7c3.7-8.6-1.3-38.7-10.8-22.8.1 6.8-1.2 29.1 10.8 22.8m110.3 58c-6.1 9-6.2 42.4 8 27.4-4-7.2 3.4-27.8-8-27.4m-292.1-98c-4.1 8.2 1.5 38.8 10.4 22.5-.5-9.9 4.6-25.6-10.4-22.5M270 1445.7c-14.4 13.2-29 29.6-34.6 47.6 6-19.4 31.7-27.9 39-43.4zm1650.7-538-5.2 31.6 7.5 3c-2.2-11 6.3-19 6.4-29.9zM278 1445.3c11.2-2.5 34.3-28.7 21.2-33.6-7.3 11-15.1 21.8-21.2 33.6m1645.9-499c-11-4-7.4 13.3-7 19.3-1.6 6.7 6 35.9 6.4 17.9-3.5-12.6 3.5-25 .6-37.2m69.6 130c.2-9.3 6.5-29-8.5-27.4 2 8.2-6.5 31.6 8.5 27.4m-79.5-7q1.5-12.3 0-24.7c-13.4-10.1-13 35.5 0 24.7m604.7 187c-7.4-5.5-17.4-3-26-4.7-15.5-1.7-31-2.2-46.5-3.7-20.3 1.6 23.3 5.1 19.4 4.7 17.7.6 35.4 3.1 53 3.7m74.6-165.6c3.1 7.5-3.5 36.8 9.5 27-.9-9 .6-18.8-1.9-27.4 2.5-3.3-10.3.4-7.6.4m-349.9 137.1c18.6 8.6 13-35-.3-16.7q-1 8.3.3 16.7m30.1 607.9c-8-3.3-33.1-8-29.4 2.6 8.5-.8 33 8.8 31.1-.3zm196 50.2-17.5-.6c-6.8 12.1 14.7 21.7 16.7 6.4 1.6-.4-1.2-5.9.8-5.8m0-4.3c7.2-13.4-11-14.4-18.4-10.9-3.3 12.1 9.7 12.4 18.4 10.9M780.7 862.4c6.5-3.8 22.3-21.6 14.2-23.3-5.7 7.4-26 17.5-21.1 23.8l3.4-.2zm1743 995.2c2-10-.4-30-7.5-12.7-10 10-13.2 15.4 7.6 12.7m-71.8-775.3c-.6 6.9-5.8 32.2 6 26.3-.3-6.7 2.2-26.4-6-26.3m-254.5 361.1c-19.9.2-43.9 10.2-50.5 30.4 3.5 7 9-16.5 18.1-18 9.9-6.2 21.5-8.5 32.4-12.4m83.4-347.3c3.7-6.2 1.7-36.3-5.8-22.5 1 5.5-1.6 23 5.8 22.5m-1347-61.6c5-8 16-14.5 12.6-25.4-3-3.9-8.4 8.2-12.4 11.1-.4 4.6 0 9.6-.2 14.3m-641 529.1c5.4-10.5-.8-15.9-12.4-14.7-13.6-.4 9 14 12.4 14.7M2407 1156.4c-.8 10-4 37 9.2 31.6-8.4-7-1-23.7-9.2-31.6m-295.4-71.5c-.6-6.6-.2-35.8-7.8-24l1.5 23zm328.2 189.2c4.4 15 6.4 42.1 10.2 50.5 0-15-4.2-29.6-6-44.4-1.5-6.6.7-17.8-14.5-8.5zm-159.2-94.1c1.4-8.4 6.8-31-3.2-31.8-.6 10.6-1.9 21.9 3.1 31.8m-1783.2-60.8c5.5 5.9 2.5 27.8 9.2 23.5 1.7-3.8-1-35.6-9.2-23.5m1631.8 706.3c7.7.5 15.7 2.4 23.2 2.1-.1-9-17.2-12.4-21.7-3.7zm-1541.6-674c1.6-6.7 4-30.4-6-26.8 2.1 9 1.3 18.7 6 26.9m1516.5-16.4c1.2 7.2-3.1 33 5.5 29.4l-1.6-28zm-568.4 38c6.6-16.7 14.2-33.3 19-50.5-6 7.3-13.3 29.4-17.7 43.1q-.9 3.8-1.3 7.5m1.5-23.4c4.3-9.8 15.8-30.6 10.8-34.1a212 212 0 0 0-11 30.9zm-1024.8.4a309 309 0 0 0 53.6 4c-16.1-5.3-33.7-2.4-50.2-4.9zm582 35.7-2-26.2c-8.9-.9-2.7 8.5-2.9 13.5 1.7 2.9.4 17.7 5 12.7m-496.8-30.3c15.6 3.7 31.8 4.4 47.7 5-15.4-4.4-32-3.6-47.7-5m1122.8 221.4c-4.2 10.4-11 37.5-9.8 41.3 3.7-13.4 8.9-27 10-40.8zm-620.8-185.5c4.3 2.2 11.9 1.5 17.5 2.5 7.7 0 25.5 4.2 24.9.6-13.9-2-28.4-3.4-42.4-3M2368 1767.8c9-10.8-5.7-15.1-10.4-11.7zM2058.8 1131c-.2 9.1-.6 18.3.2 27.3 6.7 9.2 1.6-24.4-.2-27.3m-789.5-460.4c6.2 1.7 11.6-2.4 13.4-8 1.3-16.3-8.2 5-13.4 8m965.5 423c3.5-7.8-1.2-39.3-2-18.6-.2 6.3-.1 12.7 2 18.6m475.3 808c-1.6 7.8 11.3 4 16.5 6.4 10-7.1-14-4.2-16.5-6.4m-1244-1052.1c-14.6-2-1.1 20.8.3 5.4zm629.6 991.4c-7.9-2.2-24 2-8.2 5.3 4.2.6 9.9.3 8.2-5.3m168.6-611.4c5.5-8.2-1.8-29.3-1.7-9.6q0 5 1.7 9.6m146.8 600.6c-4 7.5 7 23.2 9.3 15.3-3.2-5-6.8-9.8-9.3-15.3m83.5-803.6c6.3-6.8-10.5-3.4-14-1.5-.5 3.3 11.2.7 14 1.5m-2378 433c-12 11.5 13.5 4.6 7.7 1.1a10 10 0 0 0-7.7-1m1945.8-377.8c-.2-8.7 1.4-18 .2-26.2-3.4 2.7-2.6 19.4-.2 26.2m75.5 733.7c11.6 8.8 7.4-17.4 3.5-6zm15.6-530.8q1.1-13.6 0-27.3zm75.3-59.8c6.7-8.1 1-22.3.3-6.3-.6 2 0 4.7-.3 6.3m179-143.3c-2.8 3.1-.3 11.5-1.2 16.6-.5 10.7 3.3 5.8 1.7-2.2zm10.3 78.4c8.4 4.9 30.7 1.7 10.3-.1-3.4-.7-7-1-10.3.1m-345.4-23.4c7.8 4.1 25.1-.2 8.3-1.2q-4.2.2-8.3 1.2m83 364.1c2.7 10 17.5 14 5.1 4-1.7-1.3-2.8-3.9-5.1-4m430.3-219.1c-7.3-1-31 .4-13.3 1.2q6.8.2 13.3-1.2m-30-1.9c-8.4-1.4-31.6.5-10.7 1q5.4 0 10.7-1"/></svg>