<svg xmlns="http://www.w3.org/2000/svg" width="228.453" height="209.729"><path fill="#fff" d="M121.836 0c28.955 0 55.173 11.739 74.149 30.715a105 105 0 0 1 22.861 34.263l-8.561-.015a97.2 97.2 0 0 0-19.853-28.695c-17.553-17.555-41.807-28.413-68.596-28.413S70.793 18.715 53.24 36.268C41.088 48.419 32.147 63.779 27.792 80.969l-.431.52-9.756 11.789c2.675-24.327 13.669-46.153 30.081-62.564C66.663 11.739 92.88 0 121.836 0M226.49 98.18a107 107 0 0 1 .209 6.684c0 28.957-11.737 55.173-30.715 74.15s-45.195 30.715-74.149 30.715-55.172-11.739-74.149-30.715a105.1 105.1 0 0 1-22.265-32.844l4.031.005.024-.011h4.557a97.2 97.2 0 0 0 19.206 27.298c17.554 17.554 41.808 28.413 68.596 28.413s51.043-10.858 68.596-28.413 28.413-41.808 28.413-68.597q-.002-2.793-.157-5.545c2.793-.041 5.317-.287 7.803-1.139"/><path fill="#ed1c24" d="m149.92 88.311-1.849-.089c-7.52-.005-15.041.003-22.563-.009-.955-.001-1.919-.017-2.861-.152-2.511-.356-3.575-2.356-2.592-4.689.471-1.116.929-2.248 1.248-3.413.449-1.643 1.628-2.608 3.051-3.156 1.312-.505 2.771-.88 4.165-.881l94.687.059c1.183.001 2.443.28 3.529.748 1.608.692 1.969 1.849 1.569 3.148-.509 1.655-1.045 3.309-1.704 4.908-.436 1.06-1.336 1.769-2.332 2.365-1.888 1.133-3.992 1.164-6.065 1.181l-20.997.04c-.477 0-.956.024-1.433.008-.653-.023-1.061.253-1.269.883l-1.748 5.164-2.212 6.517-1.08 3.2-3.419 10.497-2.929 9.296a285 285 0 0 1-2.484 7.251c-.484 1.361-1.607 2.183-2.837 2.722-1.299.569-2.655 1.003-4.145.998-10.868-.028-21.736.011-32.605-.024-.964-.003-1.979-.26-2.88-.621-2.259-.904-2.208-2.431-1.707-4.007l3.421-10.5 3.087-9.105c.719-2.177 1.345-4.385 2.053-6.565l2.2-6.525 2.025-6.312c.157-.495.345-.983.465-1.488.104-.428.132-.876.212-1.447m-15.116 36.522c-2.493 8.618-18.759 10.323-24.463 10.333a3224 3224 0 0 1-11.636-.003c5.015-23.943-43.589-38.02-6.52-48.867-55.316 2.904-17.54 27.203-65.114 48.879l-23.339-.027a13 13 0 0 1-1.303-.05c-2.279-.242-3.165-2.228-1.745-4.066 1.537-1.991 3.165-3.912 4.769-5.849l13.865-16.733 16.508-19.951 6.422-7.688c2.437-2.892 5.553-4.371 9.338-4.376l28.953-.013 25.562.065c.911.003 1.827.031 2.735.12 2.521.245 4.197 1.652 4.703 4.119.601 2.933 1.059 5.895 1.591 8.843l1.323 7.168.932 5.257 1.173 7.065 1.393 7.685c.301 1.665.672 3.323.872 5 .705 5.899 10.504 4.537 13.983 3.087M76.73 91.451c-4.998 1.836-6.823 4.411-7.019 7.493l-2.346.009c.822-3.628 3.279-6.348 9.366-7.503zm-6.642 11.132c.937 4.003 3.314 8.58 4.676 13.363l-6.706.029c-.092-4.721-1.045-9.38-1.047-13.379zm5.578 17.907c.49 4.931-.847 9.952-6.559 14.68H57.38c7.106-4.135 9.702-9.308 10.439-14.645z"/></svg>