<svg xmlns="http://www.w3.org/2000/svg" width="293.324" height="63.459"><path fill="#fff" d="m173.074 38.459-.464.419-7.887 7.728c-.649.648-1.372.515-2.112.439-.147-.016-.331-.229-.393-.392l-.792-2.188-.885-2.379-.879-2.439-.497-1.312a2 2 0 0 0-.492.816l-.979 2.963-.42 1.256-1.379 4.169c-.088.268-.145.553-.277.797-.399.745-1.108 1.063-1.88 1.248-.321.076-.668.079-1.003.079l-12.593.007c-.507 0-1.023.029-1.483-.295-.605-.428-.749-.845-.512-1.555l1.02-3.116.905-2.656.859-2.725.904-2.655.415-1.257 1.4-4.276 1.185-3.731c.287-.876.969-1.325 1.811-1.544.389-.1.807-.133 1.211-.133l12.856.036c.455.001.908.027 1.32.312.457.319.639.791.821 1.267l.969 2.631.863 2.388 1.275 3.365.459 1.183c.031.075.097.135.18.248l1.54-1.488 8.237-8.055.952-.924c.579-.523 1.236-.881 2.037-.908l1.009-.035 12.168.027a7 7 0 0 1 .952.064c.933.135 1.335.831 1.039 1.709l-.873 2.776-.904 2.655-.836 2.621-.905 2.709-.437 1.305-1.395 4.277-1.187 3.787c-.348 1.143-1.144 1.748-2.283 1.936-.381.064-.776.068-1.164.069l-12.116.007a12 12 0 0 1-1.112-.06c-.773-.073-1.412-.795-1.096-1.615.4-1.035.693-2.109 1.029-3.169l.852-2.728.905-2.709c.089-.263.191-.524.061-.949m-46.441 1.018c.177.072.28.131.389.156 1.933.455 3.427 1.531 4.496 3.197l1.012 1.675c.719 1.343 2.375 1.74 3.632 1.412.407-.105.795-.283 1.195-.429.249.431.119.905-.388 1.22a21 21 0 0 1-3.945 1.899c-1.105.4-2.239.661-3.383.869-.744.135-1.515.168-2.273.172l-8.769.001c-.721-.004-1.432-.049-2.147-.267-1.243-.379-1.743-1.237-1.839-2.435l-.155-2.227c-.068-.852-.347-1.648-.634-2.448-.267-.745-.633-1.419-1.167-1.996-.463-.501-.999-.884-1.702-.997-.489-.079-.586-.231-.453-.687l.627-1.967c.118-.384.357-.508.754-.5l2.762-.036c.627-.047 1.257-.191 1.861-.371.389-.116.684-.415.814-.844l1.107-3.536c.08-.252.204-.493.262-.749.143-.633-.029-.964-.66-1.112s-1.289-.277-1.938-.3l-4.09-.014c-.552.001-.569.012-.748.548l-1.425 4.324-.899 2.657-.85 2.728-.897 2.657-.858 2.671-.881 2.663c-.022.068-.068.128-.083.196-.318 1.415-1.371 1.875-2.649 2.013-.456.049-.92.035-1.38.035l-12.382-.012c-.495-.001-.985.001-1.421-.32s-.624-.712-.461-1.232l1.088-3.375.84-2.677.899-2.655.488-1.567.534-1.607.458-1.353 1.191-3.789 1.278-3.757c.268-.808.89-1.228 1.635-1.447.518-.151 1.082-.2 1.626-.201l20.779-.004 13.071.105c1.324.012 2.603.271 3.808.823.859.392 1.572.963 1.912 1.884.189.512.16 1.047-.005 1.565l-.969 2.969-.961 2.515c-.424.94-1.231 1.536-2.095 2.039a11.4 11.4 0 0 1-4.544 1.493c-.385.041-.765.145-1.144.235-.091.021-.168.096-.32.189m117.462 6.013c-.072.563-.128 1.023-.62 1.325a20.6 20.6 0 0 1-3.755 1.813c-1.812.657-3.664 1.067-5.592 1.072-3.171.005-6.341-.007-9.511-.011-.909-.001-1.805-.121-2.652-.455-1.292-.511-2.24-1.319-2.225-3.007l-.015-1.187-.591-.055c-2.587-.003-5.172.003-7.759-.007-.427-.001-.704.124-.943.516l-1.625 2.419c-.435.661-1.045 1.065-1.756 1.385-.771.347-1.569.407-2.385.407l-13.975-.013a5 5 0 0 1-.531-.021c-.929-.099-1.289-.907-.712-1.656l1.943-2.384 5.649-6.816 6.725-8.129 2.617-3.133a4.77 4.77 0 0 1 3.804-1.781l11.797-.007 10.415.027a12 12 0 0 1 1.113.049c1.028.1 1.711.673 1.916 1.677l.649 3.603.539 2.921.379 2.141.479 2.88.568 3.131.355 2.036c.089.743.585 1.128 1.184 1.367a6.5 6.5 0 0 0 1.688.424c1.193.127 1.417.055 2.825-.532zm-30.849-4.149h6.34c.213-.497.184-9.221-.037-9.704l-.461.587-3.407 5.172-2.185 3.317c-.1.155-.14.348-.249.628m59.687-15.497 14.189.004a10 10 0 0 1 4.592 1.131c.721.369 1.301.928 1.541 1.74a1.74 1.74 0 0 1 .039.781c-.079.415-.22.819-.348 1.224l-.976 3.077c-.283.939-.633 1.827-1.659 2.171-.464.155-.963.212-1.449.289-.225.036-.46.02-.689.02l-12.011.001a7 7 0 0 1-1.213-.12c-.853-.151-1.225-.783-.967-1.604l.8-2.467c.319-.863-.136-1.855-.9-2.276-1.208-.668-2.483-.587-3.752-.191-.929.289-1.752.769-2.348 1.552a4.3 4.3 0 0 0-.588 1.109l-.924 2.704-.853 2.672-.904 2.768-.448 1.357-.557 1.879c-.239.616.208 1.648.825 2.017a3.3 3.3 0 0 0 1.4.448c1.807.176 3.393-.28 4.687-1.612.552-.569.777-1.289 1.007-2.015l.572-1.703c.359-.929 1.155-1.296 2.049-1.484.343-.071.705-.059 1.06-.059l12.593.025c.513.001 1.023.001 1.472.336.353.265.587.672.475 1.087l-.627 2.08-.895 2.66c-.265.863-.765 1.524-1.491 2.057-1.055.779-2.248 1.255-3.479 1.637-.687.215-1.408.38-2.124.435l-4.72.211a4774 4774 0 0 1-23.329-.024c-1.167-.004-2.345-.041-3.496-.215-1.237-.188-2.445-.56-3.464-1.356-.472-.369-.848-.811-.991-1.404-.056-.235-.104-.504-.044-.728l.717-2.384.889-2.66.973-2.965.831-2.624.849-2.617.575-1.761.508-1.447c.401-.917 1.157-1.508 1.992-1.992 1.276-.741 2.661-1.181 4.107-1.492 1.263-.271 2.529-.316 3.803-.32l12.7-.005v.051M12.316 30.607l-.754-.036c-3.064-.003-6.129 0-9.193-.004l-1.166-.061C.18 30.361-.254 29.545.147 28.594l.508-1.389c.183-.669.664-1.064 1.243-1.287.534-.207 1.129-.359 1.697-.359l38.579.024a3.7 3.7 0 0 1 1.438.304c.655.283.803.755.639 1.283l-.694 2c-.177.432-.545.721-.95.964-.769.461-1.627.475-2.471.481l-8.555.016-.585.004a.47.47 0 0 0-.517.359l-.712 2.104-.902 2.656-.44 1.303-1.393 4.277-1.193 3.788a116 116 0 0 1-1.011 2.953c-.198.556-.656.891-1.156 1.109-.529.232-1.082.409-1.689.408-4.428-.012-8.856.004-13.284-.011a3.3 3.3 0 0 1-1.173-.253c-.92-.368-.9-.989-.696-1.632l1.394-4.279 1.258-3.709c.293-.887.548-1.787.837-2.676l.896-2.657.825-2.572c.065-.201.141-.401.19-.607.042-.175.053-.356.086-.589"/><g fill="#ec1c24"><path d="M83.074 18.942c-2.785 0-5.571.021-8.357-.012a17 17 0 0 1-2.764-.272c-.699-.125-1.374-.397-1.944-.868-.551-.453-.67-.981-.401-1.715.169-.463.357-.925.463-1.404.274-1.235.847-1.355 1.758-1.503.188-.029.383-.012.575-.012h8.214l.336.003c.509.028.637.192.605.696-.031.489-.206.963-.087 1.475a1.67 1.67 0 0 0 .512.895 2.66 2.66 0 0 0 1.486.701c.663.083 1.323.085 1.957-.057 1.204-.275 2.237-.86 2.842-1.996a3.4 3.4 0 0 0 .347-1.088c.109-.728-.255-1.308-.752-1.783a3.9 3.9 0 0 0-1.955-1.04c-1.538-.307-3.098-.427-4.652-.608l-3.65-.525-2.107-.432c-.778-.197-1.518-.512-2.119-1.059-.558-.508-.896-1.483-.54-2.279.226-.503.346-1.057.476-1.599.262-1.091.946-1.805 1.92-2.301.847-.431 1.752-.696 2.667-.888.746-.157 1.525-.193 2.291-.201l7.541-.019 3.17-.001 6.576-.057a24 24 0 0 1 3.06.212c.82.112 1.603.416 2.269.949.468.373.619 1.019.409 1.604l-.574 1.771c-.168.507-.438.933-1.002 1.059-.387.087-.782.192-1.173.195l-8.309.023c-.096 0-.193.001-.289-.005-.514-.033-.685-.219-.651-.732.017-.256.061-.509.096-.763.178-1.304-.728-2.067-1.807-2.303a4.85 4.85 0 0 0-2.192.027c-1.199.297-2.248.895-2.813 2.044-.383.779-.629 1.632-.109 2.476.147.24.314.489.529.663.438.352.943.575 1.507.687 1.648.328 3.317.472 4.984.651l4.89.665c.947.169 1.915.357 2.762.891 1.001.629 1.247 1.589.912 2.667l-.522 1.736c-.261 1.037-.917 1.728-1.837 2.205-1.399.725-2.902 1.083-4.466 1.115l-10.082.137v-.023m149.792-1.907-1.489.696-2.728.873a2.5 2.5 0 0 1-.567.096c-2.191.136-4.38.187-6.572.036-.475-.032-.879-.187-1.169-.559a1.3 1.3 0 0 1-.264-.593l-.325-2.759c-.273-1.397-.772-2.704-1.975-3.601-.163-.121-.364-.191-.549-.281-.348-.168-.443-.307-.353-.673.085-.351.224-.689.345-1.051l2.051-.076c.601-.06 1.209-.152 1.784-.331.46-.143.817-.487.972-.984l1.08-3.469c.137-.443-.029-.801-.436-1.053-.684-.424-1.465-.457-2.22-.495l-3.457-.015c-.624.004-.712.065-.921.675l-.613 1.909-.493 1.392-.348 1.091-.747 2.469-.493 1.444-.375 1.135-.744 2.467-.876 2.577c-.148.436-.46.705-.899.764l-2.051.175-6.1.003a2.3 2.3 0 0 1-.745-.143c-.36-.128-.423-.317-.308-.675l.907-2.817.828-2.443.433-1.464.355-1.14.817-2.393.423-1.421.503-1.489.369-1.133.427-1.469c.189-.583.479-1.085 1.165-1.187.347-.051.695-.133 1.041-.135l14.937-.024 5.523.021c.921.025 1.852.155 2.704.551.355.165.703.391.983.663.555.536.517 1.268.283 1.919l-.519 1.585-.848 2.325c-.38.843-1.147 1.311-1.945 1.692-1.453.691-2.993.988-4.599.965a4 4 0 0 0-.288.007c-.267.013-.405.176-.453.419-.049.253.129.385.32.475.143.065.308.083.463.119l1.391.331c1.048.285 1.836.945 2.455 1.809.343.477.647.984.936 1.497.532.947 1.361 1.393 2.409 1.501l.547.075.021.119M124.008 10.914c-.148-.28-.384-.263-.605-.263l-4.996.005-1.489.008c-.491.004-.659.127-.801.587l-1.068 3.468-.832 2.437-.31.899a1.11 1.11 0 0 1-.974.675l-1.675.1-6.869.003c-.237-.001-.476-.045-.713-.08-.301-.044-.391-.249-.363-.521.017-.175.035-.355.089-.52l.806-2.397.439-1.464.366-1.187.819-2.395.753-2.464.821-2.444.432-1.417.709-2.129c.097-.241.355-.48.598-.583.36-.152.77-.251 1.161-.256l7.926-.031a1.44 1.44 0 0 1 1.001.36c-.007.139.019.307-.028.449l-.793 2.353-.421 1.369-.509 1.591c-.158.643-.544 1.233-.475 1.993.157.031.32.091.482.091l6.582.003c.46-.003.608-.157.736-.597l.557-1.723.747-2.421.507-1.492c.133-.391.229-.8.413-1.164.113-.224.329-.467.553-.545.461-.161.957-.297 1.44-.303l7.687-.011a1.4 1.4 0 0 1 .471.064.55.55 0 0 1 .411.668c-.057.328-.159.648-.257.967l-.38 1.131-.747 2.468-.824 2.445-.352 1.091-.745 2.468-.827 2.44-.427 1.419-.685 1.987c-.159.377-.515.612-.939.664a8 8 0 0 1-.959.049c-1.729.004-3.459-.004-5.188.004l-2.351.051a3.6 3.6 0 0 1-.808-.091c-.363-.083-.471-.339-.359-.691l.871-2.781.824-2.441.565-1.895m44.729-9.738c.021.239.069.375.037.488l-.475 1.496c-.215.507-.66.761-1.203.817a9 9 0 0 1-.959.041l-12.104.015c-.176 0-.36-.027-.525.015-.139.036-.312.124-.372.24-.151.295-.256.616-.363.932l-.452 1.409-.469 1.404c-.16.592.007.781.636.784l4.419-.003 2.4-.049c.268-.001.539.053.805.104.216.041.375.216.317.413-.159.539-.18 1.164-.683 1.532-.449.328-.987.435-1.543.435h-5.86l-1.008.001c-.269-.004-.467.093-.56.359l-.537 1.532-.569 1.72-.432 1.416-.664 1.892a.94.94 0 0 1-.503.475c-.416.147-.861.263-1.3.284l-2.737.015-4.608.044a3.7 3.7 0 0 1-.859-.076c-.463-.107-.616-.359-.488-.805l.613-1.959.332-1.047.755-2.467.821-2.444.369-1.133.747-2.468.807-2.399.461-1.507c.188-.511.252-1.136.852-1.367.365-.14.773-.171 1.164-.237.14-.024.287-.011.431-.011l22.144-.012c.375 0 .749.076 1.161.12m80.369 17.583q-5.526.001-11.049-.001c-.24 0-.484.004-.719-.036-.368-.065-.507-.36-.391-.719l.867-2.732.824-2.444c.155-.469.279-.948.429-1.419l.5-1.493.373-1.133.749-2.468c.257-.803.545-1.596.813-2.395.147-.437.273-.881.417-1.32.104-.317.179-.655.344-.939.119-.203.344-.376.561-.483.465-.227.973-.287 1.495-.288L264.635.86a14 14 0 0 1 3.233.363c.667.153 1.295.437 1.816.917.296.273.445.6.4.983a7 7 0 0 1-.247 1.115c-.109.383-.263.752-.38 1.131l-.763 2.513c-.261.819-.551 1.628-.824 2.443a38 38 0 0 0-.348 1.091l-.743 2.471c-.216.7-.419 1.407-.679 2.091-.241.636-.739 1.079-1.312 1.416-.843.493-1.756.791-2.701 1.049-1.344.367-2.7.291-4.055.3l-8.935.008zm-1.079-1.969c.26.041.471.101.684.107.592.013 1.185-.02 1.776.009 1.253.063 2.46-.135 3.58-.695.489-.245.936-.603 1.351-.967.525-.461.664-1.153.881-1.779.285-.827.504-1.679.757-2.516.115-.381.245-.757.371-1.135l.825-2.492c.183-.559.392-1.115.517-1.687.079-.36.135-.791.011-1.119-.308-.815-.997-1.281-1.816-1.492a10 10 0 0 0-1.888-.284c-.732-.043-1.471 0-2.207.009a.45.45 0 0 0-.468.335l-.595 1.715-.755 2.516c-.12.395-.259.785-.391 1.177l-.481 1.448c-.148.469-.267.949-.42 1.417l-.827 2.441-.907 2.989M187.784.945l7.541.012c.989.013 1.985.097 2.96.259a4.23 4.23 0 0 1 2.095.988c.332.291.449.659.413 1.075a4 4 0 0 1-.169.845l-.808 2.399-.748 2.465-.505 1.44-.351 1.091-.759 2.516-.813 2.284c-.307.712-.976 1.076-1.632 1.411-1.66.847-3.452 1.084-5.288 1.088l-12.105.023-2.927.056-3.592-.211c-.873-.097-1.709-.419-2.391-1.005-.505-.435-.745-.971-.407-1.665.173-.353.265-.748.383-1.129l.749-2.467.829-2.492.432-1.417.427-1.367.544-1.679c.217-.651.368-1.336.685-1.933.331-.624.928-1.036 1.561-1.372.78-.413 1.623-.656 2.465-.881.489-.131 1.011-.149 1.52-.191l2.06-.117 7.829-.005zm-5.351 15.972c.651.019 1.267-.065 1.877-.315.881-.363 1.655-.848 2.116-1.693.257-.469.412-.996.591-1.505l.457-1.455.499-1.544.449-1.459.509-1.541.528-1.631c.248-.767.185-1.527-.497-2.141-.483-.436-1.047-.636-1.683-.717-1.565-.201-2.932.219-4.116 1.252-.595.519-.82 1.239-1.044 1.956l-.415 1.369-.824 2.489-.757 2.513-.373 1.132c-.115.444-.228.896-.26 1.352-.036.54.217.971.653 1.312.684.535 1.46.681 2.289.625"/></g><g fill="#fff"><path d="M87.121 45.489c-.071.563-.128 1.023-.62 1.325a20.7 20.7 0 0 1-3.755 1.813c-1.811.657-3.663 1.067-5.592 1.072a1070 1070 0 0 1-4.74-.003c2.043-9.753-17.76-15.491-2.657-19.909-22.537 1.184-7.146 11.084-26.53 19.916l-9.509-.011a6 6 0 0 1-.531-.021c-.929-.099-1.29-.908-.712-1.656.627-.811 1.29-1.595 1.944-2.383l5.649-6.817 6.726-8.129 2.617-3.132a4.77 4.77 0 0 1 3.804-1.783l11.796-.007 10.415.027a12 12 0 0 1 1.114.049c1.027.1 1.711.673 1.916 1.677.245 1.196.432 2.403.648 3.604l.539 2.92.379 2.141.479 2.879.568 3.132c.122.679.274 1.353.355 2.037.089.741.585 1.127 1.185 1.365a6.5 6.5 0 0 0 1.689.424c1.193.127 1.415.055 2.824-.532m-3.829-25.782c-3.314 0-6.629.044-9.942-.023-1.374-.027-2.715-.369-3.91-1.141-1.215-.787-1.281-1.649-.895-2.908l.515-1.541c.186-.703.676-1.115 1.282-1.395.57-.264 1.187-.343 1.823-.341l8.356-.021c.542-.001 1.082.001 1.589.271s.765.792.621 1.36c-.07.277-.149.56-.165.843a1.27 1.27 0 0 0 1.054 1.339c1.233.201 2.319-.113 3.186-1.036.296-.316.48-.697.564-1.143.162-.851-.216-1.425-.885-1.852a2.8 2.8 0 0 0-1.201-.445l-5.189-.635-4.261-.676c-1.039-.223-2.069-.553-2.957-1.192-1.282-.923-1.538-2.007-1.108-3.549.132-.476.359-.929.458-1.409.233-1.125.934-1.872 1.873-2.427C75.34 1.051 76.696.671 78.114.437c1.387-.23 2.774-.23 4.166-.231L98.225.194c1.373-.003 2.716.179 4.003.649.716.261 1.405.605 1.876 1.265.279.391.398.821.303 1.268-.141.668-.346 1.325-.542 1.981-.095.319-.192.648-.355.933-.432.756-1.18 1.039-1.978 1.201-.31.063-.637.064-.956.064l-8.694.007c-.436 0-.854-.041-1.249-.268-.527-.303-.752-.823-.572-1.416a3.5 3.5 0 0 0 .133-.559c.117-.905-.431-1.541-1.342-1.609-1.122-.084-2.081.255-2.855 1.072-.654.691-.782 1.531-.547 2.412.159.593.716.817 1.243.929.795.169 1.61.249 2.419.355l4.14.523.762.1 2.99.423c1.083.241 2.181.493 3.104 1.191.71.537 1.131 1.208 1.105 2.117-.016.576-.061 1.144-.295 1.691a6.2 6.2 0 0 0-.373 1.184c-.226 1.08-.881 1.831-1.792 2.377-1.176.708-2.461 1.103-3.807 1.365-1.397.273-2.8.264-4.207.264l-7.445.001zm-.219-.763.001.023 10.082-.137c1.563-.032 3.066-.389 4.466-1.115.92-.477 1.576-1.168 1.837-2.205l.522-1.736c.335-1.077.089-2.037-.912-2.667-.847-.533-1.815-.721-2.762-.891l-4.89-.665-4.984-.651a3.4 3.4 0 0 1-1.507-.687c-.215-.173-.382-.423-.529-.663-.52-.844-.273-1.697.109-2.476.566-1.149 1.615-1.747 2.813-2.044a4.85 4.85 0 0 1 2.192-.027c1.079.236 1.984.999 1.807 2.303l-.096.763c-.035.513.136.699.651.732.096.007.192.005.289.005l8.309-.023c.392-.003.787-.108 1.173-.195.564-.125.834-.552 1.002-1.059l.574-1.771s.058-1.231-.409-1.604a4.6 4.6 0 0 0-2.269-.949 24 24 0 0 0-3.06-.212c-2.192-.012-4.384.04-6.576.057l-3.17.001c-2.513.003-5.028-.008-7.541.019-.766.008-1.545.044-2.291.201-.915.192-1.82.457-2.667.888-.975.496-1.658 1.211-1.92 2.301-.13.541-.251 1.096-.476 1.599-.357.796-.019 1.771.54 2.279.601.547 1.341.861 2.119 1.059l2.107.432a87 87 0 0 0 3.65.525l4.652.608A3.9 3.9 0 0 1 87.865 12c.497.475.861 1.055.752 1.783a3.4 3.4 0 0 1-.347 1.088c-.605 1.136-1.638 1.721-2.842 1.996-.633.143-1.294.14-1.957.057a2.66 2.66 0 0 1-1.486-.701 1.67 1.67 0 0 1-.512-.895c-.119-.512.056-.985.087-1.475.032-.504-.096-.668-.605-.696-.111-.008-.224-.003-.336-.003h-8.214c-.192 0-.387-.017-.575.012-.911.148-1.484.268-1.758 1.503-.106.479-.294.941-.463 1.404-.269.733-.15 1.261.401 1.715.57.471 1.245.743 1.944.868a17 17 0 0 0 2.764.272l8.357.012m132.251-7.631.843-2.597a.39.39 0 0 1 .389-.296l.959-.032c.88-.005 1.757.009 2.629-.175.468-.099.712-.341.841-.792l.845-2.693a2 2 0 0 0 .103-.419c.036-.313-.083-.489-.397-.551a4.5 4.5 0 0 0-.809-.084l-3.073-.013c-.292-.004-.487.072-.579.376l-.568 1.725-.816 2.501-.385 1.183-.748 2.472-.809 2.403-.779 2.513-.395 1.229c-.212.619-.677 1.021-1.249 1.252-.467.189-.983.355-1.479.361l-7.972.012c-.412-.005-.849-.173-1.224-.364-.408-.208-.636-.607-.531-1.087l.456-1.659.568-1.776.797-2.407.417-1.272 1.241-3.871.759-2.471.82-2.449c.087-.257.14-.528.251-.773.215-.476.628-.78 1.079-.98.492-.217 1.004-.395 1.569-.389l5.092-.005 14.843-.015c1.095-.004 2.18.068 3.233.349 1.037.277 2.048.653 2.687 1.613.276.415.409.891.309 1.371-.141.685-.353 1.359-.555 2.031l-.495 1.497c-.339 1.435-1.185 2.436-2.472 3.121-.836.447-1.695.812-2.632.983-.2.036-.424.079-.412.397l1.021.661c.795.589 1.389 1.357 1.884 2.207l.4.708c.66 1.143 2.124 1.148 2.925.539l1.38-1.083c.021.191.063.297.037.384l-.556 1.784c-.133.416-.543.529-.856.723a14.3 14.3 0 0 1-3.447 1.529c-.823.244-1.683.379-2.533.511-2.004.311-4.023.233-6.036.127-.612-.032-1.231-.145-1.808-.427-.865-.421-1.201-1.151-1.285-2.041l-.075-1.44c-.137-1.255-.504-2.435-1.285-3.451a2.03 2.03 0 0 0-1.507-.823c-.181-.013-.36-.075-.612-.129zm17.54 5.728-.021-.119-.547-.075c-1.048-.108-1.877-.555-2.409-1.501l-.936-1.497c-.619-.864-1.407-1.524-2.455-1.809l-1.391-.331c-.155-.036-.32-.053-.463-.119-.191-.089-.369-.221-.32-.475.048-.243.187-.405.453-.419a4 4 0 0 1 .288-.007c1.605.023 3.145-.275 4.599-.965.799-.381 1.565-.849 1.945-1.692.337-.751.577-1.545.848-2.325l.519-1.585c.235-.651.272-1.383-.283-1.919a3.6 3.6 0 0 0-.983-.663c-.852-.396-1.783-.525-2.704-.551l-5.523-.021-14.937.024c-.347.001-.695.084-1.041.135-.687.101-.976.604-1.165 1.187l-.427 1.469-.369 1.133-.503 1.489-.423 1.421-.817 2.393-.355 1.14-.433 1.464-.828 2.443-.907 2.817c-.115.357-.052.547.308.675a2.3 2.3 0 0 0 .745.143l6.1-.003c.684-.007 1.371-.085 2.051-.175.439-.059.751-.328.899-.764l.876-2.577.744-2.467.375-1.135.493-1.444.747-2.469.348-1.091.493-1.392.613-1.909c.209-.609.297-.671.921-.675l3.457.015c.755.037 1.536.071 2.22.495.407.252.573.611.436 1.053l-1.08 3.469a1.46 1.46 0 0 1-.972.984c-.575.179-1.183.271-1.784.331-.664.067-1.336.053-2.051.076l-.345 1.051c-.089.367.005.505.353.673.185.091.387.16.549.281 1.203.897 1.701 2.204 1.975 3.601.177.905.204 1.84.325 2.759.028.208.135.427.264.593.291.372.695.527 1.169.559 2.192.151 4.381.1 6.572-.036a2.5 2.5 0 0 0 .567-.096l2.728-.873c.513-.185.995-.46 1.489-.696M122.597 11.477l-.573-.063a728 728 0 0 0-4.179.008c-.547.003-.598.075-.758.596l-.837 2.543-.397 1.229-.729 2.327c-.244.68-.799 1.065-1.465 1.273a6.6 6.6 0 0 1-2.032.304 500 500 0 0 0-7.349.005c-.515.004-.982-.137-1.441-.316-.592-.229-.849-.927-.645-1.541l.804-2.557.823-2.499.768-2.467.363-1.14 1.159-3.496.756-2.471.627-1.756c.191-.481.632-.728 1.066-.917.495-.216 1.017-.363 1.578-.361l8.309-.005c.485-.003.928.121 1.328.352.453.263.687.547.568 1.153-.117.593-.311 1.171-.486 1.752l-.531 1.637-.806 2.455c-.085.256-.227.504-.013.799.106.012.23.037.353.039l4.035-.007a1.8 1.8 0 0 0 .565-.08c.12-.041.265-.152.304-.264l.688-2.14.745-2.323.496-1.499c.208-.82.731-1.295 1.495-1.604.599-.243 1.207-.283 1.832-.283l7.637-.001c.512 0 1.011.02 1.485.289.599.339.857.936.584 1.571-.212.496-.332 1.031-.499 1.547l-.509 1.545-.393 1.18-1.256 3.916-.759 2.469-.831 2.496-.759 2.471c-.276.965-.879 1.589-1.868 1.78a10 10 0 0 1-1.757.197l-7.105.044c-.535-.004-1.099-.087-1.593-.279-.837-.325-.995-.839-.728-1.76l.932-2.915.824-2.448c.073-.224.104-.463.175-.787zm1.411-.563-.565 1.895-.824 2.441-.871 2.781c-.112.352-.004.608.359.691.263.06.539.092.808.091l2.351-.051 5.188-.004.959-.049c.424-.052.78-.287.939-.664.271-.645.469-1.32.685-1.987l.427-1.419.827-2.44.745-2.468.352-1.091.824-2.445.747-2.468.38-1.131.257-.967a.55.55 0 0 0-.411-.668 1.4 1.4 0 0 0-.471-.064c-2.563-.004-5.124-.017-7.687.011-.483.005-.979.141-1.44.303-.224.079-.44.321-.553.545-.184.364-.28.773-.413 1.164l-.507 1.492-.747 2.421-.557 1.723c-.128.44-.276.595-.736.597a1354 1354 0 0 1-6.582-.003c-.162 0-.325-.06-.482-.091-.069-.76.317-1.351.475-1.993.132-.54.341-1.06.509-1.591l.421-1.369.793-2.353c.046-.143.021-.311.028-.449a1.44 1.44 0 0 0-1.001-.36l-7.926.031a3.2 3.2 0 0 0-1.161.256c-.243.103-.501.341-.598.583-.279.692-.482 1.416-.709 2.129l-.432 1.417-.821 2.444-.753 2.464-.819 2.395-.366 1.187-.439 1.464-.806 2.397a2.4 2.4 0 0 0-.089.52c-.028.272.063.477.363.521.237.035.475.079.713.08l6.869-.003c.558-.003 1.118-.053 1.675-.1a1.11 1.11 0 0 0 .974-.675c.13-.287.207-.599.31-.899l.832-2.437 1.068-3.468c.142-.46.31-.583.801-.587l1.489-.008 4.996-.005c.221 0 .457-.017.605.263M156.529.201l10.949-.004c.551 0 1.079.067 1.599.264.623.236.92.641.795 1.288-.108.563-.232 1.136-.459 1.657-.32.74-.987 1.099-1.745 1.288-1.008.252-2.036.199-3.059.203l-9.797.005c-.729 0-.824.096-1.016.801a18 18 0 0 1-.512 1.543c-.203.549-.119.707.455.703l3.84-.037 2.064.044c.408.032.823.135 1.208.275.5.183.74.591.671 1.151-.141 1.133-.569 2.024-1.792 2.404-.5.155-.991.24-1.505.241l-5.763.008c-.632.001-.713.093-.897.696l-.847 2.541c-.247.743-.561 1.471-.72 2.231-.323 1.549-1.397 2.087-2.799 2.196-.891.069-1.791.028-2.688.029l-5.715.005a2.6 2.6 0 0 1-1.245-.281c-.655-.336-.881-.903-.645-1.596l.891-2.777.804-2.401.409-1.276.423-1.421 1.271-3.961 1.14-3.4.303-.905c.241-.689.811-1.037 1.448-1.208a7.8 7.8 0 0 1 1.94-.271l10.996-.012V.201zm12.205.976-1.161-.12c-7.381-.001-14.763.007-22.144.012-.144 0-.291-.013-.431.011-.391.067-.799.097-1.164.237-.6.231-.664.856-.852 1.367-.18.492-.299 1.008-.461 1.507l-.807 2.399-.747 2.468c-.116.38-.244.757-.369 1.133l-.821 2.444-.755 2.467-.332 1.047-.613 1.959c-.128.447.025.699.488.805.277.064.572.079.859.076l4.608-.044c.913-.008 1.828.027 2.737-.015.439-.021.884-.137 1.3-.284a.94.94 0 0 0 .503-.475c.255-.617.456-1.257.664-1.892.155-.469.283-.945.432-1.416l.569-1.72.537-1.532c.093-.265.291-.363.56-.359.336.005.672 0 1.008-.001h5.86c.556 0 1.093-.107 1.543-.435.503-.368.524-.993.683-1.532.057-.197-.101-.372-.317-.413-.267-.051-.537-.105-.805-.104-.8.003-1.6.045-2.4.049l-4.419.003c-.629-.003-.796-.192-.636-.784.128-.476.315-.936.469-1.404l.452-1.409c.107-.316.212-.637.363-.932.06-.116.233-.204.372-.24.165-.041.349-.015.525-.015l12.104-.015a9 9 0 0 0 .959-.041c.543-.056.988-.311 1.203-.817.203-.48.332-.992.475-1.496.032-.113-.016-.249-.037-.488M255.045.126l9.031.003 2.4.055c1.38.121 2.713.424 3.861 1.276.427.316.744.715.891 1.216.072.249.065.541.019.8-.064.36-.195.708-.305 1.057l-.921 2.871-1.143 3.452-.772 2.517-.976 2.953c-.237.623-.728 1.08-1.284 1.451-.993.661-2.079 1.079-3.237 1.372-1.428.363-2.875.451-4.329.456l-20.127.021c-.441 0-.895-.06-1.321-.175-1.141-.304-1.212-1.032-.971-1.825l1.252-3.92 1.151-3.447.756-2.471.823-2.449.764-2.467.385-1.183c.253-.6.72-.977 1.32-1.244s1.207-.285 1.831-.285h10.904V.126zm-5.944 18.633 8.935-.017c1.355-.009 2.711.067 4.055-.3.945-.259 1.859-.556 2.701-1.049.573-.337 1.071-.78 1.312-1.416l.679-2.091.743-2.471.348-1.091.824-2.443.763-2.513.38-1.131a7 7 0 0 0 .247-1.115c.045-.383-.104-.709-.4-.983-.521-.48-1.149-.764-1.816-.917a14 14 0 0 0-3.233-.363L244.316.89c-.521.001-1.029.061-1.495.288-.217.107-.443.28-.561.483-.165.284-.24.621-.344.939l-.417 1.32-.813 2.395-.749 2.468-.373 1.133-.5 1.493-.429 1.419-.824 2.444-.867 2.732c-.116.359.023.653.391.719.235.04.479.036.719.036l11.049.001"/><path d="m187.529.191 9.075.011a8.5 8.5 0 0 1 3.919.969c.596.317 1.103.768 1.375 1.42.16.388.132.781.008 1.175l-.864 2.736-.831 2.496-.764 2.469-.811 2.452c-.14.424-.319.841-.399 1.277-.281 1.533-1.209 2.523-2.563 3.188a11.5 11.5 0 0 1-2.848.961c-.937.187-1.901.319-2.855.323h-17.527c-1.344-.008-2.671-.305-3.879-.943-.533-.281-1.039-.643-1.336-1.201-.316-.593-.229-1.213-.045-1.82l.915-2.871.82-2.449.369-1.137 1.256-3.916.565-1.776c.323-.825.981-1.369 1.719-1.805 1.18-.699 2.469-1.072 3.817-1.323 1.4-.261 2.801-.24 4.208-.244l6.675-.001zm.255.753-7.829.024c-.688.004-1.375.061-2.06.117-.509.041-1.031.06-1.52.191-.843.225-1.685.468-2.465.881-.633.336-1.231.748-1.561 1.372-.317.597-.468 1.283-.685 1.933l-.544 1.679-.427 1.367-.432 1.417-.829 2.492-.749 2.467c-.117.381-.209.776-.383 1.129-.339.695-.099 1.231.407 1.665.681.587 1.517.908 2.391 1.005 1.191.132 2.393.181 3.592.211l2.927-.056 12.105-.023c1.836-.004 3.628-.241 5.288-1.088.656-.335 1.325-.699 1.632-1.411.32-.74.564-1.515.813-2.284l.759-2.516a31 31 0 0 1 .351-1.091l.505-1.44.748-2.465.808-2.399a4 4 0 0 0 .169-.845c.036-.416-.081-.784-.413-1.075a4.23 4.23 0 0 0-2.095-.988 20 20 0 0 0-2.96-.259l-7.541-.012m60.236 15.848.907-2.989.827-2.441.42-1.417.481-1.448.391-1.177.755-2.516.595-1.715a.45.45 0 0 1 .468-.335l2.207-.009a10 10 0 0 1 1.888.284c.819.211 1.508.677 1.816 1.492.124.328.068.759-.011 1.119-.125.572-.335 1.128-.517 1.687l-.825 2.492-.371 1.135-.757 2.516c-.217.625-.356 1.317-.881 1.779-.415.364-.861.721-1.351.967-1.12.56-2.327.757-3.58.695-.591-.029-1.184.004-1.776-.009-.213-.005-.424-.065-.684-.107zm1.523-.748c.123.052.165.084.211.087 1.327.089 2.625-.032 3.823-.657.525-.273 1.013-.633 1.229-1.229l.769-2.26 1.084-3.521.48-1.403.496-1.799a1.06 1.06 0 0 0-.507-1.196c-.341-.208-.699-.383-1.116-.397l-2.061-.092a.61.61 0 0 0-.671.424l-.163.449-.764 2.468-.803 2.405-1.088 3.52-.388 1.181-.473 1.456c-.052.176-.04.369-.059.564m-67.111.875c-.829.056-1.605-.091-2.289-.625-.436-.341-.689-.772-.653-1.312.032-.456.145-.908.26-1.352.099-.384.257-.752.373-1.132l.757-2.513.824-2.489.415-1.369c.224-.717.449-1.437 1.044-1.956 1.184-1.033 2.551-1.453 4.116-1.252.636.081 1.2.281 1.683.717.683.615.745 1.375.497 2.141l-.528 1.631-.509 1.541-.449 1.459-.499 1.544-.457 1.455c-.179.509-.333 1.036-.591 1.505-.461.845-1.235 1.331-2.116 1.693-.611.249-1.227.333-1.877.315zm-.036-.668 1.293-.348c1.059-.353 1.756-1.051 2.02-2.161.103-.433.267-.852.404-1.277l.819-2.499.751-2.469.673-2.193a1.3 1.3 0 0 0-.001-.608c-.135-.584-.565-.877-1.117-.975a3.53 3.53 0 0 0-2.369.377c-.599.331-1.123.765-1.36 1.428l-.716 2.281-.407 1.275-.811 2.452-.885 2.777c-.197.579-.143 1.315.641 1.629.332.135.691.204 1.065.311"/><path fill-rule="evenodd" d="M50.871 16.202c-1.781-.001-3.561.001-5.342-.005l-1.209 1.796c-.422.644-1.005 1.052-1.698 1.364s-1.403.385-2.157.384l-7.341-.011a5 5 0 0 1-.491-.02c-1.396-.148-2.008-1.568-1.148-2.681l1.475-1.811L44.205 1.657C45.119.573 46.322.003 47.741.002l10.382.016a10 10 0 0 1 .919.04c1.155.113 1.993.825 2.228 1.972l.49 2.72.404 2.189.286 1.616.358 2.155.425 2.341.275 1.581c.021.176.178.237.33.297.327.131.679.221 1.029.26.806.085.903-.012 1.678-.336l1.43-.596-.196 1.537c-.089.697-.243 1.251-.887 1.645a16.5 16.5 0 0 1-2.978 1.437c-1.452.528-2.946.855-4.496.857-1.332.003-2.664-.005-3.996-.008-.793-.001-1.575-.111-2.315-.404-1.403-.552-2.251-1.523-2.236-3.095v-.027zm16.018-.52c-.054.423-.096.768-.466.993a15.4 15.4 0 0 1-2.815 1.36c-1.358.493-2.746.801-4.193.804-2.377.004-1.615-.004-3.992-.008-.682-.001-1.353-.091-1.988-.341-.969-.383-1.68-.988-1.669-2.253l-.011-.889-.443-.041c-1.939-.003-3.878.001-5.817-.007a.72.72 0 0 0-.707.388l-1.219 1.813c-.325.496-.783.799-1.316 1.039-.578.26-1.177.305-1.789.305l-7.34-.011a4 4 0 0 1-.397-.016c-.697-.073-.968-.68-.534-1.241l1.457-1.787L44.89 2.235c.744-.884 1.696-1.336 2.853-1.337L58.12.914l.835.036c.771.076 1.283.505 1.437 1.259l.487 2.701.404 2.189.284 1.607.359 2.157.426 2.348.267 1.528c.066.556.438.845.887 1.024.402.16.836.272 1.266.317.895.096 1.061.041 2.118-.399zm-19.992-3.111h4.754c.16-.373.137-6.915-.028-7.276l-.346.44-2.555 3.877-1.638 2.488c-.076.115-.105.26-.187.471m1.537-.897h2.403l.009-.521.017-2.216-.007-.933-1.384 2.103-1.037 1.568"/></g><path fill="#ec1c24" d="M66.889 15.682c-.054.423-.096.768-.466.993a15.4 15.4 0 0 1-2.815 1.36c-1.358.493-2.746.801-4.193.804-2.377.004-1.615-.004-3.992-.008-.682-.001-1.353-.091-1.988-.341-.969-.383-1.681-.988-1.669-2.253l-.011-.891-.443-.04c-1.939-.003-3.878.001-5.817-.007-.321 0-.529.093-.707.388l-1.219 1.812c-.325.497-.783.8-1.317 1.04-.578.26-1.177.305-1.789.305l-7.34-.011c-.133 0-.266-.001-.397-.016-.697-.073-.968-.68-.534-1.241l1.457-1.787 11.24-13.555c.744-.884 1.696-1.336 2.853-1.337L58.12.914a9 9 0 0 1 .835.036c.77.076 1.283.505 1.437 1.259l.487 2.701.404 2.189.284 1.607.359 2.159.426 2.347.267 1.528c.066.557.438.845.887 1.024.402.16.836.272 1.266.317.895.096 1.061.041 2.118-.399zm-19.992-3.111h4.754c.16-.373.137-6.915-.028-7.276l-.346.44-2.555 3.877-1.638 2.487c-.075.116-.105.261-.187.472"/><path fill="#fff" d="M63.46 31.887c-2.036.748-2.78 1.796-2.86 3.052l-.956.004c.334-1.479 1.335-2.587 3.816-3.056m-2.706 4.535c.381 1.631 1.35 3.496 1.905 5.444l-2.732.012c-.037-1.923-.426-3.821-.427-5.451zm2.272 7.296c.199 2.009-.345 4.055-2.672 5.981h-4.778c2.896-1.685 3.953-3.792 4.253-5.967l3.197-.015m64.39 15.151c-.404-.822-1.264-1.058-2.095-1.058-.981.007-2.063.457-2.063 1.553 0 1.196 1.004 1.485 2.093 1.615.708.076 1.235.282 1.235.784 0 .579-.595.8-1.227.8-.648 0-1.264-.259-1.5-.845l-.837.434c.395.975 1.233 1.31 2.323 1.31 1.187 0 2.239-.51 2.239-1.698 0-1.271-1.036-1.561-2.148-1.698-.64-.076-1.188-.206-1.188-.67 0-.396.357-.708 1.104-.708.579 0 1.081.289 1.264.594zm1.949 4.454v-5.337h-.999v5.337zm4.447-2.028-2.612-3.309h-.815v5.337h1.005v-3.599l2.803 3.599h.624v-5.337h-1.005zm5.939.666c-.349.35-.876.541-1.339.541-1.319 0-1.828-.922-1.836-1.805-.008-.89.548-1.85 1.836-1.85.463 0 .936.16 1.287.503l.669-.647a2.75 2.75 0 0 0-1.956-.815c-1.927 0-2.833 1.416-2.825 2.809.007 1.386.845 2.749 2.825 2.749.768 0 1.476-.251 2.024-.792zm5.224.373h-2.992V61.13h2.885v-.937h-2.885v-1.234h2.992v-.974h-3.991v5.337h3.991zm2.011.99h2.536v-.853h-.739v-4.485h-1.828v.913h.831v3.571h-.8zm6.556-1.682c0 .579-.609.906-1.211.898-.571 0-1.195-.236-1.195-.708h-1.005c0 1.119 1.059 1.577 2.215 1.577 1.097 0 2.193-.556 2.193-1.744v-1.987c0-1.196-1.135-1.782-2.223-1.782-1.073 0-2.208.586-2.208 1.766 0 1.325 1.127 1.775 2.2 1.775.419 0 .997-.198 1.233-.564v.799zm-1.225-2.848c.655 0 1.217.281 1.225.868.008.594-.564.899-1.233.899s-1.203-.312-1.203-.899.579-.868 1.211-.868m4.44 4.53 2.389-4.804-.052-.533h-3.915v.959h2.596l-2.177 4.378zm6.189-1.682c0 .579-.609.906-1.211.898-.571 0-1.196-.236-1.196-.708h-1.005c0 1.119 1.059 1.577 2.217 1.577 1.096 0 2.192-.556 2.192-1.744v-1.987c0-1.196-1.135-1.782-2.223-1.782-1.075 0-2.208.586-2.208 1.766 0 1.325 1.127 1.775 2.2 1.775.419 0 .997-.198 1.233-.564v.799zm-1.225-2.848c.655 0 1.217.281 1.225.868.008.594-.564.899-1.233.899s-1.203-.312-1.203-.899.579-.868 1.211-.868"/><path fill="#ec1c24" d="M2.369 59.704H116.91v1.861H2.369zm167.685 0h114.541v1.861H170.054z"/></svg>