<svg xmlns="http://www.w3.org/2000/svg" viewBox="0 0 64.738 49.12"><path d="M82.557 78.29v-2.378l-1.586.916v2.378z" style="fill:#959796;fill-opacity:1;fill-rule:nonzero;stroke:none;stroke-width:.0352778" transform="translate(-36.647 -53.997)"/><path d="M71.157 73.572 55.474 64.52l10.277 5.919 5.402 3.111z" style="fill:#7c4523;fill-opacity:1;fill-rule:nonzero;stroke:none;stroke-width:.0352778" transform="translate(-36.647 -53.997)"/><path d="M40.929 56.14v-.003z" style="fill:#534744;fill-opacity:1;fill-rule:nonzero;stroke:none;stroke-width:.0352778" transform="translate(-36.647 -53.997)"/><path d="m71.153 73.55-5.403-3.11 5.402 3.11v.001M50.974 61.926 40.93 56.14v-.002l10.045 5.79" style="fill:#443b38;fill-opacity:1;fill-rule:nonzero;stroke:none;stroke-width:.0352778" transform="translate(-36.647 -53.997)"/><path d="m82.389 74.44 10.458 8.36 6.907 4.657 1.63 2.888-.643.348-.178 2.265-18.085-9.937-2.832-7.64 1.543-.782 1.2-.158" style="fill:#fabd22;fill-opacity:1;fill-rule:nonzero;stroke:none;stroke-width:.0352778" transform="translate(-36.647 -53.997)"/><path d="M80.845 75.223 99.11 87.805l1.63 2.888-.177 2.265-1 .369-17.667-10-2.525-2.376.275-5.57z" style="fill:#e55d1b;fill-opacity:1;fill-rule:nonzero;stroke:none;stroke-width:.0352778" transform="translate(-36.647 -53.997)"/><path d="m101.385 90.345-.644.348-.178 2.265.649-.39z" style="fill:#f68c1f;fill-opacity:1;fill-rule:nonzero;stroke:none;stroke-width:.0352778" transform="translate(-36.647 -53.997)"/><path d="M76.247 103.117a8.6 8.6 0 0 1-1.733-.17c-.996-.205-2.257-.684-3.535-1.251l-3.808.697-9.347-4.266-5.6 1.594-13.097-7.676 6.87-2.974-1.322-.695-4.132 1.786-1.416-.792 5.733-2.69s-6.74-2.86-7.412-3.527-.801-5.26-.801-5.26l1.501-.963 9.532 5.504.002-.001L78.456 100.2l.023-.013c1.012.568 1.968.838 2.821.838.7 0 1.329-.182 1.862-.53l1.667-.99 2.446 1.345.178-2.265.644-.347-.284-.503 8.774-5.206 3.436 1.947-13.94 8.36-4.965-.8s-2.234 1.08-4.871 1.08" style="fill:#322926;fill-opacity:.607143;fill-rule:nonzero;stroke:none;stroke-width:.0352778" transform="translate(-36.647 -53.997)"/><path d="M78.436 100.2 47.662 82.433l5.166-2.987-9.8-5.658 2.478-1.59 7.73 1.025 5.187 2.995 2.274-1.315 4.075 1.37.029.344-2.155.607v3.657l3.878 2.299-.186.094 1.433 3.866v2.016l.614-.363.786 2.12 3.317 1.823c1.161 3.03 3.318 5.882 5.786 7.345q.093.055.184.106z" style="fill:#322926;fill-opacity:.607143;fill-rule:nonzero;stroke:none;stroke-width:.0352778" transform="translate(-36.647 -53.997)"/><path d="m58.423 76.218-5.187-2.995 4.071.54 3.39 1.14z" style="fill:#2e2623;fill-opacity:1;fill-rule:nonzero;stroke:none;stroke-width:.0352778" transform="translate(-36.647 -53.997)"/><path d="m47.66 82.434-9.532-5.504 4.9-3.142 9.8 5.658-5.166 2.987h-.002" style="fill:#322926;fill-opacity:.607143;fill-rule:nonzero;stroke:none;stroke-width:.0352778" transform="translate(-36.647 -53.997)"/><path d="m59.817 67.007.179-.113q-.033.094-.064.19zm-.272 1.342a8 8 0 0 0 .05 1.103l.183.122q.023.187.055.377l-.168-.007q.1.59.275 1.185l.181.066q.06.2.128.398l-.143.054q.209.603.482 1.193l.168.006q.093.197.193.392l-.11.112q.303.58.66 1.125l.141-.056q.122.185.248.363l-.069.163q.375.52.793.985l.108-.112q.142.158.288.308l-.023.201q.422.428.876.785l.067-.162q.153.12.31.23l.022.228a6.5 6.5 0 0 0 .904.536l.023-.202q.156.075.31.138l.067.242q.327.129.638.203l-.85.947.389.207.875-.479.104.045 2.968-1.284c.142-.068.947-1.018 1.074-1.112l-.023-.049.274-.162q.275-.264.482-.622l-.103-.16.27-.16q.174-.388.274-.86l-.167-.191.015-.085.223-.132q.053-.399.054-.845-.001-.1-.004-.2l-.182-.147q-.004-.11-.012-.219l.168-.1a9 9 0 0 0-.177-1.162l-.184-.095q-.036-.158-.076-.317l.14-.083a12 12 0 0 0-.395-1.21l-.176-.036q-.073-.188-.154-.373l.126-.083a13 13 0 0 0-.589-1.18l-.157.025a13 13 0 0 0-.205-.347l.089-.137a13 13 0 0 0-.746-1.077l-.132.078a10 10 0 0 0-.24-.296l.047-.184a11 11 0 0 0-.857-.905l-.147.088a10 10 0 0 0-.21-.188v-.218a8 8 0 0 0-.915-.676l-.175.104-.009-.006q-.069-.04-.138-.077l-.045-.239a5.6 5.6 0 0 0-.915-.409l-.247.147-.021-.007-.09-.244a3.6 3.6 0 0 0-.856-.11l-.325.015c-.265.029-1.727.813-1.959.911l-.26.155-.013-.02-2.83 1.678-.546 1.512 1.078-.684a5.3 5.3 0 0 0-.152.846l.176.17q-.014.163-.02.333z" style="fill:#3b0d18;fill-opacity:1;fill-rule:nonzero;stroke:none;stroke-width:.0352778" transform="translate(-36.647 -53.997)"/><path d="m63.521 63.816-1.53 1.04-2.527 1.247.746-.192 2.48-1.101 1.562-1.295zm7.024 4.363-1.283 1.945-2.758.45.588 1.18 2.774-.46 1.268-1.936-.281-.6z" style="fill:#421721;fill-opacity:1;fill-rule:nonzero;stroke:none;stroke-width:.0352778" transform="translate(-36.647 -53.997)"/><path d="m71.339 69.85-1.492 1.952-2.55.444.396 1.209 2.566-.454 1.476-1.941-.162-.55z" style="fill:#421721;fill-opacity:1;fill-rule:nonzero;stroke:none;stroke-width:.0352778" transform="translate(-36.647 -53.997)"/><path d="m71.854 71.555-1.408 1.94-2.634.456.178 1.162 2.649-.465 1.392-1.93-.053-.52z" style="fill:#421721;fill-opacity:1;fill-rule:nonzero;stroke:none;stroke-width:.0352778" transform="translate(-36.647 -53.997)"/><path d="m72.057 73.184-1.358 1.899-2.684.496-.05 1.044 2.7-.506 1.342-1.89.054-.453z" style="fill:#421721;fill-opacity:1;fill-rule:nonzero;stroke:none;stroke-width:.0352778" transform="translate(-36.647 -53.997)"/><path d="m71.936 74.636-1.191 1.684-2.85.712-.275.86 2.927-.882 1.115-1.514.15-.355z" style="fill:#421721;fill-opacity:1;fill-rule:nonzero;stroke:none;stroke-width:.0352778" transform="translate(-36.647 -53.997)"/><path d="m71.495 75.817-1.34 1.332-2.701 1.063-.482.621 2.716-1.072 1.325-1.323.258-.262.224-.36m-1.968-9.174-1.283 1.946-2.759.45.747 1.076 2.773-.459 1.268-1.936-.372-.567z" style="fill:#421721;fill-opacity:1;fill-rule:nonzero;stroke:none;stroke-width:.0352778" transform="translate(-36.647 -53.997)"/><path d="m68.345 65.335-1.283 1.946-2.759.45.858.905 2.773-.459 1.268-1.937-.386-.45z" style="fill:#421721;fill-opacity:1;fill-rule:nonzero;stroke:none;stroke-width:.0352778" transform="translate(-36.647 -53.997)"/><path d="m67.073 64.34-1.283 1.947-2.758.45.914.675 2.774-.459 1.268-1.936-.39-.326-.525-.35" style="fill:#421721;fill-opacity:1;fill-rule:nonzero;stroke:none;stroke-width:.0352778" transform="translate(-36.647 -53.997)"/><path d="m65.79 63.714-1.153 1.621-2.888.775.915.409 2.903-.784 1.139-1.612-.401-.217-.514-.192" style="fill:#421721;fill-opacity:1;fill-rule:nonzero;stroke:none;stroke-width:.0352778" transform="translate(-36.647 -53.997)"/><path d="m64.577 63.5-1.256 1.31-2.786 1.085.858.11 2.72-.889 1.32-1.506-.47-.087-.386-.024" style="fill:#421721;fill-opacity:1;fill-rule:nonzero;stroke:none;stroke-width:.0352778" transform="translate(-36.647 -53.997)"/><path d="m60.263 65.95-1.865 1.022.493.779 1.372-.796z" style="fill:#3b0d18;fill-opacity:1;fill-rule:nonzero;stroke:none;stroke-width:.0352778" transform="translate(-36.647 -53.997)"/><path d="m59.748 66.961-1.865 1.105.493.779 1.372-.796V66.96m-.203 1.39-1.864 1.104.492.779 1.372-.796v-1.088m.12 1.595-1.864 1.105.492.779 1.372-.797zm.441 1.703-1.865 1.105.493.779 1.372-.796z" style="fill:#3b0d18;fill-opacity:1;fill-rule:nonzero;stroke:none;stroke-width:.0352778" transform="translate(-36.647 -53.997)"/><path d="M67.965 76.623a6.5 6.5 0 0 0 .054-.844q0-.1-.004-.2l-.181-.148a8 8 0 0 0-.02-.355l.176.037a9 9 0 0 0-.178-1.162l-.184-.096a11 11 0 0 0-.09-.376l.155-.024q-.161-.607-.396-1.209l-.175-.036q-.075-.188-.155-.373l.126-.083a13 13 0 0 0-.588-1.18l-.157.025a13 13 0 0 0-.206-.347l.09-.138a13 13 0 0 0-.747-1.077l-.127.085q-.12-.154-.244-.302l.047-.184q-.411-.486-.858-.905l-.089.139a10 10 0 0 0-.268-.24v-.218a8 8 0 0 0-.914-.676l-.046.185-.138-.086q-.069-.04-.138-.078l-.046-.238a5.6 5.6 0 0 0-.915-.41v.22a5 5 0 0 0-.268-.08l-.088-.243a3.6 3.6 0 0 0-.858-.111l.046.238a3 3 0 0 0-.244.013l-.127-.235a2.6 2.6 0 0 0-.746.193l.09.243q-.106.046-.207.103l-.156-.211a2.5 2.5 0 0 0-.589.482l.126.233q-.08.09-.154.19l-.176-.172a3.4 3.4 0 0 0-.396.74l.156.208a4 4 0 0 0-.09.27l-.185-.124a5 5 0 0 0-.177.952l.176.17q-.014.163-.02.334l-.181-.068q-.004.097-.005.195.002.447.054.908l.184.122q.023.187.054.377l-.167-.007q.1.591.274 1.185l.182.066q.06.2.127.398l-.142.054q.208.603.482 1.193l.167.006q.093.197.194.392l-.11.112q.303.579.659 1.125l.142-.055q.12.183.248.362l-.069.163q.376.52.792.985l.108-.111q.142.156.289.307l-.024.202q.424.427.876.785l.068-.163q.153.12.309.23l.023.228a7 7 0 0 0 .904.536l.023-.202q.156.075.309.138l.067.242q.454.18.876.253l-.023-.23q.147.025.289.035l.108.24q.416.03.792-.046l-.069-.244q.126-.029.248-.069l.142.223a2.4 2.4 0 0 0 .658-.344l-.11-.242q.102-.075.194-.162l.168.192q.273-.264.482-.62l-.143-.224q.07-.118.128-.246l.181.148a4.2 4.2 0 0 0 .275-.86l-.167-.19q.03-.153.054-.313z" style="fill:#582a36;fill-opacity:1;fill-rule:nonzero;stroke:none;stroke-width:.0352778" transform="translate(-36.647 -53.997)"/><path d="M67.511 75.597c0 3.094-2.129 4.34-4.755 2.784S58 73.054 58 69.96c0-3.095 2.13-4.34 4.756-2.784s4.755 5.327 4.755 8.42" style="fill:#4e1d29;fill-opacity:1;fill-rule:nonzero;stroke:none;stroke-width:.0352778" transform="translate(-36.647 -53.997)"/><path d="M66.43 74.956c0 2.39-1.645 3.353-3.674 2.15-2.03-1.202-3.675-4.115-3.675-6.505s1.646-3.353 3.675-2.15c2.029 1.202 3.674 4.115 3.674 6.505" style="fill:#582a36;fill-opacity:1;fill-rule:nonzero;stroke:none;stroke-width:.0352778" transform="translate(-36.647 -53.997)"/><path d="M66.042 74.61c0 2.078-1.43 2.914-3.194 1.869s-3.194-3.577-3.194-5.655 1.43-2.915 3.194-1.87c1.764 1.046 3.194 3.578 3.194 5.656" style="fill:#e09015;fill-opacity:1;fill-rule:nonzero;stroke:none;stroke-width:.0352778" transform="translate(-36.647 -53.997)"/><path d="M59.924 70.984c0 1.902 1.309 4.22 2.924 5.177s2.924.19 2.924-1.711c0-1.903-1.31-4.22-2.924-5.178-1.615-.957-2.924-.19-2.924 1.712" style="fill:#b7511e;fill-opacity:1;fill-rule:nonzero;stroke:none;stroke-width:.0352778" transform="translate(-36.647 -53.997)"/><path d="M60.225 71.09c0-1.772 1.219-2.486 2.723-1.595s2.723 3.05 2.723 4.822-1.22 2.486-2.723 1.594c-1.504-.891-2.723-3.05-2.723-4.822Zm-.3-.106c0 1.902 1.308 4.22 2.923 5.177s2.924.19 2.924-1.711c0-1.903-1.31-4.22-2.924-5.178-1.615-.957-2.924-.19-2.924 1.712" style="fill:#e08217;fill-opacity:1;fill-rule:nonzero;stroke:none;stroke-width:.0352778" transform="translate(-36.647 -53.997)"/><path d="M61.127 71.16c0 1.417.976 3.144 2.179 3.857 1.113.659 2.03.22 2.162-.972a3 3 0 0 0 .016-.303c0-.956-.444-2.054-1.103-2.886a4 4 0 0 0-1.075-.971c-1.203-.714-2.18-.142-2.18 1.275" style="fill:#d9681b;fill-opacity:1;fill-rule:nonzero;stroke:none;stroke-width:.0352778" transform="translate(-36.647 -53.997)"/><path d="M65.205 73.199q0 .057-.003.111a1.4 1.4 0 0 1-.139.568l-.002.002a.8.8 0 0 1-.294.33l-.482.28c-.275.13-.232-.147-.631-.383-.859-.51-1.553-1.739-1.553-2.749 0-.496-.274-.587 0-.752l.525-.303.038-.017c.214-.083.476-.07.763.051q.111.045.227.114c.652.387 1.208 1.191 1.439 1.997a2.9 2.9 0 0 1 .112.75" style="fill:#270b12;fill-opacity:1;fill-rule:nonzero;stroke:none;stroke-width:.0352778" transform="translate(-36.647 -53.997)"/><path d="M64.767 73.455q0 .057-.004.112a1.4 1.4 0 0 1-.138.567l-.002.002c-.245.48-.783.596-1.407.227-.859-.509-1.554-1.738-1.554-2.748 0-.545.203-.914.525-1.056l.04-.017c.213-.083.474-.07.762.051q.111.045.227.114c.652.388 1.208 1.192 1.438 1.997a2.8 2.8 0 0 1 .113.751" style="fill:#442d34;fill-opacity:1;fill-rule:nonzero;stroke:none;stroke-width:.0352778" transform="translate(-36.647 -53.997)"/><path d="M64.138 72.818c0 .206-.06.36-.16.45-.138.126-.59.39-.59.39l-1.067-1.879s.376-.22.48-.31c.138-.119.349-.122.585.018.415.246.752.842.752 1.33" style="fill:#270b12;fill-opacity:1;fill-rule:nonzero;stroke:none;stroke-width:.0352778" transform="translate(-36.647 -53.997)"/><path d="M63.613 73.16c0 .488-.336.685-.752.44-.414-.247-.75-.842-.75-1.332 0-.488.336-.686.75-.44.416.247.752.842.752 1.331" style="fill:#533841;fill-opacity:1;fill-rule:nonzero;stroke:none;stroke-width:.0352778" transform="translate(-36.647 -53.997)"/><path d="M63.22 72.915c0 .087-.026.152-.068.19-.058.054-.2.129-.2.129l-.452-.796s.11-.057.153-.095c.059-.05.148-.052.248.007a.73.73 0 0 1 .319.565" style="fill:#270b12;fill-opacity:1;fill-rule:nonzero;stroke:none;stroke-width:.0352778" transform="translate(-36.647 -53.997)"/><path d="M63.048 73.023c0 .207-.143.29-.319.186a.72.72 0 0 1-.318-.564c0-.207.142-.29.318-.187a.73.73 0 0 1 .319.565" style="fill:#68535c;fill-opacity:1;fill-rule:nonzero;stroke:none;stroke-width:.0352778" transform="translate(-36.647 -53.997)"/><path d="m62.307 61.744-3.3 1.956 3.426.824 3.124 2.277 2.255 3.102.688 2.295 3.3-1.956-.057-.745-.54-1.754-2.247-3.047-3.097-2.375z" style="fill:#5fcad0;fill-opacity:1;fill-rule:nonzero;stroke:none;stroke-width:.0352778" transform="translate(-36.647 -53.997)"/><path d="M59.006 63.7v.364l3.405.556 3.051 2.256 2.196 3.002.621 2.106.22.214-.057-.745-.538-1.754-2.248-3.047-3.097-2.375z" style="fill:#1e5162;fill-opacity:1;fill-rule:nonzero;stroke:none;stroke-width:.0352778" transform="translate(-36.647 -53.997)"/><path d="m71.743 69.497-3.3 1.956.057.745 3.3-1.956z" style="fill:#45a1be;fill-opacity:1;fill-rule:nonzero;stroke:none;stroke-width:.0352778" transform="translate(-36.647 -53.997)"/><path d="m71.204 67.743-3.3 1.956.538 1.754 3.3-1.956z" style="fill:#55c3dd;fill-opacity:1;fill-rule:nonzero;stroke:none;stroke-width:.0352778" transform="translate(-36.647 -53.997)"/><path d="m65.86 62.321-3.3 1.956-3.554-.577 3.3-1.956 3.553.577" style="fill:#f9ad27;fill-opacity:1;fill-rule:nonzero;stroke:none;stroke-width:.0352778" transform="translate(-36.647 -53.997)"/><path d="m68.956 64.696-3.3 1.956 2.248 3.047 3.3-1.956z" style="fill:#6fcfd6;fill-opacity:1;fill-rule:nonzero;stroke:none;stroke-width:.0352778" transform="translate(-36.647 -53.997)"/><path d="m83.848 61.84-.37.47c-.406.536-.736 1.42-.736 1.976v2.911c0 .556.675.607.889-.145l.22-.354a2.8 2.8 0 0 0 .551-1.703l.118-2.709c.177-.56-.266-.982-.672-.447" style="fill:#18110e;fill-opacity:1;fill-rule:nonzero;stroke:none;stroke-width:.0352778" transform="translate(-36.647 -53.997)"/><path d="m83.83 62.047-.189.263c-.406.536-.735 1.42-.735 1.976v2.911c0 .556.33.573.735.038l.373-.537a2.8 2.8 0 0 0 .552-1.703v-2.91c0-.557-.33-.574-.736-.038" style="fill:#282321;fill-opacity:1;fill-rule:nonzero;stroke:none;stroke-width:.0352778" transform="translate(-36.647 -53.997)"/><path d="M83.487 61.54v5.273c.042.012.09.015.136.022l.068-.047.052-.078-.007-5.294c-.001-.499-.567-.774-.943-.457l-1.708 1.432.147.342 1.668-1.47c.23-.202.587-.035.587.277" style="fill:#261f1b;fill-opacity:1;fill-rule:nonzero;stroke:none;stroke-width:.0352778" transform="translate(-36.647 -53.997)"/><path d="m64.496 70.113 3.35-3.617-8.356-5.194-4.92-1.487 1.44 5.28-.458 3.265 6.335 10.124 4.81-2.85-2.008-1.873z" style="fill:#e8491e;fill-opacity:1;fill-rule:nonzero;stroke:none;stroke-width:.0352778" transform="translate(-36.647 -53.997)"/><path d="m57.334 67.546 4.129 1.584 6.382-2.634-8.355-5.194-4.92-1.487-4.81 2.85 5.792 5.695z" style="fill:#f68c1f;fill-opacity:1;fill-rule:nonzero;stroke:none;stroke-width:.0352778" transform="translate(-36.647 -53.997)"/><path d="m61.52 72.694-.057-3.564-6.782-4.978-4.92-1.487-1.325 6.918.315 2.444 10.608 6.4 2.528.057.563-4.14z" style="fill:#e6551c;fill-opacity:1;fill-rule:nonzero;stroke:none;stroke-width:.0352778" transform="translate(-36.647 -53.997)"/><path d="m48.744 69.89 1.663-6.043 3.738.826 7.355 5.222-.037-.765-6.782-4.978-4.92-1.487-1.325 6.918.315 2.444-.007-2.136" style="fill:#e55f1b;fill-opacity:1;fill-rule:nonzero;stroke:none;stroke-width:.0352778" transform="translate(-36.647 -53.997)"/><path d="M47.901 68.273v2.155l.199.657 2.535 1.425.433-2.022-.135-.173-2.644-1.437z" style="fill:#e8451e;fill-opacity:1;fill-rule:nonzero;stroke:none;stroke-width:.0352778" transform="translate(-36.647 -53.997)"/><path d="m48.805 67.655-.904.618.199.69 2.968 1.525-.323-.416-2.174-1.194z" style="fill:#f68c1f;fill-opacity:1;fill-rule:nonzero;stroke:none;stroke-width:.0352778" transform="translate(-36.647 -53.997)"/><path d="m49.916 72.875.18-.114a3 3 0 0 0-.064.191zm-.272 1.342q-.003.096-.004.194.002.448.054.909l.184.122q.023.187.054.377l-.167-.007q.1.59.274 1.185l.181.066q.06.2.128.398l-.142.054q.208.603.482 1.193l.167.006q.093.197.194.392l-.11.111q.302.58.659 1.125l.142-.054q.12.183.248.362l-.069.163q.376.52.792.985l.108-.112q.142.158.289.308l-.024.201q.424.427.876.785l.068-.162q.153.12.309.23l.023.228a6.4 6.4 0 0 0 .905.536l.022-.202q.156.075.31.138l.066.242q.326.129.639.203l-.852.946.39.207.876-.478.104.045 2.968-1.285c.142-.067.947-1.018 1.073-1.111l-.022-.05.274-.161q.273-.265.482-.622l-.103-.16.27-.16q.174-.389.274-.86l-.168-.192.015-.084.223-.133q.055-.397.055-.844-.001-.1-.005-.2l-.181-.148-.012-.218.168-.1a9 9 0 0 0-.178-1.162l-.184-.095a11 11 0 0 0-.076-.317l.142-.084a12 12 0 0 0-.397-1.208l-.175-.037q-.074-.188-.155-.373l.126-.083a13 13 0 0 0-.588-1.18l-.157.025a14 14 0 0 0-.206-.347l.09-.137a13 13 0 0 0-.747-1.077l-.131.078q-.12-.151-.24-.296l.047-.184q-.41-.486-.858-.905l-.147.087a10 10 0 0 0-.21-.188v-.218a8 8 0 0 0-.915-.676l-.175.104-.008-.005q-.069-.04-.138-.077l-.046-.24a5.6 5.6 0 0 0-.915-.408l-.246.146-.022-.006-.089-.244a3.6 3.6 0 0 0-.857-.111l-.325.016c-.265.029-1.726.812-1.958.911l-.26.154-.013-.018-2.83 1.677-.546 1.512 1.078-.684c-.07.263-.123.542-.152.846l.175.17a6 6 0 0 0-.019.333z" style="fill:#3b0d18;fill-opacity:1;fill-rule:nonzero;stroke:none;stroke-width:.0352778" transform="translate(-36.647 -53.997)"/><path d="m53.62 69.685-1.528 1.038-2.528 1.248.746-.192 2.48-1.102 1.561-1.294-.73.302m7.025 4.361-1.283 1.946-2.759.45.589 1.18 2.774-.46 1.267-1.936-.28-.601z" style="fill:#421721;fill-opacity:1;fill-rule:nonzero;stroke:none;stroke-width:.0352778" transform="translate(-36.647 -53.997)"/><path d="m61.438 75.719-1.492 1.95-2.55.445.397 1.209 2.565-.454 1.477-1.942-.162-.549z" style="fill:#421721;fill-opacity:1;fill-rule:nonzero;stroke:none;stroke-width:.0352778" transform="translate(-36.647 -53.997)"/><path d="m61.953 77.423-1.408 1.94-2.633.456.177 1.162 2.65-.465 1.392-1.93-.054-.52z" style="fill:#421721;fill-opacity:1;fill-rule:nonzero;stroke:none;stroke-width:.0352778" transform="translate(-36.647 -53.997)"/><path d="m62.156 79.051-1.358 1.9-2.684.496-.05 1.044 2.7-.506 1.342-1.89.055-.453z" style="fill:#421721;fill-opacity:1;fill-rule:nonzero;stroke:none;stroke-width:.0352778" transform="translate(-36.647 -53.997)"/><path d="m62.036 80.504-1.191 1.684-2.85.712-.275.86 2.926-.883 1.116-1.513.15-.355z" style="fill:#421721;fill-opacity:1;fill-rule:nonzero;stroke:none;stroke-width:.0352778" transform="translate(-36.647 -53.997)"/><path d="m61.595 81.684-1.34 1.333-2.701 1.063-.483.62 2.717-1.072 1.325-1.322.257-.262zm-1.969-9.174-1.283 1.946-2.758.449.746 1.077 2.774-.459 1.267-1.936L60 73.02z" style="fill:#421721;fill-opacity:1;fill-rule:nonzero;stroke:none;stroke-width:.0352778" transform="translate(-36.647 -53.997)"/><path d="m58.444 71.203-1.283 1.946-2.758.45.857.905 2.774-.46 1.268-1.936-.387-.451z" style="fill:#421721;fill-opacity:1;fill-rule:nonzero;stroke:none;stroke-width:.0352778" transform="translate(-36.647 -53.997)"/><path d="m57.172 70.208-1.283 1.946-2.758.45.915.676 2.773-.46 1.268-1.936-.39-.325-.525-.35" style="fill:#421721;fill-opacity:1;fill-rule:nonzero;stroke:none;stroke-width:.0352778" transform="translate(-36.647 -53.997)"/><path d="m55.89 69.582-1.154 1.621-2.887.775.915.408 2.903-.783 1.138-1.612-.401-.218-.514-.19" style="fill:#421721;fill-opacity:1;fill-rule:nonzero;stroke:none;stroke-width:.0352778" transform="translate(-36.647 -53.997)"/><path d="m54.676 69.367-1.255 1.31-2.786 1.085.857.112 2.72-.89 1.321-1.506-.471-.087z" style="fill:#421721;fill-opacity:1;fill-rule:nonzero;stroke:none;stroke-width:.0352778" transform="translate(-36.647 -53.997)"/><path d="m50.363 71.817-1.865 1.023.492.779 1.373-.796z" style="fill:#3b0d18;fill-opacity:1;fill-rule:nonzero;stroke:none;stroke-width:.0352778" transform="translate(-36.647 -53.997)"/><path d="m49.847 72.829-1.864 1.105.492.779 1.372-.797V72.83m-.203 1.387-1.864 1.105.492.779 1.372-.797zm.121 1.595L47.9 76.917l.492.779 1.373-.796zm.441 1.703L48.34 78.62l.492.779 1.373-.797v-1.087" style="fill:#3b0d18;fill-opacity:1;fill-rule:nonzero;stroke:none;stroke-width:.0352778" transform="translate(-36.647 -53.997)"/><path d="M58.065 82.491a6.5 6.5 0 0 0 .05-1.044l-.182-.148a8 8 0 0 0-.02-.356l.176.038a9 9 0 0 0-.177-1.163l-.184-.094a10 10 0 0 0-.09-.378l.155-.023q-.162-.608-.396-1.209l-.176-.036q-.073-.188-.154-.373l.126-.084a13 13 0 0 0-.589-1.18l-.156.026a13 13 0 0 0-.206-.347l.089-.138a13 13 0 0 0-.746-1.077l-.127.085a9 9 0 0 0-.244-.302l.046-.184q-.41-.486-.857-.905l-.09.139a9 9 0 0 0-.267-.24v-.218a8 8 0 0 0-.915-.676l-.046.184q-.068-.043-.138-.085-.068-.04-.138-.078l-.045-.239a5.6 5.6 0 0 0-.915-.408v.218q-.136-.044-.268-.078l-.09-.244a3.6 3.6 0 0 0-.856-.112l.046.24q-.124 0-.244.012l-.127-.235a2.6 2.6 0 0 0-.746.192l.09.244q-.106.046-.207.103l-.157-.211a2.5 2.5 0 0 0-.588.482l.126.232q-.08.09-.155.19l-.175-.17a3.4 3.4 0 0 0-.396.738l.156.208a4 4 0 0 0-.09.27l-.185-.123a5 5 0 0 0-.178.952l.176.17q-.014.163-.02.333l-.181-.067a8 8 0 0 0 .05 1.103l.183.122q.023.187.054.377l-.167-.007q.1.59.275 1.185l.181.066q.06.199.128.398l-.143.054q.209.603.482 1.192l.168.006q.094.198.193.393l-.11.111q.303.58.66 1.125l.141-.055q.122.185.248.362l-.068.163q.374.52.792.986l.108-.112q.141.158.288.308l-.023.201q.422.427.876.785l.067-.162q.153.12.31.229l.022.229a6.3 6.3 0 0 0 .905.536l.022-.202q.156.075.31.138l.067.242q.453.179.876.253l-.024-.23q.147.024.289.035l.108.24q.417.029.792-.047l-.069-.244a2 2 0 0 0 .248-.068l.143.223q.356-.121.658-.345l-.11-.24a3 3 0 0 0 .194-.164l.167.193a2.9 2.9 0 0 0 .483-.621l-.143-.223q.068-.118.127-.247l.182.15q.174-.39.275-.86l-.168-.192q.032-.152.054-.313z" style="fill:#330e17;fill-opacity:1;fill-rule:nonzero;stroke:none;stroke-width:.0352778" transform="translate(-36.647 -53.997)"/><path d="M57.611 81.465c0 3.094-2.13 4.34-4.756 2.783s-4.755-5.326-4.755-8.42 2.129-4.34 4.755-2.783 4.756 5.326 4.756 8.42" style="fill:#4e1d29;fill-opacity:1;fill-rule:nonzero;stroke:none;stroke-width:.0352778" transform="translate(-36.647 -53.997)"/><path d="M56.53 80.824c0 2.39-1.646 3.353-3.675 2.15-2.029-1.202-3.674-4.115-3.674-6.505s1.645-3.353 3.674-2.15c2.03 1.202 3.674 4.115 3.674 6.505" style="fill:#582a36;fill-opacity:1;fill-rule:nonzero;stroke:none;stroke-width:.0352778" transform="translate(-36.647 -53.997)"/><path d="M56.141 80.477c0 2.078-1.43 2.915-3.194 1.87-1.764-1.046-3.193-3.578-3.193-5.656s1.43-2.915 3.193-1.869c1.764 1.045 3.194 3.578 3.194 5.655" style="fill:#e09015;fill-opacity:1;fill-rule:nonzero;stroke:none;stroke-width:.0352778" transform="translate(-36.647 -53.997)"/><path d="M50.024 76.852c0 1.902 1.309 4.22 2.923 5.176s2.924.191 2.924-1.71c0-1.903-1.309-4.22-2.924-5.178-1.614-.957-2.923-.19-2.923 1.712" style="fill:#b7511e;fill-opacity:1;fill-rule:nonzero;stroke:none;stroke-width:.0352778" transform="translate(-36.647 -53.997)"/><path d="M50.324 76.957c0-1.772 1.22-2.485 2.723-1.594 1.504.892 2.724 3.05 2.724 4.822s-1.22 2.485-2.724 1.594c-1.503-.892-2.723-3.05-2.723-4.822m-.3-.105c0 1.902 1.309 4.22 2.923 5.176s2.924.191 2.924-1.71c0-1.903-1.309-4.22-2.924-5.178-1.614-.957-2.923-.19-2.923 1.712" style="fill:#e08217;fill-opacity:1;fill-rule:nonzero;stroke:none;stroke-width:.0352778" transform="translate(-36.647 -53.997)"/><path d="M51.227 77.027c0 1.418.975 3.145 2.179 3.858 1.112.659 2.03.22 2.161-.972q.016-.144.016-.303c0-.957-.443-2.054-1.103-2.886a4 4 0 0 0-1.074-.972c-1.204-.713-2.18-.141-2.18 1.275" style="fill:#d9681b;fill-opacity:1;fill-rule:nonzero;stroke:none;stroke-width:.0352778" transform="translate(-36.647 -53.997)"/><path d="M53.915 76.673c0 .23-.158.323-.353.208a.8.8 0 0 1-.354-.627c0-.23.158-.323.354-.207a.8.8 0 0 1 .353.626m-1.185-.483c.139.245.139.508 0 .59-.138.08-.362-.053-.5-.297-.138-.245-.138-.509 0-.59s.362.052.5.297m-.706.723a.8.8 0 0 1 .354.626c0 .23-.158.323-.354.208a.8.8 0 0 1-.354-.627c0-.23.159-.323.354-.207m.186 1.505c.138-.08.362.052.5.297.139.245.139.509 0 .59-.138.08-.362-.052-.5-.297s-.138-.509 0-.59m.97 1.407c0-.23.158-.323.353-.208a.8.8 0 0 1 .354.627c0 .23-.158.323-.354.207a.8.8 0 0 1-.354-.626m1.185.483c-.139-.244-.139-.509 0-.59.138-.08.362.052.5.297.139.245.139.509 0 .59-.138.08-.362-.052-.5-.297m.706-.723a.8.8 0 0 1-.354-.626c0-.23.159-.323.354-.208a.8.8 0 0 1 .354.627c0 .23-.158.323-.354.207m-.186-1.505c-.138.08-.362-.052-.5-.297s-.138-.509 0-.59.362.052.5.297c.139.245.139.509 0 .59" style="fill:#270b12;fill-opacity:1;fill-rule:nonzero;stroke:none;stroke-width:.0352778" transform="translate(-36.647 -53.997)"/><path d="M54.612 78.787c0 .282-.081.493-.219.618-.188.171-.809.532-.809.532l-1.46-2.572s.515-.302.658-.425c.189-.163.478-.168.801.024.568.337 1.03 1.153 1.03 1.823" style="fill:#270b12;fill-opacity:1;fill-rule:nonzero;stroke:none;stroke-width:.0352778" transform="translate(-36.647 -53.997)"/><path d="M53.893 79.255c0 .67-.46.94-1.029.603s-1.03-1.154-1.03-1.823c0-.67.461-.94 1.03-.603.568.337 1.03 1.153 1.03 1.823" style="fill:#421721;fill-opacity:1;fill-rule:nonzero;stroke:none;stroke-width:.0352778" transform="translate(-36.647 -53.997)"/><path d="M53.653 79.199c0 .546-.375.765-.839.49-.463-.274-.839-.939-.839-1.485s.376-.765.84-.49c.463.274.838.939.838 1.485" style="fill:#4e1d29;fill-opacity:1;fill-rule:nonzero;stroke:none;stroke-width:.0352778" transform="translate(-36.647 -53.997)"/><path d="m52.406 67.612-3.3 1.956 3.426.824 3.124 2.277 2.256 3.102.687 2.294 3.3-1.955-.057-.745-.539-1.755-2.248-3.046-3.096-2.375z" style="fill:#fabd22;fill-opacity:1;fill-rule:nonzero;stroke:none;stroke-width:.0352778" transform="translate(-36.647 -53.997)"/><path d="M49.106 69.568v.364l3.404.556 3.052 2.256 2.195 3.002.622 2.105.22.214-.057-.745-.539-1.754-2.248-3.047-3.096-2.374z" style="fill:#e8491e;fill-opacity:1;fill-rule:nonzero;stroke:none;stroke-width:.0352778" transform="translate(-36.647 -53.997)"/><path d="m61.842 75.365-3.3 1.955.057.745 3.3-1.955z" style="fill:#f68c1f;fill-opacity:1;fill-rule:nonzero;stroke:none;stroke-width:.0352778" transform="translate(-36.647 -53.997)"/><path d="m61.303 73.61-3.3 1.956.539 1.754 3.3-1.955zm-5.344-5.42-3.3 1.955-3.553-.577 3.3-1.956z" style="fill:#f9ad27;fill-opacity:1;fill-rule:nonzero;stroke:none;stroke-width:.0352778" transform="translate(-36.647 -53.997)"/><path d="m59.055 70.564-3.3 1.955 2.248 3.047 3.3-1.956z" style="fill:#fccb27;fill-opacity:1;fill-rule:nonzero;stroke:none;stroke-width:.0352778" transform="translate(-36.647 -53.997)"/><path d="m71.097 69.532-.264-.157-.509-3.61h.204l2.91 1.726 1.833 3.507 3.705 2.196.162-.287 1.12.668.427.249-.808.911z" style="fill:#4bc4d1;fill-opacity:1;fill-rule:nonzero;stroke:none;stroke-width:.0352778" transform="translate(-36.647 -53.997)"/><path d="m73.217 83.7-.26-3.293 1.14-.427.122-.311-10.097-5.984.57 1.632.367 4.39 1.869 2.66z" style="fill:#3997a6;fill-opacity:1;fill-rule:nonzero;stroke:none;stroke-width:.0352778" transform="translate(-36.647 -53.997)"/><path d="m62.646 80.881 7.748 4.592 1.79-.47 6.383-4.04.848-1.05v-2.48l-9.493.22-7.276-.43z" style="fill:#270b12;fill-opacity:1;fill-rule:nonzero;stroke:none;stroke-width:.0352778" transform="translate(-36.647 -53.997)"/><path d="m62.646 78.654 7.748 4.34.817.229 7.025-4.33 1.18-1.46-6.767-3.062-2.727.802-7.276 2.05z" style="fill:#1e0b10;fill-opacity:1;fill-rule:nonzero;stroke:none;stroke-width:.0352778" transform="translate(-36.647 -53.997)"/><path d="m62.024 84.712-.26-.153 1.686-7.777.258.154z" style="fill:#e65b1b;fill-opacity:1;fill-rule:nonzero;stroke:none;stroke-width:.0352778" transform="translate(-36.647 -53.997)"/><path d="m62.024 84.712.486-.24 1.685-7.777-.487.24z" style="fill:#8c371b;fill-opacity:1;fill-rule:nonzero;stroke:none;stroke-width:.0352778" transform="translate(-36.647 -53.997)"/><path d="m65.61 82.822-2.873-1.703.022-.372 2.873 1.703z" style="fill:#1e0b10;fill-opacity:1;fill-rule:nonzero;stroke:none;stroke-width:.0352778" transform="translate(-36.647 -53.997)"/><path d="m65.526 82.744-2.651-1.57-.006-.1 2.651 1.571.006.1" style="fill:#e58317;fill-opacity:1;fill-rule:nonzero;stroke:none;stroke-width:.0352778" transform="translate(-36.647 -53.997)"/><path d="m65.61 82.822 1.239-.935.022-.25-1.24.813z" style="fill:#270b12;fill-opacity:1;fill-rule:nonzero;stroke:none;stroke-width:.0352778" transform="translate(-36.647 -53.997)"/><path d="m65.632 82.45-2.873-1.703 1.239-.813 2.873 1.703z" style="fill:#582a36;fill-opacity:1;fill-rule:nonzero;stroke:none;stroke-width:.0352778" transform="translate(-36.647 -53.997)"/><path d="m64.649 86.558-2.873-1.703.022-.372 2.873 1.703z" style="fill:#1e0b10;fill-opacity:1;fill-rule:nonzero;stroke:none;stroke-width:.0352778" transform="translate(-36.647 -53.997)"/><path d="m64.565 86.48-2.651-1.572-.006-.099 2.651 1.571z" style="fill:#e58317;fill-opacity:1;fill-rule:nonzero;stroke:none;stroke-width:.0352778" transform="translate(-36.647 -53.997)"/><path d="m64.649 86.558 1.239-.935.022-.251-1.24.814z" style="fill:#270b12;fill-opacity:1;fill-rule:nonzero;stroke:none;stroke-width:.0352778" transform="translate(-36.647 -53.997)"/><path d="m64.67 86.186-2.872-1.703 1.238-.814 2.874 1.703z" style="fill:#582a36;fill-opacity:1;fill-rule:nonzero;stroke:none;stroke-width:.0352778" transform="translate(-36.647 -53.997)"/><path d="m65.186 86.586.486-.24 1.685-7.777-.486.24z" style="fill:#8c371b;fill-opacity:1;fill-rule:nonzero;stroke:none;stroke-width:.0352778" transform="translate(-36.647 -53.997)"/><path d="m65.186 86.586-.259-.153 1.685-7.777.259.154z" style="fill:#e65b1b;fill-opacity:1;fill-rule:nonzero;stroke:none;stroke-width:.0352778" transform="translate(-36.647 -53.997)"/><path d="m83.238 77.539-15.467 9.167v2.45l15.467-9.166z" style="fill:#d9511e;fill-opacity:1;fill-rule:nonzero;stroke:none;stroke-width:.0352778" transform="translate(-36.647 -53.997)"/><path d="m81.54 76.437-13.63 8.079-.139 2.19 15.467-9.167z" style="fill:#f9ad27;fill-opacity:1;fill-rule:nonzero;stroke:none;stroke-width:.0352778" transform="translate(-36.647 -53.997)"/><path d="m61.945 77.247 8.197 4.858 1.096.155 9.758-5.999.092-1.004.01-1.476-11.35-.827-7.803 2.58z" style="fill:#d9511e;fill-opacity:1;fill-rule:nonzero;stroke:none;stroke-width:.0352778" transform="translate(-36.647 -53.997)"/><path d="m71.238 82.26-1.096-.155v-1.712l1.096.155z" style="fill:#ed6419;fill-opacity:1;fill-rule:nonzero;stroke:none;stroke-width:.0352778" transform="translate(-36.647 -53.997)"/><path d="m61.945 75.535 8.197 4.858 1.096.155 9.78-5.872.08-.895-8.197-4.858-3.153.927-8.121 5.006z" style="fill:#f9ad27;fill-opacity:1;fill-rule:nonzero;stroke:none;stroke-width:.0352778" transform="translate(-36.647 -53.997)"/><path d="m72.256 79.937-8.134-6.252-.445-1.335 16.754 1.466-.795 1.69z" style="fill:#e4621b;fill-opacity:1;fill-rule:nonzero;stroke:none;stroke-width:.0352778" transform="translate(-36.647 -53.997)"/><path d="M70.324 55.422v-1.199l.347-.226 3.151.927 8.122 5.006.655 1.378-.265 1.018-.837-1.415-7.003-4.246-3.627-1.328-.136.326z" style="fill:#4bc4d1;fill-opacity:1;fill-rule:nonzero;stroke:none;stroke-width:.0352778" transform="translate(-36.647 -53.997)"/><path d="m70.731 55.663-.203 10.102 2.91 1.726-3.114 2.926.783 2.887.955 5.13 8.196-4.859.936-3.405.883-8.076-.58-1.183-7.35-4.74-3.28-.834z" style="fill:#582a36;fill-opacity:1;fill-rule:nonzero;stroke:none;stroke-width:.0352778" transform="translate(-36.647 -53.997)"/><path d="m81.99 62.74-1.536-.383-1.424 9.978 1.35.8.787-2.866.822-7.53m-2.347 1.308-1.028 6.929-1.68 1.008-1.663-.986-1.502-3.035.051-.465z" style="fill:#6d7173;fill-opacity:1;fill-rule:nonzero;stroke:none;stroke-width:.0352778" transform="translate(-36.647 -53.997)"/><path d="m80.265 71.93-.412-1.083-2.414-1.403-3.72 2.052-.62 3.329-.89 3.068.482-.67 7.574-5.294" style="fill:#693a47;fill-opacity:1;fill-rule:nonzero;stroke:none;stroke-width:.0352778" transform="translate(-36.647 -53.997)"/><path d="m73.82 67.498 8.197-4.86.06-.544-8.197 4.858z" style="fill:#284a5a;fill-opacity:1;fill-rule:nonzero;stroke:none;stroke-width:.0352778" transform="translate(-36.647 -53.997)"/><path d="m72.062 78.433 8.369-4.617.267-1.405-.433-.482-6.624 3.974-1.431 1.99z" style="fill:#e4621b;fill-opacity:1;fill-rule:nonzero;stroke:none;stroke-width:.0352778" transform="translate(-36.647 -53.997)"/><path d="m62.534 60.521-.203 10.102 2.91 1.726 1.833 3.507 3.705 2.196.162-.287 1.12.668.936-3.405.883-8.076-1.9-.4-7.349-4.74-1.961-1.617z" style="fill:#270b12;fill-opacity:1;fill-rule:nonzero;stroke:none;stroke-width:.0352778" transform="translate(-36.647 -53.997)"/><path d="m62.45 74.344-.93-1.65-.057-3.564.868 1.493 2.91 1.726 1.833 3.507 3.705 2.196.162-.287 1.12.668-.125.7-.066.507z" style="fill:#e37318;fill-opacity:1;fill-rule:nonzero;stroke:none;stroke-width:.0352778" transform="translate(-36.647 -53.997)"/><path d="M65.75 62.91v9.189l1.731 3.447 2.931 1.737 1.262-10.529-5.923-3.845m8.069 4.589-1.535-.382-1.425 9.977 1.35.8.787-2.865zm-8.985-4.51-2.311-1.923-.183 9.039 2.494 1.463z" style="fill:#402329;fill-opacity:1;fill-rule:nonzero;stroke:none;stroke-width:.0352778" transform="translate(-36.647 -53.997)"/><path d="m61.463 69.13.925-1.323-.057 2.816z" style="fill:#de8817;fill-opacity:1;fill-rule:nonzero;stroke:none;stroke-width:.0352778" transform="translate(-36.647 -53.997)"/><path d="M62.127 60.13v-1.049l.346-.226 1.832 1.71 8.122 5.005 1.975.597-.265 1.017-2.157-.632-7.003-4.247-1.853-1.35-.59-.434z" style="fill:#e6551c;fill-opacity:1;fill-rule:nonzero;stroke:none;stroke-width:.0352778" transform="translate(-36.647 -53.997)"/><path d="m82.599 61.308-8.197 4.859-1.975-.597-8.122-5.006-1.832-1.71-.346.227 8.197-4.858.347-.226 3.151.927 8.122 5.006z" style="fill:#fabd22;fill-opacity:1;fill-rule:nonzero;stroke:none;stroke-width:.0352778" transform="translate(-36.647 -53.997)"/><path d="m64.305 60.564 9.517-5.64-3.151-.927-8.198 4.858z" style="fill:#f9ad27;fill-opacity:1;fill-rule:nonzero;stroke:none;stroke-width:.0352778" transform="translate(-36.647 -53.997)"/><path d="m82.334 62.326-8.197 4.858.265-1.017 8.197-4.859z" style="fill:#e6b520;fill-opacity:1;fill-rule:nonzero;stroke:none;stroke-width:.0352778" transform="translate(-36.647 -53.997)"/><path d="m65.156 60.1 8.309 4.654.036.055-.266.165-8.136-4.762z" style="fill:#de8817;fill-opacity:1;fill-rule:nonzero;stroke:none;stroke-width:.0352778" transform="translate(-36.647 -53.997)"/><path d="m65.365 59.975 8.1 4.78-.173.107-8.136-4.762z" style="fill:#fccb27;fill-opacity:1;fill-rule:nonzero;stroke:none;stroke-width:.0352778" transform="translate(-36.647 -53.997)"/><path d="m66.705 59.187 8.31 4.654.036.054-.267.166-8.136-4.762z" style="fill:#de8817;fill-opacity:1;fill-rule:nonzero;stroke:none;stroke-width:.0352778" transform="translate(-36.647 -53.997)"/><path d="m66.914 59.062 8.1 4.78-.173.106-8.136-4.761z" style="fill:#fccb27;fill-opacity:1;fill-rule:nonzero;stroke:none;stroke-width:.0352778" transform="translate(-36.647 -53.997)"/><path d="m68.254 58.273 8.31 4.655.035.054-.266.166-8.136-4.763z" style="fill:#de8817;fill-opacity:1;fill-rule:nonzero;stroke:none;stroke-width:.0352778" transform="translate(-36.647 -53.997)"/><path d="m68.463 58.148 8.1 4.78-.173.107-8.136-4.762z" style="fill:#fccb27;fill-opacity:1;fill-rule:nonzero;stroke:none;stroke-width:.0352778" transform="translate(-36.647 -53.997)"/><path d="m69.803 57.36 8.31 4.654.036.055-.267.165-8.136-4.762z" style="fill:#de8817;fill-opacity:1;fill-rule:nonzero;stroke:none;stroke-width:.0352778" transform="translate(-36.647 -53.997)"/><path d="m70.012 57.235 8.1 4.78-.172.107-8.137-4.762z" style="fill:#fccb27;fill-opacity:1;fill-rule:nonzero;stroke:none;stroke-width:.0352778" transform="translate(-36.647 -53.997)"/><path d="m71.352 56.446 8.31 4.655.035.054-.266.166-8.136-4.763z" style="fill:#de8817;fill-opacity:1;fill-rule:nonzero;stroke:none;stroke-width:.0352778" transform="translate(-36.647 -53.997)"/><path d="m71.561 56.322 8.1 4.779-.172.107-8.137-4.762z" style="fill:#fccb27;fill-opacity:1;fill-rule:nonzero;stroke:none;stroke-width:.0352778" transform="translate(-36.647 -53.997)"/><path d="m72.901 55.533 8.31 4.654.035.055-.266.165-8.136-4.762z" style="fill:#de8817;fill-opacity:1;fill-rule:nonzero;stroke:none;stroke-width:.0352778" transform="translate(-36.647 -53.997)"/><path d="m73.11 55.408 8.1 4.78-.172.107-8.137-4.762zm8.833 4.522-9.517 5.64 1.975.597 8.197-4.859z" style="fill:#fccb27;fill-opacity:1;fill-rule:nonzero;stroke:none;stroke-width:.0352778" transform="translate(-36.647 -53.997)"/><path d="m75.623 66.31.236-.721 4.772-2.886.384.412z" style="fill:#282321;fill-opacity:1;fill-rule:nonzero;stroke:none;stroke-width:.0352778" transform="translate(-36.647 -53.997)"/><path d="m76.579 65.322-.56.329v.28l.65-.556z" style="fill:#db6133;fill-opacity:1;fill-rule:nonzero;stroke:none;stroke-width:.0352778" transform="translate(-36.647 -53.997)"/><path d="m76.67 65.375-.561.33v.279l.56-.336v-.273" style="fill:#f57734;fill-opacity:1;fill-rule:nonzero;stroke:none;stroke-width:.0352778" transform="translate(-36.647 -53.997)"/><path d="m76.109 65.704-.09-.053v.28l.09.053z" style="fill:#d94f20;fill-opacity:1;fill-rule:nonzero;stroke:none;stroke-width:.0352778" transform="translate(-36.647 -53.997)"/><path d="m78.623 64.1-.56.329v.28l.65-.556-.09-.054" style="fill:#db6133;fill-opacity:1;fill-rule:nonzero;stroke:none;stroke-width:.0352778" transform="translate(-36.647 -53.997)"/><path d="m78.713 64.153-.56.329v.28l.56-.337z" style="fill:#f57734;fill-opacity:1;fill-rule:nonzero;stroke:none;stroke-width:.0352778" transform="translate(-36.647 -53.997)"/><path d="m78.153 64.482-.09-.053v.28l.09.053z" style="fill:#d94f20;fill-opacity:1;fill-rule:nonzero;stroke:none;stroke-width:.0352778" transform="translate(-36.647 -53.997)"/><path d="m80.552 62.954-.56.329v.28l.65-.556z" style="fill:#db6133;fill-opacity:1;fill-rule:nonzero;stroke:none;stroke-width:.0352778" transform="translate(-36.647 -53.997)"/><path d="m80.643 63.007-.561.329v.28l.56-.336v-.273" style="fill:#f57734;fill-opacity:1;fill-rule:nonzero;stroke:none;stroke-width:.0352778" transform="translate(-36.647 -53.997)"/><path d="m80.082 63.336-.09-.053v.28l.09.053z" style="fill:#d94f20;fill-opacity:1;fill-rule:nonzero;stroke:none;stroke-width:.0352778" transform="translate(-36.647 -53.997)"/><path d="M65.286 61.954a.43.43 0 0 0 .2.396l.655.412c.107.076.237.019.24-.105v-.02l.006-.205a.34.34 0 0 0-.159-.315l-.474-.3-.263-.169c-.079-.05-.17-.011-.18.077l-.025.23" style="fill:#c3c4c2;fill-opacity:1;fill-rule:nonzero;stroke:none;stroke-width:.0352778" transform="translate(-36.647 -53.997)"/><path d="m65.934 62.407.447.23.006-.205a.34.34 0 0 0-.159-.315l-.474-.3-.02.194a.43.43 0 0 0 .2.396" style="fill:#dde3e5;fill-opacity:1;fill-rule:nonzero;stroke:none;stroke-width:.0352778" transform="translate(-36.647 -53.997)"/><path d="M75.47 66.107c-.003.118-.086.248-.207.323l-.585.356c-.096.065-.197.026-.186-.073l.001-.015.017-.163c.002-.094.068-.197.164-.256l.424-.26.235-.144c.07-.044.142-.018.141.052z" style="fill:#c3c4c2;fill-opacity:1;fill-rule:nonzero;stroke:none;stroke-width:.0352778" transform="translate(-36.647 -53.997)"/><path d="m74.887 66.495-.394.203.017-.163c.002-.094.068-.197.164-.256l.424-.26-.004.154c-.002.118-.086.248-.207.322" style="fill:#dde3e5;fill-opacity:1;fill-rule:nonzero;stroke:none;stroke-width:.0352778" transform="translate(-36.647 -53.997)"/><path d="M82.217 62.098a.42.42 0 0 1-.207.322l-.584.356c-.097.066-.198.027-.187-.072l.001-.015.017-.163c.002-.094.068-.197.164-.256l.423-.26.236-.144c.07-.044.143-.018.14.051z" style="fill:#c3c4c2;fill-opacity:1;fill-rule:nonzero;stroke:none;stroke-width:.0352778" transform="translate(-36.647 -53.997)"/><path d="m81.634 62.486-.394.203.017-.163c.002-.094.068-.197.164-.256l.423-.26-.003.154a.42.42 0 0 1-.207.322" style="fill:#dde3e5;fill-opacity:1;fill-rule:nonzero;stroke:none;stroke-width:.0352778" transform="translate(-36.647 -53.997)"/><path d="m59.49 61.302-4.809 2.85-4.92-1.487 4.808-2.85z" style="fill:#f47119;fill-opacity:1;fill-rule:nonzero;stroke:none;stroke-width:.0352778" transform="translate(-36.647 -53.997)"/><path d="m74.118 76.087-.477-.184 6.624-3.974.433.482-.027.1-.336-.109z" style="fill:#fccb27;fill-opacity:1;fill-rule:nonzero;stroke:none;stroke-width:.0352778" transform="translate(-36.647 -53.997)"/><path d="m62.341 70.104 2.05-1.766V62.62l-1.867-1.554z" style="fill:#563b41;fill-opacity:1;fill-rule:nonzero;stroke:none;stroke-width:.0352778" transform="translate(-36.647 -53.997)"/><path d="m80.335 72.402-6.217 3.685-.711 3.159 6.23-3.74z" style="fill:#f68c1f;fill-opacity:1;fill-rule:nonzero;stroke:none;stroke-width:.0352778" transform="translate(-36.647 -53.997)"/><path d="m70.512 68.837-.497.05c-.406.084-.735.603-.735 1.159v3.227c0 .556.33.938.735.854l.68-.12c.407-.083.553-.532.553-1.088v-3.227c0-.556-.33-.939-.736-.855" style="fill:#18110e;fill-opacity:1;fill-rule:nonzero;stroke:none;stroke-width:.0352778" transform="translate(-36.647 -53.997)"/><path d="m70.512 68.927-.497.05c-.406.084-.735.603-.735 1.16v3.226c0 .556.33.939.735.855l.68-.12c.407-.084.553-.533.553-1.089v-3.227c0-.556-.33-.939-.736-.855" style="fill:#282321;fill-opacity:1;fill-rule:nonzero;stroke:none;stroke-width:.0352778" transform="translate(-36.647 -53.997)"/><path d="M72.814 66.167 70.97 67.97a2.37 2.37 0 0 0-.707 1.696v4.047l.023.014c.032.011.06.024.095.03.096.015.146 0 .19-.042v-3.877c0-.628.245-1.228.68-1.669l1.7-1.721.019-.21-.157-.072" style="fill:#261f1b;fill-opacity:1;fill-rule:nonzero;stroke:none;stroke-width:.0352778" transform="translate(-36.647 -53.997)"/><path d="m74.26 64.102-2.192-.172-1.189-.7a1 1 0 0 1 .081-.05 1.35 1.35 0 0 1 .56-.13v-.005l1.477-.03 1.23.72zm-2.912-.232a1.2 1.2 0 0 1-.339-.09c-.161-.073-.253-.17-.274-.269z" style="fill:#d86b1b;fill-opacity:1;fill-rule:nonzero;stroke:none;stroke-width:.0352778" transform="translate(-36.647 -53.997)"/><path d="m71.644 63.897-.188-.015-.108-.012-.613-.36a.22.22 0 0 1 .016-.136z" style="fill:#bd501e;fill-opacity:1;fill-rule:nonzero;stroke:none;stroke-width:.0352778" transform="translate(-36.647 -53.997)"/><path d="m72.068 63.93-.424-.033-.893-.523q.035-.076.128-.145z" style="fill:#d7721a;fill-opacity:1;fill-rule:nonzero;stroke:none;stroke-width:.0352778" transform="translate(-36.647 -53.997)"/><path d="m74.192 63.356-.597-.353.563-.011z" style="fill:#d86b1b;fill-opacity:1;fill-rule:nonzero;stroke:none;stroke-width:.0352778" transform="translate(-36.647 -53.997)"/><path d="m74.226 63.734-1.229-.719.242-.005.973.57z" style="fill:#bd501e;fill-opacity:1;fill-rule:nonzero;stroke:none;stroke-width:.0352778" transform="translate(-36.647 -53.997)"/><path d="m74.212 63.58-.973-.57.356-.007.597.353z" style="fill:#d7721a;fill-opacity:1;fill-rule:nonzero;stroke:none;stroke-width:.0352778" transform="translate(-36.647 -53.997)"/><path d="m73.253 62.867 2.013-.03v.756c.01.126-.078.253-.266.353-.377.199-1.015.21-1.424.023-.205-.093-.314-.219-.323-.346z" style="fill:#a6cbc7;fill-opacity:1;fill-rule:nonzero;stroke:none;stroke-width:.0352778" transform="translate(-36.647 -53.997)"/><path d="m73.346 60.987 1.734-.02.186 1.87c.01.126-.078.254-.266.353-.377.2-1.015.21-1.424.024-.205-.094-.314-.22-.323-.347z" style="fill:#d75e1c;fill-opacity:1;fill-rule:nonzero;stroke:none;stroke-width:.0352778" transform="translate(-36.647 -53.997)"/><path d="M73.575 60.685c.325-.171.874-.18 1.226-.02s.374.43.05.601c-.326.172-.874.18-1.226.02s-.375-.429-.05-.6" style="fill:#f79924;fill-opacity:1;fill-rule:nonzero;stroke:none;stroke-width:.0352778" transform="translate(-36.647 -53.997)"/><path d="M73.565 62.513c.35-.185.942-.194 1.32-.022.38.173.404.463.054.648s-.941.195-1.321.022-.403-.463-.053-.648" style="fill:#f78e1e;fill-opacity:1;fill-rule:nonzero;stroke:none;stroke-width:.0352778" transform="translate(-36.647 -53.997)"/><path d="M74.517 61.81c.09.25.129.651.033.883-.095.232-.516.167-.606-.083s-.065-.38.031-.611c.096-.232.452-.439.542-.189" style="fill:#f78e1e;fill-opacity:1;fill-rule:nonzero;stroke:none;stroke-width:.0352778" transform="translate(-36.647 -53.997)"/><path d="M74.177 62.024c.076.256.072.614-.008.801s-.207.131-.282-.124c-.076-.256-.072-.615.008-.802s.207-.13.282.125" style="fill:#f79924;fill-opacity:1;fill-rule:nonzero;stroke:none;stroke-width:.0352778" transform="translate(-36.647 -53.997)"/><path d="m68.494 79.928 1.13.664v.564l-1.313-1.121z" style="fill:#db6133;fill-opacity:1;fill-rule:nonzero;stroke:none;stroke-width:.0352778" transform="translate(-36.647 -53.997)"/><path d="m68.311 80.035 1.13.664v.564l-1.13-.678z" style="fill:#f57734;fill-opacity:1;fill-rule:nonzero;stroke:none;stroke-width:.0352778" transform="translate(-36.647 -53.997)"/><path d="m69.441 80.699.183-.107v.564l-.183.107V80.7" style="fill:#d94f20;fill-opacity:1;fill-rule:nonzero;stroke:none;stroke-width:.0352778" transform="translate(-36.647 -53.997)"/><path d="m97.321 92.071.003.008-.105.063q-.156.105-.322.19l-13.941 8.273-2.071-3.235-1.207-1.89-3.284-5.134-.66-1.4-1.555-3.31-.808-1.717 14.012-8.298.004.011c1.065-.74 2.532-.8 4.187-.035.243.113.494.243.744.391.858.508 1.68 1.186 2.435 1.98 1.714 1.806 3.086 4.215 3.774 6.632.223.783.374 1.562.441 2.328q.047.462.046.914c0 2.01-.642 3.457-1.693 4.23" style="fill:#2d2325;fill-opacity:1;fill-rule:nonzero;stroke:none;stroke-width:.0352778" transform="translate(-36.647 -53.997)"/><path d="M98.968 86.928 80.885 97.37l-1.207-1.89-3.284-5.134-.66-1.4-1.555-3.31 17.395-10.04c.243.114.494.244.744.392.858.508 1.68 1.186 2.435 1.98 1.714 1.806 3.086 4.215 3.774 6.632.223.783.374 1.562.441 2.328" style="fill:#372a2e;fill-opacity:1;fill-rule:nonzero;stroke:none;stroke-width:.0352778" transform="translate(-36.647 -53.997)"/><path d="M98.527 84.6 79.678 95.48l-3.284-5.134-.66-1.4 19.019-10.979c1.714 1.807 3.086 4.216 3.774 6.633" style="fill:#46363a;fill-opacity:1;fill-rule:nonzero;stroke:none;stroke-width:.0352778" transform="translate(-36.647 -53.997)"/><path d="M98.9 89.23 83.595 98.3l2.344.535 10.956-6.502q.168-.086.322-.191l.107-.063-.005-.009c.791-.58 1.35-1.543 1.58-2.84" style="fill:#171213;fill-opacity:1;fill-rule:nonzero;stroke:none;stroke-width:.0352778" transform="translate(-36.647 -53.997)"/><path d="M100.74 90.693 85.274 99.86l2.63.6 12.66-7.502.178-2.265" style="fill:#262324;fill-opacity:1;fill-rule:nonzero;stroke:none;stroke-width:.0352778" transform="translate(-36.647 -53.997)"/><path d="m90.078 98.236-1.442.844.043-.894 1.442-.844z" style="fill:#edeeeb;fill-opacity:1;fill-rule:nonzero;stroke:none;stroke-width:.0352778" transform="translate(-36.647 -53.997)"/><path d="m90.078 98.236-.418-.218-1 .585.02-.417 1.44-.844z" style="fill:#acaead;fill-opacity:1;fill-rule:nonzero;stroke:none;stroke-width:.0352778" transform="translate(-36.647 -53.997)"/><path d="m90.12 97.342-.042.894-1.442.844-.005.11 1.538-.9.048-1.004-.096.056" style="fill:#343133;fill-opacity:1;fill-rule:nonzero;stroke:none;stroke-width:.0352778" transform="translate(-36.647 -53.997)"/><path d="m89.184 98.3-.455.266.015-.298.455-.266-.015.297" style="fill:#fff;fill-opacity:1;fill-rule:nonzero;stroke:none;stroke-width:.0352778" transform="translate(-36.647 -53.997)"/><path d="m88.636 99.08-.005.11 1.538-.9-.091-.054z" style="fill:#616062;fill-opacity:1;fill-rule:nonzero;stroke:none;stroke-width:.0352778" transform="translate(-36.647 -53.997)"/><path d="m99.985 92.384-1.441.844.043-.894 1.441-.844z" style="fill:#edeeeb;fill-opacity:1;fill-rule:nonzero;stroke:none;stroke-width:.0352778" transform="translate(-36.647 -53.997)"/><path d="m99.985 92.384-.417-.218-1 .585.019-.417 1.441-.844z" style="fill:#acaead;fill-opacity:1;fill-rule:nonzero;stroke:none;stroke-width:.0352778" transform="translate(-36.647 -53.997)"/><path d="m100.028 91.49-.043.894-1.441.844-.005.11 1.537-.9.049-1.004z" style="fill:#343133;fill-opacity:1;fill-rule:nonzero;stroke:none;stroke-width:.0352778" transform="translate(-36.647 -53.997)"/><path d="m99.092 92.447-.455.267.014-.298.455-.266z" style="fill:#fff;fill-opacity:1;fill-rule:nonzero;stroke:none;stroke-width:.0352778" transform="translate(-36.647 -53.997)"/><path d="m98.544 93.228-.005.11 1.537-.9-.09-.054z" style="fill:#616062;fill-opacity:1;fill-rule:nonzero;stroke:none;stroke-width:.0352778" transform="translate(-36.647 -53.997)"/><path d="m99.042 89.591-13.63 8.079-.139 2.19 15.468-9.167z" style="fill:#343133;fill-opacity:1;fill-rule:nonzero;stroke:none;stroke-width:.0352778" transform="translate(-36.647 -53.997)"/><path d="M84.97 96.163c0 4.355-2.998 6.11-6.696 3.918-3.697-2.191-6.695-7.5-6.695-11.855s2.998-6.11 6.695-3.919 6.696 7.5 6.696 11.856" style="fill:#e58317;fill-opacity:1;fill-rule:nonzero;stroke:none;stroke-width:.0352778" transform="translate(-36.647 -53.997)"/><path d="M84.654 95.977c0 .631-.066 1.205-.192 1.712a5 5 0 0 1-.252.776l-.004.015c-.67 1.592-2.04 2.353-3.748 2.068a4 4 0 0 1-.343-.067 6.6 6.6 0 0 1-1.848-.776c-.771-.455-1.506-1.055-2.187-1.752-.292-.3-.574-.62-.846-.952l-.005-.005q-.27-.333-.524-.683l-.005-.005c-1.692-2.358-2.806-5.3-2.806-7.896 0-.734.091-1.39.258-1.965.372-1.282 1.138-2.14 2.155-2.487.368-.13.776-.192 1.215-.176l.066.007a1 1 0 0 1 .105.004l-.048.002c.403.023.828.1 1.277.25q.65.22 1.355.632c3.52 2.089 6.377 7.146 6.377 11.298" style="fill:#5b2d39;fill-opacity:1;fill-rule:nonzero;stroke:none;stroke-width:.0352778" transform="translate(-36.647 -53.997)"/><path d="M84.654 95.977c0 .631-.066 1.205-.192 1.712a5 5 0 0 1-.252.776l.01-.068c-.654 1.64-2.03 2.43-3.762 2.151a4 4 0 0 1-.343-.067 6.6 6.6 0 0 1-1.848-.776c-.771-.455-1.506-1.055-2.187-1.752a13 13 0 0 1-.846-.952l-.005-.005q-.27-.333-.524-.683l-.005-.005c-1.697-2.353-2.81-5.3-2.81-7.89 0-.735.09-1.397.262-1.97.372-1.283 1.138-2.142 2.155-2.488q.56-.195 1.21-.17l.005-.006.066.007a1 1 0 0 1 .105.004l-.048.002c.403.023.828.1 1.277.25q.65.22 1.355.632c3.52 2.089 6.377 7.146 6.377 11.298" style="fill:#84381a;fill-opacity:1;fill-rule:nonzero;stroke:none;stroke-width:.0352778" transform="translate(-36.647 -53.997)"/><path d="M84.654 95.977c0 .631-.066 1.205-.192 1.712-.624.362-1.602.91-1.677.967-.997.729-.58-.31-2.201-1.272-3.007-1.78-5.445-6.097-5.445-9.644 0-1.515-1.22-1.795-.474-2.451.181-.16 2.025-1.128 2.257-1.241q.65.219 1.355.63c3.52 2.09 6.377 7.147 6.377 11.3" style="fill:#6e4350;fill-opacity:1;fill-rule:nonzero;stroke:none;stroke-width:.0352778" transform="translate(-36.647 -53.997)"/><path d="M84.204 95.176c0 3.543-2.438 4.97-5.447 3.188-3.007-1.783-5.446-6.101-5.446-9.644s2.439-4.97 5.446-3.188c3.009 1.783 5.447 6.1 5.447 9.644" style="fill:#704e59;fill-opacity:1;fill-rule:nonzero;stroke:none;stroke-width:.0352778" transform="translate(-36.647 -53.997)"/><path d="M83.596 94.814c0 3.149-2.166 4.416-4.84 2.833-2.67-1.582-4.837-5.419-4.837-8.568 0-3.144 2.166-4.41 4.837-2.828.226.134.453.284.67.45 2.11 1.592 3.782 4.53 4.115 7.192.035.31.055.62.055.921" style="fill:#5b2d39;fill-opacity:1;fill-rule:nonzero;stroke:none;stroke-width:.0352778" transform="translate(-36.647 -53.997)"/><path d="m83.54 93.893-2.15 1.278-4.146-7.178 2.181-1.292c2.11 1.592 3.783 4.53 4.116 7.192" style="fill:#5b2d39;fill-opacity:1;fill-rule:nonzero;stroke:none;stroke-width:.0352778" transform="translate(-36.647 -53.997)"/><path d="M82.142 93.332c0 1.878-1.292 2.634-2.886 1.689s-2.886-3.232-2.886-5.11 1.292-2.634 2.886-1.69c1.594.945 2.886 3.233 2.886 5.11" style="fill:#704e59;fill-opacity:1;fill-rule:nonzero;stroke:none;stroke-width:.0352778" transform="translate(-36.647 -53.997)"/><path d="m69.08 82.333 10.459 8.36 6.907 4.657 1.631 2.888-.644.347-.178 2.265-18.084-9.937-2.833-7.639 1.543-.783 1.2-.158" style="fill:#fabd22;fill-opacity:1;fill-rule:nonzero;stroke:none;stroke-width:.0352778" transform="translate(-36.647 -53.997)"/><path d="m72.374 84.966-.71-.567 10.74-6.366v.536l-.254.15-8.453 5.006c-.528.27-.977.688-1.323 1.24" style="fill:#c74121;fill-opacity:1;fill-rule:nonzero;stroke:none;stroke-width:.0352778" transform="translate(-36.647 -53.997)"/><path d="m71.665 84.399-1.296-1.036c.036-.022 9.297-5.814 10.023-5.824h.022c.728 0 1.983.491 1.99.494L71.664 84.4" style="fill:#ed841b;fill-opacity:1;fill-rule:nonzero;stroke:none;stroke-width:.0352778" transform="translate(-36.647 -53.997)"/><path d="m73.697 83.725 8.453-5.005-8.346 4.953z" style="fill:#2a1a15;fill-opacity:1;fill-rule:nonzero;stroke:none;stroke-width:.0352778" transform="translate(-36.647 -53.997)"/><path d="m72.702 85.228-.328-.262a3.38 3.38 0 0 1 1.43-1.293l-.006.004-.487.283c-.626.5-.932.998-.932.998l.328.263z" style="fill:#d4651c;fill-opacity:1;fill-rule:nonzero;stroke:none;stroke-width:.0352778" transform="translate(-36.647 -53.997)"/><path d="m73.891 86.179-1.189-.951.005-.007 1.188.951z" style="fill:#792b18;fill-opacity:1;fill-rule:nonzero;stroke:none;stroke-width:.0352778" transform="translate(-36.647 -53.997)"/><path d="m74.522 86.682-.63-.503.003-.007.63.505z" style="fill:#673b2c;fill-opacity:1;fill-rule:nonzero;stroke:none;stroke-width:.0352778" transform="translate(-36.647 -53.997)"/><path d="m76.743 88.458-2.221-1.776.003-.005 2.22 1.778z" style="fill:#54231f;fill-opacity:1;fill-rule:nonzero;stroke:none;stroke-width:.0352778" transform="translate(-36.647 -53.997)"/><path d="M79.544 90.696h-.001m-.002-.002h-.001m0 0-.001-.001m0 0-2.796-2.235.002-.003z" style="fill:#673b2c;fill-opacity:1;fill-rule:nonzero;stroke:none;stroke-width:.0352778" transform="translate(-36.647 -53.997)"/><path d="M84.083 93.757c-.985-.104-6.05-3.412-6.05-3.412L68.43 83.76l1.492-.754.447.359 1.296 1.035.71.567.327.262 1.19.95.63.504 2.221 1.776 2.796 2.235h.001v.001h.001l.002.001v.001h.001l4.54 3.061" style="fill:#ec901b;fill-opacity:1;fill-rule:nonzero;stroke:none;stroke-width:.0352778" transform="translate(-36.647 -53.997)"/><path d="m67.537 83.116 18.265 12.582 1.63 2.887-.177 2.265-1 .369-17.667-9.999-2.525-2.376.275-5.57z" style="fill:#e55d1b;fill-opacity:1;fill-rule:nonzero;stroke:none;stroke-width:.0352778" transform="translate(-36.647 -53.997)"/><path d="m88.077 98.238-.644.347-.178 2.265.648-.39zm-16.839-17.69v1.712l9.758-5.999.022-1.585z" style="fill:#f68c1f;fill-opacity:1;fill-rule:nonzero;stroke:none;stroke-width:.0352778" transform="translate(-36.647 -53.997)"/><path d="m71.77 79.66 1.637-.414-1.151.69-.827.099z" style="fill:#f9ad27;fill-opacity:1;fill-rule:nonzero;stroke:none;stroke-width:.0352778" transform="translate(-36.647 -53.997)"/></svg>